<?xml version="1.0" encoding="UTF-8" standalone="no"?>
<!DOCTYPE svg PUBLIC "-//W3C//DTD SVG 1.1//EN"
 "http://www.w3.org/Graphics/SVG/1.1/DTD/svg11.dtd">
<!-- Generated by graphviz version 2.40.1 (20161225.0304)
 -->
<!-- Title: /home/travis/build/AliceO2Group/AliceO2/GPU/GPUTracking/Interface/GPUO2InterfaceConfigurableParam.cxx Pages: 1 -->
<svg width="1779pt" height="553pt"
 viewBox="0.00 0.00 1778.84 553.00" xmlns="http://www.w3.org/2000/svg" xmlns:xlink="http://www.w3.org/1999/xlink">
<g id="graph0" class="graph" transform="scale(1 1) rotate(0) translate(4 549)">
<title>/home/travis/build/AliceO2Group/AliceO2/GPU/GPUTracking/Interface/GPUO2InterfaceConfigurableParam.cxx</title>
<!-- Node0 -->
<g id="node1" class="node">
<title>Node0</title>
<polygon fill="#bfbfbf" stroke="#000000" points="694.3388,-492.5 694.3388,-544.5 904.3388,-544.5 904.3388,-492.5 694.3388,-492.5"/>
<text text-anchor="start" x="702.3388" y="-532.5" font-family="Helvetica,sans-Serif" font-size="10.00" fill="#000000">/home/travis/build</text>
<text text-anchor="start" x="702.3388" y="-521.5" font-family="Helvetica,sans-Serif" font-size="10.00" fill="#000000">/AliceO2Group/AliceO2</text>
<text text-anchor="start" x="702.3388" y="-510.5" font-family="Helvetica,sans-Serif" font-size="10.00" fill="#000000">/GPU/GPUTracking/Interface</text>
<text text-anchor="middle" x="799.3388" y="-499.5" font-family="Helvetica,sans-Serif" font-size="10.00" fill="#000000">/GPUO2InterfaceConfigurableParam.cxx</text>
</g>
<!-- Node1 -->
<g id="node2" class="node">
<title>Node1</title>
<g id="a_node2"><a xlink:href="../../d9/d21/GPUO2InterfaceConfigurableParam_8h.html" target="_top" xlink:title="GPUO2InterfaceConfigurable\lParam.h">
<polygon fill="none" stroke="#000000" points="452.3388,-425.5 452.3388,-455.5 608.3388,-455.5 608.3388,-425.5 452.3388,-425.5"/>
<text text-anchor="start" x="460.3388" y="-443.5" font-family="Helvetica,sans-Serif" font-size="10.00" fill="#000000">GPUO2InterfaceConfigurable</text>
<text text-anchor="middle" x="530.3388" y="-432.5" font-family="Helvetica,sans-Serif" font-size="10.00" fill="#000000">Param.h</text>
</a>
</g>
</g>
<!-- Node0&#45;&gt;Node1 -->
<g id="edge1" class="edge">
<title>Node0&#45;&gt;Node1</title>
<path fill="none" stroke="#191970" d="M709.3917,-492.4187C670.8852,-481.2532 626.8863,-468.4952 592.1405,-458.4202"/>
<polygon fill="#191970" stroke="#191970" points="592.7148,-454.9426 582.1356,-455.5192 590.7653,-461.6657 592.7148,-454.9426"/>
</g>
<!-- Node20 -->
<g id="node21" class="node">
<title>Node20</title>
<g id="a_node21"><a xlink:href="../../d4/d57/GPUSettingsList_8h.html" target="_top" xlink:title="GPUSettingsList.h">
<polygon fill="none" stroke="#000000" points="478.3388,-168.5 478.3388,-187.5 582.3388,-187.5 582.3388,-168.5 478.3388,-168.5"/>
<text text-anchor="middle" x="530.3388" y="-175.5" font-family="Helvetica,sans-Serif" font-size="10.00" fill="#000000">GPUSettingsList.h</text>
</a>
</g>
</g>
<!-- Node0&#45;&gt;Node20 -->
<g id="edge66" class="edge">
<title>Node0&#45;&gt;Node20</title>
<path fill="none" stroke="#191970" d="M694.3254,-510.194C477.9054,-491.6618 2.3388,-443.0286 2.3388,-373.5 2.3388,-373.5 2.3388,-373.5 2.3388,-306.5 2.3388,-268.8735 -7.0163,-248.7334 21.3388,-224 54.378,-195.1807 339.804,-183.4423 468.2072,-179.5884"/>
<polygon fill="#191970" stroke="#191970" points="468.3926,-183.0846 478.2855,-179.2925 468.1871,-176.0876 468.3926,-183.0846"/>
</g>
<!-- Node23 -->
<g id="node24" class="node">
<title>Node23</title>
<g id="a_node24"><a xlink:href="../../d8/de7/GPUO2InterfaceConfiguration_8h.html" target="_top" xlink:title="GPUO2InterfaceConfiguration.h">
<polygon fill="none" stroke="#000000" points="1016.8388,-431 1016.8388,-450 1185.8388,-450 1185.8388,-431 1016.8388,-431"/>
<text text-anchor="middle" x="1101.3388" y="-438" font-family="Helvetica,sans-Serif" font-size="10.00" fill="#000000">GPUO2InterfaceConfiguration.h</text>
</a>
</g>
</g>
<!-- Node0&#45;&gt;Node23 -->
<g id="edge30" class="edge">
<title>Node0&#45;&gt;Node23</title>
<path fill="none" stroke="#191970" d="M900.3203,-492.4187C952.4373,-478.958 1013.5163,-463.1826 1054.5511,-452.5842"/>
<polygon fill="#191970" stroke="#191970" points="1055.4693,-455.962 1064.2763,-450.0724 1053.7188,-449.1844 1055.4693,-455.962"/>
</g>
<!-- Node30 -->
<g id="node31" class="node">
<title>Node30</title>
<g id="a_node31"><a xlink:href="../../d4/dc5/GPUDataTypes_8h.html" target="_top" xlink:title="GPUDataTypes.h">
<polygon fill="none" stroke="#000000" points="1672.3388,-364 1672.3388,-383 1770.3388,-383 1770.3388,-364 1672.3388,-364"/>
<text text-anchor="middle" x="1721.3388" y="-371" font-family="Helvetica,sans-Serif" font-size="10.00" fill="#000000">GPUDataTypes.h</text>
</a>
</g>
</g>
<!-- Node0&#45;&gt;Node30 -->
<g id="edge65" class="edge">
<title>Node0&#45;&gt;Node30</title>
<path fill="none" stroke="#191970" d="M904.6695,-505.7812C1067.1843,-485.4466 1388.5221,-442.4134 1658.3388,-389 1663.7943,-387.92 1669.489,-386.68 1675.1276,-385.3819"/>
<polygon fill="#191970" stroke="#191970" points="1676.2302,-388.7176 1685.1528,-383.0047 1674.615,-381.9065 1676.2302,-388.7176"/>
</g>
<!-- Node2 -->
<g id="node3" class="node">
<title>Node2</title>
<g id="a_node3"><a xlink:href="../../db/d2c/ConfigurableParam_8h.html" target="_top" xlink:title="CommonUtils/Configurable\lParam.h">
<polygon fill="none" stroke="#000000" points="136.3388,-291.5 136.3388,-321.5 284.3388,-321.5 284.3388,-291.5 136.3388,-291.5"/>
<text text-anchor="start" x="144.3388" y="-309.5" font-family="Helvetica,sans-Serif" font-size="10.00" fill="#000000">CommonUtils/Configurable</text>
<text text-anchor="middle" x="210.3388" y="-298.5" font-family="Helvetica,sans-Serif" font-size="10.00" fill="#000000">Param.h</text>
</a>
</g>
</g>
<!-- Node1&#45;&gt;Node2 -->
<g id="edge2" class="edge">
<title>Node1&#45;&gt;Node2</title>
<path fill="none" stroke="#191970" d="M452.1041,-436.7711C373.8407,-431.3976 260.7002,-418.6259 229.3388,-389 213.9766,-374.488 209.8772,-350.2529 209.2351,-331.7944"/>
<polygon fill="#191970" stroke="#191970" points="212.7348,-331.6978 209.1975,-321.7109 205.7349,-331.7239 212.7348,-331.6978"/>
</g>
<!-- Node3 -->
<g id="node4" class="node">
<title>Node3</title>
<polygon fill="none" stroke="#bfbfbf" points="720.8388,-230 720.8388,-249 767.8388,-249 767.8388,-230 720.8388,-230"/>
<text text-anchor="middle" x="744.3388" y="-237" font-family="Helvetica,sans-Serif" font-size="10.00" fill="#000000">vector</text>
</g>
<!-- Node1&#45;&gt;Node3 -->
<g id="edge28" class="edge">
<title>Node1&#45;&gt;Node3</title>
<path fill="none" stroke="#191970" d="M536.3719,-425.2563C548.8034,-395.6158 579.9631,-329.7323 625.3388,-291 650.2793,-269.7109 685.3651,-255.9751 710.9761,-248.0895"/>
<polygon fill="#191970" stroke="#191970" points="712.02,-251.4308 720.6284,-245.2545 710.0473,-244.7146 712.02,-251.4308"/>
</g>
<!-- Node9 -->
<g id="node10" class="node">
<title>Node9</title>
<g id="a_node10"><a xlink:href="../../da/d6b/ConfigurableParamHelper_8h.html" target="_top" xlink:title="CommonUtils/Configurable\lParamHelper.h">
<polygon fill="none" stroke="#000000" points="238.3388,-358.5 238.3388,-388.5 386.3388,-388.5 386.3388,-358.5 238.3388,-358.5"/>
<text text-anchor="start" x="246.3388" y="-376.5" font-family="Helvetica,sans-Serif" font-size="10.00" fill="#000000">CommonUtils/Configurable</text>
<text text-anchor="middle" x="312.3388" y="-365.5" font-family="Helvetica,sans-Serif" font-size="10.00" fill="#000000">ParamHelper.h</text>
</a>
</g>
</g>
<!-- Node1&#45;&gt;Node9 -->
<g id="edge9" class="edge">
<title>Node1&#45;&gt;Node9</title>
<path fill="none" stroke="#191970" d="M481.4153,-425.4639C448.8524,-415.456 405.8866,-402.2509 371.4169,-391.657"/>
<polygon fill="#191970" stroke="#191970" points="372.0626,-388.194 361.4756,-388.6017 370.0061,-394.8851 372.0626,-388.194"/>
</g>
<!-- Node13 -->
<g id="node14" class="node">
<title>Node13</title>
<g id="a_node14"><a xlink:href="../../dd/dc6/GPUSettings_8h.html" target="_top" xlink:title="GPUSettings.h">
<polygon fill="none" stroke="#000000" points="663.3388,-364 663.3388,-383 749.3388,-383 749.3388,-364 663.3388,-364"/>
<text text-anchor="middle" x="706.3388" y="-371" font-family="Helvetica,sans-Serif" font-size="10.00" fill="#000000">GPUSettings.h</text>
</a>
</g>
</g>
<!-- Node1&#45;&gt;Node13 -->
<g id="edge15" class="edge">
<title>Node1&#45;&gt;Node13</title>
<path fill="none" stroke="#191970" d="M569.8366,-425.4639C600.5224,-413.7824 642.6506,-397.7449 671.9574,-386.5884"/>
<polygon fill="#191970" stroke="#191970" points="673.2692,-389.8341 681.3697,-383.0053 670.7787,-383.2921 673.2692,-389.8341"/>
</g>
<!-- Node1&#45;&gt;Node20 -->
<g id="edge29" class="edge">
<title>Node1&#45;&gt;Node20</title>
<path fill="none" stroke="#191970" d="M530.3388,-425.2523C530.3388,-380.2814 530.3388,-248.193 530.3388,-197.8234"/>
<polygon fill="#191970" stroke="#191970" points="533.8389,-197.6201 530.3388,-187.6202 526.8389,-197.6202 533.8389,-197.6201"/>
</g>
<!-- Node22 -->
<g id="node23" class="node">
<title>Node22</title>
<g id="a_node23"><a xlink:href="../../d6/dff/GPUDefMacros_8h.html" target="_top" xlink:title="GPUDefMacros.h">
<polygon fill="none" stroke="#000000" points="404.3388,-364 404.3388,-383 502.3388,-383 502.3388,-364 404.3388,-364"/>
<text text-anchor="middle" x="453.3388" y="-371" font-family="Helvetica,sans-Serif" font-size="10.00" fill="#000000">GPUDefMacros.h</text>
</a>
</g>
</g>
<!-- Node1&#45;&gt;Node22 -->
<g id="edge27" class="edge">
<title>Node1&#45;&gt;Node22</title>
<path fill="none" stroke="#191970" d="M512.8663,-425.2967C500.6364,-414.6551 484.3229,-400.4602 471.8667,-389.6217"/>
<polygon fill="#191970" stroke="#191970" points="474.1613,-386.9788 464.3199,-383.055 469.5663,-392.2596 474.1613,-386.9788"/>
</g>
<!-- Node2&#45;&gt;Node3 -->
<g id="edge3" class="edge">
<title>Node2&#45;&gt;Node3</title>
<path fill="none" stroke="#191970" d="M284.5295,-297.0498C300.3101,-295.0466 316.875,-292.9488 332.3388,-291 472.8137,-273.2967 640.2643,-252.4423 710.6016,-243.6938"/>
<polygon fill="#191970" stroke="#191970" points="711.1577,-247.1516 720.6493,-242.4442 710.2938,-240.2052 711.1577,-247.1516"/>
</g>
<!-- Node4 -->
<g id="node5" class="node">
<title>Node4</title>
<polygon fill="none" stroke="#bfbfbf" points="108.3388,-230 108.3388,-249 146.3388,-249 146.3388,-230 108.3388,-230"/>
<text text-anchor="middle" x="127.3388" y="-237" font-family="Helvetica,sans-Serif" font-size="10.00" fill="#000000">map</text>
</g>
<!-- Node2&#45;&gt;Node4 -->
<g id="edge4" class="edge">
<title>Node2&#45;&gt;Node4</title>
<path fill="none" stroke="#191970" d="M191.5048,-291.2967C178.3219,-280.6551 160.7372,-266.4602 147.3104,-255.6217"/>
<polygon fill="#191970" stroke="#191970" points="149.1552,-252.6128 139.1755,-249.055 144.7583,-258.0596 149.1552,-252.6128"/>
</g>
<!-- Node5 -->
<g id="node6" class="node">
<title>Node5</title>
<polygon fill="none" stroke="#bfbfbf" points="164.8388,-230 164.8388,-249 257.8388,-249 257.8388,-230 164.8388,-230"/>
<text text-anchor="middle" x="211.3388" y="-237" font-family="Helvetica,sans-Serif" font-size="10.00" fill="#000000">unordered_map</text>
</g>
<!-- Node2&#45;&gt;Node5 -->
<g id="edge5" class="edge">
<title>Node2&#45;&gt;Node5</title>
<path fill="none" stroke="#191970" d="M210.5657,-291.2967C210.7079,-281.7699 210.8926,-269.3954 211.0458,-259.1306"/>
<polygon fill="#191970" stroke="#191970" points="214.5464,-259.1061 211.1962,-249.055 207.5472,-259.0016 214.5464,-259.1061"/>
</g>
<!-- Node6 -->
<g id="node7" class="node">
<title>Node6</title>
<polygon fill="none" stroke="#bfbfbf" points="275.8388,-224.5 275.8388,-254.5 388.8388,-254.5 388.8388,-224.5 275.8388,-224.5"/>
<text text-anchor="start" x="283.8388" y="-242.5" font-family="Helvetica,sans-Serif" font-size="10.00" fill="#000000">boost/property_tree</text>
<text text-anchor="middle" x="332.3388" y="-231.5" font-family="Helvetica,sans-Serif" font-size="10.00" fill="#000000">/ptree.hpp</text>
</g>
<!-- Node2&#45;&gt;Node6 -->
<g id="edge6" class="edge">
<title>Node2&#45;&gt;Node6</title>
<path fill="none" stroke="#191970" d="M237.718,-291.4639C254.8641,-282.0475 277.1642,-269.8008 295.8085,-259.5617"/>
<polygon fill="#191970" stroke="#191970" points="297.5485,-262.5993 304.6289,-254.7177 294.1789,-256.4636 297.5485,-262.5993"/>
</g>
<!-- Node7 -->
<g id="node8" class="node">
<title>Node7</title>
<polygon fill="none" stroke="#bfbfbf" points="406.8388,-230 406.8388,-249 463.8388,-249 463.8388,-230 406.8388,-230"/>
<text text-anchor="middle" x="435.3388" y="-237" font-family="Helvetica,sans-Serif" font-size="10.00" fill="#000000">typeinfo</text>
</g>
<!-- Node2&#45;&gt;Node7 -->
<g id="edge7" class="edge">
<title>Node2&#45;&gt;Node7</title>
<path fill="none" stroke="#191970" d="M273.1953,-291.4495C310.0206,-282.0958 357.2279,-269.1754 398.3388,-255 400.2152,-254.353 402.1325,-253.6579 404.0581,-252.9335"/>
<polygon fill="#191970" stroke="#191970" points="405.5971,-256.0886 413.6071,-249.1538 403.0208,-249.58 405.5971,-256.0886"/>
</g>
<!-- Node8 -->
<g id="node9" class="node">
<title>Node8</title>
<polygon fill="none" stroke="#bfbfbf" points="30.3388,-230 30.3388,-249 90.3388,-249 90.3388,-230 30.3388,-230"/>
<text text-anchor="middle" x="60.3388" y="-237" font-family="Helvetica,sans-Serif" font-size="10.00" fill="#000000">iostream</text>
</g>
<!-- Node2&#45;&gt;Node8 -->
<g id="edge8" class="edge">
<title>Node2&#45;&gt;Node8</title>
<path fill="none" stroke="#191970" d="M176.6758,-291.4639C151.0543,-280.0196 116.0727,-264.3945 91.1761,-253.274"/>
<polygon fill="#191970" stroke="#191970" points="92.3981,-249.9866 81.8401,-249.1039 89.5432,-256.378 92.3981,-249.9866"/>
</g>
<!-- Node9&#45;&gt;Node2 -->
<g id="edge10" class="edge">
<title>Node9&#45;&gt;Node2</title>
<path fill="none" stroke="#191970" d="M289.448,-358.4639C275.5036,-349.3044 257.4821,-337.4667 242.1625,-327.4038"/>
<polygon fill="#191970" stroke="#191970" points="243.7858,-324.2826 233.5061,-321.7177 239.9427,-330.1333 243.7858,-324.2826"/>
</g>
<!-- Node9&#45;&gt;Node7 -->
<g id="edge13" class="edge">
<title>Node9&#45;&gt;Node7</title>
<path fill="none" stroke="#191970" d="M312.3095,-358.4596C313.0331,-340.549 316.7315,-310.5992 332.3388,-291 337.29,-284.7823 375.8347,-266.4169 404.3268,-253.395"/>
<polygon fill="#191970" stroke="#191970" points="405.8841,-256.5319 413.5409,-249.209 402.9887,-250.1587 405.8841,-256.5319"/>
</g>
<!-- Node10 -->
<g id="node11" class="node">
<title>Node10</title>
<polygon fill="none" stroke="#bfbfbf" points="340.8388,-297 340.8388,-316 397.8388,-316 397.8388,-297 340.8388,-297"/>
<text text-anchor="middle" x="369.3388" y="-304" font-family="Helvetica,sans-Serif" font-size="10.00" fill="#000000">TClass.h</text>
</g>
<!-- Node9&#45;&gt;Node10 -->
<g id="edge11" class="edge">
<title>Node9&#45;&gt;Node10</title>
<path fill="none" stroke="#191970" d="M325.273,-358.2967C333.9814,-348.0605 345.4868,-334.5366 354.5574,-323.8746"/>
<polygon fill="#191970" stroke="#191970" points="357.3959,-325.9395 361.2099,-316.055 352.0643,-321.4036 357.3959,-325.9395"/>
</g>
<!-- Node11 -->
<g id="node12" class="node">
<title>Node11</title>
<polygon fill="none" stroke="#bfbfbf" points="939.8388,-230 939.8388,-249 1008.8388,-249 1008.8388,-230 939.8388,-230"/>
<text text-anchor="middle" x="974.3388" y="-237" font-family="Helvetica,sans-Serif" font-size="10.00" fill="#000000">type_traits</text>
</g>
<!-- Node9&#45;&gt;Node11 -->
<g id="edge12" class="edge">
<title>Node9&#45;&gt;Node11</title>
<path fill="none" stroke="#191970" d="M361.7697,-358.4396C423.0905,-340.2294 531.0808,-309.7021 625.3388,-291 742.7896,-267.6961 774.1358,-274.1267 892.3388,-255 904.518,-253.0293 917.6679,-250.6545 929.7951,-248.3627"/>
<polygon fill="#191970" stroke="#191970" points="930.5337,-251.7849 939.6976,-246.4677 929.218,-244.9097 930.5337,-251.7849"/>
</g>
<!-- Node12 -->
<g id="node13" class="node">
<title>Node12</title>
<polygon fill="none" stroke="#bfbfbf" points="416.3388,-297 416.3388,-316 464.3388,-316 464.3388,-297 416.3388,-297"/>
<text text-anchor="middle" x="440.3388" y="-304" font-family="Helvetica,sans-Serif" font-size="10.00" fill="#000000">TFile.h</text>
</g>
<!-- Node9&#45;&gt;Node12 -->
<g id="edge14" class="edge">
<title>Node9&#45;&gt;Node12</title>
<path fill="none" stroke="#191970" d="M341.0645,-358.4639C362.5412,-347.2222 391.725,-331.9463 412.8882,-320.8686"/>
<polygon fill="#191970" stroke="#191970" points="414.7544,-323.8423 421.991,-316.1039 411.5082,-317.6406 414.7544,-323.8423"/>
</g>
<!-- Node13&#45;&gt;Node3 -->
<g id="edge19" class="edge">
<title>Node13&#45;&gt;Node3</title>
<path fill="none" stroke="#191970" d="M709.0716,-363.8631C715.2887,-341.9398 730.5891,-287.9858 738.845,-258.8727"/>
<polygon fill="#191970" stroke="#191970" points="742.2696,-259.6252 741.6307,-249.0496 735.5351,-257.7154 742.2696,-259.6252"/>
</g>
<!-- Node14 -->
<g id="node15" class="node">
<title>Node14</title>
<g id="a_node15"><a xlink:href="../../df/d21/GPUCommonDef_8h.html" target="_top" xlink:title="GPUCommonDef.h">
<polygon fill="none" stroke="#000000" points="920.8388,-56.5 920.8388,-75.5 1027.8388,-75.5 1027.8388,-56.5 920.8388,-56.5"/>
<text text-anchor="middle" x="974.3388" y="-63.5" font-family="Helvetica,sans-Serif" font-size="10.00" fill="#000000">GPUCommonDef.h</text>
</a>
</g>
</g>
<!-- Node13&#45;&gt;Node14 -->
<g id="edge16" class="edge">
<title>Node13&#45;&gt;Node14</title>
<path fill="none" stroke="#191970" d="M703.8185,-363.8896C697.8125,-338.7955 685.0975,-270.0569 712.3388,-224 760.2392,-143.0146 867.2939,-98.4554 928.7052,-78.6875"/>
<polygon fill="#191970" stroke="#191970" points="930.0218,-81.9429 938.5191,-75.6146 927.9301,-75.2627 930.0218,-81.9429"/>
</g>
<!-- Node17 -->
<g id="node18" class="node">
<title>Node17</title>
<polygon fill="none" stroke="#bfbfbf" points="634.3388,-297 634.3388,-316 678.3388,-316 678.3388,-297 634.3388,-297"/>
<text text-anchor="middle" x="656.3388" y="-304" font-family="Helvetica,sans-Serif" font-size="10.00" fill="#000000">string</text>
</g>
<!-- Node13&#45;&gt;Node17 -->
<g id="edge20" class="edge">
<title>Node13&#45;&gt;Node17</title>
<path fill="none" stroke="#191970" d="M699.175,-363.9005C691.4522,-353.552 678.9911,-336.8542 669.4951,-324.1295"/>
<polygon fill="#191970" stroke="#191970" points="672.2752,-322.0027 663.4893,-316.0817 666.6651,-326.1893 672.2752,-322.0027"/>
</g>
<!-- Node18 -->
<g id="node19" class="node">
<title>Node18</title>
<g id="a_node19"><a xlink:href="../../da/d08/qconfig_8h.html" target="_top" xlink:title="utils/qconfig.h">
<polygon fill="none" stroke="#000000" points="810.8388,-297 810.8388,-316 895.8388,-316 895.8388,-297 810.8388,-297"/>
<text text-anchor="middle" x="853.3388" y="-304" font-family="Helvetica,sans-Serif" font-size="10.00" fill="#000000">utils/qconfig.h</text>
</a>
</g>
</g>
<!-- Node13&#45;&gt;Node18 -->
<g id="edge21" class="edge">
<title>Node13&#45;&gt;Node18</title>
<path fill="none" stroke="#191970" d="M727.4003,-363.9005C752.5068,-352.4574 794.6464,-333.2509 823.1986,-320.2374"/>
<polygon fill="#191970" stroke="#191970" points="824.6685,-323.4139 832.3163,-316.0817 821.7653,-317.0443 824.6685,-323.4139"/>
</g>
<!-- Node15 -->
<g id="node16" class="node">
<title>Node15</title>
<g id="a_node16"><a xlink:href="../../d5/d93/GPUCommonDefSettings_8h.html" target="_top" xlink:title="GPUCommonDefSettings.h">
<polygon fill="none" stroke="#000000" points="823.3388,-.5 823.3388,-19.5 971.3388,-19.5 971.3388,-.5 823.3388,-.5"/>
<text text-anchor="middle" x="897.3388" y="-7.5" font-family="Helvetica,sans-Serif" font-size="10.00" fill="#000000">GPUCommonDefSettings.h</text>
</a>
</g>
</g>
<!-- Node14&#45;&gt;Node15 -->
<g id="edge17" class="edge">
<title>Node14&#45;&gt;Node15</title>
<path fill="none" stroke="#191970" d="M960.9264,-56.2455C949.3331,-47.814 932.364,-35.4729 918.8709,-25.6598"/>
<polygon fill="#191970" stroke="#191970" points="920.7434,-22.6938 910.5974,-19.6427 916.6262,-28.355 920.7434,-22.6938"/>
</g>
<!-- Node16 -->
<g id="node17" class="node">
<title>Node16</title>
<g id="a_node17"><a xlink:href="../../da/d5a/GPUCommonDefAPI_8h.html" target="_top" xlink:title="GPUCommonDefAPI.h">
<polygon fill="none" stroke="#000000" points="989.3388,-.5 989.3388,-19.5 1113.3388,-19.5 1113.3388,-.5 989.3388,-.5"/>
<text text-anchor="middle" x="1051.3388" y="-7.5" font-family="Helvetica,sans-Serif" font-size="10.00" fill="#000000">GPUCommonDefAPI.h</text>
</a>
</g>
</g>
<!-- Node14&#45;&gt;Node16 -->
<g id="edge18" class="edge">
<title>Node14&#45;&gt;Node16</title>
<path fill="none" stroke="#191970" d="M987.7511,-56.2455C999.3445,-47.814 1016.3135,-35.4729 1029.8066,-25.6598"/>
<polygon fill="#191970" stroke="#191970" points="1032.0513,-28.355 1038.0801,-19.6427 1027.9341,-22.6938 1032.0513,-28.355"/>
</g>
<!-- Node19 -->
<g id="node20" class="node">
<title>Node19</title>
<g id="a_node20"><a xlink:href="../../d8/de9/qconfigoptions_8h.html" target="_top" xlink:title="qconfigoptions.h">
<polygon fill="none" stroke="#000000" points="785.8388,-230 785.8388,-249 882.8388,-249 882.8388,-230 785.8388,-230"/>
<text text-anchor="middle" x="834.3388" y="-237" font-family="Helvetica,sans-Serif" font-size="10.00" fill="#000000">qconfigoptions.h</text>
</a>
</g>
</g>
<!-- Node18&#45;&gt;Node19 -->
<g id="edge22" class="edge">
<title>Node18&#45;&gt;Node19</title>
<path fill="none" stroke="#191970" d="M850.6165,-296.9005C847.823,-287.0495 843.3978,-271.4451 839.8661,-258.9912"/>
<polygon fill="#191970" stroke="#191970" points="843.1515,-257.7474 837.056,-249.0817 836.417,-259.6572 843.1515,-257.7474"/>
</g>
<!-- Node19&#45;&gt;Node20 -->
<g id="edge23" class="edge">
<title>Node19&#45;&gt;Node20</title>
<path fill="none" stroke="#191970" d="M800.9974,-229.9452C793.2604,-227.864 785.0365,-225.7604 777.3388,-224 714.8827,-209.7173 642.7848,-196.6813 592.6691,-188.163"/>
<polygon fill="#191970" stroke="#191970" points="593.0779,-184.6826 582.6346,-186.4679 591.9118,-191.5848 593.0779,-184.6826"/>
</g>
<!-- Node20&#45;&gt;Node13 -->
<g id="edge26" class="edge">
<title>Node20&#45;&gt;Node13</title>
<path fill="none" stroke="#191970" d="M534.9351,-187.7427C546.9767,-212.5081 581.5595,-278.9523 625.3388,-322 640.5359,-336.9432 660.7659,-349.8097 677.2065,-358.9446"/>
<polygon fill="#191970" stroke="#191970" points="675.9171,-362.2251 686.382,-363.8793 679.2328,-356.0602 675.9171,-362.2251"/>
</g>
<!-- Node21 -->
<g id="node22" class="node">
<title>Node21</title>
<g id="a_node22"><a xlink:href="../../d2/d37/GPUDefConstantsAndSettings_8h.html" target="_top" xlink:title="GPUDefConstantsAndSettings.h">
<polygon fill="none" stroke="#000000" points="468.8388,-112.5 468.8388,-131.5 639.8388,-131.5 639.8388,-112.5 468.8388,-112.5"/>
<text text-anchor="middle" x="554.3388" y="-119.5" font-family="Helvetica,sans-Serif" font-size="10.00" fill="#000000">GPUDefConstantsAndSettings.h</text>
</a>
</g>
</g>
<!-- Node20&#45;&gt;Node21 -->
<g id="edge24" class="edge">
<title>Node20&#45;&gt;Node21</title>
<path fill="none" stroke="#191970" d="M534.5193,-168.2455C537.7198,-160.7776 542.2348,-150.2427 546.1472,-141.1137"/>
<polygon fill="#191970" stroke="#191970" points="549.484,-142.2129 550.2062,-131.6427 543.0499,-139.4554 549.484,-142.2129"/>
</g>
<!-- Node21&#45;&gt;Node14 -->
<g id="edge25" class="edge">
<title>Node21&#45;&gt;Node14</title>
<path fill="none" stroke="#191970" d="M626.0621,-112.4369C705.9979,-101.7788 834.0521,-84.7049 910.5999,-74.4985"/>
<polygon fill="#191970" stroke="#191970" points="911.1402,-77.9575 920.5899,-73.1665 910.215,-71.0189 911.1402,-77.9575"/>
</g>
<!-- Node23&#45;&gt;Node3 -->
<g id="edge33" class="edge">
<title>Node23&#45;&gt;Node3</title>
<path fill="none" stroke="#191970" d="M1016.6359,-434.6257C941.538,-427.843 839.0028,-414.225 807.3388,-389 766.1533,-356.1897 751.523,-291.568 746.6272,-259.0976"/>
<polygon fill="#191970" stroke="#191970" points="750.0785,-258.5009 745.2739,-249.0582 743.1413,-259.4361 750.0785,-258.5009"/>
</g>
<!-- Node23&#45;&gt;Node13 -->
<g id="edge36" class="edge">
<title>Node23&#45;&gt;Node13</title>
<path fill="none" stroke="#191970" d="M1026.9289,-430.9786C959.2144,-421.8435 856.6468,-406.8282 768.3388,-389 763.0368,-387.9296 757.5059,-386.7048 752.0254,-385.4232"/>
<polygon fill="#191970" stroke="#191970" points="752.8167,-382.0138 742.2753,-383.0761 751.1784,-388.8194 752.8167,-382.0138"/>
</g>
<!-- Node24 -->
<g id="node25" class="node">
<title>Node24</title>
<polygon fill="none" stroke="#bfbfbf" points="1537.3388,-230 1537.3388,-249 1595.3388,-249 1595.3388,-230 1537.3388,-230"/>
<text text-anchor="middle" x="1566.3388" y="-237" font-family="Helvetica,sans-Serif" font-size="10.00" fill="#000000">memory</text>
</g>
<!-- Node23&#45;&gt;Node24 -->
<g id="edge31" class="edge">
<title>Node23&#45;&gt;Node24</title>
<path fill="none" stroke="#191970" d="M1185.9658,-432.9857C1312.6554,-419.7013 1541.6764,-387.1019 1587.3388,-322 1600.8012,-302.8064 1589.5174,-275.7235 1578.9857,-257.8975"/>
<polygon fill="#191970" stroke="#191970" points="1581.6876,-255.623 1573.374,-249.0553 1575.7774,-259.374 1581.6876,-255.623"/>
</g>
<!-- Node25 -->
<g id="node26" class="node">
<title>Node25</title>
<polygon fill="none" stroke="#bfbfbf" points="1536.3388,-297 1536.3388,-316 1578.3388,-316 1578.3388,-297 1536.3388,-297"/>
<text text-anchor="middle" x="1557.3388" y="-304" font-family="Helvetica,sans-Serif" font-size="10.00" fill="#000000">array</text>
</g>
<!-- Node23&#45;&gt;Node25 -->
<g id="edge32" class="edge">
<title>Node23&#45;&gt;Node25</title>
<path fill="none" stroke="#191970" d="M1154.7612,-430.9888C1203.3197,-421.8606 1276.7289,-406.8497 1339.3388,-389 1424.6429,-364.6804 1445.9739,-357.3271 1527.3388,-322 1528.3605,-321.5564 1529.3958,-321.0933 1530.437,-320.6159"/>
<polygon fill="#191970" stroke="#191970" points="1532.3,-323.6019 1539.7624,-316.0811 1529.2387,-317.3068 1532.3,-323.6019"/>
</g>
<!-- Node26 -->
<g id="node27" class="node">
<title>Node26</title>
<polygon fill="none" stroke="#bfbfbf" points="1099.8388,-364 1099.8388,-383 1164.8388,-383 1164.8388,-364 1099.8388,-364"/>
<text text-anchor="middle" x="1132.3388" y="-371" font-family="Helvetica,sans-Serif" font-size="10.00" fill="#000000">functional</text>
</g>
<!-- Node23&#45;&gt;Node26 -->
<g id="edge34" class="edge">
<title>Node23&#45;&gt;Node26</title>
<path fill="none" stroke="#191970" d="M1105.7803,-430.9005C1110.4303,-420.8505 1117.851,-404.8122 1123.6679,-392.2403"/>
<polygon fill="#191970" stroke="#191970" points="1126.8827,-393.627 1127.9055,-383.0817 1120.5298,-390.6876 1126.8827,-393.627"/>
</g>
<!-- Node27 -->
<g id="node28" class="node">
<title>Node27</title>
<polygon fill="none" stroke="#bfbfbf" points="1613.3388,-230 1613.3388,-249 1661.3388,-249 1661.3388,-230 1613.3388,-230"/>
<text text-anchor="middle" x="1637.3388" y="-237" font-family="Helvetica,sans-Serif" font-size="10.00" fill="#000000">gsl/gsl</text>
</g>
<!-- Node23&#45;&gt;Node27 -->
<g id="edge35" class="edge">
<title>Node23&#45;&gt;Node27</title>
<path fill="none" stroke="#191970" d="M1186.0115,-431.9253C1296.1614,-420.4367 1478.0565,-400.2002 1507.3388,-389 1556.2766,-370.2817 1571.6618,-362.9573 1604.3388,-322 1619.317,-303.2262 1628.2822,-276.7744 1633.0083,-258.9269"/>
<polygon fill="#191970" stroke="#191970" points="1636.4426,-259.6171 1635.4191,-249.0718 1629.6431,-257.9537 1636.4426,-259.6171"/>
</g>
<!-- Node28 -->
<g id="node29" class="node">
<title>Node28</title>
<g id="a_node29"><a xlink:href="../../d4/d50/GPUDisplayConfig_8h.html" target="_top" xlink:title="GPUDisplayConfig.h">
<polygon fill="none" stroke="#000000" points="816.3388,-364 816.3388,-383 930.3388,-383 930.3388,-364 816.3388,-364"/>
<text text-anchor="middle" x="873.3388" y="-371" font-family="Helvetica,sans-Serif" font-size="10.00" fill="#000000">GPUDisplayConfig.h</text>
</a>
</g>
</g>
<!-- Node23&#45;&gt;Node28 -->
<g id="edge37" class="edge">
<title>Node23&#45;&gt;Node28</title>
<path fill="none" stroke="#191970" d="M1068.6719,-430.9005C1028.3767,-419.0594 959.7931,-398.9054 915.5443,-385.9025"/>
<polygon fill="#191970" stroke="#191970" points="916.5262,-382.5431 905.945,-383.0817 914.5525,-389.2591 916.5262,-382.5431"/>
</g>
<!-- Node29 -->
<g id="node30" class="node">
<title>Node29</title>
<g id="a_node30"><a xlink:href="../../d8/d93/GPUQAConfig_8h.html" target="_top" xlink:title="GPUQAConfig.h">
<polygon fill="none" stroke="#000000" points="948.3388,-364 948.3388,-383 1040.3388,-383 1040.3388,-364 948.3388,-364"/>
<text text-anchor="middle" x="994.3388" y="-371" font-family="Helvetica,sans-Serif" font-size="10.00" fill="#000000">GPUQAConfig.h</text>
</a>
</g>
</g>
<!-- Node23&#45;&gt;Node29 -->
<g id="edge40" class="edge">
<title>Node23&#45;&gt;Node29</title>
<path fill="none" stroke="#191970" d="M1086.0083,-430.9005C1068.2896,-419.8057 1038.916,-401.4128 1018.202,-388.4424"/>
<polygon fill="#191970" stroke="#191970" points="1019.9739,-385.4224 1009.6408,-383.0817 1016.2589,-391.3553 1019.9739,-385.4224"/>
</g>
<!-- Node23&#45;&gt;Node30 -->
<g id="edge43" class="edge">
<title>Node23&#45;&gt;Node30</title>
<path fill="none" stroke="#191970" d="M1186.302,-436.5876C1295.9695,-430.6373 1492.4219,-416.9207 1658.3388,-389 1664.2448,-388.0061 1670.4153,-386.7564 1676.4856,-385.4001"/>
<polygon fill="#191970" stroke="#191970" points="1677.605,-388.7326 1686.5425,-383.043 1676.0077,-381.9173 1677.605,-388.7326"/>
</g>
<!-- Node32 -->
<g id="node33" class="node">
<title>Node32</title>
<g id="a_node33"><a xlink:href="../../d6/d20/GPUHostDataTypes_8h.html" target="_top" xlink:title="GPUHostDataTypes.h">
<polygon fill="none" stroke="#000000" points="1210.3388,-364 1210.3388,-383 1330.3388,-383 1330.3388,-364 1210.3388,-364"/>
<text text-anchor="middle" x="1270.3388" y="-371" font-family="Helvetica,sans-Serif" font-size="10.00" fill="#000000">GPUHostDataTypes.h</text>
</a>
</g>
</g>
<!-- Node23&#45;&gt;Node32 -->
<g id="edge46" class="edge">
<title>Node23&#45;&gt;Node32</title>
<path fill="none" stroke="#191970" d="M1125.5524,-430.9005C1154.6673,-419.3579 1203.7066,-399.9163 1236.5405,-386.8993"/>
<polygon fill="#191970" stroke="#191970" points="1238.1639,-390.0208 1246.1701,-383.0817 1235.5841,-383.5135 1238.1639,-390.0208"/>
</g>
<!-- Node33 -->
<g id="node34" class="node">
<title>Node33</title>
<g id="a_node34"><a xlink:href="../../d0/dda/DataFormats_2Detectors_2TPC_2include_2DataFormatsTPC_2Constants_8h.html" target="_top" xlink:title="DataFormatsTPC/Constants.h">
<polygon fill="none" stroke="#000000" points="991.8388,-297 991.8388,-316 1150.8388,-316 1150.8388,-297 991.8388,-297"/>
<text text-anchor="middle" x="1071.3388" y="-304" font-family="Helvetica,sans-Serif" font-size="10.00" fill="#000000">DataFormatsTPC/Constants.h</text>
</a>
</g>
</g>
<!-- Node23&#45;&gt;Node33 -->
<g id="edge64" class="edge">
<title>Node23&#45;&gt;Node33</title>
<path fill="none" stroke="#191970" d="M1099.1812,-430.8631C1094.2731,-408.9398 1082.1938,-354.9858 1075.6759,-325.8727"/>
<polygon fill="#191970" stroke="#191970" points="1079.077,-325.0434 1073.4767,-316.0496 1072.2461,-326.5727 1079.077,-325.0434"/>
</g>
<!-- Node28&#45;&gt;Node14 -->
<g id="edge38" class="edge">
<title>Node28&#45;&gt;Node14</title>
<path fill="none" stroke="#191970" d="M880.6468,-363.7281C887.8309,-353.7137 898.6615,-337.4621 905.3388,-322 923.2041,-280.6303 919.6442,-267.5184 931.3388,-224 944.7497,-174.0944 960.7957,-115.3985 968.9729,-85.558"/>
<polygon fill="#191970" stroke="#191970" points="972.4309,-86.1822 971.6997,-75.6126 965.68,-84.3312 972.4309,-86.1822"/>
</g>
<!-- Node28&#45;&gt;Node18 -->
<g id="edge39" class="edge">
<title>Node28&#45;&gt;Node18</title>
<path fill="none" stroke="#191970" d="M870.4733,-363.9005C867.5327,-354.0495 862.8746,-338.4451 859.157,-325.9912"/>
<polygon fill="#191970" stroke="#191970" points="862.4132,-324.6627 856.199,-316.0817 855.7056,-326.665 862.4132,-324.6627"/>
</g>
<!-- Node29&#45;&gt;Node14 -->
<g id="edge41" class="edge">
<title>Node29&#45;&gt;Node14</title>
<path fill="none" stroke="#191970" d="M990.0535,-363.9539C983.6167,-348.1697 973.2287,-315.9024 983.3388,-291 991.7331,-270.3237 1009.9444,-275.6763 1018.3388,-255 1023.5215,-242.2342 1020.204,-237.6509 1018.3388,-224 1011.3348,-172.742 992.1098,-114.657 981.5386,-85.2541"/>
<polygon fill="#191970" stroke="#191970" points="984.797,-83.9735 978.0741,-75.7849 978.2232,-86.3787 984.797,-83.9735"/>
</g>
<!-- Node29&#45;&gt;Node18 -->
<g id="edge42" class="edge">
<title>Node29&#45;&gt;Node18</title>
<path fill="none" stroke="#191970" d="M974.1369,-363.9005C950.1598,-352.5072 909.9867,-333.4178 882.6067,-320.4075"/>
<polygon fill="#191970" stroke="#191970" points="884.0375,-317.2123 873.5032,-316.0817 881.0331,-323.5348 884.0375,-317.2123"/>
</g>
<!-- Node30&#45;&gt;Node14 -->
<g id="edge44" class="edge">
<title>Node30&#45;&gt;Node14</title>
<path fill="none" stroke="#191970" d="M1717.4149,-363.9361C1708.87,-342.2154 1689.3388,-287.3361 1689.3388,-239.5 1689.3388,-239.5 1689.3388,-239.5 1689.3388,-178 1689.3388,-112.4005 1213.5077,-79.2948 1038.1931,-69.3236"/>
<polygon fill="#191970" stroke="#191970" points="1038.2607,-65.822 1028.08,-68.7552 1037.8678,-72.811 1038.2607,-65.822"/>
</g>
<!-- Node31 -->
<g id="node32" class="node">
<title>Node31</title>
<polygon fill="none" stroke="#bfbfbf" points="1717.8388,-297 1717.8388,-316 1770.8388,-316 1770.8388,-297 1717.8388,-297"/>
<text text-anchor="middle" x="1744.3388" y="-304" font-family="Helvetica,sans-Serif" font-size="10.00" fill="#000000">cstddef</text>
</g>
<!-- Node30&#45;&gt;Node31 -->
<g id="edge45" class="edge">
<title>Node30&#45;&gt;Node31</title>
<path fill="none" stroke="#191970" d="M1724.6341,-363.9005C1728.05,-353.95 1733.481,-338.1292 1737.777,-325.6147"/>
<polygon fill="#191970" stroke="#191970" points="1741.113,-326.6763 1741.0495,-316.0817 1734.4922,-324.4035 1741.113,-326.6763"/>
</g>
<!-- Node32&#45;&gt;Node3 -->
<g id="edge48" class="edge">
<title>Node32&#45;&gt;Node3</title>
<path fill="none" stroke="#191970" d="M1256.3461,-363.8837C1241.6978,-353.7261 1218.1196,-337.1188 1198.3388,-322 1181.0218,-308.7643 1180.5062,-299.2665 1160.3388,-291 1002.1403,-226.1553 942.2795,-300.0129 777.3388,-255 775.3695,-254.4626 773.3726,-253.8146 771.3864,-253.0924"/>
<polygon fill="#191970" stroke="#191970" points="772.2961,-249.6783 761.721,-249.0316 769.5847,-256.1318 772.2961,-249.6783"/>
</g>
<!-- Node32&#45;&gt;Node14 -->
<g id="edge47" class="edge">
<title>Node32&#45;&gt;Node14</title>
<path fill="none" stroke="#191970" d="M1293.5224,-363.9778C1310.5593,-355.6319 1332.5454,-341.7303 1343.3388,-322 1364.2522,-283.7705 1370.386,-260.34 1346.3388,-224 1277.5253,-120.0097 1124.9829,-84.2572 1038.1214,-72.1155"/>
<polygon fill="#191970" stroke="#191970" points="1038.497,-68.6347 1028.122,-70.7816 1037.5713,-75.5732 1038.497,-68.6347"/>
</g>
<!-- Node32&#45;&gt;Node25 -->
<g id="edge49" class="edge">
<title>Node32&#45;&gt;Node25</title>
<path fill="none" stroke="#191970" d="M1330.5448,-366.2786C1383.4469,-358.8014 1461.9619,-344.9301 1527.3388,-322 1528.7564,-321.5028 1530.1907,-320.9498 1531.6243,-320.3573"/>
<polygon fill="#191970" stroke="#191970" points="1533.3005,-323.4376 1540.8879,-316.0428 1530.3451,-317.0921 1533.3005,-323.4376"/>
</g>
<!-- Node32&#45;&gt;Node33 -->
<g id="edge50" class="edge">
<title>Node32&#45;&gt;Node33</title>
<path fill="none" stroke="#191970" d="M1241.8269,-363.9005C1207.1003,-352.2086 1148.3018,-332.4122 1109.6465,-319.3976"/>
<polygon fill="#191970" stroke="#191970" points="1110.3918,-315.9555 1099.7977,-316.0817 1108.1582,-322.5896 1110.3918,-315.9555"/>
</g>
<!-- Node34 -->
<g id="node35" class="node">
<title>Node34</title>
<g id="a_node35"><a xlink:href="../../db/d14/MCTruthContainer_8h.html" target="_top" xlink:title="Definition of a container to keep Monte Carlo truth external to simulation objects. ">
<polygon fill="none" stroke="#000000" points="1206.8388,-291.5 1206.8388,-321.5 1333.8388,-321.5 1333.8388,-291.5 1206.8388,-291.5"/>
<text text-anchor="start" x="1214.8388" y="-309.5" font-family="Helvetica,sans-Serif" font-size="10.00" fill="#000000">SimulationDataFormat</text>
<text text-anchor="middle" x="1270.3388" y="-298.5" font-family="Helvetica,sans-Serif" font-size="10.00" fill="#000000">/MCTruthContainer.h</text>
</a>
</g>
</g>
<!-- Node32&#45;&gt;Node34 -->
<g id="edge51" class="edge">
<title>Node32&#45;&gt;Node34</title>
<path fill="none" stroke="#191970" d="M1270.3388,-363.9005C1270.3388,-355.5099 1270.3388,-342.9451 1270.3388,-331.7085"/>
<polygon fill="#191970" stroke="#191970" points="1273.8389,-331.5217 1270.3388,-321.5218 1266.8389,-331.5218 1273.8389,-331.5217"/>
</g>
<!-- Node41 -->
<g id="node42" class="node">
<title>Node41</title>
<g id="a_node42"><a xlink:href="../../d7/dcd/MCCompLabel_8h.html" target="_top" xlink:title="SimulationDataFormat\l/MCCompLabel.h">
<polygon fill="none" stroke="#000000" points="1390.8388,-291.5 1390.8388,-321.5 1517.8388,-321.5 1517.8388,-291.5 1390.8388,-291.5"/>
<text text-anchor="start" x="1398.8388" y="-309.5" font-family="Helvetica,sans-Serif" font-size="10.00" fill="#000000">SimulationDataFormat</text>
<text text-anchor="middle" x="1454.3388" y="-298.5" font-family="Helvetica,sans-Serif" font-size="10.00" fill="#000000">/MCCompLabel.h</text>
</a>
</g>
</g>
<!-- Node32&#45;&gt;Node41 -->
<g id="edge62" class="edge">
<title>Node32&#45;&gt;Node41</title>
<path fill="none" stroke="#191970" d="M1296.7015,-363.9005C1324.4957,-353.7798 1368.9672,-337.5864 1403.5998,-324.9756"/>
<polygon fill="#191970" stroke="#191970" points="1404.8861,-328.2321 1413.085,-321.5218 1402.491,-321.6546 1404.8861,-328.2321"/>
</g>
<!-- Node34&#45;&gt;Node3 -->
<g id="edge61" class="edge">
<title>Node34&#45;&gt;Node3</title>
<path fill="none" stroke="#191970" d="M1206.5856,-293.2395C1201.7749,-292.4203 1196.9862,-291.6613 1192.3388,-291 1009.048,-264.9186 956.1184,-303.0998 777.3388,-255 775.3676,-254.4697 773.3693,-253.8269 771.382,-253.1086"/>
<polygon fill="#191970" stroke="#191970" points="772.2899,-249.6942 761.7143,-249.0566 769.584,-256.1501 772.2899,-249.6942"/>
</g>
<!-- Node34&#45;&gt;Node11 -->
<g id="edge58" class="edge">
<title>Node34&#45;&gt;Node11</title>
<path fill="none" stroke="#191970" d="M1206.4756,-292.0445C1149.872,-279.2322 1068.6814,-260.8546 1018.843,-249.5736"/>
<polygon fill="#191970" stroke="#191970" points="1019.5331,-246.1413 1009.0071,-247.3472 1017.9877,-252.9686 1019.5331,-246.1413"/>
</g>
<!-- Node34&#45;&gt;Node24 -->
<g id="edge60" class="edge">
<title>Node34&#45;&gt;Node24</title>
<path fill="none" stroke="#191970" d="M1333.9868,-297.2604C1386.716,-288.784 1463.2758,-274.5686 1528.3388,-255 1530.6415,-254.3074 1532.9976,-253.528 1535.3529,-252.6968"/>
<polygon fill="#191970" stroke="#191970" points="1536.7843,-255.8972 1544.8921,-249.0772 1534.3008,-249.3525 1536.7843,-255.8972"/>
</g>
<!-- Node34&#45;&gt;Node27 -->
<g id="edge57" class="edge">
<title>Node34&#45;&gt;Node27</title>
<path fill="none" stroke="#191970" d="M1334.121,-297.6672C1423.7895,-285.0963 1579.0502,-262.7134 1604.3388,-255 1606.2005,-254.4322 1608.0911,-253.7771 1609.9767,-253.064"/>
<polygon fill="#191970" stroke="#191970" points="1611.3678,-256.2758 1619.2076,-249.1492 1608.6348,-249.8314 1611.3678,-256.2758"/>
</g>
<!-- Node35 -->
<g id="node36" class="node">
<title>Node35</title>
<g id="a_node36"><a xlink:href="../../d2/d45/GPUCommonRtypes_8h.html" target="_top" xlink:title="GPUCommonRtypes.h">
<polygon fill="none" stroke="#000000" points="1393.8388,-230 1393.8388,-249 1518.8388,-249 1518.8388,-230 1393.8388,-230"/>
<text text-anchor="middle" x="1456.3388" y="-237" font-family="Helvetica,sans-Serif" font-size="10.00" fill="#000000">GPUCommonRtypes.h</text>
</a>
</g>
</g>
<!-- Node34&#45;&gt;Node35 -->
<g id="edge52" class="edge">
<title>Node34&#45;&gt;Node35</title>
<path fill="none" stroke="#191970" d="M1312.0808,-291.4639C1344.6511,-279.7316 1389.4194,-263.6054 1420.4071,-252.4431"/>
<polygon fill="#191970" stroke="#191970" points="1421.7289,-255.6872 1429.951,-249.0053 1419.3566,-249.1015 1421.7289,-255.6872"/>
</g>
<!-- Node37 -->
<g id="node38" class="node">
<title>Node37</title>
<polygon fill="none" stroke="#bfbfbf" points="1287.3388,-230 1287.3388,-249 1337.3388,-249 1337.3388,-230 1287.3388,-230"/>
<text text-anchor="middle" x="1312.3388" y="-237" font-family="Helvetica,sans-Serif" font-size="10.00" fill="#000000">cstdint</text>
</g>
<!-- Node34&#45;&gt;Node37 -->
<g id="edge54" class="edge">
<title>Node34&#45;&gt;Node37</title>
<path fill="none" stroke="#191970" d="M1279.8692,-291.2967C1286.0954,-281.3645 1294.2618,-268.3371 1300.847,-257.8321"/>
<polygon fill="#191970" stroke="#191970" points="1304.0032,-259.3868 1306.3491,-249.055 1298.0722,-255.6689 1304.0032,-259.3868"/>
</g>
<!-- Node38 -->
<g id="node39" class="node">
<title>Node38</title>
<polygon fill="none" stroke="#bfbfbf" points="1065.3388,-230 1065.3388,-249 1117.3388,-249 1117.3388,-230 1065.3388,-230"/>
<text text-anchor="middle" x="1091.3388" y="-237" font-family="Helvetica,sans-Serif" font-size="10.00" fill="#000000">cassert</text>
</g>
<!-- Node34&#45;&gt;Node38 -->
<g id="edge55" class="edge">
<title>Node34&#45;&gt;Node38</title>
<path fill="none" stroke="#191970" d="M1226.2697,-291.4084C1197.8646,-281.4895 1160.226,-267.988 1127.3388,-255 1125.7288,-254.3642 1124.0834,-253.7017 1122.4254,-253.0241"/>
<polygon fill="#191970" stroke="#191970" points="1123.528,-249.6915 1112.9521,-249.0588 1120.8252,-256.1486 1123.528,-249.6915"/>
</g>
<!-- Node39 -->
<g id="node40" class="node">
<title>Node39</title>
<polygon fill="none" stroke="#bfbfbf" points="1135.8388,-230 1135.8388,-249 1200.8388,-249 1200.8388,-230 1135.8388,-230"/>
<text text-anchor="middle" x="1168.3388" y="-237" font-family="Helvetica,sans-Serif" font-size="10.00" fill="#000000">stdexcept</text>
</g>
<!-- Node34&#45;&gt;Node39 -->
<g id="edge56" class="edge">
<title>Node34&#45;&gt;Node39</title>
<path fill="none" stroke="#191970" d="M1247.448,-291.4639C1230.7962,-280.526 1208.3304,-265.769 1191.5946,-254.7759"/>
<polygon fill="#191970" stroke="#191970" points="1193.2394,-251.6688 1182.9597,-249.1039 1189.3962,-257.5195 1193.2394,-251.6688"/>
</g>
<!-- Node40 -->
<g id="node41" class="node">
<title>Node40</title>
<polygon fill="none" stroke="#bfbfbf" points="1219.3388,-230 1219.3388,-249 1269.3388,-249 1269.3388,-230 1219.3388,-230"/>
<text text-anchor="middle" x="1244.3388" y="-237" font-family="Helvetica,sans-Serif" font-size="10.00" fill="#000000">cstring</text>
</g>
<!-- Node34&#45;&gt;Node40 -->
<g id="edge59" class="edge">
<title>Node34&#45;&gt;Node40</title>
<path fill="none" stroke="#191970" d="M1264.439,-291.2967C1260.6634,-281.5672 1255.7351,-268.8675 1251.7035,-258.4784"/>
<polygon fill="#191970" stroke="#191970" points="1254.9274,-257.1114 1248.0467,-249.055 1248.4015,-259.6439 1254.9274,-257.1114"/>
</g>
<!-- Node36 -->
<g id="node37" class="node">
<title>Node36</title>
<polygon fill="none" stroke="#bfbfbf" points="1426.8388,-168.5 1426.8388,-187.5 1485.8388,-187.5 1485.8388,-168.5 1426.8388,-168.5"/>
<text text-anchor="middle" x="1456.3388" y="-175.5" font-family="Helvetica,sans-Serif" font-size="10.00" fill="#000000">Rtypes.h</text>
</g>
<!-- Node35&#45;&gt;Node36 -->
<g id="edge53" class="edge">
<title>Node35&#45;&gt;Node36</title>
<path fill="none" stroke="#191970" d="M1456.3388,-229.8906C1456.3388,-221.3657 1456.3388,-208.6392 1456.3388,-197.9235"/>
<polygon fill="#191970" stroke="#191970" points="1459.8389,-197.7448 1456.3388,-187.7449 1452.8389,-197.7449 1459.8389,-197.7448"/>
</g>
<!-- Node41&#45;&gt;Node35 -->
<g id="edge63" class="edge">
<title>Node41&#45;&gt;Node35</title>
<path fill="none" stroke="#191970" d="M1454.7926,-291.2967C1455.077,-281.7699 1455.4464,-269.3954 1455.7528,-259.1306"/>
<polygon fill="#191970" stroke="#191970" points="1459.2535,-259.155 1456.0535,-249.055 1452.2566,-258.9461 1459.2535,-259.155"/>
</g>
</g>
</svg>
