<?xml version="1.0" encoding="UTF-8" standalone="no"?>
<!DOCTYPE svg PUBLIC "-//W3C//DTD SVG 1.1//EN"
 "http://www.w3.org/Graphics/SVG/1.1/DTD/svg11.dtd">
<!-- Generated by graphviz version 2.40.1 (20161225.0304)
 -->
<!-- Title: /home/travis/build/AliceO2Group/AliceO2/Detectors/EMCAL/reconstruction/src/AltroDecoder.cxx Pages: 1 -->
<!--zoomable 374 -->
<svg id="main" version="1.1" xmlns="http://www.w3.org/2000/svg" xmlns:xlink="http://www.w3.org/1999/xlink" xml:space="preserve" onload="init(evt)">
<style type="text/css"><![CDATA[
.edge:hover path { stroke: red; }
.edge:hover polygon { stroke: red; fill: red; }
]]></style>
<script type="text/javascript"><![CDATA[
var edges = document.getElementsByTagName('g');
if (edges && edges.length) {
  for (var i=0;i<edges.length;i++) {
    if (edges[i].id.substr(0,4)=='edge') {
      edges[i].setAttribute('class','edge');
    }
  }
}
]]></script>
        <defs>
                <circle id="rim" cx="0" cy="0" r="7"/>
                <circle id="rim2" cx="0" cy="0" r="3.5"/>
                <g id="zoomPlus">
                        <use xlink:href="#rim" fill="#404040">
                                <set attributeName="fill" to="#808080" begin="zoomplus.mouseover" end="zoomplus.mouseout"/>
                        </use>
                        <path d="M-4,0h8M0,-4v8" fill="none" stroke="white" stroke-width="1.5" pointer-events="none"/>
                </g>
                <g id="zoomMin">
                        <use xlink:href="#rim" fill="#404040">
                                <set attributeName="fill" to="#808080" begin="zoomminus.mouseover" end="zoomminus.mouseout"/>
                        </use>
                        <path d="M-4,0h8" fill="none" stroke="white" stroke-width="1.5" pointer-events="none"/>
                </g>
                <g id="dirArrow">
                        <path fill="none" stroke="white" stroke-width="1.5" d="M0,-3.0v7 M-2.5,-0.5L0,-3.0L2.5,-0.5"/>
                </g>
               <g id="resetDef">
                       <use xlink:href="#rim2" fill="#404040">
                               <set attributeName="fill" to="#808080" begin="reset.mouseover" end="reset.mouseout"/>
                       </use>
               </g>
        </defs>

<script type="text/javascript">
var viewWidth = 1370;
var viewHeight = 374;
var sectionId = 'dynsection-0';
</script>
<script xlink:href="../../svgpan.js"/>
<svg id="graph" class="graph">
<g id="viewport">
<title>/home/travis/build/AliceO2Group/AliceO2/Detectors/EMCAL/reconstruction/src/AltroDecoder.cxx</title>
<!-- Node0 -->
<g id="node1" class="node">
<title>Node0</title>
<polygon fill="#bfbfbf" stroke="#000000" points="463.5,-313.5 463.5,-365.5 639.5,-365.5 639.5,-313.5 463.5,-313.5"/>
<text text-anchor="start" x="471.5" y="-353.5" font-family="Helvetica,sans-Serif" font-size="10.00" fill="#000000">/home/travis/build</text>
<text text-anchor="start" x="471.5" y="-342.5" font-family="Helvetica,sans-Serif" font-size="10.00" fill="#000000">/AliceO2Group/AliceO2</text>
<text text-anchor="start" x="471.5" y="-331.5" font-family="Helvetica,sans-Serif" font-size="10.00" fill="#000000">/Detectors/EMCAL/reconstruction</text>
<text text-anchor="middle" x="551.5" y="-320.5" font-family="Helvetica,sans-Serif" font-size="10.00" fill="#000000">/src/AltroDecoder.cxx</text>
</g>
<!-- Node1 -->
<g id="node2" class="node">
<title>Node1</title>
<polygon fill="none" stroke="#bfbfbf" points="292.5,-252 292.5,-271 342.5,-271 342.5,-252 292.5,-252"/>
<text text-anchor="middle" x="317.5" y="-259" font-family="Helvetica,sans-Serif" font-size="10.00" fill="#000000">cstring</text>
</g>
<!-- Node0&#45;&gt;Node1 -->
<g id="edge1" class="edge">
<title>Node0&#45;&gt;Node1</title>
<path fill="none" stroke="#191970" d="M463.0683,-314.4609C427.9962,-303.8586 387.5163,-290.7754 351.5,-277 349.917,-276.3946 348.3031,-275.7513 346.6809,-275.0841"/>
<polygon fill="#191970" stroke="#191970" points="348.0277,-271.8534 337.4596,-271.1006 345.2516,-278.2794 348.0277,-271.8534"/>
</g>
<!-- Node2 -->
<g id="node3" class="node">
<title>Node2</title>
<polygon fill="none" stroke="#bfbfbf" points="361,-252 361,-271 462,-271 462,-252 361,-252"/>
<text text-anchor="middle" x="411.5" y="-259" font-family="Helvetica,sans-Serif" font-size="10.00" fill="#000000">boost/format.hpp</text>
</g>
<!-- Node0&#45;&gt;Node2 -->
<g id="edge2" class="edge">
<title>Node0&#45;&gt;Node2</title>
<path fill="none" stroke="#191970" d="M504.4926,-313.3101C482.2032,-300.8918 456.4149,-286.524 437.6573,-276.0733"/>
<polygon fill="#191970" stroke="#191970" points="439.2419,-272.9497 428.8028,-271.1401 435.835,-279.0647 439.2419,-272.9497"/>
</g>
<!-- Node3 -->
<g id="node4" class="node">
<title>Node3</title>
<polygon fill="none" stroke="#bfbfbf" points="480,-252 480,-271 623,-271 623,-252 480,-252"/>
<text text-anchor="middle" x="551.5" y="-259" font-family="Helvetica,sans-Serif" font-size="10.00" fill="#000000">InfoLogger/InfoLogger.hxx</text>
</g>
<!-- Node0&#45;&gt;Node3 -->
<g id="edge3" class="edge">
<title>Node0&#45;&gt;Node3</title>
<path fill="none" stroke="#191970" d="M551.5,-313.0928C551.5,-302.6735 551.5,-290.911 551.5,-281.2512"/>
<polygon fill="#191970" stroke="#191970" points="555.0001,-281.0838 551.5,-271.0839 548.0001,-281.0839 555.0001,-281.0838"/>
</g>
<!-- Node4 -->
<g id="node5" class="node">
<title>Node4</title>
<g id="a_node5"><a xlink:href="../../db/d4a/AltroDecoder_8h.html" target="_top" xlink:title="EMCALReconstruction\l/AltroDecoder.h">
<polygon fill="none" stroke="#000000" points="835.5,-246.5 835.5,-276.5 957.5,-276.5 957.5,-246.5 835.5,-246.5"/>
<text text-anchor="start" x="843.5" y="-264.5" font-family="Helvetica,sans-Serif" font-size="10.00" fill="#000000">EMCALReconstruction</text>
<text text-anchor="middle" x="896.5" y="-253.5" font-family="Helvetica,sans-Serif" font-size="10.00" fill="#000000">/AltroDecoder.h</text>
</a>
</g>
</g>
<!-- Node0&#45;&gt;Node4 -->
<g id="edge4" class="edge">
<title>Node0&#45;&gt;Node4</title>
<path fill="none" stroke="#191970" d="M639.8981,-319.5144C697.5041,-306.4904 771.6773,-289.7208 825.4493,-277.5636"/>
<polygon fill="#191970" stroke="#191970" points="826.2617,-280.9684 835.2437,-275.3493 824.718,-274.1407 826.2617,-280.9684"/>
</g>
<!-- Node15 -->
<g id="node16" class="node">
<title>Node15</title>
<g id="a_node16"><a xlink:href="../../d8/d86/RawReaderMemory_8h.html" target="_top" xlink:title="EMCALReconstruction\l/RawReaderMemory.h">
<polygon fill="none" stroke="#000000" points="434.5,-179.5 434.5,-209.5 556.5,-209.5 556.5,-179.5 434.5,-179.5"/>
<text text-anchor="start" x="442.5" y="-197.5" font-family="Helvetica,sans-Serif" font-size="10.00" fill="#000000">EMCALReconstruction</text>
<text text-anchor="middle" x="495.5" y="-186.5" font-family="Helvetica,sans-Serif" font-size="10.00" fill="#000000">/RawReaderMemory.h</text>
</a>
</g>
</g>
<!-- Node0&#45;&gt;Node15 -->
<g id="edge50" class="edge">
<title>Node0&#45;&gt;Node15</title>
<path fill="none" stroke="#191970" d="M597.7853,-313.4821C623.875,-295.3504 648.1929,-270.1708 631.5,-246 623.0247,-233.728 593.4063,-221.8144 563.9651,-212.5422"/>
<polygon fill="#191970" stroke="#191970" points="564.6046,-209.0779 554.0182,-209.5023 562.5586,-215.7722 564.6046,-209.0779"/>
</g>
<!-- Node5 -->
<g id="node6" class="node">
<title>Node5</title>
<polygon fill="none" stroke="#bfbfbf" points="1297,-56.5 1297,-75.5 1362,-75.5 1362,-56.5 1297,-56.5"/>
<text text-anchor="middle" x="1329.5" y="-63.5" font-family="Helvetica,sans-Serif" font-size="10.00" fill="#000000">exception</text>
</g>
<!-- Node4&#45;&gt;Node5 -->
<g id="edge5" class="edge">
<title>Node4&#45;&gt;Node5</title>
<path fill="none" stroke="#191970" d="M957.7141,-258.7837C1044.9922,-253.8666 1199.7122,-240.9644 1245.5,-210 1290.1085,-179.8331 1314.2463,-117.4495 1324.1056,-85.6154"/>
<polygon fill="#191970" stroke="#191970" points="1327.5484,-86.3133 1327.0076,-75.7323 1320.8319,-84.3411 1327.5484,-86.3133"/>
</g>
<!-- Node6 -->
<g id="node7" class="node">
<title>Node6</title>
<polygon fill="none" stroke="#bfbfbf" points="560,-56.5 560,-75.5 609,-75.5 609,-56.5 560,-56.5"/>
<text text-anchor="middle" x="584.5" y="-63.5" font-family="Helvetica,sans-Serif" font-size="10.00" fill="#000000">iosfwd</text>
</g>
<!-- Node4&#45;&gt;Node6 -->
<g id="edge6" class="edge">
<title>Node4&#45;&gt;Node6</title>
<path fill="none" stroke="#191970" d="M835.4219,-253.2024C777.5027,-244.3604 695.5757,-229.0252 669.5,-210 625.8649,-178.1632 600.7573,-116.5371 590.2955,-85.2416"/>
<polygon fill="#191970" stroke="#191970" points="593.5729,-83.9988 587.1995,-75.5354 586.904,-86.1261 593.5729,-83.9988"/>
</g>
<!-- Node7 -->
<g id="node8" class="node">
<title>Node7</title>
<polygon fill="none" stroke="#bfbfbf" points="655,-56.5 655,-75.5 712,-75.5 712,-56.5 655,-56.5"/>
<text text-anchor="middle" x="683.5" y="-63.5" font-family="Helvetica,sans-Serif" font-size="10.00" fill="#000000">gsl/span</text>
</g>
<!-- Node4&#45;&gt;Node7 -->
<g id="edge7" class="edge">
<title>Node4&#45;&gt;Node7</title>
<path fill="none" stroke="#191970" d="M835.2456,-252.1498C774.2923,-239.2312 683.9046,-209.4654 641.5,-143 628.6901,-122.9217 647.2105,-98.6354 663.5595,-82.7777"/>
<polygon fill="#191970" stroke="#191970" points="666.2508,-85.0591 671.2642,-75.7255 661.5245,-79.8956 666.2508,-85.0591"/>
</g>
<!-- Node8 -->
<g id="node9" class="node">
<title>Node8</title>
<polygon fill="none" stroke="#bfbfbf" points="1234.5,-56.5 1234.5,-75.5 1278.5,-75.5 1278.5,-56.5 1234.5,-56.5"/>
<text text-anchor="middle" x="1256.5" y="-63.5" font-family="Helvetica,sans-Serif" font-size="10.00" fill="#000000">string</text>
</g>
<!-- Node4&#45;&gt;Node8 -->
<g id="edge8" class="edge">
<title>Node4&#45;&gt;Node8</title>
<path fill="none" stroke="#191970" d="M957.5156,-259.6997C1040.794,-255.9622 1184.0122,-244.5583 1221.5,-210 1256.3742,-177.851 1259.1706,-117.325 1258.0046,-85.9667"/>
<polygon fill="#191970" stroke="#191970" points="1261.4916,-85.6327 1257.4478,-75.8399 1254.5021,-86.017 1261.4916,-85.6327"/>
</g>
<!-- Node9 -->
<g id="node10" class="node">
<title>Node9</title>
<g id="a_node10"><a xlink:href="../../df/ddd/RCUTrailer_8h.html" target="_top" xlink:title="EMCALBase/RCUTrailer.h">
<polygon fill="none" stroke="#000000" points="829,-118 829,-137 964,-137 964,-118 829,-118"/>
<text text-anchor="middle" x="896.5" y="-125" font-family="Helvetica,sans-Serif" font-size="10.00" fill="#000000">EMCALBase/RCUTrailer.h</text>
</a>
</g>
</g>
<!-- Node4&#45;&gt;Node9 -->
<g id="edge9" class="edge">
<title>Node4&#45;&gt;Node9</title>
<path fill="none" stroke="#191970" d="M896.5,-246.389C896.5,-222.0735 896.5,-174.2644 896.5,-147.2698"/>
<polygon fill="#191970" stroke="#191970" points="900.0001,-147.1041 896.5,-137.1042 893.0001,-147.1042 900.0001,-147.1041"/>
</g>
<!-- Node12 -->
<g id="node13" class="node">
<title>Node12</title>
<g id="a_node13"><a xlink:href="../../d1/d29/Bunch_8h.html" target="_top" xlink:title="EMCALReconstruction\l/Bunch.h">
<polygon fill="none" stroke="#000000" points="982.5,-112.5 982.5,-142.5 1104.5,-142.5 1104.5,-112.5 982.5,-112.5"/>
<text text-anchor="start" x="990.5" y="-130.5" font-family="Helvetica,sans-Serif" font-size="10.00" fill="#000000">EMCALReconstruction</text>
<text text-anchor="middle" x="1043.5" y="-119.5" font-family="Helvetica,sans-Serif" font-size="10.00" fill="#000000">/Bunch.h</text>
</a>
</g>
</g>
<!-- Node4&#45;&gt;Node12 -->
<g id="edge16" class="edge">
<title>Node4&#45;&gt;Node12</title>
<path fill="none" stroke="#191970" d="M913.077,-246.389C938.9936,-222.7644 989.2392,-176.9623 1019.2338,-149.6202"/>
<polygon fill="#191970" stroke="#191970" points="1021.7256,-152.0848 1026.758,-142.7614 1017.0098,-146.9115 1021.7256,-152.0848"/>
</g>
<!-- Node14 -->
<g id="node15" class="node">
<title>Node14</title>
<g id="a_node15"><a xlink:href="../../de/d03/Channel_8h.html" target="_top" xlink:title="EMCALReconstruction\l/Channel.h">
<polygon fill="none" stroke="#000000" points="1090.5,-179.5 1090.5,-209.5 1212.5,-209.5 1212.5,-179.5 1090.5,-179.5"/>
<text text-anchor="start" x="1098.5" y="-197.5" font-family="Helvetica,sans-Serif" font-size="10.00" fill="#000000">EMCALReconstruction</text>
<text text-anchor="middle" x="1151.5" y="-186.5" font-family="Helvetica,sans-Serif" font-size="10.00" fill="#000000">/Channel.h</text>
</a>
</g>
</g>
<!-- Node4&#45;&gt;Node14 -->
<g id="edge21" class="edge">
<title>Node4&#45;&gt;Node14</title>
<path fill="none" stroke="#191970" d="M953.727,-246.4639C992.3888,-236.3057 1043.5874,-222.8535 1084.2051,-212.1814"/>
<polygon fill="#191970" stroke="#191970" points="1085.2411,-215.5281 1094.0234,-209.6017 1083.4623,-208.7579 1085.2411,-215.5281"/>
</g>
<!-- Node4&#45;&gt;Node15 -->
<g id="edge27" class="edge">
<title>Node4&#45;&gt;Node15</title>
<path fill="none" stroke="#191970" d="M835.3699,-252.7214C769.7522,-243.0934 662.5255,-226.7686 570.5,-210 569.2492,-209.7721 567.9871,-209.5396 566.7165,-209.3031"/>
<polygon fill="#191970" stroke="#191970" points="567.3273,-205.8566 556.8491,-207.4241 566.0178,-212.733 567.3273,-205.8566"/>
</g>
<!-- Node9&#45;&gt;Node5 -->
<g id="edge10" class="edge">
<title>Node9&#45;&gt;Node5</title>
<path fill="none" stroke="#191970" d="M940.7668,-117.9236C951.4526,-115.7964 962.8589,-113.678 973.5,-112 1109.0032,-90.6331 1147.3646,-99.8512 1286.3769,-76.0102"/>
<polygon fill="#191970" stroke="#191970" points="1287.3116,-79.4001 1296.5625,-74.2356 1286.1101,-72.504 1287.3116,-79.4001"/>
</g>
<!-- Node9&#45;&gt;Node6 -->
<g id="edge11" class="edge">
<title>Node9&#45;&gt;Node6</title>
<path fill="none" stroke="#191970" d="M848.0923,-117.9581C784.7376,-105.4699 675.2221,-83.8827 619.4003,-72.8794"/>
<polygon fill="#191970" stroke="#191970" points="619.7913,-69.3892 609.3032,-70.8891 618.4375,-76.257 619.7913,-69.3892"/>
</g>
<!-- Node9&#45;&gt;Node7 -->
<g id="edge14" class="edge">
<title>Node9&#45;&gt;Node7</title>
<path fill="none" stroke="#191970" d="M863.2188,-117.8906C824.9272,-106.8346 762.1601,-88.7117 721.8511,-77.0732"/>
<polygon fill="#191970" stroke="#191970" points="722.694,-73.6737 712.1155,-74.2622 720.7522,-80.399 722.694,-73.6737"/>
</g>
<!-- Node9&#45;&gt;Node8 -->
<g id="edge12" class="edge">
<title>Node9&#45;&gt;Node8</title>
<path fill="none" stroke="#191970" d="M942.4556,-117.9558C952.6626,-115.9179 963.4379,-113.8299 973.5,-112 1064.2177,-95.5025 1171.8237,-78.7952 1224.3799,-70.8194"/>
<polygon fill="#191970" stroke="#191970" points="1225.071,-74.2547 1234.4349,-69.2982 1224.0238,-67.3335 1225.071,-74.2547"/>
</g>
<!-- Node10 -->
<g id="node11" class="node">
<title>Node10</title>
<polygon fill="none" stroke="#bfbfbf" points="796.5,-.5 796.5,-19.5 846.5,-19.5 846.5,-.5 796.5,-.5"/>
<text text-anchor="middle" x="821.5" y="-7.5" font-family="Helvetica,sans-Serif" font-size="10.00" fill="#000000">cstdint</text>
</g>
<!-- Node9&#45;&gt;Node10 -->
<g id="edge13" class="edge">
<title>Node9&#45;&gt;Node10</title>
<path fill="none" stroke="#191970" d="M895.6434,-117.9706C893.9674,-103.5308 889.2286,-75.7058 876.5,-56 868.6658,-43.8714 856.6396,-33.2901 845.8285,-25.3438"/>
<polygon fill="#191970" stroke="#191970" points="847.7279,-22.4014 837.5221,-19.5568 843.7264,-28.145 847.7279,-22.4014"/>
</g>
<!-- Node11 -->
<g id="node12" class="node">
<title>Node11</title>
<polygon fill="none" stroke="#bfbfbf" points="809,-56.5 809,-75.5 868,-75.5 868,-56.5 809,-56.5"/>
<text text-anchor="middle" x="838.5" y="-63.5" font-family="Helvetica,sans-Serif" font-size="10.00" fill="#000000">Rtypes.h</text>
</g>
<!-- Node9&#45;&gt;Node11 -->
<g id="edge15" class="edge">
<title>Node9&#45;&gt;Node11</title>
<path fill="none" stroke="#191970" d="M887.4375,-117.8906C878.7207,-108.6478 865.346,-94.466 854.7804,-83.2628"/>
<polygon fill="#191970" stroke="#191970" points="857.0976,-80.6186 847.6903,-75.7449 852.005,-85.4213 857.0976,-80.6186"/>
</g>
<!-- Node12&#45;&gt;Node7 -->
<g id="edge19" class="edge">
<title>Node12&#45;&gt;Node7</title>
<path fill="none" stroke="#191970" d="M982.3543,-113.9192C979.0246,-113.2522 975.7235,-112.6079 972.5,-112 883.3854,-95.1947 778.0415,-79.4611 722.4238,-71.4748"/>
<polygon fill="#191970" stroke="#191970" points="722.7023,-67.9791 712.3076,-70.029 721.7118,-74.9087 722.7023,-67.9791"/>
</g>
<!-- Node12&#45;&gt;Node10 -->
<g id="edge17" class="edge">
<title>Node12&#45;&gt;Node10</title>
<path fill="none" stroke="#191970" d="M1043.5535,-112.3791C1042.7579,-96.1299 1038.9015,-70.667 1023.5,-56 999.8636,-33.4908 908.2094,-19.777 856.863,-13.7011"/>
<polygon fill="#191970" stroke="#191970" points="857.1938,-10.2162 846.8601,-12.5538 856.3961,-17.1706 857.1938,-10.2162"/>
</g>
<!-- Node12&#45;&gt;Node11 -->
<g id="edge20" class="edge">
<title>Node12&#45;&gt;Node11</title>
<path fill="none" stroke="#191970" d="M993.3514,-112.4554C957.7945,-101.7884 910.7486,-87.6746 877.8809,-77.8143"/>
<polygon fill="#191970" stroke="#191970" points="878.7482,-74.4204 868.1642,-74.8992 876.7367,-81.1252 878.7482,-74.4204"/>
</g>
<!-- Node13 -->
<g id="node14" class="node">
<title>Node13</title>
<polygon fill="none" stroke="#bfbfbf" points="968,-56.5 968,-75.5 1015,-75.5 1015,-56.5 968,-56.5"/>
<text text-anchor="middle" x="991.5" y="-63.5" font-family="Helvetica,sans-Serif" font-size="10.00" fill="#000000">vector</text>
</g>
<!-- Node12&#45;&gt;Node13 -->
<g id="edge18" class="edge">
<title>Node12&#45;&gt;Node13</title>
<path fill="none" stroke="#191970" d="M1030.6461,-112.2977C1023.2776,-103.5831 1013.9974,-92.6075 1006.3223,-83.5302"/>
<polygon fill="#191970" stroke="#191970" points="1008.9552,-81.2233 999.8259,-75.8469 1003.6098,-85.743 1008.9552,-81.2233"/>
</g>
<!-- Node14&#45;&gt;Node5 -->
<g id="edge23" class="edge">
<title>Node14&#45;&gt;Node5</title>
<path fill="none" stroke="#191970" d="M1172.6179,-179.2548C1206.6015,-154.7217 1273.0948,-106.7195 1307.5813,-81.8233"/>
<polygon fill="#191970" stroke="#191970" points="1309.9545,-84.4269 1316.0138,-75.7358 1305.8572,-78.7513 1309.9545,-84.4269"/>
</g>
<!-- Node14&#45;&gt;Node10 -->
<g id="edge22" class="edge">
<title>Node14&#45;&gt;Node10</title>
<path fill="none" stroke="#191970" d="M1159.9847,-179.2468C1168.5067,-161.6685 1178.6432,-132.5654 1165.5,-112 1131.6707,-59.0668 937.614,-26.2272 856.8053,-14.6766"/>
<polygon fill="#191970" stroke="#191970" points="857.0197,-11.1725 846.6304,-13.2497 856.0474,-18.1047 857.0197,-11.1725"/>
</g>
<!-- Node14&#45;&gt;Node11 -->
<g id="edge25" class="edge">
<title>Node14&#45;&gt;Node11</title>
<path fill="none" stroke="#191970" d="M1148.9428,-179.33C1144.9102,-160.4163 1135.1773,-128.5631 1113.5,-112 1095.078,-97.9242 950.2198,-79.1543 878.4799,-70.5989"/>
<polygon fill="#191970" stroke="#191970" points="878.7915,-67.1114 868.4496,-69.4125 877.9692,-74.0629 878.7915,-67.1114"/>
</g>
<!-- Node14&#45;&gt;Node12 -->
<g id="edge26" class="edge">
<title>Node14&#45;&gt;Node12</title>
<path fill="none" stroke="#191970" d="M1127.2627,-179.4639C1112.3601,-170.2188 1093.0594,-158.2452 1076.7417,-148.1222"/>
<polygon fill="#191970" stroke="#191970" points="1078.3728,-145.0153 1068.0301,-142.7177 1074.6826,-150.9636 1078.3728,-145.0153"/>
</g>
<!-- Node14&#45;&gt;Node13 -->
<g id="edge24" class="edge">
<title>Node14&#45;&gt;Node13</title>
<path fill="none" stroke="#191970" d="M1155.324,-179.2902C1158.9007,-161.2128 1161.6752,-131.0988 1146.5,-112 1131.4001,-92.9959 1065.9615,-78.6749 1025.0901,-71.3828"/>
<polygon fill="#191970" stroke="#191970" points="1025.4751,-67.8975 1015.0245,-69.6398 1024.2807,-74.7948 1025.4751,-67.8975"/>
</g>
<!-- Node15&#45;&gt;Node7 -->
<g id="edge28" class="edge">
<title>Node15&#45;&gt;Node7</title>
<path fill="none" stroke="#191970" d="M515.1591,-179.4025C537.4349,-162.4718 575.004,-134.4469 608.5,-112 624.738,-101.1183 643.4828,-89.6213 658.1707,-80.8432"/>
<polygon fill="#191970" stroke="#191970" points="660.3574,-83.6154 667.1698,-75.5011 656.7842,-77.5961 660.3574,-83.6154"/>
</g>
<!-- Node15&#45;&gt;Node9 -->
<g id="edge30" class="edge">
<title>Node15&#45;&gt;Node9</title>
<path fill="none" stroke="#191970" d="M556.7361,-185.1121C621.0169,-175.1408 724.9831,-158.6834 814.5,-143 821.8428,-141.7135 829.5465,-140.3181 837.1693,-138.9094"/>
<polygon fill="#191970" stroke="#191970" points="837.9169,-142.3304 847.1067,-137.0579 836.6347,-135.4488 837.9169,-142.3304"/>
</g>
<!-- Node15&#45;&gt;Node11 -->
<g id="edge29" class="edge">
<title>Node15&#45;&gt;Node11</title>
<path fill="none" stroke="#191970" d="M556.7156,-188.7991C629.2222,-181.1384 744.8048,-165.795 781.5,-143 803.9258,-129.0692 820.4555,-102.811 829.7791,-84.8681"/>
<polygon fill="#191970" stroke="#191970" points="833.0389,-86.1708 834.3178,-75.6535 826.7593,-83.0778 833.0389,-86.1708"/>
</g>
<!-- Node16 -->
<g id="node17" class="node">
<title>Node16</title>
<g id="a_node17"><a xlink:href="../../d1/da5/RawBuffer_8h.html" target="_top" xlink:title="EMCALReconstruction\l/RawBuffer.h">
<polygon fill="none" stroke="#000000" points="396.5,-112.5 396.5,-142.5 518.5,-142.5 518.5,-112.5 396.5,-112.5"/>
<text text-anchor="start" x="404.5" y="-130.5" font-family="Helvetica,sans-Serif" font-size="10.00" fill="#000000">EMCALReconstruction</text>
<text text-anchor="middle" x="457.5" y="-119.5" font-family="Helvetica,sans-Serif" font-size="10.00" fill="#000000">/RawBuffer.h</text>
</a>
</g>
</g>
<!-- Node15&#45;&gt;Node16 -->
<g id="edge31" class="edge">
<title>Node15&#45;&gt;Node16</title>
<path fill="none" stroke="#191970" d="M486.8772,-179.2967C482.213,-171.0729 476.3453,-160.7272 471.0826,-151.4483"/>
<polygon fill="#191970" stroke="#191970" points="474.0665,-149.6148 466.0887,-142.6432 467.9777,-153.0683 474.0665,-149.6148"/>
</g>
<!-- Node18 -->
<g id="node19" class="node">
<title>Node18</title>
<g id="a_node19"><a xlink:href="../../d5/dfc/RawPayload_8h.html" target="_top" xlink:title="EMCALReconstruction\l/RawPayload.h">
<polygon fill="none" stroke="#000000" points="650.5,-112.5 650.5,-142.5 772.5,-142.5 772.5,-112.5 650.5,-112.5"/>
<text text-anchor="start" x="658.5" y="-130.5" font-family="Helvetica,sans-Serif" font-size="10.00" fill="#000000">EMCALReconstruction</text>
<text text-anchor="middle" x="711.5" y="-119.5" font-family="Helvetica,sans-Serif" font-size="10.00" fill="#000000">/RawPayload.h</text>
</a>
</g>
</g>
<!-- Node15&#45;&gt;Node18 -->
<g id="edge36" class="edge">
<title>Node15&#45;&gt;Node18</title>
<path fill="none" stroke="#191970" d="M543.9746,-179.4639C576.2388,-169.456 618.8104,-156.2509 652.9639,-145.657"/>
<polygon fill="#191970" stroke="#191970" points="654.2998,-148.9072 662.814,-142.6017 652.2259,-142.2215 654.2998,-148.9072"/>
</g>
<!-- Node19 -->
<g id="node20" class="node">
<title>Node19</title>
<g id="a_node20"><a xlink:href="../../d4/dee/RAWDataHeader_8h.html" target="_top" xlink:title="Definition of the RAW Data Header. ">
<polygon fill="none" stroke="#000000" points="295,-56.5 295,-75.5 444,-75.5 444,-56.5 295,-56.5"/>
<text text-anchor="middle" x="369.5" y="-63.5" font-family="Helvetica,sans-Serif" font-size="10.00" fill="#000000">Headers/RAWDataHeader.h</text>
</a>
</g>
</g>
<!-- Node15&#45;&gt;Node19 -->
<g id="edge41" class="edge">
<title>Node15&#45;&gt;Node19</title>
<path fill="none" stroke="#191970" d="M440.8172,-179.3913C421.4103,-171.4839 401.0462,-159.829 387.5,-143 374.4908,-126.8382 370.5683,-102.9241 369.5377,-86.0429"/>
<polygon fill="#191970" stroke="#191970" points="373.0238,-85.5458 369.2101,-75.6612 366.0273,-85.7667 373.0238,-85.5458"/>
</g>
<!-- Node20 -->
<g id="node21" class="node">
<title>Node20</title>
<g id="a_node21"><a xlink:href="../../d6/d89/RDHAny_8h.html" target="_top" xlink:title="Headers/RDHAny.h">
<polygon fill="none" stroke="#000000" points="169.5,-118 169.5,-137 277.5,-137 277.5,-118 169.5,-118"/>
<text text-anchor="middle" x="223.5" y="-125" font-family="Helvetica,sans-Serif" font-size="10.00" fill="#000000">Headers/RDHAny.h</text>
</a>
</g>
</g>
<!-- Node15&#45;&gt;Node20 -->
<g id="edge43" class="edge">
<title>Node15&#45;&gt;Node20</title>
<path fill="none" stroke="#191970" d="M434.4579,-179.4639C385.3849,-167.3761 317.3765,-150.624 271.9822,-139.4423"/>
<polygon fill="#191970" stroke="#191970" points="272.6355,-135.9987 262.0886,-137.0053 270.9613,-142.7955 272.6355,-135.9987"/>
</g>
<!-- Node16&#45;&gt;Node6 -->
<g id="edge34" class="edge">
<title>Node16&#45;&gt;Node6</title>
<path fill="none" stroke="#191970" d="M488.5677,-112.4554C509.0145,-102.554 535.5937,-89.683 555.5885,-80.0004"/>
<polygon fill="#191970" stroke="#191970" points="557.3447,-83.0388 564.8195,-75.5303 554.2938,-76.7387 557.3447,-83.0388"/>
</g>
<!-- Node16&#45;&gt;Node7 -->
<g id="edge35" class="edge">
<title>Node16&#45;&gt;Node7</title>
<path fill="none" stroke="#191970" d="M512.7858,-112.4554C553.8758,-101.2738 608.8831,-86.305 645.216,-76.418"/>
<polygon fill="#191970" stroke="#191970" points="646.2113,-79.7745 654.9414,-73.7715 644.3732,-73.0201 646.2113,-79.7745"/>
</g>
<!-- Node16&#45;&gt;Node10 -->
<g id="edge33" class="edge">
<title>Node16&#45;&gt;Node10</title>
<path fill="none" stroke="#191970" d="M472.4137,-112.2195C489.6123,-95.578 519.5185,-69.5314 550.5,-56 592.2542,-37.7635 722.4983,-21.139 785.9899,-13.8682"/>
<polygon fill="#191970" stroke="#191970" points="786.7653,-17.3029 796.3088,-12.7017 785.9789,-10.3472 786.7653,-17.3029"/>
</g>
<!-- Node17 -->
<g id="node18" class="node">
<title>Node17</title>
<polygon fill="none" stroke="#bfbfbf" points="461.5,-56.5 461.5,-75.5 503.5,-75.5 503.5,-56.5 461.5,-56.5"/>
<text text-anchor="middle" x="482.5" y="-63.5" font-family="Helvetica,sans-Serif" font-size="10.00" fill="#000000">array</text>
</g>
<!-- Node16&#45;&gt;Node17 -->
<g id="edge32" class="edge">
<title>Node16&#45;&gt;Node17</title>
<path fill="none" stroke="#191970" d="M463.6798,-112.2977C467.0054,-104.1166 471.1411,-93.943 474.6879,-85.2179"/>
<polygon fill="#191970" stroke="#191970" points="477.9737,-86.4288 478.4972,-75.8469 471.489,-83.7927 477.9737,-86.4288"/>
</g>
<!-- Node18&#45;&gt;Node7 -->
<g id="edge39" class="edge">
<title>Node18&#45;&gt;Node7</title>
<path fill="none" stroke="#191970" d="M704.5786,-112.2977C700.8539,-104.1166 696.222,-93.943 692.2496,-85.2179"/>
<polygon fill="#191970" stroke="#191970" points="695.3122,-83.4978 687.9832,-75.8469 688.9414,-86.3983 695.3122,-83.4978"/>
</g>
<!-- Node18&#45;&gt;Node10 -->
<g id="edge37" class="edge">
<title>Node18&#45;&gt;Node10</title>
<path fill="none" stroke="#191970" d="M725.8806,-112.1389C746.4197,-90.1994 784.0342,-50.0203 805.4537,-27.1404"/>
<polygon fill="#191970" stroke="#191970" points="808.2715,-29.2517 812.5507,-19.5595 803.1613,-24.4677 808.2715,-29.2517"/>
</g>
<!-- Node18&#45;&gt;Node11 -->
<g id="edge40" class="edge">
<title>Node18&#45;&gt;Node11</title>
<path fill="none" stroke="#191970" d="M742.5677,-112.4554C763.0145,-102.554 789.5937,-89.683 809.5885,-80.0004"/>
<polygon fill="#191970" stroke="#191970" points="811.3447,-83.0388 818.8195,-75.5303 808.2938,-76.7387 811.3447,-83.0388"/>
</g>
<!-- Node18&#45;&gt;Node13 -->
<g id="edge38" class="edge">
<title>Node18&#45;&gt;Node13</title>
<path fill="none" stroke="#191970" d="M772.6012,-114.0796C829.4783,-101.5869 912.1514,-83.4283 957.8955,-73.381"/>
<polygon fill="#191970" stroke="#191970" points="958.8669,-76.7511 967.8832,-71.1873 957.3652,-69.9141 958.8669,-76.7511"/>
</g>
<!-- Node19&#45;&gt;Node10 -->
<g id="edge42" class="edge">
<title>Node19&#45;&gt;Node10</title>
<path fill="none" stroke="#191970" d="M444.1386,-56.7527C542.8414,-44.5241 712.8308,-23.4634 786.1492,-14.3797"/>
<polygon fill="#191970" stroke="#191970" points="786.7515,-17.832 796.2452,-13.1289 785.8908,-10.8851 786.7515,-17.832"/>
</g>
<!-- Node20&#45;&gt;Node19 -->
<g id="edge47" class="edge">
<title>Node20&#45;&gt;Node19</title>
<path fill="none" stroke="#191970" d="M246.3125,-117.8906C270.8481,-107.5554 310.0442,-91.0447 337.6211,-79.4284"/>
<polygon fill="#191970" stroke="#191970" points="338.9906,-82.6495 346.8477,-75.5419 336.2732,-76.1984 338.9906,-82.6495"/>
</g>
<!-- Node21 -->
<g id="node22" class="node">
<title>Node21</title>
<g id="a_node22"><a xlink:href="../../df/d21/GPUCommonDef_8h.html" target="_top" xlink:title="GPUCommonDef.h">
<polygon fill="none" stroke="#000000" points="170,-56.5 170,-75.5 277,-75.5 277,-56.5 170,-56.5"/>
<text text-anchor="middle" x="223.5" y="-63.5" font-family="Helvetica,sans-Serif" font-size="10.00" fill="#000000">GPUCommonDef.h</text>
</a>
</g>
</g>
<!-- Node20&#45;&gt;Node21 -->
<g id="edge44" class="edge">
<title>Node20&#45;&gt;Node21</title>
<path fill="none" stroke="#191970" d="M223.5,-117.8906C223.5,-109.3657 223.5,-96.6392 223.5,-85.9235"/>
<polygon fill="#191970" stroke="#191970" points="227.0001,-85.7448 223.5,-75.7449 220.0001,-85.7449 227.0001,-85.7448"/>
</g>
<!-- Node24 -->
<g id="node25" class="node">
<title>Node24</title>
<polygon fill="none" stroke="#bfbfbf" points="83,-56.5 83,-75.5 152,-75.5 152,-56.5 83,-56.5"/>
<text text-anchor="middle" x="117.5" y="-63.5" font-family="Helvetica,sans-Serif" font-size="10.00" fill="#000000">type_traits</text>
</g>
<!-- Node20&#45;&gt;Node24 -->
<g id="edge48" class="edge">
<title>Node20&#45;&gt;Node24</title>
<path fill="none" stroke="#191970" d="M206.9375,-117.8906C189.7463,-107.9165 162.6418,-92.1908 142.7734,-80.6633"/>
<polygon fill="#191970" stroke="#191970" points="144.3523,-77.533 133.9462,-75.5419 140.8394,-83.5877 144.3523,-77.533"/>
</g>
<!-- Node25 -->
<g id="node26" class="node">
<title>Node25</title>
<polygon fill="none" stroke="#bfbfbf" points="0,-56.5 0,-75.5 65,-75.5 65,-56.5 0,-56.5"/>
<text text-anchor="middle" x="32.5" y="-63.5" font-family="Helvetica,sans-Serif" font-size="10.00" fill="#000000">stdexcept</text>
</g>
<!-- Node20&#45;&gt;Node25 -->
<g id="edge49" class="edge">
<title>Node20&#45;&gt;Node25</title>
<path fill="none" stroke="#191970" d="M193.6563,-117.8906C160.8575,-107.3298 108.0328,-90.3208 71.8636,-78.6747"/>
<polygon fill="#191970" stroke="#191970" points="72.7257,-75.2753 62.1342,-75.5419 70.5802,-81.9385 72.7257,-75.2753"/>
</g>
<!-- Node22 -->
<g id="node23" class="node">
<title>Node22</title>
<g id="a_node23"><a xlink:href="../../d5/d93/GPUCommonDefSettings_8h.html" target="_top" xlink:title="GPUCommonDefSettings.h">
<polygon fill="none" stroke="#000000" points="72.5,-.5 72.5,-19.5 220.5,-19.5 220.5,-.5 72.5,-.5"/>
<text text-anchor="middle" x="146.5" y="-7.5" font-family="Helvetica,sans-Serif" font-size="10.00" fill="#000000">GPUCommonDefSettings.h</text>
</a>
</g>
</g>
<!-- Node21&#45;&gt;Node22 -->
<g id="edge45" class="edge">
<title>Node21&#45;&gt;Node22</title>
<path fill="none" stroke="#191970" d="M210.0876,-56.2455C198.4943,-47.814 181.5252,-35.4729 168.0322,-25.6598"/>
<polygon fill="#191970" stroke="#191970" points="169.9047,-22.6938 159.7587,-19.6427 165.7874,-28.355 169.9047,-22.6938"/>
</g>
<!-- Node23 -->
<g id="node24" class="node">
<title>Node23</title>
<g id="a_node24"><a xlink:href="../../da/d5a/GPUCommonDefAPI_8h.html" target="_top" xlink:title="GPUCommonDefAPI.h">
<polygon fill="none" stroke="#000000" points="238.5,-.5 238.5,-19.5 362.5,-19.5 362.5,-.5 238.5,-.5"/>
<text text-anchor="middle" x="300.5" y="-7.5" font-family="Helvetica,sans-Serif" font-size="10.00" fill="#000000">GPUCommonDefAPI.h</text>
</a>
</g>
</g>
<!-- Node21&#45;&gt;Node23 -->
<g id="edge46" class="edge">
<title>Node21&#45;&gt;Node23</title>
<path fill="none" stroke="#191970" d="M236.9124,-56.2455C248.5057,-47.814 265.4748,-35.4729 278.9678,-25.6598"/>
<polygon fill="#191970" stroke="#191970" points="281.2126,-28.355 287.2413,-19.6427 277.0953,-22.6938 281.2126,-28.355"/>
</g>
</g>
</svg>
        <g id="navigator" transform="translate(0 0)" fill="#404254">
                <rect fill="#f2f5e9" fill-opacity="0.5" stroke="#606060" stroke-width=".5" x="0" y="0" width="60" height="60"/>
                <use id="zoomplus" xlink:href="#zoomPlus" x="17" y="9" onmousedown="handleZoom(evt,'in')"/>
                <use id="zoomminus" xlink:href="#zoomMin" x="42" y="9" onmousedown="handleZoom(evt,'out')"/>
                <use id="reset" xlink:href="#resetDef" x="30" y="36" onmousedown="handleReset()"/>
                <g id="arrowUp" xlink:href="#dirArrow" transform="translate(30 24)" onmousedown="handlePan(0,-1)">
                  <use xlink:href="#rim" fill="#404040">
                        <set attributeName="fill" to="#808080" begin="arrowUp.mouseover" end="arrowUp.mouseout"/>
                  </use>
                  <path fill="none" stroke="white" stroke-width="1.5" d="M0,-3.0v7 M-2.5,-0.5L0,-3.0L2.5,-0.5"/>
                </g>
                <g id="arrowRight" xlink:href="#dirArrow" transform="rotate(90) translate(36 -43)" onmousedown="handlePan(1,0)">
                  <use xlink:href="#rim" fill="#404040">
                        <set attributeName="fill" to="#808080" begin="arrowRight.mouseover" end="arrowRight.mouseout"/>
                  </use>
                  <path fill="none" stroke="white" stroke-width="1.5" d="M0,-3.0v7 M-2.5,-0.5L0,-3.0L2.5,-0.5"/>
                </g>
                <g id="arrowDown" xlink:href="#dirArrow" transform="rotate(180) translate(-30 -48)" onmousedown="handlePan(0,1)">
                  <use xlink:href="#rim" fill="#404040">
                        <set attributeName="fill" to="#808080" begin="arrowDown.mouseover" end="arrowDown.mouseout"/>
                  </use>
                  <path fill="none" stroke="white" stroke-width="1.5" d="M0,-3.0v7 M-2.5,-0.5L0,-3.0L2.5,-0.5"/>
                </g>
                <g id="arrowLeft" xlink:href="#dirArrow" transform="rotate(270) translate(-36 17)" onmousedown="handlePan(-1,0)">
                  <use xlink:href="#rim" fill="#404040">
                        <set attributeName="fill" to="#808080" begin="arrowLeft.mouseover" end="arrowLeft.mouseout"/>
                  </use>
                  <path fill="none" stroke="white" stroke-width="1.5" d="M0,-3.0v7 M-2.5,-0.5L0,-3.0L2.5,-0.5"/>
                </g>
        </g>
        <svg viewBox="0 0 15 15" width="100%" height="30px" preserveAspectRatio="xMaxYMin meet">
         <g id="arrow_out" transform="scale(0.3 0.3)">
          <a xlink:href="AltroDecoder_8cxx__incl_org.svg" target="_base">
           <rect id="button" ry="5" rx="5" y="6" x="6" height="38" width="38"
                fill="#f2f5e9" fill-opacity="0.5" stroke="#606060" stroke-width="1.0"/>
           <path id="arrow"
             d="M 11.500037,31.436501 C 11.940474,20.09759 22.043105,11.32322 32.158766,21.979434 L 37.068811,17.246167 C 37.068811,17.246167 37.088388,32 37.088388,32 L 22.160133,31.978069 C 22.160133,31.978069 26.997745,27.140456 26.997745,27.140456 C 18.528582,18.264221 13.291696,25.230495 11.500037,31.436501 z"
             style="fill:#404040;"/>
          </a>
         </g>
        </svg>
</svg>
