<?xml version="1.0" encoding="UTF-8" standalone="no"?>
<!DOCTYPE svg PUBLIC "-//W3C//DTD SVG 1.1//EN"
 "http://www.w3.org/Graphics/SVG/1.1/DTD/svg11.dtd">
<!-- Generated by graphviz version 2.40.1 (20161225.0304)
 -->
<!-- Title: /home/travis/build/AliceO2Group/AliceO2/GPU/GPUTracking/Base/GPUSettingsList.h Pages: 1 -->
<svg width="439pt" height="229pt"
 viewBox="0.00 0.00 438.50 229.00" xmlns="http://www.w3.org/2000/svg" xmlns:xlink="http://www.w3.org/1999/xlink">
<g id="graph0" class="graph" transform="scale(1 1) rotate(0) translate(4 225)">
<title>/home/travis/build/AliceO2Group/AliceO2/GPU/GPUTracking/Base/GPUSettingsList.h</title>
<!-- Node0 -->
<g id="node1" class="node">
<title>Node0</title>
<polygon fill="#bfbfbf" stroke="#000000" points="181,-168.5 181,-220.5 313,-220.5 313,-168.5 181,-168.5"/>
<text text-anchor="start" x="189" y="-208.5" font-family="Helvetica,sans-Serif" font-size="10.00" fill="#000000">/home/travis/build</text>
<text text-anchor="start" x="189" y="-197.5" font-family="Helvetica,sans-Serif" font-size="10.00" fill="#000000">/AliceO2Group/AliceO2</text>
<text text-anchor="start" x="189" y="-186.5" font-family="Helvetica,sans-Serif" font-size="10.00" fill="#000000">/GPU/GPUTracking/Base</text>
<text text-anchor="middle" x="247" y="-175.5" font-family="Helvetica,sans-Serif" font-size="10.00" fill="#000000">/GPUSettingsList.h</text>
</g>
<!-- Node1 -->
<g id="node2" class="node">
<title>Node1</title>
<g id="a_node2"><a xlink:href="../../d2/d37/GPUDefConstantsAndSettings_8h.html" target="_top" xlink:title="GPUDefConstantsAndSettings.h">
<polygon fill="none" stroke="#000000" points="11.5,-112.5 11.5,-131.5 182.5,-131.5 182.5,-112.5 11.5,-112.5"/>
<text text-anchor="middle" x="97" y="-119.5" font-family="Helvetica,sans-Serif" font-size="10.00" fill="#000000">GPUDefConstantsAndSettings.h</text>
</a>
</g>
</g>
<!-- Node0&#45;&gt;Node1 -->
<g id="edge1" class="edge">
<title>Node0&#45;&gt;Node1</title>
<path fill="none" stroke="#191970" d="M192.8466,-168.3258C170.1613,-157.3613 144.7121,-145.0608 125.7414,-135.8917"/>
<polygon fill="#191970" stroke="#191970" points="127.2521,-132.7345 116.7255,-131.534 124.2059,-139.037 127.2521,-132.7345"/>
</g>
<!-- Node5 -->
<g id="node6" class="node">
<title>Node5</title>
<g id="a_node6"><a xlink:href="../../dd/dc6/GPUSettings_8h.html" target="_top" xlink:title="GPUSettings.h">
<polygon fill="none" stroke="#000000" points="204,-112.5 204,-131.5 290,-131.5 290,-112.5 204,-112.5"/>
<text text-anchor="middle" x="247" y="-119.5" font-family="Helvetica,sans-Serif" font-size="10.00" fill="#000000">GPUSettings.h</text>
</a>
</g>
</g>
<!-- Node0&#45;&gt;Node5 -->
<g id="edge5" class="edge">
<title>Node0&#45;&gt;Node5</title>
<path fill="none" stroke="#191970" d="M247,-168.3258C247,-159.5142 247,-149.8397 247,-141.621"/>
<polygon fill="#191970" stroke="#191970" points="250.5001,-141.534 247,-131.534 243.5001,-141.534 250.5001,-141.534"/>
</g>
<!-- Node2 -->
<g id="node3" class="node">
<title>Node2</title>
<g id="a_node3"><a xlink:href="../../df/d21/GPUCommonDef_8h.html" target="_top" xlink:title="GPUCommonDef.h">
<polygon fill="none" stroke="#000000" points="40.5,-56.5 40.5,-75.5 147.5,-75.5 147.5,-56.5 40.5,-56.5"/>
<text text-anchor="middle" x="94" y="-63.5" font-family="Helvetica,sans-Serif" font-size="10.00" fill="#000000">GPUCommonDef.h</text>
</a>
</g>
</g>
<!-- Node1&#45;&gt;Node2 -->
<g id="edge2" class="edge">
<title>Node1&#45;&gt;Node2</title>
<path fill="none" stroke="#191970" d="M96.4774,-112.2455C96.086,-104.9382 95.5372,-94.6944 95.0556,-85.7046"/>
<polygon fill="#191970" stroke="#191970" points="98.5466,-85.4411 94.5166,-75.6427 91.5566,-85.8156 98.5466,-85.4411"/>
</g>
<!-- Node3 -->
<g id="node4" class="node">
<title>Node3</title>
<g id="a_node4"><a xlink:href="../../d5/d93/GPUCommonDefSettings_8h.html" target="_top" xlink:title="GPUCommonDefSettings.h">
<polygon fill="none" stroke="#000000" points="0,-.5 0,-19.5 148,-19.5 148,-.5 0,-.5"/>
<text text-anchor="middle" x="74" y="-7.5" font-family="Helvetica,sans-Serif" font-size="10.00" fill="#000000">GPUCommonDefSettings.h</text>
</a>
</g>
</g>
<!-- Node2&#45;&gt;Node3 -->
<g id="edge3" class="edge">
<title>Node2&#45;&gt;Node3</title>
<path fill="none" stroke="#191970" d="M90.5163,-56.2455C87.8492,-48.7776 84.0867,-38.2427 80.8263,-29.1137"/>
<polygon fill="#191970" stroke="#191970" points="84.1033,-27.8829 77.4438,-19.6427 77.5111,-30.2373 84.1033,-27.8829"/>
</g>
<!-- Node4 -->
<g id="node5" class="node">
<title>Node4</title>
<g id="a_node5"><a xlink:href="../../da/d5a/GPUCommonDefAPI_8h.html" target="_top" xlink:title="GPUCommonDefAPI.h">
<polygon fill="none" stroke="#000000" points="166,-.5 166,-19.5 290,-19.5 290,-.5 166,-.5"/>
<text text-anchor="middle" x="228" y="-7.5" font-family="Helvetica,sans-Serif" font-size="10.00" fill="#000000">GPUCommonDefAPI.h</text>
</a>
</g>
</g>
<!-- Node2&#45;&gt;Node4 -->
<g id="edge4" class="edge">
<title>Node2&#45;&gt;Node4</title>
<path fill="none" stroke="#191970" d="M117.0354,-56.3733C138.7388,-47.3032 171.4618,-33.6279 195.755,-23.4755"/>
<polygon fill="#191970" stroke="#191970" points="197.3881,-26.5865 205.2652,-19.5011 194.6889,-20.1278 197.3881,-26.5865"/>
</g>
<!-- Node5&#45;&gt;Node2 -->
<g id="edge6" class="edge">
<title>Node5&#45;&gt;Node2</title>
<path fill="none" stroke="#191970" d="M220.6984,-112.3733C195.5872,-103.1822 157.5562,-89.2624 129.7128,-79.0713"/>
<polygon fill="#191970" stroke="#191970" points="130.5522,-75.6516 119.9584,-75.5011 128.1462,-82.2251 130.5522,-75.6516"/>
</g>
<!-- Node6 -->
<g id="node7" class="node">
<title>Node6</title>
<polygon fill="none" stroke="#bfbfbf" points="165.5,-56.5 165.5,-75.5 212.5,-75.5 212.5,-56.5 165.5,-56.5"/>
<text text-anchor="middle" x="189" y="-63.5" font-family="Helvetica,sans-Serif" font-size="10.00" fill="#000000">vector</text>
</g>
<!-- Node5&#45;&gt;Node6 -->
<g id="edge7" class="edge">
<title>Node5&#45;&gt;Node6</title>
<path fill="none" stroke="#191970" d="M236.8972,-112.2455C228.4972,-104.1352 216.3506,-92.4075 206.3916,-82.7919"/>
<polygon fill="#191970" stroke="#191970" points="208.6122,-80.0707 198.9871,-75.6427 203.75,-85.1066 208.6122,-80.0707"/>
</g>
<!-- Node7 -->
<g id="node8" class="node">
<title>Node7</title>
<polygon fill="none" stroke="#bfbfbf" points="231,-56.5 231,-75.5 275,-75.5 275,-56.5 231,-56.5"/>
<text text-anchor="middle" x="253" y="-63.5" font-family="Helvetica,sans-Serif" font-size="10.00" fill="#000000">string</text>
</g>
<!-- Node5&#45;&gt;Node7 -->
<g id="edge8" class="edge">
<title>Node5&#45;&gt;Node7</title>
<path fill="none" stroke="#191970" d="M248.0451,-112.2455C248.828,-104.9382 249.9256,-94.6944 250.8888,-85.7046"/>
<polygon fill="#191970" stroke="#191970" points="254.3815,-85.9587 251.9669,-75.6427 247.4214,-85.2129 254.3815,-85.9587"/>
</g>
<!-- Node8 -->
<g id="node9" class="node">
<title>Node8</title>
<g id="a_node9"><a xlink:href="../../da/d08/qconfig_8h.html" target="_top" xlink:title="utils/qconfig.h">
<polygon fill="none" stroke="#000000" points="293.5,-56.5 293.5,-75.5 378.5,-75.5 378.5,-56.5 293.5,-56.5"/>
<text text-anchor="middle" x="336" y="-63.5" font-family="Helvetica,sans-Serif" font-size="10.00" fill="#000000">utils/qconfig.h</text>
</a>
</g>
</g>
<!-- Node5&#45;&gt;Node8 -->
<g id="edge9" class="edge">
<title>Node5&#45;&gt;Node8</title>
<path fill="none" stroke="#191970" d="M262.5026,-112.2455C276.158,-103.6534 296.2657,-91.0014 311.9989,-81.1018"/>
<polygon fill="#191970" stroke="#191970" points="314.0751,-83.9307 320.675,-75.6427 310.3471,-78.006 314.0751,-83.9307"/>
</g>
<!-- Node9 -->
<g id="node10" class="node">
<title>Node9</title>
<g id="a_node10"><a xlink:href="../../d8/de9/qconfigoptions_8h.html" target="_top" xlink:title="qconfigoptions.h">
<polygon fill="none" stroke="#000000" points="333.5,-.5 333.5,-19.5 430.5,-19.5 430.5,-.5 333.5,-.5"/>
<text text-anchor="middle" x="382" y="-7.5" font-family="Helvetica,sans-Serif" font-size="10.00" fill="#000000">qconfigoptions.h</text>
</a>
</g>
</g>
<!-- Node8&#45;&gt;Node9 -->
<g id="edge10" class="edge">
<title>Node8&#45;&gt;Node9</title>
<path fill="none" stroke="#191970" d="M344.0126,-56.2455C350.4768,-48.3761 359.7385,-37.101 367.4983,-27.6542"/>
<polygon fill="#191970" stroke="#191970" points="370.4364,-29.5916 374.0792,-19.6427 365.0273,-25.1484 370.4364,-29.5916"/>
</g>
<!-- Node9&#45;&gt;Node0 -->
<g id="edge11" class="edge">
<title>Node9&#45;&gt;Node0</title>
<path fill="none" stroke="#191970" d="M385.6522,-19.9323C389.9542,-33.3373 395.5079,-57.6521 387,-76 369.8576,-112.9685 334.8705,-142.5881 304.1626,-162.9683"/>
<polygon fill="#191970" stroke="#191970" points="302.1395,-160.1082 295.6332,-168.4699 305.9339,-165.9906 302.1395,-160.1082"/>
</g>
</g>
</svg>
