<?xml version="1.0" encoding="UTF-8" standalone="no"?>
<!DOCTYPE svg PUBLIC "-//W3C//DTD SVG 1.1//EN"
 "http://www.w3.org/Graphics/SVG/1.1/DTD/svg11.dtd">
<!-- Generated by graphviz version 2.40.1 (20161225.0304)
 -->
<!-- Title: o2::header::RAWDataHeaderV6 Pages: 1 -->
<!--zoomable 391 -->
<svg id="main" version="1.1" xmlns="http://www.w3.org/2000/svg" xmlns:xlink="http://www.w3.org/1999/xlink" xml:space="preserve" onload="init(evt)">
<style type="text/css"><![CDATA[
.edge:hover path { stroke: red; }
.edge:hover polygon { stroke: red; fill: red; }
]]></style>
<script type="text/javascript"><![CDATA[
var edges = document.getElementsByTagName('g');
if (edges && edges.length) {
  for (var i=0;i<edges.length;i++) {
    if (edges[i].id.substr(0,4)=='edge') {
      edges[i].setAttribute('class','edge');
    }
  }
}
]]></script>
        <defs>
                <circle id="rim" cx="0" cy="0" r="7"/>
                <circle id="rim2" cx="0" cy="0" r="3.5"/>
                <g id="zoomPlus">
                        <use xlink:href="#rim" fill="#404040">
                                <set attributeName="fill" to="#808080" begin="zoomplus.mouseover" end="zoomplus.mouseout"/>
                        </use>
                        <path d="M-4,0h8M0,-4v8" fill="none" stroke="white" stroke-width="1.5" pointer-events="none"/>
                </g>
                <g id="zoomMin">
                        <use xlink:href="#rim" fill="#404040">
                                <set attributeName="fill" to="#808080" begin="zoomminus.mouseover" end="zoomminus.mouseout"/>
                        </use>
                        <path d="M-4,0h8" fill="none" stroke="white" stroke-width="1.5" pointer-events="none"/>
                </g>
                <g id="dirArrow">
                        <path fill="none" stroke="white" stroke-width="1.5" d="M0,-3.0v7 M-2.5,-0.5L0,-3.0L2.5,-0.5"/>
                </g>
               <g id="resetDef">
                       <use xlink:href="#rim2" fill="#404040">
                               <set attributeName="fill" to="#808080" begin="reset.mouseover" end="reset.mouseout"/>
                       </use>
               </g>
        </defs>

<script type="text/javascript">
var viewWidth = 1246;
var viewHeight = 391;
var sectionId = 'dynsection-0';
</script>
<script xlink:href="../../svgpan.js"/>
<svg id="graph" class="graph">
<g id="viewport">
<title>o2::header::RAWDataHeaderV6</title>
<!-- Node1 -->
<g id="node1" class="node">
<title>Node1</title>
<polygon fill="#bfbfbf" stroke="#000000" points="466.5,-.5 466.5,-167.5 633.5,-167.5 633.5,-.5 466.5,-.5"/>
<text text-anchor="middle" x="550" y="-155.5" font-family="Helvetica,sans-Serif" font-size="10.00" fill="#000000">o2::header::RAWDataHeaderV6</text>
<polyline fill="none" stroke="#000000" points="466.5,-148.5 633.5,-148.5 "/>
<text text-anchor="start" x="474.5" y="-136.5" font-family="Helvetica,sans-Serif" font-size="10.00" fill="#000000">+ zero0</text>
<text text-anchor="start" x="474.5" y="-125.5" font-family="Helvetica,sans-Serif" font-size="10.00" fill="#000000">+ word1</text>
<text text-anchor="start" x="474.5" y="-114.5" font-family="Helvetica,sans-Serif" font-size="10.00" fill="#000000">+ word2</text>
<text text-anchor="start" x="474.5" y="-103.5" font-family="Helvetica,sans-Serif" font-size="10.00" fill="#000000">+ word3</text>
<text text-anchor="start" x="474.5" y="-92.5" font-family="Helvetica,sans-Serif" font-size="10.00" fill="#000000">+ word4</text>
<text text-anchor="start" x="474.5" y="-81.5" font-family="Helvetica,sans-Serif" font-size="10.00" fill="#000000">+ pageCnt</text>
<text text-anchor="start" x="474.5" y="-70.5" font-family="Helvetica,sans-Serif" font-size="10.00" fill="#000000">+ stop</text>
<text text-anchor="start" x="474.5" y="-59.5" font-family="Helvetica,sans-Serif" font-size="10.00" fill="#000000">+ zero4</text>
<text text-anchor="start" x="474.5" y="-48.5" font-family="Helvetica,sans-Serif" font-size="10.00" fill="#000000">+ word5</text>
<text text-anchor="start" x="474.5" y="-37.5" font-family="Helvetica,sans-Serif" font-size="10.00" fill="#000000">+ word6</text>
<text text-anchor="start" x="474.5" y="-26.5" font-family="Helvetica,sans-Serif" font-size="10.00" fill="#000000">+ detectorField</text>
<polyline fill="none" stroke="#000000" points="466.5,-19.5 633.5,-19.5 "/>
<text text-anchor="middle" x="550" y="-7.5" font-family="Helvetica,sans-Serif" font-size="10.00" fill="#000000"> </text>
</g>
<!-- Node2 -->
<g id="node2" class="node">
<title>Node2</title>
<g id="a_node2"><a xlink:href="../../d6/d30/classuint64__t.html" target="_top" xlink:title="{uint64_t\n||}">
<polygon fill="none" stroke="#000000" points="0,-325.5 0,-382.5 56,-382.5 56,-325.5 0,-325.5"/>
<text text-anchor="middle" x="28" y="-370.5" font-family="Helvetica,sans-Serif" font-size="10.00" fill="#000000">uint64_t</text>
<polyline fill="none" stroke="#000000" points="0,-363.5 56,-363.5 "/>
<text text-anchor="middle" x="28" y="-351.5" font-family="Helvetica,sans-Serif" font-size="10.00" fill="#000000"> </text>
<polyline fill="none" stroke="#000000" points="0,-344.5 56,-344.5 "/>
<text text-anchor="middle" x="28" y="-332.5" font-family="Helvetica,sans-Serif" font-size="10.00" fill="#000000"> </text>
</a>
</g>
</g>
<!-- Node2&#45;&gt;Node1 -->
<g id="edge1" class="edge">
<title>Node2&#45;&gt;Node1</title>
<path fill="none" stroke="#404040" d="M22.6764,-325.5C17.5174,-288.3442 14.9153,-223.6695 50,-186 103.7416,-128.299 324.4965,-101.5248 454.0174,-90.5664"/>
<polygon fill="none" stroke="#404040" points="454.299,-90.5433 459.9491,-86.0626 466.2582,-89.5548 460.6081,-94.0354 454.299,-90.5433"/>
<text text-anchor="middle" x="84" y="-299" font-family="Helvetica,sans-Serif" font-size="10.00" fill="#000000"> +word7</text>
<text text-anchor="middle" x="84" y="-288" font-family="Helvetica,sans-Serif" font-size="10.00" fill="#000000">+triggerType</text>
<text text-anchor="middle" x="84" y="-277" font-family="Helvetica,sans-Serif" font-size="10.00" fill="#000000">+sourceID</text>
<text text-anchor="middle" x="84" y="-266" font-family="Helvetica,sans-Serif" font-size="10.00" fill="#000000">+zero6</text>
<text text-anchor="middle" x="84" y="-255" font-family="Helvetica,sans-Serif" font-size="10.00" fill="#000000">+detectorPAR</text>
<text text-anchor="middle" x="84" y="-244" font-family="Helvetica,sans-Serif" font-size="10.00" fill="#000000">+feeId</text>
<text text-anchor="middle" x="84" y="-233" font-family="Helvetica,sans-Serif" font-size="10.00" fill="#000000">+priority</text>
<text text-anchor="middle" x="84" y="-222" font-family="Helvetica,sans-Serif" font-size="10.00" fill="#000000">+headerSize</text>
<text text-anchor="middle" x="84" y="-211" font-family="Helvetica,sans-Serif" font-size="10.00" fill="#000000">+version</text>
<text text-anchor="middle" x="84" y="-200" font-family="Helvetica,sans-Serif" font-size="10.00" fill="#000000">+word0</text>
<text text-anchor="middle" x="84" y="-189" font-family="Helvetica,sans-Serif" font-size="10.00" fill="#000000">...</text>
</g>
<!-- Node3 -->
<g id="node3" class="node">
<title>Node3</title>
<polygon fill="none" stroke="#bfbfbf" points="82,-325.5 82,-382.5 138,-382.5 138,-325.5 82,-325.5"/>
<text text-anchor="middle" x="110" y="-370.5" font-family="Helvetica,sans-Serif" font-size="10.00" fill="#000000">uint16_t</text>
<polyline fill="none" stroke="#bfbfbf" points="82,-363.5 138,-363.5 "/>
<text text-anchor="middle" x="110" y="-351.5" font-family="Helvetica,sans-Serif" font-size="10.00" fill="#000000"> </text>
<polyline fill="none" stroke="#bfbfbf" points="82,-344.5 138,-344.5 "/>
<text text-anchor="middle" x="110" y="-332.5" font-family="Helvetica,sans-Serif" font-size="10.00" fill="#000000"> </text>
</g>
<!-- Node3&#45;&gt;Node1 -->
<g id="edge2" class="edge">
<title>Node3&#45;&gt;Node1</title>
<path fill="none" stroke="#404040" d="M116.089,-325.4606C125.5789,-287.9567 147.5068,-222.573 191,-186 230.8476,-152.4925 362.1403,-120.8581 454.3644,-101.9497"/>
<polygon fill="none" stroke="#404040" points="454.4951,-101.9233 459.5801,-96.8102 466.2556,-99.5375 461.1706,-104.6505 454.4951,-101.9233"/>
<text text-anchor="middle" x="209.5" y="-244" font-family="Helvetica,sans-Serif" font-size="10.00" fill="#000000"> +cruID</text>
</g>
<!-- Node4 -->
<g id="node4" class="node">
<title>Node4</title>
<polygon fill="none" stroke="#bfbfbf" points="156.5,-325.5 156.5,-382.5 269.5,-382.5 269.5,-325.5 156.5,-325.5"/>
<text text-anchor="middle" x="213" y="-370.5" font-family="Helvetica,sans-Serif" font-size="10.00" fill="#000000">anonymous:+@102</text>
<polyline fill="none" stroke="#bfbfbf" points="156.5,-363.5 269.5,-363.5 "/>
<text text-anchor="middle" x="213" y="-351.5" font-family="Helvetica,sans-Serif" font-size="10.00" fill="#000000"> </text>
<polyline fill="none" stroke="#bfbfbf" points="156.5,-344.5 269.5,-344.5 "/>
<text text-anchor="middle" x="213" y="-332.5" font-family="Helvetica,sans-Serif" font-size="10.00" fill="#000000"> </text>
</g>
<!-- Node4&#45;&gt;Node1 -->
<g id="edge3" class="edge">
<title>Node4&#45;&gt;Node1</title>
<path fill="none" stroke="#404040" d="M222.5948,-325.2659C236.2186,-288.4502 264.4585,-224.772 308,-186 349.5227,-149.0256 406.3986,-124.132 454.5789,-108.1996"/>
<polygon fill="none" stroke="#404040" points="454.8788,-108.1035 459.3711,-102.4626 466.3059,-104.4397 461.8136,-110.0806 454.8788,-108.1035"/>
<text text-anchor="middle" x="328" y="-244" font-family="Helvetica,sans-Serif" font-size="10.00" fill="#000000"> +@102</text>
</g>
<!-- Node5 -->
<g id="node5" class="node">
<title>Node5</title>
<polygon fill="none" stroke="#bfbfbf" points="287.5,-325.5 287.5,-382.5 400.5,-382.5 400.5,-325.5 287.5,-325.5"/>
<text text-anchor="middle" x="344" y="-370.5" font-family="Helvetica,sans-Serif" font-size="10.00" fill="#000000">anonymous:+@104</text>
<polyline fill="none" stroke="#bfbfbf" points="287.5,-363.5 400.5,-363.5 "/>
<text text-anchor="middle" x="344" y="-351.5" font-family="Helvetica,sans-Serif" font-size="10.00" fill="#000000"> </text>
<polyline fill="none" stroke="#bfbfbf" points="287.5,-344.5 400.5,-344.5 "/>
<text text-anchor="middle" x="344" y="-332.5" font-family="Helvetica,sans-Serif" font-size="10.00" fill="#000000"> </text>
</g>
<!-- Node5&#45;&gt;Node1 -->
<g id="edge4" class="edge">
<title>Node5&#45;&gt;Node1</title>
<path fill="none" stroke="#404040" d="M348.0445,-325.2407C354.2631,-289.5391 368.9905,-228.2113 401,-186 415.9759,-166.251 435.9133,-148.9717 456.3192,-134.5202"/>
<polygon fill="none" stroke="#404040" points="456.4506,-134.4304 459.144,-127.7411 466.3546,-127.6546 463.6612,-134.3438 456.4506,-134.4304"/>
<text text-anchor="middle" x="421" y="-244" font-family="Helvetica,sans-Serif" font-size="10.00" fill="#000000"> +@104</text>
</g>
<!-- Node6 -->
<g id="node6" class="node">
<title>Node6</title>
<g id="a_node6"><a xlink:href="../../d3/d87/classuint32__t.html" target="_top" xlink:title="{uint32_t\n||}">
<polygon fill="none" stroke="#000000" points="419,-325.5 419,-382.5 475,-382.5 475,-325.5 419,-325.5"/>
<text text-anchor="middle" x="447" y="-370.5" font-family="Helvetica,sans-Serif" font-size="10.00" fill="#000000">uint32_t</text>
<polyline fill="none" stroke="#000000" points="419,-363.5 475,-363.5 "/>
<text text-anchor="middle" x="447" y="-351.5" font-family="Helvetica,sans-Serif" font-size="10.00" fill="#000000"> </text>
<polyline fill="none" stroke="#000000" points="419,-344.5 475,-344.5 "/>
<text text-anchor="middle" x="447" y="-332.5" font-family="Helvetica,sans-Serif" font-size="10.00" fill="#000000"> </text>
</a>
</g>
</g>
<!-- Node6&#45;&gt;Node1 -->
<g id="edge5" class="edge">
<title>Node6&#45;&gt;Node1</title>
<path fill="none" stroke="#404040" d="M444.6281,-325.388C442.8949,-290.8999 443.5776,-231.8648 463,-186 464.0693,-183.475 465.2244,-180.9664 466.4552,-178.478"/>
<polygon fill="none" stroke="#404040" points="466.577,-178.2536 465.926,-171.0719 472.3049,-167.7088 472.9558,-174.8905 466.577,-178.2536"/>
<text text-anchor="middle" x="503" y="-282.5" font-family="Helvetica,sans-Serif" font-size="10.00" fill="#000000"> +linkID</text>
<text text-anchor="middle" x="503" y="-271.5" font-family="Helvetica,sans-Serif" font-size="10.00" fill="#000000">+endPointID</text>
<text text-anchor="middle" x="503" y="-260.5" font-family="Helvetica,sans-Serif" font-size="10.00" fill="#000000">+reserved2</text>
<text text-anchor="middle" x="503" y="-249.5" font-family="Helvetica,sans-Serif" font-size="10.00" fill="#000000">+memorySize</text>
<text text-anchor="middle" x="503" y="-238.5" font-family="Helvetica,sans-Serif" font-size="10.00" fill="#000000">+offsetToNext</text>
<text text-anchor="middle" x="503" y="-227.5" font-family="Helvetica,sans-Serif" font-size="10.00" fill="#000000">+orbit</text>
<text text-anchor="middle" x="503" y="-216.5" font-family="Helvetica,sans-Serif" font-size="10.00" fill="#000000">+packetCounter</text>
<text text-anchor="middle" x="503" y="-205.5" font-family="Helvetica,sans-Serif" font-size="10.00" fill="#000000">+bunchCrossing</text>
</g>
<!-- Node7 -->
<g id="node7" class="node">
<title>Node7</title>
<polygon fill="none" stroke="#bfbfbf" points="493.5,-325.5 493.5,-382.5 600.5,-382.5 600.5,-325.5 493.5,-325.5"/>
<text text-anchor="middle" x="547" y="-370.5" font-family="Helvetica,sans-Serif" font-size="10.00" fill="#000000">anonymous:+@92</text>
<polyline fill="none" stroke="#bfbfbf" points="493.5,-363.5 600.5,-363.5 "/>
<text text-anchor="middle" x="547" y="-351.5" font-family="Helvetica,sans-Serif" font-size="10.00" fill="#000000"> </text>
<polyline fill="none" stroke="#bfbfbf" points="493.5,-344.5 600.5,-344.5 "/>
<text text-anchor="middle" x="547" y="-332.5" font-family="Helvetica,sans-Serif" font-size="10.00" fill="#000000"> </text>
</g>
<!-- Node7&#45;&gt;Node1 -->
<g id="edge6" class="edge">
<title>Node7&#45;&gt;Node1</title>
<path fill="none" stroke="#404040" d="M547.3182,-325.3609C547.7014,-290.8712 548.3649,-231.1584 548.936,-179.7577"/>
<polygon fill="none" stroke="#404040" points="548.938,-179.5723 545.0049,-173.5282 549.0714,-167.5731 553.0045,-173.6172 548.938,-179.5723"/>
<text text-anchor="middle" x="565" y="-244" font-family="Helvetica,sans-Serif" font-size="10.00" fill="#000000"> +@92</text>
</g>
<!-- Node8 -->
<g id="node8" class="node">
<title>Node8</title>
<polygon fill="none" stroke="#bfbfbf" points="618.5,-325.5 618.5,-382.5 731.5,-382.5 731.5,-325.5 618.5,-325.5"/>
<text text-anchor="middle" x="675" y="-370.5" font-family="Helvetica,sans-Serif" font-size="10.00" fill="#000000">anonymous:+@106</text>
<polyline fill="none" stroke="#bfbfbf" points="618.5,-363.5 731.5,-363.5 "/>
<text text-anchor="middle" x="675" y="-351.5" font-family="Helvetica,sans-Serif" font-size="10.00" fill="#000000"> </text>
<polyline fill="none" stroke="#bfbfbf" points="618.5,-344.5 731.5,-344.5 "/>
<text text-anchor="middle" x="675" y="-332.5" font-family="Helvetica,sans-Serif" font-size="10.00" fill="#000000"> </text>
</g>
<!-- Node8&#45;&gt;Node1 -->
<g id="edge7" class="edge">
<title>Node8&#45;&gt;Node1</title>
<path fill="none" stroke="#404040" d="M661.7412,-325.3609C645.6726,-290.6529 617.7785,-230.4015 593.8809,-178.7828"/>
<polygon fill="none" stroke="#404040" points="593.7328,-178.4627 587.5821,-174.6984 588.6912,-167.5731 594.8419,-171.3374 593.7328,-178.4627"/>
<text text-anchor="middle" x="671" y="-244" font-family="Helvetica,sans-Serif" font-size="10.00" fill="#000000"> +@106</text>
</g>
<!-- Node9 -->
<g id="node9" class="node">
<title>Node9</title>
<polygon fill="none" stroke="#bfbfbf" points="749.5,-325.5 749.5,-382.5 856.5,-382.5 856.5,-325.5 749.5,-325.5"/>
<text text-anchor="middle" x="803" y="-370.5" font-family="Helvetica,sans-Serif" font-size="10.00" fill="#000000">anonymous:+@94</text>
<polyline fill="none" stroke="#bfbfbf" points="749.5,-363.5 856.5,-363.5 "/>
<text text-anchor="middle" x="803" y="-351.5" font-family="Helvetica,sans-Serif" font-size="10.00" fill="#000000"> </text>
<polyline fill="none" stroke="#bfbfbf" points="749.5,-344.5 856.5,-344.5 "/>
<text text-anchor="middle" x="803" y="-332.5" font-family="Helvetica,sans-Serif" font-size="10.00" fill="#000000"> </text>
</g>
<!-- Node9&#45;&gt;Node1 -->
<g id="edge8" class="edge">
<title>Node9&#45;&gt;Node1</title>
<path fill="none" stroke="#404040" d="M788.9217,-325.199C770.6436,-289.7287 736.1625,-228.9157 695,-186 679.7399,-170.0899 661.6679,-155.0979 643.5522,-141.7557"/>
<polygon fill="none" stroke="#404040" points="643.5324,-141.7415 636.3261,-141.4791 633.7966,-134.7262 641.0029,-134.9886 643.5324,-141.7415"/>
<text text-anchor="middle" x="795" y="-244" font-family="Helvetica,sans-Serif" font-size="10.00" fill="#000000"> +@94</text>
</g>
<!-- Node10 -->
<g id="node10" class="node">
<title>Node10</title>
<polygon fill="none" stroke="#bfbfbf" points="874.5,-325.5 874.5,-382.5 981.5,-382.5 981.5,-325.5 874.5,-325.5"/>
<text text-anchor="middle" x="928" y="-370.5" font-family="Helvetica,sans-Serif" font-size="10.00" fill="#000000">anonymous:+@96</text>
<polyline fill="none" stroke="#bfbfbf" points="874.5,-363.5 981.5,-363.5 "/>
<text text-anchor="middle" x="928" y="-351.5" font-family="Helvetica,sans-Serif" font-size="10.00" fill="#000000"> </text>
<polyline fill="none" stroke="#bfbfbf" points="874.5,-344.5 981.5,-344.5 "/>
<text text-anchor="middle" x="928" y="-332.5" font-family="Helvetica,sans-Serif" font-size="10.00" fill="#000000"> </text>
</g>
<!-- Node10&#45;&gt;Node1 -->
<g id="edge9" class="edge">
<title>Node10&#45;&gt;Node1</title>
<path fill="none" stroke="#404040" d="M915.6996,-325.3747C898.4583,-288.3809 863.7751,-224.1996 816,-186 766.4256,-146.3617 699.7078,-120.8319 645.4929,-105.2267"/>
<polygon fill="none" stroke="#404040" points="645.3294,-105.181 638.474,-107.4179 633.7725,-101.9502 640.6279,-99.7133 645.3294,-105.181"/>
<text text-anchor="middle" x="921" y="-244" font-family="Helvetica,sans-Serif" font-size="10.00" fill="#000000"> +@96</text>
</g>
<!-- Node11 -->
<g id="node11" class="node">
<title>Node11</title>
<polygon fill="none" stroke="#bfbfbf" points="999.5,-325.5 999.5,-382.5 1106.5,-382.5 1106.5,-325.5 999.5,-325.5"/>
<text text-anchor="middle" x="1053" y="-370.5" font-family="Helvetica,sans-Serif" font-size="10.00" fill="#000000">anonymous:+@98</text>
<polyline fill="none" stroke="#bfbfbf" points="999.5,-363.5 1106.5,-363.5 "/>
<text text-anchor="middle" x="1053" y="-351.5" font-family="Helvetica,sans-Serif" font-size="10.00" fill="#000000"> </text>
<polyline fill="none" stroke="#bfbfbf" points="999.5,-344.5 1106.5,-344.5 "/>
<text text-anchor="middle" x="1053" y="-332.5" font-family="Helvetica,sans-Serif" font-size="10.00" fill="#000000"> </text>
</g>
<!-- Node11&#45;&gt;Node1 -->
<g id="edge10" class="edge">
<title>Node11&#45;&gt;Node1</title>
<path fill="none" stroke="#404040" d="M1041.7797,-325.1969C1025.5533,-287.3978 991.906,-221.6843 942,-186 894.8645,-152.2967 745.9644,-119.716 645.856,-100.7797"/>
<polygon fill="none" stroke="#404040" points="645.6943,-100.7495 639.0602,-103.5758 633.8997,-98.5389 640.5339,-95.7127 645.6943,-100.7495"/>
<text text-anchor="middle" x="1050" y="-244" font-family="Helvetica,sans-Serif" font-size="10.00" fill="#000000"> +@98</text>
</g>
<!-- Node12 -->
<g id="node12" class="node">
<title>Node12</title>
<polygon fill="none" stroke="#bfbfbf" points="1124.5,-325.5 1124.5,-382.5 1237.5,-382.5 1237.5,-325.5 1124.5,-325.5"/>
<text text-anchor="middle" x="1181" y="-370.5" font-family="Helvetica,sans-Serif" font-size="10.00" fill="#000000">anonymous:+@100</text>
<polyline fill="none" stroke="#bfbfbf" points="1124.5,-363.5 1237.5,-363.5 "/>
<text text-anchor="middle" x="1181" y="-351.5" font-family="Helvetica,sans-Serif" font-size="10.00" fill="#000000"> </text>
<polyline fill="none" stroke="#bfbfbf" points="1124.5,-344.5 1237.5,-344.5 "/>
<text text-anchor="middle" x="1181" y="-332.5" font-family="Helvetica,sans-Serif" font-size="10.00" fill="#000000"> </text>
</g>
<!-- Node12&#45;&gt;Node1 -->
<g id="edge11" class="edge">
<title>Node12&#45;&gt;Node1</title>
<path fill="none" stroke="#404040" d="M1170.5347,-325.3946C1154.9974,-287.1908 1122.0541,-220.347 1071,-186 1002.7745,-140.1009 776.5542,-108.6331 645.7247,-93.7772"/>
<polygon fill="none" stroke="#404040" points="645.6835,-93.7727 639.2749,-97.0787 633.7584,-92.4345 640.167,-89.1285 645.6835,-93.7727"/>
<text text-anchor="middle" x="1181" y="-244" font-family="Helvetica,sans-Serif" font-size="10.00" fill="#000000"> +@100</text>
</g>
</g>
</svg>
        <g id="navigator" transform="translate(0 0)" fill="#404254">
                <rect fill="#f2f5e9" fill-opacity="0.5" stroke="#606060" stroke-width=".5" x="0" y="0" width="60" height="60"/>
                <use id="zoomplus" xlink:href="#zoomPlus" x="17" y="9" onmousedown="handleZoom(evt,'in')"/>
                <use id="zoomminus" xlink:href="#zoomMin" x="42" y="9" onmousedown="handleZoom(evt,'out')"/>
                <use id="reset" xlink:href="#resetDef" x="30" y="36" onmousedown="handleReset()"/>
                <g id="arrowUp" xlink:href="#dirArrow" transform="translate(30 24)" onmousedown="handlePan(0,-1)">
                  <use xlink:href="#rim" fill="#404040">
                        <set attributeName="fill" to="#808080" begin="arrowUp.mouseover" end="arrowUp.mouseout"/>
                  </use>
                  <path fill="none" stroke="white" stroke-width="1.5" d="M0,-3.0v7 M-2.5,-0.5L0,-3.0L2.5,-0.5"/>
                </g>
                <g id="arrowRight" xlink:href="#dirArrow" transform="rotate(90) translate(36 -43)" onmousedown="handlePan(1,0)">
                  <use xlink:href="#rim" fill="#404040">
                        <set attributeName="fill" to="#808080" begin="arrowRight.mouseover" end="arrowRight.mouseout"/>
                  </use>
                  <path fill="none" stroke="white" stroke-width="1.5" d="M0,-3.0v7 M-2.5,-0.5L0,-3.0L2.5,-0.5"/>
                </g>
                <g id="arrowDown" xlink:href="#dirArrow" transform="rotate(180) translate(-30 -48)" onmousedown="handlePan(0,1)">
                  <use xlink:href="#rim" fill="#404040">
                        <set attributeName="fill" to="#808080" begin="arrowDown.mouseover" end="arrowDown.mouseout"/>
                  </use>
                  <path fill="none" stroke="white" stroke-width="1.5" d="M0,-3.0v7 M-2.5,-0.5L0,-3.0L2.5,-0.5"/>
                </g>
                <g id="arrowLeft" xlink:href="#dirArrow" transform="rotate(270) translate(-36 17)" onmousedown="handlePan(-1,0)">
                  <use xlink:href="#rim" fill="#404040">
                        <set attributeName="fill" to="#808080" begin="arrowLeft.mouseover" end="arrowLeft.mouseout"/>
                  </use>
                  <path fill="none" stroke="white" stroke-width="1.5" d="M0,-3.0v7 M-2.5,-0.5L0,-3.0L2.5,-0.5"/>
                </g>
        </g>
        <svg viewBox="0 0 15 15" width="100%" height="30px" preserveAspectRatio="xMaxYMin meet">
         <g id="arrow_out" transform="scale(0.3 0.3)">
          <a xlink:href="structo2_1_1header_1_1RAWDataHeaderV6__coll__graph_org.svg" target="_base">
           <rect id="button" ry="5" rx="5" y="6" x="6" height="38" width="38"
                fill="#f2f5e9" fill-opacity="0.5" stroke="#606060" stroke-width="1.0"/>
           <path id="arrow"
             d="M 11.500037,31.436501 C 11.940474,20.09759 22.043105,11.32322 32.158766,21.979434 L 37.068811,17.246167 C 37.068811,17.246167 37.088388,32 37.088388,32 L 22.160133,31.978069 C 22.160133,31.978069 26.997745,27.140456 26.997745,27.140456 C 18.528582,18.264221 13.291696,25.230495 11.500037,31.436501 z"
             style="fill:#404040;"/>
          </a>
         </g>
        </svg>
</svg>
