<?xml version="1.0" encoding="UTF-8" standalone="no"?>
<!DOCTYPE svg PUBLIC "-//W3C//DTD SVG 1.1//EN"
 "http://www.w3.org/Graphics/SVG/1.1/DTD/svg11.dtd">
<!-- Generated by graphviz version 2.40.1 (20161225.0304)
 -->
<!-- Title: /home/travis/build/AliceO2Group/AliceO2/Detectors/Base/include/DetectorsBase/BaseDPLDigitizer.h Pages: 1 -->
<svg width="3591pt" height="698pt"
 viewBox="0.00 0.00 3590.88 698.00" xmlns="http://www.w3.org/2000/svg" xmlns:xlink="http://www.w3.org/1999/xlink">
<g id="graph0" class="graph" transform="scale(1 1) rotate(0) translate(4 694)">
<title>/home/travis/build/AliceO2Group/AliceO2/Detectors/Base/include/DetectorsBase/BaseDPLDigitizer.h</title>
<!-- Node0 -->
<g id="node1" class="node">
<title>Node0</title>
<polygon fill="#bfbfbf" stroke="#000000" points="2831.4639,-637.5 2831.4639,-689.5 3017.4639,-689.5 3017.4639,-637.5 2831.4639,-637.5"/>
<text text-anchor="start" x="2839.4639" y="-677.5" font-family="Helvetica,sans-Serif" font-size="10.00" fill="#000000">/home/travis/build</text>
<text text-anchor="start" x="2839.4639" y="-666.5" font-family="Helvetica,sans-Serif" font-size="10.00" fill="#000000">/AliceO2Group/AliceO2</text>
<text text-anchor="start" x="2839.4639" y="-655.5" font-family="Helvetica,sans-Serif" font-size="10.00" fill="#000000">/Detectors/Base/include</text>
<text text-anchor="middle" x="2924.4639" y="-644.5" font-family="Helvetica,sans-Serif" font-size="10.00" fill="#000000">/DetectorsBase/BaseDPLDigitizer.h</text>
</g>
<!-- Node1 -->
<g id="node2" class="node">
<title>Node1</title>
<g id="a_node2"><a xlink:href="../../d4/d2b/InitContext_8h.html" target="_top" xlink:title="Framework/InitContext.h">
<polygon fill="none" stroke="#000000" points="2432.9639,-581.5 2432.9639,-600.5 2569.9639,-600.5 2569.9639,-581.5 2432.9639,-581.5"/>
<text text-anchor="middle" x="2501.4639" y="-588.5" font-family="Helvetica,sans-Serif" font-size="10.00" fill="#000000">Framework/InitContext.h</text>
</a>
</g>
</g>
<!-- Node0&#45;&gt;Node1 -->
<g id="edge1" class="edge">
<title>Node0&#45;&gt;Node1</title>
<path fill="none" stroke="#191970" d="M2831.373,-647.5447C2751.3861,-633.8354 2638.0618,-614.4122 2567.2141,-602.2692"/>
<polygon fill="#191970" stroke="#191970" points="2567.5259,-598.7717 2557.0784,-600.532 2566.3434,-605.6711 2567.5259,-598.7717"/>
</g>
<!-- Node2 -->
<g id="node3" class="node">
<title>Node2</title>
<g id="a_node3"><a xlink:href="../../d2/df9/Propagator_8h.html" target="_top" xlink:title="DetectorsBase/Propagator.h">
<polygon fill="none" stroke="#000000" points="2588.4639,-581.5 2588.4639,-600.5 2740.4639,-600.5 2740.4639,-581.5 2588.4639,-581.5"/>
<text text-anchor="middle" x="2664.4639" y="-588.5" font-family="Helvetica,sans-Serif" font-size="10.00" fill="#000000">DetectorsBase/Propagator.h</text>
</a>
</g>
</g>
<!-- Node0&#45;&gt;Node2 -->
<g id="edge2" class="edge">
<title>Node0&#45;&gt;Node2</title>
<path fill="none" stroke="#191970" d="M2831.3323,-637.5306C2789.4721,-625.8581 2742.0521,-612.6352 2708.4903,-603.2766"/>
<polygon fill="#191970" stroke="#191970" points="2709.1136,-599.8169 2698.5409,-600.5023 2707.2333,-606.5597 2709.1136,-599.8169"/>
</g>
<!-- Node26 -->
<g id="node27" class="node">
<title>Node26</title>
<polygon fill="none" stroke="#bfbfbf" points="3106.4639,-118 3106.4639,-137 3156.4639,-137 3156.4639,-118 3106.4639,-118"/>
<text text-anchor="middle" x="3131.4639" y="-125" font-family="Helvetica,sans-Serif" font-size="10.00" fill="#000000">cstdint</text>
</g>
<!-- Node0&#45;&gt;Node26 -->
<g id="edge122" class="edge">
<title>Node0&#45;&gt;Node26</title>
<path fill="none" stroke="#191970" d="M3007.2831,-637.4808C3054.9427,-616.7873 3105.4639,-582.38 3105.4639,-529.5 3105.4639,-529.5 3105.4639,-529.5 3105.4639,-261.5 3105.4639,-220.0289 3117.6137,-172.6383 3125.3022,-146.8008"/>
<polygon fill="#191970" stroke="#191970" points="3128.683,-147.7142 3128.2758,-137.1272 3121.992,-145.6574 3128.683,-147.7142"/>
</g>
<!-- Node61 -->
<g id="node62" class="node">
<title>Node61</title>
<g id="a_node62"><a xlink:href="../../de/d28/GRPObject_8h.html" target="_top" xlink:title="Header of the General Run Parameters object. ">
<polygon fill="none" stroke="#000000" points="3166.9639,-313.5 3166.9639,-343.5 3301.9639,-343.5 3301.9639,-313.5 3166.9639,-313.5"/>
<text text-anchor="start" x="3174.9639" y="-331.5" font-family="Helvetica,sans-Serif" font-size="10.00" fill="#000000">DataFormatsParameters</text>
<text text-anchor="middle" x="3234.4639" y="-320.5" font-family="Helvetica,sans-Serif" font-size="10.00" fill="#000000">/GRPObject.h</text>
</a>
</g>
</g>
<!-- Node0&#45;&gt;Node61 -->
<g id="edge115" class="edge">
<title>Node0&#45;&gt;Node61</title>
<path fill="none" stroke="#191970" d="M3017.5404,-654.2017C3093.5476,-640.8574 3188.4639,-608.3981 3188.4639,-529.5 3188.4639,-529.5 3188.4639,-529.5 3188.4639,-462.5 3188.4639,-422.3693 3207.1485,-378.9623 3220.7013,-352.7558"/>
<polygon fill="#191970" stroke="#191970" points="3223.9694,-354.0662 3225.5946,-343.5967 3217.7953,-350.7676 3223.9694,-354.0662"/>
</g>
<!-- Node3 -->
<g id="node4" class="node">
<title>Node3</title>
<polygon fill="none" stroke="#bfbfbf" points="2624.4639,-118 2624.4639,-137 2668.4639,-137 2668.4639,-118 2624.4639,-118"/>
<text text-anchor="middle" x="2646.4639" y="-125" font-family="Helvetica,sans-Serif" font-size="10.00" fill="#000000">string</text>
</g>
<!-- Node2&#45;&gt;Node3 -->
<g id="edge3" class="edge">
<title>Node2&#45;&gt;Node3</title>
<path fill="none" stroke="#191970" d="M2706.7496,-581.4283C2741.9221,-572.658 2788.2831,-558.9521 2801.4639,-545 2874.2356,-467.9694 2877.6302,-416.8336 2856.4639,-313 2843.5367,-249.5845 2847.9728,-221.843 2799.4639,-179 2755.811,-140.4458 2727.1137,-165.665 2673.4639,-143 2672.4681,-142.5793 2671.4631,-142.1298 2670.4564,-141.6584"/>
<polygon fill="#191970" stroke="#191970" points="2672.0393,-138.5366 2661.5537,-137.019 2668.8043,-144.7442 2672.0393,-138.5366"/>
</g>
<!-- Node4 -->
<g id="node5" class="node">
<title>Node4</title>
<g id="a_node5"><a xlink:href="../../d3/d9d/PhysicsConstants_8h.html" target="_top" xlink:title="Header to collect physics constants. ">
<polygon fill="none" stroke="#000000" points="2574.9639,-319 2574.9639,-338 2781.9639,-338 2781.9639,-319 2574.9639,-319"/>
<text text-anchor="middle" x="2678.4639" y="-326" font-family="Helvetica,sans-Serif" font-size="10.00" fill="#000000">CommonConstants/PhysicsConstants.h</text>
</a>
</g>
</g>
<!-- Node2&#45;&gt;Node4 -->
<g id="edge4" class="edge">
<title>Node2&#45;&gt;Node4</title>
<path fill="none" stroke="#191970" d="M2654.8147,-581.4346C2646.8139,-572.7723 2636.0377,-559.2221 2631.4639,-545 2609.0125,-475.188 2604.9541,-448.3741 2631.4639,-380 2636.7811,-366.2857 2647.6402,-353.9874 2657.5819,-344.8508"/>
<polygon fill="#191970" stroke="#191970" points="2659.959,-347.4224 2665.2349,-338.2346 2655.3809,-342.1269 2659.959,-347.4224"/>
</g>
<!-- Node5 -->
<g id="node6" class="node">
<title>Node5</title>
<g id="a_node6"><a xlink:href="../../d7/d8b/DataFormats_2Reconstruction_2include_2ReconstructionDataFormats_2Track_8h.html" target="_top" xlink:title="ReconstructionDataFormats\l/Track.h">
<polygon fill="none" stroke="#000000" points="1885.4639,-447.5 1885.4639,-477.5 2037.4639,-477.5 2037.4639,-447.5 1885.4639,-447.5"/>
<text text-anchor="start" x="1893.4639" y="-465.5" font-family="Helvetica,sans-Serif" font-size="10.00" fill="#000000">ReconstructionDataFormats</text>
<text text-anchor="middle" x="1961.4639" y="-454.5" font-family="Helvetica,sans-Serif" font-size="10.00" fill="#000000">/Track.h</text>
</a>
</g>
</g>
<!-- Node2&#45;&gt;Node5 -->
<g id="edge5" class="edge">
<title>Node2&#45;&gt;Node5</title>
<path fill="none" stroke="#191970" d="M2612.4851,-581.4989C2492.4715,-559.5618 2195.0755,-505.2014 2047.4396,-478.2153"/>
<polygon fill="#191970" stroke="#191970" points="2047.9704,-474.7544 2037.504,-476.3992 2046.7117,-481.6404 2047.9704,-474.7544"/>
</g>
<!-- Node53 -->
<g id="node54" class="node">
<title>Node53</title>
<g id="a_node54"><a xlink:href="../../d7/d99/DCA_8h.html" target="_top" xlink:title="ReconstructionDataFormats\l/DCA.h">
<polygon fill="none" stroke="#000000" points="2290.4639,-246.5 2290.4639,-276.5 2442.4639,-276.5 2442.4639,-246.5 2290.4639,-246.5"/>
<text text-anchor="start" x="2298.4639" y="-264.5" font-family="Helvetica,sans-Serif" font-size="10.00" fill="#000000">ReconstructionDataFormats</text>
<text text-anchor="middle" x="2366.4639" y="-253.5" font-family="Helvetica,sans-Serif" font-size="10.00" fill="#000000">/DCA.h</text>
</a>
</g>
</g>
<!-- Node2&#45;&gt;Node53 -->
<g id="edge79" class="edge">
<title>Node2&#45;&gt;Node53</title>
<path fill="none" stroke="#191970" d="M2645.2425,-581.3999C2611.8058,-563.1819 2546.4639,-520.199 2546.4639,-462.5 2546.4639,-462.5 2546.4639,-462.5 2546.4639,-395.5 2546.4639,-335.7184 2481.791,-299.4589 2429.9766,-280.0019"/>
<polygon fill="#191970" stroke="#191970" points="2431.0641,-276.6734 2420.4698,-276.5625 2428.6826,-283.2559 2431.0641,-276.6734"/>
</g>
<!-- Node54 -->
<g id="node55" class="node">
<title>Node54</title>
<g id="a_node55"><a xlink:href="../../d6/db1/TrackLTIntegral_8h.html" target="_top" xlink:title="Track Length and TOF integral. ">
<polygon fill="none" stroke="#000000" points="2640.4639,-514.5 2640.4639,-544.5 2792.4639,-544.5 2792.4639,-514.5 2640.4639,-514.5"/>
<text text-anchor="start" x="2648.4639" y="-532.5" font-family="Helvetica,sans-Serif" font-size="10.00" fill="#000000">ReconstructionDataFormats</text>
<text text-anchor="middle" x="2716.4639" y="-521.5" font-family="Helvetica,sans-Serif" font-size="10.00" fill="#000000">/TrackLTIntegral.h</text>
</a>
</g>
</g>
<!-- Node2&#45;&gt;Node54 -->
<g id="edge83" class="edge">
<title>Node2&#45;&gt;Node54</title>
<path fill="none" stroke="#191970" d="M2672.5889,-581.3906C2679.1703,-573.6068 2688.7135,-562.3202 2697.2199,-552.2597"/>
<polygon fill="#191970" stroke="#191970" points="2699.9593,-554.4407 2703.7433,-544.5446 2694.6139,-549.921 2699.9593,-554.4407"/>
</g>
<!-- Node55 -->
<g id="node56" class="node">
<title>Node55</title>
<g id="a_node56"><a xlink:href="../../d9/da9/MatLayerCylSet_8h.html" target="_top" xlink:title="Declarations for the wrapper for the set of cylindrical material layers. ">
<polygon fill="none" stroke="#000000" points="290.4639,-380.5 290.4639,-410.5 442.4639,-410.5 442.4639,-380.5 290.4639,-380.5"/>
<text text-anchor="start" x="298.4639" y="-398.5" font-family="Helvetica,sans-Serif" font-size="10.00" fill="#000000">DetectorsBase/MatLayerCyl</text>
<text text-anchor="middle" x="366.4639" y="-387.5" font-family="Helvetica,sans-Serif" font-size="10.00" fill="#000000">Set.h</text>
</a>
</g>
</g>
<!-- Node2&#45;&gt;Node55 -->
<g id="edge87" class="edge">
<title>Node2&#45;&gt;Node55</title>
<path fill="none" stroke="#191970" d="M2588.0226,-581.8725C2585.1339,-581.5702 2582.2733,-581.2782 2579.4639,-581 1642.3458,-488.1917 1402.8052,-520.2717 467.4639,-411 462.6514,-410.4378 457.7161,-409.8191 452.7391,-409.1624"/>
<polygon fill="#191970" stroke="#191970" points="452.871,-405.6481 442.4902,-407.7669 451.9266,-412.5841 452.871,-405.6481"/>
</g>
<!-- Node5&#45;&gt;Node3 -->
<g id="edge71" class="edge">
<title>Node5&#45;&gt;Node3</title>
<path fill="none" stroke="#191970" d="M2037.5424,-460.4779C2239.2267,-454.7684 2774.0988,-437.2164 2801.4639,-411 2967.8425,-251.605 2668.7629,-323.2664 2606.4639,-277 2569.4518,-249.5129 2551.1176,-219.8628 2572.4639,-179 2581.4907,-161.7201 2599.2512,-149.0638 2615.1099,-140.6224"/>
<polygon fill="#191970" stroke="#191970" points="2616.7462,-143.7177 2624.1471,-136.1363 2613.6337,-137.4477 2616.7462,-143.7177"/>
</g>
<!-- Node6 -->
<g id="node7" class="node">
<title>Node6</title>
<g id="a_node7"><a xlink:href="../../d2/d45/GPUCommonRtypes_8h.html" target="_top" xlink:title="GPUCommonRtypes.h">
<polygon fill="none" stroke="#000000" points="2027.9639,-118 2027.9639,-137 2152.9639,-137 2152.9639,-118 2027.9639,-118"/>
<text text-anchor="middle" x="2090.4639" y="-125" font-family="Helvetica,sans-Serif" font-size="10.00" fill="#000000">GPUCommonRtypes.h</text>
</a>
</g>
</g>
<!-- Node5&#45;&gt;Node6 -->
<g id="edge6" class="edge">
<title>Node5&#45;&gt;Node6</title>
<path fill="none" stroke="#191970" d="M2037.6469,-456.4815C2163.8841,-444.6251 2406.9889,-413.1477 2451.4639,-344 2514.5545,-245.9097 2394.9715,-340.913 2281.4639,-277 2229.4078,-247.6887 2237.0833,-215.0746 2189.4639,-179 2169.1588,-163.6177 2143.5957,-150.4509 2123.5322,-141.2816"/>
<polygon fill="#191970" stroke="#191970" points="2124.7304,-137.9838 2114.1717,-137.1093 2121.8805,-144.3774 2124.7304,-137.9838"/>
</g>
<!-- Node8 -->
<g id="node9" class="node">
<title>Node8</title>
<polygon fill="none" stroke="#bfbfbf" points="1896.4639,-56.5 1896.4639,-75.5 1960.4639,-75.5 1960.4639,-56.5 1896.4639,-56.5"/>
<text text-anchor="middle" x="1928.4639" y="-63.5" font-family="Helvetica,sans-Serif" font-size="10.00" fill="#000000">algorithm</text>
</g>
<!-- Node5&#45;&gt;Node8 -->
<g id="edge8" class="edge">
<title>Node5&#45;&gt;Node8</title>
<path fill="none" stroke="#191970" d="M1885.311,-455.8537C1825.0814,-448.8328 1747.9843,-435.3062 1728.4639,-411 1719.8366,-400.2577 1723.0101,-392.6524 1728.4639,-380 1772.0217,-278.9487 1858.0424,-307.8076 1908.4639,-210 1929.2922,-169.5971 1930.7135,-114.7748 1929.7251,-85.8163"/>
<polygon fill="#191970" stroke="#191970" points="1933.2173,-85.5671 1929.2439,-75.7456 1926.2253,-85.9013 1933.2173,-85.5671"/>
</g>
<!-- Node9 -->
<g id="node10" class="node">
<title>Node9</title>
<polygon fill="none" stroke="#bfbfbf" points="2203.4639,-118 2203.4639,-137 2245.4639,-137 2245.4639,-118 2203.4639,-118"/>
<text text-anchor="middle" x="2224.4639" y="-125" font-family="Helvetica,sans-Serif" font-size="10.00" fill="#000000">array</text>
</g>
<!-- Node5&#45;&gt;Node9 -->
<g id="edge9" class="edge">
<title>Node5&#45;&gt;Node9</title>
<path fill="none" stroke="#191970" d="M1963.3298,-447.4009C1965.5952,-430.7074 1969.941,-403.1176 1976.4639,-380 1993.9922,-317.8785 1995.8479,-299.1563 2032.4639,-246 2056.3531,-211.3195 2064.4268,-202.3631 2099.4639,-179 2128.9432,-159.3428 2167.1221,-144.9606 2193.4894,-136.4676"/>
<polygon fill="#191970" stroke="#191970" points="2194.8155,-139.7203 2203.3173,-133.3982 2192.7286,-133.0386 2194.8155,-139.7203"/>
</g>
<!-- Node10 -->
<g id="node11" class="node">
<title>Node10</title>
<polygon fill="none" stroke="#bfbfbf" points="1737.4639,-386 1737.4639,-405 1781.4639,-405 1781.4639,-386 1737.4639,-386"/>
<text text-anchor="middle" x="1759.4639" y="-393" font-family="Helvetica,sans-Serif" font-size="10.00" fill="#000000">cfloat</text>
</g>
<!-- Node5&#45;&gt;Node10 -->
<g id="edge10" class="edge">
<title>Node5&#45;&gt;Node10</title>
<path fill="none" stroke="#191970" d="M1902.4436,-447.412C1869.0958,-438.2229 1826.9147,-425.4782 1790.4639,-411 1789.1008,-410.4586 1787.7162,-409.8797 1786.3266,-409.2755"/>
<polygon fill="#191970" stroke="#191970" points="1787.7999,-406.1007 1777.2575,-405.0472 1784.8419,-412.4451 1787.7999,-406.1007"/>
</g>
<!-- Node11 -->
<g id="node12" class="node">
<title>Node11</title>
<polygon fill="none" stroke="#bfbfbf" points="308.9639,-56.5 308.9639,-75.5 355.9639,-75.5 355.9639,-56.5 308.9639,-56.5"/>
<text text-anchor="middle" x="332.4639" y="-63.5" font-family="Helvetica,sans-Serif" font-size="10.00" fill="#000000">cmath</text>
</g>
<!-- Node5&#45;&gt;Node11 -->
<g id="edge11" class="edge">
<title>Node5&#45;&gt;Node11</title>
<path fill="none" stroke="#191970" d="M1885.3486,-461.0881C1607.4912,-455.7434 660.9653,-435.7931 601.4639,-411 480.7166,-360.6869 456.2478,-320.6414 386.4639,-210 362.0933,-171.3608 372.6208,-154.3386 355.4639,-112 351.7448,-102.8224 346.9314,-92.9632 342.6698,-84.7355"/>
<polygon fill="#191970" stroke="#191970" points="345.6352,-82.8568 337.856,-75.6641 339.4519,-86.1381 345.6352,-82.8568"/>
</g>
<!-- Node12 -->
<g id="node13" class="node">
<title>Node12</title>
<polygon fill="none" stroke="#bfbfbf" points="87.4639,-118 87.4639,-137 137.4639,-137 137.4639,-118 87.4639,-118"/>
<text text-anchor="middle" x="112.4639" y="-125" font-family="Helvetica,sans-Serif" font-size="10.00" fill="#000000">cstring</text>
</g>
<!-- Node5&#45;&gt;Node12 -->
<g id="edge12" class="edge">
<title>Node5&#45;&gt;Node12</title>
<path fill="none" stroke="#191970" d="M1885.2762,-461.4033C1578.2338,-456.8144 440.4798,-438.1246 281.4639,-411 161.9567,-390.6147 21.4639,-449.7334 21.4639,-328.5 21.4639,-328.5 21.4639,-328.5 21.4639,-261.5 21.4639,-211.5496 65.2735,-166.4043 92.0984,-143.4434"/>
<polygon fill="#191970" stroke="#191970" points="94.3464,-146.126 99.8107,-137.049 89.8786,-140.7373 94.3464,-146.126"/>
</g>
<!-- Node13 -->
<g id="node14" class="node">
<title>Node13</title>
<polygon fill="none" stroke="#bfbfbf" points="2108.9639,-185 2108.9639,-204 2157.9639,-204 2157.9639,-185 2108.9639,-185"/>
<text text-anchor="middle" x="2133.4639" y="-192" font-family="Helvetica,sans-Serif" font-size="10.00" fill="#000000">iosfwd</text>
</g>
<!-- Node5&#45;&gt;Node13 -->
<g id="edge13" class="edge">
<title>Node5&#45;&gt;Node13</title>
<path fill="none" stroke="#191970" d="M1966.7146,-447.2251C1981.9456,-403.4978 2026.8121,-278.8689 2054.4639,-246 2067.6799,-230.2905 2086.9023,-217.6149 2103.0764,-208.7699"/>
<polygon fill="#191970" stroke="#191970" points="2104.9387,-211.7459 2112.1789,-204.0108 2101.6953,-205.5425 2104.9387,-211.7459"/>
</g>
<!-- Node14 -->
<g id="node15" class="node">
<title>Node14</title>
<g id="a_node15"><a xlink:href="../../d4/de2/BaseCluster_8h.html" target="_top" xlink:title="ReconstructionDataFormats\l/BaseCluster.h">
<polygon fill="none" stroke="#000000" points="2143.4639,-380.5 2143.4639,-410.5 2295.4639,-410.5 2295.4639,-380.5 2143.4639,-380.5"/>
<text text-anchor="start" x="2151.4639" y="-398.5" font-family="Helvetica,sans-Serif" font-size="10.00" fill="#000000">ReconstructionDataFormats</text>
<text text-anchor="middle" x="2219.4639" y="-387.5" font-family="Helvetica,sans-Serif" font-size="10.00" fill="#000000">/BaseCluster.h</text>
</a>
</g>
</g>
<!-- Node5&#45;&gt;Node14 -->
<g id="edge14" class="edge">
<title>Node5&#45;&gt;Node14</title>
<path fill="none" stroke="#191970" d="M2019.3641,-447.4639C2058.4808,-437.3057 2110.2818,-423.8535 2151.3773,-413.1814"/>
<polygon fill="#191970" stroke="#191970" points="2152.5119,-416.5029 2161.3111,-410.6017 2150.7524,-409.7277 2152.5119,-416.5029"/>
</g>
<!-- Node29 -->
<g id="node30" class="node">
<title>Node29</title>
<g id="a_node30"><a xlink:href="../../d9/d52/Common_2MathUtils_2include_2MathUtils_2Utils_8h.html" target="_top" xlink:title="MathUtils/Utils.h">
<polygon fill="none" stroke="#000000" points="488.4639,-185 488.4639,-204 586.4639,-204 586.4639,-185 488.4639,-185"/>
<text text-anchor="middle" x="537.4639" y="-192" font-family="Helvetica,sans-Serif" font-size="10.00" fill="#000000">MathUtils/Utils.h</text>
</a>
</g>
</g>
<!-- Node5&#45;&gt;Node29 -->
<g id="edge73" class="edge">
<title>Node5&#45;&gt;Node29</title>
<path fill="none" stroke="#191970" d="M1885.1734,-461.7139C1611.2205,-458.6091 690.57,-445.6321 638.4639,-411 569.1922,-364.9589 546.4707,-258.1928 539.8772,-214.0961"/>
<polygon fill="#191970" stroke="#191970" points="543.3306,-213.5169 538.5019,-204.0864 536.3957,-214.4698 543.3306,-213.5169"/>
</g>
<!-- Node34 -->
<g id="node35" class="node">
<title>Node34</title>
<g id="a_node35"><a xlink:href="../../d6/d84/MathConstants_8h.html" target="_top" xlink:title="useful math constants ">
<polygon fill="none" stroke="#000000" points="693.4639,-118 693.4639,-137 887.4639,-137 887.4639,-118 693.4639,-118"/>
<text text-anchor="middle" x="790.4639" y="-125" font-family="Helvetica,sans-Serif" font-size="10.00" fill="#000000">CommonConstants/MathConstants.h</text>
</a>
</g>
</g>
<!-- Node5&#45;&gt;Node34 -->
<g id="edge72" class="edge">
<title>Node5&#45;&gt;Node34</title>
<path fill="none" stroke="#191970" d="M1885.4285,-458.7329C1606.0559,-444.397 652.4639,-390.8939 652.4639,-328.5 652.4639,-328.5 652.4639,-328.5 652.4639,-261.5 652.4639,-223.8735 647.387,-207.9146 671.4639,-179 687.2116,-160.0881 711.2108,-147.9367 733.5421,-140.2208"/>
<polygon fill="#191970" stroke="#191970" points="734.8655,-143.4718 743.3144,-137.0791 732.723,-136.8077 734.8655,-143.4718"/>
</g>
<!-- Node51 -->
<g id="node52" class="node">
<title>Node51</title>
<g id="a_node52"><a xlink:href="../../d8/d77/Primitive2D_8h.html" target="_top" xlink:title="Declarations of 2D primitives: straight line (XY interval) and circle. ">
<polygon fill="none" stroke="#000000" points="1799.9639,-386 1799.9639,-405 1932.9639,-405 1932.9639,-386 1799.9639,-386"/>
<text text-anchor="middle" x="1866.4639" y="-393" font-family="Helvetica,sans-Serif" font-size="10.00" fill="#000000">MathUtils/Primitive2D.h</text>
</a>
</g>
</g>
<!-- Node5&#45;&gt;Node51 -->
<g id="edge74" class="edge">
<title>Node5&#45;&gt;Node51</title>
<path fill="none" stroke="#191970" d="M1939.9069,-447.2967C1924.5307,-436.4524 1903.9225,-421.9182 1888.4501,-411.006"/>
<polygon fill="#191970" stroke="#191970" points="1890.2013,-407.9582 1880.012,-405.055 1886.1668,-413.6787 1890.2013,-407.9582"/>
</g>
<!-- Node52 -->
<g id="node53" class="node">
<title>Node52</title>
<g id="a_node53"><a xlink:href="../../d5/d08/DataFormats_2Reconstruction_2include_2ReconstructionDataFormats_2PID_8h.html" target="_top" xlink:title="ReconstructionDataFormats\l/PID.h">
<polygon fill="none" stroke="#000000" points="2640.4639,-380.5 2640.4639,-410.5 2792.4639,-410.5 2792.4639,-380.5 2640.4639,-380.5"/>
<text text-anchor="start" x="2648.4639" y="-398.5" font-family="Helvetica,sans-Serif" font-size="10.00" fill="#000000">ReconstructionDataFormats</text>
<text text-anchor="middle" x="2716.4639" y="-387.5" font-family="Helvetica,sans-Serif" font-size="10.00" fill="#000000">/PID.h</text>
</a>
</g>
</g>
<!-- Node5&#45;&gt;Node52 -->
<g id="edge76" class="edge">
<title>Node5&#45;&gt;Node52</title>
<path fill="none" stroke="#191970" d="M2037.6623,-455.738C2179.1236,-443.1845 2481.441,-416.3563 2630.1834,-403.1567"/>
<polygon fill="#191970" stroke="#191970" points="2630.5379,-406.6391 2640.1894,-402.2687 2629.9191,-399.6665 2630.5379,-406.6391"/>
</g>
<!-- Node7 -->
<g id="node8" class="node">
<title>Node7</title>
<polygon fill="none" stroke="#bfbfbf" points="2566.9639,-56.5 2566.9639,-75.5 2625.9639,-75.5 2625.9639,-56.5 2566.9639,-56.5"/>
<text text-anchor="middle" x="2596.4639" y="-63.5" font-family="Helvetica,sans-Serif" font-size="10.00" fill="#000000">Rtypes.h</text>
</g>
<!-- Node6&#45;&gt;Node7 -->
<g id="edge7" class="edge">
<title>Node6&#45;&gt;Node7</title>
<path fill="none" stroke="#191970" d="M2152.0073,-117.9738C2165.9549,-115.9135 2180.7089,-113.8115 2194.4639,-112 2327.0601,-94.5378 2484.7742,-77.6068 2556.9086,-70.075"/>
<polygon fill="#191970" stroke="#191970" points="2557.3335,-73.5498 2566.9173,-69.033 2556.6086,-66.5874 2557.3335,-73.5498"/>
</g>
<!-- Node14&#45;&gt;Node13 -->
<g id="edge19" class="edge">
<title>Node14&#45;&gt;Node13</title>
<path fill="none" stroke="#191970" d="M2143.2656,-380.4899C2106.234,-371.4897 2067.3835,-358.9017 2056.4639,-344 2023.8519,-299.4953 2081.3522,-239.2262 2113.6919,-210.7217"/>
<polygon fill="#191970" stroke="#191970" points="2115.9944,-213.3578 2121.3016,-204.1881 2111.4344,-208.0468 2115.9944,-213.3578"/>
</g>
<!-- Node15 -->
<g id="node16" class="node">
<title>Node15</title>
<polygon fill="none" stroke="#bfbfbf" points="2254.9639,-319 2254.9639,-338 2317.9639,-338 2317.9639,-319 2254.9639,-319"/>
<text text-anchor="middle" x="2286.4639" y="-326" font-family="Helvetica,sans-Serif" font-size="10.00" fill="#000000">TObject.h</text>
</g>
<!-- Node14&#45;&gt;Node15 -->
<g id="edge15" class="edge">
<title>Node14&#45;&gt;Node15</title>
<path fill="none" stroke="#191970" d="M2234.6672,-380.2967C2245.1061,-369.8578 2258.9642,-355.9997 2269.7193,-345.2446"/>
<polygon fill="#191970" stroke="#191970" points="2272.3127,-347.601 2276.9089,-338.055 2267.3629,-342.6512 2272.3127,-347.601"/>
</g>
<!-- Node16 -->
<g id="node17" class="node">
<title>Node16</title>
<polygon fill="none" stroke="#bfbfbf" points="2404.4639,-185 2404.4639,-204 2448.4639,-204 2448.4639,-185 2404.4639,-185"/>
<text text-anchor="middle" x="2426.4639" y="-192" font-family="Helvetica,sans-Serif" font-size="10.00" fill="#000000">bitset</text>
</g>
<!-- Node14&#45;&gt;Node16 -->
<g id="edge16" class="edge">
<title>Node14&#45;&gt;Node16</title>
<path fill="none" stroke="#191970" d="M2295.5926,-388.7723C2355.5218,-381.7131 2432.0666,-368.1754 2451.4639,-344 2482.2246,-305.6621 2454.7885,-243.6814 2437.704,-212.9684"/>
<polygon fill="#191970" stroke="#191970" points="2440.6469,-211.0659 2432.6078,-204.165 2434.5888,-214.573 2440.6469,-211.0659"/>
</g>
<!-- Node17 -->
<g id="node18" class="node">
<title>Node17</title>
<polygon fill="none" stroke="#bfbfbf" points="2336.4639,-319 2336.4639,-338 2392.4639,-338 2392.4639,-319 2336.4639,-319"/>
<text text-anchor="middle" x="2364.4639" y="-326" font-family="Helvetica,sans-Serif" font-size="10.00" fill="#000000">iomanip</text>
</g>
<!-- Node14&#45;&gt;Node17 -->
<g id="edge17" class="edge">
<title>Node14&#45;&gt;Node17</title>
<path fill="none" stroke="#191970" d="M2252.0047,-380.4639C2276.6626,-369.0702 2310.2887,-353.5327 2334.3345,-342.4219"/>
<polygon fill="#191970" stroke="#191970" points="2336.0696,-345.4757 2343.6793,-338.1039 2333.1334,-339.1213 2336.0696,-345.4757"/>
</g>
<!-- Node18 -->
<g id="node19" class="node">
<title>Node18</title>
<polygon fill="none" stroke="#bfbfbf" points="2410.9639,-319 2410.9639,-338 2441.9639,-338 2441.9639,-319 2410.9639,-319"/>
<text text-anchor="middle" x="2426.4639" y="-326" font-family="Helvetica,sans-Serif" font-size="10.00" fill="#000000">ios</text>
</g>
<!-- Node14&#45;&gt;Node18 -->
<g id="edge18" class="edge">
<title>Node14&#45;&gt;Node18</title>
<path fill="none" stroke="#191970" d="M2289.7624,-380.4786C2324.2208,-371.9029 2365.86,-359.7027 2401.4639,-344 2402.1648,-343.6909 2402.8693,-343.3648 2403.5748,-343.0247"/>
<polygon fill="#191970" stroke="#191970" points="2405.4967,-345.9618 2412.5626,-338.0673 2402.1158,-339.8324 2405.4967,-345.9618"/>
</g>
<!-- Node19 -->
<g id="node20" class="node">
<title>Node19</title>
<g id="a_node20"><a xlink:href="../../d4/d20/DetMatrixCache_8h.html" target="_top" xlink:title="DetectorsCommonDataFormats\l/DetMatrixCache.h">
<polygon fill="none" stroke="#000000" points="2065.9639,-313.5 2065.9639,-343.5 2236.9639,-343.5 2236.9639,-313.5 2065.9639,-313.5"/>
<text text-anchor="start" x="2073.9639" y="-331.5" font-family="Helvetica,sans-Serif" font-size="10.00" fill="#000000">DetectorsCommonDataFormats</text>
<text text-anchor="middle" x="2151.4639" y="-320.5" font-family="Helvetica,sans-Serif" font-size="10.00" fill="#000000">/DetMatrixCache.h</text>
</a>
</g>
</g>
<!-- Node14&#45;&gt;Node19 -->
<g id="edge20" class="edge">
<title>Node14&#45;&gt;Node19</title>
<path fill="none" stroke="#191970" d="M2204.0336,-380.2967C2195.1655,-371.559 2183.8661,-360.4257 2174.0174,-350.7218"/>
<polygon fill="#191970" stroke="#191970" points="2176.4128,-348.1685 2166.8331,-343.6432 2171.4999,-353.1548 2176.4128,-348.1685"/>
</g>
<!-- Node41 -->
<g id="node42" class="node">
<title>Node41</title>
<g id="a_node42"><a xlink:href="../../dd/d76/Cartesian3D_8h.html" target="_top" xlink:title="MathUtils/Cartesian3D.h">
<polygon fill="none" stroke="#000000" points="1374.9639,-252 1374.9639,-271 1509.9639,-271 1509.9639,-252 1374.9639,-252"/>
<text text-anchor="middle" x="1442.4639" y="-259" font-family="Helvetica,sans-Serif" font-size="10.00" fill="#000000">MathUtils/Cartesian3D.h</text>
</a>
</g>
</g>
<!-- Node14&#45;&gt;Node41 -->
<g id="edge70" class="edge">
<title>Node14&#45;&gt;Node41</title>
<path fill="none" stroke="#191970" d="M2143.1917,-382.3462C1990.6573,-356.0404 1650.4216,-297.364 1507.5805,-272.7299"/>
<polygon fill="#191970" stroke="#191970" points="1508.0917,-269.2665 1497.6424,-271.016 1506.902,-276.1646 1508.0917,-269.2665"/>
</g>
<!-- Node19&#45;&gt;Node6 -->
<g id="edge24" class="edge">
<title>Node19&#45;&gt;Node6</title>
<path fill="none" stroke="#191970" d="M2164.0303,-313.3612C2171.2622,-303.6361 2179.6508,-290.3614 2183.4639,-277 2195.595,-234.4911 2191.8556,-215.1861 2166.4639,-179 2155.214,-162.9676 2137.2531,-150.4605 2121.6159,-141.7884"/>
<polygon fill="#191970" stroke="#191970" points="2123.2262,-138.6808 2112.7458,-137.1279 2119.9703,-144.8776 2123.2262,-138.6808"/>
</g>
<!-- Node19&#45;&gt;Node9 -->
<g id="edge25" class="edge">
<title>Node19&#45;&gt;Node9</title>
<path fill="none" stroke="#191970" d="M2137.6039,-313.2676C2124.0801,-296.4575 2107.0808,-268.7661 2118.4639,-246 2130.3896,-222.1486 2147.8998,-229.1438 2166.4639,-210 2185.695,-190.1684 2203.2528,-163.4435 2213.8947,-145.8559"/>
<polygon fill="#191970" stroke="#191970" points="2216.9798,-147.515 2219.0621,-137.1268 2210.9561,-143.9492 2216.9798,-147.515"/>
</g>
<!-- Node20 -->
<g id="node21" class="node">
<title>Node20</title>
<g id="a_node21"><a xlink:href="../../df/d5b/GPUCommonLogger_8h.html" target="_top" xlink:title="GPUCommonLogger.h">
<polygon fill="none" stroke="#000000" points="551.9639,-118 551.9639,-137 674.9639,-137 674.9639,-118 551.9639,-118"/>
<text text-anchor="middle" x="613.4639" y="-125" font-family="Helvetica,sans-Serif" font-size="10.00" fill="#000000">GPUCommonLogger.h</text>
</a>
</g>
</g>
<!-- Node19&#45;&gt;Node20 -->
<g id="edge21" class="edge">
<title>Node19&#45;&gt;Node20</title>
<path fill="none" stroke="#191970" d="M2065.7593,-325.9363C1768.3158,-316.4535 792.1102,-280.2263 671.4639,-210 646.8374,-195.6653 630.0813,-166.2131 621.1418,-146.6587"/>
<polygon fill="#191970" stroke="#191970" points="624.2476,-145.0213 617.079,-137.2198 617.8179,-147.7889 624.2476,-145.0213"/>
</g>
<!-- Node23 -->
<g id="node24" class="node">
<title>Node23</title>
<polygon fill="none" stroke="#bfbfbf" points="2127.9639,-252 2127.9639,-271 2174.9639,-271 2174.9639,-252 2127.9639,-252"/>
<text text-anchor="middle" x="2151.4639" y="-259" font-family="Helvetica,sans-Serif" font-size="10.00" fill="#000000">vector</text>
</g>
<!-- Node19&#45;&gt;Node23 -->
<g id="edge26" class="edge">
<title>Node19&#45;&gt;Node23</title>
<path fill="none" stroke="#191970" d="M2151.4639,-313.2967C2151.4639,-303.7699 2151.4639,-291.3954 2151.4639,-281.1306"/>
<polygon fill="#191970" stroke="#191970" points="2154.964,-281.0549 2151.4639,-271.055 2147.964,-281.055 2154.964,-281.0549"/>
</g>
<!-- Node24 -->
<g id="node25" class="node">
<title>Node24</title>
<g id="a_node25"><a xlink:href="../../d6/d31/DetID_8h.html" target="_top" xlink:title="DetectorsCommonDataFormats\l/DetID.h">
<polygon fill="none" stroke="#000000" points="2614.9639,-246.5 2614.9639,-276.5 2785.9639,-276.5 2785.9639,-246.5 2614.9639,-246.5"/>
<text text-anchor="start" x="2622.9639" y="-264.5" font-family="Helvetica,sans-Serif" font-size="10.00" fill="#000000">DetectorsCommonDataFormats</text>
<text text-anchor="middle" x="2700.4639" y="-253.5" font-family="Helvetica,sans-Serif" font-size="10.00" fill="#000000">/DetID.h</text>
</a>
</g>
</g>
<!-- Node19&#45;&gt;Node24 -->
<g id="edge27" class="edge">
<title>Node19&#45;&gt;Node24</title>
<path fill="none" stroke="#191970" d="M2236.9931,-314.2078C2239.8492,-313.7909 2242.6789,-313.387 2245.4639,-313 2369.1741,-295.8106 2512.4118,-280.3228 2604.6139,-270.9222"/>
<polygon fill="#191970" stroke="#191970" points="2605.1693,-274.3839 2614.7643,-269.8909 2604.4617,-267.4198 2605.1693,-274.3839"/>
</g>
<!-- Node19&#45;&gt;Node41 -->
<g id="edge58" class="edge">
<title>Node19&#45;&gt;Node41</title>
<path fill="none" stroke="#191970" d="M2065.9419,-320.4182C1926.937,-307.2824 1654.0794,-281.4975 1520.2389,-268.8497"/>
<polygon fill="#191970" stroke="#191970" points="1520.3513,-265.3448 1510.0663,-267.8884 1519.6927,-272.3138 1520.3513,-265.3448"/>
</g>
<!-- Node21 -->
<g id="node22" class="node">
<title>Node21</title>
<polygon fill="none" stroke="#bfbfbf" points="618.4639,-56.5 618.4639,-75.5 678.4639,-75.5 678.4639,-56.5 618.4639,-56.5"/>
<text text-anchor="middle" x="648.4639" y="-63.5" font-family="Helvetica,sans-Serif" font-size="10.00" fill="#000000">iostream</text>
</g>
<!-- Node20&#45;&gt;Node21 -->
<g id="edge22" class="edge">
<title>Node20&#45;&gt;Node21</title>
<path fill="none" stroke="#191970" d="M618.9326,-117.8906C623.9885,-109.0068 631.6411,-95.5601 637.8893,-84.5811"/>
<polygon fill="#191970" stroke="#191970" points="641.0137,-86.1672 642.918,-75.7449 634.9299,-82.7048 641.0137,-86.1672"/>
</g>
<!-- Node22 -->
<g id="node23" class="node">
<title>Node22</title>
<polygon fill="none" stroke="#bfbfbf" points="554.4639,-56.5 554.4639,-75.5 600.4639,-75.5 600.4639,-56.5 554.4639,-56.5"/>
<text text-anchor="middle" x="577.4639" y="-63.5" font-family="Helvetica,sans-Serif" font-size="10.00" fill="#000000">cstdio</text>
</g>
<!-- Node20&#45;&gt;Node22 -->
<g id="edge23" class="edge">
<title>Node20&#45;&gt;Node22</title>
<path fill="none" stroke="#191970" d="M607.8389,-117.8906C602.6386,-109.0068 594.7673,-95.5601 588.3406,-84.5811"/>
<polygon fill="#191970" stroke="#191970" points="591.2406,-82.6069 583.1682,-75.7449 585.1995,-86.1432 591.2406,-82.6069"/>
</g>
<!-- Node24&#45;&gt;Node3 -->
<g id="edge34" class="edge">
<title>Node24&#45;&gt;Node3</title>
<path fill="none" stroke="#191970" d="M2741.3746,-246.4816C2757.4922,-238.3159 2774.312,-226.4491 2783.4639,-210 2790.1625,-197.9603 2791.4041,-190.2597 2783.4639,-179 2756,-140.0546 2726.8164,-160.4318 2682.4639,-143 2680.8529,-142.3668 2679.2066,-141.7065 2677.548,-141.0305"/>
<polygon fill="#191970" stroke="#191970" points="2678.6489,-137.6973 2668.0726,-137.0704 2675.9496,-144.156 2678.6489,-137.6973"/>
</g>
<!-- Node24&#45;&gt;Node7 -->
<g id="edge28" class="edge">
<title>Node24&#45;&gt;Node7</title>
<path fill="none" stroke="#191970" d="M2720.9385,-246.2541C2741.3498,-229.1903 2767.4017,-201.0465 2750.4639,-179 2712.6323,-129.758 2658.9608,-187.3172 2615.4639,-143 2600.5898,-127.8454 2596.7413,-103.0058 2596.0323,-85.6497"/>
<polygon fill="#191970" stroke="#191970" points="2599.5308,-85.468 2595.9354,-75.502 2592.5311,-85.5349 2599.5308,-85.468"/>
</g>
<!-- Node24&#45;&gt;Node9 -->
<g id="edge29" class="edge">
<title>Node24&#45;&gt;Node9</title>
<path fill="none" stroke="#191970" d="M2644.1301,-246.4875C2610.271,-237.007 2566.5113,-223.9443 2528.4639,-210 2496.1345,-198.1513 2490.2062,-189.6546 2457.4639,-179 2386.8932,-156.0357 2300.9958,-139.9927 2255.7777,-132.4293"/>
<polygon fill="#191970" stroke="#191970" points="2256.1511,-128.9437 2245.7157,-130.7745 2255.0151,-135.851 2256.1511,-128.9437"/>
</g>
<!-- Node24&#45;&gt;Node16 -->
<g id="edge30" class="edge">
<title>Node24&#45;&gt;Node16</title>
<path fill="none" stroke="#191970" d="M2638.9729,-246.4639C2583.0276,-232.7838 2502.6514,-213.1298 2458.5136,-202.337"/>
<polygon fill="#191970" stroke="#191970" points="2459.1733,-198.8952 2448.6281,-199.9197 2457.5106,-205.6949 2459.1733,-198.8952"/>
</g>
<!-- Node25 -->
<g id="node26" class="node">
<title>Node25</title>
<polygon fill="none" stroke="#bfbfbf" points="2440.4639,-118 2440.4639,-137 2492.4639,-137 2492.4639,-118 2440.4639,-118"/>
<text text-anchor="middle" x="2466.4639" y="-125" font-family="Helvetica,sans-Serif" font-size="10.00" fill="#000000">cassert</text>
</g>
<!-- Node24&#45;&gt;Node25 -->
<g id="edge31" class="edge">
<title>Node24&#45;&gt;Node25</title>
<path fill="none" stroke="#191970" d="M2654.3028,-246.4636C2629.2959,-237.4554 2598.3151,-224.8684 2572.4639,-210 2554.6655,-199.7632 2511.198,-164.5738 2485.7967,-143.6036"/>
<polygon fill="#191970" stroke="#191970" points="2487.8718,-140.7777 2477.9381,-137.0936 2483.4062,-146.1683 2487.8718,-140.7777"/>
</g>
<!-- Node24&#45;&gt;Node26 -->
<g id="edge32" class="edge">
<title>Node24&#45;&gt;Node26</title>
<path fill="none" stroke="#191970" d="M2786.3213,-251.6926C2863.6329,-242.0552 2970.9913,-226.4395 3010.4639,-210 3032.2128,-200.9421 3034.0738,-192.3823 3053.4639,-179 3071.6613,-166.4408 3092.5845,-152.6612 3108.1766,-142.5184"/>
<polygon fill="#191970" stroke="#191970" points="3110.1946,-145.3813 3116.6801,-137.0034 3106.3856,-139.5083 3110.1946,-145.3813"/>
</g>
<!-- Node27 -->
<g id="node28" class="node">
<title>Node27</title>
<polygon fill="none" stroke="#bfbfbf" points="2580.9639,-185 2580.9639,-204 2653.9639,-204 2653.9639,-185 2580.9639,-185"/>
<text text-anchor="middle" x="2617.4639" y="-192" font-family="Helvetica,sans-Serif" font-size="10.00" fill="#000000">string_view</text>
</g>
<!-- Node24&#45;&gt;Node27 -->
<g id="edge33" class="edge">
<title>Node24&#45;&gt;Node27</title>
<path fill="none" stroke="#191970" d="M2681.6299,-246.2967C2668.447,-235.6551 2650.8624,-221.4602 2637.4355,-210.6217"/>
<polygon fill="#191970" stroke="#191970" points="2639.2803,-207.6128 2629.3006,-204.055 2634.8834,-213.0596 2639.2803,-207.6128"/>
</g>
<!-- Node28 -->
<g id="node29" class="node">
<title>Node28</title>
<polygon fill="none" stroke="#bfbfbf" points="2671.9639,-185 2671.9639,-204 2740.9639,-204 2740.9639,-185 2671.9639,-185"/>
<text text-anchor="middle" x="2706.4639" y="-192" font-family="Helvetica,sans-Serif" font-size="10.00" fill="#000000">type_traits</text>
</g>
<!-- Node24&#45;&gt;Node28 -->
<g id="edge35" class="edge">
<title>Node24&#45;&gt;Node28</title>
<path fill="none" stroke="#191970" d="M2701.8254,-246.2967C2702.6785,-236.7699 2703.7867,-224.3954 2704.7059,-214.1306"/>
<polygon fill="#191970" stroke="#191970" points="2708.2022,-214.3273 2705.6082,-204.055 2701.2301,-213.7029 2708.2022,-214.3273"/>
</g>
<!-- Node24&#45;&gt;Node29 -->
<g id="edge36" class="edge">
<title>Node24&#45;&gt;Node29</title>
<path fill="none" stroke="#191970" d="M2614.9438,-255.2877C2566.9209,-252.0225 2505.8836,-248.2431 2451.4639,-246 1660.8623,-213.4124 1460.9246,-263.5211 671.4639,-210 646.938,-208.3373 619.9963,-205.4322 596.7433,-202.5831"/>
<polygon fill="#191970" stroke="#191970" points="597.0391,-199.0929 586.6823,-201.3261 596.1712,-206.0389 597.0391,-199.0929"/>
</g>
<!-- Node35 -->
<g id="node36" class="node">
<title>Node35</title>
<g id="a_node36"><a xlink:href="../../dc/dcd/DataHeader_8h.html" target="_top" xlink:title="Headers/DataHeader.h">
<polygon fill="none" stroke="#000000" points="2873.9639,-185 2873.9639,-204 3000.9639,-204 3000.9639,-185 2873.9639,-185"/>
<text text-anchor="middle" x="2937.4639" y="-192" font-family="Helvetica,sans-Serif" font-size="10.00" fill="#000000">Headers/DataHeader.h</text>
</a>
</g>
</g>
<!-- Node24&#45;&gt;Node35 -->
<g id="edge47" class="edge">
<title>Node24&#45;&gt;Node35</title>
<path fill="none" stroke="#191970" d="M2753.6513,-246.4639C2795.9606,-234.503 2854.424,-217.9754 2893.9673,-206.7965"/>
<polygon fill="#191970" stroke="#191970" points="2895.17,-210.0937 2903.8407,-204.0053 2893.2657,-203.3577 2895.17,-210.0937"/>
</g>
<!-- Node29&#45;&gt;Node9 -->
<g id="edge37" class="edge">
<title>Node29&#45;&gt;Node9</title>
<path fill="none" stroke="#191970" d="M586.6855,-187.7204C611.9737,-184.5134 643.3124,-180.9642 671.4639,-179 1001.8684,-155.9473 1833.168,-186.8219 2161.4639,-143 2172.0982,-141.5805 2183.5406,-139.0715 2193.7175,-136.4804"/>
<polygon fill="#191970" stroke="#191970" points="2194.6356,-139.8579 2203.3959,-133.8991 2192.8317,-133.0943 2194.6356,-139.8579"/>
</g>
<!-- Node29&#45;&gt;Node11 -->
<g id="edge38" class="edge">
<title>Node29&#45;&gt;Node11</title>
<path fill="none" stroke="#191970" d="M535.7431,-184.7437C532.1723,-167.4438 522.3029,-131.3926 499.4639,-112 479.398,-94.9621 408.6787,-79.715 365.9683,-71.7772"/>
<polygon fill="#191970" stroke="#191970" points="366.4842,-68.3137 356.019,-69.9659 365.2304,-75.2005 366.4842,-68.3137"/>
</g>
<!-- Node30 -->
<g id="node31" class="node">
<title>Node30</title>
<g id="a_node31"><a xlink:href="../../df/d21/GPUCommonDef_8h.html" target="_top" xlink:title="GPUCommonDef.h">
<polygon fill="none" stroke="#000000" points="111.9639,-56.5 111.9639,-75.5 218.9639,-75.5 218.9639,-56.5 111.9639,-56.5"/>
<text text-anchor="middle" x="165.4639" y="-63.5" font-family="Helvetica,sans-Serif" font-size="10.00" fill="#000000">GPUCommonDef.h</text>
</a>
</g>
</g>
<!-- Node29&#45;&gt;Node30 -->
<g id="edge39" class="edge">
<title>Node29&#45;&gt;Node30</title>
<path fill="none" stroke="#191970" d="M530.3683,-184.8113C515.6641,-165.0132 481.8725,-121.0217 465.4639,-112 425.9401,-90.2692 305.1143,-77.0311 229.402,-70.6452"/>
<polygon fill="#191970" stroke="#191970" points="229.2853,-67.1237 219.0313,-69.7894 228.7095,-74.1 229.2853,-67.1237"/>
</g>
<!-- Node33 -->
<g id="node34" class="node">
<title>Node33</title>
<g id="a_node34"><a xlink:href="../../d6/da2/GPUCommonMath_8h.html" target="_top" xlink:title="GPUCommonMath.h">
<polygon fill="none" stroke="#000000" points="231.9639,-118 231.9639,-137 346.9639,-137 346.9639,-118 231.9639,-118"/>
<text text-anchor="middle" x="289.4639" y="-125" font-family="Helvetica,sans-Serif" font-size="10.00" fill="#000000">GPUCommonMath.h</text>
</a>
</g>
</g>
<!-- Node29&#45;&gt;Node33 -->
<g id="edge42" class="edge">
<title>Node29&#45;&gt;Node33</title>
<path fill="none" stroke="#191970" d="M502.1949,-184.9717C458.2488,-173.0991 383.078,-152.7909 334.8697,-139.7669"/>
<polygon fill="#191970" stroke="#191970" points="335.5795,-136.3332 325.0127,-137.1039 333.7538,-143.091 335.5795,-136.3332"/>
</g>
<!-- Node29&#45;&gt;Node34 -->
<g id="edge46" class="edge">
<title>Node29&#45;&gt;Node34</title>
<path fill="none" stroke="#191970" d="M573.4439,-184.9717C618.3699,-173.0743 695.2834,-152.7059 744.451,-139.6852"/>
<polygon fill="#191970" stroke="#191970" points="745.4276,-143.0473 754.1983,-137.1039 743.6355,-136.2806 745.4276,-143.0473"/>
</g>
<!-- Node31 -->
<g id="node32" class="node">
<title>Node31</title>
<g id="a_node32"><a xlink:href="../../d5/d93/GPUCommonDefSettings_8h.html" target="_top" xlink:title="GPUCommonDefSettings.h">
<polygon fill="none" stroke="#000000" points="14.4639,-.5 14.4639,-19.5 162.4639,-19.5 162.4639,-.5 14.4639,-.5"/>
<text text-anchor="middle" x="88.4639" y="-7.5" font-family="Helvetica,sans-Serif" font-size="10.00" fill="#000000">GPUCommonDefSettings.h</text>
</a>
</g>
</g>
<!-- Node30&#45;&gt;Node31 -->
<g id="edge40" class="edge">
<title>Node30&#45;&gt;Node31</title>
<path fill="none" stroke="#191970" d="M152.0515,-56.2455C140.4582,-47.814 123.4891,-35.4729 109.9961,-25.6598"/>
<polygon fill="#191970" stroke="#191970" points="111.8686,-22.6938 101.7226,-19.6427 107.7513,-28.355 111.8686,-22.6938"/>
</g>
<!-- Node32 -->
<g id="node33" class="node">
<title>Node32</title>
<g id="a_node33"><a xlink:href="../../da/d5a/GPUCommonDefAPI_8h.html" target="_top" xlink:title="GPUCommonDefAPI.h">
<polygon fill="none" stroke="#000000" points="180.4639,-.5 180.4639,-19.5 304.4639,-19.5 304.4639,-.5 180.4639,-.5"/>
<text text-anchor="middle" x="242.4639" y="-7.5" font-family="Helvetica,sans-Serif" font-size="10.00" fill="#000000">GPUCommonDefAPI.h</text>
</a>
</g>
</g>
<!-- Node30&#45;&gt;Node32 -->
<g id="edge41" class="edge">
<title>Node30&#45;&gt;Node32</title>
<path fill="none" stroke="#191970" d="M178.8763,-56.2455C190.4696,-47.814 207.4386,-35.4729 220.9317,-25.6598"/>
<polygon fill="#191970" stroke="#191970" points="223.1764,-28.355 229.2052,-19.6427 219.0592,-22.6938 223.1764,-28.355"/>
</g>
<!-- Node33&#45;&gt;Node8 -->
<g id="edge45" class="edge">
<title>Node33&#45;&gt;Node8</title>
<path fill="none" stroke="#191970" d="M345.7205,-117.961C361.4513,-115.6303 378.5868,-113.4051 394.4639,-112 695.914,-85.3219 1670.2654,-69.7691 1885.936,-66.6039"/>
<polygon fill="#191970" stroke="#191970" points="1886.2554,-70.0998 1896.2032,-66.4542 1886.1532,-63.1005 1886.2554,-70.0998"/>
</g>
<!-- Node33&#45;&gt;Node11 -->
<g id="edge44" class="edge">
<title>Node33&#45;&gt;Node11</title>
<path fill="none" stroke="#191970" d="M296.1826,-117.8906C302.4569,-108.917 311.9861,-95.2879 319.7043,-84.2491"/>
<polygon fill="#191970" stroke="#191970" points="322.7886,-85.9459 325.6504,-75.7449 317.0518,-81.9348 322.7886,-85.9459"/>
</g>
<!-- Node33&#45;&gt;Node30 -->
<g id="edge43" class="edge">
<title>Node33&#45;&gt;Node30</title>
<path fill="none" stroke="#191970" d="M270.0889,-117.8906C249.6144,-107.7359 217.1197,-91.6196 193.7754,-80.0416"/>
<polygon fill="#191970" stroke="#191970" points="195.2167,-76.8496 184.7028,-75.5419 192.1064,-83.1207 195.2167,-76.8496"/>
</g>
<!-- Node35&#45;&gt;Node3 -->
<g id="edge54" class="edge">
<title>Node35&#45;&gt;Node3</title>
<path fill="none" stroke="#191970" d="M2889.7689,-184.9968C2817.3382,-170.547 2687.4281,-144.5515 2682.4639,-143 2680.3531,-142.3403 2678.198,-141.5982 2676.0439,-140.8054"/>
<polygon fill="#191970" stroke="#191970" points="2677.332,-137.5511 2666.7467,-137.1023 2674.7417,-144.0543 2677.332,-137.5511"/>
</g>
<!-- Node35&#45;&gt;Node8 -->
<g id="edge52" class="edge">
<title>Node35&#45;&gt;Node8</title>
<path fill="none" stroke="#191970" d="M2891.7995,-184.9814C2831.7982,-172.3018 2732.1591,-150.587 2716.4639,-143 2696.5288,-133.3635 2698.1357,-119.934 2677.4639,-112 2611.4678,-86.67 2119.0011,-71.2259 1970.6389,-67.1119"/>
<polygon fill="#191970" stroke="#191970" points="1970.6544,-63.6111 1960.5621,-66.8353 1970.4622,-70.6085 1970.6544,-63.6111"/>
</g>
<!-- Node35&#45;&gt;Node12 -->
<g id="edge51" class="edge">
<title>Node35&#45;&gt;Node12</title>
<path fill="none" stroke="#191970" d="M2873.9189,-188.1465C2837.768,-184.8047 2791.6249,-180.9966 2750.4639,-179 1628.114,-124.5581 1342.7941,-229.5642 222.4639,-143 197.3466,-141.0593 169.2222,-137.0635 147.699,-133.6152"/>
<polygon fill="#191970" stroke="#191970" points="148.1398,-130.1408 137.7054,-131.9777 147.0079,-137.0487 148.1398,-130.1408"/>
</g>
<!-- Node35&#45;&gt;Node25 -->
<g id="edge50" class="edge">
<title>Node35&#45;&gt;Node25</title>
<path fill="none" stroke="#191970" d="M2873.6654,-189.3237C2770.0864,-180.5237 2570.0168,-161.7688 2501.4639,-143 2499.2766,-142.4011 2497.0505,-141.6865 2494.8348,-140.8976"/>
<polygon fill="#191970" stroke="#191970" points="2495.9248,-137.5639 2485.3404,-137.0924 2493.3206,-144.0615 2495.9248,-137.5639"/>
</g>
<!-- Node35&#45;&gt;Node26 -->
<g id="edge48" class="edge">
<title>Node35&#45;&gt;Node26</title>
<path fill="none" stroke="#191970" d="M2970.9524,-184.9588C3003.5998,-175.3683 3054.4705,-159.6542 3097.4639,-143 3099.0442,-142.3878 3100.6561,-141.7392 3102.2767,-141.0679"/>
<polygon fill="#191970" stroke="#191970" points="3103.7108,-144.2609 3111.4931,-137.0715 3100.9261,-137.8387 3103.7108,-144.2609"/>
</g>
<!-- Node36 -->
<g id="node37" class="node">
<title>Node36</title>
<polygon fill="none" stroke="#bfbfbf" points="2510.4639,-118 2510.4639,-137 2568.4639,-137 2568.4639,-118 2510.4639,-118"/>
<text text-anchor="middle" x="2539.4639" y="-125" font-family="Helvetica,sans-Serif" font-size="10.00" fill="#000000">memory</text>
</g>
<!-- Node35&#45;&gt;Node36 -->
<g id="edge49" class="edge">
<title>Node35&#45;&gt;Node36</title>
<path fill="none" stroke="#191970" d="M2873.7875,-185.1338C2808.7318,-175.3729 2704.8619,-159.2577 2615.4639,-143 2603.4748,-140.8197 2590.4653,-138.244 2578.6549,-135.825"/>
<polygon fill="#191970" stroke="#191970" points="2579.1422,-132.3518 2568.6404,-133.7533 2577.724,-139.2066 2579.1422,-132.3518"/>
</g>
<!-- Node37 -->
<g id="node38" class="node">
<title>Node37</title>
<polygon fill="none" stroke="#bfbfbf" points="2724.9639,-118 2724.9639,-137 2789.9639,-137 2789.9639,-118 2724.9639,-118"/>
<text text-anchor="middle" x="2757.4639" y="-125" font-family="Helvetica,sans-Serif" font-size="10.00" fill="#000000">stdexcept</text>
</g>
<!-- Node35&#45;&gt;Node37 -->
<g id="edge53" class="edge">
<title>Node35&#45;&gt;Node37</title>
<path fill="none" stroke="#191970" d="M2911.6743,-184.9005C2880.5306,-173.3082 2827.9824,-153.7486 2793.0108,-140.7313"/>
<polygon fill="#191970" stroke="#191970" points="2793.7984,-137.29 2783.2057,-137.0817 2791.3565,-143.8503 2793.7984,-137.29"/>
</g>
<!-- Node38 -->
<g id="node39" class="node">
<title>Node38</title>
<polygon fill="none" stroke="#bfbfbf" points="2808.4639,-118 2808.4639,-137 2858.4639,-137 2858.4639,-118 2808.4639,-118"/>
<text text-anchor="middle" x="2833.4639" y="-125" font-family="Helvetica,sans-Serif" font-size="10.00" fill="#000000">climits</text>
</g>
<!-- Node35&#45;&gt;Node38 -->
<g id="edge55" class="edge">
<title>Node35&#45;&gt;Node38</title>
<path fill="none" stroke="#191970" d="M2922.5632,-184.9005C2905.4186,-173.8554 2877.0471,-155.5776 2856.9294,-142.6172"/>
<polygon fill="#191970" stroke="#191970" points="2858.639,-139.5552 2848.3369,-137.0817 2854.8479,-145.4397 2858.639,-139.5552"/>
</g>
<!-- Node39 -->
<g id="node40" class="node">
<title>Node39</title>
<g id="a_node40"><a xlink:href="../../d7/df8/Types_8h.html" target="_top" xlink:title="MemoryResources/Types.h">
<polygon fill="none" stroke="#000000" points="2876.4639,-118 2876.4639,-137 3022.4639,-137 3022.4639,-118 2876.4639,-118"/>
<text text-anchor="middle" x="2949.4639" y="-125" font-family="Helvetica,sans-Serif" font-size="10.00" fill="#000000">MemoryResources/Types.h</text>
</a>
</g>
</g>
<!-- Node35&#45;&gt;Node39 -->
<g id="edge56" class="edge">
<title>Node35&#45;&gt;Node39</title>
<path fill="none" stroke="#191970" d="M2939.1832,-184.9005C2940.9476,-175.0495 2943.7424,-159.4451 2945.9729,-146.9912"/>
<polygon fill="#191970" stroke="#191970" points="2949.4299,-147.5421 2947.7478,-137.0817 2942.5395,-146.308 2949.4299,-147.5421"/>
</g>
<!-- Node40 -->
<g id="node41" class="node">
<title>Node40</title>
<polygon fill="none" stroke="#bfbfbf" points="3040.9639,-118 3040.9639,-137 3087.9639,-137 3087.9639,-118 3040.9639,-118"/>
<text text-anchor="middle" x="3064.4639" y="-125" font-family="Helvetica,sans-Serif" font-size="10.00" fill="#000000">cerrno</text>
</g>
<!-- Node35&#45;&gt;Node40 -->
<g id="edge57" class="edge">
<title>Node35&#45;&gt;Node40</title>
<path fill="none" stroke="#191970" d="M2955.6599,-184.9005C2977.0677,-173.6067 3012.8097,-154.7506 3037.4532,-141.7497"/>
<polygon fill="#191970" stroke="#191970" points="3039.0901,-144.8434 3046.3016,-137.0817 3035.8238,-138.6522 3039.0901,-144.8434"/>
</g>
<!-- Node41&#45;&gt;Node7 -->
<g id="edge64" class="edge">
<title>Node41&#45;&gt;Node7</title>
<path fill="none" stroke="#191970" d="M1510.1758,-259.0592C1621.7564,-254.2028 1838.8471,-240.9987 1908.4639,-210 1968.2788,-183.3658 1958.2478,-137.7144 2018.4639,-112 2067.7142,-90.9684 2434.4631,-73.1172 2556.8444,-67.6911"/>
<polygon fill="#191970" stroke="#191970" points="2557.0718,-71.1846 2566.9084,-67.2485 2556.7642,-64.1913 2557.0718,-71.1846"/>
</g>
<!-- Node41&#45;&gt;Node13 -->
<g id="edge66" class="edge">
<title>Node41&#45;&gt;Node13</title>
<path fill="none" stroke="#191970" d="M1509.9958,-255.1563C1611.9402,-245.5527 1811.2168,-226.6734 1980.4639,-210 2020.9876,-206.0078 2067.5319,-201.2708 2098.5395,-198.0936"/>
<polygon fill="#191970" stroke="#191970" points="2099.2333,-201.5408 2108.8239,-197.0385 2098.5189,-194.5774 2099.2333,-201.5408"/>
</g>
<!-- Node42 -->
<g id="node43" class="node">
<title>Node42</title>
<polygon fill="none" stroke="#bfbfbf" points="972.4639,-179.5 972.4639,-209.5 1136.4639,-209.5 1136.4639,-179.5 972.4639,-179.5"/>
<text text-anchor="start" x="980.4639" y="-197.5" font-family="Helvetica,sans-Serif" font-size="10.00" fill="#000000">Math/GenVector/Displacement</text>
<text text-anchor="middle" x="1054.4639" y="-186.5" font-family="Helvetica,sans-Serif" font-size="10.00" fill="#000000">Vector3D.h</text>
</g>
<!-- Node41&#45;&gt;Node42 -->
<g id="edge59" class="edge">
<title>Node41&#45;&gt;Node42</title>
<path fill="none" stroke="#191970" d="M1387.285,-251.9717C1324.6134,-241.1495 1221.352,-223.3183 1146.4479,-210.3838"/>
<polygon fill="#191970" stroke="#191970" points="1146.9863,-206.9251 1136.5365,-208.6723 1145.7951,-213.823 1146.9863,-206.9251"/>
</g>
<!-- Node43 -->
<g id="node44" class="node">
<title>Node43</title>
<polygon fill="none" stroke="#bfbfbf" points="1154.9639,-185 1154.9639,-204 1343.9639,-204 1343.9639,-185 1154.9639,-185"/>
<text text-anchor="middle" x="1249.4639" y="-192" font-family="Helvetica,sans-Serif" font-size="10.00" fill="#000000">Math/GenVector/PositionVector3D.h</text>
</g>
<!-- Node41&#45;&gt;Node43 -->
<g id="edge60" class="edge">
<title>Node41&#45;&gt;Node43</title>
<path fill="none" stroke="#191970" d="M1414.8117,-251.9005C1381.1321,-240.2086 1324.1065,-220.4122 1286.6166,-207.3976"/>
<polygon fill="#191970" stroke="#191970" points="1287.6596,-204.0548 1277.0648,-204.0817 1285.3639,-210.6677 1287.6596,-204.0548"/>
</g>
<!-- Node44 -->
<g id="node45" class="node">
<title>Node44</title>
<polygon fill="none" stroke="#bfbfbf" points="1362.4639,-185 1362.4639,-204 1522.4639,-204 1522.4639,-185 1362.4639,-185"/>
<text text-anchor="middle" x="1442.4639" y="-192" font-family="Helvetica,sans-Serif" font-size="10.00" fill="#000000">Math/GenVector/Rotation3D.h</text>
</g>
<!-- Node41&#45;&gt;Node44 -->
<g id="edge61" class="edge">
<title>Node41&#45;&gt;Node44</title>
<path fill="none" stroke="#191970" d="M1442.4639,-251.9005C1442.4639,-242.149 1442.4639,-226.7597 1442.4639,-214.3695"/>
<polygon fill="#191970" stroke="#191970" points="1445.964,-214.0816 1442.4639,-204.0817 1438.964,-214.0817 1445.964,-214.0816"/>
</g>
<!-- Node45 -->
<g id="node46" class="node">
<title>Node45</title>
<polygon fill="none" stroke="#bfbfbf" points="1540.4639,-185 1540.4639,-204 1708.4639,-204 1708.4639,-185 1540.4639,-185"/>
<text text-anchor="middle" x="1624.4639" y="-192" font-family="Helvetica,sans-Serif" font-size="10.00" fill="#000000">Math/GenVector/Transform3D.h</text>
</g>
<!-- Node41&#45;&gt;Node45 -->
<g id="edge62" class="edge">
<title>Node41&#45;&gt;Node45</title>
<path fill="none" stroke="#191970" d="M1468.54,-251.9005C1500.1649,-240.2584 1553.6183,-220.5805 1588.9763,-207.5641"/>
<polygon fill="#191970" stroke="#191970" points="1590.2609,-210.8209 1598.4361,-204.0817 1587.8426,-204.2519 1590.2609,-210.8209"/>
</g>
<!-- Node46 -->
<g id="node47" class="node">
<title>Node46</title>
<polygon fill="none" stroke="#bfbfbf" points="1726.9639,-185 1726.9639,-204 1899.9639,-204 1899.9639,-185 1726.9639,-185"/>
<text text-anchor="middle" x="1813.4639" y="-192" font-family="Helvetica,sans-Serif" font-size="10.00" fill="#000000">Math/GenVector/Translation3D.h</text>
</g>
<!-- Node41&#45;&gt;Node46 -->
<g id="edge63" class="edge">
<title>Node41&#45;&gt;Node46</title>
<path fill="none" stroke="#191970" d="M1495.2251,-251.9717C1562.4378,-239.8335 1678.4749,-218.8781 1750.3168,-205.9039"/>
<polygon fill="#191970" stroke="#191970" points="1751.3658,-209.2712 1760.5846,-204.0496 1750.1218,-202.3826 1751.3658,-209.2712"/>
</g>
<!-- Node47 -->
<g id="node48" class="node">
<title>Node47</title>
<polygon fill="none" stroke="#bfbfbf" points="872.4639,-185 872.4639,-204 954.4639,-204 954.4639,-185 872.4639,-185"/>
<text text-anchor="middle" x="913.4639" y="-192" font-family="Helvetica,sans-Serif" font-size="10.00" fill="#000000">TGeoMatrix.h</text>
</g>
<!-- Node41&#45;&gt;Node47 -->
<g id="edge65" class="edge">
<title>Node41&#45;&gt;Node47</title>
<path fill="none" stroke="#191970" d="M1374.7938,-258.3537C1281.4334,-253.0793 1108.2347,-239.928 963.4639,-210 959.3087,-209.141 955.0062,-208.0798 950.7482,-206.9187"/>
<polygon fill="#191970" stroke="#191970" points="951.5637,-203.5109 940.9839,-204.0764 949.6071,-210.2319 951.5637,-203.5109"/>
</g>
<!-- Node48 -->
<g id="node49" class="node">
<title>Node48</title>
<g id="a_node49"><a xlink:href="../../d2/dd0/Cartesian2D_8h.html" target="_top" xlink:title="MathUtils/Cartesian2D.h">
<polygon fill="none" stroke="#000000" points="680.9639,-185 680.9639,-204 815.9639,-204 815.9639,-185 680.9639,-185"/>
<text text-anchor="middle" x="748.4639" y="-192" font-family="Helvetica,sans-Serif" font-size="10.00" fill="#000000">MathUtils/Cartesian2D.h</text>
</a>
</g>
</g>
<!-- Node41&#45;&gt;Node48 -->
<g id="edge67" class="edge">
<title>Node41&#45;&gt;Node48</title>
<path fill="none" stroke="#191970" d="M1374.6188,-256.4665C1266.3792,-248.2108 1048.0026,-230.6326 863.4639,-210 851.1415,-208.6223 838.0972,-207.0111 825.3901,-205.3584"/>
<polygon fill="#191970" stroke="#191970" points="825.6635,-201.8642 815.2919,-204.0277 824.7489,-208.8042 825.6635,-201.8642"/>
</g>
<!-- Node49 -->
<g id="node50" class="node">
<title>Node49</title>
<polygon fill="none" stroke="#bfbfbf" points="905.4639,-112.5 905.4639,-142.5 1069.4639,-142.5 1069.4639,-112.5 905.4639,-112.5"/>
<text text-anchor="start" x="913.4639" y="-130.5" font-family="Helvetica,sans-Serif" font-size="10.00" fill="#000000">Math/GenVector/Displacement</text>
<text text-anchor="middle" x="987.4639" y="-119.5" font-family="Helvetica,sans-Serif" font-size="10.00" fill="#000000">Vector2D.h</text>
</g>
<!-- Node48&#45;&gt;Node49 -->
<g id="edge68" class="edge">
<title>Node48&#45;&gt;Node49</title>
<path fill="none" stroke="#191970" d="M782.4529,-184.9717C819.1927,-174.6723 878.578,-158.0245 924.0003,-145.291"/>
<polygon fill="#191970" stroke="#191970" points="925.075,-148.6248 933.759,-142.5553 923.1854,-141.8846 925.075,-148.6248"/>
</g>
<!-- Node50 -->
<g id="node51" class="node">
<title>Node50</title>
<polygon fill="none" stroke="#bfbfbf" points="1087.9639,-118 1087.9639,-137 1276.9639,-137 1276.9639,-118 1087.9639,-118"/>
<text text-anchor="middle" x="1182.4639" y="-125" font-family="Helvetica,sans-Serif" font-size="10.00" fill="#000000">Math/GenVector/PositionVector2D.h</text>
</g>
<!-- Node48&#45;&gt;Node50 -->
<g id="edge69" class="edge">
<title>Node48&#45;&gt;Node50</title>
<path fill="none" stroke="#191970" d="M796.9658,-184.9774C807.9641,-182.9169 819.6033,-180.8139 830.4639,-179 940.3197,-160.6525 968.2722,-159.2091 1078.4639,-143 1088.2844,-141.5554 1098.625,-140.0252 1108.8217,-138.511"/>
<polygon fill="#191970" stroke="#191970" points="1109.5694,-141.9384 1118.946,-137.0058 1108.5399,-135.0145 1109.5694,-141.9384"/>
</g>
<!-- Node51&#45;&gt;Node6 -->
<g id="edge75" class="edge">
<title>Node51&#45;&gt;Node6</title>
<path fill="none" stroke="#191970" d="M1870.1093,-385.9964C1879.9369,-361.1599 1908.865,-292.9898 1947.4639,-246 1948.7185,-244.4727 2032.0147,-175.7072 2070.8845,-143.6449"/>
<polygon fill="#191970" stroke="#191970" points="2073.399,-146.108 2078.8867,-137.0451 2068.9451,-140.7077 2073.399,-146.108"/>
</g>
<!-- Node52&#45;&gt;Node4 -->
<g id="edge78" class="edge">
<title>Node52&#45;&gt;Node4</title>
<path fill="none" stroke="#191970" d="M2707.8411,-380.2967C2702.2079,-370.3645 2694.8192,-357.3371 2688.8612,-346.8321"/>
<polygon fill="#191970" stroke="#191970" points="2691.861,-345.0266 2683.8831,-338.055 2685.7721,-348.4801 2691.861,-345.0266"/>
</g>
<!-- Node52&#45;&gt;Node6 -->
<g id="edge77" class="edge">
<title>Node52&#45;&gt;Node6</title>
<path fill="none" stroke="#191970" d="M2746.8223,-380.3892C2775.7406,-364.0296 2812.0398,-337.047 2791.4639,-313 2757.83,-273.6922 2611.4174,-290.4534 2561.4639,-277 2445.4274,-245.7492 2424.2347,-214.6194 2309.4639,-179 2256.169,-162.4598 2194.1501,-148.341 2149.7441,-139.0926"/>
<polygon fill="#191970" stroke="#191970" points="2150.2011,-135.6132 2139.7002,-137.0212 2148.7872,-142.469 2150.2011,-135.6132"/>
</g>
<!-- Node53&#45;&gt;Node6 -->
<g id="edge80" class="edge">
<title>Node53&#45;&gt;Node6</title>
<path fill="none" stroke="#191970" d="M2351.789,-246.4487C2330.8658,-225.277 2293.1498,-188.2467 2276.4639,-179 2241.2366,-159.4785 2198.0848,-146.9352 2162.2161,-139.1209"/>
<polygon fill="#191970" stroke="#191970" points="2162.8108,-135.6696 2152.3051,-137.0404 2161.3727,-142.5203 2162.8108,-135.6696"/>
</g>
<!-- Node53&#45;&gt;Node9 -->
<g id="edge81" class="edge">
<title>Node53&#45;&gt;Node9</title>
<path fill="none" stroke="#191970" d="M2359.6869,-246.2505C2351.1676,-228.4092 2335.1231,-198.7962 2314.4639,-179 2297.1967,-162.4541 2273.615,-149.2124 2254.922,-140.3011"/>
<polygon fill="#191970" stroke="#191970" points="2256.1997,-137.0364 2245.6517,-136.0412 2253.2768,-143.397 2256.1997,-137.0364"/>
</g>
<!-- Node53&#45;&gt;Node13 -->
<g id="edge82" class="edge">
<title>Node53&#45;&gt;Node13</title>
<path fill="none" stroke="#191970" d="M2314.1741,-246.4639C2269.4649,-233.6076 2206.4074,-215.4752 2167.8223,-204.3799"/>
<polygon fill="#191970" stroke="#191970" points="2168.6728,-200.9827 2158.095,-201.5828 2166.7383,-207.7101 2168.6728,-200.9827"/>
</g>
<!-- Node54&#45;&gt;Node5 -->
<g id="edge86" class="edge">
<title>Node54&#45;&gt;Node5</title>
<path fill="none" stroke="#191970" d="M2640.2655,-522.738C2498.8042,-510.1845 2196.4867,-483.3563 2047.7443,-470.1567"/>
<polygon fill="#191970" stroke="#191970" points="2048.0087,-466.6665 2037.7384,-469.2687 2047.3899,-473.6391 2048.0087,-466.6665"/>
</g>
<!-- Node54&#45;&gt;Node7 -->
<g id="edge84" class="edge">
<title>Node54&#45;&gt;Node7</title>
<path fill="none" stroke="#191970" d="M2741.6425,-514.3947C2847.3002,-450.1624 3245.7536,-199.0425 3165.4639,-112 3147.5106,-92.5367 2762.8854,-73.5075 2636.3918,-67.7555"/>
<polygon fill="#191970" stroke="#191970" points="2636.4973,-64.2568 2626.3496,-67.3021 2636.1815,-71.2497 2636.4973,-64.2568"/>
</g>
<!-- Node54&#45;&gt;Node52 -->
<g id="edge85" class="edge">
<title>Node54&#45;&gt;Node52</title>
<path fill="none" stroke="#191970" d="M2716.4639,-514.389C2716.4639,-491.6691 2716.4639,-448.438 2716.4639,-420.8405"/>
<polygon fill="#191970" stroke="#191970" points="2719.964,-420.7614 2716.4639,-410.7614 2712.964,-420.7614 2719.964,-420.7614"/>
</g>
<!-- Node55&#45;&gt;Node30 -->
<g id="edge88" class="edge">
<title>Node55&#45;&gt;Node30</title>
<path fill="none" stroke="#191970" d="M290.1687,-386.1298C196.4819,-369.6944 46.1767,-325.572 15.4639,-210 4.2769,-167.9033 -11.4628,-147.0013 14.4639,-112 25.2738,-97.4066 65.3652,-85.594 101.5208,-77.5945"/>
<polygon fill="#191970" stroke="#191970" points="102.5405,-80.9556 111.5866,-75.4402 101.0755,-74.1106 102.5405,-80.9556"/>
</g>
<!-- Node55&#45;&gt;Node41 -->
<g id="edge114" class="edge">
<title>Node55&#45;&gt;Node41</title>
<path fill="none" stroke="#191970" d="M442.5548,-386.024C639.69,-361.4737 1165.4781,-295.9945 1364.5848,-271.1987"/>
<polygon fill="#191970" stroke="#191970" points="1365.1799,-274.6517 1374.6707,-269.9426 1364.3148,-267.7054 1365.1799,-274.6517"/>
</g>
<!-- Node56 -->
<g id="node57" class="node">
<title>Node56</title>
<g id="a_node57"><a xlink:href="../../da/df3/MatLayerCyl_8h.html" target="_top" xlink:title="Declarations for single cylindrical material layer class. ">
<polygon fill="none" stroke="#000000" points="139.9639,-252 139.9639,-271 300.9639,-271 300.9639,-252 139.9639,-252"/>
<text text-anchor="middle" x="220.4639" y="-259" font-family="Helvetica,sans-Serif" font-size="10.00" fill="#000000">DetectorsBase/MatLayerCyl.h</text>
</a>
</g>
</g>
<!-- Node55&#45;&gt;Node56 -->
<g id="edge89" class="edge">
<title>Node55&#45;&gt;Node56</title>
<path fill="none" stroke="#191970" d="M339.412,-380.3872C323.7119,-370.9661 304.0276,-357.9985 288.4639,-344 266.4879,-324.2342 245.5403,-297.1366 232.845,-279.4766"/>
<polygon fill="#191970" stroke="#191970" points="235.6226,-277.3423 226.9966,-271.1907 229.9036,-281.3789 235.6226,-277.3423"/>
</g>
<!-- Node57 -->
<g id="node58" class="node">
<title>Node57</title>
<g id="a_node58"><a xlink:href="../../db/dff/FlatObject_8h.html" target="_top" xlink:title="Definition of FlatObject class. ">
<polygon fill="none" stroke="#000000" points="395.9639,-185 395.9639,-204 470.9639,-204 470.9639,-185 395.9639,-185"/>
<text text-anchor="middle" x="433.4639" y="-192" font-family="Helvetica,sans-Serif" font-size="10.00" fill="#000000">FlatObject.h</text>
</a>
</g>
</g>
<!-- Node55&#45;&gt;Node57 -->
<g id="edge113" class="edge">
<title>Node55&#45;&gt;Node57</title>
<path fill="none" stroke="#191970" d="M390.5451,-380.4125C402.6508,-371.4289 416.2495,-358.881 423.4639,-344 444.0918,-301.4511 440.4672,-243.9501 436.6315,-214.184"/>
<polygon fill="#191970" stroke="#191970" points="440.087,-213.6238 435.2012,-204.2228 433.1581,-214.6187 440.087,-213.6238"/>
</g>
<!-- Node60 -->
<g id="node61" class="node">
<title>Node60</title>
<g id="a_node61"><a xlink:href="../../d4/d1b/Ray_8h.html" target="_top" xlink:title="DetectorsBase/Ray.h">
<polygon fill="none" stroke="#000000" points="297.9639,-319 297.9639,-338 414.9639,-338 414.9639,-319 297.9639,-319"/>
<text text-anchor="middle" x="356.4639" y="-326" font-family="Helvetica,sans-Serif" font-size="10.00" fill="#000000">DetectorsBase/Ray.h</text>
</a>
</g>
</g>
<!-- Node55&#45;&gt;Node60 -->
<g id="edge106" class="edge">
<title>Node55&#45;&gt;Node60</title>
<path fill="none" stroke="#191970" d="M364.1947,-380.2967C362.7728,-370.7699 360.9259,-358.3954 359.3938,-348.1306"/>
<polygon fill="#191970" stroke="#191970" points="362.8279,-347.4287 357.89,-338.055 355.9046,-348.4621 362.8279,-347.4287"/>
</g>
<!-- Node56&#45;&gt;Node6 -->
<g id="edge101" class="edge">
<title>Node56&#45;&gt;Node6</title>
<path fill="none" stroke="#191970" d="M301.1155,-260.3713C443.0914,-257.4377 731.4325,-246.9782 824.4639,-210 845.0401,-201.8213 842.7162,-186.7333 863.4639,-179 917.6528,-158.8023 1761.5398,-135.8436 2017.455,-129.3159"/>
<polygon fill="#191970" stroke="#191970" points="2017.8467,-132.8072 2027.7544,-129.054 2017.6686,-125.8095 2017.8467,-132.8072"/>
</g>
<!-- Node56&#45;&gt;Node11 -->
<g id="edge90" class="edge">
<title>Node56&#45;&gt;Node11</title>
<path fill="none" stroke="#191970" d="M178.8601,-251.9501C154.0526,-244.3284 123.5744,-231.3018 103.4639,-210 72.6062,-177.3144 49.65,-146.5008 78.4639,-112 92.478,-95.22 232.709,-77.2938 298.5959,-69.7185"/>
<polygon fill="#191970" stroke="#191970" points="299.3326,-73.1575 308.8739,-68.5516 298.5428,-66.2022 299.3326,-73.1575"/>
</g>
<!-- Node56&#45;&gt;Node12 -->
<g id="edge91" class="edge">
<title>Node56&#45;&gt;Node12</title>
<path fill="none" stroke="#191970" d="M179.0594,-251.9319C156.5912,-244.4509 130.5912,-231.5759 116.4639,-210 104.2343,-191.3224 105.4003,-164.8498 108.1918,-146.9712"/>
<polygon fill="#191970" stroke="#191970" points="111.6406,-147.5688 110.0347,-137.0964 104.7594,-146.2845 111.6406,-147.5688"/>
</g>
<!-- Node56&#45;&gt;Node30 -->
<g id="edge92" class="edge">
<title>Node56&#45;&gt;Node30</title>
<path fill="none" stroke="#191970" d="M161.7113,-251.9315C116.5619,-243.2391 59.5977,-228.8925 45.4639,-210 19.3726,-175.1241 20.7854,-147.8896 45.4639,-112 54.1526,-99.3642 88.1091,-87.0353 117.6928,-78.3269"/>
<polygon fill="#191970" stroke="#191970" points="118.8633,-81.6325 127.5151,-75.5172 116.9381,-74.9025 118.8633,-81.6325"/>
</g>
<!-- Node56&#45;&gt;Node33 -->
<g id="edge102" class="edge">
<title>Node56&#45;&gt;Node33</title>
<path fill="none" stroke="#191970" d="M233.4405,-251.9603C245.2047,-242.5994 262.0931,-227.2487 271.4639,-210 282.1417,-190.3455 286.4855,-164.8134 288.2524,-147.3916"/>
<polygon fill="#191970" stroke="#191970" points="291.7544,-147.5098 289.0821,-137.2575 284.7777,-146.9385 291.7544,-147.5098"/>
</g>
<!-- Node56&#45;&gt;Node57 -->
<g id="edge93" class="edge">
<title>Node56&#45;&gt;Node57</title>
<path fill="none" stroke="#191970" d="M250.9816,-251.9005C288.3886,-240.134 351.8908,-220.1591 393.2507,-207.1492"/>
<polygon fill="#191970" stroke="#191970" points="394.5138,-210.421 403.0028,-204.0817 392.4133,-203.7436 394.5138,-210.421"/>
</g>
<!-- Node59 -->
<g id="node60" class="node">
<title>Node59</title>
<g id="a_node60"><a xlink:href="../../db/dba/MatCell_8h.html" target="_top" xlink:title="Declarations for material properties of the cell (voxel) ">
<polygon fill="none" stroke="#000000" points="125.9639,-185 125.9639,-204 262.9639,-204 262.9639,-185 125.9639,-185"/>
<text text-anchor="middle" x="194.4639" y="-192" font-family="Helvetica,sans-Serif" font-size="10.00" fill="#000000">DetectorsBase/MatCell.h</text>
</a>
</g>
</g>
<!-- Node56&#45;&gt;Node59 -->
<g id="edge103" class="edge">
<title>Node56&#45;&gt;Node59</title>
<path fill="none" stroke="#191970" d="M216.7387,-251.9005C212.8773,-241.95 206.7379,-226.1292 201.8815,-213.6147"/>
<polygon fill="#191970" stroke="#191970" points="205.0629,-212.1381 198.1821,-204.0817 198.537,-214.6706 205.0629,-212.1381"/>
</g>
<!-- Node57&#45;&gt;Node6 -->
<g id="edge99" class="edge">
<title>Node57&#45;&gt;Node6</title>
<path fill="none" stroke="#191970" d="M457.465,-184.9365C464.4494,-182.5596 472.1657,-180.3166 479.4639,-179 555.961,-165.1998 1713.6106,-136.5511 2017.7362,-129.232"/>
<polygon fill="#191970" stroke="#191970" points="2017.8529,-132.7303 2027.7659,-128.9909 2017.6846,-125.7324 2017.8529,-132.7303"/>
</g>
<!-- Node57&#45;&gt;Node12 -->
<g id="edge96" class="edge">
<title>Node57&#45;&gt;Node12</title>
<path fill="none" stroke="#191970" d="M395.6972,-186.6172C333.0305,-173.5373 208.4447,-147.5334 147.577,-134.8289"/>
<polygon fill="#191970" stroke="#191970" points="148.1815,-131.3797 137.6773,-132.7626 146.7512,-138.2321 148.1815,-131.3797"/>
</g>
<!-- Node57&#45;&gt;Node20 -->
<g id="edge100" class="edge">
<title>Node57&#45;&gt;Node20</title>
<path fill="none" stroke="#191970" d="M459.2535,-184.9005C490.3972,-173.3082 542.9454,-153.7486 577.917,-140.7313"/>
<polygon fill="#191970" stroke="#191970" points="579.5712,-143.8503 587.7221,-137.0817 577.1293,-137.29 579.5712,-143.8503"/>
</g>
<!-- Node57&#45;&gt;Node25 -->
<g id="edge97" class="edge">
<title>Node57&#45;&gt;Node25</title>
<path fill="none" stroke="#191970" d="M457.4552,-184.8814C464.4395,-182.5036 472.1581,-180.274 479.4639,-179 673.7942,-145.1128 2057.4155,-152.1953 2254.4639,-143 2316.3142,-140.1138 2388.1549,-134.3529 2430.3232,-130.7251"/>
<polygon fill="#191970" stroke="#191970" points="2430.7208,-134.2039 2440.3805,-129.8518 2430.1152,-127.2301 2430.7208,-134.2039"/>
</g>
<!-- Node57&#45;&gt;Node30 -->
<g id="edge98" class="edge">
<title>Node57&#45;&gt;Node30</title>
<path fill="none" stroke="#191970" d="M395.7503,-188.4695C343.0465,-179.5133 250.651,-161.7293 222.4639,-143 200.6931,-128.5341 184.1709,-102.8107 174.6578,-85.1033"/>
<polygon fill="#191970" stroke="#191970" points="177.5458,-83.0628 169.8799,-75.7494 171.3119,-86.247 177.5458,-83.0628"/>
</g>
<!-- Node57&#45;&gt;Node36 -->
<g id="edge95" class="edge">
<title>Node57&#45;&gt;Node36</title>
<path fill="none" stroke="#191970" d="M457.4531,-184.8697C464.4374,-182.4918 472.1565,-180.2649 479.4639,-179 922.2829,-102.3464 2061.2464,-233.4048 2501.4639,-143 2504.3428,-142.4088 2507.2806,-141.6056 2510.1835,-140.6742"/>
<polygon fill="#191970" stroke="#191970" points="2511.6109,-143.8783 2519.7827,-137.135 2509.1893,-137.3105 2511.6109,-143.8783"/>
</g>
<!-- Node58 -->
<g id="node59" class="node">
<title>Node58</title>
<polygon fill="none" stroke="#bfbfbf" points="403.9639,-118 403.9639,-137 456.9639,-137 456.9639,-118 403.9639,-118"/>
<text text-anchor="middle" x="430.4639" y="-125" font-family="Helvetica,sans-Serif" font-size="10.00" fill="#000000">cstddef</text>
</g>
<!-- Node57&#45;&gt;Node58 -->
<g id="edge94" class="edge">
<title>Node57&#45;&gt;Node58</title>
<path fill="none" stroke="#191970" d="M433.0341,-184.9005C432.5974,-175.149 431.9083,-159.7597 431.3536,-147.3695"/>
<polygon fill="#191970" stroke="#191970" points="434.8368,-146.9151 430.8929,-137.0817 427.8438,-147.2282 434.8368,-146.9151"/>
</g>
<!-- Node59&#45;&gt;Node6 -->
<g id="edge105" class="edge">
<title>Node59&#45;&gt;Node6</title>
<path fill="none" stroke="#191970" d="M263.2771,-188.1009C299.8393,-184.9143 345.5605,-181.2677 386.4639,-179 1017.6091,-144.0088 1781.6695,-131.5574 2017.5803,-128.3914"/>
<polygon fill="#191970" stroke="#191970" points="2017.7966,-131.8889 2027.7492,-128.2563 2017.7036,-124.8895 2017.7966,-131.8889"/>
</g>
<!-- Node59&#45;&gt;Node30 -->
<g id="edge104" class="edge">
<title>Node59&#45;&gt;Node30</title>
<path fill="none" stroke="#191970" d="M192.2842,-184.8416C187.5396,-163.8184 176.1972,-113.5598 169.8881,-85.6038"/>
<polygon fill="#191970" stroke="#191970" points="173.2845,-84.7546 167.6689,-75.7705 166.4563,-86.2957 173.2845,-84.7546"/>
</g>
<!-- Node60&#45;&gt;Node6 -->
<g id="edge107" class="edge">
<title>Node60&#45;&gt;Node6</title>
<path fill="none" stroke="#191970" d="M415.0315,-326.7745C619.4818,-320.6149 1300.8438,-298.9064 1518.4639,-277 1708.724,-257.8477 1762.8025,-272.6673 1943.4639,-210 1990.9102,-193.5419 2040.7993,-162.0787 2068.5374,-143.1218"/>
<polygon fill="#191970" stroke="#191970" points="2070.8364,-145.7868 2077.0595,-137.2122 2066.8475,-140.0345 2070.8364,-145.7868"/>
</g>
<!-- Node60&#45;&gt;Node29 -->
<g id="edge111" class="edge">
<title>Node60&#45;&gt;Node29</title>
<path fill="none" stroke="#191970" d="M369.481,-318.8631C400.3982,-295.974 478.4768,-238.17 516.2915,-210.1746"/>
<polygon fill="#191970" stroke="#191970" points="518.6102,-212.8128 524.5648,-204.0496 514.445,-207.1868 518.6102,-212.8128"/>
</g>
<!-- Node60&#45;&gt;Node30 -->
<g id="edge108" class="edge">
<title>Node60&#45;&gt;Node30</title>
<path fill="none" stroke="#191970" d="M297.6454,-320.7754C251.0067,-313.3197 184.8558,-299.7409 130.4639,-277 79.3902,-255.6465 52.0727,-258.5434 25.4639,-210 17.8134,-196.043 11.4661,-132.438 26.4639,-112 36.5925,-98.1974 74.5469,-86.1842 108.2399,-77.8989"/>
<polygon fill="#191970" stroke="#191970" points="109.1471,-81.2807 118.0622,-75.5561 107.523,-74.4717 109.1471,-81.2807"/>
</g>
<!-- Node60&#45;&gt;Node33 -->
<g id="edge109" class="edge">
<title>Node60&#45;&gt;Node33</title>
<path fill="none" stroke="#191970" d="M353.2323,-318.8054C342.7962,-287.4969 309.8612,-188.6919 295.8613,-146.6921"/>
<polygon fill="#191970" stroke="#191970" points="299.1457,-145.4774 292.663,-137.0974 292.505,-147.691 299.1457,-145.4774"/>
</g>
<!-- Node60&#45;&gt;Node41 -->
<g id="edge112" class="edge">
<title>Node60&#45;&gt;Node41</title>
<path fill="none" stroke="#191970" d="M415.2652,-322.3491C446.2418,-319.2505 484.882,-315.608 519.4639,-313 832.4672,-289.3948 1205.9431,-271.7984 1364.7981,-264.8073"/>
<polygon fill="#191970" stroke="#191970" points="1365.1113,-268.297 1374.9483,-264.3622 1364.8046,-261.3037 1365.1113,-268.297"/>
</g>
<!-- Node60&#45;&gt;Node56 -->
<g id="edge110" class="edge">
<title>Node60&#45;&gt;Node56</title>
<path fill="none" stroke="#191970" d="M336.9784,-318.9005C313.9526,-307.5569 275.4411,-288.5844 249.0406,-275.5783"/>
<polygon fill="#191970" stroke="#191970" points="250.4305,-272.3613 239.9132,-271.0817 247.337,-278.6407 250.4305,-272.3613"/>
</g>
<!-- Node61&#45;&gt;Node7 -->
<g id="edge116" class="edge">
<title>Node61&#45;&gt;Node7</title>
<path fill="none" stroke="#191970" d="M3302.3328,-322.993C3396.9187,-314.6203 3558.8377,-297.4792 3576.4639,-277 3585.4517,-266.5575 3584.4138,-257.2528 3576.4639,-246 3473.6158,-100.4214 3372.8485,-148.8899 3198.4639,-112 3090.4422,-89.1487 2752.5173,-72.7553 2636.2389,-67.6664"/>
<polygon fill="#191970" stroke="#191970" points="2636.1528,-64.1595 2626.0106,-67.2231 2635.8496,-71.153 2636.1528,-64.1595"/>
</g>
<!-- Node61&#45;&gt;Node24 -->
<g id="edge121" class="edge">
<title>Node61&#45;&gt;Node24</title>
<path fill="none" stroke="#191970" d="M3166.8324,-320.0144C3073.0345,-308.2458 2902.9694,-286.908 2796.1754,-273.5087"/>
<polygon fill="#191970" stroke="#191970" points="2796.4006,-270.0096 2786.0427,-272.2374 2795.5291,-276.9552 2796.4006,-270.0096"/>
</g>
<!-- Node61&#45;&gt;Node26 -->
<g id="edge117" class="edge">
<title>Node61&#45;&gt;Node26</title>
<path fill="none" stroke="#191970" d="M3203.6135,-313.4243C3188.9763,-304.7365 3172.527,-292.4547 3162.4639,-277 3136.0438,-236.4247 3131.5439,-177.6384 3131.1339,-147.2873"/>
<polygon fill="#191970" stroke="#191970" points="3134.6339,-147.1466 3131.1398,-137.1445 3127.6339,-147.1424 3134.6339,-147.1466"/>
</g>
<!-- Node62 -->
<g id="node63" class="node">
<title>Node62</title>
<polygon fill="none" stroke="#bfbfbf" points="3315.4639,-252 3315.4639,-271 3359.4639,-271 3359.4639,-252 3315.4639,-252"/>
<text text-anchor="middle" x="3337.4639" y="-259" font-family="Helvetica,sans-Serif" font-size="10.00" fill="#000000">ctime</text>
</g>
<!-- Node61&#45;&gt;Node62 -->
<g id="edge118" class="edge">
<title>Node61&#45;&gt;Node62</title>
<path fill="none" stroke="#191970" d="M3257.5791,-313.4639C3274.3941,-302.526 3297.0801,-287.769 3313.9801,-276.7759"/>
<polygon fill="#191970" stroke="#191970" points="3316.2255,-279.4906 3322.6996,-271.1039 3312.4086,-273.6228 3316.2255,-279.4906"/>
</g>
<!-- Node63 -->
<g id="node64" class="node">
<title>Node63</title>
<g id="a_node64"><a xlink:href="../../d4/dc6/LHCConstants_8h.html" target="_top" xlink:title="Header to collect LHC related constants. ">
<polygon fill="none" stroke="#000000" points="3377.4639,-252 3377.4639,-271 3567.4639,-271 3567.4639,-252 3377.4639,-252"/>
<text text-anchor="middle" x="3472.4639" y="-259" font-family="Helvetica,sans-Serif" font-size="10.00" fill="#000000">CommonConstants/LHCConstants.h</text>
</a>
</g>
</g>
<!-- Node61&#45;&gt;Node63 -->
<g id="edge119" class="edge">
<title>Node61&#45;&gt;Node63</title>
<path fill="none" stroke="#191970" d="M3287.8757,-313.4639C3330.4537,-301.4776 3389.323,-284.9052 3429.0365,-273.7254"/>
<polygon fill="#191970" stroke="#191970" points="3430.0214,-277.0842 3438.6988,-271.0053 3428.1245,-270.3461 3430.0214,-277.0842"/>
</g>
<!-- Node64 -->
<g id="node65" class="node">
<title>Node64</title>
<g id="a_node65"><a xlink:href="../../da/d58/Units_8h.html" target="_top" xlink:title="Header to collect definitions for different units. ">
<polygon fill="none" stroke="#000000" points="3171.4639,-252 3171.4639,-271 3297.4639,-271 3297.4639,-252 3171.4639,-252"/>
<text text-anchor="middle" x="3234.4639" y="-259" font-family="Helvetica,sans-Serif" font-size="10.00" fill="#000000">CommonTypes/Units.h</text>
</a>
</g>
</g>
<!-- Node61&#45;&gt;Node64 -->
<g id="edge120" class="edge">
<title>Node61&#45;&gt;Node64</title>
<path fill="none" stroke="#191970" d="M3234.4639,-313.2967C3234.4639,-303.7699 3234.4639,-291.3954 3234.4639,-281.1306"/>
<polygon fill="#191970" stroke="#191970" points="3237.964,-281.0549 3234.4639,-271.055 3230.964,-281.055 3237.964,-281.0549"/>
</g>
</g>
</svg>
