<?xml version="1.0" encoding="UTF-8" standalone="no"?>
<!DOCTYPE svg PUBLIC "-//W3C//DTD SVG 1.1//EN"
 "http://www.w3.org/Graphics/SVG/1.1/DTD/svg11.dtd">
<!-- Generated by graphviz version 2.40.1 (20161225.0304)
 -->
<!-- Title: o2::fv0::CTF Pages: 1 -->
<!--zoomable 1487 -->
<svg id="main" version="1.1" xmlns="http://www.w3.org/2000/svg" xmlns:xlink="http://www.w3.org/1999/xlink" xml:space="preserve" onload="init(evt)">
<style type="text/css"><![CDATA[
.edge:hover path { stroke: red; }
.edge:hover polygon { stroke: red; fill: red; }
]]></style>
<script type="text/javascript"><![CDATA[
var edges = document.getElementsByTagName('g');
if (edges && edges.length) {
  for (var i=0;i<edges.length;i++) {
    if (edges[i].id.substr(0,4)=='edge') {
      edges[i].setAttribute('class','edge');
    }
  }
}
]]></script>
        <defs>
                <circle id="rim" cx="0" cy="0" r="7"/>
                <circle id="rim2" cx="0" cy="0" r="3.5"/>
                <g id="zoomPlus">
                        <use xlink:href="#rim" fill="#404040">
                                <set attributeName="fill" to="#808080" begin="zoomplus.mouseover" end="zoomplus.mouseout"/>
                        </use>
                        <path d="M-4,0h8M0,-4v8" fill="none" stroke="white" stroke-width="1.5" pointer-events="none"/>
                </g>
                <g id="zoomMin">
                        <use xlink:href="#rim" fill="#404040">
                                <set attributeName="fill" to="#808080" begin="zoomminus.mouseover" end="zoomminus.mouseout"/>
                        </use>
                        <path d="M-4,0h8" fill="none" stroke="white" stroke-width="1.5" pointer-events="none"/>
                </g>
                <g id="dirArrow">
                        <path fill="none" stroke="white" stroke-width="1.5" d="M0,-3.0v7 M-2.5,-0.5L0,-3.0L2.5,-0.5"/>
                </g>
               <g id="resetDef">
                       <use xlink:href="#rim2" fill="#404040">
                               <set attributeName="fill" to="#808080" begin="reset.mouseover" end="reset.mouseout"/>
                       </use>
               </g>
        </defs>

<script type="text/javascript">
var viewWidth = 908;
var viewHeight = 1487;
var sectionId = 'dynsection-1';
</script>
<script xlink:href="../../svgpan.js"/>
<svg id="graph" class="graph">
<g id="viewport">
<title>o2::fv0::CTF</title>
<!-- Node3 -->
<g id="node1" class="node">
<title>Node3</title>
<polygon fill="#bfbfbf" stroke="#000000" points="383.5,-.5 383.5,-57.5 476.5,-57.5 476.5,-.5 383.5,-.5"/>
<text text-anchor="middle" x="430" y="-45.5" font-family="Helvetica,sans-Serif" font-size="10.00" fill="#000000">o2::fv0::CTF</text>
<polyline fill="none" stroke="#000000" points="383.5,-38.5 476.5,-38.5 "/>
<text text-anchor="middle" x="430" y="-26.5" font-family="Helvetica,sans-Serif" font-size="10.00" fill="#000000"> </text>
<polyline fill="none" stroke="#000000" points="383.5,-19.5 476.5,-19.5 "/>
<text text-anchor="start" x="391.5" y="-7.5" font-family="Helvetica,sans-Serif" font-size="10.00" fill="#000000">+ ClassDefNV()</text>
</g>
<!-- Node4 -->
<g id="node2" class="node">
<title>Node4</title>
<g id="a_node2"><a xlink:href="../../dc/d08/classo2_1_1ctf_1_1EncodedBlocks.html" target="_top" xlink:title="{o2::ctf::EncodedBlocks\l\&lt; CTFHeader, 6, uint32_t \&gt;\n||+ setHeader()\l+ getHeader()\l+ getHeader()\l+ cloneHeader()\l+ getMetadata()\l+ getMetadata()\l+ getBlock()\l+ setANSHeader()\l+ getANSHeader()\l+ getANSHeader()\l+ empty()\l+ flat()\l+ clear()\l+ compactify()\l+ size()\l+ getFreeSize()\l+ copyToFlat()\l+ copyToFlat()\l+ appendToTree()\l+ readFromTree()\l+ encode()\l+ encode()\l+ decode()\l+ decode()\l+ print()\l+ getNBlocks()\l+ getMinAlignedSize()\l+ get()\l+ get()\l+ getImage()\l+ create()\l+ create()\l+ estimateBlockSize()\l+ expand()\l+ readFromTree()\l+ createDictionaryBlocks()\l# init()\l# estimateSize()\l# estimateSizeFromMetadata()\l# fillFlatCopy()\l# ClassDefNV()\l# relocate()\l# fillTreeBranch()\l# readTreeBranch()\l}">
<polygon fill="none" stroke="#000000" points="283.5,-105.5 283.5,-646.5 452.5,-646.5 452.5,-105.5 283.5,-105.5"/>
<text text-anchor="start" x="291.5" y="-634.5" font-family="Helvetica,sans-Serif" font-size="10.00" fill="#000000">o2::ctf::EncodedBlocks</text>
<text text-anchor="middle" x="368" y="-623.5" font-family="Helvetica,sans-Serif" font-size="10.00" fill="#000000">&lt; CTFHeader, 6, uint32_t &gt;</text>
<polyline fill="none" stroke="#000000" points="283.5,-616.5 452.5,-616.5 "/>
<text text-anchor="middle" x="368" y="-604.5" font-family="Helvetica,sans-Serif" font-size="10.00" fill="#000000"> </text>
<polyline fill="none" stroke="#000000" points="283.5,-597.5 452.5,-597.5 "/>
<text text-anchor="start" x="291.5" y="-585.5" font-family="Helvetica,sans-Serif" font-size="10.00" fill="#000000">+ setHeader()</text>
<text text-anchor="start" x="291.5" y="-574.5" font-family="Helvetica,sans-Serif" font-size="10.00" fill="#000000">+ getHeader()</text>
<text text-anchor="start" x="291.5" y="-563.5" font-family="Helvetica,sans-Serif" font-size="10.00" fill="#000000">+ getHeader()</text>
<text text-anchor="start" x="291.5" y="-552.5" font-family="Helvetica,sans-Serif" font-size="10.00" fill="#000000">+ cloneHeader()</text>
<text text-anchor="start" x="291.5" y="-541.5" font-family="Helvetica,sans-Serif" font-size="10.00" fill="#000000">+ getMetadata()</text>
<text text-anchor="start" x="291.5" y="-530.5" font-family="Helvetica,sans-Serif" font-size="10.00" fill="#000000">+ getMetadata()</text>
<text text-anchor="start" x="291.5" y="-519.5" font-family="Helvetica,sans-Serif" font-size="10.00" fill="#000000">+ getBlock()</text>
<text text-anchor="start" x="291.5" y="-508.5" font-family="Helvetica,sans-Serif" font-size="10.00" fill="#000000">+ setANSHeader()</text>
<text text-anchor="start" x="291.5" y="-497.5" font-family="Helvetica,sans-Serif" font-size="10.00" fill="#000000">+ getANSHeader()</text>
<text text-anchor="start" x="291.5" y="-486.5" font-family="Helvetica,sans-Serif" font-size="10.00" fill="#000000">+ getANSHeader()</text>
<text text-anchor="start" x="291.5" y="-475.5" font-family="Helvetica,sans-Serif" font-size="10.00" fill="#000000">+ empty()</text>
<text text-anchor="start" x="291.5" y="-464.5" font-family="Helvetica,sans-Serif" font-size="10.00" fill="#000000">+ flat()</text>
<text text-anchor="start" x="291.5" y="-453.5" font-family="Helvetica,sans-Serif" font-size="10.00" fill="#000000">+ clear()</text>
<text text-anchor="start" x="291.5" y="-442.5" font-family="Helvetica,sans-Serif" font-size="10.00" fill="#000000">+ compactify()</text>
<text text-anchor="start" x="291.5" y="-431.5" font-family="Helvetica,sans-Serif" font-size="10.00" fill="#000000">+ size()</text>
<text text-anchor="start" x="291.5" y="-420.5" font-family="Helvetica,sans-Serif" font-size="10.00" fill="#000000">+ getFreeSize()</text>
<text text-anchor="start" x="291.5" y="-409.5" font-family="Helvetica,sans-Serif" font-size="10.00" fill="#000000">+ copyToFlat()</text>
<text text-anchor="start" x="291.5" y="-398.5" font-family="Helvetica,sans-Serif" font-size="10.00" fill="#000000">+ copyToFlat()</text>
<text text-anchor="start" x="291.5" y="-387.5" font-family="Helvetica,sans-Serif" font-size="10.00" fill="#000000">+ appendToTree()</text>
<text text-anchor="start" x="291.5" y="-376.5" font-family="Helvetica,sans-Serif" font-size="10.00" fill="#000000">+ readFromTree()</text>
<text text-anchor="start" x="291.5" y="-365.5" font-family="Helvetica,sans-Serif" font-size="10.00" fill="#000000">+ encode()</text>
<text text-anchor="start" x="291.5" y="-354.5" font-family="Helvetica,sans-Serif" font-size="10.00" fill="#000000">+ encode()</text>
<text text-anchor="start" x="291.5" y="-343.5" font-family="Helvetica,sans-Serif" font-size="10.00" fill="#000000">+ decode()</text>
<text text-anchor="start" x="291.5" y="-332.5" font-family="Helvetica,sans-Serif" font-size="10.00" fill="#000000">+ decode()</text>
<text text-anchor="start" x="291.5" y="-321.5" font-family="Helvetica,sans-Serif" font-size="10.00" fill="#000000">+ print()</text>
<text text-anchor="start" x="291.5" y="-310.5" font-family="Helvetica,sans-Serif" font-size="10.00" fill="#000000">+ getNBlocks()</text>
<text text-anchor="start" x="291.5" y="-299.5" font-family="Helvetica,sans-Serif" font-size="10.00" fill="#000000">+ getMinAlignedSize()</text>
<text text-anchor="start" x="291.5" y="-288.5" font-family="Helvetica,sans-Serif" font-size="10.00" fill="#000000">+ get()</text>
<text text-anchor="start" x="291.5" y="-277.5" font-family="Helvetica,sans-Serif" font-size="10.00" fill="#000000">+ get()</text>
<text text-anchor="start" x="291.5" y="-266.5" font-family="Helvetica,sans-Serif" font-size="10.00" fill="#000000">+ getImage()</text>
<text text-anchor="start" x="291.5" y="-255.5" font-family="Helvetica,sans-Serif" font-size="10.00" fill="#000000">+ create()</text>
<text text-anchor="start" x="291.5" y="-244.5" font-family="Helvetica,sans-Serif" font-size="10.00" fill="#000000">+ create()</text>
<text text-anchor="start" x="291.5" y="-233.5" font-family="Helvetica,sans-Serif" font-size="10.00" fill="#000000">+ estimateBlockSize()</text>
<text text-anchor="start" x="291.5" y="-222.5" font-family="Helvetica,sans-Serif" font-size="10.00" fill="#000000">+ expand()</text>
<text text-anchor="start" x="291.5" y="-211.5" font-family="Helvetica,sans-Serif" font-size="10.00" fill="#000000">+ readFromTree()</text>
<text text-anchor="start" x="291.5" y="-200.5" font-family="Helvetica,sans-Serif" font-size="10.00" fill="#000000">+ createDictionaryBlocks()</text>
<text text-anchor="start" x="291.5" y="-189.5" font-family="Helvetica,sans-Serif" font-size="10.00" fill="#000000"># init()</text>
<text text-anchor="start" x="291.5" y="-178.5" font-family="Helvetica,sans-Serif" font-size="10.00" fill="#000000"># estimateSize()</text>
<text text-anchor="start" x="291.5" y="-167.5" font-family="Helvetica,sans-Serif" font-size="10.00" fill="#000000"># estimateSizeFromMetadata()</text>
<text text-anchor="start" x="291.5" y="-156.5" font-family="Helvetica,sans-Serif" font-size="10.00" fill="#000000"># fillFlatCopy()</text>
<text text-anchor="start" x="291.5" y="-145.5" font-family="Helvetica,sans-Serif" font-size="10.00" fill="#000000"># ClassDefNV()</text>
<text text-anchor="start" x="291.5" y="-134.5" font-family="Helvetica,sans-Serif" font-size="10.00" fill="#000000"># relocate()</text>
<text text-anchor="start" x="291.5" y="-123.5" font-family="Helvetica,sans-Serif" font-size="10.00" fill="#000000"># fillTreeBranch()</text>
<text text-anchor="start" x="291.5" y="-112.5" font-family="Helvetica,sans-Serif" font-size="10.00" fill="#000000"># readTreeBranch()</text>
</a>
</g>
</g>
<!-- Node4&#45;&gt;Node3 -->
<g id="edge1" class="edge">
<title>Node4&#45;&gt;Node3</title>
<path fill="none" stroke="#191970" d="M418.2139,-94.9644C420.7783,-80.6115 423.0532,-67.8798 424.9036,-57.5232"/>
<polygon fill="none" stroke="#191970" points="414.7074,-94.6909 416.3938,-105.1506 421.5982,-95.9222 414.7074,-94.6909"/>
</g>
<!-- Node5 -->
<g id="node3" class="node">
<title>Node5</title>
<g id="a_node3"><a xlink:href="../../da/d30/classstd_1_1array_3_01o2_1_1ctf_1_1Block_3_01uint32__t_01_4_00_01N_01_4.html" target="_top" xlink:title="{array\&lt; o2::ctf::Block\l\&lt; uint32_t \&gt;, N \&gt;\n||}">
<polygon fill="none" stroke="#000000" points="7.5,-931 7.5,-999 124.5,-999 124.5,-931 7.5,-931"/>
<text text-anchor="start" x="15.5" y="-987" font-family="Helvetica,sans-Serif" font-size="10.00" fill="#000000">array&lt; o2::ctf::Block</text>
<text text-anchor="middle" x="66" y="-976" font-family="Helvetica,sans-Serif" font-size="10.00" fill="#000000">&lt; uint32_t &gt;, N &gt;</text>
<polyline fill="none" stroke="#000000" points="7.5,-969 124.5,-969 "/>
<text text-anchor="middle" x="66" y="-957" font-family="Helvetica,sans-Serif" font-size="10.00" fill="#000000"> </text>
<polyline fill="none" stroke="#000000" points="7.5,-950 124.5,-950 "/>
<text text-anchor="middle" x="66" y="-938" font-family="Helvetica,sans-Serif" font-size="10.00" fill="#000000"> </text>
</a>
</g>
</g>
<!-- Node5&#45;&gt;Node4 -->
<g id="edge2" class="edge">
<title>Node5&#45;&gt;Node4</title>
<path fill="none" stroke="#404040" d="M70.0928,-930.6057C77.3444,-877.6903 95.3744,-774.0471 133,-694 169.6587,-616.0098 226.8732,-538.0409 275.6686,-478.826"/>
<polygon fill="none" stroke="#404040" points="275.7577,-478.7188 276.513,-471.5473 283.4233,-469.4862 282.668,-476.6577 275.7577,-478.7188"/>
<text text-anchor="middle" x="175" y="-668" font-family="Helvetica,sans-Serif" font-size="10.00" fill="#000000"> #mBlocks</text>
</g>
<!-- Node6 -->
<g id="node4" class="node">
<title>Node6</title>
<polygon fill="none" stroke="#bfbfbf" points="238.5,-1294.5 238.5,-1351.5 399.5,-1351.5 399.5,-1294.5 238.5,-1294.5"/>
<text text-anchor="middle" x="319" y="-1339.5" font-family="Helvetica,sans-Serif" font-size="10.00" fill="#000000">array&lt; o2::ctf::Metadata, N &gt;</text>
<polyline fill="none" stroke="#bfbfbf" points="238.5,-1332.5 399.5,-1332.5 "/>
<text text-anchor="middle" x="319" y="-1320.5" font-family="Helvetica,sans-Serif" font-size="10.00" fill="#000000"> </text>
<polyline fill="none" stroke="#bfbfbf" points="238.5,-1313.5 399.5,-1313.5 "/>
<text text-anchor="middle" x="319" y="-1301.5" font-family="Helvetica,sans-Serif" font-size="10.00" fill="#000000"> </text>
</g>
<!-- Node6&#45;&gt;Node4 -->
<g id="edge3" class="edge">
<title>Node6&#45;&gt;Node4</title>
<path fill="none" stroke="#404040" d="M319.1205,-1294.4433C319.6454,-1205.4779 322.4263,-925.4164 337,-694 337.7321,-682.3743 338.5528,-670.5161 339.4424,-658.5418"/>
<polygon fill="none" stroke="#404040" points="339.4456,-658.4986 335.9115,-652.2129 340.3544,-646.533 343.8885,-652.8187 339.4456,-658.4986"/>
<text text-anchor="middle" x="370.5" y="-962.5" font-family="Helvetica,sans-Serif" font-size="10.00" fill="#000000"> #mMetadata</text>
</g>
<!-- Node17 -->
<g id="node15" class="node">
<title>Node17</title>
<g id="a_node15"><a xlink:href="../../dc/d08/classo2_1_1ctf_1_1EncodedBlocks.html" target="_top" xlink:title="&lt;&lt;======================== Auxiliary classes =======================&lt;&lt; ">
<polygon fill="none" stroke="#000000" points="521.5,-694.5 521.5,-1235.5 690.5,-1235.5 690.5,-694.5 521.5,-694.5"/>
<text text-anchor="start" x="529.5" y="-1223.5" font-family="Helvetica,sans-Serif" font-size="10.00" fill="#000000">o2::ctf::EncodedBlocks</text>
<text text-anchor="middle" x="606" y="-1212.5" font-family="Helvetica,sans-Serif" font-size="10.00" fill="#000000">&lt; H, N, W &gt;</text>
<polyline fill="none" stroke="#000000" points="521.5,-1205.5 690.5,-1205.5 "/>
<text text-anchor="middle" x="606" y="-1193.5" font-family="Helvetica,sans-Serif" font-size="10.00" fill="#000000"> </text>
<polyline fill="none" stroke="#000000" points="521.5,-1186.5 690.5,-1186.5 "/>
<text text-anchor="start" x="529.5" y="-1174.5" font-family="Helvetica,sans-Serif" font-size="10.00" fill="#000000">+ setHeader()</text>
<text text-anchor="start" x="529.5" y="-1163.5" font-family="Helvetica,sans-Serif" font-size="10.00" fill="#000000">+ getHeader()</text>
<text text-anchor="start" x="529.5" y="-1152.5" font-family="Helvetica,sans-Serif" font-size="10.00" fill="#000000">+ getHeader()</text>
<text text-anchor="start" x="529.5" y="-1141.5" font-family="Helvetica,sans-Serif" font-size="10.00" fill="#000000">+ cloneHeader()</text>
<text text-anchor="start" x="529.5" y="-1130.5" font-family="Helvetica,sans-Serif" font-size="10.00" fill="#000000">+ getMetadata()</text>
<text text-anchor="start" x="529.5" y="-1119.5" font-family="Helvetica,sans-Serif" font-size="10.00" fill="#000000">+ getMetadata()</text>
<text text-anchor="start" x="529.5" y="-1108.5" font-family="Helvetica,sans-Serif" font-size="10.00" fill="#000000">+ getBlock()</text>
<text text-anchor="start" x="529.5" y="-1097.5" font-family="Helvetica,sans-Serif" font-size="10.00" fill="#000000">+ setANSHeader()</text>
<text text-anchor="start" x="529.5" y="-1086.5" font-family="Helvetica,sans-Serif" font-size="10.00" fill="#000000">+ getANSHeader()</text>
<text text-anchor="start" x="529.5" y="-1075.5" font-family="Helvetica,sans-Serif" font-size="10.00" fill="#000000">+ getANSHeader()</text>
<text text-anchor="start" x="529.5" y="-1064.5" font-family="Helvetica,sans-Serif" font-size="10.00" fill="#000000">+ empty()</text>
<text text-anchor="start" x="529.5" y="-1053.5" font-family="Helvetica,sans-Serif" font-size="10.00" fill="#000000">+ flat()</text>
<text text-anchor="start" x="529.5" y="-1042.5" font-family="Helvetica,sans-Serif" font-size="10.00" fill="#000000">+ clear()</text>
<text text-anchor="start" x="529.5" y="-1031.5" font-family="Helvetica,sans-Serif" font-size="10.00" fill="#000000">+ compactify()</text>
<text text-anchor="start" x="529.5" y="-1020.5" font-family="Helvetica,sans-Serif" font-size="10.00" fill="#000000">+ size()</text>
<text text-anchor="start" x="529.5" y="-1009.5" font-family="Helvetica,sans-Serif" font-size="10.00" fill="#000000">+ getFreeSize()</text>
<text text-anchor="start" x="529.5" y="-998.5" font-family="Helvetica,sans-Serif" font-size="10.00" fill="#000000">+ copyToFlat()</text>
<text text-anchor="start" x="529.5" y="-987.5" font-family="Helvetica,sans-Serif" font-size="10.00" fill="#000000">+ copyToFlat()</text>
<text text-anchor="start" x="529.5" y="-976.5" font-family="Helvetica,sans-Serif" font-size="10.00" fill="#000000">+ appendToTree()</text>
<text text-anchor="start" x="529.5" y="-965.5" font-family="Helvetica,sans-Serif" font-size="10.00" fill="#000000">+ readFromTree()</text>
<text text-anchor="start" x="529.5" y="-954.5" font-family="Helvetica,sans-Serif" font-size="10.00" fill="#000000">+ encode()</text>
<text text-anchor="start" x="529.5" y="-943.5" font-family="Helvetica,sans-Serif" font-size="10.00" fill="#000000">+ encode()</text>
<text text-anchor="start" x="529.5" y="-932.5" font-family="Helvetica,sans-Serif" font-size="10.00" fill="#000000">+ decode()</text>
<text text-anchor="start" x="529.5" y="-921.5" font-family="Helvetica,sans-Serif" font-size="10.00" fill="#000000">+ decode()</text>
<text text-anchor="start" x="529.5" y="-910.5" font-family="Helvetica,sans-Serif" font-size="10.00" fill="#000000">+ print()</text>
<text text-anchor="start" x="529.5" y="-899.5" font-family="Helvetica,sans-Serif" font-size="10.00" fill="#000000">+ getNBlocks()</text>
<text text-anchor="start" x="529.5" y="-888.5" font-family="Helvetica,sans-Serif" font-size="10.00" fill="#000000">+ getMinAlignedSize()</text>
<text text-anchor="start" x="529.5" y="-877.5" font-family="Helvetica,sans-Serif" font-size="10.00" fill="#000000">+ get()</text>
<text text-anchor="start" x="529.5" y="-866.5" font-family="Helvetica,sans-Serif" font-size="10.00" fill="#000000">+ get()</text>
<text text-anchor="start" x="529.5" y="-855.5" font-family="Helvetica,sans-Serif" font-size="10.00" fill="#000000">+ getImage()</text>
<text text-anchor="start" x="529.5" y="-844.5" font-family="Helvetica,sans-Serif" font-size="10.00" fill="#000000">+ create()</text>
<text text-anchor="start" x="529.5" y="-833.5" font-family="Helvetica,sans-Serif" font-size="10.00" fill="#000000">+ create()</text>
<text text-anchor="start" x="529.5" y="-822.5" font-family="Helvetica,sans-Serif" font-size="10.00" fill="#000000">+ estimateBlockSize()</text>
<text text-anchor="start" x="529.5" y="-811.5" font-family="Helvetica,sans-Serif" font-size="10.00" fill="#000000">+ expand()</text>
<text text-anchor="start" x="529.5" y="-800.5" font-family="Helvetica,sans-Serif" font-size="10.00" fill="#000000">+ readFromTree()</text>
<text text-anchor="start" x="529.5" y="-789.5" font-family="Helvetica,sans-Serif" font-size="10.00" fill="#000000">+ createDictionaryBlocks()</text>
<text text-anchor="start" x="529.5" y="-778.5" font-family="Helvetica,sans-Serif" font-size="10.00" fill="#000000"># init()</text>
<text text-anchor="start" x="529.5" y="-767.5" font-family="Helvetica,sans-Serif" font-size="10.00" fill="#000000"># estimateSize()</text>
<text text-anchor="start" x="529.5" y="-756.5" font-family="Helvetica,sans-Serif" font-size="10.00" fill="#000000"># estimateSizeFromMetadata()</text>
<text text-anchor="start" x="529.5" y="-745.5" font-family="Helvetica,sans-Serif" font-size="10.00" fill="#000000"># fillFlatCopy()</text>
<text text-anchor="start" x="529.5" y="-734.5" font-family="Helvetica,sans-Serif" font-size="10.00" fill="#000000"># ClassDefNV()</text>
<text text-anchor="start" x="529.5" y="-723.5" font-family="Helvetica,sans-Serif" font-size="10.00" fill="#000000"># relocate()</text>
<text text-anchor="start" x="529.5" y="-712.5" font-family="Helvetica,sans-Serif" font-size="10.00" fill="#000000"># fillTreeBranch()</text>
<text text-anchor="start" x="529.5" y="-701.5" font-family="Helvetica,sans-Serif" font-size="10.00" fill="#000000"># readTreeBranch()</text>
</a>
</g>
</g>
<!-- Node6&#45;&gt;Node17 -->
<g id="edge15" class="edge">
<title>Node6&#45;&gt;Node17</title>
<path fill="none" stroke="#404040" d="M355.4994,-1294.1962C374.8757,-1280.1902 399.6639,-1264.2166 424,-1254 458.8038,-1239.3889 478.5488,-1260.8056 507,-1236 508.8759,-1234.3644 510.7164,-1232.6902 512.5219,-1230.9796"/>
<polygon fill="none" stroke="#404040" points="512.8289,-1230.6688 514.2001,-1223.5893 521.2624,-1222.132 519.8913,-1229.2116 512.8289,-1230.6688"/>
<text text-anchor="middle" x="457.5" y="-1257" font-family="Helvetica,sans-Serif" font-size="10.00" fill="#000000"> #mMetadata</text>
</g>
<!-- Node7 -->
<g id="node5" class="node">
<title>Node7</title>
<g id="a_node5"><a xlink:href="../../d5/d54/structo2_1_1ctf_1_1CTFHeader.html" target="_top" xlink:title="{o2::ctf::CTFHeader\n||+ describe()\l+ print()\l}">
<polygon fill="none" stroke="#000000" points="142.5,-931 142.5,-999 249.5,-999 249.5,-931 142.5,-931"/>
<text text-anchor="middle" x="196" y="-987" font-family="Helvetica,sans-Serif" font-size="10.00" fill="#000000">o2::ctf::CTFHeader</text>
<polyline fill="none" stroke="#000000" points="142.5,-980 249.5,-980 "/>
<text text-anchor="middle" x="196" y="-968" font-family="Helvetica,sans-Serif" font-size="10.00" fill="#000000"> </text>
<polyline fill="none" stroke="#000000" points="142.5,-961 249.5,-961 "/>
<text text-anchor="start" x="150.5" y="-949" font-family="Helvetica,sans-Serif" font-size="10.00" fill="#000000">+ describe()</text>
<text text-anchor="start" x="150.5" y="-938" font-family="Helvetica,sans-Serif" font-size="10.00" fill="#000000">+ print()</text>
</a>
</g>
</g>
<!-- Node7&#45;&gt;Node4 -->
<g id="edge4" class="edge">
<title>Node7&#45;&gt;Node4</title>
<path fill="none" stroke="#404040" d="M198.0058,-930.6192C201.9679,-874.1867 212.8939,-758.8106 240,-665 250.2744,-629.4416 264.0205,-592.5584 278.6955,-557.517"/>
<polygon fill="none" stroke="#404040" points="278.8058,-557.2568 277.4649,-550.1715 283.4896,-546.2086 284.8304,-553.294 278.8058,-557.2568"/>
<text text-anchor="middle" x="268.5" y="-668" font-family="Helvetica,sans-Serif" font-size="10.00" fill="#000000"> #mHeader</text>
</g>
<!-- Node8 -->
<g id="node6" class="node">
<title>Node8</title>
<polygon fill="none" stroke="#bfbfbf" points="88.5,-1294.5 88.5,-1351.5 141.5,-1351.5 141.5,-1294.5 88.5,-1294.5"/>
<text text-anchor="middle" x="115" y="-1339.5" font-family="Helvetica,sans-Serif" font-size="10.00" fill="#000000">mask_t</text>
<polyline fill="none" stroke="#bfbfbf" points="88.5,-1332.5 141.5,-1332.5 "/>
<text text-anchor="middle" x="115" y="-1320.5" font-family="Helvetica,sans-Serif" font-size="10.00" fill="#000000"> </text>
<polyline fill="none" stroke="#bfbfbf" points="88.5,-1313.5 141.5,-1313.5 "/>
<text text-anchor="middle" x="115" y="-1301.5" font-family="Helvetica,sans-Serif" font-size="10.00" fill="#000000"> </text>
</g>
<!-- Node8&#45;&gt;Node7 -->
<g id="edge5" class="edge">
<title>Node8&#45;&gt;Node7</title>
<path fill="none" stroke="#404040" d="M121.4916,-1294.3085C135.485,-1232.4613 168.5943,-1086.1263 185.569,-1011.1024"/>
<polygon fill="none" stroke="#404040" points="185.5996,-1010.9667 183.0224,-1004.2319 188.2479,-999.2625 190.8251,-1005.9973 185.5996,-1010.9667"/>
<text text-anchor="middle" x="160" y="-1257" font-family="Helvetica,sans-Serif" font-size="10.00" fill="#000000"> +detectors</text>
</g>
<!-- Node9 -->
<g id="node7" class="node">
<title>Node9</title>
<g id="a_node7"><a xlink:href="../../d6/d30/classuint64__t.html" target="_top" xlink:title="{uint64_t\n||}">
<polygon fill="none" stroke="#000000" points="164,-1294.5 164,-1351.5 220,-1351.5 220,-1294.5 164,-1294.5"/>
<text text-anchor="middle" x="192" y="-1339.5" font-family="Helvetica,sans-Serif" font-size="10.00" fill="#000000">uint64_t</text>
<polyline fill="none" stroke="#000000" points="164,-1332.5 220,-1332.5 "/>
<text text-anchor="middle" x="192" y="-1320.5" font-family="Helvetica,sans-Serif" font-size="10.00" fill="#000000"> </text>
<polyline fill="none" stroke="#000000" points="164,-1313.5 220,-1313.5 "/>
<text text-anchor="middle" x="192" y="-1301.5" font-family="Helvetica,sans-Serif" font-size="10.00" fill="#000000"> </text>
</a>
</g>
</g>
<!-- Node9&#45;&gt;Node7 -->
<g id="edge6" class="edge">
<title>Node9&#45;&gt;Node7</title>
<path fill="none" stroke="#404040" d="M192.3206,-1294.3085C193.0102,-1232.5888 194.6399,-1086.7294 195.4797,-1011.5674"/>
<polygon fill="none" stroke="#404040" points="195.483,-1011.2618 191.5503,-1005.2174 195.6172,-999.2625 199.5498,-1005.3069 195.483,-1011.2618"/>
<text text-anchor="middle" x="207" y="-1257" font-family="Helvetica,sans-Serif" font-size="10.00" fill="#000000"> +run</text>
</g>
<!-- Node10 -->
<g id="node8" class="node">
<title>Node10</title>
<g id="a_node8"><a xlink:href="../../d3/d87/classuint32__t.html" target="_top" xlink:title="{uint32_t\n||}">
<polygon fill="none" stroke="#000000" points="0,-1294.5 0,-1351.5 56,-1351.5 56,-1294.5 0,-1294.5"/>
<text text-anchor="middle" x="28" y="-1339.5" font-family="Helvetica,sans-Serif" font-size="10.00" fill="#000000">uint32_t</text>
<polyline fill="none" stroke="#000000" points="0,-1332.5 56,-1332.5 "/>
<text text-anchor="middle" x="28" y="-1320.5" font-family="Helvetica,sans-Serif" font-size="10.00" fill="#000000"> </text>
<polyline fill="none" stroke="#000000" points="0,-1313.5 56,-1313.5 "/>
<text text-anchor="middle" x="28" y="-1301.5" font-family="Helvetica,sans-Serif" font-size="10.00" fill="#000000"> </text>
</a>
</g>
</g>
<!-- Node10&#45;&gt;Node7 -->
<g id="edge7" class="edge">
<title>Node10&#45;&gt;Node7</title>
<path fill="none" stroke="#404040" d="M35.3459,-1294.4988C40.3699,-1280.3983 48.4527,-1264.2472 61,-1254 86.5475,-1233.1356 109.8702,-1259.5162 133,-1236 192.1335,-1175.8788 199.913,-1071.724 198.8801,-1011.5547"/>
<polygon fill="none" stroke="#404040" points="198.8761,-1011.4098 194.7102,-1005.5238 198.5412,-999.4145 202.7071,-1005.3005 198.8761,-1011.4098"/>
<text text-anchor="middle" x="93" y="-1257" font-family="Helvetica,sans-Serif" font-size="10.00" fill="#000000"> +firstTForbit</text>
</g>
<!-- Node11 -->
<g id="node9" class="node">
<title>Node11</title>
<g id="a_node9"><a xlink:href="../../dc/dbb/structo2_1_1ctf_1_1ANSHeader.html" target="_top" xlink:title="&gt;&gt;======================== Auxiliary classes =======================&gt;&gt; ">
<polygon fill="none" stroke="#000000" points="417.5,-1289 417.5,-1357 526.5,-1357 526.5,-1289 417.5,-1289"/>
<text text-anchor="middle" x="472" y="-1345" font-family="Helvetica,sans-Serif" font-size="10.00" fill="#000000">o2::ctf::ANSHeader</text>
<polyline fill="none" stroke="#000000" points="417.5,-1338 526.5,-1338 "/>
<text text-anchor="middle" x="472" y="-1326" font-family="Helvetica,sans-Serif" font-size="10.00" fill="#000000"> </text>
<polyline fill="none" stroke="#000000" points="417.5,-1319 526.5,-1319 "/>
<text text-anchor="start" x="425.5" y="-1307" font-family="Helvetica,sans-Serif" font-size="10.00" fill="#000000">+ clear()</text>
<text text-anchor="start" x="425.5" y="-1296" font-family="Helvetica,sans-Serif" font-size="10.00" fill="#000000">+ ClassDefNV()</text>
</a>
</g>
</g>
<!-- Node11&#45;&gt;Node4 -->
<g id="edge8" class="edge">
<title>Node11&#45;&gt;Node4</title>
<path fill="none" stroke="#404040" d="M454.7191,-1288.7407C447.6314,-1273.0637 440.1329,-1254.0029 436,-1236 382.0082,-1000.8094 424.6909,-934.4197 404,-694 402.9996,-682.3752 401.921,-670.5177 400.7839,-658.5439"/>
<polygon fill="none" stroke="#404040" points="400.7778,-658.4805 396.2213,-652.8914 399.6279,-646.5357 404.1845,-652.1248 400.7778,-658.4805"/>
<text text-anchor="middle" x="474.5" y="-962.5" font-family="Helvetica,sans-Serif" font-size="10.00" fill="#000000"> #mANSHeader</text>
</g>
<!-- Node11&#45;&gt;Node17 -->
<g id="edge18" class="edge">
<title>Node11&#45;&gt;Node17</title>
<path fill="none" stroke="#404040" d="M486.0529,-1288.8042C492.5489,-1272.8119 500.293,-1253.4802 507,-1236 510.3434,-1227.2863 513.7245,-1218.4054 517.1202,-1209.4277"/>
<polygon fill="none" stroke="#404040" points="517.192,-1209.2374 515.5672,-1202.2117 521.4275,-1198.0097 523.0523,-1205.0354 517.192,-1209.2374"/>
<text text-anchor="middle" x="537.5" y="-1257" font-family="Helvetica,sans-Serif" font-size="10.00" fill="#000000"> #mANSHeader</text>
</g>
<!-- Node12 -->
<g id="node10" class="node">
<title>Node12</title>
<polygon fill="none" stroke="#bfbfbf" points="435,-1421.5 435,-1478.5 485,-1478.5 485,-1421.5 435,-1421.5"/>
<text text-anchor="middle" x="460" y="-1466.5" font-family="Helvetica,sans-Serif" font-size="10.00" fill="#000000">uint8_t</text>
<polyline fill="none" stroke="#bfbfbf" points="435,-1459.5 485,-1459.5 "/>
<text text-anchor="middle" x="460" y="-1447.5" font-family="Helvetica,sans-Serif" font-size="10.00" fill="#000000"> </text>
<polyline fill="none" stroke="#bfbfbf" points="435,-1440.5 485,-1440.5 "/>
<text text-anchor="middle" x="460" y="-1428.5" font-family="Helvetica,sans-Serif" font-size="10.00" fill="#000000"> </text>
</g>
<!-- Node12&#45;&gt;Node11 -->
<g id="edge9" class="edge">
<title>Node12&#45;&gt;Node11</title>
<path fill="none" stroke="#404040" d="M459.309,-1421.4011C459.2937,-1408.96 459.6597,-1394.2306 461,-1381 461.3925,-1377.1252 461.9109,-1373.1228 462.5091,-1369.1161"/>
<polygon fill="none" stroke="#404040" points="462.5214,-1369.0422 459.5639,-1362.4654 464.4972,-1357.2059 467.4547,-1363.7827 462.5214,-1369.0422"/>
<text text-anchor="middle" x="499" y="-1395" font-family="Helvetica,sans-Serif" font-size="10.00" fill="#000000"> +minorVersion</text>
<text text-anchor="middle" x="499" y="-1384" font-family="Helvetica,sans-Serif" font-size="10.00" fill="#000000">+majorVersion</text>
</g>
<!-- Node13 -->
<g id="node11" class="node">
<title>Node13</title>
<g id="a_node11"><a xlink:href="../../d0/d1c/structo2_1_1ctf_1_1Registry.html" target="_top" xlink:title="registry struct for the buffer start and offsets of writable space ">
<polygon fill="none" stroke="#000000" points="545,-1283.5 545,-1362.5 667,-1362.5 667,-1283.5 545,-1283.5"/>
<text text-anchor="middle" x="606" y="-1350.5" font-family="Helvetica,sans-Serif" font-size="10.00" fill="#000000">o2::ctf::Registry</text>
<polyline fill="none" stroke="#000000" points="545,-1343.5 667,-1343.5 "/>
<text text-anchor="middle" x="606" y="-1331.5" font-family="Helvetica,sans-Serif" font-size="10.00" fill="#000000"> </text>
<polyline fill="none" stroke="#000000" points="545,-1324.5 667,-1324.5 "/>
<text text-anchor="start" x="553" y="-1312.5" font-family="Helvetica,sans-Serif" font-size="10.00" fill="#000000">+ getFreeBlockStart()</text>
<text text-anchor="start" x="553" y="-1301.5" font-family="Helvetica,sans-Serif" font-size="10.00" fill="#000000">+ getFreeSize()</text>
<text text-anchor="start" x="553" y="-1290.5" font-family="Helvetica,sans-Serif" font-size="10.00" fill="#000000">+ ClassDefNV()</text>
</a>
</g>
</g>
<!-- Node13&#45;&gt;Node4 -->
<g id="edge10" class="edge">
<title>Node13&#45;&gt;Node4</title>
<path fill="none" stroke="#404040" d="M667.0966,-1287.3219C670.4092,-1285.7841 673.7231,-1284.3313 677,-1283 705.9639,-1271.2324 725.9307,-1289.7739 745,-1265 900.2748,-1063.2752 849.2656,-900.2109 700,-694 680.4948,-667.0535 663.2171,-673.2841 631,-665 597.1541,-656.2971 506.8574,-668.4091 462.8813,-646.3245"/>
<polygon fill="none" stroke="#404040" points="462.648,-646.1764 455.4387,-646.3366 452.5179,-639.7435 459.7273,-639.5832 462.648,-646.1764"/>
<text text-anchor="middle" x="869.5" y="-962.5" font-family="Helvetica,sans-Serif" font-size="10.00" fill="#000000"> #mRegistry</text>
</g>
<!-- Node13&#45;&gt;Node17 -->
<g id="edge19" class="edge">
<title>Node13&#45;&gt;Node17</title>
<path fill="none" stroke="#404040" d="M605.2259,-1283.3777C605.1319,-1277.2253 605.0512,-1270.9416 605,-1265 604.9579,-1260.1113 604.9915,-1258.8889 605,-1254 605.0036,-1251.9303 605.0073,-1249.8523 605.0112,-1247.7668"/>
<polygon fill="none" stroke="#404040" points="605.0111,-1247.7456 601.023,-1241.7377 605.0348,-1235.7456 609.0229,-1241.7535 605.0111,-1247.7456"/>
<text text-anchor="middle" x="635.5" y="-1257" font-family="Helvetica,sans-Serif" font-size="10.00" fill="#000000"> #mRegistry</text>
</g>
<!-- Node14 -->
<g id="node12" class="node">
<title>Node14</title>
<polygon fill="none" stroke="#bfbfbf" points="539,-1421.5 539,-1478.5 577,-1478.5 577,-1421.5 539,-1421.5"/>
<text text-anchor="middle" x="558" y="-1466.5" font-family="Helvetica,sans-Serif" font-size="10.00" fill="#000000">char</text>
<polyline fill="none" stroke="#bfbfbf" points="539,-1459.5 577,-1459.5 "/>
<text text-anchor="middle" x="558" y="-1447.5" font-family="Helvetica,sans-Serif" font-size="10.00" fill="#000000"> </text>
<polyline fill="none" stroke="#bfbfbf" points="539,-1440.5 577,-1440.5 "/>
<text text-anchor="middle" x="558" y="-1428.5" font-family="Helvetica,sans-Serif" font-size="10.00" fill="#000000"> </text>
</g>
<!-- Node14&#45;&gt;Node13 -->
<g id="edge11" class="edge">
<title>Node14&#45;&gt;Node13</title>
<path fill="none" stroke="#404040" d="M561.0915,-1421.1725C563.0352,-1408.5568 566.1319,-1393.7553 571,-1381 571.954,-1378.5003 573.0149,-1375.9868 574.1561,-1373.4817"/>
<polygon fill="none" stroke="#404040" points="574.2208,-1373.3523 573.3292,-1366.1965 579.5916,-1362.6213 580.4832,-1369.7771 574.2208,-1373.3523"/>
<text text-anchor="middle" x="589" y="-1389.5" font-family="Helvetica,sans-Serif" font-size="10.00" fill="#000000"> +head</text>
</g>
<!-- Node15 -->
<g id="node13" class="node">
<title>Node15</title>
<polygon fill="none" stroke="#bfbfbf" points="595.5,-1421.5 595.5,-1478.5 640.5,-1478.5 640.5,-1421.5 595.5,-1421.5"/>
<text text-anchor="middle" x="618" y="-1466.5" font-family="Helvetica,sans-Serif" font-size="10.00" fill="#000000">size_t</text>
<polyline fill="none" stroke="#bfbfbf" points="595.5,-1459.5 640.5,-1459.5 "/>
<text text-anchor="middle" x="618" y="-1447.5" font-family="Helvetica,sans-Serif" font-size="10.00" fill="#000000"> </text>
<polyline fill="none" stroke="#bfbfbf" points="595.5,-1440.5 640.5,-1440.5 "/>
<text text-anchor="middle" x="618" y="-1428.5" font-family="Helvetica,sans-Serif" font-size="10.00" fill="#000000"> </text>
</g>
<!-- Node15&#45;&gt;Node13 -->
<g id="edge12" class="edge">
<title>Node15&#45;&gt;Node13</title>
<path fill="none" stroke="#404040" d="M615.307,-1421.4987C614.0202,-1407.8801 612.4382,-1391.1381 610.9461,-1375.3462"/>
<polygon fill="none" stroke="#404040" points="610.9049,-1374.9098 606.3582,-1369.3127 609.776,-1362.963 614.3228,-1368.5601 610.9049,-1374.9098"/>
<text text-anchor="middle" x="649.5" y="-1395" font-family="Helvetica,sans-Serif" font-size="10.00" fill="#000000"> +offsFreeStart</text>
<text text-anchor="middle" x="649.5" y="-1384" font-family="Helvetica,sans-Serif" font-size="10.00" fill="#000000">+size</text>
</g>
<!-- Node16 -->
<g id="node14" class="node">
<title>Node16</title>
<polygon fill="none" stroke="#bfbfbf" points="699.5,-1421.5 699.5,-1478.5 728.5,-1478.5 728.5,-1421.5 699.5,-1421.5"/>
<text text-anchor="middle" x="714" y="-1466.5" font-family="Helvetica,sans-Serif" font-size="10.00" fill="#000000">int</text>
<polyline fill="none" stroke="#bfbfbf" points="699.5,-1459.5 728.5,-1459.5 "/>
<text text-anchor="middle" x="714" y="-1447.5" font-family="Helvetica,sans-Serif" font-size="10.00" fill="#000000"> </text>
<polyline fill="none" stroke="#bfbfbf" points="699.5,-1440.5 728.5,-1440.5 "/>
<text text-anchor="middle" x="714" y="-1428.5" font-family="Helvetica,sans-Serif" font-size="10.00" fill="#000000"> </text>
</g>
<!-- Node16&#45;&gt;Node13 -->
<g id="edge13" class="edge">
<title>Node16&#45;&gt;Node13</title>
<path fill="none" stroke="#404040" d="M708.3125,-1421.1662C704.6741,-1407.9716 698.9109,-1392.7069 690,-1381 686.0419,-1375.8 681.4813,-1370.8947 676.5737,-1366.307"/>
<polygon fill="none" stroke="#404040" points="676.5002,-1366.2435 669.3451,-1365.3469 667.4208,-1358.3972 674.5759,-1359.2939 676.5002,-1366.2435"/>
<text text-anchor="middle" x="739" y="-1389.5" font-family="Helvetica,sans-Serif" font-size="10.00" fill="#000000"> +nFilledBlocks</text>
</g>
<!-- Node17&#45;&gt;Node4 -->
<g id="edge14" class="edge">
<title>Node17&#45;&gt;Node4</title>
<path fill="none" stroke="#ffa500" d="M516.3766,-709.604C513.3337,-704.2986 510.2084,-699.0898 507,-694 491.4135,-669.2739 476.3426,-671.8782 461,-647 458.1279,-642.3428 455.3309,-637.5855 452.6078,-632.7452"/>
<polygon fill="#ffa500" stroke="#ffa500" points="513.4834,-711.6011 521.42,-718.6198 519.5925,-708.1838 513.4834,-711.6011"/>
<text text-anchor="middle" x="558.5" y="-668" font-family="Helvetica,sans-Serif" font-size="10.00" fill="#000000"> &lt; CTFHeader, 6, uint32_t &gt;</text>
</g>
<!-- Node18 -->
<g id="node16" class="node">
<title>Node18</title>
<polygon fill="none" stroke="#bfbfbf" points="685.5,-1294.5 685.5,-1351.5 714.5,-1351.5 714.5,-1294.5 685.5,-1294.5"/>
<text text-anchor="middle" x="700" y="-1339.5" font-family="Helvetica,sans-Serif" font-size="10.00" fill="#000000">H</text>
<polyline fill="none" stroke="#bfbfbf" points="685.5,-1332.5 714.5,-1332.5 "/>
<text text-anchor="middle" x="700" y="-1320.5" font-family="Helvetica,sans-Serif" font-size="10.00" fill="#000000"> </text>
<polyline fill="none" stroke="#bfbfbf" points="685.5,-1313.5 714.5,-1313.5 "/>
<text text-anchor="middle" x="700" y="-1301.5" font-family="Helvetica,sans-Serif" font-size="10.00" fill="#000000"> </text>
</g>
<!-- Node18&#45;&gt;Node17 -->
<g id="edge16" class="edge">
<title>Node18&#45;&gt;Node17</title>
<path fill="none" stroke="#404040" d="M692.4665,-1294.3085C689.1653,-1281.736 684.9475,-1265.6722 680.1565,-1247.4258"/>
<polygon fill="none" stroke="#404040" points="680.1501,-1247.401 674.7574,-1242.6136 677.1025,-1235.7945 682.4951,-1240.5819 680.1501,-1247.401"/>
<text text-anchor="middle" x="712.5" y="-1257" font-family="Helvetica,sans-Serif" font-size="10.00" fill="#000000"> #mHeader</text>
</g>
<!-- Node19 -->
<g id="node17" class="node">
<title>Node19</title>
<polygon fill="none" stroke="#bfbfbf" points="734.5,-1289 734.5,-1357 851.5,-1357 851.5,-1289 734.5,-1289"/>
<text text-anchor="start" x="742.5" y="-1345" font-family="Helvetica,sans-Serif" font-size="10.00" fill="#000000">array&lt; o2::ctf::Block</text>
<text text-anchor="middle" x="793" y="-1334" font-family="Helvetica,sans-Serif" font-size="10.00" fill="#000000">&lt; W &gt;, N &gt;</text>
<polyline fill="none" stroke="#bfbfbf" points="734.5,-1327 851.5,-1327 "/>
<text text-anchor="middle" x="793" y="-1315" font-family="Helvetica,sans-Serif" font-size="10.00" fill="#000000"> </text>
<polyline fill="none" stroke="#bfbfbf" points="734.5,-1308 851.5,-1308 "/>
<text text-anchor="middle" x="793" y="-1296" font-family="Helvetica,sans-Serif" font-size="10.00" fill="#000000"> </text>
</g>
<!-- Node19&#45;&gt;Node17 -->
<g id="edge17" class="edge">
<title>Node19&#45;&gt;Node17</title>
<path fill="none" stroke="#404040" d="M770.161,-1288.8158C759.9095,-1272.9921 747.9181,-1253.7935 738,-1236 723.8917,-1210.689 709.7112,-1183.6491 696.1496,-1156.8123"/>
<polygon fill="none" stroke="#404040" points="695.9714,-1156.4577 689.7025,-1152.8938 690.5812,-1145.7364 696.8501,-1149.3003 695.9714,-1156.4577"/>
<text text-anchor="middle" x="780" y="-1257" font-family="Helvetica,sans-Serif" font-size="10.00" fill="#000000"> #mBlocks</text>
</g>
<!-- Node20 -->
<g id="node18" class="node">
<title>Node20</title>
<polygon fill="none" stroke="#bfbfbf" points="470,-347.5 470,-404.5 514,-404.5 514,-347.5 470,-347.5"/>
<text text-anchor="middle" x="492" y="-392.5" font-family="Helvetica,sans-Serif" font-size="10.00" fill="#000000">static</text>
<polyline fill="none" stroke="#bfbfbf" points="470,-385.5 514,-385.5 "/>
<text text-anchor="middle" x="492" y="-373.5" font-family="Helvetica,sans-Serif" font-size="10.00" fill="#000000"> </text>
<polyline fill="none" stroke="#bfbfbf" points="470,-366.5 514,-366.5 "/>
<text text-anchor="middle" x="492" y="-354.5" font-family="Helvetica,sans-Serif" font-size="10.00" fill="#000000"> </text>
</g>
<!-- Node20&#45;&gt;Node3 -->
<g id="edge20" class="edge">
<title>Node20&#45;&gt;Node3</title>
<path fill="none" stroke="#404040" d="M491.2878,-347.4498C489.4808,-297.5335 483.136,-191.4768 461,-105 457.9315,-93.0125 453.3779,-80.4129 448.6997,-68.9958"/>
<polygon fill="none" stroke="#404040" points="448.547,-68.638 442.5128,-64.6898 443.8365,-57.6012 449.8707,-61.5494 448.547,-68.638"/>
<text text-anchor="middle" x="465.5" y="-79" font-family="Helvetica,sans-Serif" font-size="10.00" fill="#000000"> +N</text>
</g>
</g>
</svg>
        <g id="navigator" transform="translate(0 0)" fill="#404254">
                <rect fill="#f2f5e9" fill-opacity="0.5" stroke="#606060" stroke-width=".5" x="0" y="0" width="60" height="60"/>
                <use id="zoomplus" xlink:href="#zoomPlus" x="17" y="9" onmousedown="handleZoom(evt,'in')"/>
                <use id="zoomminus" xlink:href="#zoomMin" x="42" y="9" onmousedown="handleZoom(evt,'out')"/>
                <use id="reset" xlink:href="#resetDef" x="30" y="36" onmousedown="handleReset()"/>
                <g id="arrowUp" xlink:href="#dirArrow" transform="translate(30 24)" onmousedown="handlePan(0,-1)">
                  <use xlink:href="#rim" fill="#404040">
                        <set attributeName="fill" to="#808080" begin="arrowUp.mouseover" end="arrowUp.mouseout"/>
                  </use>
                  <path fill="none" stroke="white" stroke-width="1.5" d="M0,-3.0v7 M-2.5,-0.5L0,-3.0L2.5,-0.5"/>
                </g>
                <g id="arrowRight" xlink:href="#dirArrow" transform="rotate(90) translate(36 -43)" onmousedown="handlePan(1,0)">
                  <use xlink:href="#rim" fill="#404040">
                        <set attributeName="fill" to="#808080" begin="arrowRight.mouseover" end="arrowRight.mouseout"/>
                  </use>
                  <path fill="none" stroke="white" stroke-width="1.5" d="M0,-3.0v7 M-2.5,-0.5L0,-3.0L2.5,-0.5"/>
                </g>
                <g id="arrowDown" xlink:href="#dirArrow" transform="rotate(180) translate(-30 -48)" onmousedown="handlePan(0,1)">
                  <use xlink:href="#rim" fill="#404040">
                        <set attributeName="fill" to="#808080" begin="arrowDown.mouseover" end="arrowDown.mouseout"/>
                  </use>
                  <path fill="none" stroke="white" stroke-width="1.5" d="M0,-3.0v7 M-2.5,-0.5L0,-3.0L2.5,-0.5"/>
                </g>
                <g id="arrowLeft" xlink:href="#dirArrow" transform="rotate(270) translate(-36 17)" onmousedown="handlePan(-1,0)">
                  <use xlink:href="#rim" fill="#404040">
                        <set attributeName="fill" to="#808080" begin="arrowLeft.mouseover" end="arrowLeft.mouseout"/>
                  </use>
                  <path fill="none" stroke="white" stroke-width="1.5" d="M0,-3.0v7 M-2.5,-0.5L0,-3.0L2.5,-0.5"/>
                </g>
        </g>
        <svg viewBox="0 0 15 15" width="100%" height="30px" preserveAspectRatio="xMaxYMin meet">
         <g id="arrow_out" transform="scale(0.3 0.3)">
          <a xlink:href="structo2_1_1fv0_1_1CTF__coll__graph_org.svg" target="_base">
           <rect id="button" ry="5" rx="5" y="6" x="6" height="38" width="38"
                fill="#f2f5e9" fill-opacity="0.5" stroke="#606060" stroke-width="1.0"/>
           <path id="arrow"
             d="M 11.500037,31.436501 C 11.940474,20.09759 22.043105,11.32322 32.158766,21.979434 L 37.068811,17.246167 C 37.068811,17.246167 37.088388,32 37.088388,32 L 22.160133,31.978069 C 22.160133,31.978069 26.997745,27.140456 26.997745,27.140456 C 18.528582,18.264221 13.291696,25.230495 11.500037,31.436501 z"
             style="fill:#404040;"/>
          </a>
         </g>
        </svg>
</svg>
