<?xml version="1.0" encoding="UTF-8" standalone="no"?>
<!DOCTYPE svg PUBLIC "-//W3C//DTD SVG 1.1//EN"
 "http://www.w3.org/Graphics/SVG/1.1/DTD/svg11.dtd">
<!-- Generated by graphviz version 2.40.1 (20161225.0304)
 -->
<!-- Title: /home/travis/build/AliceO2Group/AliceO2/DataFormats/Detectors/ITSMFT/MFT/include/DataFormatsMFT/TrackMFT.h Pages: 1 -->
<svg width="675pt" height="363pt"
 viewBox="0.00 0.00 675.00 363.00" xmlns="http://www.w3.org/2000/svg" xmlns:xlink="http://www.w3.org/1999/xlink">
<g id="graph0" class="graph" transform="scale(1 1) rotate(0) translate(4 359)">
<title>/home/travis/build/AliceO2Group/AliceO2/DataFormats/Detectors/ITSMFT/MFT/include/DataFormatsMFT/TrackMFT.h</title>
<!-- Node0 -->
<g id="node1" class="node">
<title>Node0</title>
<polygon fill="#bfbfbf" stroke="#000000" points="141,-291.5 141,-354.5 322,-354.5 322,-291.5 141,-291.5"/>
<text text-anchor="start" x="149" y="-342.5" font-family="Helvetica,sans-Serif" font-size="10.00" fill="#000000">/home/travis/build</text>
<text text-anchor="start" x="149" y="-331.5" font-family="Helvetica,sans-Serif" font-size="10.00" fill="#000000">/AliceO2Group/AliceO2</text>
<text text-anchor="start" x="149" y="-320.5" font-family="Helvetica,sans-Serif" font-size="10.00" fill="#000000">/DataFormats/Detectors</text>
<text text-anchor="start" x="149" y="-309.5" font-family="Helvetica,sans-Serif" font-size="10.00" fill="#000000">/ITSMFT/MFT/include/DataFormats</text>
<text text-anchor="middle" x="231.5" y="-298.5" font-family="Helvetica,sans-Serif" font-size="10.00" fill="#000000">MFT/TrackMFT.h</text>
</g>
<!-- Node1 -->
<g id="node2" class="node">
<title>Node1</title>
<polygon fill="none" stroke="#bfbfbf" points="0,-230 0,-249 47,-249 47,-230 0,-230"/>
<text text-anchor="middle" x="23.5" y="-237" font-family="Helvetica,sans-Serif" font-size="10.00" fill="#000000">vector</text>
</g>
<!-- Node0&#45;&gt;Node1 -->
<g id="edge1" class="edge">
<title>Node0&#45;&gt;Node1</title>
<path fill="none" stroke="#191970" d="M152.3159,-291.4556C123.6849,-280.0158 91.121,-266.9652 61.5,-255 59.8649,-254.3395 58.1908,-253.6619 56.5006,-252.9766"/>
<polygon fill="#191970" stroke="#191970" points="57.3834,-249.5574 46.8015,-249.0337 54.7472,-256.042 57.3834,-249.5574"/>
</g>
<!-- Node2 -->
<g id="node3" class="node">
<title>Node2</title>
<polygon fill="none" stroke="#bfbfbf" points="48.5,-168.5 48.5,-187.5 104.5,-187.5 104.5,-168.5 48.5,-168.5"/>
<text text-anchor="middle" x="76.5" y="-175.5" font-family="Helvetica,sans-Serif" font-size="10.00" fill="#000000">TMath.h</text>
</g>
<!-- Node0&#45;&gt;Node2 -->
<g id="edge2" class="edge">
<title>Node0&#45;&gt;Node2</title>
<path fill="none" stroke="#191970" d="M140.7226,-292.117C123.294,-282.5837 106.6999,-270.4035 94.5,-255 81.6186,-238.7361 77.673,-214.8405 76.602,-197.9916"/>
<polygon fill="#191970" stroke="#191970" points="80.0875,-197.5067 76.2454,-187.6331 73.0916,-197.7476 80.0875,-197.5067"/>
</g>
<!-- Node3 -->
<g id="node4" class="node">
<title>Node3</title>
<polygon fill="none" stroke="#bfbfbf" points="239,-168.5 239,-187.5 328,-187.5 328,-168.5 239,-168.5"/>
<text text-anchor="middle" x="283.5" y="-175.5" font-family="Helvetica,sans-Serif" font-size="10.00" fill="#000000">Math/SMatrix.h</text>
</g>
<!-- Node0&#45;&gt;Node3 -->
<g id="edge3" class="edge">
<title>Node0&#45;&gt;Node3</title>
<path fill="none" stroke="#191970" d="M248.5283,-291.4284C254.1479,-280.1548 260.0836,-267.2173 264.5,-255 271.3552,-236.0358 276.5852,-213.5694 279.806,-197.8144"/>
<polygon fill="#191970" stroke="#191970" points="283.3045,-198.1606 281.7906,-187.6745 276.4349,-196.816 283.3045,-198.1606"/>
</g>
<!-- Node4 -->
<g id="node5" class="node">
<title>Node4</title>
<g id="a_node5"><a xlink:href="../../de/d64/RangeReference_8h.html" target="_top" xlink:title="Class to refer to the 1st entry and N elements of some group in the continuous container. ">
<polygon fill="none" stroke="#000000" points="311.5,-230 311.5,-249 521.5,-249 521.5,-230 311.5,-230"/>
<text text-anchor="middle" x="416.5" y="-237" font-family="Helvetica,sans-Serif" font-size="10.00" fill="#000000">CommonDataFormat/RangeReference.h</text>
</a>
</g>
</g>
<!-- Node0&#45;&gt;Node4 -->
<g id="edge4" class="edge">
<title>Node0&#45;&gt;Node4</title>
<path fill="none" stroke="#191970" d="M301.4406,-291.4322C330.6279,-278.2585 363.0066,-263.6443 385.9611,-253.2838"/>
<polygon fill="#191970" stroke="#191970" points="387.5103,-256.4246 395.185,-249.1205 384.6305,-250.0444 387.5103,-256.4246"/>
</g>
<!-- Node7 -->
<g id="node8" class="node">
<title>Node7</title>
<g id="a_node8"><a xlink:href="../../d7/dcd/MCCompLabel_8h.html" target="_top" xlink:title="SimulationDataFormat\l/MCCompLabel.h">
<polygon fill="none" stroke="#000000" points="540,-224.5 540,-254.5 667,-254.5 667,-224.5 540,-224.5"/>
<text text-anchor="start" x="548" y="-242.5" font-family="Helvetica,sans-Serif" font-size="10.00" fill="#000000">SimulationDataFormat</text>
<text text-anchor="middle" x="603.5" y="-231.5" font-family="Helvetica,sans-Serif" font-size="10.00" fill="#000000">/MCCompLabel.h</text>
</a>
</g>
</g>
<!-- Node0&#45;&gt;Node7 -->
<g id="edge7" class="edge">
<title>Node0&#45;&gt;Node7</title>
<path fill="none" stroke="#191970" d="M322.0258,-302.6804C385.7613,-288.3741 470.0169,-269.4619 529.6844,-256.0688"/>
<polygon fill="#191970" stroke="#191970" points="530.7936,-259.407 539.7843,-253.8018 529.2605,-252.577 530.7936,-259.407"/>
</g>
<!-- Node8 -->
<g id="node9" class="node">
<title>Node8</title>
<g id="a_node9"><a xlink:href="../../d7/df7/TrackFwd_8h.html" target="_top" xlink:title="Base forward track model, params only, w/o covariance. ">
<polygon fill="none" stroke="#000000" points="103.5,-224.5 103.5,-254.5 255.5,-254.5 255.5,-224.5 103.5,-224.5"/>
<text text-anchor="start" x="111.5" y="-242.5" font-family="Helvetica,sans-Serif" font-size="10.00" fill="#000000">ReconstructionDataFormats</text>
<text text-anchor="middle" x="179.5" y="-231.5" font-family="Helvetica,sans-Serif" font-size="10.00" fill="#000000">/TrackFwd.h</text>
</a>
</g>
</g>
<!-- Node0&#45;&gt;Node8 -->
<g id="edge9" class="edge">
<title>Node0&#45;&gt;Node8</title>
<path fill="none" stroke="#191970" d="M211.841,-291.4322C206.035,-282.109 199.7796,-272.0643 194.3319,-263.3165"/>
<polygon fill="#191970" stroke="#191970" points="197.2571,-261.3928 188.9998,-254.7545 191.3151,-265.0932 197.2571,-261.3928"/>
</g>
<!-- Node5 -->
<g id="node6" class="node">
<title>Node5</title>
<g id="a_node6"><a xlink:href="../../d2/d45/GPUCommonRtypes_8h.html" target="_top" xlink:title="GPUCommonRtypes.h">
<polygon fill="none" stroke="#000000" points="503,-168.5 503,-187.5 628,-187.5 628,-168.5 503,-168.5"/>
<text text-anchor="middle" x="565.5" y="-175.5" font-family="Helvetica,sans-Serif" font-size="10.00" fill="#000000">GPUCommonRtypes.h</text>
</a>
</g>
</g>
<!-- Node4&#45;&gt;Node5 -->
<g id="edge5" class="edge">
<title>Node4&#45;&gt;Node5</title>
<path fill="none" stroke="#191970" d="M439.7813,-229.8906C464.821,-219.5554 504.8225,-203.0447 532.966,-191.4284"/>
<polygon fill="#191970" stroke="#191970" points="534.474,-194.5925 542.3822,-187.5419 531.8033,-188.122 534.474,-194.5925"/>
</g>
<!-- Node6 -->
<g id="node7" class="node">
<title>Node6</title>
<polygon fill="none" stroke="#bfbfbf" points="536,-112.5 536,-131.5 595,-131.5 595,-112.5 536,-112.5"/>
<text text-anchor="middle" x="565.5" y="-119.5" font-family="Helvetica,sans-Serif" font-size="10.00" fill="#000000">Rtypes.h</text>
</g>
<!-- Node5&#45;&gt;Node6 -->
<g id="edge6" class="edge">
<title>Node5&#45;&gt;Node6</title>
<path fill="none" stroke="#191970" d="M565.5,-168.2455C565.5,-160.9382 565.5,-150.6944 565.5,-141.7046"/>
<polygon fill="#191970" stroke="#191970" points="569.0001,-141.6426 565.5,-131.6427 562.0001,-141.6427 569.0001,-141.6426"/>
</g>
<!-- Node7&#45;&gt;Node5 -->
<g id="edge8" class="edge">
<title>Node7&#45;&gt;Node5</title>
<path fill="none" stroke="#191970" d="M594.1067,-224.2977C588.8869,-215.8498 582.3543,-205.2773 576.85,-196.369"/>
<polygon fill="#191970" stroke="#191970" points="579.8182,-194.5143 571.5843,-187.8469 573.8632,-198.1938 579.8182,-194.5143"/>
</g>
<!-- Node8&#45;&gt;Node2 -->
<g id="edge10" class="edge">
<title>Node8&#45;&gt;Node2</title>
<path fill="none" stroke="#191970" d="M154.3034,-224.4554C138.1728,-214.8241 117.3362,-202.3828 101.2864,-192.7996"/>
<polygon fill="#191970" stroke="#191970" points="102.8416,-189.6518 92.4613,-187.5303 99.253,-195.662 102.8416,-189.6518"/>
</g>
<!-- Node8&#45;&gt;Node3 -->
<g id="edge11" class="edge">
<title>Node8&#45;&gt;Node3</title>
<path fill="none" stroke="#191970" d="M204.9413,-224.4554C221.2284,-214.8241 242.2673,-202.3828 258.473,-192.7996"/>
<polygon fill="#191970" stroke="#191970" points="260.5576,-195.6331 267.3837,-187.5303 256.9945,-189.6078 260.5576,-195.6331"/>
</g>
<!-- Node9 -->
<g id="node10" class="node">
<title>Node9</title>
<g id="a_node10"><a xlink:href="../../d9/d52/Common_2MathUtils_2include_2MathUtils_2Utils_8h.html" target="_top" xlink:title="MathUtils/Utils.h">
<polygon fill="none" stroke="#000000" points="122.5,-168.5 122.5,-187.5 220.5,-187.5 220.5,-168.5 122.5,-168.5"/>
<text text-anchor="middle" x="171.5" y="-175.5" font-family="Helvetica,sans-Serif" font-size="10.00" fill="#000000">MathUtils/Utils.h</text>
</a>
</g>
</g>
<!-- Node8&#45;&gt;Node9 -->
<g id="edge12" class="edge">
<title>Node8&#45;&gt;Node9</title>
<path fill="none" stroke="#191970" d="M177.5225,-224.2977C176.4814,-216.2945 175.1923,-206.3843 174.0742,-197.7889"/>
<polygon fill="#191970" stroke="#191970" points="177.5417,-197.3119 172.7809,-187.8469 170.6002,-198.2149 177.5417,-197.3119"/>
</g>
<!-- Node10 -->
<g id="node11" class="node">
<title>Node10</title>
<polygon fill="none" stroke="#bfbfbf" points="15.5,-112.5 15.5,-131.5 57.5,-131.5 57.5,-112.5 15.5,-112.5"/>
<text text-anchor="middle" x="36.5" y="-119.5" font-family="Helvetica,sans-Serif" font-size="10.00" fill="#000000">array</text>
</g>
<!-- Node9&#45;&gt;Node10 -->
<g id="edge13" class="edge">
<title>Node9&#45;&gt;Node10</title>
<path fill="none" stroke="#191970" d="M148.2927,-168.3733C125.7977,-159.042 91.5523,-144.8365 66.8931,-134.6075"/>
<polygon fill="#191970" stroke="#191970" points="68.2076,-131.3636 57.6297,-130.7649 65.5254,-137.8294 68.2076,-131.3636"/>
</g>
<!-- Node11 -->
<g id="node12" class="node">
<title>Node11</title>
<polygon fill="none" stroke="#bfbfbf" points="62,-56.5 62,-75.5 109,-75.5 109,-56.5 62,-56.5"/>
<text text-anchor="middle" x="85.5" y="-63.5" font-family="Helvetica,sans-Serif" font-size="10.00" fill="#000000">cmath</text>
</g>
<!-- Node9&#45;&gt;Node11 -->
<g id="edge14" class="edge">
<title>Node9&#45;&gt;Node11</title>
<path fill="none" stroke="#191970" d="M150.4455,-168.4265C135.551,-160.6271 116.2182,-148.2514 104.5,-132 94.7051,-118.4159 89.9388,-99.8708 87.6317,-85.8972"/>
<polygon fill="#191970" stroke="#191970" points="91.0809,-85.2872 86.2595,-75.853 84.1453,-86.2347 91.0809,-85.2872"/>
</g>
<!-- Node12 -->
<g id="node13" class="node">
<title>Node12</title>
<g id="a_node13"><a xlink:href="../../df/d21/GPUCommonDef_8h.html" target="_top" xlink:title="GPUCommonDef.h">
<polygon fill="none" stroke="#000000" points="210,-56.5 210,-75.5 317,-75.5 317,-56.5 210,-56.5"/>
<text text-anchor="middle" x="263.5" y="-63.5" font-family="Helvetica,sans-Serif" font-size="10.00" fill="#000000">GPUCommonDef.h</text>
</a>
</g>
</g>
<!-- Node9&#45;&gt;Node12 -->
<g id="edge15" class="edge">
<title>Node9&#45;&gt;Node12</title>
<path fill="none" stroke="#191970" d="M191.185,-168.3516C205.7071,-160.3628 225.0313,-147.7807 237.5,-132 248.2236,-118.4279 255.0066,-99.8816 258.9451,-85.9046"/>
<polygon fill="#191970" stroke="#191970" points="262.4277,-86.4126 261.5147,-75.8572 255.646,-84.6781 262.4277,-86.4126"/>
</g>
<!-- Node15 -->
<g id="node16" class="node">
<title>Node15</title>
<g id="a_node16"><a xlink:href="../../d6/da2/GPUCommonMath_8h.html" target="_top" xlink:title="GPUCommonMath.h">
<polygon fill="none" stroke="#000000" points="114,-112.5 114,-131.5 229,-131.5 229,-112.5 114,-112.5"/>
<text text-anchor="middle" x="171.5" y="-119.5" font-family="Helvetica,sans-Serif" font-size="10.00" fill="#000000">GPUCommonMath.h</text>
</a>
</g>
</g>
<!-- Node9&#45;&gt;Node15 -->
<g id="edge18" class="edge">
<title>Node9&#45;&gt;Node15</title>
<path fill="none" stroke="#191970" d="M171.5,-168.2455C171.5,-160.9382 171.5,-150.6944 171.5,-141.7046"/>
<polygon fill="#191970" stroke="#191970" points="175.0001,-141.6426 171.5,-131.6427 168.0001,-141.6427 175.0001,-141.6426"/>
</g>
<!-- Node17 -->
<g id="node18" class="node">
<title>Node17</title>
<g id="a_node18"><a xlink:href="../../d6/d84/MathConstants_8h.html" target="_top" xlink:title="useful math constants ">
<polygon fill="none" stroke="#000000" points="285.5,-112.5 285.5,-131.5 479.5,-131.5 479.5,-112.5 285.5,-112.5"/>
<text text-anchor="middle" x="382.5" y="-119.5" font-family="Helvetica,sans-Serif" font-size="10.00" fill="#000000">CommonConstants/MathConstants.h</text>
</a>
</g>
</g>
<!-- Node9&#45;&gt;Node17 -->
<g id="edge22" class="edge">
<title>Node9&#45;&gt;Node17</title>
<path fill="none" stroke="#191970" d="M207.7722,-168.3733C243.4658,-158.9001 298.0879,-144.4032 336.7451,-134.1435"/>
<polygon fill="#191970" stroke="#191970" points="337.9336,-137.4493 346.7011,-131.5011 336.1379,-130.6835 337.9336,-137.4493"/>
</g>
<!-- Node13 -->
<g id="node14" class="node">
<title>Node13</title>
<g id="a_node14"><a xlink:href="../../d5/d93/GPUCommonDefSettings_8h.html" target="_top" xlink:title="GPUCommonDefSettings.h">
<polygon fill="none" stroke="#000000" points="112.5,-.5 112.5,-19.5 260.5,-19.5 260.5,-.5 112.5,-.5"/>
<text text-anchor="middle" x="186.5" y="-7.5" font-family="Helvetica,sans-Serif" font-size="10.00" fill="#000000">GPUCommonDefSettings.h</text>
</a>
</g>
</g>
<!-- Node12&#45;&gt;Node13 -->
<g id="edge16" class="edge">
<title>Node12&#45;&gt;Node13</title>
<path fill="none" stroke="#191970" d="M250.0876,-56.2455C238.4943,-47.814 221.5252,-35.4729 208.0322,-25.6598"/>
<polygon fill="#191970" stroke="#191970" points="209.9047,-22.6938 199.7587,-19.6427 205.7874,-28.355 209.9047,-22.6938"/>
</g>
<!-- Node14 -->
<g id="node15" class="node">
<title>Node14</title>
<g id="a_node15"><a xlink:href="../../da/d5a/GPUCommonDefAPI_8h.html" target="_top" xlink:title="GPUCommonDefAPI.h">
<polygon fill="none" stroke="#000000" points="278.5,-.5 278.5,-19.5 402.5,-19.5 402.5,-.5 278.5,-.5"/>
<text text-anchor="middle" x="340.5" y="-7.5" font-family="Helvetica,sans-Serif" font-size="10.00" fill="#000000">GPUCommonDefAPI.h</text>
</a>
</g>
</g>
<!-- Node12&#45;&gt;Node14 -->
<g id="edge17" class="edge">
<title>Node12&#45;&gt;Node14</title>
<path fill="none" stroke="#191970" d="M276.9124,-56.2455C288.5057,-47.814 305.4748,-35.4729 318.9678,-25.6598"/>
<polygon fill="#191970" stroke="#191970" points="321.2126,-28.355 327.2413,-19.6427 317.0953,-22.6938 321.2126,-28.355"/>
</g>
<!-- Node15&#45;&gt;Node11 -->
<g id="edge20" class="edge">
<title>Node15&#45;&gt;Node11</title>
<path fill="none" stroke="#191970" d="M156.5199,-112.2455C143.3249,-103.6534 123.8949,-91.0014 108.6921,-81.1018"/>
<polygon fill="#191970" stroke="#191970" points="110.5983,-78.1665 100.3084,-75.6427 106.7785,-84.0325 110.5983,-78.1665"/>
</g>
<!-- Node15&#45;&gt;Node12 -->
<g id="edge19" class="edge">
<title>Node15&#45;&gt;Node12</title>
<path fill="none" stroke="#191970" d="M187.5252,-112.2455C201.6408,-103.6534 222.4263,-91.0014 238.6899,-81.1018"/>
<polygon fill="#191970" stroke="#191970" points="240.9363,-83.8319 247.6585,-75.6427 237.2966,-77.8525 240.9363,-83.8319"/>
</g>
<!-- Node16 -->
<g id="node17" class="node">
<title>Node16</title>
<polygon fill="none" stroke="#bfbfbf" points="127.5,-56.5 127.5,-75.5 191.5,-75.5 191.5,-56.5 127.5,-56.5"/>
<text text-anchor="middle" x="159.5" y="-63.5" font-family="Helvetica,sans-Serif" font-size="10.00" fill="#000000">algorithm</text>
</g>
<!-- Node15&#45;&gt;Node16 -->
<g id="edge21" class="edge">
<title>Node15&#45;&gt;Node16</title>
<path fill="none" stroke="#191970" d="M169.4098,-112.2455C167.8439,-104.9382 165.6488,-94.6944 163.7224,-85.7046"/>
<polygon fill="#191970" stroke="#191970" points="167.084,-84.6873 161.5663,-75.6427 160.2393,-86.1541 167.084,-84.6873"/>
</g>
</g>
</svg>
