<?xml version="1.0" encoding="UTF-8" standalone="no"?>
<!DOCTYPE svg PUBLIC "-//W3C//DTD SVG 1.1//EN"
 "http://www.w3.org/Graphics/SVG/1.1/DTD/svg11.dtd">
<!-- Generated by graphviz version 2.40.1 (20161225.0304)
 -->
<!-- Title: QATrackingKine Pages: 1 -->
<!--zoomable 838 -->
<svg id="main" version="1.1" xmlns="http://www.w3.org/2000/svg" xmlns:xlink="http://www.w3.org/1999/xlink" xml:space="preserve" onload="init(evt)">
<style type="text/css"><![CDATA[
.edge:hover path { stroke: red; }
.edge:hover polygon { stroke: red; fill: red; }
]]></style>
<script type="text/javascript"><![CDATA[
var edges = document.getElementsByTagName('g');
if (edges && edges.length) {
  for (var i=0;i<edges.length;i++) {
    if (edges[i].id.substr(0,4)=='edge') {
      edges[i].setAttribute('class','edge');
    }
  }
}
]]></script>
        <defs>
                <circle id="rim" cx="0" cy="0" r="7"/>
                <circle id="rim2" cx="0" cy="0" r="3.5"/>
                <g id="zoomPlus">
                        <use xlink:href="#rim" fill="#404040">
                                <set attributeName="fill" to="#808080" begin="zoomplus.mouseover" end="zoomplus.mouseout"/>
                        </use>
                        <path d="M-4,0h8M0,-4v8" fill="none" stroke="white" stroke-width="1.5" pointer-events="none"/>
                </g>
                <g id="zoomMin">
                        <use xlink:href="#rim" fill="#404040">
                                <set attributeName="fill" to="#808080" begin="zoomminus.mouseover" end="zoomminus.mouseout"/>
                        </use>
                        <path d="M-4,0h8" fill="none" stroke="white" stroke-width="1.5" pointer-events="none"/>
                </g>
                <g id="dirArrow">
                        <path fill="none" stroke="white" stroke-width="1.5" d="M0,-3.0v7 M-2.5,-0.5L0,-3.0L2.5,-0.5"/>
                </g>
               <g id="resetDef">
                       <use xlink:href="#rim2" fill="#404040">
                               <set attributeName="fill" to="#808080" begin="reset.mouseover" end="reset.mouseout"/>
                       </use>
               </g>
        </defs>

<script type="text/javascript">
var viewWidth = 1141;
var viewHeight = 838;
var sectionId = 'dynsection-0';
</script>
<script xlink:href="../../svgpan.js"/>
<svg id="graph" class="graph">
<g id="viewport">
<title>QATrackingKine</title>
<!-- Node1 -->
<g id="node1" class="node">
<title>Node1</title>
<polygon fill="#bfbfbf" stroke="#000000" points="152.6811,-.5 152.6811,-57.5 244.6811,-57.5 244.6811,-.5 152.6811,-.5"/>
<text text-anchor="middle" x="198.6811" y="-45.5" font-family="Helvetica,sans-Serif" font-size="10.00" fill="#000000">QATrackingKine</text>
<polyline fill="none" stroke="#000000" points="152.6811,-38.5 244.6811,-38.5 "/>
<text text-anchor="middle" x="198.6811" y="-26.5" font-family="Helvetica,sans-Serif" font-size="10.00" fill="#000000"> </text>
<polyline fill="none" stroke="#000000" points="152.6811,-19.5 244.6811,-19.5 "/>
<text text-anchor="start" x="160.6811" y="-7.5" font-family="Helvetica,sans-Serif" font-size="10.00" fill="#000000">+ process()</text>
</g>
<!-- Node2 -->
<g id="node2" class="node">
<title>Node2</title>
<g id="a_node2"><a xlink:href="../../d8/d71/structo2_1_1framework_1_1Configurable.html" target="_top" xlink:title="{o2::framework::Configurable\l\&lt; bool \&gt;\n||+ Configurable()\l+ operator bool()\l+ operator&#45;\&gt;()\l}">
<polygon fill="none" stroke="#000000" points="55.1811,-392 55.1811,-482 210.1811,-482 210.1811,-392 55.1811,-392"/>
<text text-anchor="start" x="63.1811" y="-470" font-family="Helvetica,sans-Serif" font-size="10.00" fill="#000000">o2::framework::Configurable</text>
<text text-anchor="middle" x="132.6811" y="-459" font-family="Helvetica,sans-Serif" font-size="10.00" fill="#000000">&lt; bool &gt;</text>
<polyline fill="none" stroke="#000000" points="55.1811,-452 210.1811,-452 "/>
<text text-anchor="middle" x="132.6811" y="-440" font-family="Helvetica,sans-Serif" font-size="10.00" fill="#000000"> </text>
<polyline fill="none" stroke="#000000" points="55.1811,-433 210.1811,-433 "/>
<text text-anchor="start" x="63.1811" y="-421" font-family="Helvetica,sans-Serif" font-size="10.00" fill="#000000">+ Configurable()</text>
<text text-anchor="start" x="63.1811" y="-410" font-family="Helvetica,sans-Serif" font-size="10.00" fill="#000000">+ operator bool()</text>
<text text-anchor="start" x="63.1811" y="-399" font-family="Helvetica,sans-Serif" font-size="10.00" fill="#000000">+ operator&#45;&gt;()</text>
</a>
</g>
</g>
<!-- Node2&#45;&gt;Node1 -->
<g id="edge1" class="edge">
<title>Node2&#45;&gt;Node1</title>
<path fill="none" stroke="#404040" d="M139.9965,-391.778C152.9519,-311.6899 179.7291,-146.1577 192.123,-69.5413"/>
<polygon fill="none" stroke="#404040" points="192.1379,-69.4483 189.1474,-62.8865 194.0543,-57.6023 197.0448,-64.1641 192.1379,-69.4483"/>
<text text-anchor="middle" x="200.1811" y="-214" font-family="Helvetica,sans-Serif" font-size="10.00" fill="#000000"> +ismc</text>
</g>
<!-- Node3 -->
<g id="node3" class="node">
<title>Node3</title>
<polygon fill="none" stroke="#bfbfbf" points="602.1811,-756 602.1811,-813 631.1811,-813 631.1811,-756 602.1811,-756"/>
<text text-anchor="middle" x="616.6811" y="-801" font-family="Helvetica,sans-Serif" font-size="10.00" fill="#000000">int</text>
<polyline fill="none" stroke="#bfbfbf" points="602.1811,-794 631.1811,-794 "/>
<text text-anchor="middle" x="616.6811" y="-782" font-family="Helvetica,sans-Serif" font-size="10.00" fill="#000000"> </text>
<polyline fill="none" stroke="#bfbfbf" points="602.1811,-775 631.1811,-775 "/>
<text text-anchor="middle" x="616.6811" y="-763" font-family="Helvetica,sans-Serif" font-size="10.00" fill="#000000"> </text>
</g>
<!-- Node3&#45;&gt;Node2 -->
<g id="edge2" class="edge">
<title>Node3&#45;&gt;Node2</title>
<path fill="none" stroke="#404040" d="M602.0181,-783.1514C513.7072,-774.8782 55.2221,-729.7355 18.6811,-681 -11.4466,-640.818 1.0803,-615.037 18.6811,-568 29.4534,-539.2117 49.7267,-512.5761 70.2247,-490.9445"/>
<polygon fill="none" stroke="#404040" points="70.2939,-490.8737 71.6305,-483.7875 78.6857,-482.2959 77.3491,-489.3821 70.2939,-490.8737"/>
<text text-anchor="middle" x="38.6811" y="-627.5" font-family="Helvetica,sans-Serif" font-size="10.00" fill="#000000"> +name</text>
<text text-anchor="middle" x="38.6811" y="-616.5" font-family="Helvetica,sans-Serif" font-size="10.00" fill="#000000">+help</text>
</g>
<!-- Node5 -->
<g id="node5" class="node">
<title>Node5</title>
<g id="a_node5"><a xlink:href="../../d8/d71/structo2_1_1framework_1_1Configurable.html" target="_top" xlink:title="{o2::framework::Configurable\&lt; T \&gt;\n||+ Configurable()\l+ operator T()\l+ operator&#45;\&gt;()\l}">
<polygon fill="none" stroke="#000000" points="67.6811,-585 67.6811,-664 251.6811,-664 251.6811,-585 67.6811,-585"/>
<text text-anchor="middle" x="159.6811" y="-652" font-family="Helvetica,sans-Serif" font-size="10.00" fill="#000000">o2::framework::Configurable&lt; T &gt;</text>
<polyline fill="none" stroke="#000000" points="67.6811,-645 251.6811,-645 "/>
<text text-anchor="middle" x="159.6811" y="-633" font-family="Helvetica,sans-Serif" font-size="10.00" fill="#000000"> </text>
<polyline fill="none" stroke="#000000" points="67.6811,-626 251.6811,-626 "/>
<text text-anchor="start" x="75.6811" y="-614" font-family="Helvetica,sans-Serif" font-size="10.00" fill="#000000">+ Configurable()</text>
<text text-anchor="start" x="75.6811" y="-603" font-family="Helvetica,sans-Serif" font-size="10.00" fill="#000000">+ operator T()</text>
<text text-anchor="start" x="75.6811" y="-592" font-family="Helvetica,sans-Serif" font-size="10.00" fill="#000000">+ operator&#45;&gt;()</text>
</a>
</g>
</g>
<!-- Node3&#45;&gt;Node5 -->
<g id="edge5" class="edge">
<title>Node3&#45;&gt;Node5</title>
<path fill="none" stroke="#404040" d="M602.0344,-781.4983C552.6688,-771.1202 388.3299,-734.4407 260.6811,-681 252.6539,-677.6394 244.4518,-673.7986 236.3638,-669.7363"/>
<polygon fill="none" stroke="#404040" points="236.0918,-669.5957 228.9248,-670.3929 225.4325,-664.0839 232.5994,-663.2867 236.0918,-669.5957"/>
<text text-anchor="middle" x="386.6811" y="-713" font-family="Helvetica,sans-Serif" font-size="10.00" fill="#000000"> +name</text>
<text text-anchor="middle" x="386.6811" y="-702" font-family="Helvetica,sans-Serif" font-size="10.00" fill="#000000">+help</text>
</g>
<!-- Node7 -->
<g id="node7" class="node">
<title>Node7</title>
<g id="a_node7"><a xlink:href="../../d4/d79/structo2_1_1framework_1_1OutputObj.html" target="_top" xlink:title="{o2::framework::OutputObj\l\&lt; TH1F \&gt;\n||+ spec()\l+ OutputObj()\l+ OutputObj()\l+ setObject()\l+ setObject()\l+ setObject()\l+ setObject()\l+ setHash()\l+ operator&#45;\&gt;()\l+ operator*()\l+ ref()\l}">
<polygon fill="none" stroke="#000000" points="504.1811,-127.5 504.1811,-305.5 647.1811,-305.5 647.1811,-127.5 504.1811,-127.5"/>
<text text-anchor="start" x="512.1811" y="-293.5" font-family="Helvetica,sans-Serif" font-size="10.00" fill="#000000">o2::framework::OutputObj</text>
<text text-anchor="middle" x="575.6811" y="-282.5" font-family="Helvetica,sans-Serif" font-size="10.00" fill="#000000">&lt; TH1F &gt;</text>
<polyline fill="none" stroke="#000000" points="504.1811,-275.5 647.1811,-275.5 "/>
<text text-anchor="middle" x="575.6811" y="-263.5" font-family="Helvetica,sans-Serif" font-size="10.00" fill="#000000"> </text>
<polyline fill="none" stroke="#000000" points="504.1811,-256.5 647.1811,-256.5 "/>
<text text-anchor="start" x="512.1811" y="-244.5" font-family="Helvetica,sans-Serif" font-size="10.00" fill="#000000">+ spec()</text>
<text text-anchor="start" x="512.1811" y="-233.5" font-family="Helvetica,sans-Serif" font-size="10.00" fill="#000000">+ OutputObj()</text>
<text text-anchor="start" x="512.1811" y="-222.5" font-family="Helvetica,sans-Serif" font-size="10.00" fill="#000000">+ OutputObj()</text>
<text text-anchor="start" x="512.1811" y="-211.5" font-family="Helvetica,sans-Serif" font-size="10.00" fill="#000000">+ setObject()</text>
<text text-anchor="start" x="512.1811" y="-200.5" font-family="Helvetica,sans-Serif" font-size="10.00" fill="#000000">+ setObject()</text>
<text text-anchor="start" x="512.1811" y="-189.5" font-family="Helvetica,sans-Serif" font-size="10.00" fill="#000000">+ setObject()</text>
<text text-anchor="start" x="512.1811" y="-178.5" font-family="Helvetica,sans-Serif" font-size="10.00" fill="#000000">+ setObject()</text>
<text text-anchor="start" x="512.1811" y="-167.5" font-family="Helvetica,sans-Serif" font-size="10.00" fill="#000000">+ setHash()</text>
<text text-anchor="start" x="512.1811" y="-156.5" font-family="Helvetica,sans-Serif" font-size="10.00" fill="#000000">+ operator&#45;&gt;()</text>
<text text-anchor="start" x="512.1811" y="-145.5" font-family="Helvetica,sans-Serif" font-size="10.00" fill="#000000">+ operator*()</text>
<text text-anchor="start" x="512.1811" y="-134.5" font-family="Helvetica,sans-Serif" font-size="10.00" fill="#000000">+ ref()</text>
</a>
</g>
</g>
<!-- Node3&#45;&gt;Node7 -->
<g id="edge10" class="edge">
<title>Node3&#45;&gt;Node7</title>
<path fill="none" stroke="#404040" d="M631.5717,-778.847C662.4457,-766.3153 733.4827,-733.1217 768.6811,-681 804.8331,-627.4662 767.2225,-594.8505 799.6811,-539 805.6901,-528.6605 814.8158,-531.9243 819.6811,-521 850.0584,-452.792 857.4516,-417.4089 819.6811,-353 785.1669,-294.1439 714.9904,-258.7678 658.7208,-238.8315"/>
<polygon fill="none" stroke="#404040" points="658.6598,-238.8107 651.6883,-240.6543 647.3052,-234.9282 654.2766,-233.0846 658.6598,-238.8107"/>
<text text-anchor="middle" x="817.6811" y="-542" font-family="Helvetica,sans-Serif" font-size="10.00" fill="#000000"> +label</text>
</g>
<!-- Node10 -->
<g id="node10" class="node">
<title>Node10</title>
<g id="a_node10"><a xlink:href="../../da/d96/structo2_1_1framework_1_1InputSpec.html" target="_top" xlink:title="{o2::framework::InputSpec\n||+ InputSpec()\l+ InputSpec()\l+ InputSpec()\l+ InputSpec()\l+ InputSpec()\l+ operator==()\l}">
<polygon fill="none" stroke="#000000" points="835.6811,-568.5 835.6811,-680.5 977.6811,-680.5 977.6811,-568.5 835.6811,-568.5"/>
<text text-anchor="middle" x="906.6811" y="-668.5" font-family="Helvetica,sans-Serif" font-size="10.00" fill="#000000">o2::framework::InputSpec</text>
<polyline fill="none" stroke="#000000" points="835.6811,-661.5 977.6811,-661.5 "/>
<text text-anchor="middle" x="906.6811" y="-649.5" font-family="Helvetica,sans-Serif" font-size="10.00" fill="#000000"> </text>
<polyline fill="none" stroke="#000000" points="835.6811,-642.5 977.6811,-642.5 "/>
<text text-anchor="start" x="843.6811" y="-630.5" font-family="Helvetica,sans-Serif" font-size="10.00" fill="#000000">+ InputSpec()</text>
<text text-anchor="start" x="843.6811" y="-619.5" font-family="Helvetica,sans-Serif" font-size="10.00" fill="#000000">+ InputSpec()</text>
<text text-anchor="start" x="843.6811" y="-608.5" font-family="Helvetica,sans-Serif" font-size="10.00" fill="#000000">+ InputSpec()</text>
<text text-anchor="start" x="843.6811" y="-597.5" font-family="Helvetica,sans-Serif" font-size="10.00" fill="#000000">+ InputSpec()</text>
<text text-anchor="start" x="843.6811" y="-586.5" font-family="Helvetica,sans-Serif" font-size="10.00" fill="#000000">+ InputSpec()</text>
<text text-anchor="start" x="843.6811" y="-575.5" font-family="Helvetica,sans-Serif" font-size="10.00" fill="#000000">+ operator==()</text>
</a>
</g>
</g>
<!-- Node3&#45;&gt;Node10 -->
<g id="edge15" class="edge">
<title>Node3&#45;&gt;Node10</title>
<path fill="none" stroke="#404040" d="M631.3125,-782.303C665.4756,-776.6608 752.2507,-759.3294 813.6811,-721 827.6595,-712.2782 841.0205,-700.998 853.0361,-689.2419"/>
<polygon fill="none" stroke="#404040" points="853.1083,-689.1688 854.4756,-682.0885 861.5372,-680.6274 860.1699,-687.7077 853.1083,-689.1688"/>
<text text-anchor="middle" x="863.6811" y="-707.5" font-family="Helvetica,sans-Serif" font-size="10.00" fill="#000000"> +binding</text>
</g>
<!-- Node14 -->
<g id="node14" class="node">
<title>Node14</title>
<g id="a_node14"><a xlink:href="../../d4/d79/structo2_1_1framework_1_1OutputObj.html" target="_top" xlink:title="{o2::framework::OutputObj\&lt; T \&gt;\n||+ OutputObj()\l+ OutputObj()\l+ setObject()\l+ setObject()\l+ setObject()\l+ setObject()\l+ setHash()\l+ spec()\l+ operator&#45;\&gt;()\l+ operator*()\l+ ref()\l}">
<polygon fill="none" stroke="#000000" points="408.6811,-353.5 408.6811,-520.5 580.6811,-520.5 580.6811,-353.5 408.6811,-353.5"/>
<text text-anchor="middle" x="494.6811" y="-508.5" font-family="Helvetica,sans-Serif" font-size="10.00" fill="#000000">o2::framework::OutputObj&lt; T &gt;</text>
<polyline fill="none" stroke="#000000" points="408.6811,-501.5 580.6811,-501.5 "/>
<text text-anchor="middle" x="494.6811" y="-489.5" font-family="Helvetica,sans-Serif" font-size="10.00" fill="#000000"> </text>
<polyline fill="none" stroke="#000000" points="408.6811,-482.5 580.6811,-482.5 "/>
<text text-anchor="start" x="416.6811" y="-470.5" font-family="Helvetica,sans-Serif" font-size="10.00" fill="#000000">+ OutputObj()</text>
<text text-anchor="start" x="416.6811" y="-459.5" font-family="Helvetica,sans-Serif" font-size="10.00" fill="#000000">+ OutputObj()</text>
<text text-anchor="start" x="416.6811" y="-448.5" font-family="Helvetica,sans-Serif" font-size="10.00" fill="#000000">+ setObject()</text>
<text text-anchor="start" x="416.6811" y="-437.5" font-family="Helvetica,sans-Serif" font-size="10.00" fill="#000000">+ setObject()</text>
<text text-anchor="start" x="416.6811" y="-426.5" font-family="Helvetica,sans-Serif" font-size="10.00" fill="#000000">+ setObject()</text>
<text text-anchor="start" x="416.6811" y="-415.5" font-family="Helvetica,sans-Serif" font-size="10.00" fill="#000000">+ setObject()</text>
<text text-anchor="start" x="416.6811" y="-404.5" font-family="Helvetica,sans-Serif" font-size="10.00" fill="#000000">+ setHash()</text>
<text text-anchor="start" x="416.6811" y="-393.5" font-family="Helvetica,sans-Serif" font-size="10.00" fill="#000000">+ spec()</text>
<text text-anchor="start" x="416.6811" y="-382.5" font-family="Helvetica,sans-Serif" font-size="10.00" fill="#000000">+ operator&#45;&gt;()</text>
<text text-anchor="start" x="416.6811" y="-371.5" font-family="Helvetica,sans-Serif" font-size="10.00" fill="#000000">+ operator*()</text>
<text text-anchor="start" x="416.6811" y="-360.5" font-family="Helvetica,sans-Serif" font-size="10.00" fill="#000000">+ ref()</text>
</a>
</g>
</g>
<!-- Node3&#45;&gt;Node14 -->
<g id="edge20" class="edge">
<title>Node3&#45;&gt;Node14</title>
<path fill="none" stroke="#404040" d="M617.3581,-755.7211C617.3996,-713.1688 613.7703,-631.6424 588.6811,-568 583.7581,-555.5121 577.3813,-543.1062 570.2679,-531.1896"/>
<polygon fill="none" stroke="#404040" points="570.1787,-531.0461 563.6145,-528.0611 563.8451,-520.8537 570.4094,-523.8387 570.1787,-531.0461"/>
<text text-anchor="middle" x="631.6811" y="-622" font-family="Helvetica,sans-Serif" font-size="10.00" fill="#000000"> +label</text>
</g>
<!-- Node4 -->
<g id="node4" class="node">
<title>Node4</title>
<polygon fill="none" stroke="#bfbfbf" points="269.6811,-596 269.6811,-653 307.6811,-653 307.6811,-596 269.6811,-596"/>
<text text-anchor="middle" x="288.6811" y="-641" font-family="Helvetica,sans-Serif" font-size="10.00" fill="#000000">bool</text>
<polyline fill="none" stroke="#bfbfbf" points="269.6811,-634 307.6811,-634 "/>
<text text-anchor="middle" x="288.6811" y="-622" font-family="Helvetica,sans-Serif" font-size="10.00" fill="#000000"> </text>
<polyline fill="none" stroke="#bfbfbf" points="269.6811,-615 307.6811,-615 "/>
<text text-anchor="middle" x="288.6811" y="-603" font-family="Helvetica,sans-Serif" font-size="10.00" fill="#000000"> </text>
</g>
<!-- Node4&#45;&gt;Node2 -->
<g id="edge3" class="edge">
<title>Node4&#45;&gt;Node2</title>
<path fill="none" stroke="#404040" d="M279.8995,-595.8317C275.5517,-585.7943 269.3299,-575.235 260.6811,-568 238.673,-549.5894 221.307,-567.6459 198.6811,-550 179.7748,-535.255 165.2403,-513.4636 154.686,-492.9412"/>
<polygon fill="none" stroke="#404040" points="154.6344,-492.8353 148.4106,-489.1932 149.3788,-482.0473 155.6026,-485.6894 154.6344,-492.8353"/>
<text text-anchor="middle" x="218.1811" y="-542" font-family="Helvetica,sans-Serif" font-size="10.00" fill="#000000"> +value</text>
</g>
<!-- Node4&#45;&gt;Node7 -->
<g id="edge11" class="edge">
<title>Node4&#45;&gt;Node7</title>
<path fill="none" stroke="#404040" d="M276.9683,-595.9451C257.3717,-543.1989 224.6581,-428.9557 273.6811,-353 321.4629,-278.9674 420.1487,-244.6617 491.7377,-229.0458"/>
<polygon fill="none" stroke="#404040" points="492.1269,-228.9648 497.1858,-223.8259 503.8751,-226.5191 498.8162,-231.658 492.1269,-228.9648"/>
<text text-anchor="middle" x="304.6811" y="-434.5" font-family="Helvetica,sans-Serif" font-size="10.00" fill="#000000"> +isdangling</text>
</g>
<!-- Node4&#45;&gt;Node14 -->
<g id="edge22" class="edge">
<title>Node4&#45;&gt;Node14</title>
<path fill="none" stroke="#404040" d="M299.0729,-595.8089C303.4879,-586.2279 309.3389,-575.972 316.6811,-568 344.1003,-538.229 361.7517,-544.5325 394.6811,-521 395.9782,-520.0731 397.2794,-519.1337 398.5836,-518.1833"/>
<polygon fill="none" stroke="#404040" points="398.9991,-517.8737 401.4197,-511.081 408.6209,-510.7028 406.2003,-517.4955 398.9991,-517.8737"/>
<text text-anchor="middle" x="392.6811" y="-542" font-family="Helvetica,sans-Serif" font-size="10.00" fill="#000000"> +isdangling</text>
</g>
<!-- Node5&#45;&gt;Node2 -->
<g id="edge4" class="edge">
<title>Node5&#45;&gt;Node2</title>
<path fill="none" stroke="#ffa500" d="M136.0504,-575.2987C132.9995,-567.0228 130.3576,-558.3929 128.6811,-550 124.2783,-527.9587 124.6142,-503.0288 126.3305,-482.2035"/>
<polygon fill="#ffa500" stroke="#ffa500" points="132.8743,-576.7864 139.7866,-584.8159 139.3902,-574.2284 132.8743,-576.7864"/>
<text text-anchor="middle" x="152.1811" y="-542" font-family="Helvetica,sans-Serif" font-size="10.00" fill="#000000"> &lt; bool &gt;</text>
</g>
<!-- Node6 -->
<g id="node6" class="node">
<title>Node6</title>
<polygon fill="none" stroke="#bfbfbf" points="145.1811,-756 145.1811,-813 174.1811,-813 174.1811,-756 145.1811,-756"/>
<text text-anchor="middle" x="159.6811" y="-801" font-family="Helvetica,sans-Serif" font-size="10.00" fill="#000000">T</text>
<polyline fill="none" stroke="#bfbfbf" points="145.1811,-794 174.1811,-794 "/>
<text text-anchor="middle" x="159.6811" y="-782" font-family="Helvetica,sans-Serif" font-size="10.00" fill="#000000"> </text>
<polyline fill="none" stroke="#bfbfbf" points="145.1811,-775 174.1811,-775 "/>
<text text-anchor="middle" x="159.6811" y="-763" font-family="Helvetica,sans-Serif" font-size="10.00" fill="#000000"> </text>
</g>
<!-- Node6&#45;&gt;Node5 -->
<g id="edge6" class="edge">
<title>Node6&#45;&gt;Node5</title>
<path fill="none" stroke="#404040" d="M159.6811,-755.8952C159.6811,-733.8577 159.6811,-702.7968 159.6811,-676.4075"/>
<polygon fill="none" stroke="#404040" points="159.6812,-676.2754 155.6812,-670.2755 159.6811,-664.2754 163.6812,-670.2754 159.6812,-676.2754"/>
<text text-anchor="middle" x="179.1811" y="-707.5" font-family="Helvetica,sans-Serif" font-size="10.00" fill="#000000"> +value</text>
</g>
<!-- Node7&#45;&gt;Node1 -->
<g id="edge7" class="edge">
<title>Node7&#45;&gt;Node1</title>
<path fill="none" stroke="#404040" d="M503.8829,-180.7913C431.7848,-144.9335 322.1341,-90.399 255.7587,-57.3874"/>
<polygon fill="none" stroke="#404040" points="255.4337,-57.2258 248.2802,-58.1354 244.6892,-51.882 251.8427,-50.9724 255.4337,-57.2258"/>
<text text-anchor="middle" x="370.1811" y="-101" font-family="Helvetica,sans-Serif" font-size="10.00" fill="#000000"> +hphi</text>
<text text-anchor="middle" x="370.1811" y="-90" font-family="Helvetica,sans-Serif" font-size="10.00" fill="#000000">+heta</text>
<text text-anchor="middle" x="370.1811" y="-79" font-family="Helvetica,sans-Serif" font-size="10.00" fill="#000000">+hpt</text>
</g>
<!-- Node8 -->
<g id="node8" class="node">
<title>Node8</title>
<polygon fill="none" stroke="#bfbfbf" points="326.1811,-596 326.1811,-653 465.1811,-653 465.1811,-596 326.1811,-596"/>
<text text-anchor="middle" x="395.6811" y="-641" font-family="Helvetica,sans-Serif" font-size="10.00" fill="#000000">OutputObjHandlingPolicy</text>
<polyline fill="none" stroke="#bfbfbf" points="326.1811,-634 465.1811,-634 "/>
<text text-anchor="middle" x="395.6811" y="-622" font-family="Helvetica,sans-Serif" font-size="10.00" fill="#000000"> </text>
<polyline fill="none" stroke="#bfbfbf" points="326.1811,-615 465.1811,-615 "/>
<text text-anchor="middle" x="395.6811" y="-603" font-family="Helvetica,sans-Serif" font-size="10.00" fill="#000000"> </text>
</g>
<!-- Node8&#45;&gt;Node7 -->
<g id="edge8" class="edge">
<title>Node8&#45;&gt;Node7</title>
<path fill="none" stroke="#404040" d="M381.0489,-595.8536C356.748,-543.9345 314.8647,-432.3262 358.6811,-353 387.23,-301.3145 444.4665,-266.5404 492.9903,-245.0303"/>
<polygon fill="none" stroke="#404040" points="493.1245,-244.9728 497.0624,-238.9319 504.1533,-240.2435 500.2153,-246.2844 493.1245,-244.9728"/>
<text text-anchor="middle" x="379.1811" y="-434.5" font-family="Helvetica,sans-Serif" font-size="10.00" fill="#000000"> +policy</text>
</g>
<!-- Node8&#45;&gt;Node14 -->
<g id="edge18" class="edge">
<title>Node8&#45;&gt;Node14</title>
<path fill="none" stroke="#404040" d="M416.6589,-595.9007C426.1287,-582.3499 437.091,-565.7195 445.6811,-550 448.8855,-544.1362 452.0377,-538.0202 455.1027,-531.8009"/>
<polygon fill="none" stroke="#404040" points="455.3223,-531.3436 454.3145,-524.2032 460.518,-520.5267 461.5258,-527.6671 455.3223,-531.3436"/>
<text text-anchor="middle" x="471.1811" y="-542" font-family="Helvetica,sans-Serif" font-size="10.00" fill="#000000"> +policy</text>
</g>
<!-- Node9 -->
<g id="node9" class="node">
<title>Node9</title>
<g id="a_node9"><a xlink:href="../../d3/d87/classuint32__t.html" target="_top" xlink:title="{uint32_t\n||}">
<polygon fill="none" stroke="#000000" points="703.6811,-596 703.6811,-653 759.6811,-653 759.6811,-596 703.6811,-596"/>
<text text-anchor="middle" x="731.6811" y="-641" font-family="Helvetica,sans-Serif" font-size="10.00" fill="#000000">uint32_t</text>
<polyline fill="none" stroke="#000000" points="703.6811,-634 759.6811,-634 "/>
<text text-anchor="middle" x="731.6811" y="-622" font-family="Helvetica,sans-Serif" font-size="10.00" fill="#000000"> </text>
<polyline fill="none" stroke="#000000" points="703.6811,-615 759.6811,-615 "/>
<text text-anchor="middle" x="731.6811" y="-603" font-family="Helvetica,sans-Serif" font-size="10.00" fill="#000000"> </text>
</a>
</g>
</g>
<!-- Node9&#45;&gt;Node7 -->
<g id="edge9" class="edge">
<title>Node9&#45;&gt;Node7</title>
<path fill="none" stroke="#404040" d="M737.7692,-595.9242C747.2468,-544.5917 760.8378,-434.5282 723.6811,-353 709.0923,-320.9896 683.1007,-293.0516 656.9266,-270.9312"/>
<polygon fill="none" stroke="#404040" points="656.5818,-270.649 649.4052,-269.9437 647.296,-263.048 654.4725,-263.7532 656.5818,-270.649"/>
<text text-anchor="middle" x="781.6811" y="-434.5" font-family="Helvetica,sans-Serif" font-size="10.00" fill="#000000"> +mTaskHash</text>
</g>
<!-- Node9&#45;&gt;Node14 -->
<g id="edge19" class="edge">
<title>Node9&#45;&gt;Node14</title>
<path fill="none" stroke="#404040" d="M703.3802,-596.6593C684.0334,-578.6422 657.185,-555.546 630.6811,-539 616.3055,-530.0255 608.8406,-531.0566 591.0962,-521.2685"/>
<polygon fill="none" stroke="#404040" points="591.0654,-521.25 583.8617,-521.5772 580.789,-515.0535 587.9927,-514.7263 591.0654,-521.25"/>
<text text-anchor="middle" x="678.6811" y="-542" font-family="Helvetica,sans-Serif" font-size="10.00" fill="#000000"> +mTaskHash</text>
</g>
<!-- Node10&#45;&gt;Node7 -->
<g id="edge12" class="edge">
<title>Node10&#45;&gt;Node7</title>
<path fill="none" stroke="#404040" d="M913.7878,-568.2746C918.9016,-502.3833 916.9186,-393.4016 860.6811,-324 811.5522,-263.3709 724.3652,-236.9195 659.3196,-225.389"/>
<polygon fill="none" stroke="#404040" points="659.2819,-225.3828 652.7046,-228.339 647.446,-223.4047 654.0233,-220.4485 659.2819,-225.3828"/>
<text text-anchor="middle" x="931.6811" y="-434.5" font-family="Helvetica,sans-Serif" font-size="10.00" fill="#000000"> +spec</text>
</g>
<!-- Node10&#45;&gt;Node14 -->
<g id="edge23" class="edge">
<title>Node10&#45;&gt;Node14</title>
<path fill="none" stroke="#404040" d="M873.7463,-568.4377C864.2485,-556.8195 852.8333,-545.9983 839.6811,-539 793.3906,-514.3688 658.201,-539.2908 592.3887,-520.8825"/>
<polygon fill="none" stroke="#404040" points="592.2839,-520.8462 585.3053,-522.6625 580.9446,-516.9193 587.9232,-515.103 592.2839,-520.8462"/>
<text text-anchor="middle" x="870.6811" y="-542" font-family="Helvetica,sans-Serif" font-size="10.00" fill="#000000"> +spec</text>
</g>
<!-- Node11 -->
<g id="node11" class="node">
<title>Node11</title>
<polygon fill="none" stroke="#bfbfbf" points="862.6811,-756 862.6811,-813 950.6811,-813 950.6811,-756 862.6811,-756"/>
<text text-anchor="middle" x="906.6811" y="-801" font-family="Helvetica,sans-Serif" font-size="10.00" fill="#000000">enum Lifetime</text>
<polyline fill="none" stroke="#bfbfbf" points="862.6811,-794 950.6811,-794 "/>
<text text-anchor="middle" x="906.6811" y="-782" font-family="Helvetica,sans-Serif" font-size="10.00" fill="#000000"> </text>
<polyline fill="none" stroke="#bfbfbf" points="862.6811,-775 950.6811,-775 "/>
<text text-anchor="middle" x="906.6811" y="-763" font-family="Helvetica,sans-Serif" font-size="10.00" fill="#000000"> </text>
</g>
<!-- Node11&#45;&gt;Node10 -->
<g id="edge13" class="edge">
<title>Node11&#45;&gt;Node10</title>
<path fill="none" stroke="#404040" d="M906.6811,-755.8952C906.6811,-738.3 906.6811,-714.9527 906.6811,-692.8235"/>
<polygon fill="none" stroke="#404040" points="906.6812,-692.6991 902.6812,-686.6991 906.6811,-680.6991 910.6812,-686.6991 906.6812,-692.6991"/>
<text text-anchor="middle" x="931.6811" y="-707.5" font-family="Helvetica,sans-Serif" font-size="10.00" fill="#000000"> +lifetime</text>
</g>
<!-- Node12 -->
<g id="node12" class="node">
<title>Node12</title>
<polygon fill="none" stroke="#bfbfbf" points="968.6811,-739.5 968.6811,-829.5 1132.6811,-829.5 1132.6811,-739.5 968.6811,-739.5"/>
<text text-anchor="start" x="976.6811" y="-817.5" font-family="Helvetica,sans-Serif" font-size="10.00" fill="#000000">variant&lt; o2::framework</text>
<text text-anchor="start" x="976.6811" y="-806.5" font-family="Helvetica,sans-Serif" font-size="10.00" fill="#000000">::ConcreteDataMatcher,</text>
<text text-anchor="start" x="976.6811" y="-795.5" font-family="Helvetica,sans-Serif" font-size="10.00" fill="#000000"> o2::framework::data_matcher</text>
<text text-anchor="middle" x="1050.6811" y="-784.5" font-family="Helvetica,sans-Serif" font-size="10.00" fill="#000000">::DataDescriptorMatcher &gt;</text>
<polyline fill="none" stroke="#bfbfbf" points="968.6811,-777.5 1132.6811,-777.5 "/>
<text text-anchor="middle" x="1050.6811" y="-765.5" font-family="Helvetica,sans-Serif" font-size="10.00" fill="#000000"> </text>
<polyline fill="none" stroke="#bfbfbf" points="968.6811,-758.5 1132.6811,-758.5 "/>
<text text-anchor="middle" x="1050.6811" y="-746.5" font-family="Helvetica,sans-Serif" font-size="10.00" fill="#000000"> </text>
</g>
<!-- Node12&#45;&gt;Node10 -->
<g id="edge14" class="edge">
<title>Node12&#45;&gt;Node10</title>
<path fill="none" stroke="#404040" d="M1009.8017,-739.0784C995.9806,-723.7217 980.2651,-706.2599 965.3418,-689.6785"/>
<polygon fill="none" stroke="#404040" points="965.1772,-689.4957 958.1903,-687.7118 957.1496,-680.5761 964.1366,-682.36 965.1772,-689.4957"/>
<text text-anchor="middle" x="1016.6811" y="-707.5" font-family="Helvetica,sans-Serif" font-size="10.00" fill="#000000"> +matcher</text>
</g>
<!-- Node13 -->
<g id="node13" class="node">
<title>Node13</title>
<polygon fill="none" stroke="#bfbfbf" points="598.6811,-408.5 598.6811,-465.5 714.6811,-465.5 714.6811,-408.5 598.6811,-408.5"/>
<text text-anchor="middle" x="656.6811" y="-453.5" font-family="Helvetica,sans-Serif" font-size="10.00" fill="#000000">shared_ptr&lt; TH1F &gt;</text>
<polyline fill="none" stroke="#bfbfbf" points="598.6811,-446.5 714.6811,-446.5 "/>
<text text-anchor="middle" x="656.6811" y="-434.5" font-family="Helvetica,sans-Serif" font-size="10.00" fill="#000000"> </text>
<polyline fill="none" stroke="#bfbfbf" points="598.6811,-427.5 714.6811,-427.5 "/>
<text text-anchor="middle" x="656.6811" y="-415.5" font-family="Helvetica,sans-Serif" font-size="10.00" fill="#000000"> </text>
</g>
<!-- Node13&#45;&gt;Node7 -->
<g id="edge16" class="edge">
<title>Node13&#45;&gt;Node7</title>
<path fill="none" stroke="#404040" d="M646.0918,-408.1735C637.5375,-384.8868 624.9608,-350.6503 612.7946,-317.5311"/>
<polygon fill="none" stroke="#404040" points="612.6535,-317.1469 606.8299,-312.8941 608.5156,-305.8828 614.3392,-310.1355 612.6535,-317.1469"/>
<text text-anchor="middle" x="639.6811" y="-327" font-family="Helvetica,sans-Serif" font-size="10.00" fill="#000000"> +object</text>
</g>
<!-- Node14&#45;&gt;Node7 -->
<g id="edge17" class="edge">
<title>Node14&#45;&gt;Node7</title>
<path fill="none" stroke="#ffa500" d="M528.9402,-343.7391C533.5786,-331.1125 538.3288,-318.1814 542.9396,-305.6296"/>
<polygon fill="#ffa500" stroke="#ffa500" points="525.5821,-342.7304 525.4192,-353.324 532.1528,-345.1442 525.5821,-342.7304"/>
<text text-anchor="middle" x="561.1811" y="-327" font-family="Helvetica,sans-Serif" font-size="10.00" fill="#000000"> &lt; TH1F &gt;</text>
</g>
<!-- Node15 -->
<g id="node15" class="node">
<title>Node15</title>
<polygon fill="none" stroke="#bfbfbf" points="483.1811,-596 483.1811,-653 580.1811,-653 580.1811,-596 483.1811,-596"/>
<text text-anchor="middle" x="531.6811" y="-641" font-family="Helvetica,sans-Serif" font-size="10.00" fill="#000000">shared_ptr&lt; T &gt;</text>
<polyline fill="none" stroke="#bfbfbf" points="483.1811,-634 580.1811,-634 "/>
<text text-anchor="middle" x="531.6811" y="-622" font-family="Helvetica,sans-Serif" font-size="10.00" fill="#000000"> </text>
<polyline fill="none" stroke="#bfbfbf" points="483.1811,-615 580.1811,-615 "/>
<text text-anchor="middle" x="531.6811" y="-603" font-family="Helvetica,sans-Serif" font-size="10.00" fill="#000000"> </text>
</g>
<!-- Node15&#45;&gt;Node14 -->
<g id="edge21" class="edge">
<title>Node15&#45;&gt;Node14</title>
<path fill="none" stroke="#404040" d="M525.981,-595.614C522.5976,-578.4686 518.0939,-555.6459 513.5599,-532.6694"/>
<polygon fill="none" stroke="#404040" points="513.5152,-532.4423 508.4292,-527.3303 511.1919,-520.6694 516.2778,-525.7814 513.5152,-532.4423"/>
<text text-anchor="middle" x="537.6811" y="-542" font-family="Helvetica,sans-Serif" font-size="10.00" fill="#000000"> +object</text>
</g>
</g>
</svg>
        <g id="navigator" transform="translate(0 0)" fill="#404254">
                <rect fill="#f2f5e9" fill-opacity="0.5" stroke="#606060" stroke-width=".5" x="0" y="0" width="60" height="60"/>
                <use id="zoomplus" xlink:href="#zoomPlus" x="17" y="9" onmousedown="handleZoom(evt,'in')"/>
                <use id="zoomminus" xlink:href="#zoomMin" x="42" y="9" onmousedown="handleZoom(evt,'out')"/>
                <use id="reset" xlink:href="#resetDef" x="30" y="36" onmousedown="handleReset()"/>
                <g id="arrowUp" xlink:href="#dirArrow" transform="translate(30 24)" onmousedown="handlePan(0,-1)">
                  <use xlink:href="#rim" fill="#404040">
                        <set attributeName="fill" to="#808080" begin="arrowUp.mouseover" end="arrowUp.mouseout"/>
                  </use>
                  <path fill="none" stroke="white" stroke-width="1.5" d="M0,-3.0v7 M-2.5,-0.5L0,-3.0L2.5,-0.5"/>
                </g>
                <g id="arrowRight" xlink:href="#dirArrow" transform="rotate(90) translate(36 -43)" onmousedown="handlePan(1,0)">
                  <use xlink:href="#rim" fill="#404040">
                        <set attributeName="fill" to="#808080" begin="arrowRight.mouseover" end="arrowRight.mouseout"/>
                  </use>
                  <path fill="none" stroke="white" stroke-width="1.5" d="M0,-3.0v7 M-2.5,-0.5L0,-3.0L2.5,-0.5"/>
                </g>
                <g id="arrowDown" xlink:href="#dirArrow" transform="rotate(180) translate(-30 -48)" onmousedown="handlePan(0,1)">
                  <use xlink:href="#rim" fill="#404040">
                        <set attributeName="fill" to="#808080" begin="arrowDown.mouseover" end="arrowDown.mouseout"/>
                  </use>
                  <path fill="none" stroke="white" stroke-width="1.5" d="M0,-3.0v7 M-2.5,-0.5L0,-3.0L2.5,-0.5"/>
                </g>
                <g id="arrowLeft" xlink:href="#dirArrow" transform="rotate(270) translate(-36 17)" onmousedown="handlePan(-1,0)">
                  <use xlink:href="#rim" fill="#404040">
                        <set attributeName="fill" to="#808080" begin="arrowLeft.mouseover" end="arrowLeft.mouseout"/>
                  </use>
                  <path fill="none" stroke="white" stroke-width="1.5" d="M0,-3.0v7 M-2.5,-0.5L0,-3.0L2.5,-0.5"/>
                </g>
        </g>
        <svg viewBox="0 0 15 15" width="100%" height="30px" preserveAspectRatio="xMaxYMin meet">
         <g id="arrow_out" transform="scale(0.3 0.3)">
          <a xlink:href="structQATrackingKine__coll__graph_org.svg" target="_base">
           <rect id="button" ry="5" rx="5" y="6" x="6" height="38" width="38"
                fill="#f2f5e9" fill-opacity="0.5" stroke="#606060" stroke-width="1.0"/>
           <path id="arrow"
             d="M 11.500037,31.436501 C 11.940474,20.09759 22.043105,11.32322 32.158766,21.979434 L 37.068811,17.246167 C 37.068811,17.246167 37.088388,32 37.088388,32 L 22.160133,31.978069 C 22.160133,31.978069 26.997745,27.140456 26.997745,27.140456 C 18.528582,18.264221 13.291696,25.230495 11.500037,31.436501 z"
             style="fill:#404040;"/>
          </a>
         </g>
        </svg>
</svg>
