<?xml version="1.0" encoding="UTF-8" standalone="no"?>
<!DOCTYPE svg PUBLIC "-//W3C//DTD SVG 1.1//EN"
 "http://www.w3.org/Graphics/SVG/1.1/DTD/svg11.dtd">
<!-- Generated by graphviz version 2.40.1 (20161225.0304)
 -->
<!-- Title: /home/travis/build/AliceO2Group/AliceO2/GPU/GPUTracking/SliceTracker/GPUTPCTrackParam.cxx Pages: 1 -->
<!--zoomable 509 -->
<svg id="main" version="1.1" xmlns="http://www.w3.org/2000/svg" xmlns:xlink="http://www.w3.org/1999/xlink" xml:space="preserve" onload="init(evt)">
<style type="text/css"><![CDATA[
.edge:hover path { stroke: red; }
.edge:hover polygon { stroke: red; fill: red; }
]]></style>
<script type="text/javascript"><![CDATA[
var edges = document.getElementsByTagName('g');
if (edges && edges.length) {
  for (var i=0;i<edges.length;i++) {
    if (edges[i].id.substr(0,4)=='edge') {
      edges[i].setAttribute('class','edge');
    }
  }
}
]]></script>
        <defs>
                <circle id="rim" cx="0" cy="0" r="7"/>
                <circle id="rim2" cx="0" cy="0" r="3.5"/>
                <g id="zoomPlus">
                        <use xlink:href="#rim" fill="#404040">
                                <set attributeName="fill" to="#808080" begin="zoomplus.mouseover" end="zoomplus.mouseout"/>
                        </use>
                        <path d="M-4,0h8M0,-4v8" fill="none" stroke="white" stroke-width="1.5" pointer-events="none"/>
                </g>
                <g id="zoomMin">
                        <use xlink:href="#rim" fill="#404040">
                                <set attributeName="fill" to="#808080" begin="zoomminus.mouseover" end="zoomminus.mouseout"/>
                        </use>
                        <path d="M-4,0h8" fill="none" stroke="white" stroke-width="1.5" pointer-events="none"/>
                </g>
                <g id="dirArrow">
                        <path fill="none" stroke="white" stroke-width="1.5" d="M0,-3.0v7 M-2.5,-0.5L0,-3.0L2.5,-0.5"/>
                </g>
               <g id="resetDef">
                       <use xlink:href="#rim2" fill="#404040">
                               <set attributeName="fill" to="#808080" begin="reset.mouseover" end="reset.mouseout"/>
                       </use>
               </g>
        </defs>

<script type="text/javascript">
var viewWidth = 831;
var viewHeight = 509;
var sectionId = 'dynsection-0';
</script>
<script xlink:href="../../svgpan.js"/>
<svg id="graph" class="graph">
<g id="viewport">
<title>/home/travis/build/AliceO2Group/AliceO2/GPU/GPUTracking/SliceTracker/GPUTPCTrackParam.cxx</title>
<!-- Node0 -->
<g id="node1" class="node">
<title>Node0</title>
<polygon fill="#bfbfbf" stroke="#000000" points="470.5,-448.5 470.5,-500.5 637.5,-500.5 637.5,-448.5 470.5,-448.5"/>
<text text-anchor="start" x="478.5" y="-488.5" font-family="Helvetica,sans-Serif" font-size="10.00" fill="#000000">/home/travis/build</text>
<text text-anchor="start" x="478.5" y="-477.5" font-family="Helvetica,sans-Serif" font-size="10.00" fill="#000000">/AliceO2Group/AliceO2</text>
<text text-anchor="start" x="478.5" y="-466.5" font-family="Helvetica,sans-Serif" font-size="10.00" fill="#000000">/GPU/GPUTracking/SliceTracker</text>
<text text-anchor="middle" x="554" y="-455.5" font-family="Helvetica,sans-Serif" font-size="10.00" fill="#000000">/GPUTPCTrackParam.cxx</text>
</g>
<!-- Node1 -->
<g id="node2" class="node">
<title>Node1</title>
<g id="a_node2"><a xlink:href="../../db/d52/GPUTPCTrackLinearisation_8h.html" target="_top" xlink:title="GPUTPCTrackLinearisation.h">
<polygon fill="none" stroke="#000000" points="477,-392.5 477,-411.5 631,-411.5 631,-392.5 477,-392.5"/>
<text text-anchor="middle" x="554" y="-399.5" font-family="Helvetica,sans-Serif" font-size="10.00" fill="#000000">GPUTPCTrackLinearisation.h</text>
</a>
</g>
</g>
<!-- Node0&#45;&gt;Node1 -->
<g id="edge1" class="edge">
<title>Node0&#45;&gt;Node1</title>
<path fill="none" stroke="#191970" d="M554,-448.3258C554,-439.5142 554,-429.8397 554,-421.621"/>
<polygon fill="#191970" stroke="#191970" points="557.5001,-421.534 554,-411.534 550.5001,-421.534 557.5001,-421.534"/>
</g>
<!-- Node2 -->
<g id="node3" class="node">
<title>Node2</title>
<g id="a_node3"><a xlink:href="../../de/d15/GPUTPCTrackParam_8h.html" target="_top" xlink:title="GPUTPCTrackParam.h">
<polygon fill="none" stroke="#000000" points="440,-336.5 440,-355.5 562,-355.5 562,-336.5 440,-336.5"/>
<text text-anchor="middle" x="501" y="-343.5" font-family="Helvetica,sans-Serif" font-size="10.00" fill="#000000">GPUTPCTrackParam.h</text>
</a>
</g>
</g>
<!-- Node0&#45;&gt;Node2 -->
<g id="edge21" class="edge">
<title>Node0&#45;&gt;Node2</title>
<path fill="none" stroke="#191970" d="M501.9256,-448.4133C488.4082,-438.9201 475.5404,-426.8012 468,-412 459.6206,-395.5518 471.1292,-376.7099 482.7919,-363.38"/>
<polygon fill="#191970" stroke="#191970" points="485.5713,-365.5348 489.8971,-355.8633 480.4843,-360.7262 485.5713,-365.5348"/>
</g>
<!-- Node18 -->
<g id="node19" class="node">
<title>Node18</title>
<polygon fill="none" stroke="#bfbfbf" points="649,-392.5 649,-411.5 709,-411.5 709,-392.5 649,-392.5"/>
<text text-anchor="middle" x="679" y="-399.5" font-family="Helvetica,sans-Serif" font-size="10.00" fill="#000000">iostream</text>
</g>
<!-- Node0&#45;&gt;Node18 -->
<g id="edge22" class="edge">
<title>Node0&#45;&gt;Node18</title>
<path fill="none" stroke="#191970" d="M599.1279,-448.3258C617.428,-437.7118 637.8865,-425.8458 653.5166,-416.7804"/>
<polygon fill="#191970" stroke="#191970" points="655.6678,-419.5788 662.5621,-411.534 652.1557,-413.5236 655.6678,-419.5788"/>
</g>
<!-- Node1&#45;&gt;Node2 -->
<g id="edge2" class="edge">
<title>Node1&#45;&gt;Node2</title>
<path fill="none" stroke="#191970" d="M544.7681,-392.2455C537.1683,-384.2155 526.2123,-372.6394 517.1632,-363.0781"/>
<polygon fill="#191970" stroke="#191970" points="519.542,-360.4998 510.1261,-355.6427 514.4579,-365.3115 519.542,-360.4998"/>
</g>
<!-- Node3 -->
<g id="node4" class="node">
<title>Node3</title>
<g id="a_node4"><a xlink:href="../../df/d00/GPUTPCBaseTrackParam_8h.html" target="_top" xlink:title="GPUTPCBaseTrackParam.h">
<polygon fill="none" stroke="#000000" points="428,-280.5 428,-299.5 574,-299.5 574,-280.5 428,-280.5"/>
<text text-anchor="middle" x="501" y="-287.5" font-family="Helvetica,sans-Serif" font-size="10.00" fill="#000000">GPUTPCBaseTrackParam.h</text>
</a>
</g>
</g>
<!-- Node2&#45;&gt;Node3 -->
<g id="edge3" class="edge">
<title>Node2&#45;&gt;Node3</title>
<path fill="none" stroke="#191970" d="M501,-336.2455C501,-328.9382 501,-318.6944 501,-309.7046"/>
<polygon fill="#191970" stroke="#191970" points="504.5001,-309.6426 501,-299.6427 497.5001,-309.6427 504.5001,-309.6426"/>
</g>
<!-- Node4 -->
<g id="node5" class="node">
<title>Node4</title>
<g id="a_node5"><a xlink:href="../../da/dab/GPUTPCDef_8h.html" target="_top" xlink:title="GPUTPCDef.h">
<polygon fill="none" stroke="#000000" points="359,-224.5 359,-243.5 441,-243.5 441,-224.5 359,-224.5"/>
<text text-anchor="middle" x="400" y="-231.5" font-family="Helvetica,sans-Serif" font-size="10.00" fill="#000000">GPUTPCDef.h</text>
</a>
</g>
</g>
<!-- Node2&#45;&gt;Node4 -->
<g id="edge16" class="edge">
<title>Node2&#45;&gt;Node4</title>
<path fill="none" stroke="#191970" d="M472.5305,-336.4617C454.7382,-329.121 432.683,-317.2734 419,-300 408.4843,-286.725 403.7885,-267.8645 401.6917,-253.7025"/>
<polygon fill="#191970" stroke="#191970" points="405.1423,-253.075 400.5057,-243.5486 398.1896,-253.8872 405.1423,-253.075"/>
</g>
<!-- Node15 -->
<g id="node16" class="node">
<title>Node15</title>
<g id="a_node16"><a xlink:href="../../d6/da2/GPUCommonMath_8h.html" target="_top" xlink:title="GPUCommonMath.h">
<polygon fill="none" stroke="#000000" points="595.5,-280.5 595.5,-299.5 710.5,-299.5 710.5,-280.5 595.5,-280.5"/>
<text text-anchor="middle" x="653" y="-287.5" font-family="Helvetica,sans-Serif" font-size="10.00" fill="#000000">GPUCommonMath.h</text>
</a>
</g>
</g>
<!-- Node2&#45;&gt;Node15 -->
<g id="edge17" class="edge">
<title>Node2&#45;&gt;Node15</title>
<path fill="none" stroke="#191970" d="M527.1297,-336.3733C552.0768,-327.1822 589.8592,-313.2624 617.5206,-303.0713"/>
<polygon fill="#191970" stroke="#191970" points="619.0378,-306.2424 627.2112,-299.5011 616.6178,-299.674 619.0378,-306.2424"/>
</g>
<!-- Node3&#45;&gt;Node4 -->
<g id="edge4" class="edge">
<title>Node3&#45;&gt;Node4</title>
<path fill="none" stroke="#191970" d="M483.4071,-280.2455C467.621,-271.4928 444.2361,-258.527 426.2413,-248.5496"/>
<polygon fill="#191970" stroke="#191970" points="427.8341,-245.4308 417.3913,-243.6427 424.4397,-251.5528 427.8341,-245.4308"/>
</g>
<!-- Node5 -->
<g id="node6" class="node">
<title>Node5</title>
<g id="a_node6"><a xlink:href="../../d2/d6d/GPUDef_8h.html" target="_top" xlink:title="GPUDef.h">
<polygon fill="none" stroke="#000000" points="366.5,-168.5 366.5,-187.5 429.5,-187.5 429.5,-168.5 366.5,-168.5"/>
<text text-anchor="middle" x="398" y="-175.5" font-family="Helvetica,sans-Serif" font-size="10.00" fill="#000000">GPUDef.h</text>
</a>
</g>
</g>
<!-- Node4&#45;&gt;Node5 -->
<g id="edge5" class="edge">
<title>Node4&#45;&gt;Node5</title>
<path fill="none" stroke="#191970" d="M399.6516,-224.2455C399.3907,-216.9382 399.0248,-206.6944 398.7037,-197.7046"/>
<polygon fill="#191970" stroke="#191970" points="402.1992,-197.5113 398.3444,-187.6427 395.2036,-197.7613 402.1992,-197.5113"/>
</g>
<!-- Node6 -->
<g id="node7" class="node">
<title>Node6</title>
<g id="a_node7"><a xlink:href="../../df/d21/GPUCommonDef_8h.html" target="_top" xlink:title="GPUCommonDef.h">
<polygon fill="none" stroke="#000000" points="630.5,-56.5 630.5,-75.5 737.5,-75.5 737.5,-56.5 630.5,-56.5"/>
<text text-anchor="middle" x="684" y="-63.5" font-family="Helvetica,sans-Serif" font-size="10.00" fill="#000000">GPUCommonDef.h</text>
</a>
</g>
</g>
<!-- Node5&#45;&gt;Node6 -->
<g id="edge6" class="edge">
<title>Node5&#45;&gt;Node6</title>
<path fill="none" stroke="#191970" d="M429.9504,-176.6475C493.1008,-173.3284 630.7548,-162.6808 665,-132 677.88,-120.4607 682.2643,-100.8131 683.6452,-85.9479"/>
<polygon fill="#191970" stroke="#191970" points="687.1529,-85.9031 684.2067,-75.7262 680.1634,-85.5191 687.1529,-85.9031"/>
</g>
<!-- Node9 -->
<g id="node10" class="node">
<title>Node9</title>
<g id="a_node10"><a xlink:href="../../d2/d37/GPUDefConstantsAndSettings_8h.html" target="_top" xlink:title="GPUDefConstantsAndSettings.h">
<polygon fill="none" stroke="#000000" points="484.5,-112.5 484.5,-131.5 655.5,-131.5 655.5,-112.5 484.5,-112.5"/>
<text text-anchor="middle" x="570" y="-119.5" font-family="Helvetica,sans-Serif" font-size="10.00" fill="#000000">GPUDefConstantsAndSettings.h</text>
</a>
</g>
</g>
<!-- Node5&#45;&gt;Node9 -->
<g id="edge9" class="edge">
<title>Node5&#45;&gt;Node9</title>
<path fill="none" stroke="#191970" d="M427.5679,-168.3733C456.1688,-159.0613 499.6788,-144.8953 531.0819,-134.671"/>
<polygon fill="#191970" stroke="#191970" points="532.3928,-137.9251 540.818,-131.5011 530.2257,-131.269 532.3928,-137.9251"/>
</g>
<!-- Node10 -->
<g id="node11" class="node">
<title>Node10</title>
<g id="a_node11"><a xlink:href="../../dc/de9/GPUDefGPUParameters_8h.html" target="_top" xlink:title="GPUDefGPUParameters.h">
<polygon fill="none" stroke="#000000" points="0,-112.5 0,-131.5 140,-131.5 140,-112.5 0,-112.5"/>
<text text-anchor="middle" x="70" y="-119.5" font-family="Helvetica,sans-Serif" font-size="10.00" fill="#000000">GPUDefGPUParameters.h</text>
</a>
</g>
</g>
<!-- Node5&#45;&gt;Node10 -->
<g id="edge11" class="edge">
<title>Node5&#45;&gt;Node10</title>
<path fill="none" stroke="#191970" d="M366.252,-172.5796C313.2323,-163.5275 205.6069,-145.1524 135.7156,-133.2197"/>
<polygon fill="#191970" stroke="#191970" points="136.135,-129.7408 125.6886,-131.5078 134.9569,-136.6409 136.135,-129.7408"/>
</g>
<!-- Node12 -->
<g id="node13" class="node">
<title>Node12</title>
<g id="a_node13"><a xlink:href="../../d3/d4c/GPUDefOpenCL12Templates_8h.html" target="_top" xlink:title="GPUDefOpenCL12Templates.h">
<polygon fill="none" stroke="#000000" points="302,-112.5 302,-131.5 466,-131.5 466,-112.5 302,-112.5"/>
<text text-anchor="middle" x="384" y="-119.5" font-family="Helvetica,sans-Serif" font-size="10.00" fill="#000000">GPUDefOpenCL12Templates.h</text>
</a>
</g>
</g>
<!-- Node5&#45;&gt;Node12 -->
<g id="edge13" class="edge">
<title>Node5&#45;&gt;Node12</title>
<path fill="none" stroke="#191970" d="M395.5614,-168.2455C393.7145,-160.8579 391.1172,-150.4689 388.8522,-141.4087"/>
<polygon fill="#191970" stroke="#191970" points="392.2316,-140.4952 386.4107,-131.6427 385.4406,-142.193 392.2316,-140.4952"/>
</g>
<!-- Node13 -->
<g id="node14" class="node">
<title>Node13</title>
<g id="a_node14"><a xlink:href="../../d2/d45/GPUCommonRtypes_8h.html" target="_top" xlink:title="GPUCommonRtypes.h">
<polygon fill="none" stroke="#000000" points="158.5,-112.5 158.5,-131.5 283.5,-131.5 283.5,-112.5 158.5,-112.5"/>
<text text-anchor="middle" x="221" y="-119.5" font-family="Helvetica,sans-Serif" font-size="10.00" fill="#000000">GPUCommonRtypes.h</text>
</a>
</g>
</g>
<!-- Node5&#45;&gt;Node13 -->
<g id="edge14" class="edge">
<title>Node5&#45;&gt;Node13</title>
<path fill="none" stroke="#191970" d="M367.5726,-168.3733C338.0128,-159.021 292.9774,-144.7725 260.6305,-134.5385"/>
<polygon fill="#191970" stroke="#191970" points="261.6203,-131.1807 251.0303,-131.5011 259.5087,-137.8546 261.6203,-131.1807"/>
</g>
<!-- Node7 -->
<g id="node8" class="node">
<title>Node7</title>
<g id="a_node8"><a xlink:href="../../d5/d93/GPUCommonDefSettings_8h.html" target="_top" xlink:title="GPUCommonDefSettings.h">
<polygon fill="none" stroke="#000000" points="533,-.5 533,-19.5 681,-19.5 681,-.5 533,-.5"/>
<text text-anchor="middle" x="607" y="-7.5" font-family="Helvetica,sans-Serif" font-size="10.00" fill="#000000">GPUCommonDefSettings.h</text>
</a>
</g>
</g>
<!-- Node6&#45;&gt;Node7 -->
<g id="edge7" class="edge">
<title>Node6&#45;&gt;Node7</title>
<path fill="none" stroke="#191970" d="M670.5876,-56.2455C658.9943,-47.814 642.0252,-35.4729 628.5322,-25.6598"/>
<polygon fill="#191970" stroke="#191970" points="630.4047,-22.6938 620.2587,-19.6427 626.2874,-28.355 630.4047,-22.6938"/>
</g>
<!-- Node8 -->
<g id="node9" class="node">
<title>Node8</title>
<g id="a_node9"><a xlink:href="../../da/d5a/GPUCommonDefAPI_8h.html" target="_top" xlink:title="GPUCommonDefAPI.h">
<polygon fill="none" stroke="#000000" points="699,-.5 699,-19.5 823,-19.5 823,-.5 699,-.5"/>
<text text-anchor="middle" x="761" y="-7.5" font-family="Helvetica,sans-Serif" font-size="10.00" fill="#000000">GPUCommonDefAPI.h</text>
</a>
</g>
</g>
<!-- Node6&#45;&gt;Node8 -->
<g id="edge8" class="edge">
<title>Node6&#45;&gt;Node8</title>
<path fill="none" stroke="#191970" d="M697.4124,-56.2455C709.0057,-47.814 725.9748,-35.4729 739.4678,-25.6598"/>
<polygon fill="#191970" stroke="#191970" points="741.7126,-28.355 747.7413,-19.6427 737.5953,-22.6938 741.7126,-28.355"/>
</g>
<!-- Node9&#45;&gt;Node6 -->
<g id="edge10" class="edge">
<title>Node9&#45;&gt;Node6</title>
<path fill="none" stroke="#191970" d="M589.5973,-112.3733C607.7331,-103.4644 634.9135,-90.1127 655.4587,-80.0203"/>
<polygon fill="#191970" stroke="#191970" points="657.2261,-83.0517 664.6584,-75.5011 654.1397,-76.7688 657.2261,-83.0517"/>
</g>
<!-- Node11 -->
<g id="node12" class="node">
<title>Node11</title>
<g id="a_node12"><a xlink:href="../../d6/dff/GPUDefMacros_8h.html" target="_top" xlink:title="GPUDefMacros.h">
<polygon fill="none" stroke="#000000" points="21,-56.5 21,-75.5 119,-75.5 119,-56.5 21,-56.5"/>
<text text-anchor="middle" x="70" y="-63.5" font-family="Helvetica,sans-Serif" font-size="10.00" fill="#000000">GPUDefMacros.h</text>
</a>
</g>
</g>
<!-- Node10&#45;&gt;Node11 -->
<g id="edge12" class="edge">
<title>Node10&#45;&gt;Node11</title>
<path fill="none" stroke="#191970" d="M70,-112.2455C70,-104.9382 70,-94.6944 70,-85.7046"/>
<polygon fill="#191970" stroke="#191970" points="73.5001,-85.6426 70,-75.6427 66.5001,-85.6427 73.5001,-85.6426"/>
</g>
<!-- Node14 -->
<g id="node15" class="node">
<title>Node14</title>
<polygon fill="none" stroke="#bfbfbf" points="191.5,-56.5 191.5,-75.5 250.5,-75.5 250.5,-56.5 191.5,-56.5"/>
<text text-anchor="middle" x="221" y="-63.5" font-family="Helvetica,sans-Serif" font-size="10.00" fill="#000000">Rtypes.h</text>
</g>
<!-- Node13&#45;&gt;Node14 -->
<g id="edge15" class="edge">
<title>Node13&#45;&gt;Node14</title>
<path fill="none" stroke="#191970" d="M221,-112.2455C221,-104.9382 221,-94.6944 221,-85.7046"/>
<polygon fill="#191970" stroke="#191970" points="224.5001,-85.6426 221,-75.6427 217.5001,-85.6427 224.5001,-85.6426"/>
</g>
<!-- Node15&#45;&gt;Node6 -->
<g id="edge18" class="edge">
<title>Node15&#45;&gt;Node6</title>
<path fill="none" stroke="#191970" d="M666.331,-280.3825C676.6173,-272.0729 690.0611,-259.0499 696,-244 717.3481,-189.9008 700.9229,-119.3987 690.6516,-85.6622"/>
<polygon fill="#191970" stroke="#191970" points="693.8477,-84.1658 687.4677,-75.7074 687.1804,-86.2983 693.8477,-84.1658"/>
</g>
<!-- Node16 -->
<g id="node17" class="node">
<title>Node16</title>
<polygon fill="none" stroke="#bfbfbf" points="557.5,-224.5 557.5,-243.5 604.5,-243.5 604.5,-224.5 557.5,-224.5"/>
<text text-anchor="middle" x="581" y="-231.5" font-family="Helvetica,sans-Serif" font-size="10.00" fill="#000000">cmath</text>
</g>
<!-- Node15&#45;&gt;Node16 -->
<g id="edge19" class="edge">
<title>Node15&#45;&gt;Node16</title>
<path fill="none" stroke="#191970" d="M640.4586,-280.2455C629.7213,-271.8943 614.0527,-259.7076 601.4953,-249.9408"/>
<polygon fill="#191970" stroke="#191970" points="603.4401,-247.0194 593.3977,-243.6427 599.1425,-252.5449 603.4401,-247.0194"/>
</g>
<!-- Node17 -->
<g id="node18" class="node">
<title>Node17</title>
<polygon fill="none" stroke="#bfbfbf" points="623,-224.5 623,-243.5 687,-243.5 687,-224.5 623,-224.5"/>
<text text-anchor="middle" x="655" y="-231.5" font-family="Helvetica,sans-Serif" font-size="10.00" fill="#000000">algorithm</text>
</g>
<!-- Node15&#45;&gt;Node17 -->
<g id="edge20" class="edge">
<title>Node15&#45;&gt;Node17</title>
<path fill="none" stroke="#191970" d="M653.3484,-280.2455C653.6093,-272.9382 653.9752,-262.6944 654.2963,-253.7046"/>
<polygon fill="#191970" stroke="#191970" points="657.7964,-253.7613 654.6556,-243.6427 650.8008,-253.5113 657.7964,-253.7613"/>
</g>
</g>
</svg>
        <g id="navigator" transform="translate(0 0)" fill="#404254">
                <rect fill="#f2f5e9" fill-opacity="0.5" stroke="#606060" stroke-width=".5" x="0" y="0" width="60" height="60"/>
                <use id="zoomplus" xlink:href="#zoomPlus" x="17" y="9" onmousedown="handleZoom(evt,'in')"/>
                <use id="zoomminus" xlink:href="#zoomMin" x="42" y="9" onmousedown="handleZoom(evt,'out')"/>
                <use id="reset" xlink:href="#resetDef" x="30" y="36" onmousedown="handleReset()"/>
                <g id="arrowUp" xlink:href="#dirArrow" transform="translate(30 24)" onmousedown="handlePan(0,-1)">
                  <use xlink:href="#rim" fill="#404040">
                        <set attributeName="fill" to="#808080" begin="arrowUp.mouseover" end="arrowUp.mouseout"/>
                  </use>
                  <path fill="none" stroke="white" stroke-width="1.5" d="M0,-3.0v7 M-2.5,-0.5L0,-3.0L2.5,-0.5"/>
                </g>
                <g id="arrowRight" xlink:href="#dirArrow" transform="rotate(90) translate(36 -43)" onmousedown="handlePan(1,0)">
                  <use xlink:href="#rim" fill="#404040">
                        <set attributeName="fill" to="#808080" begin="arrowRight.mouseover" end="arrowRight.mouseout"/>
                  </use>
                  <path fill="none" stroke="white" stroke-width="1.5" d="M0,-3.0v7 M-2.5,-0.5L0,-3.0L2.5,-0.5"/>
                </g>
                <g id="arrowDown" xlink:href="#dirArrow" transform="rotate(180) translate(-30 -48)" onmousedown="handlePan(0,1)">
                  <use xlink:href="#rim" fill="#404040">
                        <set attributeName="fill" to="#808080" begin="arrowDown.mouseover" end="arrowDown.mouseout"/>
                  </use>
                  <path fill="none" stroke="white" stroke-width="1.5" d="M0,-3.0v7 M-2.5,-0.5L0,-3.0L2.5,-0.5"/>
                </g>
                <g id="arrowLeft" xlink:href="#dirArrow" transform="rotate(270) translate(-36 17)" onmousedown="handlePan(-1,0)">
                  <use xlink:href="#rim" fill="#404040">
                        <set attributeName="fill" to="#808080" begin="arrowLeft.mouseover" end="arrowLeft.mouseout"/>
                  </use>
                  <path fill="none" stroke="white" stroke-width="1.5" d="M0,-3.0v7 M-2.5,-0.5L0,-3.0L2.5,-0.5"/>
                </g>
        </g>
        <svg viewBox="0 0 15 15" width="100%" height="30px" preserveAspectRatio="xMaxYMin meet">
         <g id="arrow_out" transform="scale(0.3 0.3)">
          <a xlink:href="GPUTPCTrackParam_8cxx__incl_org.svg" target="_base">
           <rect id="button" ry="5" rx="5" y="6" x="6" height="38" width="38"
                fill="#f2f5e9" fill-opacity="0.5" stroke="#606060" stroke-width="1.0"/>
           <path id="arrow"
             d="M 11.500037,31.436501 C 11.940474,20.09759 22.043105,11.32322 32.158766,21.979434 L 37.068811,17.246167 C 37.068811,17.246167 37.088388,32 37.088388,32 L 22.160133,31.978069 C 22.160133,31.978069 26.997745,27.140456 26.997745,27.140456 C 18.528582,18.264221 13.291696,25.230495 11.500037,31.436501 z"
             style="fill:#404040;"/>
          </a>
         </g>
        </svg>
</svg>
