<?xml version="1.0" encoding="UTF-8" standalone="no"?>
<!DOCTYPE svg PUBLIC "-//W3C//DTD SVG 1.1//EN"
 "http://www.w3.org/Graphics/SVG/1.1/DTD/svg11.dtd">
<!-- Generated by graphviz version 2.40.1 (20161225.0304)
 -->
<!-- Title: /home/travis/build/AliceO2Group/AliceO2/Utilities/rANS/include/rANS/LiteralDecoder.h Pages: 1 -->
<svg width="1604pt" height="408pt"
 viewBox="0.00 0.00 1604.00 408.00" xmlns="http://www.w3.org/2000/svg" xmlns:xlink="http://www.w3.org/1999/xlink">
<g id="graph0" class="graph" transform="scale(1 1) rotate(0) translate(4 404)">
<title>/home/travis/build/AliceO2Group/AliceO2/Utilities/rANS/include/rANS/LiteralDecoder.h</title>
<!-- Node0 -->
<g id="node1" class="node">
<title>Node0</title>
<polygon fill="#bfbfbf" stroke="#000000" points="645.5,-347.5 645.5,-399.5 772.5,-399.5 772.5,-347.5 645.5,-347.5"/>
<text text-anchor="start" x="653.5" y="-387.5" font-family="Helvetica,sans-Serif" font-size="10.00" fill="#000000">/home/travis/build</text>
<text text-anchor="start" x="653.5" y="-376.5" font-family="Helvetica,sans-Serif" font-size="10.00" fill="#000000">/AliceO2Group/AliceO2</text>
<text text-anchor="start" x="653.5" y="-365.5" font-family="Helvetica,sans-Serif" font-size="10.00" fill="#000000">/Utilities/rANS/include</text>
<text text-anchor="middle" x="709" y="-354.5" font-family="Helvetica,sans-Serif" font-size="10.00" fill="#000000">/rANS/LiteralDecoder.h</text>
</g>
<!-- Node1 -->
<g id="node2" class="node">
<title>Node1</title>
<g id="a_node2"><a xlink:href="../../dc/d62/Utilities_2rANS_2include_2rANS_2Decoder_8h.html" target="_top" xlink:title="Decoder.h">
<polygon fill="none" stroke="#000000" points="646.5,-291.5 646.5,-310.5 711.5,-310.5 711.5,-291.5 646.5,-291.5"/>
<text text-anchor="middle" x="679" y="-298.5" font-family="Helvetica,sans-Serif" font-size="10.00" fill="#000000">Decoder.h</text>
</a>
</g>
</g>
<!-- Node0&#45;&gt;Node1 -->
<g id="edge1" class="edge">
<title>Node0&#45;&gt;Node1</title>
<path fill="none" stroke="#191970" d="M698.1693,-347.3258C694.3988,-338.2138 690.2465,-328.179 686.7734,-319.7857"/>
<polygon fill="#191970" stroke="#191970" points="690.0027,-318.4359 682.9451,-310.534 683.5346,-321.1124 690.0027,-318.4359"/>
</g>
<!-- Node2 -->
<g id="node3" class="node">
<title>Node2</title>
<g id="a_node3"><a xlink:href="../../d6/dfb/Utilities_2rANS_2include_2rANS_2internal_2Decoder_8h.html" target="_top" xlink:title="internal/Decoder.h">
<polygon fill="none" stroke="#000000" points="320,-168.5 320,-187.5 426,-187.5 426,-168.5 320,-168.5"/>
<text text-anchor="middle" x="373" y="-175.5" font-family="Helvetica,sans-Serif" font-size="10.00" fill="#000000">internal/Decoder.h</text>
</a>
</g>
</g>
<!-- Node0&#45;&gt;Node2 -->
<g id="edge67" class="edge">
<title>Node0&#45;&gt;Node2</title>
<path fill="none" stroke="#191970" d="M645.2358,-360.2901C606.1447,-350.4307 556.0846,-334.5498 516,-311 461.691,-279.0933 410.8957,-223.4518 387.1162,-195.3283"/>
<polygon fill="#191970" stroke="#191970" points="389.719,-192.9843 380.6297,-187.5405 384.3403,-197.4643 389.719,-192.9843"/>
</g>
<!-- Node7 -->
<g id="node8" class="node">
<title>Node7</title>
<polygon fill="none" stroke="#bfbfbf" points="628.5,-56.5 628.5,-75.5 697.5,-75.5 697.5,-56.5 628.5,-56.5"/>
<text text-anchor="middle" x="663" y="-63.5" font-family="Helvetica,sans-Serif" font-size="10.00" fill="#000000">type_traits</text>
</g>
<!-- Node0&#45;&gt;Node7 -->
<g id="edge60" class="edge">
<title>Node0&#45;&gt;Node7</title>
<path fill="none" stroke="#191970" d="M645.3873,-354.7234C593.9375,-335.1573 530,-298.8938 530,-239.5 530,-239.5 530,-239.5 530,-178 530,-128.0478 585.5705,-95.8768 624.8708,-79.371"/>
<polygon fill="#191970" stroke="#191970" points="626.4966,-82.4897 634.4682,-75.5108 623.8844,-75.9953 626.4966,-82.4897"/>
</g>
<!-- Node8 -->
<g id="node9" class="node">
<title>Node8</title>
<g id="a_node9"><a xlink:href="../../d7/d99/DecoderSymbol_8h.html" target="_top" xlink:title="Structure containing all relevant information for decoding a rANS encoded symbol. ...">
<polygon fill="none" stroke="#000000" points="66.5,-112.5 66.5,-131.5 169.5,-131.5 169.5,-112.5 66.5,-112.5"/>
<text text-anchor="middle" x="118" y="-119.5" font-family="Helvetica,sans-Serif" font-size="10.00" fill="#000000">DecoderSymbol.h</text>
</a>
</g>
</g>
<!-- Node0&#45;&gt;Node8 -->
<g id="edge64" class="edge">
<title>Node0&#45;&gt;Node8</title>
<path fill="none" stroke="#191970" d="M645.1,-367.9404C533.0428,-355.0813 299.2279,-313.9964 154,-188 139.7201,-175.6111 130.0747,-156.1131 124.3908,-141.5166"/>
<polygon fill="#191970" stroke="#191970" points="127.6196,-140.1522 120.9426,-131.9261 121.0325,-142.5206 127.6196,-140.1522"/>
</g>
<!-- Node11 -->
<g id="node12" class="node">
<title>Node11</title>
<polygon fill="none" stroke="#bfbfbf" points="11.5,-.5 11.5,-19.5 64.5,-19.5 64.5,-.5 11.5,-.5"/>
<text text-anchor="middle" x="38" y="-7.5" font-family="Helvetica,sans-Serif" font-size="10.00" fill="#000000">cstddef</text>
</g>
<!-- Node0&#45;&gt;Node11 -->
<g id="edge59" class="edge">
<title>Node0&#45;&gt;Node11</title>
<path fill="none" stroke="#191970" d="M645.457,-368.1717C471.4322,-352.7326 0,-304.875 0,-239.5 0,-239.5 0,-239.5 0,-122 0,-87.6118 16.2634,-50.2832 27.511,-28.5791"/>
<polygon fill="#191970" stroke="#191970" points="30.7317,-29.9804 32.393,-19.5166 24.569,-26.6605 30.7317,-29.9804"/>
</g>
<!-- Node14 -->
<g id="node15" class="node">
<title>Node14</title>
<polygon fill="none" stroke="#bfbfbf" points="841,-56.5 841,-75.5 901,-75.5 901,-56.5 841,-56.5"/>
<text text-anchor="middle" x="871" y="-63.5" font-family="Helvetica,sans-Serif" font-size="10.00" fill="#000000">iostream</text>
</g>
<!-- Node0&#45;&gt;Node14 -->
<g id="edge61" class="edge">
<title>Node0&#45;&gt;Node14</title>
<path fill="none" stroke="#191970" d="M722.812,-347.2827C754.8719,-286.4284 833.7007,-136.7996 861.2811,-84.448"/>
<polygon fill="#191970" stroke="#191970" points="864.3843,-86.0666 865.9488,-75.5879 858.1912,-82.8039 864.3843,-86.0666"/>
</g>
<!-- Node16 -->
<g id="node17" class="node">
<title>Node16</title>
<polygon fill="none" stroke="#bfbfbf" points="1375,-56.5 1375,-75.5 1483,-75.5 1483,-56.5 1375,-56.5"/>
<text text-anchor="middle" x="1429" y="-63.5" font-family="Helvetica,sans-Serif" font-size="10.00" fill="#000000">fairlogger/Logger.h</text>
</g>
<!-- Node0&#45;&gt;Node16 -->
<g id="edge63" class="edge">
<title>Node0&#45;&gt;Node16</title>
<path fill="none" stroke="#191970" d="M772.6122,-369.742C964.421,-357.5699 1524,-315.543 1524,-239.5 1524,-239.5 1524,-239.5 1524,-178 1524,-134.9765 1482.7265,-100.0102 1454.5891,-81.1715"/>
<polygon fill="#191970" stroke="#191970" points="1456.287,-78.102 1445.9841,-75.632 1452.4979,-83.9879 1456.287,-78.102"/>
</g>
<!-- Node21 -->
<g id="node22" class="node">
<title>Node21</title>
<g id="a_node22"><a xlink:href="../../dc/d3b/ReverseSymbolLookupTable_8h.html" target="_top" xlink:title="Maps CDF back to source symbol &#45; needed for the decoder. ">
<polygon fill="none" stroke="#000000" points="920,-224.5 920,-254.5 1088,-254.5 1088,-224.5 920,-224.5"/>
<text text-anchor="start" x="928" y="-242.5" font-family="Helvetica,sans-Serif" font-size="10.00" fill="#000000">internal/ReverseSymbolLookup</text>
<text text-anchor="middle" x="1004" y="-231.5" font-family="Helvetica,sans-Serif" font-size="10.00" fill="#000000">Table.h</text>
</a>
</g>
</g>
<!-- Node0&#45;&gt;Node21 -->
<g id="edge65" class="edge">
<title>Node0&#45;&gt;Node21</title>
<path fill="none" stroke="#191970" d="M766.5793,-347.3453C823.8795,-321.3175 910.4565,-281.9909 961.7032,-258.7128"/>
<polygon fill="#191970" stroke="#191970" points="963.1886,-261.8823 970.8458,-254.5599 960.2936,-255.509 963.1886,-261.8823"/>
</g>
<!-- Node23 -->
<g id="node24" class="node">
<title>Node23</title>
<g id="a_node24"><a xlink:href="../../d8/dd9/SymbolTable_8h.html" target="_top" xlink:title="Container for information needed to encode/decode a symbol of the alphabet. ">
<polygon fill="none" stroke="#000000" points="1106,-230 1106,-249 1234,-249 1234,-230 1106,-230"/>
<text text-anchor="middle" x="1170" y="-237" font-family="Helvetica,sans-Serif" font-size="10.00" fill="#000000">internal/SymbolTable.h</text>
</a>
</g>
</g>
<!-- Node0&#45;&gt;Node23 -->
<g id="edge66" class="edge">
<title>Node0&#45;&gt;Node23</title>
<path fill="none" stroke="#191970" d="M772.6161,-355.0086C868.0746,-327.2614 1045.8382,-275.5904 1127.2663,-251.9215"/>
<polygon fill="#191970" stroke="#191970" points="1128.546,-255.1945 1137.1716,-249.0423 1126.5921,-248.4727 1128.546,-255.1945"/>
</g>
<!-- Node24 -->
<g id="node25" class="node">
<title>Node24</title>
<polygon fill="none" stroke="#bfbfbf" points="1552,-291.5 1552,-310.5 1596,-310.5 1596,-291.5 1552,-291.5"/>
<text text-anchor="middle" x="1574" y="-298.5" font-family="Helvetica,sans-Serif" font-size="10.00" fill="#000000">string</text>
</g>
<!-- Node0&#45;&gt;Node24 -->
<g id="edge62" class="edge">
<title>Node0&#45;&gt;Node24</title>
<path fill="none" stroke="#191970" d="M772.6182,-370.3195C940.1935,-361.6832 1390.9376,-336.7136 1538,-311 1539.258,-310.78 1540.5354,-310.5348 1541.8218,-310.2694"/>
<polygon fill="#191970" stroke="#191970" points="1542.7654,-313.6427 1551.6864,-307.9273 1541.1484,-306.8321 1542.7654,-313.6427"/>
</g>
<!-- Node1&#45;&gt;Node2 -->
<g id="edge2" class="edge">
<title>Node1&#45;&gt;Node2</title>
<path fill="none" stroke="#191970" d="M650.1206,-291.45C623.6289,-282.5319 583.401,-268.591 549,-255 496.972,-234.445 437.5673,-207.7703 402.7871,-191.8191"/>
<polygon fill="#191970" stroke="#191970" points="404.2044,-188.6186 393.6569,-187.6184 401.2785,-194.9778 404.2044,-188.6186"/>
</g>
<!-- Node1&#45;&gt;Node7 -->
<g id="edge19" class="edge">
<title>Node1&#45;&gt;Node7</title>
<path fill="none" stroke="#191970" d="M678.353,-291.4967C675.9661,-256.4391 667.6236,-133.9096 664.3413,-85.7"/>
<polygon fill="#191970" stroke="#191970" points="667.8264,-85.3607 663.6551,-75.6216 660.8425,-85.8363 667.8264,-85.3607"/>
</g>
<!-- Node1&#45;&gt;Node8 -->
<g id="edge34" class="edge">
<title>Node1&#45;&gt;Node8</title>
<path fill="none" stroke="#191970" d="M646.3938,-299.7706C563.8059,-295.3963 341.7473,-275.6935 184,-188 162.4521,-176.0213 143.2053,-154.9698 131.1351,-139.8602"/>
<polygon fill="#191970" stroke="#191970" points="133.7716,-137.5475 124.8945,-131.764 128.2275,-141.821 133.7716,-137.5475"/>
</g>
<!-- Node1&#45;&gt;Node11 -->
<g id="edge18" class="edge">
<title>Node1&#45;&gt;Node11</title>
<path fill="none" stroke="#191970" d="M646.3982,-299.2459C560.8555,-294.3541 331.64,-279.3027 260,-255 160.1,-221.1106 115.715,-219.6415 57,-132 36.1102,-100.8187 34.9075,-55.2208 36.234,-29.5126"/>
<polygon fill="#191970" stroke="#191970" points="39.7267,-29.7373 36.9334,-19.5174 32.7438,-29.2486 39.7267,-29.7373"/>
</g>
<!-- Node1&#45;&gt;Node14 -->
<g id="edge20" class="edge">
<title>Node1&#45;&gt;Node14</title>
<path fill="none" stroke="#191970" d="M681.2276,-291.0457C689.2512,-255.9773 717.5961,-138.8369 744,-112 756.4827,-99.3127 798.8148,-85.4979 831.2087,-76.3536"/>
<polygon fill="#191970" stroke="#191970" points="832.1946,-79.7124 840.8989,-73.6721 830.3276,-72.966 832.1946,-79.7124"/>
</g>
<!-- Node15 -->
<g id="node16" class="node">
<title>Node15</title>
<polygon fill="none" stroke="#bfbfbf" points="558,-230 558,-249 616,-249 616,-230 558,-230"/>
<text text-anchor="middle" x="587" y="-237" font-family="Helvetica,sans-Serif" font-size="10.00" fill="#000000">memory</text>
</g>
<!-- Node1&#45;&gt;Node15 -->
<g id="edge21" class="edge">
<title>Node1&#45;&gt;Node15</title>
<path fill="none" stroke="#191970" d="M664.625,-291.3906C649.9069,-281.5519 626.8168,-266.1167 609.6411,-254.6351"/>
<polygon fill="#191970" stroke="#191970" points="611.5327,-251.6896 601.2741,-249.0419 607.6425,-257.5091 611.5327,-251.6896"/>
</g>
<!-- Node1&#45;&gt;Node16 -->
<g id="edge22" class="edge">
<title>Node1&#45;&gt;Node16</title>
<path fill="none" stroke="#191970" d="M711.665,-299.6229C816.0692,-295.0196 1140.804,-279.0859 1243,-255 1320.8402,-236.6544 1350.4203,-241.3471 1410,-188 1437.054,-163.7761 1444.2521,-148.0643 1440,-112 1438.9571,-103.1546 1436.8232,-93.5467 1434.71,-85.4104"/>
<polygon fill="#191970" stroke="#191970" points="1438.0772,-84.4548 1432.0375,-75.7501 1431.3306,-86.3213 1438.0772,-84.4548"/>
</g>
<!-- Node17 -->
<g id="node18" class="node">
<title>Node17</title>
<g id="a_node18"><a xlink:href="../../dd/d65/FrequencyTable_8h.html" target="_top" xlink:title="Histogram to depict frequencies of source symbols for rANS compression. ">
<polygon fill="none" stroke="#000000" points="938.5,-112.5 938.5,-131.5 1039.5,-131.5 1039.5,-112.5 938.5,-112.5"/>
<text text-anchor="middle" x="989" y="-119.5" font-family="Helvetica,sans-Serif" font-size="10.00" fill="#000000">FrequencyTable.h</text>
</a>
</g>
</g>
<!-- Node1&#45;&gt;Node17 -->
<g id="edge23" class="edge">
<title>Node1&#45;&gt;Node17</title>
<path fill="none" stroke="#191970" d="M695.6669,-291.3762C746.8649,-261.8135 902.0957,-172.1802 963.5539,-136.6931"/>
<polygon fill="#191970" stroke="#191970" points="965.3408,-139.7029 972.2506,-131.6714 961.8405,-133.6409 965.3408,-139.7029"/>
</g>
<!-- Node1&#45;&gt;Node21 -->
<g id="edge35" class="edge">
<title>Node1&#45;&gt;Node21</title>
<path fill="none" stroke="#191970" d="M711.6503,-294.8216C758.6545,-285.9269 847.1377,-269.1832 914.4969,-256.4367"/>
<polygon fill="#191970" stroke="#191970" points="915.5202,-259.8053 924.695,-254.5069 914.2186,-252.9274 915.5202,-259.8053"/>
</g>
<!-- Node22 -->
<g id="node23" class="node">
<title>Node22</title>
<g id="a_node23"><a xlink:href="../../d0/d51/SymbolStatistics_8h.html" target="_top" xlink:title="Structure to depict the distribution of symbols in the source message. ">
<polygon fill="none" stroke="#000000" points="952.5,-168.5 952.5,-187.5 1059.5,-187.5 1059.5,-168.5 952.5,-168.5"/>
<text text-anchor="middle" x="1006" y="-175.5" font-family="Helvetica,sans-Serif" font-size="10.00" fill="#000000">SymbolStatistics.h</text>
</a>
</g>
</g>
<!-- Node1&#45;&gt;Node22 -->
<g id="edge58" class="edge">
<title>Node1&#45;&gt;Node22</title>
<path fill="none" stroke="#191970" d="M711.6883,-296.9466C750.4002,-291.2775 816.1638,-278.8793 868,-255 889.3984,-245.1425 890.7658,-236.0681 911,-224 931.3711,-211.8502 955.4288,-200.2269 974.2372,-191.7037"/>
<polygon fill="#191970" stroke="#191970" points="975.8455,-194.8187 983.547,-187.5429 972.9892,-188.4279 975.8455,-194.8187"/>
</g>
<!-- Node1&#45;&gt;Node23 -->
<g id="edge52" class="edge">
<title>Node1&#45;&gt;Node23</title>
<path fill="none" stroke="#191970" d="M711.6682,-298.5199C782.2791,-292.9151 954.2779,-277.9466 1097,-255 1103.8756,-253.8945 1111.0821,-252.57 1118.1775,-251.1671"/>
<polygon fill="#191970" stroke="#191970" points="1119.3439,-254.5013 1128.4419,-249.072 1117.944,-247.6427 1119.3439,-254.5013"/>
</g>
<!-- Node3 -->
<g id="node4" class="node">
<title>Node3</title>
<polygon fill="none" stroke="#bfbfbf" points="1185.5,-56.5 1185.5,-75.5 1232.5,-75.5 1232.5,-56.5 1185.5,-56.5"/>
<text text-anchor="middle" x="1209" y="-63.5" font-family="Helvetica,sans-Serif" font-size="10.00" fill="#000000">vector</text>
</g>
<!-- Node2&#45;&gt;Node3 -->
<g id="edge3" class="edge">
<title>Node2&#45;&gt;Node3</title>
<path fill="none" stroke="#191970" d="M426.0333,-176.5986C563.8556,-172.6042 930.803,-159.6238 1049,-132 1052.3052,-131.2275 1130.6952,-98.6482 1176.5014,-79.5589"/>
<polygon fill="#191970" stroke="#191970" points="1178.1324,-82.671 1186.0157,-75.5926 1175.4389,-76.2099 1178.1324,-82.671"/>
</g>
<!-- Node4 -->
<g id="node5" class="node">
<title>Node4</title>
<polygon fill="none" stroke="#bfbfbf" points="192,-56.5 192,-75.5 242,-75.5 242,-56.5 192,-56.5"/>
<text text-anchor="middle" x="217" y="-63.5" font-family="Helvetica,sans-Serif" font-size="10.00" fill="#000000">cstdint</text>
</g>
<!-- Node2&#45;&gt;Node4 -->
<g id="edge4" class="edge">
<title>Node2&#45;&gt;Node4</title>
<path fill="none" stroke="#191970" d="M329.8847,-168.4275C306.0556,-161.4422 277.096,-149.9807 256,-132 241.3284,-119.495 230.7742,-100.0123 224.3749,-85.451"/>
<polygon fill="#191970" stroke="#191970" points="227.4849,-83.8103 220.4501,-75.888 221.0091,-86.4681 227.4849,-83.8103"/>
</g>
<!-- Node5 -->
<g id="node6" class="node">
<title>Node5</title>
<polygon fill="none" stroke="#bfbfbf" points="463,-56.5 463,-75.5 515,-75.5 515,-56.5 463,-56.5"/>
<text text-anchor="middle" x="489" y="-63.5" font-family="Helvetica,sans-Serif" font-size="10.00" fill="#000000">cassert</text>
</g>
<!-- Node2&#45;&gt;Node5 -->
<g id="edge5" class="edge">
<title>Node2&#45;&gt;Node5</title>
<path fill="none" stroke="#191970" d="M365.343,-168.1592C355.6583,-154.4256 341.6474,-129.2591 354,-112 365.7062,-95.644 416.9248,-81.5216 452.7904,-73.385"/>
<polygon fill="#191970" stroke="#191970" points="453.898,-76.7249 462.91,-71.154 452.3909,-69.8891 453.898,-76.7249"/>
</g>
<!-- Node6 -->
<g id="node7" class="node">
<title>Node6</title>
<polygon fill="none" stroke="#bfbfbf" points="264.5,-112.5 264.5,-131.5 305.5,-131.5 305.5,-112.5 264.5,-112.5"/>
<text text-anchor="middle" x="285" y="-119.5" font-family="Helvetica,sans-Serif" font-size="10.00" fill="#000000">tuple</text>
</g>
<!-- Node2&#45;&gt;Node6 -->
<g id="edge6" class="edge">
<title>Node2&#45;&gt;Node6</title>
<path fill="none" stroke="#191970" d="M357.6716,-168.2455C344.1697,-159.6534 324.2878,-147.0014 308.7314,-137.1018"/>
<polygon fill="#191970" stroke="#191970" points="310.4685,-134.0587 300.1528,-131.6427 306.7103,-139.9643 310.4685,-134.0587"/>
</g>
<!-- Node2&#45;&gt;Node7 -->
<g id="edge7" class="edge">
<title>Node2&#45;&gt;Node7</title>
<path fill="none" stroke="#191970" d="M394.0815,-168.3337C414.3275,-159.0432 445.7695,-144.5956 473,-132 492.1298,-123.1514 496.3439,-119.6083 516,-112 549.7966,-98.9183 589.0065,-86.7957 618.4271,-78.2829"/>
<polygon fill="#191970" stroke="#191970" points="619.7504,-81.5447 628.4003,-75.4267 617.8231,-74.8153 619.7504,-81.5447"/>
</g>
<!-- Node2&#45;&gt;Node8 -->
<g id="edge8" class="edge">
<title>Node2&#45;&gt;Node8</title>
<path fill="none" stroke="#191970" d="M329.4537,-168.4369C285.7207,-158.8328 218.2655,-144.0191 171.3458,-133.7152"/>
<polygon fill="#191970" stroke="#191970" points="171.8847,-130.2502 161.3667,-131.5237 170.3832,-137.0872 171.8847,-130.2502"/>
</g>
<!-- Node9 -->
<g id="node10" class="node">
<title>Node9</title>
<g id="a_node10"><a xlink:href="../../d2/d53/EncoderSymbol_8h.html" target="_top" xlink:title="Structure containing all relevant information to encode a symbol. ">
<polygon fill="none" stroke="#000000" points="362.5,-112.5 362.5,-131.5 463.5,-131.5 463.5,-112.5 362.5,-112.5"/>
<text text-anchor="middle" x="413" y="-119.5" font-family="Helvetica,sans-Serif" font-size="10.00" fill="#000000">EncoderSymbol.h</text>
</a>
</g>
</g>
<!-- Node2&#45;&gt;Node9 -->
<g id="edge10" class="edge">
<title>Node2&#45;&gt;Node9</title>
<path fill="none" stroke="#191970" d="M379.9675,-168.2455C385.5311,-160.4564 393.478,-149.3308 400.1829,-139.9439"/>
<polygon fill="#191970" stroke="#191970" points="403.148,-141.8144 406.1124,-131.6427 397.4519,-137.7457 403.148,-141.8144"/>
</g>
<!-- Node10 -->
<g id="node11" class="node">
<title>Node10</title>
<g id="a_node11"><a xlink:href="../../d4/da1/helper_8h.html" target="_top" xlink:title="various helper functions ">
<polygon fill="none" stroke="#000000" points="767,-56.5 767,-75.5 823,-75.5 823,-56.5 767,-56.5"/>
<text text-anchor="middle" x="795" y="-63.5" font-family="Helvetica,sans-Serif" font-size="10.00" fill="#000000">helper.h</text>
</a>
</g>
</g>
<!-- Node2&#45;&gt;Node10 -->
<g id="edge17" class="edge">
<title>Node2&#45;&gt;Node10</title>
<path fill="none" stroke="#191970" d="M408.9795,-168.4509C488.0175,-147.474 676.1767,-97.536 757.0201,-76.08"/>
<polygon fill="#191970" stroke="#191970" points="758.0197,-79.4359 766.7872,-73.4878 756.224,-72.6702 758.0197,-79.4359"/>
</g>
<!-- Node8&#45;&gt;Node4 -->
<g id="edge9" class="edge">
<title>Node8&#45;&gt;Node4</title>
<path fill="none" stroke="#191970" d="M135.2445,-112.2455C150.5761,-103.5731 173.2199,-90.7645 190.7916,-80.825"/>
<polygon fill="#191970" stroke="#191970" points="192.9724,-83.6126 199.9531,-75.6427 189.5259,-77.5198 192.9724,-83.6126"/>
</g>
<!-- Node9&#45;&gt;Node4 -->
<g id="edge11" class="edge">
<title>Node9&#45;&gt;Node4</title>
<path fill="none" stroke="#191970" d="M379.3064,-112.3733C343.8423,-102.2407 288.2625,-86.3607 252.2302,-76.0658"/>
<polygon fill="#191970" stroke="#191970" points="252.746,-72.5731 242.1692,-73.1912 250.8229,-79.3038 252.746,-72.5731"/>
</g>
<!-- Node9&#45;&gt;Node5 -->
<g id="edge12" class="edge">
<title>Node9&#45;&gt;Node5</title>
<path fill="none" stroke="#191970" d="M426.2382,-112.2455C437.681,-103.814 454.4296,-91.4729 467.7475,-81.6598"/>
<polygon fill="#191970" stroke="#191970" points="469.9391,-84.3924 475.9135,-75.6427 465.7867,-78.757 469.9391,-84.3924"/>
</g>
<!-- Node9&#45;&gt;Node10 -->
<g id="edge13" class="edge">
<title>Node9&#45;&gt;Node10</title>
<path fill="none" stroke="#191970" d="M463.7267,-114.5636C541.3297,-103.1873 687.7857,-81.7173 756.9711,-71.5749"/>
<polygon fill="#191970" stroke="#191970" points="757.6088,-75.0189 766.9953,-70.1054 756.5934,-68.093 757.6088,-75.0189"/>
</g>
<!-- Node10&#45;&gt;Node11 -->
<g id="edge14" class="edge">
<title>Node10&#45;&gt;Node11</title>
<path fill="none" stroke="#191970" d="M766.8943,-62.4836C749.6327,-60.4042 727.0595,-57.8285 707,-56 466.2502,-34.0551 175.8978,-17.4454 74.8121,-11.9543"/>
<polygon fill="#191970" stroke="#191970" points="74.9761,-8.4581 64.8018,-11.4133 74.5983,-15.4479 74.9761,-8.4581"/>
</g>
<!-- Node12 -->
<g id="node13" class="node">
<title>Node12</title>
<polygon fill="none" stroke="#bfbfbf" points="1071.5,-.5 1071.5,-19.5 1118.5,-19.5 1118.5,-.5 1071.5,-.5"/>
<text text-anchor="middle" x="1095" y="-7.5" font-family="Helvetica,sans-Serif" font-size="10.00" fill="#000000">cmath</text>
</g>
<!-- Node10&#45;&gt;Node12 -->
<g id="edge15" class="edge">
<title>Node10&#45;&gt;Node12</title>
<path fill="none" stroke="#191970" d="M823.2164,-58.0907C826.1732,-57.3468 829.1419,-56.6348 832,-56 913.7446,-37.844 1011.085,-22.4058 1061.3045,-14.8907"/>
<polygon fill="#191970" stroke="#191970" points="1061.9055,-18.3399 1071.283,-13.4092 1060.8774,-11.4158 1061.9055,-18.3399"/>
</g>
<!-- Node13 -->
<g id="node14" class="node">
<title>Node13</title>
<polygon fill="none" stroke="#bfbfbf" points="770,-.5 770,-19.5 820,-19.5 820,-.5 770,-.5"/>
<text text-anchor="middle" x="795" y="-7.5" font-family="Helvetica,sans-Serif" font-size="10.00" fill="#000000">chrono</text>
</g>
<!-- Node10&#45;&gt;Node13 -->
<g id="edge16" class="edge">
<title>Node10&#45;&gt;Node13</title>
<path fill="none" stroke="#191970" d="M795,-56.2455C795,-48.9382 795,-38.6944 795,-29.7046"/>
<polygon fill="#191970" stroke="#191970" points="798.5001,-29.6426 795,-19.6427 791.5001,-29.6427 798.5001,-29.6426"/>
</g>
<!-- Node17&#45;&gt;Node3 -->
<g id="edge31" class="edge">
<title>Node17&#45;&gt;Node3</title>
<path fill="none" stroke="#191970" d="M1030.3864,-112.4845C1066.3096,-104.0763 1119.9235,-91.1722 1175.5747,-76.014"/>
<polygon fill="#191970" stroke="#191970" points="1176.532,-79.3808 1185.2506,-73.3611 1174.681,-72.63 1176.532,-79.3808"/>
</g>
<!-- Node17&#45;&gt;Node5 -->
<g id="edge25" class="edge">
<title>Node17&#45;&gt;Node5</title>
<path fill="none" stroke="#191970" d="M938.3058,-116.3222C837.2703,-105.0063 612.9918,-79.8871 525.2176,-70.0564"/>
<polygon fill="#191970" stroke="#191970" points="525.535,-66.5701 515.2076,-68.9352 524.7559,-73.5266 525.535,-66.5701"/>
</g>
<!-- Node17&#45;&gt;Node7 -->
<g id="edge30" class="edge">
<title>Node17&#45;&gt;Node7</title>
<path fill="none" stroke="#191970" d="M938.4202,-113.3114C875.191,-102.45 767.9583,-84.0296 707.6417,-73.6685"/>
<polygon fill="#191970" stroke="#191970" points="708.1104,-70.1978 697.6622,-71.9542 706.9252,-77.0968 708.1104,-70.1978"/>
</g>
<!-- Node17&#45;&gt;Node10 -->
<g id="edge33" class="edge">
<title>Node17&#45;&gt;Node10</title>
<path fill="none" stroke="#191970" d="M955.6502,-112.3733C921.6326,-102.5537 868.916,-87.3366 833.2309,-77.0357"/>
<polygon fill="#191970" stroke="#191970" points="833.7739,-73.5496 823.1955,-74.1389 831.8325,-80.275 833.7739,-73.5496"/>
</g>
<!-- Node17&#45;&gt;Node12 -->
<g id="edge26" class="edge">
<title>Node17&#45;&gt;Node12</title>
<path fill="none" stroke="#191970" d="M975.3719,-112.2971C958.592,-99.152 933.941,-75.1307 948,-56 961.519,-37.6041 1022.3959,-23.2844 1061.4451,-15.7867"/>
<polygon fill="#191970" stroke="#191970" points="1062.152,-19.2153 1071.3413,-13.9421 1060.8692,-12.3338 1062.152,-19.2153"/>
</g>
<!-- Node17&#45;&gt;Node14 -->
<g id="edge27" class="edge">
<title>Node17&#45;&gt;Node14</title>
<path fill="none" stroke="#191970" d="M968.7151,-112.3733C949.8579,-103.4241 921.554,-89.9917 900.2545,-79.8835"/>
<polygon fill="#191970" stroke="#191970" points="901.5551,-76.6266 891.0202,-75.5011 898.5539,-82.9506 901.5551,-76.6266"/>
</g>
<!-- Node17&#45;&gt;Node16 -->
<g id="edge32" class="edge">
<title>Node17&#45;&gt;Node16</title>
<path fill="none" stroke="#191970" d="M1039.9034,-115.5214C1120.3061,-105.2883 1276.5863,-85.3981 1364.6502,-74.19"/>
<polygon fill="#191970" stroke="#191970" points="1365.3027,-77.6353 1374.7808,-72.9006 1364.4189,-70.6913 1365.3027,-77.6353"/>
</g>
<!-- Node18 -->
<g id="node19" class="node">
<title>Node18</title>
<polygon fill="none" stroke="#bfbfbf" points="957,-56.5 957,-75.5 1021,-75.5 1021,-56.5 957,-56.5"/>
<text text-anchor="middle" x="989" y="-63.5" font-family="Helvetica,sans-Serif" font-size="10.00" fill="#000000">algorithm</text>
</g>
<!-- Node17&#45;&gt;Node18 -->
<g id="edge24" class="edge">
<title>Node17&#45;&gt;Node18</title>
<path fill="none" stroke="#191970" d="M989,-112.2455C989,-104.9382 989,-94.6944 989,-85.7046"/>
<polygon fill="#191970" stroke="#191970" points="992.5001,-85.6426 989,-75.6427 985.5001,-85.6427 992.5001,-85.6426"/>
</g>
<!-- Node19 -->
<g id="node20" class="node">
<title>Node19</title>
<polygon fill="none" stroke="#bfbfbf" points="1039.5,-56.5 1039.5,-75.5 1092.5,-75.5 1092.5,-56.5 1039.5,-56.5"/>
<text text-anchor="middle" x="1066" y="-63.5" font-family="Helvetica,sans-Serif" font-size="10.00" fill="#000000">iterator</text>
</g>
<!-- Node17&#45;&gt;Node19 -->
<g id="edge28" class="edge">
<title>Node17&#45;&gt;Node19</title>
<path fill="none" stroke="#191970" d="M1002.4124,-112.2455C1014.0057,-103.814 1030.9748,-91.4729 1044.4678,-81.6598"/>
<polygon fill="#191970" stroke="#191970" points="1046.7126,-84.355 1052.7413,-75.6427 1042.5953,-78.6938 1046.7126,-84.355"/>
</g>
<!-- Node20 -->
<g id="node21" class="node">
<title>Node20</title>
<polygon fill="none" stroke="#bfbfbf" points="1111,-56.5 1111,-75.5 1167,-75.5 1167,-56.5 1111,-56.5"/>
<text text-anchor="middle" x="1139" y="-63.5" font-family="Helvetica,sans-Serif" font-size="10.00" fill="#000000">numeric</text>
</g>
<!-- Node17&#45;&gt;Node20 -->
<g id="edge29" class="edge">
<title>Node17&#45;&gt;Node20</title>
<path fill="none" stroke="#191970" d="M1014.7859,-112.3733C1039.4047,-103.1822 1076.69,-89.2624 1103.9875,-79.0713"/>
<polygon fill="#191970" stroke="#191970" points="1105.4063,-82.2777 1113.5506,-75.5011 1102.958,-75.7198 1105.4063,-82.2777"/>
</g>
<!-- Node21&#45;&gt;Node3 -->
<g id="edge36" class="edge">
<title>Node21&#45;&gt;Node3</title>
<path fill="none" stroke="#191970" d="M1023.5307,-224.4107C1036.5377,-214.2677 1053.9413,-200.5153 1069,-188 1113.2983,-151.1837 1163.9547,-106.3331 1190.518,-82.5948"/>
<polygon fill="#191970" stroke="#191970" points="1193.1412,-84.9441 1198.2573,-75.6664 1188.4722,-79.7287 1193.1412,-84.9441"/>
</g>
<!-- Node21&#45;&gt;Node7 -->
<g id="edge37" class="edge">
<title>Node21&#45;&gt;Node7</title>
<path fill="none" stroke="#191970" d="M974.335,-224.4065C909.1399,-191.2354 754.1505,-112.3772 690.7532,-80.1207"/>
<polygon fill="#191970" stroke="#191970" points="692.2382,-76.9494 681.7383,-75.534 689.0639,-83.1883 692.2382,-76.9494"/>
</g>
<!-- Node21&#45;&gt;Node10 -->
<g id="edge39" class="edge">
<title>Node21&#45;&gt;Node10</title>
<path fill="none" stroke="#191970" d="M983.6491,-224.3049C956.5489,-203.8965 907.3417,-166.2309 867,-132 847.9772,-115.8587 827.0387,-96.4714 812.6695,-82.9004"/>
<polygon fill="#191970" stroke="#191970" points="814.6946,-79.997 805.0323,-75.6506 809.8753,-85.0738 814.6946,-79.997"/>
</g>
<!-- Node21&#45;&gt;Node16 -->
<g id="edge38" class="edge">
<title>Node21&#45;&gt;Node16</title>
<path fill="none" stroke="#191970" d="M1056.0458,-224.4399C1118.181,-205.7568 1224.6601,-171.4977 1312,-132 1345.4307,-116.8816 1381.9592,-95.419 1405.1522,-81.1196"/>
<polygon fill="#191970" stroke="#191970" points="1407.2958,-83.908 1413.9362,-75.6524 1403.5969,-77.9651 1407.2958,-83.908"/>
</g>
<!-- Node21&#45;&gt;Node22 -->
<g id="edge40" class="edge">
<title>Node21&#45;&gt;Node22</title>
<path fill="none" stroke="#191970" d="M1004.4944,-224.2977C1004.7518,-216.3834 1005.0698,-206.6043 1005.3471,-198.0759"/>
<polygon fill="#191970" stroke="#191970" points="1008.8528,-197.9554 1005.6798,-187.8469 1001.8565,-197.7279 1008.8528,-197.9554"/>
</g>
<!-- Node22&#45;&gt;Node3 -->
<g id="edge45" class="edge">
<title>Node22&#45;&gt;Node3</title>
<path fill="none" stroke="#191970" d="M1027.9286,-168.4634C1047.8241,-159.6091 1077.8093,-145.7571 1103,-132 1132.3351,-115.9795 1164.7849,-95.3158 1185.9565,-81.4131"/>
<polygon fill="#191970" stroke="#191970" points="1188.1548,-84.1556 1194.5679,-75.7222 1184.2954,-78.3156 1188.1548,-84.1556"/>
</g>
<!-- Node22&#45;&gt;Node5 -->
<g id="edge42" class="edge">
<title>Node22&#45;&gt;Node5</title>
<path fill="none" stroke="#191970" d="M961.9209,-168.4509C861.5213,-146.7009 617.3998,-93.8158 525.1284,-73.8267"/>
<polygon fill="#191970" stroke="#191970" points="525.668,-70.3624 515.1537,-71.6658 524.1859,-77.2038 525.668,-70.3624"/>
</g>
<!-- Node22&#45;&gt;Node7 -->
<g id="edge48" class="edge">
<title>Node22&#45;&gt;Node7</title>
<path fill="none" stroke="#191970" d="M976.756,-168.4509C914.9913,-148.2829 771.2412,-101.3441 701.8499,-78.6857"/>
<polygon fill="#191970" stroke="#191970" points="702.7625,-75.3019 692.17,-75.5249 700.5896,-81.9561 702.7625,-75.3019"/>
</g>
<!-- Node22&#45;&gt;Node10 -->
<g id="edge50" class="edge">
<title>Node22&#45;&gt;Node10</title>
<path fill="none" stroke="#191970" d="M983.4322,-168.4307C962.9478,-159.5544 932.0519,-145.6885 906,-132 875.2618,-115.8491 841.0895,-95.0841 818.8884,-81.1991"/>
<polygon fill="#191970" stroke="#191970" points="820.4797,-78.0652 810.1515,-75.7031 816.7524,-83.9904 820.4797,-78.0652"/>
</g>
<!-- Node22&#45;&gt;Node12 -->
<g id="edge46" class="edge">
<title>Node22&#45;&gt;Node12</title>
<path fill="none" stroke="#191970" d="M1059.7138,-172.3259C1116.6781,-163.0624 1203.6244,-138.8599 1242,-76 1269.002,-31.7703 1179.9614,-16.9925 1128.6744,-12.2023"/>
<polygon fill="#191970" stroke="#191970" points="1128.9236,-8.7109 1118.6622,-11.3481 1128.3285,-15.6856 1128.9236,-8.7109"/>
</g>
<!-- Node22&#45;&gt;Node14 -->
<g id="edge43" class="edge">
<title>Node22&#45;&gt;Node14</title>
<path fill="none" stroke="#191970" d="M986.8562,-168.4713C970.834,-160.0293 947.801,-146.7761 930,-132 912.5678,-117.5301 895.6492,-97.8414 884.4323,-83.7415"/>
<polygon fill="#191970" stroke="#191970" points="887.1379,-81.5193 878.2315,-75.7812 881.6156,-85.8211 887.1379,-81.5193"/>
</g>
<!-- Node22&#45;&gt;Node16 -->
<g id="edge49" class="edge">
<title>Node22&#45;&gt;Node16</title>
<path fill="none" stroke="#191970" d="M1059.5476,-172.3581C1113.8482,-165.7987 1199.9182,-153.0866 1272,-132 1318.6044,-118.3665 1370.0254,-95.0637 1400.9039,-80.1082"/>
<polygon fill="#191970" stroke="#191970" points="1402.7333,-83.1096 1410.1754,-75.5687 1399.6551,-76.8227 1402.7333,-83.1096"/>
</g>
<!-- Node22&#45;&gt;Node17 -->
<g id="edge51" class="edge">
<title>Node22&#45;&gt;Node17</title>
<path fill="none" stroke="#191970" d="M1003.0388,-168.2455C1000.7962,-160.8579 997.6423,-150.4689 994.8919,-141.4087"/>
<polygon fill="#191970" stroke="#191970" points="998.1812,-140.1948 991.9272,-131.6427 991.483,-142.2282 998.1812,-140.1948"/>
</g>
<!-- Node22&#45;&gt;Node18 -->
<g id="edge41" class="edge">
<title>Node22&#45;&gt;Node18</title>
<path fill="none" stroke="#191970" d="M1019.9305,-168.3762C1036.1509,-155.8987 1059.4685,-133.2168 1049,-112 1042.5207,-98.8681 1030.2938,-88.4457 1018.5593,-80.8651"/>
<polygon fill="#191970" stroke="#191970" points="1020.1652,-77.7475 1009.7852,-75.6244 1016.5756,-83.7572 1020.1652,-77.7475"/>
</g>
<!-- Node22&#45;&gt;Node19 -->
<g id="edge47" class="edge">
<title>Node22&#45;&gt;Node19</title>
<path fill="none" stroke="#191970" d="M1025.3899,-168.4612C1038.862,-160.679 1055.8118,-148.3097 1064,-132 1071.1526,-117.7531 1071.1246,-99.5091 1069.6066,-85.8146"/>
<polygon fill="#191970" stroke="#191970" points="1073.0183,-84.9559 1068.1059,-75.5688 1066.0922,-85.9704 1073.0183,-84.9559"/>
</g>
<!-- Node22&#45;&gt;Node20 -->
<g id="edge44" class="edge">
<title>Node22&#45;&gt;Node20</title>
<path fill="none" stroke="#191970" d="M1024.6192,-168.3787C1040.2071,-159.8802 1062.627,-146.5961 1080,-132 1097.3459,-117.4267 1114.2776,-97.7538 1125.5211,-83.6858"/>
<polygon fill="#191970" stroke="#191970" points="1128.3287,-85.7773 1131.7395,-75.7465 1122.8179,-81.4609 1128.3287,-85.7773"/>
</g>
<!-- Node23&#45;&gt;Node3 -->
<g id="edge53" class="edge">
<title>Node23&#45;&gt;Node3</title>
<path fill="none" stroke="#191970" d="M1211.0465,-229.923C1248.0283,-220.3648 1298.3308,-204.7263 1310,-188 1329.3267,-160.2977 1328.2762,-140.4063 1310,-112 1295.1974,-88.9927 1265.7447,-77.3561 1242.4467,-71.5546"/>
<polygon fill="#191970" stroke="#191970" points="1243.0986,-68.114 1232.5754,-69.3445 1241.5691,-74.9449 1243.0986,-68.114"/>
</g>
<!-- Node23&#45;&gt;Node4 -->
<g id="edge54" class="edge">
<title>Node23&#45;&gt;Node4</title>
<path fill="none" stroke="#191970" d="M1130.8008,-229.9467C1119.9166,-227.6309 1108.0518,-225.4167 1097,-224 923.5694,-201.7678 475.8172,-246.3758 311,-188 271.4504,-173.9921 258.7257,-166.6047 235,-132 225.5671,-118.2418 221.0666,-99.7136 218.9257,-85.7908"/>
<polygon fill="#191970" stroke="#191970" points="222.3885,-85.2753 217.6654,-75.7915 215.4434,-86.1507 222.3885,-85.2753"/>
</g>
<!-- Node23&#45;&gt;Node12 -->
<g id="edge55" class="edge">
<title>Node23&#45;&gt;Node12</title>
<path fill="none" stroke="#191970" d="M1234.1543,-230.9858C1295.0645,-221.9763 1381.4367,-206.5144 1410,-188 1467.9551,-150.4343 1537.9399,-107.5703 1492,-56 1467.9713,-29.0263 1220.3135,-15.497 1128.7698,-11.3886"/>
<polygon fill="#191970" stroke="#191970" points="1128.7978,-7.8866 1118.6539,-10.9447 1128.4908,-14.8798 1128.7978,-7.8866"/>
</g>
<!-- Node23&#45;&gt;Node16 -->
<g id="edge56" class="edge">
<title>Node23&#45;&gt;Node16</title>
<path fill="none" stroke="#191970" d="M1231.2759,-229.9761C1285.9797,-220.5709 1361.1766,-205.1407 1386,-188 1410.7508,-170.9094 1414.0855,-160.3971 1424,-132 1429.2082,-117.0827 1430.2641,-99.1497 1430.1256,-85.744"/>
<polygon fill="#191970" stroke="#191970" points="1433.6226,-85.5922 1429.7934,-75.7136 1426.6265,-85.8241 1433.6226,-85.5922"/>
</g>
<!-- Node23&#45;&gt;Node22 -->
<g id="edge57" class="edge">
<title>Node23&#45;&gt;Node22</title>
<path fill="none" stroke="#191970" d="M1144.375,-229.8906C1116.5737,-219.4652 1072.0156,-202.7559 1041.0006,-191.1252"/>
<polygon fill="#191970" stroke="#191970" points="1042.0373,-187.776 1031.4451,-187.5419 1039.5794,-194.3303 1042.0373,-187.776"/>
</g>
</g>
</svg>
