<?xml version="1.0" encoding="UTF-8" standalone="no"?>
<!DOCTYPE svg PUBLIC "-//W3C//DTD SVG 1.1//EN"
 "http://www.w3.org/Graphics/SVG/1.1/DTD/svg11.dtd">
<!-- Generated by graphviz version 2.40.1 (20161225.0304)
 -->
<!-- Title: /home/travis/build/AliceO2Group/AliceO2/Common/MathUtils/include/MathUtils/MathBase.h Pages: 1 -->
<svg width="1593pt" height="173pt"
 viewBox="0.00 0.00 1593.00 173.00" xmlns="http://www.w3.org/2000/svg" xmlns:xlink="http://www.w3.org/1999/xlink">
<g id="graph0" class="graph" transform="scale(1 1) rotate(0) translate(4 169)">
<title>/home/travis/build/AliceO2Group/AliceO2/Common/MathUtils/include/MathUtils/MathBase.h</title>
<!-- Node0 -->
<g id="node1" class="node">
<title>Node0</title>
<polygon fill="#bfbfbf" stroke="#000000" points="603.5,-112.5 603.5,-164.5 755.5,-164.5 755.5,-112.5 603.5,-112.5"/>
<text text-anchor="start" x="611.5" y="-152.5" font-family="Helvetica,sans-Serif" font-size="10.00" fill="#000000">/home/travis/build</text>
<text text-anchor="start" x="611.5" y="-141.5" font-family="Helvetica,sans-Serif" font-size="10.00" fill="#000000">/AliceO2Group/AliceO2</text>
<text text-anchor="start" x="611.5" y="-130.5" font-family="Helvetica,sans-Serif" font-size="10.00" fill="#000000">/Common/MathUtils/include</text>
<text text-anchor="middle" x="679.5" y="-119.5" font-family="Helvetica,sans-Serif" font-size="10.00" fill="#000000">/MathUtils/MathBase.h</text>
</g>
<!-- Node1 -->
<g id="node2" class="node">
<title>Node1</title>
<polygon fill="none" stroke="#bfbfbf" points="0,-56.5 0,-75.5 47,-75.5 47,-56.5 0,-56.5"/>
<text text-anchor="middle" x="23.5" y="-63.5" font-family="Helvetica,sans-Serif" font-size="10.00" fill="#000000">cmath</text>
</g>
<!-- Node0&#45;&gt;Node1 -->
<g id="edge1" class="edge">
<title>Node0&#45;&gt;Node1</title>
<path fill="none" stroke="#191970" d="M603.0331,-135.61C486.7305,-130.1612 258.545,-115.3385 57.0316,-75.7343"/>
<polygon fill="#191970" stroke="#191970" points="57.6438,-72.2876 47.153,-73.7685 56.2776,-79.153 57.6438,-72.2876"/>
</g>
<!-- Node2 -->
<g id="node3" class="node">
<title>Node2</title>
<polygon fill="none" stroke="#bfbfbf" points="65.5,-56.5 65.5,-75.5 121.5,-75.5 121.5,-56.5 65.5,-56.5"/>
<text text-anchor="middle" x="93.5" y="-63.5" font-family="Helvetica,sans-Serif" font-size="10.00" fill="#000000">numeric</text>
</g>
<!-- Node0&#45;&gt;Node2 -->
<g id="edge2" class="edge">
<title>Node0&#45;&gt;Node2</title>
<path fill="none" stroke="#191970" d="M603.4728,-133.4817C499.0298,-125.7803 305.3063,-108.6038 131.7632,-76.0018"/>
<polygon fill="#191970" stroke="#191970" points="132.1576,-72.5142 121.68,-74.0856 130.8507,-79.3911 132.1576,-72.5142"/>
</g>
<!-- Node3 -->
<g id="node4" class="node">
<title>Node3</title>
<polygon fill="none" stroke="#bfbfbf" points="139.5,-56.5 139.5,-75.5 203.5,-75.5 203.5,-56.5 139.5,-56.5"/>
<text text-anchor="middle" x="171.5" y="-63.5" font-family="Helvetica,sans-Serif" font-size="10.00" fill="#000000">algorithm</text>
</g>
<!-- Node0&#45;&gt;Node3 -->
<g id="edge3" class="edge">
<title>Node0&#45;&gt;Node3</title>
<path fill="none" stroke="#191970" d="M603.2559,-130.6531C510.6639,-120.5768 349.9356,-101.3256 213.5,-76 213.3987,-75.9812 213.2972,-75.9623 213.1956,-75.9433"/>
<polygon fill="#191970" stroke="#191970" points="214.0302,-72.5415 203.533,-73.977 212.6342,-79.4009 214.0302,-72.5415"/>
</g>
<!-- Node4 -->
<g id="node5" class="node">
<title>Node4</title>
<polygon fill="none" stroke="#bfbfbf" points="222,-56.5 222,-75.5 269,-75.5 269,-56.5 222,-56.5"/>
<text text-anchor="middle" x="245.5" y="-63.5" font-family="Helvetica,sans-Serif" font-size="10.00" fill="#000000">vector</text>
</g>
<!-- Node0&#45;&gt;Node4 -->
<g id="edge4" class="edge">
<title>Node0&#45;&gt;Node4</title>
<path fill="none" stroke="#191970" d="M603.1434,-129.8213C524.2346,-120.1246 397.4613,-102.516 279.1441,-75.8781"/>
<polygon fill="#191970" stroke="#191970" points="279.7145,-72.4184 269.1869,-73.6101 278.1598,-79.2436 279.7145,-72.4184"/>
</g>
<!-- Node5 -->
<g id="node6" class="node">
<title>Node5</title>
<polygon fill="none" stroke="#bfbfbf" points="287.5,-56.5 287.5,-75.5 329.5,-75.5 329.5,-56.5 287.5,-56.5"/>
<text text-anchor="middle" x="308.5" y="-63.5" font-family="Helvetica,sans-Serif" font-size="10.00" fill="#000000">array</text>
</g>
<!-- Node0&#45;&gt;Node5 -->
<g id="edge5" class="edge">
<title>Node0&#45;&gt;Node5</title>
<path fill="none" stroke="#191970" d="M603.2679,-127.3994C533.9564,-116.6191 429.1226,-98.5904 339.5,-76 339.4006,-75.9749 339.3011,-75.9497 339.2014,-75.9244"/>
<polygon fill="#191970" stroke="#191970" points="340.3144,-72.6019 329.7396,-73.254 338.413,-79.3387 340.3144,-72.6019"/>
</g>
<!-- Node6 -->
<g id="node7" class="node">
<title>Node6</title>
<polygon fill="none" stroke="#bfbfbf" points="348,-56.5 348,-75.5 407,-75.5 407,-56.5 348,-56.5"/>
<text text-anchor="middle" x="377.5" y="-63.5" font-family="Helvetica,sans-Serif" font-size="10.00" fill="#000000">Rtypes.h</text>
</g>
<!-- Node0&#45;&gt;Node6 -->
<g id="edge6" class="edge">
<title>Node0&#45;&gt;Node6</title>
<path fill="none" stroke="#191970" d="M603.455,-120.8037C553.2495,-109.0327 485.7623,-93.044 417.0055,-76.0955"/>
<polygon fill="#191970" stroke="#191970" points="417.8443,-72.6976 407.2968,-73.698 416.166,-79.4934 417.8443,-72.6976"/>
</g>
<!-- Node7 -->
<g id="node8" class="node">
<title>Node7</title>
<polygon fill="none" stroke="#bfbfbf" points="425.5,-56.5 425.5,-75.5 511.5,-75.5 511.5,-56.5 425.5,-56.5"/>
<text text-anchor="middle" x="468.5" y="-63.5" font-family="Helvetica,sans-Serif" font-size="10.00" fill="#000000">TLinearFitter.h</text>
</g>
<!-- Node0&#45;&gt;Node7 -->
<g id="edge7" class="edge">
<title>Node0&#45;&gt;Node7</title>
<path fill="none" stroke="#191970" d="M603.6223,-112.4283C570.3711,-101.0031 532.8478,-88.11 505.7958,-78.8149"/>
<polygon fill="#191970" stroke="#191970" points="506.9251,-75.5021 496.3304,-75.5626 504.6503,-82.1222 506.9251,-75.5021"/>
</g>
<!-- Node8 -->
<g id="node9" class="node">
<title>Node8</title>
<polygon fill="none" stroke="#bfbfbf" points="529.5,-56.5 529.5,-75.5 599.5,-75.5 599.5,-56.5 529.5,-56.5"/>
<text text-anchor="middle" x="564.5" y="-63.5" font-family="Helvetica,sans-Serif" font-size="10.00" fill="#000000">TVectorD.h</text>
</g>
<!-- Node0&#45;&gt;Node8 -->
<g id="edge8" class="edge">
<title>Node0&#45;&gt;Node8</title>
<path fill="none" stroke="#191970" d="M637.9824,-112.3258C621.3051,-101.8119 602.6793,-90.0696 588.3529,-81.0377"/>
<polygon fill="#191970" stroke="#191970" points="589.9487,-77.9063 579.6229,-75.534 586.2156,-83.8278 589.9487,-77.9063"/>
</g>
<!-- Node9 -->
<g id="node10" class="node">
<title>Node9</title>
<polygon fill="none" stroke="#bfbfbf" points="617.5,-56.5 617.5,-75.5 673.5,-75.5 673.5,-56.5 617.5,-56.5"/>
<text text-anchor="middle" x="645.5" y="-63.5" font-family="Helvetica,sans-Serif" font-size="10.00" fill="#000000">TMath.h</text>
</g>
<!-- Node0&#45;&gt;Node9 -->
<g id="edge9" class="edge">
<title>Node0&#45;&gt;Node9</title>
<path fill="none" stroke="#191970" d="M667.2252,-112.3258C662.952,-103.2138 658.246,-93.179 654.3098,-84.7857"/>
<polygon fill="#191970" stroke="#191970" points="657.386,-83.1018 649.9711,-75.534 651.0483,-86.0739 657.386,-83.1018"/>
</g>
<!-- Node10 -->
<g id="node11" class="node">
<title>Node10</title>
<polygon fill="none" stroke="#bfbfbf" points="692,-56.5 692,-75.5 735,-75.5 735,-56.5 692,-56.5"/>
<text text-anchor="middle" x="713.5" y="-63.5" font-family="Helvetica,sans-Serif" font-size="10.00" fill="#000000">TF1.h</text>
</g>
<!-- Node0&#45;&gt;Node10 -->
<g id="edge10" class="edge">
<title>Node0&#45;&gt;Node10</title>
<path fill="none" stroke="#191970" d="M691.7748,-112.3258C696.048,-103.2138 700.754,-93.179 704.6902,-84.7857"/>
<polygon fill="#191970" stroke="#191970" points="707.9517,-86.0739 709.0289,-75.534 701.614,-83.1018 707.9517,-86.0739"/>
</g>
<!-- Node11 -->
<g id="node12" class="node">
<title>Node11</title>
<polygon fill="none" stroke="#bfbfbf" points="753.5,-56.5 753.5,-75.5 815.5,-75.5 815.5,-56.5 753.5,-56.5"/>
<text text-anchor="middle" x="784.5" y="-63.5" font-family="Helvetica,sans-Serif" font-size="10.00" fill="#000000">Foption.h</text>
</g>
<!-- Node0&#45;&gt;Node11 -->
<g id="edge11" class="edge">
<title>Node0&#45;&gt;Node11</title>
<path fill="none" stroke="#191970" d="M717.4074,-112.3258C732.4895,-101.912 749.3168,-90.2931 762.3465,-81.2965"/>
<polygon fill="#191970" stroke="#191970" points="764.4518,-84.0961 770.6921,-75.534 760.4745,-78.3358 764.4518,-84.0961"/>
</g>
<!-- Node12 -->
<g id="node13" class="node">
<title>Node12</title>
<polygon fill="none" stroke="#bfbfbf" points="833.5,-56.5 833.5,-75.5 921.5,-75.5 921.5,-56.5 833.5,-56.5"/>
<text text-anchor="middle" x="877.5" y="-63.5" font-family="Helvetica,sans-Serif" font-size="10.00" fill="#000000">HFitInterface.h</text>
</g>
<!-- Node0&#45;&gt;Node12 -->
<g id="edge12" class="edge">
<title>Node0&#45;&gt;Node12</title>
<path fill="none" stroke="#191970" d="M750.7028,-112.4283C781.6316,-101.1033 816.4994,-88.3361 841.8317,-79.0604"/>
<polygon fill="#191970" stroke="#191970" points="843.1974,-82.2876 851.3843,-75.5626 840.7905,-75.7144 843.1974,-82.2876"/>
</g>
<!-- Node13 -->
<g id="node14" class="node">
<title>Node13</title>
<polygon fill="none" stroke="#bfbfbf" points="939.5,-56.5 939.5,-75.5 1025.5,-75.5 1025.5,-56.5 939.5,-56.5"/>
<text text-anchor="middle" x="982.5" y="-63.5" font-family="Helvetica,sans-Serif" font-size="10.00" fill="#000000">TFitResultPtr.h</text>
</g>
<!-- Node0&#45;&gt;Node13 -->
<g id="edge13" class="edge">
<title>Node0&#45;&gt;Node13</title>
<path fill="none" stroke="#191970" d="M755.5686,-120.2988C811.0495,-107.0236 884.6505,-89.4128 932.7709,-77.8989"/>
<polygon fill="#191970" stroke="#191970" points="933.7258,-81.2693 942.6368,-75.5382 932.0968,-74.4614 933.7258,-81.2693"/>
</g>
<!-- Node14 -->
<g id="node15" class="node">
<title>Node14</title>
<polygon fill="none" stroke="#bfbfbf" points="1044,-56.5 1044,-75.5 1117,-75.5 1117,-56.5 1044,-56.5"/>
<text text-anchor="middle" x="1080.5" y="-63.5" font-family="Helvetica,sans-Serif" font-size="10.00" fill="#000000">TFitResult.h</text>
</g>
<!-- Node0&#45;&gt;Node14 -->
<g id="edge14" class="edge">
<title>Node0&#45;&gt;Node14</title>
<path fill="none" stroke="#191970" d="M755.8376,-125.963C825.589,-114.3008 931.8185,-96.0226 1033.9949,-76.0398"/>
<polygon fill="#191970" stroke="#191970" points="1034.7308,-79.4622 1043.869,-74.1008 1033.3819,-72.5934 1034.7308,-79.4622"/>
</g>
<!-- Node15 -->
<g id="node16" class="node">
<title>Node15</title>
<polygon fill="none" stroke="#bfbfbf" points="1135.5,-56.5 1135.5,-75.5 1199.5,-75.5 1199.5,-56.5 1135.5,-56.5"/>
<text text-anchor="middle" x="1167.5" y="-63.5" font-family="Helvetica,sans-Serif" font-size="10.00" fill="#000000">Fit/Fitter.h</text>
</g>
<!-- Node0&#45;&gt;Node15 -->
<g id="edge15" class="edge">
<title>Node0&#45;&gt;Node15</title>
<path fill="none" stroke="#191970" d="M755.8099,-130.1926C842.9214,-120.1776 989.8135,-101.674 1125.1966,-76.1006"/>
<polygon fill="#191970" stroke="#191970" points="1126.1701,-79.4782 1135.3378,-74.1674 1124.8592,-72.602 1126.1701,-79.4782"/>
</g>
<!-- Node16 -->
<g id="node17" class="node">
<title>Node16</title>
<polygon fill="none" stroke="#bfbfbf" points="1218,-56.5 1218,-75.5 1297,-75.5 1297,-56.5 1218,-56.5"/>
<text text-anchor="middle" x="1257.5" y="-63.5" font-family="Helvetica,sans-Serif" font-size="10.00" fill="#000000">Fit/BinData.h</text>
</g>
<!-- Node0&#45;&gt;Node16 -->
<g id="edge16" class="edge">
<title>Node0&#45;&gt;Node16</title>
<path fill="none" stroke="#191970" d="M755.5524,-131.5336C856.5555,-121.8306 1040.6622,-102.5784 1207.9926,-75.9621"/>
<polygon fill="#191970" stroke="#191970" points="1208.6516,-79.4013 1217.9717,-74.3628 1207.5438,-72.4895 1208.6516,-79.4013"/>
</g>
<!-- Node17 -->
<g id="node18" class="node">
<title>Node17</title>
<polygon fill="none" stroke="#bfbfbf" points="1315,-56.5 1315,-75.5 1452,-75.5 1452,-56.5 1315,-56.5"/>
<text text-anchor="middle" x="1383.5" y="-63.5" font-family="Helvetica,sans-Serif" font-size="10.00" fill="#000000">Math/WrappedMultiTF1.h</text>
</g>
<!-- Node0&#45;&gt;Node17 -->
<g id="edge17" class="edge">
<title>Node0&#45;&gt;Node17</title>
<path fill="none" stroke="#191970" d="M755.8268,-131.6308C872.0553,-121.0063 1100.6409,-99.4681 1304.6619,-76.188"/>
<polygon fill="#191970" stroke="#191970" points="1305.1284,-79.6575 1314.6654,-75.0428 1304.3322,-72.7029 1305.1284,-79.6575"/>
</g>
<!-- Node18 -->
<g id="node19" class="node">
<title>Node18</title>
<g id="a_node19"><a xlink:href="../../dd/da4/Logger_8h.html" target="_top" xlink:title="Framework/Logger.h">
<polygon fill="none" stroke="#000000" points="1470,-56.5 1470,-75.5 1585,-75.5 1585,-56.5 1470,-56.5"/>
<text text-anchor="middle" x="1527.5" y="-63.5" font-family="Helvetica,sans-Serif" font-size="10.00" fill="#000000">Framework/Logger.h</text>
</a>
</g>
</g>
<!-- Node0&#45;&gt;Node18 -->
<g id="edge18" class="edge">
<title>Node0&#45;&gt;Node18</title>
<path fill="none" stroke="#191970" d="M755.7127,-134.202C893.9967,-126.01 1195.6381,-106.3347 1459.7691,-76.1362"/>
<polygon fill="#191970" stroke="#191970" points="1460.4048,-79.5862 1469.9391,-74.966 1459.6046,-72.6321 1460.4048,-79.5862"/>
</g>
<!-- Node19 -->
<g id="node20" class="node">
<title>Node19</title>
<polygon fill="none" stroke="#bfbfbf" points="1473.5,-.5 1473.5,-19.5 1581.5,-19.5 1581.5,-.5 1473.5,-.5"/>
<text text-anchor="middle" x="1527.5" y="-7.5" font-family="Helvetica,sans-Serif" font-size="10.00" fill="#000000">fairlogger/Logger.h</text>
</g>
<!-- Node18&#45;&gt;Node19 -->
<g id="edge19" class="edge">
<title>Node18&#45;&gt;Node19</title>
<path fill="none" stroke="#191970" d="M1527.5,-56.2455C1527.5,-48.9382 1527.5,-38.6944 1527.5,-29.7046"/>
<polygon fill="#191970" stroke="#191970" points="1531.0001,-29.6426 1527.5,-19.6427 1524.0001,-29.6427 1531.0001,-29.6426"/>
</g>
</g>
</svg>
