<?xml version="1.0" encoding="UTF-8" standalone="no"?>
<!DOCTYPE svg PUBLIC "-//W3C//DTD SVG 1.1//EN"
 "http://www.w3.org/Graphics/SVG/1.1/DTD/svg11.dtd">
<!-- Generated by graphviz version 2.40.1 (20161225.0304)
 -->
<!-- Title: o2::trd::FeeParam Pages: 1 -->
<!--zoomable 1354 -->
<svg id="main" version="1.1" xmlns="http://www.w3.org/2000/svg" xmlns:xlink="http://www.w3.org/1999/xlink" xml:space="preserve" onload="init(evt)">
<style type="text/css"><![CDATA[
.edge:hover path { stroke: red; }
.edge:hover polygon { stroke: red; fill: red; }
]]></style>
<script type="text/javascript"><![CDATA[
var edges = document.getElementsByTagName('g');
if (edges && edges.length) {
  for (var i=0;i<edges.length;i++) {
    if (edges[i].id.substr(0,4)=='edge') {
      edges[i].setAttribute('class','edge');
    }
  }
}
]]></script>
        <defs>
                <circle id="rim" cx="0" cy="0" r="7"/>
                <circle id="rim2" cx="0" cy="0" r="3.5"/>
                <g id="zoomPlus">
                        <use xlink:href="#rim" fill="#404040">
                                <set attributeName="fill" to="#808080" begin="zoomplus.mouseover" end="zoomplus.mouseout"/>
                        </use>
                        <path d="M-4,0h8M0,-4v8" fill="none" stroke="white" stroke-width="1.5" pointer-events="none"/>
                </g>
                <g id="zoomMin">
                        <use xlink:href="#rim" fill="#404040">
                                <set attributeName="fill" to="#808080" begin="zoomminus.mouseover" end="zoomminus.mouseout"/>
                        </use>
                        <path d="M-4,0h8" fill="none" stroke="white" stroke-width="1.5" pointer-events="none"/>
                </g>
                <g id="dirArrow">
                        <path fill="none" stroke="white" stroke-width="1.5" d="M0,-3.0v7 M-2.5,-0.5L0,-3.0L2.5,-0.5"/>
                </g>
               <g id="resetDef">
                       <use xlink:href="#rim2" fill="#404040">
                               <set attributeName="fill" to="#808080" begin="reset.mouseover" end="reset.mouseout"/>
                       </use>
               </g>
        </defs>

<script type="text/javascript">
var viewWidth = 1185;
var viewHeight = 1354;
var sectionId = 'dynsection-0';
</script>
<script xlink:href="../../svgpan.js"/>
<svg id="graph" class="graph">
<g id="viewport">
<title>o2::trd::FeeParam</title>
<!-- Node1 -->
<g id="node1" class="node">
<title>Node1</title>
<polygon fill="#bfbfbf" stroke="#000000" points="566,-.5 566,-750.5 758,-750.5 758,-.5 566,-.5"/>
<text text-anchor="middle" x="662" y="-738.5" font-family="Helvetica,sans-Serif" font-size="10.00" fill="#000000">o2::trd::FeeParam</text>
<polyline fill="none" stroke="#000000" points="566,-731.5 758,-731.5 "/>
<text text-anchor="middle" x="662" y="-719.5" font-family="Helvetica,sans-Serif" font-size="10.00" fill="#000000"> </text>
<polyline fill="none" stroke="#000000" points="566,-712.5 758,-712.5 "/>
<text text-anchor="start" x="574" y="-700.5" font-family="Helvetica,sans-Serif" font-size="10.00" fill="#000000">+ FeeParam()</text>
<text text-anchor="start" x="574" y="-689.5" font-family="Helvetica,sans-Serif" font-size="10.00" fill="#000000">+ ~FeeParam()</text>
<text text-anchor="start" x="574" y="-678.5" font-family="Helvetica,sans-Serif" font-size="10.00" fill="#000000">+ operator=()</text>
<text text-anchor="start" x="574" y="-667.5" font-family="Helvetica,sans-Serif" font-size="10.00" fill="#000000">+ Copy()</text>
<text text-anchor="start" x="574" y="-656.5" font-family="Helvetica,sans-Serif" font-size="10.00" fill="#000000">+ getPadRowFromMCM()</text>
<text text-anchor="start" x="574" y="-645.5" font-family="Helvetica,sans-Serif" font-size="10.00" fill="#000000">+ getPadColFromADC()</text>
<text text-anchor="start" x="574" y="-634.5" font-family="Helvetica,sans-Serif" font-size="10.00" fill="#000000">+ getExtendedPadColFromADC()</text>
<text text-anchor="start" x="574" y="-623.5" font-family="Helvetica,sans-Serif" font-size="10.00" fill="#000000">+ getMCMfromPad()</text>
<text text-anchor="start" x="574" y="-612.5" font-family="Helvetica,sans-Serif" font-size="10.00" fill="#000000">+ getMCMfromSharedPad()</text>
<text text-anchor="start" x="574" y="-601.5" font-family="Helvetica,sans-Serif" font-size="10.00" fill="#000000">+ getROBfromPad()</text>
<text text-anchor="start" x="574" y="-590.5" font-family="Helvetica,sans-Serif" font-size="10.00" fill="#000000">+ getROBfromSharedPad()</text>
<text text-anchor="start" x="574" y="-579.5" font-family="Helvetica,sans-Serif" font-size="10.00" fill="#000000">+ getRobSide()</text>
<text text-anchor="start" x="574" y="-568.5" font-family="Helvetica,sans-Serif" font-size="10.00" fill="#000000">+ getColSide()</text>
<text text-anchor="start" x="574" y="-557.5" font-family="Helvetica,sans-Serif" font-size="10.00" fill="#000000">+ getORI()</text>
<text text-anchor="start" x="574" y="-546.5" font-family="Helvetica,sans-Serif" font-size="10.00" fill="#000000">+ getORIinSM()</text>
<text text-anchor="start" x="574" y="-535.5" font-family="Helvetica,sans-Serif" font-size="10.00" fill="#000000">+ getORIfromHCID()</text>
<text text-anchor="start" x="574" y="-524.5" font-family="Helvetica,sans-Serif" font-size="10.00" fill="#000000">+ getHCIDfromORI()</text>
<text text-anchor="start" x="574" y="-513.5" font-family="Helvetica,sans-Serif" font-size="10.00" fill="#000000">+ getTracklet()</text>
<text text-anchor="start" x="574" y="-502.5" font-family="Helvetica,sans-Serif" font-size="10.00" fill="#000000">+ getRejectMultipleTracklets()</text>
<text text-anchor="start" x="574" y="-491.5" font-family="Helvetica,sans-Serif" font-size="10.00" fill="#000000">+ getUseMisalignCorr()</text>
<text text-anchor="start" x="574" y="-480.5" font-family="Helvetica,sans-Serif" font-size="10.00" fill="#000000">+ getUseTimeOffset()</text>
<text text-anchor="start" x="574" y="-469.5" font-family="Helvetica,sans-Serif" font-size="10.00" fill="#000000">+ getRAWversion()</text>
<text text-anchor="start" x="574" y="-458.5" font-family="Helvetica,sans-Serif" font-size="10.00" fill="#000000">+ setRAWversion()</text>
<text text-anchor="start" x="574" y="-447.5" font-family="Helvetica,sans-Serif" font-size="10.00" fill="#000000">+ padMcmLUT()</text>
<text text-anchor="start" x="574" y="-436.5" font-family="Helvetica,sans-Serif" font-size="10.00" fill="#000000">+ setPtMin()</text>
<text text-anchor="start" x="574" y="-425.5" font-family="Helvetica,sans-Serif" font-size="10.00" fill="#000000">+ setMagField()</text>
<text text-anchor="start" x="574" y="-414.5" font-family="Helvetica,sans-Serif" font-size="10.00" fill="#000000">+ setOmegaTau()</text>
<text text-anchor="start" x="574" y="-403.5" font-family="Helvetica,sans-Serif" font-size="10.00" fill="#000000">+ setNtimebins()</text>
<text text-anchor="start" x="574" y="-392.5" font-family="Helvetica,sans-Serif" font-size="10.00" fill="#000000">+ setScaleQ0()</text>
<text text-anchor="start" x="574" y="-381.5" font-family="Helvetica,sans-Serif" font-size="10.00" fill="#000000">+ setScaleQ1()</text>
<text text-anchor="start" x="574" y="-370.5" font-family="Helvetica,sans-Serif" font-size="10.00" fill="#000000">+ setLengthCorrectionEnable()</text>
<text text-anchor="start" x="574" y="-359.5" font-family="Helvetica,sans-Serif" font-size="10.00" fill="#000000">+ setTiltCorrectionEnable()</text>
<text text-anchor="start" x="574" y="-348.5" font-family="Helvetica,sans-Serif" font-size="10.00" fill="#000000">+ setPIDgainCorrectionEnable()</text>
<text text-anchor="start" x="574" y="-337.5" font-family="Helvetica,sans-Serif" font-size="10.00" fill="#000000">+ setRawPtMin()</text>
<text text-anchor="start" x="574" y="-326.5" font-family="Helvetica,sans-Serif" font-size="10.00" fill="#000000">+ setRawMagField()</text>
<text text-anchor="start" x="574" y="-315.5" font-family="Helvetica,sans-Serif" font-size="10.00" fill="#000000">+ setRawOmegaTau()</text>
<text text-anchor="start" x="574" y="-304.5" font-family="Helvetica,sans-Serif" font-size="10.00" fill="#000000">+ setRawNtimebins()</text>
<text text-anchor="start" x="574" y="-293.5" font-family="Helvetica,sans-Serif" font-size="10.00" fill="#000000">+ setRawScaleQ0()</text>
<text text-anchor="start" x="574" y="-282.5" font-family="Helvetica,sans-Serif" font-size="10.00" fill="#000000">+ setRawScaleQ1()</text>
<text text-anchor="start" x="574" y="-271.5" font-family="Helvetica,sans-Serif" font-size="10.00" fill="#000000">+ setRawLengthCorrectionEnable()</text>
<text text-anchor="start" x="574" y="-260.5" font-family="Helvetica,sans-Serif" font-size="10.00" fill="#000000">+ setRawTiltCorrectionEnable()</text>
<text text-anchor="start" x="574" y="-249.5" font-family="Helvetica,sans-Serif" font-size="10.00" fill="#000000">+ setRawPIDgainCorrectionEnable()</text>
<text text-anchor="start" x="574" y="-238.5" font-family="Helvetica,sans-Serif" font-size="10.00" fill="#000000">+ getDyCorrection()</text>
<text text-anchor="start" x="574" y="-227.5" font-family="Helvetica,sans-Serif" font-size="10.00" fill="#000000">+ getDyRange()</text>
<text text-anchor="start" x="574" y="-216.5" font-family="Helvetica,sans-Serif" font-size="10.00" fill="#000000">+ getCorrectionFactors()</text>
<text text-anchor="start" x="574" y="-205.5" font-family="Helvetica,sans-Serif" font-size="10.00" fill="#000000">+ getNtimebins()</text>
<text text-anchor="start" x="574" y="-194.5" font-family="Helvetica,sans-Serif" font-size="10.00" fill="#000000">+ getX()</text>
<text text-anchor="start" x="574" y="-183.5" font-family="Helvetica,sans-Serif" font-size="10.00" fill="#000000">+ getLocalY()</text>
<text text-anchor="start" x="574" y="-172.5" font-family="Helvetica,sans-Serif" font-size="10.00" fill="#000000">+ getLocalZ()</text>
<text text-anchor="start" x="574" y="-161.5" font-family="Helvetica,sans-Serif" font-size="10.00" fill="#000000">+ getDist()</text>
<text text-anchor="start" x="574" y="-150.5" font-family="Helvetica,sans-Serif" font-size="10.00" fill="#000000">+ getElongation()</text>
<text text-anchor="start" x="574" y="-139.5" font-family="Helvetica,sans-Serif" font-size="10.00" fill="#000000">+ getPhi()</text>
<text text-anchor="start" x="574" y="-128.5" font-family="Helvetica,sans-Serif" font-size="10.00" fill="#000000">+ getPerp()</text>
<text text-anchor="start" x="574" y="-117.5" font-family="Helvetica,sans-Serif" font-size="10.00" fill="#000000">+ instance()</text>
<text text-anchor="start" x="574" y="-106.5" font-family="Helvetica,sans-Serif" font-size="10.00" fill="#000000">+ terminate()</text>
<text text-anchor="start" x="574" y="-95.5" font-family="Helvetica,sans-Serif" font-size="10.00" fill="#000000">+ aliToExtAli()</text>
<text text-anchor="start" x="574" y="-84.5" font-family="Helvetica,sans-Serif" font-size="10.00" fill="#000000">+ extAliToAli()</text>
<text text-anchor="start" x="574" y="-73.5" font-family="Helvetica,sans-Serif" font-size="10.00" fill="#000000">+ chipmaskToMCMlist()</text>
<text text-anchor="start" x="574" y="-62.5" font-family="Helvetica,sans-Serif" font-size="10.00" fill="#000000">+ getRobAB()</text>
<text text-anchor="start" x="574" y="-51.5" font-family="Helvetica,sans-Serif" font-size="10.00" fill="#000000">+ setTracklet()</text>
<text text-anchor="start" x="574" y="-40.5" font-family="Helvetica,sans-Serif" font-size="10.00" fill="#000000">+ setRejectMultipleTracklets()</text>
<text text-anchor="start" x="574" y="-29.5" font-family="Helvetica,sans-Serif" font-size="10.00" fill="#000000">+ setUseMisalignCorr()</text>
<text text-anchor="start" x="574" y="-18.5" font-family="Helvetica,sans-Serif" font-size="10.00" fill="#000000">+ setUseTimeOffset()</text>
<text text-anchor="start" x="574" y="-7.5" font-family="Helvetica,sans-Serif" font-size="10.00" fill="#000000"># createPad2MCMLookUpTable()</text>
</g>
<!-- Node1&#45;&gt;Node1 -->
<g id="edge10" class="edge">
<title>Node1&#45;&gt;Node1</title>
<path fill="none" stroke="#404040" d="M758.0583,-445.7293C768.9446,-432.5777 776,-409.168 776,-375.5 776,-349.1969 771.6937,-329.1549 764.6187,-315.374"/>
<polygon fill="none" stroke="#404040" points="764.5935,-315.3351 757.9711,-312.4813 758.0583,-305.2707 764.6807,-308.1245 764.5935,-315.3351"/>
<text text-anchor="middle" x="810.5" y="-373" font-family="Helvetica,sans-Serif" font-size="10.00" fill="#000000"> #mgInstance</text>
</g>
<!-- Node2 -->
<g id="node2" class="node">
<title>Node2</title>
<g id="a_node2"><a xlink:href="../../d4/dc3/classfloat.html" target="_top" xlink:title="{float\n||}">
<polygon fill="none" stroke="#000000" points="0,-1288.5 0,-1345.5 38,-1345.5 38,-1288.5 0,-1288.5"/>
<text text-anchor="middle" x="19" y="-1333.5" font-family="Helvetica,sans-Serif" font-size="10.00" fill="#000000">float</text>
<polyline fill="none" stroke="#000000" points="0,-1326.5 38,-1326.5 "/>
<text text-anchor="middle" x="19" y="-1314.5" font-family="Helvetica,sans-Serif" font-size="10.00" fill="#000000"> </text>
<polyline fill="none" stroke="#000000" points="0,-1307.5 38,-1307.5 "/>
<text text-anchor="middle" x="19" y="-1295.5" font-family="Helvetica,sans-Serif" font-size="10.00" fill="#000000"> </text>
</a>
</g>
</g>
<!-- Node2&#45;&gt;Node1 -->
<g id="edge1" class="edge">
<title>Node2&#45;&gt;Node1</title>
<path fill="none" stroke="#404040" d="M15.2371,-1288.4148C7.109,-1215.6406 -5.5647,-1019.676 72,-886 190.2627,-682.1844 420.2562,-519.6284 555.5103,-436.3779"/>
<polygon fill="none" stroke="#404040" points="555.6473,-436.2942 558.6792,-429.7514 565.8848,-430.0335 562.8529,-436.5764 555.6473,-436.2942"/>
<text text-anchor="middle" x="129.5" y="-1061" font-family="Helvetica,sans-Serif" font-size="10.00" fill="#000000"> #mMagField</text>
<text text-anchor="middle" x="129.5" y="-1050" font-family="Helvetica,sans-Serif" font-size="10.00" fill="#000000">#mgScalePad</text>
<text text-anchor="middle" x="129.5" y="-1039" font-family="Helvetica,sans-Serif" font-size="10.00" fill="#000000">#mgLengthInnerPadC0</text>
<text text-anchor="middle" x="129.5" y="-1028" font-family="Helvetica,sans-Serif" font-size="10.00" fill="#000000">#mgDriftLength</text>
<text text-anchor="middle" x="129.5" y="-1017" font-family="Helvetica,sans-Serif" font-size="10.00" fill="#000000">#mgBinDy</text>
<text text-anchor="middle" x="129.5" y="-1006" font-family="Helvetica,sans-Serif" font-size="10.00" fill="#000000">#mPtMin</text>
<text text-anchor="middle" x="129.5" y="-995" font-family="Helvetica,sans-Serif" font-size="10.00" fill="#000000">#mOmegaTau</text>
<text text-anchor="middle" x="129.5" y="-984" font-family="Helvetica,sans-Serif" font-size="10.00" fill="#000000">#mInvPtMin</text>
<text text-anchor="middle" x="129.5" y="-973" font-family="Helvetica,sans-Serif" font-size="10.00" fill="#000000">#mgLengthOuterPadC0</text>
</g>
<!-- Node3 -->
<g id="node3" class="node">
<title>Node3</title>
<g id="a_node3"><a xlink:href="../../d7/d96/classo2_1_1trd_1_1TRDCommonParam.html" target="_top" xlink:title="{o2::trd::TRDCommonParam\n||+ TRDCommonParam()\l+ operator=()\l+ ~TRDCommonParam()\l+ SetExB()\l+ SetSamplingFrequency()\l+ SetXenon()\l+ SetArgon()\l+ ExBOn()\l+ IsXenon()\l+ IsArgon()\l+ GetGasMixture()\l+ GetSamplingFrequency()\l+ GetCachedField()\l+ cacheMagField()\l+ GetOmegaTau()\l+ GetDiffCoeff()\l+ TimeStruct()\l+ Instance()\l+ Terminate()\l# SampleTimeStruct()\l}">
<polygon fill="none" stroke="#000000" points="196.5,-886.5 196.5,-1152.5 345.5,-1152.5 345.5,-886.5 196.5,-886.5"/>
<text text-anchor="middle" x="271" y="-1140.5" font-family="Helvetica,sans-Serif" font-size="10.00" fill="#000000">o2::trd::TRDCommonParam</text>
<polyline fill="none" stroke="#000000" points="196.5,-1133.5 345.5,-1133.5 "/>
<text text-anchor="middle" x="271" y="-1121.5" font-family="Helvetica,sans-Serif" font-size="10.00" fill="#000000"> </text>
<polyline fill="none" stroke="#000000" points="196.5,-1114.5 345.5,-1114.5 "/>
<text text-anchor="start" x="204.5" y="-1102.5" font-family="Helvetica,sans-Serif" font-size="10.00" fill="#000000">+ TRDCommonParam()</text>
<text text-anchor="start" x="204.5" y="-1091.5" font-family="Helvetica,sans-Serif" font-size="10.00" fill="#000000">+ operator=()</text>
<text text-anchor="start" x="204.5" y="-1080.5" font-family="Helvetica,sans-Serif" font-size="10.00" fill="#000000">+ ~TRDCommonParam()</text>
<text text-anchor="start" x="204.5" y="-1069.5" font-family="Helvetica,sans-Serif" font-size="10.00" fill="#000000">+ SetExB()</text>
<text text-anchor="start" x="204.5" y="-1058.5" font-family="Helvetica,sans-Serif" font-size="10.00" fill="#000000">+ SetSamplingFrequency()</text>
<text text-anchor="start" x="204.5" y="-1047.5" font-family="Helvetica,sans-Serif" font-size="10.00" fill="#000000">+ SetXenon()</text>
<text text-anchor="start" x="204.5" y="-1036.5" font-family="Helvetica,sans-Serif" font-size="10.00" fill="#000000">+ SetArgon()</text>
<text text-anchor="start" x="204.5" y="-1025.5" font-family="Helvetica,sans-Serif" font-size="10.00" fill="#000000">+ ExBOn()</text>
<text text-anchor="start" x="204.5" y="-1014.5" font-family="Helvetica,sans-Serif" font-size="10.00" fill="#000000">+ IsXenon()</text>
<text text-anchor="start" x="204.5" y="-1003.5" font-family="Helvetica,sans-Serif" font-size="10.00" fill="#000000">+ IsArgon()</text>
<text text-anchor="start" x="204.5" y="-992.5" font-family="Helvetica,sans-Serif" font-size="10.00" fill="#000000">+ GetGasMixture()</text>
<text text-anchor="start" x="204.5" y="-981.5" font-family="Helvetica,sans-Serif" font-size="10.00" fill="#000000">+ GetSamplingFrequency()</text>
<text text-anchor="start" x="204.5" y="-970.5" font-family="Helvetica,sans-Serif" font-size="10.00" fill="#000000">+ GetCachedField()</text>
<text text-anchor="start" x="204.5" y="-959.5" font-family="Helvetica,sans-Serif" font-size="10.00" fill="#000000">+ cacheMagField()</text>
<text text-anchor="start" x="204.5" y="-948.5" font-family="Helvetica,sans-Serif" font-size="10.00" fill="#000000">+ GetOmegaTau()</text>
<text text-anchor="start" x="204.5" y="-937.5" font-family="Helvetica,sans-Serif" font-size="10.00" fill="#000000">+ GetDiffCoeff()</text>
<text text-anchor="start" x="204.5" y="-926.5" font-family="Helvetica,sans-Serif" font-size="10.00" fill="#000000">+ TimeStruct()</text>
<text text-anchor="start" x="204.5" y="-915.5" font-family="Helvetica,sans-Serif" font-size="10.00" fill="#000000">+ Instance()</text>
<text text-anchor="start" x="204.5" y="-904.5" font-family="Helvetica,sans-Serif" font-size="10.00" fill="#000000">+ Terminate()</text>
<text text-anchor="start" x="204.5" y="-893.5" font-family="Helvetica,sans-Serif" font-size="10.00" fill="#000000"># SampleTimeStruct()</text>
</a>
</g>
</g>
<!-- Node2&#45;&gt;Node3 -->
<g id="edge4" class="edge">
<title>Node2&#45;&gt;Node3</title>
<path fill="none" stroke="#404040" d="M18.4622,-1288.2418C19.4538,-1255.4759 26.1914,-1202.4167 57,-1171 77.6885,-1149.9032 95.0793,-1167.1846 121,-1153 144.2054,-1140.3013 166.8327,-1123.4019 187.1858,-1105.9076"/>
<polygon fill="none" stroke="#404040" points="187.3547,-1105.7594 189.2234,-1098.7946 196.3712,-1097.8408 194.5024,-1104.8056 187.3547,-1105.7594"/>
<text text-anchor="middle" x="114" y="-1262" font-family="Helvetica,sans-Serif" font-size="10.00" fill="#000000"> #mDiffusionL</text>
<text text-anchor="middle" x="114" y="-1251" font-family="Helvetica,sans-Serif" font-size="10.00" fill="#000000">#mDiffLastVdrift</text>
<text text-anchor="middle" x="114" y="-1240" font-family="Helvetica,sans-Serif" font-size="10.00" fill="#000000">#mVDhi</text>
<text text-anchor="middle" x="114" y="-1229" font-family="Helvetica,sans-Serif" font-size="10.00" fill="#000000">#mVDlo</text>
<text text-anchor="middle" x="114" y="-1218" font-family="Helvetica,sans-Serif" font-size="10.00" fill="#000000">#mSamplingFrequency</text>
<text text-anchor="middle" x="114" y="-1207" font-family="Helvetica,sans-Serif" font-size="10.00" fill="#000000">#mTimeStruct1</text>
<text text-anchor="middle" x="114" y="-1196" font-family="Helvetica,sans-Serif" font-size="10.00" fill="#000000">#mDiffusionT</text>
<text text-anchor="middle" x="114" y="-1185" font-family="Helvetica,sans-Serif" font-size="10.00" fill="#000000">#mTimeStruct2</text>
<text text-anchor="middle" x="114" y="-1174" font-family="Helvetica,sans-Serif" font-size="10.00" fill="#000000">#mTimeLastVdrift</text>
</g>
<!-- Node3&#45;&gt;Node1 -->
<g id="edge2" class="edge">
<title>Node3&#45;&gt;Node1</title>
<path fill="none" stroke="#404040" d="M322.1226,-886.2503C338.6302,-847.5946 358.1131,-805.8831 379,-769 431.4827,-676.3238 501.2452,-579.1013 558.3726,-504.4813"/>
<polygon fill="none" stroke="#404040" points="558.6769,-504.0851 559.1606,-496.8903 565.9881,-494.5696 565.5044,-501.7644 558.6769,-504.0851"/>
<text text-anchor="middle" x="396" y="-816" font-family="Helvetica,sans-Serif" font-size="10.00" fill="#000000"> #mCP</text>
</g>
<!-- Node4 -->
<g id="node4" class="node">
<title>Node4</title>
<polygon fill="none" stroke="#bfbfbf" points="246,-1288.5 246,-1345.5 296,-1345.5 296,-1288.5 246,-1288.5"/>
<text text-anchor="middle" x="271" y="-1333.5" font-family="Helvetica,sans-Serif" font-size="10.00" fill="#000000">double</text>
<polyline fill="none" stroke="#bfbfbf" points="246,-1326.5 296,-1326.5 "/>
<text text-anchor="middle" x="271" y="-1314.5" font-family="Helvetica,sans-Serif" font-size="10.00" fill="#000000"> </text>
<polyline fill="none" stroke="#bfbfbf" points="246,-1307.5 296,-1307.5 "/>
<text text-anchor="middle" x="271" y="-1295.5" font-family="Helvetica,sans-Serif" font-size="10.00" fill="#000000"> </text>
</g>
<!-- Node4&#45;&gt;Node3 -->
<g id="edge3" class="edge">
<title>Node4&#45;&gt;Node3</title>
<path fill="none" stroke="#404040" d="M271,-1288.4744C271,-1259.3757 271,-1211.9435 271,-1164.9505"/>
<polygon fill="none" stroke="#404040" points="271.0001,-1164.7009 267,-1158.7009 271,-1152.7009 275,-1158.7008 271.0001,-1164.7009"/>
<text text-anchor="middle" x="293" y="-1218" font-family="Helvetica,sans-Serif" font-size="10.00" fill="#000000"> #mField</text>
</g>
<!-- Node5 -->
<g id="node5" class="node">
<title>Node5</title>
<polygon fill="none" stroke="#bfbfbf" points="367.5,-1288.5 367.5,-1345.5 396.5,-1345.5 396.5,-1288.5 367.5,-1288.5"/>
<text text-anchor="middle" x="382" y="-1333.5" font-family="Helvetica,sans-Serif" font-size="10.00" fill="#000000">int</text>
<polyline fill="none" stroke="#bfbfbf" points="367.5,-1326.5 396.5,-1326.5 "/>
<text text-anchor="middle" x="382" y="-1314.5" font-family="Helvetica,sans-Serif" font-size="10.00" fill="#000000"> </text>
<polyline fill="none" stroke="#bfbfbf" points="367.5,-1307.5 396.5,-1307.5 "/>
<text text-anchor="middle" x="382" y="-1295.5" font-family="Helvetica,sans-Serif" font-size="10.00" fill="#000000"> </text>
</g>
<!-- Node5&#45;&gt;Node1 -->
<g id="edge9" class="edge">
<title>Node5&#45;&gt;Node1</title>
<path fill="none" stroke="#404040" d="M396.7705,-1299.4144C402.9317,-1291.044 409.4657,-1280.5679 413,-1270 467.2366,-1107.8295 396.5565,-1052.1482 437,-886 464.158,-774.4305 514.4176,-656.7118 560.557,-562.4677"/>
<polygon fill="none" stroke="#404040" points="560.5693,-562.4426 559.6321,-555.2926 565.8716,-551.6776 566.8088,-558.8275 560.5693,-562.4426"/>
<text text-anchor="middle" x="491.5" y="-1039" font-family="Helvetica,sans-Serif" font-size="10.00" fill="#000000"> #mRAWversion</text>
<text text-anchor="middle" x="491.5" y="-1028" font-family="Helvetica,sans-Serif" font-size="10.00" fill="#000000">#mgkMaxRAWversion</text>
<text text-anchor="middle" x="491.5" y="-1017" font-family="Helvetica,sans-Serif" font-size="10.00" fill="#000000">#mNtimebins</text>
<text text-anchor="middle" x="491.5" y="-1006" font-family="Helvetica,sans-Serif" font-size="10.00" fill="#000000">#mgDyMax</text>
<text text-anchor="middle" x="491.5" y="-995" font-family="Helvetica,sans-Serif" font-size="10.00" fill="#000000">#mgDyMin</text>
</g>
<!-- Node5&#45;&gt;Node3 -->
<g id="edge5" class="edge">
<title>Node5&#45;&gt;Node3</title>
<path fill="none" stroke="#404040" d="M367.132,-1304.4732C357.705,-1295.7417 346.0072,-1283.3089 339,-1270 317.9554,-1230.0298 327.5474,-1214.671 316,-1171 315.4329,-1168.8551 314.8566,-1166.6946 314.2725,-1164.5215"/>
<polygon fill="none" stroke="#404040" points="314.2332,-1164.3769 308.7969,-1159.6391 311.0795,-1152.7987 316.5157,-1157.5366 314.2332,-1164.3769"/>
<text text-anchor="middle" x="376" y="-1223.5" font-family="Helvetica,sans-Serif" font-size="10.00" fill="#000000"> #mExBOn</text>
<text text-anchor="middle" x="376" y="-1212.5" font-family="Helvetica,sans-Serif" font-size="10.00" fill="#000000">#mGasMixture</text>
</g>
<!-- Node6 -->
<g id="node6" class="node">
<title>Node6</title>
<polygon fill="none" stroke="#bfbfbf" points="150,-1288.5 150,-1345.5 194,-1345.5 194,-1288.5 150,-1288.5"/>
<text text-anchor="middle" x="172" y="-1333.5" font-family="Helvetica,sans-Serif" font-size="10.00" fill="#000000">static</text>
<polyline fill="none" stroke="#bfbfbf" points="150,-1326.5 194,-1326.5 "/>
<text text-anchor="middle" x="172" y="-1314.5" font-family="Helvetica,sans-Serif" font-size="10.00" fill="#000000"> </text>
<polyline fill="none" stroke="#bfbfbf" points="150,-1307.5 194,-1307.5 "/>
<text text-anchor="middle" x="172" y="-1295.5" font-family="Helvetica,sans-Serif" font-size="10.00" fill="#000000"> </text>
</g>
<!-- Node6&#45;&gt;Node3 -->
<g id="edge6" class="edge">
<title>Node6&#45;&gt;Node3</title>
<path fill="none" stroke="#404040" d="M172.7324,-1288.3646C174.1836,-1258.4479 178.4617,-1210.4649 191,-1171 191.7261,-1168.7145 192.4859,-1166.4226 193.2764,-1164.1272"/>
<polygon fill="none" stroke="#404040" points="193.3577,-1163.9043 191.6575,-1156.8965 197.4723,-1152.6317 199.1725,-1159.6395 193.3577,-1163.9043"/>
<text text-anchor="middle" x="229" y="-1223.5" font-family="Helvetica,sans-Serif" font-size="10.00" fill="#000000"> #fgTerminated</text>
<text text-anchor="middle" x="229" y="-1212.5" font-family="Helvetica,sans-Serif" font-size="10.00" fill="#000000">#fgInstance</text>
</g>
<!-- Node7 -->
<g id="node7" class="node">
<title>Node7</title>
<polygon fill="none" stroke="#bfbfbf" points="554.5,-991 554.5,-1048 649.5,-1048 649.5,-991 554.5,-991"/>
<text text-anchor="middle" x="602" y="-1036" font-family="Helvetica,sans-Serif" font-size="10.00" fill="#000000">vector&lt; short &gt;</text>
<polyline fill="none" stroke="#bfbfbf" points="554.5,-1029 649.5,-1029 "/>
<text text-anchor="middle" x="602" y="-1017" font-family="Helvetica,sans-Serif" font-size="10.00" fill="#000000"> </text>
<polyline fill="none" stroke="#bfbfbf" points="554.5,-1010 649.5,-1010 "/>
<text text-anchor="middle" x="602" y="-998" font-family="Helvetica,sans-Serif" font-size="10.00" fill="#000000"> </text>
</g>
<!-- Node7&#45;&gt;Node1 -->
<g id="edge7" class="edge">
<title>Node7&#45;&gt;Node1</title>
<path fill="none" stroke="#404040" d="M599.7836,-990.7609C597.5541,-960.3057 594.2701,-910.7974 593,-868 591.6948,-824.0194 589.1859,-812.8344 593,-769 593.1808,-766.9217 593.3669,-764.8379 593.5582,-762.749"/>
<polygon fill="none" stroke="#404040" points="593.5649,-762.6784 590.1549,-756.3245 594.7085,-750.733 598.1185,-757.0869 593.5649,-762.6784"/>
<text text-anchor="middle" x="651.5" y="-816" font-family="Helvetica,sans-Serif" font-size="10.00" fill="#000000"> #mgLUTPadNumbering</text>
</g>
<!-- Node8 -->
<g id="node8" class="node">
<title>Node8</title>
<polygon fill="none" stroke="#bfbfbf" points="668,-985.5 668,-1053.5 796,-1053.5 796,-985.5 668,-985.5"/>
<text text-anchor="start" x="676" y="-1041.5" font-family="Helvetica,sans-Serif" font-size="10.00" fill="#000000">array&lt; float, constants</text>
<text text-anchor="middle" x="732" y="-1030.5" font-family="Helvetica,sans-Serif" font-size="10.00" fill="#000000">::NCHAMBERPERSEC &gt;</text>
<polyline fill="none" stroke="#bfbfbf" points="668,-1023.5 796,-1023.5 "/>
<text text-anchor="middle" x="732" y="-1011.5" font-family="Helvetica,sans-Serif" font-size="10.00" fill="#000000"> </text>
<polyline fill="none" stroke="#bfbfbf" points="668,-1004.5 796,-1004.5 "/>
<text text-anchor="middle" x="732" y="-992.5" font-family="Helvetica,sans-Serif" font-size="10.00" fill="#000000"> </text>
</g>
<!-- Node8&#45;&gt;Node1 -->
<g id="edge8" class="edge">
<title>Node8&#45;&gt;Node1</title>
<path fill="none" stroke="#404040" d="M729.3748,-985.4302C725.5752,-937.2025 718.1052,-846.2856 710,-769 709.781,-766.9118 709.5604,-764.8176 709.3383,-762.7176"/>
<polygon fill="none" stroke="#404040" points="709.322,-762.564 704.7085,-757.0219 708.0499,-750.6317 712.6634,-756.1738 709.322,-762.564"/>
<text text-anchor="middle" x="745" y="-816" font-family="Helvetica,sans-Serif" font-size="10.00" fill="#000000"> #mgZrow</text>
</g>
<!-- Node9 -->
<g id="node9" class="node">
<title>Node9</title>
<polygon fill="none" stroke="#bfbfbf" points="814,-991 814,-1048 852,-1048 852,-991 814,-991"/>
<text text-anchor="middle" x="833" y="-1036" font-family="Helvetica,sans-Serif" font-size="10.00" fill="#000000">bool</text>
<polyline fill="none" stroke="#bfbfbf" points="814,-1029 852,-1029 "/>
<text text-anchor="middle" x="833" y="-1017" font-family="Helvetica,sans-Serif" font-size="10.00" fill="#000000"> </text>
<polyline fill="none" stroke="#bfbfbf" points="814,-1010 852,-1010 "/>
<text text-anchor="middle" x="833" y="-998" font-family="Helvetica,sans-Serif" font-size="10.00" fill="#000000"> </text>
</g>
<!-- Node9&#45;&gt;Node1 -->
<g id="edge11" class="edge">
<title>Node9&#45;&gt;Node1</title>
<path fill="none" stroke="#404040" d="M827.3573,-990.7731C821.9456,-963.6827 813.3816,-921.9796 805,-886 791.9597,-830.0219 776.7722,-770.9767 761.261,-713.6918"/>
<polygon fill="none" stroke="#404040" points="761.1978,-713.4588 755.7644,-708.7177 758.0511,-701.8787 763.4845,-706.6199 761.1978,-713.4588"/>
<text text-anchor="middle" x="867.5" y="-860" font-family="Helvetica,sans-Serif" font-size="10.00" fill="#000000"> #mPidGainCorr</text>
<text text-anchor="middle" x="867.5" y="-849" font-family="Helvetica,sans-Serif" font-size="10.00" fill="#000000">#mTiltCorr</text>
<text text-anchor="middle" x="867.5" y="-838" font-family="Helvetica,sans-Serif" font-size="10.00" fill="#000000">#mPidTracklengthCorr</text>
<text text-anchor="middle" x="867.5" y="-827" font-family="Helvetica,sans-Serif" font-size="10.00" fill="#000000">#mgUseTimeOffset</text>
<text text-anchor="middle" x="867.5" y="-816" font-family="Helvetica,sans-Serif" font-size="10.00" fill="#000000">#mgLUTPadNumberingFilled</text>
<text text-anchor="middle" x="867.5" y="-805" font-family="Helvetica,sans-Serif" font-size="10.00" fill="#000000">#mgUseMisalignCorr</text>
<text text-anchor="middle" x="867.5" y="-794" font-family="Helvetica,sans-Serif" font-size="10.00" fill="#000000">#mgRejectMultipleTracklets</text>
<text text-anchor="middle" x="867.5" y="-783" font-family="Helvetica,sans-Serif" font-size="10.00" fill="#000000">#mgTerminated</text>
<text text-anchor="middle" x="867.5" y="-772" font-family="Helvetica,sans-Serif" font-size="10.00" fill="#000000">#mgTracklet</text>
</g>
<!-- Node10 -->
<g id="node10" class="node">
<title>Node10</title>
<polygon fill="none" stroke="#bfbfbf" points="938.5,-991 938.5,-1048 999.5,-1048 999.5,-991 938.5,-991"/>
<text text-anchor="middle" x="969" y="-1036" font-family="Helvetica,sans-Serif" font-size="10.00" fill="#000000">unsigned</text>
<polyline fill="none" stroke="#bfbfbf" points="938.5,-1029 999.5,-1029 "/>
<text text-anchor="middle" x="969" y="-1017" font-family="Helvetica,sans-Serif" font-size="10.00" fill="#000000"> </text>
<polyline fill="none" stroke="#bfbfbf" points="938.5,-1010 999.5,-1010 "/>
<text text-anchor="middle" x="969" y="-998" font-family="Helvetica,sans-Serif" font-size="10.00" fill="#000000"> </text>
</g>
<!-- Node10&#45;&gt;Node1 -->
<g id="edge12" class="edge">
<title>Node10&#45;&gt;Node1</title>
<path fill="none" stroke="#404040" d="M970.3545,-990.9994C971.6383,-943.3586 970.0582,-845.2649 941,-769 901.3969,-665.0593 827.7868,-563.0504 766.1174,-488.9476"/>
<polygon fill="none" stroke="#404040" points="765.9848,-488.7894 759.0644,-486.7624 758.2738,-479.5947 765.1942,-481.6217 765.9848,-488.7894"/>
<text text-anchor="middle" x="993.5" y="-821.5" font-family="Helvetica,sans-Serif" font-size="10.00" fill="#000000"> #mScaleQ0</text>
<text text-anchor="middle" x="993.5" y="-810.5" font-family="Helvetica,sans-Serif" font-size="10.00" fill="#000000">#mScaleQ1</text>
</g>
<!-- Node11 -->
<g id="node11" class="node">
<title>Node11</title>
<polygon fill="none" stroke="#bfbfbf" points="1018,-985.5 1018,-1053.5 1146,-1053.5 1146,-985.5 1018,-985.5"/>
<text text-anchor="start" x="1026" y="-1041.5" font-family="Helvetica,sans-Serif" font-size="10.00" fill="#000000">array&lt; float, constants</text>
<text text-anchor="middle" x="1082" y="-1030.5" font-family="Helvetica,sans-Serif" font-size="10.00" fill="#000000">::NLAYER &gt;</text>
<polyline fill="none" stroke="#bfbfbf" points="1018,-1023.5 1146,-1023.5 "/>
<text text-anchor="middle" x="1082" y="-1011.5" font-family="Helvetica,sans-Serif" font-size="10.00" fill="#000000"> </text>
<polyline fill="none" stroke="#bfbfbf" points="1018,-1004.5 1146,-1004.5 "/>
<text text-anchor="middle" x="1082" y="-992.5" font-family="Helvetica,sans-Serif" font-size="10.00" fill="#000000"> </text>
</g>
<!-- Node11&#45;&gt;Node1 -->
<g id="edge13" class="edge">
<title>Node11&#45;&gt;Node1</title>
<path fill="none" stroke="#404040" d="M1080.3397,-985.1486C1076.6852,-935.0007 1065.0332,-840.0018 1028,-769 963.9553,-646.2105 851.1316,-533.52 767.6272,-460.4989"/>
<polygon fill="none" stroke="#404040" points="767.4249,-460.3232 760.2718,-459.4097 758.3639,-452.4556 765.5169,-453.3691 767.4249,-460.3232"/>
<text text-anchor="middle" x="1119.5" y="-854.5" font-family="Helvetica,sans-Serif" font-size="10.00" fill="#000000"> #mgLengthInnerPadC1</text>
<text text-anchor="middle" x="1119.5" y="-843.5" font-family="Helvetica,sans-Serif" font-size="10.00" fill="#000000">#mgInvX</text>
<text text-anchor="middle" x="1119.5" y="-832.5" font-family="Helvetica,sans-Serif" font-size="10.00" fill="#000000">#mgX</text>
<text text-anchor="middle" x="1119.5" y="-821.5" font-family="Helvetica,sans-Serif" font-size="10.00" fill="#000000">#mgInvWidthPad</text>
<text text-anchor="middle" x="1119.5" y="-810.5" font-family="Helvetica,sans-Serif" font-size="10.00" fill="#000000">#mgWidthPad</text>
<text text-anchor="middle" x="1119.5" y="-799.5" font-family="Helvetica,sans-Serif" font-size="10.00" fill="#000000">#mgTiltingAngleTan</text>
<text text-anchor="middle" x="1119.5" y="-788.5" font-family="Helvetica,sans-Serif" font-size="10.00" fill="#000000">#mgLengthOuterPadC1</text>
<text text-anchor="middle" x="1119.5" y="-777.5" font-family="Helvetica,sans-Serif" font-size="10.00" fill="#000000">#mgTiltingAngle</text>
</g>
</g>
</svg>
        <g id="navigator" transform="translate(0 0)" fill="#404254">
                <rect fill="#f2f5e9" fill-opacity="0.5" stroke="#606060" stroke-width=".5" x="0" y="0" width="60" height="60"/>
                <use id="zoomplus" xlink:href="#zoomPlus" x="17" y="9" onmousedown="handleZoom(evt,'in')"/>
                <use id="zoomminus" xlink:href="#zoomMin" x="42" y="9" onmousedown="handleZoom(evt,'out')"/>
                <use id="reset" xlink:href="#resetDef" x="30" y="36" onmousedown="handleReset()"/>
                <g id="arrowUp" xlink:href="#dirArrow" transform="translate(30 24)" onmousedown="handlePan(0,-1)">
                  <use xlink:href="#rim" fill="#404040">
                        <set attributeName="fill" to="#808080" begin="arrowUp.mouseover" end="arrowUp.mouseout"/>
                  </use>
                  <path fill="none" stroke="white" stroke-width="1.5" d="M0,-3.0v7 M-2.5,-0.5L0,-3.0L2.5,-0.5"/>
                </g>
                <g id="arrowRight" xlink:href="#dirArrow" transform="rotate(90) translate(36 -43)" onmousedown="handlePan(1,0)">
                  <use xlink:href="#rim" fill="#404040">
                        <set attributeName="fill" to="#808080" begin="arrowRight.mouseover" end="arrowRight.mouseout"/>
                  </use>
                  <path fill="none" stroke="white" stroke-width="1.5" d="M0,-3.0v7 M-2.5,-0.5L0,-3.0L2.5,-0.5"/>
                </g>
                <g id="arrowDown" xlink:href="#dirArrow" transform="rotate(180) translate(-30 -48)" onmousedown="handlePan(0,1)">
                  <use xlink:href="#rim" fill="#404040">
                        <set attributeName="fill" to="#808080" begin="arrowDown.mouseover" end="arrowDown.mouseout"/>
                  </use>
                  <path fill="none" stroke="white" stroke-width="1.5" d="M0,-3.0v7 M-2.5,-0.5L0,-3.0L2.5,-0.5"/>
                </g>
                <g id="arrowLeft" xlink:href="#dirArrow" transform="rotate(270) translate(-36 17)" onmousedown="handlePan(-1,0)">
                  <use xlink:href="#rim" fill="#404040">
                        <set attributeName="fill" to="#808080" begin="arrowLeft.mouseover" end="arrowLeft.mouseout"/>
                  </use>
                  <path fill="none" stroke="white" stroke-width="1.5" d="M0,-3.0v7 M-2.5,-0.5L0,-3.0L2.5,-0.5"/>
                </g>
        </g>
        <svg viewBox="0 0 15 15" width="100%" height="30px" preserveAspectRatio="xMaxYMin meet">
         <g id="arrow_out" transform="scale(0.3 0.3)">
          <a xlink:href="classo2_1_1trd_1_1FeeParam__coll__graph_org.svg" target="_base">
           <rect id="button" ry="5" rx="5" y="6" x="6" height="38" width="38"
                fill="#f2f5e9" fill-opacity="0.5" stroke="#606060" stroke-width="1.0"/>
           <path id="arrow"
             d="M 11.500037,31.436501 C 11.940474,20.09759 22.043105,11.32322 32.158766,21.979434 L 37.068811,17.246167 C 37.068811,17.246167 37.088388,32 37.088388,32 L 22.160133,31.978069 C 22.160133,31.978069 26.997745,27.140456 26.997745,27.140456 C 18.528582,18.264221 13.291696,25.230495 11.500037,31.436501 z"
             style="fill:#404040;"/>
          </a>
         </g>
        </svg>
</svg>
