<?xml version="1.0" encoding="UTF-8" standalone="no"?>
<!DOCTYPE svg PUBLIC "-//W3C//DTD SVG 1.1//EN"
 "http://www.w3.org/Graphics/SVG/1.1/DTD/svg11.dtd">
<!-- Generated by graphviz version 2.40.1 (20161225.0304)
 -->
<!-- Title: /home/travis/build/AliceO2Group/AliceO2/Detectors/ITSMFT/MFT/tracking/include/MFTTracking/MFTTrackingParam.h Pages: 1 -->
<svg width="621pt" height="461pt"
 viewBox="0.00 0.00 620.50 461.00" xmlns="http://www.w3.org/2000/svg" xmlns:xlink="http://www.w3.org/1999/xlink">
<g id="graph0" class="graph" transform="scale(1 1) rotate(0) translate(4 457)">
<title>/home/travis/build/AliceO2Group/AliceO2/Detectors/ITSMFT/MFT/tracking/include/MFTTracking/MFTTrackingParam.h</title>
<!-- Node12 -->
<g id="node1" class="node">
<title>Node12</title>
<polygon fill="#bfbfbf" stroke="#000000" points="339.5,-389.5 339.5,-452.5 500.5,-452.5 500.5,-389.5 339.5,-389.5"/>
<text text-anchor="start" x="347.5" y="-440.5" font-family="Helvetica,sans-Serif" font-size="10.00" fill="#000000">/home/travis/build</text>
<text text-anchor="start" x="347.5" y="-429.5" font-family="Helvetica,sans-Serif" font-size="10.00" fill="#000000">/AliceO2Group/AliceO2</text>
<text text-anchor="start" x="347.5" y="-418.5" font-family="Helvetica,sans-Serif" font-size="10.00" fill="#000000">/Detectors/ITSMFT/MFT</text>
<text text-anchor="start" x="347.5" y="-407.5" font-family="Helvetica,sans-Serif" font-size="10.00" fill="#000000">/tracking/include/MFTTracking</text>
<text text-anchor="middle" x="420" y="-396.5" font-family="Helvetica,sans-Serif" font-size="10.00" fill="#000000">/MFTTrackingParam.h</text>
</g>
<!-- Node13 -->
<g id="node2" class="node">
<title>Node13</title>
<g id="a_node2"><a xlink:href="../../d7/d0b/ITSMFT_2MFT_2tracking_2include_2MFTTracking_2TrackFitter_8h.html" target="_top" xlink:title="/home/travis/build\l/AliceO2Group/AliceO2\l/Detectors/ITSMFT/MFT\l/tracking/include/MFTTracking\l/TrackFitter.h">
<polygon fill="none" stroke="#000000" points="242.5,-289.5 242.5,-352.5 403.5,-352.5 403.5,-289.5 242.5,-289.5"/>
<text text-anchor="start" x="250.5" y="-340.5" font-family="Helvetica,sans-Serif" font-size="10.00" fill="#000000">/home/travis/build</text>
<text text-anchor="start" x="250.5" y="-329.5" font-family="Helvetica,sans-Serif" font-size="10.00" fill="#000000">/AliceO2Group/AliceO2</text>
<text text-anchor="start" x="250.5" y="-318.5" font-family="Helvetica,sans-Serif" font-size="10.00" fill="#000000">/Detectors/ITSMFT/MFT</text>
<text text-anchor="start" x="250.5" y="-307.5" font-family="Helvetica,sans-Serif" font-size="10.00" fill="#000000">/tracking/include/MFTTracking</text>
<text text-anchor="middle" x="323" y="-296.5" font-family="Helvetica,sans-Serif" font-size="10.00" fill="#000000">/TrackFitter.h</text>
</a>
</g>
</g>
<!-- Node12&#45;&gt;Node13 -->
<g id="edge1" class="edge">
<title>Node12&#45;&gt;Node13</title>
<path fill="none" stroke="#191970" d="M382.2477,-382.0801C372.8366,-372.3779 362.8569,-362.0896 353.8247,-352.778"/>
<polygon fill="#191970" stroke="#191970" points="379.8337,-384.6183 389.3086,-389.3594 384.8583,-379.7445 379.8337,-384.6183"/>
</g>
<!-- Node20 -->
<g id="node9" class="node">
<title>Node20</title>
<g id="a_node9"><a xlink:href="../../d9/d5f/MFTTrackingParam_8cxx.html" target="_top" xlink:title="/home/travis/build\l/AliceO2Group/AliceO2\l/Detectors/ITSMFT/MFT\l/tracking/src/MFTTrackingParam.cxx">
<polygon fill="none" stroke="#000000" points="421.5,-295 421.5,-347 612.5,-347 612.5,-295 421.5,-295"/>
<text text-anchor="start" x="429.5" y="-335" font-family="Helvetica,sans-Serif" font-size="10.00" fill="#000000">/home/travis/build</text>
<text text-anchor="start" x="429.5" y="-324" font-family="Helvetica,sans-Serif" font-size="10.00" fill="#000000">/AliceO2Group/AliceO2</text>
<text text-anchor="start" x="429.5" y="-313" font-family="Helvetica,sans-Serif" font-size="10.00" fill="#000000">/Detectors/ITSMFT/MFT</text>
<text text-anchor="middle" x="517" y="-302" font-family="Helvetica,sans-Serif" font-size="10.00" fill="#000000">/tracking/src/MFTTrackingParam.cxx</text>
</a>
</g>
</g>
<!-- Node12&#45;&gt;Node20 -->
<g id="edge9" class="edge">
<title>Node12&#45;&gt;Node20</title>
<path fill="none" stroke="#191970" d="M457.66,-382.1752C469.0658,-370.4167 481.3145,-357.7892 491.7044,-347.078"/>
<polygon fill="#191970" stroke="#191970" points="455.1417,-379.7445 450.6914,-389.3594 460.1663,-384.6183 455.1417,-379.7445"/>
</g>
<!-- Node14 -->
<g id="node3" class="node">
<title>Node14</title>
<g id="a_node3"><a xlink:href="../../dd/dbf/ITSMFT_2MFT_2tracking_2include_2MFTTracking_2Tracker_8h.html" target="_top" xlink:title="/home/travis/build\l/AliceO2Group/AliceO2\l/Detectors/ITSMFT/MFT\l/tracking/include/MFTTracking\l/Tracker.h">
<polygon fill="none" stroke="#000000" points="156.5,-189.5 156.5,-252.5 317.5,-252.5 317.5,-189.5 156.5,-189.5"/>
<text text-anchor="start" x="164.5" y="-240.5" font-family="Helvetica,sans-Serif" font-size="10.00" fill="#000000">/home/travis/build</text>
<text text-anchor="start" x="164.5" y="-229.5" font-family="Helvetica,sans-Serif" font-size="10.00" fill="#000000">/AliceO2Group/AliceO2</text>
<text text-anchor="start" x="164.5" y="-218.5" font-family="Helvetica,sans-Serif" font-size="10.00" fill="#000000">/Detectors/ITSMFT/MFT</text>
<text text-anchor="start" x="164.5" y="-207.5" font-family="Helvetica,sans-Serif" font-size="10.00" fill="#000000">/tracking/include/MFTTracking</text>
<text text-anchor="middle" x="237" y="-196.5" font-family="Helvetica,sans-Serif" font-size="10.00" fill="#000000">/Tracker.h</text>
</a>
</g>
</g>
<!-- Node13&#45;&gt;Node14 -->
<g id="edge2" class="edge">
<title>Node13&#45;&gt;Node14</title>
<path fill="none" stroke="#191970" d="M289.0375,-281.5088C280.8383,-271.9748 272.18,-261.907 264.3291,-252.778"/>
<polygon fill="#191970" stroke="#191970" points="286.615,-284.0596 295.7891,-289.3594 291.9223,-279.4954 286.615,-284.0596"/>
</g>
<!-- Node19 -->
<g id="node8" class="node">
<title>Node19</title>
<g id="a_node8"><a xlink:href="../../d7/d9c/ITSMFT_2MFT_2tracking_2src_2TrackFitter_8cxx.html" target="_top" xlink:title="/home/travis/build\l/AliceO2Group/AliceO2\l/Detectors/ITSMFT/MFT\l/tracking/src/TrackFitter.cxx">
<polygon fill="none" stroke="#000000" points="335.5,-195 335.5,-247 484.5,-247 484.5,-195 335.5,-195"/>
<text text-anchor="start" x="343.5" y="-235" font-family="Helvetica,sans-Serif" font-size="10.00" fill="#000000">/home/travis/build</text>
<text text-anchor="start" x="343.5" y="-224" font-family="Helvetica,sans-Serif" font-size="10.00" fill="#000000">/AliceO2Group/AliceO2</text>
<text text-anchor="start" x="343.5" y="-213" font-family="Helvetica,sans-Serif" font-size="10.00" fill="#000000">/Detectors/ITSMFT/MFT</text>
<text text-anchor="middle" x="410" y="-202" font-family="Helvetica,sans-Serif" font-size="10.00" fill="#000000">/tracking/src/TrackFitter.cxx</text>
</a>
</g>
</g>
<!-- Node13&#45;&gt;Node19 -->
<g id="edge8" class="edge">
<title>Node13&#45;&gt;Node19</title>
<path fill="none" stroke="#191970" d="M357.3574,-281.5088C367.4214,-269.9409 378.1692,-257.5871 387.3122,-247.078"/>
<polygon fill="#191970" stroke="#191970" points="354.4505,-279.5176 350.5273,-289.3594 359.7316,-284.1122 354.4505,-279.5176"/>
</g>
<!-- Node15 -->
<g id="node4" class="node">
<title>Node15</title>
<g id="a_node4"><a xlink:href="../../d4/d77/ITSMFT_2MFT_2tracking_2src_2Tracker_8cxx.html" target="_top" xlink:title="/home/travis/build\l/AliceO2Group/AliceO2\l/Detectors/ITSMFT/MFT\l/tracking/src/Tracker.cxx">
<polygon fill="none" stroke="#000000" points="0,-95 0,-147 134,-147 134,-95 0,-95"/>
<text text-anchor="start" x="8" y="-135" font-family="Helvetica,sans-Serif" font-size="10.00" fill="#000000">/home/travis/build</text>
<text text-anchor="start" x="8" y="-124" font-family="Helvetica,sans-Serif" font-size="10.00" fill="#000000">/AliceO2Group/AliceO2</text>
<text text-anchor="start" x="8" y="-113" font-family="Helvetica,sans-Serif" font-size="10.00" fill="#000000">/Detectors/ITSMFT/MFT</text>
<text text-anchor="middle" x="67" y="-102" font-family="Helvetica,sans-Serif" font-size="10.00" fill="#000000">/tracking/src/Tracker.cxx</text>
</a>
</g>
</g>
<!-- Node14&#45;&gt;Node15 -->
<g id="edge3" class="edge">
<title>Node14&#45;&gt;Node15</title>
<path fill="none" stroke="#191970" d="M174.3773,-184.1631C153.4491,-171.8524 130.5723,-158.3955 111.3325,-147.078"/>
<polygon fill="#191970" stroke="#191970" points="172.817,-187.3059 183.2109,-189.3594 176.3662,-181.2724 172.817,-187.3059"/>
</g>
<!-- Node16 -->
<g id="node5" class="node">
<title>Node16</title>
<g id="a_node5"><a xlink:href="../../d8/da1/ITSMFT_2MFT_2workflow_2include_2MFTWorkflow_2TrackerSpec_8h.html" target="_top" xlink:title="/home/travis/build\l/AliceO2Group/AliceO2\l/Detectors/ITSMFT/MFT\l/workflow/include/MFTWorkflow\l/TrackerSpec.h">
<polygon fill="none" stroke="#000000" points="152,-89.5 152,-152.5 322,-152.5 322,-89.5 152,-89.5"/>
<text text-anchor="start" x="160" y="-140.5" font-family="Helvetica,sans-Serif" font-size="10.00" fill="#000000">/home/travis/build</text>
<text text-anchor="start" x="160" y="-129.5" font-family="Helvetica,sans-Serif" font-size="10.00" fill="#000000">/AliceO2Group/AliceO2</text>
<text text-anchor="start" x="160" y="-118.5" font-family="Helvetica,sans-Serif" font-size="10.00" fill="#000000">/Detectors/ITSMFT/MFT</text>
<text text-anchor="start" x="160" y="-107.5" font-family="Helvetica,sans-Serif" font-size="10.00" fill="#000000">/workflow/include/MFTWorkflow</text>
<text text-anchor="middle" x="237" y="-96.5" font-family="Helvetica,sans-Serif" font-size="10.00" fill="#000000">/TrackerSpec.h</text>
</a>
</g>
</g>
<!-- Node14&#45;&gt;Node16 -->
<g id="edge4" class="edge">
<title>Node14&#45;&gt;Node16</title>
<path fill="none" stroke="#191970" d="M237,-179.2111C237,-170.37 237,-161.1767 237,-152.778"/>
<polygon fill="#191970" stroke="#191970" points="233.5001,-179.3593 237,-189.3594 240.5001,-179.3594 233.5001,-179.3593"/>
</g>
<!-- Node18 -->
<g id="node7" class="node">
<title>Node18</title>
<g id="a_node7"><a xlink:href="../../d1/dd0/ITSMFT_2MFT_2workflow_2src_2TrackerSpec_8cxx.html" target="_top" xlink:title="/home/travis/build\l/AliceO2Group/AliceO2\l/Detectors/ITSMFT/MFT\l/workflow/src/TrackerSpec.cxx">
<polygon fill="none" stroke="#000000" points="268.5,-.5 268.5,-52.5 431.5,-52.5 431.5,-.5 268.5,-.5"/>
<text text-anchor="start" x="276.5" y="-40.5" font-family="Helvetica,sans-Serif" font-size="10.00" fill="#000000">/home/travis/build</text>
<text text-anchor="start" x="276.5" y="-29.5" font-family="Helvetica,sans-Serif" font-size="10.00" fill="#000000">/AliceO2Group/AliceO2</text>
<text text-anchor="start" x="276.5" y="-18.5" font-family="Helvetica,sans-Serif" font-size="10.00" fill="#000000">/Detectors/ITSMFT/MFT</text>
<text text-anchor="middle" x="350" y="-7.5" font-family="Helvetica,sans-Serif" font-size="10.00" fill="#000000">/workflow/src/TrackerSpec.cxx</text>
</a>
</g>
</g>
<!-- Node14&#45;&gt;Node18 -->
<g id="edge7" class="edge">
<title>Node14&#45;&gt;Node18</title>
<path fill="none" stroke="#191970" d="M303.9885,-183.0488C314.4508,-174.4179 324.0731,-164.3795 331,-153 349.7069,-122.2687 352.3464,-79.7746 351.7627,-52.7113"/>
<polygon fill="#191970" stroke="#191970" points="301.6006,-180.4719 295.8548,-189.3733 305.8975,-185.9979 301.6006,-180.4719"/>
</g>
<!-- Node17 -->
<g id="node6" class="node">
<title>Node17</title>
<g id="a_node6"><a xlink:href="../../d1/df6/ITSMFT_2MFT_2workflow_2src_2RecoWorkflow_8cxx.html" target="_top" xlink:title="/home/travis/build\l/AliceO2Group/AliceO2\l/Detectors/ITSMFT/MFT\l/workflow/src/RecoWorkflow.cxx">
<polygon fill="none" stroke="#000000" points="78,-.5 78,-52.5 250,-52.5 250,-.5 78,-.5"/>
<text text-anchor="start" x="86" y="-40.5" font-family="Helvetica,sans-Serif" font-size="10.00" fill="#000000">/home/travis/build</text>
<text text-anchor="start" x="86" y="-29.5" font-family="Helvetica,sans-Serif" font-size="10.00" fill="#000000">/AliceO2Group/AliceO2</text>
<text text-anchor="start" x="86" y="-18.5" font-family="Helvetica,sans-Serif" font-size="10.00" fill="#000000">/Detectors/ITSMFT/MFT</text>
<text text-anchor="middle" x="164" y="-7.5" font-family="Helvetica,sans-Serif" font-size="10.00" fill="#000000">/workflow/src/RecoWorkflow.cxx</text>
</a>
</g>
</g>
<!-- Node16&#45;&gt;Node17 -->
<g id="edge5" class="edge">
<title>Node16&#45;&gt;Node17</title>
<path fill="none" stroke="#191970" d="M206.3191,-81.2829C198.8465,-71.6095 191.04,-61.5038 184.196,-52.6442"/>
<polygon fill="#191970" stroke="#191970" points="203.6058,-83.4959 212.489,-89.27 209.1455,-79.2165 203.6058,-83.4959"/>
</g>
<!-- Node16&#45;&gt;Node18 -->
<g id="edge6" class="edge">
<title>Node16&#45;&gt;Node18</title>
<path fill="none" stroke="#191970" d="M282.7615,-82.7304C294.8474,-72.6232 307.6139,-61.9468 318.7377,-52.6442"/>
<polygon fill="#191970" stroke="#191970" points="280.3675,-80.1699 274.9417,-89.27 284.8581,-85.5396 280.3675,-80.1699"/>
</g>
</g>
</svg>
