<?xml version="1.0" encoding="UTF-8" standalone="no"?>
<!DOCTYPE svg PUBLIC "-//W3C//DTD SVG 1.1//EN"
 "http://www.w3.org/Graphics/SVG/1.1/DTD/svg11.dtd">
<!-- Generated by graphviz version 2.40.1 (20161225.0304)
 -->
<!-- Title: o2::mid::CTFHelper::Iter_colId Pages: 1 -->
<svg width="364pt" height="646pt"
 viewBox="0.00 0.00 363.50 646.00" xmlns="http://www.w3.org/2000/svg" xmlns:xlink="http://www.w3.org/1999/xlink">
<g id="graph0" class="graph" transform="scale(1 1) rotate(0) translate(4 642)">
<title>o2::mid::CTFHelper::Iter_colId</title>
<!-- Node3 -->
<g id="node1" class="node">
<title>Node3</title>
<polygon fill="#bfbfbf" stroke="#000000" points="71.5,-.5 71.5,-68.5 181.5,-68.5 181.5,-.5 71.5,-.5"/>
<text text-anchor="start" x="79.5" y="-56.5" font-family="Helvetica,sans-Serif" font-size="10.00" fill="#000000">o2::mid::CTFHelper</text>
<text text-anchor="middle" x="126.5" y="-45.5" font-family="Helvetica,sans-Serif" font-size="10.00" fill="#000000">::Iter_colId</text>
<polyline fill="none" stroke="#000000" points="71.5,-38.5 181.5,-38.5 "/>
<text text-anchor="middle" x="126.5" y="-26.5" font-family="Helvetica,sans-Serif" font-size="10.00" fill="#000000"> </text>
<polyline fill="none" stroke="#000000" points="71.5,-19.5 181.5,-19.5 "/>
<text text-anchor="start" x="79.5" y="-7.5" font-family="Helvetica,sans-Serif" font-size="10.00" fill="#000000">+ operator*()</text>
</g>
<!-- Node4 -->
<g id="node2" class="node">
<title>Node4</title>
<g id="a_node2"><a xlink:href="../../d2/dab/classo2_1_1mid_1_1CTFHelper_1_1__Iter.html" target="_top" xlink:title="{o2::mid::CTFHelper\l::_Iter\&lt; Iter_colId,\l ColumnData, uint8_t \&gt;\n||+ _Iter()\l+ _Iter()\l+ operator++()\l+ operator&#45;&#45;()\l+ operator&#45;()\l+ operator&#45;()\l+ operator&#45;()\l+ operator!=()\l+ operator==()\l+ operator\&gt;()\l+ operator\&lt;()\l}">
<polygon fill="none" stroke="#000000" points="61,-106.5 61,-295.5 192,-295.5 192,-106.5 61,-106.5"/>
<text text-anchor="start" x="69" y="-283.5" font-family="Helvetica,sans-Serif" font-size="10.00" fill="#000000">o2::mid::CTFHelper</text>
<text text-anchor="start" x="69" y="-272.5" font-family="Helvetica,sans-Serif" font-size="10.00" fill="#000000">::_Iter&lt; Iter_colId,</text>
<text text-anchor="middle" x="126.5" y="-261.5" font-family="Helvetica,sans-Serif" font-size="10.00" fill="#000000"> ColumnData, uint8_t &gt;</text>
<polyline fill="none" stroke="#000000" points="61,-254.5 192,-254.5 "/>
<text text-anchor="middle" x="126.5" y="-242.5" font-family="Helvetica,sans-Serif" font-size="10.00" fill="#000000"> </text>
<polyline fill="none" stroke="#000000" points="61,-235.5 192,-235.5 "/>
<text text-anchor="start" x="69" y="-223.5" font-family="Helvetica,sans-Serif" font-size="10.00" fill="#000000">+ _Iter()</text>
<text text-anchor="start" x="69" y="-212.5" font-family="Helvetica,sans-Serif" font-size="10.00" fill="#000000">+ _Iter()</text>
<text text-anchor="start" x="69" y="-201.5" font-family="Helvetica,sans-Serif" font-size="10.00" fill="#000000">+ operator++()</text>
<text text-anchor="start" x="69" y="-190.5" font-family="Helvetica,sans-Serif" font-size="10.00" fill="#000000">+ operator&#45;&#45;()</text>
<text text-anchor="start" x="69" y="-179.5" font-family="Helvetica,sans-Serif" font-size="10.00" fill="#000000">+ operator&#45;()</text>
<text text-anchor="start" x="69" y="-168.5" font-family="Helvetica,sans-Serif" font-size="10.00" fill="#000000">+ operator&#45;()</text>
<text text-anchor="start" x="69" y="-157.5" font-family="Helvetica,sans-Serif" font-size="10.00" fill="#000000">+ operator&#45;()</text>
<text text-anchor="start" x="69" y="-146.5" font-family="Helvetica,sans-Serif" font-size="10.00" fill="#000000">+ operator!=()</text>
<text text-anchor="start" x="69" y="-135.5" font-family="Helvetica,sans-Serif" font-size="10.00" fill="#000000">+ operator==()</text>
<text text-anchor="start" x="69" y="-124.5" font-family="Helvetica,sans-Serif" font-size="10.00" fill="#000000">+ operator&gt;()</text>
<text text-anchor="start" x="69" y="-113.5" font-family="Helvetica,sans-Serif" font-size="10.00" fill="#000000">+ operator&lt;()</text>
</a>
</g>
</g>
<!-- Node4&#45;&gt;Node3 -->
<g id="edge1" class="edge">
<title>Node4&#45;&gt;Node3</title>
<path fill="none" stroke="#191970" d="M126.5,-95.9018C126.5,-86.2608 126.5,-77.0404 126.5,-68.8096"/>
<polygon fill="none" stroke="#191970" points="123.0001,-96.0772 126.5,-106.0773 130.0001,-96.0773 123.0001,-96.0772"/>
</g>
<!-- Node5 -->
<g id="node3" class="node">
<title>Node5</title>
<polygon fill="none" stroke="#bfbfbf" points="0,-580.5 0,-637.5 45,-637.5 45,-580.5 0,-580.5"/>
<text text-anchor="middle" x="22.5" y="-625.5" font-family="Helvetica,sans-Serif" font-size="10.00" fill="#000000">size_t</text>
<polyline fill="none" stroke="#bfbfbf" points="0,-618.5 45,-618.5 "/>
<text text-anchor="middle" x="22.5" y="-606.5" font-family="Helvetica,sans-Serif" font-size="10.00" fill="#000000"> </text>
<polyline fill="none" stroke="#bfbfbf" points="0,-599.5 45,-599.5 "/>
<text text-anchor="middle" x="22.5" y="-587.5" font-family="Helvetica,sans-Serif" font-size="10.00" fill="#000000"> </text>
</g>
<!-- Node5&#45;&gt;Node4 -->
<g id="edge2" class="edge">
<title>Node5&#45;&gt;Node4</title>
<path fill="none" stroke="#404040" d="M15.5948,-580.1925C5.3713,-531.9944 -9.9966,-432.5625 15.5,-354 23.7576,-328.5557 38.011,-303.8025 53.6044,-281.8801"/>
<polygon fill="none" stroke="#404040" points="53.7454,-281.6879 54.0715,-274.4842 60.8465,-272.0145 60.5204,-279.2182 53.7454,-281.6879"/>
<text text-anchor="middle" x="40" y="-441" font-family="Helvetica,sans-Serif" font-size="10.00" fill="#000000"> #mIndex</text>
</g>
<!-- Node7 -->
<g id="node5" class="node">
<title>Node7</title>
<g id="a_node5"><a xlink:href="../../d2/dab/classo2_1_1mid_1_1CTFHelper_1_1__Iter.html" target="_top" xlink:title="{o2::mid::CTFHelper\l::_Iter\&lt; I, D, T, M \&gt;\n||+ _Iter()\l+ _Iter()\l+ operator++()\l+ operator&#45;&#45;()\l+ operator&#45;()\l+ operator&#45;()\l+ operator&#45;()\l+ operator!=()\l+ operator==()\l+ operator\&gt;()\l+ operator\&lt;()\l}">
<polygon fill="none" stroke="#000000" points="73.5,-354.5 73.5,-532.5 183.5,-532.5 183.5,-354.5 73.5,-354.5"/>
<text text-anchor="start" x="81.5" y="-520.5" font-family="Helvetica,sans-Serif" font-size="10.00" fill="#000000">o2::mid::CTFHelper</text>
<text text-anchor="middle" x="128.5" y="-509.5" font-family="Helvetica,sans-Serif" font-size="10.00" fill="#000000">::_Iter&lt; I, D, T, M &gt;</text>
<polyline fill="none" stroke="#000000" points="73.5,-502.5 183.5,-502.5 "/>
<text text-anchor="middle" x="128.5" y="-490.5" font-family="Helvetica,sans-Serif" font-size="10.00" fill="#000000"> </text>
<polyline fill="none" stroke="#000000" points="73.5,-483.5 183.5,-483.5 "/>
<text text-anchor="start" x="81.5" y="-471.5" font-family="Helvetica,sans-Serif" font-size="10.00" fill="#000000">+ _Iter()</text>
<text text-anchor="start" x="81.5" y="-460.5" font-family="Helvetica,sans-Serif" font-size="10.00" fill="#000000">+ _Iter()</text>
<text text-anchor="start" x="81.5" y="-449.5" font-family="Helvetica,sans-Serif" font-size="10.00" fill="#000000">+ operator++()</text>
<text text-anchor="start" x="81.5" y="-438.5" font-family="Helvetica,sans-Serif" font-size="10.00" fill="#000000">+ operator&#45;&#45;()</text>
<text text-anchor="start" x="81.5" y="-427.5" font-family="Helvetica,sans-Serif" font-size="10.00" fill="#000000">+ operator&#45;()</text>
<text text-anchor="start" x="81.5" y="-416.5" font-family="Helvetica,sans-Serif" font-size="10.00" fill="#000000">+ operator&#45;()</text>
<text text-anchor="start" x="81.5" y="-405.5" font-family="Helvetica,sans-Serif" font-size="10.00" fill="#000000">+ operator&#45;()</text>
<text text-anchor="start" x="81.5" y="-394.5" font-family="Helvetica,sans-Serif" font-size="10.00" fill="#000000">+ operator!=()</text>
<text text-anchor="start" x="81.5" y="-383.5" font-family="Helvetica,sans-Serif" font-size="10.00" fill="#000000">+ operator==()</text>
<text text-anchor="start" x="81.5" y="-372.5" font-family="Helvetica,sans-Serif" font-size="10.00" fill="#000000">+ operator&gt;()</text>
<text text-anchor="start" x="81.5" y="-361.5" font-family="Helvetica,sans-Serif" font-size="10.00" fill="#000000">+ operator&lt;()</text>
</a>
</g>
</g>
<!-- Node5&#45;&gt;Node7 -->
<g id="edge5" class="edge">
<title>Node5&#45;&gt;Node7</title>
<path fill="none" stroke="#404040" d="M40.9638,-580.1721C48.3857,-568.5841 57.408,-554.4974 66.8052,-539.8254"/>
<polygon fill="none" stroke="#404040" points="66.8837,-539.7028 66.7514,-532.4929 73.3558,-529.5978 73.4881,-536.8077 66.8837,-539.7028"/>
<text text-anchor="middle" x="82" y="-554" font-family="Helvetica,sans-Serif" font-size="10.00" fill="#000000"> #mIndex</text>
</g>
<!-- Node6 -->
<g id="node4" class="node">
<title>Node6</title>
<g id="a_node4"><a xlink:href="../../d9/d57/classgsl_1_1span_3_01const_01ColumnData_01_4.html" target="_top" xlink:title="{span\&lt; const ColumnData \&gt;\n||}">
<polygon fill="none" stroke="#000000" points="203.5,-415 203.5,-472 355.5,-472 355.5,-415 203.5,-415"/>
<text text-anchor="middle" x="279.5" y="-460" font-family="Helvetica,sans-Serif" font-size="10.00" fill="#000000">span&lt; const ColumnData &gt;</text>
<polyline fill="none" stroke="#000000" points="203.5,-453 355.5,-453 "/>
<text text-anchor="middle" x="279.5" y="-441" font-family="Helvetica,sans-Serif" font-size="10.00" fill="#000000"> </text>
<polyline fill="none" stroke="#000000" points="203.5,-434 355.5,-434 "/>
<text text-anchor="middle" x="279.5" y="-422" font-family="Helvetica,sans-Serif" font-size="10.00" fill="#000000"> </text>
</a>
</g>
</g>
<!-- Node6&#45;&gt;Node4 -->
<g id="edge3" class="edge">
<title>Node6&#45;&gt;Node4</title>
<path fill="none" stroke="#404040" d="M280.08,-414.8934C279.4354,-387.3559 275.2046,-345.3818 257.5,-314 243.8085,-289.7316 222.8367,-268.2127 201.6592,-250.6374"/>
<polygon fill="none" stroke="#404040" points="201.6248,-250.6099 194.4419,-249.9732 192.2669,-243.0979 199.4499,-243.7346 201.6248,-250.6099"/>
<text text-anchor="middle" x="288" y="-322.5" font-family="Helvetica,sans-Serif" font-size="10.00" fill="#000000"> #mData</text>
</g>
<!-- Node7&#45;&gt;Node4 -->
<g id="edge4" class="edge">
<title>Node7&#45;&gt;Node4</title>
<path fill="none" stroke="#ffa500" d="M127.5696,-344.2205C127.5459,-341.4507 127.5226,-338.7062 127.5,-336 127.3913,-322.9923 127.2828,-309.2795 127.1794,-295.7788"/>
<polygon fill="#ffa500" stroke="#ffa500" points="124.0707,-344.3675 127.6576,-354.3367 131.0704,-344.3066 124.0707,-344.3675"/>
<text text-anchor="start" x="127.5" y="-328" font-family="Helvetica,sans-Serif" font-size="10.00" fill="#000000"> &lt; Iter_colId, ColumnData,</text>
<text text-anchor="middle" x="192.5" y="-317" font-family="Helvetica,sans-Serif" font-size="10.00" fill="#000000"> uint8_t &gt;</text>
</g>
<!-- Node8 -->
<g id="node6" class="node">
<title>Node8</title>
<polygon fill="none" stroke="#bfbfbf" points="79,-580.5 79,-637.5 178,-637.5 178,-580.5 79,-580.5"/>
<text text-anchor="middle" x="128.5" y="-625.5" font-family="Helvetica,sans-Serif" font-size="10.00" fill="#000000">span&lt; const D &gt;</text>
<polyline fill="none" stroke="#bfbfbf" points="79,-618.5 178,-618.5 "/>
<text text-anchor="middle" x="128.5" y="-606.5" font-family="Helvetica,sans-Serif" font-size="10.00" fill="#000000"> </text>
<polyline fill="none" stroke="#bfbfbf" points="79,-599.5 178,-599.5 "/>
<text text-anchor="middle" x="128.5" y="-587.5" font-family="Helvetica,sans-Serif" font-size="10.00" fill="#000000"> </text>
</g>
<!-- Node8&#45;&gt;Node7 -->
<g id="edge6" class="edge">
<title>Node8&#45;&gt;Node7</title>
<path fill="none" stroke="#404040" d="M128.5,-580.1721C128.5,-569.9957 128.5,-557.8923 128.5,-545.1577"/>
<polygon fill="none" stroke="#404040" points="128.5001,-544.7971 124.5,-538.7972 128.5,-532.7971 132.5,-538.7971 128.5001,-544.7971"/>
<text text-anchor="middle" x="151" y="-554" font-family="Helvetica,sans-Serif" font-size="10.00" fill="#000000"> #mData</text>
</g>
</g>
</svg>
