<?xml version="1.0" encoding="UTF-8" standalone="no"?>
<!DOCTYPE svg PUBLIC "-//W3C//DTD SVG 1.1//EN"
 "http://www.w3.org/Graphics/SVG/1.1/DTD/svg11.dtd">
<!-- Generated by graphviz version 2.40.1 (20161225.0304)
 -->
<!-- Title: o2::framework::is_messageable&lt; o2::dataformats::PrimaryVertex &gt; Pages: 1 -->
<svg width="201pt" height="171pt"
 viewBox="0.00 0.00 201.00 171.00" xmlns="http://www.w3.org/2000/svg" xmlns:xlink="http://www.w3.org/1999/xlink">
<g id="graph0" class="graph" transform="scale(1 1) rotate(0) translate(4 167)">
<title>o2::framework::is_messageable&lt; o2::dataformats::PrimaryVertex &gt;</title>
<!-- Node0 -->
<g id="node1" class="node">
<title>Node0</title>
<polygon fill="#bfbfbf" stroke="#000000" points="0,-.5 0,-68.5 193,-68.5 193,-.5 0,-.5"/>
<text text-anchor="start" x="8" y="-56.5" font-family="Helvetica,sans-Serif" font-size="10.00" fill="#000000">o2::framework::is_messageable</text>
<text text-anchor="middle" x="96.5" y="-45.5" font-family="Helvetica,sans-Serif" font-size="10.00" fill="#000000">&lt; o2::dataformats::PrimaryVertex &gt;</text>
<polyline fill="none" stroke="#000000" points="0,-38.5 193,-38.5 "/>
<text text-anchor="middle" x="96.5" y="-26.5" font-family="Helvetica,sans-Serif" font-size="10.00" fill="#000000"> </text>
<polyline fill="none" stroke="#000000" points="0,-19.5 193,-19.5 "/>
<text text-anchor="middle" x="96.5" y="-7.5" font-family="Helvetica,sans-Serif" font-size="10.00" fill="#000000"> </text>
</g>
<!-- Node1 -->
<g id="node2" class="node">
<title>Node1</title>
<polygon fill="none" stroke="#bfbfbf" points="65,-105.5 65,-162.5 128,-162.5 128,-105.5 65,-105.5"/>
<text text-anchor="middle" x="96.5" y="-150.5" font-family="Helvetica,sans-Serif" font-size="10.00" fill="#000000">true_type</text>
<polyline fill="none" stroke="#bfbfbf" points="65,-143.5 128,-143.5 "/>
<text text-anchor="middle" x="96.5" y="-131.5" font-family="Helvetica,sans-Serif" font-size="10.00" fill="#000000"> </text>
<polyline fill="none" stroke="#bfbfbf" points="65,-124.5 128,-124.5 "/>
<text text-anchor="middle" x="96.5" y="-112.5" font-family="Helvetica,sans-Serif" font-size="10.00" fill="#000000"> </text>
</g>
<!-- Node1&#45;&gt;Node0 -->
<g id="edge1" class="edge">
<title>Node1&#45;&gt;Node0</title>
<path fill="none" stroke="#191970" d="M96.5,-95.4268C96.5,-86.6025 96.5,-77.2834 96.5,-68.6596"/>
<polygon fill="none" stroke="#191970" points="93.0001,-95.4873 96.5,-105.4873 100.0001,-95.4873 93.0001,-95.4873"/>
</g>
</g>
</svg>
