<?xml version="1.0" encoding="UTF-8" standalone="no"?>
<!DOCTYPE svg PUBLIC "-//W3C//DTD SVG 1.1//EN"
 "http://www.w3.org/Graphics/SVG/1.1/DTD/svg11.dtd">
<!-- Generated by graphviz version 2.40.1 (20161225.0304)
 -->
<!-- Title: /home/travis/build/AliceO2Group/AliceO2/DataFormats/Detectors/Common/include/DetectorsCommonDataFormats/EncodedBlocks.h Pages: 1 -->
<svg width="2622pt" height="531pt"
 viewBox="0.00 0.00 2622.00 531.00" xmlns="http://www.w3.org/2000/svg" xmlns:xlink="http://www.w3.org/1999/xlink">
<g id="graph0" class="graph" transform="scale(1 1) rotate(0) translate(4 527)">
<title>/home/travis/build/AliceO2Group/AliceO2/DataFormats/Detectors/Common/include/DetectorsCommonDataFormats/EncodedBlocks.h</title>
<!-- Node0 -->
<g id="node1" class="node">
<title>Node0</title>
<polygon fill="#bfbfbf" stroke="#000000" points="2222.5,-459.5 2222.5,-522.5 2419.5,-522.5 2419.5,-459.5 2222.5,-459.5"/>
<text text-anchor="start" x="2230.5" y="-510.5" font-family="Helvetica,sans-Serif" font-size="10.00" fill="#000000">/home/travis/build</text>
<text text-anchor="start" x="2230.5" y="-499.5" font-family="Helvetica,sans-Serif" font-size="10.00" fill="#000000">/AliceO2Group/AliceO2</text>
<text text-anchor="start" x="2230.5" y="-488.5" font-family="Helvetica,sans-Serif" font-size="10.00" fill="#000000">/DataFormats/Detectors</text>
<text text-anchor="start" x="2230.5" y="-477.5" font-family="Helvetica,sans-Serif" font-size="10.00" fill="#000000">/Common/include/DetectorsCommon</text>
<text text-anchor="middle" x="2321" y="-466.5" font-family="Helvetica,sans-Serif" font-size="10.00" fill="#000000">DataFormats/EncodedBlocks.h</text>
</g>
<!-- Node1 -->
<g id="node2" class="node">
<title>Node1</title>
<polygon fill="none" stroke="#bfbfbf" points="383.5,-56.5 383.5,-75.5 452.5,-75.5 452.5,-56.5 383.5,-56.5"/>
<text text-anchor="middle" x="418" y="-63.5" font-family="Helvetica,sans-Serif" font-size="10.00" fill="#000000">type_traits</text>
</g>
<!-- Node0&#45;&gt;Node1 -->
<g id="edge1" class="edge">
<title>Node0&#45;&gt;Node1</title>
<path fill="none" stroke="#191970" d="M2222.2876,-487.2872C1976.4053,-477.1299 1317.2043,-444.316 773,-367 569.3745,-338.0706 487.2149,-380.1445 324,-255 272.6727,-215.645 253.2496,-159.6363 297,-112 316.7951,-90.4467 347.7585,-78.9182 373.4071,-72.7927"/>
<polygon fill="#191970" stroke="#191970" points="374.2807,-76.1844 383.3017,-70.6281 372.7847,-69.3462 374.2807,-76.1844"/>
</g>
<!-- Node2 -->
<g id="node3" class="node">
<title>Node2</title>
<polygon fill="none" stroke="#bfbfbf" points="2320.5,-403.5 2320.5,-422.5 2379.5,-422.5 2379.5,-403.5 2320.5,-403.5"/>
<text text-anchor="middle" x="2350" y="-410.5" font-family="Helvetica,sans-Serif" font-size="10.00" fill="#000000">Rtypes.h</text>
</g>
<!-- Node0&#45;&gt;Node2 -->
<g id="edge2" class="edge">
<title>Node0&#45;&gt;Node2</title>
<path fill="none" stroke="#191970" d="M2332.7954,-459.2744C2336.1973,-450.1246 2339.805,-440.4209 2342.8335,-432.2754"/>
<polygon fill="#191970" stroke="#191970" points="2346.2106,-433.2354 2346.4149,-422.6426 2339.6494,-430.796 2346.2106,-433.2354"/>
</g>
<!-- Node3 -->
<g id="node4" class="node">
<title>Node3</title>
<g id="a_node4"><a xlink:href="../../d4/de7/rans_8h.html" target="_top" xlink:title="header for public api ">
<polygon fill="none" stroke="#000000" points="1656,-403.5 1656,-422.5 1730,-422.5 1730,-403.5 1656,-403.5"/>
<text text-anchor="middle" x="1693" y="-410.5" font-family="Helvetica,sans-Serif" font-size="10.00" fill="#000000">rANS/rans.h</text>
</a>
</g>
</g>
<!-- Node0&#45;&gt;Node3 -->
<g id="edge3" class="edge">
<title>Node0&#45;&gt;Node3</title>
<path fill="none" stroke="#191970" d="M2222.1842,-478.7267C2084.9315,-461.6794 1841.9886,-431.505 1740.0714,-418.8465"/>
<polygon fill="#191970" stroke="#191970" points="1740.435,-415.3648 1730.0799,-417.6055 1739.5722,-422.3114 1740.435,-415.3648"/>
</g>
<!-- Node36 -->
<g id="node37" class="node">
<title>Node36</title>
<polygon fill="none" stroke="#bfbfbf" points="2398,-403.5 2398,-422.5 2450,-422.5 2450,-403.5 2398,-403.5"/>
<text text-anchor="middle" x="2424" y="-410.5" font-family="Helvetica,sans-Serif" font-size="10.00" fill="#000000">TTree.h</text>
</g>
<!-- Node0&#45;&gt;Node36 -->
<g id="edge128" class="edge">
<title>Node0&#45;&gt;Node36</title>
<path fill="none" stroke="#191970" d="M2362.5971,-459.4992C2376.4785,-448.9871 2391.3574,-437.7196 2402.9918,-428.9091"/>
<polygon fill="#191970" stroke="#191970" points="2405.3269,-431.5312 2411.1859,-422.7039 2401.1009,-425.9508 2405.3269,-431.5312"/>
</g>
<!-- Node37 -->
<g id="node38" class="node">
<title>Node37</title>
<g id="a_node38"><a xlink:href="../../d1/d1e/Common_2Utils_2include_2CommonUtils_2StringUtils_8h.html" target="_top" xlink:title="CommonUtils/StringUtils.h">
<polygon fill="none" stroke="#000000" points="2468,-403.5 2468,-422.5 2614,-422.5 2614,-403.5 2468,-403.5"/>
<text text-anchor="middle" x="2541" y="-410.5" font-family="Helvetica,sans-Serif" font-size="10.00" fill="#000000">CommonUtils/StringUtils.h</text>
</a>
</g>
</g>
<!-- Node0&#45;&gt;Node37 -->
<g id="edge129" class="edge">
<title>Node0&#45;&gt;Node37</title>
<path fill="none" stroke="#191970" d="M2409.8483,-459.4992C2442.9059,-447.7788 2478.6121,-435.1194 2504.4088,-425.9733"/>
<polygon fill="#191970" stroke="#191970" points="2505.873,-429.1676 2514.1286,-422.5271 2503.5338,-422.57 2505.873,-429.1676"/>
</g>
<!-- Node39 -->
<g id="node40" class="node">
<title>Node39</title>
<g id="a_node40"><a xlink:href="../../dd/da4/Logger_8h.html" target="_top" xlink:title="Framework/Logger.h">
<polygon fill="none" stroke="#000000" points="2056.5,-112.5 2056.5,-131.5 2171.5,-131.5 2171.5,-112.5 2056.5,-112.5"/>
<text text-anchor="middle" x="2114" y="-119.5" font-family="Helvetica,sans-Serif" font-size="10.00" fill="#000000">Framework/Logger.h</text>
</a>
</g>
</g>
<!-- Node0&#45;&gt;Node39 -->
<g id="edge131" class="edge">
<title>Node0&#45;&gt;Node39</title>
<path fill="none" stroke="#191970" d="M2310.2015,-459.4673C2301.9564,-432.5724 2292,-392.7037 2292,-357 2292,-357 2292,-357 2292,-239.5 2292,-180.3628 2222.7231,-149.2812 2170.6069,-134.2659"/>
<polygon fill="#191970" stroke="#191970" points="2171.3376,-130.837 2160.7674,-131.5598 2169.4812,-137.5864 2171.3376,-130.837"/>
</g>
<!-- Node4 -->
<g id="node5" class="node">
<title>Node4</title>
<g id="a_node5"><a xlink:href="../../dd/d65/FrequencyTable_8h.html" target="_top" xlink:title="Histogram to depict frequencies of source symbols for rANS compression. ">
<polygon fill="none" stroke="#000000" points="598.5,-112.5 598.5,-131.5 699.5,-131.5 699.5,-112.5 598.5,-112.5"/>
<text text-anchor="middle" x="649" y="-119.5" font-family="Helvetica,sans-Serif" font-size="10.00" fill="#000000">FrequencyTable.h</text>
</a>
</g>
</g>
<!-- Node3&#45;&gt;Node4 -->
<g id="edge4" class="edge">
<title>Node3&#45;&gt;Node4</title>
<path fill="none" stroke="#191970" d="M1655.6297,-412.3546C1518.2515,-409.749 1041.4908,-398.585 893,-367 721.7174,-330.5671 601.005,-352.8742 542,-188 532.3445,-161.0201 560.7359,-144.3544 590.6888,-134.5198"/>
<polygon fill="#191970" stroke="#191970" points="591.8718,-137.8184 600.4224,-131.5624 589.8367,-131.1208 591.8718,-137.8184"/>
</g>
<!-- Node13 -->
<g id="node14" class="node">
<title>Node13</title>
<g id="a_node14"><a xlink:href="../../d4/da1/helper_8h.html" target="_top" xlink:title="various helper functions ">
<polygon fill="none" stroke="#000000" points="1591,-56.5 1591,-75.5 1687,-75.5 1687,-56.5 1591,-56.5"/>
<text text-anchor="middle" x="1639" y="-63.5" font-family="Helvetica,sans-Serif" font-size="10.00" fill="#000000">internal/helper.h</text>
</a>
</g>
</g>
<!-- Node3&#45;&gt;Node13 -->
<g id="edge127" class="edge">
<title>Node3&#45;&gt;Node13</title>
<path fill="none" stroke="#191970" d="M1730.0012,-410.4427C1865.9526,-400.5605 2330,-362.3366 2330,-301 2330,-301 2330,-301 2330,-178 2330,-105.1653 2250.5764,-129.996 2180,-112 2089.9156,-89.0298 1817.468,-74.1475 1697.1652,-68.5267"/>
<polygon fill="#191970" stroke="#191970" points="1697.1933,-65.0243 1687.0423,-68.0588 1696.87,-72.0169 1697.1933,-65.0243"/>
</g>
<!-- Node16 -->
<g id="node17" class="node">
<title>Node16</title>
<g id="a_node17"><a xlink:href="../../dd/d74/Utilities_2rANS_2include_2rANS_2Encoder_8h.html" target="_top" xlink:title="Encoder.h">
<polygon fill="none" stroke="#000000" points="1820,-291.5 1820,-310.5 1884,-310.5 1884,-291.5 1820,-291.5"/>
<text text-anchor="middle" x="1852" y="-298.5" font-family="Helvetica,sans-Serif" font-size="10.00" fill="#000000">Encoder.h</text>
</a>
</g>
</g>
<!-- Node3&#45;&gt;Node16 -->
<g id="edge18" class="edge">
<title>Node3&#45;&gt;Node16</title>
<path fill="none" stroke="#191970" d="M1706.5563,-403.4509C1734.1316,-384.0268 1796.96,-339.7703 1830.2944,-316.2895"/>
<polygon fill="#191970" stroke="#191970" points="1832.3182,-319.1451 1838.4781,-310.5249 1828.2871,-313.4223 1832.3182,-319.1451"/>
</g>
<!-- Node27 -->
<g id="node28" class="node">
<title>Node27</title>
<g id="a_node28"><a xlink:href="../../dc/d62/Utilities_2rANS_2include_2rANS_2Decoder_8h.html" target="_top" xlink:title="Decoder.h">
<polygon fill="none" stroke="#000000" points="850.5,-291.5 850.5,-310.5 915.5,-310.5 915.5,-291.5 850.5,-291.5"/>
<text text-anchor="middle" x="883" y="-298.5" font-family="Helvetica,sans-Serif" font-size="10.00" fill="#000000">Decoder.h</text>
</a>
</g>
</g>
<!-- Node3&#45;&gt;Node27 -->
<g id="edge57" class="edge">
<title>Node3&#45;&gt;Node27</title>
<path fill="none" stroke="#191970" d="M1655.7513,-411.8689C1504.6447,-407.1445 943.9484,-388.2428 913,-367 897.6353,-356.4537 890.0082,-336.029 886.308,-320.6805"/>
<polygon fill="#191970" stroke="#191970" points="889.6828,-319.7131 884.2532,-310.6153 882.8243,-321.1134 889.6828,-319.7131"/>
</g>
<!-- Node30 -->
<g id="node31" class="node">
<title>Node30</title>
<g id="a_node31"><a xlink:href="../../d5/ddf/DedupEncoder_8h.html" target="_top" xlink:title="DedupEncoder.h">
<polygon fill="none" stroke="#000000" points="1645.5,-347.5 1645.5,-366.5 1740.5,-366.5 1740.5,-347.5 1645.5,-347.5"/>
<text text-anchor="middle" x="1693" y="-354.5" font-family="Helvetica,sans-Serif" font-size="10.00" fill="#000000">DedupEncoder.h</text>
</a>
</g>
</g>
<!-- Node3&#45;&gt;Node30 -->
<g id="edge82" class="edge">
<title>Node3&#45;&gt;Node30</title>
<path fill="none" stroke="#191970" d="M1693,-403.2455C1693,-395.9382 1693,-385.6944 1693,-376.7046"/>
<polygon fill="#191970" stroke="#191970" points="1696.5001,-376.6426 1693,-366.6427 1689.5001,-376.6427 1696.5001,-376.6426"/>
</g>
<!-- Node33 -->
<g id="node34" class="node">
<title>Node33</title>
<g id="a_node34"><a xlink:href="../../da/da6/DedupDecoder_8h.html" target="_top" xlink:title="DedupDecoder.h">
<polygon fill="none" stroke="#000000" points="922.5,-347.5 922.5,-366.5 1019.5,-366.5 1019.5,-347.5 922.5,-347.5"/>
<text text-anchor="middle" x="971" y="-354.5" font-family="Helvetica,sans-Serif" font-size="10.00" fill="#000000">DedupDecoder.h</text>
</a>
</g>
</g>
<!-- Node3&#45;&gt;Node33 -->
<g id="edge95" class="edge">
<title>Node3&#45;&gt;Node33</title>
<path fill="none" stroke="#191970" d="M1655.8004,-411.7486C1556.125,-408.1135 1274.6045,-395.9953 1029.8381,-366.9789"/>
<polygon fill="#191970" stroke="#191970" points="1030.0268,-363.4766 1019.6815,-365.7626 1029.1943,-370.4269 1030.0268,-363.4766"/>
</g>
<!-- Node34 -->
<g id="node35" class="node">
<title>Node34</title>
<g id="a_node35"><a xlink:href="../../d9/de1/LiteralEncoder_8h.html" target="_top" xlink:title="LiteralEncoder.h">
<polygon fill="none" stroke="#000000" points="1940.5,-347.5 1940.5,-366.5 2035.5,-366.5 2035.5,-347.5 1940.5,-347.5"/>
<text text-anchor="middle" x="1988" y="-354.5" font-family="Helvetica,sans-Serif" font-size="10.00" fill="#000000">LiteralEncoder.h</text>
</a>
</g>
</g>
<!-- Node3&#45;&gt;Node34 -->
<g id="edge106" class="edge">
<title>Node3&#45;&gt;Node34</title>
<path fill="none" stroke="#191970" d="M1730.0633,-405.9643C1780.4585,-396.3977 1871.0979,-379.1916 1930.3982,-367.9346"/>
<polygon fill="#191970" stroke="#191970" points="1931.1897,-371.3469 1940.3615,-366.0432 1929.8842,-364.4697 1931.1897,-371.3469"/>
</g>
<!-- Node35 -->
<g id="node36" class="node">
<title>Node35</title>
<g id="a_node36"><a xlink:href="../../df/dfe/LiteralDecoder_8h.html" target="_top" xlink:title="LiteralDecoder.h">
<polygon fill="none" stroke="#000000" points="1038,-347.5 1038,-366.5 1134,-366.5 1134,-347.5 1038,-347.5"/>
<text text-anchor="middle" x="1086" y="-354.5" font-family="Helvetica,sans-Serif" font-size="10.00" fill="#000000">LiteralDecoder.h</text>
</a>
</g>
</g>
<!-- Node3&#45;&gt;Node35 -->
<g id="edge116" class="edge">
<title>Node3&#45;&gt;Node35</title>
<path fill="none" stroke="#191970" d="M1655.9432,-409.5812C1553.9209,-400.169 1268.2978,-373.8183 1144.4783,-362.395"/>
<polygon fill="#191970" stroke="#191970" points="1144.7063,-358.9013 1134.427,-361.4677 1144.0632,-365.8717 1144.7063,-358.9013"/>
</g>
<!-- Node4&#45;&gt;Node1 -->
<g id="edge11" class="edge">
<title>Node4&#45;&gt;Node1</title>
<path fill="none" stroke="#191970" d="M609.5522,-112.4369C568.7528,-102.5461 505.1621,-87.1302 462.5701,-76.8049"/>
<polygon fill="#191970" stroke="#191970" points="463.2971,-73.3798 452.7539,-74.4252 461.6478,-80.1827 463.2971,-73.3798"/>
</g>
<!-- Node5 -->
<g id="node6" class="node">
<title>Node5</title>
<polygon fill="none" stroke="#bfbfbf" points="2168,-56.5 2168,-75.5 2232,-75.5 2232,-56.5 2168,-56.5"/>
<text text-anchor="middle" x="2200" y="-63.5" font-family="Helvetica,sans-Serif" font-size="10.00" fill="#000000">algorithm</text>
</g>
<!-- Node4&#45;&gt;Node5 -->
<g id="edge5" class="edge">
<title>Node4&#45;&gt;Node5</title>
<path fill="none" stroke="#191970" d="M699.7227,-120.1686C937.4221,-111.5863 1938.7304,-75.4333 2157.6139,-67.5304"/>
<polygon fill="#191970" stroke="#191970" points="2157.8644,-71.0237 2167.7316,-67.1651 2157.6118,-64.0283 2157.8644,-71.0237"/>
</g>
<!-- Node6 -->
<g id="node7" class="node">
<title>Node6</title>
<polygon fill="none" stroke="#bfbfbf" points="1044,-56.5 1044,-75.5 1096,-75.5 1096,-56.5 1044,-56.5"/>
<text text-anchor="middle" x="1070" y="-63.5" font-family="Helvetica,sans-Serif" font-size="10.00" fill="#000000">cassert</text>
</g>
<!-- Node4&#45;&gt;Node6 -->
<g id="edge6" class="edge">
<title>Node4&#45;&gt;Node6</title>
<path fill="none" stroke="#191970" d="M699.7824,-115.2451C785.8707,-103.7939 958.4197,-80.842 1033.5956,-70.8424"/>
<polygon fill="#191970" stroke="#191970" points="1034.5076,-74.252 1043.9588,-69.4639 1033.5845,-67.3131 1034.5076,-74.252"/>
</g>
<!-- Node7 -->
<g id="node8" class="node">
<title>Node7</title>
<polygon fill="none" stroke="#bfbfbf" points="1065.5,-.5 1065.5,-19.5 1112.5,-19.5 1112.5,-.5 1065.5,-.5"/>
<text text-anchor="middle" x="1089" y="-7.5" font-family="Helvetica,sans-Serif" font-size="10.00" fill="#000000">cmath</text>
</g>
<!-- Node4&#45;&gt;Node7 -->
<g id="edge7" class="edge">
<title>Node4&#45;&gt;Node7</title>
<path fill="none" stroke="#191970" d="M649.3245,-112.0932C650.3889,-97.3136 654.7266,-69.7601 672,-56 701.7929,-32.2667 961.3345,-16.6052 1055.2576,-11.6711"/>
<polygon fill="#191970" stroke="#191970" points="1055.5505,-15.1607 1065.3562,-11.1486 1055.1887,-8.1701 1055.5505,-15.1607"/>
</g>
<!-- Node8 -->
<g id="node9" class="node">
<title>Node8</title>
<polygon fill="none" stroke="#bfbfbf" points="122,-56.5 122,-75.5 182,-75.5 182,-56.5 122,-56.5"/>
<text text-anchor="middle" x="152" y="-63.5" font-family="Helvetica,sans-Serif" font-size="10.00" fill="#000000">iostream</text>
</g>
<!-- Node4&#45;&gt;Node8 -->
<g id="edge8" class="edge">
<title>Node4&#45;&gt;Node8</title>
<path fill="none" stroke="#191970" d="M598.1479,-116.2702C499.0305,-105.102 281.8554,-80.6316 192.071,-70.515"/>
<polygon fill="#191970" stroke="#191970" points="192.3496,-67.0244 182.0206,-69.3826 191.5658,-73.9804 192.3496,-67.0244"/>
</g>
<!-- Node9 -->
<g id="node10" class="node">
<title>Node9</title>
<polygon fill="none" stroke="#bfbfbf" points="556.5,-56.5 556.5,-75.5 609.5,-75.5 609.5,-56.5 556.5,-56.5"/>
<text text-anchor="middle" x="583" y="-63.5" font-family="Helvetica,sans-Serif" font-size="10.00" fill="#000000">iterator</text>
</g>
<!-- Node4&#45;&gt;Node9 -->
<g id="edge9" class="edge">
<title>Node4&#45;&gt;Node9</title>
<path fill="none" stroke="#191970" d="M637.5037,-112.2455C627.7558,-103.9746 613.5741,-91.9416 602.1202,-82.2232"/>
<polygon fill="#191970" stroke="#191970" points="604.2541,-79.4437 594.3646,-75.6427 599.7253,-84.7813 604.2541,-79.4437"/>
</g>
<!-- Node10 -->
<g id="node11" class="node">
<title>Node10</title>
<polygon fill="none" stroke="#bfbfbf" points="681,-56.5 681,-75.5 737,-75.5 737,-56.5 681,-56.5"/>
<text text-anchor="middle" x="709" y="-63.5" font-family="Helvetica,sans-Serif" font-size="10.00" fill="#000000">numeric</text>
</g>
<!-- Node4&#45;&gt;Node10 -->
<g id="edge10" class="edge">
<title>Node4&#45;&gt;Node10</title>
<path fill="none" stroke="#191970" d="M659.4512,-112.2455C668.2269,-104.0549 680.9554,-92.1749 691.314,-82.5069"/>
<polygon fill="#191970" stroke="#191970" points="693.7461,-85.0246 698.6686,-75.6427 688.9699,-79.9072 693.7461,-85.0246"/>
</g>
<!-- Node11 -->
<g id="node12" class="node">
<title>Node11</title>
<polygon fill="none" stroke="#bfbfbf" points="875.5,-56.5 875.5,-75.5 922.5,-75.5 922.5,-56.5 875.5,-56.5"/>
<text text-anchor="middle" x="899" y="-63.5" font-family="Helvetica,sans-Serif" font-size="10.00" fill="#000000">vector</text>
</g>
<!-- Node4&#45;&gt;Node11 -->
<g id="edge12" class="edge">
<title>Node4&#45;&gt;Node11</title>
<path fill="none" stroke="#191970" d="M691.6925,-112.4369C740.8572,-101.424 820.6024,-83.5611 865.5064,-73.5026"/>
<polygon fill="#191970" stroke="#191970" points="866.3414,-76.9023 875.3346,-71.3011 864.8113,-70.0716 866.3414,-76.9023"/>
</g>
<!-- Node12 -->
<g id="node13" class="node">
<title>Node12</title>
<polygon fill="none" stroke="#bfbfbf" points="1130,-56.5 1130,-75.5 1238,-75.5 1238,-56.5 1130,-56.5"/>
<text text-anchor="middle" x="1184" y="-63.5" font-family="Helvetica,sans-Serif" font-size="10.00" fill="#000000">fairlogger/Logger.h</text>
</g>
<!-- Node4&#45;&gt;Node12 -->
<g id="edge13" class="edge">
<title>Node4&#45;&gt;Node12</title>
<path fill="none" stroke="#191970" d="M699.6536,-117.3135C783.863,-109.4275 957.9503,-92.7212 1105,-76 1109.7304,-75.4621 1114.6177,-74.888 1119.5341,-74.2971"/>
<polygon fill="#191970" stroke="#191970" points="1120.1226,-77.7513 1129.6256,-73.0669 1119.2755,-70.8028 1120.1226,-77.7513"/>
</g>
<!-- Node4&#45;&gt;Node13 -->
<g id="edge14" class="edge">
<title>Node4&#45;&gt;Node13</title>
<path fill="none" stroke="#191970" d="M699.7981,-119.1266C867.391,-109.6466 1402.2147,-79.3939 1580.5206,-69.3079"/>
<polygon fill="#191970" stroke="#191970" points="1580.9599,-72.7888 1590.7462,-68.7295 1580.5645,-65.7999 1580.9599,-72.7888"/>
</g>
<!-- Node13&#45;&gt;Node7 -->
<g id="edge16" class="edge">
<title>Node13&#45;&gt;Node7</title>
<path fill="none" stroke="#191970" d="M1590.6732,-61.0795C1481.2571,-49.9389 1216.8096,-23.0133 1122.8358,-13.4451"/>
<polygon fill="#191970" stroke="#191970" points="1123.0521,-9.9491 1112.7489,-12.4181 1122.3429,-16.9131 1123.0521,-9.9491"/>
</g>
<!-- Node14 -->
<g id="node15" class="node">
<title>Node14</title>
<polygon fill="none" stroke="#bfbfbf" points="125.5,-.5 125.5,-19.5 178.5,-19.5 178.5,-.5 125.5,-.5"/>
<text text-anchor="middle" x="152" y="-7.5" font-family="Helvetica,sans-Serif" font-size="10.00" fill="#000000">cstddef</text>
</g>
<!-- Node13&#45;&gt;Node14 -->
<g id="edge15" class="edge">
<title>Node13&#45;&gt;Node14</title>
<path fill="none" stroke="#191970" d="M1590.7905,-64.1844C1362.1779,-55.575 390.0272,-18.964 188.6176,-11.379"/>
<polygon fill="#191970" stroke="#191970" points="188.6799,-7.879 178.5552,-11.0001 188.4164,-14.874 188.6799,-7.879"/>
</g>
<!-- Node15 -->
<g id="node16" class="node">
<title>Node15</title>
<polygon fill="none" stroke="#bfbfbf" points="1614,-.5 1614,-19.5 1664,-19.5 1664,-.5 1614,-.5"/>
<text text-anchor="middle" x="1639" y="-7.5" font-family="Helvetica,sans-Serif" font-size="10.00" fill="#000000">chrono</text>
</g>
<!-- Node13&#45;&gt;Node15 -->
<g id="edge17" class="edge">
<title>Node13&#45;&gt;Node15</title>
<path fill="none" stroke="#191970" d="M1639,-56.2455C1639,-48.9382 1639,-38.6944 1639,-29.7046"/>
<polygon fill="#191970" stroke="#191970" points="1642.5001,-29.6426 1639,-19.6427 1635.5001,-29.6427 1642.5001,-29.6426"/>
</g>
<!-- Node16&#45;&gt;Node4 -->
<g id="edge56" class="edge">
<title>Node16&#45;&gt;Node4</title>
<path fill="none" stroke="#191970" d="M1819.945,-298.8402C1788.6049,-296.7503 1739.5303,-293.5353 1697,-291 1404.6372,-273.5716 1329.4887,-292.3641 1039,-255 970.6171,-246.2043 954.8459,-236.2685 887,-224 836.5243,-214.8726 695.1574,-224.3834 659,-188 647.1521,-176.0781 645.519,-156.4814 646.3294,-141.7323"/>
<polygon fill="#191970" stroke="#191970" points="649.8299,-141.8934 647.2967,-131.6058 642.8616,-141.2277 649.8299,-141.8934"/>
</g>
<!-- Node16&#45;&gt;Node5 -->
<g id="edge33" class="edge">
<title>Node16&#45;&gt;Node5</title>
<path fill="none" stroke="#191970" d="M1853.7196,-291.4591C1857.1391,-275.2434 1866.3221,-242.2904 1887,-224 1989.235,-133.5692 2083.9707,-228.9954 2180,-132 2192.0826,-119.7958 2196.9042,-100.5477 2198.8083,-85.9805"/>
<polygon fill="#191970" stroke="#191970" points="2202.2998,-86.2353 2199.7675,-75.9475 2195.3315,-85.569 2202.2998,-86.2353"/>
</g>
<!-- Node16&#45;&gt;Node12 -->
<g id="edge35" class="edge">
<title>Node16&#45;&gt;Node12</title>
<path fill="none" stroke="#191970" d="M1850.5119,-291.3941C1846.5223,-268.1675 1833.8022,-207.9388 1804,-168 1778.9077,-134.373 1767.272,-126.7683 1728,-112 1641.8177,-79.591 1373.1127,-69.8794 1248.5716,-67.0806"/>
<polygon fill="#191970" stroke="#191970" points="1248.4907,-63.5781 1238.4172,-66.8606 1248.339,-70.5765 1248.4907,-63.5781"/>
</g>
<!-- Node16&#45;&gt;Node13 -->
<g id="edge38" class="edge">
<title>Node16&#45;&gt;Node13</title>
<path fill="none" stroke="#191970" d="M1850.4525,-291.198C1848.4866,-276.2489 1846.2119,-247.0583 1854,-224 1862.7809,-198.0022 1894.5881,-191.2416 1880,-168 1840.9799,-105.8336 1755.2337,-81.5085 1697.274,-72.0214"/>
<polygon fill="#191970" stroke="#191970" points="1697.5659,-68.5253 1687.1507,-70.468 1696.5042,-75.4443 1697.5659,-68.5253"/>
</g>
<!-- Node17 -->
<g id="node18" class="node">
<title>Node17</title>
<g id="a_node18"><a xlink:href="../../de/d8e/Utilities_2rANS_2include_2rANS_2internal_2Encoder_8h.html" target="_top" xlink:title="internal/Encoder.h">
<polygon fill="none" stroke="#000000" points="1470,-230 1470,-249 1574,-249 1574,-230 1470,-230"/>
<text text-anchor="middle" x="1522" y="-237" font-family="Helvetica,sans-Serif" font-size="10.00" fill="#000000">internal/Encoder.h</text>
</a>
</g>
</g>
<!-- Node16&#45;&gt;Node17 -->
<g id="edge19" class="edge">
<title>Node16&#45;&gt;Node17</title>
<path fill="none" stroke="#191970" d="M1819.7574,-294.9911C1765.0366,-284.7932 1653.1284,-263.9376 1583.1693,-250.8997"/>
<polygon fill="#191970" stroke="#191970" points="1583.6357,-247.4265 1573.1637,-249.0351 1582.3532,-254.308 1583.6357,-247.4265"/>
</g>
<!-- Node21 -->
<g id="node22" class="node">
<title>Node21</title>
<g id="a_node22"><a xlink:href="../../d2/d53/EncoderSymbol_8h.html" target="_top" xlink:title="Structure containing all relevant information to encode a symbol. ">
<polygon fill="none" stroke="#000000" points="1660.5,-168.5 1660.5,-187.5 1761.5,-187.5 1761.5,-168.5 1660.5,-168.5"/>
<text text-anchor="middle" x="1711" y="-175.5" font-family="Helvetica,sans-Serif" font-size="10.00" fill="#000000">EncoderSymbol.h</text>
</a>
</g>
</g>
<!-- Node16&#45;&gt;Node21 -->
<g id="edge37" class="edge">
<title>Node16&#45;&gt;Node21</title>
<path fill="none" stroke="#191970" d="M1833.3303,-291.4383C1817.7116,-282.9763 1795.2749,-269.7121 1778,-255 1757.0556,-237.1627 1736.8734,-212.6414 1724.2319,-196.1031"/>
<polygon fill="#191970" stroke="#191970" points="1726.8273,-193.7302 1718.0276,-187.8296 1721.227,-197.9299 1726.8273,-193.7302"/>
</g>
<!-- Node22 -->
<g id="node23" class="node">
<title>Node22</title>
<polygon fill="none" stroke="#bfbfbf" points="1668,-230 1668,-249 1726,-249 1726,-230 1668,-230"/>
<text text-anchor="middle" x="1697" y="-237" font-family="Helvetica,sans-Serif" font-size="10.00" fill="#000000">memory</text>
</g>
<!-- Node16&#45;&gt;Node22 -->
<g id="edge32" class="edge">
<title>Node16&#45;&gt;Node22</title>
<path fill="none" stroke="#191970" d="M1827.7813,-291.3906C1801.6194,-281.0103 1759.7571,-264.4004 1730.4612,-252.7766"/>
<polygon fill="#191970" stroke="#191970" points="1731.6346,-249.4767 1721.0487,-249.0419 1729.0529,-255.9833 1731.6346,-249.4767"/>
</g>
<!-- Node23 -->
<g id="node24" class="node">
<title>Node23</title>
<polygon fill="none" stroke="#bfbfbf" points="1896,-230 1896,-249 1952,-249 1952,-230 1896,-230"/>
<text text-anchor="middle" x="1924" y="-237" font-family="Helvetica,sans-Serif" font-size="10.00" fill="#000000">iomanip</text>
</g>
<!-- Node16&#45;&gt;Node23 -->
<g id="edge34" class="edge">
<title>Node16&#45;&gt;Node23</title>
<path fill="none" stroke="#191970" d="M1863.25,-291.3906C1874.386,-281.8786 1891.646,-267.1357 1904.9268,-255.7917"/>
<polygon fill="#191970" stroke="#191970" points="1907.2608,-258.4011 1912.5914,-249.2449 1902.7144,-253.0784 1907.2608,-258.4011"/>
</g>
<!-- Node24 -->
<g id="node25" class="node">
<title>Node24</title>
<polygon fill="none" stroke="#bfbfbf" points="1970.5,-230 1970.5,-249 2035.5,-249 2035.5,-230 1970.5,-230"/>
<text text-anchor="middle" x="2003" y="-237" font-family="Helvetica,sans-Serif" font-size="10.00" fill="#000000">stdexcept</text>
</g>
<!-- Node16&#45;&gt;Node24 -->
<g id="edge36" class="edge">
<title>Node16&#45;&gt;Node24</title>
<path fill="none" stroke="#191970" d="M1875.5938,-291.3906C1900.9696,-281.0554 1941.5081,-264.5447 1970.0293,-252.9284"/>
<polygon fill="#191970" stroke="#191970" points="1971.6308,-256.0554 1979.5719,-249.0419 1968.9904,-249.5725 1971.6308,-256.0554"/>
</g>
<!-- Node25 -->
<g id="node26" class="node">
<title>Node25</title>
<g id="a_node26"><a xlink:href="../../d8/dd9/SymbolTable_8h.html" target="_top" xlink:title="Container for information needed to encode/decode a symbol of the alphabet. ">
<polygon fill="none" stroke="#000000" points="1286,-230 1286,-249 1414,-249 1414,-230 1286,-230"/>
<text text-anchor="middle" x="1350" y="-237" font-family="Helvetica,sans-Serif" font-size="10.00" fill="#000000">internal/SymbolTable.h</text>
</a>
</g>
</g>
<!-- Node16&#45;&gt;Node25 -->
<g id="edge39" class="edge">
<title>Node16&#45;&gt;Node25</title>
<path fill="none" stroke="#191970" d="M1819.6917,-297.1403C1804.0765,-295.2783 1785.0643,-293.0162 1768,-291 1631.5697,-274.88 1597.2601,-272.5007 1461,-255 1449.1641,-253.4798 1436.6288,-251.7985 1424.4084,-250.1204"/>
<polygon fill="#191970" stroke="#191970" points="1424.6246,-246.6171 1414.2396,-248.7152 1423.6663,-253.5512 1424.6246,-246.6171"/>
</g>
<!-- Node17&#45;&gt;Node1 -->
<g id="edge23" class="edge">
<title>Node17&#45;&gt;Node1</title>
<path fill="none" stroke="#191970" d="M1469.9867,-230.2741C1454.8759,-227.8878 1438.3175,-225.5554 1423,-224 1084.8067,-189.6592 990.6298,-262.6702 659,-188 627.5147,-180.9107 553.7113,-146.7391 525,-132 494.7581,-116.4752 461.7085,-95.4111 440.4617,-81.2944"/>
<polygon fill="#191970" stroke="#191970" points="442.3769,-78.3647 432.1211,-75.7061 438.4806,-84.1801 442.3769,-78.3647"/>
</g>
<!-- Node17&#45;&gt;Node6 -->
<g id="edge22" class="edge">
<title>Node17&#45;&gt;Node6</title>
<path fill="none" stroke="#191970" d="M1552.8517,-229.9073C1572.441,-222.0331 1596.2442,-208.7423 1608,-188 1624.6548,-158.6137 1630.9873,-136.7492 1608,-112 1571.0746,-72.2442 1174.7745,-83.2331 1121,-76 1116.1684,-75.3501 1111.1045,-74.5291 1106.1215,-73.6381"/>
<polygon fill="#191970" stroke="#191970" points="1106.5837,-70.1636 1096.1073,-71.7435 1105.2823,-77.0415 1106.5837,-70.1636"/>
</g>
<!-- Node17&#45;&gt;Node11 -->
<g id="edge20" class="edge">
<title>Node17&#45;&gt;Node11</title>
<path fill="none" stroke="#191970" d="M1531.3902,-229.8515C1543.5053,-216.1762 1562.0135,-190.3325 1553,-168 1540.0595,-135.9376 1530.2814,-126.7285 1499,-112 1495.7676,-110.478 1059.484,-77.9342 932.9986,-68.5262"/>
<polygon fill="#191970" stroke="#191970" points="932.979,-65.0151 922.747,-67.7638 932.4599,-71.9958 932.979,-65.0151"/>
</g>
<!-- Node17&#45;&gt;Node13 -->
<g id="edge31" class="edge">
<title>Node17&#45;&gt;Node13</title>
<path fill="none" stroke="#191970" d="M1574.1819,-232.212C1643.2217,-222.0411 1757.6842,-203.136 1770,-188 1805.7663,-144.0433 1724.1194,-100.8097 1674.1757,-79.5703"/>
<polygon fill="#191970" stroke="#191970" points="1675.2318,-76.2193 1664.6539,-75.6219 1672.5506,-82.6854 1675.2318,-76.2193"/>
</g>
<!-- Node18 -->
<g id="node19" class="node">
<title>Node18</title>
<polygon fill="none" stroke="#bfbfbf" points="1440,-112.5 1440,-131.5 1490,-131.5 1490,-112.5 1440,-112.5"/>
<text text-anchor="middle" x="1465" y="-119.5" font-family="Helvetica,sans-Serif" font-size="10.00" fill="#000000">cstdint</text>
</g>
<!-- Node17&#45;&gt;Node18 -->
<g id="edge21" class="edge">
<title>Node17&#45;&gt;Node18</title>
<path fill="none" stroke="#191970" d="M1527.8444,-229.6256C1535.5355,-215.2254 1546.8747,-188.0031 1536,-168 1528.0587,-153.3926 1513.2573,-142.7091 1499.2157,-135.3355"/>
<polygon fill="#191970" stroke="#191970" points="1500.7037,-132.1674 1490.1778,-130.9601 1497.6534,-138.4678 1500.7037,-132.1674"/>
</g>
<!-- Node19 -->
<g id="node20" class="node">
<title>Node19</title>
<polygon fill="none" stroke="#bfbfbf" points="1486.5,-168.5 1486.5,-187.5 1527.5,-187.5 1527.5,-168.5 1486.5,-168.5"/>
<text text-anchor="middle" x="1507" y="-175.5" font-family="Helvetica,sans-Serif" font-size="10.00" fill="#000000">tuple</text>
</g>
<!-- Node17&#45;&gt;Node19 -->
<g id="edge24" class="edge">
<title>Node17&#45;&gt;Node19</title>
<path fill="none" stroke="#191970" d="M1519.6563,-229.8906C1517.5551,-221.276 1514.4075,-208.3708 1511.777,-197.5858"/>
<polygon fill="#191970" stroke="#191970" points="1515.1468,-196.6307 1509.3768,-187.7449 1508.3461,-198.2894 1515.1468,-196.6307"/>
</g>
<!-- Node20 -->
<g id="node21" class="node">
<title>Node20</title>
<g id="a_node21"><a xlink:href="../../d7/d99/DecoderSymbol_8h.html" target="_top" xlink:title="Structure containing all relevant information for decoding a rANS encoded symbol. ...">
<polygon fill="none" stroke="#000000" points="1174.5,-168.5 1174.5,-187.5 1277.5,-187.5 1277.5,-168.5 1174.5,-168.5"/>
<text text-anchor="middle" x="1226" y="-175.5" font-family="Helvetica,sans-Serif" font-size="10.00" fill="#000000">DecoderSymbol.h</text>
</a>
</g>
</g>
<!-- Node17&#45;&gt;Node20 -->
<g id="edge25" class="edge">
<title>Node17&#45;&gt;Node20</title>
<path fill="none" stroke="#191970" d="M1476.0748,-229.9581C1423.7933,-219.0956 1338.3778,-201.3488 1282.1731,-189.6711"/>
<polygon fill="#191970" stroke="#191970" points="1282.5359,-186.1718 1272.033,-187.5643 1281.1119,-193.0254 1282.5359,-186.1718"/>
</g>
<!-- Node17&#45;&gt;Node21 -->
<g id="edge27" class="edge">
<title>Node17&#45;&gt;Node21</title>
<path fill="none" stroke="#191970" d="M1551.5313,-229.8906C1583.9866,-219.3298 1636.2581,-202.3208 1672.0486,-190.6747"/>
<polygon fill="#191970" stroke="#191970" points="1673.2499,-193.9645 1681.6761,-187.5419 1671.0839,-187.308 1673.2499,-193.9645"/>
</g>
<!-- Node20&#45;&gt;Node18 -->
<g id="edge26" class="edge">
<title>Node20&#45;&gt;Node18</title>
<path fill="none" stroke="#191970" d="M1266.814,-168.4369C1312.7291,-157.6785 1386.5434,-140.3831 1429.9508,-130.2124"/>
<polygon fill="#191970" stroke="#191970" points="1430.8364,-133.5997 1439.7742,-127.9106 1429.2394,-126.7843 1430.8364,-133.5997"/>
</g>
<!-- Node21&#45;&gt;Node6 -->
<g id="edge29" class="edge">
<title>Node21&#45;&gt;Node6</title>
<path fill="none" stroke="#191970" d="M1704.8481,-168.2066C1694.7037,-153.0459 1672.8883,-124.3559 1646,-112 1539.7415,-63.1714 1236.938,-91.2804 1121,-76 1116.1667,-75.363 1111.1018,-74.5494 1106.1183,-73.6622"/>
<polygon fill="#191970" stroke="#191970" points="1106.5796,-70.1875 1096.1037,-71.7705 1105.2803,-77.0658 1106.5796,-70.1875"/>
</g>
<!-- Node21&#45;&gt;Node13 -->
<g id="edge30" class="edge">
<title>Node21&#45;&gt;Node13</title>
<path fill="none" stroke="#191970" d="M1708.9745,-168.4158C1705.8254,-154.987 1698.8521,-130.1804 1687,-112 1679.6871,-100.7824 1669.1443,-90.2848 1659.801,-82.1584"/>
<polygon fill="#191970" stroke="#191970" points="1661.9339,-79.3799 1652.0103,-75.6689 1657.4538,-84.7584 1661.9339,-79.3799"/>
</g>
<!-- Node21&#45;&gt;Node18 -->
<g id="edge28" class="edge">
<title>Node21&#45;&gt;Node18</title>
<path fill="none" stroke="#191970" d="M1668.9906,-168.4369C1621.3764,-157.5979 1544.6137,-140.1234 1500.0761,-129.9848"/>
<polygon fill="#191970" stroke="#191970" points="1500.8115,-126.5627 1490.284,-127.7557 1499.2577,-133.3881 1500.8115,-126.5627"/>
</g>
<!-- Node25&#45;&gt;Node7 -->
<g id="edge42" class="edge">
<title>Node25&#45;&gt;Node7</title>
<path fill="none" stroke="#191970" d="M1350.2897,-229.7933C1350.3567,-215.6019 1349.1165,-188.6373 1340,-168 1313.8557,-108.816 1301.1004,-91.4884 1247,-56 1208.8466,-30.9724 1156.801,-19.2688 1123.0481,-14.0054"/>
<polygon fill="#191970" stroke="#191970" points="1123.172,-10.4868 1112.7729,-12.5141 1122.1665,-17.4143 1123.172,-10.4868"/>
</g>
<!-- Node25&#45;&gt;Node11 -->
<g id="edge40" class="edge">
<title>Node25&#45;&gt;Node11</title>
<path fill="none" stroke="#191970" d="M1343.8647,-229.5113C1333.7696,-213.9378 1312.1459,-184.0014 1286,-168 1169.3132,-96.5873 1003.1936,-74.6869 932.7039,-68.3808"/>
<polygon fill="#191970" stroke="#191970" points="932.8833,-64.8836 922.6239,-67.5284 932.2933,-71.8587 932.8833,-64.8836"/>
</g>
<!-- Node25&#45;&gt;Node12 -->
<g id="edge43" class="edge">
<title>Node25&#45;&gt;Node12</title>
<path fill="none" stroke="#191970" d="M1347.7056,-229.874C1343.8727,-215.3081 1335.0656,-187.3205 1320,-168 1289.7371,-129.19 1241.1968,-97.6626 1211.0295,-80.3969"/>
<polygon fill="#191970" stroke="#191970" points="1212.7325,-77.3391 1202.2977,-75.5041 1209.3106,-83.4458 1212.7325,-77.3391"/>
</g>
<!-- Node25&#45;&gt;Node18 -->
<g id="edge41" class="edge">
<title>Node25&#45;&gt;Node18</title>
<path fill="none" stroke="#191970" d="M1359.4109,-229.8845C1378.8696,-210.0028 1423.756,-164.1406 1448.2728,-139.0908"/>
<polygon fill="#191970" stroke="#191970" points="1450.9657,-141.3432 1455.459,-131.7484 1445.963,-136.447 1450.9657,-141.3432"/>
</g>
<!-- Node26 -->
<g id="node27" class="node">
<title>Node26</title>
<g id="a_node27"><a xlink:href="../../d0/d51/SymbolStatistics_8h.html" target="_top" xlink:title="Structure to depict the distribution of symbols in the source message. ">
<polygon fill="none" stroke="#000000" points="668.5,-168.5 668.5,-187.5 775.5,-187.5 775.5,-168.5 668.5,-168.5"/>
<text text-anchor="middle" x="722" y="-175.5" font-family="Helvetica,sans-Serif" font-size="10.00" fill="#000000">SymbolStatistics.h</text>
</a>
</g>
</g>
<!-- Node25&#45;&gt;Node26 -->
<g id="edge44" class="edge">
<title>Node25&#45;&gt;Node26</title>
<path fill="none" stroke="#191970" d="M1285.7443,-233.2074C1165.153,-221.3979 906.2618,-196.0448 785.9244,-184.2601"/>
<polygon fill="#191970" stroke="#191970" points="786.0559,-180.7563 775.7624,-183.2649 785.3736,-187.723 786.0559,-180.7563"/>
</g>
<!-- Node26&#45;&gt;Node1 -->
<g id="edge52" class="edge">
<title>Node26&#45;&gt;Node1</title>
<path fill="none" stroke="#191970" d="M689.1911,-168.4735C659.6234,-159.6799 615.0771,-145.9132 577,-132 531.7155,-115.4532 480.3685,-93.5536 448.5799,-79.6172"/>
<polygon fill="#191970" stroke="#191970" points="449.9333,-76.3889 439.3707,-75.5625 447.1125,-82.7954 449.9333,-76.3889"/>
</g>
<!-- Node26&#45;&gt;Node4 -->
<g id="edge55" class="edge">
<title>Node26&#45;&gt;Node4</title>
<path fill="none" stroke="#191970" d="M709.2844,-168.2455C698.398,-159.8943 682.5117,-147.7076 669.78,-137.9408"/>
<polygon fill="#191970" stroke="#191970" points="671.6346,-134.9523 661.5699,-131.6427 667.3739,-140.5063 671.6346,-134.9523"/>
</g>
<!-- Node26&#45;&gt;Node5 -->
<g id="edge45" class="edge">
<title>Node26&#45;&gt;Node5</title>
<path fill="none" stroke="#191970" d="M775.7019,-172.7684C918.1359,-158.93 1303.3458,-121.7569 1431,-112 1707.7437,-90.8478 2041.1405,-73.7612 2157.4865,-68.0484"/>
<polygon fill="#191970" stroke="#191970" points="2157.9229,-71.5313 2167.74,-67.5469 2157.5809,-64.5397 2157.9229,-71.5313"/>
</g>
<!-- Node26&#45;&gt;Node6 -->
<g id="edge46" class="edge">
<title>Node26&#45;&gt;Node6</title>
<path fill="none" stroke="#191970" d="M746.5194,-168.4212C781.2812,-154.9989 847.0085,-130.1999 904,-112 948.4059,-97.8193 1000.2788,-83.8533 1034.0624,-75.0979"/>
<polygon fill="#191970" stroke="#191970" points="1035.1275,-78.4379 1043.938,-72.5536 1033.3809,-71.6593 1035.1275,-78.4379"/>
</g>
<!-- Node26&#45;&gt;Node7 -->
<g id="edge50" class="edge">
<title>Node26&#45;&gt;Node7</title>
<path fill="none" stroke="#191970" d="M729.9216,-168.4611C749.9796,-145.015 805.4978,-84.4155 866,-56 928.7719,-26.5185 1010.2366,-15.8411 1055.2944,-12.0405"/>
<polygon fill="#191970" stroke="#191970" points="1055.7029,-15.5193 1065.4007,-11.2528 1055.159,-8.5405 1055.7029,-15.5193"/>
</g>
<!-- Node26&#45;&gt;Node8 -->
<g id="edge47" class="edge">
<title>Node26&#45;&gt;Node8</title>
<path fill="none" stroke="#191970" d="M673.4021,-168.4509C562.7816,-146.715 293.9104,-93.8841 192.0295,-73.8654"/>
<polygon fill="#191970" stroke="#191970" points="192.6239,-70.4154 182.1367,-71.9216 191.2743,-77.2841 192.6239,-70.4154"/>
</g>
<!-- Node26&#45;&gt;Node9 -->
<g id="edge51" class="edge">
<title>Node26&#45;&gt;Node9</title>
<path fill="none" stroke="#191970" d="M678.9699,-168.4628C644.6009,-159.9187 600.3714,-146.5245 589,-132 578.9262,-119.1329 578.1836,-100.2277 579.5189,-85.945"/>
<polygon fill="#191970" stroke="#191970" points="583.0345,-86.0622 580.8968,-75.6853 576.0968,-85.1304 583.0345,-86.0622"/>
</g>
<!-- Node26&#45;&gt;Node10 -->
<g id="edge48" class="edge">
<title>Node26&#45;&gt;Node10</title>
<path fill="none" stroke="#191970" d="M720.8916,-168.4509C718.7714,-150.184 714.102,-109.9553 711.2863,-85.6976"/>
<polygon fill="#191970" stroke="#191970" points="714.7353,-85.0546 710.1056,-75.5249 707.782,-85.8618 714.7353,-85.0546"/>
</g>
<!-- Node26&#45;&gt;Node11 -->
<g id="edge49" class="edge">
<title>Node26&#45;&gt;Node11</title>
<path fill="none" stroke="#191970" d="M737.0909,-168.4509C767.9187,-148.9441 838.325,-104.3932 875.3091,-80.9909"/>
<polygon fill="#191970" stroke="#191970" points="877.3684,-83.8297 883.9473,-75.5249 873.6254,-77.9144 877.3684,-83.8297"/>
</g>
<!-- Node26&#45;&gt;Node12 -->
<g id="edge53" class="edge">
<title>Node26&#45;&gt;Node12</title>
<path fill="none" stroke="#191970" d="M757.8136,-168.4926C807.5593,-155.3656 900.4362,-131.143 980,-112 1030.8713,-99.7604 1089.1178,-86.7231 1130.3134,-77.6653"/>
<polygon fill="#191970" stroke="#191970" points="1131.1246,-81.0707 1140.142,-75.5087 1129.6242,-74.2334 1131.1246,-81.0707"/>
</g>
<!-- Node26&#45;&gt;Node13 -->
<g id="edge54" class="edge">
<title>Node26&#45;&gt;Node13</title>
<path fill="none" stroke="#191970" d="M775.6018,-171.4532C936.4799,-151.804 1414.3175,-93.4421 1580.921,-73.0936"/>
<polygon fill="#191970" stroke="#191970" points="1581.4687,-76.5528 1590.9706,-71.8662 1580.62,-69.6045 1581.4687,-76.5528"/>
</g>
<!-- Node27&#45;&gt;Node1 -->
<g id="edge68" class="edge">
<title>Node27&#45;&gt;Node1</title>
<path fill="none" stroke="#191970" d="M850.2291,-299.822C795.9736,-296.9814 684.7644,-287.3627 597,-255 509.1628,-222.6105 468.7626,-215.2815 426,-132 418.6684,-117.7214 416.9414,-99.4802 416.8934,-85.7947"/>
<polygon fill="#191970" stroke="#191970" points="420.3984,-85.6458 417.1619,-75.5574 413.4008,-85.4622 420.3984,-85.6458"/>
</g>
<!-- Node27&#45;&gt;Node4 -->
<g id="edge72" class="edge">
<title>Node27&#45;&gt;Node4</title>
<path fill="none" stroke="#191970" d="M850.3476,-295.2109C773.0975,-280.7439 583.1045,-240.3823 550,-188 534.2484,-163.0758 566.8377,-145.4275 598.7589,-134.6899"/>
<polygon fill="#191970" stroke="#191970" points="600.1118,-137.9329 608.5898,-131.579 597.9998,-131.2591 600.1118,-137.9329"/>
</g>
<!-- Node27&#45;&gt;Node8 -->
<g id="edge69" class="edge">
<title>Node27&#45;&gt;Node8</title>
<path fill="none" stroke="#191970" d="M850.4321,-298.4359C772.4079,-292.0532 576.6266,-274.551 514,-255 376.4898,-212.0717 229.2164,-118.2243 174.305,-81.3308"/>
<polygon fill="#191970" stroke="#191970" points="176.2539,-78.4236 166.0105,-75.7173 172.3305,-84.2208 176.2539,-78.4236"/>
</g>
<!-- Node27&#45;&gt;Node12 -->
<g id="edge71" class="edge">
<title>Node27&#45;&gt;Node12</title>
<path fill="none" stroke="#191970" d="M884.7565,-291.2291C889.5763,-267.1023 905.18,-204.0517 942,-168 971.6069,-139.0109 989.8082,-148.0726 1028,-132 1070.9239,-113.9359 1120.4381,-92.9648 1151.9637,-79.5957"/>
<polygon fill="#191970" stroke="#191970" points="1153.6966,-82.6626 1161.536,-75.5356 1150.9632,-76.2183 1153.6966,-82.6626"/>
</g>
<!-- Node27&#45;&gt;Node14 -->
<g id="edge67" class="edge">
<title>Node27&#45;&gt;Node14</title>
<path fill="none" stroke="#191970" d="M850.3635,-299.4407C759.962,-294.8453 507.7932,-280.0819 429,-255 275.193,-206.0393 194.2789,-215.4542 113,-76 103.1042,-59.0213 117.5983,-39.6719 131.6391,-26.335"/>
<polygon fill="#191970" stroke="#191970" points="134.0764,-28.8515 139.2351,-19.5974 129.4314,-23.6147 134.0764,-28.8515"/>
</g>
<!-- Node27&#45;&gt;Node20 -->
<g id="edge73" class="edge">
<title>Node27&#45;&gt;Node20</title>
<path fill="none" stroke="#191970" d="M915.5373,-298.5435C979.9983,-293.2141 1121.3056,-279.0918 1163,-255 1186.849,-241.2197 1205.4319,-214.7288 1216.0553,-196.7101"/>
<polygon fill="#191970" stroke="#191970" points="1219.2682,-198.1374 1221.1212,-187.7059 1213.1674,-194.7051 1219.2682,-198.1374"/>
</g>
<!-- Node27&#45;&gt;Node22 -->
<g id="edge70" class="edge">
<title>Node27&#45;&gt;Node22</title>
<path fill="none" stroke="#191970" d="M915.5138,-299.6684C1015.3732,-295.4061 1326.408,-280.8431 1583,-255 1607.8765,-252.4945 1635.6816,-248.7334 1657.6036,-245.5435"/>
<polygon fill="#191970" stroke="#191970" points="1658.1589,-248.9996 1667.5413,-244.0782 1657.1377,-242.0744 1658.1589,-248.9996"/>
</g>
<!-- Node27&#45;&gt;Node25 -->
<g id="edge80" class="edge">
<title>Node27&#45;&gt;Node25</title>
<path fill="none" stroke="#191970" d="M915.8385,-296.6754C990.0802,-286.8984 1172.3991,-262.8886 1275.6135,-249.2961"/>
<polygon fill="#191970" stroke="#191970" points="1276.197,-252.7495 1285.6544,-247.9738 1275.283,-245.8095 1276.197,-252.7495"/>
</g>
<!-- Node27&#45;&gt;Node26 -->
<g id="edge81" class="edge">
<title>Node27&#45;&gt;Node26</title>
<path fill="none" stroke="#191970" d="M850.3472,-297.5091C803.0602,-291.7044 719.1714,-278.3356 701,-255 687.6396,-237.8426 698.5521,-212.7837 708.9982,-195.9592"/>
<polygon fill="#191970" stroke="#191970" points="711.9616,-197.8238 714.5965,-187.5618 706.1373,-193.9409 711.9616,-197.8238"/>
</g>
<!-- Node28 -->
<g id="node29" class="node">
<title>Node28</title>
<g id="a_node29"><a xlink:href="../../d6/dfb/Utilities_2rANS_2include_2rANS_2internal_2Decoder_8h.html" target="_top" xlink:title="internal/Decoder.h">
<polygon fill="none" stroke="#000000" points="1048,-230 1048,-249 1154,-249 1154,-230 1048,-230"/>
<text text-anchor="middle" x="1101" y="-237" font-family="Helvetica,sans-Serif" font-size="10.00" fill="#000000">internal/Decoder.h</text>
</a>
</g>
</g>
<!-- Node27&#45;&gt;Node28 -->
<g id="edge58" class="edge">
<title>Node27&#45;&gt;Node28</title>
<path fill="none" stroke="#191970" d="M915.6368,-291.7928C953.3541,-281.1524 1015.5867,-263.596 1057.4177,-251.795"/>
<polygon fill="#191970" stroke="#191970" points="1058.3878,-255.158 1067.0618,-249.0743 1056.4872,-248.421 1058.3878,-255.158"/>
</g>
<!-- Node29 -->
<g id="node30" class="node">
<title>Node29</title>
<g id="a_node30"><a xlink:href="../../dc/d3b/ReverseSymbolLookupTable_8h.html" target="_top" xlink:title="Maps CDF back to source symbol &#45; needed for the decoder. ">
<polygon fill="none" stroke="#000000" points="710,-224.5 710,-254.5 878,-254.5 878,-224.5 710,-224.5"/>
<text text-anchor="start" x="718" y="-242.5" font-family="Helvetica,sans-Serif" font-size="10.00" fill="#000000">internal/ReverseSymbolLookup</text>
<text text-anchor="middle" x="794" y="-231.5" font-family="Helvetica,sans-Serif" font-size="10.00" fill="#000000">Table.h</text>
</a>
</g>
</g>
<!-- Node27&#45;&gt;Node29 -->
<g id="edge74" class="edge">
<title>Node27&#45;&gt;Node29</title>
<path fill="none" stroke="#191970" d="M869.0938,-291.3906C857.1602,-283.1444 839.5374,-270.9669 824.3623,-260.4807"/>
<polygon fill="#191970" stroke="#191970" points="825.9885,-257.3501 815.7718,-254.5446 822.0091,-263.1089 825.9885,-257.3501"/>
</g>
<!-- Node28&#45;&gt;Node1 -->
<g id="edge63" class="edge">
<title>Node28&#45;&gt;Node1</title>
<path fill="none" stroke="#191970" d="M1047.9745,-235.486C941.4745,-227.1395 705.0148,-207.0958 626,-188 558.4464,-171.674 537.693,-170.7497 480,-132 460.5463,-118.9339 442.7267,-98.707 431.2338,-84.0884"/>
<polygon fill="#191970" stroke="#191970" points="433.7822,-81.6579 424.9374,-75.8251 428.2143,-85.9005 433.7822,-81.6579"/>
</g>
<!-- Node28&#45;&gt;Node6 -->
<g id="edge61" class="edge">
<title>Node28&#45;&gt;Node6</title>
<path fill="none" stroke="#191970" d="M1099.2891,-229.9248C1094.3889,-202.499 1080.2259,-123.232 1073.555,-85.8964"/>
<polygon fill="#191970" stroke="#191970" points="1076.9482,-84.988 1071.7438,-75.7595 1070.0573,-86.2193 1076.9482,-84.988"/>
</g>
<!-- Node28&#45;&gt;Node11 -->
<g id="edge59" class="edge">
<title>Node28&#45;&gt;Node11</title>
<path fill="none" stroke="#191970" d="M1089.8519,-229.9248C1056.8887,-201.6124 959.6032,-118.0528 918.1058,-82.4101"/>
<polygon fill="#191970" stroke="#191970" points="920.2291,-79.6201 910.3627,-75.7595 915.6682,-84.9303 920.2291,-79.6201"/>
</g>
<!-- Node28&#45;&gt;Node13 -->
<g id="edge66" class="edge">
<title>Node28&#45;&gt;Node13</title>
<path fill="none" stroke="#191970" d="M1102.9955,-229.9059C1106.7625,-214.3268 1116.459,-183.6935 1137,-168 1138.1165,-167.147 1450.7407,-103.9889 1582.0145,-77.4959"/>
<polygon fill="#191970" stroke="#191970" points="1582.7864,-80.9107 1591.8964,-75.5017 1581.4016,-74.0491 1582.7864,-80.9107"/>
</g>
<!-- Node28&#45;&gt;Node18 -->
<g id="edge60" class="edge">
<title>Node28&#45;&gt;Node18</title>
<path fill="none" stroke="#191970" d="M1106.4718,-229.951C1116.084,-214.1498 1137.6069,-182.8378 1165,-168 1176.5743,-161.7306 1352.9084,-137.2157 1429.7043,-126.7633"/>
<polygon fill="#191970" stroke="#191970" points="1430.4144,-130.1991 1439.8524,-125.3851 1429.4723,-123.2628 1430.4144,-130.1991"/>
</g>
<!-- Node28&#45;&gt;Node19 -->
<g id="edge62" class="edge">
<title>Node28&#45;&gt;Node19</title>
<path fill="none" stroke="#191970" d="M1154.0774,-231.4599C1239.9734,-218.4486 1406.783,-193.1807 1475.871,-182.7154"/>
<polygon fill="#191970" stroke="#191970" points="1476.7298,-186.1253 1486.0928,-181.167 1475.6813,-179.2042 1476.7298,-186.1253"/>
</g>
<!-- Node28&#45;&gt;Node20 -->
<g id="edge64" class="edge">
<title>Node28&#45;&gt;Node20</title>
<path fill="none" stroke="#191970" d="M1120.5313,-229.8906C1141.1708,-219.7359 1173.9276,-203.6196 1197.4602,-192.0416"/>
<polygon fill="#191970" stroke="#191970" points="1199.1782,-195.0971 1206.6059,-187.5419 1196.088,-188.8161 1199.1782,-195.0971"/>
</g>
<!-- Node28&#45;&gt;Node21 -->
<g id="edge65" class="edge">
<title>Node28&#45;&gt;Node21</title>
<path fill="none" stroke="#191970" d="M1154.0664,-234.1499C1267.0092,-222.763 1530.599,-196.188 1650.1329,-184.1366"/>
<polygon fill="#191970" stroke="#191970" points="1650.6117,-187.6062 1660.2102,-183.1206 1649.9095,-180.6415 1650.6117,-187.6062"/>
</g>
<!-- Node29&#45;&gt;Node1 -->
<g id="edge76" class="edge">
<title>Node29&#45;&gt;Node1</title>
<path fill="none" stroke="#191970" d="M709.7304,-227.4933C661.9948,-219.27 601.6758,-206.4649 550,-188 499.0838,-169.8066 477.677,-172.6277 442,-132 430.5735,-118.9879 424.4386,-100.0986 421.2408,-85.8588"/>
<polygon fill="#191970" stroke="#191970" points="424.5986,-84.7887 419.2609,-75.6367 417.7263,-86.1198 424.5986,-84.7887"/>
</g>
<!-- Node29&#45;&gt;Node11 -->
<g id="edge75" class="edge">
<title>Node29&#45;&gt;Node11</title>
<path fill="none" stroke="#191970" d="M800.3393,-224.3454C806.7007,-209.6157 817.0965,-186.7819 828,-168 845.8483,-137.2554 870.1328,-103.8336 885.1752,-83.9165"/>
<polygon fill="#191970" stroke="#191970" points="888.1028,-85.8491 891.3798,-75.7738 882.535,-81.6065 888.1028,-85.8491"/>
</g>
<!-- Node29&#45;&gt;Node12 -->
<g id="edge77" class="edge">
<title>Node29&#45;&gt;Node12</title>
<path fill="none" stroke="#191970" d="M814.2469,-224.3232C835.704,-208.7316 870.9838,-184.4756 904,-168 984.3535,-127.9024 1084.4678,-95.2871 1140.6042,-78.4418"/>
<polygon fill="#191970" stroke="#191970" points="1141.6391,-81.7856 1150.2263,-75.58 1139.6435,-75.0761 1141.6391,-81.7856"/>
</g>
<!-- Node29&#45;&gt;Node13 -->
<g id="edge78" class="edge">
<title>Node29&#45;&gt;Node13</title>
<path fill="none" stroke="#191970" d="M847.2948,-224.4782C940.7545,-198.5643 1140.5811,-145.0648 1312,-112 1405.3752,-93.989 1515.0336,-80.0058 1580.6708,-72.3925"/>
<polygon fill="#191970" stroke="#191970" points="1581.2833,-75.8452 1590.8179,-71.2257 1580.4835,-68.8911 1581.2833,-75.8452"/>
</g>
<!-- Node29&#45;&gt;Node26 -->
<g id="edge79" class="edge">
<title>Node29&#45;&gt;Node26</title>
<path fill="none" stroke="#191970" d="M776.2022,-224.2977C765.5833,-215.2274 752.0969,-203.7077 741.2333,-194.4285"/>
<polygon fill="#191970" stroke="#191970" points="743.4051,-191.6805 733.5281,-187.8469 738.8587,-197.0031 743.4051,-191.6805"/>
</g>
<!-- Node30&#45;&gt;Node5 -->
<g id="edge85" class="edge">
<title>Node30&#45;&gt;Node5</title>
<path fill="none" stroke="#191970" d="M1740.7493,-352.3538C1812.2754,-344.9192 1943.4882,-329.3085 1987,-311 2042.0027,-287.8564 2197.1854,-140.4692 2201,-132 2207.471,-117.633 2206.7023,-99.6592 2204.604,-86.0978"/>
<polygon fill="#191970" stroke="#191970" points="2207.9739,-85.085 2202.6586,-75.92 2201.0984,-86.3993 2207.9739,-85.085"/>
</g>
<!-- Node30&#45;&gt;Node12 -->
<g id="edge90" class="edge">
<title>Node30&#45;&gt;Node12</title>
<path fill="none" stroke="#191970" d="M1675.9433,-347.377C1663.6911,-339.4014 1648.1292,-326.8248 1641,-311 1629.6152,-285.7287 1645.8146,-237.8778 1659,-224 1697.0598,-183.9415 1797.5209,-215.9149 1770,-168 1757.6991,-146.5836 1697.5141,-119.554 1674,-112 1596.4164,-87.076 1362.4181,-73.7559 1248.1626,-68.5846"/>
<polygon fill="#191970" stroke="#191970" points="1248.2983,-65.0873 1238.1523,-68.1386 1247.9866,-72.0804 1248.2983,-65.0873"/>
</g>
<!-- Node30&#45;&gt;Node13 -->
<g id="edge93" class="edge">
<title>Node30&#45;&gt;Node13</title>
<path fill="none" stroke="#191970" d="M1740.6771,-353.0753C1792.2931,-347.7391 1876.4282,-335.8496 1945,-311 2000.0711,-291.0429 2073.3448,-274.6951 2044,-224 1993.9305,-137.5016 1942.2354,-148.0015 1849,-112 1799.5221,-92.8948 1740.265,-80.8259 1697.3321,-73.8686"/>
<polygon fill="#191970" stroke="#191970" points="1697.7577,-70.3925 1687.3347,-72.2929 1696.6678,-77.3072 1697.7577,-70.3925"/>
</g>
<!-- Node30&#45;&gt;Node16 -->
<g id="edge83" class="edge">
<title>Node30&#45;&gt;Node16</title>
<path fill="none" stroke="#191970" d="M1720.3331,-347.3733C1746.5434,-338.1419 1786.2984,-324.1402 1815.2668,-313.9375"/>
<polygon fill="#191970" stroke="#191970" points="1816.7542,-317.1244 1825.0236,-310.5011 1814.4288,-310.5219 1816.7542,-317.1244"/>
</g>
<!-- Node30&#45;&gt;Node18 -->
<g id="edge88" class="edge">
<title>Node30&#45;&gt;Node18</title>
<path fill="none" stroke="#191970" d="M1645.3993,-351.3239C1590.2535,-341.9191 1501.7636,-317.4514 1461,-255 1438.3716,-220.3325 1449.3851,-169.0245 1458.0283,-141.3633"/>
<polygon fill="#191970" stroke="#191970" points="1461.4102,-142.2858 1461.2607,-131.692 1454.7712,-140.0668 1461.4102,-142.2858"/>
</g>
<!-- Node30&#45;&gt;Node21 -->
<g id="edge92" class="edge">
<title>Node30&#45;&gt;Node21</title>
<path fill="none" stroke="#191970" d="M1657.4402,-347.3459C1639.2535,-340.4075 1618.7363,-329.0179 1608,-311 1603.4499,-303.364 1606.8369,-299.8125 1608,-291 1612.0347,-260.4314 1606.8864,-248.1948 1626,-224 1637.5642,-209.3615 1655.1159,-198.7617 1671.2733,-191.4536"/>
<polygon fill="#191970" stroke="#191970" points="1672.7205,-194.6418 1680.5696,-187.5255 1669.9959,-188.1938 1672.7205,-194.6418"/>
</g>
<!-- Node30&#45;&gt;Node22 -->
<g id="edge84" class="edge">
<title>Node30&#45;&gt;Node22</title>
<path fill="none" stroke="#191970" d="M1694.106,-347.1456C1695.0911,-337.8422 1696.4578,-323.4936 1697,-311 1697.7559,-293.5817 1697.6824,-273.754 1697.462,-259.4038"/>
<polygon fill="#191970" stroke="#191970" points="1700.9579,-259.1513 1697.2668,-249.2203 1693.9592,-259.2856 1700.9579,-259.1513"/>
</g>
<!-- Node30&#45;&gt;Node23 -->
<g id="edge86" class="edge">
<title>Node30&#45;&gt;Node23</title>
<path fill="none" stroke="#191970" d="M1740.8822,-351.0196C1792.4545,-343.7218 1870.1975,-329.9689 1893,-311 1908.7189,-297.9238 1916.6823,-275.369 1920.5689,-259.0836"/>
<polygon fill="#191970" stroke="#191970" points="1924.0556,-259.506 1922.6536,-249.0043 1917.2007,-258.0881 1924.0556,-259.506"/>
</g>
<!-- Node30&#45;&gt;Node24 -->
<g id="edge91" class="edge">
<title>Node30&#45;&gt;Node24</title>
<path fill="none" stroke="#191970" d="M1740.5533,-353.7099C1786.9725,-349.0168 1858.6444,-337.7598 1915,-311 1943.4236,-297.5034 1970.6603,-272.9859 1987.111,-256.472"/>
<polygon fill="#191970" stroke="#191970" points="1989.8224,-258.7038 1994.2782,-249.0915 1984.8007,-253.8271 1989.8224,-258.7038"/>
</g>
<!-- Node30&#45;&gt;Node25 -->
<g id="edge94" class="edge">
<title>Node30&#45;&gt;Node25</title>
<path fill="none" stroke="#191970" d="M1645.4031,-351.9916C1579.8019,-344.5388 1465.4526,-329.4119 1428,-311 1401.8881,-298.1632 1378.2288,-273.8404 1363.9831,-257.1586"/>
<polygon fill="#191970" stroke="#191970" points="1366.4987,-254.7085 1357.4284,-249.233 1361.1044,-259.1697 1366.4987,-254.7085"/>
</g>
<!-- Node31 -->
<g id="node32" class="node">
<title>Node31</title>
<polygon fill="none" stroke="#bfbfbf" points="1650,-291.5 1650,-310.5 1688,-310.5 1688,-291.5 1650,-291.5"/>
<text text-anchor="middle" x="1669" y="-298.5" font-family="Helvetica,sans-Serif" font-size="10.00" fill="#000000">map</text>
</g>
<!-- Node30&#45;&gt;Node31 -->
<g id="edge87" class="edge">
<title>Node30&#45;&gt;Node31</title>
<path fill="none" stroke="#191970" d="M1688.8195,-347.2455C1685.619,-339.7776 1681.104,-329.2427 1677.1916,-320.1137"/>
<polygon fill="#191970" stroke="#191970" points="1680.2888,-318.4554 1673.1326,-310.6427 1673.8548,-321.2129 1680.2888,-318.4554"/>
</g>
<!-- Node32 -->
<g id="node33" class="node">
<title>Node32</title>
<polygon fill="none" stroke="#bfbfbf" points="1324,-291.5 1324,-310.5 1368,-310.5 1368,-291.5 1324,-291.5"/>
<text text-anchor="middle" x="1346" y="-298.5" font-family="Helvetica,sans-Serif" font-size="10.00" fill="#000000">string</text>
</g>
<!-- Node30&#45;&gt;Node32 -->
<g id="edge89" class="edge">
<title>Node30&#45;&gt;Node32</title>
<path fill="none" stroke="#191970" d="M1645.4214,-351.3143C1584.8664,-343.7475 1477.171,-329.1829 1386,-311 1383.4816,-310.4977 1380.8835,-309.9399 1378.2775,-309.3518"/>
<polygon fill="#191970" stroke="#191970" points="1378.8778,-305.897 1368.3393,-306.9882 1377.2581,-312.7071 1378.8778,-305.897"/>
</g>
<!-- Node33&#45;&gt;Node1 -->
<g id="edge98" class="edge">
<title>Node33&#45;&gt;Node1</title>
<path fill="none" stroke="#191970" d="M922.4786,-353.6112C777.5658,-342.2741 354.0154,-299.8758 290,-188 262.7417,-140.3623 335.9848,-99.76 382.6492,-79.6005"/>
<polygon fill="#191970" stroke="#191970" points="384.2888,-82.7083 392.1577,-75.6138 381.5821,-76.2527 384.2888,-82.7083"/>
</g>
<!-- Node33&#45;&gt;Node8 -->
<g id="edge99" class="edge">
<title>Node33&#45;&gt;Node8</title>
<path fill="none" stroke="#191970" d="M922.4775,-356.0475C730.9648,-351.6566 38,-329.5473 38,-239.5 38,-239.5 38,-239.5 38,-178 38,-131.4628 86.9383,-97.828 120.6864,-80.1659"/>
<polygon fill="#191970" stroke="#191970" points="122.3862,-83.2289 129.749,-75.6105 119.2424,-76.9746 122.3862,-83.2289"/>
</g>
<!-- Node33&#45;&gt;Node12 -->
<g id="edge101" class="edge">
<title>Node33&#45;&gt;Node12</title>
<path fill="none" stroke="#191970" d="M973.9477,-347.345C983.379,-317.6894 1015.2615,-226.3996 1067,-168 1097.0521,-134.0788 1138.1113,-100.7071 1162.7472,-81.8014"/>
<polygon fill="#191970" stroke="#191970" points="1164.8826,-84.5746 1170.7313,-75.7404 1160.65,-78.9992 1164.8826,-84.5746"/>
</g>
<!-- Node33&#45;&gt;Node14 -->
<g id="edge97" class="edge">
<title>Node33&#45;&gt;Node14</title>
<path fill="none" stroke="#191970" d="M922.377,-355.5783C754.8783,-350.5094 207.9333,-332.4735 132,-311 67.7975,-292.8439 0,-306.2203 0,-239.5 0,-239.5 0,-239.5 0,-122 0,-64.8609 70.4758,-33.607 115.4502,-19.4795"/>
<polygon fill="#191970" stroke="#191970" points="116.6015,-22.7883 125.1753,-16.5642 114.5914,-16.0831 116.6015,-22.7883"/>
</g>
<!-- Node33&#45;&gt;Node20 -->
<g id="edge102" class="edge">
<title>Node33&#45;&gt;Node20</title>
<path fill="none" stroke="#191970" d="M1013.8842,-347.4845C1063.3286,-334.4682 1144.1739,-306.6075 1194,-255 1209.4244,-239.0242 1217.8536,-214.5469 1222.1326,-197.4927"/>
<polygon fill="#191970" stroke="#191970" points="1225.5955,-198.0461 1224.377,-187.5216 1218.7664,-196.5089 1225.5955,-198.0461"/>
</g>
<!-- Node33&#45;&gt;Node25 -->
<g id="edge104" class="edge">
<title>Node33&#45;&gt;Node25</title>
<path fill="none" stroke="#191970" d="M1015.981,-347.4655C1054.1092,-339.0199 1110.0731,-325.7648 1158,-311 1214.9484,-293.456 1279.5863,-268.2538 1317.461,-252.9299"/>
<polygon fill="#191970" stroke="#191970" points="1319.0045,-256.0807 1326.949,-249.071 1316.3672,-249.5965 1319.0045,-256.0807"/>
</g>
<!-- Node33&#45;&gt;Node27 -->
<g id="edge96" class="edge">
<title>Node33&#45;&gt;Node27</title>
<path fill="none" stroke="#191970" d="M955.6716,-347.2455C942.1697,-338.6534 922.2878,-326.0014 906.7314,-316.1018"/>
<polygon fill="#191970" stroke="#191970" points="908.4685,-313.0587 898.1528,-310.6427 904.7103,-318.9643 908.4685,-313.0587"/>
</g>
<!-- Node33&#45;&gt;Node28 -->
<g id="edge105" class="edge">
<title>Node33&#45;&gt;Node28</title>
<path fill="none" stroke="#191970" d="M981.6384,-347.3845C1003.7304,-327.4167 1054.8162,-281.243 1082.4497,-256.2667"/>
<polygon fill="#191970" stroke="#191970" points="1085.1427,-258.5504 1090.2146,-249.2484 1080.4489,-253.3572 1085.1427,-258.5504"/>
</g>
<!-- Node33&#45;&gt;Node29 -->
<g id="edge103" class="edge">
<title>Node33&#45;&gt;Node29</title>
<path fill="none" stroke="#191970" d="M922.2193,-347.6921C896.1015,-340.8586 864.555,-329.4587 841,-311 825.1202,-298.5559 812.8613,-279.1918 804.8508,-263.7525"/>
<polygon fill="#191970" stroke="#191970" points="807.9733,-262.1707 800.4177,-254.7435 801.6925,-265.2614 807.9733,-262.1707"/>
</g>
<!-- Node33&#45;&gt;Node32 -->
<g id="edge100" class="edge">
<title>Node33&#45;&gt;Node32</title>
<path fill="none" stroke="#191970" d="M1019.7186,-348.5034C1022.8581,-347.9858 1025.9725,-347.4806 1029,-347 1132.9277,-330.5032 1256.41,-313.2618 1313.759,-305.3895"/>
<polygon fill="#191970" stroke="#191970" points="1314.2455,-308.8556 1323.6781,-304.0309 1313.2956,-301.9204 1314.2455,-308.8556"/>
</g>
<!-- Node34&#45;&gt;Node5 -->
<g id="edge109" class="edge">
<title>Node34&#45;&gt;Node5</title>
<path fill="none" stroke="#191970" d="M2035.524,-352.4619C2096.7311,-345.8626 2198.9381,-332.0584 2230,-311 2308.0698,-258.0726 2317.613,-222.5534 2344,-132 2346.4868,-123.466 2349.2426,-119.1783 2344,-112 2331.7802,-95.2683 2279.8572,-81.6774 2241.854,-73.7177"/>
<polygon fill="#191970" stroke="#191970" points="2242.5347,-70.2846 2232.0376,-71.7205 2241.139,-77.144 2242.5347,-70.2846"/>
</g>
<!-- Node34&#45;&gt;Node12 -->
<g id="edge111" class="edge">
<title>Node34&#45;&gt;Node12</title>
<path fill="none" stroke="#191970" d="M2007.7458,-347.4676C2021.9142,-339.6154 2040.3204,-327.1553 2051,-311 2072.5597,-278.386 2086.3098,-256.1055 2064,-224 1982.5472,-106.7832 1902.368,-142.8363 1763,-112 1666.4207,-90.631 1377.8224,-74.9987 1248.2358,-68.8604"/>
<polygon fill="#191970" stroke="#191970" points="1248.2178,-65.3558 1238.0646,-68.3826 1247.8893,-72.3481 1248.2178,-65.3558"/>
</g>
<!-- Node34&#45;&gt;Node13 -->
<g id="edge114" class="edge">
<title>Node34&#45;&gt;Node13</title>
<path fill="none" stroke="#191970" d="M2035.5511,-353.0246C2089.583,-347.4057 2172.7842,-335.0312 2192,-311 2214.5996,-282.737 2185.9859,-252.6312 2154,-224 2059.9467,-139.811 2013.8766,-148.3685 1893,-112 1827.2205,-92.2088 1749.1517,-79.6264 1697.0926,-72.7155"/>
<polygon fill="#191970" stroke="#191970" points="1697.4068,-69.227 1687.039,-71.4085 1696.5043,-76.1685 1697.4068,-69.227"/>
</g>
<!-- Node34&#45;&gt;Node16 -->
<g id="edge107" class="edge">
<title>Node34&#45;&gt;Node16</title>
<path fill="none" stroke="#191970" d="M1964.6208,-347.3733C1942.4955,-338.2629 1909.0866,-324.5062 1884.3981,-314.3404"/>
<polygon fill="#191970" stroke="#191970" points="1885.6536,-311.0723 1875.0742,-310.5011 1882.9883,-317.5451 1885.6536,-311.0723"/>
</g>
<!-- Node34&#45;&gt;Node21 -->
<g id="edge113" class="edge">
<title>Node34&#45;&gt;Node21</title>
<path fill="none" stroke="#191970" d="M1998.5032,-347.189C2022.6217,-323.5073 2077.4116,-262.3443 2044,-224 2026.418,-203.8223 1863.0665,-188.9434 1771.8676,-182.1293"/>
<polygon fill="#191970" stroke="#191970" points="1771.8873,-178.6214 1761.6573,-181.3776 1771.3733,-185.6025 1771.8873,-178.6214"/>
</g>
<!-- Node34&#45;&gt;Node22 -->
<g id="edge108" class="edge">
<title>Node34&#45;&gt;Node22</title>
<path fill="none" stroke="#191970" d="M1940.4921,-348.7636C1904.0901,-341.4842 1853.127,-329.1706 1811,-311 1776.3083,-296.0365 1739.9539,-271.4453 1717.8817,-255.3617"/>
<polygon fill="#191970" stroke="#191970" points="1719.7346,-252.3788 1709.6136,-249.2458 1715.5717,-258.0065 1719.7346,-252.3788"/>
</g>
<!-- Node34&#45;&gt;Node23 -->
<g id="edge110" class="edge">
<title>Node34&#45;&gt;Node23</title>
<path fill="none" stroke="#191970" d="M1982.7626,-347.3845C1972.1678,-327.9331 1948.0279,-283.6138 1934.2107,-258.2462"/>
<polygon fill="#191970" stroke="#191970" points="1937.1667,-256.356 1929.3098,-249.2484 1931.0195,-259.7044 1937.1667,-256.356"/>
</g>
<!-- Node34&#45;&gt;Node24 -->
<g id="edge112" class="edge">
<title>Node34&#45;&gt;Node24</title>
<path fill="none" stroke="#191970" d="M1991.8212,-347.3165C1995.2335,-338.1339 1999.9933,-323.867 2002,-311 2004.6869,-293.7718 2004.7265,-273.9257 2004.2149,-259.5201"/>
<polygon fill="#191970" stroke="#191970" points="2007.6993,-259.1091 2003.7264,-249.2874 2000.7073,-259.4429 2007.6993,-259.1091"/>
</g>
<!-- Node34&#45;&gt;Node25 -->
<g id="edge115" class="edge">
<title>Node34&#45;&gt;Node25</title>
<path fill="none" stroke="#191970" d="M1940.4194,-347.6983C1896.3407,-338.8956 1829.0311,-324.9816 1771,-311 1737.8788,-303.02 1730.351,-297.957 1697,-291 1670.8987,-285.5552 1518.1329,-263.4608 1424.2085,-250.0432"/>
<polygon fill="#191970" stroke="#191970" points="1424.579,-246.5607 1414.1848,-248.6123 1423.5897,-253.4905 1424.579,-246.5607"/>
</g>
<!-- Node35&#45;&gt;Node1 -->
<g id="edge119" class="edge">
<title>Node35&#45;&gt;Node1</title>
<path fill="none" stroke="#191970" d="M1037.8022,-348.596C901.0231,-324.7221 519.8912,-258.0191 514,-255 451.7962,-223.1219 432.541,-199.9112 416,-132 412.2698,-116.6853 413.1237,-98.7818 414.7134,-85.4886"/>
<polygon fill="#191970" stroke="#191970" points="418.1814,-85.9604 416.1373,-75.5646 411.2524,-84.9661 418.1814,-85.9604"/>
</g>
<!-- Node35&#45;&gt;Node8 -->
<g id="edge120" class="edge">
<title>Node35&#45;&gt;Node8</title>
<path fill="none" stroke="#191970" d="M1037.9549,-348.273C1034.5921,-347.7988 1031.2491,-347.3672 1028,-347 735.2067,-313.9118 651.094,-385.4588 366,-311 311.3823,-296.7354 292.5112,-294.3117 252,-255 200.3531,-204.8823 169.5813,-122.2847 157.6861,-85.141"/>
<polygon fill="#191970" stroke="#191970" points="161.0158,-84.0614 154.7133,-75.545 154.3293,-86.1329 161.0158,-84.0614"/>
</g>
<!-- Node35&#45;&gt;Node12 -->
<g id="edge122" class="edge">
<title>Node35&#45;&gt;Node12</title>
<path fill="none" stroke="#191970" d="M1077.3957,-347.3275C1058.5774,-324.9396 1017.1312,-268.0996 1039,-224 1069.0135,-163.4761 1119.9406,-186.3985 1160,-132 1170.1544,-118.2109 1176.3907,-99.6857 1179.9517,-85.7719"/>
<polygon fill="#191970" stroke="#191970" points="1183.4191,-86.3116 1182.2577,-75.7806 1176.5984,-84.7373 1183.4191,-86.3116"/>
</g>
<!-- Node35&#45;&gt;Node14 -->
<g id="edge118" class="edge">
<title>Node35&#45;&gt;Node14</title>
<path fill="none" stroke="#191970" d="M1037.9275,-348.488C1034.5712,-347.9626 1031.2371,-347.4607 1028,-347 775.6859,-311.0877 691.8916,-365.0088 462,-255 334.1349,-193.8134 210.7123,-71.7762 167.87,-26.9891"/>
<polygon fill="#191970" stroke="#191970" points="170.245,-24.4071 160.8252,-19.5575 165.1648,-29.2229 170.245,-24.4071"/>
</g>
<!-- Node35&#45;&gt;Node20 -->
<g id="edge123" class="edge">
<title>Node35&#45;&gt;Node20</title>
<path fill="none" stroke="#191970" d="M1113.1444,-347.4678C1148.4265,-333.429 1208.5316,-303.4836 1234,-255 1243.4338,-237.041 1238.9623,-213.4919 1233.7031,-197.1876"/>
<polygon fill="#191970" stroke="#191970" points="1236.9507,-195.8754 1230.2716,-187.6511 1230.3641,-198.2455 1236.9507,-195.8754"/>
</g>
<!-- Node35&#45;&gt;Node25 -->
<g id="edge125" class="edge">
<title>Node35&#45;&gt;Node25</title>
<path fill="none" stroke="#191970" d="M1134.2143,-351.7688C1173.2252,-346.0044 1228.6124,-334.265 1272,-311 1297.3671,-297.3978 1320.902,-273.6612 1335.3446,-257.2915"/>
<polygon fill="#191970" stroke="#191970" points="1338.1772,-259.3649 1342.0298,-249.4954 1332.8633,-254.8082 1338.1772,-259.3649"/>
</g>
<!-- Node35&#45;&gt;Node27 -->
<g id="edge117" class="edge">
<title>Node35&#45;&gt;Node27</title>
<path fill="none" stroke="#191970" d="M1051.1031,-347.3733C1016.3908,-337.7975 963.0711,-323.0886 925.817,-312.8116"/>
<polygon fill="#191970" stroke="#191970" points="926.335,-309.3238 915.7643,-310.0384 924.4735,-316.0718 926.335,-309.3238"/>
</g>
<!-- Node35&#45;&gt;Node28 -->
<g id="edge126" class="edge">
<title>Node35&#45;&gt;Node28</title>
<path fill="none" stroke="#191970" d="M1087.93,-347.1625C1089.7007,-337.871 1092.2994,-323.5305 1094,-311 1096.3559,-293.6411 1098.2337,-273.8076 1099.449,-259.4401"/>
<polygon fill="#191970" stroke="#191970" points="1102.9562,-259.492 1100.278,-249.2412 1095.9792,-258.9248 1102.9562,-259.492"/>
</g>
<!-- Node35&#45;&gt;Node29 -->
<g id="edge124" class="edge">
<title>Node35&#45;&gt;Node29</title>
<path fill="none" stroke="#191970" d="M1062.689,-347.4202C1031.2392,-334.5147 973.4562,-310.87 924,-291 896.756,-280.0542 866.2382,-267.956 841.6209,-258.2374"/>
<polygon fill="#191970" stroke="#191970" points="842.7376,-254.9155 832.1509,-254.5013 840.1686,-261.4271 842.7376,-254.9155"/>
</g>
<!-- Node35&#45;&gt;Node32 -->
<g id="edge121" class="edge">
<title>Node35&#45;&gt;Node32</title>
<path fill="none" stroke="#191970" d="M1134.2764,-348.0758C1179.785,-339.4297 1249.7948,-325.5256 1310,-311 1311.2769,-310.6919 1312.5771,-310.37 1313.8888,-310.0384"/>
<polygon fill="#191970" stroke="#191970" points="1315.2025,-313.3115 1323.9775,-307.3743 1313.4152,-306.5435 1315.2025,-313.3115"/>
</g>
<!-- Node38 -->
<g id="node39" class="node">
<title>Node38</title>
<polygon fill="none" stroke="#bfbfbf" points="2513,-347.5 2513,-366.5 2569,-366.5 2569,-347.5 2513,-347.5"/>
<text text-anchor="middle" x="2541" y="-354.5" font-family="Helvetica,sans-Serif" font-size="10.00" fill="#000000">sstream</text>
</g>
<!-- Node37&#45;&gt;Node38 -->
<g id="edge130" class="edge">
<title>Node37&#45;&gt;Node38</title>
<path fill="none" stroke="#191970" d="M2541,-403.2455C2541,-395.9382 2541,-385.6944 2541,-376.7046"/>
<polygon fill="#191970" stroke="#191970" points="2544.5001,-376.6426 2541,-366.6427 2537.5001,-376.6427 2544.5001,-376.6426"/>
</g>
<!-- Node39&#45;&gt;Node12 -->
<g id="edge132" class="edge">
<title>Node39&#45;&gt;Node12</title>
<path fill="none" stroke="#191970" d="M2056.3739,-117.9894C2028.9968,-116.1139 1995.814,-113.8841 1966,-112 1699.4526,-95.1557 1381.6641,-77.0847 1248.1088,-69.5816"/>
<polygon fill="#191970" stroke="#191970" points="1248.2304,-66.083 1238.0499,-69.0169 1247.838,-73.072 1248.2304,-66.083"/>
</g>
</g>
</svg>
