<?xml version="1.0" encoding="UTF-8" standalone="no"?>
<!DOCTYPE svg PUBLIC "-//W3C//DTD SVG 1.1//EN"
 "http://www.w3.org/Graphics/SVG/1.1/DTD/svg11.dtd">
<!-- Generated by graphviz version 2.40.1 (20161225.0304)
 -->
<!-- Title: o2::raw::RawFileReader::LinkData Pages: 1 -->
<!--zoomable 694 -->
<svg id="main" version="1.1" xmlns="http://www.w3.org/2000/svg" xmlns:xlink="http://www.w3.org/1999/xlink" xml:space="preserve" onload="init(evt)">
<style type="text/css"><![CDATA[
.edge:hover path { stroke: red; }
.edge:hover polygon { stroke: red; fill: red; }
]]></style>
<script type="text/javascript"><![CDATA[
var edges = document.getElementsByTagName('g');
if (edges && edges.length) {
  for (var i=0;i<edges.length;i++) {
    if (edges[i].id.substr(0,4)=='edge') {
      edges[i].setAttribute('class','edge');
    }
  }
}
]]></script>
        <defs>
                <circle id="rim" cx="0" cy="0" r="7"/>
                <circle id="rim2" cx="0" cy="0" r="3.5"/>
                <g id="zoomPlus">
                        <use xlink:href="#rim" fill="#404040">
                                <set attributeName="fill" to="#808080" begin="zoomplus.mouseover" end="zoomplus.mouseout"/>
                        </use>
                        <path d="M-4,0h8M0,-4v8" fill="none" stroke="white" stroke-width="1.5" pointer-events="none"/>
                </g>
                <g id="zoomMin">
                        <use xlink:href="#rim" fill="#404040">
                                <set attributeName="fill" to="#808080" begin="zoomminus.mouseover" end="zoomminus.mouseout"/>
                        </use>
                        <path d="M-4,0h8" fill="none" stroke="white" stroke-width="1.5" pointer-events="none"/>
                </g>
                <g id="dirArrow">
                        <path fill="none" stroke="white" stroke-width="1.5" d="M0,-3.0v7 M-2.5,-0.5L0,-3.0L2.5,-0.5"/>
                </g>
               <g id="resetDef">
                       <use xlink:href="#rim2" fill="#404040">
                               <set attributeName="fill" to="#808080" begin="reset.mouseover" end="reset.mouseout"/>
                       </use>
               </g>
        </defs>

<script type="text/javascript">
var viewWidth = 1167;
var viewHeight = 694;
var sectionId = 'dynsection-0';
</script>
<script xlink:href="../../svgpan.js"/>
<svg id="graph" class="graph">
<g id="viewport">
<title>o2::raw::RawFileReader::LinkData</title>
<!-- Node1 -->
<g id="node1" class="node">
<title>Node1</title>
<polygon fill="#bfbfbf" stroke="#000000" points="545,-.5 545,-244.5 706,-244.5 706,-.5 545,-.5"/>
<text text-anchor="start" x="553" y="-232.5" font-family="Helvetica,sans-Serif" font-size="10.00" fill="#000000">o2::raw::RawFileReader</text>
<text text-anchor="middle" x="625.5" y="-221.5" font-family="Helvetica,sans-Serif" font-size="10.00" fill="#000000">::LinkData</text>
<polyline fill="none" stroke="#000000" points="545,-214.5 706,-214.5 "/>
<text text-anchor="middle" x="625.5" y="-202.5" font-family="Helvetica,sans-Serif" font-size="10.00" fill="#000000"> </text>
<polyline fill="none" stroke="#000000" points="545,-195.5 706,-195.5 "/>
<text text-anchor="start" x="553" y="-183.5" font-family="Helvetica,sans-Serif" font-size="10.00" fill="#000000">+ LinkData()</text>
<text text-anchor="start" x="553" y="-172.5" font-family="Helvetica,sans-Serif" font-size="10.00" fill="#000000">+ LinkData()</text>
<text text-anchor="start" x="553" y="-161.5" font-family="Helvetica,sans-Serif" font-size="10.00" fill="#000000">+ preprocessCRUPage()</text>
<text text-anchor="start" x="553" y="-150.5" font-family="Helvetica,sans-Serif" font-size="10.00" fill="#000000">+ getLargestSuperPage()</text>
<text text-anchor="start" x="553" y="-139.5" font-family="Helvetica,sans-Serif" font-size="10.00" fill="#000000">+ getLargestTF()</text>
<text text-anchor="start" x="553" y="-128.5" font-family="Helvetica,sans-Serif" font-size="10.00" fill="#000000">+ getNextHBFSize()</text>
<text text-anchor="start" x="553" y="-117.5" font-family="Helvetica,sans-Serif" font-size="10.00" fill="#000000">+ getNextTFSize()</text>
<text text-anchor="start" x="553" y="-106.5" font-family="Helvetica,sans-Serif" font-size="10.00" fill="#000000">+ getNextTFSuperPagesStat()</text>
<text text-anchor="start" x="553" y="-95.5" font-family="Helvetica,sans-Serif" font-size="10.00" fill="#000000">+ getNHBFinTF()</text>
<text text-anchor="start" x="553" y="-84.5" font-family="Helvetica,sans-Serif" font-size="10.00" fill="#000000">+ readNextHBF()</text>
<text text-anchor="start" x="553" y="-73.5" font-family="Helvetica,sans-Serif" font-size="10.00" fill="#000000">+ readNextTF()</text>
<text text-anchor="start" x="553" y="-62.5" font-family="Helvetica,sans-Serif" font-size="10.00" fill="#000000">+ readNextSuperPage()</text>
<text text-anchor="start" x="553" y="-51.5" font-family="Helvetica,sans-Serif" font-size="10.00" fill="#000000">+ skipNextHBF()</text>
<text text-anchor="start" x="553" y="-40.5" font-family="Helvetica,sans-Serif" font-size="10.00" fill="#000000">+ skipNextTF()</text>
<text text-anchor="start" x="553" y="-29.5" font-family="Helvetica,sans-Serif" font-size="10.00" fill="#000000">+ rewindToTF()</text>
<text text-anchor="start" x="553" y="-18.5" font-family="Helvetica,sans-Serif" font-size="10.00" fill="#000000">+ print()</text>
<text text-anchor="start" x="553" y="-7.5" font-family="Helvetica,sans-Serif" font-size="10.00" fill="#000000">+ describe()</text>
</g>
<!-- Node2 -->
<g id="node2" class="node">
<title>Node2</title>
<polygon fill="none" stroke="#bfbfbf" points="0,-380.5 0,-448.5 107,-448.5 107,-380.5 0,-380.5"/>
<text text-anchor="start" x="8" y="-436.5" font-family="Helvetica,sans-Serif" font-size="10.00" fill="#000000">vector&lt; std::pair&lt;</text>
<text text-anchor="middle" x="53.5" y="-425.5" font-family="Helvetica,sans-Serif" font-size="10.00" fill="#000000"> int, uint32_t &gt; &gt;</text>
<polyline fill="none" stroke="#bfbfbf" points="0,-418.5 107,-418.5 "/>
<text text-anchor="middle" x="53.5" y="-406.5" font-family="Helvetica,sans-Serif" font-size="10.00" fill="#000000"> </text>
<polyline fill="none" stroke="#bfbfbf" points="0,-399.5 107,-399.5 "/>
<text text-anchor="middle" x="53.5" y="-387.5" font-family="Helvetica,sans-Serif" font-size="10.00" fill="#000000"> </text>
</g>
<!-- Node2&#45;&gt;Node1 -->
<g id="edge1" class="edge">
<title>Node2&#45;&gt;Node1</title>
<path fill="none" stroke="#404040" d="M44.1774,-380.3407C37.2078,-346.6708 32.902,-295.6548 59.5,-263 118.6397,-190.3932 387.8424,-149.356 532.6493,-132.1754"/>
<polygon fill="none" stroke="#404040" points="533.0666,-132.1267 538.5617,-127.4573 544.9855,-130.7338 539.4903,-135.4032 533.0666,-132.1267"/>
<text text-anchor="middle" x="94.5" y="-282.5" font-family="Helvetica,sans-Serif" font-size="10.00" fill="#000000"> +tfStartBlock</text>
</g>
<!-- Node3 -->
<g id="node3" class="node">
<title>Node3</title>
<g id="a_node3"><a xlink:href="../../d6/d30/classuint64__t.html" target="_top" xlink:title="{uint64_t\n||}">
<polygon fill="none" stroke="#000000" points="131.5,-628.5 131.5,-685.5 187.5,-685.5 187.5,-628.5 131.5,-628.5"/>
<text text-anchor="middle" x="159.5" y="-673.5" font-family="Helvetica,sans-Serif" font-size="10.00" fill="#000000">uint64_t</text>
<polyline fill="none" stroke="#000000" points="131.5,-666.5 187.5,-666.5 "/>
<text text-anchor="middle" x="159.5" y="-654.5" font-family="Helvetica,sans-Serif" font-size="10.00" fill="#000000"> </text>
<polyline fill="none" stroke="#000000" points="131.5,-647.5 187.5,-647.5 "/>
<text text-anchor="middle" x="159.5" y="-635.5" font-family="Helvetica,sans-Serif" font-size="10.00" fill="#000000"> </text>
</a>
</g>
</g>
<!-- Node3&#45;&gt;Node1 -->
<g id="edge2" class="edge">
<title>Node3&#45;&gt;Node1</title>
<path fill="none" stroke="#404040" d="M148.9054,-628.27C128.2054,-566.7804 89.643,-420.2854 152.5,-325 236.9766,-196.9412 420.9881,-149.5656 532.9651,-132.2522"/>
<polygon fill="none" stroke="#404040" points="533.0406,-132.2411 538.3874,-127.4025 544.9103,-130.477 539.5635,-135.3156 533.0406,-132.2411"/>
<text text-anchor="middle" x="184.5" y="-417.5" font-family="Helvetica,sans-Serif" font-size="10.00" fill="#000000"> +spec</text>
<text text-anchor="middle" x="184.5" y="-406.5" font-family="Helvetica,sans-Serif" font-size="10.00" fill="#000000">+nCRUPages</text>
</g>
<!-- Node10 -->
<g id="node10" class="node">
<title>Node10</title>
<g id="a_node10"><a xlink:href="../../d3/d22/structo2_1_1header_1_1RDHAny.html" target="_top" xlink:title="{o2::header::RDHAny\n||+ RDHAny()\l+ RDHAny()\l+ operator=()\l+ GPUhdi()\l+ GPUhdi()\l+ GPUhdi()\l+ GPUhdi()\l+ GPUhdi()\l+ GPUhdi()\l+ GPUhdi()\l+ GPUhdi()\l# copyFrom()\l}">
<polygon fill="none" stroke="#000000" points="226,-325.5 226,-503.5 341,-503.5 341,-325.5 226,-325.5"/>
<text text-anchor="middle" x="283.5" y="-491.5" font-family="Helvetica,sans-Serif" font-size="10.00" fill="#000000">o2::header::RDHAny</text>
<polyline fill="none" stroke="#000000" points="226,-484.5 341,-484.5 "/>
<text text-anchor="middle" x="283.5" y="-472.5" font-family="Helvetica,sans-Serif" font-size="10.00" fill="#000000"> </text>
<polyline fill="none" stroke="#000000" points="226,-465.5 341,-465.5 "/>
<text text-anchor="start" x="234" y="-453.5" font-family="Helvetica,sans-Serif" font-size="10.00" fill="#000000">+ RDHAny()</text>
<text text-anchor="start" x="234" y="-442.5" font-family="Helvetica,sans-Serif" font-size="10.00" fill="#000000">+ RDHAny()</text>
<text text-anchor="start" x="234" y="-431.5" font-family="Helvetica,sans-Serif" font-size="10.00" fill="#000000">+ operator=()</text>
<text text-anchor="start" x="234" y="-420.5" font-family="Helvetica,sans-Serif" font-size="10.00" fill="#000000">+ GPUhdi()</text>
<text text-anchor="start" x="234" y="-409.5" font-family="Helvetica,sans-Serif" font-size="10.00" fill="#000000">+ GPUhdi()</text>
<text text-anchor="start" x="234" y="-398.5" font-family="Helvetica,sans-Serif" font-size="10.00" fill="#000000">+ GPUhdi()</text>
<text text-anchor="start" x="234" y="-387.5" font-family="Helvetica,sans-Serif" font-size="10.00" fill="#000000">+ GPUhdi()</text>
<text text-anchor="start" x="234" y="-376.5" font-family="Helvetica,sans-Serif" font-size="10.00" fill="#000000">+ GPUhdi()</text>
<text text-anchor="start" x="234" y="-365.5" font-family="Helvetica,sans-Serif" font-size="10.00" fill="#000000">+ GPUhdi()</text>
<text text-anchor="start" x="234" y="-354.5" font-family="Helvetica,sans-Serif" font-size="10.00" fill="#000000">+ GPUhdi()</text>
<text text-anchor="start" x="234" y="-343.5" font-family="Helvetica,sans-Serif" font-size="10.00" fill="#000000">+ GPUhdi()</text>
<text text-anchor="start" x="234" y="-332.5" font-family="Helvetica,sans-Serif" font-size="10.00" fill="#000000"># copyFrom()</text>
</a>
</g>
</g>
<!-- Node3&#45;&gt;Node10 -->
<g id="edge10" class="edge">
<title>Node3&#45;&gt;Node10</title>
<path fill="none" stroke="#404040" d="M174.2114,-628.2298C188.5806,-600.1286 211.2933,-555.7107 232.2994,-514.6303"/>
<polygon fill="none" stroke="#404040" points="232.4194,-514.3954 231.5897,-507.2322 237.8827,-503.7112 238.7125,-510.8744 232.4194,-514.3954"/>
<text text-anchor="middle" x="246.5" y="-602" font-family="Helvetica,sans-Serif" font-size="10.00" fill="#000000"> +word7</text>
<text text-anchor="middle" x="246.5" y="-591" font-family="Helvetica,sans-Serif" font-size="10.00" fill="#000000">+word0</text>
<text text-anchor="middle" x="246.5" y="-580" font-family="Helvetica,sans-Serif" font-size="10.00" fill="#000000">+word1</text>
<text text-anchor="middle" x="246.5" y="-569" font-family="Helvetica,sans-Serif" font-size="10.00" fill="#000000">+word2</text>
<text text-anchor="middle" x="246.5" y="-558" font-family="Helvetica,sans-Serif" font-size="10.00" fill="#000000">+word3</text>
<text text-anchor="middle" x="246.5" y="-547" font-family="Helvetica,sans-Serif" font-size="10.00" fill="#000000">+word4</text>
<text text-anchor="middle" x="246.5" y="-536" font-family="Helvetica,sans-Serif" font-size="10.00" fill="#000000">+word5</text>
<text text-anchor="middle" x="246.5" y="-525" font-family="Helvetica,sans-Serif" font-size="10.00" fill="#000000">+word6</text>
</g>
<!-- Node4 -->
<g id="node4" class="node">
<title>Node4</title>
<polygon fill="none" stroke="#bfbfbf" points="359,-380.5 359,-448.5 516,-448.5 516,-380.5 359,-380.5"/>
<text text-anchor="start" x="367" y="-436.5" font-family="Helvetica,sans-Serif" font-size="10.00" fill="#000000">Descriptor&lt; gSizeDataOrigin</text>
<text text-anchor="middle" x="437.5" y="-425.5" font-family="Helvetica,sans-Serif" font-size="10.00" fill="#000000">String, printDataOrigin &gt;</text>
<polyline fill="none" stroke="#bfbfbf" points="359,-418.5 516,-418.5 "/>
<text text-anchor="middle" x="437.5" y="-406.5" font-family="Helvetica,sans-Serif" font-size="10.00" fill="#000000"> </text>
<polyline fill="none" stroke="#bfbfbf" points="359,-399.5 516,-399.5 "/>
<text text-anchor="middle" x="437.5" y="-387.5" font-family="Helvetica,sans-Serif" font-size="10.00" fill="#000000"> </text>
</g>
<!-- Node4&#45;&gt;Node1 -->
<g id="edge3" class="edge">
<title>Node4&#45;&gt;Node1</title>
<path fill="none" stroke="#404040" d="M459.4339,-380.4324C479.512,-349.2472 510.553,-301.0347 540.3888,-254.694"/>
<polygon fill="none" stroke="#404040" points="540.436,-254.6206 540.3208,-247.4104 546.9321,-244.531 547.0473,-251.7412 540.436,-254.6206"/>
<text text-anchor="middle" x="551.5" y="-282.5" font-family="Helvetica,sans-Serif" font-size="10.00" fill="#000000"> +origin</text>
</g>
<!-- Node5 -->
<g id="node5" class="node">
<title>Node5</title>
<polygon fill="none" stroke="#bfbfbf" points="534,-380.5 534,-448.5 717,-448.5 717,-380.5 534,-380.5"/>
<text text-anchor="start" x="542" y="-436.5" font-family="Helvetica,sans-Serif" font-size="10.00" fill="#000000">Descriptor&lt; gSizeDataDescription</text>
<text text-anchor="middle" x="625.5" y="-425.5" font-family="Helvetica,sans-Serif" font-size="10.00" fill="#000000">String, printDataDescription &gt;</text>
<polyline fill="none" stroke="#bfbfbf" points="534,-418.5 717,-418.5 "/>
<text text-anchor="middle" x="625.5" y="-406.5" font-family="Helvetica,sans-Serif" font-size="10.00" fill="#000000"> </text>
<polyline fill="none" stroke="#bfbfbf" points="534,-399.5 717,-399.5 "/>
<text text-anchor="middle" x="625.5" y="-387.5" font-family="Helvetica,sans-Serif" font-size="10.00" fill="#000000"> </text>
</g>
<!-- Node5&#45;&gt;Node1 -->
<g id="edge4" class="edge">
<title>Node5&#45;&gt;Node1</title>
<path fill="none" stroke="#404040" d="M625.5,-380.4324C625.5,-349.7049 625.5,-302.4461 625.5,-256.7353"/>
<polygon fill="none" stroke="#404040" points="625.5001,-256.531 621.5,-250.531 625.5,-244.531 629.5,-250.5309 625.5001,-256.531"/>
<text text-anchor="middle" x="658.5" y="-282.5" font-family="Helvetica,sans-Serif" font-size="10.00" fill="#000000"> +description</text>
</g>
<!-- Node6 -->
<g id="node6" class="node">
<title>Node6</title>
<polygon fill="none" stroke="#bfbfbf" points="735,-380.5 735,-448.5 872,-448.5 872,-380.5 735,-380.5"/>
<text text-anchor="start" x="743" y="-436.5" font-family="Helvetica,sans-Serif" font-size="10.00" fill="#000000">vector&lt; o2::raw::RawFile</text>
<text text-anchor="middle" x="803.5" y="-425.5" font-family="Helvetica,sans-Serif" font-size="10.00" fill="#000000">Reader::LinkBlock &gt;</text>
<polyline fill="none" stroke="#bfbfbf" points="735,-418.5 872,-418.5 "/>
<text text-anchor="middle" x="803.5" y="-406.5" font-family="Helvetica,sans-Serif" font-size="10.00" fill="#000000"> </text>
<polyline fill="none" stroke="#bfbfbf" points="735,-399.5 872,-399.5 "/>
<text text-anchor="middle" x="803.5" y="-387.5" font-family="Helvetica,sans-Serif" font-size="10.00" fill="#000000"> </text>
</g>
<!-- Node6&#45;&gt;Node1 -->
<g id="edge5" class="edge">
<title>Node6&#45;&gt;Node1</title>
<path fill="none" stroke="#404040" d="M782.7328,-380.4324C763.7625,-349.3126 734.456,-301.2368 706.2617,-254.9855"/>
<polygon fill="none" stroke="#404040" points="706.1348,-254.7773 699.5963,-251.7362 699.8887,-244.531 706.4272,-247.5721 706.1348,-254.7773"/>
<text text-anchor="middle" x="757" y="-282.5" font-family="Helvetica,sans-Serif" font-size="10.00" fill="#000000"> +blocks</text>
</g>
<!-- Node7 -->
<g id="node7" class="node">
<title>Node7</title>
<g id="a_node7"><a xlink:href="../../d3/d87/classuint32__t.html" target="_top" xlink:title="{uint32_t\n||}">
<polygon fill="none" stroke="#000000" points="890.5,-386 890.5,-443 946.5,-443 946.5,-386 890.5,-386"/>
<text text-anchor="middle" x="918.5" y="-431" font-family="Helvetica,sans-Serif" font-size="10.00" fill="#000000">uint32_t</text>
<polyline fill="none" stroke="#000000" points="890.5,-424 946.5,-424 "/>
<text text-anchor="middle" x="918.5" y="-412" font-family="Helvetica,sans-Serif" font-size="10.00" fill="#000000"> </text>
<polyline fill="none" stroke="#000000" points="890.5,-405 946.5,-405 "/>
<text text-anchor="middle" x="918.5" y="-393" font-family="Helvetica,sans-Serif" font-size="10.00" fill="#000000"> </text>
</a>
</g>
</g>
<!-- Node7&#45;&gt;Node1 -->
<g id="edge6" class="edge">
<title>Node7&#45;&gt;Node1</title>
<path fill="none" stroke="#404040" d="M910.8156,-385.9686C904.8611,-367.3669 895.2799,-343.2481 881.5,-325 836.5854,-265.5217 770.2498,-213.7085 716.3592,-177.3838"/>
<polygon fill="none" stroke="#404040" points="716.0923,-177.2061 708.8812,-177.2104 706.1038,-170.5556 713.3149,-170.5513 716.0923,-177.2061"/>
<text text-anchor="middle" x="903.5" y="-299" font-family="Helvetica,sans-Serif" font-size="10.00" fill="#000000"> +nTimeFrames</text>
<text text-anchor="middle" x="903.5" y="-288" font-family="Helvetica,sans-Serif" font-size="10.00" fill="#000000">+nHBFrames</text>
<text text-anchor="middle" x="903.5" y="-277" font-family="Helvetica,sans-Serif" font-size="10.00" fill="#000000">+nSPages</text>
<text text-anchor="middle" x="903.5" y="-266" font-family="Helvetica,sans-Serif" font-size="10.00" fill="#000000">+subspec</text>
</g>
<!-- Node8 -->
<g id="node8" class="node">
<title>Node8</title>
<polygon fill="none" stroke="#bfbfbf" points="965,-386 965,-443 994,-443 994,-386 965,-386"/>
<text text-anchor="middle" x="979.5" y="-431" font-family="Helvetica,sans-Serif" font-size="10.00" fill="#000000">int</text>
<polyline fill="none" stroke="#bfbfbf" points="965,-424 994,-424 "/>
<text text-anchor="middle" x="979.5" y="-412" font-family="Helvetica,sans-Serif" font-size="10.00" fill="#000000"> </text>
<polyline fill="none" stroke="#bfbfbf" points="965,-405 994,-405 "/>
<text text-anchor="middle" x="979.5" y="-393" font-family="Helvetica,sans-Serif" font-size="10.00" fill="#000000"> </text>
</g>
<!-- Node8&#45;&gt;Node1 -->
<g id="edge7" class="edge">
<title>Node8&#45;&gt;Node1</title>
<path fill="none" stroke="#404040" d="M980.6439,-385.7992C980.446,-352.6202 975.2442,-298.0876 946.5,-263 889.4403,-193.3481 791.0582,-157.2712 718.2097,-139.2284"/>
<polygon fill="none" stroke="#404040" points="717.9634,-139.1696 711.198,-141.6652 706.2922,-136.38 713.0577,-133.8844 717.9634,-139.1696"/>
<text text-anchor="middle" x="1011.5" y="-299" font-family="Helvetica,sans-Serif" font-size="10.00" fill="#000000"> +nHBFinTF</text>
<text text-anchor="middle" x="1011.5" y="-288" font-family="Helvetica,sans-Serif" font-size="10.00" fill="#000000">+nErrors</text>
<text text-anchor="middle" x="1011.5" y="-277" font-family="Helvetica,sans-Serif" font-size="10.00" fill="#000000">+fairMQChannel</text>
<text text-anchor="middle" x="1011.5" y="-266" font-family="Helvetica,sans-Serif" font-size="10.00" fill="#000000">+nextBlock2Read</text>
</g>
<!-- Node9 -->
<g id="node9" class="node">
<title>Node9</title>
<polygon fill="none" stroke="#bfbfbf" points="1071.5,-386 1071.5,-443 1109.5,-443 1109.5,-386 1071.5,-386"/>
<text text-anchor="middle" x="1090.5" y="-431" font-family="Helvetica,sans-Serif" font-size="10.00" fill="#000000">bool</text>
<polyline fill="none" stroke="#bfbfbf" points="1071.5,-424 1109.5,-424 "/>
<text text-anchor="middle" x="1090.5" y="-412" font-family="Helvetica,sans-Serif" font-size="10.00" fill="#000000"> </text>
<polyline fill="none" stroke="#bfbfbf" points="1071.5,-405 1109.5,-405 "/>
<text text-anchor="middle" x="1090.5" y="-393" font-family="Helvetica,sans-Serif" font-size="10.00" fill="#000000"> </text>
</g>
<!-- Node9&#45;&gt;Node1 -->
<g id="edge8" class="edge">
<title>Node9&#45;&gt;Node1</title>
<path fill="none" stroke="#404040" d="M1092.6653,-385.9153C1093.5924,-352.3361 1089.8387,-296.9166 1059.5,-263 1013.7948,-211.9046 831.4252,-165.662 718.1358,-141.0762"/>
<polygon fill="none" stroke="#404040" points="718.1086,-141.0704 711.4019,-143.7199 706.3767,-138.5481 713.0835,-135.8986 718.1086,-141.0704"/>
<text text-anchor="middle" x="1120.5" y="-293.5" font-family="Helvetica,sans-Serif" font-size="10.00" fill="#000000"> +openHB</text>
<text text-anchor="middle" x="1120.5" y="-282.5" font-family="Helvetica,sans-Serif" font-size="10.00" fill="#000000">+cruDetector</text>
<text text-anchor="middle" x="1120.5" y="-271.5" font-family="Helvetica,sans-Serif" font-size="10.00" fill="#000000">+continuousRO</text>
</g>
<!-- Node10&#45;&gt;Node1 -->
<g id="edge9" class="edge">
<title>Node10&#45;&gt;Node1</title>
<path fill="none" stroke="#404040" d="M341.3849,-333.5061C344.0571,-330.5742 346.7664,-327.727 349.5,-325 405.6633,-268.9726 478.2971,-216.3167 534.955,-178.7493"/>
<polygon fill="none" stroke="#404040" points="534.958,-178.7473 537.7696,-172.1069 544.9806,-172.1482 542.169,-178.7887 534.958,-178.7473"/>
<text text-anchor="middle" x="428" y="-282.5" font-family="Helvetica,sans-Serif" font-size="10.00" fill="#000000"> +rdhl</text>
</g>
</g>
</svg>
        <g id="navigator" transform="translate(0 0)" fill="#404254">
                <rect fill="#f2f5e9" fill-opacity="0.5" stroke="#606060" stroke-width=".5" x="0" y="0" width="60" height="60"/>
                <use id="zoomplus" xlink:href="#zoomPlus" x="17" y="9" onmousedown="handleZoom(evt,'in')"/>
                <use id="zoomminus" xlink:href="#zoomMin" x="42" y="9" onmousedown="handleZoom(evt,'out')"/>
                <use id="reset" xlink:href="#resetDef" x="30" y="36" onmousedown="handleReset()"/>
                <g id="arrowUp" xlink:href="#dirArrow" transform="translate(30 24)" onmousedown="handlePan(0,-1)">
                  <use xlink:href="#rim" fill="#404040">
                        <set attributeName="fill" to="#808080" begin="arrowUp.mouseover" end="arrowUp.mouseout"/>
                  </use>
                  <path fill="none" stroke="white" stroke-width="1.5" d="M0,-3.0v7 M-2.5,-0.5L0,-3.0L2.5,-0.5"/>
                </g>
                <g id="arrowRight" xlink:href="#dirArrow" transform="rotate(90) translate(36 -43)" onmousedown="handlePan(1,0)">
                  <use xlink:href="#rim" fill="#404040">
                        <set attributeName="fill" to="#808080" begin="arrowRight.mouseover" end="arrowRight.mouseout"/>
                  </use>
                  <path fill="none" stroke="white" stroke-width="1.5" d="M0,-3.0v7 M-2.5,-0.5L0,-3.0L2.5,-0.5"/>
                </g>
                <g id="arrowDown" xlink:href="#dirArrow" transform="rotate(180) translate(-30 -48)" onmousedown="handlePan(0,1)">
                  <use xlink:href="#rim" fill="#404040">
                        <set attributeName="fill" to="#808080" begin="arrowDown.mouseover" end="arrowDown.mouseout"/>
                  </use>
                  <path fill="none" stroke="white" stroke-width="1.5" d="M0,-3.0v7 M-2.5,-0.5L0,-3.0L2.5,-0.5"/>
                </g>
                <g id="arrowLeft" xlink:href="#dirArrow" transform="rotate(270) translate(-36 17)" onmousedown="handlePan(-1,0)">
                  <use xlink:href="#rim" fill="#404040">
                        <set attributeName="fill" to="#808080" begin="arrowLeft.mouseover" end="arrowLeft.mouseout"/>
                  </use>
                  <path fill="none" stroke="white" stroke-width="1.5" d="M0,-3.0v7 M-2.5,-0.5L0,-3.0L2.5,-0.5"/>
                </g>
        </g>
        <svg viewBox="0 0 15 15" width="100%" height="30px" preserveAspectRatio="xMaxYMin meet">
         <g id="arrow_out" transform="scale(0.3 0.3)">
          <a xlink:href="structo2_1_1raw_1_1RawFileReader_1_1LinkData__coll__graph_org.svg" target="_base">
           <rect id="button" ry="5" rx="5" y="6" x="6" height="38" width="38"
                fill="#f2f5e9" fill-opacity="0.5" stroke="#606060" stroke-width="1.0"/>
           <path id="arrow"
             d="M 11.500037,31.436501 C 11.940474,20.09759 22.043105,11.32322 32.158766,21.979434 L 37.068811,17.246167 C 37.068811,17.246167 37.088388,32 37.088388,32 L 22.160133,31.978069 C 22.160133,31.978069 26.997745,27.140456 26.997745,27.140456 C 18.528582,18.264221 13.291696,25.230495 11.500037,31.436501 z"
             style="fill:#404040;"/>
          </a>
         </g>
        </svg>
</svg>
