<?xml version="1.0" encoding="UTF-8" standalone="no"?>
<!DOCTYPE svg PUBLIC "-//W3C//DTD SVG 1.1//EN"
 "http://www.w3.org/Graphics/SVG/1.1/DTD/svg11.dtd">
<!-- Generated by graphviz version 2.40.1 (20161225.0304)
 -->
<!-- Title: Run3Matcher Pages: 1 -->
<svg width="753pt" height="929pt"
 viewBox="0.00 0.00 753.00 929.00" xmlns="http://www.w3.org/2000/svg" xmlns:xlink="http://www.w3.org/1999/xlink">
<g id="graph0" class="graph" transform="scale(1 1) rotate(0) translate(4 925)">
<title>Run3Matcher</title>
<!-- Node1 -->
<g id="node1" class="node">
<title>Node1</title>
<polygon fill="#bfbfbf" stroke="#000000" points="234.5,-.5 234.5,-57.5 314.5,-57.5 314.5,-.5 234.5,-.5"/>
<text text-anchor="middle" x="274.5" y="-45.5" font-family="Helvetica,sans-Serif" font-size="10.00" fill="#000000">Run3Matcher</text>
<polyline fill="none" stroke="#000000" points="234.5,-38.5 314.5,-38.5 "/>
<text text-anchor="middle" x="274.5" y="-26.5" font-family="Helvetica,sans-Serif" font-size="10.00" fill="#000000"> </text>
<polyline fill="none" stroke="#000000" points="234.5,-19.5 314.5,-19.5 "/>
<text text-anchor="start" x="242.5" y="-7.5" font-family="Helvetica,sans-Serif" font-size="10.00" fill="#000000">+ init()</text>
</g>
<!-- Node2 -->
<g id="node2" class="node">
<title>Node2</title>
<g id="a_node2"><a xlink:href="../../d5/df4/structo2_1_1framework_1_1Builds.html" target="_top" xlink:title="{o2::framework::Builds\l\&lt; aod::Run3MatchedSparse \&gt;\n||+ operator&#45;\&gt;()\l+ operator*()\l+ asArrowTable()\l+ pack()\l+ build()\l}">
<polygon fill="none" stroke="#000000" points="101,-105.5 101,-217.5 262,-217.5 262,-105.5 101,-105.5"/>
<text text-anchor="start" x="109" y="-205.5" font-family="Helvetica,sans-Serif" font-size="10.00" fill="#000000">o2::framework::Builds</text>
<text text-anchor="middle" x="181.5" y="-194.5" font-family="Helvetica,sans-Serif" font-size="10.00" fill="#000000">&lt; aod::Run3MatchedSparse &gt;</text>
<polyline fill="none" stroke="#000000" points="101,-187.5 262,-187.5 "/>
<text text-anchor="middle" x="181.5" y="-175.5" font-family="Helvetica,sans-Serif" font-size="10.00" fill="#000000"> </text>
<polyline fill="none" stroke="#000000" points="101,-168.5 262,-168.5 "/>
<text text-anchor="start" x="109" y="-156.5" font-family="Helvetica,sans-Serif" font-size="10.00" fill="#000000">+ operator&#45;&gt;()</text>
<text text-anchor="start" x="109" y="-145.5" font-family="Helvetica,sans-Serif" font-size="10.00" fill="#000000">+ operator*()</text>
<text text-anchor="start" x="109" y="-134.5" font-family="Helvetica,sans-Serif" font-size="10.00" fill="#000000">+ asArrowTable()</text>
<text text-anchor="start" x="109" y="-123.5" font-family="Helvetica,sans-Serif" font-size="10.00" fill="#000000">+ pack()</text>
<text text-anchor="start" x="109" y="-112.5" font-family="Helvetica,sans-Serif" font-size="10.00" fill="#000000">+ build()</text>
</a>
</g>
</g>
<!-- Node2&#45;&gt;Node1 -->
<g id="edge1" class="edge">
<title>Node2&#45;&gt;Node1</title>
<path fill="none" stroke="#404040" d="M220.9404,-105.3081C229.8236,-92.6518 239.0588,-79.4941 247.3082,-67.741"/>
<polygon fill="none" stroke="#404040" points="247.3762,-67.6441 247.5492,-60.435 254.2702,-57.822 254.0972,-65.031 247.3762,-67.6441"/>
<text text-anchor="middle" x="271" y="-79" font-family="Helvetica,sans-Serif" font-size="10.00" fill="#000000"> +matched_s</text>
</g>
<!-- Node3 -->
<g id="node3" class="node">
<title>Node3</title>
<g id="a_node3"><a xlink:href="../../d6/dec/structo2_1_1framework_1_1TableTransform.html" target="_top" xlink:title="{o2::framework::TableTransform\l\&lt; aod::MetadataTrait\&lt; aod\l::Run3MatchedSparse \&gt;::metadata \&gt;\n||+ sources_pack()\l+ base_spec()\l+ base_specs_impl()\l+ base_specs()\l+ spec()\l+ output()\l+ ref()\l}">
<polygon fill="none" stroke="#000000" points="0,-402 0,-547 197,-547 197,-402 0,-402"/>
<text text-anchor="start" x="8" y="-535" font-family="Helvetica,sans-Serif" font-size="10.00" fill="#000000">o2::framework::TableTransform</text>
<text text-anchor="start" x="8" y="-524" font-family="Helvetica,sans-Serif" font-size="10.00" fill="#000000">&lt; aod::MetadataTrait&lt; aod</text>
<text text-anchor="middle" x="98.5" y="-513" font-family="Helvetica,sans-Serif" font-size="10.00" fill="#000000">::Run3MatchedSparse &gt;::metadata &gt;</text>
<polyline fill="none" stroke="#000000" points="0,-506 197,-506 "/>
<text text-anchor="middle" x="98.5" y="-494" font-family="Helvetica,sans-Serif" font-size="10.00" fill="#000000"> </text>
<polyline fill="none" stroke="#000000" points="0,-487 197,-487 "/>
<text text-anchor="start" x="8" y="-475" font-family="Helvetica,sans-Serif" font-size="10.00" fill="#000000">+ sources_pack()</text>
<text text-anchor="start" x="8" y="-464" font-family="Helvetica,sans-Serif" font-size="10.00" fill="#000000">+ base_spec()</text>
<text text-anchor="start" x="8" y="-453" font-family="Helvetica,sans-Serif" font-size="10.00" fill="#000000">+ base_specs_impl()</text>
<text text-anchor="start" x="8" y="-442" font-family="Helvetica,sans-Serif" font-size="10.00" fill="#000000">+ base_specs()</text>
<text text-anchor="start" x="8" y="-431" font-family="Helvetica,sans-Serif" font-size="10.00" fill="#000000">+ spec()</text>
<text text-anchor="start" x="8" y="-420" font-family="Helvetica,sans-Serif" font-size="10.00" fill="#000000">+ output()</text>
<text text-anchor="start" x="8" y="-409" font-family="Helvetica,sans-Serif" font-size="10.00" fill="#000000">+ ref()</text>
</a>
</g>
</g>
<!-- Node3&#45;&gt;Node2 -->
<g id="edge2" class="edge">
<title>Node3&#45;&gt;Node2</title>
<path fill="none" stroke="#191970" d="M63.881,-391.8442C52.4484,-352.08 46.6728,-304.5716 64.5,-265 72.7988,-246.5789 86.1761,-230.114 100.9734,-216.0269"/>
<polygon fill="none" stroke="#191970" points="60.562,-392.9602 66.8143,-401.5135 67.2605,-390.9281 60.562,-392.9602"/>
</g>
<!-- Node4 -->
<g id="node4" class="node">
<title>Node4</title>
<g id="a_node4"><a xlink:href="../../d6/dec/structo2_1_1framework_1_1TableTransform.html" target="_top" xlink:title="Helper template for table transformations. ">
<polygon fill="none" stroke="#000000" points="288.5,-786.5 288.5,-920.5 456.5,-920.5 456.5,-786.5 288.5,-786.5"/>
<text text-anchor="start" x="296.5" y="-908.5" font-family="Helvetica,sans-Serif" font-size="10.00" fill="#000000">o2::framework::TableTransform</text>
<text text-anchor="middle" x="372.5" y="-897.5" font-family="Helvetica,sans-Serif" font-size="10.00" fill="#000000">&lt; METADATA &gt;</text>
<polyline fill="none" stroke="#000000" points="288.5,-890.5 456.5,-890.5 "/>
<text text-anchor="middle" x="372.5" y="-878.5" font-family="Helvetica,sans-Serif" font-size="10.00" fill="#000000"> </text>
<polyline fill="none" stroke="#000000" points="288.5,-871.5 456.5,-871.5 "/>
<text text-anchor="start" x="296.5" y="-859.5" font-family="Helvetica,sans-Serif" font-size="10.00" fill="#000000">+ sources_pack()</text>
<text text-anchor="start" x="296.5" y="-848.5" font-family="Helvetica,sans-Serif" font-size="10.00" fill="#000000">+ base_spec()</text>
<text text-anchor="start" x="296.5" y="-837.5" font-family="Helvetica,sans-Serif" font-size="10.00" fill="#000000">+ base_specs_impl()</text>
<text text-anchor="start" x="296.5" y="-826.5" font-family="Helvetica,sans-Serif" font-size="10.00" fill="#000000">+ base_specs()</text>
<text text-anchor="start" x="296.5" y="-815.5" font-family="Helvetica,sans-Serif" font-size="10.00" fill="#000000">+ spec()</text>
<text text-anchor="start" x="296.5" y="-804.5" font-family="Helvetica,sans-Serif" font-size="10.00" fill="#000000">+ output()</text>
<text text-anchor="start" x="296.5" y="-793.5" font-family="Helvetica,sans-Serif" font-size="10.00" fill="#000000">+ ref()</text>
</a>
</g>
</g>
<!-- Node4&#45;&gt;Node3 -->
<g id="edge3" class="edge">
<title>Node4&#45;&gt;Node3</title>
<path fill="none" stroke="#ffa500" d="M279.4166,-812.6885C238.2968,-790.1428 192.93,-758.2508 164.5,-717 129.7118,-666.5237 113.2291,-598.4091 105.4373,-547.221"/>
<polygon fill="#ffa500" stroke="#ffa500" points="277.9242,-815.8596 288.3912,-817.5005 281.232,-809.6905 277.9242,-815.8596"/>
<text text-anchor="start" x="209.5" y="-760" font-family="Helvetica,sans-Serif" font-size="10.00" fill="#000000"> &lt; aod::MetadataTrait</text>
<text text-anchor="start" x="209.5" y="-749" font-family="Helvetica,sans-Serif" font-size="10.00" fill="#000000">&lt; aod::Run3MatchedSparse</text>
<text text-anchor="middle" x="276.5" y="-738" font-family="Helvetica,sans-Serif" font-size="10.00" fill="#000000"> &gt;::metadata &gt;</text>
</g>
<!-- Node7 -->
<g id="node7" class="node">
<title>Node7</title>
<g id="a_node7"><a xlink:href="../../d6/dec/structo2_1_1framework_1_1TableTransform.html" target="_top" xlink:title="{o2::framework::TableTransform\l\&lt; aod::MetadataTrait\&lt; T \&gt;\l::metadata \&gt;\n||+ sources_pack()\l+ base_spec()\l+ base_specs_impl()\l+ base_specs()\l+ spec()\l+ output()\l+ ref()\l}">
<polygon fill="none" stroke="#000000" points="288.5,-571.5 288.5,-716.5 456.5,-716.5 456.5,-571.5 288.5,-571.5"/>
<text text-anchor="start" x="296.5" y="-704.5" font-family="Helvetica,sans-Serif" font-size="10.00" fill="#000000">o2::framework::TableTransform</text>
<text text-anchor="start" x="296.5" y="-693.5" font-family="Helvetica,sans-Serif" font-size="10.00" fill="#000000">&lt; aod::MetadataTrait&lt; T &gt;</text>
<text text-anchor="middle" x="372.5" y="-682.5" font-family="Helvetica,sans-Serif" font-size="10.00" fill="#000000">::metadata &gt;</text>
<polyline fill="none" stroke="#000000" points="288.5,-675.5 456.5,-675.5 "/>
<text text-anchor="middle" x="372.5" y="-663.5" font-family="Helvetica,sans-Serif" font-size="10.00" fill="#000000"> </text>
<polyline fill="none" stroke="#000000" points="288.5,-656.5 456.5,-656.5 "/>
<text text-anchor="start" x="296.5" y="-644.5" font-family="Helvetica,sans-Serif" font-size="10.00" fill="#000000">+ sources_pack()</text>
<text text-anchor="start" x="296.5" y="-633.5" font-family="Helvetica,sans-Serif" font-size="10.00" fill="#000000">+ base_spec()</text>
<text text-anchor="start" x="296.5" y="-622.5" font-family="Helvetica,sans-Serif" font-size="10.00" fill="#000000">+ base_specs_impl()</text>
<text text-anchor="start" x="296.5" y="-611.5" font-family="Helvetica,sans-Serif" font-size="10.00" fill="#000000">+ base_specs()</text>
<text text-anchor="start" x="296.5" y="-600.5" font-family="Helvetica,sans-Serif" font-size="10.00" fill="#000000">+ spec()</text>
<text text-anchor="start" x="296.5" y="-589.5" font-family="Helvetica,sans-Serif" font-size="10.00" fill="#000000">+ output()</text>
<text text-anchor="start" x="296.5" y="-578.5" font-family="Helvetica,sans-Serif" font-size="10.00" fill="#000000">+ ref()</text>
</a>
</g>
</g>
<!-- Node4&#45;&gt;Node7 -->
<g id="edge7" class="edge">
<title>Node4&#45;&gt;Node7</title>
<path fill="none" stroke="#ffa500" d="M372.5,-776.2784C372.5,-756.7521 372.5,-735.8521 372.5,-716.5645"/>
<polygon fill="#ffa500" stroke="#ffa500" points="369.0001,-776.3484 372.5,-786.3484 376.0001,-776.3485 369.0001,-776.3484"/>
<text text-anchor="start" x="372.5" y="-754.5" font-family="Helvetica,sans-Serif" font-size="10.00" fill="#000000"> &lt; aod::MetadataTrait</text>
<text text-anchor="middle" x="425.5" y="-743.5" font-family="Helvetica,sans-Serif" font-size="10.00" fill="#000000">&lt; T &gt;::metadata &gt;</text>
</g>
<!-- Node10 -->
<g id="node10" class="node">
<title>Node10</title>
<g id="a_node10"><a xlink:href="../../d6/dec/structo2_1_1framework_1_1TableTransform.html" target="_top" xlink:title="{o2::framework::TableTransform\l\&lt; aod::MetadataTrait\&lt; aod\l::Run3MatchedExclusive \&gt;::\lmetadata \&gt;\n||+ sources_pack()\l+ base_spec()\l+ base_specs_impl()\l+ base_specs()\l+ spec()\l+ output()\l+ ref()\l}">
<polygon fill="none" stroke="#000000" points="452.5,-396.5 452.5,-552.5 620.5,-552.5 620.5,-396.5 452.5,-396.5"/>
<text text-anchor="start" x="460.5" y="-540.5" font-family="Helvetica,sans-Serif" font-size="10.00" fill="#000000">o2::framework::TableTransform</text>
<text text-anchor="start" x="460.5" y="-529.5" font-family="Helvetica,sans-Serif" font-size="10.00" fill="#000000">&lt; aod::MetadataTrait&lt; aod</text>
<text text-anchor="start" x="460.5" y="-518.5" font-family="Helvetica,sans-Serif" font-size="10.00" fill="#000000">::Run3MatchedExclusive &gt;::</text>
<text text-anchor="middle" x="536.5" y="-507.5" font-family="Helvetica,sans-Serif" font-size="10.00" fill="#000000">metadata &gt;</text>
<polyline fill="none" stroke="#000000" points="452.5,-500.5 620.5,-500.5 "/>
<text text-anchor="middle" x="536.5" y="-488.5" font-family="Helvetica,sans-Serif" font-size="10.00" fill="#000000"> </text>
<polyline fill="none" stroke="#000000" points="452.5,-481.5 620.5,-481.5 "/>
<text text-anchor="start" x="460.5" y="-469.5" font-family="Helvetica,sans-Serif" font-size="10.00" fill="#000000">+ sources_pack()</text>
<text text-anchor="start" x="460.5" y="-458.5" font-family="Helvetica,sans-Serif" font-size="10.00" fill="#000000">+ base_spec()</text>
<text text-anchor="start" x="460.5" y="-447.5" font-family="Helvetica,sans-Serif" font-size="10.00" fill="#000000">+ base_specs_impl()</text>
<text text-anchor="start" x="460.5" y="-436.5" font-family="Helvetica,sans-Serif" font-size="10.00" fill="#000000">+ base_specs()</text>
<text text-anchor="start" x="460.5" y="-425.5" font-family="Helvetica,sans-Serif" font-size="10.00" fill="#000000">+ spec()</text>
<text text-anchor="start" x="460.5" y="-414.5" font-family="Helvetica,sans-Serif" font-size="10.00" fill="#000000">+ output()</text>
<text text-anchor="start" x="460.5" y="-403.5" font-family="Helvetica,sans-Serif" font-size="10.00" fill="#000000">+ ref()</text>
</a>
</g>
</g>
<!-- Node4&#45;&gt;Node10 -->
<g id="edge11" class="edge">
<title>Node4&#45;&gt;Node10</title>
<path fill="none" stroke="#ffa500" d="M463.9146,-791.945C470.9515,-784.5255 477.3189,-776.5267 482.5,-768 522.1834,-702.6913 534.0645,-615.2063 537.0072,-552.7805"/>
<polygon fill="#ffa500" stroke="#ffa500" points="461.2807,-789.6288 456.6737,-799.1696 466.2249,-794.5842 461.2807,-789.6288"/>
<text text-anchor="start" x="497.5" y="-760" font-family="Helvetica,sans-Serif" font-size="10.00" fill="#000000"> &lt; aod::MetadataTrait</text>
<text text-anchor="start" x="497.5" y="-749" font-family="Helvetica,sans-Serif" font-size="10.00" fill="#000000">&lt; aod::Run3MatchedExclusive</text>
<text text-anchor="middle" x="571.5" y="-738" font-family="Helvetica,sans-Serif" font-size="10.00" fill="#000000"> &gt;::metadata &gt;</text>
</g>
<!-- Node5 -->
<g id="node5" class="node">
<title>Node5</title>
<polygon fill="none" stroke="#bfbfbf" points="73,-287.5 73,-355.5 242,-355.5 242,-287.5 73,-287.5"/>
<text text-anchor="start" x="81" y="-343.5" font-family="Helvetica,sans-Serif" font-size="10.00" fill="#000000">shared_ptr&lt; aod::Run3Matched</text>
<text text-anchor="middle" x="157.5" y="-332.5" font-family="Helvetica,sans-Serif" font-size="10.00" fill="#000000">Sparse &gt;</text>
<polyline fill="none" stroke="#bfbfbf" points="73,-325.5 242,-325.5 "/>
<text text-anchor="middle" x="157.5" y="-313.5" font-family="Helvetica,sans-Serif" font-size="10.00" fill="#000000"> </text>
<polyline fill="none" stroke="#bfbfbf" points="73,-306.5 242,-306.5 "/>
<text text-anchor="middle" x="157.5" y="-294.5" font-family="Helvetica,sans-Serif" font-size="10.00" fill="#000000"> </text>
</g>
<!-- Node5&#45;&gt;Node2 -->
<g id="edge4" class="edge">
<title>Node5&#45;&gt;Node2</title>
<path fill="none" stroke="#404040" d="M144.3172,-287.1751C140.015,-271.4768 137.3014,-252.6958 141.5,-236 142.0773,-233.7043 142.7406,-231.4022 143.4768,-229.1036"/>
<polygon fill="none" stroke="#404040" points="143.5374,-228.9396 141.8695,-221.9241 147.7039,-217.6861 149.3718,-224.7017 143.5374,-228.9396"/>
<text text-anchor="middle" x="160" y="-239" font-family="Helvetica,sans-Serif" font-size="10.00" fill="#000000"> +table</text>
</g>
<!-- Node6 -->
<g id="node6" class="node">
<title>Node6</title>
<g id="a_node6"><a xlink:href="../../d5/df4/structo2_1_1framework_1_1Builds.html" target="_top" xlink:title="This helper struct allows you to declare index tables to be created in a task. ">
<polygon fill="none" stroke="#000000" points="292.5,-265.5 292.5,-377.5 416.5,-377.5 416.5,-265.5 292.5,-265.5"/>
<text text-anchor="start" x="300.5" y="-365.5" font-family="Helvetica,sans-Serif" font-size="10.00" fill="#000000">o2::framework::Builds</text>
<text text-anchor="middle" x="354.5" y="-354.5" font-family="Helvetica,sans-Serif" font-size="10.00" fill="#000000">&lt; T, IP &gt;</text>
<polyline fill="none" stroke="#000000" points="292.5,-347.5 416.5,-347.5 "/>
<text text-anchor="middle" x="354.5" y="-335.5" font-family="Helvetica,sans-Serif" font-size="10.00" fill="#000000"> </text>
<polyline fill="none" stroke="#000000" points="292.5,-328.5 416.5,-328.5 "/>
<text text-anchor="start" x="300.5" y="-316.5" font-family="Helvetica,sans-Serif" font-size="10.00" fill="#000000">+ operator&#45;&gt;()</text>
<text text-anchor="start" x="300.5" y="-305.5" font-family="Helvetica,sans-Serif" font-size="10.00" fill="#000000">+ operator*()</text>
<text text-anchor="start" x="300.5" y="-294.5" font-family="Helvetica,sans-Serif" font-size="10.00" fill="#000000">+ asArrowTable()</text>
<text text-anchor="start" x="300.5" y="-283.5" font-family="Helvetica,sans-Serif" font-size="10.00" fill="#000000">+ pack()</text>
<text text-anchor="start" x="300.5" y="-272.5" font-family="Helvetica,sans-Serif" font-size="10.00" fill="#000000">+ build()</text>
</a>
</g>
</g>
<!-- Node6&#45;&gt;Node2 -->
<g id="edge5" class="edge">
<title>Node6&#45;&gt;Node2</title>
<path fill="none" stroke="#ffa500" d="M283.5492,-282.4011C272.8243,-276.543 261.8798,-270.5941 251.5,-265 236.4486,-256.8882 229.0443,-259.6125 217.5,-247 209.7792,-238.5648 203.5719,-228.2319 198.6325,-217.7027"/>
<polygon fill="#ffa500" stroke="#ffa500" points="282.0362,-285.5629 292.4892,-287.2909 285.3953,-279.4215 282.0362,-285.5629"/>
<text text-anchor="middle" x="291.5" y="-239" font-family="Helvetica,sans-Serif" font-size="10.00" fill="#000000"> &lt; aod::Run3MatchedSparse &gt;</text>
</g>
<!-- Node9 -->
<g id="node9" class="node">
<title>Node9</title>
<g id="a_node9"><a xlink:href="../../d5/df4/structo2_1_1framework_1_1Builds.html" target="_top" xlink:title="{o2::framework::Builds\l\&lt; aod::Run3MatchedExclusive \&gt;\n||+ operator&#45;\&gt;()\l+ operator*()\l+ asArrowTable()\l+ pack()\l+ build()\l}">
<polygon fill="none" stroke="#000000" points="302,-105.5 302,-217.5 477,-217.5 477,-105.5 302,-105.5"/>
<text text-anchor="start" x="310" y="-205.5" font-family="Helvetica,sans-Serif" font-size="10.00" fill="#000000">o2::framework::Builds</text>
<text text-anchor="middle" x="389.5" y="-194.5" font-family="Helvetica,sans-Serif" font-size="10.00" fill="#000000">&lt; aod::Run3MatchedExclusive &gt;</text>
<polyline fill="none" stroke="#000000" points="302,-187.5 477,-187.5 "/>
<text text-anchor="middle" x="389.5" y="-175.5" font-family="Helvetica,sans-Serif" font-size="10.00" fill="#000000"> </text>
<polyline fill="none" stroke="#000000" points="302,-168.5 477,-168.5 "/>
<text text-anchor="start" x="310" y="-156.5" font-family="Helvetica,sans-Serif" font-size="10.00" fill="#000000">+ operator&#45;&gt;()</text>
<text text-anchor="start" x="310" y="-145.5" font-family="Helvetica,sans-Serif" font-size="10.00" fill="#000000">+ operator*()</text>
<text text-anchor="start" x="310" y="-134.5" font-family="Helvetica,sans-Serif" font-size="10.00" fill="#000000">+ asArrowTable()</text>
<text text-anchor="start" x="310" y="-123.5" font-family="Helvetica,sans-Serif" font-size="10.00" fill="#000000">+ pack()</text>
<text text-anchor="start" x="310" y="-112.5" font-family="Helvetica,sans-Serif" font-size="10.00" fill="#000000">+ build()</text>
</a>
</g>
</g>
<!-- Node6&#45;&gt;Node9 -->
<g id="edge13" class="edge">
<title>Node6&#45;&gt;Node9</title>
<path fill="none" stroke="#ffa500" d="M368.344,-255.1949C369.7334,-248.7056 371.135,-242.2231 372.5,-236 373.8075,-230.0391 375.1939,-223.815 376.5888,-217.6147"/>
<polygon fill="#ffa500" stroke="#ffa500" points="364.8386,-254.8517 366.1776,-265.3616 371.6849,-256.3107 364.8386,-254.8517"/>
<text text-anchor="middle" x="453.5" y="-239" font-family="Helvetica,sans-Serif" font-size="10.00" fill="#000000"> &lt; aod::Run3MatchedExclusive &gt;</text>
</g>
<!-- Node7&#45;&gt;Node6 -->
<g id="edge6" class="edge">
<title>Node7&#45;&gt;Node6</title>
<path fill="none" stroke="#191970" d="M367.8705,-561.0547C364.6581,-503.4995 360.4647,-428.3678 357.6376,-377.7145"/>
<polygon fill="none" stroke="#191970" points="364.3861,-561.4332 368.438,-571.2226 371.3752,-561.043 364.3861,-561.4332"/>
</g>
<!-- Node8 -->
<g id="node8" class="node">
<title>Node8</title>
<polygon fill="none" stroke="#bfbfbf" points="173,-615.5 173,-672.5 270,-672.5 270,-615.5 173,-615.5"/>
<text text-anchor="middle" x="221.5" y="-660.5" font-family="Helvetica,sans-Serif" font-size="10.00" fill="#000000">shared_ptr&lt; T &gt;</text>
<polyline fill="none" stroke="#bfbfbf" points="173,-653.5 270,-653.5 "/>
<text text-anchor="middle" x="221.5" y="-641.5" font-family="Helvetica,sans-Serif" font-size="10.00" fill="#000000"> </text>
<polyline fill="none" stroke="#bfbfbf" points="173,-634.5 270,-634.5 "/>
<text text-anchor="middle" x="221.5" y="-622.5" font-family="Helvetica,sans-Serif" font-size="10.00" fill="#000000"> </text>
</g>
<!-- Node8&#45;&gt;Node6 -->
<g id="edge8" class="edge">
<title>Node8&#45;&gt;Node6</title>
<path fill="none" stroke="#404040" d="M231.6075,-615.3885C248.2574,-568.8663 283.0512,-474.1571 317.5,-396 318.5648,-393.5842 319.6662,-391.1335 320.7936,-388.6652"/>
<polygon fill="none" stroke="#404040" points="320.7964,-388.6591 319.708,-381.5305 325.8696,-377.7842 326.9579,-384.9127 320.7964,-388.6591"/>
<text text-anchor="middle" x="336" y="-472" font-family="Helvetica,sans-Serif" font-size="10.00" fill="#000000"> +table</text>
</g>
<!-- Node9&#45;&gt;Node1 -->
<g id="edge9" class="edge">
<title>Node9&#45;&gt;Node1</title>
<path fill="none" stroke="#404040" d="M340.7296,-105.3081C329.5231,-92.3961 317.8635,-78.9623 307.5076,-67.0304"/>
<polygon fill="none" stroke="#404040" points="307.381,-66.8846 300.4273,-64.9752 299.5153,-57.822 306.469,-59.7314 307.381,-66.8846"/>
<text text-anchor="middle" x="354.5" y="-79" font-family="Helvetica,sans-Serif" font-size="10.00" fill="#000000"> +matched_e</text>
</g>
<!-- Node10&#45;&gt;Node9 -->
<g id="edge10" class="edge">
<title>Node10&#45;&gt;Node9</title>
<path fill="none" stroke="#191970" d="M556.7148,-386.3243C562.7775,-338.4869 561.7781,-280.2649 534.5,-236 521.2852,-214.5561 499.7335,-199.0179 477.2387,-187.8711"/>
<polygon fill="none" stroke="#191970" points="553.2292,-385.9796 555.3208,-396.3659 560.1627,-386.9422 553.2292,-385.9796"/>
</g>
<!-- Node11 -->
<g id="node11" class="node">
<title>Node11</title>
<polygon fill="none" stroke="#bfbfbf" points="576,-287.5 576,-355.5 745,-355.5 745,-287.5 576,-287.5"/>
<text text-anchor="start" x="584" y="-343.5" font-family="Helvetica,sans-Serif" font-size="10.00" fill="#000000">shared_ptr&lt; aod::Run3Matched</text>
<text text-anchor="middle" x="660.5" y="-332.5" font-family="Helvetica,sans-Serif" font-size="10.00" fill="#000000">Exclusive &gt;</text>
<polyline fill="none" stroke="#bfbfbf" points="576,-325.5 745,-325.5 "/>
<text text-anchor="middle" x="660.5" y="-313.5" font-family="Helvetica,sans-Serif" font-size="10.00" fill="#000000"> </text>
<polyline fill="none" stroke="#bfbfbf" points="576,-306.5 745,-306.5 "/>
<text text-anchor="middle" x="660.5" y="-294.5" font-family="Helvetica,sans-Serif" font-size="10.00" fill="#000000"> </text>
</g>
<!-- Node11&#45;&gt;Node9 -->
<g id="edge12" class="edge">
<title>Node11&#45;&gt;Node9</title>
<path fill="none" stroke="#404040" d="M626.7714,-287.3927C608.7761,-270.456 585.6183,-250.5588 562.5,-236 539.5836,-221.5683 513.3891,-208.6773 488.4358,-197.8405"/>
<polygon fill="none" stroke="#404040" points="488.1169,-197.7049 481.0299,-199.0372 477.0744,-193.0078 484.1613,-191.6755 488.1169,-197.7049"/>
<text text-anchor="middle" x="595" y="-239" font-family="Helvetica,sans-Serif" font-size="10.00" fill="#000000"> +table</text>
</g>
</g>
</svg>
