<?xml version="1.0" encoding="UTF-8" standalone="no"?>
<!DOCTYPE svg PUBLIC "-//W3C//DTD SVG 1.1//EN"
 "http://www.w3.org/Graphics/SVG/1.1/DTD/svg11.dtd">
<!-- Generated by graphviz version 2.40.1 (20161225.0304)
 -->
<!-- Title: o2::framework::expressions::Node Pages: 1 -->
<svg width="308pt" height="270pt"
 viewBox="0.00 0.00 307.50 270.00" xmlns="http://www.w3.org/2000/svg" xmlns:xlink="http://www.w3.org/1999/xlink">
<g id="graph0" class="graph" transform="scale(1 1) rotate(0) translate(4 266)">
<title>o2::framework::expressions::Node</title>
<!-- Node1 -->
<g id="node1" class="node">
<title>Node1</title>
<polygon fill="#bfbfbf" stroke="#000000" points="78.5,-.5 78.5,-123.5 230.5,-123.5 230.5,-.5 78.5,-.5"/>
<text text-anchor="start" x="86.5" y="-111.5" font-family="Helvetica,sans-Serif" font-size="10.00" fill="#000000">o2::framework::expressions</text>
<text text-anchor="middle" x="154.5" y="-100.5" font-family="Helvetica,sans-Serif" font-size="10.00" fill="#000000">::Node</text>
<polyline fill="none" stroke="#000000" points="78.5,-93.5 230.5,-93.5 "/>
<text text-anchor="middle" x="154.5" y="-81.5" font-family="Helvetica,sans-Serif" font-size="10.00" fill="#000000"> </text>
<polyline fill="none" stroke="#000000" points="78.5,-74.5 230.5,-74.5 "/>
<text text-anchor="start" x="86.5" y="-62.5" font-family="Helvetica,sans-Serif" font-size="10.00" fill="#000000">+ Node()</text>
<text text-anchor="start" x="86.5" y="-51.5" font-family="Helvetica,sans-Serif" font-size="10.00" fill="#000000">+ Node()</text>
<text text-anchor="start" x="86.5" y="-40.5" font-family="Helvetica,sans-Serif" font-size="10.00" fill="#000000">+ Node()</text>
<text text-anchor="start" x="86.5" y="-29.5" font-family="Helvetica,sans-Serif" font-size="10.00" fill="#000000">+ Node()</text>
<text text-anchor="start" x="86.5" y="-18.5" font-family="Helvetica,sans-Serif" font-size="10.00" fill="#000000">+ Node()</text>
<text text-anchor="start" x="86.5" y="-7.5" font-family="Helvetica,sans-Serif" font-size="10.00" fill="#000000">+ Node()</text>
</g>
<!-- Node2 -->
<g id="node2" class="node">
<title>Node2</title>
<polygon fill="none" stroke="#bfbfbf" points="0,-188 0,-256 151,-256 151,-188 0,-188"/>
<text text-anchor="start" x="8" y="-244" font-family="Helvetica,sans-Serif" font-size="10.00" fill="#000000">unique_ptr&lt; o2::framework</text>
<text text-anchor="middle" x="75.5" y="-233" font-family="Helvetica,sans-Serif" font-size="10.00" fill="#000000">::expressions::Node &gt;</text>
<polyline fill="none" stroke="#bfbfbf" points="0,-226 151,-226 "/>
<text text-anchor="middle" x="75.5" y="-214" font-family="Helvetica,sans-Serif" font-size="10.00" fill="#000000"> </text>
<polyline fill="none" stroke="#bfbfbf" points="0,-207 151,-207 "/>
<text text-anchor="middle" x="75.5" y="-195" font-family="Helvetica,sans-Serif" font-size="10.00" fill="#000000"> </text>
</g>
<!-- Node2&#45;&gt;Node1 -->
<g id="edge1" class="edge">
<title>Node2&#45;&gt;Node1</title>
<path fill="none" stroke="#404040" d="M92.4475,-187.676C100.141,-172.0941 109.5512,-153.0355 118.695,-134.5165"/>
<polygon fill="none" stroke="#404040" points="118.7202,-134.4654 117.7899,-127.3145 124.0329,-123.7055 124.9632,-130.8564 118.7202,-134.4654"/>
<text text-anchor="middle" x="132.5" y="-156" font-family="Helvetica,sans-Serif" font-size="10.00" fill="#000000"> +right</text>
<text text-anchor="middle" x="132.5" y="-145" font-family="Helvetica,sans-Serif" font-size="10.00" fill="#000000">+left</text>
</g>
<!-- Node3 -->
<g id="node3" class="node">
<title>Node3</title>
<polygon fill="none" stroke="#bfbfbf" points="169.5,-182.5 169.5,-261.5 299.5,-261.5 299.5,-182.5 169.5,-182.5"/>
<text text-anchor="start" x="177.5" y="-249.5" font-family="Helvetica,sans-Serif" font-size="10.00" fill="#000000">variant&lt; LiteralNode,</text>
<text text-anchor="start" x="177.5" y="-238.5" font-family="Helvetica,sans-Serif" font-size="10.00" fill="#000000"> BindingNode, OpNode,</text>
<text text-anchor="middle" x="234.5" y="-227.5" font-family="Helvetica,sans-Serif" font-size="10.00" fill="#000000"> PlaceholderNode &gt;</text>
<polyline fill="none" stroke="#bfbfbf" points="169.5,-220.5 299.5,-220.5 "/>
<text text-anchor="middle" x="234.5" y="-208.5" font-family="Helvetica,sans-Serif" font-size="10.00" fill="#000000"> </text>
<polyline fill="none" stroke="#bfbfbf" points="169.5,-201.5 299.5,-201.5 "/>
<text text-anchor="middle" x="234.5" y="-189.5" font-family="Helvetica,sans-Serif" font-size="10.00" fill="#000000"> </text>
</g>
<!-- Node3&#45;&gt;Node1 -->
<g id="edge2" class="edge">
<title>Node3&#45;&gt;Node1</title>
<path fill="none" stroke="#404040" d="M214.7247,-182.4494C207.4372,-167.8743 198.9342,-150.8684 190.6532,-134.3064"/>
<polygon fill="none" stroke="#404040" points="190.6251,-134.2501 184.3641,-130.6724 185.2585,-123.5169 191.5195,-127.0946 190.6251,-134.2501"/>
<text text-anchor="middle" x="218.5" y="-150.5" font-family="Helvetica,sans-Serif" font-size="10.00" fill="#000000"> +self</text>
</g>
</g>
</svg>
