<?xml version="1.0" encoding="UTF-8" standalone="no"?>
<!DOCTYPE svg PUBLIC "-//W3C//DTD SVG 1.1//EN"
 "http://www.w3.org/Graphics/SVG/1.1/DTD/svg11.dtd">
<!-- Generated by graphviz version 2.40.1 (20161225.0304)
 -->
<!-- Title: /home/travis/build/AliceO2Group/AliceO2/GPU/GPUTracking/Merger/GPUTPCGMPropagator.cxx Pages: 1 -->
<!--zoomable 520 -->
<svg id="main" version="1.1" xmlns="http://www.w3.org/2000/svg" xmlns:xlink="http://www.w3.org/1999/xlink" xml:space="preserve" onload="init(evt)">
<style type="text/css"><![CDATA[
.edge:hover path { stroke: red; }
.edge:hover polygon { stroke: red; fill: red; }
]]></style>
<script type="text/javascript"><![CDATA[
var edges = document.getElementsByTagName('g');
if (edges && edges.length) {
  for (var i=0;i<edges.length;i++) {
    if (edges[i].id.substr(0,4)=='edge') {
      edges[i].setAttribute('class','edge');
    }
  }
}
]]></script>
        <defs>
                <circle id="rim" cx="0" cy="0" r="7"/>
                <circle id="rim2" cx="0" cy="0" r="3.5"/>
                <g id="zoomPlus">
                        <use xlink:href="#rim" fill="#404040">
                                <set attributeName="fill" to="#808080" begin="zoomplus.mouseover" end="zoomplus.mouseout"/>
                        </use>
                        <path d="M-4,0h8M0,-4v8" fill="none" stroke="white" stroke-width="1.5" pointer-events="none"/>
                </g>
                <g id="zoomMin">
                        <use xlink:href="#rim" fill="#404040">
                                <set attributeName="fill" to="#808080" begin="zoomminus.mouseover" end="zoomminus.mouseout"/>
                        </use>
                        <path d="M-4,0h8" fill="none" stroke="white" stroke-width="1.5" pointer-events="none"/>
                </g>
                <g id="dirArrow">
                        <path fill="none" stroke="white" stroke-width="1.5" d="M0,-3.0v7 M-2.5,-0.5L0,-3.0L2.5,-0.5"/>
                </g>
               <g id="resetDef">
                       <use xlink:href="#rim2" fill="#404040">
                               <set attributeName="fill" to="#808080" begin="reset.mouseover" end="reset.mouseout"/>
                       </use>
               </g>
        </defs>

<script type="text/javascript">
var viewWidth = 1535;
var viewHeight = 520;
var sectionId = 'dynsection-0';
</script>
<script xlink:href="../../svgpan.js"/>
<svg id="graph" class="graph">
<g id="viewport">
<title>/home/travis/build/AliceO2Group/AliceO2/GPU/GPUTracking/Merger/GPUTPCGMPropagator.cxx</title>
<!-- Node0 -->
<g id="node1" class="node">
<title>Node0</title>
<polygon fill="#bfbfbf" stroke="#000000" points="1094.5,-459.5 1094.5,-511.5 1242.5,-511.5 1242.5,-459.5 1094.5,-459.5"/>
<text text-anchor="start" x="1102.5" y="-499.5" font-family="Helvetica,sans-Serif" font-size="10.00" fill="#000000">/home/travis/build</text>
<text text-anchor="start" x="1102.5" y="-488.5" font-family="Helvetica,sans-Serif" font-size="10.00" fill="#000000">/AliceO2Group/AliceO2</text>
<text text-anchor="start" x="1102.5" y="-477.5" font-family="Helvetica,sans-Serif" font-size="10.00" fill="#000000">/GPU/GPUTracking/Merger</text>
<text text-anchor="middle" x="1168.5" y="-466.5" font-family="Helvetica,sans-Serif" font-size="10.00" fill="#000000">/GPUTPCGMPropagator.cxx</text>
</g>
<!-- Node1 -->
<g id="node2" class="node">
<title>Node1</title>
<g id="a_node2"><a xlink:href="../../d0/dd8/GPUTPCGMPropagator_8h.html" target="_top" xlink:title="GPUTPCGMPropagator.h">
<polygon fill="none" stroke="#000000" points="982.5,-403.5 982.5,-422.5 1116.5,-422.5 1116.5,-403.5 982.5,-403.5"/>
<text text-anchor="middle" x="1049.5" y="-410.5" font-family="Helvetica,sans-Serif" font-size="10.00" fill="#000000">GPUTPCGMPropagator.h</text>
</a>
</g>
</g>
<!-- Node0&#45;&gt;Node1 -->
<g id="edge1" class="edge">
<title>Node0&#45;&gt;Node1</title>
<path fill="none" stroke="#191970" d="M1125.5383,-459.3258C1108.1166,-448.7118 1088.64,-436.8458 1073.7602,-427.7804"/>
<polygon fill="#191970" stroke="#191970" points="1075.5099,-424.748 1065.1489,-422.534 1071.8678,-430.7259 1075.5099,-424.748"/>
</g>
<!-- Node6 -->
<g id="node7" class="node">
<title>Node6</title>
<g id="a_node7"><a xlink:href="../../d6/d37/GPUTPCGMPhysicalTrackModel_8h.html" target="_top" xlink:title="GPUTPCGMPhysicalTrackModel.h">
<polygon fill="none" stroke="#000000" points="1196.5,-342 1196.5,-361 1372.5,-361 1372.5,-342 1196.5,-342"/>
<text text-anchor="middle" x="1284.5" y="-349" font-family="Helvetica,sans-Serif" font-size="10.00" fill="#000000">GPUTPCGMPhysicalTrackModel.h</text>
</a>
</g>
</g>
<!-- Node0&#45;&gt;Node6 -->
<g id="edge29" class="edge">
<title>Node0&#45;&gt;Node6</title>
<path fill="none" stroke="#191970" d="M1191.1413,-459.3453C1214.2779,-432.6186 1249.5533,-391.8694 1269.4607,-368.873"/>
<polygon fill="#191970" stroke="#191970" points="1272.1499,-371.114 1276.0488,-361.2626 1266.8575,-366.5325 1272.1499,-371.114"/>
</g>
<!-- Node16 -->
<g id="node17" class="node">
<title>Node16</title>
<g id="a_node17"><a xlink:href="../../d3/dcc/GPUTPCGMMergedTrackHit_8h.html" target="_top" xlink:title="GPUTPCGMMergedTrackHit.h">
<polygon fill="none" stroke="#000000" points="1370,-224.5 1370,-243.5 1527,-243.5 1527,-224.5 1370,-224.5"/>
<text text-anchor="middle" x="1448.5" y="-231.5" font-family="Helvetica,sans-Serif" font-size="10.00" fill="#000000">GPUTPCGMMergedTrackHit.h</text>
</a>
</g>
</g>
<!-- Node0&#45;&gt;Node16 -->
<g id="edge46" class="edge">
<title>Node0&#45;&gt;Node16</title>
<path fill="none" stroke="#191970" d="M1238.261,-459.3852C1283.6016,-439.5965 1341.5027,-408.6737 1381.5,-367 1413.7421,-333.4065 1433.7785,-281.2568 1442.8257,-253.2845"/>
<polygon fill="#191970" stroke="#191970" points="1446.2337,-254.1111 1445.8505,-243.5232 1439.5474,-252.0391 1446.2337,-254.1111"/>
</g>
<!-- Node23 -->
<g id="node24" class="node">
<title>Node23</title>
<g id="a_node24"><a xlink:href="../../df/d13/GPUParam_8h.html" target="_top" xlink:title="GPUParam.h">
<polygon fill="none" stroke="#000000" points="592,-403.5 592,-422.5 669,-422.5 669,-403.5 592,-403.5"/>
<text text-anchor="middle" x="630.5" y="-410.5" font-family="Helvetica,sans-Serif" font-size="10.00" fill="#000000">GPUParam.h</text>
</a>
</g>
</g>
<!-- Node0&#45;&gt;Node23 -->
<g id="edge30" class="edge">
<title>Node0&#45;&gt;Node23</title>
<path fill="none" stroke="#191970" d="M1094.2583,-475.4953C982.4271,-460.4251 773.8037,-432.3114 679.2804,-419.5736"/>
<polygon fill="#191970" stroke="#191970" points="679.5201,-416.0743 669.1422,-418.2074 678.5852,-423.0116 679.5201,-416.0743"/>
</g>
<!-- Node31 -->
<g id="node32" class="node">
<title>Node31</title>
<g id="a_node32"><a xlink:href="../../d5/d5c/GPUO2DataTypes_8h.html" target="_top" xlink:title="GPUO2DataTypes.h">
<polygon fill="none" stroke="#000000" points="1090,-280.5 1090,-299.5 1201,-299.5 1201,-280.5 1090,-280.5"/>
<text text-anchor="middle" x="1145.5" y="-287.5" font-family="Helvetica,sans-Serif" font-size="10.00" fill="#000000">GPUO2DataTypes.h</text>
</a>
</g>
</g>
<!-- Node0&#45;&gt;Node31 -->
<g id="edge47" class="edge">
<title>Node0&#45;&gt;Node31</title>
<path fill="none" stroke="#191970" d="M1165.3981,-459.134C1160.729,-419.4463 1151.9987,-345.2389 1147.8307,-309.8109"/>
<polygon fill="#191970" stroke="#191970" points="1151.2932,-309.2864 1146.6487,-299.7639 1144.3412,-310.1043 1151.2932,-309.2864"/>
</g>
<!-- Node34 -->
<g id="node35" class="node">
<title>Node34</title>
<polygon fill="none" stroke="#bfbfbf" points="1428.5,-403.5 1428.5,-422.5 1514.5,-422.5 1514.5,-403.5 1428.5,-403.5"/>
<text text-anchor="middle" x="1471.5" y="-410.5" font-family="Helvetica,sans-Serif" font-size="10.00" fill="#000000">GPUParam.inc</text>
</g>
<!-- Node0&#45;&gt;Node34 -->
<g id="edge54" class="edge">
<title>Node0&#45;&gt;Node34</title>
<path fill="none" stroke="#191970" d="M1242.6221,-467.7645C1298.2347,-454.4579 1372.8622,-436.6015 1421.5525,-424.9511"/>
<polygon fill="#191970" stroke="#191970" points="1422.6216,-428.2942 1431.5326,-422.5632 1420.9926,-421.4864 1422.6216,-428.2942"/>
</g>
<!-- Node35 -->
<g id="node36" class="node">
<title>Node35</title>
<g id="a_node36"><a xlink:href="../../de/d4c/GPUTPCGMMergerTypes_8h.html" target="_top" xlink:title="GPUTPCGMMergerTypes.h">
<polygon fill="none" stroke="#000000" points="711,-280.5 711,-299.5 854,-299.5 854,-280.5 711,-280.5"/>
<text text-anchor="middle" x="782.5" y="-287.5" font-family="Helvetica,sans-Serif" font-size="10.00" fill="#000000">GPUTPCGMMergerTypes.h</text>
</a>
</g>
</g>
<!-- Node0&#45;&gt;Node35 -->
<g id="edge55" class="edge">
<title>Node0&#45;&gt;Node35</title>
<path fill="none" stroke="#191970" d="M1094.2492,-467.3341C1056.9778,-456.8238 1011.7411,-441.9091 973.5,-423 905.6707,-389.4604 834.8721,-333.8211 801.7439,-306.3614"/>
<polygon fill="#191970" stroke="#191970" points="803.71,-303.4429 793.7942,-299.7108 799.2184,-308.8119 803.71,-303.4429"/>
</g>
<!-- Node2 -->
<g id="node3" class="node">
<title>Node2</title>
<g id="a_node3"><a xlink:href="../../df/d21/GPUCommonDef_8h.html" target="_top" xlink:title="GPUCommonDef.h">
<polygon fill="none" stroke="#000000" points="699,-56.5 699,-75.5 806,-75.5 806,-56.5 699,-56.5"/>
<text text-anchor="middle" x="752.5" y="-63.5" font-family="Helvetica,sans-Serif" font-size="10.00" fill="#000000">GPUCommonDef.h</text>
</a>
</g>
</g>
<!-- Node1&#45;&gt;Node2 -->
<g id="edge2" class="edge">
<title>Node1&#45;&gt;Node2</title>
<path fill="none" stroke="#191970" d="M1071.2658,-403.3857C1085.5664,-395.773 1103.1252,-383.6416 1111.5,-367 1117.6935,-354.6928 1116.1903,-348.9549 1111.5,-336 1104.4098,-316.4167 1089.4548,-319.2484 1081.5,-300 1071.9561,-276.9065 1077.7068,-268.9587 1076.5,-244 1076.4115,-242.1688 1076.7068,-113.3802 1075.5,-112 1067.0326,-102.3156 907.8871,-83.2072 816.2079,-72.9297"/>
<polygon fill="#191970" stroke="#191970" points="816.52,-69.4429 806.1934,-71.8121 815.7435,-76.3997 816.52,-69.4429"/>
</g>
<!-- Node5 -->
<g id="node6" class="node">
<title>Node5</title>
<g id="a_node6"><a xlink:href="../../d0/d79/GPUTPCGMOfflineStatisticalErrors_8h.html" target="_top" xlink:title="GPUTPCGMOfflineStatistical\lErrors.h">
<polygon fill="none" stroke="#000000" points="949,-336.5 949,-366.5 1102,-366.5 1102,-336.5 949,-336.5"/>
<text text-anchor="start" x="957" y="-354.5" font-family="Helvetica,sans-Serif" font-size="10.00" fill="#000000">GPUTPCGMOfflineStatistical</text>
<text text-anchor="middle" x="1025.5" y="-343.5" font-family="Helvetica,sans-Serif" font-size="10.00" fill="#000000">Errors.h</text>
</a>
</g>
</g>
<!-- Node1&#45;&gt;Node5 -->
<g id="edge5" class="edge">
<title>Node1&#45;&gt;Node5</title>
<path fill="none" stroke="#191970" d="M1045.75,-403.3906C1042.8929,-396.0692 1038.8264,-385.6488 1035.0862,-376.0647"/>
<polygon fill="#191970" stroke="#191970" points="1038.2671,-374.588 1031.3711,-366.5446 1031.746,-377.1328 1038.2671,-374.588"/>
</g>
<!-- Node1&#45;&gt;Node6 -->
<g id="edge6" class="edge">
<title>Node1&#45;&gt;Node6</title>
<path fill="none" stroke="#191970" d="M1085.9609,-403.4581C1126.9515,-392.7308 1193.5969,-375.2895 1238.226,-363.61"/>
<polygon fill="#191970" stroke="#191970" points="1239.1655,-366.9821 1247.9536,-361.0643 1237.3932,-360.2101 1239.1655,-366.9821"/>
</g>
<!-- Node17 -->
<g id="node18" class="node">
<title>Node17</title>
<g id="a_node18"><a xlink:href="../../d6/da2/GPUCommonMath_8h.html" target="_top" xlink:title="GPUCommonMath.h">
<polygon fill="none" stroke="#000000" points="898,-224.5 898,-243.5 1013,-243.5 1013,-224.5 898,-224.5"/>
<text text-anchor="middle" x="955.5" y="-231.5" font-family="Helvetica,sans-Serif" font-size="10.00" fill="#000000">GPUCommonMath.h</text>
</a>
</g>
</g>
<!-- Node1&#45;&gt;Node17 -->
<g id="edge28" class="edge">
<title>Node1&#45;&gt;Node17</title>
<path fill="none" stroke="#191970" d="M995.482,-403.4617C974.6724,-396.8668 952.9332,-385.742 940.5,-367 917.3779,-332.1452 934.188,-280.55 946.2062,-252.9885"/>
<polygon fill="#191970" stroke="#191970" points="949.4854,-254.2347 950.4844,-243.6871 943.1259,-251.3096 949.4854,-254.2347"/>
</g>
<!-- Node22 -->
<g id="node23" class="node">
<title>Node22</title>
<g id="a_node23"><a xlink:href="../../d9/d9c/GPUTPCGMPolynomialField_8h.html" target="_top" xlink:title="GPUTPCGMPolynomialField.h">
<polygon fill="none" stroke="#000000" points="658.5,-342 658.5,-361 816.5,-361 816.5,-342 658.5,-342"/>
<text text-anchor="middle" x="737.5" y="-349" font-family="Helvetica,sans-Serif" font-size="10.00" fill="#000000">GPUTPCGMPolynomialField.h</text>
</a>
</g>
</g>
<!-- Node1&#45;&gt;Node22 -->
<g id="edge26" class="edge">
<title>Node1&#45;&gt;Node22</title>
<path fill="none" stroke="#191970" d="M1001.0923,-403.4581C945.6753,-392.5345 854.9397,-374.6492 795.714,-362.9749"/>
<polygon fill="#191970" stroke="#191970" points="796.2526,-359.5138 785.7645,-361.0137 794.8988,-366.3816 796.2526,-359.5138"/>
</g>
<!-- Node3 -->
<g id="node4" class="node">
<title>Node3</title>
<g id="a_node4"><a xlink:href="../../d5/d93/GPUCommonDefSettings_8h.html" target="_top" xlink:title="GPUCommonDefSettings.h">
<polygon fill="none" stroke="#000000" points="601.5,-.5 601.5,-19.5 749.5,-19.5 749.5,-.5 601.5,-.5"/>
<text text-anchor="middle" x="675.5" y="-7.5" font-family="Helvetica,sans-Serif" font-size="10.00" fill="#000000">GPUCommonDefSettings.h</text>
</a>
</g>
</g>
<!-- Node2&#45;&gt;Node3 -->
<g id="edge3" class="edge">
<title>Node2&#45;&gt;Node3</title>
<path fill="none" stroke="#191970" d="M739.0876,-56.2455C727.4943,-47.814 710.5252,-35.4729 697.0322,-25.6598"/>
<polygon fill="#191970" stroke="#191970" points="698.9047,-22.6938 688.7587,-19.6427 694.7874,-28.355 698.9047,-22.6938"/>
</g>
<!-- Node4 -->
<g id="node5" class="node">
<title>Node4</title>
<g id="a_node5"><a xlink:href="../../da/d5a/GPUCommonDefAPI_8h.html" target="_top" xlink:title="GPUCommonDefAPI.h">
<polygon fill="none" stroke="#000000" points="767.5,-.5 767.5,-19.5 891.5,-19.5 891.5,-.5 767.5,-.5"/>
<text text-anchor="middle" x="829.5" y="-7.5" font-family="Helvetica,sans-Serif" font-size="10.00" fill="#000000">GPUCommonDefAPI.h</text>
</a>
</g>
</g>
<!-- Node2&#45;&gt;Node4 -->
<g id="edge4" class="edge">
<title>Node2&#45;&gt;Node4</title>
<path fill="none" stroke="#191970" d="M765.9124,-56.2455C777.5057,-47.814 794.4748,-35.4729 807.9678,-25.6598"/>
<polygon fill="#191970" stroke="#191970" points="810.2126,-28.355 816.2413,-19.6427 806.0953,-22.6938 810.2126,-28.355"/>
</g>
<!-- Node7 -->
<g id="node8" class="node">
<title>Node7</title>
<g id="a_node8"><a xlink:href="../../d8/d33/GPUTPCGMTrackParam_8h.html" target="_top" xlink:title="GPUTPCGMTrackParam.h">
<polygon fill="none" stroke="#000000" points="1219,-280.5 1219,-299.5 1356,-299.5 1356,-280.5 1219,-280.5"/>
<text text-anchor="middle" x="1287.5" y="-287.5" font-family="Helvetica,sans-Serif" font-size="10.00" fill="#000000">GPUTPCGMTrackParam.h</text>
</a>
</g>
</g>
<!-- Node6&#45;&gt;Node7 -->
<g id="edge7" class="edge">
<title>Node6&#45;&gt;Node7</title>
<path fill="none" stroke="#191970" d="M1284.9688,-341.8906C1285.3846,-333.3657 1286.0054,-320.6392 1286.5281,-309.9235"/>
<polygon fill="#191970" stroke="#191970" points="1290.0332,-309.9035 1287.0246,-299.7449 1283.0415,-309.5624 1290.0332,-309.9035"/>
</g>
<!-- Node8 -->
<g id="node9" class="node">
<title>Node8</title>
<g id="a_node9"><a xlink:href="../../da/dab/GPUTPCDef_8h.html" target="_top" xlink:title="GPUTPCDef.h">
<polygon fill="none" stroke="#000000" points="658.5,-224.5 658.5,-243.5 740.5,-243.5 740.5,-224.5 658.5,-224.5"/>
<text text-anchor="middle" x="699.5" y="-231.5" font-family="Helvetica,sans-Serif" font-size="10.00" fill="#000000">GPUTPCDef.h</text>
</a>
</g>
</g>
<!-- Node7&#45;&gt;Node8 -->
<g id="edge8" class="edge">
<title>Node7&#45;&gt;Node8</title>
<path fill="none" stroke="#191970" d="M1218.6734,-280.8846C1215.9142,-280.5752 1213.1816,-280.2789 1210.5,-280 1009.8171,-259.1296 955.4223,-271.3658 750.8031,-243.8708"/>
<polygon fill="#191970" stroke="#191970" points="751.008,-240.3665 740.6277,-242.4876 750.0651,-247.3027 751.008,-240.3665"/>
</g>
<!-- Node7&#45;&gt;Node16 -->
<g id="edge18" class="edge">
<title>Node7&#45;&gt;Node16</title>
<path fill="none" stroke="#191970" d="M1315.1769,-280.3733C1341.8328,-271.1016 1382.3238,-257.0178 1411.6884,-246.804"/>
<polygon fill="#191970" stroke="#191970" points="1412.8891,-250.0921 1421.1843,-243.5011 1410.5895,-243.4807 1412.8891,-250.0921"/>
</g>
<!-- Node7&#45;&gt;Node17 -->
<g id="edge20" class="edge">
<title>Node7&#45;&gt;Node17</title>
<path fill="none" stroke="#191970" d="M1230.8044,-280.4369C1172.9109,-270.6717 1083.0872,-255.5207 1021.9034,-245.2006"/>
<polygon fill="#191970" stroke="#191970" points="1022.4046,-241.7358 1011.9618,-243.5237 1021.2403,-248.6383 1022.4046,-241.7358"/>
</g>
<!-- Node20 -->
<g id="node21" class="node">
<title>Node20</title>
<g id="a_node21"><a xlink:href="../../d3/d1f/GPUdEdxInfo_8h.html" target="_top" xlink:title="GPUdEdxInfo.h">
<polygon fill="none" stroke="#000000" points="1224,-224.5 1224,-243.5 1313,-243.5 1313,-224.5 1224,-224.5"/>
<text text-anchor="middle" x="1268.5" y="-231.5" font-family="Helvetica,sans-Serif" font-size="10.00" fill="#000000">GPUdEdxInfo.h</text>
</a>
</g>
</g>
<!-- Node7&#45;&gt;Node20 -->
<g id="edge24" class="edge">
<title>Node7&#45;&gt;Node20</title>
<path fill="none" stroke="#191970" d="M1284.1905,-280.2455C1281.6567,-272.7776 1278.0823,-262.2427 1274.985,-253.1137"/>
<polygon fill="#191970" stroke="#191970" points="1278.2991,-251.9879 1271.7716,-243.6427 1271.6702,-254.237 1278.2991,-251.9879"/>
</g>
<!-- Node21 -->
<g id="node22" class="node">
<title>Node21</title>
<polygon fill="none" stroke="#bfbfbf" points="1013,-112.5 1013,-131.5 1066,-131.5 1066,-112.5 1013,-112.5"/>
<text text-anchor="middle" x="1039.5" y="-119.5" font-family="Helvetica,sans-Serif" font-size="10.00" fill="#000000">cstddef</text>
</g>
<!-- Node7&#45;&gt;Node21 -->
<g id="edge25" class="edge">
<title>Node7&#45;&gt;Node21</title>
<path fill="none" stroke="#191970" d="M1299.4621,-280.1645C1314.1584,-266.8691 1335.6222,-242.6781 1322.5,-224 1293.4437,-182.6414 1146.5361,-145.5127 1076.6052,-129.862"/>
<polygon fill="#191970" stroke="#191970" points="1076.9899,-126.3627 1066.4704,-127.6238 1075.4804,-133.198 1076.9899,-126.3627"/>
</g>
<!-- Node9 -->
<g id="node10" class="node">
<title>Node9</title>
<g id="a_node10"><a xlink:href="../../d2/d6d/GPUDef_8h.html" target="_top" xlink:title="GPUDef.h">
<polygon fill="none" stroke="#000000" points="633,-168.5 633,-187.5 696,-187.5 696,-168.5 633,-168.5"/>
<text text-anchor="middle" x="664.5" y="-175.5" font-family="Helvetica,sans-Serif" font-size="10.00" fill="#000000">GPUDef.h</text>
</a>
</g>
</g>
<!-- Node8&#45;&gt;Node9 -->
<g id="edge9" class="edge">
<title>Node8&#45;&gt;Node9</title>
<path fill="none" stroke="#191970" d="M693.4035,-224.2455C688.5855,-216.5367 681.7249,-205.5598 675.8968,-196.2348"/>
<polygon fill="#191970" stroke="#191970" points="678.7947,-194.2677 670.5267,-187.6427 672.8587,-197.9777 678.7947,-194.2677"/>
</g>
<!-- Node9&#45;&gt;Node2 -->
<g id="edge10" class="edge">
<title>Node9&#45;&gt;Node2</title>
<path fill="none" stroke="#191970" d="M677.0059,-168.3248C687.7732,-159.5921 703.3002,-146.0003 714.5,-132 726.3303,-117.2115 736.8182,-98.3103 743.7624,-84.5281"/>
<polygon fill="#191970" stroke="#191970" points="746.914,-86.0504 748.1611,-75.5292 740.6251,-82.9764 746.914,-86.0504"/>
</g>
<!-- Node10 -->
<g id="node11" class="node">
<title>Node10</title>
<g id="a_node11"><a xlink:href="../../d2/d37/GPUDefConstantsAndSettings_8h.html" target="_top" xlink:title="GPUDefConstantsAndSettings.h">
<polygon fill="none" stroke="#000000" points="352,-112.5 352,-131.5 523,-131.5 523,-112.5 352,-112.5"/>
<text text-anchor="middle" x="437.5" y="-119.5" font-family="Helvetica,sans-Serif" font-size="10.00" fill="#000000">GPUDefConstantsAndSettings.h</text>
</a>
</g>
</g>
<!-- Node9&#45;&gt;Node10 -->
<g id="edge11" class="edge">
<title>Node9&#45;&gt;Node10</title>
<path fill="none" stroke="#191970" d="M632.9366,-170.2134C594.8822,-160.8256 530.5147,-144.9464 486.1069,-133.9911"/>
<polygon fill="#191970" stroke="#191970" points="486.9409,-130.592 476.3937,-131.5949 485.2642,-137.3883 486.9409,-130.592"/>
</g>
<!-- Node11 -->
<g id="node12" class="node">
<title>Node11</title>
<g id="a_node12"><a xlink:href="../../dc/de9/GPUDefGPUParameters_8h.html" target="_top" xlink:title="GPUDefGPUParameters.h">
<polygon fill="none" stroke="#000000" points="837.5,-112.5 837.5,-131.5 977.5,-131.5 977.5,-112.5 837.5,-112.5"/>
<text text-anchor="middle" x="907.5" y="-119.5" font-family="Helvetica,sans-Serif" font-size="10.00" fill="#000000">GPUDefGPUParameters.h</text>
</a>
</g>
</g>
<!-- Node9&#45;&gt;Node11 -->
<g id="edge13" class="edge">
<title>Node9&#45;&gt;Node11</title>
<path fill="none" stroke="#191970" d="M696.268,-170.679C736.8636,-161.3236 807.6556,-145.0094 856.0027,-133.8677"/>
<polygon fill="#191970" stroke="#191970" points="857.0012,-137.2294 865.9598,-131.573 855.4292,-130.4082 857.0012,-137.2294"/>
</g>
<!-- Node13 -->
<g id="node14" class="node">
<title>Node13</title>
<g id="a_node14"><a xlink:href="../../d3/d4c/GPUDefOpenCL12Templates_8h.html" target="_top" xlink:title="GPUDefOpenCL12Templates.h">
<polygon fill="none" stroke="#000000" points="541.5,-112.5 541.5,-131.5 705.5,-131.5 705.5,-112.5 541.5,-112.5"/>
<text text-anchor="middle" x="623.5" y="-119.5" font-family="Helvetica,sans-Serif" font-size="10.00" fill="#000000">GPUDefOpenCL12Templates.h</text>
</a>
</g>
</g>
<!-- Node9&#45;&gt;Node13 -->
<g id="edge15" class="edge">
<title>Node9&#45;&gt;Node13</title>
<path fill="none" stroke="#191970" d="M657.3583,-168.2455C651.6556,-160.4564 643.51,-149.3308 636.6375,-139.9439"/>
<polygon fill="#191970" stroke="#191970" points="639.2913,-137.6437 630.5598,-131.6427 633.6432,-141.7789 639.2913,-137.6437"/>
</g>
<!-- Node14 -->
<g id="node15" class="node">
<title>Node14</title>
<g id="a_node15"><a xlink:href="../../d2/d45/GPUCommonRtypes_8h.html" target="_top" xlink:title="GPUCommonRtypes.h">
<polygon fill="none" stroke="#000000" points="170,-112.5 170,-131.5 295,-131.5 295,-112.5 170,-112.5"/>
<text text-anchor="middle" x="232.5" y="-119.5" font-family="Helvetica,sans-Serif" font-size="10.00" fill="#000000">GPUCommonRtypes.h</text>
</a>
</g>
</g>
<!-- Node9&#45;&gt;Node14 -->
<g id="edge16" class="edge">
<title>Node9&#45;&gt;Node14</title>
<path fill="none" stroke="#191970" d="M632.734,-173.8822C564.2068,-164.999 400.9851,-143.8407 305.4894,-131.4616"/>
<polygon fill="#191970" stroke="#191970" points="305.6952,-127.9591 295.3282,-130.1444 304.7953,-134.901 305.6952,-127.9591"/>
</g>
<!-- Node10&#45;&gt;Node2 -->
<g id="edge12" class="edge">
<title>Node10&#45;&gt;Node2</title>
<path fill="none" stroke="#191970" d="M491.2925,-112.4369C545.9951,-102.712 630.7435,-87.6456 688.7773,-77.3285"/>
<polygon fill="#191970" stroke="#191970" points="689.6964,-80.7201 698.9294,-75.5237 688.4711,-73.8281 689.6964,-80.7201"/>
</g>
<!-- Node12 -->
<g id="node13" class="node">
<title>Node12</title>
<g id="a_node13"><a xlink:href="../../d6/dff/GPUDefMacros_8h.html" target="_top" xlink:title="GPUDefMacros.h">
<polygon fill="none" stroke="#000000" points="858.5,-56.5 858.5,-75.5 956.5,-75.5 956.5,-56.5 858.5,-56.5"/>
<text text-anchor="middle" x="907.5" y="-63.5" font-family="Helvetica,sans-Serif" font-size="10.00" fill="#000000">GPUDefMacros.h</text>
</a>
</g>
</g>
<!-- Node11&#45;&gt;Node12 -->
<g id="edge14" class="edge">
<title>Node11&#45;&gt;Node12</title>
<path fill="none" stroke="#191970" d="M907.5,-112.2455C907.5,-104.9382 907.5,-94.6944 907.5,-85.7046"/>
<polygon fill="#191970" stroke="#191970" points="911.0001,-85.6426 907.5,-75.6427 904.0001,-85.6427 911.0001,-85.6426"/>
</g>
<!-- Node15 -->
<g id="node16" class="node">
<title>Node15</title>
<polygon fill="none" stroke="#bfbfbf" points="203,-56.5 203,-75.5 262,-75.5 262,-56.5 203,-56.5"/>
<text text-anchor="middle" x="232.5" y="-63.5" font-family="Helvetica,sans-Serif" font-size="10.00" fill="#000000">Rtypes.h</text>
</g>
<!-- Node14&#45;&gt;Node15 -->
<g id="edge17" class="edge">
<title>Node14&#45;&gt;Node15</title>
<path fill="none" stroke="#191970" d="M232.5,-112.2455C232.5,-104.9382 232.5,-94.6944 232.5,-85.7046"/>
<polygon fill="#191970" stroke="#191970" points="236.0001,-85.6426 232.5,-75.6427 229.0001,-85.6427 236.0001,-85.6426"/>
</g>
<!-- Node16&#45;&gt;Node2 -->
<g id="edge19" class="edge">
<title>Node16&#45;&gt;Node2</title>
<path fill="none" stroke="#191970" d="M1429.9491,-224.4817C1383.4479,-201.0824 1257.5983,-140.5815 1145.5,-112 1129.7817,-107.9923 923.2651,-84.8514 816.095,-72.997"/>
<polygon fill="#191970" stroke="#191970" points="816.3676,-69.5059 806.0436,-71.886 815.5985,-76.4635 816.3676,-69.5059"/>
</g>
<!-- Node17&#45;&gt;Node2 -->
<g id="edge21" class="edge">
<title>Node17&#45;&gt;Node2</title>
<path fill="none" stroke="#191970" d="M900.1886,-224.4459C858.6175,-216.2173 806.2396,-203.2733 790.5,-188 762.3603,-160.6939 754.9632,-112.9371 753.0801,-85.9858"/>
<polygon fill="#191970" stroke="#191970" points="756.5672,-85.6397 752.5663,-75.8293 749.5761,-85.9934 756.5672,-85.6397"/>
</g>
<!-- Node18 -->
<g id="node19" class="node">
<title>Node18</title>
<polygon fill="none" stroke="#bfbfbf" points="916,-168.5 916,-187.5 963,-187.5 963,-168.5 916,-168.5"/>
<text text-anchor="middle" x="939.5" y="-175.5" font-family="Helvetica,sans-Serif" font-size="10.00" fill="#000000">cmath</text>
</g>
<!-- Node17&#45;&gt;Node18 -->
<g id="edge22" class="edge">
<title>Node17&#45;&gt;Node18</title>
<path fill="none" stroke="#191970" d="M952.713,-224.2455C950.6023,-216.8579 947.634,-206.4689 945.0453,-197.4087"/>
<polygon fill="#191970" stroke="#191970" points="948.3677,-196.2964 942.255,-187.6427 941.637,-198.2195 948.3677,-196.2964"/>
</g>
<!-- Node19 -->
<g id="node20" class="node">
<title>Node19</title>
<polygon fill="none" stroke="#bfbfbf" points="981.5,-168.5 981.5,-187.5 1045.5,-187.5 1045.5,-168.5 981.5,-168.5"/>
<text text-anchor="middle" x="1013.5" y="-175.5" font-family="Helvetica,sans-Serif" font-size="10.00" fill="#000000">algorithm</text>
</g>
<!-- Node17&#45;&gt;Node19 -->
<g id="edge23" class="edge">
<title>Node17&#45;&gt;Node19</title>
<path fill="none" stroke="#191970" d="M965.6028,-224.2455C974.0028,-216.1352 986.1494,-204.4075 996.1084,-194.7919"/>
<polygon fill="#191970" stroke="#191970" points="998.75,-197.1066 1003.5129,-187.6427 993.8878,-192.0707 998.75,-197.1066"/>
</g>
<!-- Node22&#45;&gt;Node8 -->
<g id="edge27" class="edge">
<title>Node22&#45;&gt;Node8</title>
<path fill="none" stroke="#191970" d="M728.4101,-341.7622C719.9603,-332.0259 707.8918,-316.207 702.5,-300 697.5214,-285.035 697.0254,-267.1055 697.633,-253.7133"/>
<polygon fill="#191970" stroke="#191970" points="701.1274,-253.9142 698.3288,-243.6957 694.1442,-253.4291 701.1274,-253.9142"/>
</g>
<!-- Node23&#45;&gt;Node2 -->
<g id="edge31" class="edge">
<title>Node23&#45;&gt;Node2</title>
<path fill="none" stroke="#191970" d="M591.7203,-411.5531C476.0613,-406.1944 141.5,-382.6833 141.5,-290 141.5,-290 141.5,-290 141.5,-178 141.5,-147.4754 136.8423,-131.289 160.5,-112 200.7312,-79.1981 544.1188,-69.5369 688.7231,-66.9083"/>
<polygon fill="#191970" stroke="#191970" points="688.8474,-70.4067 698.7842,-66.7309 688.724,-63.4078 688.8474,-70.4067"/>
</g>
<!-- Node23&#45;&gt;Node9 -->
<g id="edge33" class="edge">
<title>Node23&#45;&gt;Node9</title>
<path fill="none" stroke="#191970" d="M630.7366,-403.4499C631.5824,-375.5336 635.219,-291.7651 649.5,-224 651.3789,-215.0845 654.3585,-205.4658 657.1687,-197.3405"/>
<polygon fill="#191970" stroke="#191970" points="660.5443,-198.2981 660.6587,-187.7039 653.9626,-195.9145 660.5443,-198.2981"/>
</g>
<!-- Node23&#45;&gt;Node17 -->
<g id="edge32" class="edge">
<title>Node23&#45;&gt;Node17</title>
<path fill="none" stroke="#191970" d="M669.0845,-410.2793C710.1763,-405.9783 775.9843,-394.9729 825.5,-367 877.5027,-337.6221 922.229,-281.2578 943.0427,-252.2456"/>
<polygon fill="#191970" stroke="#191970" points="946.0525,-254.05 948.9391,-243.856 940.3255,-250.0249 946.0525,-254.05"/>
</g>
<!-- Node23&#45;&gt;Node22 -->
<g id="edge45" class="edge">
<title>Node23&#45;&gt;Node22</title>
<path fill="none" stroke="#191970" d="M647.2188,-403.3906C664.5722,-393.4165 691.9323,-377.6908 711.9882,-366.1633"/>
<polygon fill="#191970" stroke="#191970" points="713.9728,-369.0596 720.8987,-361.0419 710.4846,-362.9907 713.9728,-369.0596"/>
</g>
<!-- Node24 -->
<g id="node25" class="node">
<title>Node24</title>
<g id="a_node25"><a xlink:href="../../dd/dc6/GPUSettings_8h.html" target="_top" xlink:title="GPUSettings.h">
<polygon fill="none" stroke="#000000" points="430.5,-342 430.5,-361 516.5,-361 516.5,-342 430.5,-342"/>
<text text-anchor="middle" x="473.5" y="-349" font-family="Helvetica,sans-Serif" font-size="10.00" fill="#000000">GPUSettings.h</text>
</a>
</g>
</g>
<!-- Node23&#45;&gt;Node24 -->
<g id="edge34" class="edge">
<title>Node23&#45;&gt;Node24</title>
<path fill="none" stroke="#191970" d="M605.9688,-403.3906C579.4693,-393.0103 537.0669,-376.4004 507.393,-364.7766"/>
<polygon fill="#191970" stroke="#191970" points="508.4467,-361.4304 497.859,-361.0419 505.8935,-367.9482 508.4467,-361.4304"/>
</g>
<!-- Node30 -->
<g id="node31" class="node">
<title>Node30</title>
<g id="a_node31"><a xlink:href="../../d6/d1b/GPUTPCGeometry_8h.html" target="_top" xlink:title="GPUTPCGeometry.h">
<polygon fill="none" stroke="#000000" points="0,-342 0,-361 113,-361 113,-342 0,-342"/>
<text text-anchor="middle" x="56.5" y="-349" font-family="Helvetica,sans-Serif" font-size="10.00" fill="#000000">GPUTPCGeometry.h</text>
</a>
</g>
</g>
<!-- Node23&#45;&gt;Node30 -->
<g id="edge43" class="edge">
<title>Node23&#45;&gt;Node30</title>
<path fill="none" stroke="#191970" d="M591.8079,-411.0973C507.1986,-406.5789 299.5311,-393.54 127.5,-367 120.6303,-365.9402 113.429,-364.6186 106.3571,-363.1971"/>
<polygon fill="#191970" stroke="#191970" points="106.6468,-359.6821 96.1422,-361.0617 105.2144,-366.534 106.6468,-359.6821"/>
</g>
<!-- Node24&#45;&gt;Node2 -->
<g id="edge35" class="edge">
<title>Node24&#45;&gt;Node2</title>
<path fill="none" stroke="#191970" d="M432.4946,-341.9814C409.469,-334.4663 382.2732,-321.5402 366.5,-300 316.7344,-232.039 286.3564,-174.7949 342.5,-112 365.1332,-86.6855 579.2084,-73.6337 688.6839,-68.5678"/>
<polygon fill="#191970" stroke="#191970" points="689.1108,-72.0521 698.9419,-68.1023 688.7934,-65.0593 689.1108,-72.0521"/>
</g>
<!-- Node25 -->
<g id="node26" class="node">
<title>Node25</title>
<polygon fill="none" stroke="#bfbfbf" points="555,-280.5 555,-299.5 602,-299.5 602,-280.5 555,-280.5"/>
<text text-anchor="middle" x="578.5" y="-287.5" font-family="Helvetica,sans-Serif" font-size="10.00" fill="#000000">vector</text>
</g>
<!-- Node24&#45;&gt;Node25 -->
<g id="edge36" class="edge">
<title>Node24&#45;&gt;Node25</title>
<path fill="none" stroke="#191970" d="M489.9063,-341.8906C506.9353,-331.9165 533.7841,-316.1908 553.4651,-304.6633"/>
<polygon fill="#191970" stroke="#191970" points="555.349,-307.6161 562.209,-299.5419 551.8112,-301.5759 555.349,-307.6161"/>
</g>
<!-- Node26 -->
<g id="node27" class="node">
<title>Node26</title>
<polygon fill="none" stroke="#bfbfbf" points="492.5,-280.5 492.5,-299.5 536.5,-299.5 536.5,-280.5 492.5,-280.5"/>
<text text-anchor="middle" x="514.5" y="-287.5" font-family="Helvetica,sans-Serif" font-size="10.00" fill="#000000">string</text>
</g>
<!-- Node24&#45;&gt;Node26 -->
<g id="edge37" class="edge">
<title>Node24&#45;&gt;Node26</title>
<path fill="none" stroke="#191970" d="M479.9063,-341.8906C485.8886,-332.917 494.9747,-319.2879 502.3339,-308.2491"/>
<polygon fill="#191970" stroke="#191970" points="505.3686,-310.0068 508.0034,-299.7449 499.5442,-306.1239 505.3686,-310.0068"/>
</g>
<!-- Node27 -->
<g id="node28" class="node">
<title>Node27</title>
<g id="a_node28"><a xlink:href="../../da/d08/qconfig_8h.html" target="_top" xlink:title="utils/qconfig.h">
<polygon fill="none" stroke="#000000" points="389,-280.5 389,-299.5 474,-299.5 474,-280.5 389,-280.5"/>
<text text-anchor="middle" x="431.5" y="-287.5" font-family="Helvetica,sans-Serif" font-size="10.00" fill="#000000">utils/qconfig.h</text>
</a>
</g>
</g>
<!-- Node24&#45;&gt;Node27 -->
<g id="edge38" class="edge">
<title>Node24&#45;&gt;Node27</title>
<path fill="none" stroke="#191970" d="M466.9375,-341.8906C460.8092,-332.917 451.5015,-319.2879 443.9628,-308.2491"/>
<polygon fill="#191970" stroke="#191970" points="446.685,-306.029 438.155,-299.7449 440.9044,-309.9768 446.685,-306.029"/>
</g>
<!-- Node28 -->
<g id="node29" class="node">
<title>Node28</title>
<g id="a_node29"><a xlink:href="../../d8/de9/qconfigoptions_8h.html" target="_top" xlink:title="qconfigoptions.h">
<polygon fill="none" stroke="#000000" points="389,-224.5 389,-243.5 486,-243.5 486,-224.5 389,-224.5"/>
<text text-anchor="middle" x="437.5" y="-231.5" font-family="Helvetica,sans-Serif" font-size="10.00" fill="#000000">qconfigoptions.h</text>
</a>
</g>
</g>
<!-- Node27&#45;&gt;Node28 -->
<g id="edge39" class="edge">
<title>Node27&#45;&gt;Node28</title>
<path fill="none" stroke="#191970" d="M432.5451,-280.2455C433.328,-272.9382 434.4256,-262.6944 435.3888,-253.7046"/>
<polygon fill="#191970" stroke="#191970" points="438.8815,-253.9587 436.4669,-243.6427 431.9214,-253.2129 438.8815,-253.9587"/>
</g>
<!-- Node29 -->
<g id="node30" class="node">
<title>Node29</title>
<g id="a_node30"><a xlink:href="../../d4/d57/GPUSettingsList_8h.html" target="_top" xlink:title="GPUSettingsList.h">
<polygon fill="none" stroke="#000000" points="385.5,-168.5 385.5,-187.5 489.5,-187.5 489.5,-168.5 385.5,-168.5"/>
<text text-anchor="middle" x="437.5" y="-175.5" font-family="Helvetica,sans-Serif" font-size="10.00" fill="#000000">GPUSettingsList.h</text>
</a>
</g>
</g>
<!-- Node28&#45;&gt;Node29 -->
<g id="edge40" class="edge">
<title>Node28&#45;&gt;Node29</title>
<path fill="none" stroke="#191970" d="M437.5,-224.2455C437.5,-216.9382 437.5,-206.6944 437.5,-197.7046"/>
<polygon fill="#191970" stroke="#191970" points="441.0001,-197.6426 437.5,-187.6427 434.0001,-197.6427 441.0001,-197.6426"/>
</g>
<!-- Node29&#45;&gt;Node10 -->
<g id="edge41" class="edge">
<title>Node29&#45;&gt;Node10</title>
<path fill="none" stroke="#191970" d="M437.5,-168.2455C437.5,-160.9382 437.5,-150.6944 437.5,-141.7046"/>
<polygon fill="#191970" stroke="#191970" points="441.0001,-141.6426 437.5,-131.6427 434.0001,-141.6427 441.0001,-141.6426"/>
</g>
<!-- Node29&#45;&gt;Node24 -->
<g id="edge42" class="edge">
<title>Node29&#45;&gt;Node24</title>
<path fill="none" stroke="#191970" d="M417.6759,-187.6305C404.1785,-195.3864 387.3843,-207.6839 379.5,-224 364.8037,-254.4131 362.2847,-270.9385 379.5,-300 390.1605,-317.9962 409.5822,-330.1177 428.0159,-338.0539"/>
<polygon fill="#191970" stroke="#191970" points="426.9283,-341.3879 437.5138,-341.8314 429.5153,-334.8835 426.9283,-341.3879"/>
</g>
<!-- Node30&#45;&gt;Node2 -->
<g id="edge44" class="edge">
<title>Node30&#45;&gt;Node2</title>
<path fill="none" stroke="#191970" d="M59.8371,-341.8871C66.4316,-322.0052 80.5,-274.8082 80.5,-234 80.5,-234 80.5,-234 80.5,-178 80.5,-141.989 96.1196,-129.6653 127.5,-112 175.5299,-84.962 539.118,-71.9065 688.6112,-67.6385"/>
<polygon fill="#191970" stroke="#191970" points="689.0998,-71.1262 698.9974,-67.3463 688.9029,-64.129 689.0998,-71.1262"/>
</g>
<!-- Node31&#45;&gt;Node20 -->
<g id="edge53" class="edge">
<title>Node31&#45;&gt;Node20</title>
<path fill="none" stroke="#191970" d="M1166.6445,-280.3733C1186.3892,-271.3838 1216.0698,-257.8706 1238.3055,-247.7471"/>
<polygon fill="#191970" stroke="#191970" points="1239.9806,-250.8302 1247.6315,-243.5011 1237.08,-244.4594 1239.9806,-250.8302"/>
</g>
<!-- Node32 -->
<g id="node33" class="node">
<title>Node32</title>
<g id="a_node33"><a xlink:href="../../da/d28/GPUO2FakeClasses_8h.html" target="_top" xlink:title="GPUO2FakeClasses.h">
<polygon fill="none" stroke="#000000" points="1085.5,-224.5 1085.5,-243.5 1205.5,-243.5 1205.5,-224.5 1085.5,-224.5"/>
<text text-anchor="middle" x="1145.5" y="-231.5" font-family="Helvetica,sans-Serif" font-size="10.00" fill="#000000">GPUO2FakeClasses.h</text>
</a>
</g>
</g>
<!-- Node31&#45;&gt;Node32 -->
<g id="edge48" class="edge">
<title>Node31&#45;&gt;Node32</title>
<path fill="none" stroke="#191970" d="M1145.5,-280.2455C1145.5,-272.9382 1145.5,-262.6944 1145.5,-253.7046"/>
<polygon fill="#191970" stroke="#191970" points="1149.0001,-253.6426 1145.5,-243.6427 1142.0001,-253.6427 1149.0001,-253.6426"/>
</g>
<!-- Node32&#45;&gt;Node2 -->
<g id="edge49" class="edge">
<title>Node32&#45;&gt;Node2</title>
<path fill="none" stroke="#191970" d="M1147.3228,-224.3597C1151.084,-201.2141 1156.9157,-142.1901 1125.5,-112 1119.9724,-106.6881 921.4231,-84.3722 816.3184,-72.89"/>
<polygon fill="#191970" stroke="#191970" points="816.4604,-69.3848 806.1399,-71.78 815.7015,-76.3436 816.4604,-69.3848"/>
</g>
<!-- Node33 -->
<g id="node34" class="node">
<title>Node33</title>
<g id="a_node34"><a xlink:href="../../d4/dc5/GPUDataTypes_8h.html" target="_top" xlink:title="GPUDataTypes.h">
<polygon fill="none" stroke="#000000" points="799.5,-168.5 799.5,-187.5 897.5,-187.5 897.5,-168.5 799.5,-168.5"/>
<text text-anchor="middle" x="848.5" y="-175.5" font-family="Helvetica,sans-Serif" font-size="10.00" fill="#000000">GPUDataTypes.h</text>
</a>
</g>
</g>
<!-- Node32&#45;&gt;Node33 -->
<g id="edge50" class="edge">
<title>Node32&#45;&gt;Node33</title>
<path fill="none" stroke="#191970" d="M1094.7813,-224.4369C1042.8435,-214.6439 962.1787,-199.4344 907.4358,-189.1125"/>
<polygon fill="#191970" stroke="#191970" points="908.0039,-185.658 897.5286,-187.2444 906.7069,-192.5368 908.0039,-185.658"/>
</g>
<!-- Node33&#45;&gt;Node2 -->
<g id="edge51" class="edge">
<title>Node33&#45;&gt;Node2</title>
<path fill="none" stroke="#191970" d="M840.3151,-168.4509C824.0909,-149.5227 787.6549,-107.014 767.1811,-83.1279"/>
<polygon fill="#191970" stroke="#191970" points="769.8295,-80.8397 760.6642,-75.5249 764.5147,-85.3953 769.8295,-80.8397"/>
</g>
<!-- Node33&#45;&gt;Node21 -->
<g id="edge52" class="edge">
<title>Node33&#45;&gt;Node21</title>
<path fill="none" stroke="#191970" d="M881.3341,-168.3733C915.2139,-158.4399 967.933,-142.983 1003.0755,-132.6794"/>
<polygon fill="#191970" stroke="#191970" points="1004.3223,-135.9613 1012.9336,-129.7891 1002.3528,-129.244 1004.3223,-135.9613"/>
</g>
<!-- Node35&#45;&gt;Node8 -->
<g id="edge56" class="edge">
<title>Node35&#45;&gt;Node8</title>
<path fill="none" stroke="#191970" d="M768.0425,-280.2455C755.4268,-271.7337 736.9056,-259.2375 722.2955,-249.3801"/>
<polygon fill="#191970" stroke="#191970" points="724.0391,-246.3343 713.7918,-243.6427 720.1239,-252.1371 724.0391,-246.3343"/>
</g>
<!-- Node36 -->
<g id="node37" class="node">
<title>Node36</title>
<g id="a_node37"><a xlink:href="../../d9/de5/GPUGeneralKernels_8h.html" target="_top" xlink:title="GPUGeneralKernels.h">
<polygon fill="none" stroke="#000000" points="759,-224.5 759,-243.5 880,-243.5 880,-224.5 759,-224.5"/>
<text text-anchor="middle" x="819.5" y="-231.5" font-family="Helvetica,sans-Serif" font-size="10.00" fill="#000000">GPUGeneralKernels.h</text>
</a>
</g>
</g>
<!-- Node35&#45;&gt;Node36 -->
<g id="edge57" class="edge">
<title>Node35&#45;&gt;Node36</title>
<path fill="none" stroke="#191970" d="M788.9449,-280.2455C794.0382,-272.5367 801.2908,-261.5598 807.452,-252.2348"/>
<polygon fill="#191970" stroke="#191970" points="810.5365,-253.9155 813.1289,-243.6427 804.6962,-250.0566 810.5365,-253.9155"/>
</g>
<!-- Node36&#45;&gt;Node9 -->
<g id="edge58" class="edge">
<title>Node36&#45;&gt;Node9</title>
<path fill="none" stroke="#191970" d="M792.8546,-224.3733C767.3036,-215.1419 728.5488,-201.1402 700.3091,-190.9375"/>
<polygon fill="#191970" stroke="#191970" points="701.3921,-187.6074 690.7978,-187.5011 699.0135,-194.1909 701.3921,-187.6074"/>
</g>
<!-- Node36&#45;&gt;Node33 -->
<g id="edge59" class="edge">
<title>Node36&#45;&gt;Node33</title>
<path fill="none" stroke="#191970" d="M824.5514,-224.2455C828.5019,-216.617 834.1097,-205.7881 838.9058,-196.5267"/>
<polygon fill="#191970" stroke="#191970" points="842.0159,-198.1321 843.5065,-187.6427 835.7999,-194.9131 842.0159,-198.1321"/>
</g>
</g>
</svg>
        <g id="navigator" transform="translate(0 0)" fill="#404254">
                <rect fill="#f2f5e9" fill-opacity="0.5" stroke="#606060" stroke-width=".5" x="0" y="0" width="60" height="60"/>
                <use id="zoomplus" xlink:href="#zoomPlus" x="17" y="9" onmousedown="handleZoom(evt,'in')"/>
                <use id="zoomminus" xlink:href="#zoomMin" x="42" y="9" onmousedown="handleZoom(evt,'out')"/>
                <use id="reset" xlink:href="#resetDef" x="30" y="36" onmousedown="handleReset()"/>
                <g id="arrowUp" xlink:href="#dirArrow" transform="translate(30 24)" onmousedown="handlePan(0,-1)">
                  <use xlink:href="#rim" fill="#404040">
                        <set attributeName="fill" to="#808080" begin="arrowUp.mouseover" end="arrowUp.mouseout"/>
                  </use>
                  <path fill="none" stroke="white" stroke-width="1.5" d="M0,-3.0v7 M-2.5,-0.5L0,-3.0L2.5,-0.5"/>
                </g>
                <g id="arrowRight" xlink:href="#dirArrow" transform="rotate(90) translate(36 -43)" onmousedown="handlePan(1,0)">
                  <use xlink:href="#rim" fill="#404040">
                        <set attributeName="fill" to="#808080" begin="arrowRight.mouseover" end="arrowRight.mouseout"/>
                  </use>
                  <path fill="none" stroke="white" stroke-width="1.5" d="M0,-3.0v7 M-2.5,-0.5L0,-3.0L2.5,-0.5"/>
                </g>
                <g id="arrowDown" xlink:href="#dirArrow" transform="rotate(180) translate(-30 -48)" onmousedown="handlePan(0,1)">
                  <use xlink:href="#rim" fill="#404040">
                        <set attributeName="fill" to="#808080" begin="arrowDown.mouseover" end="arrowDown.mouseout"/>
                  </use>
                  <path fill="none" stroke="white" stroke-width="1.5" d="M0,-3.0v7 M-2.5,-0.5L0,-3.0L2.5,-0.5"/>
                </g>
                <g id="arrowLeft" xlink:href="#dirArrow" transform="rotate(270) translate(-36 17)" onmousedown="handlePan(-1,0)">
                  <use xlink:href="#rim" fill="#404040">
                        <set attributeName="fill" to="#808080" begin="arrowLeft.mouseover" end="arrowLeft.mouseout"/>
                  </use>
                  <path fill="none" stroke="white" stroke-width="1.5" d="M0,-3.0v7 M-2.5,-0.5L0,-3.0L2.5,-0.5"/>
                </g>
        </g>
        <svg viewBox="0 0 15 15" width="100%" height="30px" preserveAspectRatio="xMaxYMin meet">
         <g id="arrow_out" transform="scale(0.3 0.3)">
          <a xlink:href="GPUTPCGMPropagator_8cxx__incl_org.svg" target="_base">
           <rect id="button" ry="5" rx="5" y="6" x="6" height="38" width="38"
                fill="#f2f5e9" fill-opacity="0.5" stroke="#606060" stroke-width="1.0"/>
           <path id="arrow"
             d="M 11.500037,31.436501 C 11.940474,20.09759 22.043105,11.32322 32.158766,21.979434 L 37.068811,17.246167 C 37.068811,17.246167 37.088388,32 37.088388,32 L 22.160133,31.978069 C 22.160133,31.978069 26.997745,27.140456 26.997745,27.140456 C 18.528582,18.264221 13.291696,25.230495 11.500037,31.436501 z"
             style="fill:#404040;"/>
          </a>
         </g>
        </svg>
</svg>
