<?xml version="1.0" encoding="UTF-8" standalone="no"?>
<!DOCTYPE svg PUBLIC "-//W3C//DTD SVG 1.1//EN"
 "http://www.w3.org/Graphics/SVG/1.1/DTD/svg11.dtd">
<!-- Generated by graphviz version 2.40.1 (20161225.0304)
 -->
<!-- Title: /home/travis/build/AliceO2Group/AliceO2/Detectors/TRD/base/src/CalPad.cxx Pages: 1 -->
<svg width="2543pt" height="497pt"
 viewBox="0.00 0.00 2542.50 497.00" xmlns="http://www.w3.org/2000/svg" xmlns:xlink="http://www.w3.org/1999/xlink">
<g id="graph0" class="graph" transform="scale(1 1) rotate(0) translate(4 493)">
<title>/home/travis/build/AliceO2Group/AliceO2/Detectors/TRD/base/src/CalPad.cxx</title>
<!-- Node0 -->
<g id="node1" class="node">
<title>Node0</title>
<polygon fill="#bfbfbf" stroke="#000000" points="890,-436.5 890,-488.5 1024,-488.5 1024,-436.5 890,-436.5"/>
<text text-anchor="start" x="898" y="-476.5" font-family="Helvetica,sans-Serif" font-size="10.00" fill="#000000">/home/travis/build</text>
<text text-anchor="start" x="898" y="-465.5" font-family="Helvetica,sans-Serif" font-size="10.00" fill="#000000">/AliceO2Group/AliceO2</text>
<text text-anchor="start" x="898" y="-454.5" font-family="Helvetica,sans-Serif" font-size="10.00" fill="#000000">/Detectors/TRD/base/src</text>
<text text-anchor="middle" x="957" y="-443.5" font-family="Helvetica,sans-Serif" font-size="10.00" fill="#000000">/CalPad.cxx</text>
</g>
<!-- Node1 -->
<g id="node2" class="node">
<title>Node1</title>
<polygon fill="none" stroke="#bfbfbf" points="604,-380.5 604,-399.5 660,-399.5 660,-380.5 604,-380.5"/>
<text text-anchor="middle" x="632" y="-387.5" font-family="Helvetica,sans-Serif" font-size="10.00" fill="#000000">TMath.h</text>
</g>
<!-- Node0&#45;&gt;Node1 -->
<g id="edge1" class="edge">
<title>Node0&#45;&gt;Node1</title>
<path fill="none" stroke="#191970" d="M889.8589,-448.9258C833.6359,-437.3309 751.0693,-419.7743 670.1076,-400.1886"/>
<polygon fill="#191970" stroke="#191970" points="670.7879,-396.7521 660.2441,-397.7903 669.134,-403.554 670.7879,-396.7521"/>
</g>
<!-- Node2 -->
<g id="node3" class="node">
<title>Node2</title>
<polygon fill="none" stroke="#bfbfbf" points="678.5,-380.5 678.5,-399.5 727.5,-399.5 727.5,-380.5 678.5,-380.5"/>
<text text-anchor="middle" x="703" y="-387.5" font-family="Helvetica,sans-Serif" font-size="10.00" fill="#000000">TH2F.h</text>
</g>
<!-- Node0&#45;&gt;Node2 -->
<g id="edge2" class="edge">
<title>Node0&#45;&gt;Node2</title>
<path fill="none" stroke="#191970" d="M889.6891,-443.8149C848.2542,-432.231 793.8098,-416.8647 737.6189,-400.4447"/>
<polygon fill="#191970" stroke="#191970" points="738.432,-397.0359 727.8514,-397.5848 736.465,-403.7538 738.432,-397.0359"/>
</g>
<!-- Node3 -->
<g id="node4" class="node">
<title>Node3</title>
<polygon fill="none" stroke="#bfbfbf" points="745.5,-380.5 745.5,-399.5 794.5,-399.5 794.5,-380.5 745.5,-380.5"/>
<text text-anchor="middle" x="770" y="-387.5" font-family="Helvetica,sans-Serif" font-size="10.00" fill="#000000">TH1F.h</text>
</g>
<!-- Node0&#45;&gt;Node3 -->
<g id="edge3" class="edge">
<title>Node0&#45;&gt;Node3</title>
<path fill="none" stroke="#191970" d="M889.7529,-436.4283C860.6716,-425.1534 827.9031,-412.449 804.0048,-403.1837"/>
<polygon fill="#191970" stroke="#191970" points="805.2539,-399.9142 794.6649,-399.5626 802.7234,-406.4408 805.2539,-399.9142"/>
</g>
<!-- Node4 -->
<g id="node5" class="node">
<title>Node4</title>
<polygon fill="none" stroke="#bfbfbf" points="813,-380.5 813,-399.5 869,-399.5 869,-380.5 813,-380.5"/>
<text text-anchor="middle" x="841" y="-387.5" font-family="Helvetica,sans-Serif" font-size="10.00" fill="#000000">TStyle.h</text>
</g>
<!-- Node0&#45;&gt;Node4 -->
<g id="edge4" class="edge">
<title>Node0&#45;&gt;Node4</title>
<path fill="none" stroke="#191970" d="M915.1213,-436.3258C898.2991,-425.8119 879.5113,-414.0696 865.0603,-405.0377"/>
<polygon fill="#191970" stroke="#191970" points="866.5894,-401.866 856.2544,-399.534 862.8794,-407.802 866.5894,-401.866"/>
</g>
<!-- Node5 -->
<g id="node6" class="node">
<title>Node5</title>
<g id="a_node6"><a xlink:href="../../d5/d76/CalPad_8h.html" target="_top" xlink:title="TRDBase/CalPad.h">
<polygon fill="none" stroke="#000000" points="1226,-319 1226,-338 1332,-338 1332,-319 1226,-319"/>
<text text-anchor="middle" x="1279" y="-326" font-family="Helvetica,sans-Serif" font-size="10.00" fill="#000000">TRDBase/CalPad.h</text>
</a>
</g>
</g>
<!-- Node0&#45;&gt;Node5 -->
<g id="edge5" class="edge">
<title>Node0&#45;&gt;Node5</title>
<path fill="none" stroke="#191970" d="M1019.8492,-436.3453C1087.9074,-408.023 1193.8046,-363.954 1246.6778,-341.9509"/>
<polygon fill="#191970" stroke="#191970" points="1248.0245,-345.1815 1255.9123,-338.1079 1245.335,-338.7187 1248.0245,-345.1815"/>
</g>
<!-- Node7 -->
<g id="node8" class="node">
<title>Node7</title>
<g id="a_node8"><a xlink:href="../../dd/d07/TRDGeometry_8h.html" target="_top" xlink:title="TRDBase/TRDGeometry.h">
<polygon fill="none" stroke="#000000" points="887,-380.5 887,-399.5 1027,-399.5 1027,-380.5 887,-380.5"/>
<text text-anchor="middle" x="957" y="-387.5" font-family="Helvetica,sans-Serif" font-size="10.00" fill="#000000">TRDBase/TRDGeometry.h</text>
</a>
</g>
</g>
<!-- Node0&#45;&gt;Node7 -->
<g id="edge7" class="edge">
<title>Node0&#45;&gt;Node7</title>
<path fill="none" stroke="#191970" d="M957,-436.3258C957,-427.5142 957,-417.8397 957,-409.621"/>
<polygon fill="#191970" stroke="#191970" points="960.5001,-409.534 957,-399.534 953.5001,-409.534 960.5001,-409.534"/>
</g>
<!-- Node15 -->
<g id="node16" class="node">
<title>Node15</title>
<g id="a_node16"><a xlink:href="../../de/df3/TRDPadPlane_8h.html" target="_top" xlink:title="TRDBase/TRDPadPlane.h">
<polygon fill="none" stroke="#000000" points="2397.5,-252 2397.5,-271 2534.5,-271 2534.5,-252 2397.5,-252"/>
<text text-anchor="middle" x="2466" y="-259" font-family="Helvetica,sans-Serif" font-size="10.00" fill="#000000">TRDBase/TRDPadPlane.h</text>
</a>
</g>
</g>
<!-- Node0&#45;&gt;Node15 -->
<g id="edge71" class="edge">
<title>Node0&#45;&gt;Node15</title>
<path fill="none" stroke="#191970" d="M1024.0093,-455.1167C1228.3571,-432.3151 1861.4723,-359.5535 2383,-277 2390.9259,-275.7454 2399.2573,-274.3186 2407.4585,-272.8506"/>
<polygon fill="#191970" stroke="#191970" points="2408.1498,-276.2824 2417.3615,-271.0484 2406.8964,-269.3955 2408.1498,-276.2824"/>
</g>
<!-- Node52 -->
<g id="node53" class="node">
<title>Node52</title>
<g id="a_node53"><a xlink:href="../../da/d87/CalROC_8h.html" target="_top" xlink:title="CalROC.h">
<polygon fill="none" stroke="#000000" points="1811,-380.5 1811,-399.5 1873,-399.5 1873,-380.5 1811,-380.5"/>
<text text-anchor="middle" x="1842" y="-387.5" font-family="Helvetica,sans-Serif" font-size="10.00" fill="#000000">CalROC.h</text>
</a>
</g>
</g>
<!-- Node0&#45;&gt;Node52 -->
<g id="edge72" class="edge">
<title>Node0&#45;&gt;Node52</title>
<path fill="none" stroke="#191970" d="M1024.0556,-460.7956C1166.8934,-456.4457 1511.4563,-442.1248 1797,-400 1798.247,-399.816 1799.5109,-399.6169 1800.7848,-399.405"/>
<polygon fill="#191970" stroke="#191970" points="1801.4432,-402.8427 1810.6363,-397.5761 1800.1654,-395.9603 1801.4432,-402.8427"/>
</g>
<!-- Node53 -->
<g id="node54" class="node">
<title>Node53</title>
<polygon fill="none" stroke="#bfbfbf" points="1891.5,-380.5 1891.5,-399.5 1950.5,-399.5 1950.5,-380.5 1891.5,-380.5"/>
<text text-anchor="middle" x="1921" y="-387.5" font-family="Helvetica,sans-Serif" font-size="10.00" fill="#000000">CalDet.h</text>
</g>
<!-- Node0&#45;&gt;Node53 -->
<g id="edge73" class="edge">
<title>Node0&#45;&gt;Node53</title>
<path fill="none" stroke="#191970" d="M1024.2685,-459.5615C1204.7445,-451.4263 1697.7709,-427.4852 1881.2383,-399.7869"/>
<polygon fill="#191970" stroke="#191970" points="1881.9687,-403.2153 1891.3078,-398.212 1880.887,-396.2994 1881.9687,-403.2153"/>
</g>
<!-- Node6 -->
<g id="node7" class="node">
<title>Node6</title>
<g id="a_node7"><a xlink:href="../../d6/dc2/DataFormats_2Detectors_2TRD_2include_2DataFormatsTRD_2Constants_8h.html" target="_top" xlink:title="DataFormatsTRD/Constants.h">
<polygon fill="none" stroke="#000000" points="1591.5,-252 1591.5,-271 1752.5,-271 1752.5,-252 1591.5,-252"/>
<text text-anchor="middle" x="1672" y="-259" font-family="Helvetica,sans-Serif" font-size="10.00" fill="#000000">DataFormatsTRD/Constants.h</text>
</a>
</g>
</g>
<!-- Node5&#45;&gt;Node6 -->
<g id="edge6" class="edge">
<title>Node5&#45;&gt;Node6</title>
<path fill="none" stroke="#191970" d="M1332.0017,-319.4641C1402.9835,-307.3629 1528.8943,-285.8971 1605.9625,-272.7583"/>
<polygon fill="#191970" stroke="#191970" points="1606.7689,-276.1714 1616.0384,-271.0405 1605.5924,-269.271 1606.7689,-276.1714"/>
</g>
<!-- Node8 -->
<g id="node9" class="node">
<title>Node8</title>
<g id="a_node9"><a xlink:href="../../d8/dad/TRDGeometryBase_8h.html" target="_top" xlink:title="TRDBase/TRDGeometryBase.h">
<polygon fill="none" stroke="#000000" points="1589,-319 1589,-338 1755,-338 1755,-319 1589,-319"/>
<text text-anchor="middle" x="1672" y="-326" font-family="Helvetica,sans-Serif" font-size="10.00" fill="#000000">TRDBase/TRDGeometryBase.h</text>
</a>
</g>
</g>
<!-- Node7&#45;&gt;Node8 -->
<g id="edge8" class="edge">
<title>Node7&#45;&gt;Node8</title>
<path fill="none" stroke="#191970" d="M1027.1861,-383.963C1156.7256,-372.8208 1433.378,-349.0248 1578.5942,-336.5342"/>
<polygon fill="#191970" stroke="#191970" points="1579.1556,-339.9989 1588.8188,-335.6547 1578.5557,-333.0247 1579.1556,-339.9989"/>
</g>
<!-- Node16 -->
<g id="node17" class="node">
<title>Node16</title>
<g id="a_node17"><a xlink:href="../../d4/d20/DetMatrixCache_8h.html" target="_top" xlink:title="DetectorsCommonDataFormats\l/DetMatrixCache.h">
<polygon fill="none" stroke="#000000" points="761.5,-313.5 761.5,-343.5 932.5,-343.5 932.5,-313.5 761.5,-313.5"/>
<text text-anchor="start" x="769.5" y="-331.5" font-family="Helvetica,sans-Serif" font-size="10.00" fill="#000000">DetectorsCommonDataFormats</text>
<text text-anchor="middle" x="847" y="-320.5" font-family="Helvetica,sans-Serif" font-size="10.00" fill="#000000">/DetMatrixCache.h</text>
</a>
</g>
</g>
<!-- Node7&#45;&gt;Node16 -->
<g id="edge19" class="edge">
<title>Node7&#45;&gt;Node16</title>
<path fill="none" stroke="#191970" d="M939.8125,-380.3906C924.5807,-371.8747 901.8497,-359.166 882.696,-348.4573"/>
<polygon fill="#191970" stroke="#191970" points="884.3455,-345.3697 873.909,-343.5446 880.9295,-351.4796 884.3455,-345.3697"/>
</g>
<!-- Node21 -->
<g id="node22" class="node">
<title>Node21</title>
<polygon fill="none" stroke="#bfbfbf" points="379.5,-252 379.5,-271 426.5,-271 426.5,-252 379.5,-252"/>
<text text-anchor="middle" x="403" y="-259" font-family="Helvetica,sans-Serif" font-size="10.00" fill="#000000">vector</text>
</g>
<!-- Node7&#45;&gt;Node21 -->
<g id="edge69" class="edge">
<title>Node7&#45;&gt;Node21</title>
<path fill="none" stroke="#191970" d="M889.1494,-380.483C815.8906,-370.018 704.0407,-353.4385 662,-344 559.3632,-320.9572 533.1096,-314.9445 435,-277 433.5966,-276.4572 432.1704,-275.8773 430.7384,-275.2722"/>
<polygon fill="#191970" stroke="#191970" points="431.9386,-271.9737 421.3849,-271.041 429.0534,-278.3515 431.9386,-271.9737"/>
</g>
<!-- Node22 -->
<g id="node23" class="node">
<title>Node22</title>
<g id="a_node23"><a xlink:href="../../d6/d31/DetID_8h.html" target="_top" xlink:title="DetectorsCommonDataFormats\l/DetID.h">
<polygon fill="none" stroke="#000000" points="444.5,-246.5 444.5,-276.5 615.5,-276.5 615.5,-246.5 444.5,-246.5"/>
<text text-anchor="start" x="452.5" y="-264.5" font-family="Helvetica,sans-Serif" font-size="10.00" fill="#000000">DetectorsCommonDataFormats</text>
<text text-anchor="middle" x="530" y="-253.5" font-family="Helvetica,sans-Serif" font-size="10.00" fill="#000000">/DetID.h</text>
</a>
</g>
</g>
<!-- Node7&#45;&gt;Node22 -->
<g id="edge67" class="edge">
<title>Node7&#45;&gt;Node22</title>
<path fill="none" stroke="#191970" d="M905.5382,-380.4577C863.7777,-372.236 803.5811,-359.2953 752,-344 689.7501,-325.5411 619.8263,-298.4635 575.3821,-280.4237"/>
<polygon fill="#191970" stroke="#191970" points="576.6046,-277.1424 566.0234,-276.6056 573.9604,-283.6238 576.6046,-277.1424"/>
</g>
<!-- Node27 -->
<g id="node28" class="node">
<title>Node27</title>
<polygon fill="none" stroke="#bfbfbf" points="0,-118 0,-137 44,-137 44,-118 0,-118"/>
<text text-anchor="middle" x="22" y="-125" font-family="Helvetica,sans-Serif" font-size="10.00" fill="#000000">string</text>
</g>
<!-- Node7&#45;&gt;Node27 -->
<g id="edge68" class="edge">
<title>Node7&#45;&gt;Node27</title>
<path fill="none" stroke="#191970" d="M886.8145,-380.8794C883.8382,-380.5673 880.8904,-380.2724 878,-380 620.8652,-355.7706 548.4089,-407.2514 298,-344 182.9244,-314.9327 143.838,-300.4612 67,-210 50.4893,-190.562 37.3634,-164.1014 29.6449,-146.4423"/>
<polygon fill="#191970" stroke="#191970" points="32.8506,-145.0363 25.7405,-137.1816 26.4004,-147.7558 32.8506,-145.0363"/>
</g>
<!-- Node35 -->
<g id="node36" class="node">
<title>Node35</title>
<polygon fill="none" stroke="#bfbfbf" points="62,-118 62,-137 120,-137 120,-118 62,-118"/>
<text text-anchor="middle" x="91" y="-125" font-family="Helvetica,sans-Serif" font-size="10.00" fill="#000000">memory</text>
</g>
<!-- Node7&#45;&gt;Node35 -->
<g id="edge70" class="edge">
<title>Node7&#45;&gt;Node35</title>
<path fill="none" stroke="#191970" d="M886.798,-381.0359C883.8262,-380.681 880.8839,-380.3343 878,-380 726.1767,-362.4022 685.5814,-375.3911 536,-344 344.2402,-303.7573 253.533,-349.5564 116,-210 99.393,-193.1486 93.763,-165.6494 91.8858,-147.0789"/>
<polygon fill="#191970" stroke="#191970" points="95.3748,-146.7999 91.1483,-137.0847 88.3938,-147.3152 95.3748,-146.7999"/>
</g>
<!-- Node8&#45;&gt;Node6 -->
<g id="edge15" class="edge">
<title>Node8&#45;&gt;Node6</title>
<path fill="none" stroke="#191970" d="M1672,-318.9005C1672,-309.149 1672,-293.7597 1672,-281.3695"/>
<polygon fill="#191970" stroke="#191970" points="1675.5001,-281.0816 1672,-271.0817 1668.5001,-281.0817 1675.5001,-281.0816"/>
</g>
<!-- Node9 -->
<g id="node10" class="node">
<title>Node9</title>
<g id="a_node10"><a xlink:href="../../df/d21/GPUCommonDef_8h.html" target="_top" xlink:title="GPUCommonDef.h">
<polygon fill="none" stroke="#000000" points="1239.5,-56.5 1239.5,-75.5 1346.5,-75.5 1346.5,-56.5 1239.5,-56.5"/>
<text text-anchor="middle" x="1293" y="-63.5" font-family="Helvetica,sans-Serif" font-size="10.00" fill="#000000">GPUCommonDef.h</text>
</a>
</g>
</g>
<!-- Node8&#45;&gt;Node9 -->
<g id="edge9" class="edge">
<title>Node8&#45;&gt;Node9</title>
<path fill="none" stroke="#191970" d="M1755.2477,-323.178C1850.8536,-316.2197 2012.1437,-301.8864 2149,-277 2266.4053,-255.6507 2335.9028,-304.3218 2409,-210 2417.4397,-199.1097 2416.0565,-190.8335 2409,-179 2376.9171,-125.1982 2345.3576,-128.7604 2285,-112 2196.0689,-87.3052 1561.8372,-71.7381 1356.7772,-67.307"/>
<polygon fill="#191970" stroke="#191970" points="1356.8363,-63.8075 1346.7635,-67.0921 1356.686,-70.8059 1356.8363,-63.8075"/>
</g>
<!-- Node12 -->
<g id="node13" class="node">
<title>Node12</title>
<g id="a_node13"><a xlink:href="../../da/d32/TRDCommonParam_8h.html" target="_top" xlink:title="TRDBase/TRDCommonParam.h">
<polygon fill="none" stroke="#000000" points="1972,-252 1972,-271 2140,-271 2140,-252 1972,-252"/>
<text text-anchor="middle" x="2056" y="-259" font-family="Helvetica,sans-Serif" font-size="10.00" fill="#000000">TRDBase/TRDCommonParam.h</text>
</a>
</g>
</g>
<!-- Node8&#45;&gt;Node12 -->
<g id="edge12" class="edge">
<title>Node8&#45;&gt;Node12</title>
<path fill="none" stroke="#191970" d="M1726.61,-318.9717C1796.3205,-306.8087 1916.7734,-285.7921 1991.0967,-272.8243"/>
<polygon fill="#191970" stroke="#191970" points="1992.0183,-276.2164 2001.2678,-271.0496 1990.815,-269.3206 1992.0183,-276.2164"/>
</g>
<!-- Node8&#45;&gt;Node15 -->
<g id="edge16" class="edge">
<title>Node8&#45;&gt;Node15</title>
<path fill="none" stroke="#191970" d="M1725.4903,-318.9719C1739.6026,-316.7273 1754.8437,-314.5421 1769,-313 2040.7498,-283.3963 2111.6607,-310.1564 2383,-277 2391.9759,-275.9032 2401.4454,-274.435 2410.6495,-272.838"/>
<polygon fill="#191970" stroke="#191970" points="2411.2746,-276.2818 2420.4967,-271.0661 2410.0349,-269.3924 2411.2746,-276.2818"/>
</g>
<!-- Node10 -->
<g id="node11" class="node">
<title>Node10</title>
<g id="a_node11"><a xlink:href="../../d5/d93/GPUCommonDefSettings_8h.html" target="_top" xlink:title="GPUCommonDefSettings.h">
<polygon fill="none" stroke="#000000" points="1142,-.5 1142,-19.5 1290,-19.5 1290,-.5 1142,-.5"/>
<text text-anchor="middle" x="1216" y="-7.5" font-family="Helvetica,sans-Serif" font-size="10.00" fill="#000000">GPUCommonDefSettings.h</text>
</a>
</g>
</g>
<!-- Node9&#45;&gt;Node10 -->
<g id="edge10" class="edge">
<title>Node9&#45;&gt;Node10</title>
<path fill="none" stroke="#191970" d="M1279.5876,-56.2455C1267.9943,-47.814 1251.0252,-35.4729 1237.5322,-25.6598"/>
<polygon fill="#191970" stroke="#191970" points="1239.4047,-22.6938 1229.2587,-19.6427 1235.2874,-28.355 1239.4047,-22.6938"/>
</g>
<!-- Node11 -->
<g id="node12" class="node">
<title>Node11</title>
<g id="a_node12"><a xlink:href="../../da/d5a/GPUCommonDefAPI_8h.html" target="_top" xlink:title="GPUCommonDefAPI.h">
<polygon fill="none" stroke="#000000" points="1308,-.5 1308,-19.5 1432,-19.5 1432,-.5 1308,-.5"/>
<text text-anchor="middle" x="1370" y="-7.5" font-family="Helvetica,sans-Serif" font-size="10.00" fill="#000000">GPUCommonDefAPI.h</text>
</a>
</g>
</g>
<!-- Node9&#45;&gt;Node11 -->
<g id="edge11" class="edge">
<title>Node9&#45;&gt;Node11</title>
<path fill="none" stroke="#191970" d="M1306.4124,-56.2455C1318.0057,-47.814 1334.9748,-35.4729 1348.4678,-25.6598"/>
<polygon fill="#191970" stroke="#191970" points="1350.7126,-28.355 1356.7413,-19.6427 1346.5953,-22.6938 1350.7126,-28.355"/>
</g>
<!-- Node13 -->
<g id="node14" class="node">
<title>Node13</title>
<g id="a_node14"><a xlink:href="../../d2/d45/GPUCommonRtypes_8h.html" target="_top" xlink:title="GPUCommonRtypes.h">
<polygon fill="none" stroke="#000000" points="2274.5,-185 2274.5,-204 2399.5,-204 2399.5,-185 2274.5,-185"/>
<text text-anchor="middle" x="2337" y="-192" font-family="Helvetica,sans-Serif" font-size="10.00" fill="#000000">GPUCommonRtypes.h</text>
</a>
</g>
</g>
<!-- Node12&#45;&gt;Node13 -->
<g id="edge13" class="edge">
<title>Node12&#45;&gt;Node13</title>
<path fill="none" stroke="#191970" d="M2095.962,-251.9717C2146.1725,-239.9998 2232.3572,-219.4504 2286.9172,-206.4415"/>
<polygon fill="#191970" stroke="#191970" points="2287.8053,-209.8279 2296.7209,-204.1039 2286.1818,-203.0188 2287.8053,-209.8279"/>
</g>
<!-- Node14 -->
<g id="node15" class="node">
<title>Node14</title>
<polygon fill="none" stroke="#bfbfbf" points="2216.5,-118 2216.5,-137 2275.5,-137 2275.5,-118 2216.5,-118"/>
<text text-anchor="middle" x="2246" y="-125" font-family="Helvetica,sans-Serif" font-size="10.00" fill="#000000">Rtypes.h</text>
</g>
<!-- Node13&#45;&gt;Node14 -->
<g id="edge14" class="edge">
<title>Node13&#45;&gt;Node14</title>
<path fill="none" stroke="#191970" d="M2323.9619,-184.9005C2309.2307,-174.0544 2285.0267,-156.2339 2267.4908,-143.3229"/>
<polygon fill="#191970" stroke="#191970" points="2269.1418,-140.1922 2259.0139,-137.0817 2264.9915,-145.8291 2269.1418,-140.1922"/>
</g>
<!-- Node15&#45;&gt;Node9 -->
<g id="edge18" class="edge">
<title>Node15&#45;&gt;Node9</title>
<path fill="none" stroke="#191970" d="M2468.0255,-251.9204C2473.0853,-225.0346 2483.093,-148.4664 2442,-112 2401.1933,-75.7876 1592.0939,-67.8774 1356.7122,-66.3396"/>
<polygon fill="#191970" stroke="#191970" points="1356.6215,-62.839 1346.5993,-66.2751 1356.5768,-69.8389 1356.6215,-62.839"/>
</g>
<!-- Node15&#45;&gt;Node13 -->
<g id="edge17" class="edge">
<title>Node15&#45;&gt;Node13</title>
<path fill="none" stroke="#191970" d="M2447.5174,-251.9005C2425.7725,-240.6067 2389.4677,-221.7506 2364.436,-208.7497"/>
<polygon fill="#191970" stroke="#191970" points="2365.9359,-205.5849 2355.4483,-204.0817 2362.7095,-211.797 2365.9359,-205.5849"/>
</g>
<!-- Node16&#45;&gt;Node13 -->
<g id="edge23" class="edge">
<title>Node16&#45;&gt;Node13</title>
<path fill="none" stroke="#191970" d="M932.6703,-324.9886C1106.1965,-317.466 1487.4948,-298.7031 1543,-277 1563.6217,-268.9367 1561.2989,-253.8573 1582,-246 1720.7776,-193.3254 2101.5278,-226.9051 2249,-210 2258.6084,-208.8986 2268.756,-207.4143 2278.6102,-205.7991"/>
<polygon fill="#191970" stroke="#191970" points="2279.4656,-209.204 2288.7383,-204.0789 2278.2935,-202.3028 2279.4656,-209.204"/>
</g>
<!-- Node17 -->
<g id="node18" class="node">
<title>Node17</title>
<g id="a_node18"><a xlink:href="../../df/d5b/GPUCommonLogger_8h.html" target="_top" xlink:title="GPUCommonLogger.h">
<polygon fill="none" stroke="#000000" points="785.5,-252 785.5,-271 908.5,-271 908.5,-252 785.5,-252"/>
<text text-anchor="middle" x="847" y="-259" font-family="Helvetica,sans-Serif" font-size="10.00" fill="#000000">GPUCommonLogger.h</text>
</a>
</g>
</g>
<!-- Node16&#45;&gt;Node17 -->
<g id="edge20" class="edge">
<title>Node16&#45;&gt;Node17</title>
<path fill="none" stroke="#191970" d="M847,-313.2967C847,-303.7699 847,-291.3954 847,-281.1306"/>
<polygon fill="#191970" stroke="#191970" points="850.5001,-281.0549 847,-271.055 843.5001,-281.055 850.5001,-281.0549"/>
</g>
<!-- Node20 -->
<g id="node21" class="node">
<title>Node20</title>
<polygon fill="none" stroke="#bfbfbf" points="764,-118 764,-137 806,-137 806,-118 764,-118"/>
<text text-anchor="middle" x="785" y="-125" font-family="Helvetica,sans-Serif" font-size="10.00" fill="#000000">array</text>
</g>
<!-- Node16&#45;&gt;Node20 -->
<g id="edge24" class="edge">
<title>Node16&#45;&gt;Node20</title>
<path fill="none" stroke="#191970" d="M800.6454,-313.3601C756.3038,-296.1114 692.0186,-263.2044 663,-210 656.4028,-197.9044 655.2329,-190.3798 663,-179 687.7525,-142.7341 714.9971,-161.1017 755,-143 755.9881,-142.5529 756.99,-142.0894 757.9987,-141.6144"/>
<polygon fill="#191970" stroke="#191970" points="759.6381,-144.7085 767.0639,-137.1515 756.5463,-138.4283 759.6381,-144.7085"/>
</g>
<!-- Node16&#45;&gt;Node21 -->
<g id="edge25" class="edge">
<title>Node16&#45;&gt;Node21</title>
<path fill="none" stroke="#191970" d="M761.3422,-321.1041C659.0322,-311.692 494.2716,-294.5398 435,-277 433.1354,-276.4482 431.2452,-275.7976 429.3639,-275.0807"/>
<polygon fill="#191970" stroke="#191970" points="430.758,-271.8704 420.1915,-271.0961 427.9689,-278.2907 430.758,-271.8704"/>
</g>
<!-- Node16&#45;&gt;Node22 -->
<g id="edge26" class="edge">
<title>Node16&#45;&gt;Node22</title>
<path fill="none" stroke="#191970" d="M775.859,-313.4639C727.0002,-303.1373 662.0354,-289.4065 611.1563,-278.6529"/>
<polygon fill="#191970" stroke="#191970" points="611.6849,-275.1874 601.1772,-276.5438 610.2373,-282.0361 611.6849,-275.1874"/>
</g>
<!-- Node41 -->
<g id="node42" class="node">
<title>Node41</title>
<g id="a_node42"><a xlink:href="../../dd/d76/Cartesian3D_8h.html" target="_top" xlink:title="MathUtils/Cartesian3D.h">
<polygon fill="none" stroke="#000000" points="1399.5,-252 1399.5,-271 1534.5,-271 1534.5,-252 1399.5,-252"/>
<text text-anchor="middle" x="1467" y="-259" font-family="Helvetica,sans-Serif" font-size="10.00" fill="#000000">MathUtils/Cartesian3D.h</text>
</a>
</g>
</g>
<!-- Node16&#45;&gt;Node41 -->
<g id="edge55" class="edge">
<title>Node16&#45;&gt;Node41</title>
<path fill="none" stroke="#191970" d="M932.5574,-319.2543C1053.4798,-306.1869 1272.604,-282.5073 1389.1713,-269.9105"/>
<polygon fill="#191970" stroke="#191970" points="1389.8739,-273.3551 1399.44,-268.8008 1389.1218,-266.3956 1389.8739,-273.3551"/>
</g>
<!-- Node18 -->
<g id="node19" class="node">
<title>Node18</title>
<polygon fill="none" stroke="#bfbfbf" points="852,-185 852,-204 912,-204 912,-185 852,-185"/>
<text text-anchor="middle" x="882" y="-192" font-family="Helvetica,sans-Serif" font-size="10.00" fill="#000000">iostream</text>
</g>
<!-- Node17&#45;&gt;Node18 -->
<g id="edge21" class="edge">
<title>Node17&#45;&gt;Node18</title>
<path fill="none" stroke="#191970" d="M852.0146,-251.9005C857.2647,-241.8505 865.6429,-225.8122 872.2103,-213.2403"/>
<polygon fill="#191970" stroke="#191970" points="875.4666,-214.5657 876.9947,-204.0817 869.2622,-211.3246 875.4666,-214.5657"/>
</g>
<!-- Node19 -->
<g id="node20" class="node">
<title>Node19</title>
<polygon fill="none" stroke="#bfbfbf" points="788,-185 788,-204 834,-204 834,-185 788,-185"/>
<text text-anchor="middle" x="811" y="-192" font-family="Helvetica,sans-Serif" font-size="10.00" fill="#000000">cstdio</text>
</g>
<!-- Node17&#45;&gt;Node19 -->
<g id="edge22" class="edge">
<title>Node17&#45;&gt;Node19</title>
<path fill="none" stroke="#191970" d="M841.8421,-251.9005C836.4421,-241.8505 827.8245,-225.8122 821.0694,-213.2403"/>
<polygon fill="#191970" stroke="#191970" points="823.9647,-211.234 816.1484,-204.0817 817.7984,-214.5472 823.9647,-211.234"/>
</g>
<!-- Node22&#45;&gt;Node14 -->
<g id="edge27" class="edge">
<title>Node22&#45;&gt;Node14</title>
<path fill="none" stroke="#191970" d="M615.7192,-256.0751C758.2818,-246.6527 1032.6156,-226.6735 1074,-210 1094.5379,-201.7255 1092.2657,-186.7693 1113,-179 1165.1945,-159.4423 2011.6446,-134.1863 2206.3048,-128.6178"/>
<polygon fill="#191970" stroke="#191970" points="2206.4822,-132.1143 2216.3784,-128.3306 2206.2826,-125.1171 2206.4822,-132.1143"/>
</g>
<!-- Node22&#45;&gt;Node20 -->
<g id="edge28" class="edge">
<title>Node22&#45;&gt;Node20</title>
<path fill="none" stroke="#191970" d="M544.4922,-246.1897C562.773,-227.7275 595.9538,-196.9464 630,-179 681.1434,-152.0414 701.2816,-164.3719 755,-143 756.195,-142.5246 757.4054,-142.0168 758.62,-141.4858"/>
<polygon fill="#191970" stroke="#191970" points="760.294,-144.5653 767.8203,-137.1084 757.2865,-138.2443 760.294,-144.5653"/>
</g>
<!-- Node23 -->
<g id="node24" class="node">
<title>Node23</title>
<polygon fill="none" stroke="#bfbfbf" points="125,-185 125,-204 169,-204 169,-185 125,-185"/>
<text text-anchor="middle" x="147" y="-192" font-family="Helvetica,sans-Serif" font-size="10.00" fill="#000000">bitset</text>
</g>
<!-- Node22&#45;&gt;Node23 -->
<g id="edge29" class="edge">
<title>Node22&#45;&gt;Node23</title>
<path fill="none" stroke="#191970" d="M444.3075,-247.4384C441.1664,-246.9485 438.056,-246.4675 435,-246 323.1642,-228.89 291.9095,-240.6384 183,-210 180.8179,-209.3861 178.5941,-208.6696 176.3764,-207.8874"/>
<polygon fill="#191970" stroke="#191970" points="177.4289,-204.5408 166.8411,-204.1537 174.8765,-211.0589 177.4289,-204.5408"/>
</g>
<!-- Node24 -->
<g id="node25" class="node">
<title>Node24</title>
<polygon fill="none" stroke="#bfbfbf" points="138,-118 138,-137 190,-137 190,-118 138,-118"/>
<text text-anchor="middle" x="164" y="-125" font-family="Helvetica,sans-Serif" font-size="10.00" fill="#000000">cassert</text>
</g>
<!-- Node22&#45;&gt;Node24 -->
<g id="edge30" class="edge">
<title>Node22&#45;&gt;Node24</title>
<path fill="none" stroke="#191970" d="M444.1967,-247.2901C358.4478,-232.982 238.6335,-212.6512 234,-210 207.2213,-194.6774 185.9894,-165.0555 174.2102,-145.7907"/>
<polygon fill="#191970" stroke="#191970" points="177.1494,-143.8839 169.0682,-137.0322 171.1128,-147.4279 177.1494,-143.8839"/>
</g>
<!-- Node25 -->
<g id="node26" class="node">
<title>Node25</title>
<polygon fill="none" stroke="#bfbfbf" points="208,-118 208,-137 258,-137 258,-118 208,-118"/>
<text text-anchor="middle" x="233" y="-125" font-family="Helvetica,sans-Serif" font-size="10.00" fill="#000000">cstdint</text>
</g>
<!-- Node22&#45;&gt;Node25 -->
<g id="edge31" class="edge">
<title>Node22&#45;&gt;Node25</title>
<path fill="none" stroke="#191970" d="M444.1723,-246.6113C364.4799,-232.6171 257.5565,-213.3333 254,-210 236.8627,-193.9384 232.9096,-166.0258 232.3759,-147.1654"/>
<polygon fill="#191970" stroke="#191970" points="235.876,-147.0266 232.3905,-137.0215 228.876,-147.0165 235.876,-147.0266"/>
</g>
<!-- Node26 -->
<g id="node27" class="node">
<title>Node26</title>
<polygon fill="none" stroke="#bfbfbf" points="263.5,-185 263.5,-204 336.5,-204 336.5,-185 263.5,-185"/>
<text text-anchor="middle" x="300" y="-192" font-family="Helvetica,sans-Serif" font-size="10.00" fill="#000000">string_view</text>
</g>
<!-- Node22&#45;&gt;Node26 -->
<g id="edge32" class="edge">
<title>Node22&#45;&gt;Node26</title>
<path fill="none" stroke="#191970" d="M472.6521,-246.4909C435.9828,-236.6586 387.4989,-223.2215 345,-210 342.2632,-209.1486 339.4418,-208.2433 336.6091,-207.3144"/>
<polygon fill="#191970" stroke="#191970" points="337.6345,-203.9668 327.0406,-204.1092 335.411,-210.6043 337.6345,-203.9668"/>
</g>
<!-- Node22&#45;&gt;Node27 -->
<g id="edge33" class="edge">
<title>Node22&#45;&gt;Node27</title>
<path fill="none" stroke="#191970" d="M444.3244,-247.3218C441.1786,-246.8647 438.0626,-246.4224 435,-246 293.6602,-226.5065 246.4886,-267.7032 116,-210 82.7869,-195.3129 52.8496,-164.6033 36.0841,-145.0757"/>
<polygon fill="#191970" stroke="#191970" points="38.632,-142.6661 29.5385,-137.2293 33.2567,-147.1502 38.632,-142.6661"/>
</g>
<!-- Node28 -->
<g id="node29" class="node">
<title>Node28</title>
<polygon fill="none" stroke="#bfbfbf" points="499.5,-185 499.5,-204 568.5,-204 568.5,-185 499.5,-185"/>
<text text-anchor="middle" x="534" y="-192" font-family="Helvetica,sans-Serif" font-size="10.00" fill="#000000">type_traits</text>
</g>
<!-- Node22&#45;&gt;Node28 -->
<g id="edge34" class="edge">
<title>Node22&#45;&gt;Node28</title>
<path fill="none" stroke="#191970" d="M530.9077,-246.2967C531.4764,-236.7699 532.2152,-224.3954 532.828,-214.1306"/>
<polygon fill="#191970" stroke="#191970" points="536.3273,-214.2458 533.4296,-204.055 529.3397,-213.8286 536.3273,-214.2458"/>
</g>
<!-- Node29 -->
<g id="node30" class="node">
<title>Node29</title>
<g id="a_node30"><a xlink:href="../../d9/d52/Common_2MathUtils_2include_2MathUtils_2Utils_8h.html" target="_top" xlink:title="MathUtils/Utils.h">
<polygon fill="none" stroke="#000000" points="672,-185 672,-204 770,-204 770,-185 672,-185"/>
<text text-anchor="middle" x="721" y="-192" font-family="Helvetica,sans-Serif" font-size="10.00" fill="#000000">MathUtils/Utils.h</text>
</a>
</g>
</g>
<!-- Node22&#45;&gt;Node29 -->
<g id="edge35" class="edge">
<title>Node22&#45;&gt;Node29</title>
<path fill="none" stroke="#191970" d="M572.8641,-246.4639C606.3099,-234.7316 652.2817,-218.6054 684.1025,-207.4431"/>
<polygon fill="#191970" stroke="#191970" points="685.6251,-210.6182 693.9028,-204.0053 683.308,-204.0128 685.6251,-210.6182"/>
</g>
<!-- Node34 -->
<g id="node35" class="node">
<title>Node34</title>
<g id="a_node35"><a xlink:href="../../dc/dcd/DataHeader_8h.html" target="_top" xlink:title="Headers/DataHeader.h">
<polygon fill="none" stroke="#000000" points="354.5,-185 354.5,-204 481.5,-204 481.5,-185 354.5,-185"/>
<text text-anchor="middle" x="418" y="-192" font-family="Helvetica,sans-Serif" font-size="10.00" fill="#000000">Headers/DataHeader.h</text>
</a>
</g>
</g>
<!-- Node22&#45;&gt;Node34 -->
<g id="edge44" class="edge">
<title>Node22&#45;&gt;Node34</title>
<path fill="none" stroke="#191970" d="M504.865,-246.4639C486.3268,-235.3741 461.226,-220.3584 442.7738,-209.32"/>
<polygon fill="#191970" stroke="#191970" points="444.4328,-206.2341 434.0543,-204.1039 440.8392,-212.2412 444.4328,-206.2341"/>
</g>
<!-- Node29&#45;&gt;Node9 -->
<g id="edge38" class="edge">
<title>Node29&#45;&gt;Node9</title>
<path fill="none" stroke="#191970" d="M752.6855,-184.9584C761.1673,-182.7001 770.3763,-180.5116 779,-179 962.6652,-146.8056 1023.9026,-212.3303 1197,-143 1198.1178,-142.5523 1245.3031,-104.5222 1273.095,-82.0831"/>
<polygon fill="#191970" stroke="#191970" points="1275.4444,-84.6846 1281.025,-75.6786 1271.0462,-79.2388 1275.4444,-84.6846"/>
</g>
<!-- Node29&#45;&gt;Node20 -->
<g id="edge36" class="edge">
<title>Node29&#45;&gt;Node20</title>
<path fill="none" stroke="#191970" d="M730.1696,-184.9005C740.2449,-174.353 756.6207,-157.2096 768.8569,-144.3998"/>
<polygon fill="#191970" stroke="#191970" points="771.4709,-146.7304 775.8474,-137.0817 766.4091,-141.8952 771.4709,-146.7304"/>
</g>
<!-- Node30 -->
<g id="node31" class="node">
<title>Node30</title>
<polygon fill="none" stroke="#bfbfbf" points="1030.5,-56.5 1030.5,-75.5 1077.5,-75.5 1077.5,-56.5 1030.5,-56.5"/>
<text text-anchor="middle" x="1054" y="-63.5" font-family="Helvetica,sans-Serif" font-size="10.00" fill="#000000">cmath</text>
</g>
<!-- Node29&#45;&gt;Node30 -->
<g id="edge37" class="edge">
<title>Node29&#45;&gt;Node30</title>
<path fill="none" stroke="#191970" d="M741.0584,-184.8579C760.5234,-175.1926 790.6146,-159.4247 815,-143 833.0777,-130.8238 833.4181,-121.5714 853,-112 907.8824,-85.1741 978.9085,-73.6723 1020.1699,-68.9846"/>
<polygon fill="#191970" stroke="#191970" points="1020.6664,-72.4516 1030.2383,-67.9097 1019.9232,-65.4911 1020.6664,-72.4516"/>
</g>
<!-- Node31 -->
<g id="node32" class="node">
<title>Node31</title>
<g id="a_node32"><a xlink:href="../../d6/da2/GPUCommonMath_8h.html" target="_top" xlink:title="GPUCommonMath.h">
<polygon fill="none" stroke="#000000" points="1073.5,-118 1073.5,-137 1188.5,-137 1188.5,-118 1073.5,-118"/>
<text text-anchor="middle" x="1131" y="-125" font-family="Helvetica,sans-Serif" font-size="10.00" fill="#000000">GPUCommonMath.h</text>
</a>
</g>
</g>
<!-- Node29&#45;&gt;Node31 -->
<g id="edge39" class="edge">
<title>Node29&#45;&gt;Node31</title>
<path fill="none" stroke="#191970" d="M753.6394,-184.9454C761.8657,-182.7676 770.7146,-180.6208 779,-179 904.7311,-154.4049 938.9088,-165.6768 1065,-143 1070.9369,-141.9323 1077.1419,-140.6709 1083.2697,-139.3361"/>
<polygon fill="#191970" stroke="#191970" points="1084.4629,-142.655 1093.4485,-137.0417 1082.9236,-135.8263 1084.4629,-142.655"/>
</g>
<!-- Node33 -->
<g id="node34" class="node">
<title>Node33</title>
<g id="a_node34"><a xlink:href="../../d6/d84/MathConstants_8h.html" target="_top" xlink:title="useful math constants ">
<polygon fill="none" stroke="#000000" points="862,-118 862,-137 1056,-137 1056,-118 862,-118"/>
<text text-anchor="middle" x="959" y="-125" font-family="Helvetica,sans-Serif" font-size="10.00" fill="#000000">CommonConstants/MathConstants.h</text>
</a>
</g>
</g>
<!-- Node29&#45;&gt;Node33 -->
<g id="edge43" class="edge">
<title>Node29&#45;&gt;Node33</title>
<path fill="none" stroke="#191970" d="M754.8468,-184.9717C796.9327,-173.124 868.859,-152.8758 915.1344,-139.8487"/>
<polygon fill="#191970" stroke="#191970" points="916.2072,-143.1828 924.8846,-137.1039 914.3103,-136.4447 916.2072,-143.1828"/>
</g>
<!-- Node31&#45;&gt;Node9 -->
<g id="edge40" class="edge">
<title>Node31&#45;&gt;Node9</title>
<path fill="none" stroke="#191970" d="M1156.3125,-117.8906C1183.7747,-107.4652 1227.7895,-90.7559 1258.4263,-79.1252"/>
<polygon fill="#191970" stroke="#191970" points="1259.7585,-82.3633 1267.8652,-75.5419 1257.274,-75.819 1259.7585,-82.3633"/>
</g>
<!-- Node31&#45;&gt;Node30 -->
<g id="edge41" class="edge">
<title>Node31&#45;&gt;Node30</title>
<path fill="none" stroke="#191970" d="M1118.9688,-117.8906C1106.9893,-108.3227 1088.3834,-93.4621 1074.1475,-82.0919"/>
<polygon fill="#191970" stroke="#191970" points="1075.9447,-79.0479 1065.9468,-75.5419 1071.5761,-84.5175 1075.9447,-79.0479"/>
</g>
<!-- Node32 -->
<g id="node33" class="node">
<title>Node32</title>
<polygon fill="none" stroke="#bfbfbf" points="567,-56.5 567,-75.5 631,-75.5 631,-56.5 567,-56.5"/>
<text text-anchor="middle" x="599" y="-63.5" font-family="Helvetica,sans-Serif" font-size="10.00" fill="#000000">algorithm</text>
</g>
<!-- Node31&#45;&gt;Node32 -->
<g id="edge42" class="edge">
<title>Node31&#45;&gt;Node32</title>
<path fill="none" stroke="#191970" d="M1094.1723,-117.943C1084.7144,-115.7392 1074.5211,-113.5808 1065,-112 909.9946,-86.2642 723.4187,-73.1684 641.2984,-68.2962"/>
<polygon fill="#191970" stroke="#191970" points="641.3,-64.7904 631.1133,-67.7025 640.8926,-71.7786 641.3,-64.7904"/>
</g>
<!-- Node34&#45;&gt;Node24 -->
<g id="edge47" class="edge">
<title>Node34&#45;&gt;Node24</title>
<path fill="none" stroke="#191970" d="M373.0222,-184.9577C318.757,-173.2642 230.8429,-153.6915 199,-143 197.11,-142.3654 195.1823,-141.6667 193.2518,-140.9276"/>
<polygon fill="#191970" stroke="#191970" points="194.315,-137.5803 183.7358,-137.0055 191.6476,-144.0521 194.315,-137.5803"/>
</g>
<!-- Node34&#45;&gt;Node25 -->
<g id="edge45" class="edge">
<title>Node34&#45;&gt;Node25</title>
<path fill="none" stroke="#191970" d="M389.8929,-184.9513C360.4071,-174.8489 312.7709,-158.286 272,-143 270.158,-142.3094 268.2707,-141.592 266.3682,-140.8613"/>
<polygon fill="#191970" stroke="#191970" points="267.4561,-137.5288 256.8677,-137.1573 264.9133,-144.0507 267.4561,-137.5288"/>
</g>
<!-- Node34&#45;&gt;Node27 -->
<g id="edge51" class="edge">
<title>Node34&#45;&gt;Node27</title>
<path fill="none" stroke="#191970" d="M376.042,-184.9419C365.9109,-182.814 355.0947,-180.6907 345,-179 216.0359,-157.4004 178.1816,-180.7867 53,-143 51.3367,-142.4979 49.6542,-141.9119 47.978,-141.2673"/>
<polygon fill="#191970" stroke="#191970" points="49.1841,-137.9733 38.6245,-137.1107 46.3414,-144.3701 49.1841,-137.9733"/>
</g>
<!-- Node34&#45;&gt;Node32 -->
<g id="edge49" class="edge">
<title>Node34&#45;&gt;Node32</title>
<path fill="none" stroke="#191970" d="M384.0111,-184.9971C341.4018,-171.4476 277.1262,-144.5742 305,-112 321.1604,-93.1145 479.1717,-76.6274 556.628,-69.6055"/>
<polygon fill="#191970" stroke="#191970" points="557.3511,-73.0549 566.9997,-68.6782 556.7277,-66.0827 557.3511,-73.0549"/>
</g>
<!-- Node34&#45;&gt;Node35 -->
<g id="edge46" class="edge">
<title>Node34&#45;&gt;Node35</title>
<path fill="none" stroke="#191970" d="M374.4436,-184.9235C364.7662,-182.8874 354.5474,-180.8083 345,-179 249.3759,-160.8886 222.6349,-169.5424 129,-143 126.5408,-142.3029 124.0246,-141.4968 121.5157,-140.6259"/>
<polygon fill="#191970" stroke="#191970" points="122.6028,-137.2953 112.011,-137.0396 120.1315,-143.8446 122.6028,-137.2953"/>
</g>
<!-- Node36 -->
<g id="node37" class="node">
<title>Node36</title>
<polygon fill="none" stroke="#bfbfbf" points="380,-118 380,-137 430,-137 430,-118 380,-118"/>
<text text-anchor="middle" x="405" y="-125" font-family="Helvetica,sans-Serif" font-size="10.00" fill="#000000">cstring</text>
</g>
<!-- Node34&#45;&gt;Node36 -->
<g id="edge48" class="edge">
<title>Node34&#45;&gt;Node36</title>
<path fill="none" stroke="#191970" d="M416.1374,-184.9005C414.226,-175.0495 411.1983,-159.4451 408.7819,-146.9912"/>
<polygon fill="#191970" stroke="#191970" points="412.1999,-146.2319 406.8591,-137.0817 405.3281,-147.5653 412.1999,-146.2319"/>
</g>
<!-- Node37 -->
<g id="node38" class="node">
<title>Node37</title>
<polygon fill="none" stroke="#bfbfbf" points="448.5,-118 448.5,-137 513.5,-137 513.5,-118 448.5,-118"/>
<text text-anchor="middle" x="481" y="-125" font-family="Helvetica,sans-Serif" font-size="10.00" fill="#000000">stdexcept</text>
</g>
<!-- Node34&#45;&gt;Node37 -->
<g id="edge50" class="edge">
<title>Node34&#45;&gt;Node37</title>
<path fill="none" stroke="#191970" d="M427.0264,-184.9005C436.9442,-174.353 453.0641,-157.2096 465.1091,-144.3998"/>
<polygon fill="#191970" stroke="#191970" points="467.6899,-146.7645 471.9904,-137.0817 462.5903,-141.9693 467.6899,-146.7645"/>
</g>
<!-- Node38 -->
<g id="node39" class="node">
<title>Node38</title>
<polygon fill="none" stroke="#bfbfbf" points="532,-118 532,-137 582,-137 582,-118 532,-118"/>
<text text-anchor="middle" x="557" y="-125" font-family="Helvetica,sans-Serif" font-size="10.00" fill="#000000">climits</text>
</g>
<!-- Node34&#45;&gt;Node38 -->
<g id="edge52" class="edge">
<title>Node34&#45;&gt;Node38</title>
<path fill="none" stroke="#191970" d="M437.9153,-184.9005C461.4491,-173.5569 500.8101,-154.5844 527.7929,-141.5783"/>
<polygon fill="#191970" stroke="#191970" points="529.6332,-144.5766 537.1216,-137.0817 526.5937,-138.2709 529.6332,-144.5766"/>
</g>
<!-- Node39 -->
<g id="node40" class="node">
<title>Node39</title>
<g id="a_node40"><a xlink:href="../../d7/df8/Types_8h.html" target="_top" xlink:title="MemoryResources/Types.h">
<polygon fill="none" stroke="#000000" points="600,-118 600,-137 746,-137 746,-118 600,-118"/>
<text text-anchor="middle" x="673" y="-125" font-family="Helvetica,sans-Serif" font-size="10.00" fill="#000000">MemoryResources/Types.h</text>
</a>
</g>
</g>
<!-- Node34&#45;&gt;Node39 -->
<g id="edge53" class="edge">
<title>Node34&#45;&gt;Node39</title>
<path fill="none" stroke="#191970" d="M454.2645,-184.9717C499.5456,-173.0743 577.0671,-152.7059 626.6233,-139.6852"/>
<polygon fill="#191970" stroke="#191970" points="627.6655,-143.0303 636.4478,-137.1039 625.8866,-136.2601 627.6655,-143.0303"/>
</g>
<!-- Node40 -->
<g id="node41" class="node">
<title>Node40</title>
<polygon fill="none" stroke="#bfbfbf" points="314.5,-118 314.5,-137 361.5,-137 361.5,-118 314.5,-118"/>
<text text-anchor="middle" x="338" y="-125" font-family="Helvetica,sans-Serif" font-size="10.00" fill="#000000">cerrno</text>
</g>
<!-- Node34&#45;&gt;Node40 -->
<g id="edge54" class="edge">
<title>Node34&#45;&gt;Node40</title>
<path fill="none" stroke="#191970" d="M406.538,-184.9005C393.7062,-174.1539 372.6989,-156.5603 357.3187,-143.6794"/>
<polygon fill="#191970" stroke="#191970" points="359.3545,-140.8191 349.4408,-137.0817 354.86,-146.1856 359.3545,-140.8191"/>
</g>
<!-- Node41&#45;&gt;Node14 -->
<g id="edge61" class="edge">
<title>Node41&#45;&gt;Node14</title>
<path fill="none" stroke="#191970" d="M1511.5172,-251.9639C1523.6261,-249.6772 1536.7735,-247.4734 1549,-246 1623.8975,-236.9739 2169.2397,-258.5269 2227,-210 2244.9677,-194.9046 2247.9136,-166.5474 2247.5864,-147.3428"/>
<polygon fill="#191970" stroke="#191970" points="2251.0782,-147.0839 2247.1044,-137.2625 2244.0862,-147.4183 2251.0782,-147.0839"/>
</g>
<!-- Node42 -->
<g id="node43" class="node">
<title>Node42</title>
<polygon fill="none" stroke="#bfbfbf" points="1190,-179.5 1190,-209.5 1354,-209.5 1354,-179.5 1190,-179.5"/>
<text text-anchor="start" x="1198" y="-197.5" font-family="Helvetica,sans-Serif" font-size="10.00" fill="#000000">Math/GenVector/Displacement</text>
<text text-anchor="middle" x="1272" y="-186.5" font-family="Helvetica,sans-Serif" font-size="10.00" fill="#000000">Vector3D.h</text>
</g>
<!-- Node41&#45;&gt;Node42 -->
<g id="edge56" class="edge">
<title>Node41&#45;&gt;Node42</title>
<path fill="none" stroke="#191970" d="M1439.0613,-251.9005C1409.4796,-241.7366 1362.0721,-225.4479 1325.3023,-212.8141"/>
<polygon fill="#191970" stroke="#191970" points="1326.3147,-209.4612 1315.7201,-209.5218 1324.0401,-216.0813 1326.3147,-209.4612"/>
</g>
<!-- Node43 -->
<g id="node44" class="node">
<title>Node43</title>
<polygon fill="none" stroke="#bfbfbf" points="1372.5,-185 1372.5,-204 1561.5,-204 1561.5,-185 1372.5,-185"/>
<text text-anchor="middle" x="1467" y="-192" font-family="Helvetica,sans-Serif" font-size="10.00" fill="#000000">Math/GenVector/PositionVector3D.h</text>
</g>
<!-- Node41&#45;&gt;Node43 -->
<g id="edge57" class="edge">
<title>Node41&#45;&gt;Node43</title>
<path fill="none" stroke="#191970" d="M1467,-251.9005C1467,-242.149 1467,-226.7597 1467,-214.3695"/>
<polygon fill="#191970" stroke="#191970" points="1470.5001,-214.0816 1467,-204.0817 1463.5001,-214.0817 1470.5001,-214.0816"/>
</g>
<!-- Node44 -->
<g id="node45" class="node">
<title>Node44</title>
<polygon fill="none" stroke="#bfbfbf" points="1580,-185 1580,-204 1740,-204 1740,-185 1580,-185"/>
<text text-anchor="middle" x="1660" y="-192" font-family="Helvetica,sans-Serif" font-size="10.00" fill="#000000">Math/GenVector/Rotation3D.h</text>
</g>
<!-- Node41&#45;&gt;Node44 -->
<g id="edge58" class="edge">
<title>Node41&#45;&gt;Node44</title>
<path fill="none" stroke="#191970" d="M1494.6522,-251.9005C1528.3318,-240.2086 1585.3574,-220.4122 1622.8472,-207.3976"/>
<polygon fill="#191970" stroke="#191970" points="1624.1,-210.6677 1632.3991,-204.0817 1621.8043,-204.0548 1624.1,-210.6677"/>
</g>
<!-- Node45 -->
<g id="node46" class="node">
<title>Node45</title>
<polygon fill="none" stroke="#bfbfbf" points="1758,-185 1758,-204 1926,-204 1926,-185 1758,-185"/>
<text text-anchor="middle" x="1842" y="-192" font-family="Helvetica,sans-Serif" font-size="10.00" fill="#000000">Math/GenVector/Transform3D.h</text>
</g>
<!-- Node41&#45;&gt;Node45 -->
<g id="edge59" class="edge">
<title>Node41&#45;&gt;Node45</title>
<path fill="none" stroke="#191970" d="M1516.8489,-251.9715C1527.4567,-249.9735 1538.5953,-247.8977 1549,-246 1627.1705,-231.7426 1717.207,-216.0216 1776.6143,-205.7455"/>
<polygon fill="#191970" stroke="#191970" points="1777.3512,-209.1701 1786.6089,-204.0181 1776.1589,-202.2724 1777.3512,-209.1701"/>
</g>
<!-- Node46 -->
<g id="node47" class="node">
<title>Node46</title>
<polygon fill="none" stroke="#bfbfbf" points="1944.5,-185 1944.5,-204 2117.5,-204 2117.5,-185 1944.5,-185"/>
<text text-anchor="middle" x="2031" y="-192" font-family="Helvetica,sans-Serif" font-size="10.00" fill="#000000">Math/GenVector/Translation3D.h</text>
</g>
<!-- Node41&#45;&gt;Node46 -->
<g id="edge60" class="edge">
<title>Node41&#45;&gt;Node46</title>
<path fill="none" stroke="#191970" d="M1513.276,-251.9675C1524.903,-249.7892 1537.3792,-247.6365 1549,-246 1719.6165,-221.9725 1764.0775,-231.744 1935,-210 1944.9857,-208.7297 1955.5276,-207.2102 1965.8249,-205.6267"/>
<polygon fill="#191970" stroke="#191970" points="1966.6744,-209.0363 1976.011,-204.0286 1965.5893,-202.1209 1966.6744,-209.0363"/>
</g>
<!-- Node47 -->
<g id="node48" class="node">
<title>Node47</title>
<polygon fill="none" stroke="#bfbfbf" points="2136,-185 2136,-204 2218,-204 2218,-185 2136,-185"/>
<text text-anchor="middle" x="2177" y="-192" font-family="Helvetica,sans-Serif" font-size="10.00" fill="#000000">TGeoMatrix.h</text>
</g>
<!-- Node41&#45;&gt;Node47 -->
<g id="edge62" class="edge">
<title>Node41&#45;&gt;Node47</title>
<path fill="none" stroke="#191970" d="M1511.9542,-251.9581C1523.9444,-249.6998 1536.9241,-247.5114 1549,-246 1804.3941,-214.0351 1873.8367,-256.4354 2127,-210 2131.4443,-209.1848 2136.0483,-208.1016 2140.5823,-206.8853"/>
<polygon fill="#191970" stroke="#191970" points="2141.6793,-210.2114 2150.307,-204.0621 2139.7277,-203.4889 2141.6793,-210.2114"/>
</g>
<!-- Node48 -->
<g id="node49" class="node">
<title>Node48</title>
<polygon fill="none" stroke="#bfbfbf" points="1122.5,-185 1122.5,-204 1171.5,-204 1171.5,-185 1122.5,-185"/>
<text text-anchor="middle" x="1147" y="-192" font-family="Helvetica,sans-Serif" font-size="10.00" fill="#000000">iosfwd</text>
</g>
<!-- Node41&#45;&gt;Node48 -->
<g id="edge63" class="edge">
<title>Node41&#45;&gt;Node48</title>
<path fill="none" stroke="#191970" d="M1399.4069,-254.1606C1340.7233,-246.6529 1253.9531,-232.8029 1181,-210 1179.096,-209.4049 1177.1589,-208.7291 1175.224,-208.0006"/>
<polygon fill="#191970" stroke="#191970" points="1176.3099,-204.6615 1165.7328,-204.0484 1173.619,-211.1236 1176.3099,-204.6615"/>
</g>
<!-- Node49 -->
<g id="node50" class="node">
<title>Node49</title>
<g id="a_node50"><a xlink:href="../../d2/dd0/Cartesian2D_8h.html" target="_top" xlink:title="MathUtils/Cartesian2D.h">
<polygon fill="none" stroke="#000000" points="930.5,-185 930.5,-204 1065.5,-204 1065.5,-185 930.5,-185"/>
<text text-anchor="middle" x="998" y="-192" font-family="Helvetica,sans-Serif" font-size="10.00" fill="#000000">MathUtils/Cartesian2D.h</text>
</a>
</g>
</g>
<!-- Node41&#45;&gt;Node49 -->
<g id="edge64" class="edge">
<title>Node41&#45;&gt;Node49</title>
<path fill="none" stroke="#191970" d="M1400.3018,-251.9717C1314.3772,-239.6967 1165.3321,-218.4046 1074.7782,-205.4683"/>
<polygon fill="#191970" stroke="#191970" points="1075.2419,-201.9991 1064.8474,-204.0496 1074.2519,-208.9287 1075.2419,-201.9991"/>
</g>
<!-- Node50 -->
<g id="node51" class="node">
<title>Node50</title>
<polygon fill="none" stroke="#bfbfbf" points="1245,-112.5 1245,-142.5 1409,-142.5 1409,-112.5 1245,-112.5"/>
<text text-anchor="start" x="1253" y="-130.5" font-family="Helvetica,sans-Serif" font-size="10.00" fill="#000000">Math/GenVector/Displacement</text>
<text text-anchor="middle" x="1327" y="-119.5" font-family="Helvetica,sans-Serif" font-size="10.00" fill="#000000">Vector2D.h</text>
</g>
<!-- Node49&#45;&gt;Node50 -->
<g id="edge65" class="edge">
<title>Node49&#45;&gt;Node50</title>
<path fill="none" stroke="#191970" d="M1044.7883,-184.9717C1096.3173,-174.4779 1180.2069,-157.394 1243.1564,-144.5745"/>
<polygon fill="#191970" stroke="#191970" points="1243.9711,-147.9805 1253.0715,-142.5553 1242.5742,-141.1213 1243.9711,-147.9805"/>
</g>
<!-- Node51 -->
<g id="node52" class="node">
<title>Node51</title>
<polygon fill="none" stroke="#bfbfbf" points="1427.5,-118 1427.5,-137 1616.5,-137 1616.5,-118 1427.5,-118"/>
<text text-anchor="middle" x="1522" y="-125" font-family="Helvetica,sans-Serif" font-size="10.00" fill="#000000">Math/GenVector/PositionVector2D.h</text>
</g>
<!-- Node49&#45;&gt;Node51 -->
<g id="edge66" class="edge">
<title>Node49&#45;&gt;Node51</title>
<path fill="none" stroke="#191970" d="M1044.7223,-184.9935C1056.2258,-182.8395 1068.5335,-180.6915 1080,-179 1229.4544,-156.9524 1268.1453,-162.139 1418,-143 1428.6752,-141.6366 1439.9489,-140.0792 1450.9795,-138.4893"/>
<polygon fill="#191970" stroke="#191970" points="1451.6272,-141.932 1461.0171,-137.0248 1450.6165,-135.0053 1451.6272,-141.932"/>
</g>
</g>
</svg>
