<?xml version="1.0" encoding="UTF-8" standalone="no"?>
<!DOCTYPE svg PUBLIC "-//W3C//DTD SVG 1.1//EN"
 "http://www.w3.org/Graphics/SVG/1.1/DTD/svg11.dtd">
<!-- Generated by graphviz version 2.40.1 (20161225.0304)
 -->
<!-- Title: o2::vertexing::PrimaryVertexReader Pages: 1 -->
<!--zoomable 336 -->
<svg id="main" version="1.1" xmlns="http://www.w3.org/2000/svg" xmlns:xlink="http://www.w3.org/1999/xlink" xml:space="preserve" onload="init(evt)">
<style type="text/css"><![CDATA[
.edge:hover path { stroke: red; }
.edge:hover polygon { stroke: red; fill: red; }
]]></style>
<script type="text/javascript"><![CDATA[
var edges = document.getElementsByTagName('g');
if (edges && edges.length) {
  for (var i=0;i<edges.length;i++) {
    if (edges[i].id.substr(0,4)=='edge') {
      edges[i].setAttribute('class','edge');
    }
  }
}
]]></script>
        <defs>
                <circle id="rim" cx="0" cy="0" r="7"/>
                <circle id="rim2" cx="0" cy="0" r="3.5"/>
                <g id="zoomPlus">
                        <use xlink:href="#rim" fill="#404040">
                                <set attributeName="fill" to="#808080" begin="zoomplus.mouseover" end="zoomplus.mouseout"/>
                        </use>
                        <path d="M-4,0h8M0,-4v8" fill="none" stroke="white" stroke-width="1.5" pointer-events="none"/>
                </g>
                <g id="zoomMin">
                        <use xlink:href="#rim" fill="#404040">
                                <set attributeName="fill" to="#808080" begin="zoomminus.mouseover" end="zoomminus.mouseout"/>
                        </use>
                        <path d="M-4,0h8" fill="none" stroke="white" stroke-width="1.5" pointer-events="none"/>
                </g>
                <g id="dirArrow">
                        <path fill="none" stroke="white" stroke-width="1.5" d="M0,-3.0v7 M-2.5,-0.5L0,-3.0L2.5,-0.5"/>
                </g>
               <g id="resetDef">
                       <use xlink:href="#rim2" fill="#404040">
                               <set attributeName="fill" to="#808080" begin="reset.mouseover" end="reset.mouseout"/>
                       </use>
               </g>
        </defs>

<script type="text/javascript">
var viewWidth = 1792;
var viewHeight = 336;
var sectionId = 'dynsection-1';
</script>
<script xlink:href="../../svgpan.js"/>
<svg id="graph" class="graph">
<g id="viewport">
<title>o2::vertexing::PrimaryVertexReader</title>
<!-- Node2 -->
<g id="node1" class="node">
<title>Node2</title>
<polygon fill="#bfbfbf" stroke="#000000" points="753.5,-.5 753.5,-112.5 910.5,-112.5 910.5,-.5 753.5,-.5"/>
<text text-anchor="start" x="761.5" y="-100.5" font-family="Helvetica,sans-Serif" font-size="10.00" fill="#000000">o2::vertexing::PrimaryVertex</text>
<text text-anchor="middle" x="832" y="-89.5" font-family="Helvetica,sans-Serif" font-size="10.00" fill="#000000">Reader</text>
<polyline fill="none" stroke="#000000" points="753.5,-82.5 910.5,-82.5 "/>
<text text-anchor="middle" x="832" y="-70.5" font-family="Helvetica,sans-Serif" font-size="10.00" fill="#000000"> </text>
<polyline fill="none" stroke="#000000" points="753.5,-63.5 910.5,-63.5 "/>
<text text-anchor="start" x="761.5" y="-51.5" font-family="Helvetica,sans-Serif" font-size="10.00" fill="#000000">+ PrimaryVertexReader()</text>
<text text-anchor="start" x="761.5" y="-40.5" font-family="Helvetica,sans-Serif" font-size="10.00" fill="#000000">+ ~PrimaryVertexReader()</text>
<text text-anchor="start" x="761.5" y="-29.5" font-family="Helvetica,sans-Serif" font-size="10.00" fill="#000000">+ init()</text>
<text text-anchor="start" x="761.5" y="-18.5" font-family="Helvetica,sans-Serif" font-size="10.00" fill="#000000">+ run()</text>
<text text-anchor="start" x="761.5" y="-7.5" font-family="Helvetica,sans-Serif" font-size="10.00" fill="#000000"># connectTree()</text>
</g>
<!-- Node3 -->
<g id="node2" class="node">
<title>Node3</title>
<g id="a_node2"><a xlink:href="../../de/dac/classo2_1_1framework_1_1Task.html" target="_top" xlink:title="{o2::framework::Task\n||+ ~Task()\l+ init()\l+ run()\l+ endOfStream()\l}">
<polygon fill="none" stroke="#000000" points="0,-237.5 0,-327.5 116,-327.5 116,-237.5 0,-237.5"/>
<text text-anchor="middle" x="58" y="-315.5" font-family="Helvetica,sans-Serif" font-size="10.00" fill="#000000">o2::framework::Task</text>
<polyline fill="none" stroke="#000000" points="0,-308.5 116,-308.5 "/>
<text text-anchor="middle" x="58" y="-296.5" font-family="Helvetica,sans-Serif" font-size="10.00" fill="#000000"> </text>
<polyline fill="none" stroke="#000000" points="0,-289.5 116,-289.5 "/>
<text text-anchor="start" x="8" y="-277.5" font-family="Helvetica,sans-Serif" font-size="10.00" fill="#000000">+ ~Task()</text>
<text text-anchor="start" x="8" y="-266.5" font-family="Helvetica,sans-Serif" font-size="10.00" fill="#000000">+ init()</text>
<text text-anchor="start" x="8" y="-255.5" font-family="Helvetica,sans-Serif" font-size="10.00" fill="#000000">+ run()</text>
<text text-anchor="start" x="8" y="-244.5" font-family="Helvetica,sans-Serif" font-size="10.00" fill="#000000">+ endOfStream()</text>
</a>
</g>
</g>
<!-- Node3&#45;&gt;Node2 -->
<g id="edge1" class="edge">
<title>Node3&#45;&gt;Node2</title>
<path fill="none" stroke="#191970" d="M99.4166,-229.6302C129.3199,-195.4918 172.7943,-153.4059 221,-131 313.9085,-87.8164 610.4288,-67.5267 753.4158,-60.0623"/>
<polygon fill="none" stroke="#191970" points="96.746,-227.3677 92.8685,-237.2275 102.0483,-231.9377 96.746,-227.3677"/>
</g>
<!-- Node4 -->
<g id="node3" class="node">
<title>Node4</title>
<polygon fill="none" stroke="#bfbfbf" points="134.5,-254 134.5,-311 247.5,-311 247.5,-254 134.5,-254"/>
<text text-anchor="middle" x="191" y="-299" font-family="Helvetica,sans-Serif" font-size="10.00" fill="#000000">unique_ptr&lt; TFile &gt;</text>
<polyline fill="none" stroke="#bfbfbf" points="134.5,-292 247.5,-292 "/>
<text text-anchor="middle" x="191" y="-280" font-family="Helvetica,sans-Serif" font-size="10.00" fill="#000000"> </text>
<polyline fill="none" stroke="#bfbfbf" points="134.5,-273 247.5,-273 "/>
<text text-anchor="middle" x="191" y="-261" font-family="Helvetica,sans-Serif" font-size="10.00" fill="#000000"> </text>
</g>
<!-- Node4&#45;&gt;Node2 -->
<g id="edge2" class="edge">
<title>Node4&#45;&gt;Node2</title>
<path fill="none" stroke="#404040" d="M204.4102,-253.8663C222.5584,-218.6027 258.458,-159.8421 308,-131 379.7359,-89.2372 611.2118,-69.3154 741.2245,-61.2074"/>
<polygon fill="none" stroke="#404040" points="741.5031,-61.1905 747.2483,-56.8323 753.4808,-60.4593 747.7357,-64.8174 741.5031,-61.1905"/>
<text text-anchor="middle" x="327" y="-172.5" font-family="Helvetica,sans-Serif" font-size="10.00" fill="#000000"> #mFile</text>
</g>
<!-- Node5 -->
<g id="node4" class="node">
<title>Node5</title>
<polygon fill="none" stroke="#bfbfbf" points="265.5,-248.5 265.5,-316.5 402.5,-316.5 402.5,-248.5 265.5,-248.5"/>
<text text-anchor="start" x="273.5" y="-304.5" font-family="Helvetica,sans-Serif" font-size="10.00" fill="#000000">vector&lt; o2::dataformats</text>
<text text-anchor="middle" x="334" y="-293.5" font-family="Helvetica,sans-Serif" font-size="10.00" fill="#000000">::VtxTrackIndex &gt; *</text>
<polyline fill="none" stroke="#bfbfbf" points="265.5,-286.5 402.5,-286.5 "/>
<text text-anchor="middle" x="334" y="-274.5" font-family="Helvetica,sans-Serif" font-size="10.00" fill="#000000"> </text>
<polyline fill="none" stroke="#bfbfbf" points="265.5,-267.5 402.5,-267.5 "/>
<text text-anchor="middle" x="334" y="-255.5" font-family="Helvetica,sans-Serif" font-size="10.00" fill="#000000"> </text>
</g>
<!-- Node5&#45;&gt;Node2 -->
<g id="edge3" class="edge">
<title>Node5&#45;&gt;Node2</title>
<path fill="none" stroke="#404040" d="M340.1754,-248.4375C348.412,-213.3265 366.5507,-159.7749 404,-131 455.521,-91.4128 631.5544,-71.3665 741.167,-62.4894"/>
<polygon fill="none" stroke="#404040" points="741.2416,-62.4836 746.9076,-58.0231 753.2042,-61.5377 747.5382,-65.9982 741.2416,-62.4836"/>
<text text-anchor="middle" x="453" y="-172.5" font-family="Helvetica,sans-Serif" font-size="10.00" fill="#000000"> #mPV2MatchIdxPtr</text>
</g>
<!-- Node6 -->
<g id="node5" class="node">
<title>Node6</title>
<polygon fill="none" stroke="#bfbfbf" points="420.5,-254 420.5,-311 537.5,-311 537.5,-254 420.5,-254"/>
<text text-anchor="middle" x="479" y="-299" font-family="Helvetica,sans-Serif" font-size="10.00" fill="#000000">unique_ptr&lt; TTree &gt;</text>
<polyline fill="none" stroke="#bfbfbf" points="420.5,-292 537.5,-292 "/>
<text text-anchor="middle" x="479" y="-280" font-family="Helvetica,sans-Serif" font-size="10.00" fill="#000000"> </text>
<polyline fill="none" stroke="#bfbfbf" points="420.5,-273 537.5,-273 "/>
<text text-anchor="middle" x="479" y="-261" font-family="Helvetica,sans-Serif" font-size="10.00" fill="#000000"> </text>
</g>
<!-- Node6&#45;&gt;Node2 -->
<g id="edge4" class="edge">
<title>Node6&#45;&gt;Node2</title>
<path fill="none" stroke="#404040" d="M488.9713,-253.7376C502.3245,-219.4543 529.2819,-162.8165 571,-131 620.1166,-93.541 687.3666,-74.9102 741.3011,-65.6472"/>
<polygon fill="none" stroke="#404040" points="741.4509,-65.623 746.7333,-60.7142 753.2962,-63.7022 748.0138,-68.611 741.4509,-65.623"/>
<text text-anchor="middle" x="592" y="-172.5" font-family="Helvetica,sans-Serif" font-size="10.00" fill="#000000"> #mTree</text>
</g>
<!-- Node7 -->
<g id="node6" class="node">
<title>Node7</title>
<polygon fill="none" stroke="#bfbfbf" points="555.5,-248.5 555.5,-316.5 692.5,-316.5 692.5,-248.5 555.5,-248.5"/>
<text text-anchor="start" x="563.5" y="-304.5" font-family="Helvetica,sans-Serif" font-size="10.00" fill="#000000">vector&lt; o2::dataformats</text>
<text text-anchor="middle" x="624" y="-293.5" font-family="Helvetica,sans-Serif" font-size="10.00" fill="#000000">::VtxTrackIndex &gt;</text>
<polyline fill="none" stroke="#bfbfbf" points="555.5,-286.5 692.5,-286.5 "/>
<text text-anchor="middle" x="624" y="-274.5" font-family="Helvetica,sans-Serif" font-size="10.00" fill="#000000"> </text>
<polyline fill="none" stroke="#bfbfbf" points="555.5,-267.5 692.5,-267.5 "/>
<text text-anchor="middle" x="624" y="-255.5" font-family="Helvetica,sans-Serif" font-size="10.00" fill="#000000"> </text>
</g>
<!-- Node7&#45;&gt;Node2 -->
<g id="edge5" class="edge">
<title>Node7&#45;&gt;Node2</title>
<path fill="none" stroke="#404040" d="M618.7361,-248.4004C615.543,-215.0169 616.175,-164.4346 642,-131 666.1363,-99.7517 705.2631,-81.5914 741.7557,-71.0459"/>
<polygon fill="none" stroke="#404040" points="741.9027,-71.0063 746.6546,-65.5824 753.489,-67.8826 748.7371,-73.3066 741.9027,-71.0063"/>
<text text-anchor="middle" x="684.5" y="-172.5" font-family="Helvetica,sans-Serif" font-size="10.00" fill="#000000"> #mPV2MatchIdx</text>
</g>
<!-- Node8 -->
<g id="node7" class="node">
<title>Node8</title>
<polygon fill="none" stroke="#bfbfbf" points="710.5,-254 710.5,-311 875.5,-311 875.5,-254 710.5,-254"/>
<text text-anchor="middle" x="793" y="-299" font-family="Helvetica,sans-Serif" font-size="10.00" fill="#000000">vector&lt; o2::MCEventLabel &gt; *</text>
<polyline fill="none" stroke="#bfbfbf" points="710.5,-292 875.5,-292 "/>
<text text-anchor="middle" x="793" y="-280" font-family="Helvetica,sans-Serif" font-size="10.00" fill="#000000"> </text>
<polyline fill="none" stroke="#bfbfbf" points="710.5,-273 875.5,-273 "/>
<text text-anchor="middle" x="793" y="-261" font-family="Helvetica,sans-Serif" font-size="10.00" fill="#000000"> </text>
</g>
<!-- Node8&#45;&gt;Node2 -->
<g id="edge6" class="edge">
<title>Node8&#45;&gt;Node2</title>
<path fill="none" stroke="#404040" d="M763.7241,-253.6893C755.3742,-243.5875 747.3637,-231.5956 743,-219 730.1967,-182.0439 726.4499,-166.4369 743,-131 744.3057,-128.2043 745.7735,-125.4766 747.3796,-122.8186"/>
<polygon fill="none" stroke="#404040" points="747.3957,-122.7952 747.509,-115.585 754.2082,-112.9164 754.0949,-120.1267 747.3957,-122.7952"/>
<text text-anchor="middle" x="776.5" y="-172.5" font-family="Helvetica,sans-Serif" font-size="10.00" fill="#000000"> #mLabelsPtr</text>
</g>
<!-- Node9 -->
<g id="node8" class="node">
<title>Node9</title>
<polygon fill="none" stroke="#bfbfbf" points="893.5,-254 893.5,-311 922.5,-311 922.5,-254 893.5,-254"/>
<text text-anchor="middle" x="908" y="-299" font-family="Helvetica,sans-Serif" font-size="10.00" fill="#000000">int</text>
<polyline fill="none" stroke="#bfbfbf" points="893.5,-292 922.5,-292 "/>
<text text-anchor="middle" x="908" y="-280" font-family="Helvetica,sans-Serif" font-size="10.00" fill="#000000"> </text>
<polyline fill="none" stroke="#bfbfbf" points="893.5,-273 922.5,-273 "/>
<text text-anchor="middle" x="908" y="-261" font-family="Helvetica,sans-Serif" font-size="10.00" fill="#000000"> </text>
</g>
<!-- Node9&#45;&gt;Node2 -->
<g id="edge7" class="edge">
<title>Node9&#45;&gt;Node2</title>
<path fill="none" stroke="#404040" d="M897.6457,-253.6855C894.3657,-247.5401 890.1995,-241.542 885,-237 866.5813,-220.9105 847.247,-238.8783 833,-219 813.8482,-192.2782 811.925,-156.2128 815.5139,-124.8471"/>
<polygon fill="none" stroke="#404040" points="815.5586,-124.5239 812.4208,-118.0313 817.2071,-112.6376 820.3449,-119.1302 815.5586,-124.5239"/>
<text text-anchor="middle" x="910" y="-211" font-family="Helvetica,sans-Serif" font-size="10.00" fill="#000000"> #mFileNameMatches</text>
<text text-anchor="start" x="833" y="-200" font-family="Helvetica,sans-Serif" font-size="10.00" fill="#000000">#mVertex2TrackIDRefsBranch</text>
<text text-anchor="middle" x="910" y="-189" font-family="Helvetica,sans-Serif" font-size="10.00" fill="#000000">Name</text>
<text text-anchor="middle" x="910" y="-178" font-family="Helvetica,sans-Serif" font-size="10.00" fill="#000000">#mVertexTrackIDsBranchName</text>
<text text-anchor="middle" x="910" y="-167" font-family="Helvetica,sans-Serif" font-size="10.00" fill="#000000">#mFileName</text>
<text text-anchor="middle" x="910" y="-156" font-family="Helvetica,sans-Serif" font-size="10.00" fill="#000000">#mVertexTreeName</text>
<text text-anchor="middle" x="910" y="-145" font-family="Helvetica,sans-Serif" font-size="10.00" fill="#000000">#mVertexLabelsBranchName</text>
<text text-anchor="middle" x="910" y="-134" font-family="Helvetica,sans-Serif" font-size="10.00" fill="#000000">#mVertexBranchName</text>
</g>
<!-- Node10 -->
<g id="node9" class="node">
<title>Node10</title>
<polygon fill="none" stroke="#bfbfbf" points="940.5,-248.5 940.5,-316.5 1077.5,-316.5 1077.5,-248.5 940.5,-248.5"/>
<text text-anchor="start" x="948.5" y="-304.5" font-family="Helvetica,sans-Serif" font-size="10.00" fill="#000000">vector&lt; o2::dataformats</text>
<text text-anchor="middle" x="1009" y="-293.5" font-family="Helvetica,sans-Serif" font-size="10.00" fill="#000000">::VtxTrackRef &gt; *</text>
<polyline fill="none" stroke="#bfbfbf" points="940.5,-286.5 1077.5,-286.5 "/>
<text text-anchor="middle" x="1009" y="-274.5" font-family="Helvetica,sans-Serif" font-size="10.00" fill="#000000"> </text>
<polyline fill="none" stroke="#bfbfbf" points="940.5,-267.5 1077.5,-267.5 "/>
<text text-anchor="middle" x="1009" y="-255.5" font-family="Helvetica,sans-Serif" font-size="10.00" fill="#000000"> </text>
</g>
<!-- Node10&#45;&gt;Node2 -->
<g id="edge8" class="edge">
<title>Node10&#45;&gt;Node2</title>
<path fill="none" stroke="#404040" d="M1007.7106,-248.1724C1005.6237,-209.3276 1000.2943,-149.1008 987,-131 970.9072,-109.0889 946.6532,-93.3396 922.0795,-82.1408"/>
<polygon fill="none" stroke="#404040" points="921.8263,-82.0324 914.7362,-83.3483 910.7946,-77.3098 917.8846,-75.9939 921.8263,-82.0324"/>
<text text-anchor="middle" x="1062" y="-172.5" font-family="Helvetica,sans-Serif" font-size="10.00" fill="#000000"> #mPV2MatchIdxRefPtr</text>
</g>
<!-- Node11 -->
<g id="node10" class="node">
<title>Node11</title>
<polygon fill="none" stroke="#bfbfbf" points="1105,-254 1105,-311 1143,-311 1143,-254 1105,-254"/>
<text text-anchor="middle" x="1124" y="-299" font-family="Helvetica,sans-Serif" font-size="10.00" fill="#000000">bool</text>
<polyline fill="none" stroke="#bfbfbf" points="1105,-292 1143,-292 "/>
<text text-anchor="middle" x="1124" y="-280" font-family="Helvetica,sans-Serif" font-size="10.00" fill="#000000"> </text>
<polyline fill="none" stroke="#bfbfbf" points="1105,-273 1143,-273 "/>
<text text-anchor="middle" x="1124" y="-261" font-family="Helvetica,sans-Serif" font-size="10.00" fill="#000000"> </text>
</g>
<!-- Node11&#45;&gt;Node2 -->
<g id="edge9" class="edge">
<title>Node11&#45;&gt;Node2</title>
<path fill="none" stroke="#404040" d="M1133.2944,-253.7406C1142.0896,-220.5059 1150.2916,-165.9203 1123,-131 1098.3472,-99.4561 998.5926,-78.9515 922.6884,-67.5908"/>
<polygon fill="none" stroke="#404040" points="922.6005,-67.5781 916.0859,-70.67 910.7262,-65.8457 917.2408,-62.7538 922.6005,-67.5781"/>
<text text-anchor="middle" x="1171.5" y="-178" font-family="Helvetica,sans-Serif" font-size="10.00" fill="#000000"> #mVerbose</text>
<text text-anchor="middle" x="1171.5" y="-167" font-family="Helvetica,sans-Serif" font-size="10.00" fill="#000000">#mUseMC</text>
</g>
<!-- Node12 -->
<g id="node11" class="node">
<title>Node12</title>
<polygon fill="none" stroke="#bfbfbf" points="1161.5,-248.5 1161.5,-316.5 1298.5,-316.5 1298.5,-248.5 1161.5,-248.5"/>
<text text-anchor="start" x="1169.5" y="-304.5" font-family="Helvetica,sans-Serif" font-size="10.00" fill="#000000">vector&lt; o2::dataformats</text>
<text text-anchor="middle" x="1230" y="-293.5" font-family="Helvetica,sans-Serif" font-size="10.00" fill="#000000">::VtxTrackRef &gt;</text>
<polyline fill="none" stroke="#bfbfbf" points="1161.5,-286.5 1298.5,-286.5 "/>
<text text-anchor="middle" x="1230" y="-274.5" font-family="Helvetica,sans-Serif" font-size="10.00" fill="#000000"> </text>
<polyline fill="none" stroke="#bfbfbf" points="1161.5,-267.5 1298.5,-267.5 "/>
<text text-anchor="middle" x="1230" y="-255.5" font-family="Helvetica,sans-Serif" font-size="10.00" fill="#000000"> </text>
</g>
<!-- Node12&#45;&gt;Node2 -->
<g id="edge10" class="edge">
<title>Node12&#45;&gt;Node2</title>
<path fill="none" stroke="#404040" d="M1234.7872,-248.4838C1237.5555,-214.1855 1235.8042,-162.0058 1206,-131 1167.7369,-91.1943 1020.5707,-71.6331 922.6526,-62.8339"/>
<polygon fill="none" stroke="#404040" points="922.6235,-62.8314 916.2985,-66.2947 910.6689,-61.7883 916.9939,-58.325 922.6235,-62.8314"/>
<text text-anchor="middle" x="1285" y="-172.5" font-family="Helvetica,sans-Serif" font-size="10.00" fill="#000000"> #mPV2MatchIdxRef</text>
</g>
<!-- Node13 -->
<g id="node12" class="node">
<title>Node13</title>
<polygon fill="none" stroke="#bfbfbf" points="1316.5,-248.5 1316.5,-316.5 1453.5,-316.5 1453.5,-248.5 1316.5,-248.5"/>
<text text-anchor="start" x="1324.5" y="-304.5" font-family="Helvetica,sans-Serif" font-size="10.00" fill="#000000">vector&lt; o2::dataformats</text>
<text text-anchor="middle" x="1385" y="-293.5" font-family="Helvetica,sans-Serif" font-size="10.00" fill="#000000">::PrimaryVertex &gt; *</text>
<polyline fill="none" stroke="#bfbfbf" points="1316.5,-286.5 1453.5,-286.5 "/>
<text text-anchor="middle" x="1385" y="-274.5" font-family="Helvetica,sans-Serif" font-size="10.00" fill="#000000"> </text>
<polyline fill="none" stroke="#bfbfbf" points="1316.5,-267.5 1453.5,-267.5 "/>
<text text-anchor="middle" x="1385" y="-255.5" font-family="Helvetica,sans-Serif" font-size="10.00" fill="#000000"> </text>
</g>
<!-- Node13&#45;&gt;Node2 -->
<g id="edge11" class="edge">
<title>Node13&#45;&gt;Node2</title>
<path fill="none" stroke="#404040" d="M1384.6186,-248.2987C1382.2584,-213.3354 1372.8464,-160.1482 1339,-131 1278.2243,-78.6605 1051.5477,-63.0915 922.818,-58.4605"/>
<polygon fill="none" stroke="#404040" points="922.6679,-58.4555 916.5348,-62.2483 910.6749,-58.0457 916.808,-54.2529 922.6679,-58.4555"/>
<text text-anchor="middle" x="1417" y="-172.5" font-family="Helvetica,sans-Serif" font-size="10.00" fill="#000000"> #mVerticesPtr</text>
</g>
<!-- Node14 -->
<g id="node13" class="node">
<title>Node14</title>
<polygon fill="none" stroke="#bfbfbf" points="1471.5,-254 1471.5,-311 1628.5,-311 1628.5,-254 1471.5,-254"/>
<text text-anchor="middle" x="1550" y="-299" font-family="Helvetica,sans-Serif" font-size="10.00" fill="#000000">vector&lt; o2::MCEventLabel &gt;</text>
<polyline fill="none" stroke="#bfbfbf" points="1471.5,-292 1628.5,-292 "/>
<text text-anchor="middle" x="1550" y="-280" font-family="Helvetica,sans-Serif" font-size="10.00" fill="#000000"> </text>
<polyline fill="none" stroke="#bfbfbf" points="1471.5,-273 1628.5,-273 "/>
<text text-anchor="middle" x="1550" y="-261" font-family="Helvetica,sans-Serif" font-size="10.00" fill="#000000"> </text>
</g>
<!-- Node14&#45;&gt;Node2 -->
<g id="edge12" class="edge">
<title>Node14&#45;&gt;Node2</title>
<path fill="none" stroke="#404040" d="M1541.269,-253.8283C1528.8921,-218.5249 1502.6391,-159.7229 1458,-131 1413.9613,-102.6635 1085.8833,-75.0565 923.0832,-62.9263"/>
<polygon fill="none" stroke="#404040" points="922.6711,-62.8959 916.3922,-66.442 910.7038,-62.01 916.9828,-58.4638 922.6711,-62.8959"/>
<text text-anchor="middle" x="1553.5" y="-172.5" font-family="Helvetica,sans-Serif" font-size="10.00" fill="#000000"> #mLabels</text>
</g>
<!-- Node15 -->
<g id="node14" class="node">
<title>Node15</title>
<polygon fill="none" stroke="#bfbfbf" points="1646.5,-248.5 1646.5,-316.5 1783.5,-316.5 1783.5,-248.5 1646.5,-248.5"/>
<text text-anchor="start" x="1654.5" y="-304.5" font-family="Helvetica,sans-Serif" font-size="10.00" fill="#000000">vector&lt; o2::dataformats</text>
<text text-anchor="middle" x="1715" y="-293.5" font-family="Helvetica,sans-Serif" font-size="10.00" fill="#000000">::PrimaryVertex &gt;</text>
<polyline fill="none" stroke="#bfbfbf" points="1646.5,-286.5 1783.5,-286.5 "/>
<text text-anchor="middle" x="1715" y="-274.5" font-family="Helvetica,sans-Serif" font-size="10.00" fill="#000000"> </text>
<polyline fill="none" stroke="#bfbfbf" points="1646.5,-267.5 1783.5,-267.5 "/>
<text text-anchor="middle" x="1715" y="-255.5" font-family="Helvetica,sans-Serif" font-size="10.00" fill="#000000"> </text>
</g>
<!-- Node15&#45;&gt;Node2 -->
<g id="edge13" class="edge">
<title>Node15&#45;&gt;Node2</title>
<path fill="none" stroke="#404040" d="M1696.2188,-248.3623C1674.3906,-212.3747 1634.7801,-157.3266 1584,-131 1526.4808,-101.1796 1109.9759,-73.0215 922.743,-61.7158"/>
<polygon fill="none" stroke="#404040" points="922.7266,-61.7149 916.4976,-65.3481 910.7481,-60.9957 916.9771,-57.3625 922.7266,-61.7149"/>
<text text-anchor="middle" x="1706.5" y="-172.5" font-family="Helvetica,sans-Serif" font-size="10.00" fill="#000000"> #mVertices</text>
</g>
</g>
</svg>
        <g id="navigator" transform="translate(0 0)" fill="#404254">
                <rect fill="#f2f5e9" fill-opacity="0.5" stroke="#606060" stroke-width=".5" x="0" y="0" width="60" height="60"/>
                <use id="zoomplus" xlink:href="#zoomPlus" x="17" y="9" onmousedown="handleZoom(evt,'in')"/>
                <use id="zoomminus" xlink:href="#zoomMin" x="42" y="9" onmousedown="handleZoom(evt,'out')"/>
                <use id="reset" xlink:href="#resetDef" x="30" y="36" onmousedown="handleReset()"/>
                <g id="arrowUp" xlink:href="#dirArrow" transform="translate(30 24)" onmousedown="handlePan(0,-1)">
                  <use xlink:href="#rim" fill="#404040">
                        <set attributeName="fill" to="#808080" begin="arrowUp.mouseover" end="arrowUp.mouseout"/>
                  </use>
                  <path fill="none" stroke="white" stroke-width="1.5" d="M0,-3.0v7 M-2.5,-0.5L0,-3.0L2.5,-0.5"/>
                </g>
                <g id="arrowRight" xlink:href="#dirArrow" transform="rotate(90) translate(36 -43)" onmousedown="handlePan(1,0)">
                  <use xlink:href="#rim" fill="#404040">
                        <set attributeName="fill" to="#808080" begin="arrowRight.mouseover" end="arrowRight.mouseout"/>
                  </use>
                  <path fill="none" stroke="white" stroke-width="1.5" d="M0,-3.0v7 M-2.5,-0.5L0,-3.0L2.5,-0.5"/>
                </g>
                <g id="arrowDown" xlink:href="#dirArrow" transform="rotate(180) translate(-30 -48)" onmousedown="handlePan(0,1)">
                  <use xlink:href="#rim" fill="#404040">
                        <set attributeName="fill" to="#808080" begin="arrowDown.mouseover" end="arrowDown.mouseout"/>
                  </use>
                  <path fill="none" stroke="white" stroke-width="1.5" d="M0,-3.0v7 M-2.5,-0.5L0,-3.0L2.5,-0.5"/>
                </g>
                <g id="arrowLeft" xlink:href="#dirArrow" transform="rotate(270) translate(-36 17)" onmousedown="handlePan(-1,0)">
                  <use xlink:href="#rim" fill="#404040">
                        <set attributeName="fill" to="#808080" begin="arrowLeft.mouseover" end="arrowLeft.mouseout"/>
                  </use>
                  <path fill="none" stroke="white" stroke-width="1.5" d="M0,-3.0v7 M-2.5,-0.5L0,-3.0L2.5,-0.5"/>
                </g>
        </g>
        <svg viewBox="0 0 15 15" width="100%" height="30px" preserveAspectRatio="xMaxYMin meet">
         <g id="arrow_out" transform="scale(0.3 0.3)">
          <a xlink:href="classo2_1_1vertexing_1_1PrimaryVertexReader__coll__graph_org.svg" target="_base">
           <rect id="button" ry="5" rx="5" y="6" x="6" height="38" width="38"
                fill="#f2f5e9" fill-opacity="0.5" stroke="#606060" stroke-width="1.0"/>
           <path id="arrow"
             d="M 11.500037,31.436501 C 11.940474,20.09759 22.043105,11.32322 32.158766,21.979434 L 37.068811,17.246167 C 37.068811,17.246167 37.088388,32 37.088388,32 L 22.160133,31.978069 C 22.160133,31.978069 26.997745,27.140456 26.997745,27.140456 C 18.528582,18.264221 13.291696,25.230495 11.500037,31.436501 z"
             style="fill:#404040;"/>
          </a>
         </g>
        </svg>
</svg>
