<?xml version="1.0" encoding="UTF-8" standalone="no"?>
<!DOCTYPE svg PUBLIC "-//W3C//DTD SVG 1.1//EN"
 "http://www.w3.org/Graphics/SVG/1.1/DTD/svg11.dtd">
<!-- Generated by graphviz version 2.40.1 (20161225.0304)
 -->
<!-- Title: o2::framework::DeviceInfo Pages: 1 -->
<!--zoomable 342 -->
<svg id="main" version="1.1" xmlns="http://www.w3.org/2000/svg" xmlns:xlink="http://www.w3.org/1999/xlink" xml:space="preserve" onload="init(evt)">
<style type="text/css"><![CDATA[
.edge:hover path { stroke: red; }
.edge:hover polygon { stroke: red; fill: red; }
]]></style>
<script type="text/javascript"><![CDATA[
var edges = document.getElementsByTagName('g');
if (edges && edges.length) {
  for (var i=0;i<edges.length;i++) {
    if (edges[i].id.substr(0,4)=='edge') {
      edges[i].setAttribute('class','edge');
    }
  }
}
]]></script>
        <defs>
                <circle id="rim" cx="0" cy="0" r="7"/>
                <circle id="rim2" cx="0" cy="0" r="3.5"/>
                <g id="zoomPlus">
                        <use xlink:href="#rim" fill="#404040">
                                <set attributeName="fill" to="#808080" begin="zoomplus.mouseover" end="zoomplus.mouseout"/>
                        </use>
                        <path d="M-4,0h8M0,-4v8" fill="none" stroke="white" stroke-width="1.5" pointer-events="none"/>
                </g>
                <g id="zoomMin">
                        <use xlink:href="#rim" fill="#404040">
                                <set attributeName="fill" to="#808080" begin="zoomminus.mouseover" end="zoomminus.mouseout"/>
                        </use>
                        <path d="M-4,0h8" fill="none" stroke="white" stroke-width="1.5" pointer-events="none"/>
                </g>
                <g id="dirArrow">
                        <path fill="none" stroke="white" stroke-width="1.5" d="M0,-3.0v7 M-2.5,-0.5L0,-3.0L2.5,-0.5"/>
                </g>
               <g id="resetDef">
                       <use xlink:href="#rim2" fill="#404040">
                               <set attributeName="fill" to="#808080" begin="reset.mouseover" end="reset.mouseout"/>
                       </use>
               </g>
        </defs>

<script type="text/javascript">
var viewWidth = 1174;
var viewHeight = 342;
var sectionId = 'dynsection-0';
</script>
<script xlink:href="../../svgpan.js"/>
<svg id="graph" class="graph">
<g id="viewport">
<title>o2::framework::DeviceInfo</title>
<!-- Node1 -->
<g id="node1" class="node">
<title>Node1</title>
<polygon fill="#bfbfbf" stroke="#000000" points="596,-.5 596,-57.5 742,-57.5 742,-.5 596,-.5"/>
<text text-anchor="middle" x="669" y="-45.5" font-family="Helvetica,sans-Serif" font-size="10.00" fill="#000000">o2::framework::DeviceInfo</text>
<polyline fill="none" stroke="#000000" points="596,-38.5 742,-38.5 "/>
<text text-anchor="middle" x="669" y="-26.5" font-family="Helvetica,sans-Serif" font-size="10.00" fill="#000000"> </text>
<polyline fill="none" stroke="#000000" points="596,-19.5 742,-19.5 "/>
<text text-anchor="middle" x="669" y="-7.5" font-family="Helvetica,sans-Serif" font-size="10.00" fill="#000000"> </text>
</g>
<!-- Node2 -->
<g id="node2" class="node">
<title>Node2</title>
<polygon fill="none" stroke="#bfbfbf" points="0,-138.5 0,-195.5 92,-195.5 92,-138.5 0,-138.5"/>
<text text-anchor="middle" x="46" y="-183.5" font-family="Helvetica,sans-Serif" font-size="10.00" fill="#000000">StreamingState</text>
<polyline fill="none" stroke="#bfbfbf" points="0,-176.5 92,-176.5 "/>
<text text-anchor="middle" x="46" y="-164.5" font-family="Helvetica,sans-Serif" font-size="10.00" fill="#000000"> </text>
<polyline fill="none" stroke="#bfbfbf" points="0,-157.5 92,-157.5 "/>
<text text-anchor="middle" x="46" y="-145.5" font-family="Helvetica,sans-Serif" font-size="10.00" fill="#000000"> </text>
</g>
<!-- Node2&#45;&gt;Node1 -->
<g id="edge1" class="edge">
<title>Node2&#45;&gt;Node1</title>
<path fill="none" stroke="#404040" d="M37.1998,-138.2465C33.0072,-118.2069 31.7631,-92.2517 47,-76 65.0878,-56.7076 417.8007,-39.4892 583.8806,-32.4145"/>
<polygon fill="none" stroke="#404040" points="584.001,-32.4095 589.8267,-28.1596 595.9903,-31.9026 590.1646,-36.1525 584.001,-32.4095"/>
<text text-anchor="middle" x="90.5" y="-90" font-family="Helvetica,sans-Serif" font-size="10.00" fill="#000000"> +streamingState</text>
</g>
<!-- Node3 -->
<g id="node3" class="node">
<title>Node3</title>
<g id="a_node3"><a xlink:href="../../d6/d43/structo2_1_1framework_1_1Metric2DViewIndex.html" target="_top" xlink:title="{o2::framework::Metric2DView\lIndex\n||+ isComplete()\l+ getUpdater()\l}">
<polygon fill="none" stroke="#000000" points="224.5,-127.5 224.5,-206.5 385.5,-206.5 385.5,-127.5 224.5,-127.5"/>
<text text-anchor="start" x="232.5" y="-194.5" font-family="Helvetica,sans-Serif" font-size="10.00" fill="#000000">o2::framework::Metric2DView</text>
<text text-anchor="middle" x="305" y="-183.5" font-family="Helvetica,sans-Serif" font-size="10.00" fill="#000000">Index</text>
<polyline fill="none" stroke="#000000" points="224.5,-176.5 385.5,-176.5 "/>
<text text-anchor="middle" x="305" y="-164.5" font-family="Helvetica,sans-Serif" font-size="10.00" fill="#000000"> </text>
<polyline fill="none" stroke="#000000" points="224.5,-157.5 385.5,-157.5 "/>
<text text-anchor="start" x="232.5" y="-145.5" font-family="Helvetica,sans-Serif" font-size="10.00" fill="#000000">+ isComplete()</text>
<text text-anchor="start" x="232.5" y="-134.5" font-family="Helvetica,sans-Serif" font-size="10.00" fill="#000000">+ getUpdater()</text>
</a>
</g>
</g>
<!-- Node3&#45;&gt;Node1 -->
<g id="edge2" class="edge">
<title>Node3&#45;&gt;Node1</title>
<path fill="none" stroke="#404040" d="M310.8073,-127.4935C315.5756,-109.0978 324.2461,-88.552 340,-76 376.6128,-46.8286 498.9978,-35.7547 583.7084,-31.5563"/>
<polygon fill="none" stroke="#404040" points="583.9318,-31.5459 589.7384,-27.27 595.9187,-30.9854 590.1121,-35.2613 583.9318,-31.5459"/>
<text text-anchor="middle" x="399" y="-101" font-family="Helvetica,sans-Serif" font-size="10.00" fill="#000000"> +queriesViewIndex</text>
<text text-anchor="middle" x="399" y="-90" font-family="Helvetica,sans-Serif" font-size="10.00" fill="#000000">+variablesViewIndex</text>
<text text-anchor="middle" x="399" y="-79" font-family="Helvetica,sans-Serif" font-size="10.00" fill="#000000">+dataRelayerViewIndex</text>
</g>
<!-- Node4 -->
<g id="node4" class="node">
<title>Node4</title>
<polygon fill="none" stroke="#bfbfbf" points="166.5,-276.5 166.5,-333.5 195.5,-333.5 195.5,-276.5 166.5,-276.5"/>
<text text-anchor="middle" x="181" y="-321.5" font-family="Helvetica,sans-Serif" font-size="10.00" fill="#000000">int</text>
<polyline fill="none" stroke="#bfbfbf" points="166.5,-314.5 195.5,-314.5 "/>
<text text-anchor="middle" x="181" y="-302.5" font-family="Helvetica,sans-Serif" font-size="10.00" fill="#000000"> </text>
<polyline fill="none" stroke="#bfbfbf" points="166.5,-295.5 195.5,-295.5 "/>
<text text-anchor="middle" x="181" y="-283.5" font-family="Helvetica,sans-Serif" font-size="10.00" fill="#000000"> </text>
</g>
<!-- Node4&#45;&gt;Node1 -->
<g id="edge10" class="edge">
<title>Node4&#45;&gt;Node1</title>
<path fill="none" stroke="#404040" d="M166.4482,-277.6929C148.6108,-240.0526 124.5074,-171.8075 157,-127 206.1062,-59.2822 451.2559,-38.2625 583.724,-31.8095"/>
<polygon fill="none" stroke="#404040" points="583.8045,-31.8058 589.6116,-27.5306 595.7915,-31.2467 589.9844,-35.5219 583.8045,-31.8058"/>
<text text-anchor="middle" x="186" y="-175.5" font-family="Helvetica,sans-Serif" font-size="10.00" fill="#000000"> +unprinted</text>
<text text-anchor="middle" x="186" y="-164.5" font-family="Helvetica,sans-Serif" font-size="10.00" fill="#000000">+exitStatus</text>
<text text-anchor="middle" x="186" y="-153.5" font-family="Helvetica,sans-Serif" font-size="10.00" fill="#000000">+lastError</text>
</g>
<!-- Node4&#45;&gt;Node3 -->
<g id="edge3" class="edge">
<title>Node4&#45;&gt;Node3</title>
<path fill="none" stroke="#404040" d="M195.7114,-288.6277C211.7666,-270.7597 238.2381,-241.2995 261.1069,-215.8488"/>
<polygon fill="none" stroke="#404040" points="261.3228,-215.6085 262.3577,-208.472 269.3433,-206.6825 268.3084,-213.819 261.3228,-215.6085"/>
<text text-anchor="middle" x="268.5" y="-250" font-family="Helvetica,sans-Serif" font-size="10.00" fill="#000000"> +w</text>
<text text-anchor="middle" x="268.5" y="-239" font-family="Helvetica,sans-Serif" font-size="10.00" fill="#000000">+h</text>
<text text-anchor="middle" x="268.5" y="-228" font-family="Helvetica,sans-Serif" font-size="10.00" fill="#000000">+prefix</text>
</g>
<!-- Node5 -->
<g id="node5" class="node">
<title>Node5</title>
<polygon fill="none" stroke="#bfbfbf" points="245.5,-276.5 245.5,-333.5 364.5,-333.5 364.5,-276.5 245.5,-276.5"/>
<text text-anchor="middle" x="305" y="-321.5" font-family="Helvetica,sans-Serif" font-size="10.00" fill="#000000">vector&lt; std::size_t &gt;</text>
<polyline fill="none" stroke="#bfbfbf" points="245.5,-314.5 364.5,-314.5 "/>
<text text-anchor="middle" x="305" y="-302.5" font-family="Helvetica,sans-Serif" font-size="10.00" fill="#000000"> </text>
<polyline fill="none" stroke="#bfbfbf" points="245.5,-295.5 364.5,-295.5 "/>
<text text-anchor="middle" x="305" y="-283.5" font-family="Helvetica,sans-Serif" font-size="10.00" fill="#000000"> </text>
</g>
<!-- Node5&#45;&gt;Node3 -->
<g id="edge4" class="edge">
<title>Node5&#45;&gt;Node3</title>
<path fill="none" stroke="#404040" d="M305,-276.4063C305,-259.7484 305,-238.2393 305,-218.7066"/>
<polygon fill="none" stroke="#404040" points="305.0001,-218.5453 301,-212.5453 305,-206.5453 309,-212.5452 305.0001,-218.5453"/>
<text text-anchor="middle" x="330" y="-239" font-family="Helvetica,sans-Serif" font-size="10.00" fill="#000000"> +indexes</text>
</g>
<!-- Node6 -->
<g id="node6" class="node">
<title>Node6</title>
<polygon fill="none" stroke="#bfbfbf" points="404,-138.5 404,-195.5 464,-195.5 464,-138.5 404,-138.5"/>
<text text-anchor="middle" x="434" y="-183.5" font-family="Helvetica,sans-Serif" font-size="10.00" fill="#000000">LogLevel</text>
<polyline fill="none" stroke="#bfbfbf" points="404,-176.5 464,-176.5 "/>
<text text-anchor="middle" x="434" y="-164.5" font-family="Helvetica,sans-Serif" font-size="10.00" fill="#000000"> </text>
<polyline fill="none" stroke="#bfbfbf" points="404,-157.5 464,-157.5 "/>
<text text-anchor="middle" x="434" y="-145.5" font-family="Helvetica,sans-Serif" font-size="10.00" fill="#000000"> </text>
</g>
<!-- Node6&#45;&gt;Node1 -->
<g id="edge5" class="edge">
<title>Node6&#45;&gt;Node1</title>
<path fill="none" stroke="#404040" d="M445.4864,-138.2778C455.0299,-117.9854 470.5266,-91.7044 492,-76 507.1679,-64.9071 546.0664,-54.0376 583.5466,-45.5502"/>
<polygon fill="none" stroke="#404040" points="583.9161,-45.4687 588.9124,-40.269 595.6338,-42.881 590.6375,-48.0808 583.9161,-45.4687"/>
<text text-anchor="middle" x="530.5" y="-90" font-family="Helvetica,sans-Serif" font-size="10.00" fill="#000000"> +maxLogLevel</text>
</g>
<!-- Node7 -->
<g id="node7" class="node">
<title>Node7</title>
<polygon fill="none" stroke="#bfbfbf" points="481.5,-133 481.5,-201 630.5,-201 630.5,-133 481.5,-133"/>
<text text-anchor="start" x="489.5" y="-189" font-family="Helvetica,sans-Serif" font-size="10.00" fill="#000000">vector&lt; LogParsingHelpers</text>
<text text-anchor="middle" x="556" y="-178" font-family="Helvetica,sans-Serif" font-size="10.00" fill="#000000">::LogLevel &gt;</text>
<polyline fill="none" stroke="#bfbfbf" points="481.5,-171 630.5,-171 "/>
<text text-anchor="middle" x="556" y="-159" font-family="Helvetica,sans-Serif" font-size="10.00" fill="#000000"> </text>
<polyline fill="none" stroke="#bfbfbf" points="481.5,-152 630.5,-152 "/>
<text text-anchor="middle" x="556" y="-140" font-family="Helvetica,sans-Serif" font-size="10.00" fill="#000000"> </text>
</g>
<!-- Node7&#45;&gt;Node1 -->
<g id="edge6" class="edge">
<title>Node7&#45;&gt;Node1</title>
<path fill="none" stroke="#404040" d="M564.3416,-132.6926C570.097,-114.3614 579.241,-92.2836 593,-76 596.2666,-72.134 599.935,-68.49 603.8497,-65.0742"/>
<polygon fill="none" stroke="#404040" points="603.9615,-64.9854 606.1715,-58.1213 613.3577,-57.5213 611.1476,-64.3854 603.9615,-64.9854"/>
<text text-anchor="middle" x="629" y="-90" font-family="Helvetica,sans-Serif" font-size="10.00" fill="#000000"> +historyLevel</text>
</g>
<!-- Node8 -->
<g id="node8" class="node">
<title>Node8</title>
<g id="a_node8"><a xlink:href="../../dc/d10/classshort.html" target="_top" xlink:title="{short\n||}">
<polygon fill="none" stroke="#000000" points="648.5,-138.5 648.5,-195.5 689.5,-195.5 689.5,-138.5 648.5,-138.5"/>
<text text-anchor="middle" x="669" y="-183.5" font-family="Helvetica,sans-Serif" font-size="10.00" fill="#000000">short</text>
<polyline fill="none" stroke="#000000" points="648.5,-176.5 689.5,-176.5 "/>
<text text-anchor="middle" x="669" y="-164.5" font-family="Helvetica,sans-Serif" font-size="10.00" fill="#000000"> </text>
<polyline fill="none" stroke="#000000" points="648.5,-157.5 689.5,-157.5 "/>
<text text-anchor="middle" x="669" y="-145.5" font-family="Helvetica,sans-Serif" font-size="10.00" fill="#000000"> </text>
</a>
</g>
</g>
<!-- Node8&#45;&gt;Node1 -->
<g id="edge7" class="edge">
<title>Node8&#45;&gt;Node1</title>
<path fill="none" stroke="#404040" d="M669,-138.4063C669,-118.5153 669,-91.7072 669,-69.6065"/>
<polygon fill="none" stroke="#404040" points="669.0001,-69.5571 665,-63.5571 669,-57.5571 673,-63.557 669.0001,-69.5571"/>
<text text-anchor="middle" x="697" y="-90" font-family="Helvetica,sans-Serif" font-size="10.00" fill="#000000"> +tracyPort</text>
</g>
<!-- Node9 -->
<g id="node9" class="node">
<title>Node9</title>
<polygon fill="none" stroke="#bfbfbf" points="707.5,-138.5 707.5,-195.5 826.5,-195.5 826.5,-138.5 707.5,-138.5"/>
<text text-anchor="middle" x="767" y="-183.5" font-family="Helvetica,sans-Serif" font-size="10.00" fill="#000000">vector&lt; std::string &gt;</text>
<polyline fill="none" stroke="#bfbfbf" points="707.5,-176.5 826.5,-176.5 "/>
<text text-anchor="middle" x="767" y="-164.5" font-family="Helvetica,sans-Serif" font-size="10.00" fill="#000000"> </text>
<polyline fill="none" stroke="#bfbfbf" points="707.5,-157.5 826.5,-157.5 "/>
<text text-anchor="middle" x="767" y="-145.5" font-family="Helvetica,sans-Serif" font-size="10.00" fill="#000000"> </text>
</g>
<!-- Node9&#45;&gt;Node1 -->
<g id="edge8" class="edge">
<title>Node9&#45;&gt;Node1</title>
<path fill="none" stroke="#404040" d="M759.2136,-138.3865C753.096,-119.4089 743.2124,-94.6592 729,-76 726.3166,-72.477 723.3092,-69.0718 720.1086,-65.8138"/>
<polygon fill="none" stroke="#404040" points="720.0399,-65.7496 712.9253,-64.5736 711.2744,-57.554 718.389,-58.73 720.0399,-65.7496"/>
<text text-anchor="middle" x="770" y="-90" font-family="Helvetica,sans-Serif" font-size="10.00" fill="#000000"> +history</text>
</g>
<!-- Node10 -->
<g id="node10" class="node">
<title>Node10</title>
<polygon fill="none" stroke="#bfbfbf" points="844.5,-138.5 844.5,-195.5 889.5,-195.5 889.5,-138.5 844.5,-138.5"/>
<text text-anchor="middle" x="867" y="-183.5" font-family="Helvetica,sans-Serif" font-size="10.00" fill="#000000">size_t</text>
<polyline fill="none" stroke="#bfbfbf" points="844.5,-176.5 889.5,-176.5 "/>
<text text-anchor="middle" x="867" y="-164.5" font-family="Helvetica,sans-Serif" font-size="10.00" fill="#000000"> </text>
<polyline fill="none" stroke="#bfbfbf" points="844.5,-157.5 889.5,-157.5 "/>
<text text-anchor="middle" x="867" y="-145.5" font-family="Helvetica,sans-Serif" font-size="10.00" fill="#000000"> </text>
</g>
<!-- Node10&#45;&gt;Node1 -->
<g id="edge9" class="edge">
<title>Node10&#45;&gt;Node1</title>
<path fill="none" stroke="#404040" d="M851.0263,-138.4796C838.5855,-118.5529 819.6508,-92.6369 797,-76 784.0767,-66.5079 769.0312,-58.7485 753.8913,-52.4694"/>
<polygon fill="none" stroke="#404040" points="753.5062,-52.3189 746.4619,-53.8612 742.3289,-47.952 749.3732,-46.4097 753.5062,-52.3189"/>
<text text-anchor="middle" x="863" y="-95.5" font-family="Helvetica,sans-Serif" font-size="10.00" fill="#000000"> +historySize</text>
<text text-anchor="middle" x="863" y="-84.5" font-family="Helvetica,sans-Serif" font-size="10.00" fill="#000000">+historyPos</text>
</g>
<!-- Node11 -->
<g id="node11" class="node">
<title>Node11</title>
<polygon fill="none" stroke="#bfbfbf" points="907.5,-138.5 907.5,-195.5 948.5,-195.5 948.5,-138.5 907.5,-138.5"/>
<text text-anchor="middle" x="928" y="-183.5" font-family="Helvetica,sans-Serif" font-size="10.00" fill="#000000">pid_t</text>
<polyline fill="none" stroke="#bfbfbf" points="907.5,-176.5 948.5,-176.5 "/>
<text text-anchor="middle" x="928" y="-164.5" font-family="Helvetica,sans-Serif" font-size="10.00" fill="#000000"> </text>
<polyline fill="none" stroke="#bfbfbf" points="907.5,-157.5 948.5,-157.5 "/>
<text text-anchor="middle" x="928" y="-145.5" font-family="Helvetica,sans-Serif" font-size="10.00" fill="#000000"> </text>
</g>
<!-- Node11&#45;&gt;Node1 -->
<g id="edge11" class="edge">
<title>Node11&#45;&gt;Node1</title>
<path fill="none" stroke="#404040" d="M926.6323,-138.3146C924.1016,-118.0406 917.3884,-91.7663 900,-76 878.6743,-56.6637 811.0303,-44.3861 754.4137,-37.2484"/>
<polygon fill="none" stroke="#404040" points="754.0642,-37.206 747.6258,-40.4535 742.1517,-35.7594 748.5901,-32.5119 754.0642,-37.206"/>
<text text-anchor="middle" x="932.5" y="-90" font-family="Helvetica,sans-Serif" font-size="10.00" fill="#000000"> +pid</text>
</g>
<!-- Node12 -->
<g id="node12" class="node">
<title>Node12</title>
<polygon fill="none" stroke="#bfbfbf" points="967,-138.5 967,-195.5 1005,-195.5 1005,-138.5 967,-138.5"/>
<text text-anchor="middle" x="986" y="-183.5" font-family="Helvetica,sans-Serif" font-size="10.00" fill="#000000">bool</text>
<polyline fill="none" stroke="#bfbfbf" points="967,-176.5 1005,-176.5 "/>
<text text-anchor="middle" x="986" y="-164.5" font-family="Helvetica,sans-Serif" font-size="10.00" fill="#000000"> </text>
<polyline fill="none" stroke="#bfbfbf" points="967,-157.5 1005,-157.5 "/>
<text text-anchor="middle" x="986" y="-145.5" font-family="Helvetica,sans-Serif" font-size="10.00" fill="#000000"> </text>
</g>
<!-- Node12&#45;&gt;Node1 -->
<g id="edge12" class="edge">
<title>Node12&#45;&gt;Node1</title>
<path fill="none" stroke="#404040" d="M982.1929,-138.39C977.912,-117.8795 968.8931,-91.2751 950,-76 920.5483,-52.1882 825.7771,-40.0461 754.3747,-34.1331"/>
<polygon fill="none" stroke="#404040" points="754.1966,-34.119 747.8986,-37.6311 742.2344,-33.1683 748.5324,-29.6563 754.1966,-34.119"/>
<text text-anchor="middle" x="1005.5" y="-95.5" font-family="Helvetica,sans-Serif" font-size="10.00" fill="#000000"> +active</text>
<text text-anchor="middle" x="1005.5" y="-84.5" font-family="Helvetica,sans-Serif" font-size="10.00" fill="#000000">+readyToQuit</text>
</g>
<!-- Node13 -->
<g id="node13" class="node">
<title>Node13</title>
<polygon fill="none" stroke="#bfbfbf" points="1051,-138.5 1051,-195.5 1093,-195.5 1093,-138.5 1051,-138.5"/>
<text text-anchor="middle" x="1072" y="-183.5" font-family="Helvetica,sans-Serif" font-size="10.00" fill="#000000">ptree</text>
<polyline fill="none" stroke="#bfbfbf" points="1051,-176.5 1093,-176.5 "/>
<text text-anchor="middle" x="1072" y="-164.5" font-family="Helvetica,sans-Serif" font-size="10.00" fill="#000000"> </text>
<polyline fill="none" stroke="#bfbfbf" points="1051,-157.5 1093,-157.5 "/>
<text text-anchor="middle" x="1072" y="-145.5" font-family="Helvetica,sans-Serif" font-size="10.00" fill="#000000"> </text>
</g>
<!-- Node13&#45;&gt;Node1 -->
<g id="edge13" class="edge">
<title>Node13&#45;&gt;Node1</title>
<path fill="none" stroke="#404040" d="M1070.6942,-138.3227C1068.1443,-117.7778 1061.2321,-91.1599 1043,-76 1021.2189,-57.8892 857.817,-42.7769 754.3272,-34.8917"/>
<polygon fill="none" stroke="#404040" points="754.295,-34.8893 748.0118,-38.4281 742.3287,-33.9893 748.6119,-30.4506 754.295,-34.8893"/>
<text text-anchor="middle" x="1114.5" y="-95.5" font-family="Helvetica,sans-Serif" font-size="10.00" fill="#000000"> +currentProvenance</text>
<text text-anchor="middle" x="1114.5" y="-84.5" font-family="Helvetica,sans-Serif" font-size="10.00" fill="#000000">+currentConfig</text>
</g>
</g>
</svg>
        <g id="navigator" transform="translate(0 0)" fill="#404254">
                <rect fill="#f2f5e9" fill-opacity="0.5" stroke="#606060" stroke-width=".5" x="0" y="0" width="60" height="60"/>
                <use id="zoomplus" xlink:href="#zoomPlus" x="17" y="9" onmousedown="handleZoom(evt,'in')"/>
                <use id="zoomminus" xlink:href="#zoomMin" x="42" y="9" onmousedown="handleZoom(evt,'out')"/>
                <use id="reset" xlink:href="#resetDef" x="30" y="36" onmousedown="handleReset()"/>
                <g id="arrowUp" xlink:href="#dirArrow" transform="translate(30 24)" onmousedown="handlePan(0,-1)">
                  <use xlink:href="#rim" fill="#404040">
                        <set attributeName="fill" to="#808080" begin="arrowUp.mouseover" end="arrowUp.mouseout"/>
                  </use>
                  <path fill="none" stroke="white" stroke-width="1.5" d="M0,-3.0v7 M-2.5,-0.5L0,-3.0L2.5,-0.5"/>
                </g>
                <g id="arrowRight" xlink:href="#dirArrow" transform="rotate(90) translate(36 -43)" onmousedown="handlePan(1,0)">
                  <use xlink:href="#rim" fill="#404040">
                        <set attributeName="fill" to="#808080" begin="arrowRight.mouseover" end="arrowRight.mouseout"/>
                  </use>
                  <path fill="none" stroke="white" stroke-width="1.5" d="M0,-3.0v7 M-2.5,-0.5L0,-3.0L2.5,-0.5"/>
                </g>
                <g id="arrowDown" xlink:href="#dirArrow" transform="rotate(180) translate(-30 -48)" onmousedown="handlePan(0,1)">
                  <use xlink:href="#rim" fill="#404040">
                        <set attributeName="fill" to="#808080" begin="arrowDown.mouseover" end="arrowDown.mouseout"/>
                  </use>
                  <path fill="none" stroke="white" stroke-width="1.5" d="M0,-3.0v7 M-2.5,-0.5L0,-3.0L2.5,-0.5"/>
                </g>
                <g id="arrowLeft" xlink:href="#dirArrow" transform="rotate(270) translate(-36 17)" onmousedown="handlePan(-1,0)">
                  <use xlink:href="#rim" fill="#404040">
                        <set attributeName="fill" to="#808080" begin="arrowLeft.mouseover" end="arrowLeft.mouseout"/>
                  </use>
                  <path fill="none" stroke="white" stroke-width="1.5" d="M0,-3.0v7 M-2.5,-0.5L0,-3.0L2.5,-0.5"/>
                </g>
        </g>
        <svg viewBox="0 0 15 15" width="100%" height="30px" preserveAspectRatio="xMaxYMin meet">
         <g id="arrow_out" transform="scale(0.3 0.3)">
          <a xlink:href="structo2_1_1framework_1_1DeviceInfo__coll__graph_org.svg" target="_base">
           <rect id="button" ry="5" rx="5" y="6" x="6" height="38" width="38"
                fill="#f2f5e9" fill-opacity="0.5" stroke="#606060" stroke-width="1.0"/>
           <path id="arrow"
             d="M 11.500037,31.436501 C 11.940474,20.09759 22.043105,11.32322 32.158766,21.979434 L 37.068811,17.246167 C 37.068811,17.246167 37.088388,32 37.088388,32 L 22.160133,31.978069 C 22.160133,31.978069 26.997745,27.140456 26.997745,27.140456 C 18.528582,18.264221 13.291696,25.230495 11.500037,31.436501 z"
             style="fill:#404040;"/>
          </a>
         </g>
        </svg>
</svg>
