<?xml version="1.0" encoding="UTF-8" standalone="no"?>
<!DOCTYPE svg PUBLIC "-//W3C//DTD SVG 1.1//EN"
 "http://www.w3.org/Graphics/SVG/1.1/DTD/svg11.dtd">
<!-- Generated by graphviz version 2.40.1 (20161225.0304)
 -->
<!-- Title: AliHLTTPCClusterStatComponent::AliHLTTPCTrackHelperStruct Pages: 1 -->
<svg width="471pt" height="204pt"
 viewBox="0.00 0.00 471.00 204.00" xmlns="http://www.w3.org/2000/svg" xmlns:xlink="http://www.w3.org/1999/xlink">
<g id="graph0" class="graph" transform="scale(1 1) rotate(0) translate(4 200)">
<title>AliHLTTPCClusterStatComponent::AliHLTTPCTrackHelperStruct</title>
<!-- Node1 -->
<g id="node1" class="node">
<title>Node1</title>
<polygon fill="#bfbfbf" stroke="#000000" points="193,-.5 193,-68.5 369,-68.5 369,-.5 193,-.5"/>
<text text-anchor="start" x="201" y="-56.5" font-family="Helvetica,sans-Serif" font-size="10.00" fill="#000000">AliHLTTPCClusterStatComponent</text>
<text text-anchor="middle" x="281" y="-45.5" font-family="Helvetica,sans-Serif" font-size="10.00" fill="#000000">::AliHLTTPCTrackHelperStruct</text>
<polyline fill="none" stroke="#000000" points="193,-38.5 369,-38.5 "/>
<text text-anchor="middle" x="281" y="-26.5" font-family="Helvetica,sans-Serif" font-size="10.00" fill="#000000"> </text>
<polyline fill="none" stroke="#000000" points="193,-19.5 369,-19.5 "/>
<text text-anchor="middle" x="281" y="-7.5" font-family="Helvetica,sans-Serif" font-size="10.00" fill="#000000"> </text>
</g>
<!-- Node2 -->
<g id="node2" class="node">
<title>Node2</title>
<polygon fill="none" stroke="#bfbfbf" points="0,-127.5 0,-195.5 142,-195.5 142,-127.5 0,-127.5"/>
<text text-anchor="start" x="8" y="-183.5" font-family="Helvetica,sans-Serif" font-size="10.00" fill="#000000">const AliHLTExternalTrack</text>
<text text-anchor="middle" x="71" y="-172.5" font-family="Helvetica,sans-Serif" font-size="10.00" fill="#000000">Param *</text>
<polyline fill="none" stroke="#bfbfbf" points="0,-165.5 142,-165.5 "/>
<text text-anchor="middle" x="71" y="-153.5" font-family="Helvetica,sans-Serif" font-size="10.00" fill="#000000"> </text>
<polyline fill="none" stroke="#bfbfbf" points="0,-146.5 142,-146.5 "/>
<text text-anchor="middle" x="71" y="-134.5" font-family="Helvetica,sans-Serif" font-size="10.00" fill="#000000"> </text>
</g>
<!-- Node2&#45;&gt;Node1 -->
<g id="edge1" class="edge">
<title>Node2&#45;&gt;Node1</title>
<path fill="none" stroke="#404040" d="M97.1522,-127.3844C109.2671,-113.3786 124.6049,-97.9218 141,-87 153.4441,-78.7103 167.3761,-71.4931 181.4963,-65.2854"/>
<polygon fill="none" stroke="#404040" points="181.7725,-65.1695 185.7552,-59.158 192.8361,-60.5223 188.8533,-66.5338 181.7725,-65.1695"/>
<text text-anchor="middle" x="161.5" y="-95.5" font-family="Helvetica,sans-Serif" font-size="10.00" fill="#000000"> +fTrack</text>
</g>
<!-- Node3 -->
<g id="node3" class="node">
<title>Node3</title>
<g id="a_node3"><a xlink:href="../../d4/dc3/classfloat.html" target="_top" xlink:title="{float\n||}">
<polygon fill="none" stroke="#000000" points="160,-133 160,-190 198,-190 198,-133 160,-133"/>
<text text-anchor="middle" x="179" y="-178" font-family="Helvetica,sans-Serif" font-size="10.00" fill="#000000">float</text>
<polyline fill="none" stroke="#000000" points="160,-171 198,-171 "/>
<text text-anchor="middle" x="179" y="-159" font-family="Helvetica,sans-Serif" font-size="10.00" fill="#000000"> </text>
<polyline fill="none" stroke="#000000" points="160,-152 198,-152 "/>
<text text-anchor="middle" x="179" y="-140" font-family="Helvetica,sans-Serif" font-size="10.00" fill="#000000"> </text>
</a>
</g>
</g>
<!-- Node3&#45;&gt;Node1 -->
<g id="edge2" class="edge">
<title>Node3&#45;&gt;Node1</title>
<path fill="none" stroke="#404040" d="M180.7769,-132.8188C182.8996,-117.9932 187.4288,-100.2762 197,-87 199.618,-83.3686 202.5721,-79.9329 205.7668,-76.6906"/>
<polygon fill="none" stroke="#404040" points="205.8374,-76.6265 207.5894,-69.6315 214.7203,-68.5583 212.9682,-75.5534 205.8374,-76.6265"/>
<text text-anchor="middle" x="236.5" y="-101" font-family="Helvetica,sans-Serif" font-size="10.00" fill="#000000"> +fResidualPad</text>
<text text-anchor="middle" x="236.5" y="-90" font-family="Helvetica,sans-Serif" font-size="10.00" fill="#000000">+fResidualTime</text>
</g>
<!-- Node4 -->
<g id="node4" class="node">
<title>Node4</title>
<polygon fill="none" stroke="#bfbfbf" points="265.5,-133 265.5,-190 294.5,-190 294.5,-133 265.5,-133"/>
<text text-anchor="middle" x="280" y="-178" font-family="Helvetica,sans-Serif" font-size="10.00" fill="#000000">int</text>
<polyline fill="none" stroke="#bfbfbf" points="265.5,-171 294.5,-171 "/>
<text text-anchor="middle" x="280" y="-159" font-family="Helvetica,sans-Serif" font-size="10.00" fill="#000000"> </text>
<polyline fill="none" stroke="#bfbfbf" points="265.5,-152 294.5,-152 "/>
<text text-anchor="middle" x="280" y="-140" font-family="Helvetica,sans-Serif" font-size="10.00" fill="#000000"> </text>
</g>
<!-- Node4&#45;&gt;Node1 -->
<g id="edge3" class="edge">
<title>Node4&#45;&gt;Node1</title>
<path fill="none" stroke="#404040" d="M280.2244,-132.9987C280.3455,-117.6238 280.4979,-98.2679 280.6355,-80.7926"/>
<polygon fill="none" stroke="#404040" points="280.6355,-80.7761 276.6829,-74.7448 280.7301,-68.7765 284.6827,-74.8079 280.6355,-80.7761"/>
<text text-anchor="middle" x="293" y="-95.5" font-family="Helvetica,sans-Serif" font-size="10.00" fill="#000000"> +fID</text>
</g>
<!-- Node5 -->
<g id="node5" class="node">
<title>Node5</title>
<polygon fill="none" stroke="#bfbfbf" points="313,-133 313,-190 351,-190 351,-133 313,-133"/>
<text text-anchor="middle" x="332" y="-178" font-family="Helvetica,sans-Serif" font-size="10.00" fill="#000000">bool</text>
<polyline fill="none" stroke="#bfbfbf" points="313,-171 351,-171 "/>
<text text-anchor="middle" x="332" y="-159" font-family="Helvetica,sans-Serif" font-size="10.00" fill="#000000"> </text>
<polyline fill="none" stroke="#bfbfbf" points="313,-152 351,-152 "/>
<text text-anchor="middle" x="332" y="-140" font-family="Helvetica,sans-Serif" font-size="10.00" fill="#000000"> </text>
</g>
<!-- Node5&#45;&gt;Node1 -->
<g id="edge4" class="edge">
<title>Node5&#45;&gt;Node1</title>
<path fill="none" stroke="#404040" d="M324.5095,-132.7477C320.5086,-118.7253 315.1421,-101.7448 309,-87 307.9834,-84.5595 306.8902,-82.0822 305.7458,-79.5999"/>
<polygon fill="none" stroke="#404040" points="305.7326,-79.5725 299.51,-75.9285 300.4804,-68.7829 306.703,-72.427 305.7326,-79.5725"/>
<text text-anchor="middle" x="341" y="-95.5" font-family="Helvetica,sans-Serif" font-size="10.00" fill="#000000"> +fFirstHit</text>
</g>
<!-- Node6 -->
<g id="node6" class="node">
<title>Node6</title>
<polygon fill="none" stroke="#bfbfbf" points="385,-133 385,-190 423,-190 423,-133 385,-133"/>
<text text-anchor="middle" x="404" y="-178" font-family="Helvetica,sans-Serif" font-size="10.00" fill="#000000">long</text>
<polyline fill="none" stroke="#bfbfbf" points="385,-171 423,-171 "/>
<text text-anchor="middle" x="404" y="-159" font-family="Helvetica,sans-Serif" font-size="10.00" fill="#000000"> </text>
<polyline fill="none" stroke="#bfbfbf" points="385,-152 423,-152 "/>
<text text-anchor="middle" x="404" y="-140" font-family="Helvetica,sans-Serif" font-size="10.00" fill="#000000"> </text>
</g>
<!-- Node6&#45;&gt;Node1 -->
<g id="edge5" class="edge">
<title>Node6&#45;&gt;Node1</title>
<path fill="none" stroke="#404040" d="M395.6118,-132.9545C390.1415,-117.9903 381.7958,-100.1018 370,-87 366.6241,-83.2504 362.9158,-79.6909 358.9887,-76.3252"/>
<polygon fill="none" stroke="#404040" points="358.9033,-76.2578 351.7153,-75.6817 349.4825,-68.8249 356.6705,-69.4011 358.9033,-76.2578"/>
<text text-anchor="middle" x="423" y="-101" font-family="Helvetica,sans-Serif" font-size="10.00" fill="#000000"> +fAverageQTot</text>
<text text-anchor="middle" x="423" y="-90" font-family="Helvetica,sans-Serif" font-size="10.00" fill="#000000">+fAverageQMax</text>
</g>
</g>
</svg>
