<?xml version="1.0" encoding="UTF-8" standalone="no"?>
<!DOCTYPE svg PUBLIC "-//W3C//DTD SVG 1.1//EN"
 "http://www.w3.org/Graphics/SVG/1.1/DTD/svg11.dtd">
<!-- Generated by graphviz version 2.40.1 (20161225.0304)
 -->
<!-- Title: /home/travis/build/AliceO2Group/AliceO2/Detectors/Base/include/DetectorsBase Pages: 1 -->
<svg width="251pt" height="439pt"
 viewBox="0.00 0.00 250.90 439.00" xmlns="http://www.w3.org/2000/svg" xmlns:xlink="http://www.w3.org/1999/xlink">
<g id="graph0" class="graph" transform="scale(1 1) rotate(0) translate(4 435)">
<title>/home/travis/build/AliceO2Group/AliceO2/Detectors/Base/include/DetectorsBase</title>
<g id="clust1" class="cluster">
<title>clusterdir_548839eeca1931d32df07653a7903e44</title>
<g id="a_clust1"><a xlink:href="dir_548839eeca1931d32df07653a7903e44.html" target="_top" xlink:title="include">
<polygon fill="#ddddee" stroke="#000000" points="79,-352 79,-423 183,-423 183,-352 79,-352"/>
<text text-anchor="middle" x="131" y="-411" font-family="Helvetica,sans-Serif" font-size="10.00" fill="#000000">include</text>
</a>
</g>
</g>
<!-- dir_ebd881cb3be9af9de1e2db4daa6c5c6f -->
<g id="node1" class="node">
<title>dir_ebd881cb3be9af9de1e2db4daa6c5c6f</title>
<g id="a_node1"><a xlink:href="dir_ebd881cb3be9af9de1e2db4daa6c5c6f.html" target="_top" xlink:title="DetectorsBase">
<polygon fill="#eeeeff" stroke="#000000" points="175,-396 87,-396 87,-360 175,-360 175,-396"/>
<text text-anchor="middle" x="131" y="-375.5" font-family="Helvetica,sans-Serif" font-size="10.00" fill="#000000">DetectorsBase</text>
</a>
</g>
</g>
<!-- dir_4ab6b4cc6a7edbff49100e9123df213f -->
<g id="node2" class="node">
<title>dir_4ab6b4cc6a7edbff49100e9123df213f</title>
<g id="a_node2"><a xlink:href="dir_4ab6b4cc6a7edbff49100e9123df213f.html" target="_top" xlink:title="Common">
<polygon fill="none" stroke="#ff0000" points="223.5,-324 162.5,-324 162.5,-288 223.5,-288 223.5,-324"/>
<text text-anchor="middle" x="193" y="-303.5" font-family="Helvetica,sans-Serif" font-size="10.00" fill="#000000">Common</text>
</a>
</g>
</g>
<!-- dir_ebd881cb3be9af9de1e2db4daa6c5c6f&#45;&gt;dir_4ab6b4cc6a7edbff49100e9123df213f -->
<g id="edge16" class="edge">
<title>dir_ebd881cb3be9af9de1e2db4daa6c5c6f&#45;&gt;dir_4ab6b4cc6a7edbff49100e9123df213f</title>
<path fill="none" stroke="#000000" d="M146.6452,-359.8314C153.8591,-351.454 162.557,-341.3531 170.4605,-332.1749"/>
<polygon fill="#000000" stroke="#000000" points="173.2711,-334.2748 177.1441,-324.4133 167.9667,-329.7071 173.2711,-334.2748"/>
<g id="a_edge16&#45;headlabel"><a xlink:href="dir_000282_000032.html" target="_top" xlink:title="7">
<text text-anchor="middle" x="173.077" y="-336.3514" font-family="Helvetica,sans-Serif" font-size="10.00" fill="#000000">7</text>
</a>
</g>
</g>
<!-- dir_b05a5fa85f84bfc9013183c9d87f9a36 -->
<g id="node3" class="node">
<title>dir_b05a5fa85f84bfc9013183c9d87f9a36</title>
<g id="a_node3"><a xlink:href="dir_b05a5fa85f84bfc9013183c9d87f9a36.html" target="_top" xlink:title="Utilities">
<polygon fill="none" stroke="#ff0000" points="143.5,-108 88.5,-108 88.5,-72 143.5,-72 143.5,-108"/>
<text text-anchor="middle" x="116" y="-87.5" font-family="Helvetica,sans-Serif" font-size="10.00" fill="#000000">Utilities</text>
</a>
</g>
</g>
<!-- dir_ebd881cb3be9af9de1e2db4daa6c5c6f&#45;&gt;dir_b05a5fa85f84bfc9013183c9d87f9a36 -->
<g id="edge17" class="edge">
<title>dir_ebd881cb3be9af9de1e2db4daa6c5c6f&#45;&gt;dir_b05a5fa85f84bfc9013183c9d87f9a36</title>
<path fill="none" stroke="#000000" d="M121.0699,-359.9049C108.5882,-336.0295 87.8478,-292.3053 80,-252 76.8489,-235.8162 76.2527,-159.6523 81,-144 83.9361,-134.3196 89.1738,-124.7315 94.7176,-116.3815"/>
<polygon fill="#000000" stroke="#000000" points="97.6043,-118.3613 100.5221,-108.1761 91.8896,-114.3187 97.6043,-118.3613"/>
<g id="a_edge17&#45;headlabel"><a xlink:href="dir_000282_000615.html" target="_top" xlink:title="1">
<text text-anchor="middle" x="97.8463" y="-120.4356" font-family="Helvetica,sans-Serif" font-size="10.00" fill="#000000">1</text>
</a>
</g>
</g>
<!-- dir_f511f1e9c03c071966ae594f00bbc5e0 -->
<g id="node4" class="node">
<title>dir_f511f1e9c03c071966ae594f00bbc5e0</title>
<g id="a_node4"><a xlink:href="dir_f511f1e9c03c071966ae594f00bbc5e0.html" target="_top" xlink:title="GPU">
<polygon fill="none" stroke="#ff0000" points="158,-252 104,-252 104,-216 158,-216 158,-252"/>
<text text-anchor="middle" x="131" y="-231.5" font-family="Helvetica,sans-Serif" font-size="10.00" fill="#000000">GPU</text>
</a>
</g>
</g>
<!-- dir_ebd881cb3be9af9de1e2db4daa6c5c6f&#45;&gt;dir_f511f1e9c03c071966ae594f00bbc5e0 -->
<g id="edge18" class="edge">
<title>dir_ebd881cb3be9af9de1e2db4daa6c5c6f&#45;&gt;dir_f511f1e9c03c071966ae594f00bbc5e0</title>
<path fill="none" stroke="#000000" d="M131,-359.7623C131,-335.201 131,-291.2474 131,-262.3541"/>
<polygon fill="#000000" stroke="#000000" points="134.5001,-262.0896 131,-252.0896 127.5001,-262.0897 134.5001,-262.0896"/>
<g id="a_edge18&#45;headlabel"><a xlink:href="dir_000282_000732.html" target="_top" xlink:title="11">
<text text-anchor="middle" x="137.3393" y="-263.1842" font-family="Helvetica,sans-Serif" font-size="10.00" fill="#000000">11</text>
</a>
</g>
</g>
<!-- dir_bcbb2cf9a3d3d83e5515c82071a07177 -->
<g id="node5" class="node">
<title>dir_bcbb2cf9a3d3d83e5515c82071a07177</title>
<g id="a_node5"><a xlink:href="dir_bcbb2cf9a3d3d83e5515c82071a07177.html" target="_top" xlink:title="Framework">
<polygon fill="none" stroke="#ff0000" points="217.5,-36 146.5,-36 146.5,0 217.5,0 217.5,-36"/>
<text text-anchor="middle" x="182" y="-15.5" font-family="Helvetica,sans-Serif" font-size="10.00" fill="#000000">Framework</text>
</a>
</g>
</g>
<!-- dir_ebd881cb3be9af9de1e2db4daa6c5c6f&#45;&gt;dir_bcbb2cf9a3d3d83e5515c82071a07177 -->
<g id="edge19" class="edge">
<title>dir_ebd881cb3be9af9de1e2db4daa6c5c6f&#45;&gt;dir_bcbb2cf9a3d3d83e5515c82071a07177</title>
<path fill="none" stroke="#000000" d="M96.9233,-359.8248C58.1086,-336.3662 0,-291.6241 0,-234 0,-234 0,-234 0,-162 0,-92.3977 82.8739,-51.1597 136.7756,-31.6992"/>
<polygon fill="#000000" stroke="#000000" points="138.1862,-34.9141 146.4765,-28.317 135.8817,-28.3043 138.1862,-34.9141"/>
<g id="a_edge19&#45;headlabel"><a xlink:href="dir_000282_000058.html" target="_top" xlink:title="1">
<text text-anchor="middle" x="135.7267" y="-36.2784" font-family="Helvetica,sans-Serif" font-size="10.00" fill="#000000">1</text>
</a>
</g>
</g>
<!-- dir_2171f7ec022c5423887b07c69b2f5b48 -->
<g id="node6" class="node">
<title>dir_2171f7ec022c5423887b07c69b2f5b48</title>
<g id="a_node6"><a xlink:href="dir_2171f7ec022c5423887b07c69b2f5b48.html" target="_top" xlink:title="DataFormats">
<polygon fill="none" stroke="#ff0000" points="222,-180 142,-180 142,-144 222,-144 222,-180"/>
<text text-anchor="middle" x="182" y="-159.5" font-family="Helvetica,sans-Serif" font-size="10.00" fill="#000000">DataFormats</text>
</a>
</g>
</g>
<!-- dir_ebd881cb3be9af9de1e2db4daa6c5c6f&#45;&gt;dir_2171f7ec022c5423887b07c69b2f5b48 -->
<g id="edge20" class="edge">
<title>dir_ebd881cb3be9af9de1e2db4daa6c5c6f&#45;&gt;dir_2171f7ec022c5423887b07c69b2f5b48</title>
<path fill="none" stroke="#000000" d="M175.2193,-366.3166C196.6347,-358.1878 220.3911,-344.9421 233,-324 259.2473,-280.4057 226.929,-221.9663 203.0789,-188.5086"/>
<polygon fill="#000000" stroke="#000000" points="205.6836,-186.1431 196.9358,-180.166 200.0469,-190.2938 205.6836,-186.1431"/>
<g id="a_edge20&#45;headlabel"><a xlink:href="dir_000282_000085.html" target="_top" xlink:title="8">
<text text-anchor="middle" x="210.1013" y="-184.8541" font-family="Helvetica,sans-Serif" font-size="10.00" fill="#000000">8</text>
</a>
</g>
</g>
<!-- dir_4ab6b4cc6a7edbff49100e9123df213f&#45;&gt;dir_f511f1e9c03c071966ae594f00bbc5e0 -->
<g id="edge1" class="edge">
<title>dir_4ab6b4cc6a7edbff49100e9123df213f&#45;&gt;dir_f511f1e9c03c071966ae594f00bbc5e0</title>
<path fill="none" stroke="#000000" d="M171.4024,-287.8314C163.4533,-279.5386 154.664,-269.557 147.2448,-260.4533"/>
<polygon fill="#000000" stroke="#000000" points="149.831,-258.0814 140.8799,-252.4133 144.3427,-262.4263 149.831,-258.0814"/>
<g id="a_edge1&#45;headlabel"><a xlink:href="dir_000032_000732.html" target="_top" xlink:title="3">
<text text-anchor="middle" x="154.2883" y="-256.6374" font-family="Helvetica,sans-Serif" font-size="10.00" fill="#000000">3</text>
</a>
</g>
</g>
<!-- dir_4ab6b4cc6a7edbff49100e9123df213f&#45;&gt;dir_bcbb2cf9a3d3d83e5515c82071a07177 -->
<g id="edge2" class="edge">
<title>dir_4ab6b4cc6a7edbff49100e9123df213f&#45;&gt;dir_bcbb2cf9a3d3d83e5515c82071a07177</title>
<path fill="none" stroke="#000000" d="M196.6702,-287.6769C207.266,-257.8022 231.2139,-196.6433 222,-144 215.8117,-108.6435 199.5306,-70.5647 189.3422,-45.6335"/>
<polygon fill="#000000" stroke="#000000" points="192.4956,-44.0937 185.5203,-36.1189 186,-46.7029 192.4956,-44.0937"/>
<g id="a_edge2&#45;headlabel"><a xlink:href="dir_000032_000058.html" target="_top" xlink:title="2">
<text text-anchor="middle" x="196.47" y="-43.871" font-family="Helvetica,sans-Serif" font-size="10.00" fill="#000000">2</text>
</a>
</g>
</g>
<!-- dir_4ab6b4cc6a7edbff49100e9123df213f&#45;&gt;dir_2171f7ec022c5423887b07c69b2f5b48 -->
<g id="edge3" class="edge">
<title>dir_4ab6b4cc6a7edbff49100e9123df213f&#45;&gt;dir_2171f7ec022c5423887b07c69b2f5b48</title>
<path fill="none" stroke="#000000" d="M186.9337,-287.7623C182.5977,-263.201 178.9653,-219.2474 178.6685,-190.3541"/>
<polygon fill="#000000" stroke="#000000" points="182.1698,-190.1083 178.7236,-180.0896 175.1699,-190.0707 182.1698,-190.1083"/>
<g id="a_edge3&#45;headlabel"><a xlink:href="dir_000032_000085.html" target="_top" xlink:title="2">
<text text-anchor="middle" x="184.9898" y="-191.218" font-family="Helvetica,sans-Serif" font-size="10.00" fill="#000000">2</text>
</a>
</g>
</g>
<!-- dir_b05a5fa85f84bfc9013183c9d87f9a36&#45;&gt;dir_4ab6b4cc6a7edbff49100e9123df213f -->
<g id="edge4" class="edge">
<title>dir_b05a5fa85f84bfc9013183c9d87f9a36&#45;&gt;dir_4ab6b4cc6a7edbff49100e9123df213f</title>
<path fill="none" stroke="#000000" d="M106.6019,-108.5014C91.9188,-140.2449 67.8815,-206.0943 95,-252 107.5096,-273.176 131.616,-286.6143 152.7886,-294.789"/>
<polygon fill="#000000" stroke="#000000" points="151.6634,-298.1036 162.258,-298.1834 154.0256,-291.5142 151.6634,-298.1036"/>
<g id="a_edge4&#45;headlabel"><a xlink:href="dir_000615_000032.html" target="_top" xlink:title="1">
<text text-anchor="middle" x="147.3216" y="-297.0635" font-family="Helvetica,sans-Serif" font-size="10.00" fill="#000000">1</text>
</a>
</g>
</g>
<!-- dir_b05a5fa85f84bfc9013183c9d87f9a36&#45;&gt;dir_bcbb2cf9a3d3d83e5515c82071a07177 -->
<g id="edge5" class="edge">
<title>dir_b05a5fa85f84bfc9013183c9d87f9a36&#45;&gt;dir_bcbb2cf9a3d3d83e5515c82071a07177</title>
<path fill="none" stroke="#000000" d="M132.6546,-71.8314C140.4114,-63.3694 149.7802,-53.1489 158.261,-43.8971"/>
<polygon fill="#000000" stroke="#000000" points="160.9439,-46.1499 165.1212,-36.4133 155.7838,-41.4198 160.9439,-46.1499"/>
<g id="a_edge5&#45;headlabel"><a xlink:href="dir_000615_000058.html" target="_top" xlink:title="96">
<text text-anchor="middle" x="160.608" y="-48.2182" font-family="Helvetica,sans-Serif" font-size="10.00" fill="#000000">96</text>
</a>
</g>
</g>
<!-- dir_b05a5fa85f84bfc9013183c9d87f9a36&#45;&gt;dir_2171f7ec022c5423887b07c69b2f5b48 -->
<g id="edge6" class="edge">
<title>dir_b05a5fa85f84bfc9013183c9d87f9a36&#45;&gt;dir_2171f7ec022c5423887b07c69b2f5b48</title>
<path fill="none" stroke="#000000" d="M138.6011,-108.1628C147.1616,-116.6038 156.6906,-126.7956 164.706,-136.0303"/>
<polygon fill="#000000" stroke="#000000" points="162.1701,-138.4521 171.2978,-143.8314 167.5169,-133.9341 162.1701,-138.4521"/>
<g id="a_edge6&#45;headlabel"><a xlink:href="dir_000615_000085.html" target="_top" xlink:title="59">
<text text-anchor="middle" x="157.6814" y="-135.039" font-family="Helvetica,sans-Serif" font-size="10.00" fill="#000000">59</text>
</a>
</g>
</g>
<!-- dir_f511f1e9c03c071966ae594f00bbc5e0&#45;&gt;dir_4ab6b4cc6a7edbff49100e9123df213f -->
<g id="edge7" class="edge">
<title>dir_f511f1e9c03c071966ae594f00bbc5e0&#45;&gt;dir_4ab6b4cc6a7edbff49100e9123df213f</title>
<path fill="none" stroke="#000000" d="M152.8319,-252.4133C160.7973,-260.7389 169.5812,-270.7282 176.9732,-279.8144"/>
<polygon fill="#000000" stroke="#000000" points="174.3615,-282.1546 183.3072,-287.8314 179.8541,-277.815 174.3615,-282.1546"/>
<g id="a_edge7&#45;headlabel"><a xlink:href="dir_000732_000032.html" target="_top" xlink:title="4">
<text text-anchor="middle" x="169.9053" y="-278.5942" font-family="Helvetica,sans-Serif" font-size="10.00" fill="#000000">4</text>
</a>
</g>
</g>
<!-- dir_f511f1e9c03c071966ae594f00bbc5e0&#45;&gt;dir_b05a5fa85f84bfc9013183c9d87f9a36 -->
<g id="edge8" class="edge">
<title>dir_f511f1e9c03c071966ae594f00bbc5e0&#45;&gt;dir_b05a5fa85f84bfc9013183c9d87f9a36</title>
<path fill="none" stroke="#000000" d="M129.1002,-215.7623C126.5418,-191.201 121.9633,-147.2474 118.9535,-118.3541"/>
<polygon fill="#000000" stroke="#000000" points="122.4016,-117.6731 117.8843,-108.0896 115.4393,-118.3985 122.4016,-117.6731"/>
<g id="a_edge8&#45;headlabel"><a xlink:href="dir_000732_000615.html" target="_top" xlink:title="4">
<text text-anchor="middle" x="125.598" y="-118.4543" font-family="Helvetica,sans-Serif" font-size="10.00" fill="#000000">4</text>
</a>
</g>
</g>
<!-- dir_f511f1e9c03c071966ae594f00bbc5e0&#45;&gt;dir_2171f7ec022c5423887b07c69b2f5b48 -->
<g id="edge9" class="edge">
<title>dir_f511f1e9c03c071966ae594f00bbc5e0&#45;&gt;dir_2171f7ec022c5423887b07c69b2f5b48</title>
<path fill="none" stroke="#000000" d="M137.9171,-215.8314C142.9829,-207.5386 149.8592,-197.557 156.7277,-188.4533"/>
<polygon fill="#000000" stroke="#000000" points="159.6045,-190.4556 162.9813,-180.4133 154.079,-186.1579 159.6045,-190.4556"/>
<g id="a_edge9&#45;headlabel"><a xlink:href="dir_000732_000085.html" target="_top" xlink:title="16">
<text text-anchor="middle" x="159.6388" y="-192.5361" font-family="Helvetica,sans-Serif" font-size="10.00" fill="#000000">16</text>
</a>
</g>
</g>
<!-- dir_bcbb2cf9a3d3d83e5515c82071a07177&#45;&gt;dir_4ab6b4cc6a7edbff49100e9123df213f -->
<g id="edge10" class="edge">
<title>dir_bcbb2cf9a3d3d83e5515c82071a07177&#45;&gt;dir_4ab6b4cc6a7edbff49100e9123df213f</title>
<path fill="none" stroke="#000000" d="M197.8684,-36.1189C212.8527,-60.0202 232.9591,-103.7721 240,-144 248.3861,-191.9136 229.3015,-246.8814 212.694,-278.896"/>
<polygon fill="#000000" stroke="#000000" points="209.6181,-277.2261 207.8771,-287.6769 215.7553,-280.5928 209.6181,-277.2261"/>
<g id="a_edge10&#45;headlabel"><a xlink:href="dir_000058_000032.html" target="_top" xlink:title="8">
<text text-anchor="middle" x="208.8575" y="-270.209" font-family="Helvetica,sans-Serif" font-size="10.00" fill="#000000">8</text>
</a>
</g>
</g>
<!-- dir_bcbb2cf9a3d3d83e5515c82071a07177&#45;&gt;dir_2171f7ec022c5423887b07c69b2f5b48 -->
<g id="edge11" class="edge">
<title>dir_bcbb2cf9a3d3d83e5515c82071a07177&#45;&gt;dir_2171f7ec022c5423887b07c69b2f5b48</title>
<path fill="none" stroke="#000000" d="M186.6583,-36.0896C189.1269,-60.5727 189.4104,-104.5174 187.5089,-133.4713"/>
<polygon fill="#000000" stroke="#000000" points="183.9942,-133.5118 186.6732,-143.7623 190.9712,-134.0785 183.9942,-133.5118"/>
<g id="a_edge11&#45;headlabel"><a xlink:href="dir_000058_000085.html" target="_top" xlink:title="72">
<text text-anchor="middle" x="181.4551" y="-127.1992" font-family="Helvetica,sans-Serif" font-size="10.00" fill="#000000">72</text>
</a>
</g>
</g>
<!-- dir_2171f7ec022c5423887b07c69b2f5b48&#45;&gt;dir_4ab6b4cc6a7edbff49100e9123df213f -->
<g id="edge12" class="edge">
<title>dir_2171f7ec022c5423887b07c69b2f5b48&#45;&gt;dir_4ab6b4cc6a7edbff49100e9123df213f</title>
<path fill="none" stroke="#000000" d="M188.0401,-180.0896C192.379,-204.5727 196.0194,-248.5174 196.3297,-277.4713"/>
<polygon fill="#000000" stroke="#000000" points="192.8284,-277.7455 196.28,-287.7623 199.8283,-277.7793 192.8284,-277.7455"/>
<g id="a_edge12&#45;headlabel"><a xlink:href="dir_000085_000032.html" target="_top" xlink:title="37">
<text text-anchor="middle" x="190.0064" y="-271.6373" font-family="Helvetica,sans-Serif" font-size="10.00" fill="#000000">37</text>
</a>
</g>
</g>
<!-- dir_2171f7ec022c5423887b07c69b2f5b48&#45;&gt;dir_b05a5fa85f84bfc9013183c9d87f9a36 -->
<g id="edge13" class="edge">
<title>dir_2171f7ec022c5423887b07c69b2f5b48&#45;&gt;dir_b05a5fa85f84bfc9013183c9d87f9a36</title>
<path fill="none" stroke="#000000" d="M159.393,-143.8314C150.8974,-135.454 141.4486,-125.3531 133.4723,-116.1749"/>
<polygon fill="#000000" stroke="#000000" points="136.0349,-113.785 126.9028,-108.4133 130.6918,-118.3074 136.0349,-113.785"/>
<g id="a_edge13&#45;headlabel"><a xlink:href="dir_000085_000615.html" target="_top" xlink:title="1">
<text text-anchor="middle" x="140.5244" y="-112.1945" font-family="Helvetica,sans-Serif" font-size="10.00" fill="#000000">1</text>
</a>
</g>
</g>
<!-- dir_2171f7ec022c5423887b07c69b2f5b48&#45;&gt;dir_f511f1e9c03c071966ae594f00bbc5e0 -->
<g id="edge14" class="edge">
<title>dir_2171f7ec022c5423887b07c69b2f5b48&#45;&gt;dir_f511f1e9c03c071966ae594f00bbc5e0</title>
<path fill="none" stroke="#000000" d="M174.9333,-180.4133C169.832,-188.7389 162.9383,-198.7282 156.07,-207.8144"/>
<polygon fill="#000000" stroke="#000000" points="153.2085,-205.7924 149.8218,-215.8314 158.7297,-210.0955 153.2085,-205.7924"/>
<g id="a_edge14&#45;headlabel"><a xlink:href="dir_000085_000732.html" target="_top" xlink:title="21">
<text text-anchor="middle" x="153.1787" y="-198.7118" font-family="Helvetica,sans-Serif" font-size="10.00" fill="#000000">21</text>
</a>
</g>
</g>
<!-- dir_2171f7ec022c5423887b07c69b2f5b48&#45;&gt;dir_bcbb2cf9a3d3d83e5515c82071a07177 -->
<g id="edge15" class="edge">
<title>dir_2171f7ec022c5423887b07c69b2f5b48&#45;&gt;dir_bcbb2cf9a3d3d83e5515c82071a07177</title>
<path fill="none" stroke="#000000" d="M177.3268,-143.7623C174.867,-119.201 174.5923,-75.2474 176.5026,-46.3541"/>
<polygon fill="#000000" stroke="#000000" points="180.0152,-46.3416 177.3417,-36.0896 173.0385,-45.7712 180.0152,-46.3416"/>
<g id="a_edge15&#45;headlabel"><a xlink:href="dir_000085_000058.html" target="_top" xlink:title="20">
<text text-anchor="middle" x="182.5522" y="-47.6556" font-family="Helvetica,sans-Serif" font-size="10.00" fill="#000000">20</text>
</a>
</g>
</g>
</g>
</svg>
