<?xml version="1.0" encoding="UTF-8" standalone="no"?>
<!DOCTYPE svg PUBLIC "-//W3C//DTD SVG 1.1//EN"
 "http://www.w3.org/Graphics/SVG/1.1/DTD/svg11.dtd">
<!-- Generated by graphviz version 2.40.1 (20161225.0304)
 -->
<!-- Title: /home/travis/build/AliceO2Group/AliceO2/Framework/Core/src Pages: 1 -->
<svg width="289pt" height="439pt"
 viewBox="0.00 0.00 288.86 439.00" xmlns="http://www.w3.org/2000/svg" xmlns:xlink="http://www.w3.org/1999/xlink">
<g id="graph0" class="graph" transform="scale(1 1) rotate(0) translate(4 435)">
<title>/home/travis/build/AliceO2Group/AliceO2/Framework/Core/src</title>
<g id="clust1" class="cluster">
<title>clusterdir_9f165b2481dacfe69aa54d326bd5cd47</title>
<g id="a_clust1"><a xlink:href="dir_9f165b2481dacfe69aa54d326bd5cd47.html" target="_top" xlink:title="Core">
<polygon fill="#ddddee" stroke="#000000" points="124.8551,-352 124.8551,-423 194.8551,-423 194.8551,-352 124.8551,-352"/>
<text text-anchor="middle" x="159.8551" y="-411" font-family="Helvetica,sans-Serif" font-size="10.00" fill="#000000">Core</text>
</a>
</g>
</g>
<!-- dir_0b60ff9a1849fb34896fe8bde9baec43 -->
<g id="node1" class="node">
<title>dir_0b60ff9a1849fb34896fe8bde9baec43</title>
<g id="a_node1"><a xlink:href="dir_0b60ff9a1849fb34896fe8bde9baec43.html" target="_top" xlink:title="src">
<polygon fill="#eeeeff" stroke="#000000" points="186.8551,-396 132.8551,-396 132.8551,-360 186.8551,-360 186.8551,-396"/>
<text text-anchor="middle" x="159.8551" y="-375.5" font-family="Helvetica,sans-Serif" font-size="10.00" fill="#000000">src</text>
</a>
</g>
</g>
<!-- dir_4ab6b4cc6a7edbff49100e9123df213f -->
<g id="node2" class="node">
<title>dir_4ab6b4cc6a7edbff49100e9123df213f</title>
<g id="a_node2"><a xlink:href="dir_4ab6b4cc6a7edbff49100e9123df213f.html" target="_top" xlink:title="Common">
<polygon fill="none" stroke="#ff0000" points="74.3551,-324 13.3551,-324 13.3551,-288 74.3551,-288 74.3551,-324"/>
<text text-anchor="middle" x="43.8551" y="-303.5" font-family="Helvetica,sans-Serif" font-size="10.00" fill="#000000">Common</text>
</a>
</g>
</g>
<!-- dir_0b60ff9a1849fb34896fe8bde9baec43&#45;&gt;dir_4ab6b4cc6a7edbff49100e9123df213f -->
<g id="edge5" class="edge">
<title>dir_0b60ff9a1849fb34896fe8bde9baec43&#45;&gt;dir_4ab6b4cc6a7edbff49100e9123df213f</title>
<path fill="none" stroke="#000000" d="M132.6583,-361.1192C117.5158,-351.7204 98.4272,-339.8723 81.8317,-329.5716"/>
<polygon fill="#000000" stroke="#000000" points="83.2515,-326.3336 72.9093,-324.0336 79.5599,-332.2811 83.2515,-326.3336"/>
<g id="a_edge5&#45;headlabel"><a xlink:href="dir_000713_000032.html" target="_top" xlink:title="1">
<text text-anchor="middle" x="87.8029" y="-323.3168" font-family="Helvetica,sans-Serif" font-size="10.00" fill="#000000">1</text>
</a>
</g>
</g>
<!-- dir_8ba487e25de5ee77e05e9dce7582cb98 -->
<g id="node3" class="node">
<title>dir_8ba487e25de5ee77e05e9dce7582cb98</title>
<g id="a_node3"><a xlink:href="dir_8ba487e25de5ee77e05e9dce7582cb98.html" target="_top" xlink:title="Algorithm">
<polygon fill="none" stroke="#ff0000" points="125.3551,-180 60.3551,-180 60.3551,-144 125.3551,-144 125.3551,-180"/>
<text text-anchor="middle" x="92.8551" y="-159.5" font-family="Helvetica,sans-Serif" font-size="10.00" fill="#000000">Algorithm</text>
</a>
</g>
</g>
<!-- dir_0b60ff9a1849fb34896fe8bde9baec43&#45;&gt;dir_8ba487e25de5ee77e05e9dce7582cb98 -->
<g id="edge6" class="edge">
<title>dir_0b60ff9a1849fb34896fe8bde9baec43&#45;&gt;dir_8ba487e25de5ee77e05e9dce7582cb98</title>
<path fill="none" stroke="#000000" d="M154.258,-359.9555C142.5576,-322.235 115.4424,-234.8188 101.4906,-189.8399"/>
<polygon fill="#000000" stroke="#000000" points="104.789,-188.6592 98.4835,-180.1451 98.1032,-190.7331 104.789,-188.6592"/>
<g id="a_edge6&#45;headlabel"><a xlink:href="dir_000713_000000.html" target="_top" xlink:title="1">
<text text-anchor="middle" x="108.5657" y="-188.7513" font-family="Helvetica,sans-Serif" font-size="10.00" fill="#000000">1</text>
</a>
</g>
</g>
<!-- dir_5d813cdce1e9826318f2aba62999ca51 -->
<g id="node4" class="node">
<title>dir_5d813cdce1e9826318f2aba62999ca51</title>
<g id="a_node4"><a xlink:href="dir_5d813cdce1e9826318f2aba62999ca51.html" target="_top" xlink:title="Foundation">
<polygon fill="none" stroke="#ff0000" points="214.3551,-180 143.3551,-180 143.3551,-144 214.3551,-144 214.3551,-180"/>
<text text-anchor="middle" x="178.8551" y="-159.5" font-family="Helvetica,sans-Serif" font-size="10.00" fill="#000000">Foundation</text>
</a>
</g>
</g>
<!-- dir_0b60ff9a1849fb34896fe8bde9baec43&#45;&gt;dir_5d813cdce1e9826318f2aba62999ca51 -->
<g id="edge7" class="edge">
<title>dir_0b60ff9a1849fb34896fe8bde9baec43&#45;&gt;dir_5d813cdce1e9826318f2aba62999ca51</title>
<path fill="none" stroke="#000000" d="M161.4424,-359.9555C164.7534,-322.3144 172.4174,-235.1867 176.3812,-190.1246"/>
<polygon fill="#000000" stroke="#000000" points="179.8692,-190.4133 177.259,-180.1451 172.8962,-189.7999 179.8692,-190.4133"/>
<g id="a_edge7&#45;headlabel"><a xlink:href="dir_000713_000715.html" target="_top" xlink:title="16">
<text text-anchor="middle" x="182.3827" y="-191.7429" font-family="Helvetica,sans-Serif" font-size="10.00" fill="#000000">16</text>
</a>
</g>
</g>
<!-- dir_985a55873ec4a56b27533251576853b6 -->
<g id="node5" class="node">
<title>dir_985a55873ec4a56b27533251576853b6</title>
<g id="a_node5"><a xlink:href="dir_985a55873ec4a56b27533251576853b6.html" target="_top" xlink:title="include">
<polygon fill="none" stroke="#ff0000" points="159.8551,-108 105.8551,-108 105.8551,-72 159.8551,-72 159.8551,-108"/>
<text text-anchor="middle" x="132.8551" y="-87.5" font-family="Helvetica,sans-Serif" font-size="10.00" fill="#000000">include</text>
</a>
</g>
</g>
<!-- dir_0b60ff9a1849fb34896fe8bde9baec43&#45;&gt;dir_985a55873ec4a56b27533251576853b6 -->
<g id="edge8" class="edge">
<title>dir_0b60ff9a1849fb34896fe8bde9baec43&#45;&gt;dir_985a55873ec4a56b27533251576853b6</title>
<path fill="none" stroke="#000000" d="M173.6862,-359.8151C203.0277,-318.847 265.5353,-217.1994 223.8551,-144 212.2155,-123.5583 189.4531,-110.0559 169.6068,-101.6651"/>
<polygon fill="#000000" stroke="#000000" points="170.747,-98.3526 160.1599,-97.9486 168.1843,-104.8667 170.747,-98.3526"/>
<g id="a_edge8&#45;headlabel"><a xlink:href="dir_000713_000711.html" target="_top" xlink:title="357">
<text text-anchor="middle" x="175.1315" y="-94.5264" font-family="Helvetica,sans-Serif" font-size="10.00" fill="#000000">357</text>
</a>
</g>
</g>
<!-- dir_ab5a80d4bd40f73f0851d5ff6a022779 -->
<g id="node6" class="node">
<title>dir_ab5a80d4bd40f73f0851d5ff6a022779</title>
<g id="a_node6"><a xlink:href="dir_ab5a80d4bd40f73f0851d5ff6a022779.html" target="_top" xlink:title="Logger">
<polygon fill="none" stroke="#ff0000" points="112.8551,-36 58.8551,-36 58.8551,0 112.8551,0 112.8551,-36"/>
<text text-anchor="middle" x="85.8551" y="-15.5" font-family="Helvetica,sans-Serif" font-size="10.00" fill="#000000">Logger</text>
</a>
</g>
</g>
<!-- dir_0b60ff9a1849fb34896fe8bde9baec43&#45;&gt;dir_ab5a80d4bd40f73f0851d5ff6a022779 -->
<g id="edge9" class="edge">
<title>dir_0b60ff9a1849fb34896fe8bde9baec43&#45;&gt;dir_ab5a80d4bd40f73f0851d5ff6a022779</title>
<path fill="none" stroke="#000000" d="M187.0099,-362.0336C222.6847,-338.774 280.8551,-291.9611 280.8551,-234 280.8551,-234 280.8551,-234 280.8551,-162 280.8551,-84.1864 179.1317,-43.6572 122.6262,-27.1465"/>
<polygon fill="#000000" stroke="#000000" points="123.5432,-23.7687 112.969,-24.4294 121.6473,-30.507 123.5432,-23.7687"/>
<g id="a_edge9&#45;headlabel"><a xlink:href="dir_000713_000720.html" target="_top" xlink:title="22">
<text text-anchor="middle" x="127.7725" y="-19.509" font-family="Helvetica,sans-Serif" font-size="10.00" fill="#000000">22</text>
</a>
</g>
</g>
<!-- dir_2171f7ec022c5423887b07c69b2f5b48 -->
<g id="node7" class="node">
<title>dir_2171f7ec022c5423887b07c69b2f5b48</title>
<g id="a_node7"><a xlink:href="dir_2171f7ec022c5423887b07c69b2f5b48.html" target="_top" xlink:title="DataFormats">
<polygon fill="none" stroke="#ff0000" points="97.8551,-252 17.8551,-252 17.8551,-216 97.8551,-216 97.8551,-252"/>
<text text-anchor="middle" x="57.8551" y="-231.5" font-family="Helvetica,sans-Serif" font-size="10.00" fill="#000000">DataFormats</text>
</a>
</g>
</g>
<!-- dir_0b60ff9a1849fb34896fe8bde9baec43&#45;&gt;dir_2171f7ec022c5423887b07c69b2f5b48 -->
<g id="edge10" class="edge">
<title>dir_0b60ff9a1849fb34896fe8bde9baec43&#45;&gt;dir_2171f7ec022c5423887b07c69b2f5b48</title>
<path fill="none" stroke="#000000" d="M146.9367,-359.7623C129.156,-334.66 97.0272,-289.3017 76.6026,-260.4671"/>
<polygon fill="#000000" stroke="#000000" points="79.3049,-258.2268 70.6686,-252.0896 73.5927,-262.273 79.3049,-258.2268"/>
<g id="a_edge10&#45;headlabel"><a xlink:href="dir_000713_000085.html" target="_top" xlink:title="15">
<text text-anchor="middle" x="83.6995" y="-257.0189" font-family="Helvetica,sans-Serif" font-size="10.00" fill="#000000">15</text>
</a>
</g>
</g>
<!-- dir_4ab6b4cc6a7edbff49100e9123df213f&#45;&gt;dir_ab5a80d4bd40f73f0851d5ff6a022779 -->
<g id="edge1" class="edge">
<title>dir_4ab6b4cc6a7edbff49100e9123df213f&#45;&gt;dir_ab5a80d4bd40f73f0851d5ff6a022779</title>
<path fill="none" stroke="#000000" d="M25.2511,-287.8067C16.6519,-278.0891 7.3614,-265.3872 2.8551,-252 -2.2493,-236.8361 1.6434,-231.9541 2.8551,-216 7.8945,-149.6475 10.3348,-129.4842 43.8551,-72 49.4771,-62.3589 56.6307,-52.5198 63.4341,-43.9271"/>
<polygon fill="#000000" stroke="#000000" points="66.1917,-46.0836 69.7882,-36.1178 60.762,-41.6656 66.1917,-46.0836"/>
<g id="a_edge1&#45;headlabel"><a xlink:href="dir_000032_000720.html" target="_top" xlink:title="2">
<text text-anchor="middle" x="66.1254" y="-48.1638" font-family="Helvetica,sans-Serif" font-size="10.00" fill="#000000">2</text>
</a>
</g>
</g>
<!-- dir_4ab6b4cc6a7edbff49100e9123df213f&#45;&gt;dir_2171f7ec022c5423887b07c69b2f5b48 -->
<g id="edge2" class="edge">
<title>dir_4ab6b4cc6a7edbff49100e9123df213f&#45;&gt;dir_2171f7ec022c5423887b07c69b2f5b48</title>
<path fill="none" stroke="#000000" d="M41.4355,-287.8314C42.1906,-280.0463 43.7763,-270.7729 45.7798,-262.1347"/>
<polygon fill="#000000" stroke="#000000" points="49.1785,-262.9715 48.2988,-252.4133 42.4022,-261.2156 49.1785,-262.9715"/>
<g id="a_edge2&#45;headlabel"><a xlink:href="dir_000032_000085.html" target="_top" xlink:title="2">
<text text-anchor="middle" x="51.0254" y="-264.6634" font-family="Helvetica,sans-Serif" font-size="10.00" fill="#000000">2</text>
</a>
</g>
</g>
<!-- dir_8ba487e25de5ee77e05e9dce7582cb98&#45;&gt;dir_2171f7ec022c5423887b07c69b2f5b48 -->
<g id="edge3" class="edge">
<title>dir_8ba487e25de5ee77e05e9dce7582cb98&#45;&gt;dir_2171f7ec022c5423887b07c69b2f5b48</title>
<path fill="none" stroke="#000000" d="M89.8802,-180.4133C86.7287,-188.484 82.24,-198.1182 77.5509,-206.9775"/>
<polygon fill="#000000" stroke="#000000" points="74.4298,-205.3889 72.6395,-215.8314 80.551,-208.7845 74.4298,-205.3889"/>
<g id="a_edge3&#45;headlabel"><a xlink:href="dir_000000_000085.html" target="_top" xlink:title="8">
<text text-anchor="middle" x="73.6906" y="-198.3682" font-family="Helvetica,sans-Serif" font-size="10.00" fill="#000000">8</text>
</a>
</g>
</g>
<!-- dir_5d813cdce1e9826318f2aba62999ca51&#45;&gt;dir_985a55873ec4a56b27533251576853b6 -->
<g id="edge4" class="edge">
<title>dir_5d813cdce1e9826318f2aba62999ca51&#45;&gt;dir_985a55873ec4a56b27533251576853b6</title>
<path fill="none" stroke="#000000" d="M161.295,-143.8314C155.3756,-135.7925 149.0194,-126.1666 143.7202,-117.2918"/>
<polygon fill="#000000" stroke="#000000" points="146.6456,-115.3567 138.6431,-108.4133 140.5689,-118.8316 146.6456,-115.3567"/>
<g id="a_edge4&#45;headlabel"><a xlink:href="dir_000715_000711.html" target="_top" xlink:title="1">
<text text-anchor="middle" x="150.8947" y="-114.5678" font-family="Helvetica,sans-Serif" font-size="10.00" fill="#000000">1</text>
</a>
</g>
</g>
<!-- dir_985a55873ec4a56b27533251576853b6&#45;&gt;dir_4ab6b4cc6a7edbff49100e9123df213f -->
<g id="edge11" class="edge">
<title>dir_985a55873ec4a56b27533251576853b6&#45;&gt;dir_4ab6b4cc6a7edbff49100e9123df213f</title>
<path fill="none" stroke="#000000" d="M105.6376,-100.5433C85.5111,-109.5113 58.6226,-124.1112 40.8551,-144 17.5254,-170.1151 16.1246,-181.7447 8.8551,-216 5.5337,-231.6514 4.3177,-236.6569 8.8551,-252 11.7239,-261.7006 16.9419,-271.2945 22.4884,-279.6437"/>
<polygon fill="#000000" stroke="#000000" points="19.6643,-281.7119 28.3027,-287.8462 25.3751,-277.6638 19.6643,-281.7119"/>
<g id="a_edge11&#45;headlabel"><a xlink:href="dir_000711_000032.html" target="_top" xlink:title="5">
<text text-anchor="middle" x="15.2692" y="-277.9213" font-family="Helvetica,sans-Serif" font-size="10.00" fill="#000000">5</text>
</a>
</g>
</g>
<!-- dir_985a55873ec4a56b27533251576853b6&#45;&gt;dir_5d813cdce1e9826318f2aba62999ca51 -->
<g id="edge12" class="edge">
<title>dir_985a55873ec4a56b27533251576853b6&#45;&gt;dir_5d813cdce1e9826318f2aba62999ca51</title>
<path fill="none" stroke="#000000" d="M150.5952,-108.4133C156.5232,-116.484 162.873,-126.1182 168.1506,-134.9775"/>
<polygon fill="#000000" stroke="#000000" points="165.2055,-136.8785 173.1998,-143.8314 171.2862,-133.4107 165.2055,-136.8785"/>
<g id="a_edge12&#45;headlabel"><a xlink:href="dir_000711_000715.html" target="_top" xlink:title="31">
<text text-anchor="middle" x="160.9585" y="-132.6624" font-family="Helvetica,sans-Serif" font-size="10.00" fill="#000000">31</text>
</a>
</g>
</g>
<!-- dir_985a55873ec4a56b27533251576853b6&#45;&gt;dir_ab5a80d4bd40f73f0851d5ff6a022779 -->
<g id="edge13" class="edge">
<title>dir_985a55873ec4a56b27533251576853b6&#45;&gt;dir_ab5a80d4bd40f73f0851d5ff6a022779</title>
<path fill="none" stroke="#000000" d="M120.995,-71.8314C115.6922,-63.7079 109.3314,-53.9637 103.4878,-45.0118"/>
<polygon fill="#000000" stroke="#000000" points="106.272,-42.8739 97.8749,-36.4133 100.4103,-46.7003 106.272,-42.8739"/>
<g id="a_edge13&#45;headlabel"><a xlink:href="dir_000711_000720.html" target="_top" xlink:title="5">
<text text-anchor="middle" x="110.6144" y="-41.8319" font-family="Helvetica,sans-Serif" font-size="10.00" fill="#000000">5</text>
</a>
</g>
</g>
<!-- dir_985a55873ec4a56b27533251576853b6&#45;&gt;dir_2171f7ec022c5423887b07c69b2f5b48 -->
<g id="edge14" class="edge">
<title>dir_985a55873ec4a56b27533251576853b6&#45;&gt;dir_2171f7ec022c5423887b07c69b2f5b48</title>
<path fill="none" stroke="#000000" d="M105.7876,-99.7327C86.6488,-108.2066 62.4175,-122.5414 50.8551,-144 40.631,-162.9749 43.4126,-187.5376 48.1767,-206.2077"/>
<polygon fill="#000000" stroke="#000000" points="44.8355,-207.2536 50.9573,-215.9008 51.5641,-205.3234 44.8355,-207.2536"/>
<g id="a_edge14&#45;headlabel"><a xlink:href="dir_000711_000085.html" target="_top" xlink:title="21">
<text text-anchor="middle" x="41.1152" y="-202.0813" font-family="Helvetica,sans-Serif" font-size="10.00" fill="#000000">21</text>
</a>
</g>
</g>
<!-- dir_2171f7ec022c5423887b07c69b2f5b48&#45;&gt;dir_4ab6b4cc6a7edbff49100e9123df213f -->
<g id="edge15" class="edge">
<title>dir_2171f7ec022c5423887b07c69b2f5b48&#45;&gt;dir_4ab6b4cc6a7edbff49100e9123df213f</title>
<path fill="none" stroke="#000000" d="M60.2508,-252.4133C59.4784,-260.2292 57.8796,-269.5113 55.8675,-278.136"/>
<polygon fill="#000000" stroke="#000000" points="52.4759,-277.2718 53.3403,-287.8314 59.2495,-279.0375 52.4759,-277.2718"/>
<g id="a_edge15&#45;headlabel"><a xlink:href="dir_000085_000032.html" target="_top" xlink:title="37">
<text text-anchor="middle" x="50.635" y="-270.5773" font-family="Helvetica,sans-Serif" font-size="10.00" fill="#000000">37</text>
</a>
</g>
</g>
<!-- dir_2171f7ec022c5423887b07c69b2f5b48&#45;&gt;dir_8ba487e25de5ee77e05e9dce7582cb98 -->
<g id="edge16" class="edge">
<title>dir_2171f7ec022c5423887b07c69b2f5b48&#45;&gt;dir_8ba487e25de5ee77e05e9dce7582cb98</title>
<path fill="none" stroke="#000000" d="M60.7347,-215.8314C63.8591,-207.7925 68.332,-198.1666 73.017,-189.2918"/>
<polygon fill="#000000" stroke="#000000" points="76.1504,-190.8579 77.9282,-180.4133 70.0251,-187.4696 76.1504,-190.8579"/>
<g id="a_edge16&#45;headlabel"><a xlink:href="dir_000085_000000.html" target="_top" xlink:title="2">
<text text-anchor="middle" x="76.895" y="-192.8776" font-family="Helvetica,sans-Serif" font-size="10.00" fill="#000000">2</text>
</a>
</g>
</g>
<!-- dir_2171f7ec022c5423887b07c69b2f5b48&#45;&gt;dir_5d813cdce1e9826318f2aba62999ca51 -->
<g id="edge17" class="edge">
<title>dir_2171f7ec022c5423887b07c69b2f5b48&#45;&gt;dir_5d813cdce1e9826318f2aba62999ca51</title>
<path fill="none" stroke="#000000" d="M88.3885,-215.8314C103.8652,-206.6221 122.842,-195.3301 139.4114,-185.4706"/>
<polygon fill="#000000" stroke="#000000" points="141.5276,-188.2843 148.3315,-180.1628 137.948,-182.2687 141.5276,-188.2843"/>
<g id="a_edge17&#45;headlabel"><a xlink:href="dir_000085_000715.html" target="_top" xlink:title="1">
<text text-anchor="middle" x="139.8904" y="-190.0623" font-family="Helvetica,sans-Serif" font-size="10.00" fill="#000000">1</text>
</a>
</g>
</g>
<!-- dir_2171f7ec022c5423887b07c69b2f5b48&#45;&gt;dir_ab5a80d4bd40f73f0851d5ff6a022779 -->
<g id="edge18" class="edge">
<title>dir_2171f7ec022c5423887b07c69b2f5b48&#45;&gt;dir_ab5a80d4bd40f73f0851d5ff6a022779</title>
<path fill="none" stroke="#000000" d="M50.6113,-215.8366C46.8839,-205.513 42.7363,-192.2403 40.8551,-180 33.421,-131.6292 55.0249,-77.1328 70.8209,-45.2806"/>
<polygon fill="#000000" stroke="#000000" points="74.0519,-46.65 75.498,-36.1543 67.8223,-43.4574 74.0519,-46.65"/>
<g id="a_edge18&#45;headlabel"><a xlink:href="dir_000085_000720.html" target="_top" xlink:title="19">
<text text-anchor="middle" x="74.9393" y="-48.6439" font-family="Helvetica,sans-Serif" font-size="10.00" fill="#000000">19</text>
</a>
</g>
</g>
</g>
</svg>
