<?xml version="1.0" encoding="UTF-8" standalone="no"?>
<!DOCTYPE svg PUBLIC "-//W3C//DTD SVG 1.1//EN"
 "http://www.w3.org/Graphics/SVG/1.1/DTD/svg11.dtd">
<!-- Generated by graphviz version 2.40.1 (20161225.0304)
 -->
<!-- Title: /home/travis/build/AliceO2Group/AliceO2/Detectors/CTF/test Pages: 1 -->
<svg width="382pt" height="439pt"
 viewBox="0.00 0.00 382.00 439.00" xmlns="http://www.w3.org/2000/svg" xmlns:xlink="http://www.w3.org/1999/xlink">
<g id="graph0" class="graph" transform="scale(1 1) rotate(0) translate(4 435)">
<title>/home/travis/build/AliceO2Group/AliceO2/Detectors/CTF/test</title>
<g id="clust1" class="cluster">
<title>clusterdir_22c28337d94ed0b7d4c6655ee55d3b27</title>
<g id="a_clust1"><a xlink:href="dir_22c28337d94ed0b7d4c6655ee55d3b27.html" target="_top" xlink:title="CTF">
<polygon fill="#ddddee" stroke="#000000" points="160,-352 160,-423 230,-423 230,-352 160,-352"/>
<text text-anchor="middle" x="195" y="-411" font-family="Helvetica,sans-Serif" font-size="10.00" fill="#000000">CTF</text>
</a>
</g>
</g>
<!-- dir_f34bb2841ccfd4447c7217216c5f7129 -->
<g id="node1" class="node">
<title>dir_f34bb2841ccfd4447c7217216c5f7129</title>
<g id="a_node1"><a xlink:href="dir_f34bb2841ccfd4447c7217216c5f7129.html" target="_top" xlink:title="test">
<polygon fill="#eeeeff" stroke="#000000" points="222,-396 168,-396 168,-360 222,-360 222,-396"/>
<text text-anchor="middle" x="195" y="-375.5" font-family="Helvetica,sans-Serif" font-size="10.00" fill="#000000">test</text>
</a>
</g>
</g>
<!-- dir_1cc233fd3b1202b9dad36810b41b97af -->
<g id="node2" class="node">
<title>dir_1cc233fd3b1202b9dad36810b41b97af</title>
<g id="a_node2"><a xlink:href="dir_1cc233fd3b1202b9dad36810b41b97af.html" target="_top" xlink:title="MUON">
<polygon fill="none" stroke="#ff0000" points="222,-324 168,-324 168,-288 222,-288 222,-324"/>
<text text-anchor="middle" x="195" y="-303.5" font-family="Helvetica,sans-Serif" font-size="10.00" fill="#000000">MUON</text>
</a>
</g>
</g>
<!-- dir_f34bb2841ccfd4447c7217216c5f7129&#45;&gt;dir_1cc233fd3b1202b9dad36810b41b97af -->
<g id="edge11" class="edge">
<title>dir_f34bb2841ccfd4447c7217216c5f7129&#45;&gt;dir_1cc233fd3b1202b9dad36810b41b97af</title>
<path fill="none" stroke="#000000" d="M195,-359.8314C195,-352.131 195,-342.9743 195,-334.4166"/>
<polygon fill="#000000" stroke="#000000" points="198.5001,-334.4132 195,-324.4133 191.5001,-334.4133 198.5001,-334.4132"/>
<g id="a_edge11&#45;headlabel"><a xlink:href="dir_000426_000123.html" target="_top" xlink:title="1">
<text text-anchor="middle" x="201.3393" y="-335.5079" font-family="Helvetica,sans-Serif" font-size="10.00" fill="#000000">1</text>
</a>
</g>
</g>
<!-- dir_d14e88a79bca429480864605ee348cef -->
<g id="node3" class="node">
<title>dir_d14e88a79bca429480864605ee348cef</title>
<g id="a_node3"><a xlink:href="dir_d14e88a79bca429480864605ee348cef.html" target="_top" xlink:title="FIT">
<polygon fill="none" stroke="#ff0000" points="217,-36 163,-36 163,0 217,0 217,-36"/>
<text text-anchor="middle" x="190" y="-15.5" font-family="Helvetica,sans-Serif" font-size="10.00" fill="#000000">FIT</text>
</a>
</g>
</g>
<!-- dir_f34bb2841ccfd4447c7217216c5f7129&#45;&gt;dir_d14e88a79bca429480864605ee348cef -->
<g id="edge12" class="edge">
<title>dir_f34bb2841ccfd4447c7217216c5f7129&#45;&gt;dir_d14e88a79bca429480864605ee348cef</title>
<path fill="none" stroke="#000000" d="M167.8861,-371.5706C114.3054,-357.0753 0,-316.4856 0,-234 0,-234 0,-234 0,-162 0,-86.0197 97.7006,-44.9616 152.9821,-27.8113"/>
<polygon fill="#000000" stroke="#000000" points="154.1984,-31.1008 162.7776,-24.8842 152.1941,-24.3939 154.1984,-31.1008"/>
<g id="a_edge12&#45;headlabel"><a xlink:href="dir_000426_000171.html" target="_top" xlink:title="3">
<text text-anchor="middle" x="151.5672" y="-32.3504" font-family="Helvetica,sans-Serif" font-size="10.00" fill="#000000">3</text>
</a>
</g>
</g>
<!-- dir_a597e8e061b11201a1dff411feb10d0b -->
<g id="node4" class="node">
<title>dir_a597e8e061b11201a1dff411feb10d0b</title>
<g id="a_node4"><a xlink:href="dir_a597e8e061b11201a1dff411feb10d0b.html" target="_top" xlink:title="TPC">
<polygon fill="none" stroke="#ff0000" points="196,-180 142,-180 142,-144 196,-144 196,-180"/>
<text text-anchor="middle" x="169" y="-159.5" font-family="Helvetica,sans-Serif" font-size="10.00" fill="#000000">TPC</text>
</a>
</g>
</g>
<!-- dir_f34bb2841ccfd4447c7217216c5f7129&#45;&gt;dir_a597e8e061b11201a1dff411feb10d0b -->
<g id="edge13" class="edge">
<title>dir_f34bb2841ccfd4447c7217216c5f7129&#45;&gt;dir_a597e8e061b11201a1dff411feb10d0b</title>
<path fill="none" stroke="#000000" d="M179.0095,-359.9169C171.3462,-350.0371 162.9834,-337.1563 159,-324 145.295,-278.7356 153.8585,-223.1913 161.3823,-190.302"/>
<polygon fill="#000000" stroke="#000000" points="164.8134,-191.0037 163.7591,-180.4615 158.0091,-189.3603 164.8134,-191.0037"/>
<g id="a_edge13&#45;headlabel"><a xlink:href="dir_000426_000054.html" target="_top" xlink:title="1">
<text text-anchor="middle" x="166.7295" y="-192.6644" font-family="Helvetica,sans-Serif" font-size="10.00" fill="#000000">1</text>
</a>
</g>
</g>
<!-- dir_1306292b77b40360479b729ac9ee7efe -->
<g id="node5" class="node">
<title>dir_1306292b77b40360479b729ac9ee7efe</title>
<g id="a_node5"><a xlink:href="dir_1306292b77b40360479b729ac9ee7efe.html" target="_top" xlink:title="ITSMFT">
<polygon fill="none" stroke="#ff0000" points="354,-36 300,-36 300,0 354,0 354,-36"/>
<text text-anchor="middle" x="327" y="-15.5" font-family="Helvetica,sans-Serif" font-size="10.00" fill="#000000">ITSMFT</text>
</a>
</g>
</g>
<!-- dir_f34bb2841ccfd4447c7217216c5f7129&#45;&gt;dir_1306292b77b40360479b729ac9ee7efe -->
<g id="edge14" class="edge">
<title>dir_f34bb2841ccfd4447c7217216c5f7129&#45;&gt;dir_1306292b77b40360479b729ac9ee7efe</title>
<path fill="none" stroke="#000000" d="M222.0348,-371.5673C249.3057,-363.9648 291.3631,-349.0699 320,-324 355.0982,-293.2735 374,-280.6476 374,-234 374,-234 374,-234 374,-162 374,-119.6562 355.4068,-73.6118 341.6094,-45.273"/>
<polygon fill="#000000" stroke="#000000" points="344.5809,-43.3907 336.9675,-36.0228 338.3245,-46.5304 344.5809,-43.3907"/>
<g id="a_edge14&#45;headlabel"><a xlink:href="dir_000426_000048.html" target="_top" xlink:title="1">
<text text-anchor="middle" x="348.7308" y="-42.8301" font-family="Helvetica,sans-Serif" font-size="10.00" fill="#000000">1</text>
</a>
</g>
</g>
<!-- dir_577c839d346a264df4e9e588ca2a45dd -->
<g id="node6" class="node">
<title>dir_577c839d346a264df4e9e588ca2a45dd</title>
<g id="a_node6"><a xlink:href="dir_577c839d346a264df4e9e588ca2a45dd.html" target="_top" xlink:title="TOF">
<polygon fill="none" stroke="#ff0000" points="294,-324 240,-324 240,-288 294,-288 294,-324"/>
<text text-anchor="middle" x="267" y="-303.5" font-family="Helvetica,sans-Serif" font-size="10.00" fill="#000000">TOF</text>
</a>
</g>
</g>
<!-- dir_f34bb2841ccfd4447c7217216c5f7129&#45;&gt;dir_577c839d346a264df4e9e588ca2a45dd -->
<g id="edge15" class="edge">
<title>dir_f34bb2841ccfd4447c7217216c5f7129&#45;&gt;dir_577c839d346a264df4e9e588ca2a45dd</title>
<path fill="none" stroke="#000000" d="M213.1686,-359.8314C221.7152,-351.2848 232.0557,-340.9443 241.3802,-331.6198"/>
<polygon fill="#000000" stroke="#000000" points="243.9905,-333.9592 248.5867,-324.4133 239.0408,-329.0095 243.9905,-333.9592"/>
<g id="a_edge15&#45;headlabel"><a xlink:href="dir_000426_000145.html" target="_top" xlink:title="3">
<text text-anchor="middle" x="243.4564" y="-336.0087" font-family="Helvetica,sans-Serif" font-size="10.00" fill="#000000">3</text>
</a>
</g>
</g>
<!-- dir_bcbb2cf9a3d3d83e5515c82071a07177 -->
<g id="node7" class="node">
<title>dir_bcbb2cf9a3d3d83e5515c82071a07177</title>
<g id="a_node7"><a xlink:href="dir_bcbb2cf9a3d3d83e5515c82071a07177.html" target="_top" xlink:title="Framework">
<polygon fill="none" stroke="#ff0000" points="291.5,-252 220.5,-252 220.5,-216 291.5,-216 291.5,-252"/>
<text text-anchor="middle" x="256" y="-231.5" font-family="Helvetica,sans-Serif" font-size="10.00" fill="#000000">Framework</text>
</a>
</g>
</g>
<!-- dir_f34bb2841ccfd4447c7217216c5f7129&#45;&gt;dir_bcbb2cf9a3d3d83e5515c82071a07177 -->
<g id="edge16" class="edge">
<title>dir_f34bb2841ccfd4447c7217216c5f7129&#45;&gt;dir_bcbb2cf9a3d3d83e5515c82071a07177</title>
<path fill="none" stroke="#000000" d="M222.2189,-372.8289C248.0588,-366.3174 285.4767,-352.3534 303,-324 316.0552,-302.8762 300.5094,-277.747 283.887,-259.4174"/>
<polygon fill="#000000" stroke="#000000" points="286.2271,-256.8009 276.7775,-252.0096 281.1767,-261.648 286.2271,-256.8009"/>
<g id="a_edge16&#45;headlabel"><a xlink:href="dir_000426_000058.html" target="_top" xlink:title="6">
<text text-anchor="middle" x="290.7645" y="-254.9283" font-family="Helvetica,sans-Serif" font-size="10.00" fill="#000000">6</text>
</a>
</g>
</g>
<!-- dir_2171f7ec022c5423887b07c69b2f5b48 -->
<g id="node8" class="node">
<title>dir_2171f7ec022c5423887b07c69b2f5b48</title>
<g id="a_node8"><a xlink:href="dir_2171f7ec022c5423887b07c69b2f5b48.html" target="_top" xlink:title="DataFormats">
<polygon fill="none" stroke="#ff0000" points="230,-108 150,-108 150,-72 230,-72 230,-108"/>
<text text-anchor="middle" x="190" y="-87.5" font-family="Helvetica,sans-Serif" font-size="10.00" fill="#000000">DataFormats</text>
</a>
</g>
</g>
<!-- dir_f34bb2841ccfd4447c7217216c5f7129&#45;&gt;dir_2171f7ec022c5423887b07c69b2f5b48 -->
<g id="edge17" class="edge">
<title>dir_f34bb2841ccfd4447c7217216c5f7129&#45;&gt;dir_2171f7ec022c5423887b07c69b2f5b48</title>
<path fill="none" stroke="#000000" d="M170.1646,-359.9639C142.3442,-338.058 98.816,-298.2462 81,-252 63.7445,-207.2088 55.6899,-184.7848 81,-144 94.0468,-122.9763 117.9823,-109.8856 140.107,-101.87"/>
<polygon fill="#000000" stroke="#000000" points="141.3972,-105.1291 149.769,-98.6357 139.1752,-98.4911 141.3972,-105.1291"/>
<g id="a_edge17&#45;headlabel"><a xlink:href="dir_000426_000085.html" target="_top" xlink:title="13">
<text text-anchor="middle" x="138.8898" y="-106.4625" font-family="Helvetica,sans-Serif" font-size="10.00" fill="#000000">13</text>
</a>
</g>
</g>
<!-- dir_1cc233fd3b1202b9dad36810b41b97af&#45;&gt;dir_bcbb2cf9a3d3d83e5515c82071a07177 -->
<g id="edge1" class="edge">
<title>dir_1cc233fd3b1202b9dad36810b41b97af&#45;&gt;dir_bcbb2cf9a3d3d83e5515c82071a07177</title>
<path fill="none" stroke="#000000" d="M210.3929,-287.8314C217.4904,-279.454 226.048,-269.3531 233.824,-260.1749"/>
<polygon fill="#000000" stroke="#000000" points="236.6061,-262.3056 240.3999,-252.4133 231.2652,-257.7807 236.6061,-262.3056"/>
<g id="a_edge1&#45;headlabel"><a xlink:href="dir_000123_000058.html" target="_top" xlink:title="266">
<text text-anchor="middle" x="236.4488" y="-264.3836" font-family="Helvetica,sans-Serif" font-size="10.00" fill="#000000">266</text>
</a>
</g>
</g>
<!-- dir_1cc233fd3b1202b9dad36810b41b97af&#45;&gt;dir_2171f7ec022c5423887b07c69b2f5b48 -->
<g id="edge2" class="edge">
<title>dir_1cc233fd3b1202b9dad36810b41b97af&#45;&gt;dir_2171f7ec022c5423887b07c69b2f5b48</title>
<path fill="none" stroke="#000000" d="M167.883,-298.8453C145.2741,-291.2882 114.5021,-276.9245 100,-252 75.8604,-210.5117 76.3505,-185.7696 100,-144 109.0059,-128.0939 124.7728,-116.362 140.6194,-107.9752"/>
<polygon fill="#000000" stroke="#000000" points="142.4725,-110.9646 149.9084,-103.4175 139.389,-104.6803 142.4725,-110.9646"/>
<g id="a_edge2&#45;headlabel"><a xlink:href="dir_000123_000085.html" target="_top" xlink:title="120">
<text text-anchor="middle" x="140.4961" y="-112.5969" font-family="Helvetica,sans-Serif" font-size="10.00" fill="#000000">120</text>
</a>
</g>
</g>
<!-- dir_d14e88a79bca429480864605ee348cef&#45;&gt;dir_bcbb2cf9a3d3d83e5515c82071a07177 -->
<g id="edge3" class="edge">
<title>dir_d14e88a79bca429480864605ee348cef&#45;&gt;dir_bcbb2cf9a3d3d83e5515c82071a07177</title>
<path fill="none" stroke="#000000" d="M211.7935,-36.0285C221.8268,-45.614 232.8473,-58.2491 239,-72 258.5413,-115.6733 259.6784,-172.3786 258.2025,-205.8144"/>
<polygon fill="#000000" stroke="#000000" points="254.7075,-205.629 257.6515,-215.8066 261.6968,-206.0145 254.7075,-205.629"/>
<g id="a_edge3&#45;headlabel"><a xlink:href="dir_000171_000058.html" target="_top" xlink:title="104">
<text text-anchor="middle" x="252.0703" y="-199.3836" font-family="Helvetica,sans-Serif" font-size="10.00" fill="#000000">104</text>
</a>
</g>
</g>
<!-- dir_d14e88a79bca429480864605ee348cef&#45;&gt;dir_2171f7ec022c5423887b07c69b2f5b48 -->
<g id="edge4" class="edge">
<title>dir_d14e88a79bca429480864605ee348cef&#45;&gt;dir_2171f7ec022c5423887b07c69b2f5b48</title>
<path fill="none" stroke="#000000" d="M195.976,-36.4133C196.7071,-44.0593 196.9203,-53.1084 196.6155,-61.5726"/>
<polygon fill="#000000" stroke="#000000" points="193.1048,-61.6264 195.9524,-71.8314 200.0902,-62.078 193.1048,-61.6264"/>
<g id="a_edge4&#45;headlabel"><a xlink:href="dir_000171_000085.html" target="_top" xlink:title="138">
<text text-anchor="middle" x="190.5032" y="-55.3562" font-family="Helvetica,sans-Serif" font-size="10.00" fill="#000000">138</text>
</a>
</g>
</g>
<!-- dir_a597e8e061b11201a1dff411feb10d0b&#45;&gt;dir_bcbb2cf9a3d3d83e5515c82071a07177 -->
<g id="edge5" class="edge">
<title>dir_a597e8e061b11201a1dff411feb10d0b&#45;&gt;dir_bcbb2cf9a3d3d83e5515c82071a07177</title>
<path fill="none" stroke="#000000" d="M196.2476,-179.665C207.8275,-188.507 221.1298,-199.3621 232.2984,-209.0389"/>
<polygon fill="#000000" stroke="#000000" points="230.184,-211.8409 239.9986,-215.8314 234.8146,-206.5914 230.184,-211.8409"/>
<g id="a_edge5&#45;headlabel"><a xlink:href="dir_000054_000058.html" target="_top" xlink:title="105">
<text text-anchor="middle" x="225.6101" y="-209.0923" font-family="Helvetica,sans-Serif" font-size="10.00" fill="#000000">105</text>
</a>
</g>
</g>
<!-- dir_a597e8e061b11201a1dff411feb10d0b&#45;&gt;dir_2171f7ec022c5423887b07c69b2f5b48 -->
<g id="edge6" class="edge">
<title>dir_a597e8e061b11201a1dff411feb10d0b&#45;&gt;dir_2171f7ec022c5423887b07c69b2f5b48</title>
<path fill="none" stroke="#000000" d="M174.2992,-143.8314C176.5698,-136.0463 179.2746,-126.7729 181.794,-118.1347"/>
<polygon fill="#000000" stroke="#000000" points="185.1894,-118.9933 184.6295,-108.4133 178.4694,-117.0332 185.1894,-118.9933"/>
<g id="a_edge6&#45;headlabel"><a xlink:href="dir_000054_000085.html" target="_top" xlink:title="185">
<text text-anchor="middle" x="186.9087" y="-120.7391" font-family="Helvetica,sans-Serif" font-size="10.00" fill="#000000">185</text>
</a>
</g>
</g>
<!-- dir_1306292b77b40360479b729ac9ee7efe&#45;&gt;dir_bcbb2cf9a3d3d83e5515c82071a07177 -->
<g id="edge7" class="edge">
<title>dir_1306292b77b40360479b729ac9ee7efe&#45;&gt;dir_bcbb2cf9a3d3d83e5515c82071a07177</title>
<path fill="none" stroke="#000000" d="M324.9908,-36.1451C316.0041,-74.0333 287.4142,-161.7445 269.6973,-206.5628"/>
<polygon fill="#000000" stroke="#000000" points="266.4025,-205.3737 265.8772,-215.9555 272.8868,-208.0109 266.4025,-205.3737"/>
<g id="a_edge7&#45;headlabel"><a xlink:href="dir_000048_000058.html" target="_top" xlink:title="107">
<text text-anchor="middle" x="265.1266" y="-198.4743" font-family="Helvetica,sans-Serif" font-size="10.00" fill="#000000">107</text>
</a>
</g>
</g>
<!-- dir_1306292b77b40360479b729ac9ee7efe&#45;&gt;dir_2171f7ec022c5423887b07c69b2f5b48 -->
<g id="edge8" class="edge">
<title>dir_1306292b77b40360479b729ac9ee7efe&#45;&gt;dir_2171f7ec022c5423887b07c69b2f5b48</title>
<path fill="none" stroke="#000000" d="M299.5774,-35.5053C282.2922,-45.1071 259.5798,-57.1186 239.2804,-67.4194"/>
<polygon fill="#000000" stroke="#000000" points="237.5085,-64.393 230.1516,-72.0171 240.6572,-70.6448 237.5085,-64.393"/>
<g id="a_edge8&#45;headlabel"><a xlink:href="dir_000048_000085.html" target="_top" xlink:title="242">
<text text-anchor="middle" x="239.4418" y="-57.7403" font-family="Helvetica,sans-Serif" font-size="10.00" fill="#000000">242</text>
</a>
</g>
</g>
<!-- dir_577c839d346a264df4e9e588ca2a45dd&#45;&gt;dir_bcbb2cf9a3d3d83e5515c82071a07177 -->
<g id="edge9" class="edge">
<title>dir_577c839d346a264df4e9e588ca2a45dd&#45;&gt;dir_bcbb2cf9a3d3d83e5515c82071a07177</title>
<path fill="none" stroke="#000000" d="M264.2242,-287.8314C263.0478,-280.131 261.6489,-270.9743 260.3414,-262.4166"/>
<polygon fill="#000000" stroke="#000000" points="263.7833,-261.7699 258.8131,-252.4133 256.8636,-262.8272 263.7833,-261.7699"/>
<g id="a_edge9&#45;headlabel"><a xlink:href="dir_000145_000058.html" target="_top" xlink:title="106">
<text text-anchor="middle" x="267.1328" y="-262.3946" font-family="Helvetica,sans-Serif" font-size="10.00" fill="#000000">106</text>
</a>
</g>
</g>
<!-- dir_577c839d346a264df4e9e588ca2a45dd&#45;&gt;dir_2171f7ec022c5423887b07c69b2f5b48 -->
<g id="edge10" class="edge">
<title>dir_577c839d346a264df4e9e588ca2a45dd&#45;&gt;dir_2171f7ec022c5423887b07c69b2f5b48</title>
<path fill="none" stroke="#000000" d="M239.9431,-290.3093C207.486,-269.7331 154.7334,-230.2682 133,-180 126.6505,-165.3138 126.6779,-158.698 133,-144 137.7491,-132.9589 145.9885,-123.1176 154.7506,-114.9593"/>
<polygon fill="#000000" stroke="#000000" points="157.245,-117.4291 162.5106,-108.2354 152.661,-112.1388 157.245,-117.4291"/>
<g id="a_edge10&#45;headlabel"><a xlink:href="dir_000145_000085.html" target="_top" xlink:title="77">
<text text-anchor="middle" x="156.3877" y="-119.4288" font-family="Helvetica,sans-Serif" font-size="10.00" fill="#000000">77</text>
</a>
</g>
</g>
<!-- dir_bcbb2cf9a3d3d83e5515c82071a07177&#45;&gt;dir_a597e8e061b11201a1dff411feb10d0b -->
<g id="edge18" class="edge">
<title>dir_bcbb2cf9a3d3d83e5515c82071a07177&#45;&gt;dir_a597e8e061b11201a1dff411feb10d0b</title>
<path fill="none" stroke="#000000" d="M228.0938,-215.8314C216.6253,-207.0485 203.5565,-196.3712 192.5722,-186.8489"/>
<polygon fill="#000000" stroke="#000000" points="194.8089,-184.1548 184.9949,-180.1628 190.1775,-189.4036 194.8089,-184.1548"/>
<g id="a_edge18&#45;headlabel"><a xlink:href="dir_000058_000054.html" target="_top" xlink:title="1">
<text text-anchor="middle" x="199.3828" y="-181.9041" font-family="Helvetica,sans-Serif" font-size="10.00" fill="#000000">1</text>
</a>
</g>
</g>
<!-- dir_bcbb2cf9a3d3d83e5515c82071a07177&#45;&gt;dir_1306292b77b40360479b729ac9ee7efe -->
<g id="edge19" class="edge">
<title>dir_bcbb2cf9a3d3d83e5515c82071a07177&#45;&gt;dir_1306292b77b40360479b729ac9ee7efe</title>
<path fill="none" stroke="#000000" d="M257.9854,-215.9555C266.9373,-178.1556 295.5194,-90.4506 313.2556,-45.5564"/>
<polygon fill="#000000" stroke="#000000" points="316.5578,-46.727 317.0805,-36.1451 310.0729,-44.0914 316.5578,-46.727"/>
<g id="a_edge19&#45;headlabel"><a xlink:href="dir_000058_000048.html" target="_top" xlink:title="1">
<text text-anchor="middle" x="317.8349" y="-48.6261" font-family="Helvetica,sans-Serif" font-size="10.00" fill="#000000">1</text>
</a>
</g>
</g>
<!-- dir_bcbb2cf9a3d3d83e5515c82071a07177&#45;&gt;dir_2171f7ec022c5423887b07c69b2f5b48 -->
<g id="edge20" class="edge">
<title>dir_bcbb2cf9a3d3d83e5515c82071a07177&#45;&gt;dir_2171f7ec022c5423887b07c69b2f5b48</title>
<path fill="none" stroke="#000000" d="M242.9679,-215.7623C229.13,-190.9846 208.4703,-146.4714 197.2008,-117.5939"/>
<polygon fill="#000000" stroke="#000000" points="200.4242,-116.2215 193.6328,-108.0896 193.8707,-118.6818 200.4242,-116.2215"/>
<g id="a_edge20&#45;headlabel"><a xlink:href="dir_000058_000085.html" target="_top" xlink:title="72">
<text text-anchor="middle" x="204.3456" y="-116.0889" font-family="Helvetica,sans-Serif" font-size="10.00" fill="#000000">72</text>
</a>
</g>
</g>
<!-- dir_2171f7ec022c5423887b07c69b2f5b48&#45;&gt;dir_d14e88a79bca429480864605ee348cef -->
<g id="edge21" class="edge">
<title>dir_2171f7ec022c5423887b07c69b2f5b48&#45;&gt;dir_d14e88a79bca429480864605ee348cef</title>
<path fill="none" stroke="#000000" d="M184.0476,-71.8314C183.2972,-64.131 183.0763,-54.9743 183.3849,-46.4166"/>
<polygon fill="#000000" stroke="#000000" points="186.8792,-46.6161 184.024,-36.4133 179.8935,-46.1697 186.8792,-46.6161"/>
<g id="a_edge21&#45;headlabel"><a xlink:href="dir_000085_000171.html" target="_top" xlink:title="3">
<text text-anchor="middle" x="189.4836" y="-47.8844" font-family="Helvetica,sans-Serif" font-size="10.00" fill="#000000">3</text>
</a>
</g>
</g>
<!-- dir_2171f7ec022c5423887b07c69b2f5b48&#45;&gt;dir_1306292b77b40360479b729ac9ee7efe -->
<g id="edge22" class="edge">
<title>dir_2171f7ec022c5423887b07c69b2f5b48&#45;&gt;dir_1306292b77b40360479b729ac9ee7efe</title>
<path fill="none" stroke="#000000" d="M218.6185,-71.8314C239.5451,-60.2397 267.9504,-45.3484 290.4956,-34.1673"/>
<polygon fill="#000000" stroke="#000000" points="292.3234,-37.1692 299.7602,-29.623 289.2407,-30.8845 292.3234,-37.1692"/>
<g id="a_edge22&#45;headlabel"><a xlink:href="dir_000085_000048.html" target="_top" xlink:title="1">
<text text-anchor="middle" x="290.3465" y="-38.8013" font-family="Helvetica,sans-Serif" font-size="10.00" fill="#000000">1</text>
</a>
</g>
</g>
<!-- dir_2171f7ec022c5423887b07c69b2f5b48&#45;&gt;dir_bcbb2cf9a3d3d83e5515c82071a07177 -->
<g id="edge23" class="edge">
<title>dir_2171f7ec022c5423887b07c69b2f5b48&#45;&gt;dir_bcbb2cf9a3d3d83e5515c82071a07177</title>
<path fill="none" stroke="#000000" d="M202.9494,-108.0896C216.76,-132.7884 237.4247,-177.2933 248.7317,-206.2331"/>
<polygon fill="#000000" stroke="#000000" points="245.519,-207.6336 252.3142,-215.7623 252.0712,-205.1702 245.519,-207.6336"/>
<g id="a_edge23&#45;headlabel"><a xlink:href="dir_000085_000058.html" target="_top" xlink:title="20">
<text text-anchor="middle" x="241.5964" y="-202.7681" font-family="Helvetica,sans-Serif" font-size="10.00" fill="#000000">20</text>
</a>
</g>
</g>
</g>
</svg>
