<?xml version="1.0" encoding="UTF-8" standalone="no"?>
<!DOCTYPE svg PUBLIC "-//W3C//DTD SVG 1.1//EN"
 "http://www.w3.org/Graphics/SVG/1.1/DTD/svg11.dtd">
<!-- Generated by graphviz version 2.40.1 (20161225.0304)
 -->
<!-- Title: /home/travis/build/AliceO2Group/AliceO2/Analysis/DataModel/include Pages: 1 -->
<svg width="385pt" height="375pt"
 viewBox="0.00 0.00 385.25 375.00" xmlns="http://www.w3.org/2000/svg" xmlns:xlink="http://www.w3.org/1999/xlink">
<g id="graph0" class="graph" transform="scale(1 1) rotate(0) translate(4 371)">
<title>/home/travis/build/AliceO2Group/AliceO2/Analysis/DataModel/include</title>
<g id="clust1" class="cluster">
<title>clusterdir_f41dd59f861c855ea21b0dc3111cb7b0</title>
<g id="a_clust1"><a xlink:href="dir_f41dd59f861c855ea21b0dc3111cb7b0.html" target="_top" xlink:title="DataModel">
<polygon fill="#ddddee" stroke="#000000" points="8,-128 8,-359 170,-359 170,-128 8,-128"/>
<text text-anchor="middle" x="89" y="-347" font-family="Helvetica,sans-Serif" font-size="10.00" fill="#000000">DataModel</text>
</a>
</g>
</g>
<g id="clust2" class="cluster">
<title>clusterdir_7683e4c5aa7478ea0e5a46a41c8497b7</title>
<g id="a_clust2"><a xlink:href="dir_7683e4c5aa7478ea0e5a46a41c8497b7.html" target="_top">
<polygon fill="#eeeeff" stroke="#000000" points="16,-136 16,-332 162,-332 162,-136 16,-136"/>
</a>
</g>
</g>
<!-- dir_7683e4c5aa7478ea0e5a46a41c8497b7 -->
<g id="node1" class="node">
<title>dir_7683e4c5aa7478ea0e5a46a41c8497b7</title>
<text text-anchor="middle" x="127" y="-303.5" font-family="Helvetica,sans-Serif" font-size="10.00" fill="#000000">include</text>
</g>
<!-- dir_5288c54a69662669867ddb130abdbf12 -->
<g id="node2" class="node">
<title>dir_5288c54a69662669867ddb130abdbf12</title>
<g id="a_node2"><a xlink:href="dir_5288c54a69662669867ddb130abdbf12.html" target="_top" xlink:title="Analysis">
<polygon fill="#ffffff" stroke="#000000" points="82,-324 24,-324 24,-288 82,-288 82,-324"/>
<text text-anchor="middle" x="53" y="-303.5" font-family="Helvetica,sans-Serif" font-size="10.00" fill="#000000">Analysis</text>
</a>
</g>
</g>
<!-- dir_fbd351ec6b98f95c9f7c5b7ed91033e7 -->
<g id="node3" class="node">
<title>dir_fbd351ec6b98f95c9f7c5b7ed91033e7</title>
<g id="a_node3"><a xlink:href="dir_fbd351ec6b98f95c9f7c5b7ed91033e7.html" target="_top" xlink:title="PID">
<polygon fill="#ffffff" stroke="#000000" points="152,-252 98,-252 98,-216 152,-216 152,-252"/>
<text text-anchor="middle" x="125" y="-231.5" font-family="Helvetica,sans-Serif" font-size="10.00" fill="#000000">PID</text>
</a>
</g>
</g>
<!-- dir_5288c54a69662669867ddb130abdbf12&#45;&gt;dir_fbd351ec6b98f95c9f7c5b7ed91033e7 -->
<g id="edge11" class="edge">
<title>dir_5288c54a69662669867ddb130abdbf12&#45;&gt;dir_fbd351ec6b98f95c9f7c5b7ed91033e7</title>
<path fill="none" stroke="#000000" d="M71.1686,-287.8314C79.7152,-279.2848 90.0557,-268.9443 99.3802,-259.6198"/>
<polygon fill="#000000" stroke="#000000" points="101.9905,-261.9592 106.5867,-252.4133 97.0408,-257.0095 101.9905,-261.9592"/>
<g id="a_edge11&#45;headlabel"><a xlink:href="dir_000011_000012.html" target="_top" xlink:title="2">
<text text-anchor="middle" x="101.4564" y="-264.0087" font-family="Helvetica,sans-Serif" font-size="10.00" fill="#000000">2</text>
</a>
</g>
</g>
<!-- dir_4ab6b4cc6a7edbff49100e9123df213f -->
<g id="node5" class="node">
<title>dir_4ab6b4cc6a7edbff49100e9123df213f</title>
<g id="a_node5"><a xlink:href="dir_4ab6b4cc6a7edbff49100e9123df213f.html" target="_top" xlink:title="Common">
<polygon fill="none" stroke="#ff0000" points="349.5,-252 288.5,-252 288.5,-216 349.5,-216 349.5,-252"/>
<text text-anchor="middle" x="319" y="-231.5" font-family="Helvetica,sans-Serif" font-size="10.00" fill="#000000">Common</text>
</a>
</g>
</g>
<!-- dir_5288c54a69662669867ddb130abdbf12&#45;&gt;dir_4ab6b4cc6a7edbff49100e9123df213f -->
<g id="edge10" class="edge">
<title>dir_5288c54a69662669867ddb130abdbf12&#45;&gt;dir_4ab6b4cc6a7edbff49100e9123df213f</title>
<path fill="none" stroke="#000000" d="M82.1626,-291.306C85.1087,-290.0887 88.088,-288.9595 91,-288 169.7282,-262.0581 194.5071,-275.4945 274,-252 275.4626,-251.5677 276.9436,-251.1065 278.4331,-250.6224"/>
<polygon fill="#000000" stroke="#000000" points="280.0062,-253.7796 288.2821,-247.1644 277.6872,-247.1749 280.0062,-253.7796"/>
<g id="a_edge10&#45;headlabel"><a xlink:href="dir_000011_000032.html" target="_top" xlink:title="2">
<text text-anchor="middle" x="277.5552" y="-255.1493" font-family="Helvetica,sans-Serif" font-size="10.00" fill="#000000">2</text>
</a>
</g>
</g>
<!-- dir_8d04f135a1eb0fdc4d561ef87bbea216 -->
<g id="node7" class="node">
<title>dir_8d04f135a1eb0fdc4d561ef87bbea216</title>
<g id="a_node7"><a xlink:href="dir_8d04f135a1eb0fdc4d561ef87bbea216.html" target="_top" xlink:title="Core">
<polygon fill="none" stroke="#ff0000" points="232,-252 178,-252 178,-216 232,-216 232,-252"/>
<text text-anchor="middle" x="205" y="-231.5" font-family="Helvetica,sans-Serif" font-size="10.00" fill="#000000">Core</text>
</a>
</g>
</g>
<!-- dir_5288c54a69662669867ddb130abdbf12&#45;&gt;dir_8d04f135a1eb0fdc4d561ef87bbea216 -->
<g id="edge12" class="edge">
<title>dir_5288c54a69662669867ddb130abdbf12&#45;&gt;dir_8d04f135a1eb0fdc4d561ef87bbea216</title>
<path fill="none" stroke="#000000" d="M82.3071,-292.1177C106.8936,-280.4714 142.1247,-263.783 168.5318,-251.2744"/>
<polygon fill="#000000" stroke="#000000" points="170.2864,-254.3162 177.8254,-246.8722 167.2897,-247.99 170.2864,-254.3162"/>
<g id="a_edge12&#45;headlabel"><a xlink:href="dir_000011_000005.html" target="_top" xlink:title="1">
<text text-anchor="middle" x="168.2532" y="-255.9209" font-family="Helvetica,sans-Serif" font-size="10.00" fill="#000000">1</text>
</a>
</g>
</g>
<!-- dir_bcbb2cf9a3d3d83e5515c82071a07177 -->
<g id="node8" class="node">
<title>dir_bcbb2cf9a3d3d83e5515c82071a07177</title>
<g id="a_node8"><a xlink:href="dir_bcbb2cf9a3d3d83e5515c82071a07177.html" target="_top" xlink:title="Framework">
<polygon fill="none" stroke="#ff0000" points="281.5,-180 210.5,-180 210.5,-144 281.5,-144 281.5,-180"/>
<text text-anchor="middle" x="246" y="-159.5" font-family="Helvetica,sans-Serif" font-size="10.00" fill="#000000">Framework</text>
</a>
</g>
</g>
<!-- dir_5288c54a69662669867ddb130abdbf12&#45;&gt;dir_bcbb2cf9a3d3d83e5515c82071a07177 -->
<g id="edge13" class="edge">
<title>dir_5288c54a69662669867ddb130abdbf12&#45;&gt;dir_bcbb2cf9a3d3d83e5515c82071a07177</title>
<path fill="none" stroke="#000000" d="M82.2054,-291.4317C85.1429,-290.1889 88.1085,-289.0195 91,-288 155.6588,-265.2035 197.0756,-304.6411 241,-252 255.1076,-235.0928 255.2173,-209.5811 252.4548,-190.032"/>
<polygon fill="#000000" stroke="#000000" points="255.9,-189.4138 250.7516,-180.1539 249.0017,-190.6033 255.9,-189.4138"/>
<g id="a_edge13&#45;headlabel"><a xlink:href="dir_000011_000058.html" target="_top" xlink:title="10">
<text text-anchor="middle" x="259.3086" y="-189.9738" font-family="Helvetica,sans-Serif" font-size="10.00" fill="#000000">10</text>
</a>
</g>
</g>
<!-- dir_2171f7ec022c5423887b07c69b2f5b48 -->
<g id="node9" class="node">
<title>dir_2171f7ec022c5423887b07c69b2f5b48</title>
<g id="a_node9"><a xlink:href="dir_2171f7ec022c5423887b07c69b2f5b48.html" target="_top" xlink:title="DataFormats">
<polygon fill="none" stroke="#ff0000" points="359,-108 279,-108 279,-72 359,-72 359,-108"/>
<text text-anchor="middle" x="319" y="-87.5" font-family="Helvetica,sans-Serif" font-size="10.00" fill="#000000">DataFormats</text>
</a>
</g>
</g>
<!-- dir_5288c54a69662669867ddb130abdbf12&#45;&gt;dir_2171f7ec022c5423887b07c69b2f5b48 -->
<g id="edge14" class="edge">
<title>dir_5288c54a69662669867ddb130abdbf12&#45;&gt;dir_2171f7ec022c5423887b07c69b2f5b48</title>
<path fill="none" stroke="#000000" d="M82.1043,-291.1198C85.0623,-289.9402 88.0603,-288.8707 91,-288 148.6164,-270.935 319.439,-297.2305 359,-252 392.4944,-213.7056 361.2101,-151.7139 338.2615,-116.5592"/>
<polygon fill="#000000" stroke="#000000" points="341.1409,-114.569 332.6512,-108.2306 335.3352,-118.4798 341.1409,-114.569"/>
<g id="a_edge14&#45;headlabel"><a xlink:href="dir_000011_000085.html" target="_top" xlink:title="2">
<text text-anchor="middle" x="345.504" y="-113.4641" font-family="Helvetica,sans-Serif" font-size="10.00" fill="#000000">2</text>
</a>
</g>
</g>
<!-- dir_7114413358de58e678b3fdba12d7093d -->
<g id="node4" class="node">
<title>dir_7114413358de58e678b3fdba12d7093d</title>
<g id="a_node4"><a xlink:href="dir_7114413358de58e678b3fdba12d7093d.html" target="_top" xlink:title="PIDBase">
<polygon fill="#ffffff" stroke="#000000" points="153.5,-180 96.5,-180 96.5,-144 153.5,-144 153.5,-180"/>
<text text-anchor="middle" x="125" y="-159.5" font-family="Helvetica,sans-Serif" font-size="10.00" fill="#000000">PIDBase</text>
</a>
</g>
</g>
<!-- dir_fbd351ec6b98f95c9f7c5b7ed91033e7&#45;&gt;dir_7114413358de58e678b3fdba12d7093d -->
<g id="edge7" class="edge">
<title>dir_fbd351ec6b98f95c9f7c5b7ed91033e7&#45;&gt;dir_7114413358de58e678b3fdba12d7093d</title>
<path fill="none" stroke="#000000" d="M125,-215.8314C125,-208.131 125,-198.9743 125,-190.4166"/>
<polygon fill="#000000" stroke="#000000" points="128.5001,-190.4132 125,-180.4133 121.5001,-190.4133 128.5001,-190.4132"/>
<g id="a_edge7&#45;headlabel"><a xlink:href="dir_000012_000013.html" target="_top" xlink:title="5">
<text text-anchor="middle" x="131.3393" y="-191.5079" font-family="Helvetica,sans-Serif" font-size="10.00" fill="#000000">5</text>
</a>
</g>
</g>
<!-- dir_051dca18e802f8e9474f2e30d29c04e0 -->
<g id="node6" class="node">
<title>dir_051dca18e802f8e9474f2e30d29c04e0</title>
<g id="a_node6"><a xlink:href="dir_051dca18e802f8e9474f2e30d29c04e0.html" target="_top" xlink:title="Detectors">
<polygon fill="none" stroke="#ff0000" points="312,-36 248,-36 248,0 312,0 312,-36"/>
<text text-anchor="middle" x="280" y="-15.5" font-family="Helvetica,sans-Serif" font-size="10.00" fill="#000000">Detectors</text>
</a>
</g>
</g>
<!-- dir_fbd351ec6b98f95c9f7c5b7ed91033e7&#45;&gt;dir_051dca18e802f8e9474f2e30d29c04e0 -->
<g id="edge6" class="edge">
<title>dir_fbd351ec6b98f95c9f7c5b7ed91033e7&#45;&gt;dir_051dca18e802f8e9474f2e30d29c04e0</title>
<path fill="none" stroke="#000000" d="M107.7365,-215.5761C99.7611,-205.7997 91.152,-193.1148 87,-180 80.0245,-157.9667 75.3888,-147.9826 87,-128 119.4032,-72.2353 191.8297,-42.3866 238.1627,-28.3912"/>
<polygon fill="#000000" stroke="#000000" points="239.2852,-31.7099 247.9142,-25.5625 237.335,-24.9871 239.2852,-31.7099"/>
<g id="a_edge6&#45;headlabel"><a xlink:href="dir_000012_000044.html" target="_top" xlink:title="1">
<text text-anchor="middle" x="236.6239" y="-32.9381" font-family="Helvetica,sans-Serif" font-size="10.00" fill="#000000">1</text>
</a>
</g>
</g>
<!-- dir_fbd351ec6b98f95c9f7c5b7ed91033e7&#45;&gt;dir_bcbb2cf9a3d3d83e5515c82071a07177 -->
<g id="edge8" class="edge">
<title>dir_fbd351ec6b98f95c9f7c5b7ed91033e7&#45;&gt;dir_bcbb2cf9a3d3d83e5515c82071a07177</title>
<path fill="none" stroke="#000000" d="M152.1548,-217.8418C168.1751,-208.309 188.7319,-196.0769 206.5202,-185.4921"/>
<polygon fill="#000000" stroke="#000000" points="208.7274,-188.2516 215.5313,-180.1301 205.1478,-182.236 208.7274,-188.2516"/>
<g id="a_edge8&#45;headlabel"><a xlink:href="dir_000012_000058.html" target="_top" xlink:title="5">
<text text-anchor="middle" x="207.0902" y="-190.0296" font-family="Helvetica,sans-Serif" font-size="10.00" fill="#000000">5</text>
</a>
</g>
</g>
<!-- dir_fbd351ec6b98f95c9f7c5b7ed91033e7&#45;&gt;dir_2171f7ec022c5423887b07c69b2f5b48 -->
<g id="edge9" class="edge">
<title>dir_fbd351ec6b98f95c9f7c5b7ed91033e7&#45;&gt;dir_2171f7ec022c5423887b07c69b2f5b48</title>
<path fill="none" stroke="#000000" d="M137.8286,-215.7304C158.5952,-186.2446 197.6986,-131.1251 202,-128 221.6285,-113.7396 246.8761,-104.6525 268.8905,-98.9556"/>
<polygon fill="#000000" stroke="#000000" points="269.8499,-102.3245 278.7459,-96.5702 268.2031,-95.5209 269.8499,-102.3245"/>
<g id="a_edge9&#45;headlabel"><a xlink:href="dir_000012_000085.html" target="_top" xlink:title="4">
<text text-anchor="middle" x="267.0241" y="-103.4296" font-family="Helvetica,sans-Serif" font-size="10.00" fill="#000000">4</text>
</a>
</g>
</g>
<!-- dir_7114413358de58e678b3fdba12d7093d&#45;&gt;dir_2171f7ec022c5423887b07c69b2f5b48 -->
<g id="edge16" class="edge">
<title>dir_7114413358de58e678b3fdba12d7093d&#45;&gt;dir_2171f7ec022c5423887b07c69b2f5b48</title>
<path fill="none" stroke="#000000" d="M144.3595,-143.8434C151.3714,-138.0707 159.6337,-132.1221 168,-128 199.8081,-112.3282 238.6639,-102.7399 268.9942,-97.1154"/>
<polygon fill="#000000" stroke="#000000" points="269.6937,-100.546 278.9307,-95.3568 268.4738,-93.6532 269.6937,-100.546"/>
<g id="a_edge16&#45;headlabel"><a xlink:href="dir_000013_000085.html" target="_top" xlink:title="1">
<text text-anchor="middle" x="266.6489" y="-101.4682" font-family="Helvetica,sans-Serif" font-size="10.00" fill="#000000">1</text>
</a>
</g>
</g>
<!-- dir_4ab6b4cc6a7edbff49100e9123df213f&#45;&gt;dir_bcbb2cf9a3d3d83e5515c82071a07177 -->
<g id="edge1" class="edge">
<title>dir_4ab6b4cc6a7edbff49100e9123df213f&#45;&gt;dir_bcbb2cf9a3d3d83e5515c82071a07177</title>
<path fill="none" stroke="#000000" d="M294.6266,-215.8314C285.2225,-207.3694 274.6749,-197.1489 265.7488,-187.8971"/>
<polygon fill="#000000" stroke="#000000" points="268.0996,-185.2884 258.693,-180.4133 263.0063,-190.0904 268.0996,-185.2884"/>
<g id="a_edge1&#45;headlabel"><a xlink:href="dir_000032_000058.html" target="_top" xlink:title="2">
<text text-anchor="middle" x="272.6313" y="-183.4561" font-family="Helvetica,sans-Serif" font-size="10.00" fill="#000000">2</text>
</a>
</g>
</g>
<!-- dir_4ab6b4cc6a7edbff49100e9123df213f&#45;&gt;dir_2171f7ec022c5423887b07c69b2f5b48 -->
<g id="edge2" class="edge">
<title>dir_4ab6b4cc6a7edbff49100e9123df213f&#45;&gt;dir_2171f7ec022c5423887b07c69b2f5b48</title>
<path fill="none" stroke="#000000" d="M314.3268,-215.7623C311.867,-191.201 311.5923,-147.2474 313.5026,-118.3541"/>
<polygon fill="#000000" stroke="#000000" points="317.0152,-118.3416 314.3417,-108.0896 310.0385,-117.7712 317.0152,-118.3416"/>
<g id="a_edge2&#45;headlabel"><a xlink:href="dir_000032_000085.html" target="_top" xlink:title="2">
<text text-anchor="middle" x="319.5522" y="-119.6556" font-family="Helvetica,sans-Serif" font-size="10.00" fill="#000000">2</text>
</a>
</g>
</g>
<!-- dir_051dca18e802f8e9474f2e30d29c04e0&#45;&gt;dir_4ab6b4cc6a7edbff49100e9123df213f -->
<g id="edge3" class="edge">
<title>dir_051dca18e802f8e9474f2e30d29c04e0&#45;&gt;dir_4ab6b4cc6a7edbff49100e9123df213f</title>
<path fill="none" stroke="#000000" d="M312.0328,-28.4492C332.0031,-36.8162 356.0949,-50.7268 368,-72 392.7642,-116.2512 361.8713,-174.4618 339.1077,-207.7006"/>
<polygon fill="#000000" stroke="#000000" points="336.1645,-205.8007 333.2454,-215.9854 341.8787,-209.844 336.1645,-205.8007"/>
<g id="a_edge3&#45;headlabel"><a xlink:href="dir_000044_000032.html" target="_top" xlink:title="300">
<text text-anchor="middle" x="335.9231" y="-198.7264" font-family="Helvetica,sans-Serif" font-size="10.00" fill="#000000">300</text>
</a>
</g>
</g>
<!-- dir_051dca18e802f8e9474f2e30d29c04e0&#45;&gt;dir_bcbb2cf9a3d3d83e5515c82071a07177 -->
<g id="edge4" class="edge">
<title>dir_051dca18e802f8e9474f2e30d29c04e0&#45;&gt;dir_bcbb2cf9a3d3d83e5515c82071a07177</title>
<path fill="none" stroke="#000000" d="M280.3871,-36.0896C277.0458,-60.7884 266.8043,-105.2933 258.0142,-134.2331"/>
<polygon fill="#000000" stroke="#000000" points="254.6791,-133.1717 254.9793,-143.7623 261.349,-135.296 254.6791,-133.1717"/>
<g id="a_edge4&#45;headlabel"><a xlink:href="dir_000044_000058.html" target="_top" xlink:title="938">
<text text-anchor="middle" x="253.0645" y="-126.385" font-family="Helvetica,sans-Serif" font-size="10.00" fill="#000000">938</text>
</a>
</g>
</g>
<!-- dir_051dca18e802f8e9474f2e30d29c04e0&#45;&gt;dir_2171f7ec022c5423887b07c69b2f5b48 -->
<g id="edge5" class="edge">
<title>dir_051dca18e802f8e9474f2e30d29c04e0&#45;&gt;dir_2171f7ec022c5423887b07c69b2f5b48</title>
<path fill="none" stroke="#000000" d="M295.9499,-36.4133C301.0391,-44.3991 306.3924,-53.9155 310.7829,-62.6975"/>
<polygon fill="#000000" stroke="#000000" points="307.666,-64.2933 315.111,-71.8314 313.9917,-61.2958 307.666,-64.2933"/>
<g id="a_edge5&#45;headlabel"><a xlink:href="dir_000044_000085.html" target="_top" xlink:title="1251">
<text text-anchor="middle" x="303.561" y="-59.7608" font-family="Helvetica,sans-Serif" font-size="10.00" fill="#000000">1251</text>
</a>
</g>
</g>
<!-- dir_8d04f135a1eb0fdc4d561ef87bbea216&#45;&gt;dir_bcbb2cf9a3d3d83e5515c82071a07177 -->
<g id="edge15" class="edge">
<title>dir_8d04f135a1eb0fdc4d561ef87bbea216&#45;&gt;dir_bcbb2cf9a3d3d83e5515c82071a07177</title>
<path fill="none" stroke="#000000" d="M215.346,-215.8314C219.9237,-207.7925 225.4052,-198.1666 230.4588,-189.2918"/>
<polygon fill="#000000" stroke="#000000" points="233.6077,-190.8351 235.5147,-180.4133 227.5248,-187.3712 233.6077,-190.8351"/>
<g id="a_edge15&#45;headlabel"><a xlink:href="dir_000005_000058.html" target="_top" xlink:title="6">
<text text-anchor="middle" x="234.2963" y="-192.8637" font-family="Helvetica,sans-Serif" font-size="10.00" fill="#000000">6</text>
</a>
</g>
</g>
<!-- dir_bcbb2cf9a3d3d83e5515c82071a07177&#45;&gt;dir_4ab6b4cc6a7edbff49100e9123df213f -->
<g id="edge17" class="edge">
<title>dir_bcbb2cf9a3d3d83e5515c82071a07177&#45;&gt;dir_4ab6b4cc6a7edbff49100e9123df213f</title>
<path fill="none" stroke="#000000" d="M270.3669,-180.1628C279.8429,-188.6891 290.4806,-199.0016 299.4508,-208.3099"/>
<polygon fill="#000000" stroke="#000000" points="297.1285,-210.9492 306.5314,-215.8314 302.2254,-206.151 297.1285,-210.9492"/>
<g id="a_edge17&#45;headlabel"><a xlink:href="dir_000058_000032.html" target="_top" xlink:title="8">
<text text-anchor="middle" x="292.5973" y="-207.778" font-family="Helvetica,sans-Serif" font-size="10.00" fill="#000000">8</text>
</a>
</g>
</g>
<!-- dir_bcbb2cf9a3d3d83e5515c82071a07177&#45;&gt;dir_051dca18e802f8e9474f2e30d29c04e0 -->
<g id="edge18" class="edge">
<title>dir_bcbb2cf9a3d3d83e5515c82071a07177&#45;&gt;dir_051dca18e802f8e9474f2e30d29c04e0</title>
<path fill="none" stroke="#000000" d="M245.633,-143.7623C248.987,-119.0928 259.1647,-74.8598 267.9232,-45.9731"/>
<polygon fill="#000000" stroke="#000000" points="271.3711,-46.6802 271.0705,-36.0896 264.7012,-44.5561 271.3711,-46.6802"/>
<g id="a_edge18&#45;headlabel"><a xlink:href="dir_000058_000044.html" target="_top" xlink:title="4">
<text text-anchor="middle" x="272.9859" y="-48.4668" font-family="Helvetica,sans-Serif" font-size="10.00" fill="#000000">4</text>
</a>
</g>
</g>
<!-- dir_bcbb2cf9a3d3d83e5515c82071a07177&#45;&gt;dir_2171f7ec022c5423887b07c69b2f5b48 -->
<g id="edge19" class="edge">
<title>dir_bcbb2cf9a3d3d83e5515c82071a07177&#45;&gt;dir_2171f7ec022c5423887b07c69b2f5b48</title>
<path fill="none" stroke="#000000" d="M258.4686,-143.8314C266.4394,-135.1337 276.9694,-124.5783 287.056,-115.1265"/>
<polygon fill="#000000" stroke="#000000" points="289.6386,-117.5066 294.6331,-108.1628 284.9019,-112.3526 289.6386,-117.5066"/>
<g id="a_edge19&#45;headlabel"><a xlink:href="dir_000058_000085.html" target="_top" xlink:title="72">
<text text-anchor="middle" x="288.9132" y="-119.5294" font-family="Helvetica,sans-Serif" font-size="10.00" fill="#000000">72</text>
</a>
</g>
</g>
<!-- dir_2171f7ec022c5423887b07c69b2f5b48&#45;&gt;dir_4ab6b4cc6a7edbff49100e9123df213f -->
<g id="edge20" class="edge">
<title>dir_2171f7ec022c5423887b07c69b2f5b48&#45;&gt;dir_4ab6b4cc6a7edbff49100e9123df213f</title>
<path fill="none" stroke="#000000" d="M323.6583,-108.0896C326.1269,-132.5727 326.4104,-176.5174 324.5089,-205.4713"/>
<polygon fill="#000000" stroke="#000000" points="320.9942,-205.5118 323.6732,-215.7623 327.9712,-206.0785 320.9942,-205.5118"/>
<g id="a_edge20&#45;headlabel"><a xlink:href="dir_000085_000032.html" target="_top" xlink:title="37">
<text text-anchor="middle" x="318.4551" y="-199.1992" font-family="Helvetica,sans-Serif" font-size="10.00" fill="#000000">37</text>
</a>
</g>
</g>
<!-- dir_2171f7ec022c5423887b07c69b2f5b48&#45;&gt;dir_051dca18e802f8e9474f2e30d29c04e0 -->
<g id="edge21" class="edge">
<title>dir_2171f7ec022c5423887b07c69b2f5b48&#45;&gt;dir_051dca18e802f8e9474f2e30d29c04e0</title>
<path fill="none" stroke="#000000" d="M303.2063,-71.8314C298.1225,-63.8771 292.7622,-54.369 288.3522,-45.5723"/>
<polygon fill="#000000" stroke="#000000" points="291.4525,-43.9418 283.9978,-36.4133 285.1305,-46.9474 291.4525,-43.9418"/>
<g id="a_edge21&#45;headlabel"><a xlink:href="dir_000085_000044.html" target="_top" xlink:title="16">
<text text-anchor="middle" x="295.56" y="-43.4692" font-family="Helvetica,sans-Serif" font-size="10.00" fill="#000000">16</text>
</a>
</g>
</g>
<!-- dir_2171f7ec022c5423887b07c69b2f5b48&#45;&gt;dir_bcbb2cf9a3d3d83e5515c82071a07177 -->
<g id="edge22" class="edge">
<title>dir_2171f7ec022c5423887b07c69b2f5b48&#45;&gt;dir_bcbb2cf9a3d3d83e5515c82071a07177</title>
<path fill="none" stroke="#000000" d="M306.307,-108.4133C298.3498,-117.0787 287.9,-127.5464 277.8919,-136.9223"/>
<polygon fill="#000000" stroke="#000000" points="275.3684,-134.4879 270.3734,-143.8314 280.1048,-139.6422 275.3684,-134.4879"/>
<g id="a_edge22&#45;headlabel"><a xlink:href="dir_000085_000058.html" target="_top" xlink:title="20">
<text text-anchor="middle" x="276.094" y="-127.4651" font-family="Helvetica,sans-Serif" font-size="10.00" fill="#000000">20</text>
</a>
</g>
</g>
</g>
</svg>
