<?xml version="1.0" encoding="UTF-8" standalone="no"?>
<!DOCTYPE svg PUBLIC "-//W3C//DTD SVG 1.1//EN"
 "http://www.w3.org/Graphics/SVG/1.1/DTD/svg11.dtd">
<!-- Generated by graphviz version 2.40.1 (20161225.0304)
 -->
<!-- Title: /home/travis/build/AliceO2Group/AliceO2/Analysis/Tutorials/src Pages: 1 -->
<svg width="236pt" height="367pt"
 viewBox="0.00 0.00 235.54 367.00" xmlns="http://www.w3.org/2000/svg" xmlns:xlink="http://www.w3.org/1999/xlink">
<g id="graph0" class="graph" transform="scale(1 1) rotate(0) translate(4 363)">
<title>/home/travis/build/AliceO2Group/AliceO2/Analysis/Tutorials/src</title>
<g id="clust1" class="cluster">
<title>clusterdir_6e355b58bf8669476ee36a32071bc3eb</title>
<g id="a_clust1"><a xlink:href="dir_6e355b58bf8669476ee36a32071bc3eb.html" target="_top" xlink:title="Tutorials">
<polygon fill="#ddddee" stroke="#000000" points="13.5417,-280 13.5417,-351 83.5417,-351 83.5417,-280 13.5417,-280"/>
<text text-anchor="middle" x="48.5417" y="-339" font-family="Helvetica,sans-Serif" font-size="10.00" fill="#000000">Tutorials</text>
</a>
</g>
</g>
<!-- dir_75e6eb4f8361c04b3062a7d58db1db64 -->
<g id="node1" class="node">
<title>dir_75e6eb4f8361c04b3062a7d58db1db64</title>
<g id="a_node1"><a xlink:href="dir_75e6eb4f8361c04b3062a7d58db1db64.html" target="_top" xlink:title="src">
<polygon fill="#eeeeff" stroke="#000000" points="75.5417,-324 21.5417,-324 21.5417,-288 75.5417,-288 75.5417,-324"/>
<text text-anchor="middle" x="48.5417" y="-303.5" font-family="Helvetica,sans-Serif" font-size="10.00" fill="#000000">src</text>
</a>
</g>
</g>
<!-- dir_6af676bf18881990e4083e191d0e63e0 -->
<g id="node2" class="node">
<title>dir_6af676bf18881990e4083e191d0e63e0</title>
<g id="a_node2"><a xlink:href="dir_6af676bf18881990e4083e191d0e63e0.html" target="_top" xlink:title="CCDB">
<polygon fill="none" stroke="#ff0000" points="227.5417,-180 173.5417,-180 173.5417,-144 227.5417,-144 227.5417,-180"/>
<text text-anchor="middle" x="200.5417" y="-159.5" font-family="Helvetica,sans-Serif" font-size="10.00" fill="#000000">CCDB</text>
</a>
</g>
</g>
<!-- dir_75e6eb4f8361c04b3062a7d58db1db64&#45;&gt;dir_6af676bf18881990e4083e191d0e63e0 -->
<g id="edge6" class="edge">
<title>dir_75e6eb4f8361c04b3062a7d58db1db64&#45;&gt;dir_6af676bf18881990e4083e191d0e63e0</title>
<path fill="none" stroke="#000000" d="M75.655,-297.7625C99.241,-289.437 133.0721,-274.5536 155.5417,-252 172.8657,-234.6112 184.7289,-209.1983 191.9069,-189.8077"/>
<polygon fill="#000000" stroke="#000000" points="195.2377,-190.8859 195.2376,-180.2911 188.6306,-188.5735 195.2377,-190.8859"/>
<g id="a_edge6&#45;headlabel"><a xlink:href="dir_000023_000024.html" target="_top" xlink:title="1">
<text text-anchor="middle" x="196.7302" y="-192.7166" font-family="Helvetica,sans-Serif" font-size="10.00" fill="#000000">1</text>
</a>
</g>
</g>
<!-- dir_f41dd59f861c855ea21b0dc3111cb7b0 -->
<g id="node3" class="node">
<title>dir_f41dd59f861c855ea21b0dc3111cb7b0</title>
<g id="a_node3"><a xlink:href="dir_f41dd59f861c855ea21b0dc3111cb7b0.html" target="_top" xlink:title="DataModel">
<polygon fill="none" stroke="#ff0000" points="146.0417,-252 77.0417,-252 77.0417,-216 146.0417,-216 146.0417,-252"/>
<text text-anchor="middle" x="111.5417" y="-231.5" font-family="Helvetica,sans-Serif" font-size="10.00" fill="#000000">DataModel</text>
</a>
</g>
</g>
<!-- dir_75e6eb4f8361c04b3062a7d58db1db64&#45;&gt;dir_f41dd59f861c855ea21b0dc3111cb7b0 -->
<g id="edge7" class="edge">
<title>dir_75e6eb4f8361c04b3062a7d58db1db64&#45;&gt;dir_f41dd59f861c855ea21b0dc3111cb7b0</title>
<path fill="none" stroke="#000000" d="M64.4392,-287.8314C71.7694,-279.454 80.6077,-269.3531 88.6386,-260.1749"/>
<polygon fill="#000000" stroke="#000000" points="91.479,-262.2438 95.4301,-252.4133 86.211,-257.6343 91.479,-262.2438"/>
<g id="a_edge7&#45;headlabel"><a xlink:href="dir_000023_000009.html" target="_top" xlink:title="2">
<text text-anchor="middle" x="91.2487" y="-264.3187" font-family="Helvetica,sans-Serif" font-size="10.00" fill="#000000">2</text>
</a>
</g>
</g>
<!-- dir_8d04f135a1eb0fdc4d561ef87bbea216 -->
<g id="node4" class="node">
<title>dir_8d04f135a1eb0fdc4d561ef87bbea216</title>
<g id="a_node4"><a xlink:href="dir_8d04f135a1eb0fdc4d561ef87bbea216.html" target="_top" xlink:title="Core">
<polygon fill="none" stroke="#ff0000" points="79.5417,-180 25.5417,-180 25.5417,-144 79.5417,-144 79.5417,-180"/>
<text text-anchor="middle" x="52.5417" y="-159.5" font-family="Helvetica,sans-Serif" font-size="10.00" fill="#000000">Core</text>
</a>
</g>
</g>
<!-- dir_75e6eb4f8361c04b3062a7d58db1db64&#45;&gt;dir_8d04f135a1eb0fdc4d561ef87bbea216 -->
<g id="edge8" class="edge">
<title>dir_75e6eb4f8361c04b3062a7d58db1db64&#45;&gt;dir_8d04f135a1eb0fdc4d561ef87bbea216</title>
<path fill="none" stroke="#000000" d="M49.0483,-287.7623C49.7305,-263.201 50.9515,-219.2474 51.7541,-190.3541"/>
<polygon fill="#000000" stroke="#000000" points="55.2601,-190.183 52.0392,-180.0896 48.2628,-189.9885 55.2601,-190.183"/>
<g id="a_edge8&#45;headlabel"><a xlink:href="dir_000023_000005.html" target="_top" xlink:title="3">
<text text-anchor="middle" x="57.9985" y="-191.355" font-family="Helvetica,sans-Serif" font-size="10.00" fill="#000000">3</text>
</a>
</g>
</g>
<!-- dir_bcbb2cf9a3d3d83e5515c82071a07177 -->
<g id="node5" class="node">
<title>dir_bcbb2cf9a3d3d83e5515c82071a07177</title>
<g id="a_node5"><a xlink:href="dir_bcbb2cf9a3d3d83e5515c82071a07177.html" target="_top" xlink:title="Framework">
<polygon fill="none" stroke="#ff0000" points="102.0417,-108 31.0417,-108 31.0417,-72 102.0417,-72 102.0417,-108"/>
<text text-anchor="middle" x="66.5417" y="-87.5" font-family="Helvetica,sans-Serif" font-size="10.00" fill="#000000">Framework</text>
</a>
</g>
</g>
<!-- dir_75e6eb4f8361c04b3062a7d58db1db64&#45;&gt;dir_bcbb2cf9a3d3d83e5515c82071a07177 -->
<g id="edge9" class="edge">
<title>dir_75e6eb4f8361c04b3062a7d58db1db64&#45;&gt;dir_bcbb2cf9a3d3d83e5515c82071a07177</title>
<path fill="none" stroke="#000000" d="M38.5578,-287.916C23.0724,-257.3477 -3.0182,-193.9143 16.5417,-144 20.7175,-133.3439 28.0929,-123.5335 35.9176,-115.2816"/>
<polygon fill="#000000" stroke="#000000" points="38.4792,-117.6713 43.1508,-108.162 33.5687,-112.6825 38.4792,-117.6713"/>
<g id="a_edge9&#45;headlabel"><a xlink:href="dir_000023_000058.html" target="_top" xlink:title="69">
<text text-anchor="middle" x="37.9091" y="-119.7164" font-family="Helvetica,sans-Serif" font-size="10.00" fill="#000000">69</text>
</a>
</g>
</g>
<!-- dir_2171f7ec022c5423887b07c69b2f5b48 -->
<g id="node6" class="node">
<title>dir_2171f7ec022c5423887b07c69b2f5b48</title>
<g id="a_node6"><a xlink:href="dir_2171f7ec022c5423887b07c69b2f5b48.html" target="_top" xlink:title="DataFormats">
<polygon fill="none" stroke="#ff0000" points="106.5417,-36 26.5417,-36 26.5417,0 106.5417,0 106.5417,-36"/>
<text text-anchor="middle" x="66.5417" y="-15.5" font-family="Helvetica,sans-Serif" font-size="10.00" fill="#000000">DataFormats</text>
</a>
</g>
</g>
<!-- dir_75e6eb4f8361c04b3062a7d58db1db64&#45;&gt;dir_2171f7ec022c5423887b07c69b2f5b48 -->
<g id="edge10" class="edge">
<title>dir_75e6eb4f8361c04b3062a7d58db1db64&#45;&gt;dir_2171f7ec022c5423887b07c69b2f5b48</title>
<path fill="none" stroke="#000000" d="M31.0629,-287.574C22.9386,-277.7971 14.0853,-265.1124 9.5417,-252 -6.1802,-206.6282 1.6189,-191.7655 6.5417,-144 9.8927,-111.4852 7.322,-101.432 21.5417,-72 26.3694,-62.0075 33.4456,-52.3003 40.5636,-43.9364"/>
<polygon fill="#000000" stroke="#000000" points="43.2767,-46.153 47.3289,-36.3637 38.0564,-41.4894 43.2767,-46.153"/>
<g id="a_edge10&#45;headlabel"><a xlink:href="dir_000023_000085.html" target="_top" xlink:title="1">
<text text-anchor="middle" x="42.9992" y="-48.2252" font-family="Helvetica,sans-Serif" font-size="10.00" fill="#000000">1</text>
</a>
</g>
</g>
<!-- dir_6af676bf18881990e4083e191d0e63e0&#45;&gt;dir_bcbb2cf9a3d3d83e5515c82071a07177 -->
<g id="edge1" class="edge">
<title>dir_6af676bf18881990e4083e191d0e63e0&#45;&gt;dir_bcbb2cf9a3d3d83e5515c82071a07177</title>
<path fill="none" stroke="#000000" d="M173.4248,-147.4297C155.0385,-137.5505 130.352,-124.2861 109.3362,-112.9941"/>
<polygon fill="#000000" stroke="#000000" points="110.7454,-109.778 100.2798,-108.128 107.4321,-115.9443 110.7454,-109.778"/>
<g id="a_edge1&#45;headlabel"><a xlink:href="dir_000024_000058.html" target="_top" xlink:title="2">
<text text-anchor="middle" x="115.2557" y="-106.4783" font-family="Helvetica,sans-Serif" font-size="10.00" fill="#000000">2</text>
</a>
</g>
</g>
<!-- dir_f41dd59f861c855ea21b0dc3111cb7b0&#45;&gt;dir_6af676bf18881990e4083e191d0e63e0 -->
<g id="edge2" class="edge">
<title>dir_f41dd59f861c855ea21b0dc3111cb7b0&#45;&gt;dir_6af676bf18881990e4083e191d0e63e0</title>
<path fill="none" stroke="#000000" d="M134.0001,-215.8314C144.9622,-206.9632 158.3116,-196.1637 170.1682,-186.5718"/>
<polygon fill="#000000" stroke="#000000" points="172.5172,-189.1734 178.0904,-180.1628 168.1146,-183.7313 172.5172,-189.1734"/>
<g id="a_edge2&#45;headlabel"><a xlink:href="dir_000009_000024.html" target="_top" xlink:title="2">
<text text-anchor="middle" x="171.5083" y="-191.1416" font-family="Helvetica,sans-Serif" font-size="10.00" fill="#000000">2</text>
</a>
</g>
</g>
<!-- dir_f41dd59f861c855ea21b0dc3111cb7b0&#45;&gt;dir_8d04f135a1eb0fdc4d561ef87bbea216 -->
<g id="edge3" class="edge">
<title>dir_f41dd59f861c855ea21b0dc3111cb7b0&#45;&gt;dir_8d04f135a1eb0fdc4d561ef87bbea216</title>
<path fill="none" stroke="#000000" d="M96.6535,-215.8314C89.7887,-207.454 81.5116,-197.3531 73.9906,-188.1749"/>
<polygon fill="#000000" stroke="#000000" points="76.6758,-185.9297 67.6303,-180.4133 71.2614,-190.3665 76.6758,-185.9297"/>
<g id="a_edge3&#45;headlabel"><a xlink:href="dir_000009_000005.html" target="_top" xlink:title="1">
<text text-anchor="middle" x="81.1502" y="-184.4104" font-family="Helvetica,sans-Serif" font-size="10.00" fill="#000000">1</text>
</a>
</g>
</g>
<!-- dir_f41dd59f861c855ea21b0dc3111cb7b0&#45;&gt;dir_bcbb2cf9a3d3d83e5515c82071a07177 -->
<g id="edge4" class="edge">
<title>dir_f41dd59f861c855ea21b0dc3111cb7b0&#45;&gt;dir_bcbb2cf9a3d3d83e5515c82071a07177</title>
<path fill="none" stroke="#000000" d="M107.6735,-215.8616C103.5869,-197.5353 96.6228,-168.5054 88.5417,-144 85.6705,-135.2934 82.0775,-125.989 78.6328,-117.5994"/>
<polygon fill="#000000" stroke="#000000" points="81.8097,-116.1248 74.7091,-108.2615 75.3562,-118.8365 81.8097,-116.1248"/>
<g id="a_edge4&#45;headlabel"><a xlink:href="dir_000009_000058.html" target="_top" xlink:title="18">
<text text-anchor="middle" x="85.8197" y="-115.8389" font-family="Helvetica,sans-Serif" font-size="10.00" fill="#000000">18</text>
</a>
</g>
</g>
<!-- dir_f41dd59f861c855ea21b0dc3111cb7b0&#45;&gt;dir_2171f7ec022c5423887b07c69b2f5b48 -->
<g id="edge5" class="edge">
<title>dir_f41dd59f861c855ea21b0dc3111cb7b0&#45;&gt;dir_2171f7ec022c5423887b07c69b2f5b48</title>
<path fill="none" stroke="#000000" d="M115.4437,-215.8154C121.1932,-185.0986 129.4459,-121.4524 111.5417,-72 107.8267,-61.7392 101.2165,-52.0579 94.1869,-43.8033"/>
<polygon fill="#000000" stroke="#000000" points="96.7217,-41.3886 87.3995,-36.3539 91.5473,-46.1031 96.7217,-41.3886"/>
<g id="a_edge5&#45;headlabel"><a xlink:href="dir_000009_000085.html" target="_top" xlink:title="7">
<text text-anchor="middle" x="101.2413" y="-39.6334" font-family="Helvetica,sans-Serif" font-size="10.00" fill="#000000">7</text>
</a>
</g>
</g>
<!-- dir_8d04f135a1eb0fdc4d561ef87bbea216&#45;&gt;dir_bcbb2cf9a3d3d83e5515c82071a07177 -->
<g id="edge11" class="edge">
<title>dir_8d04f135a1eb0fdc4d561ef87bbea216&#45;&gt;dir_bcbb2cf9a3d3d83e5515c82071a07177</title>
<path fill="none" stroke="#000000" d="M56.0745,-143.8314C57.5718,-136.131 59.3522,-126.9743 61.0162,-118.4166"/>
<polygon fill="#000000" stroke="#000000" points="64.4882,-118.8975 62.9613,-108.4133 57.6169,-117.5614 64.4882,-118.8975"/>
<g id="a_edge11&#45;headlabel"><a xlink:href="dir_000005_000058.html" target="_top" xlink:title="6">
<text text-anchor="middle" x="66.5892" y="-120.4679" font-family="Helvetica,sans-Serif" font-size="10.00" fill="#000000">6</text>
</a>
</g>
</g>
<!-- dir_bcbb2cf9a3d3d83e5515c82071a07177&#45;&gt;dir_2171f7ec022c5423887b07c69b2f5b48 -->
<g id="edge12" class="edge">
<title>dir_bcbb2cf9a3d3d83e5515c82071a07177&#45;&gt;dir_2171f7ec022c5423887b07c69b2f5b48</title>
<path fill="none" stroke="#000000" d="M60.5893,-71.8314C59.8388,-64.131 59.6179,-54.9743 59.9266,-46.4166"/>
<polygon fill="#000000" stroke="#000000" points="63.4209,-46.6161 60.5657,-36.4133 56.4351,-46.1697 63.4209,-46.6161"/>
<g id="a_edge12&#45;headlabel"><a xlink:href="dir_000058_000085.html" target="_top" xlink:title="72">
<text text-anchor="middle" x="66.0253" y="-47.8844" font-family="Helvetica,sans-Serif" font-size="10.00" fill="#000000">72</text>
</a>
</g>
</g>
<!-- dir_2171f7ec022c5423887b07c69b2f5b48&#45;&gt;dir_bcbb2cf9a3d3d83e5515c82071a07177 -->
<g id="edge13" class="edge">
<title>dir_2171f7ec022c5423887b07c69b2f5b48&#45;&gt;dir_bcbb2cf9a3d3d83e5515c82071a07177</title>
<path fill="none" stroke="#000000" d="M72.5177,-36.4133C73.2488,-44.0593 73.4619,-53.1084 73.1571,-61.5726"/>
<polygon fill="#000000" stroke="#000000" points="69.6465,-61.6264 72.4941,-71.8314 76.6319,-62.078 69.6465,-61.6264"/>
<g id="a_edge13&#45;headlabel"><a xlink:href="dir_000085_000058.html" target="_top" xlink:title="20">
<text text-anchor="middle" x="67.0449" y="-55.3562" font-family="Helvetica,sans-Serif" font-size="10.00" fill="#000000">20</text>
</a>
</g>
</g>
</g>
</svg>
