<?xml version="1.0" encoding="UTF-8" standalone="no"?>
<!DOCTYPE svg PUBLIC "-//W3C//DTD SVG 1.1//EN"
 "http://www.w3.org/Graphics/SVG/1.1/DTD/svg11.dtd">
<!-- Generated by graphviz version 2.40.1 (20161225.0304)
 -->
<!-- Title: /home/travis/build/AliceO2Group/AliceO2/Detectors/Vertexing/include Pages: 1 -->
<svg width="249pt" height="303pt"
 viewBox="0.00 0.00 248.50 303.00" xmlns="http://www.w3.org/2000/svg" xmlns:xlink="http://www.w3.org/1999/xlink">
<g id="graph0" class="graph" transform="scale(1 1) rotate(0) translate(4 299)">
<title>/home/travis/build/AliceO2Group/AliceO2/Detectors/Vertexing/include</title>
<g id="clust1" class="cluster">
<title>clusterdir_411c6bed3d84b00fddab3a93c8a3b5fb</title>
<g id="a_clust1"><a xlink:href="dir_411c6bed3d84b00fddab3a93c8a3b5fb.html" target="_top" xlink:title="Vertexing">
<polygon fill="#ddddee" stroke="#000000" points="18.5,-200 18.5,-287 232.5,-287 232.5,-200 18.5,-200"/>
<text text-anchor="middle" x="125.5" y="-275" font-family="Helvetica,sans-Serif" font-size="10.00" fill="#000000">Vertexing</text>
</a>
</g>
</g>
<g id="clust2" class="cluster">
<title>clusterdir_685195b2337b28da095e36f150390e16</title>
<g id="a_clust2"><a xlink:href="dir_685195b2337b28da095e36f150390e16.html" target="_top">
<polygon fill="#eeeeff" stroke="#000000" points="26.5,-208 26.5,-260 224.5,-260 224.5,-208 26.5,-208"/>
</a>
</g>
</g>
<!-- dir_685195b2337b28da095e36f150390e16 -->
<g id="node1" class="node">
<title>dir_685195b2337b28da095e36f150390e16</title>
<text text-anchor="middle" x="189.5" y="-231.5" font-family="Helvetica,sans-Serif" font-size="10.00" fill="#000000">include</text>
</g>
<!-- dir_45cc1e4cbf5f078eedb3b50b87acd505 -->
<g id="node2" class="node">
<title>dir_45cc1e4cbf5f078eedb3b50b87acd505</title>
<g id="a_node2"><a xlink:href="dir_45cc1e4cbf5f078eedb3b50b87acd505.html" target="_top" xlink:title="DetectorsVertexing">
<polygon fill="#ffffff" stroke="#000000" points="144.5,-252 34.5,-252 34.5,-216 144.5,-216 144.5,-252"/>
<text text-anchor="middle" x="89.5" y="-231.5" font-family="Helvetica,sans-Serif" font-size="10.00" fill="#000000">DetectorsVertexing</text>
</a>
</g>
</g>
<!-- dir_4ab6b4cc6a7edbff49100e9123df213f -->
<g id="node3" class="node">
<title>dir_4ab6b4cc6a7edbff49100e9123df213f</title>
<g id="a_node3"><a xlink:href="dir_4ab6b4cc6a7edbff49100e9123df213f.html" target="_top" xlink:title="Common">
<polygon fill="none" stroke="#ff0000" points="61,-180 0,-180 0,-144 61,-144 61,-180"/>
<text text-anchor="middle" x="30.5" y="-159.5" font-family="Helvetica,sans-Serif" font-size="10.00" fill="#000000">Common</text>
</a>
</g>
</g>
<!-- dir_45cc1e4cbf5f078eedb3b50b87acd505&#45;&gt;dir_4ab6b4cc6a7edbff49100e9123df213f -->
<g id="edge4" class="edge">
<title>dir_45cc1e4cbf5f078eedb3b50b87acd505&#45;&gt;dir_4ab6b4cc6a7edbff49100e9123df213f</title>
<path fill="none" stroke="#000000" d="M74.6118,-215.8314C67.747,-207.454 59.4699,-197.3531 51.9489,-188.1749"/>
<polygon fill="#000000" stroke="#000000" points="54.6341,-185.9297 45.5886,-180.4133 49.2197,-190.3665 54.6341,-185.9297"/>
<g id="a_edge4&#45;headlabel"><a xlink:href="dir_000675_000032.html" target="_top" xlink:title="6">
<text text-anchor="middle" x="59.1085" y="-184.4104" font-family="Helvetica,sans-Serif" font-size="10.00" fill="#000000">6</text>
</a>
</g>
</g>
<!-- dir_d14e88a79bca429480864605ee348cef -->
<g id="node4" class="node">
<title>dir_d14e88a79bca429480864605ee348cef</title>
<g id="a_node4"><a xlink:href="dir_d14e88a79bca429480864605ee348cef.html" target="_top" xlink:title="FIT">
<polygon fill="none" stroke="#ff0000" points="86.5,-36 32.5,-36 32.5,0 86.5,0 86.5,-36"/>
<text text-anchor="middle" x="59.5" y="-15.5" font-family="Helvetica,sans-Serif" font-size="10.00" fill="#000000">FIT</text>
</a>
</g>
</g>
<!-- dir_45cc1e4cbf5f078eedb3b50b87acd505&#45;&gt;dir_d14e88a79bca429480864605ee348cef -->
<g id="edge5" class="edge">
<title>dir_45cc1e4cbf5f078eedb3b50b87acd505&#45;&gt;dir_d14e88a79bca429480864605ee348cef</title>
<path fill="none" stroke="#000000" d="M97.0535,-215.804C108.6431,-185.0706 127.5723,-121.4004 108.5,-72 104.3808,-61.3306 97.0664,-51.4665 89.3251,-43.1681"/>
<polygon fill="#000000" stroke="#000000" points="91.7181,-40.6113 82.175,-36.0091 86.7652,-45.558 91.7181,-40.6113"/>
<g id="a_edge5&#45;headlabel"><a xlink:href="dir_000675_000171.html" target="_top" xlink:title="1">
<text text-anchor="middle" x="96.2672" y="-38.6483" font-family="Helvetica,sans-Serif" font-size="10.00" fill="#000000">1</text>
</a>
</g>
</g>
<!-- dir_2171f7ec022c5423887b07c69b2f5b48 -->
<g id="node5" class="node">
<title>dir_2171f7ec022c5423887b07c69b2f5b48</title>
<g id="a_node5"><a xlink:href="dir_2171f7ec022c5423887b07c69b2f5b48.html" target="_top" xlink:title="DataFormats">
<polygon fill="none" stroke="#ff0000" points="99.5,-108 19.5,-108 19.5,-72 99.5,-72 99.5,-108"/>
<text text-anchor="middle" x="59.5" y="-87.5" font-family="Helvetica,sans-Serif" font-size="10.00" fill="#000000">DataFormats</text>
</a>
</g>
</g>
<!-- dir_45cc1e4cbf5f078eedb3b50b87acd505&#45;&gt;dir_2171f7ec022c5423887b07c69b2f5b48 -->
<g id="edge6" class="edge">
<title>dir_45cc1e4cbf5f078eedb3b50b87acd505&#45;&gt;dir_2171f7ec022c5423887b07c69b2f5b48</title>
<path fill="none" stroke="#000000" d="M85.7005,-215.7623C80.561,-191.0928 71.3458,-146.8598 65.3277,-117.9731"/>
<polygon fill="#000000" stroke="#000000" points="68.7347,-117.1656 63.2687,-108.0896 61.8819,-118.5933 68.7347,-117.1656"/>
<g id="a_edge6&#45;headlabel"><a xlink:href="dir_000675_000085.html" target="_top" xlink:title="23">
<text text-anchor="middle" x="72.2474" y="-117.6056" font-family="Helvetica,sans-Serif" font-size="10.00" fill="#000000">23</text>
</a>
</g>
</g>
<!-- dir_4ab6b4cc6a7edbff49100e9123df213f&#45;&gt;dir_2171f7ec022c5423887b07c69b2f5b48 -->
<g id="edge1" class="edge">
<title>dir_4ab6b4cc6a7edbff49100e9123df213f&#45;&gt;dir_2171f7ec022c5423887b07c69b2f5b48</title>
<path fill="none" stroke="#000000" d="M31.8655,-143.8314C34.2942,-135.8771 37.9137,-126.369 41.8117,-117.5723"/>
<polygon fill="#000000" stroke="#000000" points="45.0298,-118.9532 46.1075,-108.4133 38.6923,-115.9806 45.0298,-118.9532"/>
<g id="a_edge1&#45;headlabel"><a xlink:href="dir_000032_000085.html" target="_top" xlink:title="2">
<text text-anchor="middle" x="46.074" y="-120.9132" font-family="Helvetica,sans-Serif" font-size="10.00" fill="#000000">2</text>
</a>
</g>
</g>
<!-- dir_d14e88a79bca429480864605ee348cef&#45;&gt;dir_4ab6b4cc6a7edbff49100e9123df213f -->
<g id="edge2" class="edge">
<title>dir_d14e88a79bca429480864605ee348cef&#45;&gt;dir_4ab6b4cc6a7edbff49100e9123df213f</title>
<path fill="none" stroke="#000000" d="M36.825,-36.0091C26.7112,-45.5028 15.8802,-58.0645 10.5,-72 2.6688,-92.2841 8.7802,-116.3832 16.2424,-134.5369"/>
<polygon fill="#000000" stroke="#000000" points="13.1725,-136.246 20.447,-143.9486 19.5637,-133.3907 13.1725,-136.246"/>
<g id="a_edge2&#45;headlabel"><a xlink:href="dir_000171_000032.html" target="_top" xlink:title="29">
<text text-anchor="middle" x="9.114" y="-131.6221" font-family="Helvetica,sans-Serif" font-size="10.00" fill="#000000">29</text>
</a>
</g>
</g>
<!-- dir_d14e88a79bca429480864605ee348cef&#45;&gt;dir_2171f7ec022c5423887b07c69b2f5b48 -->
<g id="edge3" class="edge">
<title>dir_d14e88a79bca429480864605ee348cef&#45;&gt;dir_2171f7ec022c5423887b07c69b2f5b48</title>
<path fill="none" stroke="#000000" d="M65.476,-36.4133C66.2071,-44.0593 66.4203,-53.1084 66.1155,-61.5726"/>
<polygon fill="#000000" stroke="#000000" points="62.6048,-61.6264 65.4524,-71.8314 69.5902,-62.078 62.6048,-61.6264"/>
<g id="a_edge3&#45;headlabel"><a xlink:href="dir_000171_000085.html" target="_top" xlink:title="138">
<text text-anchor="middle" x="60.0032" y="-55.3562" font-family="Helvetica,sans-Serif" font-size="10.00" fill="#000000">138</text>
</a>
</g>
</g>
<!-- dir_2171f7ec022c5423887b07c69b2f5b48&#45;&gt;dir_4ab6b4cc6a7edbff49100e9123df213f -->
<g id="edge7" class="edge">
<title>dir_2171f7ec022c5423887b07c69b2f5b48&#45;&gt;dir_4ab6b4cc6a7edbff49100e9123df213f</title>
<path fill="none" stroke="#000000" d="M58.0596,-108.4133C55.6066,-116.3991 51.9722,-125.9155 48.0686,-134.6975"/>
<polygon fill="#000000" stroke="#000000" points="44.8615,-133.2929 43.7703,-143.8314 51.1952,-136.2735 44.8615,-133.2929"/>
<g id="a_edge7&#45;headlabel"><a xlink:href="dir_000085_000032.html" target="_top" xlink:title="37">
<text text-anchor="middle" x="43.823" y="-126.3315" font-family="Helvetica,sans-Serif" font-size="10.00" fill="#000000">37</text>
</a>
</g>
</g>
<!-- dir_2171f7ec022c5423887b07c69b2f5b48&#45;&gt;dir_d14e88a79bca429480864605ee348cef -->
<g id="edge8" class="edge">
<title>dir_2171f7ec022c5423887b07c69b2f5b48&#45;&gt;dir_d14e88a79bca429480864605ee348cef</title>
<path fill="none" stroke="#000000" d="M53.5476,-71.8314C52.7972,-64.131 52.5763,-54.9743 52.8849,-46.4166"/>
<polygon fill="#000000" stroke="#000000" points="56.3792,-46.6161 53.524,-36.4133 49.3935,-46.1697 56.3792,-46.6161"/>
<g id="a_edge8&#45;headlabel"><a xlink:href="dir_000085_000171.html" target="_top" xlink:title="3">
<text text-anchor="middle" x="58.9836" y="-47.8844" font-family="Helvetica,sans-Serif" font-size="10.00" fill="#000000">3</text>
</a>
</g>
</g>
</g>
</svg>
