<?xml version="1.0" encoding="UTF-8" standalone="no"?>
<!DOCTYPE svg PUBLIC "-//W3C//DTD SVG 1.1//EN"
 "http://www.w3.org/Graphics/SVG/1.1/DTD/svg11.dtd">
<!-- Generated by graphviz version 2.40.1 (20161225.0304)
 -->
<!-- Title: /home/travis/build/AliceO2Group/AliceO2/Framework/Utils/src Pages: 1 -->
<svg width="146pt" height="367pt"
 viewBox="0.00 0.00 145.88 367.00" xmlns="http://www.w3.org/2000/svg" xmlns:xlink="http://www.w3.org/1999/xlink">
<g id="graph0" class="graph" transform="scale(1 1) rotate(0) translate(4 363)">
<title>/home/travis/build/AliceO2Group/AliceO2/Framework/Utils/src</title>
<g id="clust1" class="cluster">
<title>clusterdir_86f64936653d09622c529b3cc7c8edcd</title>
<g id="a_clust1"><a xlink:href="dir_86f64936653d09622c529b3cc7c8edcd.html" target="_top" xlink:title="Utils">
<polygon fill="#ddddee" stroke="#000000" points="31.5937,-280 31.5937,-351 101.5937,-351 101.5937,-280 31.5937,-280"/>
<text text-anchor="middle" x="66.5937" y="-339" font-family="Helvetica,sans-Serif" font-size="10.00" fill="#000000">Utils</text>
</a>
</g>
</g>
<!-- dir_9d9deac5aa928bccabe3328cf9e31ff3 -->
<g id="node1" class="node">
<title>dir_9d9deac5aa928bccabe3328cf9e31ff3</title>
<g id="a_node1"><a xlink:href="dir_9d9deac5aa928bccabe3328cf9e31ff3.html" target="_top" xlink:title="src">
<polygon fill="#eeeeff" stroke="#000000" points="93.5937,-324 39.5937,-324 39.5937,-288 93.5937,-288 93.5937,-324"/>
<text text-anchor="middle" x="66.5937" y="-303.5" font-family="Helvetica,sans-Serif" font-size="10.00" fill="#000000">src</text>
</a>
</g>
</g>
<!-- dir_9f165b2481dacfe69aa54d326bd5cd47 -->
<g id="node2" class="node">
<title>dir_9f165b2481dacfe69aa54d326bd5cd47</title>
<g id="a_node2"><a xlink:href="dir_9f165b2481dacfe69aa54d326bd5cd47.html" target="_top" xlink:title="Core">
<polygon fill="none" stroke="#ff0000" points="66.5937,-180 12.5937,-180 12.5937,-144 66.5937,-144 66.5937,-180"/>
<text text-anchor="middle" x="39.5937" y="-159.5" font-family="Helvetica,sans-Serif" font-size="10.00" fill="#000000">Core</text>
</a>
</g>
</g>
<!-- dir_9d9deac5aa928bccabe3328cf9e31ff3&#45;&gt;dir_9f165b2481dacfe69aa54d326bd5cd47 -->
<g id="edge1" class="edge">
<title>dir_9d9deac5aa928bccabe3328cf9e31ff3&#45;&gt;dir_9f165b2481dacfe69aa54d326bd5cd47</title>
<path fill="none" stroke="#000000" d="M63.1741,-287.7623C58.5486,-263.0928 50.2549,-218.8598 44.8387,-189.9731"/>
<polygon fill="#000000" stroke="#000000" points="48.2685,-189.2733 42.9855,-180.0896 41.3884,-190.5634 48.2685,-189.2733"/>
<g id="a_edge1&#45;headlabel"><a xlink:href="dir_000646_000710.html" target="_top" xlink:title="24">
<text text-anchor="middle" x="51.7215" y="-189.7831" font-family="Helvetica,sans-Serif" font-size="10.00" fill="#000000">24</text>
</a>
</g>
</g>
<!-- dir_de9651cf711cd4bea71a7a8d6bfef94c -->
<g id="node3" class="node">
<title>dir_de9651cf711cd4bea71a7a8d6bfef94c</title>
<g id="a_node3"><a xlink:href="dir_de9651cf711cd4bea71a7a8d6bfef94c.html" target="_top" xlink:title="include">
<polygon fill="none" stroke="#ff0000" points="121.5937,-252 67.5937,-252 67.5937,-216 121.5937,-216 121.5937,-252"/>
<text text-anchor="middle" x="94.5937" y="-231.5" font-family="Helvetica,sans-Serif" font-size="10.00" fill="#000000">include</text>
</a>
</g>
</g>
<!-- dir_9d9deac5aa928bccabe3328cf9e31ff3&#45;&gt;dir_de9651cf711cd4bea71a7a8d6bfef94c -->
<g id="edge2" class="edge">
<title>dir_9d9deac5aa928bccabe3328cf9e31ff3&#45;&gt;dir_de9651cf711cd4bea71a7a8d6bfef94c</title>
<path fill="none" stroke="#000000" d="M73.6593,-287.8314C76.7197,-279.9617 80.3716,-270.5712 83.7619,-261.8533"/>
<polygon fill="#000000" stroke="#000000" points="87.0705,-263.0019 87.433,-252.4133 80.5465,-260.4647 87.0705,-263.0019"/>
<g id="a_edge2&#45;headlabel"><a xlink:href="dir_000646_000060.html" target="_top" xlink:title="7">
<text text-anchor="middle" x="88.4139" y="-264.8812" font-family="Helvetica,sans-Serif" font-size="10.00" fill="#000000">7</text>
</a>
</g>
</g>
<!-- dir_ab5a80d4bd40f73f0851d5ff6a022779 -->
<g id="node4" class="node">
<title>dir_ab5a80d4bd40f73f0851d5ff6a022779</title>
<g id="a_node4"><a xlink:href="dir_ab5a80d4bd40f73f0851d5ff6a022779.html" target="_top" xlink:title="Logger">
<polygon fill="none" stroke="#ff0000" points="70.5937,-36 16.5937,-36 16.5937,0 70.5937,0 70.5937,-36"/>
<text text-anchor="middle" x="43.5937" y="-15.5" font-family="Helvetica,sans-Serif" font-size="10.00" fill="#000000">Logger</text>
</a>
</g>
</g>
<!-- dir_9d9deac5aa928bccabe3328cf9e31ff3&#45;&gt;dir_ab5a80d4bd40f73f0851d5ff6a022779 -->
<g id="edge3" class="edge">
<title>dir_9d9deac5aa928bccabe3328cf9e31ff3&#45;&gt;dir_ab5a80d4bd40f73f0851d5ff6a022779</title>
<path fill="none" stroke="#000000" d="M54.0862,-287.8398C38.668,-264.2436 13.3147,-221.1787 3.5937,-180 -7.5653,-132.7298 13.0481,-77.8925 28.604,-45.6738"/>
<polygon fill="#000000" stroke="#000000" points="31.8824,-46.9435 33.2286,-36.4345 25.6228,-43.8103 31.8824,-46.9435"/>
<g id="a_edge3&#45;headlabel"><a xlink:href="dir_000646_000720.html" target="_top" xlink:title="3">
<text text-anchor="middle" x="32.8125" y="-48.9288" font-family="Helvetica,sans-Serif" font-size="10.00" fill="#000000">3</text>
</a>
</g>
</g>
<!-- dir_2171f7ec022c5423887b07c69b2f5b48 -->
<g id="node5" class="node">
<title>dir_2171f7ec022c5423887b07c69b2f5b48</title>
<g id="a_node5"><a xlink:href="dir_2171f7ec022c5423887b07c69b2f5b48.html" target="_top" xlink:title="DataFormats">
<polygon fill="none" stroke="#ff0000" points="117.5937,-108 37.5937,-108 37.5937,-72 117.5937,-72 117.5937,-108"/>
<text text-anchor="middle" x="77.5937" y="-87.5" font-family="Helvetica,sans-Serif" font-size="10.00" fill="#000000">DataFormats</text>
</a>
</g>
</g>
<!-- dir_9d9deac5aa928bccabe3328cf9e31ff3&#45;&gt;dir_2171f7ec022c5423887b07c69b2f5b48 -->
<g id="edge4" class="edge">
<title>dir_9d9deac5aa928bccabe3328cf9e31ff3&#45;&gt;dir_2171f7ec022c5423887b07c69b2f5b48</title>
<path fill="none" stroke="#000000" d="M93.703,-290.9972C107.498,-281.7409 122.9362,-268.4801 130.5937,-252 151.999,-205.9326 120.8672,-148.8053 98.0309,-116.1639"/>
<polygon fill="#000000" stroke="#000000" points="100.8443,-114.0814 92.151,-108.0252 95.1702,-118.1807 100.8443,-114.0814"/>
<g id="a_edge4&#45;headlabel"><a xlink:href="dir_000646_000085.html" target="_top" xlink:title="2">
<text text-anchor="middle" x="105.2508" y="-112.8324" font-family="Helvetica,sans-Serif" font-size="10.00" fill="#000000">2</text>
</a>
</g>
</g>
<!-- dir_9f165b2481dacfe69aa54d326bd5cd47&#45;&gt;dir_ab5a80d4bd40f73f0851d5ff6a022779 -->
<g id="edge5" class="edge">
<title>dir_9f165b2481dacfe69aa54d326bd5cd47&#45;&gt;dir_ab5a80d4bd40f73f0851d5ff6a022779</title>
<path fill="none" stroke="#000000" d="M34.5967,-143.7093C30.2754,-125.5114 25.2134,-96.7993 28.5937,-72 29.7709,-63.3639 31.9608,-54.1599 34.3107,-45.8427"/>
<polygon fill="#000000" stroke="#000000" points="37.6717,-46.8195 37.1989,-36.2353 30.9681,-44.8042 37.6717,-46.8195"/>
<g id="a_edge5&#45;headlabel"><a xlink:href="dir_000710_000720.html" target="_top" xlink:title="42">
<text text-anchor="middle" x="39.3559" y="-48.5794" font-family="Helvetica,sans-Serif" font-size="10.00" fill="#000000">42</text>
</a>
</g>
</g>
<!-- dir_9f165b2481dacfe69aa54d326bd5cd47&#45;&gt;dir_2171f7ec022c5423887b07c69b2f5b48 -->
<g id="edge6" class="edge">
<title>dir_9f165b2481dacfe69aa54d326bd5cd47&#45;&gt;dir_2171f7ec022c5423887b07c69b2f5b48</title>
<path fill="none" stroke="#000000" d="M49.1827,-143.8314C53.4255,-135.7925 58.5058,-126.1666 63.1897,-117.2918"/>
<polygon fill="#000000" stroke="#000000" points="66.3033,-118.8908 67.8756,-108.4133 60.1126,-115.6235 66.3033,-118.8908"/>
<g id="a_edge6&#45;headlabel"><a xlink:href="dir_000710_000085.html" target="_top" xlink:title="55">
<text text-anchor="middle" x="67.1366" y="-120.895" font-family="Helvetica,sans-Serif" font-size="10.00" fill="#000000">55</text>
</a>
</g>
</g>
<!-- dir_de9651cf711cd4bea71a7a8d6bfef94c&#45;&gt;dir_9f165b2481dacfe69aa54d326bd5cd47 -->
<g id="edge7" class="edge">
<title>dir_de9651cf711cd4bea71a7a8d6bfef94c&#45;&gt;dir_9f165b2481dacfe69aa54d326bd5cd47</title>
<path fill="none" stroke="#000000" d="M80.7149,-215.8314C74.3802,-207.5386 66.7553,-197.557 59.8011,-188.4533"/>
<polygon fill="#000000" stroke="#000000" points="62.5112,-186.2353 53.6594,-180.4133 56.9485,-190.4847 62.5112,-186.2353"/>
<g id="a_edge7&#45;headlabel"><a xlink:href="dir_000060_000710.html" target="_top" xlink:title="15">
<text text-anchor="middle" x="66.9495" y="-184.8683" font-family="Helvetica,sans-Serif" font-size="10.00" fill="#000000">15</text>
</a>
</g>
</g>
<!-- dir_de9651cf711cd4bea71a7a8d6bfef94c&#45;&gt;dir_ab5a80d4bd40f73f0851d5ff6a022779 -->
<g id="edge8" class="edge">
<title>dir_de9651cf711cd4bea71a7a8d6bfef94c&#45;&gt;dir_ab5a80d4bd40f73f0851d5ff6a022779</title>
<path fill="none" stroke="#000000" d="M105.6071,-215.8099C122.9876,-184.5362 152.2911,-119.3761 126.5937,-72 116.7041,-53.7674 97.6994,-40.726 80.3686,-32.0325"/>
<polygon fill="#000000" stroke="#000000" points="81.5224,-28.7084 70.9811,-27.6448 78.5583,-35.0499 81.5224,-28.7084"/>
<g id="a_edge8&#45;headlabel"><a xlink:href="dir_000060_000720.html" target="_top" xlink:title="3">
<text text-anchor="middle" x="85.981" y="-25.1582" font-family="Helvetica,sans-Serif" font-size="10.00" fill="#000000">3</text>
</a>
</g>
</g>
<!-- dir_de9651cf711cd4bea71a7a8d6bfef94c&#45;&gt;dir_2171f7ec022c5423887b07c69b2f5b48 -->
<g id="edge9" class="edge">
<title>dir_de9651cf711cd4bea71a7a8d6bfef94c&#45;&gt;dir_2171f7ec022c5423887b07c69b2f5b48</title>
<path fill="none" stroke="#000000" d="M92.4407,-215.7623C89.5411,-191.201 84.3521,-147.2474 80.9411,-118.3541"/>
<polygon fill="#000000" stroke="#000000" points="84.3777,-117.6103 79.7293,-108.0896 77.4259,-118.431 84.3777,-117.6103"/>
<g id="a_edge9&#45;headlabel"><a xlink:href="dir_000060_000085.html" target="_top" xlink:title="4">
<text text-anchor="middle" x="87.6187" y="-118.3473" font-family="Helvetica,sans-Serif" font-size="10.00" fill="#000000">4</text>
</a>
</g>
</g>
<!-- dir_2171f7ec022c5423887b07c69b2f5b48&#45;&gt;dir_ab5a80d4bd40f73f0851d5ff6a022779 -->
<g id="edge10" class="edge">
<title>dir_2171f7ec022c5423887b07c69b2f5b48&#45;&gt;dir_ab5a80d4bd40f73f0851d5ff6a022779</title>
<path fill="none" stroke="#000000" d="M69.0141,-71.8314C65.2579,-63.8771 60.768,-54.369 56.614,-45.5723"/>
<polygon fill="#000000" stroke="#000000" points="59.7239,-43.9612 52.2889,-36.4133 53.3941,-46.9503 59.7239,-43.9612"/>
<g id="a_edge10&#45;headlabel"><a xlink:href="dir_000085_000720.html" target="_top" xlink:title="19">
<text text-anchor="middle" x="63.8261" y="-43.4993" font-family="Helvetica,sans-Serif" font-size="10.00" fill="#000000">19</text>
</a>
</g>
</g>
</g>
</svg>
