<?xml version="1.0" encoding="UTF-8" standalone="no"?>
<!DOCTYPE svg PUBLIC "-//W3C//DTD SVG 1.1//EN"
 "http://www.w3.org/Graphics/SVG/1.1/DTD/svg11.dtd">
<!-- Generated by graphviz version 2.40.1 (20161225.0304)
 -->
<!-- Title: /home/travis/build/AliceO2Group/AliceO2/Detectors/TOF/reconstruction Pages: 1 -->
<!--zoomable 663 -->
<svg id="main" version="1.1" xmlns="http://www.w3.org/2000/svg" xmlns:xlink="http://www.w3.org/1999/xlink" xml:space="preserve" onload="init(evt)">
<style type="text/css"><![CDATA[
.edge:hover path { stroke: red; }
.edge:hover polygon { stroke: red; fill: red; }
]]></style>
<script type="text/javascript"><![CDATA[
var edges = document.getElementsByTagName('g');
if (edges && edges.length) {
  for (var i=0;i<edges.length;i++) {
    if (edges[i].id.substr(0,4)=='edge') {
      edges[i].setAttribute('class','edge');
    }
  }
}
]]></script>
        <defs>
                <circle id="rim" cx="0" cy="0" r="7"/>
                <circle id="rim2" cx="0" cy="0" r="3.5"/>
                <g id="zoomPlus">
                        <use xlink:href="#rim" fill="#404040">
                                <set attributeName="fill" to="#808080" begin="zoomplus.mouseover" end="zoomplus.mouseout"/>
                        </use>
                        <path d="M-4,0h8M0,-4v8" fill="none" stroke="white" stroke-width="1.5" pointer-events="none"/>
                </g>
                <g id="zoomMin">
                        <use xlink:href="#rim" fill="#404040">
                                <set attributeName="fill" to="#808080" begin="zoomminus.mouseover" end="zoomminus.mouseout"/>
                        </use>
                        <path d="M-4,0h8" fill="none" stroke="white" stroke-width="1.5" pointer-events="none"/>
                </g>
                <g id="dirArrow">
                        <path fill="none" stroke="white" stroke-width="1.5" d="M0,-3.0v7 M-2.5,-0.5L0,-3.0L2.5,-0.5"/>
                </g>
               <g id="resetDef">
                       <use xlink:href="#rim2" fill="#404040">
                               <set attributeName="fill" to="#808080" begin="reset.mouseover" end="reset.mouseout"/>
                       </use>
               </g>
        </defs>

<script type="text/javascript">
var viewWidth = 436;
var viewHeight = 663;
var sectionId = 'dynsection-0';
</script>
<script xlink:href="svgpan.js"/>
<svg id="graph" class="graph">
<g id="viewport">
<title>/home/travis/build/AliceO2Group/AliceO2/Detectors/TOF/reconstruction</title>
<g id="clust1" class="cluster">
<title>clusterdir_577c839d346a264df4e9e588ca2a45dd</title>
<g id="a_clust1"><a xlink:href="dir_577c839d346a264df4e9e588ca2a45dd.html" target="_top" xlink:title="TOF">
<polygon fill="#ddddee" stroke="#000000" points="148,-488 148,-647 338,-647 338,-488 148,-488"/>
<text text-anchor="middle" x="243" y="-635" font-family="Helvetica,sans-Serif" font-size="10.00" fill="#000000">TOF</text>
</a>
</g>
</g>
<g id="clust2" class="cluster">
<title>clusterdir_d1fec883a65fe865f3e91884d818def8</title>
<g id="a_clust2"><a xlink:href="dir_d1fec883a65fe865f3e91884d818def8.html" target="_top">
<polygon fill="#eeeeff" stroke="#000000" points="156,-496 156,-620 330,-620 330,-496 156,-496"/>
</a>
</g>
</g>
<!-- dir_d1fec883a65fe865f3e91884d818def8 -->
<g id="node1" class="node">
<title>dir_d1fec883a65fe865f3e91884d818def8</title>
<text text-anchor="middle" x="279" y="-591.5" font-family="Helvetica,sans-Serif" font-size="10.00" fill="#000000">reconstruction</text>
</g>
<!-- dir_3dfda2b66c3c3704521dbfdd9d3caacf -->
<g id="node2" class="node">
<title>dir_3dfda2b66c3c3704521dbfdd9d3caacf</title>
<g id="a_node2"><a xlink:href="dir_3dfda2b66c3c3704521dbfdd9d3caacf.html" target="_top" xlink:title="include">
<polygon fill="#ffffff" stroke="#ff0000" points="218,-540 164,-540 164,-504 218,-504 218,-540"/>
<text text-anchor="middle" x="191" y="-519.5" font-family="Helvetica,sans-Serif" font-size="10.00" fill="#000000">include</text>
</a>
</g>
</g>
<!-- dir_7559d374f7e4089a12282edb4b89411f -->
<g id="node4" class="node">
<title>dir_7559d374f7e4089a12282edb4b89411f</title>
<g id="a_node4"><a xlink:href="dir_7559d374f7e4089a12282edb4b89411f.html" target="_top" xlink:title="calibration">
<polygon fill="none" stroke="#ff0000" points="248,-468 180,-468 180,-432 248,-432 248,-468"/>
<text text-anchor="middle" x="214" y="-447.5" font-family="Helvetica,sans-Serif" font-size="10.00" fill="#000000">calibration</text>
</a>
</g>
</g>
<!-- dir_3dfda2b66c3c3704521dbfdd9d3caacf&#45;&gt;dir_7559d374f7e4089a12282edb4b89411f -->
<g id="edge5" class="edge">
<title>dir_3dfda2b66c3c3704521dbfdd9d3caacf&#45;&gt;dir_7559d374f7e4089a12282edb4b89411f</title>
<path fill="none" stroke="#000000" d="M196.8039,-503.8314C199.2908,-496.0463 202.2531,-486.7729 205.0125,-478.1347"/>
<polygon fill="#000000" stroke="#000000" points="208.409,-479.0041 208.118,-468.4133 201.7409,-476.874 208.409,-479.0041"/>
<g id="a_edge5&#45;headlabel"><a xlink:href="dir_000380_000637.html" target="_top" xlink:title="1">
<text text-anchor="middle" x="210.0199" y="-480.7922" font-family="Helvetica,sans-Serif" font-size="10.00" fill="#000000">1</text>
</a>
</g>
</g>
<!-- dir_b05a5fa85f84bfc9013183c9d87f9a36 -->
<g id="node6" class="node">
<title>dir_b05a5fa85f84bfc9013183c9d87f9a36</title>
<g id="a_node6"><a xlink:href="dir_b05a5fa85f84bfc9013183c9d87f9a36.html" target="_top" xlink:title="Utilities">
<polygon fill="none" stroke="#ff0000" points="184.5,-36 129.5,-36 129.5,0 184.5,0 184.5,-36"/>
<text text-anchor="middle" x="157" y="-15.5" font-family="Helvetica,sans-Serif" font-size="10.00" fill="#000000">Utilities</text>
</a>
</g>
</g>
<!-- dir_3dfda2b66c3c3704521dbfdd9d3caacf&#45;&gt;dir_b05a5fa85f84bfc9013183c9d87f9a36 -->
<g id="edge6" class="edge">
<title>dir_3dfda2b66c3c3704521dbfdd9d3caacf&#45;&gt;dir_b05a5fa85f84bfc9013183c9d87f9a36</title>
<path fill="none" stroke="#000000" d="M163.6344,-507.6793C110.8212,-477.8454 0,-403.6134 0,-306 0,-306 0,-306 0,-162 0,-97.1215 73.7146,-53.5436 120.1231,-32.5371"/>
<polygon fill="#000000" stroke="#000000" points="121.5395,-35.7377 129.293,-28.5173 118.7291,-29.3267 121.5395,-35.7377"/>
<g id="a_edge6&#45;headlabel"><a xlink:href="dir_000380_000615.html" target="_top" xlink:title="1">
<text text-anchor="middle" x="119.3873" y="-37.2813" font-family="Helvetica,sans-Serif" font-size="10.00" fill="#000000">1</text>
</a>
</g>
</g>
<!-- dir_37c90836491b695b472bf98d1be8336b -->
<g id="node7" class="node">
<title>dir_37c90836491b695b472bf98d1be8336b</title>
<g id="a_node7"><a xlink:href="dir_37c90836491b695b472bf98d1be8336b.html" target="_top" xlink:title="Base">
<polygon fill="none" stroke="#ff0000" points="129,-108 75,-108 75,-72 129,-72 129,-108"/>
<text text-anchor="middle" x="102" y="-87.5" font-family="Helvetica,sans-Serif" font-size="10.00" fill="#000000">Base</text>
</a>
</g>
</g>
<!-- dir_3dfda2b66c3c3704521dbfdd9d3caacf&#45;&gt;dir_37c90836491b695b472bf98d1be8336b -->
<g id="edge7" class="edge">
<title>dir_3dfda2b66c3c3704521dbfdd9d3caacf&#45;&gt;dir_37c90836491b695b472bf98d1be8336b</title>
<path fill="none" stroke="#000000" d="M177.5871,-503.94C160.9673,-480.4497 133.3369,-437.4967 121,-396 91.6353,-297.2279 95.8176,-172.8494 99.6017,-118.0784"/>
<polygon fill="#000000" stroke="#000000" points="103.0939,-118.312 100.3432,-108.0805 96.1131,-117.7942 103.0939,-118.312"/>
<g id="a_edge7&#45;headlabel"><a xlink:href="dir_000380_000280.html" target="_top" xlink:title="1">
<text text-anchor="middle" x="105.6596" y="-119.6067" font-family="Helvetica,sans-Serif" font-size="10.00" fill="#000000">1</text>
</a>
</g>
</g>
<!-- dir_0189f3ad6abecd72f822a0c3914f12b2 -->
<g id="node8" class="node">
<title>dir_0189f3ad6abecd72f822a0c3914f12b2</title>
<g id="a_node8"><a xlink:href="dir_0189f3ad6abecd72f822a0c3914f12b2.html" target="_top" xlink:title="base">
<polygon fill="none" stroke="#ff0000" points="184,-396 130,-396 130,-360 184,-360 184,-396"/>
<text text-anchor="middle" x="157" y="-375.5" font-family="Helvetica,sans-Serif" font-size="10.00" fill="#000000">base</text>
</a>
</g>
</g>
<!-- dir_3dfda2b66c3c3704521dbfdd9d3caacf&#45;&gt;dir_0189f3ad6abecd72f822a0c3914f12b2 -->
<g id="edge8" class="edge">
<title>dir_3dfda2b66c3c3704521dbfdd9d3caacf&#45;&gt;dir_0189f3ad6abecd72f822a0c3914f12b2</title>
<path fill="none" stroke="#000000" d="M183.2192,-503.7983C179.066,-493.4628 174.1715,-480.1909 171,-468 165.6999,-447.6272 162.1263,-424.1051 159.9167,-406.2183"/>
<polygon fill="#000000" stroke="#000000" points="163.377,-405.674 158.7423,-396.1467 156.4242,-406.4848 163.377,-405.674"/>
<g id="a_edge8&#45;headlabel"><a xlink:href="dir_000380_000146.html" target="_top" xlink:title="9">
<text text-anchor="middle" x="166.6134" y="-406.4156" font-family="Helvetica,sans-Serif" font-size="10.00" fill="#000000">9</text>
</a>
</g>
</g>
<!-- dir_26637d1bd82229bc9ed97f7e706be743 -->
<g id="node9" class="node">
<title>dir_26637d1bd82229bc9ed97f7e706be743</title>
<g id="a_node9"><a xlink:href="dir_26637d1bd82229bc9ed97f7e706be743.html" target="_top" xlink:title="Raw">
<polygon fill="none" stroke="#ff0000" points="315,-324 261,-324 261,-288 315,-288 315,-324"/>
<text text-anchor="middle" x="288" y="-303.5" font-family="Helvetica,sans-Serif" font-size="10.00" fill="#000000">Raw</text>
</a>
</g>
</g>
<!-- dir_3dfda2b66c3c3704521dbfdd9d3caacf&#45;&gt;dir_26637d1bd82229bc9ed97f7e706be743 -->
<g id="edge9" class="edge">
<title>dir_3dfda2b66c3c3704521dbfdd9d3caacf&#45;&gt;dir_26637d1bd82229bc9ed97f7e706be743</title>
<path fill="none" stroke="#000000" d="M218.055,-506.3158C231.8293,-496.9358 247.6077,-483.7734 257,-468 281.853,-426.262 287.3805,-368.7032 288.2816,-334.619"/>
<polygon fill="#000000" stroke="#000000" points="291.7839,-334.4774 288.4302,-324.4274 284.7847,-334.3753 291.7839,-334.4774"/>
<g id="a_edge9&#45;headlabel"><a xlink:href="dir_000380_000620.html" target="_top" xlink:title="2">
<text text-anchor="middle" x="294.5706" y="-335.613" font-family="Helvetica,sans-Serif" font-size="10.00" fill="#000000">2</text>
</a>
</g>
</g>
<!-- dir_2171f7ec022c5423887b07c69b2f5b48 -->
<g id="node10" class="node">
<title>dir_2171f7ec022c5423887b07c69b2f5b48</title>
<g id="a_node10"><a xlink:href="dir_2171f7ec022c5423887b07c69b2f5b48.html" target="_top" xlink:title="DataFormats">
<polygon fill="none" stroke="#ff0000" points="265,-180 185,-180 185,-144 265,-144 265,-180"/>
<text text-anchor="middle" x="225" y="-159.5" font-family="Helvetica,sans-Serif" font-size="10.00" fill="#000000">DataFormats</text>
</a>
</g>
</g>
<!-- dir_3dfda2b66c3c3704521dbfdd9d3caacf&#45;&gt;dir_2171f7ec022c5423887b07c69b2f5b48 -->
<g id="edge10" class="edge">
<title>dir_3dfda2b66c3c3704521dbfdd9d3caacf&#45;&gt;dir_2171f7ec022c5423887b07c69b2f5b48</title>
<path fill="none" stroke="#000000" d="M218.2528,-515.8596C272.7539,-501.7942 390,-461.7977 390,-378 390,-378 390,-378 390,-306 390,-244.1567 323.3891,-202.7677 274.8132,-180.807"/>
<polygon fill="#000000" stroke="#000000" points="275.9281,-177.4745 265.3635,-176.6736 273.1228,-183.8878 275.9281,-177.4745"/>
<g id="a_edge10&#45;headlabel"><a xlink:href="dir_000380_000085.html" target="_top" xlink:title="11">
<text text-anchor="middle" x="280.3592" y="-173.8137" font-family="Helvetica,sans-Serif" font-size="10.00" fill="#000000">11</text>
</a>
</g>
</g>
<!-- dir_7a8ff9736435892df123de8c32178115 -->
<g id="node3" class="node">
<title>dir_7a8ff9736435892df123de8c32178115</title>
<g id="a_node3"><a xlink:href="dir_7a8ff9736435892df123de8c32178115.html" target="_top" xlink:title="src">
<polygon fill="#ffffff" stroke="#000000" points="218,-612 164,-612 164,-576 218,-576 218,-612"/>
<text text-anchor="middle" x="191" y="-591.5" font-family="Helvetica,sans-Serif" font-size="10.00" fill="#000000">src</text>
</a>
</g>
</g>
<!-- dir_7a8ff9736435892df123de8c32178115&#45;&gt;dir_3dfda2b66c3c3704521dbfdd9d3caacf -->
<g id="edge21" class="edge">
<title>dir_7a8ff9736435892df123de8c32178115&#45;&gt;dir_3dfda2b66c3c3704521dbfdd9d3caacf</title>
<path fill="none" stroke="#000000" d="M191,-575.8314C191,-568.131 191,-558.9743 191,-550.4166"/>
<polygon fill="#000000" stroke="#000000" points="194.5001,-550.4132 191,-540.4133 187.5001,-550.4133 194.5001,-550.4132"/>
<g id="a_edge21&#45;headlabel"><a xlink:href="dir_000388_000380.html" target="_top" xlink:title="8">
<text text-anchor="middle" x="197.3393" y="-551.5079" font-family="Helvetica,sans-Serif" font-size="10.00" fill="#000000">8</text>
</a>
</g>
</g>
<!-- dir_4ab6b4cc6a7edbff49100e9123df213f -->
<g id="node5" class="node">
<title>dir_4ab6b4cc6a7edbff49100e9123df213f</title>
<g id="a_node5"><a xlink:href="dir_4ab6b4cc6a7edbff49100e9123df213f.html" target="_top" xlink:title="Common">
<polygon fill="none" stroke="#ff0000" points="187.5,-252 126.5,-252 126.5,-216 187.5,-216 187.5,-252"/>
<text text-anchor="middle" x="157" y="-231.5" font-family="Helvetica,sans-Serif" font-size="10.00" fill="#000000">Common</text>
</a>
</g>
</g>
<!-- dir_7a8ff9736435892df123de8c32178115&#45;&gt;dir_4ab6b4cc6a7edbff49100e9123df213f -->
<g id="edge20" class="edge">
<title>dir_7a8ff9736435892df123de8c32178115&#45;&gt;dir_4ab6b4cc6a7edbff49100e9123df213f</title>
<path fill="none" stroke="#000000" d="M169.6789,-575.5213C159.9825,-565.9165 149.2926,-553.3969 143,-540 108.7352,-467.0512 109.8213,-439.8163 121,-360 125.8534,-325.3462 137.8701,-286.8502 146.6904,-261.6381"/>
<polygon fill="#000000" stroke="#000000" points="150.0587,-262.613 150.127,-252.0184 143.4667,-260.258 150.0587,-262.613"/>
<g id="a_edge20&#45;headlabel"><a xlink:href="dir_000388_000032.html" target="_top" xlink:title="6">
<text text-anchor="middle" x="151.5232" y="-264.4533" font-family="Helvetica,sans-Serif" font-size="10.00" fill="#000000">6</text>
</a>
</g>
</g>
<!-- dir_7a8ff9736435892df123de8c32178115&#45;&gt;dir_0189f3ad6abecd72f822a0c3914f12b2 -->
<g id="edge22" class="edge">
<title>dir_7a8ff9736435892df123de8c32178115&#45;&gt;dir_0189f3ad6abecd72f822a0c3914f12b2</title>
<path fill="none" stroke="#000000" d="M175.0095,-575.9169C167.3462,-566.0371 158.9834,-553.1563 155,-540 141.3792,-495.0137 146.3932,-439.7291 151.5174,-406.7602"/>
<polygon fill="#000000" stroke="#000000" points="155.0387,-406.9217 153.2326,-396.482 148.1342,-405.7695 155.0387,-406.9217"/>
<g id="a_edge22&#45;headlabel"><a xlink:href="dir_000388_000146.html" target="_top" xlink:title="1">
<text text-anchor="middle" x="157.2477" y="-408.4347" font-family="Helvetica,sans-Serif" font-size="10.00" fill="#000000">1</text>
</a>
</g>
</g>
<!-- dir_7a8ff9736435892df123de8c32178115&#45;&gt;dir_26637d1bd82229bc9ed97f7e706be743 -->
<g id="edge23" class="edge">
<title>dir_7a8ff9736435892df123de8c32178115&#45;&gt;dir_26637d1bd82229bc9ed97f7e706be743</title>
<path fill="none" stroke="#000000" d="M206.3596,-575.9898C225.6311,-552.5521 258.5105,-509.6545 278,-468 292.0748,-437.9182 293.5145,-428.9073 298,-396 300.7958,-375.4893 298.0701,-352.2683 294.7632,-334.5511"/>
<polygon fill="#000000" stroke="#000000" points="298.1012,-333.4031 292.6732,-324.3043 291.2424,-334.8021 298.1012,-333.4031"/>
<g id="a_edge23&#45;headlabel"><a xlink:href="dir_000388_000620.html" target="_top" xlink:title="4">
<text text-anchor="middle" x="301.6015" y="-333.8578" font-family="Helvetica,sans-Serif" font-size="10.00" fill="#000000">4</text>
</a>
</g>
</g>
<!-- dir_7a8ff9736435892df123de8c32178115&#45;&gt;dir_2171f7ec022c5423887b07c69b2f5b48 -->
<g id="edge24" class="edge">
<title>dir_7a8ff9736435892df123de8c32178115&#45;&gt;dir_2171f7ec022c5423887b07c69b2f5b48</title>
<path fill="none" stroke="#000000" d="M218.1869,-579.1041C280.4391,-544.7858 428,-462.1567 428,-450 428,-450 428,-450 428,-306 428,-231.0963 334.9188,-191.6062 274.8157,-173.9147"/>
<polygon fill="#000000" stroke="#000000" points="275.6819,-170.5224 265.1063,-171.1604 273.7715,-177.2566 275.6819,-170.5224"/>
<g id="a_edge24&#45;headlabel"><a xlink:href="dir_000388_000085.html" target="_top" xlink:title="7">
<text text-anchor="middle" x="279.9149" y="-166.2718" font-family="Helvetica,sans-Serif" font-size="10.00" fill="#000000">7</text>
</a>
</g>
</g>
<!-- dir_7559d374f7e4089a12282edb4b89411f&#45;&gt;dir_4ab6b4cc6a7edbff49100e9123df213f -->
<g id="edge1" class="edge">
<title>dir_7559d374f7e4089a12282edb4b89411f&#45;&gt;dir_4ab6b4cc6a7edbff49100e9123df213f</title>
<path fill="none" stroke="#000000" d="M209.9984,-431.664C205.9544,-413.4316 199.4046,-384.6941 193,-360 184.2152,-326.1287 172.9913,-287.4749 165.4302,-262.0121"/>
<polygon fill="#000000" stroke="#000000" points="168.7416,-260.8684 162.5296,-252.2858 162.0335,-262.869 168.7416,-260.8684"/>
<g id="a_edge1&#45;headlabel"><a xlink:href="dir_000637_000032.html" target="_top" xlink:title="8">
<text text-anchor="middle" x="172.4896" y="-261.0017" font-family="Helvetica,sans-Serif" font-size="10.00" fill="#000000">8</text>
</a>
</g>
</g>
<!-- dir_7559d374f7e4089a12282edb4b89411f&#45;&gt;dir_0189f3ad6abecd72f822a0c3914f12b2 -->
<g id="edge2" class="edge">
<title>dir_7559d374f7e4089a12282edb4b89411f&#45;&gt;dir_0189f3ad6abecd72f822a0c3914f12b2</title>
<path fill="none" stroke="#000000" d="M199.6165,-431.8314C193.0514,-423.5386 185.1493,-413.557 177.9422,-404.4533"/>
<polygon fill="#000000" stroke="#000000" points="180.5284,-402.0813 171.5772,-396.4133 175.0401,-406.4262 180.5284,-402.0813"/>
<g id="a_edge2&#45;headlabel"><a xlink:href="dir_000637_000146.html" target="_top" xlink:title="8">
<text text-anchor="middle" x="184.9857" y="-400.6373" font-family="Helvetica,sans-Serif" font-size="10.00" fill="#000000">8</text>
</a>
</g>
</g>
<!-- dir_7559d374f7e4089a12282edb4b89411f&#45;&gt;dir_2171f7ec022c5423887b07c69b2f5b48 -->
<g id="edge3" class="edge">
<title>dir_7559d374f7e4089a12282edb4b89411f&#45;&gt;dir_2171f7ec022c5423887b07c69b2f5b48</title>
<path fill="none" stroke="#000000" d="M237.9845,-431.762C264.848,-409.6664 306.867,-369.6767 324,-324 343.6944,-271.4947 293.4866,-217.2272 257.5896,-186.7297"/>
<polygon fill="#000000" stroke="#000000" points="259.6641,-183.9036 249.7269,-180.229 255.2037,-189.2985 259.6641,-183.9036"/>
<g id="a_edge3&#45;headlabel"><a xlink:href="dir_000637_000085.html" target="_top" xlink:title="22">
<text text-anchor="middle" x="264.2436" y="-181.5058" font-family="Helvetica,sans-Serif" font-size="10.00" fill="#000000">22</text>
</a>
</g>
</g>
<!-- dir_4ab6b4cc6a7edbff49100e9123df213f&#45;&gt;dir_2171f7ec022c5423887b07c69b2f5b48 -->
<g id="edge4" class="edge">
<title>dir_4ab6b4cc6a7edbff49100e9123df213f&#45;&gt;dir_2171f7ec022c5423887b07c69b2f5b48</title>
<path fill="none" stroke="#000000" d="M168.2069,-215.8314C175.5015,-207.219 185.1788,-196.7851 194.5234,-187.4048"/>
<polygon fill="#000000" stroke="#000000" points="197.2141,-189.6679 201.8944,-180.1628 192.3082,-184.6746 197.2141,-189.6679"/>
<g id="a_edge4&#45;headlabel"><a xlink:href="dir_000032_000085.html" target="_top" xlink:title="2">
<text text-anchor="middle" x="196.6399" y="-191.7124" font-family="Helvetica,sans-Serif" font-size="10.00" fill="#000000">2</text>
</a>
</g>
</g>
<!-- dir_b05a5fa85f84bfc9013183c9d87f9a36&#45;&gt;dir_4ab6b4cc6a7edbff49100e9123df213f -->
<g id="edge11" class="edge">
<title>dir_b05a5fa85f84bfc9013183c9d87f9a36&#45;&gt;dir_4ab6b4cc6a7edbff49100e9123df213f</title>
<path fill="none" stroke="#000000" d="M157,-36.1451C157,-73.7945 157,-160.6409 157,-205.7103"/>
<polygon fill="#000000" stroke="#000000" points="153.5001,-205.9554 157,-215.9555 160.5001,-205.9555 153.5001,-205.9554"/>
<g id="a_edge11&#45;headlabel"><a xlink:href="dir_000615_000032.html" target="_top" xlink:title="1">
<text text-anchor="middle" x="150.6607" y="-199.8609" font-family="Helvetica,sans-Serif" font-size="10.00" fill="#000000">1</text>
</a>
</g>
</g>
<!-- dir_b05a5fa85f84bfc9013183c9d87f9a36&#45;&gt;dir_2171f7ec022c5423887b07c69b2f5b48 -->
<g id="edge12" class="edge">
<title>dir_b05a5fa85f84bfc9013183c9d87f9a36&#45;&gt;dir_2171f7ec022c5423887b07c69b2f5b48</title>
<path fill="none" stroke="#000000" d="M170.2006,-36.0896C184.3543,-60.7884 205.6371,-105.2933 217.346,-134.2331"/>
<polygon fill="#000000" stroke="#000000" points="214.1677,-135.7166 221.0609,-143.7623 220.6896,-133.174 214.1677,-135.7166"/>
<g id="a_edge12&#45;headlabel"><a xlink:href="dir_000615_000085.html" target="_top" xlink:title="59">
<text text-anchor="middle" x="210.2168" y="-130.8987" font-family="Helvetica,sans-Serif" font-size="10.00" fill="#000000">59</text>
</a>
</g>
</g>
<!-- dir_37c90836491b695b472bf98d1be8336b&#45;&gt;dir_4ab6b4cc6a7edbff49100e9123df213f -->
<g id="edge13" class="edge">
<title>dir_37c90836491b695b472bf98d1be8336b&#45;&gt;dir_4ab6b4cc6a7edbff49100e9123df213f</title>
<path fill="none" stroke="#000000" d="M108.9092,-108.0896C118.3428,-132.7884 135.3412,-177.2933 146.3946,-206.2331"/>
<polygon fill="#000000" stroke="#000000" points="143.1965,-207.6693 150.0342,-215.7623 149.7357,-205.1717 143.1965,-207.6693"/>
<g id="a_edge13&#45;headlabel"><a xlink:href="dir_000280_000032.html" target="_top" xlink:title="16">
<text text-anchor="middle" x="139.2616" y="-202.8244" font-family="Helvetica,sans-Serif" font-size="10.00" fill="#000000">16</text>
</a>
</g>
</g>
<!-- dir_37c90836491b695b472bf98d1be8336b&#45;&gt;dir_b05a5fa85f84bfc9013183c9d87f9a36 -->
<g id="edge14" class="edge">
<title>dir_37c90836491b695b472bf98d1be8336b&#45;&gt;dir_b05a5fa85f84bfc9013183c9d87f9a36</title>
<path fill="none" stroke="#000000" d="M115.8788,-71.8314C122.2136,-63.5386 129.8384,-53.557 136.7926,-44.4533"/>
<polygon fill="#000000" stroke="#000000" points="139.6452,-46.4847 142.9343,-36.4133 134.0825,-42.2353 139.6452,-46.4847"/>
<g id="a_edge14&#45;headlabel"><a xlink:href="dir_000280_000615.html" target="_top" xlink:title="1">
<text text-anchor="middle" x="139.7195" y="-48.5647" font-family="Helvetica,sans-Serif" font-size="10.00" fill="#000000">1</text>
</a>
</g>
</g>
<!-- dir_37c90836491b695b472bf98d1be8336b&#45;&gt;dir_2171f7ec022c5423887b07c69b2f5b48 -->
<g id="edge15" class="edge">
<title>dir_37c90836491b695b472bf98d1be8336b&#45;&gt;dir_2171f7ec022c5423887b07c69b2f5b48</title>
<path fill="none" stroke="#000000" d="M129.0174,-102.7168C147.3857,-112.611 171.6684,-126.6146 191.2737,-138.5273"/>
<polygon fill="#000000" stroke="#000000" points="189.5608,-141.5827 199.9143,-143.8314 193.2229,-135.617 189.5608,-141.5827"/>
<g id="a_edge15&#45;headlabel"><a xlink:href="dir_000280_000085.html" target="_top" xlink:title="15">
<text text-anchor="middle" x="185.012" y="-139.622" font-family="Helvetica,sans-Serif" font-size="10.00" fill="#000000">15</text>
</a>
</g>
</g>
<!-- dir_0189f3ad6abecd72f822a0c3914f12b2&#45;&gt;dir_4ab6b4cc6a7edbff49100e9123df213f -->
<g id="edge16" class="edge">
<title>dir_0189f3ad6abecd72f822a0c3914f12b2&#45;&gt;dir_4ab6b4cc6a7edbff49100e9123df213f</title>
<path fill="none" stroke="#000000" d="M157,-359.7623C157,-335.201 157,-291.2474 157,-262.3541"/>
<polygon fill="#000000" stroke="#000000" points="160.5001,-262.0896 157,-252.0896 153.5001,-262.0897 160.5001,-262.0896"/>
<g id="a_edge16&#45;headlabel"><a xlink:href="dir_000146_000032.html" target="_top" xlink:title="2">
<text text-anchor="middle" x="163.3393" y="-263.1842" font-family="Helvetica,sans-Serif" font-size="10.00" fill="#000000">2</text>
</a>
</g>
</g>
<!-- dir_0189f3ad6abecd72f822a0c3914f12b2&#45;&gt;dir_37c90836491b695b472bf98d1be8336b -->
<g id="edge17" class="edge">
<title>dir_0189f3ad6abecd72f822a0c3914f12b2&#45;&gt;dir_37c90836491b695b472bf98d1be8336b</title>
<path fill="none" stroke="#000000" d="M149.9155,-359.9624C140.738,-335.7902 124.974,-291.3644 117,-252 107.629,-205.739 104.1006,-150.8439 102.7801,-118.2991"/>
<polygon fill="#000000" stroke="#000000" points="106.2727,-118.03 102.4117,-108.1638 99.2773,-118.2843 106.2727,-118.03"/>
<g id="a_edge17&#45;headlabel"><a xlink:href="dir_000146_000280.html" target="_top" xlink:title="1">
<text text-anchor="middle" x="109.2406" y="-119.0191" font-family="Helvetica,sans-Serif" font-size="10.00" fill="#000000">1</text>
</a>
</g>
</g>
<!-- dir_0189f3ad6abecd72f822a0c3914f12b2&#45;&gt;dir_26637d1bd82229bc9ed97f7e706be743 -->
<g id="edge18" class="edge">
<title>dir_0189f3ad6abecd72f822a0c3914f12b2&#45;&gt;dir_26637d1bd82229bc9ed97f7e706be743</title>
<path fill="none" stroke="#000000" d="M184.1433,-363.0816C203.8158,-352.2692 230.6157,-337.5395 252.0636,-325.7513"/>
<polygon fill="#000000" stroke="#000000" points="253.8137,-328.7833 260.8915,-320.8993 250.4421,-322.6488 253.8137,-328.7833"/>
<g id="a_edge18&#45;headlabel"><a xlink:href="dir_000146_000620.html" target="_top" xlink:title="2">
<text text-anchor="middle" x="252.0311" y="-330.5028" font-family="Helvetica,sans-Serif" font-size="10.00" fill="#000000">2</text>
</a>
</g>
</g>
<!-- dir_0189f3ad6abecd72f822a0c3914f12b2&#45;&gt;dir_2171f7ec022c5423887b07c69b2f5b48 -->
<g id="edge19" class="edge">
<title>dir_0189f3ad6abecd72f822a0c3914f12b2&#45;&gt;dir_2171f7ec022c5423887b07c69b2f5b48</title>
<path fill="none" stroke="#000000" d="M162.8627,-359.6476C170.6876,-335.1268 184.9579,-290.3162 197,-252 203.5211,-231.2509 210.8185,-207.7867 216.3283,-190.02"/>
<polygon fill="#000000" stroke="#000000" points="219.7293,-190.8691 219.3464,-180.2812 213.043,-188.7969 219.7293,-190.8691"/>
<g id="a_edge19&#45;headlabel"><a xlink:href="dir_000146_000085.html" target="_top" xlink:title="3">
<text text-anchor="middle" x="221.3774" y="-192.6431" font-family="Helvetica,sans-Serif" font-size="10.00" fill="#000000">3</text>
</a>
</g>
</g>
<!-- dir_26637d1bd82229bc9ed97f7e706be743&#45;&gt;dir_4ab6b4cc6a7edbff49100e9123df213f -->
<g id="edge25" class="edge">
<title>dir_26637d1bd82229bc9ed97f7e706be743&#45;&gt;dir_4ab6b4cc6a7edbff49100e9123df213f</title>
<path fill="none" stroke="#000000" d="M260.8567,-291.0816C242.3166,-280.8916 217.4459,-267.2222 196.6908,-255.8148"/>
<polygon fill="#000000" stroke="#000000" points="198.2303,-252.6672 187.7809,-250.9178 194.8587,-258.8017 198.2303,-252.6672"/>
<g id="a_edge25&#45;headlabel"><a xlink:href="dir_000620_000032.html" target="_top" xlink:title="10">
<text text-anchor="middle" x="202.7481" y="-249.4103" font-family="Helvetica,sans-Serif" font-size="10.00" fill="#000000">10</text>
</a>
</g>
</g>
<!-- dir_26637d1bd82229bc9ed97f7e706be743&#45;&gt;dir_2171f7ec022c5423887b07c69b2f5b48 -->
<g id="edge26" class="edge">
<title>dir_26637d1bd82229bc9ed97f7e706be743&#45;&gt;dir_2171f7ec022c5423887b07c69b2f5b48</title>
<path fill="none" stroke="#000000" d="M280.021,-287.7623C269.1808,-262.9846 249.7062,-218.4714 237.0723,-189.5939"/>
<polygon fill="#000000" stroke="#000000" points="240.129,-187.8483 232.9142,-180.0896 233.7159,-190.6541 240.129,-187.8483"/>
<g id="a_edge26&#45;headlabel"><a xlink:href="dir_000620_000085.html" target="_top" xlink:title="15">
<text text-anchor="middle" x="244.171" y="-187.5035" font-family="Helvetica,sans-Serif" font-size="10.00" fill="#000000">15</text>
</a>
</g>
</g>
<!-- dir_2171f7ec022c5423887b07c69b2f5b48&#45;&gt;dir_4ab6b4cc6a7edbff49100e9123df213f -->
<g id="edge27" class="edge">
<title>dir_2171f7ec022c5423887b07c69b2f5b48&#45;&gt;dir_4ab6b4cc6a7edbff49100e9123df213f</title>
<path fill="none" stroke="#000000" d="M213.5857,-180.4133C206.3024,-188.9938 196.6978,-199.3414 187.4257,-208.6463"/>
<polygon fill="#000000" stroke="#000000" points="184.7926,-206.3266 180.1117,-215.8314 189.6981,-211.3202 184.7926,-206.3266"/>
<g id="a_edge27&#45;headlabel"><a xlink:href="dir_000085_000032.html" target="_top" xlink:title="37">
<text text-anchor="middle" x="185.3671" y="-199.2822" font-family="Helvetica,sans-Serif" font-size="10.00" fill="#000000">37</text>
</a>
</g>
</g>
<!-- dir_2171f7ec022c5423887b07c69b2f5b48&#45;&gt;dir_b05a5fa85f84bfc9013183c9d87f9a36 -->
<g id="edge28" class="edge">
<title>dir_2171f7ec022c5423887b07c69b2f5b48&#45;&gt;dir_b05a5fa85f84bfc9013183c9d87f9a36</title>
<path fill="none" stroke="#000000" d="M211.7146,-143.7623C197.5325,-118.9846 176.2546,-74.4714 164.584,-45.5939"/>
<polygon fill="#000000" stroke="#000000" points="167.7734,-44.1386 160.884,-36.0896 161.2503,-46.6781 167.7734,-44.1386"/>
<g id="a_edge28&#45;headlabel"><a xlink:href="dir_000085_000615.html" target="_top" xlink:title="1">
<text text-anchor="middle" x="171.7233" y="-43.9584" font-family="Helvetica,sans-Serif" font-size="10.00" fill="#000000">1</text>
</a>
</g>
</g>
<!-- dir_2171f7ec022c5423887b07c69b2f5b48&#45;&gt;dir_37c90836491b695b472bf98d1be8336b -->
<g id="edge29" class="edge">
<title>dir_2171f7ec022c5423887b07c69b2f5b48&#45;&gt;dir_37c90836491b695b472bf98d1be8336b</title>
<path fill="none" stroke="#000000" d="M188.0095,-143.8314C171.3796,-134.6221 151.949,-123.3301 135.723,-113.4706"/>
<polygon fill="#000000" stroke="#000000" points="137.4298,-110.4116 127.0763,-108.1628 133.7677,-116.3772 137.4298,-110.4116"/>
<g id="a_edge29&#45;headlabel"><a xlink:href="dir_000085_000280.html" target="_top" xlink:title="1">
<text text-anchor="middle" x="141.9786" y="-107.3723" font-family="Helvetica,sans-Serif" font-size="10.00" fill="#000000">1</text>
</a>
</g>
</g>
</g>
</svg>
        <g id="navigator" transform="translate(0 0)" fill="#404254">
                <rect fill="#f2f5e9" fill-opacity="0.5" stroke="#606060" stroke-width=".5" x="0" y="0" width="60" height="60"/>
                <use id="zoomplus" xlink:href="#zoomPlus" x="17" y="9" onmousedown="handleZoom(evt,'in')"/>
                <use id="zoomminus" xlink:href="#zoomMin" x="42" y="9" onmousedown="handleZoom(evt,'out')"/>
                <use id="reset" xlink:href="#resetDef" x="30" y="36" onmousedown="handleReset()"/>
                <g id="arrowUp" xlink:href="#dirArrow" transform="translate(30 24)" onmousedown="handlePan(0,-1)">
                  <use xlink:href="#rim" fill="#404040">
                        <set attributeName="fill" to="#808080" begin="arrowUp.mouseover" end="arrowUp.mouseout"/>
                  </use>
                  <path fill="none" stroke="white" stroke-width="1.5" d="M0,-3.0v7 M-2.5,-0.5L0,-3.0L2.5,-0.5"/>
                </g>
                <g id="arrowRight" xlink:href="#dirArrow" transform="rotate(90) translate(36 -43)" onmousedown="handlePan(1,0)">
                  <use xlink:href="#rim" fill="#404040">
                        <set attributeName="fill" to="#808080" begin="arrowRight.mouseover" end="arrowRight.mouseout"/>
                  </use>
                  <path fill="none" stroke="white" stroke-width="1.5" d="M0,-3.0v7 M-2.5,-0.5L0,-3.0L2.5,-0.5"/>
                </g>
                <g id="arrowDown" xlink:href="#dirArrow" transform="rotate(180) translate(-30 -48)" onmousedown="handlePan(0,1)">
                  <use xlink:href="#rim" fill="#404040">
                        <set attributeName="fill" to="#808080" begin="arrowDown.mouseover" end="arrowDown.mouseout"/>
                  </use>
                  <path fill="none" stroke="white" stroke-width="1.5" d="M0,-3.0v7 M-2.5,-0.5L0,-3.0L2.5,-0.5"/>
                </g>
                <g id="arrowLeft" xlink:href="#dirArrow" transform="rotate(270) translate(-36 17)" onmousedown="handlePan(-1,0)">
                  <use xlink:href="#rim" fill="#404040">
                        <set attributeName="fill" to="#808080" begin="arrowLeft.mouseover" end="arrowLeft.mouseout"/>
                  </use>
                  <path fill="none" stroke="white" stroke-width="1.5" d="M0,-3.0v7 M-2.5,-0.5L0,-3.0L2.5,-0.5"/>
                </g>
        </g>
        <svg viewBox="0 0 15 15" width="100%" height="30px" preserveAspectRatio="xMaxYMin meet">
         <g id="arrow_out" transform="scale(0.3 0.3)">
          <a xlink:href="dir_d1fec883a65fe865f3e91884d818def8_dep_org.svg" target="_base">
           <rect id="button" ry="5" rx="5" y="6" x="6" height="38" width="38"
                fill="#f2f5e9" fill-opacity="0.5" stroke="#606060" stroke-width="1.0"/>
           <path id="arrow"
             d="M 11.500037,31.436501 C 11.940474,20.09759 22.043105,11.32322 32.158766,21.979434 L 37.068811,17.246167 C 37.068811,17.246167 37.088388,32 37.088388,32 L 22.160133,31.978069 C 22.160133,31.978069 26.997745,27.140456 26.997745,27.140456 C 18.528582,18.264221 13.291696,25.230495 11.500037,31.436501 z"
             style="fill:#404040;"/>
          </a>
         </g>
        </svg>
</svg>
