<?xml version="1.0" encoding="UTF-8" standalone="no"?>
<!DOCTYPE svg PUBLIC "-//W3C//DTD SVG 1.1//EN"
 "http://www.w3.org/Graphics/SVG/1.1/DTD/svg11.dtd">
<!-- Generated by graphviz version 2.40.1 (20161225.0304)
 -->
<!-- Title: /home/travis/build/AliceO2Group/AliceO2/DataFormats/Detectors/FIT/FT0 Pages: 1 -->
<svg width="524pt" height="519pt"
 viewBox="0.00 0.00 524.00 519.00" xmlns="http://www.w3.org/2000/svg" xmlns:xlink="http://www.w3.org/1999/xlink">
<g id="graph0" class="graph" transform="scale(1 1) rotate(0) translate(4 515)">
<title>/home/travis/build/AliceO2Group/AliceO2/DataFormats/Detectors/FIT/FT0</title>
<g id="clust1" class="cluster">
<title>clusterdir_6f689773863a160ed4e9bc61c1008ba5</title>
<g id="a_clust1"><a xlink:href="dir_6f689773863a160ed4e9bc61c1008ba5.html" target="_top" xlink:title="FIT">
<polygon fill="#ddddee" stroke="#000000" points="251,-344 251,-503 409,-503 409,-344 251,-344"/>
<text text-anchor="middle" x="330" y="-491" font-family="Helvetica,sans-Serif" font-size="10.00" fill="#000000">FIT</text>
</a>
</g>
</g>
<g id="clust2" class="cluster">
<title>clusterdir_c4f8a341900d529ea5f1c2b568ba3222</title>
<g id="a_clust2"><a xlink:href="dir_c4f8a341900d529ea5f1c2b568ba3222.html" target="_top">
<polygon fill="#eeeeff" stroke="#000000" points="259,-352 259,-476 401,-476 401,-352 259,-352"/>
</a>
</g>
</g>
<!-- dir_c4f8a341900d529ea5f1c2b568ba3222 -->
<g id="node1" class="node">
<title>dir_c4f8a341900d529ea5f1c2b568ba3222</title>
<text text-anchor="middle" x="366" y="-447.5" font-family="Helvetica,sans-Serif" font-size="10.00" fill="#000000">FT0</text>
</g>
<!-- dir_a6c44d6dafa1a8f18372aec58f930bca -->
<g id="node2" class="node">
<title>dir_a6c44d6dafa1a8f18372aec58f930bca</title>
<g id="a_node2"><a xlink:href="dir_a6c44d6dafa1a8f18372aec58f930bca.html" target="_top" xlink:title="include">
<polygon fill="#ffffff" stroke="#ff0000" points="385,-396 331,-396 331,-360 385,-360 385,-396"/>
<text text-anchor="middle" x="358" y="-375.5" font-family="Helvetica,sans-Serif" font-size="10.00" fill="#000000">include</text>
</a>
</g>
</g>
<!-- dir_4ab6b4cc6a7edbff49100e9123df213f -->
<g id="node4" class="node">
<title>dir_4ab6b4cc6a7edbff49100e9123df213f</title>
<g id="a_node4"><a xlink:href="dir_4ab6b4cc6a7edbff49100e9123df213f.html" target="_top" xlink:title="Common">
<polygon fill="none" stroke="#ff0000" points="153.5,-396 92.5,-396 92.5,-360 153.5,-360 153.5,-396"/>
<text text-anchor="middle" x="123" y="-375.5" font-family="Helvetica,sans-Serif" font-size="10.00" fill="#000000">Common</text>
</a>
</g>
</g>
<!-- dir_a6c44d6dafa1a8f18372aec58f930bca&#45;&gt;dir_4ab6b4cc6a7edbff49100e9123df213f -->
<g id="edge19" class="edge">
<title>dir_a6c44d6dafa1a8f18372aec58f930bca&#45;&gt;dir_4ab6b4cc6a7edbff49100e9123df213f</title>
<path fill="none" stroke="#000000" d="M330.8733,-378C275.1769,-378 219.4806,-378 163.7842,-378"/>
<polygon fill="#000000" stroke="#000000" points="163.752,-374.5001 153.752,-378 163.7519,-381.5001 163.752,-374.5001"/>
<g id="a_edge19&#45;headlabel"><a xlink:href="dir_000133_000032.html" target="_top" xlink:title="1">
<text text-anchor="middle" x="167.3466" y="-369.1607" font-family="Helvetica,sans-Serif" font-size="10.00" fill="#000000">1</text>
</a>
</g>
</g>
<!-- dir_183e7c4434404fe9096e1bd8673e1fcf -->
<g id="node6" class="node">
<title>dir_183e7c4434404fe9096e1bd8673e1fcf</title>
<g id="a_node6"><a xlink:href="dir_183e7c4434404fe9096e1bd8673e1fcf.html" target="_top" xlink:title="Headers">
<polygon fill="none" stroke="#ff0000" points="353.5,-108 296.5,-108 296.5,-72 353.5,-72 353.5,-108"/>
<text text-anchor="middle" x="325" y="-87.5" font-family="Helvetica,sans-Serif" font-size="10.00" fill="#000000">Headers</text>
</a>
</g>
</g>
<!-- dir_a6c44d6dafa1a8f18372aec58f930bca&#45;&gt;dir_183e7c4434404fe9096e1bd8673e1fcf -->
<g id="edge20" class="edge">
<title>dir_a6c44d6dafa1a8f18372aec58f930bca&#45;&gt;dir_183e7c4434404fe9096e1bd8673e1fcf</title>
<path fill="none" stroke="#000000" d="M385.047,-360.5819C396.9085,-351.3071 409.5755,-338.7593 416,-324 435.1574,-279.9887 430.7681,-261.6717 416,-216 403.32,-176.786 373.3784,-139.5134 351.286,-115.8241"/>
<polygon fill="#000000" stroke="#000000" points="353.5673,-113.145 344.1309,-108.3278 348.5037,-117.9782 353.5673,-113.145"/>
<g id="a_edge20&#45;headlabel"><a xlink:href="dir_000133_000089.html" target="_top" xlink:title="1">
<text text-anchor="middle" x="358.103" y="-111.2849" font-family="Helvetica,sans-Serif" font-size="10.00" fill="#000000">1</text>
</a>
</g>
</g>
<!-- dir_047746f9f311f49446db9474b7431d0d -->
<g id="node7" class="node">
<title>dir_047746f9f311f49446db9474b7431d0d</title>
<g id="a_node7"><a xlink:href="dir_047746f9f311f49446db9474b7431d0d.html" target="_top" xlink:title="simulation">
<polygon fill="none" stroke="#ff0000" points="200,-108 132,-108 132,-72 200,-72 200,-108"/>
<text text-anchor="middle" x="166" y="-87.5" font-family="Helvetica,sans-Serif" font-size="10.00" fill="#000000">simulation</text>
</a>
</g>
</g>
<!-- dir_a6c44d6dafa1a8f18372aec58f930bca&#45;&gt;dir_047746f9f311f49446db9474b7431d0d -->
<g id="edge21" class="edge">
<title>dir_a6c44d6dafa1a8f18372aec58f930bca&#45;&gt;dir_047746f9f311f49446db9474b7431d0d</title>
<path fill="none" stroke="#000000" d="M359.8703,-359.8418C361.2782,-341.5 362.1834,-312.4583 357,-288 349.7768,-253.917 344.2298,-245.6901 326,-216 304.2045,-180.5026 298.2425,-170.373 266,-144 249.0155,-130.1074 227.9158,-118.0943 209.4817,-108.9496"/>
<polygon fill="#000000" stroke="#000000" points="210.9265,-105.7607 200.3994,-104.565 207.8832,-112.0645 210.9265,-105.7607"/>
<g id="a_edge21&#45;headlabel"><a xlink:href="dir_000133_000251.html" target="_top" xlink:title="3">
<text text-anchor="middle" x="215.398" y="-102.2664" font-family="Helvetica,sans-Serif" font-size="10.00" fill="#000000">3</text>
</a>
</g>
</g>
<!-- dir_74593c7a91e03746ae2a516888bf9494 -->
<g id="node8" class="node">
<title>dir_74593c7a91e03746ae2a516888bf9494</title>
<g id="a_node8"><a xlink:href="dir_74593c7a91e03746ae2a516888bf9494.html" target="_top" xlink:title="Common">
<polygon fill="none" stroke="#ff0000" points="221.5,-324 160.5,-324 160.5,-288 221.5,-288 221.5,-324"/>
<text text-anchor="middle" x="191" y="-303.5" font-family="Helvetica,sans-Serif" font-size="10.00" fill="#000000">Common</text>
</a>
</g>
</g>
<!-- dir_a6c44d6dafa1a8f18372aec58f930bca&#45;&gt;dir_74593c7a91e03746ae2a516888bf9494 -->
<g id="edge22" class="edge">
<title>dir_a6c44d6dafa1a8f18372aec58f930bca&#45;&gt;dir_74593c7a91e03746ae2a516888bf9494</title>
<path fill="none" stroke="#000000" d="M330.7969,-366.2717C303.6587,-354.5714 261.6699,-336.4685 230.7892,-323.1546"/>
<polygon fill="#000000" stroke="#000000" points="232.1595,-319.934 221.5909,-319.1889 229.3881,-326.3621 232.1595,-319.934"/>
<g id="a_edge22&#45;headlabel"><a xlink:href="dir_000133_000096.html" target="_top" xlink:title="1">
<text text-anchor="middle" x="236.5845" y="-316.2498" font-family="Helvetica,sans-Serif" font-size="10.00" fill="#000000">1</text>
</a>
</g>
</g>
<!-- dir_7924ba4398ae4560cd37376e44666c6d -->
<g id="node9" class="node">
<title>dir_7924ba4398ae4560cd37376e44666c6d</title>
<g id="a_node9"><a xlink:href="dir_7924ba4398ae4560cd37376e44666c6d.html" target="_top" xlink:title="common">
<polygon fill="none" stroke="#ff0000" points="257.5,-36 198.5,-36 198.5,0 257.5,0 257.5,-36"/>
<text text-anchor="middle" x="228" y="-15.5" font-family="Helvetica,sans-Serif" font-size="10.00" fill="#000000">common</text>
</a>
</g>
</g>
<!-- dir_a6c44d6dafa1a8f18372aec58f930bca&#45;&gt;dir_7924ba4398ae4560cd37376e44666c6d -->
<g id="edge23" class="edge">
<title>dir_a6c44d6dafa1a8f18372aec58f930bca&#45;&gt;dir_7924ba4398ae4560cd37376e44666c6d</title>
<path fill="none" stroke="#000000" d="M385.2622,-363.626C401.3414,-354.0832 421.1805,-340.3256 435,-324 463.642,-290.164 478,-278.331 478,-234 478,-234 478,-234 478,-162 478,-66.2391 338.5655,-33.196 267.9611,-22.6025"/>
<polygon fill="#000000" stroke="#000000" points="268.0521,-19.0805 257.66,-21.1431 267.0702,-26.0113 268.0521,-19.0805"/>
<g id="a_edge23&#45;headlabel"><a xlink:href="dir_000133_000086.html" target="_top" xlink:title="9">
<text text-anchor="middle" x="272.0095" y="-14.2735" font-family="Helvetica,sans-Serif" font-size="10.00" fill="#000000">9</text>
</a>
</g>
</g>
<!-- dir_bcbb2cf9a3d3d83e5515c82071a07177 -->
<g id="node10" class="node">
<title>dir_bcbb2cf9a3d3d83e5515c82071a07177</title>
<g id="a_node10"><a xlink:href="dir_bcbb2cf9a3d3d83e5515c82071a07177.html" target="_top" xlink:title="Framework">
<polygon fill="none" stroke="#ff0000" points="259.5,-252 188.5,-252 188.5,-216 259.5,-216 259.5,-252"/>
<text text-anchor="middle" x="224" y="-231.5" font-family="Helvetica,sans-Serif" font-size="10.00" fill="#000000">Framework</text>
</a>
</g>
</g>
<!-- dir_a6c44d6dafa1a8f18372aec58f930bca&#45;&gt;dir_bcbb2cf9a3d3d83e5515c82071a07177 -->
<g id="edge24" class="edge">
<title>dir_a6c44d6dafa1a8f18372aec58f930bca&#45;&gt;dir_bcbb2cf9a3d3d83e5515c82071a07177</title>
<path fill="none" stroke="#000000" d="M341.0288,-359.7623C317.4684,-334.4436 274.7322,-288.5182 247.9386,-259.7251"/>
<polygon fill="#000000" stroke="#000000" points="250.208,-257.026 240.8334,-252.0896 245.0835,-261.7946 250.208,-257.026"/>
<g id="a_edge24&#45;headlabel"><a xlink:href="dir_000133_000058.html" target="_top" xlink:title="1">
<text text-anchor="middle" x="254.7352" y="-255.2233" font-family="Helvetica,sans-Serif" font-size="10.00" fill="#000000">1</text>
</a>
</g>
</g>
<!-- dir_37a1a8f97d1457be251c095a70339024 -->
<g id="node3" class="node">
<title>dir_37a1a8f97d1457be251c095a70339024</title>
<g id="a_node3"><a xlink:href="dir_37a1a8f97d1457be251c095a70339024.html" target="_top" xlink:title="src">
<polygon fill="#ffffff" stroke="#000000" points="321,-468 267,-468 267,-432 321,-432 321,-468"/>
<text text-anchor="middle" x="294" y="-447.5" font-family="Helvetica,sans-Serif" font-size="10.00" fill="#000000">src</text>
</a>
</g>
</g>
<!-- dir_37a1a8f97d1457be251c095a70339024&#45;&gt;dir_a6c44d6dafa1a8f18372aec58f930bca -->
<g id="edge2" class="edge">
<title>dir_37a1a8f97d1457be251c095a70339024&#45;&gt;dir_a6c44d6dafa1a8f18372aec58f930bca</title>
<path fill="none" stroke="#000000" d="M310.1499,-431.8314C317.6717,-423.3694 326.7565,-413.1489 334.9804,-403.8971"/>
<polygon fill="#000000" stroke="#000000" points="337.6049,-406.2127 341.6327,-396.4133 332.373,-401.5621 337.6049,-406.2127"/>
<g id="a_edge2&#45;headlabel"><a xlink:href="dir_000164_000133.html" target="_top" xlink:title="9">
<text text-anchor="middle" x="337.3389" y="-408.2856" font-family="Helvetica,sans-Serif" font-size="10.00" fill="#000000">9</text>
</a>
</g>
</g>
<!-- dir_051dca18e802f8e9474f2e30d29c04e0 -->
<g id="node5" class="node">
<title>dir_051dca18e802f8e9474f2e30d29c04e0</title>
<g id="a_node5"><a xlink:href="dir_051dca18e802f8e9474f2e30d29c04e0.html" target="_top" xlink:title="Detectors">
<polygon fill="none" stroke="#ff0000" points="257,-180 193,-180 193,-144 257,-144 257,-180"/>
<text text-anchor="middle" x="225" y="-159.5" font-family="Helvetica,sans-Serif" font-size="10.00" fill="#000000">Detectors</text>
</a>
</g>
</g>
<!-- dir_37a1a8f97d1457be251c095a70339024&#45;&gt;dir_051dca18e802f8e9474f2e30d29c04e0 -->
<g id="edge1" class="edge">
<title>dir_37a1a8f97d1457be251c095a70339024&#45;&gt;dir_051dca18e802f8e9474f2e30d29c04e0</title>
<path fill="none" stroke="#000000" d="M295.4684,-431.8301C298.0297,-391.3158 300.3704,-291.2295 269,-216 264.7675,-205.85 257.9898,-196.097 251.0093,-187.7399"/>
<polygon fill="#000000" stroke="#000000" points="253.5773,-185.3603 244.3309,-180.1876 248.3334,-189.9974 253.5773,-185.3603"/>
<g id="a_edge1&#45;headlabel"><a xlink:href="dir_000164_000044.html" target="_top" xlink:title="1">
<text text-anchor="middle" x="258.0854" y="-183.6722" font-family="Helvetica,sans-Serif" font-size="10.00" fill="#000000">1</text>
</a>
</g>
</g>
<!-- dir_37a1a8f97d1457be251c095a70339024&#45;&gt;dir_7924ba4398ae4560cd37376e44666c6d -->
<g id="edge3" class="edge">
<title>dir_37a1a8f97d1457be251c095a70339024&#45;&gt;dir_7924ba4398ae4560cd37376e44666c6d</title>
<path fill="none" stroke="#000000" d="M321.4308,-435.7415C346.2732,-422.7278 380.9215,-404.2975 394,-396 450.8953,-359.9033 516,-373.3799 516,-306 516,-306 516,-306 516,-162 516,-52.3257 346.8498,-26.1791 267.8136,-19.9481"/>
<polygon fill="#000000" stroke="#000000" points="267.9616,-16.4498 257.7363,-19.2236 267.4595,-23.4318 267.9616,-16.4498"/>
<g id="a_edge3&#45;headlabel"><a xlink:href="dir_000164_000086.html" target="_top" xlink:title="2">
<text text-anchor="middle" x="271.7506" y="-11.3756" font-family="Helvetica,sans-Serif" font-size="10.00" fill="#000000">2</text>
</a>
</g>
</g>
<!-- dir_37a1a8f97d1457be251c095a70339024&#45;&gt;dir_bcbb2cf9a3d3d83e5515c82071a07177 -->
<g id="edge4" class="edge">
<title>dir_37a1a8f97d1457be251c095a70339024&#45;&gt;dir_bcbb2cf9a3d3d83e5515c82071a07177</title>
<path fill="none" stroke="#000000" d="M286.8961,-431.5958C282.9547,-421.1968 278.0465,-407.929 274,-396 258.1305,-349.2173 241.5782,-294.1455 232.0595,-261.7618"/>
<polygon fill="#000000" stroke="#000000" points="235.395,-260.6977 229.2259,-252.0841 228.677,-262.6647 235.395,-260.6977"/>
<g id="a_edge4&#45;headlabel"><a xlink:href="dir_000164_000058.html" target="_top" xlink:title="3">
<text text-anchor="middle" x="239.1298" y="-260.8496" font-family="Helvetica,sans-Serif" font-size="10.00" fill="#000000">3</text>
</a>
</g>
</g>
<!-- dir_4ab6b4cc6a7edbff49100e9123df213f&#45;&gt;dir_74593c7a91e03746ae2a516888bf9494 -->
<g id="edge5" class="edge">
<title>dir_4ab6b4cc6a7edbff49100e9123df213f&#45;&gt;dir_74593c7a91e03746ae2a516888bf9494</title>
<path fill="none" stroke="#000000" d="M134.2069,-359.8314C141.5015,-351.219 151.1788,-340.7851 160.5234,-331.4048"/>
<polygon fill="#000000" stroke="#000000" points="163.2141,-333.6679 167.8944,-324.1628 158.3082,-328.6746 163.2141,-333.6679"/>
<g id="a_edge5&#45;headlabel"><a xlink:href="dir_000032_000096.html" target="_top" xlink:title="1">
<text text-anchor="middle" x="162.6399" y="-335.7124" font-family="Helvetica,sans-Serif" font-size="10.00" fill="#000000">1</text>
</a>
</g>
</g>
<!-- dir_4ab6b4cc6a7edbff49100e9123df213f&#45;&gt;dir_bcbb2cf9a3d3d83e5515c82071a07177 -->
<g id="edge6" class="edge">
<title>dir_4ab6b4cc6a7edbff49100e9123df213f&#45;&gt;dir_bcbb2cf9a3d3d83e5515c82071a07177</title>
<path fill="none" stroke="#000000" d="M118.5932,-359.9599C119.3365,-340.6598 126.456,-309.8765 142,-288 151.6787,-274.3783 165.8579,-262.7789 179.7901,-253.8625"/>
<polygon fill="#000000" stroke="#000000" points="181.6434,-256.832 188.3906,-248.6634 178.0221,-250.8415 181.6434,-256.832"/>
<g id="a_edge6&#45;headlabel"><a xlink:href="dir_000032_000058.html" target="_top" xlink:title="2">
<text text-anchor="middle" x="180.0361" y="-258.6214" font-family="Helvetica,sans-Serif" font-size="10.00" fill="#000000">2</text>
</a>
</g>
</g>
<!-- dir_051dca18e802f8e9474f2e30d29c04e0&#45;&gt;dir_a6c44d6dafa1a8f18372aec58f930bca -->
<g id="edge10" class="edge">
<title>dir_051dca18e802f8e9474f2e30d29c04e0&#45;&gt;dir_a6c44d6dafa1a8f18372aec58f930bca</title>
<path fill="none" stroke="#000000" d="M257.1179,-178.2816C272.5486,-187.5118 290.2047,-200.3549 302,-216 332.6841,-256.699 347.3772,-315.4568 353.7416,-349.8892"/>
<polygon fill="#000000" stroke="#000000" points="350.2945,-350.4958 355.4579,-359.7473 357.1908,-349.2952 350.2945,-350.4958"/>
<g id="a_edge10&#45;headlabel"><a xlink:href="dir_000044_000133.html" target="_top" xlink:title="59">
<text text-anchor="middle" x="346.8809" y="-344.9415" font-family="Helvetica,sans-Serif" font-size="10.00" fill="#000000">59</text>
</a>
</g>
</g>
<!-- dir_051dca18e802f8e9474f2e30d29c04e0&#45;&gt;dir_4ab6b4cc6a7edbff49100e9123df213f -->
<g id="edge7" class="edge">
<title>dir_051dca18e802f8e9474f2e30d29c04e0&#45;&gt;dir_4ab6b4cc6a7edbff49100e9123df213f</title>
<path fill="none" stroke="#000000" d="M204.3707,-180.0391C193.6699,-190.0063 180.8204,-202.9808 171,-216 148.9556,-245.2249 141.7438,-253.0054 131,-288 124.8328,-308.0879 122.9293,-331.796 122.5161,-349.8354"/>
<polygon fill="#000000" stroke="#000000" points="119.0149,-349.9602 122.4252,-359.9911 126.0146,-350.0229 119.0149,-349.9602"/>
<g id="a_edge7&#45;headlabel"><a xlink:href="dir_000044_000032.html" target="_top" xlink:title="300">
<text text-anchor="middle" x="116.2078" y="-343.8403" font-family="Helvetica,sans-Serif" font-size="10.00" fill="#000000">300</text>
</a>
</g>
</g>
<!-- dir_051dca18e802f8e9474f2e30d29c04e0&#45;&gt;dir_183e7c4434404fe9096e1bd8673e1fcf -->
<g id="edge8" class="edge">
<title>dir_051dca18e802f8e9474f2e30d29c04e0&#45;&gt;dir_183e7c4434404fe9096e1bd8673e1fcf</title>
<path fill="none" stroke="#000000" d="M250.2342,-143.8314C262.788,-134.7927 278.1283,-123.7476 291.6391,-114.0198"/>
<polygon fill="#000000" stroke="#000000" points="293.7036,-116.8463 299.7739,-108.1628 289.6134,-111.1655 293.7036,-116.8463"/>
<g id="a_edge8&#45;headlabel"><a xlink:href="dir_000044_000089.html" target="_top" xlink:title="86">
<text text-anchor="middle" x="292.4454" y="-118.7508" font-family="Helvetica,sans-Serif" font-size="10.00" fill="#000000">86</text>
</a>
</g>
</g>
<!-- dir_051dca18e802f8e9474f2e30d29c04e0&#45;&gt;dir_047746f9f311f49446db9474b7431d0d -->
<g id="edge9" class="edge">
<title>dir_051dca18e802f8e9474f2e30d29c04e0&#45;&gt;dir_047746f9f311f49446db9474b7431d0d</title>
<path fill="none" stroke="#000000" d="M204.1594,-143.8314C196.5558,-135.5386 188.1824,-125.557 181.1426,-116.4533"/>
<polygon fill="#000000" stroke="#000000" points="183.9126,-114.3134 175.1126,-108.4133 178.3126,-118.5133 183.9126,-114.3134"/>
<g id="a_edge9&#45;headlabel"><a xlink:href="dir_000044_000251.html" target="_top" xlink:title="272">
<text text-anchor="middle" x="188.3408" y="-112.9855" font-family="Helvetica,sans-Serif" font-size="10.00" fill="#000000">272</text>
</a>
</g>
</g>
<!-- dir_051dca18e802f8e9474f2e30d29c04e0&#45;&gt;dir_74593c7a91e03746ae2a516888bf9494 -->
<g id="edge11" class="edge">
<title>dir_051dca18e802f8e9474f2e30d29c04e0&#45;&gt;dir_74593c7a91e03746ae2a516888bf9494</title>
<path fill="none" stroke="#000000" d="M203.6873,-180.2692C194.1866,-189.8244 184.021,-202.3628 179,-216 171.6357,-236.0016 175.3985,-259.9822 180.5886,-278.1584"/>
<polygon fill="#000000" stroke="#000000" points="177.3011,-279.3713 183.6463,-287.8559 183.9771,-277.2662 177.3011,-279.3713"/>
<g id="a_edge11&#45;headlabel"><a xlink:href="dir_000044_000096.html" target="_top" xlink:title="84">
<text text-anchor="middle" x="173.5123" y="-274.2968" font-family="Helvetica,sans-Serif" font-size="10.00" fill="#000000">84</text>
</a>
</g>
</g>
<!-- dir_051dca18e802f8e9474f2e30d29c04e0&#45;&gt;dir_7924ba4398ae4560cd37376e44666c6d -->
<g id="edge12" class="edge">
<title>dir_051dca18e802f8e9474f2e30d29c04e0&#45;&gt;dir_7924ba4398ae4560cd37376e44666c6d</title>
<path fill="none" stroke="#000000" d="M225.38,-143.7623C225.8916,-119.201 226.8073,-75.2474 227.4093,-46.3541"/>
<polygon fill="#000000" stroke="#000000" points="230.914,-46.1604 227.6231,-36.0896 223.9155,-46.0145 230.914,-46.1604"/>
<g id="a_edge12&#45;headlabel"><a xlink:href="dir_000044_000086.html" target="_top" xlink:title="62">
<text text-anchor="middle" x="233.6779" y="-47.3133" font-family="Helvetica,sans-Serif" font-size="10.00" fill="#000000">62</text>
</a>
</g>
</g>
<!-- dir_051dca18e802f8e9474f2e30d29c04e0&#45;&gt;dir_bcbb2cf9a3d3d83e5515c82071a07177 -->
<g id="edge13" class="edge">
<title>dir_051dca18e802f8e9474f2e30d29c04e0&#45;&gt;dir_bcbb2cf9a3d3d83e5515c82071a07177</title>
<path fill="none" stroke="#000000" d="M230.7203,-180.4133C231.3521,-188.1442 231.4345,-197.3097 230.996,-205.8545"/>
<polygon fill="#000000" stroke="#000000" points="227.5064,-205.5859 230.2047,-215.8314 234.4845,-206.1394 227.5064,-205.5859"/>
<g id="a_edge13&#45;headlabel"><a xlink:href="dir_000044_000058.html" target="_top" xlink:title="938">
<text text-anchor="middle" x="224.9602" y="-199.2781" font-family="Helvetica,sans-Serif" font-size="10.00" fill="#000000">938</text>
</a>
</g>
</g>
<!-- dir_047746f9f311f49446db9474b7431d0d&#45;&gt;dir_4ab6b4cc6a7edbff49100e9123df213f -->
<g id="edge14" class="edge">
<title>dir_047746f9f311f49446db9474b7431d0d&#45;&gt;dir_4ab6b4cc6a7edbff49100e9123df213f</title>
<path fill="none" stroke="#000000" d="M160.464,-108.0561C150.1983,-142.5895 128.5667,-220.5638 121,-288 119.2159,-303.9002 120.7039,-308.0027 121,-324 121.1521,-332.2176 121.4344,-341.135 121.7398,-349.3108"/>
<polygon fill="#000000" stroke="#000000" points="118.2508,-349.6575 122.1458,-359.5103 125.2452,-349.379 118.2508,-349.6575"/>
<g id="a_edge14&#45;headlabel"><a xlink:href="dir_000251_000032.html" target="_top" xlink:title="5">
<text text-anchor="middle" x="115.2709" y="-343.6786" font-family="Helvetica,sans-Serif" font-size="10.00" fill="#000000">5</text>
</a>
</g>
</g>
<!-- dir_047746f9f311f49446db9474b7431d0d&#45;&gt;dir_051dca18e802f8e9474f2e30d29c04e0 -->
<g id="edge15" class="edge">
<title>dir_047746f9f311f49446db9474b7431d0d&#45;&gt;dir_051dca18e802f8e9474f2e30d29c04e0</title>
<path fill="none" stroke="#000000" d="M187.0647,-108.4133C194.6832,-116.7389 203.0508,-126.7282 210.0643,-135.8144"/>
<polygon fill="#000000" stroke="#000000" points="207.2702,-137.9224 216.0642,-143.8314 212.8745,-133.7281 207.2702,-137.9224"/>
<g id="a_edge15&#45;headlabel"><a xlink:href="dir_000251_000044.html" target="_top" xlink:title="1">
<text text-anchor="middle" x="202.8432" y="-134.2457" font-family="Helvetica,sans-Serif" font-size="10.00" fill="#000000">1</text>
</a>
</g>
</g>
<!-- dir_047746f9f311f49446db9474b7431d0d&#45;&gt;dir_74593c7a91e03746ae2a516888bf9494 -->
<g id="edge16" class="edge">
<title>dir_047746f9f311f49446db9474b7431d0d&#45;&gt;dir_74593c7a91e03746ae2a516888bf9494</title>
<path fill="none" stroke="#000000" d="M164.6679,-108.1913C162.8769,-138.3895 160.9728,-200.6321 171,-252 172.7346,-260.8861 175.7449,-270.243 178.9112,-278.6256"/>
<polygon fill="#000000" stroke="#000000" points="175.6697,-279.9463 182.6327,-287.9318 182.1693,-277.347 175.6697,-279.9463"/>
<g id="a_edge16&#45;headlabel"><a xlink:href="dir_000251_000096.html" target="_top" xlink:title="6">
<text text-anchor="middle" x="171.6988" y="-275.1629" font-family="Helvetica,sans-Serif" font-size="10.00" fill="#000000">6</text>
</a>
</g>
</g>
<!-- dir_047746f9f311f49446db9474b7431d0d&#45;&gt;dir_7924ba4398ae4560cd37376e44666c6d -->
<g id="edge17" class="edge">
<title>dir_047746f9f311f49446db9474b7431d0d&#45;&gt;dir_7924ba4398ae4560cd37376e44666c6d</title>
<path fill="none" stroke="#000000" d="M181.6452,-71.8314C188.8591,-63.454 197.557,-53.3531 205.4605,-44.1749"/>
<polygon fill="#000000" stroke="#000000" points="208.2711,-46.2748 212.1441,-36.4133 202.9667,-41.7071 208.2711,-46.2748"/>
<g id="a_edge17&#45;headlabel"><a xlink:href="dir_000251_000086.html" target="_top" xlink:title="2">
<text text-anchor="middle" x="208.077" y="-48.3514" font-family="Helvetica,sans-Serif" font-size="10.00" fill="#000000">2</text>
</a>
</g>
</g>
<!-- dir_047746f9f311f49446db9474b7431d0d&#45;&gt;dir_bcbb2cf9a3d3d83e5515c82071a07177 -->
<g id="edge18" class="edge">
<title>dir_047746f9f311f49446db9474b7431d0d&#45;&gt;dir_bcbb2cf9a3d3d83e5515c82071a07177</title>
<path fill="none" stroke="#000000" d="M167.2994,-108.2948C169.1606,-126.9978 173.5984,-156.5488 184,-180 188.3283,-189.7584 194.6725,-199.4396 201.0387,-207.8521"/>
<polygon fill="#000000" stroke="#000000" points="198.383,-210.1361 207.3383,-215.7976 203.8681,-205.7872 198.383,-210.1361"/>
<g id="a_edge18&#45;headlabel"><a xlink:href="dir_000251_000058.html" target="_top" xlink:title="2">
<text text-anchor="middle" x="193.9249" y="-206.5834" font-family="Helvetica,sans-Serif" font-size="10.00" fill="#000000">2</text>
</a>
</g>
</g>
<!-- dir_74593c7a91e03746ae2a516888bf9494&#45;&gt;dir_4ab6b4cc6a7edbff49100e9123df213f -->
<g id="edge25" class="edge">
<title>dir_74593c7a91e03746ae2a516888bf9494&#45;&gt;dir_4ab6b4cc6a7edbff49100e9123df213f</title>
<path fill="none" stroke="#000000" d="M179.5857,-324.4133C172.3024,-332.9938 162.6978,-343.3414 153.4257,-352.6463"/>
<polygon fill="#000000" stroke="#000000" points="150.7926,-350.3266 146.1117,-359.8314 155.6981,-355.3202 150.7926,-350.3266"/>
<g id="a_edge25&#45;headlabel"><a xlink:href="dir_000096_000032.html" target="_top" xlink:title="5">
<text text-anchor="middle" x="151.3671" y="-343.2822" font-family="Helvetica,sans-Serif" font-size="10.00" fill="#000000">5</text>
</a>
</g>
</g>
<!-- dir_74593c7a91e03746ae2a516888bf9494&#45;&gt;dir_183e7c4434404fe9096e1bd8673e1fcf -->
<g id="edge26" class="edge">
<title>dir_74593c7a91e03746ae2a516888bf9494&#45;&gt;dir_183e7c4434404fe9096e1bd8673e1fcf</title>
<path fill="none" stroke="#000000" d="M221.5955,-290.9355C237.6681,-281.6606 256.5564,-268.4016 269,-252 299.7555,-211.4621 314.4095,-152.8019 320.7502,-118.3148"/>
<polygon fill="#000000" stroke="#000000" points="324.275,-118.4703 322.5266,-108.0208 317.377,-117.2799 324.275,-118.4703"/>
<g id="a_edge26&#45;headlabel"><a xlink:href="dir_000096_000089.html" target="_top" xlink:title="1">
<text text-anchor="middle" x="326.4617" y="-119.9954" font-family="Helvetica,sans-Serif" font-size="10.00" fill="#000000">1</text>
</a>
</g>
</g>
<!-- dir_74593c7a91e03746ae2a516888bf9494&#45;&gt;dir_bcbb2cf9a3d3d83e5515c82071a07177 -->
<g id="edge27" class="edge">
<title>dir_74593c7a91e03746ae2a516888bf9494&#45;&gt;dir_bcbb2cf9a3d3d83e5515c82071a07177</title>
<path fill="none" stroke="#000000" d="M199.3273,-287.8314C202.973,-279.8771 207.3309,-270.369 211.3627,-261.5723"/>
<polygon fill="#000000" stroke="#000000" points="214.5757,-262.9622 215.5606,-252.4133 208.2123,-260.0456 214.5757,-262.9622"/>
<g id="a_edge27&#45;headlabel"><a xlink:href="dir_000096_000058.html" target="_top" xlink:title="2">
<text text-anchor="middle" x="215.6591" y="-264.9129" font-family="Helvetica,sans-Serif" font-size="10.00" fill="#000000">2</text>
</a>
</g>
</g>
<!-- dir_7924ba4398ae4560cd37376e44666c6d&#45;&gt;dir_4ab6b4cc6a7edbff49100e9123df213f -->
<g id="edge28" class="edge">
<title>dir_7924ba4398ae4560cd37376e44666c6d&#45;&gt;dir_4ab6b4cc6a7edbff49100e9123df213f</title>
<path fill="none" stroke="#000000" d="M198.193,-22.5508C136.3909,-33.8547 0,-69.3022 0,-162 0,-234 0,-234 0,-234 0,-286.5062 47.8652,-329.5412 83.8774,-354.4889"/>
<polygon fill="#000000" stroke="#000000" points="82.0272,-357.4624 92.2792,-360.1357 85.9319,-351.6526 82.0272,-357.4624"/>
<g id="a_edge28&#45;headlabel"><a xlink:href="dir_000086_000032.html" target="_top" xlink:title="2">
<text text-anchor="middle" x="77.46" y="-355.3138" font-family="Helvetica,sans-Serif" font-size="10.00" fill="#000000">2</text>
</a>
</g>
</g>
<!-- dir_bcbb2cf9a3d3d83e5515c82071a07177&#45;&gt;dir_4ab6b4cc6a7edbff49100e9123df213f -->
<g id="edge29" class="edge">
<title>dir_bcbb2cf9a3d3d83e5515c82071a07177&#45;&gt;dir_4ab6b4cc6a7edbff49100e9123df213f</title>
<path fill="none" stroke="#000000" d="M198.9976,-252.1313C185.7502,-261.2557 170.3178,-273.4788 160,-288 146.8847,-306.4583 139.767,-331.2574 134.5738,-350.1497"/>
<polygon fill="#000000" stroke="#000000" points="131.1529,-349.3887 131.8607,-359.9599 137.8997,-351.2546 131.1529,-349.3887"/>
<g id="a_edge29&#45;headlabel"><a xlink:href="dir_000058_000032.html" target="_top" xlink:title="8">
<text text-anchor="middle" x="129.3744" y="-342.6674" font-family="Helvetica,sans-Serif" font-size="10.00" fill="#000000">8</text>
</a>
</g>
</g>
<!-- dir_bcbb2cf9a3d3d83e5515c82071a07177&#45;&gt;dir_051dca18e802f8e9474f2e30d29c04e0 -->
<g id="edge30" class="edge">
<title>dir_bcbb2cf9a3d3d83e5515c82071a07177&#45;&gt;dir_051dca18e802f8e9474f2e30d29c04e0</title>
<path fill="none" stroke="#000000" d="M218.2999,-215.8314C217.6565,-208.131 217.5627,-198.9743 217.9902,-190.4166"/>
<polygon fill="#000000" stroke="#000000" points="221.4822,-190.6546 218.7683,-180.4133 214.5033,-190.1117 221.4822,-190.6546"/>
<g id="a_edge30&#45;headlabel"><a xlink:href="dir_000058_000044.html" target="_top" xlink:title="4">
<text text-anchor="middle" x="224.0343" y="-191.9585" font-family="Helvetica,sans-Serif" font-size="10.00" fill="#000000">4</text>
</a>
</g>
</g>
<!-- dir_bcbb2cf9a3d3d83e5515c82071a07177&#45;&gt;dir_183e7c4434404fe9096e1bd8673e1fcf -->
<g id="edge31" class="edge">
<title>dir_bcbb2cf9a3d3d83e5515c82071a07177&#45;&gt;dir_183e7c4434404fe9096e1bd8673e1fcf</title>
<path fill="none" stroke="#000000" d="M238.7593,-215.7852C246.9865,-205.4455 257.2969,-192.1738 266,-180 280.8043,-159.2918 296.5628,-135.1326 308.0662,-117.0618"/>
<polygon fill="#000000" stroke="#000000" points="311.2737,-118.5386 313.6663,-108.2174 305.3596,-114.7939 311.2737,-118.5386"/>
<g id="a_edge31&#45;headlabel"><a xlink:href="dir_000058_000089.html" target="_top" xlink:title="63">
<text text-anchor="middle" x="311.7496" y="-120.5945" font-family="Helvetica,sans-Serif" font-size="10.00" fill="#000000">63</text>
</a>
</g>
</g>
</g>
</svg>
