<?xml version="1.0" encoding="UTF-8" standalone="no"?>
<!DOCTYPE svg PUBLIC "-//W3C//DTD SVG 1.1//EN"
 "http://www.w3.org/Graphics/SVG/1.1/DTD/svg11.dtd">
<!-- Generated by graphviz version 2.40.1 (20161225.0304)
 -->
<!-- Title: /home/travis/build/AliceO2Group/AliceO2/DataFormats/Detectors/FIT Pages: 1 -->
<!--zoomable 474 -->
<svg id="main" version="1.1" xmlns="http://www.w3.org/2000/svg" xmlns:xlink="http://www.w3.org/1999/xlink" xml:space="preserve" onload="init(evt)">
<style type="text/css"><![CDATA[
.edge:hover path { stroke: red; }
.edge:hover polygon { stroke: red; fill: red; }
]]></style>
<script type="text/javascript"><![CDATA[
var edges = document.getElementsByTagName('g');
if (edges && edges.length) {
  for (var i=0;i<edges.length;i++) {
    if (edges[i].id.substr(0,4)=='edge') {
      edges[i].setAttribute('class','edge');
    }
  }
}
]]></script>
        <defs>
                <circle id="rim" cx="0" cy="0" r="7"/>
                <circle id="rim2" cx="0" cy="0" r="3.5"/>
                <g id="zoomPlus">
                        <use xlink:href="#rim" fill="#404040">
                                <set attributeName="fill" to="#808080" begin="zoomplus.mouseover" end="zoomplus.mouseout"/>
                        </use>
                        <path d="M-4,0h8M0,-4v8" fill="none" stroke="white" stroke-width="1.5" pointer-events="none"/>
                </g>
                <g id="zoomMin">
                        <use xlink:href="#rim" fill="#404040">
                                <set attributeName="fill" to="#808080" begin="zoomminus.mouseover" end="zoomminus.mouseout"/>
                        </use>
                        <path d="M-4,0h8" fill="none" stroke="white" stroke-width="1.5" pointer-events="none"/>
                </g>
                <g id="dirArrow">
                        <path fill="none" stroke="white" stroke-width="1.5" d="M0,-3.0v7 M-2.5,-0.5L0,-3.0L2.5,-0.5"/>
                </g>
               <g id="resetDef">
                       <use xlink:href="#rim2" fill="#404040">
                               <set attributeName="fill" to="#808080" begin="reset.mouseover" end="reset.mouseout"/>
                       </use>
               </g>
        </defs>

<script type="text/javascript">
var viewWidth = 790;
var viewHeight = 474;
var sectionId = 'dynsection-0';
</script>
<script xlink:href="svgpan.js"/>
<svg id="graph" class="graph">
<g id="viewport">
<title>/home/travis/build/AliceO2Group/AliceO2/DataFormats/Detectors/FIT</title>
<g id="clust1" class="cluster">
<title>clusterdir_2801adc79bf3c286b1b479858d2cade4</title>
<g id="a_clust1"><a xlink:href="dir_2801adc79bf3c286b1b479858d2cade4.html" target="_top" xlink:title="Detectors">
<polygon fill="#ddddee" stroke="#000000" points="224,-344 224,-431 526,-431 526,-344 224,-344"/>
<text text-anchor="middle" x="375" y="-419" font-family="Helvetica,sans-Serif" font-size="10.00" fill="#000000">Detectors</text>
</a>
</g>
</g>
<g id="clust2" class="cluster">
<title>clusterdir_6f689773863a160ed4e9bc61c1008ba5</title>
<g id="a_clust2"><a xlink:href="dir_6f689773863a160ed4e9bc61c1008ba5.html" target="_top">
<polygon fill="#eeeeff" stroke="#000000" points="232,-352 232,-404 518,-404 518,-352 232,-352"/>
</a>
</g>
</g>
<!-- dir_6f689773863a160ed4e9bc61c1008ba5 -->
<g id="node1" class="node">
<title>dir_6f689773863a160ed4e9bc61c1008ba5</title>
<text text-anchor="middle" x="483" y="-375.5" font-family="Helvetica,sans-Serif" font-size="10.00" fill="#000000">FIT</text>
</g>
<!-- dir_a5e2f96db9c63d5e1b2e8bbeecdeca98 -->
<g id="node2" class="node">
<title>dir_a5e2f96db9c63d5e1b2e8bbeecdeca98</title>
<g id="a_node2"><a xlink:href="dir_a5e2f96db9c63d5e1b2e8bbeecdeca98.html" target="_top" xlink:title="FDD">
<polygon fill="#ffffff" stroke="#ff0000" points="438,-396 384,-396 384,-360 438,-360 438,-396"/>
<text text-anchor="middle" x="411" y="-375.5" font-family="Helvetica,sans-Serif" font-size="10.00" fill="#000000">FDD</text>
</a>
</g>
</g>
<!-- dir_4ab6b4cc6a7edbff49100e9123df213f -->
<g id="node5" class="node">
<title>dir_4ab6b4cc6a7edbff49100e9123df213f</title>
<g id="a_node5"><a xlink:href="dir_4ab6b4cc6a7edbff49100e9123df213f.html" target="_top" xlink:title="Common">
<polygon fill="none" stroke="#ff0000" points="657.5,-396 596.5,-396 596.5,-360 657.5,-360 657.5,-396"/>
<text text-anchor="middle" x="627" y="-375.5" font-family="Helvetica,sans-Serif" font-size="10.00" fill="#000000">Common</text>
</a>
</g>
</g>
<!-- dir_a5e2f96db9c63d5e1b2e8bbeecdeca98&#45;&gt;dir_4ab6b4cc6a7edbff49100e9123df213f -->
<g id="edge12" class="edge">
<title>dir_a5e2f96db9c63d5e1b2e8bbeecdeca98&#45;&gt;dir_4ab6b4cc6a7edbff49100e9123df213f</title>
<path fill="none" stroke="#000000" d="M416.7294,-396.0384C423.2342,-413.1355 435.6695,-437.8155 456,-449 478.1962,-461.2109 488.6429,-455.9647 513,-449 544.8053,-439.9055 576.3712,-419.0846 598.1946,-402.3281"/>
<polygon fill="#000000" stroke="#000000" points="600.3671,-405.0723 606.0617,-396.138 596.0385,-399.571 600.3671,-405.0723"/>
<g id="a_edge12&#45;headlabel"><a xlink:href="dir_000129_000032.html" target="_top" xlink:title="1">
<text text-anchor="middle" x="599.2979" y="-407.0264" font-family="Helvetica,sans-Serif" font-size="10.00" fill="#000000">1</text>
</a>
</g>
</g>
<!-- dir_047746f9f311f49446db9474b7431d0d -->
<g id="node8" class="node">
<title>dir_047746f9f311f49446db9474b7431d0d</title>
<g id="a_node8"><a xlink:href="dir_047746f9f311f49446db9474b7431d0d.html" target="_top" xlink:title="simulation">
<polygon fill="none" stroke="#ff0000" points="524,-108 456,-108 456,-72 524,-72 524,-108"/>
<text text-anchor="middle" x="490" y="-87.5" font-family="Helvetica,sans-Serif" font-size="10.00" fill="#000000">simulation</text>
</a>
</g>
</g>
<!-- dir_a5e2f96db9c63d5e1b2e8bbeecdeca98&#45;&gt;dir_047746f9f311f49446db9474b7431d0d -->
<g id="edge13" class="edge">
<title>dir_a5e2f96db9c63d5e1b2e8bbeecdeca98&#45;&gt;dir_047746f9f311f49446db9474b7431d0d</title>
<path fill="none" stroke="#000000" d="M426.2923,-359.8849C432.1861,-353.9733 439.3522,-347.9264 447,-344 488.4849,-322.7016 511.1808,-349.8396 550,-324 582.0152,-302.6894 586.8551,-288.809 598,-252 611.9096,-206.0596 623.2351,-184.8312 598,-144 583.9689,-121.2972 557.1828,-107.8199 533.7984,-100.0071"/>
<polygon fill="#000000" stroke="#000000" points="534.6193,-96.5976 524.0319,-96.9951 532.5563,-103.2867 534.6193,-96.5976"/>
<g id="a_edge13&#45;headlabel"><a xlink:href="dir_000129_000251.html" target="_top" xlink:title="2">
<text text-anchor="middle" x="538.8909" y="-92.4437" font-family="Helvetica,sans-Serif" font-size="10.00" fill="#000000">2</text>
</a>
</g>
</g>
<!-- dir_7924ba4398ae4560cd37376e44666c6d -->
<g id="node10" class="node">
<title>dir_7924ba4398ae4560cd37376e44666c6d</title>
<g id="a_node10"><a xlink:href="dir_7924ba4398ae4560cd37376e44666c6d.html" target="_top" xlink:title="common">
<polygon fill="none" stroke="#ff0000" points="450.5,-36 391.5,-36 391.5,0 450.5,0 450.5,-36"/>
<text text-anchor="middle" x="421" y="-15.5" font-family="Helvetica,sans-Serif" font-size="10.00" fill="#000000">common</text>
</a>
</g>
</g>
<!-- dir_a5e2f96db9c63d5e1b2e8bbeecdeca98&#45;&gt;dir_7924ba4398ae4560cd37376e44666c6d -->
<g id="edge14" class="edge">
<title>dir_a5e2f96db9c63d5e1b2e8bbeecdeca98&#45;&gt;dir_7924ba4398ae4560cd37376e44666c6d</title>
<path fill="none" stroke="#000000" d="M426.1989,-359.698C432.0839,-353.7688 439.2684,-347.7586 447,-344 501.1551,-317.6731 532.2613,-359.3613 581,-324 609.9582,-302.99 608.2974,-286.7025 617,-252 628.6777,-205.4337 639.3133,-187.499 619,-144 589.0809,-79.9311 508.7343,-44.8235 460.0799,-28.8543"/>
<polygon fill="#000000" stroke="#000000" points="461.0921,-25.5036 450.5021,-25.8231 458.9799,-32.1774 461.0921,-25.5036"/>
<g id="a_edge14&#45;headlabel"><a xlink:href="dir_000129_000086.html" target="_top" xlink:title="4">
<text text-anchor="middle" x="465.3759" y="-21.3813" font-family="Helvetica,sans-Serif" font-size="10.00" fill="#000000">4</text>
</a>
</g>
</g>
<!-- dir_c4f8a341900d529ea5f1c2b568ba3222 -->
<g id="node3" class="node">
<title>dir_c4f8a341900d529ea5f1c2b568ba3222</title>
<g id="a_node3"><a xlink:href="dir_c4f8a341900d529ea5f1c2b568ba3222.html" target="_top" xlink:title="FT0">
<polygon fill="#ffffff" stroke="#ff0000" points="366,-396 312,-396 312,-360 366,-360 366,-396"/>
<text text-anchor="middle" x="339" y="-375.5" font-family="Helvetica,sans-Serif" font-size="10.00" fill="#000000">FT0</text>
</a>
</g>
</g>
<!-- dir_c4f8a341900d529ea5f1c2b568ba3222&#45;&gt;dir_4ab6b4cc6a7edbff49100e9123df213f -->
<g id="edge27" class="edge">
<title>dir_c4f8a341900d529ea5f1c2b568ba3222&#45;&gt;dir_4ab6b4cc6a7edbff49100e9123df213f</title>
<path fill="none" stroke="#000000" d="M344.7294,-396.0384C351.2342,-413.1355 363.6695,-437.8155 384,-449 434.2335,-476.6352 457.8759,-464.7623 513,-449 544.8053,-439.9055 576.3712,-419.0846 598.1946,-402.3281"/>
<polygon fill="#000000" stroke="#000000" points="600.3671,-405.0723 606.0617,-396.138 596.0385,-399.571 600.3671,-405.0723"/>
<g id="a_edge27&#45;headlabel"><a xlink:href="dir_000132_000032.html" target="_top" xlink:title="1">
<text text-anchor="middle" x="599.2979" y="-407.0264" font-family="Helvetica,sans-Serif" font-size="10.00" fill="#000000">1</text>
</a>
</g>
</g>
<!-- dir_051dca18e802f8e9474f2e30d29c04e0 -->
<g id="node6" class="node">
<title>dir_051dca18e802f8e9474f2e30d29c04e0</title>
<g id="a_node6"><a xlink:href="dir_051dca18e802f8e9474f2e30d29c04e0.html" target="_top" xlink:title="Detectors">
<polygon fill="none" stroke="#ff0000" points="404,-180 340,-180 340,-144 404,-144 404,-180"/>
<text text-anchor="middle" x="372" y="-159.5" font-family="Helvetica,sans-Serif" font-size="10.00" fill="#000000">Detectors</text>
</a>
</g>
</g>
<!-- dir_c4f8a341900d529ea5f1c2b568ba3222&#45;&gt;dir_051dca18e802f8e9474f2e30d29c04e0 -->
<g id="edge28" class="edge">
<title>dir_c4f8a341900d529ea5f1c2b568ba3222&#45;&gt;dir_051dca18e802f8e9474f2e30d29c04e0</title>
<path fill="none" stroke="#000000" d="M329.4092,-359.5602C324.6501,-349.373 319.4131,-336.3186 317,-324 307.7728,-276.8952 298.428,-260.2615 317,-216 321.6052,-205.0247 329.6497,-195.1573 338.1877,-186.9529"/>
<polygon fill="#000000" stroke="#000000" points="340.6301,-189.464 345.7437,-180.1849 335.9597,-184.2497 340.6301,-189.464"/>
<g id="a_edge28&#45;headlabel"><a xlink:href="dir_000132_000044.html" target="_top" xlink:title="1">
<text text-anchor="middle" x="339.8469" y="-191.4771" font-family="Helvetica,sans-Serif" font-size="10.00" fill="#000000">1</text>
</a>
</g>
</g>
<!-- dir_183e7c4434404fe9096e1bd8673e1fcf -->
<g id="node7" class="node">
<title>dir_183e7c4434404fe9096e1bd8673e1fcf</title>
<g id="a_node7"><a xlink:href="dir_183e7c4434404fe9096e1bd8673e1fcf.html" target="_top" xlink:title="Headers">
<polygon fill="none" stroke="#ff0000" points="437.5,-108 380.5,-108 380.5,-72 437.5,-72 437.5,-108"/>
<text text-anchor="middle" x="409" y="-87.5" font-family="Helvetica,sans-Serif" font-size="10.00" fill="#000000">Headers</text>
</a>
</g>
</g>
<!-- dir_c4f8a341900d529ea5f1c2b568ba3222&#45;&gt;dir_183e7c4434404fe9096e1bd8673e1fcf -->
<g id="edge29" class="edge">
<title>dir_c4f8a341900d529ea5f1c2b568ba3222&#45;&gt;dir_183e7c4434404fe9096e1bd8673e1fcf</title>
<path fill="none" stroke="#000000" d="M324.545,-359.6444C317.5758,-349.6899 309.8983,-336.8247 306,-324 292.0347,-278.0571 294.1461,-263.1952 303,-216 309.3308,-182.2541 309.7306,-170.9533 331,-144 341.8995,-130.1878 357.285,-118.4997 371.5146,-109.5683"/>
<polygon fill="#000000" stroke="#000000" points="373.4026,-112.5172 380.1746,-104.3691 369.7995,-106.5157 373.4026,-112.5172"/>
<g id="a_edge29&#45;headlabel"><a xlink:href="dir_000132_000089.html" target="_top" xlink:title="1">
<text text-anchor="middle" x="371.7822" y="-114.3016" font-family="Helvetica,sans-Serif" font-size="10.00" fill="#000000">1</text>
</a>
</g>
</g>
<!-- dir_c4f8a341900d529ea5f1c2b568ba3222&#45;&gt;dir_047746f9f311f49446db9474b7431d0d -->
<g id="edge30" class="edge">
<title>dir_c4f8a341900d529ea5f1c2b568ba3222&#45;&gt;dir_047746f9f311f49446db9474b7431d0d</title>
<path fill="none" stroke="#000000" d="M354.1817,-359.6625C360.0651,-353.73 367.253,-347.7268 375,-344 432.434,-316.3709 468.2848,-365.0957 517,-324 578.6453,-271.9966 569.4258,-219.0907 540,-144 535.8242,-133.3439 528.4487,-123.5335 520.6241,-115.2816"/>
<polygon fill="#000000" stroke="#000000" points="522.9729,-112.6825 513.3909,-108.162 518.0625,-117.6713 522.9729,-112.6825"/>
<g id="a_edge30&#45;headlabel"><a xlink:href="dir_000132_000251.html" target="_top" xlink:title="3">
<text text-anchor="middle" x="527.5264" y="-110.6806" font-family="Helvetica,sans-Serif" font-size="10.00" fill="#000000">3</text>
</a>
</g>
</g>
<!-- dir_74593c7a91e03746ae2a516888bf9494 -->
<g id="node9" class="node">
<title>dir_74593c7a91e03746ae2a516888bf9494</title>
<g id="a_node9"><a xlink:href="dir_74593c7a91e03746ae2a516888bf9494.html" target="_top" xlink:title="Common">
<polygon fill="none" stroke="#ff0000" points="507.5,-324 446.5,-324 446.5,-288 507.5,-288 507.5,-324"/>
<text text-anchor="middle" x="477" y="-303.5" font-family="Helvetica,sans-Serif" font-size="10.00" fill="#000000">Common</text>
</a>
</g>
</g>
<!-- dir_c4f8a341900d529ea5f1c2b568ba3222&#45;&gt;dir_74593c7a91e03746ae2a516888bf9494 -->
<g id="edge31" class="edge">
<title>dir_c4f8a341900d529ea5f1c2b568ba3222&#45;&gt;dir_74593c7a91e03746ae2a516888bf9494</title>
<path fill="none" stroke="#000000" d="M355.3499,-359.7894C361.1273,-354.1483 367.9519,-348.2936 375,-344 397.9281,-330.0325 406.8639,-333.4321 432,-324 433.4279,-323.4642 434.8791,-322.914 436.3433,-322.3542"/>
<polygon fill="#000000" stroke="#000000" points="438.0295,-325.4541 446.0829,-318.5699 435.4942,-318.9293 438.0295,-325.4541"/>
<g id="a_edge31&#45;headlabel"><a xlink:href="dir_000132_000096.html" target="_top" xlink:title="1">
<text text-anchor="middle" x="435.7072" y="-326.9024" font-family="Helvetica,sans-Serif" font-size="10.00" fill="#000000">1</text>
</a>
</g>
</g>
<!-- dir_c4f8a341900d529ea5f1c2b568ba3222&#45;&gt;dir_7924ba4398ae4560cd37376e44666c6d -->
<g id="edge32" class="edge">
<title>dir_c4f8a341900d529ea5f1c2b568ba3222&#45;&gt;dir_7924ba4398ae4560cd37376e44666c6d</title>
<path fill="none" stroke="#000000" d="M322.1431,-359.6667C316.4358,-354.1474 309.7809,-348.3957 303,-344 195.9948,-274.6341 38,-361.5215 38,-234 38,-234 38,-234 38,-162 38,-89.2618 283.0915,-40.7487 381.1509,-24.2498"/>
<polygon fill="#000000" stroke="#000000" points="381.9719,-27.6616 391.2653,-22.5742 380.8277,-20.7557 381.9719,-27.6616"/>
<g id="a_edge32&#45;headlabel"><a xlink:href="dir_000132_000086.html" target="_top" xlink:title="11">
<text text-anchor="middle" x="378.8896" y="-28.5501" font-family="Helvetica,sans-Serif" font-size="10.00" fill="#000000">11</text>
</a>
</g>
</g>
<!-- dir_bcbb2cf9a3d3d83e5515c82071a07177 -->
<g id="node11" class="node">
<title>dir_bcbb2cf9a3d3d83e5515c82071a07177</title>
<g id="a_node11"><a xlink:href="dir_bcbb2cf9a3d3d83e5515c82071a07177.html" target="_top" xlink:title="Framework">
<polygon fill="none" stroke="#ff0000" points="479.5,-252 408.5,-252 408.5,-216 479.5,-216 479.5,-252"/>
<text text-anchor="middle" x="444" y="-231.5" font-family="Helvetica,sans-Serif" font-size="10.00" fill="#000000">Framework</text>
</a>
</g>
</g>
<!-- dir_c4f8a341900d529ea5f1c2b568ba3222&#45;&gt;dir_bcbb2cf9a3d3d83e5515c82071a07177 -->
<g id="edge33" class="edge">
<title>dir_c4f8a341900d529ea5f1c2b568ba3222&#45;&gt;dir_bcbb2cf9a3d3d83e5515c82071a07177</title>
<path fill="none" stroke="#000000" d="M352.2983,-359.7623C370.6021,-334.66 403.6758,-289.3017 424.7011,-260.4671"/>
<polygon fill="#000000" stroke="#000000" points="427.7459,-262.2318 430.8097,-252.0896 422.0899,-258.1076 427.7459,-262.2318"/>
<g id="a_edge33&#45;headlabel"><a xlink:href="dir_000132_000058.html" target="_top" xlink:title="4">
<text text-anchor="middle" x="427.9223" y="-264.3091" font-family="Helvetica,sans-Serif" font-size="10.00" fill="#000000">4</text>
</a>
</g>
</g>
<!-- dir_f4f1e38aba3110f726ddf74e738f6d97 -->
<g id="node4" class="node">
<title>dir_f4f1e38aba3110f726ddf74e738f6d97</title>
<g id="a_node4"><a xlink:href="dir_f4f1e38aba3110f726ddf74e738f6d97.html" target="_top" xlink:title="FV0">
<polygon fill="#ffffff" stroke="#ff0000" points="294,-396 240,-396 240,-360 294,-360 294,-396"/>
<text text-anchor="middle" x="267" y="-375.5" font-family="Helvetica,sans-Serif" font-size="10.00" fill="#000000">FV0</text>
</a>
</g>
</g>
<!-- dir_f4f1e38aba3110f726ddf74e738f6d97&#45;&gt;dir_4ab6b4cc6a7edbff49100e9123df213f -->
<g id="edge34" class="edge">
<title>dir_f4f1e38aba3110f726ddf74e738f6d97&#45;&gt;dir_4ab6b4cc6a7edbff49100e9123df213f</title>
<path fill="none" stroke="#000000" d="M272.7294,-396.0384C279.2342,-413.1355 291.6695,-437.8155 312,-449 351.1354,-470.5297 470.0545,-461.2799 513,-449 544.8053,-439.9055 576.3712,-419.0846 598.1946,-402.3281"/>
<polygon fill="#000000" stroke="#000000" points="600.3671,-405.0723 606.0617,-396.138 596.0385,-399.571 600.3671,-405.0723"/>
<g id="a_edge34&#45;headlabel"><a xlink:href="dir_000187_000032.html" target="_top" xlink:title="1">
<text text-anchor="middle" x="599.2979" y="-407.0264" font-family="Helvetica,sans-Serif" font-size="10.00" fill="#000000">1</text>
</a>
</g>
</g>
<!-- dir_f4f1e38aba3110f726ddf74e738f6d97&#45;&gt;dir_051dca18e802f8e9474f2e30d29c04e0 -->
<g id="edge35" class="edge">
<title>dir_f4f1e38aba3110f726ddf74e738f6d97&#45;&gt;dir_051dca18e802f8e9474f2e30d29c04e0</title>
<path fill="none" stroke="#000000" d="M267.1375,-359.9832C268.1722,-328.4075 273.9505,-262.057 303,-216 310.3074,-204.4145 321.0111,-194.2981 331.8177,-186.0508"/>
<polygon fill="#000000" stroke="#000000" points="333.9843,-188.8036 340.0472,-180.115 329.8893,-183.1263 333.9843,-188.8036"/>
<g id="a_edge35&#45;headlabel"><a xlink:href="dir_000187_000044.html" target="_top" xlink:title="2">
<text text-anchor="middle" x="332.7299" y="-190.7091" font-family="Helvetica,sans-Serif" font-size="10.00" fill="#000000">2</text>
</a>
</g>
</g>
<!-- dir_f4f1e38aba3110f726ddf74e738f6d97&#45;&gt;dir_183e7c4434404fe9096e1bd8673e1fcf -->
<g id="edge36" class="edge">
<title>dir_f4f1e38aba3110f726ddf74e738f6d97&#45;&gt;dir_183e7c4434404fe9096e1bd8673e1fcf</title>
<path fill="none" stroke="#000000" d="M239.7632,-373.169C196.8433,-364.94 116.6282,-346.8526 100,-324 71.7588,-285.1872 73.2227,-255.8369 100,-216 161.3562,-124.7198 301.6421,-99.5302 370.0508,-92.607"/>
<polygon fill="#000000" stroke="#000000" points="370.7569,-96.0565 380.3897,-91.6454 370.1085,-89.0866 370.7569,-96.0565"/>
<g id="a_edge36&#45;headlabel"><a xlink:href="dir_000187_000089.html" target="_top" xlink:title="1">
<text text-anchor="middle" x="367.4406" y="-96.7164" font-family="Helvetica,sans-Serif" font-size="10.00" fill="#000000">1</text>
</a>
</g>
</g>
<!-- dir_f4f1e38aba3110f726ddf74e738f6d97&#45;&gt;dir_047746f9f311f49446db9474b7431d0d -->
<g id="edge37" class="edge">
<title>dir_f4f1e38aba3110f726ddf74e738f6d97&#45;&gt;dir_047746f9f311f49446db9474b7431d0d</title>
<path fill="none" stroke="#000000" d="M239.7045,-371.4609C216.0903,-364.2013 183.3906,-349.9261 168,-324 154.3064,-300.9326 178.2881,-222.0499 183,-216 258.9189,-118.5235 324.4493,-149.6059 446.2162,-108.0421"/>
<polygon fill="#000000" stroke="#000000" points="447.5839,-111.271 455.8488,-104.6421 445.254,-104.6702 447.5839,-111.271"/>
<g id="a_edge37&#45;headlabel"><a xlink:href="dir_000187_000251.html" target="_top" xlink:title="2">
<text text-anchor="middle" x="445.1392" y="-112.6448" font-family="Helvetica,sans-Serif" font-size="10.00" fill="#000000">2</text>
</a>
</g>
</g>
<!-- dir_f4f1e38aba3110f726ddf74e738f6d97&#45;&gt;dir_74593c7a91e03746ae2a516888bf9494 -->
<g id="edge38" class="edge">
<title>dir_f4f1e38aba3110f726ddf74e738f6d97&#45;&gt;dir_74593c7a91e03746ae2a516888bf9494</title>
<path fill="none" stroke="#000000" d="M282.3437,-359.9835C288.2423,-354.0812 295.3983,-348.0149 303,-344 325.7174,-332.0015 392.2604,-319.5681 436.1593,-312.3202"/>
<polygon fill="#000000" stroke="#000000" points="436.9378,-315.7397 446.2464,-310.6799 435.8143,-308.8304 436.9378,-315.7397"/>
<g id="a_edge38&#45;headlabel"><a xlink:href="dir_000187_000096.html" target="_top" xlink:title="1">
<text text-anchor="middle" x="433.8455" y="-316.619" font-family="Helvetica,sans-Serif" font-size="10.00" fill="#000000">1</text>
</a>
</g>
</g>
<!-- dir_f4f1e38aba3110f726ddf74e738f6d97&#45;&gt;dir_7924ba4398ae4560cd37376e44666c6d -->
<g id="edge39" class="edge">
<title>dir_f4f1e38aba3110f726ddf74e738f6d97&#45;&gt;dir_7924ba4398ae4560cd37376e44666c6d</title>
<path fill="none" stroke="#000000" d="M239.7686,-373.6879C189.4633,-365.3031 84.4126,-345.7089 55,-324 17.2831,-296.1618 0,-280.8778 0,-234 0,-234 0,-234 0,-162 0,-107.8872 34.3804,-97.7015 82,-72 133.0909,-44.425 302.7757,-27.5445 380.9421,-21.0523"/>
<polygon fill="#000000" stroke="#000000" points="381.6597,-24.5056 391.3425,-20.2052 381.0913,-17.5287 381.6597,-24.5056"/>
<g id="a_edge39&#45;headlabel"><a xlink:href="dir_000187_000086.html" target="_top" xlink:title="3">
<text text-anchor="middle" x="378.3074" y="-25.1272" font-family="Helvetica,sans-Serif" font-size="10.00" fill="#000000">3</text>
</a>
</g>
</g>
<!-- dir_f4f1e38aba3110f726ddf74e738f6d97&#45;&gt;dir_bcbb2cf9a3d3d83e5515c82071a07177 -->
<g id="edge40" class="edge">
<title>dir_f4f1e38aba3110f726ddf74e738f6d97&#45;&gt;dir_bcbb2cf9a3d3d83e5515c82071a07177</title>
<path fill="none" stroke="#000000" d="M285.7484,-359.6594C291.214,-354.4874 297.2612,-348.9294 303,-344 339.012,-313.0671 382.3073,-279.8429 411.3379,-258.1001"/>
<polygon fill="#000000" stroke="#000000" points="413.5769,-260.7964 419.4972,-252.0101 409.3898,-255.1867 413.5769,-260.7964"/>
<g id="a_edge40&#45;headlabel"><a xlink:href="dir_000187_000058.html" target="_top" xlink:title="3">
<text text-anchor="middle" x="412.3945" y="-262.7218" font-family="Helvetica,sans-Serif" font-size="10.00" fill="#000000">3</text>
</a>
</g>
</g>
<!-- dir_4ab6b4cc6a7edbff49100e9123df213f&#45;&gt;dir_74593c7a91e03746ae2a516888bf9494 -->
<g id="edge1" class="edge">
<title>dir_4ab6b4cc6a7edbff49100e9123df213f&#45;&gt;dir_74593c7a91e03746ae2a516888bf9494</title>
<path fill="none" stroke="#000000" d="M596.3375,-365.7862C573.333,-355.5047 541.7965,-340.5381 516.8648,-328.1519"/>
<polygon fill="#000000" stroke="#000000" points="518.1734,-324.8929 507.6645,-323.5463 515.0399,-331.1525 518.1734,-324.8929"/>
<g id="a_edge1&#45;headlabel"><a xlink:href="dir_000032_000096.html" target="_top" xlink:title="1">
<text text-anchor="middle" x="522.6587" y="-321.4631" font-family="Helvetica,sans-Serif" font-size="10.00" fill="#000000">1</text>
</a>
</g>
</g>
<!-- dir_4ab6b4cc6a7edbff49100e9123df213f&#45;&gt;dir_bcbb2cf9a3d3d83e5515c82071a07177 -->
<g id="edge2" class="edge">
<title>dir_4ab6b4cc6a7edbff49100e9123df213f&#45;&gt;dir_bcbb2cf9a3d3d83e5515c82071a07177</title>
<path fill="none" stroke="#000000" d="M598.5369,-359.7524C574.3364,-341.3411 539.1568,-312.2465 508,-288 495.3861,-278.1837 481.3129,-267.6726 469.4742,-258.5567"/>
<polygon fill="#000000" stroke="#000000" points="471.3427,-255.5758 461.3015,-252.1955 467.0431,-261.0997 471.3427,-255.5758"/>
<g id="a_edge2&#45;headlabel"><a xlink:href="dir_000032_000058.html" target="_top" xlink:title="2">
<text text-anchor="middle" x="475.9232" y="-253.0431" font-family="Helvetica,sans-Serif" font-size="10.00" fill="#000000">2</text>
</a>
</g>
</g>
<!-- dir_051dca18e802f8e9474f2e30d29c04e0&#45;&gt;dir_a5e2f96db9c63d5e1b2e8bbeecdeca98 -->
<g id="edge5" class="edge">
<title>dir_051dca18e802f8e9474f2e30d29c04e0&#45;&gt;dir_a5e2f96db9c63d5e1b2e8bbeecdeca98</title>
<path fill="none" stroke="#000000" d="M372.4964,-180.0383C373.2106,-198.2869 374.9267,-227.2576 379,-252 384.639,-286.2527 395.0533,-324.8296 402.4692,-350.1702"/>
<polygon fill="#000000" stroke="#000000" points="399.1404,-351.2554 405.3434,-359.8445 405.8505,-349.2618 399.1404,-351.2554"/>
<g id="a_edge5&#45;headlabel"><a xlink:href="dir_000044_000129.html" target="_top" xlink:title="16">
<text text-anchor="middle" x="395.395" y="-346.1182" font-family="Helvetica,sans-Serif" font-size="10.00" fill="#000000">16</text>
</a>
</g>
</g>
<!-- dir_051dca18e802f8e9474f2e30d29c04e0&#45;&gt;dir_c4f8a341900d529ea5f1c2b568ba3222 -->
<g id="edge10" class="edge">
<title>dir_051dca18e802f8e9474f2e30d29c04e0&#45;&gt;dir_c4f8a341900d529ea5f1c2b568ba3222</title>
<path fill="none" stroke="#000000" d="M351.5974,-180.4375C342.5059,-190.0325 332.7838,-202.5559 328,-216 312.0539,-260.8144 321.9081,-316.9336 330.4787,-349.9848"/>
<polygon fill="#000000" stroke="#000000" points="327.1662,-351.1403 333.182,-359.8616 333.9179,-349.2923 327.1662,-351.1403"/>
<g id="a_edge10&#45;headlabel"><a xlink:href="dir_000044_000132.html" target="_top" xlink:title="59">
<text text-anchor="middle" x="323.4788" y="-345.9227" font-family="Helvetica,sans-Serif" font-size="10.00" fill="#000000">59</text>
</a>
</g>
</g>
<!-- dir_051dca18e802f8e9474f2e30d29c04e0&#45;&gt;dir_f4f1e38aba3110f726ddf74e738f6d97 -->
<g id="edge11" class="edge">
<title>dir_051dca18e802f8e9474f2e30d29c04e0&#45;&gt;dir_f4f1e38aba3110f726ddf74e738f6d97</title>
<path fill="none" stroke="#000000" d="M339.7674,-165.8897C305.1513,-171.5545 250.2485,-185.0163 214,-216 186.4952,-239.51 184.6996,-252.8781 176,-288 172.1531,-303.5307 168.083,-310.096 176,-324 187.6396,-344.4417 210.402,-357.9441 230.2483,-366.3349"/>
<polygon fill="#000000" stroke="#000000" points="229.1081,-369.6474 239.6953,-370.0514 231.6708,-363.1333 229.1081,-369.6474"/>
<g id="a_edge11&#45;headlabel"><a xlink:href="dir_000044_000187.html" target="_top" xlink:title="20">
<text text-anchor="middle" x="224.7236" y="-368.4736" font-family="Helvetica,sans-Serif" font-size="10.00" fill="#000000">20</text>
</a>
</g>
</g>
<!-- dir_051dca18e802f8e9474f2e30d29c04e0&#45;&gt;dir_4ab6b4cc6a7edbff49100e9123df213f -->
<g id="edge3" class="edge">
<title>dir_051dca18e802f8e9474f2e30d29c04e0&#45;&gt;dir_4ab6b4cc6a7edbff49100e9123df213f</title>
<path fill="none" stroke="#000000" d="M404.1602,-173.2855C428.6241,-182.6887 462.483,-197.51 489,-216 542.1362,-253.0512 587.2198,-315.3405 610.3562,-350.9175"/>
<polygon fill="#000000" stroke="#000000" points="607.6866,-353.2395 616.0231,-359.7781 613.5837,-349.4679 607.6866,-353.2395"/>
<g id="a_edge3&#45;headlabel"><a xlink:href="dir_000044_000032.html" target="_top" xlink:title="300">
<text text-anchor="middle" x="603.358" y="-349.241" font-family="Helvetica,sans-Serif" font-size="10.00" fill="#000000">300</text>
</a>
</g>
</g>
<!-- dir_051dca18e802f8e9474f2e30d29c04e0&#45;&gt;dir_183e7c4434404fe9096e1bd8673e1fcf -->
<g id="edge4" class="edge">
<title>dir_051dca18e802f8e9474f2e30d29c04e0&#45;&gt;dir_183e7c4434404fe9096e1bd8673e1fcf</title>
<path fill="none" stroke="#000000" d="M381.3367,-143.8314C385.4243,-135.8771 390.3104,-126.369 394.8309,-117.5723"/>
<polygon fill="#000000" stroke="#000000" points="398.0799,-118.9074 399.5376,-108.4133 391.8539,-115.7078 398.0799,-118.9074"/>
<g id="a_edge4&#45;headlabel"><a xlink:href="dir_000044_000089.html" target="_top" xlink:title="86">
<text text-anchor="middle" x="398.9623" y="-120.9022" font-family="Helvetica,sans-Serif" font-size="10.00" fill="#000000">86</text>
</a>
</g>
</g>
<!-- dir_051dca18e802f8e9474f2e30d29c04e0&#45;&gt;dir_047746f9f311f49446db9474b7431d0d -->
<g id="edge6" class="edge">
<title>dir_051dca18e802f8e9474f2e30d29c04e0&#45;&gt;dir_047746f9f311f49446db9474b7431d0d</title>
<path fill="none" stroke="#000000" d="M395.824,-143.8314C410.479,-134.324 429.5792,-122.5968 446.7856,-112.5177"/>
<polygon fill="#000000" stroke="#000000" points="448.6835,-115.4631 455.5773,-107.4177 445.171,-109.4081 448.6835,-115.4631"/>
<g id="a_edge6&#45;headlabel"><a xlink:href="dir_000044_000251.html" target="_top" xlink:title="272">
<text text-anchor="middle" x="446.9989" y="-117.2227" font-family="Helvetica,sans-Serif" font-size="10.00" fill="#000000">272</text>
</a>
</g>
</g>
<!-- dir_051dca18e802f8e9474f2e30d29c04e0&#45;&gt;dir_74593c7a91e03746ae2a516888bf9494 -->
<g id="edge7" class="edge">
<title>dir_051dca18e802f8e9474f2e30d29c04e0&#45;&gt;dir_74593c7a91e03746ae2a516888bf9494</title>
<path fill="none" stroke="#000000" d="M374.1202,-180.117C377.1386,-199.4828 384.1806,-230.3219 400,-252 409.7902,-265.416 423.957,-276.6961 437.4767,-285.4194"/>
<polygon fill="#000000" stroke="#000000" points="435.8609,-288.5343 446.2152,-290.7795 439.521,-282.5673 435.8609,-288.5343"/>
<g id="a_edge7&#45;headlabel"><a xlink:href="dir_000044_000096.html" target="_top" xlink:title="84">
<text text-anchor="middle" x="431.3123" y="-286.5751" font-family="Helvetica,sans-Serif" font-size="10.00" fill="#000000">84</text>
</a>
</g>
</g>
<!-- dir_051dca18e802f8e9474f2e30d29c04e0&#45;&gt;dir_7924ba4398ae4560cd37376e44666c6d -->
<g id="edge8" class="edge">
<title>dir_051dca18e802f8e9474f2e30d29c04e0&#45;&gt;dir_7924ba4398ae4560cd37376e44666c6d</title>
<path fill="none" stroke="#000000" d="M367.897,-143.6938C364.583,-124.9817 361.821,-95.4235 371,-72 375.1758,-61.3439 382.5513,-51.5335 390.3759,-43.2816"/>
<polygon fill="#000000" stroke="#000000" points="392.9375,-45.6713 397.6091,-36.162 388.0271,-40.6825 392.9375,-45.6713"/>
<g id="a_edge8&#45;headlabel"><a xlink:href="dir_000044_000086.html" target="_top" xlink:title="62">
<text text-anchor="middle" x="392.3674" y="-47.7164" font-family="Helvetica,sans-Serif" font-size="10.00" fill="#000000">62</text>
</a>
</g>
</g>
<!-- dir_051dca18e802f8e9474f2e30d29c04e0&#45;&gt;dir_bcbb2cf9a3d3d83e5515c82071a07177 -->
<g id="edge9" class="edge">
<title>dir_051dca18e802f8e9474f2e30d29c04e0&#45;&gt;dir_bcbb2cf9a3d3d83e5515c82071a07177</title>
<path fill="none" stroke="#000000" d="M396.1147,-180.1628C405.4722,-188.6891 415.9667,-199.0016 424.8076,-208.3099"/>
<polygon fill="#000000" stroke="#000000" points="422.4173,-210.8796 431.7838,-215.8314 427.5496,-206.1194 422.4173,-210.8796"/>
<g id="a_edge9&#45;headlabel"><a xlink:href="dir_000044_000058.html" target="_top" xlink:title="938">
<text text-anchor="middle" x="417.8912" y="-207.6749" font-family="Helvetica,sans-Serif" font-size="10.00" fill="#000000">938</text>
</a>
</g>
</g>
<!-- dir_047746f9f311f49446db9474b7431d0d&#45;&gt;dir_4ab6b4cc6a7edbff49100e9123df213f -->
<g id="edge15" class="edge">
<title>dir_047746f9f311f49446db9474b7431d0d&#45;&gt;dir_4ab6b4cc6a7edbff49100e9123df213f</title>
<path fill="none" stroke="#000000" d="M524.1162,-94.0682C554.5624,-99.6827 597.55,-112.9318 619,-144 662.2641,-206.6638 646.4937,-302.9197 634.9205,-350.0494"/>
<polygon fill="#000000" stroke="#000000" points="631.4976,-349.307 632.394,-359.8639 638.2766,-351.0521 631.4976,-349.307"/>
<g id="a_edge15&#45;headlabel"><a xlink:href="dir_000251_000032.html" target="_top" xlink:title="5">
<text text-anchor="middle" x="629.644" y="-342.6181" font-family="Helvetica,sans-Serif" font-size="10.00" fill="#000000">5</text>
</a>
</g>
</g>
<!-- dir_047746f9f311f49446db9474b7431d0d&#45;&gt;dir_051dca18e802f8e9474f2e30d29c04e0 -->
<g id="edge16" class="edge">
<title>dir_047746f9f311f49446db9474b7431d0d&#45;&gt;dir_051dca18e802f8e9474f2e30d29c04e0</title>
<path fill="none" stroke="#000000" d="M466.2353,-108.1301C451.0114,-118.0085 430.9732,-130.292 413.2446,-140.6337"/>
<polygon fill="#000000" stroke="#000000" points="411.133,-137.8113 404.222,-145.8418 414.6325,-143.8738 411.133,-137.8113"/>
<g id="a_edge16&#45;headlabel"><a xlink:href="dir_000251_000044.html" target="_top" xlink:title="1">
<text text-anchor="middle" x="412.8268" y="-131.0553" font-family="Helvetica,sans-Serif" font-size="10.00" fill="#000000">1</text>
</a>
</g>
</g>
<!-- dir_047746f9f311f49446db9474b7431d0d&#45;&gt;dir_74593c7a91e03746ae2a516888bf9494 -->
<g id="edge17" class="edge">
<title>dir_047746f9f311f49446db9474b7431d0d&#45;&gt;dir_74593c7a91e03746ae2a516888bf9494</title>
<path fill="none" stroke="#000000" d="M504.2359,-108.3577C511.0539,-118.3128 518.4862,-131.1778 522,-144 534.6864,-190.2932 538.3404,-206.867 522,-252 518.2851,-262.2608 511.6748,-271.9421 504.6452,-280.1967"/>
<polygon fill="#000000" stroke="#000000" points="502.0056,-277.8969 497.8578,-287.6461 507.18,-282.6114 502.0056,-277.8969"/>
<g id="a_edge17&#45;headlabel"><a xlink:href="dir_000251_000096.html" target="_top" xlink:title="6">
<text text-anchor="middle" x="502.3278" y="-270.8276" font-family="Helvetica,sans-Serif" font-size="10.00" fill="#000000">6</text>
</a>
</g>
</g>
<!-- dir_047746f9f311f49446db9474b7431d0d&#45;&gt;dir_7924ba4398ae4560cd37376e44666c6d -->
<g id="edge18" class="edge">
<title>dir_047746f9f311f49446db9474b7431d0d&#45;&gt;dir_7924ba4398ae4560cd37376e44666c6d</title>
<path fill="none" stroke="#000000" d="M472.5884,-71.8314C464.479,-63.3694 454.6844,-53.1489 445.818,-43.8971"/>
<polygon fill="#000000" stroke="#000000" points="448.0921,-41.2115 438.646,-36.4133 443.0382,-46.0549 448.0921,-41.2115"/>
<g id="a_edge18&#45;headlabel"><a xlink:href="dir_000251_000086.html" target="_top" xlink:title="2">
<text text-anchor="middle" x="452.6291" y="-39.3422" font-family="Helvetica,sans-Serif" font-size="10.00" fill="#000000">2</text>
</a>
</g>
</g>
<!-- dir_047746f9f311f49446db9474b7431d0d&#45;&gt;dir_bcbb2cf9a3d3d83e5515c82071a07177 -->
<g id="edge19" class="edge">
<title>dir_047746f9f311f49446db9474b7431d0d&#45;&gt;dir_bcbb2cf9a3d3d83e5515c82071a07177</title>
<path fill="none" stroke="#000000" d="M484.2214,-108.0896C476.3315,-132.7884 462.1146,-177.2933 452.87,-206.2331"/>
<polygon fill="#000000" stroke="#000000" points="449.5349,-205.1715 449.8259,-215.7623 456.203,-207.3016 449.5349,-205.1715"/>
<g id="a_edge19&#45;headlabel"><a xlink:href="dir_000251_000058.html" target="_top" xlink:title="2">
<text text-anchor="middle" x="447.9241" y="-198.3834" font-family="Helvetica,sans-Serif" font-size="10.00" fill="#000000">2</text>
</a>
</g>
</g>
<!-- dir_74593c7a91e03746ae2a516888bf9494&#45;&gt;dir_4ab6b4cc6a7edbff49100e9123df213f -->
<g id="edge20" class="edge">
<title>dir_74593c7a91e03746ae2a516888bf9494&#45;&gt;dir_4ab6b4cc6a7edbff49100e9123df213f</title>
<path fill="none" stroke="#000000" d="M507.7323,-318.245C530.6943,-328.5092 562.1286,-343.4269 587.0163,-355.7891"/>
<polygon fill="#000000" stroke="#000000" points="585.6939,-359.0411 596.203,-360.3868 588.8269,-352.7813 585.6939,-359.0411"/>
<g id="a_edge20&#45;headlabel"><a xlink:href="dir_000096_000032.html" target="_top" xlink:title="5">
<text text-anchor="middle" x="581.2087" y="-357.4713" font-family="Helvetica,sans-Serif" font-size="10.00" fill="#000000">5</text>
</a>
</g>
</g>
<!-- dir_74593c7a91e03746ae2a516888bf9494&#45;&gt;dir_183e7c4434404fe9096e1bd8673e1fcf -->
<g id="edge21" class="edge">
<title>dir_74593c7a91e03746ae2a516888bf9494&#45;&gt;dir_183e7c4434404fe9096e1bd8673e1fcf</title>
<path fill="none" stroke="#000000" d="M483.7665,-287.7408C489.5918,-269.3205 496.0391,-240.219 489,-216 477.9379,-177.9392 451.5331,-140.3768 432.0702,-116.3061"/>
<polygon fill="#000000" stroke="#000000" points="434.5822,-113.8516 425.512,-108.3759 429.1878,-118.3127 434.5822,-113.8516"/>
<g id="a_edge21&#45;headlabel"><a xlink:href="dir_000096_000089.html" target="_top" xlink:title="1">
<text text-anchor="middle" x="439.061" y="-112.3122" font-family="Helvetica,sans-Serif" font-size="10.00" fill="#000000">1</text>
</a>
</g>
</g>
<!-- dir_74593c7a91e03746ae2a516888bf9494&#45;&gt;dir_bcbb2cf9a3d3d83e5515c82071a07177 -->
<g id="edge22" class="edge">
<title>dir_74593c7a91e03746ae2a516888bf9494&#45;&gt;dir_bcbb2cf9a3d3d83e5515c82071a07177</title>
<path fill="none" stroke="#000000" d="M468.6727,-287.8314C465.027,-279.8771 460.6691,-270.369 456.6373,-261.5723"/>
<polygon fill="#000000" stroke="#000000" points="459.7877,-260.0456 452.4394,-252.4133 453.4243,-262.9622 459.7877,-260.0456"/>
<g id="a_edge22&#45;headlabel"><a xlink:href="dir_000096_000058.html" target="_top" xlink:title="2">
<text text-anchor="middle" x="463.8665" y="-259.6304" font-family="Helvetica,sans-Serif" font-size="10.00" fill="#000000">2</text>
</a>
</g>
</g>
<!-- dir_7924ba4398ae4560cd37376e44666c6d&#45;&gt;dir_4ab6b4cc6a7edbff49100e9123df213f -->
<g id="edge23" class="edge">
<title>dir_7924ba4398ae4560cd37376e44666c6d&#45;&gt;dir_4ab6b4cc6a7edbff49100e9123df213f</title>
<path fill="none" stroke="#000000" d="M450.5421,-23.1853C536.7595,-39.1489 782,-90.813 782,-162 782,-234 782,-234 782,-234 782,-296.8846 712.6758,-340.063 666.7512,-361.7677"/>
<polygon fill="#000000" stroke="#000000" points="665.2581,-358.6018 657.623,-365.9473 668.1724,-364.9664 665.2581,-358.6018"/>
<g id="a_edge23&#45;headlabel"><a xlink:href="dir_000086_000032.html" target="_top" xlink:title="2">
<text text-anchor="middle" x="667.3444" y="-352.0239" font-family="Helvetica,sans-Serif" font-size="10.00" fill="#000000">2</text>
</a>
</g>
</g>
<!-- dir_bcbb2cf9a3d3d83e5515c82071a07177&#45;&gt;dir_4ab6b4cc6a7edbff49100e9123df213f -->
<g id="edge24" class="edge">
<title>dir_bcbb2cf9a3d3d83e5515c82071a07177&#45;&gt;dir_4ab6b4cc6a7edbff49100e9123df213f</title>
<path fill="none" stroke="#000000" d="M477.1554,-252.1955C492.3953,-262.5291 510.3244,-275.8011 526,-288 553.5056,-309.4051 584.1464,-334.5887 604.5771,-352.8646"/>
<polygon fill="#000000" stroke="#000000" points="602.3917,-355.6081 612.1423,-359.7524 607.1043,-350.4321 602.3917,-355.6081"/>
<g id="a_edge24&#45;headlabel"><a xlink:href="dir_000058_000032.html" target="_top" xlink:title="8">
<text text-anchor="middle" x="597.8222" y="-352.7876" font-family="Helvetica,sans-Serif" font-size="10.00" fill="#000000">8</text>
</a>
</g>
</g>
<!-- dir_bcbb2cf9a3d3d83e5515c82071a07177&#45;&gt;dir_051dca18e802f8e9474f2e30d29c04e0 -->
<g id="edge25" class="edge">
<title>dir_bcbb2cf9a3d3d83e5515c82071a07177&#45;&gt;dir_051dca18e802f8e9474f2e30d29c04e0</title>
<path fill="none" stroke="#000000" d="M419.879,-215.8314C410.5923,-207.3694 400.1867,-197.1489 391.3891,-187.8971"/>
<polygon fill="#000000" stroke="#000000" points="393.8075,-185.3579 384.4373,-180.4133 388.6788,-190.122 393.8075,-185.3579"/>
<g id="a_edge25&#45;headlabel"><a xlink:href="dir_000058_000044.html" target="_top" xlink:title="4">
<text text-anchor="middle" x="398.3342" y="-183.5592" font-family="Helvetica,sans-Serif" font-size="10.00" fill="#000000">4</text>
</a>
</g>
</g>
<!-- dir_bcbb2cf9a3d3d83e5515c82071a07177&#45;&gt;dir_183e7c4434404fe9096e1bd8673e1fcf -->
<g id="edge26" class="edge">
<title>dir_bcbb2cf9a3d3d83e5515c82071a07177&#45;&gt;dir_183e7c4434404fe9096e1bd8673e1fcf</title>
<path fill="none" stroke="#000000" d="M439.5672,-215.7623C433.5712,-191.0928 422.8201,-146.8598 415.799,-117.9731"/>
<polygon fill="#000000" stroke="#000000" points="419.1596,-116.9801 413.3968,-108.0896 412.3577,-118.6334 419.1596,-116.9801"/>
<g id="a_edge26&#45;headlabel"><a xlink:href="dir_000058_000089.html" target="_top" xlink:title="63">
<text text-anchor="middle" x="422.7675" y="-117.3024" font-family="Helvetica,sans-Serif" font-size="10.00" fill="#000000">63</text>
</a>
</g>
</g>
</g>
</svg>
        <g id="navigator" transform="translate(0 0)" fill="#404254">
                <rect fill="#f2f5e9" fill-opacity="0.5" stroke="#606060" stroke-width=".5" x="0" y="0" width="60" height="60"/>
                <use id="zoomplus" xlink:href="#zoomPlus" x="17" y="9" onmousedown="handleZoom(evt,'in')"/>
                <use id="zoomminus" xlink:href="#zoomMin" x="42" y="9" onmousedown="handleZoom(evt,'out')"/>
                <use id="reset" xlink:href="#resetDef" x="30" y="36" onmousedown="handleReset()"/>
                <g id="arrowUp" xlink:href="#dirArrow" transform="translate(30 24)" onmousedown="handlePan(0,-1)">
                  <use xlink:href="#rim" fill="#404040">
                        <set attributeName="fill" to="#808080" begin="arrowUp.mouseover" end="arrowUp.mouseout"/>
                  </use>
                  <path fill="none" stroke="white" stroke-width="1.5" d="M0,-3.0v7 M-2.5,-0.5L0,-3.0L2.5,-0.5"/>
                </g>
                <g id="arrowRight" xlink:href="#dirArrow" transform="rotate(90) translate(36 -43)" onmousedown="handlePan(1,0)">
                  <use xlink:href="#rim" fill="#404040">
                        <set attributeName="fill" to="#808080" begin="arrowRight.mouseover" end="arrowRight.mouseout"/>
                  </use>
                  <path fill="none" stroke="white" stroke-width="1.5" d="M0,-3.0v7 M-2.5,-0.5L0,-3.0L2.5,-0.5"/>
                </g>
                <g id="arrowDown" xlink:href="#dirArrow" transform="rotate(180) translate(-30 -48)" onmousedown="handlePan(0,1)">
                  <use xlink:href="#rim" fill="#404040">
                        <set attributeName="fill" to="#808080" begin="arrowDown.mouseover" end="arrowDown.mouseout"/>
                  </use>
                  <path fill="none" stroke="white" stroke-width="1.5" d="M0,-3.0v7 M-2.5,-0.5L0,-3.0L2.5,-0.5"/>
                </g>
                <g id="arrowLeft" xlink:href="#dirArrow" transform="rotate(270) translate(-36 17)" onmousedown="handlePan(-1,0)">
                  <use xlink:href="#rim" fill="#404040">
                        <set attributeName="fill" to="#808080" begin="arrowLeft.mouseover" end="arrowLeft.mouseout"/>
                  </use>
                  <path fill="none" stroke="white" stroke-width="1.5" d="M0,-3.0v7 M-2.5,-0.5L0,-3.0L2.5,-0.5"/>
                </g>
        </g>
        <svg viewBox="0 0 15 15" width="100%" height="30px" preserveAspectRatio="xMaxYMin meet">
         <g id="arrow_out" transform="scale(0.3 0.3)">
          <a xlink:href="dir_6f689773863a160ed4e9bc61c1008ba5_dep_org.svg" target="_base">
           <rect id="button" ry="5" rx="5" y="6" x="6" height="38" width="38"
                fill="#f2f5e9" fill-opacity="0.5" stroke="#606060" stroke-width="1.0"/>
           <path id="arrow"
             d="M 11.500037,31.436501 C 11.940474,20.09759 22.043105,11.32322 32.158766,21.979434 L 37.068811,17.246167 C 37.068811,17.246167 37.088388,32 37.088388,32 L 22.160133,31.978069 C 22.160133,31.978069 26.997745,27.140456 26.997745,27.140456 C 18.528582,18.264221 13.291696,25.230495 11.500037,31.436501 z"
             style="fill:#404040;"/>
          </a>
         </g>
        </svg>
</svg>
