<?xml version="1.0" encoding="UTF-8" standalone="no"?>
<!DOCTYPE svg PUBLIC "-//W3C//DTD SVG 1.1//EN"
 "http://www.w3.org/Graphics/SVG/1.1/DTD/svg11.dtd">
<!-- Generated by graphviz version 2.40.1 (20161225.0304)
 -->
<!-- Title: /home/travis/build/AliceO2Group/AliceO2/Detectors/CTF/workflow/include Pages: 1 -->
<svg width="227pt" height="375pt"
 viewBox="0.00 0.00 227.43 375.00" xmlns="http://www.w3.org/2000/svg" xmlns:xlink="http://www.w3.org/1999/xlink">
<g id="graph0" class="graph" transform="scale(1 1) rotate(0) translate(4 371)">
<title>/home/travis/build/AliceO2Group/AliceO2/Detectors/CTF/workflow/include</title>
<g id="clust1" class="cluster">
<title>clusterdir_60bab4a80e8540917b3a9a0f6e3beabd</title>
<g id="a_clust1"><a xlink:href="dir_60bab4a80e8540917b3a9a0f6e3beabd.html" target="_top" xlink:title="workflow">
<polygon fill="#ddddee" stroke="#000000" points="27.4335,-272 27.4335,-359 211.4335,-359 211.4335,-272 27.4335,-272"/>
<text text-anchor="middle" x="119.4335" y="-347" font-family="Helvetica,sans-Serif" font-size="10.00" fill="#000000">workflow</text>
</a>
</g>
</g>
<g id="clust2" class="cluster">
<title>clusterdir_f880e19344c61eaaaff98e6bc913348a</title>
<g id="a_clust2"><a xlink:href="dir_f880e19344c61eaaaff98e6bc913348a.html" target="_top">
<polygon fill="#eeeeff" stroke="#000000" points="35.4335,-280 35.4335,-332 203.4335,-332 203.4335,-280 35.4335,-280"/>
</a>
</g>
</g>
<!-- dir_f880e19344c61eaaaff98e6bc913348a -->
<g id="node1" class="node">
<title>dir_f880e19344c61eaaaff98e6bc913348a</title>
<text text-anchor="middle" x="168.4335" y="-303.5" font-family="Helvetica,sans-Serif" font-size="10.00" fill="#000000">include</text>
</g>
<!-- dir_00f93da2d587000383105027a21cc5f6 -->
<g id="node2" class="node">
<title>dir_00f93da2d587000383105027a21cc5f6</title>
<g id="a_node2"><a xlink:href="dir_00f93da2d587000383105027a21cc5f6.html" target="_top" xlink:title="CTFWorkflow">
<polygon fill="#ffffff" stroke="#000000" points="123.4335,-324 43.4335,-324 43.4335,-288 123.4335,-288 123.4335,-324"/>
<text text-anchor="middle" x="83.4335" y="-303.5" font-family="Helvetica,sans-Serif" font-size="10.00" fill="#000000">CTFWorkflow</text>
</a>
</g>
</g>
<!-- dir_4ab6b4cc6a7edbff49100e9123df213f -->
<g id="node3" class="node">
<title>dir_4ab6b4cc6a7edbff49100e9123df213f</title>
<g id="a_node3"><a xlink:href="dir_4ab6b4cc6a7edbff49100e9123df213f.html" target="_top" xlink:title="Common">
<polygon fill="none" stroke="#ff0000" points="143.9335,-252 82.9335,-252 82.9335,-216 143.9335,-216 143.9335,-252"/>
<text text-anchor="middle" x="113.4335" y="-231.5" font-family="Helvetica,sans-Serif" font-size="10.00" fill="#000000">Common</text>
</a>
</g>
</g>
<!-- dir_00f93da2d587000383105027a21cc5f6&#45;&gt;dir_4ab6b4cc6a7edbff49100e9123df213f -->
<g id="edge1" class="edge">
<title>dir_00f93da2d587000383105027a21cc5f6&#45;&gt;dir_4ab6b4cc6a7edbff49100e9123df213f</title>
<path fill="none" stroke="#000000" d="M91.0038,-287.8314C94.2828,-279.9617 98.1956,-270.5712 101.828,-261.8533"/>
<polygon fill="#000000" stroke="#000000" points="105.1459,-262.9902 105.7613,-252.4133 98.6844,-260.2979 105.1459,-262.9902"/>
<g id="a_edge1&#45;headlabel"><a xlink:href="dir_000429_000032.html" target="_top" xlink:title="1">
<text text-anchor="middle" x="106.3843" y="-264.9003" font-family="Helvetica,sans-Serif" font-size="10.00" fill="#000000">1</text>
</a>
</g>
</g>
<!-- dir_b05a5fa85f84bfc9013183c9d87f9a36 -->
<g id="node4" class="node">
<title>dir_b05a5fa85f84bfc9013183c9d87f9a36</title>
<g id="a_node4"><a xlink:href="dir_b05a5fa85f84bfc9013183c9d87f9a36.html" target="_top" xlink:title="Utilities">
<polygon fill="none" stroke="#ff0000" points="126.9335,-36 71.9335,-36 71.9335,0 126.9335,0 126.9335,-36"/>
<text text-anchor="middle" x="99.4335" y="-15.5" font-family="Helvetica,sans-Serif" font-size="10.00" fill="#000000">Utilities</text>
</a>
</g>
</g>
<!-- dir_00f93da2d587000383105027a21cc5f6&#45;&gt;dir_b05a5fa85f84bfc9013183c9d87f9a36 -->
<g id="edge2" class="edge">
<title>dir_00f93da2d587000383105027a21cc5f6&#45;&gt;dir_b05a5fa85f84bfc9013183c9d87f9a36</title>
<path fill="none" stroke="#000000" d="M64.13,-287.6378C36.1083,-258.6802 -11.0965,-199.9306 2.4335,-144 10.8929,-109.0306 17.479,-100.5029 39.4335,-72 47.5984,-61.3997 58.0188,-51.1951 67.8765,-42.5656"/>
<polygon fill="#000000" stroke="#000000" points="70.2476,-45.1439 75.6078,-36.005 65.7185,-39.8065 70.2476,-45.1439"/>
<g id="a_edge2&#45;headlabel"><a xlink:href="dir_000429_000615.html" target="_top" xlink:title="1">
<text text-anchor="middle" x="69.3439" y="-47.1345" font-family="Helvetica,sans-Serif" font-size="10.00" fill="#000000">1</text>
</a>
</g>
</g>
<!-- dir_bcbb2cf9a3d3d83e5515c82071a07177 -->
<g id="node5" class="node">
<title>dir_bcbb2cf9a3d3d83e5515c82071a07177</title>
<g id="a_node5"><a xlink:href="dir_bcbb2cf9a3d3d83e5515c82071a07177.html" target="_top" xlink:title="Framework">
<polygon fill="none" stroke="#ff0000" points="82.9335,-180 11.9335,-180 11.9335,-144 82.9335,-144 82.9335,-180"/>
<text text-anchor="middle" x="47.4335" y="-159.5" font-family="Helvetica,sans-Serif" font-size="10.00" fill="#000000">Framework</text>
</a>
</g>
</g>
<!-- dir_00f93da2d587000383105027a21cc5f6&#45;&gt;dir_bcbb2cf9a3d3d83e5515c82071a07177 -->
<g id="edge3" class="edge">
<title>dir_00f93da2d587000383105027a21cc5f6&#45;&gt;dir_bcbb2cf9a3d3d83e5515c82071a07177</title>
<path fill="none" stroke="#000000" d="M78.8741,-287.7623C72.7067,-263.0928 61.6485,-218.8598 54.4268,-189.9731"/>
<polygon fill="#000000" stroke="#000000" points="57.7769,-188.9421 51.9559,-180.0896 50.9859,-190.6399 57.7769,-188.9421"/>
<g id="a_edge3&#45;headlabel"><a xlink:href="dir_000429_000058.html" target="_top" xlink:title="4">
<text text-anchor="middle" x="61.4031" y="-189.2408" font-family="Helvetica,sans-Serif" font-size="10.00" fill="#000000">4</text>
</a>
</g>
</g>
<!-- dir_2171f7ec022c5423887b07c69b2f5b48 -->
<g id="node6" class="node">
<title>dir_2171f7ec022c5423887b07c69b2f5b48</title>
<g id="a_node6"><a xlink:href="dir_2171f7ec022c5423887b07c69b2f5b48.html" target="_top" xlink:title="DataFormats">
<polygon fill="none" stroke="#ff0000" points="139.4335,-108 59.4335,-108 59.4335,-72 139.4335,-72 139.4335,-108"/>
<text text-anchor="middle" x="99.4335" y="-87.5" font-family="Helvetica,sans-Serif" font-size="10.00" fill="#000000">DataFormats</text>
</a>
</g>
</g>
<!-- dir_00f93da2d587000383105027a21cc5f6&#45;&gt;dir_2171f7ec022c5423887b07c69b2f5b48 -->
<g id="edge4" class="edge">
<title>dir_00f93da2d587000383105027a21cc5f6&#45;&gt;dir_2171f7ec022c5423887b07c69b2f5b48</title>
<path fill="none" stroke="#000000" d="M108.9596,-287.9979C127.9238,-274.3486 150.9283,-257.0966 153.4335,-252 175.8832,-206.3283 143.9455,-149.066 120.4649,-116.2927"/>
<polygon fill="#000000" stroke="#000000" points="123.179,-114.0764 114.4176,-108.1191 117.5517,-118.2398 123.179,-114.0764"/>
<g id="a_edge4&#45;headlabel"><a xlink:href="dir_000429_000085.html" target="_top" xlink:title="5">
<text text-anchor="middle" x="127.5994" y="-112.7773" font-family="Helvetica,sans-Serif" font-size="10.00" fill="#000000">5</text>
</a>
</g>
</g>
<!-- dir_4ab6b4cc6a7edbff49100e9123df213f&#45;&gt;dir_bcbb2cf9a3d3d83e5515c82071a07177 -->
<g id="edge5" class="edge">
<title>dir_4ab6b4cc6a7edbff49100e9123df213f&#45;&gt;dir_bcbb2cf9a3d3d83e5515c82071a07177</title>
<path fill="none" stroke="#000000" d="M90.8266,-215.8314C82.3309,-207.454 72.8821,-197.3531 64.9058,-188.1749"/>
<polygon fill="#000000" stroke="#000000" points="67.4684,-185.785 58.3364,-180.4133 62.1254,-190.3074 67.4684,-185.785"/>
<g id="a_edge5&#45;headlabel"><a xlink:href="dir_000032_000058.html" target="_top" xlink:title="2">
<text text-anchor="middle" x="71.9579" y="-184.1945" font-family="Helvetica,sans-Serif" font-size="10.00" fill="#000000">2</text>
</a>
</g>
</g>
<!-- dir_4ab6b4cc6a7edbff49100e9123df213f&#45;&gt;dir_2171f7ec022c5423887b07c69b2f5b48 -->
<g id="edge6" class="edge">
<title>dir_4ab6b4cc6a7edbff49100e9123df213f&#45;&gt;dir_2171f7ec022c5423887b07c69b2f5b48</title>
<path fill="none" stroke="#000000" d="M106.9873,-215.7623C102.1395,-191.201 97.5915,-147.2474 96.6928,-118.3541"/>
<polygon fill="#000000" stroke="#000000" points="100.1883,-118.0342 96.534,-108.0896 93.1892,-118.1426 100.1883,-118.0342"/>
<g id="a_edge6&#45;headlabel"><a xlink:href="dir_000032_000085.html" target="_top" xlink:title="2">
<text text-anchor="middle" x="103.0828" y="-119.0845" font-family="Helvetica,sans-Serif" font-size="10.00" fill="#000000">2</text>
</a>
</g>
</g>
<!-- dir_b05a5fa85f84bfc9013183c9d87f9a36&#45;&gt;dir_4ab6b4cc6a7edbff49100e9123df213f -->
<g id="edge7" class="edge">
<title>dir_b05a5fa85f84bfc9013183c9d87f9a36&#45;&gt;dir_4ab6b4cc6a7edbff49100e9123df213f</title>
<path fill="none" stroke="#000000" d="M122.1085,-36.0091C132.2223,-45.5028 143.0534,-58.0645 148.4335,-72 166.072,-117.6863 144.7864,-174.2305 128.537,-207.0011"/>
<polygon fill="#000000" stroke="#000000" points="125.3812,-205.4846 123.9144,-215.9775 131.6044,-208.6895 125.3812,-205.4846"/>
<g id="a_edge7&#45;headlabel"><a xlink:href="dir_000615_000032.html" target="_top" xlink:title="1">
<text text-anchor="middle" x="124.5026" y="-198.489" font-family="Helvetica,sans-Serif" font-size="10.00" fill="#000000">1</text>
</a>
</g>
</g>
<!-- dir_b05a5fa85f84bfc9013183c9d87f9a36&#45;&gt;dir_bcbb2cf9a3d3d83e5515c82071a07177 -->
<g id="edge8" class="edge">
<title>dir_b05a5fa85f84bfc9013183c9d87f9a36&#45;&gt;dir_bcbb2cf9a3d3d83e5515c82071a07177</title>
<path fill="none" stroke="#000000" d="M76.9603,-36.089C66.8942,-45.6015 56.0451,-58.1561 50.4335,-72 42.5294,-91.4997 42.1069,-115.3713 43.4841,-133.6285"/>
<polygon fill="#000000" stroke="#000000" points="40.0075,-134.0399 44.46,-143.6538 46.9746,-133.3617 40.0075,-134.0399"/>
<g id="a_edge8&#45;headlabel"><a xlink:href="dir_000615_000058.html" target="_top" xlink:title="96">
<text text-anchor="middle" x="36.8334" y="-128.2373" font-family="Helvetica,sans-Serif" font-size="10.00" fill="#000000">96</text>
</a>
</g>
</g>
<!-- dir_b05a5fa85f84bfc9013183c9d87f9a36&#45;&gt;dir_2171f7ec022c5423887b07c69b2f5b48 -->
<g id="edge9" class="edge">
<title>dir_b05a5fa85f84bfc9013183c9d87f9a36&#45;&gt;dir_2171f7ec022c5423887b07c69b2f5b48</title>
<path fill="none" stroke="#000000" d="M105.4095,-36.4133C106.1407,-44.0593 106.3538,-53.1084 106.049,-61.5726"/>
<polygon fill="#000000" stroke="#000000" points="102.5383,-61.6264 105.3859,-71.8314 109.5237,-62.078 102.5383,-61.6264"/>
<g id="a_edge9&#45;headlabel"><a xlink:href="dir_000615_000085.html" target="_top" xlink:title="59">
<text text-anchor="middle" x="99.9367" y="-55.3562" font-family="Helvetica,sans-Serif" font-size="10.00" fill="#000000">59</text>
</a>
</g>
</g>
<!-- dir_bcbb2cf9a3d3d83e5515c82071a07177&#45;&gt;dir_4ab6b4cc6a7edbff49100e9123df213f -->
<g id="edge10" class="edge">
<title>dir_bcbb2cf9a3d3d83e5515c82071a07177&#45;&gt;dir_4ab6b4cc6a7edbff49100e9123df213f</title>
<path fill="none" stroke="#000000" d="M70.0346,-180.1628C78.5952,-188.6038 88.1242,-198.7956 96.1395,-208.0303"/>
<polygon fill="#000000" stroke="#000000" points="93.6037,-210.4521 102.7313,-215.8314 98.9504,-205.9341 93.6037,-210.4521"/>
<g id="a_edge10&#45;headlabel"><a xlink:href="dir_000058_000032.html" target="_top" xlink:title="8">
<text text-anchor="middle" x="89.1149" y="-207.039" font-family="Helvetica,sans-Serif" font-size="10.00" fill="#000000">8</text>
</a>
</g>
</g>
<!-- dir_bcbb2cf9a3d3d83e5515c82071a07177&#45;&gt;dir_2171f7ec022c5423887b07c69b2f5b48 -->
<g id="edge11" class="edge">
<title>dir_bcbb2cf9a3d3d83e5515c82071a07177&#45;&gt;dir_2171f7ec022c5423887b07c69b2f5b48</title>
<path fill="none" stroke="#000000" d="M54.6029,-143.8314C59.784,-135.5386 66.7989,-125.557 73.7939,-116.4533"/>
<polygon fill="#000000" stroke="#000000" points="76.6961,-118.4262 80.1591,-108.4133 71.2078,-114.0812 76.6961,-118.4262"/>
<g id="a_edge11&#45;headlabel"><a xlink:href="dir_000058_000085.html" target="_top" xlink:title="72">
<text text-anchor="middle" x="76.691" y="-120.5068" font-family="Helvetica,sans-Serif" font-size="10.00" fill="#000000">72</text>
</a>
</g>
</g>
<!-- dir_2171f7ec022c5423887b07c69b2f5b48&#45;&gt;dir_4ab6b4cc6a7edbff49100e9123df213f -->
<g id="edge12" class="edge">
<title>dir_2171f7ec022c5423887b07c69b2f5b48&#45;&gt;dir_4ab6b4cc6a7edbff49100e9123df213f</title>
<path fill="none" stroke="#000000" d="M105.8505,-108.0896C110.6994,-132.5727 115.2554,-176.5174 116.1688,-205.4713"/>
<polygon fill="#000000" stroke="#000000" points="112.6739,-205.8196 116.3336,-215.7623 119.673,-205.7075 112.6739,-205.8196"/>
<g id="a_edge12&#45;headlabel"><a xlink:href="dir_000085_000032.html" target="_top" xlink:title="37">
<text text-anchor="middle" x="109.7775" y="-199.7709" font-family="Helvetica,sans-Serif" font-size="10.00" fill="#000000">37</text>
</a>
</g>
</g>
<!-- dir_2171f7ec022c5423887b07c69b2f5b48&#45;&gt;dir_b05a5fa85f84bfc9013183c9d87f9a36 -->
<g id="edge13" class="edge">
<title>dir_2171f7ec022c5423887b07c69b2f5b48&#45;&gt;dir_b05a5fa85f84bfc9013183c9d87f9a36</title>
<path fill="none" stroke="#000000" d="M93.4811,-71.8314C92.7307,-64.131 92.5098,-54.9743 92.8184,-46.4166"/>
<polygon fill="#000000" stroke="#000000" points="96.3127,-46.6161 93.4575,-36.4133 89.327,-46.1697 96.3127,-46.6161"/>
<g id="a_edge13&#45;headlabel"><a xlink:href="dir_000085_000615.html" target="_top" xlink:title="1">
<text text-anchor="middle" x="98.9172" y="-47.8844" font-family="Helvetica,sans-Serif" font-size="10.00" fill="#000000">1</text>
</a>
</g>
</g>
<!-- dir_2171f7ec022c5423887b07c69b2f5b48&#45;&gt;dir_bcbb2cf9a3d3d83e5515c82071a07177 -->
<g id="edge14" class="edge">
<title>dir_2171f7ec022c5423887b07c69b2f5b48&#45;&gt;dir_bcbb2cf9a3d3d83e5515c82071a07177</title>
<path fill="none" stroke="#000000" d="M92.1111,-108.4133C86.8942,-116.7389 79.8617,-126.7282 72.8673,-135.8144"/>
<polygon fill="#000000" stroke="#000000" points="69.9804,-133.8218 66.5077,-143.8314 75.4645,-138.1721 69.9804,-133.8218"/>
<g id="a_edge14&#45;headlabel"><a xlink:href="dir_000085_000058.html" target="_top" xlink:title="20">
<text text-anchor="middle" x="69.99" y="-126.7412" font-family="Helvetica,sans-Serif" font-size="10.00" fill="#000000">20</text>
</a>
</g>
</g>
</g>
</svg>
