<?xml version="1.0" encoding="UTF-8" standalone="no"?>
<!DOCTYPE svg PUBLIC "-//W3C//DTD SVG 1.1//EN"
 "http://www.w3.org/Graphics/SVG/1.1/DTD/svg11.dtd">
<!-- Generated by graphviz version 2.40.1 (20161225.0304)
 -->
<!-- Title: /home/travis/build/AliceO2Group/AliceO2/Detectors/TPC/calibration/SpacePoints Pages: 1 -->
<svg width="292pt" height="519pt"
 viewBox="0.00 0.00 292.10 519.00" xmlns="http://www.w3.org/2000/svg" xmlns:xlink="http://www.w3.org/1999/xlink">
<g id="graph0" class="graph" transform="scale(1 1) rotate(0) translate(4 515)">
<title>/home/travis/build/AliceO2Group/AliceO2/Detectors/TPC/calibration/SpacePoints</title>
<g id="clust1" class="cluster">
<title>clusterdir_4995562033b321477cfe3c34a14a5189</title>
<g id="a_clust1"><a xlink:href="dir_4995562033b321477cfe3c34a14a5189.html" target="_top" xlink:title="calibration">
<polygon fill="#ddddee" stroke="#000000" points="86.0971,-344 86.0971,-503 266.0971,-503 266.0971,-344 86.0971,-344"/>
<text text-anchor="middle" x="176.0971" y="-491" font-family="Helvetica,sans-Serif" font-size="10.00" fill="#000000">calibration</text>
</a>
</g>
</g>
<g id="clust2" class="cluster">
<title>clusterdir_7f0118076ec35c6eba4fbf3c8c648756</title>
<g id="a_clust2"><a xlink:href="dir_7f0118076ec35c6eba4fbf3c8c648756.html" target="_top">
<polygon fill="#eeeeff" stroke="#000000" points="94.0971,-352 94.0971,-476 258.0971,-476 258.0971,-352 94.0971,-352"/>
</a>
</g>
</g>
<!-- dir_7f0118076ec35c6eba4fbf3c8c648756 -->
<g id="node1" class="node">
<title>dir_7f0118076ec35c6eba4fbf3c8c648756</title>
<text text-anchor="middle" x="212.0971" y="-447.5" font-family="Helvetica,sans-Serif" font-size="10.00" fill="#000000">SpacePoints</text>
</g>
<!-- dir_2055e8b9f766f2ecf35205bcfa7b602c -->
<g id="node2" class="node">
<title>dir_2055e8b9f766f2ecf35205bcfa7b602c</title>
<g id="a_node2"><a xlink:href="dir_2055e8b9f766f2ecf35205bcfa7b602c.html" target="_top" xlink:title="include">
<polygon fill="#ffffff" stroke="#ff0000" points="197.0971,-396 143.0971,-396 143.0971,-360 197.0971,-360 197.0971,-396"/>
<text text-anchor="middle" x="170.0971" y="-375.5" font-family="Helvetica,sans-Serif" font-size="10.00" fill="#000000">include</text>
</a>
</g>
</g>
<!-- dir_a5de047958dd458e809773c6ffaa8478 -->
<g id="node6" class="node">
<title>dir_a5de047958dd458e809773c6ffaa8478</title>
<g id="a_node6"><a xlink:href="dir_a5de047958dd458e809773c6ffaa8478.html" target="_top" xlink:title="reconstruction">
<polygon fill="none" stroke="#ff0000" points="175.0971,-324 89.0971,-324 89.0971,-288 175.0971,-288 175.0971,-324"/>
<text text-anchor="middle" x="132.0971" y="-303.5" font-family="Helvetica,sans-Serif" font-size="10.00" fill="#000000">reconstruction</text>
</a>
</g>
</g>
<!-- dir_2055e8b9f766f2ecf35205bcfa7b602c&#45;&gt;dir_a5de047958dd458e809773c6ffaa8478 -->
<g id="edge1" class="edge">
<title>dir_2055e8b9f766f2ecf35205bcfa7b602c&#45;&gt;dir_a5de047958dd458e809773c6ffaa8478</title>
<path fill="none" stroke="#000000" d="M160.5081,-359.8314C156.2653,-351.7925 151.185,-342.1666 146.5011,-333.2918"/>
<polygon fill="#000000" stroke="#000000" points="149.5782,-331.6235 141.8152,-324.4133 143.3875,-334.8908 149.5782,-331.6235"/>
<g id="a_edge1&#45;headlabel"><a xlink:href="dir_000653_000382.html" target="_top" xlink:title="1">
<text text-anchor="middle" x="153.767" y="-330.9772" font-family="Helvetica,sans-Serif" font-size="10.00" fill="#000000">1</text>
</a>
</g>
</g>
<!-- dir_37c90836491b695b472bf98d1be8336b -->
<g id="node7" class="node">
<title>dir_37c90836491b695b472bf98d1be8336b</title>
<g id="a_node7"><a xlink:href="dir_37c90836491b695b472bf98d1be8336b.html" target="_top" xlink:title="Base">
<polygon fill="none" stroke="#ff0000" points="129.0971,-36 75.0971,-36 75.0971,0 129.0971,0 129.0971,-36"/>
<text text-anchor="middle" x="102.0971" y="-15.5" font-family="Helvetica,sans-Serif" font-size="10.00" fill="#000000">Base</text>
</a>
</g>
</g>
<!-- dir_2055e8b9f766f2ecf35205bcfa7b602c&#45;&gt;dir_37c90836491b695b472bf98d1be8336b -->
<g id="edge2" class="edge">
<title>dir_2055e8b9f766f2ecf35205bcfa7b602c&#45;&gt;dir_37c90836491b695b472bf98d1be8336b</title>
<path fill="none" stroke="#000000" d="M187.3427,-359.6186C209.7658,-333.719 246.0971,-284.0348 246.0971,-234 246.0971,-234 246.0971,-234 246.0971,-162 246.0971,-101.0638 180.8257,-56.9075 138.1716,-34.5576"/>
<polygon fill="#000000" stroke="#000000" points="139.6833,-31.3998 129.1824,-29.992 136.5134,-37.641 139.6833,-31.3998"/>
<g id="a_edge2&#45;headlabel"><a xlink:href="dir_000653_000280.html" target="_top" xlink:title="1">
<text text-anchor="middle" x="144.1739" y="-27.9961" font-family="Helvetica,sans-Serif" font-size="10.00" fill="#000000">1</text>
</a>
</g>
</g>
<!-- dir_2171f7ec022c5423887b07c69b2f5b48 -->
<g id="node8" class="node">
<title>dir_2171f7ec022c5423887b07c69b2f5b48</title>
<g id="a_node8"><a xlink:href="dir_2171f7ec022c5423887b07c69b2f5b48.html" target="_top" xlink:title="DataFormats">
<polygon fill="none" stroke="#ff0000" points="142.0971,-108 62.0971,-108 62.0971,-72 142.0971,-72 142.0971,-108"/>
<text text-anchor="middle" x="102.0971" y="-87.5" font-family="Helvetica,sans-Serif" font-size="10.00" fill="#000000">DataFormats</text>
</a>
</g>
</g>
<!-- dir_2055e8b9f766f2ecf35205bcfa7b602c&#45;&gt;dir_2171f7ec022c5423887b07c69b2f5b48 -->
<g id="edge3" class="edge">
<title>dir_2055e8b9f766f2ecf35205bcfa7b602c&#45;&gt;dir_2171f7ec022c5423887b07c69b2f5b48</title>
<path fill="none" stroke="#000000" d="M176.6644,-359.6593C182.322,-341.4234 188.8812,-312.6832 184.0971,-288 171.6516,-223.7897 137.6325,-154.3999 117.5368,-117.2213"/>
<polygon fill="#000000" stroke="#000000" points="120.3858,-115.1375 112.5083,-108.0527 114.2483,-118.5037 120.3858,-115.1375"/>
<g id="a_edge3&#45;headlabel"><a xlink:href="dir_000653_000085.html" target="_top" xlink:title="12">
<text text-anchor="middle" x="124.6038" y="-114.424" font-family="Helvetica,sans-Serif" font-size="10.00" fill="#000000">12</text>
</a>
</g>
</g>
<!-- dir_c2674d115144eca5f4f109769e5de0d0 -->
<g id="node3" class="node">
<title>dir_c2674d115144eca5f4f109769e5de0d0</title>
<g id="a_node3"><a xlink:href="dir_c2674d115144eca5f4f109769e5de0d0.html" target="_top" xlink:title="src">
<polygon fill="#ffffff" stroke="#000000" points="156.0971,-468 102.0971,-468 102.0971,-432 156.0971,-432 156.0971,-468"/>
<text text-anchor="middle" x="129.0971" y="-447.5" font-family="Helvetica,sans-Serif" font-size="10.00" fill="#000000">src</text>
</a>
</g>
</g>
<!-- dir_c2674d115144eca5f4f109769e5de0d0&#45;&gt;dir_2055e8b9f766f2ecf35205bcfa7b602c -->
<g id="edge13" class="edge">
<title>dir_c2674d115144eca5f4f109769e5de0d0&#45;&gt;dir_2055e8b9f766f2ecf35205bcfa7b602c</title>
<path fill="none" stroke="#000000" d="M139.4431,-431.8314C144.0208,-423.7925 149.5022,-414.1666 154.5559,-405.2918"/>
<polygon fill="#000000" stroke="#000000" points="157.7048,-406.8351 159.6117,-396.4133 151.6219,-403.3712 157.7048,-406.8351"/>
<g id="a_edge13&#45;headlabel"><a xlink:href="dir_000655_000653.html" target="_top" xlink:title="3">
<text text-anchor="middle" x="158.3933" y="-408.8637" font-family="Helvetica,sans-Serif" font-size="10.00" fill="#000000">3</text>
</a>
</g>
</g>
<!-- dir_677b030cc750909e4cd27413873678d8 -->
<g id="node4" class="node">
<title>dir_677b030cc750909e4cd27413873678d8</title>
<g id="a_node4"><a xlink:href="dir_677b030cc750909e4cd27413873678d8.html" target="_top" xlink:title="base">
<polygon fill="none" stroke="#ff0000" points="66.0971,-252 12.0971,-252 12.0971,-216 66.0971,-216 66.0971,-252"/>
<text text-anchor="middle" x="39.0971" y="-231.5" font-family="Helvetica,sans-Serif" font-size="10.00" fill="#000000">base</text>
</a>
</g>
</g>
<!-- dir_c2674d115144eca5f4f109769e5de0d0&#45;&gt;dir_677b030cc750909e4cd27413873678d8 -->
<g id="edge14" class="edge">
<title>dir_c2674d115144eca5f4f109769e5de0d0&#45;&gt;dir_677b030cc750909e4cd27413873678d8</title>
<path fill="none" stroke="#000000" d="M121.5785,-431.9555C105.8286,-394.1556 69.2848,-306.4506 50.5789,-261.5564"/>
<polygon fill="#000000" stroke="#000000" points="53.7345,-260.0297 46.6575,-252.1451 47.273,-262.722 53.7345,-260.0297"/>
<g id="a_edge14&#45;headlabel"><a xlink:href="dir_000655_000055.html" target="_top" xlink:title="1">
<text text-anchor="middle" x="57.7379" y="-259.7558" font-family="Helvetica,sans-Serif" font-size="10.00" fill="#000000">1</text>
</a>
</g>
</g>
<!-- dir_4ab6b4cc6a7edbff49100e9123df213f -->
<g id="node5" class="node">
<title>dir_4ab6b4cc6a7edbff49100e9123df213f</title>
<g id="a_node5"><a xlink:href="dir_4ab6b4cc6a7edbff49100e9123df213f.html" target="_top" xlink:title="Common">
<polygon fill="none" stroke="#ff0000" points="65.5971,-180 4.5971,-180 4.5971,-144 65.5971,-144 65.5971,-180"/>
<text text-anchor="middle" x="35.0971" y="-159.5" font-family="Helvetica,sans-Serif" font-size="10.00" fill="#000000">Common</text>
</a>
</g>
</g>
<!-- dir_c2674d115144eca5f4f109769e5de0d0&#45;&gt;dir_4ab6b4cc6a7edbff49100e9123df213f -->
<g id="edge15" class="edge">
<title>dir_c2674d115144eca5f4f109769e5de0d0&#45;&gt;dir_4ab6b4cc6a7edbff49100e9123df213f</title>
<path fill="none" stroke="#000000" d="M111.0949,-431.8922C101.5676,-421.8023 90.0268,-408.7349 81.0971,-396 39.3091,-336.4052 20.9784,-322.5552 3.0971,-252 -.8337,-236.4903 -1.1317,-231.4311 3.0971,-216 5.6776,-206.5837 10.3713,-197.1443 15.383,-188.8513"/>
<polygon fill="#000000" stroke="#000000" points="18.3822,-190.6585 20.8611,-180.3577 12.4996,-186.8644 18.3822,-190.6585"/>
<g id="a_edge15&#45;headlabel"><a xlink:href="dir_000655_000032.html" target="_top" xlink:title="2">
<text text-anchor="middle" x="18.8199" y="-192.7182" font-family="Helvetica,sans-Serif" font-size="10.00" fill="#000000">2</text>
</a>
</g>
</g>
<!-- dir_c2674d115144eca5f4f109769e5de0d0&#45;&gt;dir_2171f7ec022c5423887b07c69b2f5b48 -->
<g id="edge16" class="edge">
<title>dir_c2674d115144eca5f4f109769e5de0d0&#45;&gt;dir_2171f7ec022c5423887b07c69b2f5b48</title>
<path fill="none" stroke="#000000" d="M156.4512,-431.9836C200.9486,-401.6757 284.0971,-340.4349 284.0971,-306 284.0971,-306 284.0971,-306 284.0971,-234 284.0971,-166.3438 205.7927,-125.4879 151.9083,-105.3828"/>
<polygon fill="#000000" stroke="#000000" points="153.0831,-102.0858 142.4888,-101.9844 150.7075,-108.6704 153.0831,-102.0858"/>
<g id="a_edge16&#45;headlabel"><a xlink:href="dir_000655_000085.html" target="_top" xlink:title="1">
<text text-anchor="middle" x="157.4279" y="-98.1349" font-family="Helvetica,sans-Serif" font-size="10.00" fill="#000000">1</text>
</a>
</g>
</g>
<!-- dir_677b030cc750909e4cd27413873678d8&#45;&gt;dir_4ab6b4cc6a7edbff49100e9123df213f -->
<g id="edge4" class="edge">
<title>dir_677b030cc750909e4cd27413873678d8&#45;&gt;dir_4ab6b4cc6a7edbff49100e9123df213f</title>
<path fill="none" stroke="#000000" d="M38.0877,-215.8314C37.6599,-208.131 37.1512,-198.9743 36.6758,-190.4166"/>
<polygon fill="#000000" stroke="#000000" points="40.1694,-190.2037 36.12,-180.4133 33.1802,-190.592 40.1694,-190.2037"/>
<g id="a_edge4&#45;headlabel"><a xlink:href="dir_000055_000032.html" target="_top" xlink:title="14">
<text text-anchor="middle" x="43.2036" y="-191.1353" font-family="Helvetica,sans-Serif" font-size="10.00" fill="#000000">14</text>
</a>
</g>
</g>
<!-- dir_677b030cc750909e4cd27413873678d8&#45;&gt;dir_2171f7ec022c5423887b07c69b2f5b48 -->
<g id="edge5" class="edge">
<title>dir_677b030cc750909e4cd27413873678d8&#45;&gt;dir_2171f7ec022c5423887b07c69b2f5b48</title>
<path fill="none" stroke="#000000" d="M53.1967,-215.8184C60.5173,-205.7069 69.1495,-192.6424 75.0971,-180 84.4432,-160.1337 91.4248,-136.2809 95.9449,-118.1241"/>
<polygon fill="#000000" stroke="#000000" points="99.4046,-118.7043 98.3211,-108.165 92.5958,-117.0797 99.4046,-118.7043"/>
<g id="a_edge5&#45;headlabel"><a xlink:href="dir_000055_000085.html" target="_top" xlink:title="21">
<text text-anchor="middle" x="101.3322" y="-120.3597" font-family="Helvetica,sans-Serif" font-size="10.00" fill="#000000">21</text>
</a>
</g>
</g>
<!-- dir_4ab6b4cc6a7edbff49100e9123df213f&#45;&gt;dir_2171f7ec022c5423887b07c69b2f5b48 -->
<g id="edge6" class="edge">
<title>dir_4ab6b4cc6a7edbff49100e9123df213f&#45;&gt;dir_2171f7ec022c5423887b07c69b2f5b48</title>
<path fill="none" stroke="#000000" d="M46.0516,-143.8314C53.2266,-135.219 62.759,-124.7851 71.9733,-115.4048"/>
<polygon fill="#000000" stroke="#000000" points="74.6288,-117.6998 79.2437,-108.1628 69.6888,-112.7403 74.6288,-117.6998"/>
<g id="a_edge6&#45;headlabel"><a xlink:href="dir_000032_000085.html" target="_top" xlink:title="2">
<text text-anchor="middle" x="74.0858" y="-119.7481" font-family="Helvetica,sans-Serif" font-size="10.00" fill="#000000">2</text>
</a>
</g>
</g>
<!-- dir_a5de047958dd458e809773c6ffaa8478&#45;&gt;dir_677b030cc750909e4cd27413873678d8 -->
<g id="edge7" class="edge">
<title>dir_a5de047958dd458e809773c6ffaa8478&#45;&gt;dir_677b030cc750909e4cd27413873678d8</title>
<path fill="none" stroke="#000000" d="M108.6293,-287.8314C97.0644,-278.8779 82.9567,-267.9558 70.4787,-258.2955"/>
<polygon fill="#000000" stroke="#000000" points="72.6073,-255.5171 62.5574,-252.1628 68.322,-261.0521 72.6073,-255.5171"/>
<g id="a_edge7&#45;headlabel"><a xlink:href="dir_000382_000055.html" target="_top" xlink:title="38">
<text text-anchor="middle" x="77.1877" y="-252.9725" font-family="Helvetica,sans-Serif" font-size="10.00" fill="#000000">38</text>
</a>
</g>
</g>
<!-- dir_a5de047958dd458e809773c6ffaa8478&#45;&gt;dir_4ab6b4cc6a7edbff49100e9123df213f -->
<g id="edge8" class="edge">
<title>dir_a5de047958dd458e809773c6ffaa8478&#45;&gt;dir_4ab6b4cc6a7edbff49100e9123df213f</title>
<path fill="none" stroke="#000000" d="M121.1219,-287.8196C109.9138,-269.4605 91.8319,-240.4057 75.0971,-216 68.8622,-206.9071 61.7798,-197.169 55.3252,-188.5011"/>
<polygon fill="#000000" stroke="#000000" points="57.9368,-186.1501 49.1345,-180.2535 52.3384,-190.3523 57.9368,-186.1501"/>
<g id="a_edge8&#45;headlabel"><a xlink:href="dir_000382_000032.html" target="_top" xlink:title="2">
<text text-anchor="middle" x="62.3654" y="-184.8205" font-family="Helvetica,sans-Serif" font-size="10.00" fill="#000000">2</text>
</a>
</g>
</g>
<!-- dir_a5de047958dd458e809773c6ffaa8478&#45;&gt;dir_37c90836491b695b472bf98d1be8336b -->
<g id="edge9" class="edge">
<title>dir_a5de047958dd458e809773c6ffaa8478&#45;&gt;dir_37c90836491b695b472bf98d1be8336b</title>
<path fill="none" stroke="#000000" d="M138.7446,-287.9217C152.4855,-247.5926 180.3835,-147.8565 151.0971,-72 146.9779,-61.3306 139.6635,-51.4665 131.9221,-43.1681"/>
<polygon fill="#000000" stroke="#000000" points="134.3152,-40.6113 124.7721,-36.0091 129.3623,-45.558 134.3152,-40.6113"/>
<g id="a_edge9&#45;headlabel"><a xlink:href="dir_000382_000280.html" target="_top" xlink:title="1">
<text text-anchor="middle" x="138.8643" y="-38.6483" font-family="Helvetica,sans-Serif" font-size="10.00" fill="#000000">1</text>
</a>
</g>
</g>
<!-- dir_a5de047958dd458e809773c6ffaa8478&#45;&gt;dir_2171f7ec022c5423887b07c69b2f5b48 -->
<g id="edge10" class="edge">
<title>dir_a5de047958dd458e809773c6ffaa8478&#45;&gt;dir_2171f7ec022c5423887b07c69b2f5b48</title>
<path fill="none" stroke="#000000" d="M129.5909,-287.9555C124.363,-250.3144 112.2619,-163.1867 106.0033,-118.1246"/>
<polygon fill="#000000" stroke="#000000" points="109.4597,-117.5685 104.6172,-108.1451 102.5263,-118.5315 109.4597,-117.5685"/>
<g id="a_edge10&#45;headlabel"><a xlink:href="dir_000382_000085.html" target="_top" xlink:title="47">
<text text-anchor="middle" x="112.7664" y="-118.2383" font-family="Helvetica,sans-Serif" font-size="10.00" fill="#000000">47</text>
</a>
</g>
</g>
<!-- dir_37c90836491b695b472bf98d1be8336b&#45;&gt;dir_4ab6b4cc6a7edbff49100e9123df213f -->
<g id="edge11" class="edge">
<title>dir_37c90836491b695b472bf98d1be8336b&#45;&gt;dir_4ab6b4cc6a7edbff49100e9123df213f</title>
<path fill="none" stroke="#000000" d="M81.0955,-36.0439C71.1324,-45.7235 59.9383,-58.4364 53.0971,-72 43.3794,-91.2667 38.9058,-115.3345 36.8476,-133.7324"/>
<polygon fill="#000000" stroke="#000000" points="33.3497,-133.5455 35.8934,-143.8305 40.3187,-134.2041 33.3497,-133.5455"/>
<g id="a_edge11&#45;headlabel"><a xlink:href="dir_000280_000032.html" target="_top" xlink:title="16">
<text text-anchor="middle" x="30.8611" y="-127.1998" font-family="Helvetica,sans-Serif" font-size="10.00" fill="#000000">16</text>
</a>
</g>
</g>
<!-- dir_37c90836491b695b472bf98d1be8336b&#45;&gt;dir_2171f7ec022c5423887b07c69b2f5b48 -->
<g id="edge12" class="edge">
<title>dir_37c90836491b695b472bf98d1be8336b&#45;&gt;dir_2171f7ec022c5423887b07c69b2f5b48</title>
<path fill="none" stroke="#000000" d="M108.0731,-36.4133C108.8042,-44.0593 109.0174,-53.1084 108.7126,-61.5726"/>
<polygon fill="#000000" stroke="#000000" points="105.2019,-61.6264 108.0495,-71.8314 112.1873,-62.078 105.2019,-61.6264"/>
<g id="a_edge12&#45;headlabel"><a xlink:href="dir_000280_000085.html" target="_top" xlink:title="15">
<text text-anchor="middle" x="102.6003" y="-55.3562" font-family="Helvetica,sans-Serif" font-size="10.00" fill="#000000">15</text>
</a>
</g>
</g>
<!-- dir_2171f7ec022c5423887b07c69b2f5b48&#45;&gt;dir_4ab6b4cc6a7edbff49100e9123df213f -->
<g id="edge17" class="edge">
<title>dir_2171f7ec022c5423887b07c69b2f5b48&#45;&gt;dir_4ab6b4cc6a7edbff49100e9123df213f</title>
<path fill="none" stroke="#000000" d="M90.9385,-108.4133C83.7743,-116.9938 74.3135,-127.3414 65.1707,-136.6463"/>
<polygon fill="#000000" stroke="#000000" points="62.5719,-134.2947 57.9564,-143.8314 67.5117,-139.2545 62.5719,-134.2947"/>
<g id="a_edge17&#45;headlabel"><a xlink:href="dir_000085_000032.html" target="_top" xlink:title="37">
<text text-anchor="middle" x="63.1152" y="-127.2464" font-family="Helvetica,sans-Serif" font-size="10.00" fill="#000000">37</text>
</a>
</g>
</g>
<!-- dir_2171f7ec022c5423887b07c69b2f5b48&#45;&gt;dir_37c90836491b695b472bf98d1be8336b -->
<g id="edge18" class="edge">
<title>dir_2171f7ec022c5423887b07c69b2f5b48&#45;&gt;dir_37c90836491b695b472bf98d1be8336b</title>
<path fill="none" stroke="#000000" d="M96.1447,-71.8314C95.3943,-64.131 95.1734,-54.9743 95.482,-46.4166"/>
<polygon fill="#000000" stroke="#000000" points="98.9763,-46.6161 96.1211,-36.4133 91.9905,-46.1697 98.9763,-46.6161"/>
<g id="a_edge18&#45;headlabel"><a xlink:href="dir_000085_000280.html" target="_top" xlink:title="1">
<text text-anchor="middle" x="101.5807" y="-47.8844" font-family="Helvetica,sans-Serif" font-size="10.00" fill="#000000">1</text>
</a>
</g>
</g>
</g>
</svg>
