<?xml version="1.0" encoding="UTF-8" standalone="no"?>
<!DOCTYPE svg PUBLIC "-//W3C//DTD SVG 1.1//EN"
 "http://www.w3.org/Graphics/SVG/1.1/DTD/svg11.dtd">
<!-- Generated by graphviz version 2.40.1 (20161225.0304)
 -->
<!-- Title: /home/travis/build/AliceO2Group/AliceO2/Detectors/TPC/reconstruction/src Pages: 1 -->
<!--zoomable 511 -->
<svg id="main" version="1.1" xmlns="http://www.w3.org/2000/svg" xmlns:xlink="http://www.w3.org/1999/xlink" xml:space="preserve" onload="init(evt)">
<style type="text/css"><![CDATA[
.edge:hover path { stroke: red; }
.edge:hover polygon { stroke: red; fill: red; }
]]></style>
<script type="text/javascript"><![CDATA[
var edges = document.getElementsByTagName('g');
if (edges && edges.length) {
  for (var i=0;i<edges.length;i++) {
    if (edges[i].id.substr(0,4)=='edge') {
      edges[i].setAttribute('class','edge');
    }
  }
}
]]></script>
        <defs>
                <circle id="rim" cx="0" cy="0" r="7"/>
                <circle id="rim2" cx="0" cy="0" r="3.5"/>
                <g id="zoomPlus">
                        <use xlink:href="#rim" fill="#404040">
                                <set attributeName="fill" to="#808080" begin="zoomplus.mouseover" end="zoomplus.mouseout"/>
                        </use>
                        <path d="M-4,0h8M0,-4v8" fill="none" stroke="white" stroke-width="1.5" pointer-events="none"/>
                </g>
                <g id="zoomMin">
                        <use xlink:href="#rim" fill="#404040">
                                <set attributeName="fill" to="#808080" begin="zoomminus.mouseover" end="zoomminus.mouseout"/>
                        </use>
                        <path d="M-4,0h8" fill="none" stroke="white" stroke-width="1.5" pointer-events="none"/>
                </g>
                <g id="dirArrow">
                        <path fill="none" stroke="white" stroke-width="1.5" d="M0,-3.0v7 M-2.5,-0.5L0,-3.0L2.5,-0.5"/>
                </g>
               <g id="resetDef">
                       <use xlink:href="#rim2" fill="#404040">
                               <set attributeName="fill" to="#808080" begin="reset.mouseover" end="reset.mouseout"/>
                       </use>
               </g>
        </defs>

<script type="text/javascript">
var viewWidth = 412;
var viewHeight = 511;
var sectionId = 'dynsection-0';
</script>
<script xlink:href="svgpan.js"/>
<svg id="graph" class="graph">
<g id="viewport">
<title>/home/travis/build/AliceO2Group/AliceO2/Detectors/TPC/reconstruction/src</title>
<g id="clust1" class="cluster">
<title>clusterdir_a5de047958dd458e809773c6ffaa8478</title>
<g id="a_clust1"><a xlink:href="dir_a5de047958dd458e809773c6ffaa8478.html" target="_top" xlink:title="reconstruction">
<polygon fill="#ddddee" stroke="#000000" points="174,-424 174,-495 260,-495 260,-424 174,-424"/>
<text text-anchor="middle" x="217" y="-483" font-family="Helvetica,sans-Serif" font-size="10.00" fill="#000000">reconstruction</text>
</a>
</g>
</g>
<!-- dir_0c8c50542de1d83a040084fab225b0f7 -->
<g id="node1" class="node">
<title>dir_0c8c50542de1d83a040084fab225b0f7</title>
<g id="a_node1"><a xlink:href="dir_0c8c50542de1d83a040084fab225b0f7.html" target="_top" xlink:title="src">
<polygon fill="#eeeeff" stroke="#000000" points="244,-468 190,-468 190,-432 244,-432 244,-468"/>
<text text-anchor="middle" x="217" y="-447.5" font-family="Helvetica,sans-Serif" font-size="10.00" fill="#000000">src</text>
</a>
</g>
</g>
<!-- dir_677b030cc750909e4cd27413873678d8 -->
<g id="node2" class="node">
<title>dir_677b030cc750909e4cd27413873678d8</title>
<g id="a_node2"><a xlink:href="dir_677b030cc750909e4cd27413873678d8.html" target="_top" xlink:title="base">
<polygon fill="none" stroke="#ff0000" points="272,-324 218,-324 218,-288 272,-288 272,-324"/>
<text text-anchor="middle" x="245" y="-303.5" font-family="Helvetica,sans-Serif" font-size="10.00" fill="#000000">base</text>
</a>
</g>
</g>
<!-- dir_0c8c50542de1d83a040084fab225b0f7&#45;&gt;dir_677b030cc750909e4cd27413873678d8 -->
<g id="edge12" class="edge">
<title>dir_0c8c50542de1d83a040084fab225b0f7&#45;&gt;dir_677b030cc750909e4cd27413873678d8</title>
<path fill="none" stroke="#000000" d="M220.5462,-431.7623C225.3431,-407.0928 233.9439,-362.8598 239.5608,-333.9731"/>
<polygon fill="#000000" stroke="#000000" points="243.0095,-334.5738 241.4826,-324.0896 236.1381,-333.2377 243.0095,-334.5738"/>
<g id="a_edge12&#45;headlabel"><a xlink:href="dir_000484_000055.html" target="_top" xlink:title="21">
<text text-anchor="middle" x="245.1105" y="-336.1443" font-family="Helvetica,sans-Serif" font-size="10.00" fill="#000000">21</text>
</a>
</g>
</g>
<!-- dir_396d171119822f66a36fe1ebf998d1a3 -->
<g id="node3" class="node">
<title>dir_396d171119822f66a36fe1ebf998d1a3</title>
<g id="a_node3"><a xlink:href="dir_396d171119822f66a36fe1ebf998d1a3.html" target="_top" xlink:title="include">
<polygon fill="none" stroke="#ff0000" points="217,-396 163,-396 163,-360 217,-360 217,-396"/>
<text text-anchor="middle" x="190" y="-375.5" font-family="Helvetica,sans-Serif" font-size="10.00" fill="#000000">include</text>
</a>
</g>
</g>
<!-- dir_0c8c50542de1d83a040084fab225b0f7&#45;&gt;dir_396d171119822f66a36fe1ebf998d1a3 -->
<g id="edge13" class="edge">
<title>dir_0c8c50542de1d83a040084fab225b0f7&#45;&gt;dir_396d171119822f66a36fe1ebf998d1a3</title>
<path fill="none" stroke="#000000" d="M210.1868,-431.8314C207.2356,-423.9617 203.7142,-414.5712 200.445,-405.8533"/>
<polygon fill="#000000" stroke="#000000" points="203.6934,-404.5476 196.905,-396.4133 197.1391,-407.0055 203.6934,-404.5476"/>
<g id="a_edge13&#45;headlabel"><a xlink:href="dir_000484_000383.html" target="_top" xlink:title="21">
<text text-anchor="middle" x="207.614" y="-404.4164" font-family="Helvetica,sans-Serif" font-size="10.00" fill="#000000">21</text>
</a>
</g>
</g>
<!-- dir_f511f1e9c03c071966ae594f00bbc5e0 -->
<g id="node4" class="node">
<title>dir_f511f1e9c03c071966ae594f00bbc5e0</title>
<g id="a_node4"><a xlink:href="dir_f511f1e9c03c071966ae594f00bbc5e0.html" target="_top" xlink:title="GPU">
<polygon fill="none" stroke="#ff0000" points="244,-108 190,-108 190,-72 244,-72 244,-108"/>
<text text-anchor="middle" x="217" y="-87.5" font-family="Helvetica,sans-Serif" font-size="10.00" fill="#000000">GPU</text>
</a>
</g>
</g>
<!-- dir_0c8c50542de1d83a040084fab225b0f7&#45;&gt;dir_f511f1e9c03c071966ae594f00bbc5e0 -->
<g id="edge14" class="edge">
<title>dir_0c8c50542de1d83a040084fab225b0f7&#45;&gt;dir_f511f1e9c03c071966ae594f00bbc5e0</title>
<path fill="none" stroke="#000000" d="M189.9774,-434.6789C176.4784,-425.4052 161.4641,-412.2286 154,-396 109.6507,-299.5748 169.9091,-171.7736 200.7683,-116.9005"/>
<polygon fill="#000000" stroke="#000000" points="203.8601,-118.5447 205.8029,-108.1295 197.7892,-115.0599 203.8601,-118.5447"/>
<g id="a_edge14&#45;headlabel"><a xlink:href="dir_000484_000732.html" target="_top" xlink:title="7">
<text text-anchor="middle" x="204.5331" y="-120.5756" font-family="Helvetica,sans-Serif" font-size="10.00" fill="#000000">7</text>
</a>
</g>
</g>
<!-- dir_bcbb2cf9a3d3d83e5515c82071a07177 -->
<g id="node5" class="node">
<title>dir_bcbb2cf9a3d3d83e5515c82071a07177</title>
<g id="a_node5"><a xlink:href="dir_bcbb2cf9a3d3d83e5515c82071a07177.html" target="_top" xlink:title="Framework">
<polygon fill="none" stroke="#ff0000" points="403.5,-252 332.5,-252 332.5,-216 403.5,-216 403.5,-252"/>
<text text-anchor="middle" x="368" y="-231.5" font-family="Helvetica,sans-Serif" font-size="10.00" fill="#000000">Framework</text>
</a>
</g>
</g>
<!-- dir_0c8c50542de1d83a040084fab225b0f7&#45;&gt;dir_bcbb2cf9a3d3d83e5515c82071a07177 -->
<g id="edge15" class="edge">
<title>dir_0c8c50542de1d83a040084fab225b0f7&#45;&gt;dir_bcbb2cf9a3d3d83e5515c82071a07177</title>
<path fill="none" stroke="#000000" d="M244.3947,-441.8895C267.1909,-433.7891 298.898,-419.1639 318,-396 350.2448,-356.8985 361.7335,-297.108 365.7999,-262.1492"/>
<polygon fill="#000000" stroke="#000000" points="369.2868,-262.4555 366.8383,-252.1475 362.3242,-261.7326 369.2868,-262.4555"/>
<g id="a_edge15&#45;headlabel"><a xlink:href="dir_000484_000058.html" target="_top" xlink:title="2">
<text text-anchor="middle" x="371.7398" y="-263.8241" font-family="Helvetica,sans-Serif" font-size="10.00" fill="#000000">2</text>
</a>
</g>
</g>
<!-- dir_26637d1bd82229bc9ed97f7e706be743 -->
<g id="node6" class="node">
<title>dir_26637d1bd82229bc9ed97f7e706be743</title>
<g id="a_node6"><a xlink:href="dir_26637d1bd82229bc9ed97f7e706be743.html" target="_top" xlink:title="Raw">
<polygon fill="none" stroke="#ff0000" points="244,-36 190,-36 190,0 244,0 244,-36"/>
<text text-anchor="middle" x="217" y="-15.5" font-family="Helvetica,sans-Serif" font-size="10.00" fill="#000000">Raw</text>
</a>
</g>
</g>
<!-- dir_0c8c50542de1d83a040084fab225b0f7&#45;&gt;dir_26637d1bd82229bc9ed97f7e706be743 -->
<g id="edge16" class="edge">
<title>dir_0c8c50542de1d83a040084fab225b0f7&#45;&gt;dir_26637d1bd82229bc9ed97f7e706be743</title>
<path fill="none" stroke="#000000" d="M189.9556,-445.2346C131.7849,-433.2674 0,-396.2018 0,-306 0,-306 0,-306 0,-162 0,-76.5549 118.2522,-38.7897 180.1688,-24.8721"/>
<polygon fill="#000000" stroke="#000000" points="180.9161,-28.2915 189.9556,-22.7654 179.4429,-21.4483 180.9161,-28.2915"/>
<g id="a_edge16&#45;headlabel"><a xlink:href="dir_000484_000620.html" target="_top" xlink:title="2">
<text text-anchor="middle" x="177.9994" y="-29.3236" font-family="Helvetica,sans-Serif" font-size="10.00" fill="#000000">2</text>
</a>
</g>
</g>
<!-- dir_2171f7ec022c5423887b07c69b2f5b48 -->
<g id="node7" class="node">
<title>dir_2171f7ec022c5423887b07c69b2f5b48</title>
<g id="a_node7"><a xlink:href="dir_2171f7ec022c5423887b07c69b2f5b48.html" target="_top" xlink:title="DataFormats">
<polygon fill="none" stroke="#ff0000" points="336,-180 256,-180 256,-144 336,-144 336,-180"/>
<text text-anchor="middle" x="296" y="-159.5" font-family="Helvetica,sans-Serif" font-size="10.00" fill="#000000">DataFormats</text>
</a>
</g>
</g>
<!-- dir_0c8c50542de1d83a040084fab225b0f7&#45;&gt;dir_2171f7ec022c5423887b07c69b2f5b48 -->
<g id="edge17" class="edge">
<title>dir_0c8c50542de1d83a040084fab225b0f7&#45;&gt;dir_2171f7ec022c5423887b07c69b2f5b48</title>
<path fill="none" stroke="#000000" d="M226.657,-431.5402C232.0847,-421.1239 238.962,-407.8572 245,-396 261.2348,-364.1185 271.182,-358.4036 281,-324 293.9529,-278.6115 296.3869,-223.4498 296.5155,-190.6147"/>
<polygon fill="#000000" stroke="#000000" points="300.0148,-190.3703 296.4826,-180.3816 293.0149,-190.3928 300.0148,-190.3703"/>
<g id="a_edge17&#45;headlabel"><a xlink:href="dir_000484_000085.html" target="_top" xlink:title="13">
<text text-anchor="middle" x="302.8655" y="-191.4558" font-family="Helvetica,sans-Serif" font-size="10.00" fill="#000000">13</text>
</a>
</g>
</g>
<!-- dir_677b030cc750909e4cd27413873678d8&#45;&gt;dir_bcbb2cf9a3d3d83e5515c82071a07177 -->
<g id="edge1" class="edge">
<title>dir_677b030cc750909e4cd27413873678d8&#45;&gt;dir_bcbb2cf9a3d3d83e5515c82071a07177</title>
<path fill="none" stroke="#000000" d="M272.2977,-290.0209C288.7197,-280.408 309.9124,-268.0025 328.179,-257.3099"/>
<polygon fill="#000000" stroke="#000000" points="330.0155,-260.2905 336.8775,-252.2181 326.4792,-254.2494 330.0155,-260.2905"/>
<g id="a_edge1&#45;headlabel"><a xlink:href="dir_000055_000058.html" target="_top" xlink:title="3">
<text text-anchor="middle" x="328.3476" y="-262.0567" font-family="Helvetica,sans-Serif" font-size="10.00" fill="#000000">3</text>
</a>
</g>
</g>
<!-- dir_677b030cc750909e4cd27413873678d8&#45;&gt;dir_26637d1bd82229bc9ed97f7e706be743 -->
<g id="edge2" class="edge">
<title>dir_677b030cc750909e4cd27413873678d8&#45;&gt;dir_26637d1bd82229bc9ed97f7e706be743</title>
<path fill="none" stroke="#000000" d="M237.0247,-287.9093C222.3992,-253.6332 191.7983,-176.5165 181,-108 178.5091,-92.1951 176.3635,-87.3135 181,-72 183.9564,-62.2355 189.3252,-52.6229 195.03,-44.2762"/>
<polygon fill="#000000" stroke="#000000" points="197.9414,-46.2239 201.0095,-36.0831 192.2871,-42.0973 197.9414,-46.2239"/>
<g id="a_edge2&#45;headlabel"><a xlink:href="dir_000055_000620.html" target="_top" xlink:title="2">
<text text-anchor="middle" x="198.1158" y="-48.3013" font-family="Helvetica,sans-Serif" font-size="10.00" fill="#000000">2</text>
</a>
</g>
</g>
<!-- dir_677b030cc750909e4cd27413873678d8&#45;&gt;dir_2171f7ec022c5423887b07c69b2f5b48 -->
<g id="edge3" class="edge">
<title>dir_677b030cc750909e4cd27413873678d8&#45;&gt;dir_2171f7ec022c5423887b07c69b2f5b48</title>
<path fill="none" stroke="#000000" d="M251.4592,-287.7623C260.2346,-262.9846 275.9997,-218.4714 286.2272,-189.5939"/>
<polygon fill="#000000" stroke="#000000" points="289.5539,-190.6844 289.5933,-180.0896 282.9555,-188.3474 289.5539,-190.6844"/>
<g id="a_edge3&#45;headlabel"><a xlink:href="dir_000055_000085.html" target="_top" xlink:title="21">
<text text-anchor="middle" x="291.0303" y="-192.5206" font-family="Helvetica,sans-Serif" font-size="10.00" fill="#000000">21</text>
</a>
</g>
</g>
<!-- dir_396d171119822f66a36fe1ebf998d1a3&#45;&gt;dir_677b030cc750909e4cd27413873678d8 -->
<g id="edge4" class="edge">
<title>dir_396d171119822f66a36fe1ebf998d1a3&#45;&gt;dir_677b030cc750909e4cd27413873678d8</title>
<path fill="none" stroke="#000000" d="M203.8788,-359.8314C210.2136,-351.5386 217.8384,-341.557 224.7926,-332.4533"/>
<polygon fill="#000000" stroke="#000000" points="227.6452,-334.4847 230.9343,-324.4133 222.0825,-330.2353 227.6452,-334.4847"/>
<g id="a_edge4&#45;headlabel"><a xlink:href="dir_000383_000055.html" target="_top" xlink:title="9">
<text text-anchor="middle" x="227.7195" y="-336.5647" font-family="Helvetica,sans-Serif" font-size="10.00" fill="#000000">9</text>
</a>
</g>
</g>
<!-- dir_396d171119822f66a36fe1ebf998d1a3&#45;&gt;dir_f511f1e9c03c071966ae594f00bbc5e0 -->
<g id="edge5" class="edge">
<title>dir_396d171119822f66a36fe1ebf998d1a3&#45;&gt;dir_f511f1e9c03c071966ae594f00bbc5e0</title>
<path fill="none" stroke="#000000" d="M190.7202,-359.708C191.5065,-341.5091 192.9352,-312.7962 195,-288 200.0501,-227.3524 208.5514,-156.5347 213.3738,-118.1788"/>
<polygon fill="#000000" stroke="#000000" points="216.8462,-118.6172 214.6305,-108.2567 209.9016,-117.7376 216.8462,-118.6172"/>
<g id="a_edge5&#45;headlabel"><a xlink:href="dir_000383_000732.html" target="_top" xlink:title="1">
<text text-anchor="middle" x="219.2113" y="-120.0401" font-family="Helvetica,sans-Serif" font-size="10.00" fill="#000000">1</text>
</a>
</g>
</g>
<!-- dir_396d171119822f66a36fe1ebf998d1a3&#45;&gt;dir_26637d1bd82229bc9ed97f7e706be743 -->
<g id="edge6" class="edge">
<title>dir_396d171119822f66a36fe1ebf998d1a3&#45;&gt;dir_26637d1bd82229bc9ed97f7e706be743</title>
<path fill="none" stroke="#000000" d="M184.5363,-359.7549C170.9753,-311.2809 139.3546,-175.8898 175,-72 178.469,-61.8894 184.6899,-52.2137 191.299,-43.9166"/>
<polygon fill="#000000" stroke="#000000" points="194.1265,-45.9949 197.95,-36.1141 188.7992,-41.4539 194.1265,-45.9949"/>
<g id="a_edge6&#45;headlabel"><a xlink:href="dir_000383_000620.html" target="_top" xlink:title="1">
<text text-anchor="middle" x="193.9554" y="-48.0724" font-family="Helvetica,sans-Serif" font-size="10.00" fill="#000000">1</text>
</a>
</g>
</g>
<!-- dir_396d171119822f66a36fe1ebf998d1a3&#45;&gt;dir_2171f7ec022c5423887b07c69b2f5b48 -->
<g id="edge7" class="edge">
<title>dir_396d171119822f66a36fe1ebf998d1a3&#45;&gt;dir_2171f7ec022c5423887b07c69b2f5b48</title>
<path fill="none" stroke="#000000" d="M191.7108,-359.7745C193.9456,-341.1267 198.8416,-311.6188 209,-288 225.1599,-250.4275 253.321,-212.5048 273.2204,-188.2247"/>
<polygon fill="#000000" stroke="#000000" points="276.1701,-190.152 279.8812,-180.2284 270.7917,-185.6718 276.1701,-190.152"/>
<g id="a_edge7&#45;headlabel"><a xlink:href="dir_000383_000085.html" target="_top" xlink:title="23">
<text text-anchor="middle" x="276.051" y="-192.2311" font-family="Helvetica,sans-Serif" font-size="10.00" fill="#000000">23</text>
</a>
</g>
</g>
<!-- dir_f511f1e9c03c071966ae594f00bbc5e0&#45;&gt;dir_677b030cc750909e4cd27413873678d8 -->
<g id="edge8" class="edge">
<title>dir_f511f1e9c03c071966ae594f00bbc5e0&#45;&gt;dir_677b030cc750909e4cd27413873678d8</title>
<path fill="none" stroke="#000000" d="M219.3521,-108.1451C224.2429,-145.8741 235.5381,-233.0083 241.3698,-277.9956"/>
<polygon fill="#000000" stroke="#000000" points="237.9043,-278.4884 242.6609,-287.9555 244.8462,-277.5885 237.9043,-278.4884"/>
<g id="a_edge8&#45;headlabel"><a xlink:href="dir_000732_000055.html" target="_top" xlink:title="1">
<text text-anchor="middle" x="234.6266" y="-272.7886" font-family="Helvetica,sans-Serif" font-size="10.00" fill="#000000">1</text>
</a>
</g>
</g>
<!-- dir_f511f1e9c03c071966ae594f00bbc5e0&#45;&gt;dir_26637d1bd82229bc9ed97f7e706be743 -->
<g id="edge9" class="edge">
<title>dir_f511f1e9c03c071966ae594f00bbc5e0&#45;&gt;dir_26637d1bd82229bc9ed97f7e706be743</title>
<path fill="none" stroke="#000000" d="M211.0476,-71.8314C210.2972,-64.131 210.0763,-54.9743 210.3849,-46.4166"/>
<polygon fill="#000000" stroke="#000000" points="213.8792,-46.6161 211.024,-36.4133 206.8935,-46.1697 213.8792,-46.6161"/>
<g id="a_edge9&#45;headlabel"><a xlink:href="dir_000732_000620.html" target="_top" xlink:title="1">
<text text-anchor="middle" x="216.4836" y="-47.8844" font-family="Helvetica,sans-Serif" font-size="10.00" fill="#000000">1</text>
</a>
</g>
</g>
<!-- dir_f511f1e9c03c071966ae594f00bbc5e0&#45;&gt;dir_2171f7ec022c5423887b07c69b2f5b48 -->
<g id="edge10" class="edge">
<title>dir_f511f1e9c03c071966ae594f00bbc5e0&#45;&gt;dir_2171f7ec022c5423887b07c69b2f5b48</title>
<path fill="none" stroke="#000000" d="M242.8805,-108.1628C253.1688,-116.7744 264.7942,-127.2081 274.6018,-136.5888"/>
<polygon fill="#000000" stroke="#000000" points="272.4178,-139.3482 282.0174,-143.8314 277.3088,-134.3403 272.4178,-139.3482"/>
<g id="a_edge10&#45;headlabel"><a xlink:href="dir_000732_000085.html" target="_top" xlink:title="16">
<text text-anchor="middle" x="267.8624" y="-136.3678" font-family="Helvetica,sans-Serif" font-size="10.00" fill="#000000">16</text>
</a>
</g>
</g>
<!-- dir_bcbb2cf9a3d3d83e5515c82071a07177&#45;&gt;dir_2171f7ec022c5423887b07c69b2f5b48 -->
<g id="edge11" class="edge">
<title>dir_bcbb2cf9a3d3d83e5515c82071a07177&#45;&gt;dir_2171f7ec022c5423887b07c69b2f5b48</title>
<path fill="none" stroke="#000000" d="M343.879,-215.8314C334.5923,-207.3694 324.1867,-197.1489 315.3891,-187.8971"/>
<polygon fill="#000000" stroke="#000000" points="317.8075,-185.3579 308.4373,-180.4133 312.6788,-190.122 317.8075,-185.3579"/>
<g id="a_edge11&#45;headlabel"><a xlink:href="dir_000058_000085.html" target="_top" xlink:title="72">
<text text-anchor="middle" x="322.3342" y="-183.5592" font-family="Helvetica,sans-Serif" font-size="10.00" fill="#000000">72</text>
</a>
</g>
</g>
<!-- dir_26637d1bd82229bc9ed97f7e706be743&#45;&gt;dir_f511f1e9c03c071966ae594f00bbc5e0 -->
<g id="edge18" class="edge">
<title>dir_26637d1bd82229bc9ed97f7e706be743&#45;&gt;dir_f511f1e9c03c071966ae594f00bbc5e0</title>
<path fill="none" stroke="#000000" d="M222.976,-36.4133C223.7071,-44.0593 223.9203,-53.1084 223.6155,-61.5726"/>
<polygon fill="#000000" stroke="#000000" points="220.1048,-61.6264 222.9524,-71.8314 227.0902,-62.078 220.1048,-61.6264"/>
<g id="a_edge18&#45;headlabel"><a xlink:href="dir_000620_000732.html" target="_top" xlink:title="2">
<text text-anchor="middle" x="217.5032" y="-55.3562" font-family="Helvetica,sans-Serif" font-size="10.00" fill="#000000">2</text>
</a>
</g>
</g>
<!-- dir_26637d1bd82229bc9ed97f7e706be743&#45;&gt;dir_bcbb2cf9a3d3d83e5515c82071a07177 -->
<g id="edge19" class="edge">
<title>dir_26637d1bd82229bc9ed97f7e706be743&#45;&gt;dir_bcbb2cf9a3d3d83e5515c82071a07177</title>
<path fill="none" stroke="#000000" d="M242.6946,-36.0006C272.1012,-58.0163 319.4802,-98.0713 345,-144 355.6075,-163.0906 361.4286,-187.1686 364.5589,-205.6152"/>
<polygon fill="#000000" stroke="#000000" points="361.1364,-206.3887 366.1069,-215.7453 368.0561,-205.3313 361.1364,-206.3887"/>
<g id="a_edge19&#45;headlabel"><a xlink:href="dir_000620_000058.html" target="_top" xlink:title="25">
<text text-anchor="middle" x="357.7868" y="-200.7642" font-family="Helvetica,sans-Serif" font-size="10.00" fill="#000000">25</text>
</a>
</g>
</g>
<!-- dir_26637d1bd82229bc9ed97f7e706be743&#45;&gt;dir_2171f7ec022c5423887b07c69b2f5b48 -->
<g id="edge20" class="edge">
<title>dir_26637d1bd82229bc9ed97f7e706be743&#45;&gt;dir_2171f7ec022c5423887b07c69b2f5b48</title>
<path fill="none" stroke="#000000" d="M229.9946,-36.0844C237.1541,-46.3833 245.9846,-59.6576 253,-72 264.5521,-92.324 275.8783,-116.2407 284.0043,-134.3091"/>
<polygon fill="#000000" stroke="#000000" points="280.9114,-135.9682 288.1706,-143.6854 287.3084,-133.1257 280.9114,-135.9682"/>
<g id="a_edge20&#45;headlabel"><a xlink:href="dir_000620_000085.html" target="_top" xlink:title="15">
<text text-anchor="middle" x="276.8572" y="-131.3362" font-family="Helvetica,sans-Serif" font-size="10.00" fill="#000000">15</text>
</a>
</g>
</g>
<!-- dir_2171f7ec022c5423887b07c69b2f5b48&#45;&gt;dir_f511f1e9c03c071966ae594f00bbc5e0 -->
<g id="edge21" class="edge">
<title>dir_2171f7ec022c5423887b07c69b2f5b48&#45;&gt;dir_f511f1e9c03c071966ae594f00bbc5e0</title>
<path fill="none" stroke="#000000" d="M270.1126,-143.8314C259.9022,-135.2848 248.3758,-124.9443 238.6165,-115.6198"/>
<polygon fill="#000000" stroke="#000000" points="240.8301,-112.8898 231.2274,-108.4133 235.9426,-117.901 240.8301,-112.8898"/>
<g id="a_edge21&#45;headlabel"><a xlink:href="dir_000085_000732.html" target="_top" xlink:title="21">
<text text-anchor="middle" x="245.3859" y="-110.867" font-family="Helvetica,sans-Serif" font-size="10.00" fill="#000000">21</text>
</a>
</g>
</g>
<!-- dir_2171f7ec022c5423887b07c69b2f5b48&#45;&gt;dir_bcbb2cf9a3d3d83e5515c82071a07177 -->
<g id="edge22" class="edge">
<title>dir_2171f7ec022c5423887b07c69b2f5b48&#45;&gt;dir_bcbb2cf9a3d3d83e5515c82071a07177</title>
<path fill="none" stroke="#000000" d="M320.1147,-180.1628C329.4722,-188.6891 339.9667,-199.0016 348.8076,-208.3099"/>
<polygon fill="#000000" stroke="#000000" points="346.4173,-210.8796 355.7838,-215.8314 351.5496,-206.1194 346.4173,-210.8796"/>
<g id="a_edge22&#45;headlabel"><a xlink:href="dir_000085_000058.html" target="_top" xlink:title="20">
<text text-anchor="middle" x="341.8912" y="-207.6749" font-family="Helvetica,sans-Serif" font-size="10.00" fill="#000000">20</text>
</a>
</g>
</g>
</g>
</svg>
        <g id="navigator" transform="translate(0 0)" fill="#404254">
                <rect fill="#f2f5e9" fill-opacity="0.5" stroke="#606060" stroke-width=".5" x="0" y="0" width="60" height="60"/>
                <use id="zoomplus" xlink:href="#zoomPlus" x="17" y="9" onmousedown="handleZoom(evt,'in')"/>
                <use id="zoomminus" xlink:href="#zoomMin" x="42" y="9" onmousedown="handleZoom(evt,'out')"/>
                <use id="reset" xlink:href="#resetDef" x="30" y="36" onmousedown="handleReset()"/>
                <g id="arrowUp" xlink:href="#dirArrow" transform="translate(30 24)" onmousedown="handlePan(0,-1)">
                  <use xlink:href="#rim" fill="#404040">
                        <set attributeName="fill" to="#808080" begin="arrowUp.mouseover" end="arrowUp.mouseout"/>
                  </use>
                  <path fill="none" stroke="white" stroke-width="1.5" d="M0,-3.0v7 M-2.5,-0.5L0,-3.0L2.5,-0.5"/>
                </g>
                <g id="arrowRight" xlink:href="#dirArrow" transform="rotate(90) translate(36 -43)" onmousedown="handlePan(1,0)">
                  <use xlink:href="#rim" fill="#404040">
                        <set attributeName="fill" to="#808080" begin="arrowRight.mouseover" end="arrowRight.mouseout"/>
                  </use>
                  <path fill="none" stroke="white" stroke-width="1.5" d="M0,-3.0v7 M-2.5,-0.5L0,-3.0L2.5,-0.5"/>
                </g>
                <g id="arrowDown" xlink:href="#dirArrow" transform="rotate(180) translate(-30 -48)" onmousedown="handlePan(0,1)">
                  <use xlink:href="#rim" fill="#404040">
                        <set attributeName="fill" to="#808080" begin="arrowDown.mouseover" end="arrowDown.mouseout"/>
                  </use>
                  <path fill="none" stroke="white" stroke-width="1.5" d="M0,-3.0v7 M-2.5,-0.5L0,-3.0L2.5,-0.5"/>
                </g>
                <g id="arrowLeft" xlink:href="#dirArrow" transform="rotate(270) translate(-36 17)" onmousedown="handlePan(-1,0)">
                  <use xlink:href="#rim" fill="#404040">
                        <set attributeName="fill" to="#808080" begin="arrowLeft.mouseover" end="arrowLeft.mouseout"/>
                  </use>
                  <path fill="none" stroke="white" stroke-width="1.5" d="M0,-3.0v7 M-2.5,-0.5L0,-3.0L2.5,-0.5"/>
                </g>
        </g>
        <svg viewBox="0 0 15 15" width="100%" height="30px" preserveAspectRatio="xMaxYMin meet">
         <g id="arrow_out" transform="scale(0.3 0.3)">
          <a xlink:href="dir_0c8c50542de1d83a040084fab225b0f7_dep_org.svg" target="_base">
           <rect id="button" ry="5" rx="5" y="6" x="6" height="38" width="38"
                fill="#f2f5e9" fill-opacity="0.5" stroke="#606060" stroke-width="1.0"/>
           <path id="arrow"
             d="M 11.500037,31.436501 C 11.940474,20.09759 22.043105,11.32322 32.158766,21.979434 L 37.068811,17.246167 C 37.068811,17.246167 37.088388,32 37.088388,32 L 22.160133,31.978069 C 22.160133,31.978069 26.997745,27.140456 26.997745,27.140456 C 18.528582,18.264221 13.291696,25.230495 11.500037,31.436501 z"
             style="fill:#404040;"/>
          </a>
         </g>
        </svg>
</svg>
