<?xml version="1.0" encoding="UTF-8" standalone="no"?>
<!DOCTYPE svg PUBLIC "-//W3C//DTD SVG 1.1//EN"
 "http://www.w3.org/Graphics/SVG/1.1/DTD/svg11.dtd">
<!-- Generated by graphviz version 2.40.1 (20161225.0304)
 -->
<!-- Title: /home/travis/build/AliceO2Group/AliceO2/Detectors/MUON/MID/Workflow Pages: 1 -->
<svg width="573pt" height="519pt"
 viewBox="0.00 0.00 573.34 519.00" xmlns="http://www.w3.org/2000/svg" xmlns:xlink="http://www.w3.org/1999/xlink">
<g id="graph0" class="graph" transform="scale(1 1) rotate(0) translate(4 515)">
<title>/home/travis/build/AliceO2Group/AliceO2/Detectors/MUON/MID/Workflow</title>
<g id="clust1" class="cluster">
<title>clusterdir_9e24c537087392bd208449d0b48c466c</title>
<g id="a_clust1"><a xlink:href="dir_9e24c537087392bd208449d0b48c466c.html" target="_top" xlink:title="MID">
<polygon fill="#ddddee" stroke="#000000" points="96,-344 96,-503 262,-503 262,-344 96,-344"/>
<text text-anchor="middle" x="179" y="-491" font-family="Helvetica,sans-Serif" font-size="10.00" fill="#000000">MID</text>
</a>
</g>
</g>
<g id="clust2" class="cluster">
<title>clusterdir_541a9f579a56d3c8f641580c9f97913d</title>
<g id="a_clust2"><a xlink:href="dir_541a9f579a56d3c8f641580c9f97913d.html" target="_top">
<polygon fill="#eeeeff" stroke="#000000" points="104,-352 104,-476 254,-476 254,-352 104,-352"/>
</a>
</g>
</g>
<!-- dir_541a9f579a56d3c8f641580c9f97913d -->
<g id="node1" class="node">
<title>dir_541a9f579a56d3c8f641580c9f97913d</title>
<text text-anchor="middle" x="215" y="-447.5" font-family="Helvetica,sans-Serif" font-size="10.00" fill="#000000">Workflow</text>
</g>
<!-- dir_2bb5eb61d33140858f79122ad9ee2c7f -->
<g id="node2" class="node">
<title>dir_2bb5eb61d33140858f79122ad9ee2c7f</title>
<g id="a_node2"><a xlink:href="dir_2bb5eb61d33140858f79122ad9ee2c7f.html" target="_top" xlink:title="include">
<polygon fill="#ffffff" stroke="#ff0000" points="166,-396 112,-396 112,-360 166,-360 166,-396"/>
<text text-anchor="middle" x="139" y="-375.5" font-family="Helvetica,sans-Serif" font-size="10.00" fill="#000000">include</text>
</a>
</g>
</g>
<!-- dir_ec47f4617e2325ef786d87078c97382a -->
<g id="node10" class="node">
<title>dir_ec47f4617e2325ef786d87078c97382a</title>
<g id="a_node10"><a xlink:href="dir_ec47f4617e2325ef786d87078c97382a.html" target="_top" xlink:title="CTF">
<polygon fill="none" stroke="#ff0000" points="115,-324 61,-324 61,-288 115,-288 115,-324"/>
<text text-anchor="middle" x="88" y="-303.5" font-family="Helvetica,sans-Serif" font-size="10.00" fill="#000000">CTF</text>
</a>
</g>
</g>
<!-- dir_2bb5eb61d33140858f79122ad9ee2c7f&#45;&gt;dir_ec47f4617e2325ef786d87078c97382a -->
<g id="edge7" class="edge">
<title>dir_2bb5eb61d33140858f79122ad9ee2c7f&#45;&gt;dir_ec47f4617e2325ef786d87078c97382a</title>
<path fill="none" stroke="#000000" d="M126.1305,-359.8314C120.3165,-351.6232 113.3304,-341.7606 106.9354,-332.7323"/>
<polygon fill="#000000" stroke="#000000" points="109.679,-330.5505 101.0427,-324.4133 103.9669,-334.5966 109.679,-330.5505"/>
<g id="a_edge7&#45;headlabel"><a xlink:href="dir_000396_000478.html" target="_top" xlink:title="2">
<text text-anchor="middle" x="114.0737" y="-329.3426" font-family="Helvetica,sans-Serif" font-size="10.00" fill="#000000">2</text>
</a>
</g>
</g>
<!-- dir_bcbb2cf9a3d3d83e5515c82071a07177 -->
<g id="node11" class="node">
<title>dir_bcbb2cf9a3d3d83e5515c82071a07177</title>
<g id="a_node11"><a xlink:href="dir_bcbb2cf9a3d3d83e5515c82071a07177.html" target="_top" xlink:title="Framework">
<polygon fill="none" stroke="#ff0000" points="269.5,-180 198.5,-180 198.5,-144 269.5,-144 269.5,-180"/>
<text text-anchor="middle" x="234" y="-159.5" font-family="Helvetica,sans-Serif" font-size="10.00" fill="#000000">Framework</text>
</a>
</g>
</g>
<!-- dir_2bb5eb61d33140858f79122ad9ee2c7f&#45;&gt;dir_bcbb2cf9a3d3d83e5515c82071a07177 -->
<g id="edge8" class="edge">
<title>dir_2bb5eb61d33140858f79122ad9ee2c7f&#45;&gt;dir_bcbb2cf9a3d3d83e5515c82071a07177</title>
<path fill="none" stroke="#000000" d="M146.9362,-359.9555C163.5612,-322.1556 202.1352,-234.4506 221.8803,-189.5564"/>
<polygon fill="#000000" stroke="#000000" points="225.1973,-190.708 226.0195,-180.1451 218.7897,-187.8897 225.1973,-190.708"/>
<g id="a_edge8&#45;headlabel"><a xlink:href="dir_000396_000058.html" target="_top" xlink:title="17">
<text text-anchor="middle" x="226.3492" y="-192.6414" font-family="Helvetica,sans-Serif" font-size="10.00" fill="#000000">17</text>
</a>
</g>
</g>
<!-- dir_d175ccbdd0bad50605561880a8518417 -->
<g id="node3" class="node">
<title>dir_d175ccbdd0bad50605561880a8518417</title>
<g id="a_node3"><a xlink:href="dir_d175ccbdd0bad50605561880a8518417.html" target="_top" xlink:title="src">
<polygon fill="#ffffff" stroke="#000000" points="166,-468 112,-468 112,-432 166,-432 166,-468"/>
<text text-anchor="middle" x="139" y="-447.5" font-family="Helvetica,sans-Serif" font-size="10.00" fill="#000000">src</text>
</a>
</g>
</g>
<!-- dir_d175ccbdd0bad50605561880a8518417&#45;&gt;dir_2bb5eb61d33140858f79122ad9ee2c7f -->
<g id="edge28" class="edge">
<title>dir_d175ccbdd0bad50605561880a8518417&#45;&gt;dir_2bb5eb61d33140858f79122ad9ee2c7f</title>
<path fill="none" stroke="#000000" d="M139,-431.8314C139,-424.131 139,-414.9743 139,-406.4166"/>
<polygon fill="#000000" stroke="#000000" points="142.5001,-406.4132 139,-396.4133 135.5001,-406.4133 142.5001,-406.4132"/>
<g id="a_edge28&#45;headlabel"><a xlink:href="dir_000418_000396.html" target="_top" xlink:title="27">
<text text-anchor="middle" x="145.3393" y="-407.5079" font-family="Helvetica,sans-Serif" font-size="10.00" fill="#000000">27</text>
</a>
</g>
</g>
<!-- dir_4ab6b4cc6a7edbff49100e9123df213f -->
<g id="node4" class="node">
<title>dir_4ab6b4cc6a7edbff49100e9123df213f</title>
<g id="a_node4"><a xlink:href="dir_4ab6b4cc6a7edbff49100e9123df213f.html" target="_top" xlink:title="Common">
<polygon fill="none" stroke="#ff0000" points="165.5,-252 104.5,-252 104.5,-216 165.5,-216 165.5,-252"/>
<text text-anchor="middle" x="135" y="-231.5" font-family="Helvetica,sans-Serif" font-size="10.00" fill="#000000">Common</text>
</a>
</g>
</g>
<!-- dir_d175ccbdd0bad50605561880a8518417&#45;&gt;dir_4ab6b4cc6a7edbff49100e9123df213f -->
<g id="edge25" class="edge">
<title>dir_d175ccbdd0bad50605561880a8518417&#45;&gt;dir_4ab6b4cc6a7edbff49100e9123df213f</title>
<path fill="none" stroke="#000000" d="M154.9905,-431.9169C162.6538,-422.0371 171.0166,-409.1563 175,-396 189.2117,-349.0619 167.1355,-293.3604 150.5499,-261.0117"/>
<polygon fill="#000000" stroke="#000000" points="153.6221,-259.3342 145.839,-252.1456 147.4405,-262.6187 153.6221,-259.3342"/>
<g id="a_edge25&#45;headlabel"><a xlink:href="dir_000418_000032.html" target="_top" xlink:title="5">
<text text-anchor="middle" x="157.816" y="-258.6763" font-family="Helvetica,sans-Serif" font-size="10.00" fill="#000000">5</text>
</a>
</g>
</g>
<!-- dir_754f2fe7806627988f6bd801b7f2fe5b -->
<g id="node5" class="node">
<title>dir_754f2fe7806627988f6bd801b7f2fe5b</title>
<g id="a_node5"><a xlink:href="dir_754f2fe7806627988f6bd801b7f2fe5b.html" target="_top" xlink:title="Clustering">
<polygon fill="none" stroke="#ff0000" points="474,-252 408,-252 408,-216 474,-216 474,-252"/>
<text text-anchor="middle" x="441" y="-231.5" font-family="Helvetica,sans-Serif" font-size="10.00" fill="#000000">Clustering</text>
</a>
</g>
</g>
<!-- dir_d175ccbdd0bad50605561880a8518417&#45;&gt;dir_754f2fe7806627988f6bd801b7f2fe5b -->
<g id="edge26" class="edge">
<title>dir_d175ccbdd0bad50605561880a8518417&#45;&gt;dir_754f2fe7806627988f6bd801b7f2fe5b</title>
<path fill="none" stroke="#000000" d="M166.1619,-435.3754C169.0956,-434.112 172.0772,-432.9541 175,-432 266.2692,-402.2055 304.5706,-443.5112 388,-396 424.4452,-375.2453 434.562,-363.3771 449,-324 456.3018,-304.0858 453.6584,-280.1003 449.5385,-261.9"/>
<polygon fill="#000000" stroke="#000000" points="452.9268,-261.0221 447.0792,-252.1871 446.1409,-262.7403 452.9268,-261.0221"/>
<g id="a_edge26&#45;headlabel"><a xlink:href="dir_000418_000443.html" target="_top" xlink:title="5">
<text text-anchor="middle" x="456.5614" y="-261.3099" font-family="Helvetica,sans-Serif" font-size="10.00" fill="#000000">5</text>
</a>
</g>
</g>
<!-- dir_37c90836491b695b472bf98d1be8336b -->
<g id="node6" class="node">
<title>dir_37c90836491b695b472bf98d1be8336b</title>
<g id="a_node6"><a xlink:href="dir_37c90836491b695b472bf98d1be8336b.html" target="_top" xlink:title="Base">
<polygon fill="none" stroke="#ff0000" points="193,-36 139,-36 139,0 193,0 193,-36"/>
<text text-anchor="middle" x="166" y="-15.5" font-family="Helvetica,sans-Serif" font-size="10.00" fill="#000000">Base</text>
</a>
</g>
</g>
<!-- dir_d175ccbdd0bad50605561880a8518417&#45;&gt;dir_37c90836491b695b472bf98d1be8336b -->
<g id="edge27" class="edge">
<title>dir_d175ccbdd0bad50605561880a8518417&#45;&gt;dir_37c90836491b695b472bf98d1be8336b</title>
<path fill="none" stroke="#000000" d="M111.8694,-437.2351C71.4179,-416.1013 0,-369.7607 0,-306 0,-306 0,-306 0,-162 0,-93.8633 80.7906,-50.7119 129.6476,-30.8461"/>
<polygon fill="#000000" stroke="#000000" points="130.9352,-34.1008 138.9598,-27.183 128.3726,-27.5866 130.9352,-34.1008"/>
<g id="a_edge27&#45;headlabel"><a xlink:href="dir_000418_000280.html" target="_top" xlink:title="2">
<text text-anchor="middle" x="128.6294" y="-35.5588" font-family="Helvetica,sans-Serif" font-size="10.00" fill="#000000">2</text>
</a>
</g>
</g>
<!-- dir_55bb03bc4479a61c5f6db133927cb48c -->
<g id="node7" class="node">
<title>dir_55bb03bc4479a61c5f6db133927cb48c</title>
<g id="a_node7"><a xlink:href="dir_55bb03bc4479a61c5f6db133927cb48c.html" target="_top" xlink:title="Raw">
<polygon fill="none" stroke="#ff0000" points="314,-252 260,-252 260,-216 314,-216 314,-252"/>
<text text-anchor="middle" x="287" y="-231.5" font-family="Helvetica,sans-Serif" font-size="10.00" fill="#000000">Raw</text>
</a>
</g>
</g>
<!-- dir_d175ccbdd0bad50605561880a8518417&#45;&gt;dir_55bb03bc4479a61c5f6db133927cb48c -->
<g id="edge29" class="edge">
<title>dir_d175ccbdd0bad50605561880a8518417&#45;&gt;dir_55bb03bc4479a61c5f6db133927cb48c</title>
<path fill="none" stroke="#000000" d="M166.1635,-436.376C197.7487,-420.5222 245.6513,-396.4351 246,-396 277.2418,-357.0204 285.0051,-297.1878 286.7397,-262.1884"/>
<polygon fill="#000000" stroke="#000000" points="290.2381,-262.2949 287.1038,-252.1743 283.2427,-262.0405 290.2381,-262.2949"/>
<g id="a_edge29&#45;headlabel"><a xlink:href="dir_000418_000595.html" target="_top" xlink:title="8">
<text text-anchor="middle" x="292.945" y="-263.4903" font-family="Helvetica,sans-Serif" font-size="10.00" fill="#000000">8</text>
</a>
</g>
</g>
<!-- dir_2810eaf0225063d73e08d8eeeb8a37b8 -->
<g id="node8" class="node">
<title>dir_2810eaf0225063d73e08d8eeeb8a37b8</title>
<g id="a_node8"><a xlink:href="dir_2810eaf0225063d73e08d8eeeb8a37b8.html" target="_top" xlink:title="Simulation">
<polygon fill="none" stroke="#ff0000" points="439.5,-324 370.5,-324 370.5,-288 439.5,-288 439.5,-324"/>
<text text-anchor="middle" x="405" y="-303.5" font-family="Helvetica,sans-Serif" font-size="10.00" fill="#000000">Simulation</text>
</a>
</g>
</g>
<!-- dir_d175ccbdd0bad50605561880a8518417&#45;&gt;dir_2810eaf0225063d73e08d8eeeb8a37b8 -->
<g id="edge30" class="edge">
<title>dir_d175ccbdd0bad50605561880a8518417&#45;&gt;dir_2810eaf0225063d73e08d8eeeb8a37b8</title>
<path fill="none" stroke="#000000" d="M166.1908,-435.4621C169.119,-434.1818 172.0913,-432.9963 175,-432 252.5948,-405.4227 289.9329,-444.605 356,-396 376.5954,-380.8481 389.5097,-354.3434 396.8761,-334.0082"/>
<polygon fill="#000000" stroke="#000000" points="400.2661,-334.9083 400.1449,-324.3142 393.6331,-332.6716 400.2661,-334.9083"/>
<g id="a_edge30&#45;headlabel"><a xlink:href="dir_000418_000191.html" target="_top" xlink:title="9">
<text text-anchor="middle" x="401.808" y="-336.7217" font-family="Helvetica,sans-Serif" font-size="10.00" fill="#000000">9</text>
</a>
</g>
</g>
<!-- dir_c6781640d5720511e35c6e7f87460ee7 -->
<g id="node9" class="node">
<title>dir_c6781640d5720511e35c6e7f87460ee7</title>
<g id="a_node9"><a xlink:href="dir_c6781640d5720511e35c6e7f87460ee7.html" target="_top" xlink:title="Tracking">
<polygon fill="none" stroke="#ff0000" points="549.5,-252 492.5,-252 492.5,-216 549.5,-216 549.5,-252"/>
<text text-anchor="middle" x="521" y="-231.5" font-family="Helvetica,sans-Serif" font-size="10.00" fill="#000000">Tracking</text>
</a>
</g>
</g>
<!-- dir_d175ccbdd0bad50605561880a8518417&#45;&gt;dir_c6781640d5720511e35c6e7f87460ee7 -->
<g id="edge31" class="edge">
<title>dir_d175ccbdd0bad50605561880a8518417&#45;&gt;dir_c6781640d5720511e35c6e7f87460ee7</title>
<path fill="none" stroke="#000000" d="M166.1368,-435.2968C169.0754,-434.0488 172.065,-432.9159 175,-432 283.4202,-398.165 333.9732,-459.7081 428,-396 475.3632,-363.909 501.6129,-299.1159 513.3565,-261.9314"/>
<polygon fill="#000000" stroke="#000000" points="516.747,-262.8106 516.2896,-252.2256 510.0463,-260.7856 516.747,-262.8106"/>
<g id="a_edge31&#45;headlabel"><a xlink:href="dir_000418_000548.html" target="_top" xlink:title="2">
<text text-anchor="middle" x="518.4251" y="-264.5729" font-family="Helvetica,sans-Serif" font-size="10.00" fill="#000000">2</text>
</a>
</g>
</g>
<!-- dir_d175ccbdd0bad50605561880a8518417&#45;&gt;dir_bcbb2cf9a3d3d83e5515c82071a07177 -->
<g id="edge32" class="edge">
<title>dir_d175ccbdd0bad50605561880a8518417&#45;&gt;dir_bcbb2cf9a3d3d83e5515c82071a07177</title>
<path fill="none" stroke="#000000" d="M162.3973,-431.848C173.0695,-422.3205 184.8859,-409.7716 192,-396 227.0745,-328.1026 233.3834,-236.0122 234.1891,-190.2429"/>
<polygon fill="#000000" stroke="#000000" points="237.6896,-190.1987 234.2887,-180.1646 230.6899,-190.1295 237.6896,-190.1987"/>
<g id="a_edge32&#45;headlabel"><a xlink:href="dir_000418_000058.html" target="_top" xlink:title="65">
<text text-anchor="middle" x="240.4933" y="-191.3212" font-family="Helvetica,sans-Serif" font-size="10.00" fill="#000000">65</text>
</a>
</g>
</g>
<!-- dir_2171f7ec022c5423887b07c69b2f5b48 -->
<g id="node12" class="node">
<title>dir_2171f7ec022c5423887b07c69b2f5b48</title>
<g id="a_node12"><a xlink:href="dir_2171f7ec022c5423887b07c69b2f5b48.html" target="_top" xlink:title="DataFormats">
<polygon fill="none" stroke="#ff0000" points="274,-108 194,-108 194,-72 274,-72 274,-108"/>
<text text-anchor="middle" x="234" y="-87.5" font-family="Helvetica,sans-Serif" font-size="10.00" fill="#000000">DataFormats</text>
</a>
</g>
</g>
<!-- dir_d175ccbdd0bad50605561880a8518417&#45;&gt;dir_2171f7ec022c5423887b07c69b2f5b48 -->
<g id="edge33" class="edge">
<title>dir_d175ccbdd0bad50605561880a8518417&#45;&gt;dir_2171f7ec022c5423887b07c69b2f5b48</title>
<path fill="none" stroke="#000000" d="M166.3684,-435.9214C169.2619,-434.5515 172.1776,-433.2195 175,-432 260.3518,-395.1218 342,-398.9782 342,-306 342,-306 342,-306 342,-234 342,-184.0854 299.9566,-140.3996 268.3342,-114.6011"/>
<polygon fill="#000000" stroke="#000000" points="270.158,-111.5811 260.1438,-108.1217 265.815,-117.071 270.158,-111.5811"/>
<g id="a_edge33&#45;headlabel"><a xlink:href="dir_000418_000085.html" target="_top" xlink:title="24">
<text text-anchor="middle" x="274.7386" y="-109.0845" font-family="Helvetica,sans-Serif" font-size="10.00" fill="#000000">24</text>
</a>
</g>
</g>
<!-- dir_4ab6b4cc6a7edbff49100e9123df213f&#45;&gt;dir_bcbb2cf9a3d3d83e5515c82071a07177 -->
<g id="edge1" class="edge">
<title>dir_4ab6b4cc6a7edbff49100e9123df213f&#45;&gt;dir_bcbb2cf9a3d3d83e5515c82071a07177</title>
<path fill="none" stroke="#000000" d="M154.0295,-215.8314C165.5769,-206.7927 180.6125,-195.7476 194.5666,-186.0198"/>
<polygon fill="#000000" stroke="#000000" points="196.8221,-188.7163 203.0743,-180.1628 192.8527,-182.9505 196.8221,-188.7163"/>
<g id="a_edge1&#45;headlabel"><a xlink:href="dir_000032_000058.html" target="_top" xlink:title="2">
<text text-anchor="middle" x="195.4713" y="-190.5932" font-family="Helvetica,sans-Serif" font-size="10.00" fill="#000000">2</text>
</a>
</g>
</g>
<!-- dir_4ab6b4cc6a7edbff49100e9123df213f&#45;&gt;dir_2171f7ec022c5423887b07c69b2f5b48 -->
<g id="edge2" class="edge">
<title>dir_4ab6b4cc6a7edbff49100e9123df213f&#45;&gt;dir_2171f7ec022c5423887b07c69b2f5b48</title>
<path fill="none" stroke="#000000" d="M138.0104,-215.898C146.0335,-197.3487 163.012,-167.9179 180,-144 186.7773,-134.458 194.7924,-124.4866 202.6398,-115.7467"/>
<polygon fill="#000000" stroke="#000000" points="205.2043,-118.1286 209.4576,-108.425 200.0813,-113.3583 205.2043,-118.1286"/>
<g id="a_edge2&#45;headlabel"><a xlink:href="dir_000032_000085.html" target="_top" xlink:title="2">
<text text-anchor="middle" x="204.8326" y="-120.1942" font-family="Helvetica,sans-Serif" font-size="10.00" fill="#000000">2</text>
</a>
</g>
</g>
<!-- dir_754f2fe7806627988f6bd801b7f2fe5b&#45;&gt;dir_2171f7ec022c5423887b07c69b2f5b48 -->
<g id="edge3" class="edge">
<title>dir_754f2fe7806627988f6bd801b7f2fe5b&#45;&gt;dir_2171f7ec022c5423887b07c69b2f5b48</title>
<path fill="none" stroke="#000000" d="M436.0198,-215.8674C429.5565,-195.603 416.372,-163.1328 394,-144 363.1067,-117.5797 318.7413,-103.9378 284.5602,-96.9828"/>
<polygon fill="#000000" stroke="#000000" points="284.7833,-93.4626 274.3054,-95.0323 283.4753,-100.3393 284.7833,-93.4626"/>
<g id="a_edge3&#45;headlabel"><a xlink:href="dir_000443_000085.html" target="_top" xlink:title="5">
<text text-anchor="middle" x="288.8451" y="-88.8449" font-family="Helvetica,sans-Serif" font-size="10.00" fill="#000000">5</text>
</a>
</g>
</g>
<!-- dir_37c90836491b695b472bf98d1be8336b&#45;&gt;dir_4ab6b4cc6a7edbff49100e9123df213f -->
<g id="edge4" class="edge">
<title>dir_37c90836491b695b472bf98d1be8336b&#45;&gt;dir_4ab6b4cc6a7edbff49100e9123df213f</title>
<path fill="none" stroke="#000000" d="M163.3958,-36.1451C157.981,-73.8741 145.4757,-161.0083 139.0192,-205.9956"/>
<polygon fill="#000000" stroke="#000000" points="135.5459,-205.5597 137.5897,-215.9555 142.4749,-206.5542 135.5459,-205.5597"/>
<g id="a_edge4&#45;headlabel"><a xlink:href="dir_000280_000032.html" target="_top" xlink:title="16">
<text text-anchor="middle" x="133.246" y="-199.0982" font-family="Helvetica,sans-Serif" font-size="10.00" fill="#000000">16</text>
</a>
</g>
</g>
<!-- dir_37c90836491b695b472bf98d1be8336b&#45;&gt;dir_bcbb2cf9a3d3d83e5515c82071a07177 -->
<g id="edge5" class="edge">
<title>dir_37c90836491b695b472bf98d1be8336b&#45;&gt;dir_bcbb2cf9a3d3d83e5515c82071a07177</title>
<path fill="none" stroke="#000000" d="M167.0418,-36.1743C168.7453,-55.0422 173.2266,-84.9638 185,-108 190.2931,-118.3566 198.0981,-128.2346 205.9303,-136.6437"/>
<polygon fill="#000000" stroke="#000000" points="203.5626,-139.2284 213.0595,-143.925 208.5643,-134.3311 203.5626,-139.2284"/>
<g id="a_edge5&#45;headlabel"><a xlink:href="dir_000280_000058.html" target="_top" xlink:title="1">
<text text-anchor="middle" x="199.0191" y="-136.1463" font-family="Helvetica,sans-Serif" font-size="10.00" fill="#000000">1</text>
</a>
</g>
</g>
<!-- dir_37c90836491b695b472bf98d1be8336b&#45;&gt;dir_2171f7ec022c5423887b07c69b2f5b48 -->
<g id="edge6" class="edge">
<title>dir_37c90836491b695b472bf98d1be8336b&#45;&gt;dir_2171f7ec022c5423887b07c69b2f5b48</title>
<path fill="none" stroke="#000000" d="M189.1056,-36.1628C197.9006,-44.6038 207.7127,-54.7956 215.9846,-64.0303"/>
<polygon fill="#000000" stroke="#000000" points="213.5806,-66.5987 222.7931,-71.8314 218.8545,-61.9958 213.5806,-66.5987"/>
<g id="a_edge6&#45;headlabel"><a xlink:href="dir_000280_000085.html" target="_top" xlink:title="15">
<text text-anchor="middle" x="209.0779" y="-63.2575" font-family="Helvetica,sans-Serif" font-size="10.00" fill="#000000">15</text>
</a>
</g>
</g>
<!-- dir_55bb03bc4479a61c5f6db133927cb48c&#45;&gt;dir_bcbb2cf9a3d3d83e5515c82071a07177 -->
<g id="edge9" class="edge">
<title>dir_55bb03bc4479a61c5f6db133927cb48c&#45;&gt;dir_bcbb2cf9a3d3d83e5515c82071a07177</title>
<path fill="none" stroke="#000000" d="M273.6259,-215.8314C267.5838,-207.6232 260.3237,-197.7606 253.6779,-188.7323"/>
<polygon fill="#000000" stroke="#000000" points="256.3011,-186.3918 247.5542,-180.4133 250.6637,-190.5415 256.3011,-186.3918"/>
<g id="a_edge9&#45;headlabel"><a xlink:href="dir_000595_000058.html" target="_top" xlink:title="7">
<text text-anchor="middle" x="260.7186" y="-185.1035" font-family="Helvetica,sans-Serif" font-size="10.00" fill="#000000">7</text>
</a>
</g>
</g>
<!-- dir_55bb03bc4479a61c5f6db133927cb48c&#45;&gt;dir_2171f7ec022c5423887b07c69b2f5b48 -->
<g id="edge10" class="edge">
<title>dir_55bb03bc4479a61c5f6db133927cb48c&#45;&gt;dir_2171f7ec022c5423887b07c69b2f5b48</title>
<path fill="none" stroke="#000000" d="M288.4958,-215.6604C289.32,-196.9217 288.6415,-167.3427 279,-144 274.7634,-133.7429 267.8584,-123.959 260.7153,-115.6064"/>
<polygon fill="#000000" stroke="#000000" points="263.1858,-113.1205 253.8732,-108.0681 258.0024,-117.8251 263.1858,-113.1205"/>
<g id="a_edge10&#45;headlabel"><a xlink:href="dir_000595_000085.html" target="_top" xlink:title="20">
<text text-anchor="middle" x="267.704" y="-111.374" font-family="Helvetica,sans-Serif" font-size="10.00" fill="#000000">20</text>
</a>
</g>
</g>
<!-- dir_2810eaf0225063d73e08d8eeeb8a37b8&#45;&gt;dir_4ab6b4cc6a7edbff49100e9123df213f -->
<g id="edge11" class="edge">
<title>dir_2810eaf0225063d73e08d8eeeb8a37b8&#45;&gt;dir_4ab6b4cc6a7edbff49100e9123df213f</title>
<path fill="none" stroke="#000000" d="M370.255,-296.7347C320.3462,-283.4257 228.5569,-258.9485 175.5916,-244.8244"/>
<polygon fill="#000000" stroke="#000000" points="176.4205,-241.4232 165.8563,-242.2283 174.6168,-248.1869 176.4205,-241.4232"/>
<g id="a_edge11&#45;headlabel"><a xlink:href="dir_000191_000032.html" target="_top" xlink:title="6">
<text text-anchor="middle" x="180.6253" y="-237.1059" font-family="Helvetica,sans-Serif" font-size="10.00" fill="#000000">6</text>
</a>
</g>
</g>
<!-- dir_2810eaf0225063d73e08d8eeeb8a37b8&#45;&gt;dir_754f2fe7806627988f6bd801b7f2fe5b -->
<g id="edge12" class="edge">
<title>dir_2810eaf0225063d73e08d8eeeb8a37b8&#45;&gt;dir_754f2fe7806627988f6bd801b7f2fe5b</title>
<path fill="none" stroke="#000000" d="M414.0843,-287.8314C418.0615,-279.8771 422.8155,-270.369 427.2139,-261.5723"/>
<polygon fill="#000000" stroke="#000000" points="430.4517,-262.9228 431.7934,-252.4133 424.1907,-259.7923 430.4517,-262.9228"/>
<g id="a_edge12&#45;headlabel"><a xlink:href="dir_000191_000443.html" target="_top" xlink:title="5">
<text text-anchor="middle" x="431.3837" y="-264.9077" font-family="Helvetica,sans-Serif" font-size="10.00" fill="#000000">5</text>
</a>
</g>
</g>
<!-- dir_2810eaf0225063d73e08d8eeeb8a37b8&#45;&gt;dir_37c90836491b695b472bf98d1be8336b -->
<g id="edge13" class="edge">
<title>dir_2810eaf0225063d73e08d8eeeb8a37b8&#45;&gt;dir_37c90836491b695b472bf98d1be8336b</title>
<path fill="none" stroke="#000000" d="M439.6661,-298.7116C480.6089,-289.3182 544.9478,-271.8185 559,-252 568.2545,-238.948 566.328,-230.2232 559,-216 488.7849,-79.7158 287.1751,-35.4287 203.3025,-22.651"/>
<polygon fill="#000000" stroke="#000000" points="203.6067,-19.1584 193.2064,-21.1796 202.5971,-26.0852 203.6067,-19.1584"/>
<g id="a_edge13&#45;headlabel"><a xlink:href="dir_000191_000280.html" target="_top" xlink:title="3">
<text text-anchor="middle" x="207.5731" y="-14.3671" font-family="Helvetica,sans-Serif" font-size="10.00" fill="#000000">3</text>
</a>
</g>
</g>
<!-- dir_2810eaf0225063d73e08d8eeeb8a37b8&#45;&gt;dir_c6781640d5720511e35c6e7f87460ee7 -->
<g id="edge14" class="edge">
<title>dir_2810eaf0225063d73e08d8eeeb8a37b8&#45;&gt;dir_c6781640d5720511e35c6e7f87460ee7</title>
<path fill="none" stroke="#000000" d="M434.2717,-287.8314C449.2221,-278.5518 467.5795,-267.1576 483.5496,-257.2451"/>
<polygon fill="#000000" stroke="#000000" points="485.4889,-260.1608 492.1395,-251.9134 481.7973,-254.2133 485.4889,-260.1608"/>
<g id="a_edge14&#45;headlabel"><a xlink:href="dir_000191_000548.html" target="_top" xlink:title="1">
<text text-anchor="middle" x="483.9321" y="-261.9688" font-family="Helvetica,sans-Serif" font-size="10.00" fill="#000000">1</text>
</a>
</g>
</g>
<!-- dir_2810eaf0225063d73e08d8eeeb8a37b8&#45;&gt;dir_2171f7ec022c5423887b07c69b2f5b48 -->
<g id="edge15" class="edge">
<title>dir_2810eaf0225063d73e08d8eeeb8a37b8&#45;&gt;dir_2171f7ec022c5423887b07c69b2f5b48</title>
<path fill="none" stroke="#000000" d="M401.5038,-287.8933C393.9474,-250.3561 375.2179,-165.7395 356,-144 337.2426,-122.7814 308.5727,-109.5131 283.7378,-101.4412"/>
<polygon fill="#000000" stroke="#000000" points="284.6688,-98.066 274.0827,-98.4949 282.6258,-104.7612 284.6688,-98.066"/>
<g id="a_edge15&#45;headlabel"><a xlink:href="dir_000191_000085.html" target="_top" xlink:title="25">
<text text-anchor="middle" x="288.9356" y="-93.8994" font-family="Helvetica,sans-Serif" font-size="10.00" fill="#000000">25</text>
</a>
</g>
</g>
<!-- dir_c6781640d5720511e35c6e7f87460ee7&#45;&gt;dir_2171f7ec022c5423887b07c69b2f5b48 -->
<g id="edge16" class="edge">
<title>dir_c6781640d5720511e35c6e7f87460ee7&#45;&gt;dir_2171f7ec022c5423887b07c69b2f5b48</title>
<path fill="none" stroke="#000000" d="M505.5089,-215.797C487.2654,-195.468 455.1,-162.9386 421,-144 378.0177,-120.1283 323.4881,-105.9483 284.4214,-98.1546"/>
<polygon fill="#000000" stroke="#000000" points="284.8189,-94.667 274.3379,-96.2159 283.4971,-101.5411 284.8189,-94.667"/>
<g id="a_edge16&#45;headlabel"><a xlink:href="dir_000548_000085.html" target="_top" xlink:title="8">
<text text-anchor="middle" x="288.8849" y="-90.0574" font-family="Helvetica,sans-Serif" font-size="10.00" fill="#000000">8</text>
</a>
</g>
</g>
<!-- dir_ec47f4617e2325ef786d87078c97382a&#45;&gt;dir_4ab6b4cc6a7edbff49100e9123df213f -->
<g id="edge17" class="edge">
<title>dir_ec47f4617e2325ef786d87078c97382a&#45;&gt;dir_4ab6b4cc6a7edbff49100e9123df213f</title>
<path fill="none" stroke="#000000" d="M99.8601,-287.8314C105.1629,-279.7079 111.5237,-269.9637 117.3673,-261.0118"/>
<polygon fill="#000000" stroke="#000000" points="120.4448,-262.7003 122.9802,-252.4133 114.5831,-258.8739 120.4448,-262.7003"/>
<g id="a_edge17&#45;headlabel"><a xlink:href="dir_000478_000032.html" target="_top" xlink:title="1">
<text text-anchor="middle" x="120.8575" y="-264.7623" font-family="Helvetica,sans-Serif" font-size="10.00" fill="#000000">1</text>
</a>
</g>
</g>
<!-- dir_ec47f4617e2325ef786d87078c97382a&#45;&gt;dir_37c90836491b695b472bf98d1be8336b -->
<g id="edge18" class="edge">
<title>dir_ec47f4617e2325ef786d87078c97382a&#45;&gt;dir_37c90836491b695b472bf98d1be8336b</title>
<path fill="none" stroke="#000000" d="M84.3352,-287.8792C81.2505,-269.5665 78.0631,-240.547 83,-216 95.9191,-151.7636 130.2329,-82.3835 150.4668,-45.2136"/>
<polygon fill="#000000" stroke="#000000" points="153.7584,-46.4932 155.5286,-36.0472 147.6306,-43.1093 153.7584,-46.4932"/>
<g id="a_edge18&#45;headlabel"><a xlink:href="dir_000478_000280.html" target="_top" xlink:title="1">
<text text-anchor="middle" x="154.5063" y="-48.5124" font-family="Helvetica,sans-Serif" font-size="10.00" fill="#000000">1</text>
</a>
</g>
</g>
<!-- dir_ec47f4617e2325ef786d87078c97382a&#45;&gt;dir_2171f7ec022c5423887b07c69b2f5b48 -->
<g id="edge19" class="edge">
<title>dir_ec47f4617e2325ef786d87078c97382a&#45;&gt;dir_2171f7ec022c5423887b07c69b2f5b48</title>
<path fill="none" stroke="#000000" d="M85.9769,-287.8964C84.6414,-269.0862 84.7117,-239.211 95,-216 114.9307,-171.0352 159.7125,-135.2761 193.093,-113.5076"/>
<polygon fill="#000000" stroke="#000000" points="195.1804,-116.3281 201.7428,-108.0104 191.4257,-110.4202 195.1804,-116.3281"/>
<g id="a_edge19&#45;headlabel"><a xlink:href="dir_000478_000085.html" target="_top" xlink:title="7">
<text text-anchor="middle" x="193.6695" y="-118.1524" font-family="Helvetica,sans-Serif" font-size="10.00" fill="#000000">7</text>
</a>
</g>
</g>
<!-- dir_bcbb2cf9a3d3d83e5515c82071a07177&#45;&gt;dir_4ab6b4cc6a7edbff49100e9123df213f -->
<g id="edge20" class="edge">
<title>dir_bcbb2cf9a3d3d83e5515c82071a07177&#45;&gt;dir_4ab6b4cc6a7edbff49100e9123df213f</title>
<path fill="none" stroke="#000000" d="M215.1818,-180.0032C203.5557,-189.1125 188.3387,-200.2914 174.2471,-210.1101"/>
<polygon fill="#000000" stroke="#000000" points="171.9156,-207.4657 165.6607,-216.0171 175.8831,-213.2328 171.9156,-207.4657"/>
<g id="a_edge20&#45;headlabel"><a xlink:href="dir_000058_000032.html" target="_top" xlink:title="8">
<text text-anchor="middle" x="173.2679" y="-200.5892" font-family="Helvetica,sans-Serif" font-size="10.00" fill="#000000">8</text>
</a>
</g>
</g>
<!-- dir_bcbb2cf9a3d3d83e5515c82071a07177&#45;&gt;dir_2171f7ec022c5423887b07c69b2f5b48 -->
<g id="edge21" class="edge">
<title>dir_bcbb2cf9a3d3d83e5515c82071a07177&#45;&gt;dir_2171f7ec022c5423887b07c69b2f5b48</title>
<path fill="none" stroke="#000000" d="M228.0476,-143.8314C227.2972,-136.131 227.0763,-126.9743 227.3849,-118.4166"/>
<polygon fill="#000000" stroke="#000000" points="230.8792,-118.6161 228.024,-108.4133 223.8935,-118.1697 230.8792,-118.6161"/>
<g id="a_edge21&#45;headlabel"><a xlink:href="dir_000058_000085.html" target="_top" xlink:title="72">
<text text-anchor="middle" x="233.4836" y="-119.8844" font-family="Helvetica,sans-Serif" font-size="10.00" fill="#000000">72</text>
</a>
</g>
</g>
<!-- dir_2171f7ec022c5423887b07c69b2f5b48&#45;&gt;dir_4ab6b4cc6a7edbff49100e9123df213f -->
<g id="edge22" class="edge">
<title>dir_2171f7ec022c5423887b07c69b2f5b48&#45;&gt;dir_4ab6b4cc6a7edbff49100e9123df213f</title>
<path fill="none" stroke="#000000" d="M225.412,-108.425C217.5943,-118.6079 206.7626,-131.6628 198,-144 183.401,-164.5545 168.8089,-189.1803 157.0599,-207.4726"/>
<polygon fill="#000000" stroke="#000000" points="154.0914,-205.6167 151.5329,-215.898 159.9445,-209.4562 154.0914,-205.6167"/>
<g id="a_edge22&#45;headlabel"><a xlink:href="dir_000085_000032.html" target="_top" xlink:title="37">
<text text-anchor="middle" x="153.6889" y="-198.5538" font-family="Helvetica,sans-Serif" font-size="10.00" fill="#000000">37</text>
</a>
</g>
</g>
<!-- dir_2171f7ec022c5423887b07c69b2f5b48&#45;&gt;dir_37c90836491b695b472bf98d1be8336b -->
<g id="edge23" class="edge">
<title>dir_2171f7ec022c5423887b07c69b2f5b48&#45;&gt;dir_37c90836491b695b472bf98d1be8336b</title>
<path fill="none" stroke="#000000" d="M210.8883,-71.8314C202.16,-63.454 192.4306,-53.3531 184.1994,-44.1749"/>
<polygon fill="#000000" stroke="#000000" points="186.631,-41.6386 177.4143,-36.4133 181.3608,-46.2457 186.631,-41.6386"/>
<g id="a_edge23&#45;headlabel"><a xlink:href="dir_000085_000280.html" target="_top" xlink:title="1">
<text text-anchor="middle" x="191.1344" y="-39.9762" font-family="Helvetica,sans-Serif" font-size="10.00" fill="#000000">1</text>
</a>
</g>
</g>
<!-- dir_2171f7ec022c5423887b07c69b2f5b48&#45;&gt;dir_bcbb2cf9a3d3d83e5515c82071a07177 -->
<g id="edge24" class="edge">
<title>dir_2171f7ec022c5423887b07c69b2f5b48&#45;&gt;dir_bcbb2cf9a3d3d83e5515c82071a07177</title>
<path fill="none" stroke="#000000" d="M239.976,-108.4133C240.7071,-116.0593 240.9203,-125.1084 240.6155,-133.5726"/>
<polygon fill="#000000" stroke="#000000" points="237.1048,-133.6264 239.9524,-143.8314 244.0902,-134.078 237.1048,-133.6264"/>
<g id="a_edge24&#45;headlabel"><a xlink:href="dir_000085_000058.html" target="_top" xlink:title="20">
<text text-anchor="middle" x="234.5032" y="-127.3562" font-family="Helvetica,sans-Serif" font-size="10.00" fill="#000000">20</text>
</a>
</g>
</g>
</g>
</svg>
