<?xml version="1.0" encoding="UTF-8" standalone="no"?>
<!DOCTYPE svg PUBLIC "-//W3C//DTD SVG 1.1//EN"
 "http://www.w3.org/Graphics/SVG/1.1/DTD/svg11.dtd">
<!-- Generated by graphviz version 2.40.1 (20161225.0304)
 -->
<!-- Title: /home/travis/build/AliceO2Group/AliceO2/Analysis Pages: 1 -->
<!--zoomable 492 -->
<svg id="main" version="1.1" xmlns="http://www.w3.org/2000/svg" xmlns:xlink="http://www.w3.org/1999/xlink" xml:space="preserve" onload="init(evt)">
<style type="text/css"><![CDATA[
.edge:hover path { stroke: red; }
.edge:hover polygon { stroke: red; fill: red; }
]]></style>
<script type="text/javascript"><![CDATA[
var edges = document.getElementsByTagName('g');
if (edges && edges.length) {
  for (var i=0;i<edges.length;i++) {
    if (edges[i].id.substr(0,4)=='edge') {
      edges[i].setAttribute('class','edge');
    }
  }
}
]]></script>
        <defs>
                <circle id="rim" cx="0" cy="0" r="7"/>
                <circle id="rim2" cx="0" cy="0" r="3.5"/>
                <g id="zoomPlus">
                        <use xlink:href="#rim" fill="#404040">
                                <set attributeName="fill" to="#808080" begin="zoomplus.mouseover" end="zoomplus.mouseout"/>
                        </use>
                        <path d="M-4,0h8M0,-4v8" fill="none" stroke="white" stroke-width="1.5" pointer-events="none"/>
                </g>
                <g id="zoomMin">
                        <use xlink:href="#rim" fill="#404040">
                                <set attributeName="fill" to="#808080" begin="zoomminus.mouseover" end="zoomminus.mouseout"/>
                        </use>
                        <path d="M-4,0h8" fill="none" stroke="white" stroke-width="1.5" pointer-events="none"/>
                </g>
                <g id="dirArrow">
                        <path fill="none" stroke="white" stroke-width="1.5" d="M0,-3.0v7 M-2.5,-0.5L0,-3.0L2.5,-0.5"/>
                </g>
               <g id="resetDef">
                       <use xlink:href="#rim2" fill="#404040">
                               <set attributeName="fill" to="#808080" begin="reset.mouseover" end="reset.mouseout"/>
                       </use>
               </g>
        </defs>

<script type="text/javascript">
var viewWidth = 520;
var viewHeight = 492;
var sectionId = 'dynsection-0';
</script>
<script xlink:href="svgpan.js"/>
<svg id="graph" class="graph">
<g id="viewport">
<title>/home/travis/build/AliceO2Group/AliceO2/Analysis</title>
<g id="clust1" class="cluster">
<title>clusterdir_19b17cb436010079e3d017a29cb7858f</title>
<g id="a_clust1"><a xlink:href="dir_19b17cb436010079e3d017a29cb7858f.html" target="_top">
<polygon fill="#eeeeff" stroke="#000000" points="8,-280 8,-476 230,-476 230,-280 8,-280"/>
</a>
</g>
</g>
<!-- dir_19b17cb436010079e3d017a29cb7858f -->
<g id="node1" class="node">
<title>dir_19b17cb436010079e3d017a29cb7858f</title>
<text text-anchor="middle" x="193" y="-447.5" font-family="Helvetica,sans-Serif" font-size="10.00" fill="#000000">Analysis</text>
</g>
<!-- dir_8d04f135a1eb0fdc4d561ef87bbea216 -->
<g id="node2" class="node">
<title>dir_8d04f135a1eb0fdc4d561ef87bbea216</title>
<g id="a_node2"><a xlink:href="dir_8d04f135a1eb0fdc4d561ef87bbea216.html" target="_top" xlink:title="Core">
<polygon fill="#ffffff" stroke="#ff0000" points="144,-324 90,-324 90,-288 144,-288 144,-324"/>
<text text-anchor="middle" x="117" y="-303.5" font-family="Helvetica,sans-Serif" font-size="10.00" fill="#000000">Core</text>
</a>
</g>
</g>
<!-- dir_bcbb2cf9a3d3d83e5515c82071a07177 -->
<g id="node9" class="node">
<title>dir_bcbb2cf9a3d3d83e5515c82071a07177</title>
<g id="a_node9"><a xlink:href="dir_bcbb2cf9a3d3d83e5515c82071a07177.html" target="_top" xlink:title="Framework">
<polygon fill="none" stroke="#ff0000" points="309.5,-324 238.5,-324 238.5,-288 309.5,-288 309.5,-324"/>
<text text-anchor="middle" x="274" y="-303.5" font-family="Helvetica,sans-Serif" font-size="10.00" fill="#000000">Framework</text>
</a>
</g>
</g>
<!-- dir_8d04f135a1eb0fdc4d561ef87bbea216&#45;&gt;dir_bcbb2cf9a3d3d83e5515c82071a07177 -->
<g id="edge26" class="edge">
<title>dir_8d04f135a1eb0fdc4d561ef87bbea216&#45;&gt;dir_bcbb2cf9a3d3d83e5515c82071a07177</title>
<path fill="none" stroke="#000000" d="M144.291,-306C172.1938,-306 200.0966,-306 227.9994,-306"/>
<polygon fill="#000000" stroke="#000000" points="228.2794,-309.5001 238.2794,-306 228.2793,-302.5001 228.2794,-309.5001"/>
<g id="a_edge26&#45;headlabel"><a xlink:href="dir_000005_000058.html" target="_top" xlink:title="6">
<text text-anchor="middle" x="224.6847" y="-309.8393" font-family="Helvetica,sans-Serif" font-size="10.00" fill="#000000">6</text>
</a>
</g>
</g>
<!-- dir_f41dd59f861c855ea21b0dc3111cb7b0 -->
<g id="node3" class="node">
<title>dir_f41dd59f861c855ea21b0dc3111cb7b0</title>
<g id="a_node3"><a xlink:href="dir_f41dd59f861c855ea21b0dc3111cb7b0.html" target="_top" xlink:title="DataModel">
<polygon fill="#ffffff" stroke="#ff0000" points="142.5,-396 73.5,-396 73.5,-360 142.5,-360 142.5,-396"/>
<text text-anchor="middle" x="108" y="-375.5" font-family="Helvetica,sans-Serif" font-size="10.00" fill="#000000">DataModel</text>
</a>
</g>
</g>
<!-- dir_f41dd59f861c855ea21b0dc3111cb7b0&#45;&gt;dir_8d04f135a1eb0fdc4d561ef87bbea216 -->
<g id="edge17" class="edge">
<title>dir_f41dd59f861c855ea21b0dc3111cb7b0&#45;&gt;dir_8d04f135a1eb0fdc4d561ef87bbea216</title>
<path fill="none" stroke="#000000" d="M110.2711,-359.8314C111.2336,-352.131 112.3782,-342.9743 113.4479,-334.4166"/>
<polygon fill="#000000" stroke="#000000" points="116.9309,-334.7702 114.6983,-324.4133 109.9849,-333.9019 116.9309,-334.7702"/>
<g id="a_edge17&#45;headlabel"><a xlink:href="dir_000009_000005.html" target="_top" xlink:title="1">
<text text-anchor="middle" x="119.3025" y="-336.1892" font-family="Helvetica,sans-Serif" font-size="10.00" fill="#000000">1</text>
</a>
</g>
</g>
<!-- dir_4ab6b4cc6a7edbff49100e9123df213f -->
<g id="node6" class="node">
<title>dir_4ab6b4cc6a7edbff49100e9123df213f</title>
<g id="a_node6"><a xlink:href="dir_4ab6b4cc6a7edbff49100e9123df213f.html" target="_top" xlink:title="Common">
<polygon fill="none" stroke="#ff0000" points="181.5,-252 120.5,-252 120.5,-216 181.5,-216 181.5,-252"/>
<text text-anchor="middle" x="151" y="-231.5" font-family="Helvetica,sans-Serif" font-size="10.00" fill="#000000">Common</text>
</a>
</g>
</g>
<!-- dir_f41dd59f861c855ea21b0dc3111cb7b0&#45;&gt;dir_4ab6b4cc6a7edbff49100e9123df213f -->
<g id="edge14" class="edge">
<title>dir_f41dd59f861c855ea21b0dc3111cb7b0&#45;&gt;dir_4ab6b4cc6a7edbff49100e9123df213f</title>
<path fill="none" stroke="#000000" d="M128.8578,-359.6461C138.154,-350.0709 148.0978,-337.54 153,-324 160.1606,-304.2221 159.2394,-280.3648 156.7549,-262.1838"/>
<polygon fill="#000000" stroke="#000000" points="160.1951,-261.531 155.1607,-252.2087 153.2828,-262.6358 160.1951,-261.531"/>
<g id="a_edge14&#45;headlabel"><a xlink:href="dir_000009_000032.html" target="_top" xlink:title="2">
<text text-anchor="middle" x="163.566" y="-262.1325" font-family="Helvetica,sans-Serif" font-size="10.00" fill="#000000">2</text>
</a>
</g>
</g>
<!-- dir_6af676bf18881990e4083e191d0e63e0 -->
<g id="node7" class="node">
<title>dir_6af676bf18881990e4083e191d0e63e0</title>
<g id="a_node7"><a xlink:href="dir_6af676bf18881990e4083e191d0e63e0.html" target="_top" xlink:title="CCDB">
<polygon fill="none" stroke="#ff0000" points="231,-36 177,-36 177,0 231,0 231,-36"/>
<text text-anchor="middle" x="204" y="-15.5" font-family="Helvetica,sans-Serif" font-size="10.00" fill="#000000">CCDB</text>
</a>
</g>
</g>
<!-- dir_f41dd59f861c855ea21b0dc3111cb7b0&#45;&gt;dir_6af676bf18881990e4083e191d0e63e0 -->
<g id="edge15" class="edge">
<title>dir_f41dd59f861c855ea21b0dc3111cb7b0&#45;&gt;dir_6af676bf18881990e4083e191d0e63e0</title>
<path fill="none" stroke="#000000" d="M86.6621,-359.8984C59.4844,-334.6958 16,-286.2134 16,-234 16,-234 16,-234 16,-162 16,-86.7202 112.177,-45.4604 166.9502,-28.0667"/>
<polygon fill="#000000" stroke="#000000" points="168.1254,-31.3674 176.6632,-25.0938 166.0767,-24.6739 168.1254,-31.3674"/>
<g id="a_edge15&#45;headlabel"><a xlink:href="dir_000009_000024.html" target="_top" xlink:title="2">
<text text-anchor="middle" x="165.5191" y="-32.6343" font-family="Helvetica,sans-Serif" font-size="10.00" fill="#000000">2</text>
</a>
</g>
</g>
<!-- dir_051dca18e802f8e9474f2e30d29c04e0 -->
<g id="node8" class="node">
<title>dir_051dca18e802f8e9474f2e30d29c04e0</title>
<g id="a_node8"><a xlink:href="dir_051dca18e802f8e9474f2e30d29c04e0.html" target="_top" xlink:title="Detectors">
<polygon fill="none" stroke="#ff0000" points="289,-108 225,-108 225,-72 289,-72 289,-108"/>
<text text-anchor="middle" x="257" y="-87.5" font-family="Helvetica,sans-Serif" font-size="10.00" fill="#000000">Detectors</text>
</a>
</g>
</g>
<!-- dir_f41dd59f861c855ea21b0dc3111cb7b0&#45;&gt;dir_051dca18e802f8e9474f2e30d29c04e0 -->
<g id="edge16" class="edge">
<title>dir_f41dd59f861c855ea21b0dc3111cb7b0&#45;&gt;dir_051dca18e802f8e9474f2e30d29c04e0</title>
<path fill="none" stroke="#000000" d="M96.2492,-359.8241C90.4142,-349.7142 83.9861,-336.6495 81,-324 69.5543,-275.5152 82.6729,-256.9799 111,-216 140.3603,-173.5254 187.3306,-136.4995 220.0388,-113.7718"/>
<polygon fill="#000000" stroke="#000000" points="222.162,-116.56 228.4429,-108.0276 218.2121,-110.7809 222.162,-116.56"/>
<g id="a_edge16&#45;headlabel"><a xlink:href="dir_000009_000044.html" target="_top" xlink:title="1">
<text text-anchor="middle" x="220.7965" y="-118.4324" font-family="Helvetica,sans-Serif" font-size="10.00" fill="#000000">1</text>
</a>
</g>
</g>
<!-- dir_f41dd59f861c855ea21b0dc3111cb7b0&#45;&gt;dir_bcbb2cf9a3d3d83e5515c82071a07177 -->
<g id="edge18" class="edge">
<title>dir_f41dd59f861c855ea21b0dc3111cb7b0&#45;&gt;dir_bcbb2cf9a3d3d83e5515c82071a07177</title>
<path fill="none" stroke="#000000" d="M142.5662,-363.3834C165.646,-353.5802 196.9143,-340.2162 228.7971,-326.2701"/>
<polygon fill="#000000" stroke="#000000" points="230.4964,-329.3468 238.2495,-322.126 227.6857,-322.9358 230.4964,-329.3468"/>
<g id="a_edge18&#45;headlabel"><a xlink:href="dir_000009_000058.html" target="_top" xlink:title="18">
<text text-anchor="middle" x="228.3443" y="-330.8904" font-family="Helvetica,sans-Serif" font-size="10.00" fill="#000000">18</text>
</a>
</g>
</g>
<!-- dir_2171f7ec022c5423887b07c69b2f5b48 -->
<g id="node10" class="node">
<title>dir_2171f7ec022c5423887b07c69b2f5b48</title>
<g id="a_node10"><a xlink:href="dir_2171f7ec022c5423887b07c69b2f5b48.html" target="_top" xlink:title="DataFormats">
<polygon fill="none" stroke="#ff0000" points="297,-180 217,-180 217,-144 297,-144 297,-180"/>
<text text-anchor="middle" x="257" y="-159.5" font-family="Helvetica,sans-Serif" font-size="10.00" fill="#000000">DataFormats</text>
</a>
</g>
</g>
<!-- dir_f41dd59f861c855ea21b0dc3111cb7b0&#45;&gt;dir_2171f7ec022c5423887b07c69b2f5b48 -->
<g id="edge19" class="edge">
<title>dir_f41dd59f861c855ea21b0dc3111cb7b0&#45;&gt;dir_2171f7ec022c5423887b07c69b2f5b48</title>
<path fill="none" stroke="#000000" d="M132.8562,-359.8076C145.0248,-350.0903 159.3156,-337.3883 170,-324 204.0731,-281.3041 231.4651,-223.3097 245.8849,-189.5423"/>
<polygon fill="#000000" stroke="#000000" points="249.126,-190.864 249.7699,-180.2887 242.6717,-188.1542 249.126,-190.864"/>
<g id="a_edge19&#45;headlabel"><a xlink:href="dir_000009_000085.html" target="_top" xlink:title="7">
<text text-anchor="middle" x="250.3524" y="-192.7774" font-family="Helvetica,sans-Serif" font-size="10.00" fill="#000000">7</text>
</a>
</g>
</g>
<!-- dir_eff7324435ca3301414fec6c28c4adf5 -->
<g id="node4" class="node">
<title>dir_eff7324435ca3301414fec6c28c4adf5</title>
<g id="a_node4"><a xlink:href="dir_eff7324435ca3301414fec6c28c4adf5.html" target="_top" xlink:title="Tasks">
<polygon fill="#ffffff" stroke="#ff0000" points="146,-468 92,-468 92,-432 146,-432 146,-468"/>
<text text-anchor="middle" x="119" y="-447.5" font-family="Helvetica,sans-Serif" font-size="10.00" fill="#000000">Tasks</text>
</a>
</g>
</g>
<!-- dir_eff7324435ca3301414fec6c28c4adf5&#45;&gt;dir_8d04f135a1eb0fdc4d561ef87bbea216 -->
<g id="edge23" class="edge">
<title>dir_eff7324435ca3301414fec6c28c4adf5&#45;&gt;dir_8d04f135a1eb0fdc4d561ef87bbea216</title>
<path fill="none" stroke="#000000" d="M133.2359,-431.6423C140.0539,-421.6872 147.4862,-408.8222 151,-396 155.2288,-380.5689 155.4365,-375.3726 151,-360 148.2478,-350.4635 143.2576,-340.9881 137.933,-332.6989"/>
<polygon fill="#000000" stroke="#000000" points="140.6595,-330.4863 132.114,-324.2232 134.8886,-334.4483 140.6595,-330.4863"/>
<g id="a_edge23&#45;headlabel"><a xlink:href="dir_000015_000005.html" target="_top" xlink:title="34">
<text text-anchor="middle" x="145.0347" y="-329.3427" font-family="Helvetica,sans-Serif" font-size="10.00" fill="#000000">34</text>
</a>
</g>
</g>
<!-- dir_eff7324435ca3301414fec6c28c4adf5&#45;&gt;dir_f41dd59f861c855ea21b0dc3111cb7b0 -->
<g id="edge22" class="edge">
<title>dir_eff7324435ca3301414fec6c28c4adf5&#45;&gt;dir_f41dd59f861c855ea21b0dc3111cb7b0</title>
<path fill="none" stroke="#000000" d="M116.2242,-431.8314C115.0478,-424.131 113.6489,-414.9743 112.3414,-406.4166"/>
<polygon fill="#000000" stroke="#000000" points="115.7833,-405.7699 110.8131,-396.4133 108.8636,-406.8272 115.7833,-405.7699"/>
<g id="a_edge22&#45;headlabel"><a xlink:href="dir_000015_000009.html" target="_top" xlink:title="94">
<text text-anchor="middle" x="119.1328" y="-406.3946" font-family="Helvetica,sans-Serif" font-size="10.00" fill="#000000">94</text>
</a>
</g>
</g>
<!-- dir_eff7324435ca3301414fec6c28c4adf5&#45;&gt;dir_6af676bf18881990e4083e191d0e63e0 -->
<g id="edge20" class="edge">
<title>dir_eff7324435ca3301414fec6c28c4adf5&#45;&gt;dir_6af676bf18881990e4083e191d0e63e0</title>
<path fill="none" stroke="#000000" d="M146.1165,-435.2306C149.0591,-433.9954 152.0551,-432.8837 155,-432 283.6233,-393.4016 341.4244,-467.6544 455,-396 495.0441,-370.7364 512,-353.3474 512,-306 512,-306 512,-306 512,-162 512,-113.4273 490.3116,-99.0976 450,-72 416.1948,-49.276 301.2958,-31.0261 241.2467,-22.7742"/>
<polygon fill="#000000" stroke="#000000" points="241.4316,-19.2675 231.0531,-21.3971 240.4945,-26.2044 241.4316,-19.2675"/>
<g id="a_edge20&#45;headlabel"><a xlink:href="dir_000015_000024.html" target="_top" xlink:title="5">
<text text-anchor="middle" x="245.374" y="-14.4349" font-family="Helvetica,sans-Serif" font-size="10.00" fill="#000000">5</text>
</a>
</g>
</g>
<!-- dir_eff7324435ca3301414fec6c28c4adf5&#45;&gt;dir_051dca18e802f8e9474f2e30d29c04e0 -->
<g id="edge21" class="edge">
<title>dir_eff7324435ca3301414fec6c28c4adf5&#45;&gt;dir_051dca18e802f8e9474f2e30d29c04e0</title>
<path fill="none" stroke="#000000" d="M146.2155,-435.5328C149.1388,-434.2387 152.1033,-433.0306 155,-432 298.6178,-380.9035 474,-458.4367 474,-306 474,-306 474,-306 474,-234 474,-150.9105 362.1781,-112.9082 299.077,-98.0781"/>
<polygon fill="#000000" stroke="#000000" points="299.5438,-94.5956 289.0191,-95.813 298.0058,-101.4246 299.5438,-94.5956"/>
<g id="a_edge21&#45;headlabel"><a xlink:href="dir_000015_000044.html" target="_top" xlink:title="8">
<text text-anchor="middle" x="303.6743" y="-90.1154" font-family="Helvetica,sans-Serif" font-size="10.00" fill="#000000">8</text>
</a>
</g>
</g>
<!-- dir_eff7324435ca3301414fec6c28c4adf5&#45;&gt;dir_bcbb2cf9a3d3d83e5515c82071a07177 -->
<g id="edge24" class="edge">
<title>dir_eff7324435ca3301414fec6c28c4adf5&#45;&gt;dir_bcbb2cf9a3d3d83e5515c82071a07177</title>
<path fill="none" stroke="#000000" d="M146.0822,-436.3456C149.0846,-434.8656 152.1029,-433.3924 155,-432 189.4125,-415.4605 206.0689,-423.0646 233,-396 250.0414,-378.8741 260.736,-353.3842 266.9122,-333.8989"/>
<polygon fill="#000000" stroke="#000000" points="270.3427,-334.64 269.8151,-324.0583 263.6287,-332.6594 270.3427,-334.64"/>
<g id="a_edge24&#45;headlabel"><a xlink:href="dir_000015_000058.html" target="_top" xlink:title="141">
<text text-anchor="middle" x="272.049" y="-336.391" font-family="Helvetica,sans-Serif" font-size="10.00" fill="#000000">141</text>
</a>
</g>
</g>
<!-- dir_eff7324435ca3301414fec6c28c4adf5&#45;&gt;dir_2171f7ec022c5423887b07c69b2f5b48 -->
<g id="edge25" class="edge">
<title>dir_eff7324435ca3301414fec6c28c4adf5&#45;&gt;dir_2171f7ec022c5423887b07c69b2f5b48</title>
<path fill="none" stroke="#000000" d="M146.3488,-435.8754C149.2461,-434.5145 152.168,-433.1971 155,-432 246.9699,-393.1217 307.799,-413.5335 352,-324 376.7567,-273.8529 325.6889,-218.1778 289.2915,-186.8954"/>
<polygon fill="#000000" stroke="#000000" points="291.2397,-183.962 281.3241,-180.2293 286.7477,-189.3307 291.2397,-183.962"/>
<g id="a_edge25&#45;headlabel"><a xlink:href="dir_000015_000085.html" target="_top" xlink:title="13">
<text text-anchor="middle" x="295.8185" y="-181.591" font-family="Helvetica,sans-Serif" font-size="10.00" fill="#000000">13</text>
</a>
</g>
</g>
<!-- dir_6e355b58bf8669476ee36a32071bc3eb -->
<g id="node5" class="node">
<title>dir_6e355b58bf8669476ee36a32071bc3eb</title>
<g id="a_node5"><a xlink:href="dir_6e355b58bf8669476ee36a32071bc3eb.html" target="_top" xlink:title="Tutorials">
<polygon fill="#ffffff" stroke="#ff0000" points="74,-468 16,-468 16,-432 74,-432 74,-468"/>
<text text-anchor="middle" x="45" y="-447.5" font-family="Helvetica,sans-Serif" font-size="10.00" fill="#000000">Tutorials</text>
</a>
</g>
</g>
<!-- dir_6e355b58bf8669476ee36a32071bc3eb&#45;&gt;dir_8d04f135a1eb0fdc4d561ef87bbea216 -->
<g id="edge3" class="edge">
<title>dir_6e355b58bf8669476ee36a32071bc3eb&#45;&gt;dir_8d04f135a1eb0fdc4d561ef87bbea216</title>
<path fill="none" stroke="#000000" d="M45.8602,-431.7307C47.4158,-412.7853 51.7778,-382.8013 64,-360 69.7119,-349.344 78.1674,-339.3703 86.6554,-330.9655"/>
<polygon fill="#000000" stroke="#000000" points="89.1686,-333.4066 94.0548,-324.0057 84.3726,-328.3077 89.1686,-333.4066"/>
<g id="a_edge3&#45;headlabel"><a xlink:href="dir_000022_000005.html" target="_top" xlink:title="3">
<text text-anchor="middle" x="88.4956" y="-335.4375" font-family="Helvetica,sans-Serif" font-size="10.00" fill="#000000">3</text>
</a>
</g>
</g>
<!-- dir_6e355b58bf8669476ee36a32071bc3eb&#45;&gt;dir_f41dd59f861c855ea21b0dc3111cb7b0 -->
<g id="edge2" class="edge">
<title>dir_6e355b58bf8669476ee36a32071bc3eb&#45;&gt;dir_f41dd59f861c855ea21b0dc3111cb7b0</title>
<path fill="none" stroke="#000000" d="M60.8976,-431.8314C68.2278,-423.454 77.066,-413.3531 85.0969,-404.1749"/>
<polygon fill="#000000" stroke="#000000" points="87.9373,-406.2438 91.8884,-396.4133 82.6693,-401.6343 87.9373,-406.2438"/>
<g id="a_edge2&#45;headlabel"><a xlink:href="dir_000022_000009.html" target="_top" xlink:title="2">
<text text-anchor="middle" x="87.7071" y="-408.3187" font-family="Helvetica,sans-Serif" font-size="10.00" fill="#000000">2</text>
</a>
</g>
</g>
<!-- dir_6e355b58bf8669476ee36a32071bc3eb&#45;&gt;dir_6af676bf18881990e4083e191d0e63e0 -->
<g id="edge1" class="edge">
<title>dir_6e355b58bf8669476ee36a32071bc3eb&#45;&gt;dir_6af676bf18881990e4083e191d0e63e0</title>
<path fill="none" stroke="#000000" d="M74.1537,-435.2789C77.1017,-434.067 80.0838,-432.9466 83,-432 165.5791,-405.1957 198.2701,-436.6239 275,-396 364.7119,-348.503 436,-335.5096 436,-234 436,-234 436,-234 436,-162 436,-71.3283 306.4937,-35.7621 240.9996,-23.573"/>
<polygon fill="#000000" stroke="#000000" points="241.5248,-20.1116 231.0674,-21.8125 240.3031,-27.0041 241.5248,-20.1116"/>
<g id="a_edge1&#45;headlabel"><a xlink:href="dir_000022_000024.html" target="_top" xlink:title="1">
<text text-anchor="middle" x="245.5597" y="-15.4431" font-family="Helvetica,sans-Serif" font-size="10.00" fill="#000000">1</text>
</a>
</g>
</g>
<!-- dir_6e355b58bf8669476ee36a32071bc3eb&#45;&gt;dir_bcbb2cf9a3d3d83e5515c82071a07177 -->
<g id="edge4" class="edge">
<title>dir_6e355b58bf8669476ee36a32071bc3eb&#45;&gt;dir_bcbb2cf9a3d3d83e5515c82071a07177</title>
<path fill="none" stroke="#000000" d="M74.1007,-435.8296C100.451,-422.8797 137.1904,-404.4939 151,-396 183.8626,-375.7871 219.1921,-349.403 243.5177,-330.4346"/>
<polygon fill="#000000" stroke="#000000" points="245.9369,-332.9851 251.6409,-324.0567 241.6141,-327.4793 245.9369,-332.9851"/>
<g id="a_edge4&#45;headlabel"><a xlink:href="dir_000022_000058.html" target="_top" xlink:title="69">
<text text-anchor="middle" x="244.863" y="-334.938" font-family="Helvetica,sans-Serif" font-size="10.00" fill="#000000">69</text>
</a>
</g>
</g>
<!-- dir_6e355b58bf8669476ee36a32071bc3eb&#45;&gt;dir_2171f7ec022c5423887b07c69b2f5b48 -->
<g id="edge5" class="edge">
<title>dir_6e355b58bf8669476ee36a32071bc3eb&#45;&gt;dir_2171f7ec022c5423887b07c69b2f5b48</title>
<path fill="none" stroke="#000000" d="M74.2998,-435.6827C77.2182,-434.3891 80.1535,-433.1392 83,-432 190.0924,-389.1409 260.9332,-423.6691 319,-324 344.1387,-280.8506 311.3304,-260.1534 288,-216 283.3269,-207.1561 277.982,-197.6505 273.0614,-189.1171"/>
<polygon fill="#000000" stroke="#000000" points="275.9949,-187.1993 267.9404,-180.3162 269.9446,-190.7198 275.9949,-187.1993"/>
<g id="a_edge5&#45;headlabel"><a xlink:href="dir_000022_000085.html" target="_top" xlink:title="1">
<text text-anchor="middle" x="280.2568" y="-186.3783" font-family="Helvetica,sans-Serif" font-size="10.00" fill="#000000">1</text>
</a>
</g>
</g>
<!-- dir_4ab6b4cc6a7edbff49100e9123df213f&#45;&gt;dir_bcbb2cf9a3d3d83e5515c82071a07177 -->
<g id="edge6" class="edge">
<title>dir_4ab6b4cc6a7edbff49100e9123df213f&#45;&gt;dir_bcbb2cf9a3d3d83e5515c82071a07177</title>
<path fill="none" stroke="#000000" d="M181.6427,-246.2631C199.9337,-255.2934 223.0906,-268.0325 243,-280 244.2867,-280.7734 245.5916,-281.5676 246.9027,-282.3758"/>
<polygon fill="#000000" stroke="#000000" points="245.1949,-285.4373 255.5136,-287.8405 248.9457,-279.527 245.1949,-285.4373"/>
<g id="a_edge6&#45;headlabel"><a xlink:href="dir_000032_000058.html" target="_top" xlink:title="2">
<text text-anchor="middle" x="240.6385" y="-283.4086" font-family="Helvetica,sans-Serif" font-size="10.00" fill="#000000">2</text>
</a>
</g>
</g>
<!-- dir_4ab6b4cc6a7edbff49100e9123df213f&#45;&gt;dir_2171f7ec022c5423887b07c69b2f5b48 -->
<g id="edge7" class="edge">
<title>dir_4ab6b4cc6a7edbff49100e9123df213f&#45;&gt;dir_2171f7ec022c5423887b07c69b2f5b48</title>
<path fill="none" stroke="#000000" d="M171.7959,-215.8314C184.3392,-206.7074 200.6358,-195.539 215.6527,-185.7449"/>
<polygon fill="#000000" stroke="#000000" points="217.8013,-188.5239 224.3085,-180.1628 214.0075,-182.6411 217.8013,-188.5239"/>
<g id="a_edge7&#45;headlabel"><a xlink:href="dir_000032_000085.html" target="_top" xlink:title="2">
<text text-anchor="middle" x="216.3192" y="-190.3582" font-family="Helvetica,sans-Serif" font-size="10.00" fill="#000000">2</text>
</a>
</g>
</g>
<!-- dir_6af676bf18881990e4083e191d0e63e0&#45;&gt;dir_4ab6b4cc6a7edbff49100e9123df213f -->
<g id="edge8" class="edge">
<title>dir_6af676bf18881990e4083e191d0e63e0&#45;&gt;dir_4ab6b4cc6a7edbff49100e9123df213f</title>
<path fill="none" stroke="#000000" d="M199.5477,-36.1451C190.2901,-73.8741 168.91,-161.0083 157.8715,-205.9956"/>
<polygon fill="#000000" stroke="#000000" points="154.4115,-205.4095 155.4276,-215.9555 161.2099,-207.0776 154.4115,-205.4095"/>
<g id="a_edge8&#45;headlabel"><a xlink:href="dir_000024_000032.html" target="_top" xlink:title="4">
<text text-anchor="middle" x="152.5106" y="-198.7418" font-family="Helvetica,sans-Serif" font-size="10.00" fill="#000000">4</text>
</a>
</g>
</g>
<!-- dir_6af676bf18881990e4083e191d0e63e0&#45;&gt;dir_bcbb2cf9a3d3d83e5515c82071a07177 -->
<g id="edge9" class="edge">
<title>dir_6af676bf18881990e4083e191d0e63e0&#45;&gt;dir_bcbb2cf9a3d3d83e5515c82071a07177</title>
<path fill="none" stroke="#000000" d="M185.3774,-36.251C144.7827,-78.2337 56.195,-183.317 111,-252 145.9686,-295.8236 182.3627,-258.1619 234,-280 236.0454,-280.865 238.1011,-281.834 240.1425,-282.8758"/>
<polygon fill="#000000" stroke="#000000" points="238.4929,-285.9635 248.9252,-287.812 241.9226,-279.8613 238.4929,-285.9635"/>
<g id="a_edge9&#45;headlabel"><a xlink:href="dir_000024_000058.html" target="_top" xlink:title="2">
<text text-anchor="middle" x="233.9682" y="-284.1775" font-family="Helvetica,sans-Serif" font-size="10.00" fill="#000000">2</text>
</a>
</g>
</g>
<!-- dir_051dca18e802f8e9474f2e30d29c04e0&#45;&gt;dir_4ab6b4cc6a7edbff49100e9123df213f -->
<g id="edge10" class="edge">
<title>dir_051dca18e802f8e9474f2e30d29c04e0&#45;&gt;dir_4ab6b4cc6a7edbff49100e9123df213f</title>
<path fill="none" stroke="#000000" d="M238.9365,-108.3034C229.3026,-118.4506 217.5091,-131.5104 208,-144 192.569,-164.2677 177.2432,-188.7778 166.3759,-207.0989"/>
<polygon fill="#000000" stroke="#000000" points="163.3101,-205.408 161.2706,-215.8046 169.3484,-208.949 163.3101,-205.408"/>
<g id="a_edge10&#45;headlabel"><a xlink:href="dir_000044_000032.html" target="_top" xlink:title="300">
<text text-anchor="middle" x="162.6793" y="-198.3709" font-family="Helvetica,sans-Serif" font-size="10.00" fill="#000000">300</text>
</a>
</g>
</g>
<!-- dir_051dca18e802f8e9474f2e30d29c04e0&#45;&gt;dir_6af676bf18881990e4083e191d0e63e0 -->
<g id="edge11" class="edge">
<title>dir_051dca18e802f8e9474f2e30d29c04e0&#45;&gt;dir_6af676bf18881990e4083e191d0e63e0</title>
<path fill="none" stroke="#000000" d="M243.6259,-71.8314C237.5838,-63.6232 230.3237,-53.7606 223.6779,-44.7323"/>
<polygon fill="#000000" stroke="#000000" points="226.3011,-42.3918 217.5542,-36.4133 220.6637,-46.5415 226.3011,-42.3918"/>
<g id="a_edge11&#45;headlabel"><a xlink:href="dir_000044_000024.html" target="_top" xlink:title="29">
<text text-anchor="middle" x="230.7186" y="-41.1035" font-family="Helvetica,sans-Serif" font-size="10.00" fill="#000000">29</text>
</a>
</g>
</g>
<!-- dir_051dca18e802f8e9474f2e30d29c04e0&#45;&gt;dir_bcbb2cf9a3d3d83e5515c82071a07177 -->
<g id="edge12" class="edge">
<title>dir_051dca18e802f8e9474f2e30d29c04e0&#45;&gt;dir_bcbb2cf9a3d3d83e5515c82071a07177</title>
<path fill="none" stroke="#000000" d="M287.7936,-108.0091C298.7888,-117.5028 309.6198,-130.0645 315,-144 332.5738,-189.5188 312.6356,-246.1183 294.6518,-278.9447"/>
<polygon fill="#000000" stroke="#000000" points="291.4236,-277.5335 289.4212,-287.9374 297.4745,-281.053 291.4236,-277.5335"/>
<g id="a_edge12&#45;headlabel"><a xlink:href="dir_000044_000058.html" target="_top" xlink:title="938">
<text text-anchor="middle" x="290.7766" y="-270.4987" font-family="Helvetica,sans-Serif" font-size="10.00" fill="#000000">938</text>
</a>
</g>
</g>
<!-- dir_051dca18e802f8e9474f2e30d29c04e0&#45;&gt;dir_2171f7ec022c5423887b07c69b2f5b48 -->
<g id="edge13" class="edge">
<title>dir_051dca18e802f8e9474f2e30d29c04e0&#45;&gt;dir_2171f7ec022c5423887b07c69b2f5b48</title>
<path fill="none" stroke="#000000" d="M262.976,-108.4133C263.7071,-116.0593 263.9203,-125.1084 263.6155,-133.5726"/>
<polygon fill="#000000" stroke="#000000" points="260.1048,-133.6264 262.9524,-143.8314 267.0902,-134.078 260.1048,-133.6264"/>
<g id="a_edge13&#45;headlabel"><a xlink:href="dir_000044_000085.html" target="_top" xlink:title="1251">
<text text-anchor="middle" x="257.5032" y="-127.3562" font-family="Helvetica,sans-Serif" font-size="10.00" fill="#000000">1251</text>
</a>
</g>
</g>
<!-- dir_bcbb2cf9a3d3d83e5515c82071a07177&#45;&gt;dir_4ab6b4cc6a7edbff49100e9123df213f -->
<g id="edge27" class="edge">
<title>dir_bcbb2cf9a3d3d83e5515c82071a07177&#45;&gt;dir_4ab6b4cc6a7edbff49100e9123df213f</title>
<path fill="none" stroke="#000000" d="M238.1678,-288.1175C233.7193,-285.3486 229.2593,-282.5602 225,-280 212.1606,-272.2823 197.9706,-264.2436 185.4127,-257.0858"/>
<polygon fill="#000000" stroke="#000000" points="187.0181,-253.972 176.5996,-252.0465 183.5434,-260.0487 187.0181,-253.972"/>
<g id="a_edge27&#45;headlabel"><a xlink:href="dir_000058_000032.html" target="_top" xlink:title="8">
<text text-anchor="middle" x="191.5479" y="-250.7914" font-family="Helvetica,sans-Serif" font-size="10.00" fill="#000000">8</text>
</a>
</g>
</g>
<!-- dir_bcbb2cf9a3d3d83e5515c82071a07177&#45;&gt;dir_051dca18e802f8e9474f2e30d29c04e0 -->
<g id="edge28" class="edge">
<title>dir_bcbb2cf9a3d3d83e5515c82071a07177&#45;&gt;dir_051dca18e802f8e9474f2e30d29c04e0</title>
<path fill="none" stroke="#000000" d="M278.437,-287.9374C290.3338,-257.4004 316.3085,-194.0121 297,-144 292.9228,-133.4395 285.7154,-123.6679 278.4455,-115.4227"/>
<polygon fill="#000000" stroke="#000000" points="280.9276,-112.9521 271.5564,-108.0091 275.7997,-117.7171 280.9276,-112.9521"/>
<g id="a_edge28&#45;headlabel"><a xlink:href="dir_000058_000044.html" target="_top" xlink:title="4">
<text text-anchor="middle" x="285.4543" y="-111.1525" font-family="Helvetica,sans-Serif" font-size="10.00" fill="#000000">4</text>
</a>
</g>
</g>
<!-- dir_bcbb2cf9a3d3d83e5515c82071a07177&#45;&gt;dir_2171f7ec022c5423887b07c69b2f5b48 -->
<g id="edge29" class="edge">
<title>dir_bcbb2cf9a3d3d83e5515c82071a07177&#45;&gt;dir_2171f7ec022c5423887b07c69b2f5b48</title>
<path fill="none" stroke="#000000" d="M267.1738,-287.7623C261.8144,-263.201 256.3506,-219.2474 254.8499,-190.3541"/>
<polygon fill="#000000" stroke="#000000" points="258.3379,-189.956 254.4773,-180.0896 251.3425,-190.21 258.3379,-189.956"/>
<g id="a_edge29&#45;headlabel"><a xlink:href="dir_000058_000085.html" target="_top" xlink:title="72">
<text text-anchor="middle" x="261.3056" y="-190.9453" font-family="Helvetica,sans-Serif" font-size="10.00" fill="#000000">72</text>
</a>
</g>
</g>
<!-- dir_2171f7ec022c5423887b07c69b2f5b48&#45;&gt;dir_4ab6b4cc6a7edbff49100e9123df213f -->
<g id="edge30" class="edge">
<title>dir_2171f7ec022c5423887b07c69b2f5b48&#45;&gt;dir_4ab6b4cc6a7edbff49100e9123df213f</title>
<path fill="none" stroke="#000000" d="M236.3896,-180.0336C223.2148,-189.6241 205.847,-201.5022 190.1705,-211.671"/>
<polygon fill="#000000" stroke="#000000" points="188.2021,-208.7754 181.6727,-217.1192 191.9802,-214.6683 188.2021,-208.7754"/>
<g id="a_edge30&#45;headlabel"><a xlink:href="dir_000085_000032.html" target="_top" xlink:title="37">
<text text-anchor="middle" x="189.6958" y="-201.9452" font-family="Helvetica,sans-Serif" font-size="10.00" fill="#000000">37</text>
</a>
</g>
</g>
<!-- dir_2171f7ec022c5423887b07c69b2f5b48&#45;&gt;dir_051dca18e802f8e9474f2e30d29c04e0 -->
<g id="edge31" class="edge">
<title>dir_2171f7ec022c5423887b07c69b2f5b48&#45;&gt;dir_051dca18e802f8e9474f2e30d29c04e0</title>
<path fill="none" stroke="#000000" d="M251.0476,-143.8314C250.2972,-136.131 250.0763,-126.9743 250.3849,-118.4166"/>
<polygon fill="#000000" stroke="#000000" points="253.8792,-118.6161 251.024,-108.4133 246.8935,-118.1697 253.8792,-118.6161"/>
<g id="a_edge31&#45;headlabel"><a xlink:href="dir_000085_000044.html" target="_top" xlink:title="16">
<text text-anchor="middle" x="256.4836" y="-119.8844" font-family="Helvetica,sans-Serif" font-size="10.00" fill="#000000">16</text>
</a>
</g>
</g>
<!-- dir_2171f7ec022c5423887b07c69b2f5b48&#45;&gt;dir_bcbb2cf9a3d3d83e5515c82071a07177 -->
<g id="edge32" class="edge">
<title>dir_2171f7ec022c5423887b07c69b2f5b48&#45;&gt;dir_bcbb2cf9a3d3d83e5515c82071a07177</title>
<path fill="none" stroke="#000000" d="M263.7939,-180.0896C269.1528,-204.5727 274.6243,-248.5174 276.141,-277.4713"/>
<polygon fill="#000000" stroke="#000000" points="272.6542,-277.898 276.5201,-287.7623 279.6495,-277.6402 272.6542,-277.898"/>
<g id="a_edge32&#45;headlabel"><a xlink:href="dir_000085_000058.html" target="_top" xlink:title="20">
<text text-anchor="middle" x="269.6846" y="-271.9103" font-family="Helvetica,sans-Serif" font-size="10.00" fill="#000000">20</text>
</a>
</g>
</g>
</g>
</svg>
        <g id="navigator" transform="translate(0 0)" fill="#404254">
                <rect fill="#f2f5e9" fill-opacity="0.5" stroke="#606060" stroke-width=".5" x="0" y="0" width="60" height="60"/>
                <use id="zoomplus" xlink:href="#zoomPlus" x="17" y="9" onmousedown="handleZoom(evt,'in')"/>
                <use id="zoomminus" xlink:href="#zoomMin" x="42" y="9" onmousedown="handleZoom(evt,'out')"/>
                <use id="reset" xlink:href="#resetDef" x="30" y="36" onmousedown="handleReset()"/>
                <g id="arrowUp" xlink:href="#dirArrow" transform="translate(30 24)" onmousedown="handlePan(0,-1)">
                  <use xlink:href="#rim" fill="#404040">
                        <set attributeName="fill" to="#808080" begin="arrowUp.mouseover" end="arrowUp.mouseout"/>
                  </use>
                  <path fill="none" stroke="white" stroke-width="1.5" d="M0,-3.0v7 M-2.5,-0.5L0,-3.0L2.5,-0.5"/>
                </g>
                <g id="arrowRight" xlink:href="#dirArrow" transform="rotate(90) translate(36 -43)" onmousedown="handlePan(1,0)">
                  <use xlink:href="#rim" fill="#404040">
                        <set attributeName="fill" to="#808080" begin="arrowRight.mouseover" end="arrowRight.mouseout"/>
                  </use>
                  <path fill="none" stroke="white" stroke-width="1.5" d="M0,-3.0v7 M-2.5,-0.5L0,-3.0L2.5,-0.5"/>
                </g>
                <g id="arrowDown" xlink:href="#dirArrow" transform="rotate(180) translate(-30 -48)" onmousedown="handlePan(0,1)">
                  <use xlink:href="#rim" fill="#404040">
                        <set attributeName="fill" to="#808080" begin="arrowDown.mouseover" end="arrowDown.mouseout"/>
                  </use>
                  <path fill="none" stroke="white" stroke-width="1.5" d="M0,-3.0v7 M-2.5,-0.5L0,-3.0L2.5,-0.5"/>
                </g>
                <g id="arrowLeft" xlink:href="#dirArrow" transform="rotate(270) translate(-36 17)" onmousedown="handlePan(-1,0)">
                  <use xlink:href="#rim" fill="#404040">
                        <set attributeName="fill" to="#808080" begin="arrowLeft.mouseover" end="arrowLeft.mouseout"/>
                  </use>
                  <path fill="none" stroke="white" stroke-width="1.5" d="M0,-3.0v7 M-2.5,-0.5L0,-3.0L2.5,-0.5"/>
                </g>
        </g>
        <svg viewBox="0 0 15 15" width="100%" height="30px" preserveAspectRatio="xMaxYMin meet">
         <g id="arrow_out" transform="scale(0.3 0.3)">
          <a xlink:href="dir_19b17cb436010079e3d017a29cb7858f_dep_org.svg" target="_base">
           <rect id="button" ry="5" rx="5" y="6" x="6" height="38" width="38"
                fill="#f2f5e9" fill-opacity="0.5" stroke="#606060" stroke-width="1.0"/>
           <path id="arrow"
             d="M 11.500037,31.436501 C 11.940474,20.09759 22.043105,11.32322 32.158766,21.979434 L 37.068811,17.246167 C 37.068811,17.246167 37.088388,32 37.088388,32 L 22.160133,31.978069 C 22.160133,31.978069 26.997745,27.140456 26.997745,27.140456 C 18.528582,18.264221 13.291696,25.230495 11.500037,31.436501 z"
             style="fill:#404040;"/>
          </a>
         </g>
        </svg>
</svg>
