<?xml version="1.0" encoding="UTF-8" standalone="no"?>
<!DOCTYPE svg PUBLIC "-//W3C//DTD SVG 1.1//EN"
 "http://www.w3.org/Graphics/SVG/1.1/DTD/svg11.dtd">
<!-- Generated by graphviz version 2.40.1 (20161225.0304)
 -->
<!-- Title: /home/travis/build/AliceO2Group/AliceO2/Detectors/MUON/MID/CTF Pages: 1 -->
<svg width="211pt" height="447pt"
 viewBox="0.00 0.00 210.50 447.00" xmlns="http://www.w3.org/2000/svg" xmlns:xlink="http://www.w3.org/1999/xlink">
<g id="graph0" class="graph" transform="scale(1 1) rotate(0) translate(4 443)">
<title>/home/travis/build/AliceO2Group/AliceO2/Detectors/MUON/MID/CTF</title>
<g id="clust1" class="cluster">
<title>clusterdir_9e24c537087392bd208449d0b48c466c</title>
<g id="a_clust1"><a xlink:href="dir_9e24c537087392bd208449d0b48c466c.html" target="_top" xlink:title="MID">
<polygon fill="#ddddee" stroke="#000000" points="36.5,-272 36.5,-431 194.5,-431 194.5,-272 36.5,-272"/>
<text text-anchor="middle" x="115.5" y="-419" font-family="Helvetica,sans-Serif" font-size="10.00" fill="#000000">MID</text>
</a>
</g>
</g>
<g id="clust2" class="cluster">
<title>clusterdir_ec47f4617e2325ef786d87078c97382a</title>
<g id="a_clust2"><a xlink:href="dir_ec47f4617e2325ef786d87078c97382a.html" target="_top">
<polygon fill="#eeeeff" stroke="#000000" points="44.5,-280 44.5,-404 186.5,-404 186.5,-280 44.5,-280"/>
</a>
</g>
</g>
<!-- dir_ec47f4617e2325ef786d87078c97382a -->
<g id="node1" class="node">
<title>dir_ec47f4617e2325ef786d87078c97382a</title>
<text text-anchor="middle" x="151.5" y="-375.5" font-family="Helvetica,sans-Serif" font-size="10.00" fill="#000000">CTF</text>
</g>
<!-- dir_d75b4e634d8b5be7e920c0a2b3d69d81 -->
<g id="node2" class="node">
<title>dir_d75b4e634d8b5be7e920c0a2b3d69d81</title>
<g id="a_node2"><a xlink:href="dir_d75b4e634d8b5be7e920c0a2b3d69d81.html" target="_top" xlink:title="include">
<polygon fill="#ffffff" stroke="#ff0000" points="142.5,-324 88.5,-324 88.5,-288 142.5,-288 142.5,-324"/>
<text text-anchor="middle" x="115.5" y="-303.5" font-family="Helvetica,sans-Serif" font-size="10.00" fill="#000000">include</text>
</a>
</g>
</g>
<!-- dir_b05a5fa85f84bfc9013183c9d87f9a36 -->
<g id="node5" class="node">
<title>dir_b05a5fa85f84bfc9013183c9d87f9a36</title>
<g id="a_node5"><a xlink:href="dir_b05a5fa85f84bfc9013183c9d87f9a36.html" target="_top" xlink:title="Utilities">
<polygon fill="none" stroke="#ff0000" points="173,-252 118,-252 118,-216 173,-216 173,-252"/>
<text text-anchor="middle" x="145.5" y="-231.5" font-family="Helvetica,sans-Serif" font-size="10.00" fill="#000000">Utilities</text>
</a>
</g>
</g>
<!-- dir_d75b4e634d8b5be7e920c0a2b3d69d81&#45;&gt;dir_b05a5fa85f84bfc9013183c9d87f9a36 -->
<g id="edge1" class="edge">
<title>dir_d75b4e634d8b5be7e920c0a2b3d69d81&#45;&gt;dir_b05a5fa85f84bfc9013183c9d87f9a36</title>
<path fill="none" stroke="#000000" d="M123.0703,-287.8314C126.3493,-279.9617 130.262,-270.5712 133.8945,-261.8533"/>
<polygon fill="#000000" stroke="#000000" points="137.2124,-262.9902 137.8278,-252.4133 130.7508,-260.2979 137.2124,-262.9902"/>
<g id="a_edge1&#45;headlabel"><a xlink:href="dir_000479_000615.html" target="_top" xlink:title="1">
<text text-anchor="middle" x="138.4507" y="-264.9003" font-family="Helvetica,sans-Serif" font-size="10.00" fill="#000000">1</text>
</a>
</g>
</g>
<!-- dir_37c90836491b695b472bf98d1be8336b -->
<g id="node6" class="node">
<title>dir_37c90836491b695b472bf98d1be8336b</title>
<g id="a_node6"><a xlink:href="dir_37c90836491b695b472bf98d1be8336b.html" target="_top" xlink:title="Base">
<polygon fill="none" stroke="#ff0000" points="138.5,-36 84.5,-36 84.5,0 138.5,0 138.5,-36"/>
<text text-anchor="middle" x="111.5" y="-15.5" font-family="Helvetica,sans-Serif" font-size="10.00" fill="#000000">Base</text>
</a>
</g>
</g>
<!-- dir_d75b4e634d8b5be7e920c0a2b3d69d81&#45;&gt;dir_37c90836491b695b472bf98d1be8336b -->
<g id="edge2" class="edge">
<title>dir_d75b4e634d8b5be7e920c0a2b3d69d81&#45;&gt;dir_37c90836491b695b472bf98d1be8336b</title>
<path fill="none" stroke="#000000" d="M142.8107,-291.9378C157.4975,-282.7504 174.2475,-269.2504 182.5,-252 189.4048,-237.5666 182.7777,-231.9976 182.5,-216 181.3887,-151.9711 205.9233,-129.3851 177.5,-72 170.7846,-58.4421 158.913,-47.1033 147.072,-38.3725"/>
<polygon fill="#000000" stroke="#000000" points="148.7489,-35.2774 138.5296,-32.4817 144.775,-41.0401 148.7489,-35.2774"/>
<g id="a_edge2&#45;headlabel"><a xlink:href="dir_000479_000280.html" target="_top" xlink:title="1">
<text text-anchor="middle" x="153.3199" y="-32.4806" font-family="Helvetica,sans-Serif" font-size="10.00" fill="#000000">1</text>
</a>
</g>
</g>
<!-- dir_2171f7ec022c5423887b07c69b2f5b48 -->
<g id="node7" class="node">
<title>dir_2171f7ec022c5423887b07c69b2f5b48</title>
<g id="a_node7"><a xlink:href="dir_2171f7ec022c5423887b07c69b2f5b48.html" target="_top" xlink:title="DataFormats">
<polygon fill="none" stroke="#ff0000" points="151.5,-108 71.5,-108 71.5,-72 151.5,-72 151.5,-108"/>
<text text-anchor="middle" x="111.5" y="-87.5" font-family="Helvetica,sans-Serif" font-size="10.00" fill="#000000">DataFormats</text>
</a>
</g>
</g>
<!-- dir_d75b4e634d8b5be7e920c0a2b3d69d81&#45;&gt;dir_2171f7ec022c5423887b07c69b2f5b48 -->
<g id="edge3" class="edge">
<title>dir_d75b4e634d8b5be7e920c0a2b3d69d81&#45;&gt;dir_2171f7ec022c5423887b07c69b2f5b48</title>
<path fill="none" stroke="#000000" d="M112.9382,-287.5478C111.621,-277.1338 110.1573,-263.867 109.5,-252 106.9147,-205.3212 108.5295,-150.9663 109.9804,-118.5799"/>
<polygon fill="#000000" stroke="#000000" points="113.4815,-118.6365 110.4598,-108.4818 106.4894,-118.3045 113.4815,-118.6365"/>
<g id="a_edge3&#45;headlabel"><a xlink:href="dir_000479_000085.html" target="_top" xlink:title="7">
<text text-anchor="middle" x="116.1472" y="-119.8617" font-family="Helvetica,sans-Serif" font-size="10.00" fill="#000000">7</text>
</a>
</g>
</g>
<!-- dir_064de061aa902d7814a068197be3650e -->
<g id="node3" class="node">
<title>dir_064de061aa902d7814a068197be3650e</title>
<g id="a_node3"><a xlink:href="dir_064de061aa902d7814a068197be3650e.html" target="_top" xlink:title="src">
<polygon fill="#ffffff" stroke="#000000" points="106.5,-396 52.5,-396 52.5,-360 106.5,-360 106.5,-396"/>
<text text-anchor="middle" x="79.5" y="-375.5" font-family="Helvetica,sans-Serif" font-size="10.00" fill="#000000">src</text>
</a>
</g>
</g>
<!-- dir_064de061aa902d7814a068197be3650e&#45;&gt;dir_d75b4e634d8b5be7e920c0a2b3d69d81 -->
<g id="edge5" class="edge">
<title>dir_064de061aa902d7814a068197be3650e&#45;&gt;dir_d75b4e634d8b5be7e920c0a2b3d69d81</title>
<path fill="none" stroke="#000000" d="M88.5843,-359.8314C92.5615,-351.8771 97.3155,-342.369 101.7139,-333.5723"/>
<polygon fill="#000000" stroke="#000000" points="104.9517,-334.9228 106.2934,-324.4133 98.6907,-331.7923 104.9517,-334.9228"/>
<g id="a_edge5&#45;headlabel"><a xlink:href="dir_000483_000479.html" target="_top" xlink:title="2">
<text text-anchor="middle" x="105.8837" y="-336.9077" font-family="Helvetica,sans-Serif" font-size="10.00" fill="#000000">2</text>
</a>
</g>
</g>
<!-- dir_4ab6b4cc6a7edbff49100e9123df213f -->
<g id="node4" class="node">
<title>dir_4ab6b4cc6a7edbff49100e9123df213f</title>
<g id="a_node4"><a xlink:href="dir_4ab6b4cc6a7edbff49100e9123df213f.html" target="_top" xlink:title="Common">
<polygon fill="none" stroke="#ff0000" points="61,-180 0,-180 0,-144 61,-144 61,-180"/>
<text text-anchor="middle" x="30.5" y="-159.5" font-family="Helvetica,sans-Serif" font-size="10.00" fill="#000000">Common</text>
</a>
</g>
</g>
<!-- dir_064de061aa902d7814a068197be3650e&#45;&gt;dir_4ab6b4cc6a7edbff49100e9123df213f -->
<g id="edge6" class="edge">
<title>dir_064de061aa902d7814a068197be3650e&#45;&gt;dir_4ab6b4cc6a7edbff49100e9123df213f</title>
<path fill="none" stroke="#000000" d="M75.4066,-359.9555C66.8676,-322.3144 47.1025,-235.1867 36.8801,-190.1246"/>
<polygon fill="#000000" stroke="#000000" points="40.2419,-189.1229 34.6162,-180.1451 33.4154,-190.6716 40.2419,-189.1229"/>
<g id="a_edge6&#45;headlabel"><a xlink:href="dir_000483_000032.html" target="_top" xlink:title="1">
<text text-anchor="middle" x="43.806" y="-189.5004" font-family="Helvetica,sans-Serif" font-size="10.00" fill="#000000">1</text>
</a>
</g>
</g>
<!-- dir_4ab6b4cc6a7edbff49100e9123df213f&#45;&gt;dir_2171f7ec022c5423887b07c69b2f5b48 -->
<g id="edge4" class="edge">
<title>dir_4ab6b4cc6a7edbff49100e9123df213f&#45;&gt;dir_2171f7ec022c5423887b07c69b2f5b48</title>
<path fill="none" stroke="#000000" d="M44.9873,-143.8314C54.0998,-134.9632 66.0873,-124.1637 77.4185,-114.5718"/>
<polygon fill="#000000" stroke="#000000" points="79.6701,-117.2515 85.115,-108.1628 75.1908,-111.8723 79.6701,-117.2515"/>
<g id="a_edge4&#45;headlabel"><a xlink:href="dir_000032_000085.html" target="_top" xlink:title="2">
<text text-anchor="middle" x="78.7247" y="-119.2335" font-family="Helvetica,sans-Serif" font-size="10.00" fill="#000000">2</text>
</a>
</g>
</g>
<!-- dir_b05a5fa85f84bfc9013183c9d87f9a36&#45;&gt;dir_4ab6b4cc6a7edbff49100e9123df213f -->
<g id="edge7" class="edge">
<title>dir_b05a5fa85f84bfc9013183c9d87f9a36&#45;&gt;dir_4ab6b4cc6a7edbff49100e9123df213f</title>
<path fill="none" stroke="#000000" d="M117.9546,-216.7542C103.0411,-207.417 84.3975,-195.7445 68.1598,-185.5783"/>
<polygon fill="#000000" stroke="#000000" points="69.7586,-182.4499 59.4254,-180.1098 66.0439,-188.383 69.7586,-182.4499"/>
<g id="a_edge7&#45;headlabel"><a xlink:href="dir_000615_000032.html" target="_top" xlink:title="1">
<text text-anchor="middle" x="74.312" y="-179.4509" font-family="Helvetica,sans-Serif" font-size="10.00" fill="#000000">1</text>
</a>
</g>
</g>
<!-- dir_b05a5fa85f84bfc9013183c9d87f9a36&#45;&gt;dir_2171f7ec022c5423887b07c69b2f5b48 -->
<g id="edge8" class="edge">
<title>dir_b05a5fa85f84bfc9013183c9d87f9a36&#45;&gt;dir_2171f7ec022c5423887b07c69b2f5b48</title>
<path fill="none" stroke="#000000" d="M136.5207,-215.7623C128.2617,-191.201 117.609,-147.2474 112.6973,-118.3541"/>
<polygon fill="#000000" stroke="#000000" points="116.0975,-117.4386 111.1129,-108.0896 109.1794,-118.5065 116.0975,-117.4386"/>
<g id="a_edge8&#45;headlabel"><a xlink:href="dir_000615_000085.html" target="_top" xlink:title="59">
<text text-anchor="middle" x="119.4518" y="-118.058" font-family="Helvetica,sans-Serif" font-size="10.00" fill="#000000">59</text>
</a>
</g>
</g>
<!-- dir_37c90836491b695b472bf98d1be8336b&#45;&gt;dir_4ab6b4cc6a7edbff49100e9123df213f -->
<g id="edge9" class="edge">
<title>dir_37c90836491b695b472bf98d1be8336b&#45;&gt;dir_4ab6b4cc6a7edbff49100e9123df213f</title>
<path fill="none" stroke="#000000" d="M91.7973,-36.0038C81.9309,-45.862 70.4306,-58.7473 62.5,-72 50.9143,-91.3605 42.6049,-115.5631 37.3617,-133.9924"/>
<polygon fill="#000000" stroke="#000000" points="33.9326,-133.2649 34.6951,-143.8323 40.689,-135.0959 33.9326,-133.2649"/>
<g id="a_edge9&#45;headlabel"><a xlink:href="dir_000280_000032.html" target="_top" xlink:title="16">
<text text-anchor="middle" x="32.1323" y="-126.5528" font-family="Helvetica,sans-Serif" font-size="10.00" fill="#000000">16</text>
</a>
</g>
</g>
<!-- dir_37c90836491b695b472bf98d1be8336b&#45;&gt;dir_b05a5fa85f84bfc9013183c9d87f9a36 -->
<g id="edge10" class="edge">
<title>dir_37c90836491b695b472bf98d1be8336b&#45;&gt;dir_b05a5fa85f84bfc9013183c9d87f9a36</title>
<path fill="none" stroke="#000000" d="M134.175,-36.0091C144.2888,-45.5028 155.1198,-58.0645 160.5,-72 177.6658,-116.462 165.6856,-172.6933 155.5238,-205.862"/>
<polygon fill="#000000" stroke="#000000" points="152.0648,-205.1849 152.3277,-215.7765 158.7272,-207.3327 152.0648,-205.1849"/>
<g id="a_edge10&#45;headlabel"><a xlink:href="dir_000280_000615.html" target="_top" xlink:title="1">
<text text-anchor="middle" x="150.4653" y="-198.3925" font-family="Helvetica,sans-Serif" font-size="10.00" fill="#000000">1</text>
</a>
</g>
</g>
<!-- dir_37c90836491b695b472bf98d1be8336b&#45;&gt;dir_2171f7ec022c5423887b07c69b2f5b48 -->
<g id="edge11" class="edge">
<title>dir_37c90836491b695b472bf98d1be8336b&#45;&gt;dir_2171f7ec022c5423887b07c69b2f5b48</title>
<path fill="none" stroke="#000000" d="M117.476,-36.4133C118.2071,-44.0593 118.4203,-53.1084 118.1155,-61.5726"/>
<polygon fill="#000000" stroke="#000000" points="114.6048,-61.6264 117.4524,-71.8314 121.5902,-62.078 114.6048,-61.6264"/>
<g id="a_edge11&#45;headlabel"><a xlink:href="dir_000280_000085.html" target="_top" xlink:title="15">
<text text-anchor="middle" x="112.0032" y="-55.3562" font-family="Helvetica,sans-Serif" font-size="10.00" fill="#000000">15</text>
</a>
</g>
</g>
<!-- dir_2171f7ec022c5423887b07c69b2f5b48&#45;&gt;dir_4ab6b4cc6a7edbff49100e9123df213f -->
<g id="edge12" class="edge">
<title>dir_2171f7ec022c5423887b07c69b2f5b48&#45;&gt;dir_4ab6b4cc6a7edbff49100e9123df213f</title>
<path fill="none" stroke="#000000" d="M97.0186,-108.1628C87.9075,-117.0301 75.9204,-127.8295 64.5889,-137.4219"/>
<polygon fill="#000000" stroke="#000000" points="62.3368,-134.7426 56.8921,-143.8314 66.8163,-140.1217 62.3368,-134.7426"/>
<g id="a_edge12&#45;headlabel"><a xlink:href="dir_000085_000032.html" target="_top" xlink:title="37">
<text text-anchor="middle" x="63.2822" y="-127.7605" font-family="Helvetica,sans-Serif" font-size="10.00" fill="#000000">37</text>
</a>
</g>
</g>
<!-- dir_2171f7ec022c5423887b07c69b2f5b48&#45;&gt;dir_b05a5fa85f84bfc9013183c9d87f9a36 -->
<g id="edge13" class="edge">
<title>dir_2171f7ec022c5423887b07c69b2f5b48&#45;&gt;dir_b05a5fa85f84bfc9013183c9d87f9a36</title>
<path fill="none" stroke="#000000" d="M120.4295,-108.0896C128.7151,-132.6805 139.4321,-176.905 144.3379,-205.8531"/>
<polygon fill="#000000" stroke="#000000" points="140.8828,-206.4131 145.867,-215.7623 147.8009,-205.3455 140.8828,-206.4131"/>
<g id="a_edge13&#45;headlabel"><a xlink:href="dir_000085_000615.html" target="_top" xlink:title="1">
<text text-anchor="middle" x="137.5286" y="-200.7935" font-family="Helvetica,sans-Serif" font-size="10.00" fill="#000000">1</text>
</a>
</g>
</g>
<!-- dir_2171f7ec022c5423887b07c69b2f5b48&#45;&gt;dir_37c90836491b695b472bf98d1be8336b -->
<g id="edge14" class="edge">
<title>dir_2171f7ec022c5423887b07c69b2f5b48&#45;&gt;dir_37c90836491b695b472bf98d1be8336b</title>
<path fill="none" stroke="#000000" d="M105.5476,-71.8314C104.7972,-64.131 104.5763,-54.9743 104.8849,-46.4166"/>
<polygon fill="#000000" stroke="#000000" points="108.3792,-46.6161 105.524,-36.4133 101.3935,-46.1697 108.3792,-46.6161"/>
<g id="a_edge14&#45;headlabel"><a xlink:href="dir_000085_000280.html" target="_top" xlink:title="1">
<text text-anchor="middle" x="110.9836" y="-47.8844" font-family="Helvetica,sans-Serif" font-size="10.00" fill="#000000">1</text>
</a>
</g>
</g>
</g>
</svg>
