<?xml version="1.0" encoding="UTF-8" standalone="no"?>
<!DOCTYPE svg PUBLIC "-//W3C//DTD SVG 1.1//EN"
 "http://www.w3.org/Graphics/SVG/1.1/DTD/svg11.dtd">
<!-- Generated by graphviz version 2.40.1 (20161225.0304)
 -->
<!-- Title: /home/travis/build/AliceO2Group/AliceO2/Detectors/Vertexing Pages: 1 -->
<svg width="339pt" height="375pt"
 viewBox="0.00 0.00 338.54 375.00" xmlns="http://www.w3.org/2000/svg" xmlns:xlink="http://www.w3.org/1999/xlink">
<g id="graph0" class="graph" transform="scale(1 1) rotate(0) translate(4 371)">
<title>/home/travis/build/AliceO2Group/AliceO2/Detectors/Vertexing</title>
<g id="clust1" class="cluster">
<title>clusterdir_051dca18e802f8e9474f2e30d29c04e0</title>
<g id="a_clust1"><a xlink:href="dir_051dca18e802f8e9474f2e30d29c04e0.html" target="_top" xlink:title="Detectors">
<polygon fill="#ddddee" stroke="#000000" points="8,-200 8,-359 248,-359 248,-200 8,-200"/>
<text text-anchor="middle" x="128" y="-347" font-family="Helvetica,sans-Serif" font-size="10.00" fill="#000000">Detectors</text>
</a>
</g>
</g>
<g id="clust2" class="cluster">
<title>clusterdir_411c6bed3d84b00fddab3a93c8a3b5fb</title>
<g id="a_clust2"><a xlink:href="dir_411c6bed3d84b00fddab3a93c8a3b5fb.html" target="_top">
<polygon fill="#eeeeff" stroke="#000000" points="16,-208 16,-332 240,-332 240,-208 16,-208"/>
</a>
</g>
</g>
<!-- dir_411c6bed3d84b00fddab3a93c8a3b5fb -->
<g id="node1" class="node">
<title>dir_411c6bed3d84b00fddab3a93c8a3b5fb</title>
<text text-anchor="middle" x="200" y="-303.5" font-family="Helvetica,sans-Serif" font-size="10.00" fill="#000000">Vertexing</text>
</g>
<!-- dir_685195b2337b28da095e36f150390e16 -->
<g id="node2" class="node">
<title>dir_685195b2337b28da095e36f150390e16</title>
<g id="a_node2"><a xlink:href="dir_685195b2337b28da095e36f150390e16.html" target="_top" xlink:title="include">
<polygon fill="#ffffff" stroke="#ff0000" points="150,-252 96,-252 96,-216 150,-216 150,-252"/>
<text text-anchor="middle" x="123" y="-231.5" font-family="Helvetica,sans-Serif" font-size="10.00" fill="#000000">include</text>
</a>
</g>
</g>
<!-- dir_4ab6b4cc6a7edbff49100e9123df213f -->
<g id="node5" class="node">
<title>dir_4ab6b4cc6a7edbff49100e9123df213f</title>
<g id="a_node5"><a xlink:href="dir_4ab6b4cc6a7edbff49100e9123df213f.html" target="_top" xlink:title="Common">
<polygon fill="none" stroke="#ff0000" points="252.5,-180 191.5,-180 191.5,-144 252.5,-144 252.5,-180"/>
<text text-anchor="middle" x="222" y="-159.5" font-family="Helvetica,sans-Serif" font-size="10.00" fill="#000000">Common</text>
</a>
</g>
</g>
<!-- dir_685195b2337b28da095e36f150390e16&#45;&gt;dir_4ab6b4cc6a7edbff49100e9123df213f -->
<g id="edge9" class="edge">
<title>dir_685195b2337b28da095e36f150390e16&#45;&gt;dir_4ab6b4cc6a7edbff49100e9123df213f</title>
<path fill="none" stroke="#000000" d="M147.9819,-215.8314C160.2928,-206.8779 175.3107,-195.9558 188.5937,-186.2955"/>
<polygon fill="#000000" stroke="#000000" points="190.9973,-188.8752 197.0261,-180.1628 186.8801,-183.214 190.9973,-188.8752"/>
<g id="a_edge9&#45;headlabel"><a xlink:href="dir_000674_000032.html" target="_top" xlink:title="6">
<text text-anchor="middle" x="189.7602" y="-190.7856" font-family="Helvetica,sans-Serif" font-size="10.00" fill="#000000">6</text>
</a>
</g>
</g>
<!-- dir_d14e88a79bca429480864605ee348cef -->
<g id="node6" class="node">
<title>dir_d14e88a79bca429480864605ee348cef</title>
<g id="a_node6"><a xlink:href="dir_d14e88a79bca429480864605ee348cef.html" target="_top" xlink:title="FIT">
<polygon fill="none" stroke="#ff0000" points="222,-36 168,-36 168,0 222,0 222,-36"/>
<text text-anchor="middle" x="195" y="-15.5" font-family="Helvetica,sans-Serif" font-size="10.00" fill="#000000">FIT</text>
</a>
</g>
</g>
<!-- dir_685195b2337b28da095e36f150390e16&#45;&gt;dir_d14e88a79bca429480864605ee348cef -->
<g id="edge10" class="edge">
<title>dir_685195b2337b28da095e36f150390e16&#45;&gt;dir_d14e88a79bca429480864605ee348cef</title>
<path fill="none" stroke="#000000" d="M127.8047,-215.81C135.9355,-185.6136 153.3526,-123.3735 172,-72 175.1486,-63.3255 178.9479,-54.0305 182.5434,-45.6396"/>
<polygon fill="#000000" stroke="#000000" points="185.829,-46.8613 186.6195,-36.296 179.4129,-44.0623 185.829,-46.8613"/>
<g id="a_edge10&#45;headlabel"><a xlink:href="dir_000674_000171.html" target="_top" xlink:title="1">
<text text-anchor="middle" x="186.9941" y="-48.7913" font-family="Helvetica,sans-Serif" font-size="10.00" fill="#000000">1</text>
</a>
</g>
</g>
<!-- dir_2171f7ec022c5423887b07c69b2f5b48 -->
<g id="node8" class="node">
<title>dir_2171f7ec022c5423887b07c69b2f5b48</title>
<g id="a_node8"><a xlink:href="dir_2171f7ec022c5423887b07c69b2f5b48.html" target="_top" xlink:title="DataFormats">
<polygon fill="none" stroke="#ff0000" points="269,-108 189,-108 189,-72 269,-72 269,-108"/>
<text text-anchor="middle" x="229" y="-87.5" font-family="Helvetica,sans-Serif" font-size="10.00" fill="#000000">DataFormats</text>
</a>
</g>
</g>
<!-- dir_685195b2337b28da095e36f150390e16&#45;&gt;dir_2171f7ec022c5423887b07c69b2f5b48 -->
<g id="edge11" class="edge">
<title>dir_685195b2337b28da095e36f150390e16&#45;&gt;dir_2171f7ec022c5423887b07c69b2f5b48</title>
<path fill="none" stroke="#000000" d="M134.1283,-215.9846C145.7461,-197.5042 164.7802,-168.1275 183,-144 190.1595,-134.5191 198.4552,-124.5155 206.0142,-115.7294"/>
<polygon fill="#000000" stroke="#000000" points="208.7703,-117.8939 212.6952,-108.0528 203.49,-113.2983 208.7703,-117.8939"/>
<g id="a_edge11&#45;headlabel"><a xlink:href="dir_000674_000085.html" target="_top" xlink:title="23">
<text text-anchor="middle" x="208.5522" y="-119.9693" font-family="Helvetica,sans-Serif" font-size="10.00" fill="#000000">23</text>
</a>
</g>
</g>
<!-- dir_883dc5fa98effd9ea20067bac655f28b -->
<g id="node3" class="node">
<title>dir_883dc5fa98effd9ea20067bac655f28b</title>
<g id="a_node3"><a xlink:href="dir_883dc5fa98effd9ea20067bac655f28b.html" target="_top" xlink:title="src">
<polygon fill="#ffffff" stroke="#000000" points="150,-324 96,-324 96,-288 150,-288 150,-324"/>
<text text-anchor="middle" x="123" y="-303.5" font-family="Helvetica,sans-Serif" font-size="10.00" fill="#000000">src</text>
</a>
</g>
</g>
<!-- dir_883dc5fa98effd9ea20067bac655f28b&#45;&gt;dir_685195b2337b28da095e36f150390e16 -->
<g id="edge2" class="edge">
<title>dir_883dc5fa98effd9ea20067bac655f28b&#45;&gt;dir_685195b2337b28da095e36f150390e16</title>
<path fill="none" stroke="#000000" d="M123,-287.8314C123,-280.131 123,-270.9743 123,-262.4166"/>
<polygon fill="#000000" stroke="#000000" points="126.5001,-262.4132 123,-252.4133 119.5001,-262.4133 126.5001,-262.4132"/>
<g id="a_edge2&#45;headlabel"><a xlink:href="dir_000676_000674.html" target="_top" xlink:title="5">
<text text-anchor="middle" x="129.3393" y="-263.5079" font-family="Helvetica,sans-Serif" font-size="10.00" fill="#000000">5</text>
</a>
</g>
</g>
<!-- dir_a597e8e061b11201a1dff411feb10d0b -->
<g id="node7" class="node">
<title>dir_a597e8e061b11201a1dff411feb10d0b</title>
<g id="a_node7"><a xlink:href="dir_a597e8e061b11201a1dff411feb10d0b.html" target="_top" xlink:title="TPC">
<polygon fill="none" stroke="#ff0000" points="310,-252 256,-252 256,-216 310,-216 310,-252"/>
<text text-anchor="middle" x="283" y="-231.5" font-family="Helvetica,sans-Serif" font-size="10.00" fill="#000000">TPC</text>
</a>
</g>
</g>
<!-- dir_883dc5fa98effd9ea20067bac655f28b&#45;&gt;dir_a597e8e061b11201a1dff411feb10d0b -->
<g id="edge1" class="edge">
<title>dir_883dc5fa98effd9ea20067bac655f28b&#45;&gt;dir_a597e8e061b11201a1dff411feb10d0b</title>
<path fill="none" stroke="#000000" d="M150.007,-292.6767C153.3608,-291.0768 156.7517,-289.4852 160,-288 196.9396,-271.1108 206.8903,-268.5121 244,-252 244.8346,-251.6286 245.6787,-251.2516 246.5293,-250.8703"/>
<polygon fill="#000000" stroke="#000000" points="248.1041,-253.9993 255.7683,-246.6843 245.2152,-247.6232 248.1041,-253.9993"/>
<g id="a_edge1&#45;headlabel"><a xlink:href="dir_000676_000054.html" target="_top" xlink:title="3">
<text text-anchor="middle" x="246.0016" y="-255.569" font-family="Helvetica,sans-Serif" font-size="10.00" fill="#000000">3</text>
</a>
</g>
</g>
<!-- dir_883dc5fa98effd9ea20067bac655f28b&#45;&gt;dir_2171f7ec022c5423887b07c69b2f5b48 -->
<g id="edge3" class="edge">
<title>dir_883dc5fa98effd9ea20067bac655f28b&#45;&gt;dir_2171f7ec022c5423887b07c69b2f5b48</title>
<path fill="none" stroke="#000000" d="M150.1783,-291.9111C153.4421,-290.479 156.7648,-289.1361 160,-288 228.3625,-263.9929 273.7756,-308.6086 319,-252 354.2469,-207.8805 298.8575,-148.1089 260.5456,-114.8864"/>
<polygon fill="#000000" stroke="#000000" points="262.5613,-112.007 252.6682,-108.2152 258.0374,-117.3488 262.5613,-112.007"/>
<g id="a_edge3&#45;headlabel"><a xlink:href="dir_000676_000085.html" target="_top" xlink:title="1">
<text text-anchor="middle" x="267.1393" y="-109.6633" font-family="Helvetica,sans-Serif" font-size="10.00" fill="#000000">1</text>
</a>
</g>
</g>
<!-- dir_a132bc2c584076a38e235eca4d667b8c -->
<g id="node4" class="node">
<title>dir_a132bc2c584076a38e235eca4d667b8c</title>
<g id="a_node4"><a xlink:href="dir_a132bc2c584076a38e235eca4d667b8c.html" target="_top" xlink:title="test">
<polygon fill="#ffffff" stroke="#000000" points="78,-324 24,-324 24,-288 78,-288 78,-324"/>
<text text-anchor="middle" x="51" y="-303.5" font-family="Helvetica,sans-Serif" font-size="10.00" fill="#000000">test</text>
</a>
</g>
</g>
<!-- dir_a132bc2c584076a38e235eca4d667b8c&#45;&gt;dir_685195b2337b28da095e36f150390e16 -->
<g id="edge13" class="edge">
<title>dir_a132bc2c584076a38e235eca4d667b8c&#45;&gt;dir_685195b2337b28da095e36f150390e16</title>
<path fill="none" stroke="#000000" d="M69.1686,-287.8314C77.7152,-279.2848 88.0557,-268.9443 97.3802,-259.6198"/>
<polygon fill="#000000" stroke="#000000" points="99.9905,-261.9592 104.5867,-252.4133 95.0408,-257.0095 99.9905,-261.9592"/>
<g id="a_edge13&#45;headlabel"><a xlink:href="dir_000677_000674.html" target="_top" xlink:title="1">
<text text-anchor="middle" x="99.4564" y="-264.0087" font-family="Helvetica,sans-Serif" font-size="10.00" fill="#000000">1</text>
</a>
</g>
</g>
<!-- dir_a132bc2c584076a38e235eca4d667b8c&#45;&gt;dir_4ab6b4cc6a7edbff49100e9123df213f -->
<g id="edge12" class="edge">
<title>dir_a132bc2c584076a38e235eca4d667b8c&#45;&gt;dir_4ab6b4cc6a7edbff49100e9123df213f</title>
<path fill="none" stroke="#000000" d="M78.2357,-292.3884C110.2121,-276.4067 158.9467,-252.046 159,-252 179.4768,-234.3334 196.5979,-208.6257 207.7985,-189.2049"/>
<polygon fill="#000000" stroke="#000000" points="210.9861,-190.6755 212.8102,-180.2389 204.8759,-187.2601 210.9861,-190.6755"/>
<g id="a_edge12&#45;headlabel"><a xlink:href="dir_000677_000032.html" target="_top" xlink:title="1">
<text text-anchor="middle" x="211.7107" y="-192.6985" font-family="Helvetica,sans-Serif" font-size="10.00" fill="#000000">1</text>
</a>
</g>
</g>
<!-- dir_4ab6b4cc6a7edbff49100e9123df213f&#45;&gt;dir_2171f7ec022c5423887b07c69b2f5b48 -->
<g id="edge4" class="edge">
<title>dir_4ab6b4cc6a7edbff49100e9123df213f&#45;&gt;dir_2171f7ec022c5423887b07c69b2f5b48</title>
<path fill="none" stroke="#000000" d="M217.814,-143.8314C217.8122,-136.131 218.4816,-126.9743 219.6222,-118.4166"/>
<polygon fill="#000000" stroke="#000000" points="223.0986,-118.8427 221.2338,-108.4133 216.1877,-117.7292 223.0986,-118.8427"/>
<g id="a_edge4&#45;headlabel"><a xlink:href="dir_000032_000085.html" target="_top" xlink:title="2">
<text text-anchor="middle" x="225.3301" y="-120.3431" font-family="Helvetica,sans-Serif" font-size="10.00" fill="#000000">2</text>
</a>
</g>
</g>
<!-- dir_d14e88a79bca429480864605ee348cef&#45;&gt;dir_4ab6b4cc6a7edbff49100e9123df213f -->
<g id="edge5" class="edge">
<title>dir_d14e88a79bca429480864605ee348cef&#45;&gt;dir_4ab6b4cc6a7edbff49100e9123df213f</title>
<path fill="none" stroke="#000000" d="M186.9167,-36.0173C179.79,-54.4993 171.7233,-83.8772 180,-108 183.469,-118.1106 189.6899,-127.7863 196.299,-136.0834"/>
<polygon fill="#000000" stroke="#000000" points="193.7992,-138.5461 202.95,-143.8859 199.1265,-134.0051 193.7992,-138.5461"/>
<g id="a_edge5&#45;headlabel"><a xlink:href="dir_000171_000032.html" target="_top" xlink:title="29">
<text text-anchor="middle" x="189.3066" y="-135.1524" font-family="Helvetica,sans-Serif" font-size="10.00" fill="#000000">29</text>
</a>
</g>
</g>
<!-- dir_d14e88a79bca429480864605ee348cef&#45;&gt;dir_2171f7ec022c5423887b07c69b2f5b48 -->
<g id="edge6" class="edge">
<title>dir_d14e88a79bca429480864605ee348cef&#45;&gt;dir_2171f7ec022c5423887b07c69b2f5b48</title>
<path fill="none" stroke="#000000" d="M209.6712,-36.4133C214.1576,-44.3141 218.7985,-53.7132 222.5579,-62.417"/>
<polygon fill="#000000" stroke="#000000" points="219.3734,-63.8778 226.3728,-71.8314 225.861,-61.2489 219.3734,-63.8778"/>
<g id="a_edge6&#45;headlabel"><a xlink:href="dir_000171_000085.html" target="_top" xlink:title="138">
<text text-anchor="middle" x="215.3921" y="-59.1125" font-family="Helvetica,sans-Serif" font-size="10.00" fill="#000000">138</text>
</a>
</g>
</g>
<!-- dir_a597e8e061b11201a1dff411feb10d0b&#45;&gt;dir_4ab6b4cc6a7edbff49100e9123df213f -->
<g id="edge7" class="edge">
<title>dir_a597e8e061b11201a1dff411feb10d0b&#45;&gt;dir_4ab6b4cc6a7edbff49100e9123df213f</title>
<path fill="none" stroke="#000000" d="M267.6071,-215.8314C260.5096,-207.454 251.952,-197.3531 244.176,-188.1749"/>
<polygon fill="#000000" stroke="#000000" points="246.7348,-185.7807 237.6001,-180.4133 241.3939,-190.3056 246.7348,-185.7807"/>
<g id="a_edge7&#45;headlabel"><a xlink:href="dir_000054_000032.html" target="_top" xlink:title="40">
<text text-anchor="middle" x="251.2247" y="-184.1879" font-family="Helvetica,sans-Serif" font-size="10.00" fill="#000000">40</text>
</a>
</g>
</g>
<!-- dir_a597e8e061b11201a1dff411feb10d0b&#45;&gt;dir_2171f7ec022c5423887b07c69b2f5b48 -->
<g id="edge8" class="edge">
<title>dir_a597e8e061b11201a1dff411feb10d0b&#45;&gt;dir_2171f7ec022c5423887b07c69b2f5b48</title>
<path fill="none" stroke="#000000" d="M280.517,-215.8919C277.5753,-197.3377 271.7945,-167.9031 262,-144 258.2065,-134.742 252.9362,-125.2377 247.7198,-116.8337"/>
<polygon fill="#000000" stroke="#000000" points="250.5171,-114.7135 242.153,-108.2101 244.636,-118.5099 250.5171,-114.7135"/>
<g id="a_edge8&#45;headlabel"><a xlink:href="dir_000054_000085.html" target="_top" xlink:title="185">
<text text-anchor="middle" x="254.852" y="-113.6937" font-family="Helvetica,sans-Serif" font-size="10.00" fill="#000000">185</text>
</a>
</g>
</g>
<!-- dir_2171f7ec022c5423887b07c69b2f5b48&#45;&gt;dir_4ab6b4cc6a7edbff49100e9123df213f -->
<g id="edge14" class="edge">
<title>dir_2171f7ec022c5423887b07c69b2f5b48&#45;&gt;dir_4ab6b4cc6a7edbff49100e9123df213f</title>
<path fill="none" stroke="#000000" d="M233.1858,-108.4133C233.1734,-116.1442 232.4921,-125.3097 231.3415,-133.8545"/>
<polygon fill="#000000" stroke="#000000" points="227.8696,-133.3992 229.7188,-143.8314 234.7788,-134.523 227.8696,-133.3992"/>
<g id="a_edge14&#45;headlabel"><a xlink:href="dir_000085_000032.html" target="_top" xlink:title="37">
<text text-anchor="middle" x="225.6442" y="-126.8954" font-family="Helvetica,sans-Serif" font-size="10.00" fill="#000000">37</text>
</a>
</g>
</g>
<!-- dir_2171f7ec022c5423887b07c69b2f5b48&#45;&gt;dir_d14e88a79bca429480864605ee348cef -->
<g id="edge15" class="edge">
<title>dir_2171f7ec022c5423887b07c69b2f5b48&#45;&gt;dir_d14e88a79bca429480864605ee348cef</title>
<path fill="none" stroke="#000000" d="M214.468,-71.8314C209.9848,-63.9617 205.3365,-54.5712 201.559,-45.8533"/>
<polygon fill="#000000" stroke="#000000" points="204.7291,-44.3575 197.7191,-36.4133 198.245,-46.9951 204.7291,-44.3575"/>
<g id="a_edge15&#45;headlabel"><a xlink:href="dir_000085_000171.html" target="_top" xlink:title="3">
<text text-anchor="middle" x="208.7134" y="-44.1175" font-family="Helvetica,sans-Serif" font-size="10.00" fill="#000000">3</text>
</a>
</g>
</g>
</g>
</svg>
