<?xml version="1.0" encoding="UTF-8" standalone="no"?>
<!DOCTYPE svg PUBLIC "-//W3C//DTD SVG 1.1//EN"
 "http://www.w3.org/Graphics/SVG/1.1/DTD/svg11.dtd">
<!-- Generated by graphviz version 2.40.1 (20161225.0304)
 -->
<!-- Title: /home/travis/build/AliceO2Group/AliceO2/Detectors/FIT/FV0/workflow/include/FV0Workflow Pages: 1 -->
<svg width="143pt" height="223pt"
 viewBox="0.00 0.00 143.00 223.00" xmlns="http://www.w3.org/2000/svg" xmlns:xlink="http://www.w3.org/1999/xlink">
<g id="graph0" class="graph" transform="scale(1 1) rotate(0) translate(4 219)">
<title>/home/travis/build/AliceO2Group/AliceO2/Detectors/FIT/FV0/workflow/include/FV0Workflow</title>
<g id="clust1" class="cluster">
<title>clusterdir_92143a1f76ab3242176be049b81b09c9</title>
<g id="a_clust1"><a xlink:href="dir_92143a1f76ab3242176be049b81b09c9.html" target="_top" xlink:title="include">
<polygon fill="#ddddee" stroke="#000000" points="31,-136 31,-207 127,-207 127,-136 31,-136"/>
<text text-anchor="middle" x="79" y="-195" font-family="Helvetica,sans-Serif" font-size="10.00" fill="#000000">include</text>
</a>
</g>
</g>
<!-- dir_2bb1918f9c140f261f392e625af493b4 -->
<g id="node1" class="node">
<title>dir_2bb1918f9c140f261f392e625af493b4</title>
<g id="a_node1"><a xlink:href="dir_2bb1918f9c140f261f392e625af493b4.html" target="_top" xlink:title="FV0Workflow">
<polygon fill="#eeeeff" stroke="#000000" points="119,-180 39,-180 39,-144 119,-144 119,-180"/>
<text text-anchor="middle" x="79" y="-159.5" font-family="Helvetica,sans-Serif" font-size="10.00" fill="#000000">FV0Workflow</text>
</a>
</g>
</g>
<!-- dir_e0bfde3cc4c1f87a15076e6d43624461 -->
<g id="node2" class="node">
<title>dir_e0bfde3cc4c1f87a15076e6d43624461</title>
<g id="a_node2"><a xlink:href="dir_e0bfde3cc4c1f87a15076e6d43624461.html" target="_top" xlink:title="reconstruction">
<polygon fill="none" stroke="#ff0000" points="86,-108 0,-108 0,-72 86,-72 86,-108"/>
<text text-anchor="middle" x="43" y="-87.5" font-family="Helvetica,sans-Serif" font-size="10.00" fill="#000000">reconstruction</text>
</a>
</g>
</g>
<!-- dir_2bb1918f9c140f261f392e625af493b4&#45;&gt;dir_e0bfde3cc4c1f87a15076e6d43624461 -->
<g id="edge2" class="edge">
<title>dir_2bb1918f9c140f261f392e625af493b4&#45;&gt;dir_e0bfde3cc4c1f87a15076e6d43624461</title>
<path fill="none" stroke="#000000" d="M69.9157,-143.8314C65.9385,-135.8771 61.1845,-126.369 56.7861,-117.5723"/>
<polygon fill="#000000" stroke="#000000" points="59.8093,-115.7923 52.2066,-108.4133 53.5483,-118.9228 59.8093,-115.7923"/>
<g id="a_edge2&#45;headlabel"><a xlink:href="dir_000462_000475.html" target="_top" xlink:title="2">
<text text-anchor="middle" x="63.9563" y="-115.2377" font-family="Helvetica,sans-Serif" font-size="10.00" fill="#000000">2</text>
</a>
</g>
</g>
<!-- dir_bcbb2cf9a3d3d83e5515c82071a07177 -->
<g id="node3" class="node">
<title>dir_bcbb2cf9a3d3d83e5515c82071a07177</title>
<g id="a_node3"><a xlink:href="dir_bcbb2cf9a3d3d83e5515c82071a07177.html" target="_top" xlink:title="Framework">
<polygon fill="none" stroke="#ff0000" points="113.5,-36 42.5,-36 42.5,0 113.5,0 113.5,-36"/>
<text text-anchor="middle" x="78" y="-15.5" font-family="Helvetica,sans-Serif" font-size="10.00" fill="#000000">Framework</text>
</a>
</g>
</g>
<!-- dir_2bb1918f9c140f261f392e625af493b4&#45;&gt;dir_bcbb2cf9a3d3d83e5515c82071a07177 -->
<g id="edge3" class="edge">
<title>dir_2bb1918f9c140f261f392e625af493b4&#45;&gt;dir_bcbb2cf9a3d3d83e5515c82071a07177</title>
<path fill="none" stroke="#000000" d="M85.8195,-143.7996C89.3281,-133.4645 93.2317,-120.1925 95,-108 97.2965,-92.1657 97.4305,-87.8143 95,-72 93.6626,-63.2979 91.1796,-54.074 88.5166,-45.759"/>
<polygon fill="#000000" stroke="#000000" points="91.7846,-44.4982 85.2439,-36.1634 85.1594,-46.7579 91.7846,-44.4982"/>
<g id="a_edge3&#45;headlabel"><a xlink:href="dir_000462_000058.html" target="_top" xlink:title="6">
<text text-anchor="middle" x="95.6322" y="-44.4838" font-family="Helvetica,sans-Serif" font-size="10.00" fill="#000000">6</text>
</a>
</g>
</g>
<!-- dir_e0bfde3cc4c1f87a15076e6d43624461&#45;&gt;dir_bcbb2cf9a3d3d83e5515c82071a07177 -->
<g id="edge1" class="edge">
<title>dir_e0bfde3cc4c1f87a15076e6d43624461&#45;&gt;dir_bcbb2cf9a3d3d83e5515c82071a07177</title>
<path fill="none" stroke="#000000" d="M51.832,-71.8314C55.6986,-63.8771 60.3206,-54.369 64.5968,-45.5723"/>
<polygon fill="#000000" stroke="#000000" points="67.8249,-46.9371 69.0491,-36.4133 61.5293,-43.8768 67.8249,-46.9371"/>
<g id="a_edge1&#45;headlabel"><a xlink:href="dir_000475_000058.html" target="_top" xlink:title="1">
<text text-anchor="middle" x="68.807" y="-48.9113" font-family="Helvetica,sans-Serif" font-size="10.00" fill="#000000">1</text>
</a>
</g>
</g>
</g>
</svg>
