<?xml version="1.0" encoding="UTF-8" standalone="no"?>
<!DOCTYPE svg PUBLIC "-//W3C//DTD SVG 1.1//EN"
 "http://www.w3.org/Graphics/SVG/1.1/DTD/svg11.dtd">
<!-- Generated by graphviz version 2.40.1 (20161225.0304)
 -->
<!-- Title: /home/travis/build/AliceO2Group/AliceO2/Detectors/TPC/reconstruction/test Pages: 1 -->
<svg width="211pt" height="367pt"
 viewBox="0.00 0.00 211.37 367.00" xmlns="http://www.w3.org/2000/svg" xmlns:xlink="http://www.w3.org/1999/xlink">
<g id="graph0" class="graph" transform="scale(1 1) rotate(0) translate(4 363)">
<title>/home/travis/build/AliceO2Group/AliceO2/Detectors/TPC/reconstruction/test</title>
<g id="clust1" class="cluster">
<title>clusterdir_a5de047958dd458e809773c6ffaa8478</title>
<g id="a_clust1"><a xlink:href="dir_a5de047958dd458e809773c6ffaa8478.html" target="_top" xlink:title="reconstruction">
<polygon fill="#ddddee" stroke="#000000" points="24.3692,-280 24.3692,-351 110.3692,-351 110.3692,-280 24.3692,-280"/>
<text text-anchor="middle" x="67.3692" y="-339" font-family="Helvetica,sans-Serif" font-size="10.00" fill="#000000">reconstruction</text>
</a>
</g>
</g>
<!-- dir_064d7f478c030df51e47c94b08ab25b1 -->
<g id="node1" class="node">
<title>dir_064d7f478c030df51e47c94b08ab25b1</title>
<g id="a_node1"><a xlink:href="dir_064d7f478c030df51e47c94b08ab25b1.html" target="_top" xlink:title="test">
<polygon fill="#eeeeff" stroke="#000000" points="94.3692,-324 40.3692,-324 40.3692,-288 94.3692,-288 94.3692,-324"/>
<text text-anchor="middle" x="67.3692" y="-303.5" font-family="Helvetica,sans-Serif" font-size="10.00" fill="#000000">test</text>
</a>
</g>
</g>
<!-- dir_677b030cc750909e4cd27413873678d8 -->
<g id="node2" class="node">
<title>dir_677b030cc750909e4cd27413873678d8</title>
<g id="a_node2"><a xlink:href="dir_677b030cc750909e4cd27413873678d8.html" target="_top" xlink:title="base">
<polygon fill="none" stroke="#ff0000" points="67.3692,-180 13.3692,-180 13.3692,-144 67.3692,-144 67.3692,-180"/>
<text text-anchor="middle" x="40.3692" y="-159.5" font-family="Helvetica,sans-Serif" font-size="10.00" fill="#000000">base</text>
</a>
</g>
</g>
<!-- dir_064d7f478c030df51e47c94b08ab25b1&#45;&gt;dir_677b030cc750909e4cd27413873678d8 -->
<g id="edge5" class="edge">
<title>dir_064d7f478c030df51e47c94b08ab25b1&#45;&gt;dir_677b030cc750909e4cd27413873678d8</title>
<path fill="none" stroke="#000000" d="M63.9496,-287.7623C59.3241,-263.0928 51.0304,-218.8598 45.6142,-189.9731"/>
<polygon fill="#000000" stroke="#000000" points="49.044,-189.2733 43.761,-180.0896 42.1639,-190.5634 49.044,-189.2733"/>
<g id="a_edge5&#45;headlabel"><a xlink:href="dir_000664_000055.html" target="_top" xlink:title="7">
<text text-anchor="middle" x="52.497" y="-189.7831" font-family="Helvetica,sans-Serif" font-size="10.00" fill="#000000">7</text>
</a>
</g>
</g>
<!-- dir_396d171119822f66a36fe1ebf998d1a3 -->
<g id="node3" class="node">
<title>dir_396d171119822f66a36fe1ebf998d1a3</title>
<g id="a_node3"><a xlink:href="dir_396d171119822f66a36fe1ebf998d1a3.html" target="_top" xlink:title="include">
<polygon fill="none" stroke="#ff0000" points="122.3692,-252 68.3692,-252 68.3692,-216 122.3692,-216 122.3692,-252"/>
<text text-anchor="middle" x="95.3692" y="-231.5" font-family="Helvetica,sans-Serif" font-size="10.00" fill="#000000">include</text>
</a>
</g>
</g>
<!-- dir_064d7f478c030df51e47c94b08ab25b1&#45;&gt;dir_396d171119822f66a36fe1ebf998d1a3 -->
<g id="edge6" class="edge">
<title>dir_064d7f478c030df51e47c94b08ab25b1&#45;&gt;dir_396d171119822f66a36fe1ebf998d1a3</title>
<path fill="none" stroke="#000000" d="M74.4348,-287.8314C77.4952,-279.9617 81.1471,-270.5712 84.5374,-261.8533"/>
<polygon fill="#000000" stroke="#000000" points="87.846,-263.0019 88.2085,-252.4133 81.3219,-260.4647 87.846,-263.0019"/>
<g id="a_edge6&#45;headlabel"><a xlink:href="dir_000664_000383.html" target="_top" xlink:title="6">
<text text-anchor="middle" x="89.1894" y="-264.8812" font-family="Helvetica,sans-Serif" font-size="10.00" fill="#000000">6</text>
</a>
</g>
</g>
<!-- dir_f511f1e9c03c071966ae594f00bbc5e0 -->
<g id="node4" class="node">
<title>dir_f511f1e9c03c071966ae594f00bbc5e0</title>
<g id="a_node4"><a xlink:href="dir_f511f1e9c03c071966ae594f00bbc5e0.html" target="_top" xlink:title="GPU">
<polygon fill="none" stroke="#ff0000" points="122.3692,-36 68.3692,-36 68.3692,0 122.3692,0 122.3692,-36"/>
<text text-anchor="middle" x="95.3692" y="-15.5" font-family="Helvetica,sans-Serif" font-size="10.00" fill="#000000">GPU</text>
</a>
</g>
</g>
<!-- dir_064d7f478c030df51e47c94b08ab25b1&#45;&gt;dir_f511f1e9c03c071966ae594f00bbc5e0 -->
<g id="edge7" class="edge">
<title>dir_064d7f478c030df51e47c94b08ab25b1&#45;&gt;dir_f511f1e9c03c071966ae594f00bbc5e0</title>
<path fill="none" stroke="#000000" d="M51.5558,-287.7868C27.7423,-258.0662 -12.8071,-197.1192 4.3692,-144 17.0492,-104.786 46.9908,-67.5134 69.0832,-43.8241"/>
<polygon fill="#000000" stroke="#000000" points="71.8656,-45.9782 76.2383,-36.3278 66.8019,-41.145 71.8656,-45.9782"/>
<g id="a_edge7&#45;headlabel"><a xlink:href="dir_000664_000732.html" target="_top" xlink:title="5">
<text text-anchor="middle" x="71.4375" y="-48.0388" font-family="Helvetica,sans-Serif" font-size="10.00" fill="#000000">5</text>
</a>
</g>
</g>
<!-- dir_2171f7ec022c5423887b07c69b2f5b48 -->
<g id="node5" class="node">
<title>dir_2171f7ec022c5423887b07c69b2f5b48</title>
<g id="a_node5"><a xlink:href="dir_2171f7ec022c5423887b07c69b2f5b48.html" target="_top" xlink:title="DataFormats">
<polygon fill="none" stroke="#ff0000" points="203.3692,-108 123.3692,-108 123.3692,-72 203.3692,-72 203.3692,-108"/>
<text text-anchor="middle" x="163.3692" y="-87.5" font-family="Helvetica,sans-Serif" font-size="10.00" fill="#000000">DataFormats</text>
</a>
</g>
</g>
<!-- dir_064d7f478c030df51e47c94b08ab25b1&#45;&gt;dir_2171f7ec022c5423887b07c69b2f5b48 -->
<g id="edge8" class="edge">
<title>dir_064d7f478c030df51e47c94b08ab25b1&#45;&gt;dir_2171f7ec022c5423887b07c69b2f5b48</title>
<path fill="none" stroke="#000000" d="M94.5412,-289.431C107.6526,-280.0479 122.4389,-267.1553 131.3692,-252 156.059,-210.0999 162.0787,-152.5939 163.3304,-118.5637"/>
<polygon fill="#000000" stroke="#000000" points="166.8337,-118.4745 163.5869,-108.3894 159.8359,-118.298 166.8337,-118.4745"/>
<g id="a_edge8&#45;headlabel"><a xlink:href="dir_000664_000085.html" target="_top" xlink:title="10">
<text text-anchor="middle" x="169.5816" y="-119.6395" font-family="Helvetica,sans-Serif" font-size="10.00" fill="#000000">10</text>
</a>
</g>
</g>
<!-- dir_677b030cc750909e4cd27413873678d8&#45;&gt;dir_2171f7ec022c5423887b07c69b2f5b48 -->
<g id="edge1" class="edge">
<title>dir_677b030cc750909e4cd27413873678d8&#45;&gt;dir_2171f7ec022c5423887b07c69b2f5b48</title>
<path fill="none" stroke="#000000" d="M67.6669,-146.0209C84.0889,-136.408 105.2816,-124.0025 123.5482,-113.3099"/>
<polygon fill="#000000" stroke="#000000" points="125.3847,-116.2905 132.2467,-108.2181 121.8484,-110.2494 125.3847,-116.2905"/>
<g id="a_edge1&#45;headlabel"><a xlink:href="dir_000055_000085.html" target="_top" xlink:title="21">
<text text-anchor="middle" x="123.7168" y="-118.0567" font-family="Helvetica,sans-Serif" font-size="10.00" fill="#000000">21</text>
</a>
</g>
</g>
<!-- dir_396d171119822f66a36fe1ebf998d1a3&#45;&gt;dir_677b030cc750909e4cd27413873678d8 -->
<g id="edge2" class="edge">
<title>dir_396d171119822f66a36fe1ebf998d1a3&#45;&gt;dir_677b030cc750909e4cd27413873678d8</title>
<path fill="none" stroke="#000000" d="M81.4904,-215.8314C75.1556,-207.5386 67.5308,-197.557 60.5766,-188.4533"/>
<polygon fill="#000000" stroke="#000000" points="63.2867,-186.2353 54.4349,-180.4133 57.724,-190.4847 63.2867,-186.2353"/>
<g id="a_edge2&#45;headlabel"><a xlink:href="dir_000383_000055.html" target="_top" xlink:title="9">
<text text-anchor="middle" x="67.725" y="-184.8683" font-family="Helvetica,sans-Serif" font-size="10.00" fill="#000000">9</text>
</a>
</g>
</g>
<!-- dir_396d171119822f66a36fe1ebf998d1a3&#45;&gt;dir_f511f1e9c03c071966ae594f00bbc5e0 -->
<g id="edge3" class="edge">
<title>dir_396d171119822f66a36fe1ebf998d1a3&#45;&gt;dir_f511f1e9c03c071966ae594f00bbc5e0</title>
<path fill="none" stroke="#000000" d="M95.3692,-215.9555C95.3692,-178.3938 95.3692,-91.5541 95.3692,-46.4103"/>
<polygon fill="#000000" stroke="#000000" points="98.8693,-46.145 95.3692,-36.1451 91.8693,-46.1451 98.8693,-46.145"/>
<g id="a_edge3&#45;headlabel"><a xlink:href="dir_000383_000732.html" target="_top" xlink:title="1">
<text text-anchor="middle" x="101.7085" y="-47.2397" font-family="Helvetica,sans-Serif" font-size="10.00" fill="#000000">1</text>
</a>
</g>
</g>
<!-- dir_396d171119822f66a36fe1ebf998d1a3&#45;&gt;dir_2171f7ec022c5423887b07c69b2f5b48 -->
<g id="edge4" class="edge">
<title>dir_396d171119822f66a36fe1ebf998d1a3&#45;&gt;dir_2171f7ec022c5423887b07c69b2f5b48</title>
<path fill="none" stroke="#000000" d="M103.9815,-215.7623C115.7331,-190.8764 136.8859,-146.0822 150.517,-117.2165"/>
<polygon fill="#000000" stroke="#000000" points="153.7216,-118.6267 154.8269,-108.0896 147.3919,-115.6376 153.7216,-118.6267"/>
<g id="a_edge4&#45;headlabel"><a xlink:href="dir_000383_000085.html" target="_top" xlink:title="23">
<text text-anchor="middle" x="154.7542" y="-120.5894" font-family="Helvetica,sans-Serif" font-size="10.00" fill="#000000">23</text>
</a>
</g>
</g>
<!-- dir_f511f1e9c03c071966ae594f00bbc5e0&#45;&gt;dir_677b030cc750909e4cd27413873678d8 -->
<g id="edge9" class="edge">
<title>dir_f511f1e9c03c071966ae594f00bbc5e0&#45;&gt;dir_677b030cc750909e4cd27413873678d8</title>
<path fill="none" stroke="#000000" d="M88.46,-36.0896C79.0264,-60.7884 62.028,-105.2933 50.9746,-134.2331"/>
<polygon fill="#000000" stroke="#000000" points="47.6335,-133.1717 47.335,-143.7623 54.1727,-135.6693 47.6335,-133.1717"/>
<g id="a_edge9&#45;headlabel"><a xlink:href="dir_000732_000055.html" target="_top" xlink:title="1">
<text text-anchor="middle" x="46.2636" y="-126.3006" font-family="Helvetica,sans-Serif" font-size="10.00" fill="#000000">1</text>
</a>
</g>
</g>
<!-- dir_f511f1e9c03c071966ae594f00bbc5e0&#45;&gt;dir_2171f7ec022c5423887b07c69b2f5b48 -->
<g id="edge10" class="edge">
<title>dir_f511f1e9c03c071966ae594f00bbc5e0&#45;&gt;dir_2171f7ec022c5423887b07c69b2f5b48</title>
<path fill="none" stroke="#000000" d="M118.4748,-36.1628C127.2698,-44.6038 137.0819,-54.7956 145.3538,-64.0303"/>
<polygon fill="#000000" stroke="#000000" points="142.9498,-66.5987 152.1623,-71.8314 148.2237,-61.9958 142.9498,-66.5987"/>
<g id="a_edge10&#45;headlabel"><a xlink:href="dir_000732_000085.html" target="_top" xlink:title="16">
<text text-anchor="middle" x="138.4471" y="-63.2575" font-family="Helvetica,sans-Serif" font-size="10.00" fill="#000000">16</text>
</a>
</g>
</g>
<!-- dir_2171f7ec022c5423887b07c69b2f5b48&#45;&gt;dir_f511f1e9c03c071966ae594f00bbc5e0 -->
<g id="edge11" class="edge">
<title>dir_2171f7ec022c5423887b07c69b2f5b48&#45;&gt;dir_f511f1e9c03c071966ae594f00bbc5e0</title>
<path fill="none" stroke="#000000" d="M140.2575,-71.8314C131.5292,-63.454 121.7998,-53.3531 113.5686,-44.1749"/>
<polygon fill="#000000" stroke="#000000" points="116.0002,-41.6386 106.7835,-36.4133 110.73,-46.2457 116.0002,-41.6386"/>
<g id="a_edge11&#45;headlabel"><a xlink:href="dir_000085_000732.html" target="_top" xlink:title="21">
<text text-anchor="middle" x="120.5036" y="-39.9762" font-family="Helvetica,sans-Serif" font-size="10.00" fill="#000000">21</text>
</a>
</g>
</g>
</g>
</svg>
