<?xml version="1.0" encoding="UTF-8" standalone="no"?>
<!DOCTYPE svg PUBLIC "-//W3C//DTD SVG 1.1//EN"
 "http://www.w3.org/Graphics/SVG/1.1/DTD/svg11.dtd">
<!-- Generated by graphviz version 2.40.1 (20161225.0304)
 -->
<!-- Title: /home/travis/build/AliceO2Group/AliceO2/DataFormats/Detectors/TOF Pages: 1 -->
<svg width="310pt" height="375pt"
 viewBox="0.00 0.00 309.81 375.00" xmlns="http://www.w3.org/2000/svg" xmlns:xlink="http://www.w3.org/1999/xlink">
<g id="graph0" class="graph" transform="scale(1 1) rotate(0) translate(4 371)">
<title>/home/travis/build/AliceO2Group/AliceO2/DataFormats/Detectors/TOF</title>
<g id="clust1" class="cluster">
<title>clusterdir_2801adc79bf3c286b1b479858d2cade4</title>
<g id="a_clust1"><a xlink:href="dir_2801adc79bf3c286b1b479858d2cade4.html" target="_top" xlink:title="Detectors">
<polygon fill="#ddddee" stroke="#000000" points="8,-200 8,-359 166,-359 166,-200 8,-200"/>
<text text-anchor="middle" x="87" y="-347" font-family="Helvetica,sans-Serif" font-size="10.00" fill="#000000">Detectors</text>
</a>
</g>
</g>
<g id="clust2" class="cluster">
<title>clusterdir_b78a6db121207500afab70b350b99369</title>
<g id="a_clust2"><a xlink:href="dir_b78a6db121207500afab70b350b99369.html" target="_top">
<polygon fill="#eeeeff" stroke="#000000" points="16,-208 16,-332 158,-332 158,-208 16,-208"/>
</a>
</g>
</g>
<!-- dir_b78a6db121207500afab70b350b99369 -->
<g id="node1" class="node">
<title>dir_b78a6db121207500afab70b350b99369</title>
<text text-anchor="middle" x="123" y="-303.5" font-family="Helvetica,sans-Serif" font-size="10.00" fill="#000000">TOF</text>
</g>
<!-- dir_52a450538d7572a32cbfb94425157f6b -->
<g id="node2" class="node">
<title>dir_52a450538d7572a32cbfb94425157f6b</title>
<g id="a_node2"><a xlink:href="dir_52a450538d7572a32cbfb94425157f6b.html" target="_top" xlink:title="include">
<polygon fill="#ffffff" stroke="#ff0000" points="148,-252 94,-252 94,-216 148,-216 148,-252"/>
<text text-anchor="middle" x="121" y="-231.5" font-family="Helvetica,sans-Serif" font-size="10.00" fill="#000000">include</text>
</a>
</g>
</g>
<!-- dir_d269712cc31e133b892a3b3f6424741a -->
<g id="node4" class="node">
<title>dir_d269712cc31e133b892a3b3f6424741a</title>
<g id="a_node4"><a xlink:href="dir_d269712cc31e133b892a3b3f6424741a.html" target="_top" xlink:title="Reconstruction">
<polygon fill="none" stroke="#ff0000" points="262.5,-252 173.5,-252 173.5,-216 262.5,-216 262.5,-252"/>
<text text-anchor="middle" x="218" y="-231.5" font-family="Helvetica,sans-Serif" font-size="10.00" fill="#000000">Reconstruction</text>
</a>
</g>
</g>
<!-- dir_52a450538d7572a32cbfb94425157f6b&#45;&gt;dir_d269712cc31e133b892a3b3f6424741a -->
<g id="edge7" class="edge">
<title>dir_52a450538d7572a32cbfb94425157f6b&#45;&gt;dir_d269712cc31e133b892a3b3f6424741a</title>
<path fill="none" stroke="#000000" d="M148.2813,-234C153.2401,-234 158.1989,-234 163.1578,-234"/>
<polygon fill="#000000" stroke="#000000" points="163.3365,-237.5001 173.3364,-234 163.3364,-230.5001 163.3365,-237.5001"/>
<g id="a_edge7&#45;headlabel"><a xlink:href="dir_000115_000241.html" target="_top" xlink:title="1">
<text text-anchor="middle" x="159.7418" y="-237.8393" font-family="Helvetica,sans-Serif" font-size="10.00" fill="#000000">1</text>
</a>
</g>
</g>
<!-- dir_4ab6b4cc6a7edbff49100e9123df213f -->
<g id="node5" class="node">
<title>dir_4ab6b4cc6a7edbff49100e9123df213f</title>
<g id="a_node5"><a xlink:href="dir_4ab6b4cc6a7edbff49100e9123df213f.html" target="_top" xlink:title="Common">
<polygon fill="none" stroke="#ff0000" points="248.5,-180 187.5,-180 187.5,-144 248.5,-144 248.5,-180"/>
<text text-anchor="middle" x="218" y="-159.5" font-family="Helvetica,sans-Serif" font-size="10.00" fill="#000000">Common</text>
</a>
</g>
</g>
<!-- dir_52a450538d7572a32cbfb94425157f6b&#45;&gt;dir_4ab6b4cc6a7edbff49100e9123df213f -->
<g id="edge8" class="edge">
<title>dir_52a450538d7572a32cbfb94425157f6b&#45;&gt;dir_4ab6b4cc6a7edbff49100e9123df213f</title>
<path fill="none" stroke="#000000" d="M144.1728,-215.8451C150.8571,-210.676 158.1857,-205.0731 165,-200 171.0563,-195.4912 177.5539,-190.7528 183.8518,-186.2104"/>
<polygon fill="#000000" stroke="#000000" points="186.1732,-188.8524 192.2559,-180.1777 182.0912,-183.1658 186.1732,-188.8524"/>
<g id="a_edge8&#45;headlabel"><a xlink:href="dir_000115_000032.html" target="_top" xlink:title="1">
<text text-anchor="middle" x="184.9087" y="-190.7551" font-family="Helvetica,sans-Serif" font-size="10.00" fill="#000000">1</text>
</a>
</g>
</g>
<!-- dir_74593c7a91e03746ae2a516888bf9494 -->
<g id="node6" class="node">
<title>dir_74593c7a91e03746ae2a516888bf9494</title>
<g id="a_node6"><a xlink:href="dir_74593c7a91e03746ae2a516888bf9494.html" target="_top" xlink:title="Common">
<polygon fill="none" stroke="#ff0000" points="189.5,-108 128.5,-108 128.5,-72 189.5,-72 189.5,-108"/>
<text text-anchor="middle" x="159" y="-87.5" font-family="Helvetica,sans-Serif" font-size="10.00" fill="#000000">Common</text>
</a>
</g>
</g>
<!-- dir_52a450538d7572a32cbfb94425157f6b&#45;&gt;dir_74593c7a91e03746ae2a516888bf9494 -->
<g id="edge9" class="edge">
<title>dir_52a450538d7572a32cbfb94425157f6b&#45;&gt;dir_74593c7a91e03746ae2a516888bf9494</title>
<path fill="none" stroke="#000000" d="M125.8127,-215.7623C132.3227,-191.0928 143.9953,-146.8598 151.6182,-117.9731"/>
<polygon fill="#000000" stroke="#000000" points="155.0589,-118.6517 154.2264,-108.0896 148.2906,-116.8656 155.0589,-118.6517"/>
<g id="a_edge9&#45;headlabel"><a xlink:href="dir_000115_000096.html" target="_top" xlink:title="1">
<text text-anchor="middle" x="156.8871" y="-120.3517" font-family="Helvetica,sans-Serif" font-size="10.00" fill="#000000">1</text>
</a>
</g>
</g>
<!-- dir_c9d1e04a1bf290ef3fcd6f208d358a0b -->
<g id="node3" class="node">
<title>dir_c9d1e04a1bf290ef3fcd6f208d358a0b</title>
<g id="a_node3"><a xlink:href="dir_c9d1e04a1bf290ef3fcd6f208d358a0b.html" target="_top" xlink:title="src">
<polygon fill="#ffffff" stroke="#000000" points="78,-324 24,-324 24,-288 78,-288 78,-324"/>
<text text-anchor="middle" x="51" y="-303.5" font-family="Helvetica,sans-Serif" font-size="10.00" fill="#000000">src</text>
</a>
</g>
</g>
<!-- dir_c9d1e04a1bf290ef3fcd6f208d358a0b&#45;&gt;dir_52a450538d7572a32cbfb94425157f6b -->
<g id="edge14" class="edge">
<title>dir_c9d1e04a1bf290ef3fcd6f208d358a0b&#45;&gt;dir_52a450538d7572a32cbfb94425157f6b</title>
<path fill="none" stroke="#000000" d="M68.664,-287.8314C76.9732,-279.2848 87.0264,-268.9443 96.0918,-259.6198"/>
<polygon fill="#000000" stroke="#000000" points="98.6369,-262.023 103.0982,-252.4133 93.6179,-257.1435 98.6369,-262.023"/>
<g id="a_edge14&#45;headlabel"><a xlink:href="dir_000160_000115.html" target="_top" xlink:title="6">
<text text-anchor="middle" x="98.1669" y="-264.0795" font-family="Helvetica,sans-Serif" font-size="10.00" fill="#000000">6</text>
</a>
</g>
</g>
<!-- dir_bcbb2cf9a3d3d83e5515c82071a07177 -->
<g id="node7" class="node">
<title>dir_bcbb2cf9a3d3d83e5515c82071a07177</title>
<g id="a_node7"><a xlink:href="dir_bcbb2cf9a3d3d83e5515c82071a07177.html" target="_top" xlink:title="Framework">
<polygon fill="none" stroke="#ff0000" points="262.5,-36 191.5,-36 191.5,0 262.5,0 262.5,-36"/>
<text text-anchor="middle" x="227" y="-15.5" font-family="Helvetica,sans-Serif" font-size="10.00" fill="#000000">Framework</text>
</a>
</g>
</g>
<!-- dir_c9d1e04a1bf290ef3fcd6f208d358a0b&#45;&gt;dir_bcbb2cf9a3d3d83e5515c82071a07177 -->
<g id="edge15" class="edge">
<title>dir_c9d1e04a1bf290ef3fcd6f208d358a0b&#45;&gt;dir_bcbb2cf9a3d3d83e5515c82071a07177</title>
<path fill="none" stroke="#000000" d="M78.1866,-291.4497C81.1156,-290.1718 84.0892,-288.9902 87,-288 166.3011,-261.0216 217.8335,-315.8943 272,-252 323.7393,-190.9687 297.574,-146.7349 269,-72 265.1826,-62.0157 258.8583,-52.3775 252.2616,-44.0759"/>
<polygon fill="#000000" stroke="#000000" points="254.7835,-41.6376 245.6567,-36.2567 249.4359,-46.1546 254.7835,-41.6376"/>
<g id="a_edge15&#45;headlabel"><a xlink:href="dir_000160_000058.html" target="_top" xlink:title="1">
<text text-anchor="middle" x="259.272" y="-40.0515" font-family="Helvetica,sans-Serif" font-size="10.00" fill="#000000">1</text>
</a>
</g>
</g>
<!-- dir_d269712cc31e133b892a3b3f6424741a&#45;&gt;dir_4ab6b4cc6a7edbff49100e9123df213f -->
<g id="edge1" class="edge">
<title>dir_d269712cc31e133b892a3b3f6424741a&#45;&gt;dir_4ab6b4cc6a7edbff49100e9123df213f</title>
<path fill="none" stroke="#000000" d="M212.0476,-215.8314C211.2972,-208.131 211.0763,-198.9743 211.3849,-190.4166"/>
<polygon fill="#000000" stroke="#000000" points="214.8792,-190.6161 212.024,-180.4133 207.8935,-190.1697 214.8792,-190.6161"/>
<g id="a_edge1&#45;headlabel"><a xlink:href="dir_000241_000032.html" target="_top" xlink:title="10">
<text text-anchor="middle" x="217.4836" y="-191.8844" font-family="Helvetica,sans-Serif" font-size="10.00" fill="#000000">10</text>
</a>
</g>
</g>
<!-- dir_d269712cc31e133b892a3b3f6424741a&#45;&gt;dir_74593c7a91e03746ae2a516888bf9494 -->
<g id="edge2" class="edge">
<title>dir_d269712cc31e133b892a3b3f6424741a&#45;&gt;dir_74593c7a91e03746ae2a516888bf9494</title>
<path fill="none" stroke="#000000" d="M201.8806,-215.6819C193.9079,-205.7377 184.7796,-192.8704 179,-180 170.1752,-160.3485 165.1015,-136.4847 162.2738,-118.269"/>
<polygon fill="#000000" stroke="#000000" points="165.7256,-117.6812 160.8571,-108.2712 158.7948,-118.6633 165.7256,-117.6812"/>
<g id="a_edge2&#45;headlabel"><a xlink:href="dir_000241_000096.html" target="_top" xlink:title="1">
<text text-anchor="middle" x="169.041" y="-118.3419" font-family="Helvetica,sans-Serif" font-size="10.00" fill="#000000">1</text>
</a>
</g>
</g>
<!-- dir_d269712cc31e133b892a3b3f6424741a&#45;&gt;dir_bcbb2cf9a3d3d83e5515c82071a07177 -->
<g id="edge3" class="edge">
<title>dir_d269712cc31e133b892a3b3f6424741a&#45;&gt;dir_bcbb2cf9a3d3d83e5515c82071a07177</title>
<path fill="none" stroke="#000000" d="M236.1576,-215.7286C244.549,-205.9911 253.6123,-193.2949 258,-180 273.1275,-134.1634 254.8935,-78.4532 240.6731,-45.7445"/>
<polygon fill="#000000" stroke="#000000" points="243.7416,-44.0359 236.43,-36.3684 237.3642,-46.9219 243.7416,-44.0359"/>
<g id="a_edge3&#45;headlabel"><a xlink:href="dir_000241_000058.html" target="_top" xlink:title="3">
<text text-anchor="middle" x="247.8103" y="-43.6402" font-family="Helvetica,sans-Serif" font-size="10.00" fill="#000000">3</text>
</a>
</g>
</g>
<!-- dir_4ab6b4cc6a7edbff49100e9123df213f&#45;&gt;dir_d269712cc31e133b892a3b3f6424741a -->
<g id="edge4" class="edge">
<title>dir_4ab6b4cc6a7edbff49100e9123df213f&#45;&gt;dir_d269712cc31e133b892a3b3f6424741a</title>
<path fill="none" stroke="#000000" d="M223.976,-180.4133C224.7071,-188.0593 224.9203,-197.1084 224.6155,-205.5726"/>
<polygon fill="#000000" stroke="#000000" points="221.1048,-205.6264 223.9524,-215.8314 228.0902,-206.078 221.1048,-205.6264"/>
<g id="a_edge4&#45;headlabel"><a xlink:href="dir_000032_000241.html" target="_top" xlink:title="1">
<text text-anchor="middle" x="218.5032" y="-199.3562" font-family="Helvetica,sans-Serif" font-size="10.00" fill="#000000">1</text>
</a>
</g>
</g>
<!-- dir_4ab6b4cc6a7edbff49100e9123df213f&#45;&gt;dir_74593c7a91e03746ae2a516888bf9494 -->
<g id="edge5" class="edge">
<title>dir_4ab6b4cc6a7edbff49100e9123df213f&#45;&gt;dir_74593c7a91e03746ae2a516888bf9494</title>
<path fill="none" stroke="#000000" d="M197.1594,-143.8314C189.5558,-135.5386 181.1824,-125.557 174.1426,-116.4533"/>
<polygon fill="#000000" stroke="#000000" points="176.9126,-114.3134 168.1126,-108.4133 171.3126,-118.5133 176.9126,-114.3134"/>
<g id="a_edge5&#45;headlabel"><a xlink:href="dir_000032_000096.html" target="_top" xlink:title="1">
<text text-anchor="middle" x="181.3408" y="-112.9855" font-family="Helvetica,sans-Serif" font-size="10.00" fill="#000000">1</text>
</a>
</g>
</g>
<!-- dir_4ab6b4cc6a7edbff49100e9123df213f&#45;&gt;dir_bcbb2cf9a3d3d83e5515c82071a07177 -->
<g id="edge6" class="edge">
<title>dir_4ab6b4cc6a7edbff49100e9123df213f&#45;&gt;dir_bcbb2cf9a3d3d83e5515c82071a07177</title>
<path fill="none" stroke="#000000" d="M214.4667,-143.7623C213.542,-119.201 216.0143,-75.2474 219.7304,-46.3541"/>
<polygon fill="#000000" stroke="#000000" points="223.2474,-46.4869 221.2111,-36.0896 216.3191,-45.4874 223.2474,-46.4869"/>
<g id="a_edge6&#45;headlabel"><a xlink:href="dir_000032_000058.html" target="_top" xlink:title="2">
<text text-anchor="middle" x="225.5445" y="-47.95" font-family="Helvetica,sans-Serif" font-size="10.00" fill="#000000">2</text>
</a>
</g>
</g>
<!-- dir_74593c7a91e03746ae2a516888bf9494&#45;&gt;dir_4ab6b4cc6a7edbff49100e9123df213f -->
<g id="edge10" class="edge">
<title>dir_74593c7a91e03746ae2a516888bf9494&#45;&gt;dir_4ab6b4cc6a7edbff49100e9123df213f</title>
<path fill="none" stroke="#000000" d="M180.0647,-108.4133C187.6832,-116.7389 196.0508,-126.7282 203.0643,-135.8144"/>
<polygon fill="#000000" stroke="#000000" points="200.2702,-137.9224 209.0642,-143.8314 205.8745,-133.7281 200.2702,-137.9224"/>
<g id="a_edge10&#45;headlabel"><a xlink:href="dir_000096_000032.html" target="_top" xlink:title="5">
<text text-anchor="middle" x="195.8432" y="-134.2457" font-family="Helvetica,sans-Serif" font-size="10.00" fill="#000000">5</text>
</a>
</g>
</g>
<!-- dir_74593c7a91e03746ae2a516888bf9494&#45;&gt;dir_bcbb2cf9a3d3d83e5515c82071a07177 -->
<g id="edge11" class="edge">
<title>dir_74593c7a91e03746ae2a516888bf9494&#45;&gt;dir_bcbb2cf9a3d3d83e5515c82071a07177</title>
<path fill="none" stroke="#000000" d="M176.1593,-71.8314C184.1511,-63.3694 193.8038,-53.1489 202.5416,-43.8971"/>
<polygon fill="#000000" stroke="#000000" points="205.288,-46.0866 209.6097,-36.4133 200.1989,-41.2802 205.288,-46.0866"/>
<g id="a_edge11&#45;headlabel"><a xlink:href="dir_000096_000058.html" target="_top" xlink:title="2">
<text text-anchor="middle" x="204.884" y="-48.1494" font-family="Helvetica,sans-Serif" font-size="10.00" fill="#000000">2</text>
</a>
</g>
</g>
<!-- dir_bcbb2cf9a3d3d83e5515c82071a07177&#45;&gt;dir_52a450538d7572a32cbfb94425157f6b -->
<g id="edge13" class="edge">
<title>dir_bcbb2cf9a3d3d83e5515c82071a07177&#45;&gt;dir_52a450538d7572a32cbfb94425157f6b</title>
<path fill="none" stroke="#000000" d="M191.4557,-25.618C166.7147,-32.9742 135.487,-46.8366 120,-72 94.75,-113.0262 103.7356,-171.6733 112.4481,-205.9968"/>
<polygon fill="#000000" stroke="#000000" points="109.1158,-207.082 115.105,-215.8215 115.873,-205.2546 109.1158,-207.082"/>
<g id="a_edge13&#45;headlabel"><a xlink:href="dir_000058_000115.html" target="_top" xlink:title="2">
<text text-anchor="middle" x="105.4366" y="-201.8532" font-family="Helvetica,sans-Serif" font-size="10.00" fill="#000000">2</text>
</a>
</g>
</g>
<!-- dir_bcbb2cf9a3d3d83e5515c82071a07177&#45;&gt;dir_4ab6b4cc6a7edbff49100e9123df213f -->
<g id="edge12" class="edge">
<title>dir_bcbb2cf9a3d3d83e5515c82071a07177&#45;&gt;dir_4ab6b4cc6a7edbff49100e9123df213f</title>
<path fill="none" stroke="#000000" d="M230.5277,-36.0896C231.4702,-60.6805 228.9813,-104.905 225.2429,-133.8531"/>
<polygon fill="#000000" stroke="#000000" points="221.7771,-133.3649 223.813,-143.7623 228.7054,-134.3647 221.7771,-133.3649"/>
<g id="a_edge12&#45;headlabel"><a xlink:href="dir_000058_000032.html" target="_top" xlink:title="8">
<text text-anchor="middle" x="219.4802" y="-126.9017" font-family="Helvetica,sans-Serif" font-size="10.00" fill="#000000">8</text>
</a>
</g>
</g>
</g>
</svg>
