<?xml version="1.0" encoding="UTF-8" standalone="no"?>
<!DOCTYPE svg PUBLIC "-//W3C//DTD SVG 1.1//EN"
 "http://www.w3.org/Graphics/SVG/1.1/DTD/svg11.dtd">
<!-- Generated by graphviz version 2.40.1 (20161225.0304)
 -->
<!-- Title: /home/travis/build/AliceO2Group/AliceO2/Detectors/EMCAL/reconstruction Pages: 1 -->
<svg width="408pt" height="375pt"
 viewBox="0.00 0.00 407.96 375.00" xmlns="http://www.w3.org/2000/svg" xmlns:xlink="http://www.w3.org/1999/xlink">
<g id="graph0" class="graph" transform="scale(1 1) rotate(0) translate(4 371)">
<title>/home/travis/build/AliceO2Group/AliceO2/Detectors/EMCAL/reconstruction</title>
<g id="clust1" class="cluster">
<title>clusterdir_088378b58cb1ba39db48039cbd66d10f</title>
<g id="a_clust1"><a xlink:href="dir_088378b58cb1ba39db48039cbd66d10f.html" target="_top" xlink:title="EMCAL">
<polygon fill="#ddddee" stroke="#000000" points="8,-200 8,-359 270,-359 270,-200 8,-200"/>
<text text-anchor="middle" x="139" y="-347" font-family="Helvetica,sans-Serif" font-size="10.00" fill="#000000">EMCAL</text>
</a>
</g>
</g>
<g id="clust2" class="cluster">
<title>clusterdir_43247e9473992ee8ffdfc874c5267163</title>
<g id="a_clust2"><a xlink:href="dir_43247e9473992ee8ffdfc874c5267163.html" target="_top">
<polygon fill="#eeeeff" stroke="#000000" points="16,-208 16,-332 262,-332 262,-208 16,-208"/>
</a>
</g>
</g>
<!-- dir_43247e9473992ee8ffdfc874c5267163 -->
<g id="node1" class="node">
<title>dir_43247e9473992ee8ffdfc874c5267163</title>
<text text-anchor="middle" x="211" y="-303.5" font-family="Helvetica,sans-Serif" font-size="10.00" fill="#000000">reconstruction</text>
</g>
<!-- dir_14c8cfaaee0dfb1e837e70bcf15bda98 -->
<g id="node2" class="node">
<title>dir_14c8cfaaee0dfb1e837e70bcf15bda98</title>
<g id="a_node2"><a xlink:href="dir_14c8cfaaee0dfb1e837e70bcf15bda98.html" target="_top" xlink:title="include">
<polygon fill="#ffffff" stroke="#ff0000" points="157,-252 103,-252 103,-216 157,-216 157,-252"/>
<text text-anchor="middle" x="130" y="-231.5" font-family="Helvetica,sans-Serif" font-size="10.00" fill="#000000">include</text>
</a>
</g>
</g>
<!-- dir_478733f24fb8878a4cdf7773310adedd -->
<g id="node6" class="node">
<title>dir_478733f24fb8878a4cdf7773310adedd</title>
<g id="a_node6"><a xlink:href="dir_478733f24fb8878a4cdf7773310adedd.html" target="_top" xlink:title="base">
<polygon fill="none" stroke="#ff0000" points="243,-180 189,-180 189,-144 243,-144 243,-180"/>
<text text-anchor="middle" x="216" y="-159.5" font-family="Helvetica,sans-Serif" font-size="10.00" fill="#000000">base</text>
</a>
</g>
</g>
<!-- dir_14c8cfaaee0dfb1e837e70bcf15bda98&#45;&gt;dir_478733f24fb8878a4cdf7773310adedd -->
<g id="edge4" class="edge">
<title>dir_14c8cfaaee0dfb1e837e70bcf15bda98&#45;&gt;dir_478733f24fb8878a4cdf7773310adedd</title>
<path fill="none" stroke="#000000" d="M151.7014,-215.8314C162.1921,-207.0485 174.9455,-196.3712 186.3194,-186.8489"/>
<polygon fill="#000000" stroke="#000000" points="188.8847,-189.2659 194.3055,-180.1628 184.3911,-183.8986 188.8847,-189.2659"/>
<g id="a_edge4&#45;headlabel"><a xlink:href="dir_000441_000209.html" target="_top" xlink:title="4">
<text text-anchor="middle" x="187.9511" y="-191.2504" font-family="Helvetica,sans-Serif" font-size="10.00" fill="#000000">4</text>
</a>
</g>
</g>
<!-- dir_2171f7ec022c5423887b07c69b2f5b48 -->
<g id="node8" class="node">
<title>dir_2171f7ec022c5423887b07c69b2f5b48</title>
<g id="a_node8"><a xlink:href="dir_2171f7ec022c5423887b07c69b2f5b48.html" target="_top" xlink:title="DataFormats">
<polygon fill="none" stroke="#ff0000" points="340,-36 260,-36 260,0 340,0 340,-36"/>
<text text-anchor="middle" x="300" y="-15.5" font-family="Helvetica,sans-Serif" font-size="10.00" fill="#000000">DataFormats</text>
</a>
</g>
</g>
<!-- dir_14c8cfaaee0dfb1e837e70bcf15bda98&#45;&gt;dir_2171f7ec022c5423887b07c69b2f5b48 -->
<g id="edge5" class="edge">
<title>dir_14c8cfaaee0dfb1e837e70bcf15bda98&#45;&gt;dir_2171f7ec022c5423887b07c69b2f5b48</title>
<path fill="none" stroke="#000000" d="M138.6596,-215.8891C154.4328,-184.1678 190.287,-117.5991 234,-72 243.9603,-61.6099 255.874,-51.3236 266.8209,-42.5606"/>
<polygon fill="#000000" stroke="#000000" points="269.2472,-45.1057 274.9553,-36.1799 264.9269,-39.5979 269.2472,-45.1057"/>
<g id="a_edge5&#45;headlabel"><a xlink:href="dir_000441_000085.html" target="_top" xlink:title="16">
<text text-anchor="middle" x="268.1713" y="-47.0582" font-family="Helvetica,sans-Serif" font-size="10.00" fill="#000000">16</text>
</a>
</g>
</g>
<!-- dir_648671bc339df01bd1b5df8a7c7828c9 -->
<g id="node3" class="node">
<title>dir_648671bc339df01bd1b5df8a7c7828c9</title>
<g id="a_node3"><a xlink:href="dir_648671bc339df01bd1b5df8a7c7828c9.html" target="_top" xlink:title="run">
<polygon fill="#ffffff" stroke="#000000" points="78,-324 24,-324 24,-288 78,-288 78,-324"/>
<text text-anchor="middle" x="51" y="-303.5" font-family="Helvetica,sans-Serif" font-size="10.00" fill="#000000">run</text>
</a>
</g>
</g>
<!-- dir_648671bc339df01bd1b5df8a7c7828c9&#45;&gt;dir_14c8cfaaee0dfb1e837e70bcf15bda98 -->
<g id="edge2" class="edge">
<title>dir_648671bc339df01bd1b5df8a7c7828c9&#45;&gt;dir_14c8cfaaee0dfb1e837e70bcf15bda98</title>
<path fill="none" stroke="#000000" d="M70.935,-287.8314C80.4783,-279.1337 92.0599,-268.5783 102.4306,-259.1265"/>
<polygon fill="#000000" stroke="#000000" points="105.038,-261.4857 110.0713,-252.1628 100.3228,-256.3121 105.038,-261.4857"/>
<g id="a_edge2&#45;headlabel"><a xlink:href="dir_000448_000441.html" target="_top" xlink:title="2">
<text text-anchor="middle" x="104.2938" y="-263.5055" font-family="Helvetica,sans-Serif" font-size="10.00" fill="#000000">2</text>
</a>
</g>
</g>
<!-- dir_26637d1bd82229bc9ed97f7e706be743 -->
<g id="node7" class="node">
<title>dir_26637d1bd82229bc9ed97f7e706be743</title>
<g id="a_node7"><a xlink:href="dir_26637d1bd82229bc9ed97f7e706be743.html" target="_top" xlink:title="Raw">
<polygon fill="none" stroke="#ff0000" points="332,-252 278,-252 278,-216 332,-216 332,-252"/>
<text text-anchor="middle" x="305" y="-231.5" font-family="Helvetica,sans-Serif" font-size="10.00" fill="#000000">Raw</text>
</a>
</g>
</g>
<!-- dir_648671bc339df01bd1b5df8a7c7828c9&#45;&gt;dir_26637d1bd82229bc9ed97f7e706be743 -->
<g id="edge3" class="edge">
<title>dir_648671bc339df01bd1b5df8a7c7828c9&#45;&gt;dir_26637d1bd82229bc9ed97f7e706be743</title>
<path fill="none" stroke="#000000" d="M78.193,-291.4685C81.1207,-290.187 84.0924,-288.9994 87,-288 163.7421,-261.6231 188.8553,-277.175 266,-252 266.7178,-251.7658 267.4398,-251.5219 268.1646,-251.2695"/>
<polygon fill="#000000" stroke="#000000" points="269.5659,-254.4801 277.6243,-247.6017 267.0353,-247.9535 269.5659,-254.4801"/>
<g id="a_edge3&#45;headlabel"><a xlink:href="dir_000448_000620.html" target="_top" xlink:title="1">
<text text-anchor="middle" x="267.2408" y="-255.9268" font-family="Helvetica,sans-Serif" font-size="10.00" fill="#000000">1</text>
</a>
</g>
</g>
<!-- dir_a1c7f30d560eae5a68ecb45d9f95b0f7 -->
<g id="node4" class="node">
<title>dir_a1c7f30d560eae5a68ecb45d9f95b0f7</title>
<g id="a_node4"><a xlink:href="dir_a1c7f30d560eae5a68ecb45d9f95b0f7.html" target="_top" xlink:title="src">
<polygon fill="#ffffff" stroke="#000000" points="150,-324 96,-324 96,-288 150,-288 150,-324"/>
<text text-anchor="middle" x="123" y="-303.5" font-family="Helvetica,sans-Serif" font-size="10.00" fill="#000000">src</text>
</a>
</g>
</g>
<!-- dir_a1c7f30d560eae5a68ecb45d9f95b0f7&#45;&gt;dir_14c8cfaaee0dfb1e837e70bcf15bda98 -->
<g id="edge11" class="edge">
<title>dir_a1c7f30d560eae5a68ecb45d9f95b0f7&#45;&gt;dir_14c8cfaaee0dfb1e837e70bcf15bda98</title>
<path fill="none" stroke="#000000" d="M124.7664,-287.8314C125.515,-280.131 126.4053,-270.9743 127.2373,-262.4166"/>
<polygon fill="#000000" stroke="#000000" points="130.7256,-262.7051 128.2098,-252.4133 123.7585,-262.0276 130.7256,-262.7051"/>
<g id="a_edge11&#45;headlabel"><a xlink:href="dir_000449_000441.html" target="_top" xlink:title="23">
<text text-anchor="middle" x="133.2038" y="-264.0575" font-family="Helvetica,sans-Serif" font-size="10.00" fill="#000000">23</text>
</a>
</g>
</g>
<!-- dir_4ab6b4cc6a7edbff49100e9123df213f -->
<g id="node5" class="node">
<title>dir_4ab6b4cc6a7edbff49100e9123df213f</title>
<g id="a_node5"><a xlink:href="dir_4ab6b4cc6a7edbff49100e9123df213f.html" target="_top" xlink:title="Common">
<polygon fill="none" stroke="#ff0000" points="360.5,-108 299.5,-108 299.5,-72 360.5,-72 360.5,-108"/>
<text text-anchor="middle" x="330" y="-87.5" font-family="Helvetica,sans-Serif" font-size="10.00" fill="#000000">Common</text>
</a>
</g>
</g>
<!-- dir_a1c7f30d560eae5a68ecb45d9f95b0f7&#45;&gt;dir_4ab6b4cc6a7edbff49100e9123df213f -->
<g id="edge10" class="edge">
<title>dir_a1c7f30d560eae5a68ecb45d9f95b0f7&#45;&gt;dir_4ab6b4cc6a7edbff49100e9123df213f</title>
<path fill="none" stroke="#000000" d="M150.1898,-291.459C153.1181,-290.1793 156.0908,-288.9947 159,-288 237.0213,-261.3224 288.6564,-315.7115 341,-252 372.0273,-214.2343 355.9801,-153.3132 342.3914,-117.9259"/>
<polygon fill="#000000" stroke="#000000" points="345.4718,-116.2059 338.4868,-108.2396 338.9795,-118.823 345.4718,-116.2059"/>
<g id="a_edge10&#45;headlabel"><a xlink:href="dir_000449_000032.html" target="_top" xlink:title="1">
<text text-anchor="middle" x="349.4491" y="-115.9783" font-family="Helvetica,sans-Serif" font-size="10.00" fill="#000000">1</text>
</a>
</g>
</g>
<!-- dir_a1c7f30d560eae5a68ecb45d9f95b0f7&#45;&gt;dir_26637d1bd82229bc9ed97f7e706be743 -->
<g id="edge12" class="edge">
<title>dir_a1c7f30d560eae5a68ecb45d9f95b0f7&#45;&gt;dir_26637d1bd82229bc9ed97f7e706be743</title>
<path fill="none" stroke="#000000" d="M150.3345,-291.8413C153.2346,-290.4871 156.1611,-289.1806 159,-288 205.3287,-268.734 219.376,-270.5401 266,-252 266.8489,-251.6625 267.7058,-251.316 268.568,-250.9622"/>
<polygon fill="#000000" stroke="#000000" points="270.0753,-254.1242 277.8875,-246.9674 267.3174,-247.6904 270.0753,-254.1242"/>
<g id="a_edge12&#45;headlabel"><a xlink:href="dir_000449_000620.html" target="_top" xlink:title="1">
<text text-anchor="middle" x="267.8901" y="-255.65" font-family="Helvetica,sans-Serif" font-size="10.00" fill="#000000">1</text>
</a>
</g>
</g>
<!-- dir_a1c7f30d560eae5a68ecb45d9f95b0f7&#45;&gt;dir_2171f7ec022c5423887b07c69b2f5b48 -->
<g id="edge13" class="edge">
<title>dir_a1c7f30d560eae5a68ecb45d9f95b0f7&#45;&gt;dir_2171f7ec022c5423887b07c69b2f5b48</title>
<path fill="none" stroke="#000000" d="M150.169,-291.3972C153.1014,-290.1295 156.0807,-288.9647 159,-288 246.4181,-259.112 301.4159,-320.4386 363,-252 416.5525,-192.4869 405.3173,-143.8496 370,-72 364.1766,-60.1528 354.3649,-50.171 343.9022,-42.1383"/>
<polygon fill="#000000" stroke="#000000" points="345.6129,-39.0601 335.4354,-36.1158 341.5555,-44.7642 345.6129,-39.0601"/>
<g id="a_edge13&#45;headlabel"><a xlink:href="dir_000449_000085.html" target="_top" xlink:title="5">
<text text-anchor="middle" x="350.1878" y="-36.33" font-family="Helvetica,sans-Serif" font-size="10.00" fill="#000000">5</text>
</a>
</g>
</g>
<!-- dir_4ab6b4cc6a7edbff49100e9123df213f&#45;&gt;dir_2171f7ec022c5423887b07c69b2f5b48 -->
<g id="edge1" class="edge">
<title>dir_4ab6b4cc6a7edbff49100e9123df213f&#45;&gt;dir_2171f7ec022c5423887b07c69b2f5b48</title>
<path fill="none" stroke="#000000" d="M316.4773,-71.8314C312.4314,-63.9617 308.3048,-54.5712 305.0116,-45.8533"/>
<polygon fill="#000000" stroke="#000000" points="308.3121,-44.6885 301.6962,-36.4133 301.7076,-47.0081 308.3121,-44.6885"/>
<g id="a_edge1&#45;headlabel"><a xlink:href="dir_000032_000085.html" target="_top" xlink:title="2">
<text text-anchor="middle" x="312.1821" y="-44.6392" font-family="Helvetica,sans-Serif" font-size="10.00" fill="#000000">2</text>
</a>
</g>
</g>
<!-- dir_478733f24fb8878a4cdf7773310adedd&#45;&gt;dir_4ab6b4cc6a7edbff49100e9123df213f -->
<g id="edge6" class="edge">
<title>dir_478733f24fb8878a4cdf7773310adedd&#45;&gt;dir_4ab6b4cc6a7edbff49100e9123df213f</title>
<path fill="none" stroke="#000000" d="M243.0164,-144.937C257.7939,-135.6038 276.3302,-123.8967 292.4903,-113.6904"/>
<polygon fill="#000000" stroke="#000000" points="294.5987,-116.4984 301.1847,-108.1992 290.8608,-110.5799 294.5987,-116.4984"/>
<g id="a_edge6&#45;headlabel"><a xlink:href="dir_000209_000032.html" target="_top" xlink:title="5">
<text text-anchor="middle" x="293.0757" y="-118.3184" font-family="Helvetica,sans-Serif" font-size="10.00" fill="#000000">5</text>
</a>
</g>
</g>
<!-- dir_478733f24fb8878a4cdf7773310adedd&#45;&gt;dir_2171f7ec022c5423887b07c69b2f5b48 -->
<g id="edge7" class="edge">
<title>dir_478733f24fb8878a4cdf7773310adedd&#45;&gt;dir_2171f7ec022c5423887b07c69b2f5b48</title>
<path fill="none" stroke="#000000" d="M222.7789,-143.7532C230.0602,-125.0884 242.5517,-95.5673 257,-72 262.8859,-62.3992 270.2445,-52.5709 277.2016,-43.9756"/>
<polygon fill="#000000" stroke="#000000" points="279.9945,-46.0907 283.6875,-36.1603 274.6079,-41.6203 279.9945,-46.0907"/>
<g id="a_edge7&#45;headlabel"><a xlink:href="dir_000209_000085.html" target="_top" xlink:title="13">
<text text-anchor="middle" x="279.8838" y="-48.17" font-family="Helvetica,sans-Serif" font-size="10.00" fill="#000000">13</text>
</a>
</g>
</g>
<!-- dir_26637d1bd82229bc9ed97f7e706be743&#45;&gt;dir_4ab6b4cc6a7edbff49100e9123df213f -->
<g id="edge8" class="edge">
<title>dir_26637d1bd82229bc9ed97f7e706be743&#45;&gt;dir_4ab6b4cc6a7edbff49100e9123df213f</title>
<path fill="none" stroke="#000000" d="M308.1663,-215.7623C312.4492,-191.0928 320.1285,-146.8598 325.1436,-117.9731"/>
<polygon fill="#000000" stroke="#000000" points="328.5973,-118.541 326.8594,-108.0896 321.7004,-117.3435 328.5973,-118.541"/>
<g id="a_edge8&#45;headlabel"><a xlink:href="dir_000620_000032.html" target="_top" xlink:title="10">
<text text-anchor="middle" x="330.7799" y="-120.0682" font-family="Helvetica,sans-Serif" font-size="10.00" fill="#000000">10</text>
</a>
</g>
</g>
<!-- dir_26637d1bd82229bc9ed97f7e706be743&#45;&gt;dir_2171f7ec022c5423887b07c69b2f5b48 -->
<g id="edge9" class="edge">
<title>dir_26637d1bd82229bc9ed97f7e706be743&#45;&gt;dir_2171f7ec022c5423887b07c69b2f5b48</title>
<path fill="none" stroke="#000000" d="M301.3727,-215.5394C295.9219,-185.4715 286.6924,-124.0472 291,-72 291.6945,-63.6085 292.9862,-54.5578 294.3786,-46.3092"/>
<polygon fill="#000000" stroke="#000000" points="297.8353,-46.8612 296.1587,-36.3999 290.9456,-45.6235 297.8353,-46.8612"/>
<g id="a_edge9&#45;headlabel"><a xlink:href="dir_000620_000085.html" target="_top" xlink:title="15">
<text text-anchor="middle" x="299.9944" y="-48.4012" font-family="Helvetica,sans-Serif" font-size="10.00" fill="#000000">15</text>
</a>
</g>
</g>
<!-- dir_2171f7ec022c5423887b07c69b2f5b48&#45;&gt;dir_4ab6b4cc6a7edbff49100e9123df213f -->
<g id="edge14" class="edge">
<title>dir_2171f7ec022c5423887b07c69b2f5b48&#45;&gt;dir_4ab6b4cc6a7edbff49100e9123df213f</title>
<path fill="none" stroke="#000000" d="M313.6482,-36.4133C317.6522,-44.2292 321.7259,-53.5113 324.9844,-62.136"/>
<polygon fill="#000000" stroke="#000000" points="321.7717,-63.5517 328.3821,-71.8314 328.3778,-61.2365 321.7717,-63.5517"/>
<g id="a_edge14&#45;headlabel"><a xlink:href="dir_000085_000032.html" target="_top" xlink:title="37">
<text text-anchor="middle" x="317.9035" y="-58.5983" font-family="Helvetica,sans-Serif" font-size="10.00" fill="#000000">37</text>
</a>
</g>
</g>
</g>
</svg>
