<?xml version="1.0" encoding="UTF-8" standalone="no"?>
<!DOCTYPE svg PUBLIC "-//W3C//DTD SVG 1.1//EN"
 "http://www.w3.org/Graphics/SVG/1.1/DTD/svg11.dtd">
<!-- Generated by graphviz version 2.40.1 (20161225.0304)
 -->
<!-- Title: /home/travis/build/AliceO2Group/AliceO2/Detectors/FIT/FV0 Pages: 1 -->
<!--zoomable 519 -->
<svg id="main" version="1.1" xmlns="http://www.w3.org/2000/svg" xmlns:xlink="http://www.w3.org/1999/xlink" xml:space="preserve" onload="init(evt)">
<style type="text/css"><![CDATA[
.edge:hover path { stroke: red; }
.edge:hover polygon { stroke: red; fill: red; }
]]></style>
<script type="text/javascript"><![CDATA[
var edges = document.getElementsByTagName('g');
if (edges && edges.length) {
  for (var i=0;i<edges.length;i++) {
    if (edges[i].id.substr(0,4)=='edge') {
      edges[i].setAttribute('class','edge');
    }
  }
}
]]></script>
        <defs>
                <circle id="rim" cx="0" cy="0" r="7"/>
                <circle id="rim2" cx="0" cy="0" r="3.5"/>
                <g id="zoomPlus">
                        <use xlink:href="#rim" fill="#404040">
                                <set attributeName="fill" to="#808080" begin="zoomplus.mouseover" end="zoomplus.mouseout"/>
                        </use>
                        <path d="M-4,0h8M0,-4v8" fill="none" stroke="white" stroke-width="1.5" pointer-events="none"/>
                </g>
                <g id="zoomMin">
                        <use xlink:href="#rim" fill="#404040">
                                <set attributeName="fill" to="#808080" begin="zoomminus.mouseover" end="zoomminus.mouseout"/>
                        </use>
                        <path d="M-4,0h8" fill="none" stroke="white" stroke-width="1.5" pointer-events="none"/>
                </g>
                <g id="dirArrow">
                        <path fill="none" stroke="white" stroke-width="1.5" d="M0,-3.0v7 M-2.5,-0.5L0,-3.0L2.5,-0.5"/>
                </g>
               <g id="resetDef">
                       <use xlink:href="#rim2" fill="#404040">
                               <set attributeName="fill" to="#808080" begin="reset.mouseover" end="reset.mouseout"/>
                       </use>
               </g>
        </defs>

<script type="text/javascript">
var viewWidth = 516;
var viewHeight = 519;
var sectionId = 'dynsection-0';
</script>
<script xlink:href="svgpan.js"/>
<svg id="graph" class="graph">
<g id="viewport">
<title>/home/travis/build/AliceO2Group/AliceO2/Detectors/FIT/FV0</title>
<g id="clust1" class="cluster">
<title>clusterdir_d14e88a79bca429480864605ee348cef</title>
<g id="a_clust1"><a xlink:href="dir_d14e88a79bca429480864605ee348cef.html" target="_top" xlink:title="FIT">
<polygon fill="#ddddee" stroke="#000000" points="216.3577,-272 216.3577,-503 420.3577,-503 420.3577,-272 216.3577,-272"/>
<text text-anchor="middle" x="318.3577" y="-491" font-family="Helvetica,sans-Serif" font-size="10.00" fill="#000000">FIT</text>
</a>
</g>
</g>
<g id="clust2" class="cluster">
<title>clusterdir_47779a59737632a3da2336a4e8799b86</title>
<g id="a_clust2"><a xlink:href="dir_47779a59737632a3da2336a4e8799b86.html" target="_top">
<polygon fill="#eeeeff" stroke="#000000" points="224.3577,-280 224.3577,-476 412.3577,-476 412.3577,-280 224.3577,-280"/>
</a>
</g>
</g>
<!-- dir_47779a59737632a3da2336a4e8799b86 -->
<g id="node1" class="node">
<title>dir_47779a59737632a3da2336a4e8799b86</title>
<text text-anchor="middle" x="358.3577" y="-447.5" font-family="Helvetica,sans-Serif" font-size="10.00" fill="#000000">FV0</text>
</g>
<!-- dir_33a453ce68726fac67bcc8248d4ab430 -->
<g id="node2" class="node">
<title>dir_33a453ce68726fac67bcc8248d4ab430</title>
<g id="a_node2"><a xlink:href="dir_33a453ce68726fac67bcc8248d4ab430.html" target="_top" xlink:title="base">
<polygon fill="#ffffff" stroke="#ff0000" points="404.3577,-324 350.3577,-324 350.3577,-288 404.3577,-288 404.3577,-324"/>
<text text-anchor="middle" x="377.3577" y="-303.5" font-family="Helvetica,sans-Serif" font-size="10.00" fill="#000000">base</text>
</a>
</g>
</g>
<!-- dir_e0bfde3cc4c1f87a15076e6d43624461 -->
<g id="node3" class="node">
<title>dir_e0bfde3cc4c1f87a15076e6d43624461</title>
<g id="a_node3"><a xlink:href="dir_e0bfde3cc4c1f87a15076e6d43624461.html" target="_top" xlink:title="reconstruction">
<polygon fill="#ffffff" stroke="#ff0000" points="404.3577,-396 318.3577,-396 318.3577,-360 404.3577,-360 404.3577,-396"/>
<text text-anchor="middle" x="361.3577" y="-375.5" font-family="Helvetica,sans-Serif" font-size="10.00" fill="#000000">reconstruction</text>
</a>
</g>
</g>
<!-- dir_e0bfde3cc4c1f87a15076e6d43624461&#45;&gt;dir_33a453ce68726fac67bcc8248d4ab430 -->
<g id="edge19" class="edge">
<title>dir_e0bfde3cc4c1f87a15076e6d43624461&#45;&gt;dir_33a453ce68726fac67bcc8248d4ab430</title>
<path fill="none" stroke="#000000" d="M365.3952,-359.8314C367.1064,-352.131 369.1412,-342.9743 371.0429,-334.4166"/>
<polygon fill="#000000" stroke="#000000" points="374.5131,-334.9344 373.2658,-324.4133 367.6798,-333.4159 374.5131,-334.9344"/>
<g id="a_edge19&#45;headlabel"><a xlink:href="dir_000475_000177.html" target="_top" xlink:title="1">
<text text-anchor="middle" x="376.5051" y="-336.5593" font-family="Helvetica,sans-Serif" font-size="10.00" fill="#000000">1</text>
</a>
</g>
</g>
<!-- dir_4ab6b4cc6a7edbff49100e9123df213f -->
<g id="node6" class="node">
<title>dir_4ab6b4cc6a7edbff49100e9123df213f</title>
<g id="a_node6"><a xlink:href="dir_4ab6b4cc6a7edbff49100e9123df213f.html" target="_top" xlink:title="Common">
<polygon fill="none" stroke="#ff0000" points="103.8577,-324 42.8577,-324 42.8577,-288 103.8577,-288 103.8577,-324"/>
<text text-anchor="middle" x="73.3577" y="-303.5" font-family="Helvetica,sans-Serif" font-size="10.00" fill="#000000">Common</text>
</a>
</g>
</g>
<!-- dir_e0bfde3cc4c1f87a15076e6d43624461&#45;&gt;dir_4ab6b4cc6a7edbff49100e9123df213f -->
<g id="edge16" class="edge">
<title>dir_e0bfde3cc4c1f87a15076e6d43624461&#45;&gt;dir_4ab6b4cc6a7edbff49100e9123df213f</title>
<path fill="none" stroke="#000000" d="M318.3421,-362.7078C315.313,-361.7551 312.2965,-360.8422 309.3577,-360 241.6008,-340.5828 161.3452,-323.4328 114.0403,-313.9118"/>
<polygon fill="#000000" stroke="#000000" points="114.6694,-310.4684 104.1775,-311.9413 113.2979,-317.3327 114.6694,-310.4684"/>
<g id="a_edge16&#45;headlabel"><a xlink:href="dir_000475_000032.html" target="_top" xlink:title="1">
<text text-anchor="middle" x="118.7506" y="-305.8883" font-family="Helvetica,sans-Serif" font-size="10.00" fill="#000000">1</text>
</a>
</g>
</g>
<!-- dir_b05a5fa85f84bfc9013183c9d87f9a36 -->
<g id="node7" class="node">
<title>dir_b05a5fa85f84bfc9013183c9d87f9a36</title>
<g id="a_node7"><a xlink:href="dir_b05a5fa85f84bfc9013183c9d87f9a36.html" target="_top" xlink:title="Utilities">
<polygon fill="none" stroke="#ff0000" points="241.8577,-36 186.8577,-36 186.8577,0 241.8577,0 241.8577,-36"/>
<text text-anchor="middle" x="214.3577" y="-15.5" font-family="Helvetica,sans-Serif" font-size="10.00" fill="#000000">Utilities</text>
</a>
</g>
</g>
<!-- dir_e0bfde3cc4c1f87a15076e6d43624461&#45;&gt;dir_b05a5fa85f84bfc9013183c9d87f9a36 -->
<g id="edge17" class="edge">
<title>dir_e0bfde3cc4c1f87a15076e6d43624461&#45;&gt;dir_b05a5fa85f84bfc9013183c9d87f9a36</title>
<path fill="none" stroke="#000000" d="M401.5261,-359.9276C445.0501,-337.2786 508.3577,-294.0189 508.3577,-234 508.3577,-234 508.3577,-234 508.3577,-162 508.3577,-105.5671 331.4463,-50.0358 252.0904,-27.9653"/>
<polygon fill="#000000" stroke="#000000" points="252.5864,-24.4719 242.0165,-25.1978 250.7321,-31.2218 252.5864,-24.4719"/>
<g id="a_edge17&#45;headlabel"><a xlink:href="dir_000475_000615.html" target="_top" xlink:title="1">
<text text-anchor="middle" x="256.8047" y="-20.1862" font-family="Helvetica,sans-Serif" font-size="10.00" fill="#000000">1</text>
</a>
</g>
</g>
<!-- dir_37c90836491b695b472bf98d1be8336b -->
<g id="node8" class="node">
<title>dir_37c90836491b695b472bf98d1be8336b</title>
<g id="a_node8"><a xlink:href="dir_37c90836491b695b472bf98d1be8336b.html" target="_top" xlink:title="Base">
<polygon fill="none" stroke="#ff0000" points="273.3577,-108 219.3577,-108 219.3577,-72 273.3577,-72 273.3577,-108"/>
<text text-anchor="middle" x="246.3577" y="-87.5" font-family="Helvetica,sans-Serif" font-size="10.00" fill="#000000">Base</text>
</a>
</g>
</g>
<!-- dir_e0bfde3cc4c1f87a15076e6d43624461&#45;&gt;dir_37c90836491b695b472bf98d1be8336b -->
<g id="edge18" class="edge">
<title>dir_e0bfde3cc4c1f87a15076e6d43624461&#45;&gt;dir_37c90836491b695b472bf98d1be8336b</title>
<path fill="none" stroke="#000000" d="M396.7931,-359.8842C410.1918,-351.0325 423.9775,-339.0142 431.3577,-324 441.5528,-303.2591 436.0045,-294.6391 431.3577,-272 417.725,-205.5825 400.839,-186.9284 348.3577,-144 328.6761,-127.901 303.4428,-114.4934 282.9982,-105.065"/>
<polygon fill="#000000" stroke="#000000" points="284.2429,-101.7875 273.6862,-100.89 281.3791,-108.1749 284.2429,-101.7875"/>
<g id="a_edge18&#45;headlabel"><a xlink:href="dir_000475_000280.html" target="_top" xlink:title="1">
<text text-anchor="middle" x="288.6845" y="-98.1672" font-family="Helvetica,sans-Serif" font-size="10.00" fill="#000000">1</text>
</a>
</g>
</g>
<!-- dir_bcbb2cf9a3d3d83e5515c82071a07177 -->
<g id="node9" class="node">
<title>dir_bcbb2cf9a3d3d83e5515c82071a07177</title>
<g id="a_node9"><a xlink:href="dir_bcbb2cf9a3d3d83e5515c82071a07177.html" target="_top" xlink:title="Framework">
<polygon fill="none" stroke="#ff0000" points="217.8577,-252 146.8577,-252 146.8577,-216 217.8577,-216 217.8577,-252"/>
<text text-anchor="middle" x="182.3577" y="-231.5" font-family="Helvetica,sans-Serif" font-size="10.00" fill="#000000">Framework</text>
</a>
</g>
</g>
<!-- dir_e0bfde3cc4c1f87a15076e6d43624461&#45;&gt;dir_bcbb2cf9a3d3d83e5515c82071a07177 -->
<g id="edge20" class="edge">
<title>dir_e0bfde3cc4c1f87a15076e6d43624461&#45;&gt;dir_bcbb2cf9a3d3d83e5515c82071a07177</title>
<path fill="none" stroke="#000000" d="M339.4086,-359.8298C313.6693,-338.5857 269.649,-302.4514 231.3577,-272 225.8099,-267.5881 219.8744,-262.9318 214.1176,-258.4488"/>
<polygon fill="#000000" stroke="#000000" points="215.923,-255.4196 205.8772,-252.0533 211.6312,-260.9496 215.923,-255.4196"/>
<g id="a_edge20&#45;headlabel"><a xlink:href="dir_000475_000058.html" target="_top" xlink:title="1">
<text text-anchor="middle" x="220.5035" y="-252.8805" font-family="Helvetica,sans-Serif" font-size="10.00" fill="#000000">1</text>
</a>
</g>
</g>
<!-- dir_26637d1bd82229bc9ed97f7e706be743 -->
<g id="node10" class="node">
<title>dir_26637d1bd82229bc9ed97f7e706be743</title>
<g id="a_node10"><a xlink:href="dir_26637d1bd82229bc9ed97f7e706be743.html" target="_top" xlink:title="Raw">
<polygon fill="none" stroke="#ff0000" points="104.3577,-396 50.3577,-396 50.3577,-360 104.3577,-360 104.3577,-396"/>
<text text-anchor="middle" x="77.3577" y="-375.5" font-family="Helvetica,sans-Serif" font-size="10.00" fill="#000000">Raw</text>
</a>
</g>
</g>
<!-- dir_e0bfde3cc4c1f87a15076e6d43624461&#45;&gt;dir_26637d1bd82229bc9ed97f7e706be743 -->
<g id="edge21" class="edge">
<title>dir_e0bfde3cc4c1f87a15076e6d43624461&#45;&gt;dir_26637d1bd82229bc9ed97f7e706be743</title>
<path fill="none" stroke="#000000" d="M337.4903,-396.1041C326.7423,-403.1586 313.5252,-410.4042 300.3577,-414 235.9942,-431.5762 158.6882,-409.8907 114.0697,-393.3659"/>
<polygon fill="#000000" stroke="#000000" points="115.1176,-390.0196 104.5269,-389.7243 112.6219,-396.5596 115.1176,-390.0196"/>
<g id="a_edge21&#45;headlabel"><a xlink:href="dir_000475_000620.html" target="_top" xlink:title="1">
<text text-anchor="middle" x="119.4882" y="-386.1484" font-family="Helvetica,sans-Serif" font-size="10.00" fill="#000000">1</text>
</a>
</g>
</g>
<!-- dir_2171f7ec022c5423887b07c69b2f5b48 -->
<g id="node11" class="node">
<title>dir_2171f7ec022c5423887b07c69b2f5b48</title>
<g id="a_node11"><a xlink:href="dir_2171f7ec022c5423887b07c69b2f5b48.html" target="_top" xlink:title="DataFormats">
<polygon fill="none" stroke="#ff0000" points="222.3577,-180 142.3577,-180 142.3577,-144 222.3577,-144 222.3577,-180"/>
<text text-anchor="middle" x="182.3577" y="-159.5" font-family="Helvetica,sans-Serif" font-size="10.00" fill="#000000">DataFormats</text>
</a>
</g>
</g>
<!-- dir_e0bfde3cc4c1f87a15076e6d43624461&#45;&gt;dir_2171f7ec022c5423887b07c69b2f5b48 -->
<g id="edge22" class="edge">
<title>dir_e0bfde3cc4c1f87a15076e6d43624461&#45;&gt;dir_2171f7ec022c5423887b07c69b2f5b48</title>
<path fill="none" stroke="#000000" d="M350.7827,-359.8381C332.1353,-328.6072 291.2103,-263.5098 247.3577,-216 237.6838,-205.5193 225.9832,-195.2111 215.1904,-186.456"/>
<polygon fill="#000000" stroke="#000000" points="217.1719,-183.5602 207.1627,-180.0864 212.821,-189.0438 217.1719,-183.5602"/>
<g id="a_edge22&#45;headlabel"><a xlink:href="dir_000475_000085.html" target="_top" xlink:title="9">
<text text-anchor="middle" x="221.7525" y="-181.0703" font-family="Helvetica,sans-Serif" font-size="10.00" fill="#000000">9</text>
</a>
</g>
</g>
<!-- dir_983acab3c3c5bf8a33c0d17787e8e0cc -->
<g id="node4" class="node">
<title>dir_983acab3c3c5bf8a33c0d17787e8e0cc</title>
<g id="a_node4"><a xlink:href="dir_983acab3c3c5bf8a33c0d17787e8e0cc.html" target="_top" xlink:title="simulation">
<polygon fill="#ffffff" stroke="#ff0000" points="300.3577,-396 232.3577,-396 232.3577,-360 300.3577,-360 300.3577,-396"/>
<text text-anchor="middle" x="266.3577" y="-375.5" font-family="Helvetica,sans-Serif" font-size="10.00" fill="#000000">simulation</text>
</a>
</g>
</g>
<!-- dir_983acab3c3c5bf8a33c0d17787e8e0cc&#45;&gt;dir_33a453ce68726fac67bcc8248d4ab430 -->
<g id="edge12" class="edge">
<title>dir_983acab3c3c5bf8a33c0d17787e8e0cc&#45;&gt;dir_33a453ce68726fac67bcc8248d4ab430</title>
<path fill="none" stroke="#000000" d="M294.3677,-359.8314C308.6485,-350.5681 326.1781,-339.1975 341.4411,-329.2972"/>
<polygon fill="#000000" stroke="#000000" points="343.6391,-332.0434 350.1241,-323.665 339.8298,-326.1706 343.6391,-332.0434"/>
<g id="a_edge12&#45;headlabel"><a xlink:href="dir_000296_000177.html" target="_top" xlink:title="6">
<text text-anchor="middle" x="342.1685" y="-333.8815" font-family="Helvetica,sans-Serif" font-size="10.00" fill="#000000">6</text>
</a>
</g>
</g>
<!-- dir_983acab3c3c5bf8a33c0d17787e8e0cc&#45;&gt;dir_4ab6b4cc6a7edbff49100e9123df213f -->
<g id="edge10" class="edge">
<title>dir_983acab3c3c5bf8a33c0d17787e8e0cc&#45;&gt;dir_4ab6b4cc6a7edbff49100e9123df213f</title>
<path fill="none" stroke="#000000" d="M232.2974,-365.2936C199.0617,-352.8947 148.5087,-334.0356 113.3731,-320.928"/>
<polygon fill="#000000" stroke="#000000" points="114.4918,-317.6098 103.8992,-317.3937 112.0451,-324.1683 114.4918,-317.6098"/>
<g id="a_edge10&#45;headlabel"><a xlink:href="dir_000296_000032.html" target="_top" xlink:title="5">
<text text-anchor="middle" x="118.8521" y="-313.706" font-family="Helvetica,sans-Serif" font-size="10.00" fill="#000000">5</text>
</a>
</g>
</g>
<!-- dir_983acab3c3c5bf8a33c0d17787e8e0cc&#45;&gt;dir_37c90836491b695b472bf98d1be8336b -->
<g id="edge11" class="edge">
<title>dir_983acab3c3c5bf8a33c0d17787e8e0cc&#45;&gt;dir_37c90836491b695b472bf98d1be8336b</title>
<path fill="none" stroke="#000000" d="M300.5467,-363.4592C303.5173,-362.2654 306.4848,-361.0973 309.3577,-360 355.0513,-342.5477 384.9862,-363.8441 413.3577,-324 426.763,-305.1739 421.701,-293.5525 413.3577,-272 386.8528,-203.5327 321.108,-145.2431 280.4626,-114.1403"/>
<polygon fill="#000000" stroke="#000000" points="282.5356,-111.32 272.4404,-108.1046 278.3271,-116.9136 282.5356,-111.32"/>
<g id="a_edge11&#45;headlabel"><a xlink:href="dir_000296_000280.html" target="_top" xlink:title="1">
<text text-anchor="middle" x="287.115" y="-108.7122" font-family="Helvetica,sans-Serif" font-size="10.00" fill="#000000">1</text>
</a>
</g>
</g>
<!-- dir_983acab3c3c5bf8a33c0d17787e8e0cc&#45;&gt;dir_bcbb2cf9a3d3d83e5515c82071a07177 -->
<g id="edge13" class="edge">
<title>dir_983acab3c3c5bf8a33c0d17787e8e0cc&#45;&gt;dir_bcbb2cf9a3d3d83e5515c82071a07177</title>
<path fill="none" stroke="#000000" d="M254.4605,-359.6599C247.8162,-349.281 239.4686,-336.0119 232.3577,-324 219.9514,-303.0431 206.5877,-278.9 196.8001,-260.8986"/>
<polygon fill="#000000" stroke="#000000" points="199.8717,-259.2206 192.0317,-252.0942 193.7165,-262.5543 199.8717,-259.2206"/>
<g id="a_edge13&#45;headlabel"><a xlink:href="dir_000296_000058.html" target="_top" xlink:title="1">
<text text-anchor="middle" x="204.0802" y="-258.5293" font-family="Helvetica,sans-Serif" font-size="10.00" fill="#000000">1</text>
</a>
</g>
</g>
<!-- dir_983acab3c3c5bf8a33c0d17787e8e0cc&#45;&gt;dir_26637d1bd82229bc9ed97f7e706be743 -->
<g id="edge14" class="edge">
<title>dir_983acab3c3c5bf8a33c0d17787e8e0cc&#45;&gt;dir_26637d1bd82229bc9ed97f7e706be743</title>
<path fill="none" stroke="#000000" d="M232.2525,-378C193.2149,-378 154.1772,-378 115.1395,-378"/>
<polygon fill="#000000" stroke="#000000" points="114.6741,-374.5001 104.6741,-378 114.6741,-381.5001 114.6741,-374.5001"/>
<g id="a_edge14&#45;headlabel"><a xlink:href="dir_000296_000620.html" target="_top" xlink:title="3">
<text text-anchor="middle" x="118.2687" y="-369.1607" font-family="Helvetica,sans-Serif" font-size="10.00" fill="#000000">3</text>
</a>
</g>
</g>
<!-- dir_983acab3c3c5bf8a33c0d17787e8e0cc&#45;&gt;dir_2171f7ec022c5423887b07c69b2f5b48 -->
<g id="edge15" class="edge">
<title>dir_983acab3c3c5bf8a33c0d17787e8e0cc&#45;&gt;dir_2171f7ec022c5423887b07c69b2f5b48</title>
<path fill="none" stroke="#000000" d="M264.7046,-359.8216C261.3082,-328.8425 251.7044,-264.4698 227.3577,-216 222.3764,-206.0832 215.2558,-196.3978 208.1442,-188.0308"/>
<polygon fill="#000000" stroke="#000000" points="210.6605,-185.5935 201.3989,-180.4482 205.4304,-190.2461 210.6605,-185.5935"/>
<g id="a_edge15&#45;headlabel"><a xlink:href="dir_000296_000085.html" target="_top" xlink:title="15">
<text text-anchor="middle" x="215.171" y="-183.892" font-family="Helvetica,sans-Serif" font-size="10.00" fill="#000000">15</text>
</a>
</g>
</g>
<!-- dir_892e1e937da6c955e9184446d0b59dc3 -->
<g id="node5" class="node">
<title>dir_892e1e937da6c955e9184446d0b59dc3</title>
<g id="a_node5"><a xlink:href="dir_892e1e937da6c955e9184446d0b59dc3.html" target="_top" xlink:title="workflow">
<polygon fill="#ffffff" stroke="#ff0000" points="293.8577,-468 232.8577,-468 232.8577,-432 293.8577,-432 293.8577,-468"/>
<text text-anchor="middle" x="263.3577" y="-447.5" font-family="Helvetica,sans-Serif" font-size="10.00" fill="#000000">workflow</text>
</a>
</g>
</g>
<!-- dir_892e1e937da6c955e9184446d0b59dc3&#45;&gt;dir_e0bfde3cc4c1f87a15076e6d43624461 -->
<g id="edge24" class="edge">
<title>dir_892e1e937da6c955e9184446d0b59dc3&#45;&gt;dir_e0bfde3cc4c1f87a15076e6d43624461</title>
<path fill="none" stroke="#000000" d="M288.0872,-431.8314C300.2738,-422.8779 315.14,-411.9558 328.2888,-402.2955"/>
<polygon fill="#000000" stroke="#000000" points="330.6495,-404.9042 336.6361,-396.1628 326.5049,-399.263 330.6495,-404.9042"/>
<g id="a_edge24&#45;headlabel"><a xlink:href="dir_000460_000475.html" target="_top" xlink:title="2">
<text text-anchor="middle" x="329.4337" y="-406.8206" font-family="Helvetica,sans-Serif" font-size="10.00" fill="#000000">2</text>
</a>
</g>
</g>
<!-- dir_892e1e937da6c955e9184446d0b59dc3&#45;&gt;dir_4ab6b4cc6a7edbff49100e9123df213f -->
<g id="edge23" class="edge">
<title>dir_892e1e937da6c955e9184446d0b59dc3&#45;&gt;dir_4ab6b4cc6a7edbff49100e9123df213f</title>
<path fill="none" stroke="#000000" d="M232.6296,-438.0025C210.2826,-428.4693 179.9404,-413.8018 156.3577,-396 131.8653,-377.5115 108.6,-351.2517 92.9676,-331.8664"/>
<polygon fill="#000000" stroke="#000000" points="95.7067,-329.6876 86.754,-324.022 90.2196,-334.034 95.7067,-329.6876"/>
<g id="a_edge23&#45;headlabel"><a xlink:href="dir_000460_000032.html" target="_top" xlink:title="2">
<text text-anchor="middle" x="100.1643" y="-328.2424" font-family="Helvetica,sans-Serif" font-size="10.00" fill="#000000">2</text>
</a>
</g>
</g>
<!-- dir_892e1e937da6c955e9184446d0b59dc3&#45;&gt;dir_bcbb2cf9a3d3d83e5515c82071a07177 -->
<g id="edge25" class="edge">
<title>dir_892e1e937da6c955e9184446d0b59dc3&#45;&gt;dir_bcbb2cf9a3d3d83e5515c82071a07177</title>
<path fill="none" stroke="#000000" d="M247.7453,-431.9716C239.6271,-421.9049 230.0337,-408.8344 223.3577,-396 200.7066,-352.4541 190.0874,-295.7078 185.4901,-262.2295"/>
<polygon fill="#000000" stroke="#000000" points="188.9502,-261.6947 184.2014,-252.2237 182.0075,-262.5889 188.9502,-261.6947"/>
<g id="a_edge25&#45;headlabel"><a xlink:href="dir_000460_000058.html" target="_top" xlink:title="20">
<text text-anchor="middle" x="192.2253" y="-262.3972" font-family="Helvetica,sans-Serif" font-size="10.00" fill="#000000">20</text>
</a>
</g>
</g>
<!-- dir_892e1e937da6c955e9184446d0b59dc3&#45;&gt;dir_2171f7ec022c5423887b07c69b2f5b48 -->
<g id="edge26" class="edge">
<title>dir_892e1e937da6c955e9184446d0b59dc3&#45;&gt;dir_2171f7ec022c5423887b07c69b2f5b48</title>
<path fill="none" stroke="#000000" d="M232.4588,-446.4338C178.0034,-439.5294 68.1581,-422.6303 41.3577,-396 -15.3942,-339.6084 -12.4306,-273.3451 43.3577,-216 67.0155,-191.682 102.8771,-178.1104 132.2485,-170.6555"/>
<polygon fill="#000000" stroke="#000000" points="133.4122,-173.9768 142.3362,-168.2661 131.7987,-167.1653 133.4122,-173.9768"/>
<g id="a_edge26&#45;headlabel"><a xlink:href="dir_000460_000085.html" target="_top" xlink:title="5">
<text text-anchor="middle" x="130.5687" y="-175.0681" font-family="Helvetica,sans-Serif" font-size="10.00" fill="#000000">5</text>
</a>
</g>
</g>
<!-- dir_4ab6b4cc6a7edbff49100e9123df213f&#45;&gt;dir_bcbb2cf9a3d3d83e5515c82071a07177 -->
<g id="edge1" class="edge">
<title>dir_4ab6b4cc6a7edbff49100e9123df213f&#45;&gt;dir_bcbb2cf9a3d3d83e5515c82071a07177</title>
<path fill="none" stroke="#000000" d="M87.7458,-287.8499C94.3083,-282.5744 102.042,-276.9134 109.3577,-272 118.2185,-266.0488 128.0243,-259.9819 137.5451,-254.4934"/>
<polygon fill="#000000" stroke="#000000" points="139.5455,-257.384 146.5459,-249.4313 136.1141,-251.2828 139.5455,-257.384"/>
<g id="a_edge1&#45;headlabel"><a xlink:href="dir_000032_000058.html" target="_top" xlink:title="2">
<text text-anchor="middle" x="137.8043" y="-259.1208" font-family="Helvetica,sans-Serif" font-size="10.00" fill="#000000">2</text>
</a>
</g>
</g>
<!-- dir_4ab6b4cc6a7edbff49100e9123df213f&#45;&gt;dir_2171f7ec022c5423887b07c69b2f5b48 -->
<g id="edge2" class="edge">
<title>dir_4ab6b4cc6a7edbff49100e9123df213f&#45;&gt;dir_2171f7ec022c5423887b07c69b2f5b48</title>
<path fill="none" stroke="#000000" d="M78.9066,-287.7754C89.3162,-269.382 109.6357,-240.301 128.3577,-216 135.6158,-206.579 143.8691,-196.5053 151.8046,-187.6411"/>
<polygon fill="#000000" stroke="#000000" points="154.4531,-189.9319 158.6633,-180.2095 149.3091,-185.1844 154.4531,-189.9319"/>
<g id="a_edge2&#45;headlabel"><a xlink:href="dir_000032_000085.html" target="_top" xlink:title="2">
<text text-anchor="middle" x="154.1017" y="-191.9991" font-family="Helvetica,sans-Serif" font-size="10.00" fill="#000000">2</text>
</a>
</g>
</g>
<!-- dir_b05a5fa85f84bfc9013183c9d87f9a36&#45;&gt;dir_4ab6b4cc6a7edbff49100e9123df213f -->
<g id="edge3" class="edge">
<title>dir_b05a5fa85f84bfc9013183c9d87f9a36&#45;&gt;dir_4ab6b4cc6a7edbff49100e9123df213f</title>
<path fill="none" stroke="#000000" d="M194.5552,-36.3329C170.5918,-59.4399 130.3558,-101.3215 105.3577,-144 88.1622,-173.3572 86.3353,-182.7007 79.3577,-216 75.0822,-236.4038 73.6309,-259.9247 73.2226,-277.8032"/>
<polygon fill="#000000" stroke="#000000" points="69.7222,-277.8232 73.0883,-287.869 76.7215,-277.9167 69.7222,-277.8232"/>
<g id="a_edge3&#45;headlabel"><a xlink:href="dir_000615_000032.html" target="_top" xlink:title="1">
<text text-anchor="middle" x="66.931" y="-271.691" font-family="Helvetica,sans-Serif" font-size="10.00" fill="#000000">1</text>
</a>
</g>
</g>
<!-- dir_b05a5fa85f84bfc9013183c9d87f9a36&#45;&gt;dir_bcbb2cf9a3d3d83e5515c82071a07177 -->
<g id="edge4" class="edge">
<title>dir_b05a5fa85f84bfc9013183c9d87f9a36&#45;&gt;dir_bcbb2cf9a3d3d83e5515c82071a07177</title>
<path fill="none" stroke="#000000" d="M242.065,-31.9675C256.9675,-41.1233 273.9675,-54.6233 282.3577,-72 289.3146,-86.4084 285.6791,-92.3486 282.3577,-108 275.0882,-142.2553 271.7985,-152.3131 250.3577,-180 241.7519,-191.1127 230.3951,-201.2935 219.4325,-209.7472"/>
<polygon fill="#000000" stroke="#000000" points="217.1302,-207.097 211.1783,-215.862 221.297,-212.7217 217.1302,-207.097"/>
<g id="a_edge4&#45;headlabel"><a xlink:href="dir_000615_000058.html" target="_top" xlink:title="96">
<text text-anchor="middle" x="218.3285" y="-200.1758" font-family="Helvetica,sans-Serif" font-size="10.00" fill="#000000">96</text>
</a>
</g>
</g>
<!-- dir_b05a5fa85f84bfc9013183c9d87f9a36&#45;&gt;dir_2171f7ec022c5423887b07c69b2f5b48 -->
<g id="edge5" class="edge">
<title>dir_b05a5fa85f84bfc9013183c9d87f9a36&#45;&gt;dir_2171f7ec022c5423887b07c69b2f5b48</title>
<path fill="none" stroke="#000000" d="M214.9961,-36.0896C212.0109,-60.6805 202.4584,-104.905 194.0962,-133.8531"/>
<polygon fill="#000000" stroke="#000000" points="190.6438,-133.1766 191.0837,-143.7623 197.3411,-135.2127 190.6438,-133.1766"/>
<g id="a_edge5&#45;headlabel"><a xlink:href="dir_000615_000085.html" target="_top" xlink:title="59">
<text text-anchor="middle" x="188.9728" y="-126.4116" font-family="Helvetica,sans-Serif" font-size="10.00" fill="#000000">59</text>
</a>
</g>
</g>
<!-- dir_37c90836491b695b472bf98d1be8336b&#45;&gt;dir_4ab6b4cc6a7edbff49100e9123df213f -->
<g id="edge6" class="edge">
<title>dir_37c90836491b695b472bf98d1be8336b&#45;&gt;dir_4ab6b4cc6a7edbff49100e9123df213f</title>
<path fill="none" stroke="#000000" d="M219.0557,-96.6697C193.6586,-104.1899 156.3719,-118.7879 133.3577,-144 98.4497,-182.2418 83.3369,-242.58 77.1961,-277.8201"/>
<polygon fill="#000000" stroke="#000000" points="73.7076,-277.4682 75.5664,-287.8987 80.6179,-278.5856 73.7076,-277.4682"/>
<g id="a_edge6&#45;headlabel"><a xlink:href="dir_000280_000032.html" target="_top" xlink:title="16">
<text text-anchor="middle" x="71.4785" y="-270.9665" font-family="Helvetica,sans-Serif" font-size="10.00" fill="#000000">16</text>
</a>
</g>
</g>
<!-- dir_37c90836491b695b472bf98d1be8336b&#45;&gt;dir_b05a5fa85f84bfc9013183c9d87f9a36 -->
<g id="edge7" class="edge">
<title>dir_37c90836491b695b472bf98d1be8336b&#45;&gt;dir_b05a5fa85f84bfc9013183c9d87f9a36</title>
<path fill="none" stroke="#000000" d="M238.2827,-71.8314C234.7475,-63.8771 230.5217,-54.369 226.612,-45.5723"/>
<polygon fill="#000000" stroke="#000000" points="229.8011,-44.1299 222.5414,-36.4133 223.4045,-46.9729 229.8011,-44.1299"/>
<g id="a_edge7&#45;headlabel"><a xlink:href="dir_000280_000615.html" target="_top" xlink:title="1">
<text text-anchor="middle" x="233.8556" y="-43.7616" font-family="Helvetica,sans-Serif" font-size="10.00" fill="#000000">1</text>
</a>
</g>
</g>
<!-- dir_37c90836491b695b472bf98d1be8336b&#45;&gt;dir_bcbb2cf9a3d3d83e5515c82071a07177 -->
<g id="edge8" class="edge">
<title>dir_37c90836491b695b472bf98d1be8336b&#45;&gt;dir_bcbb2cf9a3d3d83e5515c82071a07177</title>
<path fill="none" stroke="#000000" d="M246.3,-108.1503C245.5788,-126.9985 242.5432,-156.9044 231.3577,-180 226.3303,-190.3805 218.6749,-200.212 210.8989,-208.5704"/>
<polygon fill="#000000" stroke="#000000" points="208.3036,-206.2179 203.7957,-215.8059 213.2989,-211.1218 208.3036,-206.2179"/>
<g id="a_edge8&#45;headlabel"><a xlink:href="dir_000280_000058.html" target="_top" xlink:title="1">
<text text-anchor="middle" x="208.7957" y="-199.1638" font-family="Helvetica,sans-Serif" font-size="10.00" fill="#000000">1</text>
</a>
</g>
</g>
<!-- dir_37c90836491b695b472bf98d1be8336b&#45;&gt;dir_2171f7ec022c5423887b07c69b2f5b48 -->
<g id="edge9" class="edge">
<title>dir_37c90836491b695b472bf98d1be8336b&#45;&gt;dir_2171f7ec022c5423887b07c69b2f5b48</title>
<path fill="none" stroke="#000000" d="M235.9663,-108.4133C229.2271,-116.9088 220.3086,-127.1366 211.635,-136.3696"/>
<polygon fill="#000000" stroke="#000000" points="208.8683,-134.1972 204.46,-143.8314 213.9141,-139.049 208.8683,-134.1972"/>
<g id="a_edge9&#45;headlabel"><a xlink:href="dir_000280_000085.html" target="_top" xlink:title="15">
<text text-anchor="middle" x="209.3132" y="-127.1382" font-family="Helvetica,sans-Serif" font-size="10.00" fill="#000000">15</text>
</a>
</g>
</g>
<!-- dir_bcbb2cf9a3d3d83e5515c82071a07177&#45;&gt;dir_4ab6b4cc6a7edbff49100e9123df213f -->
<g id="edge27" class="edge">
<title>dir_bcbb2cf9a3d3d83e5515c82071a07177&#45;&gt;dir_4ab6b4cc6a7edbff49100e9123df213f</title>
<path fill="none" stroke="#000000" d="M158.8891,-252.0635C148.9893,-258.158 137.5485,-265.1556 127.3577,-272 122.4628,-275.2876 117.3807,-278.9098 112.3533,-282.5273"/>
<polygon fill="#000000" stroke="#000000" points="110.0572,-279.8676 103.9868,-288.551 114.1473,-285.5485 110.0572,-279.8676"/>
<g id="a_edge27&#45;headlabel"><a xlink:href="dir_000058_000032.html" target="_top" xlink:title="8">
<text text-anchor="middle" x="111.3154" y="-272.9632" font-family="Helvetica,sans-Serif" font-size="10.00" fill="#000000">8</text>
</a>
</g>
</g>
<!-- dir_bcbb2cf9a3d3d83e5515c82071a07177&#45;&gt;dir_2171f7ec022c5423887b07c69b2f5b48 -->
<g id="edge28" class="edge">
<title>dir_bcbb2cf9a3d3d83e5515c82071a07177&#45;&gt;dir_2171f7ec022c5423887b07c69b2f5b48</title>
<path fill="none" stroke="#000000" d="M176.4053,-215.8314C175.6549,-208.131 175.434,-198.9743 175.7426,-190.4166"/>
<polygon fill="#000000" stroke="#000000" points="179.2369,-190.6161 176.3817,-180.4133 172.2511,-190.1697 179.2369,-190.6161"/>
<g id="a_edge28&#45;headlabel"><a xlink:href="dir_000058_000085.html" target="_top" xlink:title="72">
<text text-anchor="middle" x="181.8413" y="-191.8844" font-family="Helvetica,sans-Serif" font-size="10.00" fill="#000000">72</text>
</a>
</g>
</g>
<!-- dir_26637d1bd82229bc9ed97f7e706be743&#45;&gt;dir_4ab6b4cc6a7edbff49100e9123df213f -->
<g id="edge29" class="edge">
<title>dir_26637d1bd82229bc9ed97f7e706be743&#45;&gt;dir_4ab6b4cc6a7edbff49100e9123df213f</title>
<path fill="none" stroke="#000000" d="M76.3483,-359.8314C75.9205,-352.131 75.4118,-342.9743 74.9364,-334.4166"/>
<polygon fill="#000000" stroke="#000000" points="78.43,-334.2037 74.3806,-324.4133 71.4408,-334.592 78.43,-334.2037"/>
<g id="a_edge29&#45;headlabel"><a xlink:href="dir_000620_000032.html" target="_top" xlink:title="10">
<text text-anchor="middle" x="81.4642" y="-335.1353" font-family="Helvetica,sans-Serif" font-size="10.00" fill="#000000">10</text>
</a>
</g>
</g>
<!-- dir_26637d1bd82229bc9ed97f7e706be743&#45;&gt;dir_bcbb2cf9a3d3d83e5515c82071a07177 -->
<g id="edge30" class="edge">
<title>dir_26637d1bd82229bc9ed97f7e706be743&#45;&gt;dir_bcbb2cf9a3d3d83e5515c82071a07177</title>
<path fill="none" stroke="#000000" d="M90.656,-359.7623C108.9597,-334.66 142.0335,-289.3017 163.0588,-260.4671"/>
<polygon fill="#000000" stroke="#000000" points="166.1036,-262.2318 169.1673,-252.0896 160.4475,-258.1076 166.1036,-262.2318"/>
<g id="a_edge30&#45;headlabel"><a xlink:href="dir_000620_000058.html" target="_top" xlink:title="25">
<text text-anchor="middle" x="166.2799" y="-264.3091" font-family="Helvetica,sans-Serif" font-size="10.00" fill="#000000">25</text>
</a>
</g>
</g>
<!-- dir_26637d1bd82229bc9ed97f7e706be743&#45;&gt;dir_2171f7ec022c5423887b07c69b2f5b48 -->
<g id="edge31" class="edge">
<title>dir_26637d1bd82229bc9ed97f7e706be743&#45;&gt;dir_2171f7ec022c5423887b07c69b2f5b48</title>
<path fill="none" stroke="#000000" d="M56.9551,-359.5625C47.8636,-349.9675 38.1414,-337.4441 33.3577,-324 25.61,-302.2262 23,-292.6602 33.3577,-272 53.9937,-230.838 98.1668,-201.3065 133.0871,-183.2737"/>
<polygon fill="#000000" stroke="#000000" points="134.8251,-186.3179 142.2036,-178.7147 131.6942,-180.0571 134.8251,-186.3179"/>
<g id="a_edge31&#45;headlabel"><a xlink:href="dir_000620_000085.html" target="_top" xlink:title="15">
<text text-anchor="middle" x="132.8799" y="-187.965" font-family="Helvetica,sans-Serif" font-size="10.00" fill="#000000">15</text>
</a>
</g>
</g>
<!-- dir_2171f7ec022c5423887b07c69b2f5b48&#45;&gt;dir_33a453ce68726fac67bcc8248d4ab430 -->
<g id="edge35" class="edge">
<title>dir_2171f7ec022c5423887b07c69b2f5b48&#45;&gt;dir_33a453ce68726fac67bcc8248d4ab430</title>
<path fill="none" stroke="#000000" d="M222.5499,-167.1753C256.5522,-173.4514 304.6687,-187.0481 336.3577,-216 354.3845,-232.4697 365.0354,-258.4146 370.9423,-278.225"/>
<polygon fill="#000000" stroke="#000000" points="367.588,-279.2277 373.6127,-287.9428 374.3377,-277.3728 367.588,-279.2277"/>
<g id="a_edge35&#45;headlabel"><a xlink:href="dir_000085_000177.html" target="_top" xlink:title="2">
<text text-anchor="middle" x="363.8978" y="-274.0139" font-family="Helvetica,sans-Serif" font-size="10.00" fill="#000000">2</text>
</a>
</g>
</g>
<!-- dir_2171f7ec022c5423887b07c69b2f5b48&#45;&gt;dir_4ab6b4cc6a7edbff49100e9123df213f -->
<g id="edge32" class="edge">
<title>dir_2171f7ec022c5423887b07c69b2f5b48&#45;&gt;dir_4ab6b4cc6a7edbff49100e9123df213f</title>
<path fill="none" stroke="#000000" d="M174.5172,-180.2095C166.7898,-190.5475 155.7419,-203.8193 146.3577,-216 130.2685,-236.8837 112.9995,-261.2975 99.065,-279.4247"/>
<polygon fill="#000000" stroke="#000000" points="95.932,-277.7477 92.5121,-287.7754 101.4389,-282.0691 95.932,-277.7477"/>
<g id="a_edge32&#45;headlabel"><a xlink:href="dir_000085_000032.html" target="_top" xlink:title="37">
<text text-anchor="middle" x="95.9174" y="-270.6671" font-family="Helvetica,sans-Serif" font-size="10.00" fill="#000000">37</text>
</a>
</g>
</g>
<!-- dir_2171f7ec022c5423887b07c69b2f5b48&#45;&gt;dir_b05a5fa85f84bfc9013183c9d87f9a36 -->
<g id="edge33" class="edge">
<title>dir_2171f7ec022c5423887b07c69b2f5b48&#45;&gt;dir_b05a5fa85f84bfc9013183c9d87f9a36</title>
<path fill="none" stroke="#000000" d="M181.7373,-143.7623C184.7488,-119.0928 194.3121,-74.8598 202.6694,-45.9731"/>
<polygon fill="#000000" stroke="#000000" points="206.1141,-46.6755 205.6795,-36.0896 199.4178,-44.6361 206.1141,-46.6755"/>
<g id="a_edge33&#45;headlabel"><a xlink:href="dir_000085_000615.html" target="_top" xlink:title="1">
<text text-anchor="middle" x="207.783" y="-48.4414" font-family="Helvetica,sans-Serif" font-size="10.00" fill="#000000">1</text>
</a>
</g>
</g>
<!-- dir_2171f7ec022c5423887b07c69b2f5b48&#45;&gt;dir_37c90836491b695b472bf98d1be8336b -->
<g id="edge34" class="edge">
<title>dir_2171f7ec022c5423887b07c69b2f5b48&#45;&gt;dir_37c90836491b695b472bf98d1be8336b</title>
<path fill="none" stroke="#000000" d="M192.5552,-143.8314C199.2523,-135.3694 208.152,-125.1489 216.8301,-115.8971"/>
<polygon fill="#000000" stroke="#000000" points="219.614,-118.0511 224.0143,-108.4133 214.5642,-113.2034 219.614,-118.0511"/>
<g id="a_edge34&#45;headlabel"><a xlink:href="dir_000085_000280.html" target="_top" xlink:title="1">
<text text-anchor="middle" x="219.1729" y="-120.1105" font-family="Helvetica,sans-Serif" font-size="10.00" fill="#000000">1</text>
</a>
</g>
</g>
<!-- dir_2171f7ec022c5423887b07c69b2f5b48&#45;&gt;dir_bcbb2cf9a3d3d83e5515c82071a07177 -->
<g id="edge36" class="edge">
<title>dir_2171f7ec022c5423887b07c69b2f5b48&#45;&gt;dir_bcbb2cf9a3d3d83e5515c82071a07177</title>
<path fill="none" stroke="#000000" d="M188.3337,-180.4133C189.0648,-188.0593 189.278,-197.1084 188.9732,-205.5726"/>
<polygon fill="#000000" stroke="#000000" points="185.4625,-205.6264 188.3101,-215.8314 192.4479,-206.078 185.4625,-205.6264"/>
<g id="a_edge36&#45;headlabel"><a xlink:href="dir_000085_000058.html" target="_top" xlink:title="20">
<text text-anchor="middle" x="182.8609" y="-199.3562" font-family="Helvetica,sans-Serif" font-size="10.00" fill="#000000">20</text>
</a>
</g>
</g>
</g>
</svg>
        <g id="navigator" transform="translate(0 0)" fill="#404254">
                <rect fill="#f2f5e9" fill-opacity="0.5" stroke="#606060" stroke-width=".5" x="0" y="0" width="60" height="60"/>
                <use id="zoomplus" xlink:href="#zoomPlus" x="17" y="9" onmousedown="handleZoom(evt,'in')"/>
                <use id="zoomminus" xlink:href="#zoomMin" x="42" y="9" onmousedown="handleZoom(evt,'out')"/>
                <use id="reset" xlink:href="#resetDef" x="30" y="36" onmousedown="handleReset()"/>
                <g id="arrowUp" xlink:href="#dirArrow" transform="translate(30 24)" onmousedown="handlePan(0,-1)">
                  <use xlink:href="#rim" fill="#404040">
                        <set attributeName="fill" to="#808080" begin="arrowUp.mouseover" end="arrowUp.mouseout"/>
                  </use>
                  <path fill="none" stroke="white" stroke-width="1.5" d="M0,-3.0v7 M-2.5,-0.5L0,-3.0L2.5,-0.5"/>
                </g>
                <g id="arrowRight" xlink:href="#dirArrow" transform="rotate(90) translate(36 -43)" onmousedown="handlePan(1,0)">
                  <use xlink:href="#rim" fill="#404040">
                        <set attributeName="fill" to="#808080" begin="arrowRight.mouseover" end="arrowRight.mouseout"/>
                  </use>
                  <path fill="none" stroke="white" stroke-width="1.5" d="M0,-3.0v7 M-2.5,-0.5L0,-3.0L2.5,-0.5"/>
                </g>
                <g id="arrowDown" xlink:href="#dirArrow" transform="rotate(180) translate(-30 -48)" onmousedown="handlePan(0,1)">
                  <use xlink:href="#rim" fill="#404040">
                        <set attributeName="fill" to="#808080" begin="arrowDown.mouseover" end="arrowDown.mouseout"/>
                  </use>
                  <path fill="none" stroke="white" stroke-width="1.5" d="M0,-3.0v7 M-2.5,-0.5L0,-3.0L2.5,-0.5"/>
                </g>
                <g id="arrowLeft" xlink:href="#dirArrow" transform="rotate(270) translate(-36 17)" onmousedown="handlePan(-1,0)">
                  <use xlink:href="#rim" fill="#404040">
                        <set attributeName="fill" to="#808080" begin="arrowLeft.mouseover" end="arrowLeft.mouseout"/>
                  </use>
                  <path fill="none" stroke="white" stroke-width="1.5" d="M0,-3.0v7 M-2.5,-0.5L0,-3.0L2.5,-0.5"/>
                </g>
        </g>
        <svg viewBox="0 0 15 15" width="100%" height="30px" preserveAspectRatio="xMaxYMin meet">
         <g id="arrow_out" transform="scale(0.3 0.3)">
          <a xlink:href="dir_47779a59737632a3da2336a4e8799b86_dep_org.svg" target="_base">
           <rect id="button" ry="5" rx="5" y="6" x="6" height="38" width="38"
                fill="#f2f5e9" fill-opacity="0.5" stroke="#606060" stroke-width="1.0"/>
           <path id="arrow"
             d="M 11.500037,31.436501 C 11.940474,20.09759 22.043105,11.32322 32.158766,21.979434 L 37.068811,17.246167 C 37.068811,17.246167 37.088388,32 37.088388,32 L 22.160133,31.978069 C 22.160133,31.978069 26.997745,27.140456 26.997745,27.140456 C 18.528582,18.264221 13.291696,25.230495 11.500037,31.436501 z"
             style="fill:#404040;"/>
          </a>
         </g>
        </svg>
</svg>
