<?xml version="1.0" encoding="UTF-8" standalone="no"?>
<!DOCTYPE svg PUBLIC "-//W3C//DTD SVG 1.1//EN"
 "http://www.w3.org/Graphics/SVG/1.1/DTD/svg11.dtd">
<!-- Generated by graphviz version 2.40.1 (20161225.0304)
 -->
<!-- Title: /home/travis/build/AliceO2Group/AliceO2/Framework/Utils/include/DPLUtils Pages: 1 -->
<svg width="212pt" height="295pt"
 viewBox="0.00 0.00 211.56 295.00" xmlns="http://www.w3.org/2000/svg" xmlns:xlink="http://www.w3.org/1999/xlink">
<g id="graph0" class="graph" transform="scale(1 1) rotate(0) translate(4 291)">
<title>/home/travis/build/AliceO2Group/AliceO2/Framework/Utils/include/DPLUtils</title>
<g id="clust1" class="cluster">
<title>clusterdir_de9651cf711cd4bea71a7a8d6bfef94c</title>
<g id="a_clust1"><a xlink:href="dir_de9651cf711cd4bea71a7a8d6bfef94c.html" target="_top" xlink:title="include">
<polygon fill="#ddddee" stroke="#000000" points="76.5,-208 76.5,-279 150.5,-279 150.5,-208 76.5,-208"/>
<text text-anchor="middle" x="113.5" y="-267" font-family="Helvetica,sans-Serif" font-size="10.00" fill="#000000">include</text>
</a>
</g>
</g>
<!-- dir_7aebe22961b46cd8502bbaccf48f2fdd -->
<g id="node1" class="node">
<title>dir_7aebe22961b46cd8502bbaccf48f2fdd</title>
<g id="a_node1"><a xlink:href="dir_7aebe22961b46cd8502bbaccf48f2fdd.html" target="_top" xlink:title="DPLUtils">
<polygon fill="#eeeeff" stroke="#000000" points="142,-252 85,-252 85,-216 142,-216 142,-252"/>
<text text-anchor="middle" x="113.5" y="-231.5" font-family="Helvetica,sans-Serif" font-size="10.00" fill="#000000">DPLUtils</text>
</a>
</g>
</g>
<!-- dir_9f165b2481dacfe69aa54d326bd5cd47 -->
<g id="node2" class="node">
<title>dir_9f165b2481dacfe69aa54d326bd5cd47</title>
<g id="a_node2"><a xlink:href="dir_9f165b2481dacfe69aa54d326bd5cd47.html" target="_top" xlink:title="Core">
<polygon fill="none" stroke="#ff0000" points="109.5,-180 55.5,-180 55.5,-144 109.5,-144 109.5,-180"/>
<text text-anchor="middle" x="82.5" y="-159.5" font-family="Helvetica,sans-Serif" font-size="10.00" fill="#000000">Core</text>
</a>
</g>
</g>
<!-- dir_7aebe22961b46cd8502bbaccf48f2fdd&#45;&gt;dir_9f165b2481dacfe69aa54d326bd5cd47 -->
<g id="edge5" class="edge">
<title>dir_7aebe22961b46cd8502bbaccf48f2fdd&#45;&gt;dir_9f165b2481dacfe69aa54d326bd5cd47</title>
<path fill="none" stroke="#000000" d="M105.6774,-215.8314C102.2891,-207.9617 98.2459,-198.5712 94.4924,-189.8533"/>
<polygon fill="#000000" stroke="#000000" points="97.5973,-188.214 90.4279,-180.4133 91.1679,-190.9822 97.5973,-188.214"/>
<g id="a_edge5&#45;headlabel"><a xlink:href="dir_000061_000710.html" target="_top" xlink:title="15">
<text text-anchor="middle" x="101.6266" y="-187.8928" font-family="Helvetica,sans-Serif" font-size="10.00" fill="#000000">15</text>
</a>
</g>
</g>
<!-- dir_5d813cdce1e9826318f2aba62999ca51 -->
<g id="node3" class="node">
<title>dir_5d813cdce1e9826318f2aba62999ca51</title>
<g id="a_node3"><a xlink:href="dir_5d813cdce1e9826318f2aba62999ca51.html" target="_top" xlink:title="Foundation">
<polygon fill="none" stroke="#ff0000" points="71,-36 0,-36 0,0 71,0 71,-36"/>
<text text-anchor="middle" x="35.5" y="-15.5" font-family="Helvetica,sans-Serif" font-size="10.00" fill="#000000">Foundation</text>
</a>
</g>
</g>
<!-- dir_7aebe22961b46cd8502bbaccf48f2fdd&#45;&gt;dir_5d813cdce1e9826318f2aba62999ca51 -->
<g id="edge6" class="edge">
<title>dir_7aebe22961b46cd8502bbaccf48f2fdd&#45;&gt;dir_5d813cdce1e9826318f2aba62999ca51</title>
<path fill="none" stroke="#000000" d="M84.9106,-218.6161C70.7859,-209.4008 54.9874,-196.2983 46.5,-180 24.4124,-137.5852 26.7676,-80.2466 30.8702,-46.388"/>
<polygon fill="#000000" stroke="#000000" points="34.3669,-46.6468 32.2348,-36.2687 27.4297,-45.7112 34.3669,-46.6468"/>
<g id="a_edge6&#45;headlabel"><a xlink:href="dir_000061_000715.html" target="_top" xlink:title="1">
<text text-anchor="middle" x="36.7004" y="-48.0885" font-family="Helvetica,sans-Serif" font-size="10.00" fill="#000000">1</text>
</a>
</g>
</g>
<!-- dir_ab5a80d4bd40f73f0851d5ff6a022779 -->
<g id="node4" class="node">
<title>dir_ab5a80d4bd40f73f0851d5ff6a022779</title>
<g id="a_node4"><a xlink:href="dir_ab5a80d4bd40f73f0851d5ff6a022779.html" target="_top" xlink:title="Logger">
<polygon fill="none" stroke="#ff0000" points="177.5,-36 123.5,-36 123.5,0 177.5,0 177.5,-36"/>
<text text-anchor="middle" x="150.5" y="-15.5" font-family="Helvetica,sans-Serif" font-size="10.00" fill="#000000">Logger</text>
</a>
</g>
</g>
<!-- dir_7aebe22961b46cd8502bbaccf48f2fdd&#45;&gt;dir_ab5a80d4bd40f73f0851d5ff6a022779 -->
<g id="edge7" class="edge">
<title>dir_7aebe22961b46cd8502bbaccf48f2fdd&#45;&gt;dir_ab5a80d4bd40f73f0851d5ff6a022779</title>
<path fill="none" stroke="#000000" d="M131.2285,-215.8638C152.2563,-192.9551 186.1398,-151.2733 199.5,-108 204.22,-92.712 205.2627,-86.9262 199.5,-72 195.3808,-61.3306 188.0664,-51.4665 180.3251,-43.1681"/>
<polygon fill="#000000" stroke="#000000" points="182.7181,-40.6113 173.175,-36.0091 177.7652,-45.558 182.7181,-40.6113"/>
<g id="a_edge7&#45;headlabel"><a xlink:href="dir_000061_000720.html" target="_top" xlink:title="3">
<text text-anchor="middle" x="187.2672" y="-38.6483" font-family="Helvetica,sans-Serif" font-size="10.00" fill="#000000">3</text>
</a>
</g>
</g>
<!-- dir_2171f7ec022c5423887b07c69b2f5b48 -->
<g id="node5" class="node">
<title>dir_2171f7ec022c5423887b07c69b2f5b48</title>
<g id="a_node5"><a xlink:href="dir_2171f7ec022c5423887b07c69b2f5b48.html" target="_top" xlink:title="DataFormats">
<polygon fill="none" stroke="#ff0000" points="190.5,-108 110.5,-108 110.5,-72 190.5,-72 190.5,-108"/>
<text text-anchor="middle" x="150.5" y="-87.5" font-family="Helvetica,sans-Serif" font-size="10.00" fill="#000000">DataFormats</text>
</a>
</g>
</g>
<!-- dir_7aebe22961b46cd8502bbaccf48f2fdd&#45;&gt;dir_2171f7ec022c5423887b07c69b2f5b48 -->
<g id="edge8" class="edge">
<title>dir_7aebe22961b46cd8502bbaccf48f2fdd&#45;&gt;dir_2171f7ec022c5423887b07c69b2f5b48</title>
<path fill="none" stroke="#000000" d="M118.1861,-215.7623C124.5248,-191.0928 135.8902,-146.8598 143.3125,-117.9731"/>
<polygon fill="#000000" stroke="#000000" points="146.7532,-118.6461 145.852,-108.0896 139.9734,-116.904 146.7532,-118.6461"/>
<g id="a_edge8&#45;headlabel"><a xlink:href="dir_000061_000085.html" target="_top" xlink:title="4">
<text text-anchor="middle" x="148.6086" y="-120.3341" font-family="Helvetica,sans-Serif" font-size="10.00" fill="#000000">4</text>
</a>
</g>
</g>
<!-- dir_9f165b2481dacfe69aa54d326bd5cd47&#45;&gt;dir_5d813cdce1e9826318f2aba62999ca51 -->
<g id="edge1" class="edge">
<title>dir_9f165b2481dacfe69aa54d326bd5cd47&#45;&gt;dir_5d813cdce1e9826318f2aba62999ca51</title>
<path fill="none" stroke="#000000" d="M71.8742,-143.7623C61.3518,-119.0928 46.6483,-74.8598 39.1581,-45.9731"/>
<polygon fill="#000000" stroke="#000000" points="42.5172,-44.9746 36.746,-36.0896 35.7168,-46.6343 42.5172,-44.9746"/>
<g id="a_edge1&#45;headlabel"><a xlink:href="dir_000710_000715.html" target="_top" xlink:title="48">
<text text-anchor="middle" x="46.1277" y="-45.2936" font-family="Helvetica,sans-Serif" font-size="10.00" fill="#000000">48</text>
</a>
</g>
</g>
<!-- dir_9f165b2481dacfe69aa54d326bd5cd47&#45;&gt;dir_ab5a80d4bd40f73f0851d5ff6a022779 -->
<g id="edge2" class="edge">
<title>dir_9f165b2481dacfe69aa54d326bd5cd47&#45;&gt;dir_ab5a80d4bd40f73f0851d5ff6a022779</title>
<path fill="none" stroke="#000000" d="M83.5418,-143.8257C85.2453,-124.9578 89.7266,-95.0362 101.5,-72 106.7931,-61.6434 114.5981,-51.7654 122.4303,-43.3563"/>
<polygon fill="#000000" stroke="#000000" points="125.0643,-45.6689 129.5595,-36.075 120.0626,-40.7716 125.0643,-45.6689"/>
<g id="a_edge2&#45;headlabel"><a xlink:href="dir_000710_000720.html" target="_top" xlink:title="42">
<text text-anchor="middle" x="124.5782" y="-47.7237" font-family="Helvetica,sans-Serif" font-size="10.00" fill="#000000">42</text>
</a>
</g>
</g>
<!-- dir_9f165b2481dacfe69aa54d326bd5cd47&#45;&gt;dir_2171f7ec022c5423887b07c69b2f5b48 -->
<g id="edge3" class="edge">
<title>dir_9f165b2481dacfe69aa54d326bd5cd47&#45;&gt;dir_2171f7ec022c5423887b07c69b2f5b48</title>
<path fill="none" stroke="#000000" d="M99.6593,-143.8314C107.6511,-135.3694 117.3038,-125.1489 126.0416,-115.8971"/>
<polygon fill="#000000" stroke="#000000" points="128.788,-118.0866 133.1097,-108.4133 123.6989,-113.2802 128.788,-118.0866"/>
<g id="a_edge3&#45;headlabel"><a xlink:href="dir_000710_000085.html" target="_top" xlink:title="55">
<text text-anchor="middle" x="128.384" y="-120.1494" font-family="Helvetica,sans-Serif" font-size="10.00" fill="#000000">55</text>
</a>
</g>
</g>
<!-- dir_5d813cdce1e9826318f2aba62999ca51&#45;&gt;dir_9f165b2481dacfe69aa54d326bd5cd47 -->
<g id="edge4" class="edge">
<title>dir_5d813cdce1e9826318f2aba62999ca51&#45;&gt;dir_9f165b2481dacfe69aa54d326bd5cd47</title>
<path fill="none" stroke="#000000" d="M46.0625,-36.0896C56.5682,-60.6805 71.2777,-104.905 78.7968,-133.8531"/>
<polygon fill="#000000" stroke="#000000" points="75.4448,-134.8802 81.2206,-143.7623 82.2444,-133.217 75.4448,-134.8802"/>
<g id="a_edge4&#45;headlabel"><a xlink:href="dir_000715_000710.html" target="_top" xlink:title="1">
<text text-anchor="middle" x="71.8329" y="-129.5631" font-family="Helvetica,sans-Serif" font-size="10.00" fill="#000000">1</text>
</a>
</g>
</g>
<!-- dir_2171f7ec022c5423887b07c69b2f5b48&#45;&gt;dir_5d813cdce1e9826318f2aba62999ca51 -->
<g id="edge9" class="edge">
<title>dir_2171f7ec022c5423887b07c69b2f5b48&#45;&gt;dir_5d813cdce1e9826318f2aba62999ca51</title>
<path fill="none" stroke="#000000" d="M121.4806,-71.8314C106.7714,-62.6221 88.7356,-51.3301 72.9878,-41.4706"/>
<polygon fill="#000000" stroke="#000000" points="74.8433,-38.5029 64.5101,-36.1628 71.1286,-44.436 74.8433,-38.5029"/>
<g id="a_edge9&#45;headlabel"><a xlink:href="dir_000085_000715.html" target="_top" xlink:title="1">
<text text-anchor="middle" x="79.3967" y="-35.5039" font-family="Helvetica,sans-Serif" font-size="10.00" fill="#000000">1</text>
</a>
</g>
</g>
<!-- dir_2171f7ec022c5423887b07c69b2f5b48&#45;&gt;dir_ab5a80d4bd40f73f0851d5ff6a022779 -->
<g id="edge10" class="edge">
<title>dir_2171f7ec022c5423887b07c69b2f5b48&#45;&gt;dir_ab5a80d4bd40f73f0851d5ff6a022779</title>
<path fill="none" stroke="#000000" d="M150.5,-71.8314C150.5,-64.131 150.5,-54.9743 150.5,-46.4166"/>
<polygon fill="#000000" stroke="#000000" points="154.0001,-46.4132 150.5,-36.4133 147.0001,-46.4133 154.0001,-46.4132"/>
<g id="a_edge10&#45;headlabel"><a xlink:href="dir_000085_000720.html" target="_top" xlink:title="19">
<text text-anchor="middle" x="156.8393" y="-47.5079" font-family="Helvetica,sans-Serif" font-size="10.00" fill="#000000">19</text>
</a>
</g>
</g>
</g>
</svg>
