<?xml version="1.0" encoding="UTF-8" standalone="no"?>
<!DOCTYPE svg PUBLIC "-//W3C//DTD SVG 1.1//EN"
 "http://www.w3.org/Graphics/SVG/1.1/DTD/svg11.dtd">
<!-- Generated by graphviz version 2.40.1 (20161225.0304)
 -->
<!-- Title: /home/travis/build/AliceO2Group/AliceO2/Common Pages: 1 -->
<svg width="465pt" height="276pt"
 viewBox="0.00 0.00 464.72 276.00" xmlns="http://www.w3.org/2000/svg" xmlns:xlink="http://www.w3.org/1999/xlink">
<g id="graph0" class="graph" transform="scale(1 1) rotate(0) translate(4 272)">
<title>/home/travis/build/AliceO2Group/AliceO2/Common</title>
<g id="clust1" class="cluster">
<title>clusterdir_4ab6b4cc6a7edbff49100e9123df213f</title>
<g id="a_clust1"><a xlink:href="dir_4ab6b4cc6a7edbff49100e9123df213f.html" target="_top">
<polygon fill="#eeeeff" stroke="#000000" points="103.5617,-8 103.5617,-204 409.5617,-204 409.5617,-8 103.5617,-8"/>
</a>
</g>
</g>
<!-- dir_4ab6b4cc6a7edbff49100e9123df213f -->
<g id="node1" class="node">
<title>dir_4ab6b4cc6a7edbff49100e9123df213f</title>
<text text-anchor="middle" x="370.5617" y="-175.5" font-family="Helvetica,sans-Serif" font-size="10.00" fill="#000000">Common</text>
</g>
<!-- dir_6595de266f53d2529c2724716663252d -->
<g id="node2" class="node">
<title>dir_6595de266f53d2529c2724716663252d</title>
<g id="a_node2"><a xlink:href="dir_6595de266f53d2529c2724716663252d.html" target="_top" xlink:title="Constants">
<polygon fill="#ffffff" stroke="#ff0000" points="177.0617,-52 112.0617,-52 112.0617,-16 177.0617,-16 177.0617,-52"/>
<text text-anchor="middle" x="144.5617" y="-31.5" font-family="Helvetica,sans-Serif" font-size="10.00" fill="#000000">Constants</text>
</a>
</g>
</g>
<!-- dir_91c9f7c5ec503f33747eecaa76c19aa0 -->
<g id="node3" class="node">
<title>dir_91c9f7c5ec503f33747eecaa76c19aa0</title>
<g id="a_node3"><a xlink:href="dir_91c9f7c5ec503f33747eecaa76c19aa0.html" target="_top" xlink:title="Field">
<polygon fill="#ffffff" stroke="#ff0000" points="165.5617,-196 111.5617,-196 111.5617,-160 165.5617,-160 165.5617,-196"/>
<text text-anchor="middle" x="138.5617" y="-175.5" font-family="Helvetica,sans-Serif" font-size="10.00" fill="#000000">Field</text>
</a>
</g>
</g>
<!-- dir_1e6fb7e1d286de65f5cad603aaa68769 -->
<g id="node4" class="node">
<title>dir_1e6fb7e1d286de65f5cad603aaa68769</title>
<g id="a_node4"><a xlink:href="dir_1e6fb7e1d286de65f5cad603aaa68769.html" target="_top" xlink:title="MathUtils">
<polygon fill="#ffffff" stroke="#ff0000" points="176.0617,-124 113.0617,-124 113.0617,-88 176.0617,-88 176.0617,-124"/>
<text text-anchor="middle" x="144.5617" y="-103.5" font-family="Helvetica,sans-Serif" font-size="10.00" fill="#000000">MathUtils</text>
</a>
</g>
</g>
<!-- dir_91c9f7c5ec503f33747eecaa76c19aa0&#45;&gt;dir_1e6fb7e1d286de65f5cad603aaa68769 -->
<g id="edge1" class="edge">
<title>dir_91c9f7c5ec503f33747eecaa76c19aa0&#45;&gt;dir_1e6fb7e1d286de65f5cad603aaa68769</title>
<path fill="none" stroke="#000000" d="M140.0757,-159.8314C140.7174,-152.131 141.4805,-142.9743 142.1936,-134.4166"/>
<polygon fill="#000000" stroke="#000000" points="145.6846,-134.6694 143.0272,-124.4133 138.7088,-134.088 145.6846,-134.6694"/>
<g id="a_edge1&#45;headlabel"><a xlink:href="dir_000036_000041.html" target="_top" xlink:title="3">
<text text-anchor="middle" x="148.2156" y="-135.9874" font-family="Helvetica,sans-Serif" font-size="10.00" fill="#000000">3</text>
</a>
</g>
</g>
<!-- dir_1e6fb7e1d286de65f5cad603aaa68769&#45;&gt;dir_6595de266f53d2529c2724716663252d -->
<g id="edge2" class="edge">
<title>dir_1e6fb7e1d286de65f5cad603aaa68769&#45;&gt;dir_6595de266f53d2529c2724716663252d</title>
<path fill="none" stroke="#000000" d="M144.5617,-87.8314C144.5617,-80.131 144.5617,-70.9743 144.5617,-62.4166"/>
<polygon fill="#000000" stroke="#000000" points="148.0618,-62.4132 144.5617,-52.4133 141.0618,-62.4133 148.0618,-62.4132"/>
<g id="a_edge2&#45;headlabel"><a xlink:href="dir_000041_000033.html" target="_top" xlink:title="1">
<text text-anchor="middle" x="150.901" y="-63.5079" font-family="Helvetica,sans-Serif" font-size="10.00" fill="#000000">1</text>
</a>
</g>
</g>
<!-- dir_f511f1e9c03c071966ae594f00bbc5e0 -->
<g id="node8" class="node">
<title>dir_f511f1e9c03c071966ae594f00bbc5e0</title>
<g id="a_node8"><a xlink:href="dir_f511f1e9c03c071966ae594f00bbc5e0.html" target="_top" xlink:title="GPU">
<polygon fill="none" stroke="#ff0000" points="80.5617,-268 26.5617,-268 26.5617,-232 80.5617,-232 80.5617,-268"/>
<text text-anchor="middle" x="53.5617" y="-247.5" font-family="Helvetica,sans-Serif" font-size="10.00" fill="#000000">GPU</text>
</a>
</g>
</g>
<!-- dir_1e6fb7e1d286de65f5cad603aaa68769&#45;&gt;dir_f511f1e9c03c071966ae594f00bbc5e0 -->
<g id="edge3" class="edge">
<title>dir_1e6fb7e1d286de65f5cad603aaa68769&#45;&gt;dir_f511f1e9c03c071966ae594f00bbc5e0</title>
<path fill="none" stroke="#000000" d="M176.1655,-114.0798C189.2501,-117.3226 204.6017,-120.9957 218.5617,-124 426.6124,-168.775 519.4145,-80.2215 410.5617,-204 389.6431,-227.787 177.9144,-242.7501 90.7497,-247.9452"/>
<polygon fill="#000000" stroke="#000000" points="90.5368,-244.4516 80.7586,-248.5302 90.9461,-251.4396 90.5368,-244.4516"/>
<g id="a_edge3&#45;headlabel"><a xlink:href="dir_000041_000732.html" target="_top" xlink:title="3">
<text text-anchor="middle" x="93.9594" y="-238.9071" font-family="Helvetica,sans-Serif" font-size="10.00" fill="#000000">3</text>
</a>
</g>
</g>
<!-- dir_bcbb2cf9a3d3d83e5515c82071a07177 -->
<g id="node9" class="node">
<title>dir_bcbb2cf9a3d3d83e5515c82071a07177</title>
<g id="a_node9"><a xlink:href="dir_bcbb2cf9a3d3d83e5515c82071a07177.html" target="_top" xlink:title="Framework">
<polygon fill="none" stroke="#ff0000" points="95.0617,-124 24.0617,-124 24.0617,-88 95.0617,-88 95.0617,-124"/>
<text text-anchor="middle" x="59.5617" y="-103.5" font-family="Helvetica,sans-Serif" font-size="10.00" fill="#000000">Framework</text>
</a>
</g>
</g>
<!-- dir_1e6fb7e1d286de65f5cad603aaa68769&#45;&gt;dir_bcbb2cf9a3d3d83e5515c82071a07177 -->
<g id="edge4" class="edge">
<title>dir_1e6fb7e1d286de65f5cad603aaa68769&#45;&gt;dir_bcbb2cf9a3d3d83e5515c82071a07177</title>
<path fill="none" stroke="#000000" d="M112.8683,-106C110.2755,-106 107.6827,-106 105.0898,-106"/>
<polygon fill="#000000" stroke="#000000" points="105.0891,-102.5001 95.089,-106 105.089,-109.5001 105.0891,-102.5001"/>
<g id="a_edge4&#45;headlabel"><a xlink:href="dir_000041_000058.html" target="_top" xlink:title="1">
<text text-anchor="middle" x="108.6836" y="-97.1607" font-family="Helvetica,sans-Serif" font-size="10.00" fill="#000000">1</text>
</a>
</g>
</g>
<!-- dir_3a79d3ee4538628fc18e2135ea9cbf22 -->
<g id="node5" class="node">
<title>dir_3a79d3ee4538628fc18e2135ea9cbf22</title>
<g id="a_node5"><a xlink:href="dir_3a79d3ee4538628fc18e2135ea9cbf22.html" target="_top" xlink:title="SimConfig">
<polygon fill="#ffffff" stroke="#ff0000" points="321.5617,-196 255.5617,-196 255.5617,-160 321.5617,-160 321.5617,-196"/>
<text text-anchor="middle" x="288.5617" y="-175.5" font-family="Helvetica,sans-Serif" font-size="10.00" fill="#000000">SimConfig</text>
</a>
</g>
</g>
<!-- dir_dc4810549f8e2e369c60bffc9a91caa2 -->
<g id="node7" class="node">
<title>dir_dc4810549f8e2e369c60bffc9a91caa2</title>
<g id="a_node7"><a xlink:href="dir_dc4810549f8e2e369c60bffc9a91caa2.html" target="_top" xlink:title="Utils">
<polygon fill="#ffffff" stroke="#ff0000" points="281.5617,-124 227.5617,-124 227.5617,-88 281.5617,-88 281.5617,-124"/>
<text text-anchor="middle" x="254.5617" y="-103.5" font-family="Helvetica,sans-Serif" font-size="10.00" fill="#000000">Utils</text>
</a>
</g>
</g>
<!-- dir_3a79d3ee4538628fc18e2135ea9cbf22&#45;&gt;dir_dc4810549f8e2e369c60bffc9a91caa2 -->
<g id="edge6" class="edge">
<title>dir_3a79d3ee4538628fc18e2135ea9cbf22&#45;&gt;dir_dc4810549f8e2e369c60bffc9a91caa2</title>
<path fill="none" stroke="#000000" d="M279.982,-159.8314C276.2259,-151.8771 271.7359,-142.369 267.5819,-133.5723"/>
<polygon fill="#000000" stroke="#000000" points="270.6918,-131.9612 263.2568,-124.4133 264.3621,-134.9503 270.6918,-131.9612"/>
<g id="a_edge6&#45;headlabel"><a xlink:href="dir_000064_000077.html" target="_top" xlink:title="11">
<text text-anchor="middle" x="274.7941" y="-131.4993" font-family="Helvetica,sans-Serif" font-size="10.00" fill="#000000">11</text>
</a>
</g>
</g>
<!-- dir_2171f7ec022c5423887b07c69b2f5b48 -->
<g id="node10" class="node">
<title>dir_2171f7ec022c5423887b07c69b2f5b48</title>
<g id="a_node10"><a xlink:href="dir_2171f7ec022c5423887b07c69b2f5b48.html" target="_top" xlink:title="DataFormats">
<polygon fill="none" stroke="#ff0000" points="93.5617,-196 13.5617,-196 13.5617,-160 93.5617,-160 93.5617,-196"/>
<text text-anchor="middle" x="53.5617" y="-175.5" font-family="Helvetica,sans-Serif" font-size="10.00" fill="#000000">DataFormats</text>
</a>
</g>
</g>
<!-- dir_3a79d3ee4538628fc18e2135ea9cbf22&#45;&gt;dir_2171f7ec022c5423887b07c69b2f5b48 -->
<g id="edge5" class="edge">
<title>dir_3a79d3ee4538628fc18e2135ea9cbf22&#45;&gt;dir_2171f7ec022c5423887b07c69b2f5b48</title>
<path fill="none" stroke="#000000" d="M271.4806,-196.1402C262.3288,-204.5272 250.325,-213.5918 237.5617,-218 183.3695,-236.7168 163.0847,-235.73 108.5617,-218 98.4564,-214.7139 88.6586,-208.7945 80.2011,-202.4995"/>
<polygon fill="#000000" stroke="#000000" points="82.2348,-199.6451 72.2285,-196.1629 77.8793,-205.125 82.2348,-199.6451"/>
<g id="a_edge5&#45;headlabel"><a xlink:href="dir_000064_000085.html" target="_top" xlink:title="1">
<text text-anchor="middle" x="86.8154" y="-197.1589" font-family="Helvetica,sans-Serif" font-size="10.00" fill="#000000">1</text>
</a>
</g>
</g>
<!-- dir_a227714f4bf20de28f228c5ebfa34254 -->
<g id="node6" class="node">
<title>dir_a227714f4bf20de28f228c5ebfa34254</title>
<g id="a_node6"><a xlink:href="dir_a227714f4bf20de28f228c5ebfa34254.html" target="_top" xlink:title="Types">
<polygon fill="#ffffff" stroke="#ff0000" points="237.5617,-196 183.5617,-196 183.5617,-160 237.5617,-160 237.5617,-196"/>
<text text-anchor="middle" x="210.5617" y="-175.5" font-family="Helvetica,sans-Serif" font-size="10.00" fill="#000000">Types</text>
</a>
</g>
</g>
<!-- dir_dc4810549f8e2e369c60bffc9a91caa2&#45;&gt;dir_bcbb2cf9a3d3d83e5515c82071a07177 -->
<g id="edge21" class="edge">
<title>dir_dc4810549f8e2e369c60bffc9a91caa2&#45;&gt;dir_bcbb2cf9a3d3d83e5515c82071a07177</title>
<path fill="none" stroke="#000000" d="M227.4293,-122.0563C212.8814,-129.7376 194.3336,-138.0966 176.5617,-142 147.0431,-148.4834 137.2798,-151.4155 108.5617,-142 100.8036,-139.4564 93.2606,-135.1638 86.5109,-130.4111"/>
<polygon fill="#000000" stroke="#000000" points="88.5017,-127.5275 78.4292,-124.242 84.2543,-133.0917 88.5017,-127.5275"/>
<g id="a_edge21&#45;headlabel"><a xlink:href="dir_000077_000058.html" target="_top" xlink:title="1">
<text text-anchor="middle" x="93.0817" y="-124.9517" font-family="Helvetica,sans-Serif" font-size="10.00" fill="#000000">1</text>
</a>
</g>
</g>
<!-- dir_dc4810549f8e2e369c60bffc9a91caa2&#45;&gt;dir_2171f7ec022c5423887b07c69b2f5b48 -->
<g id="edge22" class="edge">
<title>dir_dc4810549f8e2e369c60bffc9a91caa2&#45;&gt;dir_2171f7ec022c5423887b07c69b2f5b48</title>
<path fill="none" stroke="#000000" d="M227.5221,-113.06C196.8593,-122.4463 145.8536,-139.782 100.5371,-156.3346"/>
<polygon fill="#000000" stroke="#000000" points="99.1426,-153.1181 90.9628,-159.8517 101.5564,-159.6888 99.1426,-153.1181"/>
<g id="a_edge22&#45;headlabel"><a xlink:href="dir_000077_000085.html" target="_top" xlink:title="1">
<text text-anchor="middle" x="101.5377" y="-146.7136" font-family="Helvetica,sans-Serif" font-size="10.00" fill="#000000">1</text>
</a>
</g>
</g>
<!-- dir_f511f1e9c03c071966ae594f00bbc5e0&#45;&gt;dir_6595de266f53d2529c2724716663252d -->
<g id="edge7" class="edge">
<title>dir_f511f1e9c03c071966ae594f00bbc5e0&#45;&gt;dir_6595de266f53d2529c2724716663252d</title>
<path fill="none" stroke="#000000" d="M26.8318,-231.9462C18.0283,-224.4435 9.2892,-214.9223 4.5617,-204 -1.1641,-190.7713 -2.2038,-99.1803 5.5617,-88 17.0026,-71.528 65.5079,-55.215 102.0236,-44.9019"/>
<polygon fill="#000000" stroke="#000000" points="103.2565,-48.1925 111.9642,-42.157 101.3933,-41.445 103.2565,-48.1925"/>
<g id="a_edge7&#45;headlabel"><a xlink:href="dir_000732_000033.html" target="_top" xlink:title="2">
<text text-anchor="middle" x="100.5473" y="-49.386" font-family="Helvetica,sans-Serif" font-size="10.00" fill="#000000">2</text>
</a>
</g>
</g>
<!-- dir_f511f1e9c03c071966ae594f00bbc5e0&#45;&gt;dir_dc4810549f8e2e369c60bffc9a91caa2 -->
<g id="edge9" class="edge">
<title>dir_f511f1e9c03c071966ae594f00bbc5e0&#45;&gt;dir_dc4810549f8e2e369c60bffc9a91caa2</title>
<path fill="none" stroke="#000000" d="M80.6941,-248.8281C164.8992,-244.9161 417.5709,-231.0031 441.5617,-204 454.5501,-189.3808 453.3159,-175.6288 441.5617,-160 423.5474,-136.0477 340.7163,-119.3625 291.5406,-111.3734"/>
<polygon fill="#000000" stroke="#000000" points="292.0172,-107.9054 281.5933,-109.8011 290.9243,-114.8195 292.0172,-107.9054"/>
<g id="a_edge9&#45;headlabel"><a xlink:href="dir_000732_000077.html" target="_top" xlink:title="2">
<text text-anchor="middle" x="296.011" y="-103.162" font-family="Helvetica,sans-Serif" font-size="10.00" fill="#000000">2</text>
</a>
</g>
</g>
<!-- dir_f511f1e9c03c071966ae594f00bbc5e0&#45;&gt;dir_2171f7ec022c5423887b07c69b2f5b48 -->
<g id="edge8" class="edge">
<title>dir_f511f1e9c03c071966ae594f00bbc5e0&#45;&gt;dir_2171f7ec022c5423887b07c69b2f5b48</title>
<path fill="none" stroke="#000000" d="M47.6093,-231.8314C46.8589,-224.131 46.638,-214.9743 46.9466,-206.4166"/>
<polygon fill="#000000" stroke="#000000" points="50.4409,-206.6161 47.5857,-196.4133 43.4551,-206.1697 50.4409,-206.6161"/>
<g id="a_edge8&#45;headlabel"><a xlink:href="dir_000732_000085.html" target="_top" xlink:title="16">
<text text-anchor="middle" x="53.0453" y="-207.8844" font-family="Helvetica,sans-Serif" font-size="10.00" fill="#000000">16</text>
</a>
</g>
</g>
<!-- dir_bcbb2cf9a3d3d83e5515c82071a07177&#45;&gt;dir_91c9f7c5ec503f33747eecaa76c19aa0 -->
<g id="edge10" class="edge">
<title>dir_bcbb2cf9a3d3d83e5515c82071a07177&#45;&gt;dir_91c9f7c5ec503f33747eecaa76c19aa0</title>
<path fill="none" stroke="#000000" d="M79.4903,-124.1628C89.0327,-132.8596 100.6141,-143.4149 110.9854,-152.8672"/>
<polygon fill="#000000" stroke="#000000" points="108.8781,-155.6821 118.6266,-159.8314 113.5933,-150.5085 108.8781,-155.6821"/>
<g id="a_edge10&#45;headlabel"><a xlink:href="dir_000058_000036.html" target="_top" xlink:title="2">
<text text-anchor="middle" x="104.3088" y="-152.8593" font-family="Helvetica,sans-Serif" font-size="10.00" fill="#000000">2</text>
</a>
</g>
</g>
<!-- dir_bcbb2cf9a3d3d83e5515c82071a07177&#45;&gt;dir_1e6fb7e1d286de65f5cad603aaa68769 -->
<g id="edge11" class="edge">
<title>dir_bcbb2cf9a3d3d83e5515c82071a07177&#45;&gt;dir_1e6fb7e1d286de65f5cad603aaa68769</title>
<path fill="none" stroke="#000000" d="M95.089,-106C97.6818,-106 100.2746,-106 102.8674,-106"/>
<polygon fill="#000000" stroke="#000000" points="102.8683,-109.5001 112.8683,-106 102.8682,-102.5001 102.8683,-109.5001"/>
<g id="a_edge11&#45;headlabel"><a xlink:href="dir_000058_000041.html" target="_top" xlink:title="1">
<text text-anchor="middle" x="99.2736" y="-109.8393" font-family="Helvetica,sans-Serif" font-size="10.00" fill="#000000">1</text>
</a>
</g>
</g>
<!-- dir_bcbb2cf9a3d3d83e5515c82071a07177&#45;&gt;dir_dc4810549f8e2e369c60bffc9a91caa2 -->
<g id="edge13" class="edge">
<title>dir_bcbb2cf9a3d3d83e5515c82071a07177&#45;&gt;dir_dc4810549f8e2e369c60bffc9a91caa2</title>
<path fill="none" stroke="#000000" d="M78.4292,-124.242C86.9293,-131.227 97.5279,-138.3825 108.5617,-142 137.2798,-151.4155 147.0431,-148.4834 176.5617,-142 190.8625,-138.859 205.6658,-132.8329 218.483,-126.5964"/>
<polygon fill="#000000" stroke="#000000" points="220.0958,-129.7029 227.4293,-122.0563 216.928,-123.4607 220.0958,-129.7029"/>
<g id="a_edge13&#45;headlabel"><a xlink:href="dir_000058_000077.html" target="_top" xlink:title="5">
<text text-anchor="middle" x="218.1752" y="-131.3614" font-family="Helvetica,sans-Serif" font-size="10.00" fill="#000000">5</text>
</a>
</g>
</g>
<!-- dir_bcbb2cf9a3d3d83e5515c82071a07177&#45;&gt;dir_2171f7ec022c5423887b07c69b2f5b48 -->
<g id="edge12" class="edge">
<title>dir_bcbb2cf9a3d3d83e5515c82071a07177&#45;&gt;dir_2171f7ec022c5423887b07c69b2f5b48</title>
<path fill="none" stroke="#000000" d="M64.0033,-124.4133C64.0982,-132.1442 63.5442,-141.3097 62.5123,-149.8545"/>
<polygon fill="#000000" stroke="#000000" points="59.0377,-149.4252 61.0281,-159.8314 65.9615,-150.4552 59.0377,-149.4252"/>
<g id="a_edge12&#45;headlabel"><a xlink:href="dir_000058_000085.html" target="_top" xlink:title="72">
<text text-anchor="middle" x="56.7581" y="-142.952" font-family="Helvetica,sans-Serif" font-size="10.00" fill="#000000">72</text>
</a>
</g>
</g>
<!-- dir_2171f7ec022c5423887b07c69b2f5b48&#45;&gt;dir_6595de266f53d2529c2724716663252d -->
<g id="edge14" class="edge">
<title>dir_2171f7ec022c5423887b07c69b2f5b48&#45;&gt;dir_6595de266f53d2529c2724716663252d</title>
<path fill="none" stroke="#000000" d="M35.4539,-159.7889C18.9324,-140.8911 -.7533,-110.9453 14.5617,-88 33.8588,-59.0886 71.8415,-45.6342 101.7903,-39.3857"/>
<polygon fill="#000000" stroke="#000000" points="102.825,-42.7525 112.0047,-37.4626 101.5297,-35.8734 102.825,-42.7525"/>
<g id="a_edge14&#45;headlabel"><a xlink:href="dir_000085_000033.html" target="_top" xlink:title="11">
<text text-anchor="middle" x="99.8178" y="-43.7078" font-family="Helvetica,sans-Serif" font-size="10.00" fill="#000000">11</text>
</a>
</g>
</g>
<!-- dir_2171f7ec022c5423887b07c69b2f5b48&#45;&gt;dir_1e6fb7e1d286de65f5cad603aaa68769 -->
<g id="edge15" class="edge">
<title>dir_2171f7ec022c5423887b07c69b2f5b48&#45;&gt;dir_1e6fb7e1d286de65f5cad603aaa68769</title>
<path fill="none" stroke="#000000" d="M76.5248,-159.8314C87.7332,-150.9632 101.3826,-140.1637 113.5056,-130.5718"/>
<polygon fill="#000000" stroke="#000000" points="115.9354,-133.1125 121.6059,-124.1628 111.592,-127.6229 115.9354,-133.1125"/>
<g id="a_edge15&#45;headlabel"><a xlink:href="dir_000085_000041.html" target="_top" xlink:title="16">
<text text-anchor="middle" x="114.8781" y="-135.0694" font-family="Helvetica,sans-Serif" font-size="10.00" fill="#000000">16</text>
</a>
</g>
</g>
<!-- dir_2171f7ec022c5423887b07c69b2f5b48&#45;&gt;dir_3a79d3ee4538628fc18e2135ea9cbf22 -->
<g id="edge17" class="edge">
<title>dir_2171f7ec022c5423887b07c69b2f5b48&#45;&gt;dir_3a79d3ee4538628fc18e2135ea9cbf22</title>
<path fill="none" stroke="#000000" d="M72.2285,-196.1629C82.1609,-204.5557 95.088,-213.6186 108.5617,-218 163.0847,-235.73 183.3695,-236.7168 237.5617,-218 246.9348,-214.7627 255.8982,-209.0143 263.6233,-202.8671"/>
<polygon fill="#000000" stroke="#000000" points="266.1604,-205.3025 271.4806,-196.1402 261.608,-199.985 266.1604,-205.3025"/>
<g id="a_edge17&#45;headlabel"><a xlink:href="dir_000085_000064.html" target="_top" xlink:title="1">
<text text-anchor="middle" x="265.2764" y="-207.297" font-family="Helvetica,sans-Serif" font-size="10.00" fill="#000000">1</text>
</a>
</g>
</g>
<!-- dir_2171f7ec022c5423887b07c69b2f5b48&#45;&gt;dir_a227714f4bf20de28f228c5ebfa34254 -->
<g id="edge16" class="edge">
<title>dir_2171f7ec022c5423887b07c69b2f5b48&#45;&gt;dir_a227714f4bf20de28f228c5ebfa34254</title>
<path fill="none" stroke="#000000" d="M72.2285,-196.1629C82.1609,-204.5557 95.088,-213.6186 108.5617,-218 132.6532,-225.8342 141.8821,-227.003 165.5617,-218 173.9887,-214.7961 181.8453,-209.2106 188.5594,-203.212"/>
<polygon fill="#000000" stroke="#000000" points="191.1481,-205.5768 195.882,-196.0984 186.2705,-200.5559 191.1481,-205.5768"/>
<g id="a_edge16&#45;headlabel"><a xlink:href="dir_000085_000074.html" target="_top" xlink:title="1">
<text text-anchor="middle" x="190.5482" y="-207.618" font-family="Helvetica,sans-Serif" font-size="10.00" fill="#000000">1</text>
</a>
</g>
</g>
<!-- dir_2171f7ec022c5423887b07c69b2f5b48&#45;&gt;dir_dc4810549f8e2e369c60bffc9a91caa2 -->
<g id="edge20" class="edge">
<title>dir_2171f7ec022c5423887b07c69b2f5b48&#45;&gt;dir_dc4810549f8e2e369c60bffc9a91caa2</title>
<path fill="none" stroke="#000000" d="M93.5626,-165.6405C98.6447,-163.7209 103.7355,-161.7842 108.5617,-160 145.6624,-146.284 188.1001,-131.566 217.7447,-120.9652"/>
<polygon fill="#000000" stroke="#000000" points="219.056,-124.2131 227.2814,-117.5354 216.687,-117.6262 219.056,-124.2131"/>
<g id="a_edge20&#45;headlabel"><a xlink:href="dir_000085_000077.html" target="_top" xlink:title="8">
<text text-anchor="middle" x="216.6343" y="-125.6013" font-family="Helvetica,sans-Serif" font-size="10.00" fill="#000000">8</text>
</a>
</g>
</g>
<!-- dir_2171f7ec022c5423887b07c69b2f5b48&#45;&gt;dir_f511f1e9c03c071966ae594f00bbc5e0 -->
<g id="edge18" class="edge">
<title>dir_2171f7ec022c5423887b07c69b2f5b48&#45;&gt;dir_f511f1e9c03c071966ae594f00bbc5e0</title>
<path fill="none" stroke="#000000" d="M59.5377,-196.4133C60.2688,-204.0593 60.482,-213.1084 60.1772,-221.5726"/>
<polygon fill="#000000" stroke="#000000" points="56.6665,-221.6264 59.5141,-231.8314 63.6519,-222.078 56.6665,-221.6264"/>
<g id="a_edge18&#45;headlabel"><a xlink:href="dir_000085_000732.html" target="_top" xlink:title="21">
<text text-anchor="middle" x="54.0649" y="-215.3562" font-family="Helvetica,sans-Serif" font-size="10.00" fill="#000000">21</text>
</a>
</g>
</g>
<!-- dir_2171f7ec022c5423887b07c69b2f5b48&#45;&gt;dir_bcbb2cf9a3d3d83e5515c82071a07177 -->
<g id="edge19" class="edge">
<title>dir_2171f7ec022c5423887b07c69b2f5b48&#45;&gt;dir_bcbb2cf9a3d3d83e5515c82071a07177</title>
<path fill="none" stroke="#000000" d="M49.1233,-159.8314C49.0146,-152.131 49.5568,-142.9743 50.5785,-134.4166"/>
<polygon fill="#000000" stroke="#000000" points="54.0573,-134.8164 52.0512,-124.4133 47.132,-133.7968 54.0573,-134.8164"/>
<g id="a_edge19&#45;headlabel"><a xlink:href="dir_000085_000058.html" target="_top" xlink:title="20">
<text text-anchor="middle" x="56.3429" y="-136.2862" font-family="Helvetica,sans-Serif" font-size="10.00" fill="#000000">20</text>
</a>
</g>
</g>
</g>
</svg>
