<?xml version="1.0" encoding="UTF-8" standalone="no"?>
<!DOCTYPE svg PUBLIC "-//W3C//DTD SVG 1.1//EN"
 "http://www.w3.org/Graphics/SVG/1.1/DTD/svg11.dtd">
<!-- Generated by graphviz version 2.40.1 (20161225.0304)
 -->
<!-- Title: Graphical Class Hierarchy Pages: 1 -->
<svg width="258pt" height="78pt"
 viewBox="0.00 0.00 258.00 77.50" xmlns="http://www.w3.org/2000/svg" xmlns:xlink="http://www.w3.org/1999/xlink">
<g id="graph0" class="graph" transform="scale(1 1) rotate(0) translate(4 73.5)">
<title>Graphical Class Hierarchy</title>
<!-- Node62 -->
<g id="node1" class="node">
<title>Node62</title>
<polygon fill="none" stroke="#bfbfbf" points="0,-22.5 0,-41.5 47,-41.5 47,-22.5 0,-22.5"/>
<text text-anchor="middle" x="23.5" y="-29.5" font-family="Helvetica,sans-Serif" font-size="10.00" fill="#000000">vector</text>
</g>
<!-- Node0 -->
<g id="node2" class="node">
<title>Node0</title>
<g id="a_node2"><a xlink:href="d5/db7/classo2_1_1dataformats_1_1ConstMCTruthContainer.html" target="_top" xlink:title="A read&#45;only version of MCTruthContainer allowing for storage optimisation. ">
<polygon fill="none" stroke="#000000" points="83,-39 83,-69 250,-69 250,-39 83,-39"/>
<text text-anchor="start" x="91" y="-57" font-family="Helvetica,sans-Serif" font-size="10.00" fill="#000000">o2::dataformats::ConstMCTruth</text>
<text text-anchor="middle" x="166.5" y="-46" font-family="Helvetica,sans-Serif" font-size="10.00" fill="#000000">Container&lt; TruthElement &gt;</text>
</a>
</g>
</g>
<!-- Node62&#45;&gt;Node0 -->
<g id="edge1" class="edge">
<title>Node62&#45;&gt;Node0</title>
<path fill="none" stroke="#191970" d="M57.0074,-37.155C64.9601,-38.3785 73.7965,-39.7379 82.9026,-41.1389"/>
<polygon fill="#191970" stroke="#191970" points="57.5295,-33.6942 47.1135,-35.6329 56.465,-40.6128 57.5295,-33.6942"/>
</g>
<!-- Node64 -->
<g id="node3" class="node">
<title>Node64</title>
<g id="a_node3"><a xlink:href="da/dad/classo2_1_1framework_1_1DataChunk.html" target="_top" xlink:title="o2::framework::DataChunk">
<polygon fill="none" stroke="#000000" points="92.5,-.5 92.5,-19.5 240.5,-19.5 240.5,-.5 92.5,-.5"/>
<text text-anchor="middle" x="166.5" y="-7.5" font-family="Helvetica,sans-Serif" font-size="10.00" fill="#000000">o2::framework::DataChunk</text>
</a>
</g>
</g>
<!-- Node62&#45;&gt;Node64 -->
<g id="edge2" class="edge">
<title>Node62&#45;&gt;Node64</title>
<path fill="none" stroke="#191970" d="M57.3346,-26.7947C71.476,-24.6191 88.3685,-22.0202 104.5903,-19.5246"/>
<polygon fill="#191970" stroke="#191970" points="56.465,-23.3872 47.1135,-28.3671 57.5295,-30.3058 56.465,-23.3872"/>
</g>
</g>
</svg>
