<?xml version="1.0" encoding="UTF-8" standalone="no"?>
<!DOCTYPE svg PUBLIC "-//W3C//DTD SVG 1.1//EN"
 "http://www.w3.org/Graphics/SVG/1.1/DTD/svg11.dtd">
<!-- Generated by graphviz version 2.40.1 (20161225.0304)
 -->
<!-- Title: Graphical Class Hierarchy Pages: 1 -->
<svg width="288pt" height="66pt"
 viewBox="0.00 0.00 288.00 66.00" xmlns="http://www.w3.org/2000/svg" xmlns:xlink="http://www.w3.org/1999/xlink">
<g id="graph0" class="graph" transform="scale(1 1) rotate(0) translate(4 62)">
<title>Graphical Class Hierarchy</title>
<!-- Node0 -->
<g id="node1" class="node">
<title>Node0</title>
<g id="a_node1"><a xlink:href="dc/d08/classo2_1_1ctf_1_1EncodedBlocks.html" target="_top" xlink:title="o2::ctf::EncodedBlocks\l\&lt; CTFHeader, 10, uint32_t \&gt;">
<polygon fill="none" stroke="#000000" points="0,-14 0,-44 156,-44 156,-14 0,-14"/>
<text text-anchor="start" x="8" y="-32" font-family="Helvetica,sans-Serif" font-size="10.00" fill="#000000">o2::ctf::EncodedBlocks</text>
<text text-anchor="middle" x="78" y="-21" font-family="Helvetica,sans-Serif" font-size="10.00" fill="#000000">&lt; CTFHeader, 10, uint32_t &gt;</text>
</a>
</g>
</g>
<!-- Node1 -->
<g id="node2" class="node">
<title>Node1</title>
<g id="a_node2"><a xlink:href="d5/dac/structo2_1_1itsmft_1_1CTF.html" target="_top" xlink:title="wrapper for the Entropy&#45;encoded clusters of the TF ">
<polygon fill="none" stroke="#000000" points="192,-38.5 192,-57.5 280,-57.5 280,-38.5 192,-38.5"/>
<text text-anchor="middle" x="236" y="-45.5" font-family="Helvetica,sans-Serif" font-size="10.00" fill="#000000">o2::itsmft::CTF</text>
</a>
</g>
</g>
<!-- Node0&#45;&gt;Node1 -->
<g id="edge1" class="edge">
<title>Node0&#45;&gt;Node1</title>
<path fill="none" stroke="#191970" d="M166.1333,-39.5983C175.0057,-40.6652 183.7223,-41.7134 191.8274,-42.6881"/>
<polygon fill="#191970" stroke="#191970" points="166.4206,-36.1077 156.0742,-38.3887 165.5848,-43.0577 166.4206,-36.1077"/>
</g>
<!-- Node2 -->
<g id="node3" class="node">
<title>Node2</title>
<g id="a_node3"><a xlink:href="d7/d5b/structo2_1_1tof_1_1CTF.html" target="_top" xlink:title="wrapper for the Entropy&#45;encoded clusters of the TF ">
<polygon fill="none" stroke="#000000" points="200,-.5 200,-19.5 272,-19.5 272,-.5 200,-.5"/>
<text text-anchor="middle" x="236" y="-7.5" font-family="Helvetica,sans-Serif" font-size="10.00" fill="#000000">o2::tof::CTF</text>
</a>
</g>
</g>
<!-- Node0&#45;&gt;Node2 -->
<g id="edge2" class="edge">
<title>Node0&#45;&gt;Node2</title>
<path fill="none" stroke="#191970" d="M166.0572,-18.4108C177.893,-16.9875 189.4541,-15.5973 199.6587,-14.3702"/>
<polygon fill="#191970" stroke="#191970" points="165.5848,-14.9423 156.0742,-19.6113 166.4206,-21.8923 165.5848,-14.9423"/>
</g>
</g>
</svg>
