<?xml version="1.0" encoding="UTF-8" standalone="no"?>
<!DOCTYPE svg PUBLIC "-//W3C//DTD SVG 1.1//EN"
 "http://www.w3.org/Graphics/SVG/1.1/DTD/svg11.dtd">
<!-- Generated by graphviz version 2.40.1 (20161225.0304)
 -->
<!-- Title: Graphical Class Hierarchy Pages: 1 -->
<svg width="284pt" height="218pt"
 viewBox="0.00 0.00 284.00 218.00" xmlns="http://www.w3.org/2000/svg" xmlns:xlink="http://www.w3.org/1999/xlink">
<g id="graph0" class="graph" transform="scale(1 1) rotate(0) translate(4 214)">
<title>Graphical Class Hierarchy</title>
<!-- Node0 -->
<g id="node1" class="node">
<title>Node0</title>
<g id="a_node1"><a xlink:href="d1/db7/classo2_1_1ctf_1_1CTFCoderBase.html" target="_top" xlink:title="o2::ctf::CTFCoderBase">
<polygon fill="none" stroke="#000000" points="0,-95.5 0,-114.5 124,-114.5 124,-95.5 0,-95.5"/>
<text text-anchor="middle" x="62" y="-102.5" font-family="Helvetica,sans-Serif" font-size="10.00" fill="#000000">o2::ctf::CTFCoderBase</text>
</a>
</g>
</g>
<!-- Node1 -->
<g id="node2" class="node">
<title>Node1</title>
<g id="a_node2"><a xlink:href="d1/df2/classo2_1_1ft0_1_1CTFCoder.html" target="_top" xlink:title="o2::ft0::CTFCoder">
<polygon fill="none" stroke="#000000" points="167.5,-190.5 167.5,-209.5 268.5,-209.5 268.5,-190.5 167.5,-190.5"/>
<text text-anchor="middle" x="218" y="-197.5" font-family="Helvetica,sans-Serif" font-size="10.00" fill="#000000">o2::ft0::CTFCoder</text>
</a>
</g>
</g>
<!-- Node0&#45;&gt;Node1 -->
<g id="edge1" class="edge">
<title>Node0&#45;&gt;Node1</title>
<path fill="none" stroke="#191970" d="M79.467,-121.5922C98.1232,-138.5462 129.189,-164.641 160,-181 166.9254,-184.677 174.6934,-187.8159 182.2381,-190.4204"/>
<polygon fill="#191970" stroke="#191970" points="81.7599,-118.9454 72.041,-114.7272 77.0081,-124.0855 81.7599,-118.9454"/>
</g>
<!-- Node2 -->
<g id="node3" class="node">
<title>Node2</title>
<g id="a_node3"><a xlink:href="d5/ddc/classo2_1_1fv0_1_1CTFCoder.html" target="_top" xlink:title="o2::fv0::CTFCoder">
<polygon fill="none" stroke="#000000" points="166.5,-152.5 166.5,-171.5 269.5,-171.5 269.5,-152.5 166.5,-152.5"/>
<text text-anchor="middle" x="218" y="-159.5" font-family="Helvetica,sans-Serif" font-size="10.00" fill="#000000">o2::fv0::CTFCoder</text>
</a>
</g>
</g>
<!-- Node0&#45;&gt;Node2 -->
<g id="edge2" class="edge">
<title>Node0&#45;&gt;Node2</title>
<path fill="none" stroke="#191970" d="M95.0024,-118.3022C113.9323,-125.805 138.1968,-135.2079 160,-143 168.9801,-146.2093 178.8147,-149.5105 187.793,-152.4421"/>
<polygon fill="#191970" stroke="#191970" points="96.2162,-115.0183 85.6308,-114.5705 93.6265,-121.5217 96.2162,-115.0183"/>
</g>
<!-- Node3 -->
<g id="node4" class="node">
<title>Node3</title>
<g id="a_node4"><a xlink:href="d0/d32/classo2_1_1itsmft_1_1CTFCoder.html" target="_top" xlink:title="o2::itsmft::CTFCoder">
<polygon fill="none" stroke="#000000" points="160,-114.5 160,-133.5 276,-133.5 276,-114.5 160,-114.5"/>
<text text-anchor="middle" x="218" y="-121.5" font-family="Helvetica,sans-Serif" font-size="10.00" fill="#000000">o2::itsmft::CTFCoder</text>
</a>
</g>
</g>
<!-- Node0&#45;&gt;Node3 -->
<g id="edge3" class="edge">
<title>Node0&#45;&gt;Node3</title>
<path fill="none" stroke="#191970" d="M134.1637,-113.7892C142.7926,-114.8401 151.5173,-115.9027 159.9122,-116.9252"/>
<polygon fill="#191970" stroke="#191970" points="134.4534,-110.2987 124.1036,-112.5639 133.607,-117.2473 134.4534,-110.2987"/>
</g>
<!-- Node4 -->
<g id="node5" class="node">
<title>Node4</title>
<g id="a_node5"><a xlink:href="df/d51/classo2_1_1mid_1_1CTFCoder.html" target="_top" xlink:title="o2::mid::CTFCoder">
<polygon fill="none" stroke="#000000" points="165,-76.5 165,-95.5 271,-95.5 271,-76.5 165,-76.5"/>
<text text-anchor="middle" x="218" y="-83.5" font-family="Helvetica,sans-Serif" font-size="10.00" fill="#000000">o2::mid::CTFCoder</text>
</a>
</g>
</g>
<!-- Node0&#45;&gt;Node4 -->
<g id="edge4" class="edge">
<title>Node0&#45;&gt;Node4</title>
<path fill="none" stroke="#191970" d="M134.2689,-96.198C144.5047,-94.9513 154.8728,-93.6886 164.6631,-92.4962"/>
<polygon fill="#191970" stroke="#191970" points="133.607,-92.7527 124.1036,-97.4361 134.4534,-99.7013 133.607,-92.7527"/>
</g>
<!-- Node5 -->
<g id="node6" class="node">
<title>Node5</title>
<g id="a_node6"><a xlink:href="da/d9a/classo2_1_1tof_1_1CTFCoder.html" target="_top" xlink:title="o2::tof::CTFCoder">
<polygon fill="none" stroke="#000000" points="167.5,-38.5 167.5,-57.5 268.5,-57.5 268.5,-38.5 167.5,-38.5"/>
<text text-anchor="middle" x="218" y="-45.5" font-family="Helvetica,sans-Serif" font-size="10.00" fill="#000000">o2::tof::CTFCoder</text>
</a>
</g>
</g>
<!-- Node0&#45;&gt;Node5 -->
<g id="edge5" class="edge">
<title>Node0&#45;&gt;Node5</title>
<path fill="none" stroke="#191970" d="M95.0024,-91.6978C113.9323,-84.195 138.1968,-74.7921 160,-67 168.9801,-63.7907 178.8147,-60.4895 187.793,-57.5579"/>
<polygon fill="#191970" stroke="#191970" points="93.6265,-88.4783 85.6308,-95.4295 96.2162,-94.9817 93.6265,-88.4783"/>
</g>
<!-- Node6 -->
<g id="node7" class="node">
<title>Node6</title>
<g id="a_node7"><a xlink:href="d4/d75/classo2_1_1tpc_1_1CTFCoder.html" target="_top" xlink:title="o2::tpc::CTFCoder">
<polygon fill="none" stroke="#000000" points="167,-.5 167,-19.5 269,-19.5 269,-.5 167,-.5"/>
<text text-anchor="middle" x="218" y="-7.5" font-family="Helvetica,sans-Serif" font-size="10.00" fill="#000000">o2::tpc::CTFCoder</text>
</a>
</g>
</g>
<!-- Node0&#45;&gt;Node6 -->
<g id="edge6" class="edge">
<title>Node0&#45;&gt;Node6</title>
<path fill="none" stroke="#191970" d="M79.467,-88.4078C98.1232,-71.4538 129.189,-45.359 160,-29 166.9254,-25.323 174.6934,-22.1841 182.2381,-19.5796"/>
<polygon fill="#191970" stroke="#191970" points="77.0081,-85.9145 72.041,-95.2728 81.7599,-91.0546 77.0081,-85.9145"/>
</g>
</g>
</svg>
