<?xml version="1.0" encoding="UTF-8" standalone="no"?>
<!DOCTYPE svg PUBLIC "-//W3C//DTD SVG 1.1//EN"
 "http://www.w3.org/Graphics/SVG/1.1/DTD/svg11.dtd">
<!-- Generated by graphviz version 2.40.1 (20161225.0304)
 -->
<!-- Title: Graphical Class Hierarchy Pages: 1 -->
<svg width="311pt" height="66pt"
 viewBox="0.00 0.00 311.00 66.00" xmlns="http://www.w3.org/2000/svg" xmlns:xlink="http://www.w3.org/1999/xlink">
<g id="graph0" class="graph" transform="scale(1 1) rotate(0) translate(4 62)">
<title>Graphical Class Hierarchy</title>
<!-- Node0 -->
<g id="node1" class="node">
<title>Node0</title>
<g id="a_node1"><a xlink:href="dc/d34/classo2_1_1pid_1_1DetectorResponse.html" target="_top" xlink:title="Class to handle the general detector response. ">
<polygon fill="none" stroke="#000000" points="0,-19.5 0,-38.5 144,-38.5 144,-19.5 0,-19.5"/>
<text text-anchor="middle" x="72" y="-26.5" font-family="Helvetica,sans-Serif" font-size="10.00" fill="#000000">o2::pid::DetectorResponse</text>
</a>
</g>
</g>
<!-- Node1 -->
<g id="node2" class="node">
<title>Node1</title>
<g id="a_node2"><a xlink:href="d8/d53/classo2_1_1pid_1_1tof_1_1Response.html" target="_top" xlink:title="Class to handle the the TOF detector response. ">
<polygon fill="none" stroke="#000000" points="180.5,-38.5 180.5,-57.5 302.5,-57.5 302.5,-38.5 180.5,-38.5"/>
<text text-anchor="middle" x="241.5" y="-45.5" font-family="Helvetica,sans-Serif" font-size="10.00" fill="#000000">o2::pid::tof::Response</text>
</a>
</g>
</g>
<!-- Node0&#45;&gt;Node1 -->
<g id="edge1" class="edge">
<title>Node0&#45;&gt;Node1</title>
<path fill="none" stroke="#191970" d="M154.5303,-38.2512C163.212,-39.2244 171.9247,-40.201 180.3038,-41.1402"/>
<polygon fill="#191970" stroke="#191970" points="154.7026,-34.7487 144.3749,-37.1128 153.9228,-41.7051 154.7026,-34.7487"/>
</g>
<!-- Node2 -->
<g id="node3" class="node">
<title>Node2</title>
<g id="a_node3"><a xlink:href="d2/d6e/classo2_1_1pid_1_1tpc_1_1Response.html" target="_top" xlink:title="Class to handle the the TPC detector response. ">
<polygon fill="none" stroke="#000000" points="180,-.5 180,-19.5 303,-19.5 303,-.5 180,-.5"/>
<text text-anchor="middle" x="241.5" y="-7.5" font-family="Helvetica,sans-Serif" font-size="10.00" fill="#000000">o2::pid::tpc::Response</text>
</a>
</g>
</g>
<!-- Node0&#45;&gt;Node2 -->
<g id="edge2" class="edge">
<title>Node0&#45;&gt;Node2</title>
<path fill="none" stroke="#191970" d="M154.3771,-19.766C162.9278,-18.8075 171.5108,-17.8454 179.7774,-16.9188"/>
<polygon fill="#191970" stroke="#191970" points="153.9228,-16.2949 144.3749,-20.8872 154.7026,-23.2513 153.9228,-16.2949"/>
</g>
</g>
</svg>
