<?xml version="1.0" encoding="UTF-8" standalone="no"?>
<!DOCTYPE svg PUBLIC "-//W3C//DTD SVG 1.1//EN"
 "http://www.w3.org/Graphics/SVG/1.1/DTD/svg11.dtd">
<!-- Generated by graphviz version 2.40.1 (20161225.0304)
 -->
<!-- Title: Graphical Class Hierarchy Pages: 1 -->
<svg width="336pt" height="186pt"
 viewBox="0.00 0.00 336.00 186.00" xmlns="http://www.w3.org/2000/svg" xmlns:xlink="http://www.w3.org/1999/xlink">
<g id="graph0" class="graph" transform="scale(1 1) rotate(0) translate(4 182)">
<title>Graphical Class Hierarchy</title>
<!-- Node0 -->
<g id="node1" class="node">
<title>Node0</title>
<g id="a_node1"><a xlink:href="d7/d6a/classo2_1_1utilities_1_1DataSamplingCondition.html" target="_top" xlink:title="A standarised data sampling condition, to decide if given data sample should be passed forward...">
<polygon fill="none" stroke="#000000" points="0,-73.5 0,-103.5 146,-103.5 146,-73.5 0,-73.5"/>
<text text-anchor="start" x="8" y="-91.5" font-family="Helvetica,sans-Serif" font-size="10.00" fill="#000000">o2::utilities::DataSampling</text>
<text text-anchor="middle" x="73" y="-80.5" font-family="Helvetica,sans-Serif" font-size="10.00" fill="#000000">Condition</text>
</a>
</g>
</g>
<!-- Node1 -->
<g id="node2" class="node">
<title>Node1</title>
<g id="a_node2"><a xlink:href="d8/da9/classo2_1_1utilities_1_1DataSamplingConditionCustom.html" target="_top" xlink:title="A DataSamplingCondition which makes decisions based on payload size. ">
<polygon fill="none" stroke="#000000" points="182,-147.5 182,-177.5 328,-177.5 328,-147.5 182,-147.5"/>
<text text-anchor="start" x="190" y="-165.5" font-family="Helvetica,sans-Serif" font-size="10.00" fill="#000000">o2::utilities::DataSampling</text>
<text text-anchor="middle" x="255" y="-154.5" font-family="Helvetica,sans-Serif" font-size="10.00" fill="#000000">ConditionCustom</text>
</a>
</g>
</g>
<!-- Node0&#45;&gt;Node1 -->
<g id="edge1" class="edge">
<title>Node0&#45;&gt;Node1</title>
<path fill="none" stroke="#191970" d="M112.6358,-107.9848C133.1101,-117.7153 158.6377,-129.3348 182,-138.5 189.8243,-141.5695 198.2185,-144.5817 206.4285,-147.379"/>
<polygon fill="#191970" stroke="#191970" points="114.1411,-104.825 103.6103,-103.6625 111.1176,-111.1384 114.1411,-104.825"/>
</g>
<!-- Node2 -->
<g id="node3" class="node">
<title>Node2</title>
<g id="a_node3"><a xlink:href="dc/dec/classo2_1_1utilities_1_1DataSamplingConditionNConsecutive.html" target="_top" xlink:title="A DataSamplingCondition which approves n consecutive samples in defined cycle. It assumes that timesl...">
<polygon fill="none" stroke="#000000" points="182,-98.5 182,-128.5 328,-128.5 328,-98.5 182,-98.5"/>
<text text-anchor="start" x="190" y="-116.5" font-family="Helvetica,sans-Serif" font-size="10.00" fill="#000000">o2::utilities::DataSampling</text>
<text text-anchor="middle" x="255" y="-105.5" font-family="Helvetica,sans-Serif" font-size="10.00" fill="#000000">ConditionNConsecutive</text>
</a>
</g>
</g>
<!-- Node0&#45;&gt;Node2 -->
<g id="edge2" class="edge">
<title>Node0&#45;&gt;Node2</title>
<path fill="none" stroke="#191970" d="M156.2365,-99.9336C164.8043,-101.1105 173.4644,-102.3001 181.9103,-103.4602"/>
<polygon fill="#191970" stroke="#191970" points="156.623,-96.4539 146.2397,-98.5604 155.6703,-103.3888 156.623,-96.4539"/>
</g>
<!-- Node3 -->
<g id="node4" class="node">
<title>Node3</title>
<g id="a_node4"><a xlink:href="d6/dd2/classo2_1_1utilities_1_1DataSamplingConditionPayloadSize.html" target="_top" xlink:title="A DataSamplingCondition which makes decisions based on payload size. ">
<polygon fill="none" stroke="#000000" points="182,-49.5 182,-79.5 328,-79.5 328,-49.5 182,-49.5"/>
<text text-anchor="start" x="190" y="-67.5" font-family="Helvetica,sans-Serif" font-size="10.00" fill="#000000">o2::utilities::DataSampling</text>
<text text-anchor="middle" x="255" y="-56.5" font-family="Helvetica,sans-Serif" font-size="10.00" fill="#000000">ConditionPayloadSize</text>
</a>
</g>
</g>
<!-- Node0&#45;&gt;Node3 -->
<g id="edge3" class="edge">
<title>Node0&#45;&gt;Node3</title>
<path fill="none" stroke="#191970" d="M156.2365,-77.5238C164.8043,-76.3939 173.4644,-75.2519 181.9103,-74.1382"/>
<polygon fill="#191970" stroke="#191970" points="155.6962,-74.0646 146.2397,-78.842 156.6114,-81.0045 155.6962,-74.0646"/>
</g>
<!-- Node4 -->
<g id="node5" class="node">
<title>Node4</title>
<g id="a_node5"><a xlink:href="df/dfc/classo2_1_1utilities_1_1DataSamplingConditionRandom.html" target="_top" xlink:title="A DataSamplingCondition which makes decisions randomly, but with determinism. ">
<polygon fill="none" stroke="#000000" points="182,-.5 182,-30.5 328,-30.5 328,-.5 182,-.5"/>
<text text-anchor="start" x="190" y="-18.5" font-family="Helvetica,sans-Serif" font-size="10.00" fill="#000000">o2::utilities::DataSampling</text>
<text text-anchor="middle" x="255" y="-7.5" font-family="Helvetica,sans-Serif" font-size="10.00" fill="#000000">ConditionRandom</text>
</a>
</g>
</g>
<!-- Node0&#45;&gt;Node4 -->
<g id="edge4" class="edge">
<title>Node0&#45;&gt;Node4</title>
<path fill="none" stroke="#191970" d="M114.3677,-69.2936C134.5899,-60.1594 159.3875,-49.3326 182,-40.5 190.7347,-37.0882 200.1506,-33.673 209.2222,-30.5114"/>
<polygon fill="#191970" stroke="#191970" points="112.7868,-66.1675 105.1309,-73.4914 115.683,-72.5403 112.7868,-66.1675"/>
</g>
</g>
</svg>
