<?xml version="1.0" encoding="UTF-8" standalone="no"?>
<!DOCTYPE svg PUBLIC "-//W3C//DTD SVG 1.1//EN"
 "http://www.w3.org/Graphics/SVG/1.1/DTD/svg11.dtd">
<!-- Generated by graphviz version 2.40.1 (20161225.0304)
 -->
<!-- Title: o2::gpu::GPUO2InterfaceIOPtrs Pages: 1 -->
<svg width="1009pt" height="226pt"
 viewBox="0.00 0.00 1008.50 226.00" xmlns="http://www.w3.org/2000/svg" xmlns:xlink="http://www.w3.org/1999/xlink">
<g id="graph0" class="graph" transform="scale(1 1) rotate(0) translate(4 222)">
<title>o2::gpu::GPUO2InterfaceIOPtrs</title>
<!-- Node1 -->
<g id="node1" class="node">
<title>Node1</title>
<polygon fill="#bfbfbf" stroke="#000000" points="403.5,-.5 403.5,-57.5 569.5,-57.5 569.5,-.5 403.5,-.5"/>
<text text-anchor="middle" x="486.5" y="-45.5" font-family="Helvetica,sans-Serif" font-size="10.00" fill="#000000">o2::gpu::GPUO2InterfaceIOPtrs</text>
<polyline fill="none" stroke="#000000" points="403.5,-38.5 569.5,-38.5 "/>
<text text-anchor="middle" x="486.5" y="-26.5" font-family="Helvetica,sans-Serif" font-size="10.00" fill="#000000"> </text>
<polyline fill="none" stroke="#000000" points="403.5,-19.5 569.5,-19.5 "/>
<text text-anchor="middle" x="486.5" y="-7.5" font-family="Helvetica,sans-Serif" font-size="10.00" fill="#000000"> </text>
</g>
<!-- Node2 -->
<g id="node2" class="node">
<title>Node2</title>
<polygon fill="none" stroke="#bfbfbf" points="0,-149.5 0,-206.5 161,-206.5 161,-149.5 0,-149.5"/>
<text text-anchor="middle" x="80.5" y="-194.5" font-family="Helvetica,sans-Serif" font-size="10.00" fill="#000000">vector&lt; o2::tpc::TrackTPC &gt; *</text>
<polyline fill="none" stroke="#bfbfbf" points="0,-187.5 161,-187.5 "/>
<text text-anchor="middle" x="80.5" y="-175.5" font-family="Helvetica,sans-Serif" font-size="10.00" fill="#000000"> </text>
<polyline fill="none" stroke="#bfbfbf" points="0,-168.5 161,-168.5 "/>
<text text-anchor="middle" x="80.5" y="-156.5" font-family="Helvetica,sans-Serif" font-size="10.00" fill="#000000"> </text>
</g>
<!-- Node2&#45;&gt;Node1 -->
<g id="edge1" class="edge">
<title>Node2&#45;&gt;Node1</title>
<path fill="none" stroke="#404040" d="M90.3061,-149.2487C99.9715,-125.548 117.1567,-93.1406 143.5,-76 183.2561,-50.1322 304.3613,-38.296 391.3997,-33.022"/>
<polygon fill="none" stroke="#404040" points="391.4634,-33.0184 397.2207,-28.6763 403.4431,-32.3206 397.6859,-36.6627 391.4634,-33.0184"/>
<text text-anchor="middle" x="180.5" y="-95.5" font-family="Helvetica,sans-Serif" font-size="10.00" fill="#000000"> +outputTracks</text>
</g>
<!-- Node3 -->
<g id="node3" class="node">
<title>Node3</title>
<polygon fill="none" stroke="#bfbfbf" points="179,-149.5 179,-206.5 224,-206.5 224,-149.5 179,-149.5"/>
<text text-anchor="middle" x="201.5" y="-194.5" font-family="Helvetica,sans-Serif" font-size="10.00" fill="#000000">size_t</text>
<polyline fill="none" stroke="#bfbfbf" points="179,-187.5 224,-187.5 "/>
<text text-anchor="middle" x="201.5" y="-175.5" font-family="Helvetica,sans-Serif" font-size="10.00" fill="#000000"> </text>
<polyline fill="none" stroke="#bfbfbf" points="179,-168.5 224,-168.5 "/>
<text text-anchor="middle" x="201.5" y="-156.5" font-family="Helvetica,sans-Serif" font-size="10.00" fill="#000000"> </text>
</g>
<!-- Node3&#45;&gt;Node1 -->
<g id="edge2" class="edge">
<title>Node3&#45;&gt;Node1</title>
<path fill="none" stroke="#404040" d="M208.9387,-149.2843C216.5057,-125.9368 230.5927,-94.014 254.5,-76 276.1649,-59.6757 337.1814,-47.689 391.2021,-39.9074"/>
<polygon fill="none" stroke="#404040" points="391.4343,-39.875 396.8228,-35.083 403.3188,-38.2139 397.9302,-43.006 391.4343,-39.875"/>
<text text-anchor="middle" x="301" y="-95.5" font-family="Helvetica,sans-Serif" font-size="10.00" fill="#000000"> +outputBufferSize</text>
</g>
<!-- Node4 -->
<g id="node4" class="node">
<title>Node4</title>
<polygon fill="none" stroke="#bfbfbf" points="242.5,-149.5 242.5,-206.5 360.5,-206.5 360.5,-149.5 242.5,-149.5"/>
<text text-anchor="middle" x="301.5" y="-194.5" font-family="Helvetica,sans-Serif" font-size="10.00" fill="#000000">vector&lt; uint32_t &gt; *</text>
<polyline fill="none" stroke="#bfbfbf" points="242.5,-187.5 360.5,-187.5 "/>
<text text-anchor="middle" x="301.5" y="-175.5" font-family="Helvetica,sans-Serif" font-size="10.00" fill="#000000"> </text>
<polyline fill="none" stroke="#bfbfbf" points="242.5,-168.5 360.5,-168.5 "/>
<text text-anchor="middle" x="301.5" y="-156.5" font-family="Helvetica,sans-Serif" font-size="10.00" fill="#000000"> </text>
</g>
<!-- Node4&#45;&gt;Node1 -->
<g id="edge3" class="edge">
<title>Node4&#45;&gt;Node1</title>
<path fill="none" stroke="#404040" d="M324.1709,-149.1485C342.3735,-127.2475 369.4459,-97.3614 397.5,-76 403.0218,-71.7955 408.9725,-67.7643 415.0862,-63.9539"/>
<polygon fill="none" stroke="#404040" points="415.174,-63.9016 418.2801,-57.3937 425.482,-57.7579 422.3759,-64.2657 415.174,-63.9016"/>
<text text-anchor="middle" x="440" y="-95.5" font-family="Helvetica,sans-Serif" font-size="10.00" fill="#000000"> +outputClusRefs</text>
</g>
<!-- Node5 -->
<g id="node5" class="node">
<title>Node5</title>
<polygon fill="none" stroke="#bfbfbf" points="379,-138.5 379,-217.5 594,-217.5 594,-138.5 379,-138.5"/>
<text text-anchor="start" x="387" y="-205.5" font-family="Helvetica,sans-Serif" font-size="10.00" fill="#000000">array&lt; const o2::dataformats</text>
<text text-anchor="start" x="387" y="-194.5" font-family="Helvetica,sans-Serif" font-size="10.00" fill="#000000">::MCTruthContainer&lt; o2::MCCompLabel</text>
<text text-anchor="middle" x="486.5" y="-183.5" font-family="Helvetica,sans-Serif" font-size="10.00" fill="#000000"> &gt; *, o2::tpc::constants::MAXSECTOR &gt; *</text>
<polyline fill="none" stroke="#bfbfbf" points="379,-176.5 594,-176.5 "/>
<text text-anchor="middle" x="486.5" y="-164.5" font-family="Helvetica,sans-Serif" font-size="10.00" fill="#000000"> </text>
<polyline fill="none" stroke="#bfbfbf" points="379,-157.5 594,-157.5 "/>
<text text-anchor="middle" x="486.5" y="-145.5" font-family="Helvetica,sans-Serif" font-size="10.00" fill="#000000"> </text>
</g>
<!-- Node5&#45;&gt;Node1 -->
<g id="edge4" class="edge">
<title>Node5&#45;&gt;Node1</title>
<path fill="none" stroke="#404040" d="M486.5,-138.4619C486.5,-117.3723 486.5,-91.4485 486.5,-70.1238"/>
<polygon fill="none" stroke="#404040" points="486.5001,-69.8487 482.5,-63.8488 486.5,-57.8487 490.5,-63.8487 486.5001,-69.8487"/>
<text text-anchor="middle" x="520" y="-95.5" font-family="Helvetica,sans-Serif" font-size="10.00" fill="#000000"> +o2DigitsMC</text>
</g>
<!-- Node6 -->
<g id="node6" class="node">
<title>Node6</title>
<polygon fill="none" stroke="#bfbfbf" points="612.5,-149.5 612.5,-206.5 778.5,-206.5 778.5,-149.5 612.5,-149.5"/>
<text text-anchor="middle" x="695.5" y="-194.5" font-family="Helvetica,sans-Serif" font-size="10.00" fill="#000000">vector&lt; o2::MCCompLabel &gt; *</text>
<polyline fill="none" stroke="#bfbfbf" points="612.5,-187.5 778.5,-187.5 "/>
<text text-anchor="middle" x="695.5" y="-175.5" font-family="Helvetica,sans-Serif" font-size="10.00" fill="#000000"> </text>
<polyline fill="none" stroke="#bfbfbf" points="612.5,-168.5 778.5,-168.5 "/>
<text text-anchor="middle" x="695.5" y="-156.5" font-family="Helvetica,sans-Serif" font-size="10.00" fill="#000000"> </text>
</g>
<!-- Node6&#45;&gt;Node1 -->
<g id="edge5" class="edge">
<title>Node6&#45;&gt;Node1</title>
<path fill="none" stroke="#404040" d="M657.8108,-149.3244C630.2844,-128.5826 591.9161,-100.0862 557.5,-76 552.1257,-72.2388 546.4812,-68.3693 540.8218,-64.5421"/>
<polygon fill="none" stroke="#404040" points="540.6376,-64.4186 533.4266,-64.3963 530.6736,-57.7314 537.8847,-57.7536 540.6376,-64.4186"/>
<text text-anchor="middle" x="671" y="-95.5" font-family="Helvetica,sans-Serif" font-size="10.00" fill="#000000"> +outputTracksMCTruth</text>
</g>
<!-- Node7 -->
<g id="node7" class="node">
<title>Node7</title>
<polygon fill="none" stroke="#bfbfbf" points="797,-149.5 797,-206.5 840,-206.5 840,-149.5 797,-149.5"/>
<text text-anchor="middle" x="818.5" y="-194.5" font-family="Helvetica,sans-Serif" font-size="10.00" fill="#000000">const</text>
<polyline fill="none" stroke="#bfbfbf" points="797,-187.5 840,-187.5 "/>
<text text-anchor="middle" x="818.5" y="-175.5" font-family="Helvetica,sans-Serif" font-size="10.00" fill="#000000"> </text>
<polyline fill="none" stroke="#bfbfbf" points="797,-168.5 840,-168.5 "/>
<text text-anchor="middle" x="818.5" y="-156.5" font-family="Helvetica,sans-Serif" font-size="10.00" fill="#000000"> </text>
</g>
<!-- Node7&#45;&gt;Node1 -->
<g id="edge6" class="edge">
<title>Node7&#45;&gt;Node1</title>
<path fill="none" stroke="#404040" d="M802.0536,-149.3014C786.8894,-125.6336 762.1234,-93.2449 731.5,-76 706.0008,-61.6407 639.1513,-49.3444 581.7132,-40.9345"/>
<polygon fill="none" stroke="#404040" points="581.496,-40.9034 574.9889,-44.0109 569.6176,-39.1995 576.1248,-36.092 581.496,-40.9034"/>
<text text-anchor="middle" x="833.5" y="-112" font-family="Helvetica,sans-Serif" font-size="10.00" fill="#000000"> +tpcZS</text>
<text text-anchor="middle" x="833.5" y="-101" font-family="Helvetica,sans-Serif" font-size="10.00" fill="#000000">+clusters</text>
<text text-anchor="middle" x="833.5" y="-90" font-family="Helvetica,sans-Serif" font-size="10.00" fill="#000000">+o2Digits</text>
<text text-anchor="middle" x="833.5" y="-79" font-family="Helvetica,sans-Serif" font-size="10.00" fill="#000000">+compressedClusters</text>
</g>
<!-- Node8 -->
<g id="node8" class="node">
<title>Node8</title>
<polygon fill="none" stroke="#bfbfbf" points="926.5,-149.5 926.5,-206.5 972.5,-206.5 972.5,-149.5 926.5,-149.5"/>
<text text-anchor="middle" x="949.5" y="-194.5" font-family="Helvetica,sans-Serif" font-size="10.00" fill="#000000">void *</text>
<polyline fill="none" stroke="#bfbfbf" points="926.5,-187.5 972.5,-187.5 "/>
<text text-anchor="middle" x="949.5" y="-175.5" font-family="Helvetica,sans-Serif" font-size="10.00" fill="#000000"> </text>
<polyline fill="none" stroke="#bfbfbf" points="926.5,-168.5 972.5,-168.5 "/>
<text text-anchor="middle" x="949.5" y="-156.5" font-family="Helvetica,sans-Serif" font-size="10.00" fill="#000000"> </text>
</g>
<!-- Node8&#45;&gt;Node1 -->
<g id="edge7" class="edge">
<title>Node8&#45;&gt;Node1</title>
<path fill="none" stroke="#404040" d="M941.178,-149.1661C932.7211,-125.4137 917.1512,-92.9768 891.5,-76 866.2174,-59.2672 693.379,-43.8802 581.8115,-35.5322"/>
<polygon fill="none" stroke="#404040" points="581.5009,-35.5093 575.222,-39.0554 569.5337,-34.6233 575.8126,-31.0772 581.5009,-35.5093"/>
<text text-anchor="middle" x="964" y="-95.5" font-family="Helvetica,sans-Serif" font-size="10.00" fill="#000000"> +outputBuffer</text>
</g>
</g>
</svg>
