<?xml version="1.0" encoding="UTF-8" standalone="no"?>
<!DOCTYPE svg PUBLIC "-//W3C//DTD SVG 1.1//EN"
 "http://www.w3.org/Graphics/SVG/1.1/DTD/svg11.dtd">
<!-- Generated by graphviz version 2.40.1 (20161225.0304)
 -->
<!-- Title: o2::tpc::zerosupp_link_based::Container&lt; DataBitSizeT, SignificantBitsT, HasHeaderT &gt; Pages: 1 -->
<svg width="298pt" height="314pt"
 viewBox="0.00 0.00 297.50 314.00" xmlns="http://www.w3.org/2000/svg" xmlns:xlink="http://www.w3.org/1999/xlink">
<g id="graph0" class="graph" transform="scale(1 1) rotate(0) translate(4 310)">
<title>o2::tpc::zerosupp_link_based::Container&lt; DataBitSizeT, SignificantBitsT, HasHeaderT &gt;</title>
<!-- Node1 -->
<g id="node1" class="node">
<title>Node1</title>
<polygon fill="#bfbfbf" stroke="#000000" points="58.5,-.5 58.5,-189.5 240.5,-189.5 240.5,-.5 58.5,-.5"/>
<text text-anchor="start" x="66.5" y="-177.5" font-family="Helvetica,sans-Serif" font-size="10.00" fill="#000000">o2::tpc::zerosupp_link</text>
<text text-anchor="start" x="66.5" y="-166.5" font-family="Helvetica,sans-Serif" font-size="10.00" fill="#000000">_based::Container&lt; DataBitSize</text>
<text text-anchor="middle" x="149.5" y="-155.5" font-family="Helvetica,sans-Serif" font-size="10.00" fill="#000000">T, SignificantBitsT, HasHeaderT &gt;</text>
<polyline fill="none" stroke="#000000" points="58.5,-148.5 240.5,-148.5 "/>
<text text-anchor="middle" x="149.5" y="-136.5" font-family="Helvetica,sans-Serif" font-size="10.00" fill="#000000"> </text>
<polyline fill="none" stroke="#000000" points="58.5,-129.5 240.5,-129.5 "/>
<text text-anchor="start" x="66.5" y="-117.5" font-family="Helvetica,sans-Serif" font-size="10.00" fill="#000000">+ getADCValue()</text>
<text text-anchor="start" x="66.5" y="-106.5" font-family="Helvetica,sans-Serif" font-size="10.00" fill="#000000">+ getADCValueFloat()</text>
<text text-anchor="start" x="66.5" y="-95.5" font-family="Helvetica,sans-Serif" font-size="10.00" fill="#000000">+ setADCValue()</text>
<text text-anchor="start" x="66.5" y="-84.5" font-family="Helvetica,sans-Serif" font-size="10.00" fill="#000000">+ setADCValueFloat()</text>
<text text-anchor="start" x="66.5" y="-73.5" font-family="Helvetica,sans-Serif" font-size="10.00" fill="#000000">+ reset()</text>
<text text-anchor="start" x="66.5" y="-62.5" font-family="Helvetica,sans-Serif" font-size="10.00" fill="#000000">+ getBunchCrossing()</text>
<text text-anchor="start" x="66.5" y="-51.5" font-family="Helvetica,sans-Serif" font-size="10.00" fill="#000000">+ getDataWords()</text>
<text text-anchor="start" x="66.5" y="-40.5" font-family="Helvetica,sans-Serif" font-size="10.00" fill="#000000">+ getTotalWords()</text>
<text text-anchor="start" x="66.5" y="-29.5" font-family="Helvetica,sans-Serif" font-size="10.00" fill="#000000">+ getChannelBits()</text>
<text text-anchor="start" x="66.5" y="-18.5" font-family="Helvetica,sans-Serif" font-size="10.00" fill="#000000">+ getTotalSizeBytes()</text>
<text text-anchor="start" x="66.5" y="-7.5" font-family="Helvetica,sans-Serif" font-size="10.00" fill="#000000">+ next()</text>
</g>
<!-- Node2 -->
<g id="node2" class="node">
<title>Node2</title>
<polygon fill="none" stroke="#bfbfbf" points="0,-237.5 0,-305.5 173,-305.5 173,-237.5 0,-237.5"/>
<text text-anchor="start" x="8" y="-293.5" font-family="Helvetica,sans-Serif" font-size="10.00" fill="#000000">ContainerT&lt; DataBitSizeT,</text>
<text text-anchor="middle" x="86.5" y="-282.5" font-family="Helvetica,sans-Serif" font-size="10.00" fill="#000000"> SignificantBitsT, HasHeaderT &gt;</text>
<polyline fill="none" stroke="#bfbfbf" points="0,-275.5 173,-275.5 "/>
<text text-anchor="middle" x="86.5" y="-263.5" font-family="Helvetica,sans-Serif" font-size="10.00" fill="#000000"> </text>
<polyline fill="none" stroke="#bfbfbf" points="0,-256.5 173,-256.5 "/>
<text text-anchor="middle" x="86.5" y="-244.5" font-family="Helvetica,sans-Serif" font-size="10.00" fill="#000000"> </text>
</g>
<!-- Node2&#45;&gt;Node1 -->
<g id="edge1" class="edge">
<title>Node2&#45;&gt;Node1</title>
<path fill="none" stroke="#404040" d="M98.647,-237.469C102.4634,-226.7771 106.8986,-214.3515 111.5287,-201.3798"/>
<polygon fill="none" stroke="#404040" points="111.6031,-201.1713 109.8529,-194.1758 115.6372,-189.8697 117.3873,-196.8652 111.6031,-201.1713"/>
<text text-anchor="middle" x="126" y="-211" font-family="Helvetica,sans-Serif" font-size="10.00" fill="#000000"> +cont</text>
</g>
<!-- Node3 -->
<g id="node3" class="node">
<title>Node3</title>
<polygon fill="none" stroke="#bfbfbf" points="191.5,-243 191.5,-300 235.5,-300 235.5,-243 191.5,-243"/>
<text text-anchor="middle" x="213.5" y="-288" font-family="Helvetica,sans-Serif" font-size="10.00" fill="#000000">static</text>
<polyline fill="none" stroke="#bfbfbf" points="191.5,-281 235.5,-281 "/>
<text text-anchor="middle" x="213.5" y="-269" font-family="Helvetica,sans-Serif" font-size="10.00" fill="#000000"> </text>
<polyline fill="none" stroke="#bfbfbf" points="191.5,-262 235.5,-262 "/>
<text text-anchor="middle" x="213.5" y="-250" font-family="Helvetica,sans-Serif" font-size="10.00" fill="#000000"> </text>
</g>
<!-- Node3&#45;&gt;Node1 -->
<g id="edge2" class="edge">
<title>Node3&#45;&gt;Node1</title>
<path fill="none" stroke="#404040" d="M203.0749,-242.7494C198.8128,-230.9955 193.595,-216.6057 188.106,-201.4682"/>
<polygon fill="none" stroke="#404040" points="187.9578,-201.0593 182.152,-196.7822 183.8671,-189.778 189.6729,-194.0551 187.9578,-201.0593"/>
<text text-anchor="middle" x="241" y="-211" font-family="Helvetica,sans-Serif" font-size="10.00" fill="#000000"> +ChannelsPerWord</text>
</g>
</g>
</svg>
