<?xml version="1.0" encoding="UTF-8" standalone="no"?>
<!DOCTYPE svg PUBLIC "-//W3C//DTD SVG 1.1//EN"
 "http://www.w3.org/Graphics/SVG/1.1/DTD/svg11.dtd">
<!-- Generated by graphviz version 2.40.1 (20161225.0304)
 -->
<!-- Title: hmm_vec2 Pages: 1 -->
<!--zoomable 259 -->
<svg id="main" version="1.1" xmlns="http://www.w3.org/2000/svg" xmlns:xlink="http://www.w3.org/1999/xlink" xml:space="preserve" onload="init(evt)">
<style type="text/css"><![CDATA[
.edge:hover path { stroke: red; }
.edge:hover polygon { stroke: red; fill: red; }
]]></style>
<script type="text/javascript"><![CDATA[
var edges = document.getElementsByTagName('g');
if (edges && edges.length) {
  for (var i=0;i<edges.length;i++) {
    if (edges[i].id.substr(0,4)=='edge') {
      edges[i].setAttribute('class','edge');
    }
  }
}
]]></script>
        <defs>
                <circle id="rim" cx="0" cy="0" r="7"/>
                <circle id="rim2" cx="0" cy="0" r="3.5"/>
                <g id="zoomPlus">
                        <use xlink:href="#rim" fill="#404040">
                                <set attributeName="fill" to="#808080" begin="zoomplus.mouseover" end="zoomplus.mouseout"/>
                        </use>
                        <path d="M-4,0h8M0,-4v8" fill="none" stroke="white" stroke-width="1.5" pointer-events="none"/>
                </g>
                <g id="zoomMin">
                        <use xlink:href="#rim" fill="#404040">
                                <set attributeName="fill" to="#808080" begin="zoomminus.mouseover" end="zoomminus.mouseout"/>
                        </use>
                        <path d="M-4,0h8" fill="none" stroke="white" stroke-width="1.5" pointer-events="none"/>
                </g>
                <g id="dirArrow">
                        <path fill="none" stroke="white" stroke-width="1.5" d="M0,-3.0v7 M-2.5,-0.5L0,-3.0L2.5,-0.5"/>
                </g>
               <g id="resetDef">
                       <use xlink:href="#rim2" fill="#404040">
                               <set attributeName="fill" to="#808080" begin="reset.mouseover" end="reset.mouseout"/>
                       </use>
               </g>
        </defs>

<script type="text/javascript">
var viewWidth = 571;
var viewHeight = 259;
var sectionId = 'dynsection-0';
</script>
<script xlink:href="../../svgpan.js"/>
<svg id="graph" class="graph">
<g id="viewport">
<title>hmm_vec2</title>
<!-- Node1 -->
<g id="node1" class="node">
<title>Node1</title>
<polygon fill="#bfbfbf" stroke="#000000" points="209,-.5 209,-57.5 280,-57.5 280,-.5 209,-.5"/>
<text text-anchor="middle" x="244.5" y="-45.5" font-family="Helvetica,sans-Serif" font-size="10.00" fill="#000000">hmm_vec2</text>
<polyline fill="none" stroke="#000000" points="209,-38.5 280,-38.5 "/>
<text text-anchor="middle" x="244.5" y="-26.5" font-family="Helvetica,sans-Serif" font-size="10.00" fill="#000000"> </text>
<polyline fill="none" stroke="#000000" points="209,-19.5 280,-19.5 "/>
<text text-anchor="middle" x="244.5" y="-7.5" font-family="Helvetica,sans-Serif" font-size="10.00" fill="#000000"> </text>
</g>
<!-- Node2 -->
<g id="node2" class="node">
<title>Node2</title>
<polygon fill="none" stroke="#bfbfbf" points="0,-193.5 0,-250.5 113,-250.5 113,-193.5 0,-193.5"/>
<text text-anchor="middle" x="56.5" y="-238.5" font-family="Helvetica,sans-Serif" font-size="10.00" fill="#000000">anonymous:+@261</text>
<polyline fill="none" stroke="#bfbfbf" points="0,-231.5 113,-231.5 "/>
<text text-anchor="middle" x="56.5" y="-219.5" font-family="Helvetica,sans-Serif" font-size="10.00" fill="#000000"> </text>
<polyline fill="none" stroke="#bfbfbf" points="0,-212.5 113,-212.5 "/>
<text text-anchor="middle" x="56.5" y="-200.5" font-family="Helvetica,sans-Serif" font-size="10.00" fill="#000000"> </text>
</g>
<!-- Node2&#45;&gt;Node1 -->
<g id="edge1" class="edge">
<title>Node2&#45;&gt;Node1</title>
<path fill="none" stroke="#404040" d="M59.7791,-193.389C64.9863,-160.7613 78.125,-107.8318 110.5,-76 133.6231,-53.2648 168.3605,-41.4847 196.6726,-35.4042"/>
<polygon fill="none" stroke="#404040" points="196.9801,-35.3447 202.1097,-30.2764 208.7611,-33.0621 203.6314,-38.1304 196.9801,-35.3447"/>
<text text-anchor="middle" x="130.5" y="-123" font-family="Helvetica,sans-Serif" font-size="10.00" fill="#000000"> +@261</text>
</g>
<!-- Node3 -->
<g id="node3" class="node">
<title>Node3</title>
<g id="a_node3"><a xlink:href="../../d4/dc3/classfloat.html" target="_top" xlink:title="{float\n||}">
<polygon fill="none" stroke="#000000" points="131.5,-193.5 131.5,-250.5 169.5,-250.5 169.5,-193.5 131.5,-193.5"/>
<text text-anchor="middle" x="150.5" y="-238.5" font-family="Helvetica,sans-Serif" font-size="10.00" fill="#000000">float</text>
<polyline fill="none" stroke="#000000" points="131.5,-231.5 169.5,-231.5 "/>
<text text-anchor="middle" x="150.5" y="-219.5" font-family="Helvetica,sans-Serif" font-size="10.00" fill="#000000"> </text>
<polyline fill="none" stroke="#000000" points="131.5,-212.5 169.5,-212.5 "/>
<text text-anchor="middle" x="150.5" y="-200.5" font-family="Helvetica,sans-Serif" font-size="10.00" fill="#000000"> </text>
</a>
</g>
</g>
<!-- Node3&#45;&gt;Node1 -->
<g id="edge2" class="edge">
<title>Node3&#45;&gt;Node1</title>
<path fill="none" stroke="#404040" d="M151.8955,-193.2423C154.5932,-162.1436 162.4809,-112.1747 185.5,-76 189.3284,-69.9837 194.1975,-64.4003 199.4915,-59.3379"/>
<polygon fill="none" stroke="#404040" points="199.6431,-59.2059 201.5414,-52.2491 208.6931,-51.3256 206.7949,-58.2824 199.6431,-59.2059"/>
<text text-anchor="middle" x="213" y="-167" font-family="Helvetica,sans-Serif" font-size="10.00" fill="#000000"> +Height</text>
<text text-anchor="middle" x="213" y="-156" font-family="Helvetica,sans-Serif" font-size="10.00" fill="#000000">+Elements</text>
<text text-anchor="middle" x="213" y="-145" font-family="Helvetica,sans-Serif" font-size="10.00" fill="#000000">+U</text>
<text text-anchor="middle" x="213" y="-134" font-family="Helvetica,sans-Serif" font-size="10.00" fill="#000000">+V</text>
<text text-anchor="middle" x="213" y="-123" font-family="Helvetica,sans-Serif" font-size="10.00" fill="#000000">+Width</text>
<text text-anchor="middle" x="213" y="-112" font-family="Helvetica,sans-Serif" font-size="10.00" fill="#000000">+X</text>
<text text-anchor="middle" x="213" y="-101" font-family="Helvetica,sans-Serif" font-size="10.00" fill="#000000">+Y</text>
<text text-anchor="middle" x="213" y="-90" font-family="Helvetica,sans-Serif" font-size="10.00" fill="#000000">+Left</text>
<text text-anchor="middle" x="213" y="-79" font-family="Helvetica,sans-Serif" font-size="10.00" fill="#000000">+Right</text>
</g>
<!-- Node4 -->
<g id="node4" class="node">
<title>Node4</title>
<polygon fill="none" stroke="#bfbfbf" points="188,-193.5 188,-250.5 301,-250.5 301,-193.5 188,-193.5"/>
<text text-anchor="middle" x="244.5" y="-238.5" font-family="Helvetica,sans-Serif" font-size="10.00" fill="#000000">anonymous:+@263</text>
<polyline fill="none" stroke="#bfbfbf" points="188,-231.5 301,-231.5 "/>
<text text-anchor="middle" x="244.5" y="-219.5" font-family="Helvetica,sans-Serif" font-size="10.00" fill="#000000"> </text>
<polyline fill="none" stroke="#bfbfbf" points="188,-212.5 301,-212.5 "/>
<text text-anchor="middle" x="244.5" y="-200.5" font-family="Helvetica,sans-Serif" font-size="10.00" fill="#000000"> </text>
</g>
<!-- Node4&#45;&gt;Node1 -->
<g id="edge3" class="edge">
<title>Node4&#45;&gt;Node1</title>
<path fill="none" stroke="#404040" d="M244.5,-193.1059C244.5,-160.4649 244.5,-107.0851 244.5,-70.1096"/>
<polygon fill="none" stroke="#404040" points="244.5001,-69.7759 240.5,-63.776 244.5,-57.7759 248.5,-63.7759 244.5001,-69.7759"/>
<text text-anchor="middle" x="264.5" y="-123" font-family="Helvetica,sans-Serif" font-size="10.00" fill="#000000"> +@263</text>
</g>
<!-- Node5 -->
<g id="node5" class="node">
<title>Node5</title>
<polygon fill="none" stroke="#bfbfbf" points="319,-193.5 319,-250.5 432,-250.5 432,-193.5 319,-193.5"/>
<text text-anchor="middle" x="375.5" y="-238.5" font-family="Helvetica,sans-Serif" font-size="10.00" fill="#000000">anonymous:+@265</text>
<polyline fill="none" stroke="#bfbfbf" points="319,-231.5 432,-231.5 "/>
<text text-anchor="middle" x="375.5" y="-219.5" font-family="Helvetica,sans-Serif" font-size="10.00" fill="#000000"> </text>
<polyline fill="none" stroke="#bfbfbf" points="319,-212.5 432,-212.5 "/>
<text text-anchor="middle" x="375.5" y="-200.5" font-family="Helvetica,sans-Serif" font-size="10.00" fill="#000000"> </text>
</g>
<!-- Node5&#45;&gt;Node1 -->
<g id="edge4" class="edge">
<title>Node5&#45;&gt;Node1</title>
<path fill="none" stroke="#404040" d="M360.8438,-193.4124C344.7768,-163.1156 317.4116,-114.4352 288.5,-76 286.2544,-73.0146 283.8451,-70.0077 281.3533,-67.0357"/>
<polygon fill="none" stroke="#404040" points="281.1142,-66.7624 274.1529,-64.8809 273.2123,-57.7313 280.1736,-59.6129 281.1142,-66.7624"/>
<text text-anchor="middle" x="368.5" y="-123" font-family="Helvetica,sans-Serif" font-size="10.00" fill="#000000"> +@265</text>
</g>
<!-- Node6 -->
<g id="node6" class="node">
<title>Node6</title>
<polygon fill="none" stroke="#bfbfbf" points="450,-193.5 450,-250.5 563,-250.5 563,-193.5 450,-193.5"/>
<text text-anchor="middle" x="506.5" y="-238.5" font-family="Helvetica,sans-Serif" font-size="10.00" fill="#000000">anonymous:+@267</text>
<polyline fill="none" stroke="#bfbfbf" points="450,-231.5 563,-231.5 "/>
<text text-anchor="middle" x="506.5" y="-219.5" font-family="Helvetica,sans-Serif" font-size="10.00" fill="#000000"> </text>
<polyline fill="none" stroke="#bfbfbf" points="450,-212.5 563,-212.5 "/>
<text text-anchor="middle" x="506.5" y="-200.5" font-family="Helvetica,sans-Serif" font-size="10.00" fill="#000000"> </text>
</g>
<!-- Node6&#45;&gt;Node1 -->
<g id="edge5" class="edge">
<title>Node6&#45;&gt;Node1</title>
<path fill="none" stroke="#404040" d="M491.2415,-193.3337C472.2993,-160.4015 436.9868,-106.9391 392.5,-76 362.5431,-55.166 322.8915,-43.2241 292.1708,-36.5955"/>
<polygon fill="none" stroke="#404040" points="291.7938,-36.5196 285.1218,-39.2554 280.0303,-34.1489 286.7023,-31.4131 291.7938,-36.5196"/>
<text text-anchor="middle" x="498.5" y="-123" font-family="Helvetica,sans-Serif" font-size="10.00" fill="#000000"> +@267</text>
</g>
</g>
</svg>
        <g id="navigator" transform="translate(0 0)" fill="#404254">
                <rect fill="#f2f5e9" fill-opacity="0.5" stroke="#606060" stroke-width=".5" x="0" y="0" width="60" height="60"/>
                <use id="zoomplus" xlink:href="#zoomPlus" x="17" y="9" onmousedown="handleZoom(evt,'in')"/>
                <use id="zoomminus" xlink:href="#zoomMin" x="42" y="9" onmousedown="handleZoom(evt,'out')"/>
                <use id="reset" xlink:href="#resetDef" x="30" y="36" onmousedown="handleReset()"/>
                <g id="arrowUp" xlink:href="#dirArrow" transform="translate(30 24)" onmousedown="handlePan(0,-1)">
                  <use xlink:href="#rim" fill="#404040">
                        <set attributeName="fill" to="#808080" begin="arrowUp.mouseover" end="arrowUp.mouseout"/>
                  </use>
                  <path fill="none" stroke="white" stroke-width="1.5" d="M0,-3.0v7 M-2.5,-0.5L0,-3.0L2.5,-0.5"/>
                </g>
                <g id="arrowRight" xlink:href="#dirArrow" transform="rotate(90) translate(36 -43)" onmousedown="handlePan(1,0)">
                  <use xlink:href="#rim" fill="#404040">
                        <set attributeName="fill" to="#808080" begin="arrowRight.mouseover" end="arrowRight.mouseout"/>
                  </use>
                  <path fill="none" stroke="white" stroke-width="1.5" d="M0,-3.0v7 M-2.5,-0.5L0,-3.0L2.5,-0.5"/>
                </g>
                <g id="arrowDown" xlink:href="#dirArrow" transform="rotate(180) translate(-30 -48)" onmousedown="handlePan(0,1)">
                  <use xlink:href="#rim" fill="#404040">
                        <set attributeName="fill" to="#808080" begin="arrowDown.mouseover" end="arrowDown.mouseout"/>
                  </use>
                  <path fill="none" stroke="white" stroke-width="1.5" d="M0,-3.0v7 M-2.5,-0.5L0,-3.0L2.5,-0.5"/>
                </g>
                <g id="arrowLeft" xlink:href="#dirArrow" transform="rotate(270) translate(-36 17)" onmousedown="handlePan(-1,0)">
                  <use xlink:href="#rim" fill="#404040">
                        <set attributeName="fill" to="#808080" begin="arrowLeft.mouseover" end="arrowLeft.mouseout"/>
                  </use>
                  <path fill="none" stroke="white" stroke-width="1.5" d="M0,-3.0v7 M-2.5,-0.5L0,-3.0L2.5,-0.5"/>
                </g>
        </g>
        <svg viewBox="0 0 15 15" width="100%" height="30px" preserveAspectRatio="xMaxYMin meet">
         <g id="arrow_out" transform="scale(0.3 0.3)">
          <a xlink:href="unionhmm__vec2__coll__graph_org.svg" target="_base">
           <rect id="button" ry="5" rx="5" y="6" x="6" height="38" width="38"
                fill="#f2f5e9" fill-opacity="0.5" stroke="#606060" stroke-width="1.0"/>
           <path id="arrow"
             d="M 11.500037,31.436501 C 11.940474,20.09759 22.043105,11.32322 32.158766,21.979434 L 37.068811,17.246167 C 37.068811,17.246167 37.088388,32 37.088388,32 L 22.160133,31.978069 C 22.160133,31.978069 26.997745,27.140456 26.997745,27.140456 C 18.528582,18.264221 13.291696,25.230495 11.500037,31.436501 z"
             style="fill:#404040;"/>
          </a>
         </g>
        </svg>
</svg>
