<?xml version="1.0" encoding="UTF-8" standalone="no"?>
<!DOCTYPE svg PUBLIC "-//W3C//DTD SVG 1.1//EN"
 "http://www.w3.org/Graphics/SVG/1.1/DTD/svg11.dtd">
<!-- Generated by graphviz version 2.40.1 (20161225.0304)
 -->
<!-- Title: o2::emcal::CaloRawFitterStandard Pages: 1 -->
<svg width="580pt" height="651pt"
 viewBox="0.00 0.00 580.00 651.00" xmlns="http://www.w3.org/2000/svg" xmlns:xlink="http://www.w3.org/1999/xlink">
<g id="graph0" class="graph" transform="scale(1 1) rotate(0) translate(4 647)">
<title>o2::emcal::CaloRawFitterStandard</title>
<!-- Node2 -->
<g id="node1" class="node">
<title>Node2</title>
<polygon fill="#bfbfbf" stroke="#000000" points="143.5,-.5 143.5,-112.5 298.5,-112.5 298.5,-.5 143.5,-.5"/>
<text text-anchor="start" x="151.5" y="-100.5" font-family="Helvetica,sans-Serif" font-size="10.00" fill="#000000">o2::emcal::CaloRawFitter</text>
<text text-anchor="middle" x="221" y="-89.5" font-family="Helvetica,sans-Serif" font-size="10.00" fill="#000000">Standard</text>
<polyline fill="none" stroke="#000000" points="143.5,-82.5 298.5,-82.5 "/>
<text text-anchor="middle" x="221" y="-70.5" font-family="Helvetica,sans-Serif" font-size="10.00" fill="#000000"> </text>
<polyline fill="none" stroke="#000000" points="143.5,-63.5 298.5,-63.5 "/>
<text text-anchor="start" x="151.5" y="-51.5" font-family="Helvetica,sans-Serif" font-size="10.00" fill="#000000">+ CaloRawFitterStandard()</text>
<text text-anchor="start" x="151.5" y="-40.5" font-family="Helvetica,sans-Serif" font-size="10.00" fill="#000000">+ ~CaloRawFitterStandard()</text>
<text text-anchor="start" x="151.5" y="-29.5" font-family="Helvetica,sans-Serif" font-size="10.00" fill="#000000">+ evaluate()</text>
<text text-anchor="start" x="151.5" y="-18.5" font-family="Helvetica,sans-Serif" font-size="10.00" fill="#000000">+ fitRaw()</text>
<text text-anchor="start" x="151.5" y="-7.5" font-family="Helvetica,sans-Serif" font-size="10.00" fill="#000000">+ rawResponseFunction()</text>
</g>
<!-- Node3 -->
<g id="node2" class="node">
<title>Node3</title>
<g id="a_node2"><a xlink:href="../../d8/d83/classo2_1_1emcal_1_1CaloRawFitter.html" target="_top" xlink:title="{o2::emcal::CaloRawFitter\n||+ CaloRawFitter()\l+ ~CaloRawFitter()\l+ evaluate()\l+ preFitEvaluateSamples()\l+ setTimeConstraint()\l+ setIsZeroSuppressed()\l+ setAmpCut()\l+ setNsamplePed()\l+ setL1Phase()\l+ getIsZeroSuppressed()\l+ getAmpCut()\l+ getNsamplePed()\l+ getReversed()\l+ getAlgoName()\l+ getAlgoAbbr()\l+ getAlgo()\l+ maxAmp()\l+ maxAmp()\l+ checkBunchEdgesForMax()\l+ isInTimeRange()\l+ reverseAndSubtractPed()\l+ selectBunch()\l+ selectSubarray()\l+ evaluatePedestal()\l+ calculateChi2()\l# ClassDefNV()\l}">
<polygon fill="none" stroke="#000000" points="142,-150.5 142,-482.5 300,-482.5 300,-150.5 142,-150.5"/>
<text text-anchor="middle" x="221" y="-470.5" font-family="Helvetica,sans-Serif" font-size="10.00" fill="#000000">o2::emcal::CaloRawFitter</text>
<polyline fill="none" stroke="#000000" points="142,-463.5 300,-463.5 "/>
<text text-anchor="middle" x="221" y="-451.5" font-family="Helvetica,sans-Serif" font-size="10.00" fill="#000000"> </text>
<polyline fill="none" stroke="#000000" points="142,-444.5 300,-444.5 "/>
<text text-anchor="start" x="150" y="-432.5" font-family="Helvetica,sans-Serif" font-size="10.00" fill="#000000">+ CaloRawFitter()</text>
<text text-anchor="start" x="150" y="-421.5" font-family="Helvetica,sans-Serif" font-size="10.00" fill="#000000">+ ~CaloRawFitter()</text>
<text text-anchor="start" x="150" y="-410.5" font-family="Helvetica,sans-Serif" font-size="10.00" fill="#000000">+ evaluate()</text>
<text text-anchor="start" x="150" y="-399.5" font-family="Helvetica,sans-Serif" font-size="10.00" fill="#000000">+ preFitEvaluateSamples()</text>
<text text-anchor="start" x="150" y="-388.5" font-family="Helvetica,sans-Serif" font-size="10.00" fill="#000000">+ setTimeConstraint()</text>
<text text-anchor="start" x="150" y="-377.5" font-family="Helvetica,sans-Serif" font-size="10.00" fill="#000000">+ setIsZeroSuppressed()</text>
<text text-anchor="start" x="150" y="-366.5" font-family="Helvetica,sans-Serif" font-size="10.00" fill="#000000">+ setAmpCut()</text>
<text text-anchor="start" x="150" y="-355.5" font-family="Helvetica,sans-Serif" font-size="10.00" fill="#000000">+ setNsamplePed()</text>
<text text-anchor="start" x="150" y="-344.5" font-family="Helvetica,sans-Serif" font-size="10.00" fill="#000000">+ setL1Phase()</text>
<text text-anchor="start" x="150" y="-333.5" font-family="Helvetica,sans-Serif" font-size="10.00" fill="#000000">+ getIsZeroSuppressed()</text>
<text text-anchor="start" x="150" y="-322.5" font-family="Helvetica,sans-Serif" font-size="10.00" fill="#000000">+ getAmpCut()</text>
<text text-anchor="start" x="150" y="-311.5" font-family="Helvetica,sans-Serif" font-size="10.00" fill="#000000">+ getNsamplePed()</text>
<text text-anchor="start" x="150" y="-300.5" font-family="Helvetica,sans-Serif" font-size="10.00" fill="#000000">+ getReversed()</text>
<text text-anchor="start" x="150" y="-289.5" font-family="Helvetica,sans-Serif" font-size="10.00" fill="#000000">+ getAlgoName()</text>
<text text-anchor="start" x="150" y="-278.5" font-family="Helvetica,sans-Serif" font-size="10.00" fill="#000000">+ getAlgoAbbr()</text>
<text text-anchor="start" x="150" y="-267.5" font-family="Helvetica,sans-Serif" font-size="10.00" fill="#000000">+ getAlgo()</text>
<text text-anchor="start" x="150" y="-256.5" font-family="Helvetica,sans-Serif" font-size="10.00" fill="#000000">+ maxAmp()</text>
<text text-anchor="start" x="150" y="-245.5" font-family="Helvetica,sans-Serif" font-size="10.00" fill="#000000">+ maxAmp()</text>
<text text-anchor="start" x="150" y="-234.5" font-family="Helvetica,sans-Serif" font-size="10.00" fill="#000000">+ checkBunchEdgesForMax()</text>
<text text-anchor="start" x="150" y="-223.5" font-family="Helvetica,sans-Serif" font-size="10.00" fill="#000000">+ isInTimeRange()</text>
<text text-anchor="start" x="150" y="-212.5" font-family="Helvetica,sans-Serif" font-size="10.00" fill="#000000">+ reverseAndSubtractPed()</text>
<text text-anchor="start" x="150" y="-201.5" font-family="Helvetica,sans-Serif" font-size="10.00" fill="#000000">+ selectBunch()</text>
<text text-anchor="start" x="150" y="-190.5" font-family="Helvetica,sans-Serif" font-size="10.00" fill="#000000">+ selectSubarray()</text>
<text text-anchor="start" x="150" y="-179.5" font-family="Helvetica,sans-Serif" font-size="10.00" fill="#000000">+ evaluatePedestal()</text>
<text text-anchor="start" x="150" y="-168.5" font-family="Helvetica,sans-Serif" font-size="10.00" fill="#000000">+ calculateChi2()</text>
<text text-anchor="start" x="150" y="-157.5" font-family="Helvetica,sans-Serif" font-size="10.00" fill="#000000"># ClassDefNV()</text>
</a>
</g>
</g>
<!-- Node3&#45;&gt;Node2 -->
<g id="edge1" class="edge">
<title>Node3&#45;&gt;Node2</title>
<path fill="none" stroke="#191970" d="M221,-140.1719C221,-130.5158 221,-121.252 221,-112.636"/>
<polygon fill="none" stroke="#191970" points="217.5001,-140.3659 221,-150.366 224.5001,-140.366 217.5001,-140.3659"/>
</g>
<!-- Node4 -->
<g id="node3" class="node">
<title>Node4</title>
<polygon fill="none" stroke="#bfbfbf" points="0,-580 0,-637 50,-637 50,-580 0,-580"/>
<text text-anchor="middle" x="25" y="-625" font-family="Helvetica,sans-Serif" font-size="10.00" fill="#000000">double</text>
<polyline fill="none" stroke="#bfbfbf" points="0,-618 50,-618 "/>
<text text-anchor="middle" x="25" y="-606" font-family="Helvetica,sans-Serif" font-size="10.00" fill="#000000"> </text>
<polyline fill="none" stroke="#bfbfbf" points="0,-599 50,-599 "/>
<text text-anchor="middle" x="25" y="-587" font-family="Helvetica,sans-Serif" font-size="10.00" fill="#000000"> </text>
</g>
<!-- Node4&#45;&gt;Node3 -->
<g id="edge2" class="edge">
<title>Node4&#45;&gt;Node3</title>
<path fill="none" stroke="#404040" d="M28.295,-579.7154C31.774,-557.2243 38.6832,-525.738 52,-501 72.801,-462.3588 103.5042,-425.4824 133.0545,-394.9957"/>
<polygon fill="none" stroke="#404040" points="133.3391,-394.7068 134.7007,-387.6254 141.7611,-386.1586 140.3995,-393.2401 133.3391,-394.7068"/>
<text text-anchor="middle" x="83" y="-531.5" font-family="Helvetica,sans-Serif" font-size="10.00" fill="#000000"> #mL1Phase</text>
<text text-anchor="middle" x="83" y="-520.5" font-family="Helvetica,sans-Serif" font-size="10.00" fill="#000000">#mAmp</text>
</g>
<!-- Node5 -->
<g id="node4" class="node">
<title>Node5</title>
<polygon fill="none" stroke="#bfbfbf" points="70,-580 70,-637 146,-637 146,-580 70,-580"/>
<text text-anchor="middle" x="108" y="-625" font-family="Helvetica,sans-Serif" font-size="10.00" fill="#000000">FitAlgorithm</text>
<polyline fill="none" stroke="#bfbfbf" points="70,-618 146,-618 "/>
<text text-anchor="middle" x="108" y="-606" font-family="Helvetica,sans-Serif" font-size="10.00" fill="#000000"> </text>
<polyline fill="none" stroke="#bfbfbf" points="70,-599 146,-599 "/>
<text text-anchor="middle" x="108" y="-587" font-family="Helvetica,sans-Serif" font-size="10.00" fill="#000000"> </text>
</g>
<!-- Node5&#45;&gt;Node3 -->
<g id="edge3" class="edge">
<title>Node5&#45;&gt;Node3</title>
<path fill="none" stroke="#404040" d="M112.2067,-579.6936C115.8776,-557.7459 122.0342,-526.9797 131,-501 133.0192,-495.1491 135.1786,-489.243 137.45,-483.316"/>
<polygon fill="none" stroke="#404040" points="137.5486,-483.0655 136.0271,-476.0168 141.9485,-471.9012 143.47,-478.95 137.5486,-483.0655"/>
<text text-anchor="middle" x="152.5" y="-526" font-family="Helvetica,sans-Serif" font-size="10.00" fill="#000000"> #mAlgo</text>
</g>
<!-- Node6 -->
<g id="node5" class="node">
<title>Node6</title>
<g id="a_node5"><a xlink:href="../../d4/dc3/classfloat.html" target="_top" xlink:title="{float\n||}">
<polygon fill="none" stroke="#000000" points="164,-580 164,-637 202,-637 202,-580 164,-580"/>
<text text-anchor="middle" x="183" y="-625" font-family="Helvetica,sans-Serif" font-size="10.00" fill="#000000">float</text>
<polyline fill="none" stroke="#000000" points="164,-618 202,-618 "/>
<text text-anchor="middle" x="183" y="-606" font-family="Helvetica,sans-Serif" font-size="10.00" fill="#000000"> </text>
<polyline fill="none" stroke="#000000" points="164,-599 202,-599 "/>
<text text-anchor="middle" x="183" y="-587" font-family="Helvetica,sans-Serif" font-size="10.00" fill="#000000"> </text>
</a>
</g>
</g>
<!-- Node6&#45;&gt;Node3 -->
<g id="edge4" class="edge">
<title>Node6&#45;&gt;Node3</title>
<path fill="none" stroke="#404040" d="M181.069,-579.903C180.6266,-572.1505 180.2214,-563.7569 180,-556 179.3024,-531.5655 177.3327,-525.2985 180,-501 180.2277,-498.9258 180.4694,-496.8408 180.7242,-494.7468"/>
<polygon fill="none" stroke="#404040" points="180.7482,-494.5647 177.5695,-488.092 182.3217,-482.6682 185.5004,-489.1409 180.7482,-494.5647"/>
<text text-anchor="middle" x="210.5" y="-526" font-family="Helvetica,sans-Serif" font-size="10.00" fill="#000000"> #mAmpCut</text>
</g>
<!-- Node7 -->
<g id="node6" class="node">
<title>Node7</title>
<polygon fill="none" stroke="#bfbfbf" points="248.5,-580 248.5,-637 277.5,-637 277.5,-580 248.5,-580"/>
<text text-anchor="middle" x="263" y="-625" font-family="Helvetica,sans-Serif" font-size="10.00" fill="#000000">int</text>
<polyline fill="none" stroke="#bfbfbf" points="248.5,-618 277.5,-618 "/>
<text text-anchor="middle" x="263" y="-606" font-family="Helvetica,sans-Serif" font-size="10.00" fill="#000000"> </text>
<polyline fill="none" stroke="#bfbfbf" points="248.5,-599 277.5,-599 "/>
<text text-anchor="middle" x="263" y="-587" font-family="Helvetica,sans-Serif" font-size="10.00" fill="#000000"> </text>
</g>
<!-- Node7&#45;&gt;Node3 -->
<g id="edge5" class="edge">
<title>Node7&#45;&gt;Node3</title>
<path fill="none" stroke="#404040" d="M258.8964,-579.9702C255.8539,-558.8177 251.4224,-528.0081 246.6538,-494.8547"/>
<polygon fill="none" stroke="#404040" points="246.5921,-494.4256 241.7786,-489.0563 244.8836,-482.5479 249.6971,-487.9172 246.5921,-494.4256"/>
<text text-anchor="middle" x="299.5" y="-548" font-family="Helvetica,sans-Serif" font-size="10.00" fill="#000000"> #mName</text>
<text text-anchor="middle" x="299.5" y="-537" font-family="Helvetica,sans-Serif" font-size="10.00" fill="#000000">#mNameShort</text>
<text text-anchor="middle" x="299.5" y="-526" font-family="Helvetica,sans-Serif" font-size="10.00" fill="#000000">#mMaxTimeIndex</text>
<text text-anchor="middle" x="299.5" y="-515" font-family="Helvetica,sans-Serif" font-size="10.00" fill="#000000">#mNsamplePed</text>
<text text-anchor="middle" x="299.5" y="-504" font-family="Helvetica,sans-Serif" font-size="10.00" fill="#000000">#mMinTimeIndex</text>
</g>
<!-- Node8 -->
<g id="node7" class="node">
<title>Node8</title>
<polygon fill="none" stroke="#bfbfbf" points="358,-580 358,-637 396,-637 396,-580 358,-580"/>
<text text-anchor="middle" x="377" y="-625" font-family="Helvetica,sans-Serif" font-size="10.00" fill="#000000">bool</text>
<polyline fill="none" stroke="#bfbfbf" points="358,-618 396,-618 "/>
<text text-anchor="middle" x="377" y="-606" font-family="Helvetica,sans-Serif" font-size="10.00" fill="#000000"> </text>
<polyline fill="none" stroke="#bfbfbf" points="358,-599 396,-599 "/>
<text text-anchor="middle" x="377" y="-587" font-family="Helvetica,sans-Serif" font-size="10.00" fill="#000000"> </text>
</g>
<!-- Node8&#45;&gt;Node3 -->
<g id="edge6" class="edge">
<title>Node8&#45;&gt;Node3</title>
<path fill="none" stroke="#404040" d="M372.3572,-579.7271C368.1069,-557.5238 360.6745,-526.411 349,-501 337.4649,-475.8924 322.5058,-450.5455 306.9028,-427.0161"/>
<polygon fill="none" stroke="#404040" points="306.8919,-426.9999 300.2214,-424.2604 300.1845,-417.0494 306.855,-419.7888 306.8919,-426.9999"/>
<text text-anchor="middle" x="418" y="-526" font-family="Helvetica,sans-Serif" font-size="10.00" fill="#000000"> #mIsZerosupressed</text>
</g>
<!-- Node9 -->
<g id="node8" class="node">
<title>Node9</title>
<polygon fill="none" stroke="#bfbfbf" points="432,-574.5 432,-642.5 572,-642.5 572,-574.5 432,-574.5"/>
<text text-anchor="start" x="440" y="-630.5" font-family="Helvetica,sans-Serif" font-size="10.00" fill="#000000">array&lt; double, constants</text>
<text text-anchor="middle" x="502" y="-619.5" font-family="Helvetica,sans-Serif" font-size="10.00" fill="#000000">::EMCAL_MAXTIMEBINS &gt;</text>
<polyline fill="none" stroke="#bfbfbf" points="432,-612.5 572,-612.5 "/>
<text text-anchor="middle" x="502" y="-600.5" font-family="Helvetica,sans-Serif" font-size="10.00" fill="#000000"> </text>
<polyline fill="none" stroke="#bfbfbf" points="432,-593.5 572,-593.5 "/>
<text text-anchor="middle" x="502" y="-581.5" font-family="Helvetica,sans-Serif" font-size="10.00" fill="#000000"> </text>
</g>
<!-- Node9&#45;&gt;Node3 -->
<g id="edge7" class="edge">
<title>Node9&#45;&gt;Node3</title>
<path fill="none" stroke="#404040" d="M498.6591,-574.0737C495.1244,-551.6646 487.8692,-522.6803 473,-501 432.1013,-441.3668 365.4276,-393.7953 310.932,-361.9016"/>
<polygon fill="none" stroke="#404040" points="310.6088,-361.7157 303.4134,-362.1918 300.2065,-355.733 307.4019,-355.2569 310.6088,-361.7157"/>
<text text-anchor="middle" x="527.5" y="-526" font-family="Helvetica,sans-Serif" font-size="10.00" fill="#000000"> #mReversed</text>
</g>
</g>
</svg>
