<?xml version="1.0" encoding="UTF-8" standalone="no"?>
<!DOCTYPE svg PUBLIC "-//W3C//DTD SVG 1.1//EN"
 "http://www.w3.org/Graphics/SVG/1.1/DTD/svg11.dtd">
<!-- Generated by graphviz version 2.40.1 (20161225.0304)
 -->
<!-- Title: /home/travis/build/AliceO2Group/AliceO2/Generators/src/GeneratorFactory.cxx Pages: 1 -->
<!--zoomable 385 -->
<svg id="main" version="1.1" xmlns="http://www.w3.org/2000/svg" xmlns:xlink="http://www.w3.org/1999/xlink" xml:space="preserve" onload="init(evt)">
<style type="text/css"><![CDATA[
.edge:hover path { stroke: red; }
.edge:hover polygon { stroke: red; fill: red; }
]]></style>
<script type="text/javascript"><![CDATA[
var edges = document.getElementsByTagName('g');
if (edges && edges.length) {
  for (var i=0;i<edges.length;i++) {
    if (edges[i].id.substr(0,4)=='edge') {
      edges[i].setAttribute('class','edge');
    }
  }
}
]]></script>
        <defs>
                <circle id="rim" cx="0" cy="0" r="7"/>
                <circle id="rim2" cx="0" cy="0" r="3.5"/>
                <g id="zoomPlus">
                        <use xlink:href="#rim" fill="#404040">
                                <set attributeName="fill" to="#808080" begin="zoomplus.mouseover" end="zoomplus.mouseout"/>
                        </use>
                        <path d="M-4,0h8M0,-4v8" fill="none" stroke="white" stroke-width="1.5" pointer-events="none"/>
                </g>
                <g id="zoomMin">
                        <use xlink:href="#rim" fill="#404040">
                                <set attributeName="fill" to="#808080" begin="zoomminus.mouseover" end="zoomminus.mouseout"/>
                        </use>
                        <path d="M-4,0h8" fill="none" stroke="white" stroke-width="1.5" pointer-events="none"/>
                </g>
                <g id="dirArrow">
                        <path fill="none" stroke="white" stroke-width="1.5" d="M0,-3.0v7 M-2.5,-0.5L0,-3.0L2.5,-0.5"/>
                </g>
               <g id="resetDef">
                       <use xlink:href="#rim2" fill="#404040">
                               <set attributeName="fill" to="#808080" begin="reset.mouseover" end="reset.mouseout"/>
                       </use>
               </g>
        </defs>

<script type="text/javascript">
var viewWidth = 2054;
var viewHeight = 385;
var sectionId = 'dynsection-0';
</script>
<script xlink:href="../../svgpan.js"/>
<svg id="graph" class="graph">
<g id="viewport">
<title>/home/travis/build/AliceO2Group/AliceO2/Generators/src/GeneratorFactory.cxx</title>
<!-- Node0 -->
<g id="node1" class="node">
<title>Node0</title>
<polygon fill="#bfbfbf" stroke="#000000" points="855,-335.5 855,-376.5 1052,-376.5 1052,-335.5 855,-335.5"/>
<text text-anchor="start" x="863" y="-364.5" font-family="Helvetica,sans-Serif" font-size="10.00" fill="#000000">/home/travis/build</text>
<text text-anchor="start" x="863" y="-353.5" font-family="Helvetica,sans-Serif" font-size="10.00" fill="#000000">/AliceO2Group/AliceO2</text>
<text text-anchor="middle" x="953.5" y="-342.5" font-family="Helvetica,sans-Serif" font-size="10.00" fill="#000000">/Generators/src/GeneratorFactory.cxx</text>
</g>
<!-- Node1 -->
<g id="node2" class="node">
<title>Node1</title>
<g id="a_node2"><a xlink:href="../../d4/d6f/GeneratorFactory_8h.html" target="_top" xlink:title="Generators/GeneratorFactory.h">
<polygon fill="none" stroke="#000000" points="0,-274 0,-293 165,-293 165,-274 0,-274"/>
<text text-anchor="middle" x="82.5" y="-281" font-family="Helvetica,sans-Serif" font-size="10.00" fill="#000000">Generators/GeneratorFactory.h</text>
</a>
</g>
</g>
<!-- Node0&#45;&gt;Node1 -->
<g id="edge1" class="edge">
<title>Node0&#45;&gt;Node1</title>
<path fill="none" stroke="#191970" d="M854.7028,-351.8171C706.3655,-344.8508 417.4659,-328.6224 173.5,-299 163.7158,-297.812 153.3807,-296.3002 143.3242,-294.6889"/>
<polygon fill="#191970" stroke="#191970" points="143.8271,-291.2246 133.3912,-293.0526 142.6893,-298.1315 143.8271,-291.2246"/>
</g>
<!-- Node2 -->
<g id="node3" class="node">
<title>Node2</title>
<polygon fill="none" stroke="#bfbfbf" points="183,-274 183,-293 312,-293 312,-274 183,-274"/>
<text text-anchor="middle" x="247.5" y="-281" font-family="Helvetica,sans-Serif" font-size="10.00" fill="#000000">FairPrimaryGenerator.h</text>
</g>
<!-- Node0&#45;&gt;Node2 -->
<g id="edge2" class="edge">
<title>Node0&#45;&gt;Node2</title>
<path fill="none" stroke="#191970" d="M854.8524,-350.1875C731.0316,-342.1676 512.3332,-325.6052 326.5,-299 318.5326,-297.8593 310.1522,-296.4475 301.9478,-294.9443"/>
<polygon fill="#191970" stroke="#191970" points="302.5431,-291.4949 292.0671,-293.0774 301.2434,-298.3732 302.5431,-291.4949"/>
</g>
<!-- Node3 -->
<g id="node4" class="node">
<title>Node3</title>
<polygon fill="none" stroke="#bfbfbf" points="382,-140 382,-159 473,-159 473,-140 382,-140"/>
<text text-anchor="middle" x="427.5" y="-147" font-family="Helvetica,sans-Serif" font-size="10.00" fill="#000000">FairGenerator.h</text>
</g>
<!-- Node0&#45;&gt;Node3 -->
<g id="edge3" class="edge">
<title>Node0&#45;&gt;Node3</title>
<path fill="none" stroke="#191970" d="M854.7246,-353.6315C694.4104,-348.7557 392.092,-334.8692 359.5,-299 323.0637,-258.8999 378.183,-195.9616 409.016,-166.1825"/>
<polygon fill="#191970" stroke="#191970" points="411.7307,-168.4341 416.6173,-159.0335 406.9349,-163.3349 411.7307,-168.4341"/>
</g>
<!-- Node4 -->
<g id="node5" class="node">
<title>Node4</title>
<polygon fill="none" stroke="#bfbfbf" points="1253.5,-274 1253.5,-293 1363.5,-293 1363.5,-274 1253.5,-274"/>
<text text-anchor="middle" x="1308.5" y="-281" font-family="Helvetica,sans-Serif" font-size="10.00" fill="#000000">FairBoxGenerator.h</text>
</g>
<!-- Node0&#45;&gt;Node4 -->
<g id="edge4" class="edge">
<title>Node0&#45;&gt;Node4</title>
<path fill="none" stroke="#191970" d="M1052.2307,-336.9352C1107.3926,-326.1299 1177.3409,-312.1738 1239.5,-299 1245.1939,-297.7932 1251.1452,-296.5019 1257.0632,-295.1987"/>
<polygon fill="#191970" stroke="#191970" points="1257.9358,-298.5903 1266.9401,-293.0071 1256.4194,-291.7565 1257.9358,-298.5903"/>
</g>
<!-- Node5 -->
<g id="node6" class="node">
<title>Node5</title>
<polygon fill="none" stroke="#bfbfbf" points="812,-207 812,-226 887,-226 887,-207 812,-207"/>
<text text-anchor="middle" x="849.5" y="-214" font-family="Helvetica,sans-Serif" font-size="10.00" fill="#000000">FairLogger.h</text>
</g>
<!-- Node0&#45;&gt;Node5 -->
<g id="edge5" class="edge">
<title>Node0&#45;&gt;Node5</title>
<path fill="none" stroke="#191970" d="M953.5468,-335.2955C952.6134,-316.1883 948.6543,-287.8536 934.5,-268 922.4148,-251.0486 902.8398,-238.636 885.5197,-230.2494"/>
<polygon fill="#191970" stroke="#191970" points="886.7426,-226.9605 876.1913,-226.0011 883.8414,-233.331 886.7426,-226.9605"/>
</g>
<!-- Node6 -->
<g id="node7" class="node">
<title>Node6</title>
<g id="a_node7"><a xlink:href="../../d4/dee/SimConfig_8h.html" target="_top" xlink:title="SimConfig/SimConfig.h">
<polygon fill="none" stroke="#000000" points="1583.5,-274 1583.5,-293 1711.5,-293 1711.5,-274 1583.5,-274"/>
<text text-anchor="middle" x="1647.5" y="-281" font-family="Helvetica,sans-Serif" font-size="10.00" fill="#000000">SimConfig/SimConfig.h</text>
</a>
</g>
</g>
<!-- Node0&#45;&gt;Node6 -->
<g id="edge6" class="edge">
<title>Node0&#45;&gt;Node6</title>
<path fill="none" stroke="#191970" d="M1052.1963,-345.6895C1192.6957,-331.012 1447.2457,-304.4199 1573.0328,-291.2794"/>
<polygon fill="#191970" stroke="#191970" points="1573.7484,-294.7237 1583.3306,-290.2036 1573.0211,-287.7616 1573.7484,-294.7237"/>
</g>
<!-- Node9 -->
<g id="node10" class="node">
<title>Node9</title>
<g id="a_node10"><a xlink:href="../../de/daf/GeneratorFromFile_8h.html" target="_top" xlink:title="Generators/GeneratorFrom\lFile.h">
<polygon fill="none" stroke="#000000" points="368.5,-268.5 368.5,-298.5 514.5,-298.5 514.5,-268.5 368.5,-268.5"/>
<text text-anchor="start" x="376.5" y="-286.5" font-family="Helvetica,sans-Serif" font-size="10.00" fill="#000000">Generators/GeneratorFrom</text>
<text text-anchor="middle" x="441.5" y="-275.5" font-family="Helvetica,sans-Serif" font-size="10.00" fill="#000000">File.h</text>
</a>
</g>
</g>
<!-- Node0&#45;&gt;Node9 -->
<g id="edge9" class="edge">
<title>Node0&#45;&gt;Node9</title>
<path fill="none" stroke="#191970" d="M854.6464,-344.464C769.733,-334.1916 643.8135,-318.0972 524.8022,-299.1626"/>
<polygon fill="#191970" stroke="#191970" points="525.21,-295.6834 514.7826,-297.559 524.1038,-302.5954 525.21,-295.6834"/>
</g>
<!-- Node10 -->
<g id="node11" class="node">
<title>Node10</title>
<g id="a_node11"><a xlink:href="../../d2/d3c/GeneratorTGenerator_8h.html" target="_top" xlink:title="Generators/GeneratorTGenerator.h">
<polygon fill="none" stroke="#000000" points="533,-274 533,-293 718,-293 718,-274 533,-274"/>
<text text-anchor="middle" x="625.5" y="-281" font-family="Helvetica,sans-Serif" font-size="10.00" fill="#000000">Generators/GeneratorTGenerator.h</text>
</a>
</g>
</g>
<!-- Node0&#45;&gt;Node10 -->
<g id="edge11" class="edge">
<title>Node0&#45;&gt;Node10</title>
<path fill="none" stroke="#191970" d="M860.3857,-335.4183C801.5588,-322.4154 727.664,-306.082 678.6323,-295.2442"/>
<polygon fill="#191970" stroke="#191970" points="679.3852,-291.8262 668.8654,-293.0853 677.8743,-298.6612 679.3852,-291.8262"/>
</g>
<!-- Node16 -->
<g id="node17" class="node">
<title>Node16</title>
<g id="a_node17"><a xlink:href="../../db/d50/GeneratorExternalParam_8h.html" target="_top" xlink:title="Generators/GeneratorExternal\lParam.h">
<polygon fill="none" stroke="#000000" points="1467,-201.5 1467,-231.5 1630,-231.5 1630,-201.5 1467,-201.5"/>
<text text-anchor="start" x="1475" y="-219.5" font-family="Helvetica,sans-Serif" font-size="10.00" fill="#000000">Generators/GeneratorExternal</text>
<text text-anchor="middle" x="1548.5" y="-208.5" font-family="Helvetica,sans-Serif" font-size="10.00" fill="#000000">Param.h</text>
</a>
</g>
</g>
<!-- Node0&#45;&gt;Node16 -->
<g id="edge19" class="edge">
<title>Node0&#45;&gt;Node16</title>
<path fill="none" stroke="#191970" d="M1052.1519,-336.6439C1088.6878,-327.6352 1129.8688,-315.2477 1165.5,-299 1187.9316,-288.7713 1188.5072,-276.8957 1211.5,-268 1311.5347,-229.2973 1346.321,-248.0913 1456.4785,-232.0797"/>
<polygon fill="#191970" stroke="#191970" points="1457.3016,-235.4949 1466.6623,-230.5323 1456.25,-228.5743 1457.3016,-235.4949"/>
</g>
<!-- Node27 -->
<g id="node28" class="node">
<title>Node27</title>
<g id="a_node28"><a xlink:href="../../d2/d04/BoxGunParam_8h.html" target="_top" xlink:title="Generators/BoxGunParam.h">
<polygon fill="none" stroke="#000000" points="1648.5,-207 1648.5,-226 1800.5,-226 1800.5,-207 1648.5,-207"/>
<text text-anchor="middle" x="1724.5" y="-214" font-family="Helvetica,sans-Serif" font-size="10.00" fill="#000000">Generators/BoxGunParam.h</text>
</a>
</g>
</g>
<!-- Node0&#45;&gt;Node27 -->
<g id="edge33" class="edge">
<title>Node0&#45;&gt;Node27</title>
<path fill="none" stroke="#191970" d="M1052.0036,-343.0388C1099.0441,-334.476 1155.2458,-320.6969 1202.5,-299 1223.5844,-289.3191 1222.8142,-276.246 1244.5,-268 1409.2731,-205.3455 1464.8358,-255.836 1639.5,-232 1648.2468,-230.8063 1657.4642,-229.3423 1666.4736,-227.7954"/>
<polygon fill="#191970" stroke="#191970" points="1667.2806,-231.2071 1676.5208,-226.0236 1666.0649,-224.3135 1667.2806,-231.2071"/>
</g>
<!-- Node28 -->
<g id="node29" class="node">
<title>Node28</title>
<g id="a_node29"><a xlink:href="../../d9/dc0/TriggerParticle_8h.html" target="_top" xlink:title="Generators/TriggerParticle.h">
<polygon fill="none" stroke="#000000" points="773.5,-274 773.5,-293 925.5,-293 925.5,-274 773.5,-274"/>
<text text-anchor="middle" x="849.5" y="-281" font-family="Helvetica,sans-Serif" font-size="10.00" fill="#000000">Generators/TriggerParticle.h</text>
</a>
</g>
</g>
<!-- Node0&#45;&gt;Node28 -->
<g id="edge36" class="edge">
<title>Node0&#45;&gt;Node28</title>
<path fill="none" stroke="#191970" d="M923.976,-335.4183C907.3095,-323.7999 886.8286,-309.5223 871.5655,-298.8822"/>
<polygon fill="#191970" stroke="#191970" points="873.455,-295.9329 863.25,-293.0853 869.4519,-301.6753 873.455,-295.9329"/>
</g>
<!-- Node29 -->
<g id="node30" class="node">
<title>Node29</title>
<g id="a_node30"><a xlink:href="../../dc/dae/TriggerParticleParam_8h.html" target="_top" xlink:title="Generators/TriggerParticle\lParam.h">
<polygon fill="none" stroke="#000000" points="651,-201.5 651,-231.5 794,-231.5 794,-201.5 651,-201.5"/>
<text text-anchor="start" x="659" y="-219.5" font-family="Helvetica,sans-Serif" font-size="10.00" fill="#000000">Generators/TriggerParticle</text>
<text text-anchor="middle" x="722.5" y="-208.5" font-family="Helvetica,sans-Serif" font-size="10.00" fill="#000000">Param.h</text>
</a>
</g>
</g>
<!-- Node0&#45;&gt;Node29 -->
<g id="edge45" class="edge">
<title>Node0&#45;&gt;Node29</title>
<path fill="none" stroke="#191970" d="M854.8553,-342.0277C823.3145,-333.6731 790.0033,-320.3249 764.5,-299 746.6892,-284.1073 735.6058,-259.7535 729.3286,-241.3578"/>
<polygon fill="#191970" stroke="#191970" points="732.5941,-240.0749 726.2485,-231.5906 725.9181,-242.1803 732.5941,-240.0749"/>
</g>
<!-- Node30 -->
<g id="node31" class="node">
<title>Node30</title>
<g id="a_node31"><a xlink:href="../../d4/d11/TriggerExternalParam_8h.html" target="_top" xlink:title="Generators/TriggerExternal\lParam.h">
<polygon fill="none" stroke="#000000" points="1302,-201.5 1302,-231.5 1449,-231.5 1449,-201.5 1302,-201.5"/>
<text text-anchor="start" x="1310" y="-219.5" font-family="Helvetica,sans-Serif" font-size="10.00" fill="#000000">Generators/TriggerExternal</text>
<text text-anchor="middle" x="1375.5" y="-208.5" font-family="Helvetica,sans-Serif" font-size="10.00" fill="#000000">Param.h</text>
</a>
</g>
</g>
<!-- Node0&#45;&gt;Node30 -->
<g id="edge42" class="edge">
<title>Node0&#45;&gt;Node30</title>
<path fill="none" stroke="#191970" d="M1034.3597,-335.3721C1064.9721,-326.1406 1099.6212,-313.9334 1129.5,-299 1150.8979,-288.3053 1151.773,-278.0092 1173.5,-268 1195.3652,-257.9271 1249.0576,-244.4152 1295.5925,-233.759"/>
<polygon fill="#191970" stroke="#191970" points="1296.4239,-237.1594 1305.3998,-231.5307 1294.8729,-230.3334 1296.4239,-237.1594"/>
</g>
<!-- Node31 -->
<g id="node32" class="node">
<title>Node31</title>
<g id="a_node32"><a xlink:href="../../d2/d80/ConfigurationMacroHelper_8h.html" target="_top" xlink:title="Generators/Configuration\lMacroHelper.h">
<polygon fill="none" stroke="#000000" points="982,-268.5 982,-298.5 1121,-298.5 1121,-268.5 982,-268.5"/>
<text text-anchor="start" x="990" y="-286.5" font-family="Helvetica,sans-Serif" font-size="10.00" fill="#000000">Generators/Configuration</text>
<text text-anchor="middle" x="1051.5" y="-275.5" font-family="Helvetica,sans-Serif" font-size="10.00" fill="#000000">MacroHelper.h</text>
</a>
</g>
</g>
<!-- Node0&#45;&gt;Node31 -->
<g id="edge46" class="edge">
<title>Node0&#45;&gt;Node31</title>
<path fill="none" stroke="#191970" d="M981.3207,-335.4183C994.3183,-325.8028 1009.7778,-314.3659 1022.8745,-304.677"/>
<polygon fill="#191970" stroke="#191970" points="1025.1325,-307.3602 1031.0902,-298.5991 1020.9694,-301.7328 1025.1325,-307.3602"/>
</g>
<!-- Node37 -->
<g id="node38" class="node">
<title>Node37</title>
<polygon fill="none" stroke="#bfbfbf" points="1729.5,-274 1729.5,-293 1801.5,-293 1801.5,-274 1729.5,-274"/>
<text text-anchor="middle" x="1765.5" y="-281" font-family="Helvetica,sans-Serif" font-size="10.00" fill="#000000">TRandom.h</text>
</g>
<!-- Node0&#45;&gt;Node37 -->
<g id="edge53" class="edge">
<title>Node0&#45;&gt;Node37</title>
<path fill="none" stroke="#191970" d="M1052.227,-351.8287C1229.6401,-343.8063 1595.5172,-324.7191 1720.5,-299 1724.1977,-298.2391 1728.0088,-297.2561 1731.7751,-296.1545"/>
<polygon fill="#191970" stroke="#191970" points="1733.0736,-299.4139 1741.5313,-293.0327 1730.9403,-292.7469 1733.0736,-299.4139"/>
</g>
<!-- Node7 -->
<g id="node8" class="node">
<title>Node7</title>
<polygon fill="none" stroke="#bfbfbf" points="1819,-207 1819,-226 1878,-226 1878,-207 1819,-207"/>
<text text-anchor="middle" x="1848.5" y="-214" font-family="Helvetica,sans-Serif" font-size="10.00" fill="#000000">Rtypes.h</text>
</g>
<!-- Node6&#45;&gt;Node7 -->
<g id="edge7" class="edge">
<title>Node6&#45;&gt;Node7</title>
<path fill="none" stroke="#191970" d="M1679.6903,-273.9979C1712.5417,-264.13 1764.8931,-247.9321 1809.5,-232 1811.4041,-231.3199 1813.3536,-230.6052 1815.3163,-229.8712"/>
<polygon fill="#191970" stroke="#191970" points="1817.0131,-232.9688 1825.0912,-226.1135 1814.5012,-226.4349 1817.0131,-232.9688"/>
</g>
<!-- Node8 -->
<g id="node9" class="node">
<title>Node8</title>
<polygon fill="none" stroke="#bfbfbf" points="1895.5,-207 1895.5,-226 2045.5,-226 2045.5,-207 1895.5,-207"/>
<text text-anchor="middle" x="1970.5" y="-214" font-family="Helvetica,sans-Serif" font-size="10.00" fill="#000000">boost/program_options.hpp</text>
</g>
<!-- Node6&#45;&gt;Node8 -->
<g id="edge8" class="edge">
<title>Node6&#45;&gt;Node8</title>
<path fill="none" stroke="#191970" d="M1692.2739,-273.9484C1701.6,-271.9714 1711.3692,-269.9098 1720.5,-268 1786.848,-254.1225 1863.1629,-238.4425 1913.8469,-228.0686"/>
<polygon fill="#191970" stroke="#191970" points="1914.8503,-231.4359 1923.9457,-226.0023 1913.4471,-224.5779 1914.8503,-231.4359"/>
</g>
<!-- Node9&#45;&gt;Node3 -->
<g id="edge10" class="edge">
<title>Node9&#45;&gt;Node3</title>
<path fill="none" stroke="#191970" d="M439.9212,-268.389C437.3808,-244.0735 432.3858,-196.2644 429.5655,-169.2698"/>
<polygon fill="#191970" stroke="#191970" points="433.0237,-168.6863 428.5034,-159.1042 426.0616,-169.4138 433.0237,-168.6863"/>
</g>
<!-- Node11 -->
<g id="node12" class="node">
<title>Node11</title>
<g id="a_node12"><a xlink:href="../../d9/d12/Generator_8h.html" target="_top" xlink:title="Generators/Generator.h">
<polygon fill="none" stroke="#000000" points="463,-207 463,-226 594,-226 594,-207 463,-207"/>
<text text-anchor="middle" x="528.5" y="-214" font-family="Helvetica,sans-Serif" font-size="10.00" fill="#000000">Generators/Generator.h</text>
</a>
</g>
</g>
<!-- Node10&#45;&gt;Node11 -->
<g id="edge12" class="edge">
<title>Node10&#45;&gt;Node11</title>
<path fill="none" stroke="#191970" d="M611.6023,-273.9005C595.6836,-262.9052 569.3879,-244.7422 550.6401,-231.7927"/>
<polygon fill="#191970" stroke="#191970" points="552.5892,-228.8852 542.372,-226.0817 548.6108,-234.6448 552.5892,-228.8852"/>
</g>
<!-- Node11&#45;&gt;Node3 -->
<g id="edge13" class="edge">
<title>Node11&#45;&gt;Node3</title>
<path fill="none" stroke="#191970" d="M514.0292,-206.9005C497.3791,-195.8554 469.826,-177.5776 450.2886,-164.6172"/>
<polygon fill="#191970" stroke="#191970" points="452.212,-161.693 441.944,-159.0817 448.3424,-167.5263 452.212,-161.693"/>
</g>
<!-- Node12 -->
<g id="node13" class="node">
<title>Node12</title>
<polygon fill="none" stroke="#bfbfbf" points="529.5,-73 529.5,-92 597.5,-92 597.5,-73 529.5,-73"/>
<text text-anchor="middle" x="563.5" y="-80" font-family="Helvetica,sans-Serif" font-size="10.00" fill="#000000">TParticle.h</text>
</g>
<!-- Node11&#45;&gt;Node12 -->
<g id="edge14" class="edge">
<title>Node11&#45;&gt;Node12</title>
<path fill="none" stroke="#191970" d="M531.0171,-206.8631C536.7433,-184.9398 550.8358,-130.9858 558.44,-101.8727"/>
<polygon fill="#191970" stroke="#191970" points="561.8649,-102.6096 561.0057,-92.0496 555.0921,-100.8405 561.8649,-102.6096"/>
</g>
<!-- Node13 -->
<g id="node14" class="node">
<title>Node13</title>
<g id="a_node14"><a xlink:href="../../d7/dac/Trigger_8h.html" target="_top" xlink:title="Generators/Trigger.h">
<polygon fill="none" stroke="#000000" points="568,-140 568,-159 683,-159 683,-140 568,-140"/>
<text text-anchor="middle" x="625.5" y="-147" font-family="Helvetica,sans-Serif" font-size="10.00" fill="#000000">Generators/Trigger.h</text>
</a>
</g>
</g>
<!-- Node11&#45;&gt;Node13 -->
<g id="edge15" class="edge">
<title>Node11&#45;&gt;Node13</title>
<path fill="none" stroke="#191970" d="M542.3977,-206.9005C558.3164,-195.9052 584.6121,-177.7422 603.3599,-164.7927"/>
<polygon fill="#191970" stroke="#191970" points="605.3892,-167.6448 611.628,-159.0817 601.4108,-161.8852 605.3892,-167.6448"/>
</g>
<!-- Node15 -->
<g id="node16" class="node">
<title>Node15</title>
<polygon fill="none" stroke="#bfbfbf" points="801,-6 801,-25 848,-25 848,-6 801,-6"/>
<text text-anchor="middle" x="824.5" y="-13" font-family="Helvetica,sans-Serif" font-size="10.00" fill="#000000">vector</text>
</g>
<!-- Node11&#45;&gt;Node15 -->
<g id="edge18" class="edge">
<title>Node11&#45;&gt;Node15</title>
<path fill="none" stroke="#191970" d="M523.9166,-206.6825C512.4384,-180.48 485.7776,-108.0994 520.5,-67 537.8276,-46.4901 714.718,-26.496 790.4226,-18.8068"/>
<polygon fill="#191970" stroke="#191970" points="791.2262,-22.2438 800.8269,-17.763 790.5274,-15.2788 791.2262,-22.2438"/>
</g>
<!-- Node13&#45;&gt;Node12 -->
<g id="edge17" class="edge">
<title>Node13&#45;&gt;Node12</title>
<path fill="none" stroke="#191970" d="M616.6169,-139.9005C606.9486,-129.4525 591.2912,-112.5325 579.4752,-99.7635"/>
<polygon fill="#191970" stroke="#191970" points="581.7274,-97.0441 572.3666,-92.0817 576.5897,-101.7985 581.7274,-97.0441"/>
</g>
<!-- Node14 -->
<g id="node15" class="node">
<title>Node14</title>
<polygon fill="none" stroke="#bfbfbf" points="616,-73 616,-92 681,-92 681,-73 616,-73"/>
<text text-anchor="middle" x="648.5" y="-80" font-family="Helvetica,sans-Serif" font-size="10.00" fill="#000000">functional</text>
</g>
<!-- Node13&#45;&gt;Node14 -->
<g id="edge16" class="edge">
<title>Node13&#45;&gt;Node14</title>
<path fill="none" stroke="#191970" d="M628.7953,-139.9005C632.2112,-129.95 637.6422,-114.1292 641.9382,-101.6147"/>
<polygon fill="#191970" stroke="#191970" points="645.2742,-102.6763 645.2108,-92.0817 638.6535,-100.4035 645.2742,-102.6763"/>
</g>
<!-- Node17 -->
<g id="node18" class="node">
<title>Node17</title>
<g id="a_node18"><a xlink:href="../../db/d2c/ConfigurableParam_8h.html" target="_top" xlink:title="CommonUtils/Configurable\lParam.h">
<polygon fill="none" stroke="#000000" points="1283.5,-67.5 1283.5,-97.5 1431.5,-97.5 1431.5,-67.5 1283.5,-67.5"/>
<text text-anchor="start" x="1291.5" y="-85.5" font-family="Helvetica,sans-Serif" font-size="10.00" fill="#000000">CommonUtils/Configurable</text>
<text text-anchor="middle" x="1357.5" y="-74.5" font-family="Helvetica,sans-Serif" font-size="10.00" fill="#000000">Param.h</text>
</a>
</g>
</g>
<!-- Node16&#45;&gt;Node17 -->
<g id="edge20" class="edge">
<title>Node16&#45;&gt;Node17</title>
<path fill="none" stroke="#191970" d="M1500.7416,-201.3973C1477.9098,-192.8338 1450.9508,-180.6679 1429.5,-165 1407.0725,-148.6187 1386.7942,-124.0662 1373.5162,-106.0037"/>
<polygon fill="#191970" stroke="#191970" points="1376.2515,-103.8119 1367.5815,-97.7223 1370.5616,-107.8894 1376.2515,-103.8119"/>
</g>
<!-- Node23 -->
<g id="node24" class="node">
<title>Node23</title>
<g id="a_node24"><a xlink:href="../../da/d6b/ConfigurableParamHelper_8h.html" target="_top" xlink:title="CommonUtils/Configurable\lParamHelper.h">
<polygon fill="none" stroke="#000000" points="1474.5,-134.5 1474.5,-164.5 1622.5,-164.5 1622.5,-134.5 1474.5,-134.5"/>
<text text-anchor="start" x="1482.5" y="-152.5" font-family="Helvetica,sans-Serif" font-size="10.00" fill="#000000">CommonUtils/Configurable</text>
<text text-anchor="middle" x="1548.5" y="-141.5" font-family="Helvetica,sans-Serif" font-size="10.00" fill="#000000">ParamHelper.h</text>
</a>
</g>
</g>
<!-- Node16&#45;&gt;Node23 -->
<g id="edge27" class="edge">
<title>Node16&#45;&gt;Node23</title>
<path fill="none" stroke="#191970" d="M1548.5,-201.2967C1548.5,-193.5013 1548.5,-183.7991 1548.5,-174.9064"/>
<polygon fill="#191970" stroke="#191970" points="1552.0001,-174.6431 1548.5,-164.6432 1545.0001,-174.6432 1552.0001,-174.6431"/>
</g>
<!-- Node17&#45;&gt;Node15 -->
<g id="edge21" class="edge">
<title>Node17&#45;&gt;Node15</title>
<path fill="none" stroke="#191970" d="M1283.3886,-73.1839C1166.2581,-58.4602 942.9587,-30.3907 858.2354,-19.7407"/>
<polygon fill="#191970" stroke="#191970" points="858.5027,-16.2468 848.1442,-18.4722 857.6296,-23.1921 858.5027,-16.2468"/>
</g>
<!-- Node18 -->
<g id="node19" class="node">
<title>Node18</title>
<polygon fill="none" stroke="#bfbfbf" points="1358.5,-6 1358.5,-25 1396.5,-25 1396.5,-6 1358.5,-6"/>
<text text-anchor="middle" x="1377.5" y="-13" font-family="Helvetica,sans-Serif" font-size="10.00" fill="#000000">map</text>
</g>
<!-- Node17&#45;&gt;Node18 -->
<g id="edge22" class="edge">
<title>Node17&#45;&gt;Node18</title>
<path fill="none" stroke="#191970" d="M1362.0383,-67.2967C1364.9124,-57.6685 1368.6547,-45.1318 1371.7377,-34.8038"/>
<polygon fill="#191970" stroke="#191970" points="1375.1411,-35.6383 1374.6478,-25.055 1368.4336,-33.636 1375.1411,-35.6383"/>
</g>
<!-- Node19 -->
<g id="node20" class="node">
<title>Node19</title>
<polygon fill="none" stroke="#bfbfbf" points="1415,-6 1415,-25 1508,-25 1508,-6 1415,-6"/>
<text text-anchor="middle" x="1461.5" y="-13" font-family="Helvetica,sans-Serif" font-size="10.00" fill="#000000">unordered_map</text>
</g>
<!-- Node17&#45;&gt;Node19 -->
<g id="edge23" class="edge">
<title>Node17&#45;&gt;Node19</title>
<path fill="none" stroke="#191970" d="M1380.8396,-67.4639C1397.8179,-56.526 1420.7242,-41.769 1437.7882,-30.7759"/>
<polygon fill="#191970" stroke="#191970" points="1440.0814,-33.462 1446.5924,-25.1039 1436.2904,-27.5774 1440.0814,-33.462"/>
</g>
<!-- Node20 -->
<g id="node21" class="node">
<title>Node20</title>
<polygon fill="none" stroke="#bfbfbf" points="1149,-.5 1149,-30.5 1262,-30.5 1262,-.5 1149,-.5"/>
<text text-anchor="start" x="1157" y="-18.5" font-family="Helvetica,sans-Serif" font-size="10.00" fill="#000000">boost/property_tree</text>
<text text-anchor="middle" x="1205.5" y="-7.5" font-family="Helvetica,sans-Serif" font-size="10.00" fill="#000000">/ptree.hpp</text>
</g>
<!-- Node17&#45;&gt;Node20 -->
<g id="edge24" class="edge">
<title>Node17&#45;&gt;Node20</title>
<path fill="none" stroke="#191970" d="M1323.3882,-67.4639C1301.4633,-57.7996 1272.7746,-45.154 1249.1881,-34.7572"/>
<polygon fill="#191970" stroke="#191970" points="1250.3228,-31.4325 1239.7605,-30.6017 1247.4993,-37.8379 1250.3228,-31.4325"/>
</g>
<!-- Node21 -->
<g id="node22" class="node">
<title>Node21</title>
<polygon fill="none" stroke="#bfbfbf" points="1565,-6 1565,-25 1622,-25 1622,-6 1565,-6"/>
<text text-anchor="middle" x="1593.5" y="-13" font-family="Helvetica,sans-Serif" font-size="10.00" fill="#000000">typeinfo</text>
</g>
<!-- Node17&#45;&gt;Node21 -->
<g id="edge25" class="edge">
<title>Node17&#45;&gt;Node21</title>
<path fill="none" stroke="#191970" d="M1410.463,-67.4639C1454.344,-55.0061 1515.6752,-37.5943 1554.9944,-26.4317"/>
<polygon fill="#191970" stroke="#191970" points="1556.0721,-29.7641 1564.736,-23.666 1554.1603,-23.0302 1556.0721,-29.7641"/>
</g>
<!-- Node22 -->
<g id="node23" class="node">
<title>Node22</title>
<polygon fill="none" stroke="#bfbfbf" points="1280.5,-6 1280.5,-25 1340.5,-25 1340.5,-6 1280.5,-6"/>
<text text-anchor="middle" x="1310.5" y="-13" font-family="Helvetica,sans-Serif" font-size="10.00" fill="#000000">iostream</text>
</g>
<!-- Node17&#45;&gt;Node22 -->
<g id="edge26" class="edge">
<title>Node17&#45;&gt;Node22</title>
<path fill="none" stroke="#191970" d="M1346.835,-67.2967C1339.7965,-57.2631 1330.5423,-44.0709 1323.1348,-33.5113"/>
<polygon fill="#191970" stroke="#191970" points="1325.8109,-31.2316 1317.2027,-25.055 1320.0803,-35.2516 1325.8109,-31.2316"/>
</g>
<!-- Node23&#45;&gt;Node17 -->
<g id="edge28" class="edge">
<title>Node23&#45;&gt;Node17</title>
<path fill="none" stroke="#191970" d="M1505.6359,-134.4639C1477.3508,-124.5419 1440.1072,-111.4774 1410.0404,-100.9304"/>
<polygon fill="#191970" stroke="#191970" points="1411.1459,-97.6092 1400.5511,-97.6017 1408.8288,-104.2146 1411.1459,-97.6092"/>
</g>
<!-- Node23&#45;&gt;Node21 -->
<g id="edge31" class="edge">
<title>Node23&#45;&gt;Node21</title>
<path fill="none" stroke="#191970" d="M1567.873,-134.0644C1577.8873,-124.809 1589.1149,-112.1127 1594.5,-98 1602.2915,-77.5808 1600.4402,-52.1955 1597.6727,-35.0172"/>
<polygon fill="#191970" stroke="#191970" points="1601.0877,-34.2374 1595.8139,-25.0484 1594.2063,-35.5205 1601.0877,-34.2374"/>
</g>
<!-- Node24 -->
<g id="node25" class="node">
<title>Node24</title>
<polygon fill="none" stroke="#bfbfbf" points="1642,-73 1642,-92 1699,-92 1699,-73 1642,-73"/>
<text text-anchor="middle" x="1670.5" y="-80" font-family="Helvetica,sans-Serif" font-size="10.00" fill="#000000">TClass.h</text>
</g>
<!-- Node23&#45;&gt;Node24 -->
<g id="edge29" class="edge">
<title>Node23&#45;&gt;Node24</title>
<path fill="none" stroke="#191970" d="M1575.8792,-134.4639C1596.257,-123.2728 1623.9146,-108.0838 1644.0632,-97.0186"/>
<polygon fill="#191970" stroke="#191970" points="1645.9319,-99.9855 1653.0123,-92.1039 1642.5623,-93.8498 1645.9319,-99.9855"/>
</g>
<!-- Node25 -->
<g id="node26" class="node">
<title>Node25</title>
<polygon fill="none" stroke="#bfbfbf" points="1450,-73 1450,-92 1519,-92 1519,-73 1450,-73"/>
<text text-anchor="middle" x="1484.5" y="-80" font-family="Helvetica,sans-Serif" font-size="10.00" fill="#000000">type_traits</text>
</g>
<!-- Node23&#45;&gt;Node25 -->
<g id="edge30" class="edge">
<title>Node23&#45;&gt;Node25</title>
<path fill="none" stroke="#191970" d="M1533.9774,-134.2967C1524.1027,-123.9591 1511.0251,-110.2684 1500.7949,-99.5588"/>
<polygon fill="#191970" stroke="#191970" points="1503.0654,-96.8685 1493.6271,-92.055 1498.0036,-101.7037 1503.0654,-96.8685"/>
</g>
<!-- Node26 -->
<g id="node27" class="node">
<title>Node26</title>
<polygon fill="none" stroke="#bfbfbf" points="1537.5,-73 1537.5,-92 1585.5,-92 1585.5,-73 1537.5,-73"/>
<text text-anchor="middle" x="1561.5" y="-80" font-family="Helvetica,sans-Serif" font-size="10.00" fill="#000000">TFile.h</text>
</g>
<!-- Node23&#45;&gt;Node26 -->
<g id="edge32" class="edge">
<title>Node23&#45;&gt;Node26</title>
<path fill="none" stroke="#191970" d="M1551.4499,-134.2967C1553.2984,-124.7699 1555.6994,-112.3954 1557.6911,-102.1306"/>
<polygon fill="#191970" stroke="#191970" points="1561.1771,-102.5386 1559.6461,-92.055 1554.3053,-101.2052 1561.1771,-102.5386"/>
</g>
<!-- Node27&#45;&gt;Node17 -->
<g id="edge34" class="edge">
<title>Node27&#45;&gt;Node17</title>
<path fill="none" stroke="#191970" d="M1673.2512,-206.9675C1600.4704,-193.3348 1474.8833,-169.4208 1465.5,-165 1445.7828,-155.7106 1444.728,-147.3513 1427.5,-134 1414.3223,-123.7876 1399.4788,-112.7963 1386.8626,-103.6011"/>
<polygon fill="#191970" stroke="#191970" points="1388.6807,-100.596 1378.532,-97.5538 1384.5685,-106.2608 1388.6807,-100.596"/>
</g>
<!-- Node27&#45;&gt;Node23 -->
<g id="edge35" class="edge">
<title>Node27&#45;&gt;Node23</title>
<path fill="none" stroke="#191970" d="M1699.2835,-206.9005C1672.8113,-196.8231 1630.523,-180.7247 1597.4582,-168.1375"/>
<polygon fill="#191970" stroke="#191970" points="1598.5511,-164.8086 1587.9602,-164.5218 1596.0606,-171.3506 1598.5511,-164.8086"/>
</g>
<!-- Node28&#45;&gt;Node5 -->
<g id="edge41" class="edge">
<title>Node28&#45;&gt;Node5</title>
<path fill="none" stroke="#191970" d="M849.5,-273.9005C849.5,-264.149 849.5,-248.7597 849.5,-236.3695"/>
<polygon fill="#191970" stroke="#191970" points="853.0001,-236.0816 849.5,-226.0817 846.0001,-236.0817 853.0001,-236.0816"/>
</g>
<!-- Node28&#45;&gt;Node13 -->
<g id="edge37" class="edge">
<title>Node28&#45;&gt;Node13</title>
<path fill="none" stroke="#191970" d="M777.1148,-273.9645C724.7836,-265.5741 660.1415,-251.6204 641.5,-232 625.6134,-215.2792 623.2461,-187.7493 623.7593,-169.1362"/>
<polygon fill="#191970" stroke="#191970" points="627.2556,-169.3002 624.3347,-159.116 620.2671,-168.8988 627.2556,-169.3002"/>
</g>
<!-- Node28&#45;&gt;Node29 -->
<g id="edge38" class="edge">
<title>Node28&#45;&gt;Node29</title>
<path fill="none" stroke="#191970" d="M831.304,-273.9005C812.7758,-264.1258 783.5103,-248.6865 759.9957,-236.2812"/>
<polygon fill="#191970" stroke="#191970" points="761.4519,-233.0923 750.9741,-231.5218 758.1856,-239.2835 761.4519,-233.0923"/>
</g>
<!-- Node29&#45;&gt;Node17 -->
<g id="edge39" class="edge">
<title>Node29&#45;&gt;Node17</title>
<path fill="none" stroke="#191970" d="M793.8009,-201.4538C912.7263,-176.3578 1150.8547,-126.107 1276.1462,-99.6676"/>
<polygon fill="#191970" stroke="#191970" points="1277.0107,-103.0623 1286.0725,-97.5729 1275.5653,-96.2132 1277.0107,-103.0623"/>
</g>
<!-- Node29&#45;&gt;Node23 -->
<g id="edge40" class="edge">
<title>Node29&#45;&gt;Node23</title>
<path fill="none" stroke="#191970" d="M794.3905,-202.1405C797.1245,-201.7313 799.8348,-201.3489 802.5,-201 1041.2617,-169.748 1325.6599,-156.7472 1464.2219,-151.9563"/>
<polygon fill="#191970" stroke="#191970" points="1464.4723,-155.4499 1474.3475,-151.6118 1464.2343,-148.4539 1464.4723,-155.4499"/>
</g>
<!-- Node30&#45;&gt;Node17 -->
<g id="edge43" class="edge">
<title>Node30&#45;&gt;Node17</title>
<path fill="none" stroke="#191970" d="M1373.4702,-201.389C1370.4182,-178.6691 1364.6111,-135.438 1360.904,-107.8405"/>
<polygon fill="#191970" stroke="#191970" points="1364.3503,-107.2064 1359.55,-97.7614 1357.4126,-108.1384 1364.3503,-107.2064"/>
</g>
<!-- Node30&#45;&gt;Node23 -->
<g id="edge44" class="edge">
<title>Node30&#45;&gt;Node23</title>
<path fill="none" stroke="#191970" d="M1414.3246,-201.4639C1439.6113,-191.6708 1472.8029,-178.8162 1499.8468,-168.3426"/>
<polygon fill="#191970" stroke="#191970" points="1501.445,-171.477 1509.5061,-164.6017 1498.917,-164.9494 1501.445,-171.477"/>
</g>
<!-- Node31&#45;&gt;Node5 -->
<g id="edge47" class="edge">
<title>Node31&#45;&gt;Node5</title>
<path fill="none" stroke="#191970" d="M1006.1673,-268.4639C970.489,-256.63 921.333,-240.3258 887.6518,-229.1543"/>
<polygon fill="#191970" stroke="#191970" points="888.7511,-225.8315 878.1577,-226.0053 886.5474,-232.4756 888.7511,-225.8315"/>
</g>
<!-- Node32 -->
<g id="node33" class="node">
<title>Node32</title>
<polygon fill="none" stroke="#bfbfbf" points="1225.5,-207 1225.5,-226 1283.5,-226 1283.5,-207 1225.5,-207"/>
<text text-anchor="middle" x="1254.5" y="-214" font-family="Helvetica,sans-Serif" font-size="10.00" fill="#000000">TROOT.h</text>
</g>
<!-- Node31&#45;&gt;Node32 -->
<g id="edge48" class="edge">
<title>Node31&#45;&gt;Node32</title>
<path fill="none" stroke="#191970" d="M1103.525,-268.4939C1136.1944,-258.7677 1179.0802,-245.4441 1216.5,-232 1218.3607,-231.3315 1220.2646,-230.6258 1222.1803,-229.8988"/>
<polygon fill="#191970" stroke="#191970" points="1223.6817,-233.0696 1231.7136,-226.1602 1221.126,-226.5527 1223.6817,-233.0696"/>
</g>
<!-- Node33 -->
<g id="node34" class="node">
<title>Node33</title>
<polygon fill="none" stroke="#bfbfbf" points="905.5,-207 905.5,-226 973.5,-226 973.5,-207 905.5,-207"/>
<text text-anchor="middle" x="939.5" y="-214" font-family="Helvetica,sans-Serif" font-size="10.00" fill="#000000">TSystem.h</text>
</g>
<!-- Node31&#45;&gt;Node33 -->
<g id="edge49" class="edge">
<title>Node31&#45;&gt;Node33</title>
<path fill="none" stroke="#191970" d="M1026.365,-268.4639C1007.8268,-257.3741 982.726,-242.3584 964.2738,-231.32"/>
<polygon fill="#191970" stroke="#191970" points="965.9328,-228.2341 955.5543,-226.1039 962.3392,-234.2412 965.9328,-228.2341"/>
</g>
<!-- Node34 -->
<g id="node35" class="node">
<title>Node34</title>
<polygon fill="none" stroke="#bfbfbf" points="992,-207 992,-226 1055,-226 1055,-207 992,-207"/>
<text text-anchor="middle" x="1023.5" y="-214" font-family="Helvetica,sans-Serif" font-size="10.00" fill="#000000">TGlobal.h</text>
</g>
<!-- Node31&#45;&gt;Node34 -->
<g id="edge50" class="edge">
<title>Node31&#45;&gt;Node34</title>
<path fill="none" stroke="#191970" d="M1045.1464,-268.2967C1041.0803,-258.5672 1035.773,-245.8675 1031.4313,-235.4784"/>
<polygon fill="#191970" stroke="#191970" points="1034.5785,-233.9321 1027.4931,-226.055 1028.1198,-236.6313 1034.5785,-233.9321"/>
</g>
<!-- Node35 -->
<g id="node36" class="node">
<title>Node35</title>
<polygon fill="none" stroke="#bfbfbf" points="1073.5,-207 1073.5,-226 1145.5,-226 1145.5,-207 1073.5,-207"/>
<text text-anchor="middle" x="1109.5" y="-214" font-family="Helvetica,sans-Serif" font-size="10.00" fill="#000000">TFunction.h</text>
</g>
<!-- Node31&#45;&gt;Node35 -->
<g id="edge51" class="edge">
<title>Node31&#45;&gt;Node35</title>
<path fill="none" stroke="#191970" d="M1064.6611,-268.2967C1073.5223,-258.0605 1085.2295,-244.5366 1094.4593,-233.8746"/>
<polygon fill="#191970" stroke="#191970" points="1097.3297,-235.9064 1101.2285,-226.055 1092.0373,-231.3248 1097.3297,-235.9064"/>
</g>
<!-- Node36 -->
<g id="node37" class="node">
<title>Node36</title>
<polygon fill="none" stroke="#bfbfbf" points="1163.5,-207 1163.5,-226 1207.5,-226 1207.5,-207 1163.5,-207"/>
<text text-anchor="middle" x="1185.5" y="-214" font-family="Helvetica,sans-Serif" font-size="10.00" fill="#000000">string</text>
</g>
<!-- Node31&#45;&gt;Node36 -->
<g id="edge52" class="edge">
<title>Node31&#45;&gt;Node36</title>
<path fill="none" stroke="#191970" d="M1081.5722,-268.4639C1104.157,-257.1715 1134.8829,-241.8086 1157.0616,-230.7192"/>
<polygon fill="#191970" stroke="#191970" points="1158.9131,-233.7066 1166.2922,-226.1039 1155.7826,-227.4456 1158.9131,-233.7066"/>
</g>
</g>
</svg>
        <g id="navigator" transform="translate(0 0)" fill="#404254">
                <rect fill="#f2f5e9" fill-opacity="0.5" stroke="#606060" stroke-width=".5" x="0" y="0" width="60" height="60"/>
                <use id="zoomplus" xlink:href="#zoomPlus" x="17" y="9" onmousedown="handleZoom(evt,'in')"/>
                <use id="zoomminus" xlink:href="#zoomMin" x="42" y="9" onmousedown="handleZoom(evt,'out')"/>
                <use id="reset" xlink:href="#resetDef" x="30" y="36" onmousedown="handleReset()"/>
                <g id="arrowUp" xlink:href="#dirArrow" transform="translate(30 24)" onmousedown="handlePan(0,-1)">
                  <use xlink:href="#rim" fill="#404040">
                        <set attributeName="fill" to="#808080" begin="arrowUp.mouseover" end="arrowUp.mouseout"/>
                  </use>
                  <path fill="none" stroke="white" stroke-width="1.5" d="M0,-3.0v7 M-2.5,-0.5L0,-3.0L2.5,-0.5"/>
                </g>
                <g id="arrowRight" xlink:href="#dirArrow" transform="rotate(90) translate(36 -43)" onmousedown="handlePan(1,0)">
                  <use xlink:href="#rim" fill="#404040">
                        <set attributeName="fill" to="#808080" begin="arrowRight.mouseover" end="arrowRight.mouseout"/>
                  </use>
                  <path fill="none" stroke="white" stroke-width="1.5" d="M0,-3.0v7 M-2.5,-0.5L0,-3.0L2.5,-0.5"/>
                </g>
                <g id="arrowDown" xlink:href="#dirArrow" transform="rotate(180) translate(-30 -48)" onmousedown="handlePan(0,1)">
                  <use xlink:href="#rim" fill="#404040">
                        <set attributeName="fill" to="#808080" begin="arrowDown.mouseover" end="arrowDown.mouseout"/>
                  </use>
                  <path fill="none" stroke="white" stroke-width="1.5" d="M0,-3.0v7 M-2.5,-0.5L0,-3.0L2.5,-0.5"/>
                </g>
                <g id="arrowLeft" xlink:href="#dirArrow" transform="rotate(270) translate(-36 17)" onmousedown="handlePan(-1,0)">
                  <use xlink:href="#rim" fill="#404040">
                        <set attributeName="fill" to="#808080" begin="arrowLeft.mouseover" end="arrowLeft.mouseout"/>
                  </use>
                  <path fill="none" stroke="white" stroke-width="1.5" d="M0,-3.0v7 M-2.5,-0.5L0,-3.0L2.5,-0.5"/>
                </g>
        </g>
        <svg viewBox="0 0 15 15" width="100%" height="30px" preserveAspectRatio="xMaxYMin meet">
         <g id="arrow_out" transform="scale(0.3 0.3)">
          <a xlink:href="GeneratorFactory_8cxx__incl_org.svg" target="_base">
           <rect id="button" ry="5" rx="5" y="6" x="6" height="38" width="38"
                fill="#f2f5e9" fill-opacity="0.5" stroke="#606060" stroke-width="1.0"/>
           <path id="arrow"
             d="M 11.500037,31.436501 C 11.940474,20.09759 22.043105,11.32322 32.158766,21.979434 L 37.068811,17.246167 C 37.068811,17.246167 37.088388,32 37.088388,32 L 22.160133,31.978069 C 22.160133,31.978069 26.997745,27.140456 26.997745,27.140456 C 18.528582,18.264221 13.291696,25.230495 11.500037,31.436501 z"
             style="fill:#404040;"/>
          </a>
         </g>
        </svg>
</svg>
