<?xml version="1.0" encoding="UTF-8" standalone="no"?>
<!DOCTYPE svg PUBLIC "-//W3C//DTD SVG 1.1//EN"
 "http://www.w3.org/Graphics/SVG/1.1/DTD/svg11.dtd">
<!-- Generated by graphviz version 2.40.1 (20161225.0304)
 -->
<!-- Title: /home/travis/build/AliceO2Group/AliceO2/CCDB/include/CCDB/BasicCCDBManager.h Pages: 1 -->
<svg width="591pt" height="274pt"
 viewBox="0.00 0.00 590.50 274.00" xmlns="http://www.w3.org/2000/svg" xmlns:xlink="http://www.w3.org/1999/xlink">
<g id="graph0" class="graph" transform="scale(1 1) rotate(0) translate(4 270)">
<title>/home/travis/build/AliceO2Group/AliceO2/CCDB/include/CCDB/BasicCCDBManager.h</title>
<!-- Node0 -->
<g id="node1" class="node">
<title>Node0</title>
<polygon fill="#bfbfbf" stroke="#000000" points="70,-224.5 70,-265.5 294,-265.5 294,-224.5 70,-224.5"/>
<text text-anchor="start" x="78" y="-253.5" font-family="Helvetica,sans-Serif" font-size="10.00" fill="#000000">/home/travis/build</text>
<text text-anchor="start" x="78" y="-242.5" font-family="Helvetica,sans-Serif" font-size="10.00" fill="#000000">/AliceO2Group/AliceO2</text>
<text text-anchor="middle" x="182" y="-231.5" font-family="Helvetica,sans-Serif" font-size="10.00" fill="#000000">/CCDB/include/CCDB/BasicCCDBManager.h</text>
</g>
<!-- Node1 -->
<g id="node2" class="node">
<title>Node1</title>
<g id="a_node2"><a xlink:href="../../dd/d3e/CcdbApi_8h.html" target="_top" xlink:title="CCDB/CcdbApi.h">
<polygon fill="none" stroke="#000000" points="172,-168.5 172,-187.5 268,-187.5 268,-168.5 172,-168.5"/>
<text text-anchor="middle" x="220" y="-175.5" font-family="Helvetica,sans-Serif" font-size="10.00" fill="#000000">CCDB/CcdbApi.h</text>
</a>
</g>
</g>
<!-- Node0&#45;&gt;Node1 -->
<g id="edge1" class="edge">
<title>Node0&#45;&gt;Node1</title>
<path fill="none" stroke="#191970" d="M193.8151,-224.168C198.8173,-215.3484 204.5987,-205.155 209.4545,-196.5933"/>
<polygon fill="#191970" stroke="#191970" points="212.5638,-198.2056 214.4529,-187.7805 206.475,-194.7521 212.5638,-198.2056"/>
</g>
<!-- Node2 -->
<g id="node3" class="node">
<title>Node2</title>
<polygon fill="none" stroke="#bfbfbf" points="0,-112.5 0,-131.5 44,-131.5 44,-112.5 0,-112.5"/>
<text text-anchor="middle" x="22" y="-119.5" font-family="Helvetica,sans-Serif" font-size="10.00" fill="#000000">string</text>
</g>
<!-- Node0&#45;&gt;Node2 -->
<g id="edge13" class="edge">
<title>Node0&#45;&gt;Node2</title>
<path fill="none" stroke="#191970" d="M155.2196,-224.4126C123.4549,-199.9935 71.2035,-159.8252 42.4885,-137.7506"/>
<polygon fill="#191970" stroke="#191970" points="44.4426,-134.8381 34.3813,-131.5182 40.1763,-140.3877 44.4426,-134.8381"/>
</g>
<!-- Node3 -->
<g id="node4" class="node">
<title>Node3</title>
<polygon fill="none" stroke="#bfbfbf" points="62,-112.5 62,-131.5 120,-131.5 120,-112.5 62,-112.5"/>
<text text-anchor="middle" x="91" y="-119.5" font-family="Helvetica,sans-Serif" font-size="10.00" fill="#000000">memory</text>
</g>
<!-- Node0&#45;&gt;Node3 -->
<g id="edge16" class="edge">
<title>Node0&#45;&gt;Node3</title>
<path fill="none" stroke="#191970" d="M166.7686,-224.4126C149.2476,-200.7303 120.7672,-162.2348 104.167,-139.7972"/>
<polygon fill="#191970" stroke="#191970" points="106.8032,-137.4756 98.0419,-131.5182 101.1758,-141.6389 106.8032,-137.4756"/>
</g>
<!-- Node4 -->
<g id="node5" class="node">
<title>Node4</title>
<polygon fill="none" stroke="#bfbfbf" points="138,-112.5 138,-131.5 176,-131.5 176,-112.5 138,-112.5"/>
<text text-anchor="middle" x="157" y="-119.5" font-family="Helvetica,sans-Serif" font-size="10.00" fill="#000000">map</text>
</g>
<!-- Node0&#45;&gt;Node4 -->
<g id="edge14" class="edge">
<title>Node0&#45;&gt;Node4</title>
<path fill="none" stroke="#191970" d="M173.8775,-224.4713C169.9702,-213.7639 165.5842,-200.3543 163,-188 159.7933,-172.6698 158.3003,-154.9817 157.6053,-141.7778"/>
<polygon fill="#191970" stroke="#191970" points="161.0905,-141.3463 157.1769,-131.5007 154.0965,-141.6379 161.0905,-141.3463"/>
</g>
<!-- Node12 -->
<g id="node13" class="node">
<title>Node12</title>
<g id="a_node13"><a xlink:href="../../da/d86/CCDBTimeStampUtils_8h.html" target="_top" xlink:title="CCDB/CCDBTimeStampUtils.h">
<polygon fill="none" stroke="#000000" points="286.5,-168.5 286.5,-187.5 449.5,-187.5 449.5,-168.5 286.5,-168.5"/>
<text text-anchor="middle" x="368" y="-175.5" font-family="Helvetica,sans-Serif" font-size="10.00" fill="#000000">CCDB/CCDBTimeStampUtils.h</text>
</a>
</g>
</g>
<!-- Node0&#45;&gt;Node12 -->
<g id="edge12" class="edge">
<title>Node0&#45;&gt;Node12</title>
<path fill="none" stroke="#191970" d="M239.0702,-224.4425C269.3713,-213.5275 305.6858,-200.4465 332.0419,-190.9527"/>
<polygon fill="#191970" stroke="#191970" points="333.4001,-194.1836 341.6222,-187.5017 331.0278,-187.5979 333.4001,-194.1836"/>
</g>
<!-- Node13 -->
<g id="node14" class="node">
<title>Node13</title>
<polygon fill="none" stroke="#bfbfbf" points="467.5,-168.5 467.5,-187.5 560.5,-187.5 560.5,-168.5 467.5,-168.5"/>
<text text-anchor="middle" x="514" y="-175.5" font-family="Helvetica,sans-Serif" font-size="10.00" fill="#000000">unordered_map</text>
</g>
<!-- Node0&#45;&gt;Node13 -->
<g id="edge15" class="edge">
<title>Node0&#45;&gt;Node13</title>
<path fill="none" stroke="#191970" d="M283.8672,-224.4425C340.8707,-212.9387 409.797,-199.0289 457.2703,-189.4485"/>
<polygon fill="#191970" stroke="#191970" points="458.2507,-192.8213 467.3607,-187.4122 456.8659,-185.9596 458.2507,-192.8213"/>
</g>
<!-- Node1&#45;&gt;Node2 -->
<g id="edge2" class="edge">
<title>Node1&#45;&gt;Node2</title>
<path fill="none" stroke="#191970" d="M183.7109,-168.4892C151.849,-160.031 104.0345,-147.0787 54.0109,-132.2214"/>
<polygon fill="#191970" stroke="#191970" points="54.8985,-128.8338 44.3151,-129.3257 52.8953,-135.5411 54.8985,-128.8338"/>
</g>
<!-- Node1&#45;&gt;Node3 -->
<g id="edge3" class="edge">
<title>Node1&#45;&gt;Node3</title>
<path fill="none" stroke="#191970" d="M197.8241,-168.3733C177.0234,-159.3435 145.7083,-145.7494 122.3542,-135.6111"/>
<polygon fill="#191970" stroke="#191970" points="123.4532,-132.2727 112.8865,-131.5011 120.6657,-138.6938 123.4532,-132.2727"/>
</g>
<!-- Node1&#45;&gt;Node4 -->
<g id="edge4" class="edge">
<title>Node1&#45;&gt;Node4</title>
<path fill="none" stroke="#191970" d="M209.0262,-168.2455C199.8118,-160.0549 186.4468,-148.1749 175.5703,-138.5069"/>
<polygon fill="#191970" stroke="#191970" points="177.6474,-135.6704 167.848,-131.6427 172.9968,-140.9023 177.6474,-135.6704"/>
</g>
<!-- Node5 -->
<g id="node6" class="node">
<title>Node5</title>
<polygon fill="none" stroke="#bfbfbf" points="517.5,-112.5 517.5,-131.5 582.5,-131.5 582.5,-112.5 517.5,-112.5"/>
<text text-anchor="middle" x="550" y="-119.5" font-family="Helvetica,sans-Serif" font-size="10.00" fill="#000000">curl/curl.h</text>
</g>
<!-- Node1&#45;&gt;Node5 -->
<g id="edge5" class="edge">
<title>Node1&#45;&gt;Node5</title>
<path fill="none" stroke="#191970" d="M268.1907,-169.4767C271.1706,-168.971 274.1254,-168.4751 277,-168 376.8317,-151.4989 404.9773,-152.3134 507.5533,-132.1703"/>
<polygon fill="#191970" stroke="#191970" points="508.2539,-135.5996 517.3821,-130.2214 506.8923,-128.7333 508.2539,-135.5996"/>
</g>
<!-- Node6 -->
<g id="node7" class="node">
<title>Node6</title>
<polygon fill="none" stroke="#bfbfbf" points="194.5,-112.5 194.5,-131.5 257.5,-131.5 257.5,-112.5 194.5,-112.5"/>
<text text-anchor="middle" x="226" y="-119.5" font-family="Helvetica,sans-Serif" font-size="10.00" fill="#000000">TObject.h</text>
</g>
<!-- Node1&#45;&gt;Node6 -->
<g id="edge6" class="edge">
<title>Node1&#45;&gt;Node6</title>
<path fill="none" stroke="#191970" d="M221.0451,-168.2455C221.828,-160.9382 222.9256,-150.6944 223.8888,-141.7046"/>
<polygon fill="#191970" stroke="#191970" points="227.3815,-141.9587 224.9669,-131.6427 220.4214,-141.2129 227.3815,-141.9587"/>
</g>
<!-- Node7 -->
<g id="node8" class="node">
<title>Node7</title>
<polygon fill="none" stroke="#bfbfbf" points="276,-112.5 276,-131.5 350,-131.5 350,-112.5 276,-112.5"/>
<text text-anchor="middle" x="313" y="-119.5" font-family="Helvetica,sans-Serif" font-size="10.00" fill="#000000">TMessage.h</text>
</g>
<!-- Node1&#45;&gt;Node7 -->
<g id="edge7" class="edge">
<title>Node1&#45;&gt;Node7</title>
<path fill="none" stroke="#191970" d="M236.1994,-168.2455C250.6018,-159.5731 271.8732,-146.7645 288.3799,-136.825"/>
<polygon fill="#191970" stroke="#191970" points="290.225,-139.7996 296.9863,-131.6427 286.614,-133.8028 290.225,-139.7996"/>
</g>
<!-- Node8 -->
<g id="node9" class="node">
<title>Node8</title>
<g id="a_node9"><a xlink:href="../../d4/dab/CcdbObjectInfo_8h.html" target="_top" xlink:title="CCDB/CcdbObjectInfo.h">
<polygon fill="none" stroke="#000000" points="368.5,-112.5 368.5,-131.5 499.5,-131.5 499.5,-112.5 368.5,-112.5"/>
<text text-anchor="middle" x="434" y="-119.5" font-family="Helvetica,sans-Serif" font-size="10.00" fill="#000000">CCDB/CcdbObjectInfo.h</text>
</a>
</g>
</g>
<!-- Node1&#45;&gt;Node8 -->
<g id="edge8" class="edge">
<title>Node1&#45;&gt;Node8</title>
<path fill="none" stroke="#191970" d="M256.7879,-168.3733C293.0661,-158.8799 348.6236,-144.3415 387.8446,-134.0781"/>
<polygon fill="#191970" stroke="#191970" points="388.904,-137.4188 397.6921,-131.5011 387.1318,-130.6468 388.904,-137.4188"/>
</g>
<!-- Node9 -->
<g id="node10" class="node">
<title>Node9</title>
<polygon fill="none" stroke="#bfbfbf" points="351.5,-56.5 351.5,-75.5 410.5,-75.5 410.5,-56.5 351.5,-56.5"/>
<text text-anchor="middle" x="381" y="-63.5" font-family="Helvetica,sans-Serif" font-size="10.00" fill="#000000">Rtypes.h</text>
</g>
<!-- Node8&#45;&gt;Node9 -->
<g id="edge9" class="edge">
<title>Node8&#45;&gt;Node9</title>
<path fill="none" stroke="#191970" d="M424.7681,-112.2455C417.1683,-104.2155 406.2123,-92.6394 397.1632,-83.0781"/>
<polygon fill="#191970" stroke="#191970" points="399.542,-80.4998 390.1261,-75.6427 394.4579,-85.3115 399.542,-80.4998"/>
</g>
<!-- Node10 -->
<g id="node11" class="node">
<title>Node10</title>
<g id="a_node11"><a xlink:href="../../dd/da4/Logger_8h.html" target="_top" xlink:title="Framework/Logger.h">
<polygon fill="none" stroke="#000000" points="428.5,-56.5 428.5,-75.5 543.5,-75.5 543.5,-56.5 428.5,-56.5"/>
<text text-anchor="middle" x="486" y="-63.5" font-family="Helvetica,sans-Serif" font-size="10.00" fill="#000000">Framework/Logger.h</text>
</a>
</g>
</g>
<!-- Node8&#45;&gt;Node10 -->
<g id="edge10" class="edge">
<title>Node8&#45;&gt;Node10</title>
<path fill="none" stroke="#191970" d="M443.0577,-112.2455C450.5142,-104.2155 461.2634,-92.6394 470.1417,-83.0781"/>
<polygon fill="#191970" stroke="#191970" points="472.8063,-85.3522 477.0461,-75.6427 467.6768,-80.589 472.8063,-85.3522"/>
</g>
<!-- Node11 -->
<g id="node12" class="node">
<title>Node11</title>
<polygon fill="none" stroke="#bfbfbf" points="432,-.5 432,-19.5 540,-19.5 540,-.5 432,-.5"/>
<text text-anchor="middle" x="486" y="-7.5" font-family="Helvetica,sans-Serif" font-size="10.00" fill="#000000">fairlogger/Logger.h</text>
</g>
<!-- Node10&#45;&gt;Node11 -->
<g id="edge11" class="edge">
<title>Node10&#45;&gt;Node11</title>
<path fill="none" stroke="#191970" d="M486,-56.2455C486,-48.9382 486,-38.6944 486,-29.7046"/>
<polygon fill="#191970" stroke="#191970" points="489.5001,-29.6426 486,-19.6427 482.5001,-29.6427 489.5001,-29.6426"/>
</g>
</g>
</svg>
