<?xml version="1.0" encoding="UTF-8" standalone="no"?>
<!DOCTYPE svg PUBLIC "-//W3C//DTD SVG 1.1//EN"
 "http://www.w3.org/Graphics/SVG/1.1/DTD/svg11.dtd">
<!-- Generated by graphviz version 2.40.1 (20161225.0304)
 -->
<!-- Title: o2::ft0::DataBlockTCM Pages: 1 -->
<!--zoomable 657 -->
<svg id="main" version="1.1" xmlns="http://www.w3.org/2000/svg" xmlns:xlink="http://www.w3.org/1999/xlink" xml:space="preserve" onload="init(evt)">
<style type="text/css"><![CDATA[
.edge:hover path { stroke: red; }
.edge:hover polygon { stroke: red; fill: red; }
]]></style>
<script type="text/javascript"><![CDATA[
var edges = document.getElementsByTagName('g');
if (edges && edges.length) {
  for (var i=0;i<edges.length;i++) {
    if (edges[i].id.substr(0,4)=='edge') {
      edges[i].setAttribute('class','edge');
    }
  }
}
]]></script>
        <defs>
                <circle id="rim" cx="0" cy="0" r="7"/>
                <circle id="rim2" cx="0" cy="0" r="3.5"/>
                <g id="zoomPlus">
                        <use xlink:href="#rim" fill="#404040">
                                <set attributeName="fill" to="#808080" begin="zoomplus.mouseover" end="zoomplus.mouseout"/>
                        </use>
                        <path d="M-4,0h8M0,-4v8" fill="none" stroke="white" stroke-width="1.5" pointer-events="none"/>
                </g>
                <g id="zoomMin">
                        <use xlink:href="#rim" fill="#404040">
                                <set attributeName="fill" to="#808080" begin="zoomminus.mouseover" end="zoomminus.mouseout"/>
                        </use>
                        <path d="M-4,0h8" fill="none" stroke="white" stroke-width="1.5" pointer-events="none"/>
                </g>
                <g id="dirArrow">
                        <path fill="none" stroke="white" stroke-width="1.5" d="M0,-3.0v7 M-2.5,-0.5L0,-3.0L2.5,-0.5"/>
                </g>
               <g id="resetDef">
                       <use xlink:href="#rim2" fill="#404040">
                               <set attributeName="fill" to="#808080" begin="reset.mouseover" end="reset.mouseout"/>
                       </use>
               </g>
        </defs>

<script type="text/javascript">
var viewWidth = 634;
var viewHeight = 657;
var sectionId = 'dynsection-1';
</script>
<script xlink:href="../../svgpan.js"/>
<svg id="graph" class="graph">
<g id="viewport">
<title>o2::ft0::DataBlockTCM</title>
<!-- Node5 -->
<g id="node1" class="node">
<title>Node5</title>
<polygon fill="#bfbfbf" stroke="#000000" points="229.5,-.5 229.5,-90.5 354.5,-90.5 354.5,-.5 229.5,-.5"/>
<text text-anchor="middle" x="292" y="-78.5" font-family="Helvetica,sans-Serif" font-size="10.00" fill="#000000">o2::ft0::DataBlockTCM</text>
<polyline fill="none" stroke="#000000" points="229.5,-71.5 354.5,-71.5 "/>
<text text-anchor="middle" x="292" y="-59.5" font-family="Helvetica,sans-Serif" font-size="10.00" fill="#000000"> </text>
<polyline fill="none" stroke="#000000" points="229.5,-52.5 354.5,-52.5 "/>
<text text-anchor="start" x="237.5" y="-40.5" font-family="Helvetica,sans-Serif" font-size="10.00" fill="#000000">+ DataBlockTCM()</text>
<text text-anchor="start" x="237.5" y="-29.5" font-family="Helvetica,sans-Serif" font-size="10.00" fill="#000000">+ DataBlockTCM()</text>
<text text-anchor="start" x="237.5" y="-18.5" font-family="Helvetica,sans-Serif" font-size="10.00" fill="#000000">+ deserialize()</text>
<text text-anchor="start" x="237.5" y="-7.5" font-family="Helvetica,sans-Serif" font-size="10.00" fill="#000000">+ sanityCheck()</text>
</g>
<!-- Node6 -->
<g id="node2" class="node">
<title>Node6</title>
<g id="a_node2"><a xlink:href="../../d0/d8a/classo2_1_1ft0_1_1DataBlockBase.html" target="_top" xlink:title="{o2::ft0::DataBlockBase\l\&lt; DataBlockTCM, RawHeaderTCM,\l RawDataTCM \&gt;\n||+ DataBlockBase()\l+ DataBlockBase()\l+ print()\l+ getInteractionRecord()\l+ decodeBlock()\l+ isCorrect()\l+ update()\l+ printLUT()\l# isNonZeroBlockSizes()\l}">
<polygon fill="none" stroke="#000000" points="200,-128.5 200,-295.5 384,-295.5 384,-128.5 200,-128.5"/>
<text text-anchor="start" x="208" y="-283.5" font-family="Helvetica,sans-Serif" font-size="10.00" fill="#000000">o2::ft0::DataBlockBase</text>
<text text-anchor="start" x="208" y="-272.5" font-family="Helvetica,sans-Serif" font-size="10.00" fill="#000000">&lt; DataBlockTCM, RawHeaderTCM,</text>
<text text-anchor="middle" x="292" y="-261.5" font-family="Helvetica,sans-Serif" font-size="10.00" fill="#000000"> RawDataTCM &gt;</text>
<polyline fill="none" stroke="#000000" points="200,-254.5 384,-254.5 "/>
<text text-anchor="middle" x="292" y="-242.5" font-family="Helvetica,sans-Serif" font-size="10.00" fill="#000000"> </text>
<polyline fill="none" stroke="#000000" points="200,-235.5 384,-235.5 "/>
<text text-anchor="start" x="208" y="-223.5" font-family="Helvetica,sans-Serif" font-size="10.00" fill="#000000">+ DataBlockBase()</text>
<text text-anchor="start" x="208" y="-212.5" font-family="Helvetica,sans-Serif" font-size="10.00" fill="#000000">+ DataBlockBase()</text>
<text text-anchor="start" x="208" y="-201.5" font-family="Helvetica,sans-Serif" font-size="10.00" fill="#000000">+ print()</text>
<text text-anchor="start" x="208" y="-190.5" font-family="Helvetica,sans-Serif" font-size="10.00" fill="#000000">+ getInteractionRecord()</text>
<text text-anchor="start" x="208" y="-179.5" font-family="Helvetica,sans-Serif" font-size="10.00" fill="#000000">+ decodeBlock()</text>
<text text-anchor="start" x="208" y="-168.5" font-family="Helvetica,sans-Serif" font-size="10.00" fill="#000000">+ isCorrect()</text>
<text text-anchor="start" x="208" y="-157.5" font-family="Helvetica,sans-Serif" font-size="10.00" fill="#000000">+ update()</text>
<text text-anchor="start" x="208" y="-146.5" font-family="Helvetica,sans-Serif" font-size="10.00" fill="#000000">+ printLUT()</text>
<text text-anchor="start" x="208" y="-135.5" font-family="Helvetica,sans-Serif" font-size="10.00" fill="#000000"># isNonZeroBlockSizes()</text>
</a>
</g>
</g>
<!-- Node6&#45;&gt;Node5 -->
<g id="edge1" class="edge">
<title>Node6&#45;&gt;Node5</title>
<path fill="none" stroke="#191970" d="M292,-117.9641C292,-108.5202 292,-99.2646 292,-90.6945"/>
<polygon fill="none" stroke="#191970" points="288.5001,-118.2622 292,-128.2622 295.5001,-118.2622 288.5001,-118.2622"/>
</g>
<!-- Node7 -->
<g id="node3" class="node">
<title>Node7</title>
<polygon fill="none" stroke="#bfbfbf" points="0,-387.5 0,-477.5 212,-477.5 212,-387.5 0,-387.5"/>
<text text-anchor="start" x="8" y="-465.5" font-family="Helvetica,sans-Serif" font-size="10.00" fill="#000000">boost::mpl::inherit</text>
<text text-anchor="start" x="8" y="-454.5" font-family="Helvetica,sans-Serif" font-size="10.00" fill="#000000">::type&lt; DataBlockWrapper</text>
<text text-anchor="start" x="8" y="-443.5" font-family="Helvetica,sans-Serif" font-size="10.00" fill="#000000">&lt; RawHeaderTCM &gt;, DataBlockWrapper</text>
<text text-anchor="middle" x="106" y="-432.5" font-family="Helvetica,sans-Serif" font-size="10.00" fill="#000000">&lt; DataStructures &gt;... &gt;</text>
<polyline fill="none" stroke="#bfbfbf" points="0,-425.5 212,-425.5 "/>
<text text-anchor="middle" x="106" y="-413.5" font-family="Helvetica,sans-Serif" font-size="10.00" fill="#000000"> </text>
<polyline fill="none" stroke="#bfbfbf" points="0,-406.5 212,-406.5 "/>
<text text-anchor="middle" x="106" y="-394.5" font-family="Helvetica,sans-Serif" font-size="10.00" fill="#000000"> </text>
</g>
<!-- Node7&#45;&gt;Node6 -->
<g id="edge2" class="edge">
<title>Node7&#45;&gt;Node6</title>
<path fill="none" stroke="#191970" d="M150.7743,-379.4207C171.8882,-354.3906 197.5868,-323.9253 221.2451,-295.8788"/>
<polygon fill="none" stroke="#191970" points="147.8612,-377.446 144.0887,-387.3465 153.2118,-381.9594 147.8612,-377.446"/>
</g>
<!-- Node8 -->
<g id="node4" class="node">
<title>Node8</title>
<polygon fill="none" stroke="#bfbfbf" points="245.5,-575 245.5,-632 290.5,-632 290.5,-575 245.5,-575"/>
<text text-anchor="middle" x="268" y="-620" font-family="Helvetica,sans-Serif" font-size="10.00" fill="#000000">size_t</text>
<polyline fill="none" stroke="#bfbfbf" points="245.5,-613 290.5,-613 "/>
<text text-anchor="middle" x="268" y="-601" font-family="Helvetica,sans-Serif" font-size="10.00" fill="#000000"> </text>
<polyline fill="none" stroke="#bfbfbf" points="245.5,-594 290.5,-594 "/>
<text text-anchor="middle" x="268" y="-582" font-family="Helvetica,sans-Serif" font-size="10.00" fill="#000000"> </text>
</g>
<!-- Node8&#45;&gt;Node6 -->
<g id="edge3" class="edge">
<title>Node8&#45;&gt;Node6</title>
<path fill="none" stroke="#404040" d="M263.7032,-574.8286C261.1915,-556.5995 258.2722,-532.4713 257,-511 252.8729,-441.3444 248.5892,-423.269 257,-354 258.8233,-338.984 261.6934,-323.2669 265.0243,-307.9881"/>
<polygon fill="none" stroke="#404040" points="265.1234,-307.552 262.5528,-300.8146 267.7833,-295.8505 270.3538,-302.5879 265.1234,-307.552"/>
<text text-anchor="middle" x="278" y="-430" font-family="Helvetica,sans-Serif" font-size="10.00" fill="#000000"> +mSize</text>
</g>
<!-- Node10 -->
<g id="node6" class="node">
<title>Node10</title>
<g id="a_node6"><a xlink:href="../../d0/d8a/classo2_1_1ft0_1_1DataBlockBase.html" target="_top" xlink:title="{o2::ft0::DataBlockBase\l\&lt; DataBlock, Header, DataStructures \&gt;\n||+ DataBlockBase()\l+ DataBlockBase()\l+ print()\l+ getInteractionRecord()\l+ decodeBlock()\l+ isCorrect()\l+ update()\l+ printLUT()\l# isNonZeroBlockSizes()\l}">
<polygon fill="none" stroke="#000000" points="308.5,-354.5 308.5,-510.5 517.5,-510.5 517.5,-354.5 308.5,-354.5"/>
<text text-anchor="start" x="316.5" y="-498.5" font-family="Helvetica,sans-Serif" font-size="10.00" fill="#000000">o2::ft0::DataBlockBase</text>
<text text-anchor="middle" x="413" y="-487.5" font-family="Helvetica,sans-Serif" font-size="10.00" fill="#000000">&lt; DataBlock, Header, DataStructures &gt;</text>
<polyline fill="none" stroke="#000000" points="308.5,-480.5 517.5,-480.5 "/>
<text text-anchor="middle" x="413" y="-468.5" font-family="Helvetica,sans-Serif" font-size="10.00" fill="#000000"> </text>
<polyline fill="none" stroke="#000000" points="308.5,-461.5 517.5,-461.5 "/>
<text text-anchor="start" x="316.5" y="-449.5" font-family="Helvetica,sans-Serif" font-size="10.00" fill="#000000">+ DataBlockBase()</text>
<text text-anchor="start" x="316.5" y="-438.5" font-family="Helvetica,sans-Serif" font-size="10.00" fill="#000000">+ DataBlockBase()</text>
<text text-anchor="start" x="316.5" y="-427.5" font-family="Helvetica,sans-Serif" font-size="10.00" fill="#000000">+ print()</text>
<text text-anchor="start" x="316.5" y="-416.5" font-family="Helvetica,sans-Serif" font-size="10.00" fill="#000000">+ getInteractionRecord()</text>
<text text-anchor="start" x="316.5" y="-405.5" font-family="Helvetica,sans-Serif" font-size="10.00" fill="#000000">+ decodeBlock()</text>
<text text-anchor="start" x="316.5" y="-394.5" font-family="Helvetica,sans-Serif" font-size="10.00" fill="#000000">+ isCorrect()</text>
<text text-anchor="start" x="316.5" y="-383.5" font-family="Helvetica,sans-Serif" font-size="10.00" fill="#000000">+ update()</text>
<text text-anchor="start" x="316.5" y="-372.5" font-family="Helvetica,sans-Serif" font-size="10.00" fill="#000000">+ printLUT()</text>
<text text-anchor="start" x="316.5" y="-361.5" font-family="Helvetica,sans-Serif" font-size="10.00" fill="#000000"># isNonZeroBlockSizes()</text>
</a>
</g>
</g>
<!-- Node8&#45;&gt;Node10 -->
<g id="edge7" class="edge">
<title>Node8&#45;&gt;Node10</title>
<path fill="none" stroke="#404040" d="M290.6563,-576.7813C303.8391,-561.2346 321.2834,-540.6623 338.8565,-519.9382"/>
<polygon fill="none" stroke="#404040" points="338.8921,-519.8961 339.7218,-512.7329 346.6531,-510.7436 345.8235,-517.9069 338.8921,-519.8961"/>
<text text-anchor="middle" x="349" y="-532" font-family="Helvetica,sans-Serif" font-size="10.00" fill="#000000"> +mSize</text>
</g>
<!-- Node9 -->
<g id="node5" class="node">
<title>Node9</title>
<polygon fill="none" stroke="#bfbfbf" points="526,-575 526,-632 564,-632 564,-575 526,-575"/>
<text text-anchor="middle" x="545" y="-620" font-family="Helvetica,sans-Serif" font-size="10.00" fill="#000000">bool</text>
<polyline fill="none" stroke="#bfbfbf" points="526,-613 564,-613 "/>
<text text-anchor="middle" x="545" y="-601" font-family="Helvetica,sans-Serif" font-size="10.00" fill="#000000"> </text>
<polyline fill="none" stroke="#bfbfbf" points="526,-594 564,-594 "/>
<text text-anchor="middle" x="545" y="-582" font-family="Helvetica,sans-Serif" font-size="10.00" fill="#000000"> </text>
</g>
<!-- Node9&#45;&gt;Node6 -->
<g id="edge4" class="edge">
<title>Node9&#45;&gt;Node6</title>
<path fill="none" stroke="#404040" d="M551.6091,-574.7858C563.0294,-517.1093 579.2455,-386.5145 512,-314 480.7966,-280.3516 436.2801,-256.8653 395.4448,-240.9875"/>
<polygon fill="none" stroke="#404040" points="395.2744,-240.9236 388.2517,-242.5613 384.0389,-236.7088 391.0616,-235.071 395.2744,-240.9236"/>
<text text-anchor="middle" x="593.5" y="-430" font-family="Helvetica,sans-Serif" font-size="10.00" fill="#000000"> +mIsCorrect</text>
</g>
<!-- Node9&#45;&gt;Node10 -->
<g id="edge8" class="edge">
<title>Node9&#45;&gt;Node10</title>
<path fill="none" stroke="#404040" d="M525.8532,-576.4125C520.5223,-569.9248 514.4192,-563.3381 508,-558 495.1546,-547.3179 486.9531,-551.672 475,-540 469.0449,-534.185 463.4752,-527.6768 458.3102,-520.8172"/>
<polygon fill="none" stroke="#404040" points="457.9752,-520.3447 451.2418,-517.7636 451.0347,-510.5555 457.768,-513.1366 457.9752,-520.3447"/>
<text text-anchor="middle" x="507.5" y="-532" font-family="Helvetica,sans-Serif" font-size="10.00" fill="#000000"> +mIsCorrect</text>
</g>
<!-- Node10&#45;&gt;Node6 -->
<g id="edge5" class="edge">
<title>Node10&#45;&gt;Node6</title>
<path fill="none" stroke="#ffa500" d="M365.2107,-345.413C356.2021,-328.9964 346.7997,-311.8622 337.8521,-295.5568"/>
<polygon fill="#ffa500" stroke="#ffa500" points="362.2904,-347.3667 370.1696,-354.4496 368.4272,-343.9991 362.2904,-347.3667"/>
<text text-anchor="start" x="360" y="-328" font-family="Helvetica,sans-Serif" font-size="10.00" fill="#000000"> &lt; DataBlockTCM, RawHeader</text>
<text text-anchor="middle" x="434" y="-317" font-family="Helvetica,sans-Serif" font-size="10.00" fill="#000000">TCM, RawDataTCM &gt;</text>
</g>
<!-- Node11 -->
<g id="node7" class="node">
<title>Node11</title>
<polygon fill="none" stroke="#bfbfbf" points="327.5,-558.5 327.5,-648.5 498.5,-648.5 498.5,-558.5 327.5,-558.5"/>
<text text-anchor="start" x="335.5" y="-636.5" font-family="Helvetica,sans-Serif" font-size="10.00" fill="#000000">boost::mpl::inherit</text>
<text text-anchor="start" x="335.5" y="-625.5" font-family="Helvetica,sans-Serif" font-size="10.00" fill="#000000">::type&lt; DataBlockWrapper</text>
<text text-anchor="start" x="335.5" y="-614.5" font-family="Helvetica,sans-Serif" font-size="10.00" fill="#000000">&lt; Header &gt;, DataBlockWrapper</text>
<text text-anchor="middle" x="413" y="-603.5" font-family="Helvetica,sans-Serif" font-size="10.00" fill="#000000">&lt; DataStructures &gt;... &gt;</text>
<polyline fill="none" stroke="#bfbfbf" points="327.5,-596.5 498.5,-596.5 "/>
<text text-anchor="middle" x="413" y="-584.5" font-family="Helvetica,sans-Serif" font-size="10.00" fill="#000000"> </text>
<polyline fill="none" stroke="#bfbfbf" points="327.5,-577.5 498.5,-577.5 "/>
<text text-anchor="middle" x="413" y="-565.5" font-family="Helvetica,sans-Serif" font-size="10.00" fill="#000000"> </text>
</g>
<!-- Node11&#45;&gt;Node10 -->
<g id="edge6" class="edge">
<title>Node11&#45;&gt;Node10</title>
<path fill="none" stroke="#191970" d="M413,-547.9569C413,-536.0985 413,-523.36 413,-510.8285"/>
<polygon fill="none" stroke="#191970" points="409.5001,-548.1241 413,-558.1241 416.5001,-548.1241 409.5001,-548.1241"/>
</g>
</g>
</svg>
        <g id="navigator" transform="translate(0 0)" fill="#404254">
                <rect fill="#f2f5e9" fill-opacity="0.5" stroke="#606060" stroke-width=".5" x="0" y="0" width="60" height="60"/>
                <use id="zoomplus" xlink:href="#zoomPlus" x="17" y="9" onmousedown="handleZoom(evt,'in')"/>
                <use id="zoomminus" xlink:href="#zoomMin" x="42" y="9" onmousedown="handleZoom(evt,'out')"/>
                <use id="reset" xlink:href="#resetDef" x="30" y="36" onmousedown="handleReset()"/>
                <g id="arrowUp" xlink:href="#dirArrow" transform="translate(30 24)" onmousedown="handlePan(0,-1)">
                  <use xlink:href="#rim" fill="#404040">
                        <set attributeName="fill" to="#808080" begin="arrowUp.mouseover" end="arrowUp.mouseout"/>
                  </use>
                  <path fill="none" stroke="white" stroke-width="1.5" d="M0,-3.0v7 M-2.5,-0.5L0,-3.0L2.5,-0.5"/>
                </g>
                <g id="arrowRight" xlink:href="#dirArrow" transform="rotate(90) translate(36 -43)" onmousedown="handlePan(1,0)">
                  <use xlink:href="#rim" fill="#404040">
                        <set attributeName="fill" to="#808080" begin="arrowRight.mouseover" end="arrowRight.mouseout"/>
                  </use>
                  <path fill="none" stroke="white" stroke-width="1.5" d="M0,-3.0v7 M-2.5,-0.5L0,-3.0L2.5,-0.5"/>
                </g>
                <g id="arrowDown" xlink:href="#dirArrow" transform="rotate(180) translate(-30 -48)" onmousedown="handlePan(0,1)">
                  <use xlink:href="#rim" fill="#404040">
                        <set attributeName="fill" to="#808080" begin="arrowDown.mouseover" end="arrowDown.mouseout"/>
                  </use>
                  <path fill="none" stroke="white" stroke-width="1.5" d="M0,-3.0v7 M-2.5,-0.5L0,-3.0L2.5,-0.5"/>
                </g>
                <g id="arrowLeft" xlink:href="#dirArrow" transform="rotate(270) translate(-36 17)" onmousedown="handlePan(-1,0)">
                  <use xlink:href="#rim" fill="#404040">
                        <set attributeName="fill" to="#808080" begin="arrowLeft.mouseover" end="arrowLeft.mouseout"/>
                  </use>
                  <path fill="none" stroke="white" stroke-width="1.5" d="M0,-3.0v7 M-2.5,-0.5L0,-3.0L2.5,-0.5"/>
                </g>
        </g>
        <svg viewBox="0 0 15 15" width="100%" height="30px" preserveAspectRatio="xMaxYMin meet">
         <g id="arrow_out" transform="scale(0.3 0.3)">
          <a xlink:href="classo2_1_1ft0_1_1DataBlockTCM__coll__graph_org.svg" target="_base">
           <rect id="button" ry="5" rx="5" y="6" x="6" height="38" width="38"
                fill="#f2f5e9" fill-opacity="0.5" stroke="#606060" stroke-width="1.0"/>
           <path id="arrow"
             d="M 11.500037,31.436501 C 11.940474,20.09759 22.043105,11.32322 32.158766,21.979434 L 37.068811,17.246167 C 37.068811,17.246167 37.088388,32 37.088388,32 L 22.160133,31.978069 C 22.160133,31.978069 26.997745,27.140456 26.997745,27.140456 C 18.528582,18.264221 13.291696,25.230495 11.500037,31.436501 z"
             style="fill:#404040;"/>
          </a>
         </g>
        </svg>
</svg>
