<?xml version="1.0" encoding="UTF-8" standalone="no"?>
<!DOCTYPE svg PUBLIC "-//W3C//DTD SVG 1.1//EN"
 "http://www.w3.org/Graphics/SVG/1.1/DTD/svg11.dtd">
<!-- Generated by graphviz version 2.40.1 (20161225.0304)
 -->
<!-- Title: o2::framework::MessageContext::ContextObject Pages: 1 -->
<svg width="186pt" height="259pt"
 viewBox="0.00 0.00 185.50 259.00" xmlns="http://www.w3.org/2000/svg" xmlns:xlink="http://www.w3.org/1999/xlink">
<g id="graph0" class="graph" transform="scale(1 1) rotate(0) translate(4 255)">
<title>o2::framework::MessageContext::ContextObject</title>
<!-- Node5 -->
<g id="node1" class="node">
<title>Node5</title>
<polygon fill="#bfbfbf" stroke="#000000" points="2.5,-.5 2.5,-145.5 177.5,-145.5 177.5,-.5 2.5,-.5"/>
<text text-anchor="start" x="10.5" y="-133.5" font-family="Helvetica,sans-Serif" font-size="10.00" fill="#000000">o2::framework::MessageContext</text>
<text text-anchor="middle" x="90" y="-122.5" font-family="Helvetica,sans-Serif" font-size="10.00" fill="#000000">::ContextObject</text>
<polyline fill="none" stroke="#000000" points="2.5,-115.5 177.5,-115.5 "/>
<text text-anchor="middle" x="90" y="-103.5" font-family="Helvetica,sans-Serif" font-size="10.00" fill="#000000"> </text>
<polyline fill="none" stroke="#000000" points="2.5,-96.5 177.5,-96.5 "/>
<text text-anchor="start" x="10.5" y="-84.5" font-family="Helvetica,sans-Serif" font-size="10.00" fill="#000000">+ ContextObject()</text>
<text text-anchor="start" x="10.5" y="-73.5" font-family="Helvetica,sans-Serif" font-size="10.00" fill="#000000">+ ContextObject()</text>
<text text-anchor="start" x="10.5" y="-62.5" font-family="Helvetica,sans-Serif" font-size="10.00" fill="#000000">+ ContextObject()</text>
<text text-anchor="start" x="10.5" y="-51.5" font-family="Helvetica,sans-Serif" font-size="10.00" fill="#000000">+ ~ContextObject()</text>
<text text-anchor="start" x="10.5" y="-40.5" font-family="Helvetica,sans-Serif" font-size="10.00" fill="#000000">+ finalize()</text>
<text text-anchor="start" x="10.5" y="-29.5" font-family="Helvetica,sans-Serif" font-size="10.00" fill="#000000">+ channel()</text>
<text text-anchor="start" x="10.5" y="-18.5" font-family="Helvetica,sans-Serif" font-size="10.00" fill="#000000">+ empty()</text>
<text text-anchor="start" x="10.5" y="-7.5" font-family="Helvetica,sans-Serif" font-size="10.00" fill="#000000">+ header()</text>
</g>
<!-- Node6 -->
<g id="node2" class="node">
<title>Node6</title>
<polygon fill="none" stroke="#bfbfbf" points="0,-193.5 0,-250.5 84,-250.5 84,-193.5 0,-193.5"/>
<text text-anchor="middle" x="42" y="-238.5" font-family="Helvetica,sans-Serif" font-size="10.00" fill="#000000">string const &amp;</text>
<polyline fill="none" stroke="#bfbfbf" points="0,-231.5 84,-231.5 "/>
<text text-anchor="middle" x="42" y="-219.5" font-family="Helvetica,sans-Serif" font-size="10.00" fill="#000000"> </text>
<polyline fill="none" stroke="#bfbfbf" points="0,-212.5 84,-212.5 "/>
<text text-anchor="middle" x="42" y="-200.5" font-family="Helvetica,sans-Serif" font-size="10.00" fill="#000000"> </text>
</g>
<!-- Node6&#45;&gt;Node5 -->
<g id="edge1" class="edge">
<title>Node6&#45;&gt;Node5</title>
<path fill="none" stroke="#404040" d="M48.1576,-193.4941C50.391,-184.0416 53.0878,-173.5083 56,-164 56.6853,-161.7625 57.3962,-159.5003 58.1279,-157.2225"/>
<polygon fill="none" stroke="#404040" points="58.1565,-157.136 56.2507,-150.1813 61.9375,-145.7472 63.8433,-152.7019 58.1565,-157.136"/>
<text text-anchor="middle" x="86.5" y="-167" font-family="Helvetica,sans-Serif" font-size="10.00" fill="#000000"> #mChannel</text>
</g>
<!-- Node7 -->
<g id="node3" class="node">
<title>Node7</title>
<polygon fill="none" stroke="#bfbfbf" points="102,-193.5 102,-250.5 176,-250.5 176,-193.5 102,-193.5"/>
<text text-anchor="middle" x="139" y="-238.5" font-family="Helvetica,sans-Serif" font-size="10.00" fill="#000000">FairMQParts</text>
<polyline fill="none" stroke="#bfbfbf" points="102,-231.5 176,-231.5 "/>
<text text-anchor="middle" x="139" y="-219.5" font-family="Helvetica,sans-Serif" font-size="10.00" fill="#000000"> </text>
<polyline fill="none" stroke="#bfbfbf" points="102,-212.5 176,-212.5 "/>
<text text-anchor="middle" x="139" y="-200.5" font-family="Helvetica,sans-Serif" font-size="10.00" fill="#000000"> </text>
</g>
<!-- Node7&#45;&gt;Node5 -->
<g id="edge2" class="edge">
<title>Node7&#45;&gt;Node5</title>
<path fill="none" stroke="#404040" d="M129.5523,-193.2713C126.0678,-182.6755 121.92,-170.0629 117.6423,-157.0551"/>
<polygon fill="none" stroke="#404040" points="117.6119,-156.9625 111.9377,-152.5125 113.863,-145.5631 119.5373,-150.0132 117.6119,-156.9625"/>
<text text-anchor="middle" x="146" y="-167" font-family="Helvetica,sans-Serif" font-size="10.00" fill="#000000"> #mParts</text>
</g>
</g>
</svg>
