<?xml version="1.0" encoding="UTF-8" standalone="no"?>
<!DOCTYPE svg PUBLIC "-//W3C//DTD SVG 1.1//EN"
 "http://www.w3.org/Graphics/SVG/1.1/DTD/svg11.dtd">
<!-- Generated by graphviz version 2.40.1 (20161225.0304)
 -->
<!-- Title: /home/travis/build/AliceO2Group/AliceO2/Detectors/PHOS/calib/src/CalibDB.cxx Pages: 1 -->
<svg width="1185pt" height="341pt"
 viewBox="0.00 0.00 1185.37 341.00" xmlns="http://www.w3.org/2000/svg" xmlns:xlink="http://www.w3.org/1999/xlink">
<g id="graph0" class="graph" transform="scale(1 1) rotate(0) translate(4 337)">
<title>/home/travis/build/AliceO2Group/AliceO2/Detectors/PHOS/calib/src/CalibDB.cxx</title>
<!-- Node0 -->
<g id="node1" class="node">
<title>Node0</title>
<polygon fill="#bfbfbf" stroke="#000000" points="460.873,-280.5 460.873,-332.5 587.873,-332.5 587.873,-280.5 460.873,-280.5"/>
<text text-anchor="start" x="468.873" y="-320.5" font-family="Helvetica,sans-Serif" font-size="10.00" fill="#000000">/home/travis/build</text>
<text text-anchor="start" x="468.873" y="-309.5" font-family="Helvetica,sans-Serif" font-size="10.00" fill="#000000">/AliceO2Group/AliceO2</text>
<text text-anchor="start" x="468.873" y="-298.5" font-family="Helvetica,sans-Serif" font-size="10.00" fill="#000000">/Detectors/PHOS/calib</text>
<text text-anchor="middle" x="524.373" y="-287.5" font-family="Helvetica,sans-Serif" font-size="10.00" fill="#000000">/src/CalibDB.cxx</text>
</g>
<!-- Node1 -->
<g id="node2" class="node">
<title>Node1</title>
<g id="a_node2"><a xlink:href="../../da/d65/PHOS_2calib_2include_2PHOSCalib_2BadChannelMap_8h.html" target="_top" xlink:title="PHOSCalib/BadChannelMap.h">
<polygon fill="none" stroke="#000000" points="58.873,-224.5 58.873,-243.5 217.873,-243.5 217.873,-224.5 58.873,-224.5"/>
<text text-anchor="middle" x="138.373" y="-231.5" font-family="Helvetica,sans-Serif" font-size="10.00" fill="#000000">PHOSCalib/BadChannelMap.h</text>
</a>
</g>
</g>
<!-- Node0&#45;&gt;Node1 -->
<g id="edge1" class="edge">
<title>Node0&#45;&gt;Node1</title>
<path fill="none" stroke="#191970" d="M460.633,-294.5281C388.0779,-280.9005 270.4166,-258.8009 199.1273,-245.4111"/>
<polygon fill="#191970" stroke="#191970" points="199.4309,-241.907 188.9566,-243.5008 198.1386,-248.7867 199.4309,-241.907"/>
</g>
<!-- Node12 -->
<g id="node13" class="node">
<title>Node12</title>
<g id="a_node13"><a xlink:href="../../de/d19/PHOS_2calib_2include_2PHOSCalib_2CalibDB_8h.html" target="_top" xlink:title="PHOSCalib/CalibDB.h">
<polygon fill="none" stroke="#000000" points="883.873,-224.5 883.873,-243.5 1002.873,-243.5 1002.873,-224.5 883.873,-224.5"/>
<text text-anchor="middle" x="943.373" y="-231.5" font-family="Helvetica,sans-Serif" font-size="10.00" fill="#000000">PHOSCalib/CalibDB.h</text>
</a>
</g>
</g>
<!-- Node0&#45;&gt;Node12 -->
<g id="edge13" class="edge">
<title>Node0&#45;&gt;Node12</title>
<path fill="none" stroke="#191970" d="M588.0101,-295.4888C666.3371,-281.9358 798.6669,-259.0386 877.8495,-245.3376"/>
<polygon fill="#191970" stroke="#191970" points="878.927,-248.7033 888.1838,-243.5495 877.7334,-241.8058 878.927,-248.7033"/>
</g>
<!-- Node2 -->
<g id="node3" class="node">
<title>Node2</title>
<polygon fill="none" stroke="#bfbfbf" points="19.873,-112.5 19.873,-131.5 68.873,-131.5 68.873,-112.5 19.873,-112.5"/>
<text text-anchor="middle" x="44.373" y="-119.5" font-family="Helvetica,sans-Serif" font-size="10.00" fill="#000000">iosfwd</text>
</g>
<!-- Node1&#45;&gt;Node2 -->
<g id="edge2" class="edge">
<title>Node1&#45;&gt;Node2</title>
<path fill="none" stroke="#191970" d="M130.3586,-224.4509C114.5418,-205.6054 79.1067,-163.3849 59.0117,-139.4419"/>
<polygon fill="#191970" stroke="#191970" points="61.4768,-136.9346 52.3671,-131.5249 56.115,-141.4347 61.4768,-136.9346"/>
</g>
<!-- Node3 -->
<g id="node4" class="node">
<title>Node3</title>
<polygon fill="none" stroke="#bfbfbf" points="116.373,-168.5 116.373,-187.5 160.373,-187.5 160.373,-168.5 116.373,-168.5"/>
<text text-anchor="middle" x="138.373" y="-175.5" font-family="Helvetica,sans-Serif" font-size="10.00" fill="#000000">bitset</text>
</g>
<!-- Node1&#45;&gt;Node3 -->
<g id="edge3" class="edge">
<title>Node1&#45;&gt;Node3</title>
<path fill="none" stroke="#191970" d="M138.373,-224.2455C138.373,-216.9382 138.373,-206.6944 138.373,-197.7046"/>
<polygon fill="#191970" stroke="#191970" points="141.8731,-197.6426 138.373,-187.6427 134.8731,-197.6427 141.8731,-197.6426"/>
</g>
<!-- Node4 -->
<g id="node5" class="node">
<title>Node4</title>
<polygon fill="none" stroke="#bfbfbf" points="537.873,-56.5 537.873,-75.5 596.873,-75.5 596.873,-56.5 537.873,-56.5"/>
<text text-anchor="middle" x="567.373" y="-63.5" font-family="Helvetica,sans-Serif" font-size="10.00" fill="#000000">Rtypes.h</text>
</g>
<!-- Node1&#45;&gt;Node4 -->
<g id="edge4" class="edge">
<title>Node1&#45;&gt;Node4</title>
<path fill="none" stroke="#191970" d="M114.2214,-224.4838C66.7929,-204.5075 -30.4894,-156.3762 10.373,-112 45.2643,-74.1084 405.4904,-67.4278 527.3428,-66.2512"/>
<polygon fill="#191970" stroke="#191970" points="527.7404,-69.7479 537.7088,-66.159 527.678,-62.7481 527.7404,-69.7479"/>
</g>
<!-- Node5 -->
<g id="node6" class="node">
<title>Node5</title>
<g id="a_node6"><a xlink:href="../../d7/d44/TObjectWrapper_8h.html" target="_top" xlink:title="CCDB/TObjectWrapper.h">
<polygon fill="none" stroke="#000000" points="195.373,-168.5 195.373,-187.5 329.373,-187.5 329.373,-168.5 195.373,-168.5"/>
<text text-anchor="middle" x="262.373" y="-175.5" font-family="Helvetica,sans-Serif" font-size="10.00" fill="#000000">CCDB/TObjectWrapper.h</text>
</a>
</g>
</g>
<!-- Node1&#45;&gt;Node5 -->
<g id="edge5" class="edge">
<title>Node1&#45;&gt;Node5</title>
<path fill="none" stroke="#191970" d="M159.6894,-224.3733C179.5946,-215.3838 209.5166,-201.8706 231.933,-191.7471"/>
<polygon fill="#191970" stroke="#191970" points="233.6617,-194.8068 241.3348,-187.5011 230.7805,-188.4272 233.6617,-194.8068"/>
</g>
<!-- Node5&#45;&gt;Node2 -->
<g id="edge9" class="edge">
<title>Node5&#45;&gt;Node2</title>
<path fill="none" stroke="#191970" d="M221.4356,-168.4487C185.9742,-160.0348 133.0822,-147.1513 78.9589,-132.3554"/>
<polygon fill="#191970" stroke="#191970" points="79.7705,-128.9487 69.2002,-129.6701 77.9133,-135.6978 79.7705,-128.9487"/>
</g>
<!-- Node6 -->
<g id="node7" class="node">
<title>Node6</title>
<polygon fill="none" stroke="#bfbfbf" points="86.873,-112.5 86.873,-131.5 143.873,-131.5 143.873,-112.5 86.873,-112.5"/>
<text text-anchor="middle" x="115.373" y="-119.5" font-family="Helvetica,sans-Serif" font-size="10.00" fill="#000000">TClass.h</text>
</g>
<!-- Node5&#45;&gt;Node6 -->
<g id="edge6" class="edge">
<title>Node5&#45;&gt;Node6</title>
<path fill="none" stroke="#191970" d="M237.1028,-168.3733C212.9764,-159.1822 176.4368,-145.2624 149.6853,-135.0713"/>
<polygon fill="#191970" stroke="#191970" points="150.9044,-131.7904 140.3135,-131.5011 148.4124,-138.3318 150.9044,-131.7904"/>
</g>
<!-- Node7 -->
<g id="node8" class="node">
<title>Node7</title>
<polygon fill="none" stroke="#bfbfbf" points="473.873,-112.5 473.873,-131.5 536.873,-131.5 536.873,-112.5 473.873,-112.5"/>
<text text-anchor="middle" x="505.373" y="-119.5" font-family="Helvetica,sans-Serif" font-size="10.00" fill="#000000">TObject.h</text>
</g>
<!-- Node5&#45;&gt;Node7 -->
<g id="edge7" class="edge">
<title>Node5&#45;&gt;Node7</title>
<path fill="none" stroke="#191970" d="M304.9775,-168.4971C343.8113,-159.7906 403.0185,-146.4053 463.8297,-132.103"/>
<polygon fill="#191970" stroke="#191970" points="464.67,-135.501 473.6005,-129.8003 463.0642,-128.6876 464.67,-135.501"/>
</g>
<!-- Node8 -->
<g id="node9" class="node">
<title>Node8</title>
<polygon fill="none" stroke="#bfbfbf" points="162.373,-112.5 162.373,-131.5 220.373,-131.5 220.373,-112.5 162.373,-112.5"/>
<text text-anchor="middle" x="191.373" y="-119.5" font-family="Helvetica,sans-Serif" font-size="10.00" fill="#000000">cxxabi.h</text>
</g>
<!-- Node5&#45;&gt;Node8 -->
<g id="edge8" class="edge">
<title>Node5&#45;&gt;Node8</title>
<path fill="none" stroke="#191970" d="M250.0058,-168.2455C239.4176,-159.8943 223.9666,-147.7076 211.5837,-137.9408"/>
<polygon fill="#191970" stroke="#191970" points="213.6178,-135.0875 203.5986,-131.6427 209.2827,-140.5837 213.6178,-135.0875"/>
</g>
<!-- Node9 -->
<g id="node10" class="node">
<title>Node9</title>
<polygon fill="none" stroke="#bfbfbf" points="397.373,-112.5 397.373,-131.5 455.373,-131.5 455.373,-112.5 397.373,-112.5"/>
<text text-anchor="middle" x="426.373" y="-119.5" font-family="Helvetica,sans-Serif" font-size="10.00" fill="#000000">memory</text>
</g>
<!-- Node5&#45;&gt;Node9 -->
<g id="edge10" class="edge">
<title>Node5&#45;&gt;Node9</title>
<path fill="none" stroke="#191970" d="M290.5656,-168.3733C317.7183,-159.1016 358.9637,-145.0178 388.8755,-134.804"/>
<polygon fill="#191970" stroke="#191970" points="390.2158,-138.0449 398.5483,-131.5011 387.9538,-131.4204 390.2158,-138.0449"/>
</g>
<!-- Node10 -->
<g id="node11" class="node">
<title>Node10</title>
<polygon fill="none" stroke="#bfbfbf" points="238.873,-112.5 238.873,-131.5 303.873,-131.5 303.873,-112.5 238.873,-112.5"/>
<text text-anchor="middle" x="271.373" y="-119.5" font-family="Helvetica,sans-Serif" font-size="10.00" fill="#000000">stdexcept</text>
</g>
<!-- Node5&#45;&gt;Node10 -->
<g id="edge11" class="edge">
<title>Node5&#45;&gt;Node10</title>
<path fill="none" stroke="#191970" d="M263.9407,-168.2455C265.1151,-160.9382 266.7614,-150.6944 268.2062,-141.7046"/>
<polygon fill="#191970" stroke="#191970" points="271.6921,-142.0714 269.8233,-131.6427 264.7808,-140.9606 271.6921,-142.0714"/>
</g>
<!-- Node11 -->
<g id="node12" class="node">
<title>Node11</title>
<polygon fill="none" stroke="#bfbfbf" points="321.873,-112.5 321.873,-131.5 378.873,-131.5 378.873,-112.5 321.873,-112.5"/>
<text text-anchor="middle" x="350.373" y="-119.5" font-family="Helvetica,sans-Serif" font-size="10.00" fill="#000000">typeinfo</text>
</g>
<!-- Node5&#45;&gt;Node11 -->
<g id="edge12" class="edge">
<title>Node5&#45;&gt;Node11</title>
<path fill="none" stroke="#191970" d="M277.7015,-168.2455C291.2034,-159.6534 311.0852,-147.0014 326.6416,-137.1018"/>
<polygon fill="#191970" stroke="#191970" points="328.6627,-139.9643 335.2203,-131.6427 324.9045,-134.0587 328.6627,-139.9643"/>
</g>
<!-- Node12&#45;&gt;Node4 -->
<g id="edge17" class="edge">
<title>Node12&#45;&gt;Node4</title>
<path fill="none" stroke="#191970" d="M945.5799,-224.3829C950.2509,-201.2885 958.3274,-142.3698 927.373,-112 878.0352,-63.5939 691.9181,-87.1103 607.2041,-75.8711"/>
<polygon fill="#191970" stroke="#191970" points="607.5756,-72.3864 597.1506,-74.2757 606.4784,-79.2999 607.5756,-72.3864"/>
</g>
<!-- Node13 -->
<g id="node14" class="node">
<title>Node13</title>
<polygon fill="none" stroke="#bfbfbf" points="971.873,-168.5 971.873,-187.5 1036.873,-187.5 1036.873,-168.5 971.873,-168.5"/>
<text text-anchor="middle" x="1004.373" y="-175.5" font-family="Helvetica,sans-Serif" font-size="10.00" fill="#000000">exception</text>
</g>
<!-- Node12&#45;&gt;Node13 -->
<g id="edge14" class="edge">
<title>Node12&#45;&gt;Node13</title>
<path fill="none" stroke="#191970" d="M953.9984,-224.2455C962.9203,-216.0549 975.8611,-204.1749 986.3923,-194.5069"/>
<polygon fill="#191970" stroke="#191970" points="988.8698,-196.9837 993.8694,-187.6427 984.1359,-191.8271 988.8698,-196.9837"/>
</g>
<!-- Node14 -->
<g id="node15" class="node">
<title>Node14</title>
<polygon fill="none" stroke="#bfbfbf" points="880.373,-112.5 880.373,-131.5 918.373,-131.5 918.373,-112.5 880.373,-112.5"/>
<text text-anchor="middle" x="899.373" y="-119.5" font-family="Helvetica,sans-Serif" font-size="10.00" fill="#000000">map</text>
</g>
<!-- Node12&#45;&gt;Node14 -->
<g id="edge15" class="edge">
<title>Node12&#45;&gt;Node14</title>
<path fill="none" stroke="#191970" d="M939.6216,-224.4509C932.3804,-206.0186 916.3544,-165.2254 906.8542,-141.043"/>
<polygon fill="#191970" stroke="#191970" points="910.0292,-139.5526 903.1149,-131.5249 903.5139,-142.1122 910.0292,-139.5526"/>
</g>
<!-- Node15 -->
<g id="node16" class="node">
<title>Node15</title>
<polygon fill="none" stroke="#bfbfbf" points="1010.373,-112.5 1010.373,-131.5 1054.373,-131.5 1054.373,-112.5 1010.373,-112.5"/>
<text text-anchor="middle" x="1032.373" y="-119.5" font-family="Helvetica,sans-Serif" font-size="10.00" fill="#000000">string</text>
</g>
<!-- Node12&#45;&gt;Node15 -->
<g id="edge16" class="edge">
<title>Node12&#45;&gt;Node15</title>
<path fill="none" stroke="#191970" d="M992.3431,-224.4436C1012.6608,-217.8037 1034.2774,-206.649 1046.373,-188 1055.5026,-173.924 1050.0333,-154.938 1043.4435,-140.9428"/>
<polygon fill="#191970" stroke="#191970" points="1046.3816,-139.0088 1038.6398,-131.7758 1040.1813,-142.2579 1046.3816,-139.0088"/>
</g>
<!-- Node16 -->
<g id="node17" class="node">
<title>Node16</title>
<polygon fill="none" stroke="#bfbfbf" points="1093.373,-168.5 1093.373,-187.5 1177.373,-187.5 1177.373,-168.5 1093.373,-168.5"/>
<text text-anchor="middle" x="1135.373" y="-175.5" font-family="Helvetica,sans-Serif" font-size="10.00" fill="#000000">RStringView.h</text>
</g>
<!-- Node12&#45;&gt;Node16 -->
<g id="edge18" class="edge">
<title>Node12&#45;&gt;Node16</title>
<path fill="none" stroke="#191970" d="M976.379,-224.3733C1008.5821,-214.9807 1057.7173,-200.6496 1092.837,-190.4064"/>
<polygon fill="#191970" stroke="#191970" points="1094.1778,-193.6612 1102.7978,-187.5011 1092.2177,-186.9412 1094.1778,-193.6612"/>
</g>
<!-- Node17 -->
<g id="node18" class="node">
<title>Node17</title>
<g id="a_node18"><a xlink:href="../../dd/d3e/CcdbApi_8h.html" target="_top" xlink:title="CCDB/CcdbApi.h">
<polygon fill="none" stroke="#000000" points="736.373,-168.5 736.373,-187.5 832.373,-187.5 832.373,-168.5 736.373,-168.5"/>
<text text-anchor="middle" x="784.373" y="-175.5" font-family="Helvetica,sans-Serif" font-size="10.00" fill="#000000">CCDB/CcdbApi.h</text>
</a>
</g>
</g>
<!-- Node12&#45;&gt;Node17 -->
<g id="edge19" class="edge">
<title>Node12&#45;&gt;Node17</title>
<path fill="none" stroke="#191970" d="M916.04,-224.3733C889.8296,-215.1419 850.0747,-201.1402 821.1062,-190.9375"/>
<polygon fill="#191970" stroke="#191970" points="821.9442,-187.5219 811.3494,-187.5011 819.6188,-194.1244 821.9442,-187.5219"/>
</g>
<!-- Node17&#45;&gt;Node7 -->
<g id="edge24" class="edge">
<title>Node17&#45;&gt;Node7</title>
<path fill="none" stroke="#191970" d="M736.1472,-169.5201C689.9359,-161.2146 618.0039,-147.8188 547.194,-132.3267"/>
<polygon fill="#191970" stroke="#191970" points="547.7315,-128.8613 537.2126,-130.1271 546.225,-135.6973 547.7315,-128.8613"/>
</g>
<!-- Node17&#45;&gt;Node9 -->
<g id="edge21" class="edge">
<title>Node17&#45;&gt;Node9</title>
<path fill="none" stroke="#191970" d="M736.3703,-172.8381C675.485,-165.9069 567.126,-152.292 465.5595,-132.0653"/>
<polygon fill="#191970" stroke="#191970" points="466.2481,-128.6338 455.7535,-130.0872 464.8639,-135.4956 466.2481,-128.6338"/>
</g>
<!-- Node17&#45;&gt;Node14 -->
<g id="edge22" class="edge">
<title>Node17&#45;&gt;Node14</title>
<path fill="none" stroke="#191970" d="M804.1422,-168.3733C822.6313,-159.3699 850.439,-145.8288 871.2389,-135.7001"/>
<polygon fill="#191970" stroke="#191970" points="872.7856,-138.8399 880.2439,-131.315 869.7209,-132.5464 872.7856,-138.8399"/>
</g>
<!-- Node17&#45;&gt;Node15 -->
<g id="edge20" class="edge">
<title>Node17&#45;&gt;Node15</title>
<path fill="none" stroke="#191970" d="M826.724,-168.4369C875.905,-157.3315 955.9336,-139.2605 1000.2624,-129.2508"/>
<polygon fill="#191970" stroke="#191970" points="1001.2176,-132.6233 1010.2011,-127.0066 999.6757,-125.7952 1001.2176,-132.6233"/>
</g>
<!-- Node18 -->
<g id="node19" class="node">
<title>Node18</title>
<polygon fill="none" stroke="#bfbfbf" points="796.873,-112.5 796.873,-131.5 861.873,-131.5 861.873,-112.5 796.873,-112.5"/>
<text text-anchor="middle" x="829.373" y="-119.5" font-family="Helvetica,sans-Serif" font-size="10.00" fill="#000000">curl/curl.h</text>
</g>
<!-- Node17&#45;&gt;Node18 -->
<g id="edge23" class="edge">
<title>Node17&#45;&gt;Node18</title>
<path fill="none" stroke="#191970" d="M792.2114,-168.2455C798.5351,-160.3761 807.5954,-149.101 815.1866,-139.6542"/>
<polygon fill="#191970" stroke="#191970" points="818.0888,-141.6302 821.6245,-131.6427 812.6322,-137.2454 818.0888,-141.6302"/>
</g>
<!-- Node19 -->
<g id="node20" class="node">
<title>Node19</title>
<polygon fill="none" stroke="#bfbfbf" points="704.373,-112.5 704.373,-131.5 778.373,-131.5 778.373,-112.5 704.373,-112.5"/>
<text text-anchor="middle" x="741.373" y="-119.5" font-family="Helvetica,sans-Serif" font-size="10.00" fill="#000000">TMessage.h</text>
</g>
<!-- Node17&#45;&gt;Node19 -->
<g id="edge25" class="edge">
<title>Node17&#45;&gt;Node19</title>
<path fill="none" stroke="#191970" d="M776.883,-168.2455C770.8404,-160.3761 762.1827,-149.101 754.9289,-139.6542"/>
<polygon fill="#191970" stroke="#191970" points="757.6436,-137.4426 748.7772,-131.6427 752.0915,-141.7058 757.6436,-137.4426"/>
</g>
<!-- Node20 -->
<g id="node21" class="node">
<title>Node20</title>
<g id="a_node21"><a xlink:href="../../d4/dab/CcdbObjectInfo_8h.html" target="_top" xlink:title="CCDB/CcdbObjectInfo.h">
<polygon fill="none" stroke="#000000" points="554.873,-112.5 554.873,-131.5 685.873,-131.5 685.873,-112.5 554.873,-112.5"/>
<text text-anchor="middle" x="620.373" y="-119.5" font-family="Helvetica,sans-Serif" font-size="10.00" fill="#000000">CCDB/CcdbObjectInfo.h</text>
</a>
</g>
</g>
<!-- Node17&#45;&gt;Node20 -->
<g id="edge26" class="edge">
<title>Node17&#45;&gt;Node20</title>
<path fill="none" stroke="#191970" d="M756.1804,-168.3733C729.0278,-159.1016 687.7824,-145.0178 657.8705,-134.804"/>
<polygon fill="#191970" stroke="#191970" points="658.7923,-131.4204 648.1977,-131.5011 656.5302,-138.0449 658.7923,-131.4204"/>
</g>
<!-- Node20&#45;&gt;Node4 -->
<g id="edge27" class="edge">
<title>Node20&#45;&gt;Node4</title>
<path fill="none" stroke="#191970" d="M611.1411,-112.2455C603.5413,-104.2155 592.5853,-92.6394 583.5363,-83.0781"/>
<polygon fill="#191970" stroke="#191970" points="585.915,-80.4998 576.4991,-75.6427 580.831,-85.3115 585.915,-80.4998"/>
</g>
<!-- Node21 -->
<g id="node22" class="node">
<title>Node21</title>
<g id="a_node22"><a xlink:href="../../dd/da4/Logger_8h.html" target="_top" xlink:title="Framework/Logger.h">
<polygon fill="none" stroke="#000000" points="614.873,-56.5 614.873,-75.5 729.873,-75.5 729.873,-56.5 614.873,-56.5"/>
<text text-anchor="middle" x="672.373" y="-63.5" font-family="Helvetica,sans-Serif" font-size="10.00" fill="#000000">Framework/Logger.h</text>
</a>
</g>
</g>
<!-- Node20&#45;&gt;Node21 -->
<g id="edge28" class="edge">
<title>Node20&#45;&gt;Node21</title>
<path fill="none" stroke="#191970" d="M629.4307,-112.2455C636.8872,-104.2155 647.6365,-92.6394 656.5148,-83.0781"/>
<polygon fill="#191970" stroke="#191970" points="659.1794,-85.3522 663.4191,-75.6427 654.0498,-80.589 659.1794,-85.3522"/>
</g>
<!-- Node22 -->
<g id="node23" class="node">
<title>Node22</title>
<polygon fill="none" stroke="#bfbfbf" points="618.373,-.5 618.373,-19.5 726.373,-19.5 726.373,-.5 618.373,-.5"/>
<text text-anchor="middle" x="672.373" y="-7.5" font-family="Helvetica,sans-Serif" font-size="10.00" fill="#000000">fairlogger/Logger.h</text>
</g>
<!-- Node21&#45;&gt;Node22 -->
<g id="edge29" class="edge">
<title>Node21&#45;&gt;Node22</title>
<path fill="none" stroke="#191970" d="M672.373,-56.2455C672.373,-48.9382 672.373,-38.6944 672.373,-29.7046"/>
<polygon fill="#191970" stroke="#191970" points="675.8731,-29.6426 672.373,-19.6427 668.8731,-29.6427 675.8731,-29.6426"/>
</g>
</g>
</svg>
