<?xml version="1.0" encoding="UTF-8" standalone="no"?>
<!DOCTYPE svg PUBLIC "-//W3C//DTD SVG 1.1//EN"
 "http://www.w3.org/Graphics/SVG/1.1/DTD/svg11.dtd">
<!-- Generated by graphviz version 2.40.1 (20161225.0304)
 -->
<!-- Title: HFD0CandidateSelector Pages: 1 -->
<svg width="555pt" height="656pt"
 viewBox="0.00 0.00 554.50 656.00" xmlns="http://www.w3.org/2000/svg" xmlns:xlink="http://www.w3.org/1999/xlink">
<g id="graph0" class="graph" transform="scale(1 1) rotate(0) translate(4 652)">
<title>HFD0CandidateSelector</title>
<!-- Node1 -->
<g id="node1" class="node">
<title>Node1</title>
<polygon fill="#bfbfbf" stroke="#000000" points="114,-.5 114,-156.5 269,-156.5 269,-.5 114,-.5"/>
<text text-anchor="middle" x="191.5" y="-144.5" font-family="Helvetica,sans-Serif" font-size="10.00" fill="#000000">HFD0CandidateSelector</text>
<polyline fill="none" stroke="#000000" points="114,-137.5 269,-137.5 "/>
<text text-anchor="start" x="122" y="-125.5" font-family="Helvetica,sans-Serif" font-size="10.00" fill="#000000">+ d_pTCandMax</text>
<polyline fill="none" stroke="#000000" points="114,-118.5 269,-118.5 "/>
<text text-anchor="start" x="122" y="-106.5" font-family="Helvetica,sans-Serif" font-size="10.00" fill="#000000">+ getpTBin()</text>
<text text-anchor="start" x="122" y="-95.5" font-family="Helvetica,sans-Serif" font-size="10.00" fill="#000000">+ daughterSelection()</text>
<text text-anchor="start" x="122" y="-84.5" font-family="Helvetica,sans-Serif" font-size="10.00" fill="#000000">+ selectionTopol()</text>
<text text-anchor="start" x="122" y="-73.5" font-family="Helvetica,sans-Serif" font-size="10.00" fill="#000000">+ selectionTopolConjugate()</text>
<text text-anchor="start" x="122" y="-62.5" font-family="Helvetica,sans-Serif" font-size="10.00" fill="#000000">+ validTPCPID()</text>
<text text-anchor="start" x="122" y="-51.5" font-family="Helvetica,sans-Serif" font-size="10.00" fill="#000000">+ validTOFPID()</text>
<text text-anchor="start" x="122" y="-40.5" font-family="Helvetica,sans-Serif" font-size="10.00" fill="#000000">+ selectionPIDTPC()</text>
<text text-anchor="start" x="122" y="-29.5" font-family="Helvetica,sans-Serif" font-size="10.00" fill="#000000">+ selectionPIDTOF()</text>
<text text-anchor="start" x="122" y="-18.5" font-family="Helvetica,sans-Serif" font-size="10.00" fill="#000000">+ selectionPID()</text>
<text text-anchor="start" x="122" y="-7.5" font-family="Helvetica,sans-Serif" font-size="10.00" fill="#000000">+ process()</text>
</g>
<!-- Node2 -->
<g id="node2" class="node">
<title>Node2</title>
<g id="a_node2"><a xlink:href="../../d6/d86/structo2_1_1framework_1_1Produces.html" target="_top" xlink:title="{o2::framework::Produces\l\&lt; aod::HFSelD0Candidate \&gt;\n||}">
<polygon fill="none" stroke="#000000" points="28.5,-325.5 28.5,-393.5 182.5,-393.5 182.5,-325.5 28.5,-325.5"/>
<text text-anchor="start" x="36.5" y="-381.5" font-family="Helvetica,sans-Serif" font-size="10.00" fill="#000000">o2::framework::Produces</text>
<text text-anchor="middle" x="105.5" y="-370.5" font-family="Helvetica,sans-Serif" font-size="10.00" fill="#000000">&lt; aod::HFSelD0Candidate &gt;</text>
<polyline fill="none" stroke="#000000" points="28.5,-363.5 182.5,-363.5 "/>
<text text-anchor="middle" x="105.5" y="-351.5" font-family="Helvetica,sans-Serif" font-size="10.00" fill="#000000"> </text>
<polyline fill="none" stroke="#000000" points="28.5,-344.5 182.5,-344.5 "/>
<text text-anchor="middle" x="105.5" y="-332.5" font-family="Helvetica,sans-Serif" font-size="10.00" fill="#000000"> </text>
</a>
</g>
</g>
<!-- Node2&#45;&gt;Node1 -->
<g id="edge1" class="edge">
<title>Node2&#45;&gt;Node1</title>
<path fill="none" stroke="#404040" d="M112.0885,-325.3666C119.7051,-287.9773 133.4136,-226.4743 150.5,-175 151.284,-172.638 152.1013,-170.2531 152.9459,-167.8545"/>
<polygon fill="none" stroke="#404040" points="152.9538,-167.8326 151.2589,-160.8235 157.077,-156.5631 158.7719,-163.5722 152.9538,-167.8326"/>
<text text-anchor="middle" x="200.5" y="-233" font-family="Helvetica,sans-Serif" font-size="10.00" fill="#000000"> +hfSelD0Candidate</text>
</g>
<!-- Node3 -->
<g id="node3" class="node">
<title>Node3</title>
<g id="a_node3"><a xlink:href="../../d6/d86/structo2_1_1framework_1_1Produces.html" target="_top" xlink:title="{o2::framework::Produces\&lt; T \&gt;\n||}">
<polygon fill="none" stroke="#000000" points="0,-463.5 0,-520.5 167,-520.5 167,-463.5 0,-463.5"/>
<text text-anchor="middle" x="83.5" y="-508.5" font-family="Helvetica,sans-Serif" font-size="10.00" fill="#000000">o2::framework::Produces&lt; T &gt;</text>
<polyline fill="none" stroke="#000000" points="0,-501.5 167,-501.5 "/>
<text text-anchor="middle" x="83.5" y="-489.5" font-family="Helvetica,sans-Serif" font-size="10.00" fill="#000000"> </text>
<polyline fill="none" stroke="#000000" points="0,-482.5 167,-482.5 "/>
<text text-anchor="middle" x="83.5" y="-470.5" font-family="Helvetica,sans-Serif" font-size="10.00" fill="#000000"> </text>
</a>
</g>
</g>
<!-- Node3&#45;&gt;Node2 -->
<g id="edge2" class="edge">
<title>Node3&#45;&gt;Node2</title>
<path fill="none" stroke="#ffa500" d="M81.993,-453.2673C82.1719,-443.3468 82.86,-432.7326 84.5,-423 86.14,-413.2674 89.0061,-402.9973 92.1033,-393.6197"/>
<polygon fill="#ffa500" stroke="#ffa500" points="78.4931,-453.2811 81.9723,-463.2883 85.4931,-453.2956 78.4931,-453.2811"/>
<text text-anchor="middle" x="155" y="-426" font-family="Helvetica,sans-Serif" font-size="10.00" fill="#000000"> &lt; aod::HFSelD0Candidate &gt;</text>
</g>
<!-- Node4 -->
<g id="node4" class="node">
<title>Node4</title>
<g id="a_node4"><a xlink:href="../../d8/d71/structo2_1_1framework_1_1Configurable.html" target="_top" xlink:title="{o2::framework::Configurable\l\&lt; double \&gt;\n||+ Configurable()\l+ operator double()\l+ operator&#45;\&gt;()\l}">
<polygon fill="none" stroke="#000000" points="214,-314.5 214,-404.5 369,-404.5 369,-314.5 214,-314.5"/>
<text text-anchor="start" x="222" y="-392.5" font-family="Helvetica,sans-Serif" font-size="10.00" fill="#000000">o2::framework::Configurable</text>
<text text-anchor="middle" x="291.5" y="-381.5" font-family="Helvetica,sans-Serif" font-size="10.00" fill="#000000">&lt; double &gt;</text>
<polyline fill="none" stroke="#000000" points="214,-374.5 369,-374.5 "/>
<text text-anchor="middle" x="291.5" y="-362.5" font-family="Helvetica,sans-Serif" font-size="10.00" fill="#000000"> </text>
<polyline fill="none" stroke="#000000" points="214,-355.5 369,-355.5 "/>
<text text-anchor="start" x="222" y="-343.5" font-family="Helvetica,sans-Serif" font-size="10.00" fill="#000000">+ Configurable()</text>
<text text-anchor="start" x="222" y="-332.5" font-family="Helvetica,sans-Serif" font-size="10.00" fill="#000000">+ operator double()</text>
<text text-anchor="start" x="222" y="-321.5" font-family="Helvetica,sans-Serif" font-size="10.00" fill="#000000">+ operator&#45;&gt;()</text>
</a>
</g>
</g>
<!-- Node4&#45;&gt;Node1 -->
<g id="edge3" class="edge">
<title>Node4&#45;&gt;Node1</title>
<path fill="none" stroke="#404040" d="M285.7104,-314.2735C279.8352,-276.1385 268.9259,-220.6398 250.5,-175 249.4995,-172.5219 248.4387,-170.0346 247.3267,-167.546"/>
<polygon fill="none" stroke="#404040" points="247.3006,-167.4909 241.1133,-163.7872 242.1524,-156.6513 248.3397,-160.355 247.3006,-167.4909"/>
<text text-anchor="middle" x="350" y="-288" font-family="Helvetica,sans-Serif" font-size="10.00" fill="#000000"> +d_nSigmaTOFCombined</text>
<text text-anchor="middle" x="350" y="-277" font-family="Helvetica,sans-Serif" font-size="10.00" fill="#000000">+d_TPCNClsFindablePIDCut</text>
<text text-anchor="middle" x="350" y="-266" font-family="Helvetica,sans-Serif" font-size="10.00" fill="#000000">+d_pidTOFMinpT</text>
<text text-anchor="middle" x="350" y="-255" font-family="Helvetica,sans-Serif" font-size="10.00" fill="#000000">+d_pidTOFMaxpT</text>
<text text-anchor="middle" x="350" y="-244" font-family="Helvetica,sans-Serif" font-size="10.00" fill="#000000">+d_pidTPCMinpT</text>
<text text-anchor="middle" x="350" y="-233" font-family="Helvetica,sans-Serif" font-size="10.00" fill="#000000">+d_pidTPCMaxpT</text>
<text text-anchor="middle" x="350" y="-222" font-family="Helvetica,sans-Serif" font-size="10.00" fill="#000000">+d_nSigmaTPC</text>
<text text-anchor="middle" x="350" y="-211" font-family="Helvetica,sans-Serif" font-size="10.00" fill="#000000">+d_nSigmaTPCCombined</text>
<text text-anchor="middle" x="350" y="-200" font-family="Helvetica,sans-Serif" font-size="10.00" fill="#000000">+d_pTCandMin</text>
<text text-anchor="middle" x="350" y="-189" font-family="Helvetica,sans-Serif" font-size="10.00" fill="#000000">+d_nSigmaTOF</text>
<text text-anchor="middle" x="350" y="-178" font-family="Helvetica,sans-Serif" font-size="10.00" fill="#000000">...</text>
</g>
<!-- Node5 -->
<g id="node5" class="node">
<title>Node5</title>
<polygon fill="none" stroke="#bfbfbf" points="218.5,-463.5 218.5,-520.5 268.5,-520.5 268.5,-463.5 218.5,-463.5"/>
<text text-anchor="middle" x="243.5" y="-508.5" font-family="Helvetica,sans-Serif" font-size="10.00" fill="#000000">double</text>
<polyline fill="none" stroke="#bfbfbf" points="218.5,-501.5 268.5,-501.5 "/>
<text text-anchor="middle" x="243.5" y="-489.5" font-family="Helvetica,sans-Serif" font-size="10.00" fill="#000000"> </text>
<polyline fill="none" stroke="#bfbfbf" points="218.5,-482.5 268.5,-482.5 "/>
<text text-anchor="middle" x="243.5" y="-470.5" font-family="Helvetica,sans-Serif" font-size="10.00" fill="#000000"> </text>
</g>
<!-- Node5&#45;&gt;Node4 -->
<g id="edge4" class="edge">
<title>Node5&#45;&gt;Node4</title>
<path fill="none" stroke="#404040" d="M243.9606,-463.4944C244.8818,-450.8027 246.9712,-435.8526 251.5,-423 252.3457,-420.5999 253.2952,-418.1964 254.3277,-415.8039"/>
<polygon fill="none" stroke="#404040" points="254.4544,-415.5424 253.4712,-408.3986 259.6873,-404.7435 260.6705,-411.8872 254.4544,-415.5424"/>
<text text-anchor="middle" x="271" y="-426" font-family="Helvetica,sans-Serif" font-size="10.00" fill="#000000"> +value</text>
</g>
<!-- Node6 -->
<g id="node6" class="node">
<title>Node6</title>
<polygon fill="none" stroke="#bfbfbf" points="312,-590.5 312,-647.5 341,-647.5 341,-590.5 312,-590.5"/>
<text text-anchor="middle" x="326.5" y="-635.5" font-family="Helvetica,sans-Serif" font-size="10.00" fill="#000000">int</text>
<polyline fill="none" stroke="#bfbfbf" points="312,-628.5 341,-628.5 "/>
<text text-anchor="middle" x="326.5" y="-616.5" font-family="Helvetica,sans-Serif" font-size="10.00" fill="#000000"> </text>
<polyline fill="none" stroke="#bfbfbf" points="312,-609.5 341,-609.5 "/>
<text text-anchor="middle" x="326.5" y="-597.5" font-family="Helvetica,sans-Serif" font-size="10.00" fill="#000000"> </text>
</g>
<!-- Node6&#45;&gt;Node4 -->
<g id="edge5" class="edge">
<title>Node6&#45;&gt;Node4</title>
<path fill="none" stroke="#404040" d="M322.0712,-590.4178C319.4819,-573.4532 316.2021,-551.5145 313.5,-532 308.171,-493.5134 302.64,-450.1277 298.4569,-416.495"/>
<polygon fill="none" stroke="#404040" points="298.4553,-416.4814 293.7478,-411.0188 296.9796,-404.5725 301.6871,-410.0351 298.4553,-416.4814"/>
<text text-anchor="middle" x="333.5" y="-495" font-family="Helvetica,sans-Serif" font-size="10.00" fill="#000000"> +name</text>
<text text-anchor="middle" x="333.5" y="-484" font-family="Helvetica,sans-Serif" font-size="10.00" fill="#000000">+help</text>
</g>
<!-- Node7 -->
<g id="node7" class="node">
<title>Node7</title>
<g id="a_node7"><a xlink:href="../../d8/d71/structo2_1_1framework_1_1Configurable.html" target="_top" xlink:title="{o2::framework::Configurable\&lt; T \&gt;\n||+ Configurable()\l+ operator T()\l+ operator&#45;\&gt;()\l}">
<polygon fill="none" stroke="#000000" points="362.5,-452.5 362.5,-531.5 546.5,-531.5 546.5,-452.5 362.5,-452.5"/>
<text text-anchor="middle" x="454.5" y="-519.5" font-family="Helvetica,sans-Serif" font-size="10.00" fill="#000000">o2::framework::Configurable&lt; T &gt;</text>
<polyline fill="none" stroke="#000000" points="362.5,-512.5 546.5,-512.5 "/>
<text text-anchor="middle" x="454.5" y="-500.5" font-family="Helvetica,sans-Serif" font-size="10.00" fill="#000000"> </text>
<polyline fill="none" stroke="#000000" points="362.5,-493.5 546.5,-493.5 "/>
<text text-anchor="start" x="370.5" y="-481.5" font-family="Helvetica,sans-Serif" font-size="10.00" fill="#000000">+ Configurable()</text>
<text text-anchor="start" x="370.5" y="-470.5" font-family="Helvetica,sans-Serif" font-size="10.00" fill="#000000">+ operator T()</text>
<text text-anchor="start" x="370.5" y="-459.5" font-family="Helvetica,sans-Serif" font-size="10.00" fill="#000000">+ operator&#45;&gt;()</text>
</a>
</g>
</g>
<!-- Node6&#45;&gt;Node7 -->
<g id="edge7" class="edge">
<title>Node6&#45;&gt;Node7</title>
<path fill="none" stroke="#404040" d="M341.1832,-604.4315C356.963,-588.775 382.8919,-563.0487 405.9672,-540.1536"/>
<polygon fill="none" stroke="#404040" points="406.1257,-539.9964 407.5676,-532.9309 414.6442,-531.5444 413.2023,-538.6099 406.1257,-539.9964"/>
<text text-anchor="middle" x="414.5" y="-564" font-family="Helvetica,sans-Serif" font-size="10.00" fill="#000000"> +name</text>
<text text-anchor="middle" x="414.5" y="-553" font-family="Helvetica,sans-Serif" font-size="10.00" fill="#000000">+help</text>
</g>
<!-- Node7&#45;&gt;Node4 -->
<g id="edge6" class="edge">
<title>Node7&#45;&gt;Node4</title>
<path fill="none" stroke="#ffa500" d="M397.6557,-445.7922C381.2148,-432.4277 363.2962,-417.8619 346.942,-404.5679"/>
<polygon fill="#ffa500" stroke="#ffa500" points="395.6272,-448.6538 405.5946,-452.2456 400.0426,-443.222 395.6272,-448.6538"/>
<text text-anchor="middle" x="413" y="-426" font-family="Helvetica,sans-Serif" font-size="10.00" fill="#000000"> &lt; double &gt;</text>
</g>
<!-- Node8 -->
<g id="node8" class="node">
<title>Node8</title>
<polygon fill="none" stroke="#bfbfbf" points="440,-590.5 440,-647.5 469,-647.5 469,-590.5 440,-590.5"/>
<text text-anchor="middle" x="454.5" y="-635.5" font-family="Helvetica,sans-Serif" font-size="10.00" fill="#000000">T</text>
<polyline fill="none" stroke="#bfbfbf" points="440,-628.5 469,-628.5 "/>
<text text-anchor="middle" x="454.5" y="-616.5" font-family="Helvetica,sans-Serif" font-size="10.00" fill="#000000"> </text>
<polyline fill="none" stroke="#bfbfbf" points="440,-609.5 469,-609.5 "/>
<text text-anchor="middle" x="454.5" y="-597.5" font-family="Helvetica,sans-Serif" font-size="10.00" fill="#000000"> </text>
</g>
<!-- Node8&#45;&gt;Node7 -->
<g id="edge8" class="edge">
<title>Node8&#45;&gt;Node7</title>
<path fill="none" stroke="#404040" d="M454.5,-590.4987C454.5,-576.8801 454.5,-560.1381 454.5,-544.3462"/>
<polygon fill="none" stroke="#404040" points="454.5001,-543.963 450.5,-537.963 454.5,-531.963 458.5,-537.963 454.5001,-543.963"/>
<text text-anchor="middle" x="474" y="-558.5" font-family="Helvetica,sans-Serif" font-size="10.00" fill="#000000"> +value</text>
</g>
</g>
</svg>
