<?xml version="1.0" encoding="UTF-8" standalone="no"?>
<!DOCTYPE svg PUBLIC "-//W3C//DTD SVG 1.1//EN"
 "http://www.w3.org/Graphics/SVG/1.1/DTD/svg11.dtd">
<!-- Generated by graphviz version 2.40.1 (20161225.0304)
 -->
<!-- Title: /home/travis/build/AliceO2Group/AliceO2/DataFormats/simulation/include/SimulationDataFormat/MCEventLabel.h Pages: 1 -->
<svg width="965pt" height="361pt"
 viewBox="0.00 0.00 964.50 361.00" xmlns="http://www.w3.org/2000/svg" xmlns:xlink="http://www.w3.org/1999/xlink">
<g id="graph0" class="graph" transform="scale(1 1) rotate(0) translate(4 357)">
<title>/home/travis/build/AliceO2Group/AliceO2/DataFormats/simulation/include/SimulationDataFormat/MCEventLabel.h</title>
<!-- Node5 -->
<g id="node1" class="node">
<title>Node5</title>
<polygon fill="#bfbfbf" stroke="#000000" points="391.5,-289.5 391.5,-352.5 559.5,-352.5 559.5,-289.5 391.5,-289.5"/>
<text text-anchor="start" x="399.5" y="-340.5" font-family="Helvetica,sans-Serif" font-size="10.00" fill="#000000">/home/travis/build</text>
<text text-anchor="start" x="399.5" y="-329.5" font-family="Helvetica,sans-Serif" font-size="10.00" fill="#000000">/AliceO2Group/AliceO2</text>
<text text-anchor="start" x="399.5" y="-318.5" font-family="Helvetica,sans-Serif" font-size="10.00" fill="#000000">/DataFormats/simulation</text>
<text text-anchor="start" x="399.5" y="-307.5" font-family="Helvetica,sans-Serif" font-size="10.00" fill="#000000">/include/SimulationDataFormat</text>
<text text-anchor="middle" x="475.5" y="-296.5" font-family="Helvetica,sans-Serif" font-size="10.00" fill="#000000">/MCEventLabel.h</text>
</g>
<!-- Node6 -->
<g id="node2" class="node">
<title>Node6</title>
<g id="a_node2"><a xlink:href="../../de/dab/MCEventLabel_8cxx.html" target="_top" xlink:title="/home/travis/build\l/AliceO2Group/AliceO2\l/DataFormats/simulation\l/src/MCEventLabel.cxx">
<polygon fill="none" stroke="#000000" points="0,-195 0,-247 137,-247 137,-195 0,-195"/>
<text text-anchor="start" x="8" y="-235" font-family="Helvetica,sans-Serif" font-size="10.00" fill="#000000">/home/travis/build</text>
<text text-anchor="start" x="8" y="-224" font-family="Helvetica,sans-Serif" font-size="10.00" fill="#000000">/AliceO2Group/AliceO2</text>
<text text-anchor="start" x="8" y="-213" font-family="Helvetica,sans-Serif" font-size="10.00" fill="#000000">/DataFormats/simulation</text>
<text text-anchor="middle" x="68.5" y="-202" font-family="Helvetica,sans-Serif" font-size="10.00" fill="#000000">/src/MCEventLabel.cxx</text>
</a>
</g>
</g>
<!-- Node5&#45;&gt;Node6 -->
<g id="edge1" class="edge">
<title>Node5&#45;&gt;Node6</title>
<path fill="none" stroke="#191970" d="M381.2528,-306.5021C314.5848,-295.0585 223.5387,-277.0156 145.5,-253 139.8272,-251.2542 133.9964,-249.2469 128.2037,-247.1065"/>
<polygon fill="#191970" stroke="#191970" points="380.8772,-309.9883 391.3221,-308.2122 382.0493,-303.0872 380.8772,-309.9883"/>
</g>
<!-- Node7 -->
<g id="node3" class="node">
<title>Node7</title>
<g id="a_node3"><a xlink:href="../../df/d33/testMCEventLabel_8cxx.html" target="_top" xlink:title="/home/travis/build\l/AliceO2Group/AliceO2\l/DataFormats/simulation\l/test/testMCEventLabel.cxx">
<polygon fill="none" stroke="#000000" points="155,-195 155,-247 304,-247 304,-195 155,-195"/>
<text text-anchor="start" x="163" y="-235" font-family="Helvetica,sans-Serif" font-size="10.00" fill="#000000">/home/travis/build</text>
<text text-anchor="start" x="163" y="-224" font-family="Helvetica,sans-Serif" font-size="10.00" fill="#000000">/AliceO2Group/AliceO2</text>
<text text-anchor="start" x="163" y="-213" font-family="Helvetica,sans-Serif" font-size="10.00" fill="#000000">/DataFormats/simulation</text>
<text text-anchor="middle" x="229.5" y="-202" font-family="Helvetica,sans-Serif" font-size="10.00" fill="#000000">/test/testMCEventLabel.cxx</text>
</a>
</g>
</g>
<!-- Node5&#45;&gt;Node7 -->
<g id="edge2" class="edge">
<title>Node5&#45;&gt;Node7</title>
<path fill="none" stroke="#191970" d="M388.4462,-285.6123C357.2747,-272.9409 322.7265,-258.8969 293.8236,-247.1478"/>
<polygon fill="#191970" stroke="#191970" points="387.4198,-288.9731 398.0017,-289.4966 390.0559,-282.4884 387.4198,-288.9731"/>
</g>
<!-- Node8 -->
<g id="node4" class="node">
<title>Node8</title>
<g id="a_node4"><a xlink:href="../../d3/d93/PrimaryVertexReaderSpec_8h.html" target="_top" xlink:title="/home/travis/build\l/AliceO2Group/AliceO2\l/Detectors/GlobalTrackingWorkflow\l/include/GlobalTrackingWorkflow\l/PrimaryVertexReaderSpec.h">
<polygon fill="none" stroke="#000000" points="322,-189.5 322,-252.5 509,-252.5 509,-189.5 322,-189.5"/>
<text text-anchor="start" x="330" y="-240.5" font-family="Helvetica,sans-Serif" font-size="10.00" fill="#000000">/home/travis/build</text>
<text text-anchor="start" x="330" y="-229.5" font-family="Helvetica,sans-Serif" font-size="10.00" fill="#000000">/AliceO2Group/AliceO2</text>
<text text-anchor="start" x="330" y="-218.5" font-family="Helvetica,sans-Serif" font-size="10.00" fill="#000000">/Detectors/GlobalTrackingWorkflow</text>
<text text-anchor="start" x="330" y="-207.5" font-family="Helvetica,sans-Serif" font-size="10.00" fill="#000000">/include/GlobalTrackingWorkflow</text>
<text text-anchor="middle" x="415.5" y="-196.5" font-family="Helvetica,sans-Serif" font-size="10.00" fill="#000000">/PrimaryVertexReaderSpec.h</text>
</a>
</g>
</g>
<!-- Node5&#45;&gt;Node8 -->
<g id="edge3" class="edge">
<title>Node5&#45;&gt;Node8</title>
<path fill="none" stroke="#191970" d="M451.2896,-280.6493C445.723,-271.3716 439.8799,-261.6331 434.5668,-252.778"/>
<polygon fill="#191970" stroke="#191970" points="448.3694,-282.5852 456.5156,-289.3594 454.3718,-278.9837 448.3694,-282.5852"/>
</g>
<!-- Node11 -->
<g id="node7" class="node">
<title>Node11</title>
<g id="a_node7"><a xlink:href="../../db/d2d/PrimaryVertexingSpec_8cxx.html" target="_top" xlink:title="/home/travis/build\l/AliceO2Group/AliceO2\l/Detectors/GlobalTrackingWorkflow\l/src/PrimaryVertexingSpec.cxx">
<polygon fill="none" stroke="#000000" points="443,-.5 443,-52.5 630,-52.5 630,-.5 443,-.5"/>
<text text-anchor="start" x="451" y="-40.5" font-family="Helvetica,sans-Serif" font-size="10.00" fill="#000000">/home/travis/build</text>
<text text-anchor="start" x="451" y="-29.5" font-family="Helvetica,sans-Serif" font-size="10.00" fill="#000000">/AliceO2Group/AliceO2</text>
<text text-anchor="start" x="451" y="-18.5" font-family="Helvetica,sans-Serif" font-size="10.00" fill="#000000">/Detectors/GlobalTrackingWorkflow</text>
<text text-anchor="middle" x="536.5" y="-7.5" font-family="Helvetica,sans-Serif" font-size="10.00" fill="#000000">/src/PrimaryVertexingSpec.cxx</text>
</a>
</g>
</g>
<!-- Node5&#45;&gt;Node11 -->
<g id="edge6" class="edge">
<title>Node5&#45;&gt;Node11</title>
<path fill="none" stroke="#191970" d="M504.5536,-280.8159C509.6806,-272.0182 514.3716,-262.4882 517.5,-253 540.4215,-183.4811 540.1009,-95.7845 538.1859,-52.7552"/>
<polygon fill="#191970" stroke="#191970" points="501.5694,-278.987 499.3228,-289.3409 507.5359,-282.6479 501.5694,-278.987"/>
</g>
<!-- Node12 -->
<g id="node8" class="node">
<title>Node12</title>
<g id="a_node8"><a xlink:href="../../dd/d09/PrimaryVertexWriterSpec_8cxx.html" target="_top" xlink:title="/home/travis/build\l/AliceO2Group/AliceO2\l/Detectors/GlobalTrackingWorkflow\l/src/PrimaryVertexWriterSpec.cxx">
<polygon fill="none" stroke="#000000" points="564,-195 564,-247 751,-247 751,-195 564,-195"/>
<text text-anchor="start" x="572" y="-235" font-family="Helvetica,sans-Serif" font-size="10.00" fill="#000000">/home/travis/build</text>
<text text-anchor="start" x="572" y="-224" font-family="Helvetica,sans-Serif" font-size="10.00" fill="#000000">/AliceO2Group/AliceO2</text>
<text text-anchor="start" x="572" y="-213" font-family="Helvetica,sans-Serif" font-size="10.00" fill="#000000">/Detectors/GlobalTrackingWorkflow</text>
<text text-anchor="middle" x="657.5" y="-202" font-family="Helvetica,sans-Serif" font-size="10.00" fill="#000000">/src/PrimaryVertexWriterSpec.cxx</text>
</a>
</g>
</g>
<!-- Node5&#45;&gt;Node12 -->
<g id="edge7" class="edge">
<title>Node5&#45;&gt;Node12</title>
<path fill="none" stroke="#191970" d="M541.9435,-284.4926C564.511,-272.0929 589.2563,-258.4965 610.0381,-247.078"/>
<polygon fill="#191970" stroke="#191970" points="540.1647,-281.4764 533.0859,-289.3594 543.5356,-287.6113 540.1647,-281.4764"/>
</g>
<!-- Node13 -->
<g id="node9" class="node">
<title>Node13</title>
<g id="a_node9"><a xlink:href="../../d4/d02/PVertexer_8h.html" target="_top" xlink:title="Primary vertex finder. ">
<polygon fill="none" stroke="#000000" points="769.5,-195 769.5,-247 941.5,-247 941.5,-195 769.5,-195"/>
<text text-anchor="start" x="777.5" y="-235" font-family="Helvetica,sans-Serif" font-size="10.00" fill="#000000">/home/travis/build</text>
<text text-anchor="start" x="777.5" y="-224" font-family="Helvetica,sans-Serif" font-size="10.00" fill="#000000">/AliceO2Group/AliceO2</text>
<text text-anchor="start" x="777.5" y="-213" font-family="Helvetica,sans-Serif" font-size="10.00" fill="#000000">/Detectors/Vertexing/include</text>
<text text-anchor="middle" x="855.5" y="-202" font-family="Helvetica,sans-Serif" font-size="10.00" fill="#000000">/DetectorsVertexing/PVertexer.h</text>
</a>
</g>
</g>
<!-- Node5&#45;&gt;Node13 -->
<g id="edge8" class="edge">
<title>Node5&#45;&gt;Node13</title>
<path fill="none" stroke="#191970" d="M569.4013,-300.6693C624.9886,-288.0999 696.6138,-270.9731 759.5,-253 766.0034,-251.1413 772.7219,-249.1179 779.4438,-247.0214"/>
<polygon fill="#191970" stroke="#191970" points="568.5545,-297.2722 559.5675,-302.8832 570.092,-304.1013 568.5545,-297.2722"/>
</g>
<!-- Node9 -->
<g id="node5" class="node">
<title>Node9</title>
<g id="a_node5"><a xlink:href="../../de/deb/primary-vertex-reader-workflow_8cxx.html" target="_top" xlink:title="/home/travis/build\l/AliceO2Group/AliceO2\l/Detectors/GlobalTrackingWorkflow\l/src/primary&#45;vertex&#45;reader&#45;workflow.cxx">
<polygon fill="none" stroke="#000000" points="92.5,-95 92.5,-147 304.5,-147 304.5,-95 92.5,-95"/>
<text text-anchor="start" x="100.5" y="-135" font-family="Helvetica,sans-Serif" font-size="10.00" fill="#000000">/home/travis/build</text>
<text text-anchor="start" x="100.5" y="-124" font-family="Helvetica,sans-Serif" font-size="10.00" fill="#000000">/AliceO2Group/AliceO2</text>
<text text-anchor="start" x="100.5" y="-113" font-family="Helvetica,sans-Serif" font-size="10.00" fill="#000000">/Detectors/GlobalTrackingWorkflow</text>
<text text-anchor="middle" x="198.5" y="-102" font-family="Helvetica,sans-Serif" font-size="10.00" fill="#000000">/src/primary&#45;vertex&#45;reader&#45;workflow.cxx</text>
</a>
</g>
</g>
<!-- Node8&#45;&gt;Node9 -->
<g id="edge4" class="edge">
<title>Node8&#45;&gt;Node9</title>
<path fill="none" stroke="#191970" d="M337.9969,-185.2843C310.6868,-172.699 280.5166,-158.7957 255.2407,-147.1478"/>
<polygon fill="#191970" stroke="#191970" points="336.5908,-188.49 347.1377,-189.4966 339.5205,-182.1326 336.5908,-188.49"/>
</g>
<!-- Node10 -->
<g id="node6" class="node">
<title>Node10</title>
<g id="a_node6"><a xlink:href="../../d9/dd2/PrimaryVertexReaderSpec_8cxx.html" target="_top" xlink:title="/home/travis/build\l/AliceO2Group/AliceO2\l/Detectors/GlobalTrackingWorkflow\l/src/PrimaryVertexReaderSpec.cxx">
<polygon fill="none" stroke="#000000" points="322,-95 322,-147 509,-147 509,-95 322,-95"/>
<text text-anchor="start" x="330" y="-135" font-family="Helvetica,sans-Serif" font-size="10.00" fill="#000000">/home/travis/build</text>
<text text-anchor="start" x="330" y="-124" font-family="Helvetica,sans-Serif" font-size="10.00" fill="#000000">/AliceO2Group/AliceO2</text>
<text text-anchor="start" x="330" y="-113" font-family="Helvetica,sans-Serif" font-size="10.00" fill="#000000">/Detectors/GlobalTrackingWorkflow</text>
<text text-anchor="middle" x="415.5" y="-102" font-family="Helvetica,sans-Serif" font-size="10.00" fill="#000000">/src/PrimaryVertexReaderSpec.cxx</text>
</a>
</g>
</g>
<!-- Node8&#45;&gt;Node10 -->
<g id="edge5" class="edge">
<title>Node8&#45;&gt;Node10</title>
<path fill="none" stroke="#191970" d="M415.5,-179.1631C415.5,-168.2863 415.5,-156.8798 415.5,-147.078"/>
<polygon fill="#191970" stroke="#191970" points="412.0001,-179.3593 415.5,-189.3594 419.0001,-179.3594 412.0001,-179.3593"/>
</g>
<!-- Node14 -->
<g id="node10" class="node">
<title>Node14</title>
<g id="a_node10"><a xlink:href="../../d8/d11/PrimaryVertexingSpec_8h.html" target="_top" xlink:title="/home/travis/build\l/AliceO2Group/AliceO2\l/Detectors/GlobalTrackingWorkflow\l/include/GlobalTrackingWorkflow\l/PrimaryVertexingSpec.h">
<polygon fill="none" stroke="#000000" points="617,-89.5 617,-152.5 804,-152.5 804,-89.5 617,-89.5"/>
<text text-anchor="start" x="625" y="-140.5" font-family="Helvetica,sans-Serif" font-size="10.00" fill="#000000">/home/travis/build</text>
<text text-anchor="start" x="625" y="-129.5" font-family="Helvetica,sans-Serif" font-size="10.00" fill="#000000">/AliceO2Group/AliceO2</text>
<text text-anchor="start" x="625" y="-118.5" font-family="Helvetica,sans-Serif" font-size="10.00" fill="#000000">/Detectors/GlobalTrackingWorkflow</text>
<text text-anchor="start" x="625" y="-107.5" font-family="Helvetica,sans-Serif" font-size="10.00" fill="#000000">/include/GlobalTrackingWorkflow</text>
<text text-anchor="middle" x="710.5" y="-96.5" font-family="Helvetica,sans-Serif" font-size="10.00" fill="#000000">/PrimaryVertexingSpec.h</text>
</a>
</g>
</g>
<!-- Node13&#45;&gt;Node14 -->
<g id="edge9" class="edge">
<title>Node13&#45;&gt;Node14</title>
<path fill="none" stroke="#191970" d="M809.1645,-189.0445C792.2596,-177.3859 773.1627,-164.2157 756.3042,-152.5891"/>
<polygon fill="#191970" stroke="#191970" points="807.5623,-192.1911 817.7815,-194.9872 811.5364,-186.4286 807.5623,-192.1911"/>
</g>
<!-- Node16 -->
<g id="node12" class="node">
<title>Node16</title>
<g id="a_node12"><a xlink:href="../../da/d7a/PVertexer_8cxx.html" target="_top" xlink:title="Primary vertex finder. ">
<polygon fill="none" stroke="#000000" points="822.5,-95 822.5,-147 956.5,-147 956.5,-95 822.5,-95"/>
<text text-anchor="start" x="830.5" y="-135" font-family="Helvetica,sans-Serif" font-size="10.00" fill="#000000">/home/travis/build</text>
<text text-anchor="start" x="830.5" y="-124" font-family="Helvetica,sans-Serif" font-size="10.00" fill="#000000">/AliceO2Group/AliceO2</text>
<text text-anchor="start" x="830.5" y="-113" font-family="Helvetica,sans-Serif" font-size="10.00" fill="#000000">/Detectors/Vertexing/src</text>
<text text-anchor="middle" x="889.5" y="-102" font-family="Helvetica,sans-Serif" font-size="10.00" fill="#000000">/PVertexer.cxx</text>
</a>
</g>
</g>
<!-- Node13&#45;&gt;Node16 -->
<g id="edge12" class="edge">
<title>Node13&#45;&gt;Node16</title>
<path fill="none" stroke="#191970" d="M867.6484,-185.2694C871.916,-172.7176 876.6288,-158.8564 880.5818,-147.2299"/>
<polygon fill="#191970" stroke="#191970" points="864.2497,-184.3928 864.3443,-194.9872 870.8771,-186.6462 864.2497,-184.3928"/>
</g>
<!-- Node14&#45;&gt;Node11 -->
<g id="edge11" class="edge">
<title>Node14&#45;&gt;Node11</title>
<path fill="none" stroke="#191970" d="M643.2148,-84.4572C623.6802,-73.8479 602.7459,-62.4784 584.6384,-52.6442"/>
<polygon fill="#191970" stroke="#191970" points="641.6184,-87.573 652.0765,-89.27 644.9593,-81.4217 641.6184,-87.573"/>
</g>
<!-- Node15 -->
<g id="node11" class="node">
<title>Node15</title>
<g id="a_node11"><a xlink:href="../../d2/dfc/primary-vertexing-workflow_8cxx.html" target="_top" xlink:title="/home/travis/build\l/AliceO2Group/AliceO2\l/Detectors/GlobalTrackingWorkflow\l/src/primary&#45;vertexing&#45;workflow.cxx">
<polygon fill="none" stroke="#000000" points="648,-.5 648,-52.5 841,-52.5 841,-.5 648,-.5"/>
<text text-anchor="start" x="656" y="-40.5" font-family="Helvetica,sans-Serif" font-size="10.00" fill="#000000">/home/travis/build</text>
<text text-anchor="start" x="656" y="-29.5" font-family="Helvetica,sans-Serif" font-size="10.00" fill="#000000">/AliceO2Group/AliceO2</text>
<text text-anchor="start" x="656" y="-18.5" font-family="Helvetica,sans-Serif" font-size="10.00" fill="#000000">/Detectors/GlobalTrackingWorkflow</text>
<text text-anchor="middle" x="744.5" y="-7.5" font-family="Helvetica,sans-Serif" font-size="10.00" fill="#000000">/src/primary&#45;vertexing&#45;workflow.cxx</text>
</a>
</g>
</g>
<!-- Node14&#45;&gt;Node15 -->
<g id="edge10" class="edge">
<title>Node14&#45;&gt;Node15</title>
<path fill="none" stroke="#191970" d="M725.3129,-79.8289C728.6326,-70.6021 732.0654,-61.0608 735.0936,-52.6442"/>
<polygon fill="#191970" stroke="#191970" points="722.0083,-78.6755 721.9161,-89.27 728.5949,-81.0454 722.0083,-78.6755"/>
</g>
</g>
</svg>
