<?xml version="1.0" encoding="UTF-8" standalone="no"?>
<!DOCTYPE svg PUBLIC "-//W3C//DTD SVG 1.1//EN"
 "http://www.w3.org/Graphics/SVG/1.1/DTD/svg11.dtd">
<!-- Generated by graphviz version 2.40.1 (20161225.0304)
 -->
<!-- Title: /home/travis/build/AliceO2Group/AliceO2/Analysis/DataModel/src/PIDTOF.cxx Pages: 1 -->
<!--zoomable 352 -->
<svg id="main" version="1.1" xmlns="http://www.w3.org/2000/svg" xmlns:xlink="http://www.w3.org/1999/xlink" xml:space="preserve" onload="init(evt)">
<style type="text/css"><![CDATA[
.edge:hover path { stroke: red; }
.edge:hover polygon { stroke: red; fill: red; }
]]></style>
<script type="text/javascript"><![CDATA[
var edges = document.getElementsByTagName('g');
if (edges && edges.length) {
  for (var i=0;i<edges.length;i++) {
    if (edges[i].id.substr(0,4)=='edge') {
      edges[i].setAttribute('class','edge');
    }
  }
}
]]></script>
        <defs>
                <circle id="rim" cx="0" cy="0" r="7"/>
                <circle id="rim2" cx="0" cy="0" r="3.5"/>
                <g id="zoomPlus">
                        <use xlink:href="#rim" fill="#404040">
                                <set attributeName="fill" to="#808080" begin="zoomplus.mouseover" end="zoomplus.mouseout"/>
                        </use>
                        <path d="M-4,0h8M0,-4v8" fill="none" stroke="white" stroke-width="1.5" pointer-events="none"/>
                </g>
                <g id="zoomMin">
                        <use xlink:href="#rim" fill="#404040">
                                <set attributeName="fill" to="#808080" begin="zoomminus.mouseover" end="zoomminus.mouseout"/>
                        </use>
                        <path d="M-4,0h8" fill="none" stroke="white" stroke-width="1.5" pointer-events="none"/>
                </g>
                <g id="dirArrow">
                        <path fill="none" stroke="white" stroke-width="1.5" d="M0,-3.0v7 M-2.5,-0.5L0,-3.0L2.5,-0.5"/>
                </g>
               <g id="resetDef">
                       <use xlink:href="#rim2" fill="#404040">
                               <set attributeName="fill" to="#808080" begin="reset.mouseover" end="reset.mouseout"/>
                       </use>
               </g>
        </defs>

<script type="text/javascript">
var viewWidth = 741;
var viewHeight = 352;
var sectionId = 'dynsection-0';
</script>
<script xlink:href="../../svgpan.js"/>
<svg id="graph" class="graph">
<g id="viewport">
<title>/home/travis/build/AliceO2Group/AliceO2/Analysis/DataModel/src/PIDTOF.cxx</title>
<!-- Node0 -->
<g id="node1" class="node">
<title>Node0</title>
<polygon fill="#bfbfbf" stroke="#000000" points="123.5,-291.5 123.5,-343.5 257.5,-343.5 257.5,-291.5 123.5,-291.5"/>
<text text-anchor="start" x="131.5" y="-331.5" font-family="Helvetica,sans-Serif" font-size="10.00" fill="#000000">/home/travis/build</text>
<text text-anchor="start" x="131.5" y="-320.5" font-family="Helvetica,sans-Serif" font-size="10.00" fill="#000000">/AliceO2Group/AliceO2</text>
<text text-anchor="start" x="131.5" y="-309.5" font-family="Helvetica,sans-Serif" font-size="10.00" fill="#000000">/Analysis/DataModel/src</text>
<text text-anchor="middle" x="190.5" y="-298.5" font-family="Helvetica,sans-Serif" font-size="10.00" fill="#000000">/PIDTOF.cxx</text>
</g>
<!-- Node1 -->
<g id="node2" class="node">
<title>Node1</title>
<g id="a_node2"><a xlink:href="../../d9/d66/PIDTOF_8h.html" target="_top" xlink:title="Implementation of the TOF detector response for PID. ">
<polygon fill="none" stroke="#000000" points="151,-235.5 151,-254.5 230,-254.5 230,-235.5 151,-235.5"/>
<text text-anchor="middle" x="190.5" y="-242.5" font-family="Helvetica,sans-Serif" font-size="10.00" fill="#000000">PID/PIDTOF.h</text>
</a>
</g>
</g>
<!-- Node0&#45;&gt;Node1 -->
<g id="edge1" class="edge">
<title>Node0&#45;&gt;Node1</title>
<path fill="none" stroke="#191970" d="M190.5,-291.3258C190.5,-282.5142 190.5,-272.8397 190.5,-264.621"/>
<polygon fill="#191970" stroke="#191970" points="194.0001,-264.534 190.5,-254.534 187.0001,-264.534 194.0001,-264.534"/>
</g>
<!-- Node2 -->
<g id="node3" class="node">
<title>Node2</title>
<polygon fill="none" stroke="#bfbfbf" points="226,-.5 226,-19.5 285,-19.5 285,-.5 226,-.5"/>
<text text-anchor="middle" x="255.5" y="-7.5" font-family="Helvetica,sans-Serif" font-size="10.00" fill="#000000">Rtypes.h</text>
</g>
<!-- Node1&#45;&gt;Node2 -->
<g id="edge2" class="edge">
<title>Node1&#45;&gt;Node2</title>
<path fill="none" stroke="#191970" d="M184.8053,-235.3449C172.3985,-212.9936 145.365,-156.2254 162.5,-112 176.7023,-75.3439 210.8904,-43.783 233.6191,-25.8389"/>
<polygon fill="#191970" stroke="#191970" points="235.8932,-28.5057 241.7034,-19.6461 231.6364,-22.9487 235.8932,-28.5057"/>
</g>
<!-- Node3 -->
<g id="node4" class="node">
<title>Node3</title>
<polygon fill="none" stroke="#bfbfbf" points="171.5,-118 171.5,-137 227.5,-137 227.5,-118 171.5,-118"/>
<text text-anchor="middle" x="199.5" y="-125" font-family="Helvetica,sans-Serif" font-size="10.00" fill="#000000">TMath.h</text>
</g>
<!-- Node1&#45;&gt;Node3 -->
<g id="edge3" class="edge">
<title>Node1&#45;&gt;Node3</title>
<path fill="none" stroke="#191970" d="M191.2365,-235.3845C192.7066,-216.1913 196.0313,-172.786 197.986,-147.2663"/>
<polygon fill="#191970" stroke="#191970" points="201.4793,-147.4865 198.7533,-137.2484 194.4997,-146.9518 201.4793,-147.4865"/>
</g>
<!-- Node4 -->
<g id="node5" class="node">
<title>Node4</title>
<g id="a_node5"><a xlink:href="../../dd/da4/Logger_8h.html" target="_top" xlink:title="Framework/Logger.h">
<polygon fill="none" stroke="#000000" points="0,-179.5 0,-198.5 115,-198.5 115,-179.5 0,-179.5"/>
<text text-anchor="middle" x="57.5" y="-186.5" font-family="Helvetica,sans-Serif" font-size="10.00" fill="#000000">Framework/Logger.h</text>
</a>
</g>
</g>
<!-- Node1&#45;&gt;Node4 -->
<g id="edge4" class="edge">
<title>Node1&#45;&gt;Node4</title>
<path fill="none" stroke="#191970" d="M167.6365,-235.3733C146.095,-226.3032 113.6162,-212.6279 89.5044,-202.4755"/>
<polygon fill="#191970" stroke="#191970" points="90.6397,-199.156 80.0652,-198.5011 87.9233,-205.6075 90.6397,-199.156"/>
</g>
<!-- Node6 -->
<g id="node7" class="node">
<title>Node6</title>
<g id="a_node7"><a xlink:href="../../d5/d08/DataFormats_2Reconstruction_2include_2ReconstructionDataFormats_2PID_8h.html" target="_top" xlink:title="ReconstructionDataFormats\l/PID.h">
<polygon fill="none" stroke="#000000" points="425.5,-112.5 425.5,-142.5 577.5,-142.5 577.5,-112.5 425.5,-112.5"/>
<text text-anchor="start" x="433.5" y="-130.5" font-family="Helvetica,sans-Serif" font-size="10.00" fill="#000000">ReconstructionDataFormats</text>
<text text-anchor="middle" x="501.5" y="-119.5" font-family="Helvetica,sans-Serif" font-size="10.00" fill="#000000">/PID.h</text>
</a>
</g>
</g>
<!-- Node1&#45;&gt;Node6 -->
<g id="edge6" class="edge">
<title>Node1&#45;&gt;Node6</title>
<path fill="none" stroke="#191970" d="M230.1249,-239.4763C270.3587,-232.9947 333.9078,-220.3291 385.5,-199 417.4868,-185.7761 450.8009,-164.3134 473.4773,-148.3484"/>
<polygon fill="#191970" stroke="#191970" points="475.5215,-151.1895 481.6224,-142.5275 471.4514,-145.4943 475.5215,-151.1895"/>
</g>
<!-- Node9 -->
<g id="node10" class="node">
<title>Node9</title>
<g id="a_node10"><a xlink:href="../../dc/d68/DetectorResponse_8h.html" target="_top" xlink:title="Handler for any detector (or other entity) response. This provides the basic quantities computed by a...">
<polygon fill="none" stroke="#000000" points="218.5,-179.5 218.5,-198.5 376.5,-198.5 376.5,-179.5 218.5,-179.5"/>
<text text-anchor="middle" x="297.5" y="-186.5" font-family="Helvetica,sans-Serif" font-size="10.00" fill="#000000">PIDBase/DetectorResponse.h</text>
</a>
</g>
</g>
<!-- Node1&#45;&gt;Node9 -->
<g id="edge10" class="edge">
<title>Node1&#45;&gt;Node9</title>
<path fill="none" stroke="#191970" d="M209.138,-235.2455C225.9386,-226.4527 250.8634,-213.4079 269.9618,-203.4125"/>
<polygon fill="#191970" stroke="#191970" points="271.8386,-206.3807 279.0756,-198.6427 268.5927,-200.1787 271.8386,-206.3807"/>
</g>
<!-- Node5 -->
<g id="node6" class="node">
<title>Node5</title>
<polygon fill="none" stroke="#bfbfbf" points="3.5,-118 3.5,-137 111.5,-137 111.5,-118 3.5,-118"/>
<text text-anchor="middle" x="57.5" y="-125" font-family="Helvetica,sans-Serif" font-size="10.00" fill="#000000">fairlogger/Logger.h</text>
</g>
<!-- Node4&#45;&gt;Node5 -->
<g id="edge5" class="edge">
<title>Node4&#45;&gt;Node5</title>
<path fill="none" stroke="#191970" d="M57.5,-179.3906C57.5,-170.8657 57.5,-158.1392 57.5,-147.4235"/>
<polygon fill="#191970" stroke="#191970" points="61.0001,-147.2448 57.5,-137.2449 54.0001,-147.2449 61.0001,-147.2448"/>
</g>
<!-- Node7 -->
<g id="node8" class="node">
<title>Node7</title>
<g id="a_node8"><a xlink:href="../../d2/d45/GPUCommonRtypes_8h.html" target="_top" xlink:title="GPUCommonRtypes.h">
<polygon fill="none" stroke="#000000" points="608,-56.5 608,-75.5 733,-75.5 733,-56.5 608,-56.5"/>
<text text-anchor="middle" x="670.5" y="-63.5" font-family="Helvetica,sans-Serif" font-size="10.00" fill="#000000">GPUCommonRtypes.h</text>
</a>
</g>
</g>
<!-- Node6&#45;&gt;Node7 -->
<g id="edge7" class="edge">
<title>Node6&#45;&gt;Node7</title>
<path fill="none" stroke="#191970" d="M542.8421,-112.4554C571.0401,-102.194 608.0031,-88.7429 634.8943,-78.9571"/>
<polygon fill="#191970" stroke="#191970" points="636.1108,-82.239 644.311,-75.5303 633.717,-75.6611 636.1108,-82.239"/>
</g>
<!-- Node8 -->
<g id="node9" class="node">
<title>Node8</title>
<g id="a_node9"><a xlink:href="../../d3/d9d/PhysicsConstants_8h.html" target="_top" xlink:title="Header to collect physics constants. ">
<polygon fill="none" stroke="#000000" points="383,-56.5 383,-75.5 590,-75.5 590,-56.5 383,-56.5"/>
<text text-anchor="middle" x="486.5" y="-63.5" font-family="Helvetica,sans-Serif" font-size="10.00" fill="#000000">CommonConstants/PhysicsConstants.h</text>
</a>
</g>
</g>
<!-- Node6&#45;&gt;Node8 -->
<g id="edge9" class="edge">
<title>Node6&#45;&gt;Node8</title>
<path fill="none" stroke="#191970" d="M497.7921,-112.2977C495.8401,-104.2945 493.423,-94.3843 491.3266,-85.7889"/>
<polygon fill="#191970" stroke="#191970" points="494.6716,-84.7328 488.9017,-75.8469 487.871,-86.3915 494.6716,-84.7328"/>
</g>
<!-- Node7&#45;&gt;Node2 -->
<g id="edge8" class="edge">
<title>Node7&#45;&gt;Node2</title>
<path fill="none" stroke="#191970" d="M607.7835,-57.1424C604.9843,-56.7548 602.2131,-56.3725 599.5,-56 489.518,-40.9015 359.6631,-23.7093 295.5075,-15.2575"/>
<polygon fill="#191970" stroke="#191970" points="295.7898,-11.7646 285.4185,-13.9292 294.876,-18.7047 295.7898,-11.7646"/>
</g>
<!-- Node9&#45;&gt;Node2 -->
<g id="edge11" class="edge">
<title>Node9&#45;&gt;Node2</title>
<path fill="none" stroke="#191970" d="M291.4083,-179.1622C286.0903,-170.1052 278.5999,-156.1248 274.5,-143 262.3231,-104.0184 257.915,-56.1446 256.345,-29.7769"/>
<polygon fill="#191970" stroke="#191970" points="259.8297,-29.3885 255.8185,-19.5824 252.839,-29.7497 259.8297,-29.3885"/>
</g>
<!-- Node9&#45;&gt;Node3 -->
<g id="edge12" class="edge">
<title>Node9&#45;&gt;Node3</title>
<path fill="none" stroke="#191970" d="M282.1875,-179.3906C266.4376,-169.5067 241.6877,-153.9749 223.3663,-142.4773"/>
<polygon fill="#191970" stroke="#191970" points="225.0357,-139.3929 214.705,-137.0419 221.3148,-145.3221 225.0357,-139.3929"/>
</g>
<!-- Node9&#45;&gt;Node6 -->
<g id="edge13" class="edge">
<title>Node9&#45;&gt;Node6</title>
<path fill="none" stroke="#191970" d="M329.375,-179.3906C359.4125,-170.3352 405.1755,-156.539 441.9657,-145.4479"/>
<polygon fill="#191970" stroke="#191970" points="443.0319,-148.7821 451.596,-142.5446 441.0113,-142.08 443.0319,-148.7821"/>
</g>
<!-- Node10 -->
<g id="node11" class="node">
<title>Node10</title>
<g id="a_node11"><a xlink:href="../../d0/ded/ParamBase_8h.html" target="_top" xlink:title="Set of utilities to handle the parametrization of the PID response for each detector These are the ba...">
<polygon fill="none" stroke="#000000" points="283.5,-118 283.5,-137 407.5,-137 407.5,-118 283.5,-118"/>
<text text-anchor="middle" x="345.5" y="-125" font-family="Helvetica,sans-Serif" font-size="10.00" fill="#000000">PIDBase/ParamBase.h</text>
</a>
</g>
</g>
<!-- Node9&#45;&gt;Node10 -->
<g id="edge14" class="edge">
<title>Node9&#45;&gt;Node10</title>
<path fill="none" stroke="#191970" d="M305,-179.3906C312.0738,-170.3273 322.8542,-156.5149 331.5146,-145.4188"/>
<polygon fill="#191970" stroke="#191970" points="334.5006,-147.2815 337.8943,-137.2449 328.9824,-142.9746 334.5006,-147.2815"/>
</g>
<!-- Node11 -->
<g id="node12" class="node">
<title>Node11</title>
<polygon fill="none" stroke="#bfbfbf" points="298,-56.5 298,-75.5 365,-75.5 365,-56.5 298,-56.5"/>
<text text-anchor="middle" x="331.5" y="-63.5" font-family="Helvetica,sans-Serif" font-size="10.00" fill="#000000">TNamed.h</text>
</g>
<!-- Node10&#45;&gt;Node11 -->
<g id="edge15" class="edge">
<title>Node10&#45;&gt;Node11</title>
<path fill="none" stroke="#191970" d="M343.3125,-117.8906C341.3514,-109.276 338.4137,-96.3708 335.9585,-85.5858"/>
<polygon fill="#191970" stroke="#191970" points="339.3507,-84.7185 333.7183,-75.7449 332.5254,-86.2723 339.3507,-84.7185"/>
</g>
</g>
</svg>
        <g id="navigator" transform="translate(0 0)" fill="#404254">
                <rect fill="#f2f5e9" fill-opacity="0.5" stroke="#606060" stroke-width=".5" x="0" y="0" width="60" height="60"/>
                <use id="zoomplus" xlink:href="#zoomPlus" x="17" y="9" onmousedown="handleZoom(evt,'in')"/>
                <use id="zoomminus" xlink:href="#zoomMin" x="42" y="9" onmousedown="handleZoom(evt,'out')"/>
                <use id="reset" xlink:href="#resetDef" x="30" y="36" onmousedown="handleReset()"/>
                <g id="arrowUp" xlink:href="#dirArrow" transform="translate(30 24)" onmousedown="handlePan(0,-1)">
                  <use xlink:href="#rim" fill="#404040">
                        <set attributeName="fill" to="#808080" begin="arrowUp.mouseover" end="arrowUp.mouseout"/>
                  </use>
                  <path fill="none" stroke="white" stroke-width="1.5" d="M0,-3.0v7 M-2.5,-0.5L0,-3.0L2.5,-0.5"/>
                </g>
                <g id="arrowRight" xlink:href="#dirArrow" transform="rotate(90) translate(36 -43)" onmousedown="handlePan(1,0)">
                  <use xlink:href="#rim" fill="#404040">
                        <set attributeName="fill" to="#808080" begin="arrowRight.mouseover" end="arrowRight.mouseout"/>
                  </use>
                  <path fill="none" stroke="white" stroke-width="1.5" d="M0,-3.0v7 M-2.5,-0.5L0,-3.0L2.5,-0.5"/>
                </g>
                <g id="arrowDown" xlink:href="#dirArrow" transform="rotate(180) translate(-30 -48)" onmousedown="handlePan(0,1)">
                  <use xlink:href="#rim" fill="#404040">
                        <set attributeName="fill" to="#808080" begin="arrowDown.mouseover" end="arrowDown.mouseout"/>
                  </use>
                  <path fill="none" stroke="white" stroke-width="1.5" d="M0,-3.0v7 M-2.5,-0.5L0,-3.0L2.5,-0.5"/>
                </g>
                <g id="arrowLeft" xlink:href="#dirArrow" transform="rotate(270) translate(-36 17)" onmousedown="handlePan(-1,0)">
                  <use xlink:href="#rim" fill="#404040">
                        <set attributeName="fill" to="#808080" begin="arrowLeft.mouseover" end="arrowLeft.mouseout"/>
                  </use>
                  <path fill="none" stroke="white" stroke-width="1.5" d="M0,-3.0v7 M-2.5,-0.5L0,-3.0L2.5,-0.5"/>
                </g>
        </g>
        <svg viewBox="0 0 15 15" width="100%" height="30px" preserveAspectRatio="xMaxYMin meet">
         <g id="arrow_out" transform="scale(0.3 0.3)">
          <a xlink:href="PIDTOF_8cxx__incl_org.svg" target="_base">
           <rect id="button" ry="5" rx="5" y="6" x="6" height="38" width="38"
                fill="#f2f5e9" fill-opacity="0.5" stroke="#606060" stroke-width="1.0"/>
           <path id="arrow"
             d="M 11.500037,31.436501 C 11.940474,20.09759 22.043105,11.32322 32.158766,21.979434 L 37.068811,17.246167 C 37.068811,17.246167 37.088388,32 37.088388,32 L 22.160133,31.978069 C 22.160133,31.978069 26.997745,27.140456 26.997745,27.140456 C 18.528582,18.264221 13.291696,25.230495 11.500037,31.436501 z"
             style="fill:#404040;"/>
          </a>
         </g>
        </svg>
</svg>
