<?xml version="1.0" encoding="UTF-8" standalone="no"?>
<!DOCTYPE svg PUBLIC "-//W3C//DTD SVG 1.1//EN"
 "http://www.w3.org/Graphics/SVG/1.1/DTD/svg11.dtd">
<!-- Generated by graphviz version 2.40.1 (20161225.0304)
 -->
<!-- Title: /home/travis/build/AliceO2Group/AliceO2/DataFormats/Detectors/FIT/FV0/include/DataFormatsFV0/ChannelData.h Pages: 1 -->
<!--zoomable 350 -->
<svg id="main" version="1.1" xmlns="http://www.w3.org/2000/svg" xmlns:xlink="http://www.w3.org/1999/xlink" xml:space="preserve" onload="init(evt)">
<style type="text/css"><![CDATA[
.edge:hover path { stroke: red; }
.edge:hover polygon { stroke: red; fill: red; }
]]></style>
<script type="text/javascript"><![CDATA[
var edges = document.getElementsByTagName('g');
if (edges && edges.length) {
  for (var i=0;i<edges.length;i++) {
    if (edges[i].id.substr(0,4)=='edge') {
      edges[i].setAttribute('class','edge');
    }
  }
}
]]></script>
        <defs>
                <circle id="rim" cx="0" cy="0" r="7"/>
                <circle id="rim2" cx="0" cy="0" r="3.5"/>
                <g id="zoomPlus">
                        <use xlink:href="#rim" fill="#404040">
                                <set attributeName="fill" to="#808080" begin="zoomplus.mouseover" end="zoomplus.mouseout"/>
                        </use>
                        <path d="M-4,0h8M0,-4v8" fill="none" stroke="white" stroke-width="1.5" pointer-events="none"/>
                </g>
                <g id="zoomMin">
                        <use xlink:href="#rim" fill="#404040">
                                <set attributeName="fill" to="#808080" begin="zoomminus.mouseover" end="zoomminus.mouseout"/>
                        </use>
                        <path d="M-4,0h8" fill="none" stroke="white" stroke-width="1.5" pointer-events="none"/>
                </g>
                <g id="dirArrow">
                        <path fill="none" stroke="white" stroke-width="1.5" d="M0,-3.0v7 M-2.5,-0.5L0,-3.0L2.5,-0.5"/>
                </g>
               <g id="resetDef">
                       <use xlink:href="#rim2" fill="#404040">
                               <set attributeName="fill" to="#808080" begin="reset.mouseover" end="reset.mouseout"/>
                       </use>
               </g>
        </defs>

<script type="text/javascript">
var viewWidth = 1989;
var viewHeight = 350;
var sectionId = 'dynsection-1';
</script>
<script xlink:href="../../svgpan.js"/>
<svg id="graph" class="graph">
<g id="viewport">
<title>/home/travis/build/AliceO2Group/AliceO2/DataFormats/Detectors/FIT/FV0/include/DataFormatsFV0/ChannelData.h</title>
<!-- Node3 -->
<g id="node1" class="node">
<title>Node3</title>
<polygon fill="#bfbfbf" stroke="#000000" points="1000.5,-278.5 1000.5,-341.5 1177.5,-341.5 1177.5,-278.5 1000.5,-278.5"/>
<text text-anchor="start" x="1008.5" y="-329.5" font-family="Helvetica,sans-Serif" font-size="10.00" fill="#000000">/home/travis/build</text>
<text text-anchor="start" x="1008.5" y="-318.5" font-family="Helvetica,sans-Serif" font-size="10.00" fill="#000000">/AliceO2Group/AliceO2</text>
<text text-anchor="start" x="1008.5" y="-307.5" font-family="Helvetica,sans-Serif" font-size="10.00" fill="#000000">/DataFormats/Detectors</text>
<text text-anchor="start" x="1008.5" y="-296.5" font-family="Helvetica,sans-Serif" font-size="10.00" fill="#000000">/FIT/FV0/include/DataFormatsFV0</text>
<text text-anchor="middle" x="1089" y="-285.5" font-family="Helvetica,sans-Serif" font-size="10.00" fill="#000000">/ChannelData.h</text>
</g>
<!-- Node4 -->
<g id="node2" class="node">
<title>Node4</title>
<g id="a_node2"><a xlink:href="../../dc/da9/FV0_2include_2DataFormatsFV0_2RawEventData_8h.html" target="_top" xlink:title="/home/travis/build\l/AliceO2Group/AliceO2\l/DataFormats/Detectors\l/FIT/FV0/include/DataFormatsFV0\l/RawEventData.h">
<polygon fill="none" stroke="#000000" points="257.5,-178.5 257.5,-241.5 434.5,-241.5 434.5,-178.5 257.5,-178.5"/>
<text text-anchor="start" x="265.5" y="-229.5" font-family="Helvetica,sans-Serif" font-size="10.00" fill="#000000">/home/travis/build</text>
<text text-anchor="start" x="265.5" y="-218.5" font-family="Helvetica,sans-Serif" font-size="10.00" fill="#000000">/AliceO2Group/AliceO2</text>
<text text-anchor="start" x="265.5" y="-207.5" font-family="Helvetica,sans-Serif" font-size="10.00" fill="#000000">/DataFormats/Detectors</text>
<text text-anchor="start" x="265.5" y="-196.5" font-family="Helvetica,sans-Serif" font-size="10.00" fill="#000000">/FIT/FV0/include/DataFormatsFV0</text>
<text text-anchor="middle" x="346" y="-185.5" font-family="Helvetica,sans-Serif" font-size="10.00" fill="#000000">/RawEventData.h</text>
</a>
</g>
</g>
<!-- Node3&#45;&gt;Node4 -->
<g id="edge1" class="edge">
<title>Node3&#45;&gt;Node4</title>
<path fill="none" stroke="#191970" d="M990.2092,-296.7038C844.4785,-277.09 574.108,-240.7009 434.511,-221.9126"/>
<polygon fill="#191970" stroke="#191970" points="990.1054,-300.2213 1000.4829,-298.0865 991.0392,-293.2839 990.1054,-300.2213"/>
</g>
<!-- Node6 -->
<g id="node4" class="node">
<title>Node6</title>
<g id="a_node4"><a xlink:href="../../d5/db3/FV0_2reconstruction_2include_2FV0Reconstruction_2ReadRaw_8h.html" target="_top" xlink:title="/home/travis/build\l/AliceO2Group/AliceO2\l/Detectors/FIT/FV0/reconstruction\l/include/FV0Reconstruction/ReadRaw.h">
<polygon fill="none" stroke="#000000" points="0,-89.5 0,-141.5 204,-141.5 204,-89.5 0,-89.5"/>
<text text-anchor="start" x="8" y="-129.5" font-family="Helvetica,sans-Serif" font-size="10.00" fill="#000000">/home/travis/build</text>
<text text-anchor="start" x="8" y="-118.5" font-family="Helvetica,sans-Serif" font-size="10.00" fill="#000000">/AliceO2Group/AliceO2</text>
<text text-anchor="start" x="8" y="-107.5" font-family="Helvetica,sans-Serif" font-size="10.00" fill="#000000">/Detectors/FIT/FV0/reconstruction</text>
<text text-anchor="middle" x="102" y="-96.5" font-family="Helvetica,sans-Serif" font-size="10.00" fill="#000000">/include/FV0Reconstruction/ReadRaw.h</text>
</a>
</g>
</g>
<!-- Node3&#45;&gt;Node6 -->
<g id="edge19" class="edge">
<title>Node3&#45;&gt;Node6</title>
<path fill="none" stroke="#191970" d="M989.8372,-305.4543C782.1169,-295.4311 314.9132,-270.0793 248,-242 195.5813,-220.0031 148.5716,-171.6787 122.7881,-141.5334"/>
<polygon fill="#191970" stroke="#191970" points="989.9758,-308.9649 1000.1323,-305.9488 990.3117,-301.973 989.9758,-308.9649"/>
</g>
<!-- Node8 -->
<g id="node6" class="node">
<title>Node8</title>
<g id="a_node6"><a xlink:href="../../d6/dc1/FV0_2simulation_2include_2FV0Simulation_2Digits2Raw_8h.html" target="_top" xlink:title="/home/travis/build\l/AliceO2Group/AliceO2\l/Detectors/FIT/FV0/simulation\l/include/FV0Simulation/Digits2Raw.h">
<polygon fill="none" stroke="#000000" points="406.5,-89.5 406.5,-141.5 601.5,-141.5 601.5,-89.5 406.5,-89.5"/>
<text text-anchor="start" x="414.5" y="-129.5" font-family="Helvetica,sans-Serif" font-size="10.00" fill="#000000">/home/travis/build</text>
<text text-anchor="start" x="414.5" y="-118.5" font-family="Helvetica,sans-Serif" font-size="10.00" fill="#000000">/AliceO2Group/AliceO2</text>
<text text-anchor="start" x="414.5" y="-107.5" font-family="Helvetica,sans-Serif" font-size="10.00" fill="#000000">/Detectors/FIT/FV0/simulation</text>
<text text-anchor="middle" x="504" y="-96.5" font-family="Helvetica,sans-Serif" font-size="10.00" fill="#000000">/include/FV0Simulation/Digits2Raw.h</text>
</a>
</g>
</g>
<!-- Node3&#45;&gt;Node8 -->
<g id="edge23" class="edge">
<title>Node3&#45;&gt;Node8</title>
<path fill="none" stroke="#191970" d="M990.2212,-297.6913C921.3073,-287.3168 827.9201,-269.6517 749,-242 674.0061,-215.7239 593.2544,-170.335 545.7449,-141.6686"/>
<polygon fill="#191970" stroke="#191970" points="989.8018,-301.1673 1000.2066,-299.1694 990.8269,-294.2428 989.8018,-301.1673"/>
</g>
<!-- Node11 -->
<g id="node9" class="node">
<title>Node11</title>
<g id="a_node9"><a xlink:href="../../d3/de9/FIT_2FV0_2src_2BCData_8cxx.html" target="_top" xlink:title="/home/travis/build\l/AliceO2Group/AliceO2\l/DataFormats/Detectors\l/FIT/FV0/src/BCData.cxx">
<polygon fill="none" stroke="#000000" points="758.5,-184 758.5,-236 891.5,-236 891.5,-184 758.5,-184"/>
<text text-anchor="start" x="766.5" y="-224" font-family="Helvetica,sans-Serif" font-size="10.00" fill="#000000">/home/travis/build</text>
<text text-anchor="start" x="766.5" y="-213" font-family="Helvetica,sans-Serif" font-size="10.00" fill="#000000">/AliceO2Group/AliceO2</text>
<text text-anchor="start" x="766.5" y="-202" font-family="Helvetica,sans-Serif" font-size="10.00" fill="#000000">/DataFormats/Detectors</text>
<text text-anchor="middle" x="825" y="-191" font-family="Helvetica,sans-Serif" font-size="10.00" fill="#000000">/FIT/FV0/src/BCData.cxx</text>
</a>
</g>
</g>
<!-- Node3&#45;&gt;Node11 -->
<g id="edge8" class="edge">
<title>Node3&#45;&gt;Node11</title>
<path fill="none" stroke="#191970" d="M990.4796,-275.4436C961.536,-265.0009 929.8962,-253.3007 901,-242 896.2001,-240.1229 891.2473,-238.1409 886.2794,-236.1206"/>
<polygon fill="#191970" stroke="#191970" points="989.5896,-278.8429 1000.184,-278.9344 991.959,-272.2561 989.5896,-278.8429"/>
</g>
<!-- Node12 -->
<g id="node10" class="node">
<title>Node12</title>
<g id="a_node10"><a xlink:href="../../da/d81/FIT_2FV0_2src_2ChannelData_8cxx.html" target="_top" xlink:title="/home/travis/build\l/AliceO2Group/AliceO2\l/DataFormats/Detectors\l/FIT/FV0/src/ChannelData.cxx">
<polygon fill="none" stroke="#000000" points="910,-184 910,-236 1068,-236 1068,-184 910,-184"/>
<text text-anchor="start" x="918" y="-224" font-family="Helvetica,sans-Serif" font-size="10.00" fill="#000000">/home/travis/build</text>
<text text-anchor="start" x="918" y="-213" font-family="Helvetica,sans-Serif" font-size="10.00" fill="#000000">/AliceO2Group/AliceO2</text>
<text text-anchor="start" x="918" y="-202" font-family="Helvetica,sans-Serif" font-size="10.00" fill="#000000">/DataFormats/Detectors</text>
<text text-anchor="middle" x="989" y="-191" font-family="Helvetica,sans-Serif" font-size="10.00" fill="#000000">/FIT/FV0/src/ChannelData.cxx</text>
</a>
</g>
</g>
<!-- Node3&#45;&gt;Node12 -->
<g id="edge9" class="edge">
<title>Node3&#45;&gt;Node12</title>
<path fill="none" stroke="#191970" d="M1050.1752,-271.1752C1038.4167,-259.4167 1025.7892,-246.7892 1015.078,-236.078"/>
<polygon fill="#191970" stroke="#191970" points="1047.8134,-273.7632 1057.3594,-278.3594 1052.7632,-268.8134 1047.8134,-273.7632"/>
</g>
<!-- Node13 -->
<g id="node11" class="node">
<title>Node13</title>
<g id="a_node11"><a xlink:href="../../d5/df7/FIT_2FV0_2reconstruction_2include_2FV0Reconstruction_2CTFCoder_8h.html" target="_top" xlink:title="/home/travis/build\l/AliceO2Group/AliceO2\l/Detectors/FIT/FV0/reconstruction\l/include/FV0Reconstruction/CTFCoder.h">
<polygon fill="none" stroke="#000000" points="1086,-184 1086,-236 1292,-236 1292,-184 1086,-184"/>
<text text-anchor="start" x="1094" y="-224" font-family="Helvetica,sans-Serif" font-size="10.00" fill="#000000">/home/travis/build</text>
<text text-anchor="start" x="1094" y="-213" font-family="Helvetica,sans-Serif" font-size="10.00" fill="#000000">/AliceO2Group/AliceO2</text>
<text text-anchor="start" x="1094" y="-202" font-family="Helvetica,sans-Serif" font-size="10.00" fill="#000000">/Detectors/FIT/FV0/reconstruction</text>
<text text-anchor="middle" x="1189" y="-191" font-family="Helvetica,sans-Serif" font-size="10.00" fill="#000000">/include/FV0Reconstruction/CTFCoder.h</text>
</a>
</g>
</g>
<!-- Node3&#45;&gt;Node13 -->
<g id="edge10" class="edge">
<title>Node3&#45;&gt;Node13</title>
<path fill="none" stroke="#191970" d="M1127.8248,-271.1752C1139.5833,-259.4167 1152.2108,-246.7892 1162.922,-236.078"/>
<polygon fill="#191970" stroke="#191970" points="1125.2368,-268.8134 1120.6406,-278.3594 1130.1866,-273.7632 1125.2368,-268.8134"/>
</g>
<!-- Node22 -->
<g id="node20" class="node">
<title>Node22</title>
<g id="a_node20"><a xlink:href="../../d6/d82/FIT_2FV0_2simulation_2include_2FV0Simulation_2Digitizer_8h.html" target="_top" xlink:title="/home/travis/build\l/AliceO2Group/AliceO2\l/Detectors/FIT/FV0/simulation\l/include/FV0Simulation/Digitizer.h">
<polygon fill="none" stroke="#000000" points="1362.5,-184 1362.5,-236 1543.5,-236 1543.5,-184 1362.5,-184"/>
<text text-anchor="start" x="1370.5" y="-224" font-family="Helvetica,sans-Serif" font-size="10.00" fill="#000000">/home/travis/build</text>
<text text-anchor="start" x="1370.5" y="-213" font-family="Helvetica,sans-Serif" font-size="10.00" fill="#000000">/AliceO2Group/AliceO2</text>
<text text-anchor="start" x="1370.5" y="-202" font-family="Helvetica,sans-Serif" font-size="10.00" fill="#000000">/Detectors/FIT/FV0/simulation</text>
<text text-anchor="middle" x="1453" y="-191" font-family="Helvetica,sans-Serif" font-size="10.00" fill="#000000">/include/FV0Simulation/Digitizer.h</text>
</a>
</g>
</g>
<!-- Node3&#45;&gt;Node22 -->
<g id="edge20" class="edge">
<title>Node3&#45;&gt;Node22</title>
<path fill="none" stroke="#191970" d="M1187.259,-283.0058C1241.8026,-268.0213 1309.1781,-249.5115 1362.4391,-234.8794"/>
<polygon fill="#191970" stroke="#191970" points="1186.2945,-279.641 1177.579,-285.6651 1188.1489,-286.3909 1186.2945,-279.641"/>
</g>
<!-- Node24 -->
<g id="node22" class="node">
<title>Node24</title>
<g id="a_node22"><a xlink:href="../../d0/d1c/FV0DigitizerSpec_8cxx.html" target="_top" xlink:title="/home/travis/build\l/AliceO2Group/AliceO2\l/Steer/DigitizerWorkflow\l/src/FV0DigitizerSpec.cxx">
<polygon fill="none" stroke="#000000" points="1647,-89.5 1647,-141.5 1787,-141.5 1787,-89.5 1647,-89.5"/>
<text text-anchor="start" x="1655" y="-129.5" font-family="Helvetica,sans-Serif" font-size="10.00" fill="#000000">/home/travis/build</text>
<text text-anchor="start" x="1655" y="-118.5" font-family="Helvetica,sans-Serif" font-size="10.00" fill="#000000">/AliceO2Group/AliceO2</text>
<text text-anchor="start" x="1655" y="-107.5" font-family="Helvetica,sans-Serif" font-size="10.00" fill="#000000">/Steer/DigitizerWorkflow</text>
<text text-anchor="middle" x="1717" y="-96.5" font-family="Helvetica,sans-Serif" font-size="10.00" fill="#000000">/src/FV0DigitizerSpec.cxx</text>
</a>
</g>
</g>
<!-- Node3&#45;&gt;Node24 -->
<g id="edge25" class="edge">
<title>Node3&#45;&gt;Node24</title>
<path fill="none" stroke="#191970" d="M1188.0408,-305.2328C1305.8528,-297.9019 1493.9046,-280.4511 1552,-242 1579.7767,-223.6156 1566.4466,-200.5092 1591,-178 1607.1994,-163.1493 1627.5817,-151.0157 1647.2037,-141.5243"/>
<polygon fill="#191970" stroke="#191970" points="1187.6926,-301.7474 1177.9236,-305.8483 1188.1177,-308.7345 1187.6926,-301.7474"/>
</g>
<!-- Node25 -->
<g id="node23" class="node">
<title>Node25</title>
<g id="a_node23"><a xlink:href="../../d2/d00/FIT_2FV0_2workflow_2src_2DigitReaderSpec_8cxx.html" target="_top" xlink:title="/home/travis/build\l/AliceO2Group/AliceO2\l/Detectors/FIT/FV0/workflow\l/src/DigitReaderSpec.cxx">
<polygon fill="none" stroke="#000000" points="1600,-184 1600,-236 1752,-236 1752,-184 1600,-184"/>
<text text-anchor="start" x="1608" y="-224" font-family="Helvetica,sans-Serif" font-size="10.00" fill="#000000">/home/travis/build</text>
<text text-anchor="start" x="1608" y="-213" font-family="Helvetica,sans-Serif" font-size="10.00" fill="#000000">/AliceO2Group/AliceO2</text>
<text text-anchor="start" x="1608" y="-202" font-family="Helvetica,sans-Serif" font-size="10.00" fill="#000000">/Detectors/FIT/FV0/workflow</text>
<text text-anchor="middle" x="1676" y="-191" font-family="Helvetica,sans-Serif" font-size="10.00" fill="#000000">/src/DigitReaderSpec.cxx</text>
</a>
</g>
</g>
<!-- Node3&#45;&gt;Node25 -->
<g id="edge24" class="edge">
<title>Node3&#45;&gt;Node25</title>
<path fill="none" stroke="#191970" d="M1187.756,-302.513C1288.8554,-293.4486 1449.9946,-275.1093 1586,-242 1592.9285,-240.3133 1600.0686,-238.2904 1607.1538,-236.0919"/>
<polygon fill="#191970" stroke="#191970" points="1187.2087,-299.0476 1177.5556,-303.4143 1187.8249,-306.0205 1187.2087,-299.0476"/>
</g>
<!-- Node26 -->
<g id="node24" class="node">
<title>Node26</title>
<g id="a_node24"><a xlink:href="../../d3/d12/FV0DigitWriterSpec_8h.html" target="_top" xlink:title="/home/travis/build\l/AliceO2Group/AliceO2\l/Steer/DigitizerWorkflow\l/src/FV0DigitWriterSpec.h">
<polygon fill="none" stroke="#000000" points="1796,-184 1796,-236 1936,-236 1936,-184 1796,-184"/>
<text text-anchor="start" x="1804" y="-224" font-family="Helvetica,sans-Serif" font-size="10.00" fill="#000000">/home/travis/build</text>
<text text-anchor="start" x="1804" y="-213" font-family="Helvetica,sans-Serif" font-size="10.00" fill="#000000">/AliceO2Group/AliceO2</text>
<text text-anchor="start" x="1804" y="-202" font-family="Helvetica,sans-Serif" font-size="10.00" fill="#000000">/Steer/DigitizerWorkflow</text>
<text text-anchor="middle" x="1866" y="-191" font-family="Helvetica,sans-Serif" font-size="10.00" fill="#000000">/src/FV0DigitWriterSpec.h</text>
</a>
</g>
</g>
<!-- Node3&#45;&gt;Node26 -->
<g id="edge26" class="edge">
<title>Node3&#45;&gt;Node26</title>
<path fill="none" stroke="#191970" d="M1187.6855,-306.036C1319.4846,-299.3757 1559.7398,-282.4484 1761,-242 1772.3968,-239.7095 1784.3241,-236.6937 1795.8818,-233.4283"/>
<polygon fill="#191970" stroke="#191970" points="1187.4223,-302.5447 1177.608,-306.5359 1187.7691,-309.5361 1187.4223,-302.5447"/>
</g>
<!-- Node5 -->
<g id="node3" class="node">
<title>Node5</title>
<g id="a_node3"><a xlink:href="../../d5/dc4/FV0_2src_2RawEventData_8cxx.html" target="_top" xlink:title="/home/travis/build\l/AliceO2Group/AliceO2\l/DataFormats/Detectors\l/FIT/FV0/src/RawEventData.cxx">
<polygon fill="none" stroke="#000000" points="221.5,-89.5 221.5,-141.5 388.5,-141.5 388.5,-89.5 221.5,-89.5"/>
<text text-anchor="start" x="229.5" y="-129.5" font-family="Helvetica,sans-Serif" font-size="10.00" fill="#000000">/home/travis/build</text>
<text text-anchor="start" x="229.5" y="-118.5" font-family="Helvetica,sans-Serif" font-size="10.00" fill="#000000">/AliceO2Group/AliceO2</text>
<text text-anchor="start" x="229.5" y="-107.5" font-family="Helvetica,sans-Serif" font-size="10.00" fill="#000000">/DataFormats/Detectors</text>
<text text-anchor="middle" x="305" y="-96.5" font-family="Helvetica,sans-Serif" font-size="10.00" fill="#000000">/FIT/FV0/src/RawEventData.cxx</text>
</a>
</g>
</g>
<!-- Node4&#45;&gt;Node5 -->
<g id="edge2" class="edge">
<title>Node4&#45;&gt;Node5</title>
<path fill="none" stroke="#191970" d="M328.1374,-168.8289C324.1342,-159.6021 319.9946,-150.0608 316.343,-141.6442"/>
<polygon fill="#191970" stroke="#191970" points="325.0425,-170.4893 332.2335,-178.27 331.4641,-167.7031 325.0425,-170.4893"/>
</g>
<!-- Node4&#45;&gt;Node6 -->
<g id="edge3" class="edge">
<title>Node4&#45;&gt;Node6</title>
<path fill="none" stroke="#191970" d="M254.8882,-174.7129C226.5059,-163.7205 195.7362,-151.8036 169.2916,-141.5617"/>
<polygon fill="#191970" stroke="#191970" points="253.8232,-178.0536 264.4123,-178.4015 256.3513,-171.5261 253.8232,-178.0536"/>
</g>
<!-- Node4&#45;&gt;Node8 -->
<g id="edge5" class="edge">
<title>Node4&#45;&gt;Node8</title>
<path fill="none" stroke="#191970" d="M408.0581,-172.883C425.5206,-162.4387 444.142,-151.3012 460.2881,-141.6442"/>
<polygon fill="#191970" stroke="#191970" points="405.8368,-170.1332 399.0512,-178.27 409.4299,-176.1407 405.8368,-170.1332"/>
</g>
<!-- Node7 -->
<g id="node5" class="node">
<title>Node7</title>
<g id="a_node5"><a xlink:href="../../d6/d62/FV0_2reconstruction_2src_2ReadRaw_8cxx.html" target="_top" xlink:title="/home/travis/build\l/AliceO2Group/AliceO2\l/Detectors/FIT/FV0/reconstruction\l/src/ReadRaw.cxx">
<polygon fill="none" stroke="#000000" points="13,-.5 13,-52.5 191,-52.5 191,-.5 13,-.5"/>
<text text-anchor="start" x="21" y="-40.5" font-family="Helvetica,sans-Serif" font-size="10.00" fill="#000000">/home/travis/build</text>
<text text-anchor="start" x="21" y="-29.5" font-family="Helvetica,sans-Serif" font-size="10.00" fill="#000000">/AliceO2Group/AliceO2</text>
<text text-anchor="start" x="21" y="-18.5" font-family="Helvetica,sans-Serif" font-size="10.00" fill="#000000">/Detectors/FIT/FV0/reconstruction</text>
<text text-anchor="middle" x="102" y="-7.5" font-family="Helvetica,sans-Serif" font-size="10.00" fill="#000000">/src/ReadRaw.cxx</text>
</a>
</g>
</g>
<!-- Node6&#45;&gt;Node7 -->
<g id="edge4" class="edge">
<title>Node6&#45;&gt;Node7</title>
<path fill="none" stroke="#191970" d="M102,-79.1155C102,-70.2061 102,-60.8475 102,-52.5341"/>
<polygon fill="#191970" stroke="#191970" points="98.5001,-79.2784 102,-89.2784 105.5001,-79.2785 98.5001,-79.2784"/>
</g>
<!-- Node9 -->
<g id="node7" class="node">
<title>Node9</title>
<g id="a_node7"><a xlink:href="../../d7/d4a/FIT_2FV0_2simulation_2src_2digit2raw_8cxx.html" target="_top" xlink:title="/home/travis/build\l/AliceO2Group/AliceO2\l/Detectors/FIT/FV0/simulation\l/src/digit2raw.cxx">
<polygon fill="none" stroke="#000000" points="405,-.5 405,-52.5 565,-52.5 565,-.5 405,-.5"/>
<text text-anchor="start" x="413" y="-40.5" font-family="Helvetica,sans-Serif" font-size="10.00" fill="#000000">/home/travis/build</text>
<text text-anchor="start" x="413" y="-29.5" font-family="Helvetica,sans-Serif" font-size="10.00" fill="#000000">/AliceO2Group/AliceO2</text>
<text text-anchor="start" x="413" y="-18.5" font-family="Helvetica,sans-Serif" font-size="10.00" fill="#000000">/Detectors/FIT/FV0/simulation</text>
<text text-anchor="middle" x="485" y="-7.5" font-family="Helvetica,sans-Serif" font-size="10.00" fill="#000000">/src/digit2raw.cxx</text>
</a>
</g>
</g>
<!-- Node8&#45;&gt;Node9 -->
<g id="edge6" class="edge">
<title>Node8&#45;&gt;Node9</title>
<path fill="none" stroke="#191970" d="M496.2945,-79.4059C494.374,-70.4097 492.3519,-60.9379 490.5579,-52.5341"/>
<polygon fill="#191970" stroke="#191970" points="492.8914,-80.2296 498.4021,-89.2784 499.7371,-78.7681 492.8914,-80.2296"/>
</g>
<!-- Node10 -->
<g id="node8" class="node">
<title>Node10</title>
<g id="a_node8"><a xlink:href="../../d5/da7/FV0_2simulation_2src_2Digits2Raw_8cxx.html" target="_top" xlink:title="/home/travis/build\l/AliceO2Group/AliceO2\l/Detectors/FIT/FV0/simulation\l/src/Digits2Raw.cxx">
<polygon fill="none" stroke="#000000" points="227,-.5 227,-52.5 387,-52.5 387,-.5 227,-.5"/>
<text text-anchor="start" x="235" y="-40.5" font-family="Helvetica,sans-Serif" font-size="10.00" fill="#000000">/home/travis/build</text>
<text text-anchor="start" x="235" y="-29.5" font-family="Helvetica,sans-Serif" font-size="10.00" fill="#000000">/AliceO2Group/AliceO2</text>
<text text-anchor="start" x="235" y="-18.5" font-family="Helvetica,sans-Serif" font-size="10.00" fill="#000000">/Detectors/FIT/FV0/simulation</text>
<text text-anchor="middle" x="307" y="-7.5" font-family="Helvetica,sans-Serif" font-size="10.00" fill="#000000">/src/Digits2Raw.cxx</text>
</a>
</g>
</g>
<!-- Node8&#45;&gt;Node10 -->
<g id="edge7" class="edge">
<title>Node8&#45;&gt;Node10</title>
<path fill="none" stroke="#191970" d="M437.0341,-85.2464C413.565,-74.6436 387.4259,-62.8346 364.7744,-52.6011"/>
<polygon fill="#191970" stroke="#191970" points="435.6704,-88.4709 446.2246,-89.3984 438.5524,-82.0917 435.6704,-88.4709"/>
</g>
<!-- Node14 -->
<g id="node12" class="node">
<title>Node14</title>
<g id="a_node12"><a xlink:href="../../d7/d64/test__ctf__io__fv0_8cxx.html" target="_top" xlink:title="/home/travis/build\l/AliceO2Group/AliceO2\l/Detectors/CTF/test/test\l_ctf_io_fv0.cxx">
<polygon fill="none" stroke="#000000" points="1123.5,-89.5 1123.5,-141.5 1254.5,-141.5 1254.5,-89.5 1123.5,-89.5"/>
<text text-anchor="start" x="1131.5" y="-129.5" font-family="Helvetica,sans-Serif" font-size="10.00" fill="#000000">/home/travis/build</text>
<text text-anchor="start" x="1131.5" y="-118.5" font-family="Helvetica,sans-Serif" font-size="10.00" fill="#000000">/AliceO2Group/AliceO2</text>
<text text-anchor="start" x="1131.5" y="-107.5" font-family="Helvetica,sans-Serif" font-size="10.00" fill="#000000">/Detectors/CTF/test/test</text>
<text text-anchor="middle" x="1189" y="-96.5" font-family="Helvetica,sans-Serif" font-size="10.00" fill="#000000">_ctf_io_fv0.cxx</text>
</a>
</g>
</g>
<!-- Node13&#45;&gt;Node14 -->
<g id="edge11" class="edge">
<title>Node13&#45;&gt;Node14</title>
<path fill="none" stroke="#191970" d="M1189,-173.6645C1189,-163.0577 1189,-151.6746 1189,-141.8157"/>
<polygon fill="#191970" stroke="#191970" points="1185.5001,-173.9273 1189,-183.9273 1192.5001,-173.9273 1185.5001,-173.9273"/>
</g>
<!-- Node15 -->
<g id="node13" class="node">
<title>Node15</title>
<g id="a_node13"><a xlink:href="../../db/d3b/FIT_2FV0_2reconstruction_2src_2CTFCoder_8cxx.html" target="_top" xlink:title="/home/travis/build\l/AliceO2Group/AliceO2\l/Detectors/FIT/FV0/reconstruction\l/src/CTFCoder.cxx">
<polygon fill="none" stroke="#000000" points="1273,-89.5 1273,-141.5 1451,-141.5 1451,-89.5 1273,-89.5"/>
<text text-anchor="start" x="1281" y="-129.5" font-family="Helvetica,sans-Serif" font-size="10.00" fill="#000000">/home/travis/build</text>
<text text-anchor="start" x="1281" y="-118.5" font-family="Helvetica,sans-Serif" font-size="10.00" fill="#000000">/AliceO2Group/AliceO2</text>
<text text-anchor="start" x="1281" y="-107.5" font-family="Helvetica,sans-Serif" font-size="10.00" fill="#000000">/Detectors/FIT/FV0/reconstruction</text>
<text text-anchor="middle" x="1362" y="-96.5" font-family="Helvetica,sans-Serif" font-size="10.00" fill="#000000">/src/CTFCoder.cxx</text>
</a>
</g>
</g>
<!-- Node13&#45;&gt;Node15 -->
<g id="edge12" class="edge">
<title>Node13&#45;&gt;Node15</title>
<path fill="none" stroke="#191970" d="M1245.6921,-179.0324C1267.8242,-166.9429 1292.9225,-153.2331 1314.1248,-141.6515"/>
<polygon fill="#191970" stroke="#191970" points="1243.8292,-176.0618 1236.731,-183.9273 1247.1849,-182.205 1243.8292,-176.0618"/>
</g>
<!-- Node16 -->
<g id="node14" class="node">
<title>Node16</title>
<g id="a_node14"><a xlink:href="../../d0/d18/FIT_2FV0_2workflow_2include_2FV0Workflow_2EntropyDecoderSpec_8h.html" target="_top" xlink:title="/home/travis/build\l/AliceO2Group/AliceO2\l/Detectors/FIT/FV0/workflow\l/include/FV0Workflow/EntropyDecoderSpec.h">
<polygon fill="none" stroke="#000000" points="620,-89.5 620,-141.5 854,-141.5 854,-89.5 620,-89.5"/>
<text text-anchor="start" x="628" y="-129.5" font-family="Helvetica,sans-Serif" font-size="10.00" fill="#000000">/home/travis/build</text>
<text text-anchor="start" x="628" y="-118.5" font-family="Helvetica,sans-Serif" font-size="10.00" fill="#000000">/AliceO2Group/AliceO2</text>
<text text-anchor="start" x="628" y="-107.5" font-family="Helvetica,sans-Serif" font-size="10.00" fill="#000000">/Detectors/FIT/FV0/workflow</text>
<text text-anchor="middle" x="737" y="-96.5" font-family="Helvetica,sans-Serif" font-size="10.00" fill="#000000">/include/FV0Workflow/EntropyDecoderSpec.h</text>
</a>
</g>
</g>
<!-- Node13&#45;&gt;Node16 -->
<g id="edge13" class="edge">
<title>Node13&#45;&gt;Node16</title>
<path fill="none" stroke="#191970" d="M1091.4605,-181.4367C1086.5832,-180.2268 1081.743,-179.073 1077,-178 982.9296,-156.7188 957.7664,-159.9289 863,-142 860.0349,-141.439 857.0321,-140.8635 854.0038,-140.2766"/>
<polygon fill="#191970" stroke="#191970" points="1090.9503,-184.9183 1101.5045,-183.9911 1092.6757,-178.1342 1090.9503,-184.9183"/>
</g>
<!-- Node19 -->
<g id="node17" class="node">
<title>Node19</title>
<g id="a_node17"><a xlink:href="../../de/de1/FIT_2FV0_2workflow_2include_2FV0Workflow_2EntropyEncoderSpec_8h.html" target="_top" xlink:title="/home/travis/build\l/AliceO2Group/AliceO2\l/Detectors/FIT/FV0/workflow\l/include/FV0Workflow/EntropyEncoderSpec.h">
<polygon fill="none" stroke="#000000" points="872.5,-89.5 872.5,-141.5 1105.5,-141.5 1105.5,-89.5 872.5,-89.5"/>
<text text-anchor="start" x="880.5" y="-129.5" font-family="Helvetica,sans-Serif" font-size="10.00" fill="#000000">/home/travis/build</text>
<text text-anchor="start" x="880.5" y="-118.5" font-family="Helvetica,sans-Serif" font-size="10.00" fill="#000000">/AliceO2Group/AliceO2</text>
<text text-anchor="start" x="880.5" y="-107.5" font-family="Helvetica,sans-Serif" font-size="10.00" fill="#000000">/Detectors/FIT/FV0/workflow</text>
<text text-anchor="middle" x="989" y="-96.5" font-family="Helvetica,sans-Serif" font-size="10.00" fill="#000000">/include/FV0Workflow/EntropyEncoderSpec.h</text>
</a>
</g>
</g>
<!-- Node13&#45;&gt;Node19 -->
<g id="edge16" class="edge">
<title>Node13&#45;&gt;Node19</title>
<path fill="none" stroke="#191970" d="M1124.4817,-179.5151C1098.6483,-167.3088 1069.1852,-153.3875 1044.3471,-141.6515"/>
<polygon fill="#191970" stroke="#191970" points="1123.2829,-182.8197 1133.8197,-183.9273 1126.2734,-176.4906 1123.2829,-182.8197"/>
</g>
<!-- Node17 -->
<g id="node15" class="node">
<title>Node17</title>
<g id="a_node15"><a xlink:href="../../dc/d55/ctf-reader-workflow_8cxx.html" target="_top" xlink:title="/home/travis/build\l/AliceO2Group/AliceO2\l/Detectors/CTF/workflow\l/src/ctf&#45;reader&#45;workflow.cxx">
<polygon fill="none" stroke="#000000" points="759.5,-.5 759.5,-52.5 910.5,-52.5 910.5,-.5 759.5,-.5"/>
<text text-anchor="start" x="767.5" y="-40.5" font-family="Helvetica,sans-Serif" font-size="10.00" fill="#000000">/home/travis/build</text>
<text text-anchor="start" x="767.5" y="-29.5" font-family="Helvetica,sans-Serif" font-size="10.00" fill="#000000">/AliceO2Group/AliceO2</text>
<text text-anchor="start" x="767.5" y="-18.5" font-family="Helvetica,sans-Serif" font-size="10.00" fill="#000000">/Detectors/CTF/workflow</text>
<text text-anchor="middle" x="835" y="-7.5" font-family="Helvetica,sans-Serif" font-size="10.00" fill="#000000">/src/ctf&#45;reader&#45;workflow.cxx</text>
</a>
</g>
</g>
<!-- Node16&#45;&gt;Node17 -->
<g id="edge14" class="edge">
<title>Node16&#45;&gt;Node17</title>
<path fill="none" stroke="#191970" d="M773.5689,-82.2894C784.3935,-72.459 796.0846,-61.8415 806.3332,-52.5341"/>
<polygon fill="#191970" stroke="#191970" points="770.923,-79.9644 765.8732,-89.2784 775.6291,-85.1464 770.923,-79.9644"/>
</g>
<!-- Node18 -->
<g id="node16" class="node">
<title>Node18</title>
<g id="a_node16"><a xlink:href="../../dd/dce/FIT_2FV0_2workflow_2src_2EntropyDecoderSpec_8cxx.html" target="_top" xlink:title="/home/travis/build\l/AliceO2Group/AliceO2\l/Detectors/FIT/FV0/workflow\l/src/EntropyDecoderSpec.cxx">
<polygon fill="none" stroke="#000000" points="583,-.5 583,-52.5 741,-52.5 741,-.5 583,-.5"/>
<text text-anchor="start" x="591" y="-40.5" font-family="Helvetica,sans-Serif" font-size="10.00" fill="#000000">/home/travis/build</text>
<text text-anchor="start" x="591" y="-29.5" font-family="Helvetica,sans-Serif" font-size="10.00" fill="#000000">/AliceO2Group/AliceO2</text>
<text text-anchor="start" x="591" y="-18.5" font-family="Helvetica,sans-Serif" font-size="10.00" fill="#000000">/Detectors/FIT/FV0/workflow</text>
<text text-anchor="middle" x="662" y="-7.5" font-family="Helvetica,sans-Serif" font-size="10.00" fill="#000000">/src/EntropyDecoderSpec.cxx</text>
</a>
</g>
</g>
<!-- Node16&#45;&gt;Node18 -->
<g id="edge15" class="edge">
<title>Node16&#45;&gt;Node18</title>
<path fill="none" stroke="#191970" d="M708.2881,-81.4285C700.2092,-71.8416 691.5537,-61.5704 683.9389,-52.5341"/>
<polygon fill="#191970" stroke="#191970" points="705.7827,-83.8869 714.9032,-89.2784 711.1356,-79.3761 705.7827,-83.8869"/>
</g>
<!-- Node20 -->
<g id="node18" class="node">
<title>Node20</title>
<g id="a_node18"><a xlink:href="../../d8/d40/FIT_2FV0_2workflow_2src_2entropy-encoder-workflow_8cxx.html" target="_top" xlink:title="/home/travis/build\l/AliceO2Group/AliceO2\l/Detectors/FIT/FV0/workflow\l/src/entropy&#45;encoder&#45;workflow.cxx">
<polygon fill="none" stroke="#000000" points="1104,-.5 1104,-52.5 1288,-52.5 1288,-.5 1104,-.5"/>
<text text-anchor="start" x="1112" y="-40.5" font-family="Helvetica,sans-Serif" font-size="10.00" fill="#000000">/home/travis/build</text>
<text text-anchor="start" x="1112" y="-29.5" font-family="Helvetica,sans-Serif" font-size="10.00" fill="#000000">/AliceO2Group/AliceO2</text>
<text text-anchor="start" x="1112" y="-18.5" font-family="Helvetica,sans-Serif" font-size="10.00" fill="#000000">/Detectors/FIT/FV0/workflow</text>
<text text-anchor="middle" x="1196" y="-7.5" font-family="Helvetica,sans-Serif" font-size="10.00" fill="#000000">/src/entropy&#45;encoder&#45;workflow.cxx</text>
</a>
</g>
</g>
<!-- Node19&#45;&gt;Node20 -->
<g id="edge17" class="edge">
<title>Node19&#45;&gt;Node20</title>
<path fill="none" stroke="#191970" d="M1059.038,-85.387C1083.7824,-74.7481 1111.3862,-62.8798 1135.2929,-52.6011"/>
<polygon fill="#191970" stroke="#191970" points="1057.5125,-82.2331 1049.7082,-89.3984 1060.2775,-88.6639 1057.5125,-82.2331"/>
</g>
<!-- Node21 -->
<g id="node19" class="node">
<title>Node21</title>
<g id="a_node19"><a xlink:href="../../d6/dec/FIT_2FV0_2workflow_2src_2EntropyEncoderSpec_8cxx.html" target="_top" xlink:title="/home/travis/build\l/AliceO2Group/AliceO2\l/Detectors/FIT/FV0/workflow\l/src/EntropyEncoderSpec.cxx">
<polygon fill="none" stroke="#000000" points="928.5,-.5 928.5,-52.5 1085.5,-52.5 1085.5,-.5 928.5,-.5"/>
<text text-anchor="start" x="936.5" y="-40.5" font-family="Helvetica,sans-Serif" font-size="10.00" fill="#000000">/home/travis/build</text>
<text text-anchor="start" x="936.5" y="-29.5" font-family="Helvetica,sans-Serif" font-size="10.00" fill="#000000">/AliceO2Group/AliceO2</text>
<text text-anchor="start" x="936.5" y="-18.5" font-family="Helvetica,sans-Serif" font-size="10.00" fill="#000000">/Detectors/FIT/FV0/workflow</text>
<text text-anchor="middle" x="1007" y="-7.5" font-family="Helvetica,sans-Serif" font-size="10.00" fill="#000000">/src/EntropyEncoderSpec.cxx</text>
</a>
</g>
</g>
<!-- Node19&#45;&gt;Node21 -->
<g id="edge18" class="edge">
<title>Node19&#45;&gt;Node21</title>
<path fill="none" stroke="#191970" d="M996.2999,-79.4059C998.1194,-70.4097 1000.035,-60.9379 1001.7347,-52.5341"/>
<polygon fill="#191970" stroke="#191970" points="992.8551,-78.783 994.3032,-89.2784 999.7162,-80.1707 992.8551,-78.783"/>
</g>
<!-- Node23 -->
<g id="node21" class="node">
<title>Node23</title>
<g id="a_node21"><a xlink:href="../../da/d9b/FIT_2FV0_2simulation_2src_2Digitizer_8cxx.html" target="_top" xlink:title="/home/travis/build\l/AliceO2Group/AliceO2\l/Detectors/FIT/FV0/simulation\l/src/Digitizer.cxx">
<polygon fill="none" stroke="#000000" points="1469,-89.5 1469,-141.5 1629,-141.5 1629,-89.5 1469,-89.5"/>
<text text-anchor="start" x="1477" y="-129.5" font-family="Helvetica,sans-Serif" font-size="10.00" fill="#000000">/home/travis/build</text>
<text text-anchor="start" x="1477" y="-118.5" font-family="Helvetica,sans-Serif" font-size="10.00" fill="#000000">/AliceO2Group/AliceO2</text>
<text text-anchor="start" x="1477" y="-107.5" font-family="Helvetica,sans-Serif" font-size="10.00" fill="#000000">/Detectors/FIT/FV0/simulation</text>
<text text-anchor="middle" x="1549" y="-96.5" font-family="Helvetica,sans-Serif" font-size="10.00" fill="#000000">/src/Digitizer.cxx</text>
</a>
</g>
</g>
<!-- Node22&#45;&gt;Node23 -->
<g id="edge21" class="edge">
<title>Node22&#45;&gt;Node23</title>
<path fill="none" stroke="#191970" d="M1486.9045,-176.6253C1498.5057,-165.2054 1511.3122,-152.5989 1522.2666,-141.8157"/>
<polygon fill="#191970" stroke="#191970" points="1484.1578,-174.4178 1479.4865,-183.9273 1489.0684,-179.4064 1484.1578,-174.4178"/>
</g>
<!-- Node22&#45;&gt;Node24 -->
<g id="edge22" class="edge">
<title>Node22&#45;&gt;Node24</title>
<path fill="none" stroke="#191970" d="M1535.2698,-180.5511C1570.995,-167.7632 1612.4122,-152.9377 1646.6768,-140.6725"/>
<polygon fill="#191970" stroke="#191970" points="1534.0734,-177.2618 1525.838,-183.9273 1536.4326,-183.8523 1534.0734,-177.2618"/>
</g>
<!-- Node27 -->
<g id="node25" class="node">
<title>Node27</title>
<g id="a_node25"><a xlink:href="../../d2/dd7/SimpleDigitizerWorkflow_8cxx.html" target="_top" xlink:title="/home/travis/build\l/AliceO2Group/AliceO2\l/Steer/DigitizerWorkflow\l/src/SimpleDigitizerWorkflow.cxx">
<polygon fill="none" stroke="#000000" points="1805,-89.5 1805,-141.5 1981,-141.5 1981,-89.5 1805,-89.5"/>
<text text-anchor="start" x="1813" y="-129.5" font-family="Helvetica,sans-Serif" font-size="10.00" fill="#000000">/home/travis/build</text>
<text text-anchor="start" x="1813" y="-118.5" font-family="Helvetica,sans-Serif" font-size="10.00" fill="#000000">/AliceO2Group/AliceO2</text>
<text text-anchor="start" x="1813" y="-107.5" font-family="Helvetica,sans-Serif" font-size="10.00" fill="#000000">/Steer/DigitizerWorkflow</text>
<text text-anchor="middle" x="1893" y="-96.5" font-family="Helvetica,sans-Serif" font-size="10.00" fill="#000000">/src/SimpleDigitizerWorkflow.cxx</text>
</a>
</g>
</g>
<!-- Node26&#45;&gt;Node27 -->
<g id="edge27" class="edge">
<title>Node26&#45;&gt;Node27</title>
<path fill="none" stroke="#191970" d="M1876.287,-173.9957C1879.3443,-163.295 1882.6351,-151.7773 1885.4812,-141.8157"/>
<polygon fill="#191970" stroke="#191970" points="1872.8313,-173.3505 1873.4493,-183.9273 1879.562,-175.2736 1872.8313,-173.3505"/>
</g>
</g>
</svg>
        <g id="navigator" transform="translate(0 0)" fill="#404254">
                <rect fill="#f2f5e9" fill-opacity="0.5" stroke="#606060" stroke-width=".5" x="0" y="0" width="60" height="60"/>
                <use id="zoomplus" xlink:href="#zoomPlus" x="17" y="9" onmousedown="handleZoom(evt,'in')"/>
                <use id="zoomminus" xlink:href="#zoomMin" x="42" y="9" onmousedown="handleZoom(evt,'out')"/>
                <use id="reset" xlink:href="#resetDef" x="30" y="36" onmousedown="handleReset()"/>
                <g id="arrowUp" xlink:href="#dirArrow" transform="translate(30 24)" onmousedown="handlePan(0,-1)">
                  <use xlink:href="#rim" fill="#404040">
                        <set attributeName="fill" to="#808080" begin="arrowUp.mouseover" end="arrowUp.mouseout"/>
                  </use>
                  <path fill="none" stroke="white" stroke-width="1.5" d="M0,-3.0v7 M-2.5,-0.5L0,-3.0L2.5,-0.5"/>
                </g>
                <g id="arrowRight" xlink:href="#dirArrow" transform="rotate(90) translate(36 -43)" onmousedown="handlePan(1,0)">
                  <use xlink:href="#rim" fill="#404040">
                        <set attributeName="fill" to="#808080" begin="arrowRight.mouseover" end="arrowRight.mouseout"/>
                  </use>
                  <path fill="none" stroke="white" stroke-width="1.5" d="M0,-3.0v7 M-2.5,-0.5L0,-3.0L2.5,-0.5"/>
                </g>
                <g id="arrowDown" xlink:href="#dirArrow" transform="rotate(180) translate(-30 -48)" onmousedown="handlePan(0,1)">
                  <use xlink:href="#rim" fill="#404040">
                        <set attributeName="fill" to="#808080" begin="arrowDown.mouseover" end="arrowDown.mouseout"/>
                  </use>
                  <path fill="none" stroke="white" stroke-width="1.5" d="M0,-3.0v7 M-2.5,-0.5L0,-3.0L2.5,-0.5"/>
                </g>
                <g id="arrowLeft" xlink:href="#dirArrow" transform="rotate(270) translate(-36 17)" onmousedown="handlePan(-1,0)">
                  <use xlink:href="#rim" fill="#404040">
                        <set attributeName="fill" to="#808080" begin="arrowLeft.mouseover" end="arrowLeft.mouseout"/>
                  </use>
                  <path fill="none" stroke="white" stroke-width="1.5" d="M0,-3.0v7 M-2.5,-0.5L0,-3.0L2.5,-0.5"/>
                </g>
        </g>
        <svg viewBox="0 0 15 15" width="100%" height="30px" preserveAspectRatio="xMaxYMin meet">
         <g id="arrow_out" transform="scale(0.3 0.3)">
          <a xlink:href="FIT_2FV0_2include_2DataFormatsFV0_2ChannelData_8h__dep__incl_org.svg" target="_base">
           <rect id="button" ry="5" rx="5" y="6" x="6" height="38" width="38"
                fill="#f2f5e9" fill-opacity="0.5" stroke="#606060" stroke-width="1.0"/>
           <path id="arrow"
             d="M 11.500037,31.436501 C 11.940474,20.09759 22.043105,11.32322 32.158766,21.979434 L 37.068811,17.246167 C 37.068811,17.246167 37.088388,32 37.088388,32 L 22.160133,31.978069 C 22.160133,31.978069 26.997745,27.140456 26.997745,27.140456 C 18.528582,18.264221 13.291696,25.230495 11.500037,31.436501 z"
             style="fill:#404040;"/>
          </a>
         </g>
        </svg>
</svg>
