<?xml version="1.0" encoding="UTF-8" standalone="no"?>
<!DOCTYPE svg PUBLIC "-//W3C//DTD SVG 1.1//EN"
 "http://www.w3.org/Graphics/SVG/1.1/DTD/svg11.dtd">
<!-- Generated by graphviz version 2.40.1 (20161225.0304)
 -->
<!-- Title: o2::framework::HistogramSpec Pages: 1 -->
<svg width="352pt" height="375pt"
 viewBox="0.00 0.00 352.00 375.00" xmlns="http://www.w3.org/2000/svg" xmlns:xlink="http://www.w3.org/1999/xlink">
<g id="graph0" class="graph" transform="scale(1 1) rotate(0) translate(4 371)">
<title>o2::framework::HistogramSpec</title>
<!-- Node1 -->
<g id="node1" class="node">
<title>Node1</title>
<polygon fill="#bfbfbf" stroke="#000000" points="109,-.5 109,-90.5 277,-90.5 277,-.5 109,-.5"/>
<text text-anchor="middle" x="193" y="-78.5" font-family="Helvetica,sans-Serif" font-size="10.00" fill="#000000">o2::framework::HistogramSpec</text>
<polyline fill="none" stroke="#000000" points="109,-71.5 277,-71.5 "/>
<text text-anchor="middle" x="193" y="-59.5" font-family="Helvetica,sans-Serif" font-size="10.00" fill="#000000"> </text>
<polyline fill="none" stroke="#000000" points="109,-52.5 277,-52.5 "/>
<text text-anchor="start" x="117" y="-40.5" font-family="Helvetica,sans-Serif" font-size="10.00" fill="#000000">+ HistogramSpec()</text>
<text text-anchor="start" x="117" y="-29.5" font-family="Helvetica,sans-Serif" font-size="10.00" fill="#000000">+ HistogramSpec()</text>
<text text-anchor="start" x="117" y="-18.5" font-family="Helvetica,sans-Serif" font-size="10.00" fill="#000000">+ HistogramSpec()</text>
<text text-anchor="start" x="117" y="-7.5" font-family="Helvetica,sans-Serif" font-size="10.00" fill="#000000">+ HistogramSpec()</text>
</g>
<!-- Node2 -->
<g id="node2" class="node">
<title>Node2</title>
<polygon fill="none" stroke="#bfbfbf" points="46,-171.5 46,-228.5 102,-228.5 102,-171.5 46,-171.5"/>
<text text-anchor="middle" x="74" y="-216.5" font-family="Helvetica,sans-Serif" font-size="10.00" fill="#000000">uint32_t</text>
<polyline fill="none" stroke="#bfbfbf" points="46,-209.5 102,-209.5 "/>
<text text-anchor="middle" x="74" y="-197.5" font-family="Helvetica,sans-Serif" font-size="10.00" fill="#000000"> </text>
<polyline fill="none" stroke="#bfbfbf" points="46,-190.5 102,-190.5 "/>
<text text-anchor="middle" x="74" y="-178.5" font-family="Helvetica,sans-Serif" font-size="10.00" fill="#000000"> </text>
</g>
<!-- Node2&#45;&gt;Node1 -->
<g id="edge1" class="edge">
<title>Node2&#45;&gt;Node1</title>
<path fill="none" stroke="#404040" d="M94.5316,-171.2511C99.836,-163.9483 105.58,-156.1472 111,-149 123.1596,-132.9656 136.6216,-115.7581 149.0631,-100.0674"/>
<polygon fill="none" stroke="#404040" points="149.1882,-99.9102 149.7919,-92.7244 156.6571,-90.5178 156.0534,-97.7036 149.1882,-99.9102"/>
<text text-anchor="middle" x="150.5" y="-117.5" font-family="Helvetica,sans-Serif" font-size="10.00" fill="#000000"> +id</text>
</g>
<!-- Node3 -->
<g id="node3" class="node">
<title>Node3</title>
<g id="a_node3"><a xlink:href="../../d0/d70/structo2_1_1framework_1_1HistogramConfigSpec.html" target="_top" xlink:title="Data sctructure that will allow to construct a fully qualified TH* histogram. ">
<polygon fill="none" stroke="#000000" points="120.5,-149.5 120.5,-250.5 265.5,-250.5 265.5,-149.5 120.5,-149.5"/>
<text text-anchor="start" x="128.5" y="-238.5" font-family="Helvetica,sans-Serif" font-size="10.00" fill="#000000">o2::framework::Histogram</text>
<text text-anchor="middle" x="193" y="-227.5" font-family="Helvetica,sans-Serif" font-size="10.00" fill="#000000">ConfigSpec</text>
<polyline fill="none" stroke="#000000" points="120.5,-220.5 265.5,-220.5 "/>
<text text-anchor="middle" x="193" y="-208.5" font-family="Helvetica,sans-Serif" font-size="10.00" fill="#000000"> </text>
<polyline fill="none" stroke="#000000" points="120.5,-201.5 265.5,-201.5 "/>
<text text-anchor="start" x="128.5" y="-189.5" font-family="Helvetica,sans-Serif" font-size="10.00" fill="#000000">+ HistogramConfigSpec()</text>
<text text-anchor="start" x="128.5" y="-178.5" font-family="Helvetica,sans-Serif" font-size="10.00" fill="#000000">+ HistogramConfigSpec()</text>
<text text-anchor="start" x="128.5" y="-167.5" font-family="Helvetica,sans-Serif" font-size="10.00" fill="#000000">+ HistogramConfigSpec()</text>
<text text-anchor="start" x="128.5" y="-156.5" font-family="Helvetica,sans-Serif" font-size="10.00" fill="#000000">+ HistogramConfigSpec()</text>
</a>
</g>
</g>
<!-- Node3&#45;&gt;Node1 -->
<g id="edge2" class="edge">
<title>Node3&#45;&gt;Node1</title>
<path fill="none" stroke="#404040" d="M193,-149.4109C193,-134.6288 193,-118.3621 193,-103.1759"/>
<polygon fill="none" stroke="#404040" points="193.0001,-102.7299 189,-96.7299 193,-90.7299 197,-96.7298 193.0001,-102.7299"/>
<text text-anchor="middle" x="213.5" y="-117.5" font-family="Helvetica,sans-Serif" font-size="10.00" fill="#000000"> +config</text>
</g>
<!-- Node4 -->
<g id="node4" class="node">
<title>Node4</title>
<polygon fill="none" stroke="#bfbfbf" points="0,-298.5 0,-366.5 130,-366.5 130,-298.5 0,-298.5"/>
<text text-anchor="start" x="8" y="-354.5" font-family="Helvetica,sans-Serif" font-size="10.00" fill="#000000">vector&lt; o2::framework</text>
<text text-anchor="middle" x="65" y="-343.5" font-family="Helvetica,sans-Serif" font-size="10.00" fill="#000000">::AxisSpec &gt;</text>
<polyline fill="none" stroke="#bfbfbf" points="0,-336.5 130,-336.5 "/>
<text text-anchor="middle" x="65" y="-324.5" font-family="Helvetica,sans-Serif" font-size="10.00" fill="#000000"> </text>
<polyline fill="none" stroke="#bfbfbf" points="0,-317.5 130,-317.5 "/>
<text text-anchor="middle" x="65" y="-305.5" font-family="Helvetica,sans-Serif" font-size="10.00" fill="#000000"> </text>
</g>
<!-- Node4&#45;&gt;Node3 -->
<g id="edge3" class="edge">
<title>Node4&#45;&gt;Node3</title>
<path fill="none" stroke="#404040" d="M97.9632,-298.378C109.5082,-286.4271 122.8311,-272.6358 135.7796,-259.232"/>
<polygon fill="none" stroke="#404040" points="135.8747,-259.1337 137.1665,-252.0392 144.2121,-250.5031 142.9203,-257.5975 135.8747,-259.1337"/>
<text text-anchor="middle" x="143.5" y="-272" font-family="Helvetica,sans-Serif" font-size="10.00" fill="#000000"> +axes</text>
</g>
<!-- Node5 -->
<g id="node5" class="node">
<title>Node5</title>
<polygon fill="none" stroke="#bfbfbf" points="148,-304 148,-361 238,-361 238,-304 148,-304"/>
<text text-anchor="middle" x="193" y="-349" font-family="Helvetica,sans-Serif" font-size="10.00" fill="#000000">HistogramType</text>
<polyline fill="none" stroke="#bfbfbf" points="148,-342 238,-342 "/>
<text text-anchor="middle" x="193" y="-330" font-family="Helvetica,sans-Serif" font-size="10.00" fill="#000000"> </text>
<polyline fill="none" stroke="#bfbfbf" points="148,-323 238,-323 "/>
<text text-anchor="middle" x="193" y="-311" font-family="Helvetica,sans-Serif" font-size="10.00" fill="#000000"> </text>
</g>
<!-- Node5&#45;&gt;Node3 -->
<g id="edge4" class="edge">
<title>Node5&#45;&gt;Node3</title>
<path fill="none" stroke="#404040" d="M193,-303.7495C193,-291.7404 193,-277.2802 193,-263.0201"/>
<polygon fill="none" stroke="#404040" points="193.0001,-262.6065 189,-256.6065 193,-250.6065 197,-256.6065 193.0001,-262.6065"/>
<text text-anchor="middle" x="210" y="-272" font-family="Helvetica,sans-Serif" font-size="10.00" fill="#000000"> +type</text>
</g>
<!-- Node6 -->
<g id="node6" class="node">
<title>Node6</title>
<polygon fill="none" stroke="#bfbfbf" points="256,-304 256,-361 294,-361 294,-304 256,-304"/>
<text text-anchor="middle" x="275" y="-349" font-family="Helvetica,sans-Serif" font-size="10.00" fill="#000000">bool</text>
<polyline fill="none" stroke="#bfbfbf" points="256,-342 294,-342 "/>
<text text-anchor="middle" x="275" y="-330" font-family="Helvetica,sans-Serif" font-size="10.00" fill="#000000"> </text>
<polyline fill="none" stroke="#bfbfbf" points="256,-323 294,-323 "/>
<text text-anchor="middle" x="275" y="-311" font-family="Helvetica,sans-Serif" font-size="10.00" fill="#000000"> </text>
</g>
<!-- Node6&#45;&gt;Node3 -->
<g id="edge5" class="edge">
<title>Node6&#45;&gt;Node3</title>
<path fill="none" stroke="#404040" d="M257.2072,-303.7495C249.3999,-291.1339 239.9185,-275.8134 230.6651,-260.8613"/>
<polygon fill="none" stroke="#404040" points="230.6337,-260.8105 224.0749,-257.8135 224.3187,-250.6065 230.8776,-253.6035 230.6337,-260.8105"/>
<text text-anchor="middle" x="270.5" y="-272" font-family="Helvetica,sans-Serif" font-size="10.00" fill="#000000"> +binsEqual</text>
</g>
<!-- Node7 -->
<g id="node7" class="node">
<title>Node7</title>
<polygon fill="none" stroke="#bfbfbf" points="283.5,-171.5 283.5,-228.5 312.5,-228.5 312.5,-171.5 283.5,-171.5"/>
<text text-anchor="middle" x="298" y="-216.5" font-family="Helvetica,sans-Serif" font-size="10.00" fill="#000000">int</text>
<polyline fill="none" stroke="#bfbfbf" points="283.5,-209.5 312.5,-209.5 "/>
<text text-anchor="middle" x="298" y="-197.5" font-family="Helvetica,sans-Serif" font-size="10.00" fill="#000000"> </text>
<polyline fill="none" stroke="#bfbfbf" points="283.5,-190.5 312.5,-190.5 "/>
<text text-anchor="middle" x="298" y="-178.5" font-family="Helvetica,sans-Serif" font-size="10.00" fill="#000000"> </text>
</g>
<!-- Node7&#45;&gt;Node1 -->
<g id="edge6" class="edge">
<title>Node7&#45;&gt;Node1</title>
<path fill="none" stroke="#404040" d="M286.5493,-171.3073C283.1772,-163.8556 279.2425,-155.9691 275,-149 264.928,-132.455 252.5721,-115.5569 240.5371,-100.341"/>
<polygon fill="none" stroke="#404040" points="240.2256,-99.954 233.3476,-97.7877 232.7019,-90.6056 239.5799,-92.7719 240.2256,-99.954"/>
<text text-anchor="middle" x="303.5" y="-123" font-family="Helvetica,sans-Serif" font-size="10.00" fill="#000000"> +name</text>
<text text-anchor="middle" x="303.5" y="-112" font-family="Helvetica,sans-Serif" font-size="10.00" fill="#000000">+readableName</text>
</g>
</g>
</svg>
