<?xml version="1.0" encoding="UTF-8" standalone="no"?>
<!DOCTYPE svg PUBLIC "-//W3C//DTD SVG 1.1//EN"
 "http://www.w3.org/Graphics/SVG/1.1/DTD/svg11.dtd">
<!-- Generated by graphviz version 2.40.1 (20161225.0304)
 -->
<!-- Title: TrackQATask Pages: 1 -->
<svg width="1134pt" height="860pt"
 viewBox="0.00 0.00 1134.00 860.00" xmlns="http://www.w3.org/2000/svg" xmlns:xlink="http://www.w3.org/1999/xlink">
<g id="graph0" class="graph" transform="scale(1 1) rotate(0) translate(4 856)">
<title>TrackQATask</title>
<!-- Node1 -->
<g id="node1" class="node">
<title>Node1</title>
<polygon fill="#bfbfbf" stroke="#000000" points="658.5,-.5 658.5,-68.5 735.5,-68.5 735.5,-.5 658.5,-.5"/>
<text text-anchor="middle" x="697" y="-56.5" font-family="Helvetica,sans-Serif" font-size="10.00" fill="#000000">TrackQATask</text>
<polyline fill="none" stroke="#000000" points="658.5,-49.5 735.5,-49.5 "/>
<text text-anchor="middle" x="697" y="-37.5" font-family="Helvetica,sans-Serif" font-size="10.00" fill="#000000"> </text>
<polyline fill="none" stroke="#000000" points="658.5,-30.5 735.5,-30.5 "/>
<text text-anchor="start" x="666.5" y="-18.5" font-family="Helvetica,sans-Serif" font-size="10.00" fill="#000000">+ init()</text>
<text text-anchor="start" x="666.5" y="-7.5" font-family="Helvetica,sans-Serif" font-size="10.00" fill="#000000">+ process()</text>
</g>
<!-- Node2 -->
<g id="node2" class="node">
<title>Node2</title>
<g id="a_node2"><a xlink:href="../../d8/d71/structo2_1_1framework_1_1Configurable.html" target="_top" xlink:title="{o2::framework::Configurable\l\&lt; int \&gt;\n||+ Configurable()\l+ operator int()\l+ operator&#45;\&gt;()\l}">
<polygon fill="none" stroke="#000000" points="53.5,-414 53.5,-504 208.5,-504 208.5,-414 53.5,-414"/>
<text text-anchor="start" x="61.5" y="-492" font-family="Helvetica,sans-Serif" font-size="10.00" fill="#000000">o2::framework::Configurable</text>
<text text-anchor="middle" x="131" y="-481" font-family="Helvetica,sans-Serif" font-size="10.00" fill="#000000">&lt; int &gt;</text>
<polyline fill="none" stroke="#000000" points="53.5,-474 208.5,-474 "/>
<text text-anchor="middle" x="131" y="-462" font-family="Helvetica,sans-Serif" font-size="10.00" fill="#000000"> </text>
<polyline fill="none" stroke="#000000" points="53.5,-455 208.5,-455 "/>
<text text-anchor="start" x="61.5" y="-443" font-family="Helvetica,sans-Serif" font-size="10.00" fill="#000000">+ Configurable()</text>
<text text-anchor="start" x="61.5" y="-432" font-family="Helvetica,sans-Serif" font-size="10.00" fill="#000000">+ operator int()</text>
<text text-anchor="start" x="61.5" y="-421" font-family="Helvetica,sans-Serif" font-size="10.00" fill="#000000">+ operator&#45;&gt;()</text>
</a>
</g>
</g>
<!-- Node2&#45;&gt;Node1 -->
<g id="edge1" class="edge">
<title>Node2&#45;&gt;Node1</title>
<path fill="none" stroke="#404040" d="M180.5788,-413.6942C195.0034,-400.9165 210.9364,-387.1834 226,-375 374.703,-254.7295 561.4091,-125.8935 648.3225,-67.1091"/>
<polygon fill="none" stroke="#404040" points="648.4724,-67.0079 651.2067,-60.3353 658.4177,-60.2928 655.6834,-66.9655 648.4724,-67.0079"/>
<text text-anchor="middle" x="567" y="-236" font-family="Helvetica,sans-Serif" font-size="10.00" fill="#000000"> +selectedTracks</text>
</g>
<!-- Node3 -->
<g id="node3" class="node">
<title>Node3</title>
<polygon fill="none" stroke="#bfbfbf" points="483.5,-778 483.5,-835 512.5,-835 512.5,-778 483.5,-778"/>
<text text-anchor="middle" x="498" y="-823" font-family="Helvetica,sans-Serif" font-size="10.00" fill="#000000">int</text>
<polyline fill="none" stroke="#bfbfbf" points="483.5,-816 512.5,-816 "/>
<text text-anchor="middle" x="498" y="-804" font-family="Helvetica,sans-Serif" font-size="10.00" fill="#000000"> </text>
<polyline fill="none" stroke="#bfbfbf" points="483.5,-797 512.5,-797 "/>
<text text-anchor="middle" x="498" y="-785" font-family="Helvetica,sans-Serif" font-size="10.00" fill="#000000"> </text>
</g>
<!-- Node3&#45;&gt;Node2 -->
<g id="edge2" class="edge">
<title>Node3&#45;&gt;Node2</title>
<path fill="none" stroke="#404040" d="M483.4301,-804.9639C439.4626,-799.5662 306.6774,-777.5599 234,-703 196.7083,-664.7423 213.5613,-639.3108 193,-590 182.6393,-565.1526 170.1091,-538.1924 159.0327,-515.2257"/>
<polygon fill="none" stroke="#404040" points="158.9687,-515.0938 152.7499,-511.4432 153.7278,-504.2987 159.9466,-507.9493 158.9687,-515.0938"/>
<text text-anchor="middle" x="253.5" y="-655" font-family="Helvetica,sans-Serif" font-size="10.00" fill="#000000"> +value</text>
<text text-anchor="middle" x="253.5" y="-644" font-family="Helvetica,sans-Serif" font-size="10.00" fill="#000000">+name</text>
<text text-anchor="middle" x="253.5" y="-633" font-family="Helvetica,sans-Serif" font-size="10.00" fill="#000000">+help</text>
</g>
<!-- Node4 -->
<g id="node4" class="node">
<title>Node4</title>
<g id="a_node4"><a xlink:href="../../d8/d71/structo2_1_1framework_1_1Configurable.html" target="_top" xlink:title="{o2::framework::Configurable\&lt; T \&gt;\n||+ Configurable()\l+ operator T()\l+ operator&#45;\&gt;()\l}">
<polygon fill="none" stroke="#000000" points="0,-607 0,-686 184,-686 184,-607 0,-607"/>
<text text-anchor="middle" x="92" y="-674" font-family="Helvetica,sans-Serif" font-size="10.00" fill="#000000">o2::framework::Configurable&lt; T &gt;</text>
<polyline fill="none" stroke="#000000" points="0,-667 184,-667 "/>
<text text-anchor="middle" x="92" y="-655" font-family="Helvetica,sans-Serif" font-size="10.00" fill="#000000"> </text>
<polyline fill="none" stroke="#000000" points="0,-648 184,-648 "/>
<text text-anchor="start" x="8" y="-636" font-family="Helvetica,sans-Serif" font-size="10.00" fill="#000000">+ Configurable()</text>
<text text-anchor="start" x="8" y="-625" font-family="Helvetica,sans-Serif" font-size="10.00" fill="#000000">+ operator T()</text>
<text text-anchor="start" x="8" y="-614" font-family="Helvetica,sans-Serif" font-size="10.00" fill="#000000">+ operator&#45;&gt;()</text>
</a>
</g>
</g>
<!-- Node3&#45;&gt;Node4 -->
<g id="edge4" class="edge">
<title>Node3&#45;&gt;Node4</title>
<path fill="none" stroke="#404040" d="M483.4095,-805.0968C426.6417,-799.4291 220.9377,-776.8942 166,-743 147.3752,-731.5093 131.7007,-713.5028 119.6409,-696.1409"/>
<polygon fill="none" stroke="#404040" points="119.5842,-696.0552 112.9376,-693.2583 112.963,-686.0472 119.6096,-688.8441 119.5842,-696.0552"/>
<text text-anchor="middle" x="186" y="-735" font-family="Helvetica,sans-Serif" font-size="10.00" fill="#000000"> +name</text>
<text text-anchor="middle" x="186" y="-724" font-family="Helvetica,sans-Serif" font-size="10.00" fill="#000000">+help</text>
</g>
<!-- Node6 -->
<g id="node6" class="node">
<title>Node6</title>
<g id="a_node6"><a xlink:href="../../d4/d79/structo2_1_1framework_1_1OutputObj.html" target="_top" xlink:title="{o2::framework::OutputObj\l\&lt; HistFolder \&gt;\n||+ spec()\l+ OutputObj()\l+ OutputObj()\l+ setObject()\l+ setObject()\l+ setObject()\l+ setObject()\l+ setHash()\l+ operator&#45;\&gt;()\l+ operator*()\l+ ref()\l}">
<polygon fill="none" stroke="#000000" points="625.5,-149.5 625.5,-327.5 768.5,-327.5 768.5,-149.5 625.5,-149.5"/>
<text text-anchor="start" x="633.5" y="-315.5" font-family="Helvetica,sans-Serif" font-size="10.00" fill="#000000">o2::framework::OutputObj</text>
<text text-anchor="middle" x="697" y="-304.5" font-family="Helvetica,sans-Serif" font-size="10.00" fill="#000000">&lt; HistFolder &gt;</text>
<polyline fill="none" stroke="#000000" points="625.5,-297.5 768.5,-297.5 "/>
<text text-anchor="middle" x="697" y="-285.5" font-family="Helvetica,sans-Serif" font-size="10.00" fill="#000000"> </text>
<polyline fill="none" stroke="#000000" points="625.5,-278.5 768.5,-278.5 "/>
<text text-anchor="start" x="633.5" y="-266.5" font-family="Helvetica,sans-Serif" font-size="10.00" fill="#000000">+ spec()</text>
<text text-anchor="start" x="633.5" y="-255.5" font-family="Helvetica,sans-Serif" font-size="10.00" fill="#000000">+ OutputObj()</text>
<text text-anchor="start" x="633.5" y="-244.5" font-family="Helvetica,sans-Serif" font-size="10.00" fill="#000000">+ OutputObj()</text>
<text text-anchor="start" x="633.5" y="-233.5" font-family="Helvetica,sans-Serif" font-size="10.00" fill="#000000">+ setObject()</text>
<text text-anchor="start" x="633.5" y="-222.5" font-family="Helvetica,sans-Serif" font-size="10.00" fill="#000000">+ setObject()</text>
<text text-anchor="start" x="633.5" y="-211.5" font-family="Helvetica,sans-Serif" font-size="10.00" fill="#000000">+ setObject()</text>
<text text-anchor="start" x="633.5" y="-200.5" font-family="Helvetica,sans-Serif" font-size="10.00" fill="#000000">+ setObject()</text>
<text text-anchor="start" x="633.5" y="-189.5" font-family="Helvetica,sans-Serif" font-size="10.00" fill="#000000">+ setHash()</text>
<text text-anchor="start" x="633.5" y="-178.5" font-family="Helvetica,sans-Serif" font-size="10.00" fill="#000000">+ operator&#45;&gt;()</text>
<text text-anchor="start" x="633.5" y="-167.5" font-family="Helvetica,sans-Serif" font-size="10.00" fill="#000000">+ operator*()</text>
<text text-anchor="start" x="633.5" y="-156.5" font-family="Helvetica,sans-Serif" font-size="10.00" fill="#000000">+ ref()</text>
</a>
</g>
</g>
<!-- Node3&#45;&gt;Node6 -->
<g id="edge10" class="edge">
<title>Node3&#45;&gt;Node6</title>
<path fill="none" stroke="#404040" d="M512.7354,-804.4844C553.526,-798.0704 668.5021,-774.1824 723,-703 767.4592,-644.9296 763.466,-446.885 750,-375 747.8059,-363.2874 744.6384,-351.2875 740.9274,-339.4983"/>
<polygon fill="none" stroke="#404040" points="740.825,-339.189 735.141,-334.7513 737.0512,-327.7978 742.7352,-332.2354 740.825,-339.189"/>
<text text-anchor="middle" x="776" y="-564" font-family="Helvetica,sans-Serif" font-size="10.00" fill="#000000"> +label</text>
</g>
<!-- Node11 -->
<g id="node11" class="node">
<title>Node11</title>
<g id="a_node11"><a xlink:href="../../da/d96/structo2_1_1framework_1_1InputSpec.html" target="_top" xlink:title="{o2::framework::InputSpec\n||+ InputSpec()\l+ InputSpec()\l+ InputSpec()\l+ InputSpec()\l+ InputSpec()\l+ operator==()\l}">
<polygon fill="none" stroke="#000000" points="842,-590.5 842,-702.5 984,-702.5 984,-590.5 842,-590.5"/>
<text text-anchor="middle" x="913" y="-690.5" font-family="Helvetica,sans-Serif" font-size="10.00" fill="#000000">o2::framework::InputSpec</text>
<polyline fill="none" stroke="#000000" points="842,-683.5 984,-683.5 "/>
<text text-anchor="middle" x="913" y="-671.5" font-family="Helvetica,sans-Serif" font-size="10.00" fill="#000000"> </text>
<polyline fill="none" stroke="#000000" points="842,-664.5 984,-664.5 "/>
<text text-anchor="start" x="850" y="-652.5" font-family="Helvetica,sans-Serif" font-size="10.00" fill="#000000">+ InputSpec()</text>
<text text-anchor="start" x="850" y="-641.5" font-family="Helvetica,sans-Serif" font-size="10.00" fill="#000000">+ InputSpec()</text>
<text text-anchor="start" x="850" y="-630.5" font-family="Helvetica,sans-Serif" font-size="10.00" fill="#000000">+ InputSpec()</text>
<text text-anchor="start" x="850" y="-619.5" font-family="Helvetica,sans-Serif" font-size="10.00" fill="#000000">+ InputSpec()</text>
<text text-anchor="start" x="850" y="-608.5" font-family="Helvetica,sans-Serif" font-size="10.00" fill="#000000">+ InputSpec()</text>
<text text-anchor="start" x="850" y="-597.5" font-family="Helvetica,sans-Serif" font-size="10.00" fill="#000000">+ operator==()</text>
</a>
</g>
</g>
<!-- Node3&#45;&gt;Node11 -->
<g id="edge15" class="edge">
<title>Node3&#45;&gt;Node11</title>
<path fill="none" stroke="#404040" d="M512.5262,-804.9568C554.3282,-800.1378 677.9389,-783.2199 772,-743 798.7818,-731.5483 805.0457,-723.1118 831.9964,-703.8207"/>
<polygon fill="none" stroke="#404040" points="832.1504,-703.7132 834.7793,-696.9983 841.9888,-696.8424 839.3598,-703.5572 832.1504,-703.7132"/>
<text text-anchor="middle" x="833" y="-729.5" font-family="Helvetica,sans-Serif" font-size="10.00" fill="#000000"> +binding</text>
</g>
<!-- Node14 -->
<g id="node14" class="node">
<title>Node14</title>
<g id="a_node14"><a xlink:href="../../d4/d79/structo2_1_1framework_1_1OutputObj.html" target="_top" xlink:title="{o2::framework::OutputObj\&lt; T \&gt;\n||+ OutputObj()\l+ OutputObj()\l+ setObject()\l+ setObject()\l+ setObject()\l+ setObject()\l+ setHash()\l+ spec()\l+ operator&#45;\&gt;()\l+ operator*()\l+ ref()\l}">
<polygon fill="none" stroke="#000000" points="331,-375.5 331,-542.5 503,-542.5 503,-375.5 331,-375.5"/>
<text text-anchor="middle" x="417" y="-530.5" font-family="Helvetica,sans-Serif" font-size="10.00" fill="#000000">o2::framework::OutputObj&lt; T &gt;</text>
<polyline fill="none" stroke="#000000" points="331,-523.5 503,-523.5 "/>
<text text-anchor="middle" x="417" y="-511.5" font-family="Helvetica,sans-Serif" font-size="10.00" fill="#000000"> </text>
<polyline fill="none" stroke="#000000" points="331,-504.5 503,-504.5 "/>
<text text-anchor="start" x="339" y="-492.5" font-family="Helvetica,sans-Serif" font-size="10.00" fill="#000000">+ OutputObj()</text>
<text text-anchor="start" x="339" y="-481.5" font-family="Helvetica,sans-Serif" font-size="10.00" fill="#000000">+ OutputObj()</text>
<text text-anchor="start" x="339" y="-470.5" font-family="Helvetica,sans-Serif" font-size="10.00" fill="#000000">+ setObject()</text>
<text text-anchor="start" x="339" y="-459.5" font-family="Helvetica,sans-Serif" font-size="10.00" fill="#000000">+ setObject()</text>
<text text-anchor="start" x="339" y="-448.5" font-family="Helvetica,sans-Serif" font-size="10.00" fill="#000000">+ setObject()</text>
<text text-anchor="start" x="339" y="-437.5" font-family="Helvetica,sans-Serif" font-size="10.00" fill="#000000">+ setObject()</text>
<text text-anchor="start" x="339" y="-426.5" font-family="Helvetica,sans-Serif" font-size="10.00" fill="#000000">+ setHash()</text>
<text text-anchor="start" x="339" y="-415.5" font-family="Helvetica,sans-Serif" font-size="10.00" fill="#000000">+ spec()</text>
<text text-anchor="start" x="339" y="-404.5" font-family="Helvetica,sans-Serif" font-size="10.00" fill="#000000">+ operator&#45;&gt;()</text>
<text text-anchor="start" x="339" y="-393.5" font-family="Helvetica,sans-Serif" font-size="10.00" fill="#000000">+ operator*()</text>
<text text-anchor="start" x="339" y="-382.5" font-family="Helvetica,sans-Serif" font-size="10.00" fill="#000000">+ ref()</text>
</a>
</g>
</g>
<!-- Node3&#45;&gt;Node14 -->
<g id="edge19" class="edge">
<title>Node3&#45;&gt;Node14</title>
<path fill="none" stroke="#404040" d="M497.4349,-777.9617C495.6968,-731.2081 488.7235,-635.9956 461,-561 460.138,-558.6682 459.2512,-556.3126 458.3444,-553.9415"/>
<polygon fill="none" stroke="#404040" points="458.3434,-553.9386 452.4324,-549.8082 453.9717,-542.7633 459.8826,-546.8937 458.3434,-553.9386"/>
<text text-anchor="middle" x="510" y="-644" font-family="Helvetica,sans-Serif" font-size="10.00" fill="#000000"> +label</text>
</g>
<!-- Node4&#45;&gt;Node2 -->
<g id="edge3" class="edge">
<title>Node4&#45;&gt;Node2</title>
<path fill="none" stroke="#ffa500" d="M102.3172,-596.898C108.2928,-568.1692 115.7593,-532.2727 121.5763,-504.3063"/>
<polygon fill="#ffa500" stroke="#ffa500" points="98.8807,-596.2328 100.2709,-606.7361 105.7341,-597.6584 98.8807,-596.2328"/>
<text text-anchor="middle" x="129.5" y="-564" font-family="Helvetica,sans-Serif" font-size="10.00" fill="#000000"> &lt; int &gt;</text>
</g>
<!-- Node5 -->
<g id="node5" class="node">
<title>Node5</title>
<polygon fill="none" stroke="#bfbfbf" points="77.5,-778 77.5,-835 106.5,-835 106.5,-778 77.5,-778"/>
<text text-anchor="middle" x="92" y="-823" font-family="Helvetica,sans-Serif" font-size="10.00" fill="#000000">T</text>
<polyline fill="none" stroke="#bfbfbf" points="77.5,-816 106.5,-816 "/>
<text text-anchor="middle" x="92" y="-804" font-family="Helvetica,sans-Serif" font-size="10.00" fill="#000000"> </text>
<polyline fill="none" stroke="#bfbfbf" points="77.5,-797 106.5,-797 "/>
<text text-anchor="middle" x="92" y="-785" font-family="Helvetica,sans-Serif" font-size="10.00" fill="#000000"> </text>
</g>
<!-- Node5&#45;&gt;Node4 -->
<g id="edge5" class="edge">
<title>Node5&#45;&gt;Node4</title>
<path fill="none" stroke="#404040" d="M92,-777.8952C92,-755.8577 92,-724.7968 92,-698.4075"/>
<polygon fill="none" stroke="#404040" points="92.0001,-698.2754 88,-692.2755 92,-686.2754 96,-692.2754 92.0001,-698.2754"/>
<text text-anchor="middle" x="111.5" y="-729.5" font-family="Helvetica,sans-Serif" font-size="10.00" fill="#000000"> +value</text>
</g>
<!-- Node6&#45;&gt;Node1 -->
<g id="edge6" class="edge">
<title>Node6&#45;&gt;Node1</title>
<path fill="none" stroke="#404040" d="M697,-149.3194C697,-125.7023 697,-101.1536 697,-80.8465"/>
<polygon fill="none" stroke="#404040" points="697.0001,-80.7969 693,-74.7969 697,-68.7969 701,-74.7968 697.0001,-80.7969"/>
<text text-anchor="middle" x="721.5" y="-123" font-family="Helvetica,sans-Serif" font-size="10.00" fill="#000000"> +tpc</text>
<text text-anchor="middle" x="721.5" y="-112" font-family="Helvetica,sans-Serif" font-size="10.00" fill="#000000">+its</text>
<text text-anchor="middle" x="721.5" y="-101" font-family="Helvetica,sans-Serif" font-size="10.00" fill="#000000">+trackpar</text>
<text text-anchor="middle" x="721.5" y="-90" font-family="Helvetica,sans-Serif" font-size="10.00" fill="#000000">+kine</text>
</g>
<!-- Node7 -->
<g id="node7" class="node">
<title>Node7</title>
<polygon fill="none" stroke="#bfbfbf" points="575.5,-618 575.5,-675 714.5,-675 714.5,-618 575.5,-618"/>
<text text-anchor="middle" x="645" y="-663" font-family="Helvetica,sans-Serif" font-size="10.00" fill="#000000">OutputObjHandlingPolicy</text>
<polyline fill="none" stroke="#bfbfbf" points="575.5,-656 714.5,-656 "/>
<text text-anchor="middle" x="645" y="-644" font-family="Helvetica,sans-Serif" font-size="10.00" fill="#000000"> </text>
<polyline fill="none" stroke="#bfbfbf" points="575.5,-637 714.5,-637 "/>
<text text-anchor="middle" x="645" y="-625" font-family="Helvetica,sans-Serif" font-size="10.00" fill="#000000"> </text>
</g>
<!-- Node7&#45;&gt;Node6 -->
<g id="edge7" class="edge">
<title>Node7&#45;&gt;Node6</title>
<path fill="none" stroke="#404040" d="M663.2241,-617.9401C670.8004,-604.5339 678.7958,-588.0093 683,-572 702.9538,-496.0175 705.7007,-406.9887 703.8689,-340.0373"/>
<polygon fill="none" stroke="#404040" points="703.8612,-339.7949 699.671,-333.9261 703.4767,-327.801 707.6669,-333.6698 703.8612,-339.7949"/>
<text text-anchor="middle" x="725.5" y="-456.5" font-family="Helvetica,sans-Serif" font-size="10.00" fill="#000000"> +policy</text>
</g>
<!-- Node7&#45;&gt;Node14 -->
<g id="edge17" class="edge">
<title>Node7&#45;&gt;Node14</title>
<path fill="none" stroke="#404040" d="M606.9519,-617.8986C582.1796,-599.0527 549.0792,-573.4517 512.4064,-543.2468"/>
<polygon fill="none" stroke="#404040" points="512.2536,-543.1204 505.081,-542.3767 503.0087,-535.4697 510.1814,-536.2134 512.2536,-543.1204"/>
<text text-anchor="middle" x="565.5" y="-564" font-family="Helvetica,sans-Serif" font-size="10.00" fill="#000000"> +policy</text>
</g>
<!-- Node8 -->
<g id="node8" class="node">
<title>Node8</title>
<polygon fill="none" stroke="#bfbfbf" points="521,-430.5 521,-487.5 661,-487.5 661,-430.5 521,-430.5"/>
<text text-anchor="middle" x="591" y="-475.5" font-family="Helvetica,sans-Serif" font-size="10.00" fill="#000000">shared_ptr&lt; HistFolder &gt;</text>
<polyline fill="none" stroke="#bfbfbf" points="521,-468.5 661,-468.5 "/>
<text text-anchor="middle" x="591" y="-456.5" font-family="Helvetica,sans-Serif" font-size="10.00" fill="#000000"> </text>
<polyline fill="none" stroke="#bfbfbf" points="521,-449.5 661,-449.5 "/>
<text text-anchor="middle" x="591" y="-437.5" font-family="Helvetica,sans-Serif" font-size="10.00" fill="#000000"> </text>
</g>
<!-- Node8&#45;&gt;Node6 -->
<g id="edge8" class="edge">
<title>Node8&#45;&gt;Node6</title>
<path fill="none" stroke="#404040" d="M603.0388,-430.4432C612.8712,-407.4587 627.3281,-374.4178 641,-346 642.1675,-343.5733 643.3582,-341.1206 644.5669,-338.6506"/>
<polygon fill="none" stroke="#404040" points="644.645,-338.4924 643.7197,-331.3409 649.9653,-327.7362 650.8905,-334.8877 644.645,-338.4924"/>
<text text-anchor="middle" x="662" y="-349" font-family="Helvetica,sans-Serif" font-size="10.00" fill="#000000"> +object</text>
</g>
<!-- Node9 -->
<g id="node9" class="node">
<title>Node9</title>
<g id="a_node9"><a xlink:href="../../d3/d87/classuint32__t.html" target="_top" xlink:title="{uint32_t\n||}">
<polygon fill="none" stroke="#000000" points="282,-618 282,-675 338,-675 338,-618 282,-618"/>
<text text-anchor="middle" x="310" y="-663" font-family="Helvetica,sans-Serif" font-size="10.00" fill="#000000">uint32_t</text>
<polyline fill="none" stroke="#000000" points="282,-656 338,-656 "/>
<text text-anchor="middle" x="310" y="-644" font-family="Helvetica,sans-Serif" font-size="10.00" fill="#000000"> </text>
<polyline fill="none" stroke="#000000" points="282,-637 338,-637 "/>
<text text-anchor="middle" x="310" y="-625" font-family="Helvetica,sans-Serif" font-size="10.00" fill="#000000"> </text>
</a>
</g>
</g>
<!-- Node9&#45;&gt;Node6 -->
<g id="edge9" class="edge">
<title>Node9&#45;&gt;Node6</title>
<path fill="none" stroke="#404040" d="M293.5689,-617.8709C277.7818,-590.0949 256.0246,-550.9964 254,-543 235.6735,-470.6173 209.6523,-435.0699 254,-375 296.8762,-316.9233 497.2159,-273.21 613.2662,-252.2503"/>
<polygon fill="none" stroke="#404040" points="613.4461,-252.2183 618.6504,-247.2267 625.2596,-250.1109 620.0553,-255.1024 613.4461,-252.2183"/>
<text text-anchor="middle" x="288" y="-456.5" font-family="Helvetica,sans-Serif" font-size="10.00" fill="#000000"> +mTaskHash</text>
</g>
<!-- Node9&#45;&gt;Node14 -->
<g id="edge18" class="edge">
<title>Node9&#45;&gt;Node14</title>
<path fill="none" stroke="#404040" d="M318.933,-617.9584C324.7645,-600.9363 333.1199,-579.1721 343,-561 344.3887,-558.4458 345.8327,-555.8819 347.3224,-553.3162"/>
<polygon fill="none" stroke="#404040" points="347.4809,-553.0533 347.1556,-545.8495 353.6801,-542.7785 354.0054,-549.9823 347.4809,-553.0533"/>
<text text-anchor="middle" x="377" y="-564" font-family="Helvetica,sans-Serif" font-size="10.00" fill="#000000"> +mTaskHash</text>
</g>
<!-- Node10 -->
<g id="node10" class="node">
<title>Node10</title>
<polygon fill="none" stroke="#bfbfbf" points="786,-618 786,-675 824,-675 824,-618 786,-618"/>
<text text-anchor="middle" x="805" y="-663" font-family="Helvetica,sans-Serif" font-size="10.00" fill="#000000">bool</text>
<polyline fill="none" stroke="#bfbfbf" points="786,-656 824,-656 "/>
<text text-anchor="middle" x="805" y="-644" font-family="Helvetica,sans-Serif" font-size="10.00" fill="#000000"> </text>
<polyline fill="none" stroke="#bfbfbf" points="786,-637 824,-637 "/>
<text text-anchor="middle" x="805" y="-625" font-family="Helvetica,sans-Serif" font-size="10.00" fill="#000000"> </text>
</g>
<!-- Node10&#45;&gt;Node6 -->
<g id="edge11" class="edge">
<title>Node10&#45;&gt;Node6</title>
<path fill="none" stroke="#404040" d="M807.8499,-617.9718C812.2156,-563.1509 816.5842,-440.1802 780,-346 778.2958,-341.6128 776.3528,-337.2563 774.2185,-332.9522"/>
<polygon fill="none" stroke="#404040" points="774.2172,-332.9497 767.8566,-329.5521 768.5464,-322.374 774.907,-325.7716 774.2172,-332.9497"/>
<text text-anchor="middle" x="842" y="-456.5" font-family="Helvetica,sans-Serif" font-size="10.00" fill="#000000"> +isdangling</text>
</g>
<!-- Node10&#45;&gt;Node14 -->
<g id="edge21" class="edge">
<title>Node10&#45;&gt;Node14</title>
<path fill="none" stroke="#404040" d="M785.7312,-630.0191C769.8746,-617.2808 746.2948,-600.1592 723,-590 713.1528,-585.7055 560.6445,-555.8512 514.6545,-542.2459"/>
<polygon fill="none" stroke="#404040" points="514.5424,-542.206 507.5481,-543.961 503.238,-538.1797 510.2323,-536.4248 514.5424,-542.206"/>
<text text-anchor="middle" x="673" y="-564" font-family="Helvetica,sans-Serif" font-size="10.00" fill="#000000"> +isdangling</text>
</g>
<!-- Node11&#45;&gt;Node6 -->
<g id="edge12" class="edge">
<title>Node11&#45;&gt;Node6</title>
<path fill="none" stroke="#404040" d="M917.6704,-590.4962C919.8617,-532.6175 915.7342,-441.5802 877,-375 854.1138,-335.6609 814.9896,-303.9385 779.0515,-281.0109"/>
<polygon fill="none" stroke="#404040" points="778.7185,-280.8044 771.5113,-281.0412 768.5207,-274.4794 775.7279,-274.2426 778.7185,-280.8044"/>
<text text-anchor="middle" x="935" y="-456.5" font-family="Helvetica,sans-Serif" font-size="10.00" fill="#000000"> +spec</text>
</g>
<!-- Node11&#45;&gt;Node14 -->
<g id="edge22" class="edge">
<title>Node11&#45;&gt;Node14</title>
<path fill="none" stroke="#404040" d="M851.4711,-590.3136C835.4415,-578.6232 817.4548,-567.8008 799,-561 682.7079,-518.1452 633.0803,-587.5414 514.5545,-543.426"/>
<polygon fill="none" stroke="#404040" points="514.4077,-543.368 507.3572,-544.8816 503.2483,-538.9556 510.2988,-537.442 514.4077,-543.368"/>
<text text-anchor="middle" x="838" y="-564" font-family="Helvetica,sans-Serif" font-size="10.00" fill="#000000"> +spec</text>
</g>
<!-- Node12 -->
<g id="node12" class="node">
<title>Node12</title>
<polygon fill="none" stroke="#bfbfbf" points="856,-778 856,-835 944,-835 944,-778 856,-778"/>
<text text-anchor="middle" x="900" y="-823" font-family="Helvetica,sans-Serif" font-size="10.00" fill="#000000">enum Lifetime</text>
<polyline fill="none" stroke="#bfbfbf" points="856,-816 944,-816 "/>
<text text-anchor="middle" x="900" y="-804" font-family="Helvetica,sans-Serif" font-size="10.00" fill="#000000"> </text>
<polyline fill="none" stroke="#bfbfbf" points="856,-797 944,-797 "/>
<text text-anchor="middle" x="900" y="-785" font-family="Helvetica,sans-Serif" font-size="10.00" fill="#000000"> </text>
</g>
<!-- Node12&#45;&gt;Node11 -->
<g id="edge13" class="edge">
<title>Node12&#45;&gt;Node11</title>
<path fill="none" stroke="#404040" d="M902.3241,-777.8952C903.7537,-760.3 905.6507,-736.9527 907.4487,-714.8235"/>
<polygon fill="none" stroke="#404040" points="907.4619,-714.6597 903.961,-708.3554 908.4338,-702.6991 911.9347,-709.0033 907.4619,-714.6597"/>
<text text-anchor="middle" x="932" y="-729.5" font-family="Helvetica,sans-Serif" font-size="10.00" fill="#000000"> +lifetime</text>
</g>
<!-- Node13 -->
<g id="node13" class="node">
<title>Node13</title>
<polygon fill="none" stroke="#bfbfbf" points="962,-761.5 962,-851.5 1126,-851.5 1126,-761.5 962,-761.5"/>
<text text-anchor="start" x="970" y="-839.5" font-family="Helvetica,sans-Serif" font-size="10.00" fill="#000000">variant&lt; o2::framework</text>
<text text-anchor="start" x="970" y="-828.5" font-family="Helvetica,sans-Serif" font-size="10.00" fill="#000000">::ConcreteDataMatcher,</text>
<text text-anchor="start" x="970" y="-817.5" font-family="Helvetica,sans-Serif" font-size="10.00" fill="#000000"> o2::framework::data_matcher</text>
<text text-anchor="middle" x="1044" y="-806.5" font-family="Helvetica,sans-Serif" font-size="10.00" fill="#000000">::DataDescriptorMatcher &gt;</text>
<polyline fill="none" stroke="#bfbfbf" points="962,-799.5 1126,-799.5 "/>
<text text-anchor="middle" x="1044" y="-787.5" font-family="Helvetica,sans-Serif" font-size="10.00" fill="#000000"> </text>
<polyline fill="none" stroke="#bfbfbf" points="962,-780.5 1126,-780.5 "/>
<text text-anchor="middle" x="1044" y="-768.5" font-family="Helvetica,sans-Serif" font-size="10.00" fill="#000000"> </text>
</g>
<!-- Node13&#45;&gt;Node11 -->
<g id="edge14" class="edge">
<title>Node13&#45;&gt;Node11</title>
<path fill="none" stroke="#404040" d="M1006.8111,-761.0784C994.3542,-745.8639 980.2056,-728.5831 966.7422,-712.1393"/>
<polygon fill="none" stroke="#404040" points="966.5144,-711.861 959.6184,-709.7526 958.9123,-702.5761 965.8083,-704.6846 966.5144,-711.861"/>
<text text-anchor="middle" x="1017" y="-729.5" font-family="Helvetica,sans-Serif" font-size="10.00" fill="#000000"> +matcher</text>
</g>
<!-- Node14&#45;&gt;Node6 -->
<g id="edge16" class="edge">
<title>Node14&#45;&gt;Node6</title>
<path fill="none" stroke="#ffa500" d="M511.1806,-375.6633C511.454,-375.4417 511.7271,-375.2206 512,-375 548.4722,-345.5155 590.4374,-314.3409 625.1697,-289.239"/>
<polygon fill="#ffa500" stroke="#ffa500" points="508.7034,-373.1682 503.1883,-382.2145 513.141,-378.5819 508.7034,-373.1682"/>
<text text-anchor="middle" x="585" y="-349" font-family="Helvetica,sans-Serif" font-size="10.00" fill="#000000"> &lt; HistFolder &gt;</text>
</g>
<!-- Node15 -->
<g id="node15" class="node">
<title>Node15</title>
<polygon fill="none" stroke="#bfbfbf" points="364.5,-618 364.5,-675 461.5,-675 461.5,-618 364.5,-618"/>
<text text-anchor="middle" x="413" y="-663" font-family="Helvetica,sans-Serif" font-size="10.00" fill="#000000">shared_ptr&lt; T &gt;</text>
<polyline fill="none" stroke="#bfbfbf" points="364.5,-656 461.5,-656 "/>
<text text-anchor="middle" x="413" y="-644" font-family="Helvetica,sans-Serif" font-size="10.00" fill="#000000"> </text>
<polyline fill="none" stroke="#bfbfbf" points="364.5,-637 461.5,-637 "/>
<text text-anchor="middle" x="413" y="-625" font-family="Helvetica,sans-Serif" font-size="10.00" fill="#000000"> </text>
</g>
<!-- Node15&#45;&gt;Node14 -->
<g id="edge20" class="edge">
<title>Node15&#45;&gt;Node14</title>
<path fill="none" stroke="#404040" d="M413.6162,-617.614C413.982,-600.4686 414.4689,-577.6459 414.9591,-554.6694"/>
<polygon fill="none" stroke="#404040" points="414.959,-554.6666 411.0879,-548.5827 415.2151,-542.6694 419.0861,-548.7534 414.959,-554.6666"/>
<text text-anchor="middle" x="436" y="-564" font-family="Helvetica,sans-Serif" font-size="10.00" fill="#000000"> +object</text>
</g>
<!-- Node16 -->
<g id="node16" class="node">
<title>Node16</title>
<g id="a_node16"><a xlink:href="../../d1/d9a/structo2_1_1framework_1_1expressions_1_1Filter.html" target="_top" xlink:title="A struct, containing the root of the expression tree. ">
<polygon fill="none" stroke="#000000" points="895,-199 895,-278 1047,-278 1047,-199 895,-199"/>
<text text-anchor="start" x="903" y="-266" font-family="Helvetica,sans-Serif" font-size="10.00" fill="#000000">o2::framework::expressions</text>
<text text-anchor="middle" x="971" y="-255" font-family="Helvetica,sans-Serif" font-size="10.00" fill="#000000">::Filter</text>
<polyline fill="none" stroke="#000000" points="895,-248 1047,-248 "/>
<text text-anchor="middle" x="971" y="-236" font-family="Helvetica,sans-Serif" font-size="10.00" fill="#000000"> </text>
<polyline fill="none" stroke="#000000" points="895,-229 1047,-229 "/>
<text text-anchor="start" x="903" y="-217" font-family="Helvetica,sans-Serif" font-size="10.00" fill="#000000">+ Filter()</text>
<text text-anchor="start" x="903" y="-206" font-family="Helvetica,sans-Serif" font-size="10.00" fill="#000000">+ Filter()</text>
</a>
</g>
</g>
<!-- Node16&#45;&gt;Node1 -->
<g id="edge23" class="edge">
<title>Node16&#45;&gt;Node1</title>
<path fill="none" stroke="#404040" d="M917.8452,-198.9249C868.0101,-161.8214 794.1244,-106.8116 745.7663,-70.8078"/>
<polygon fill="none" stroke="#404040" points="745.4778,-70.593 738.2764,-70.2182 735.8525,-63.4267 743.0539,-63.8014 745.4778,-70.593"/>
<text text-anchor="middle" x="856.5" y="-106.5" font-family="Helvetica,sans-Serif" font-size="10.00" fill="#000000"> +trackFilter</text>
</g>
<!-- Node17 -->
<g id="node17" class="node">
<title>Node17</title>
<polygon fill="none" stroke="#bfbfbf" points="962.5,-425 962.5,-493 1113.5,-493 1113.5,-425 962.5,-425"/>
<text text-anchor="start" x="970.5" y="-481" font-family="Helvetica,sans-Serif" font-size="10.00" fill="#000000">unique_ptr&lt; o2::framework</text>
<text text-anchor="middle" x="1038" y="-470" font-family="Helvetica,sans-Serif" font-size="10.00" fill="#000000">::expressions::Node &gt;</text>
<polyline fill="none" stroke="#bfbfbf" points="962.5,-463 1113.5,-463 "/>
<text text-anchor="middle" x="1038" y="-451" font-family="Helvetica,sans-Serif" font-size="10.00" fill="#000000"> </text>
<polyline fill="none" stroke="#bfbfbf" points="962.5,-444 1113.5,-444 "/>
<text text-anchor="middle" x="1038" y="-432" font-family="Helvetica,sans-Serif" font-size="10.00" fill="#000000"> </text>
</g>
<!-- Node17&#45;&gt;Node16 -->
<g id="edge24" class="edge">
<title>Node17&#45;&gt;Node16</title>
<path fill="none" stroke="#404040" d="M1027.5313,-424.5469C1016.554,-388.4204 999.1822,-331.2488 986.5911,-289.8109"/>
<polygon fill="none" stroke="#404040" points="986.5832,-289.7849 981.0116,-285.207 983.0944,-278.3032 988.666,-282.8811 986.5832,-289.7849"/>
<text text-anchor="middle" x="1025" y="-349" font-family="Helvetica,sans-Serif" font-size="10.00" fill="#000000"> +node</text>
</g>
</g>
</svg>
