<?xml version="1.0" encoding="UTF-8" standalone="no"?>
<!DOCTYPE svg PUBLIC "-//W3C//DTD SVG 1.1//EN"
 "http://www.w3.org/Graphics/SVG/1.1/DTD/svg11.dtd">
<!-- Generated by graphviz version 2.40.1 (20161225.0304)
 -->
<!-- Title: /home/travis/build/AliceO2Group/AliceO2/Detectors/ITSMFT/MFT/base/include/MFTBase/Constants.h Pages: 1 -->
<svg width="1226pt" height="150pt"
 viewBox="0.00 0.00 1225.50 150.00" xmlns="http://www.w3.org/2000/svg" xmlns:xlink="http://www.w3.org/1999/xlink">
<g id="graph0" class="graph" transform="scale(1 1) rotate(0) translate(4 146)">
<title>/home/travis/build/AliceO2Group/AliceO2/Detectors/ITSMFT/MFT/base/include/MFTBase/Constants.h</title>
<!-- Node2 -->
<g id="node1" class="node">
<title>Node2</title>
<polygon fill="#bfbfbf" stroke="#000000" points="514,-89.5 514,-141.5 702,-141.5 702,-89.5 514,-89.5"/>
<text text-anchor="start" x="522" y="-129.5" font-family="Helvetica,sans-Serif" font-size="10.00" fill="#000000">/home/travis/build</text>
<text text-anchor="start" x="522" y="-118.5" font-family="Helvetica,sans-Serif" font-size="10.00" fill="#000000">/AliceO2Group/AliceO2</text>
<text text-anchor="start" x="522" y="-107.5" font-family="Helvetica,sans-Serif" font-size="10.00" fill="#000000">/Detectors/ITSMFT/MFT</text>
<text text-anchor="middle" x="608" y="-96.5" font-family="Helvetica,sans-Serif" font-size="10.00" fill="#000000">/base/include/MFTBase/Constants.h</text>
</g>
<!-- Node3 -->
<g id="node2" class="node">
<title>Node3</title>
<g id="a_node2"><a xlink:href="../../d1/d7f/HalfSegmentation_8cxx.html" target="_top" xlink:title="Segmentation class for each half of the ALICE Muon Forward Tracker. ">
<polygon fill="none" stroke="#000000" points="0,-.5 0,-52.5 172,-52.5 172,-.5 0,-.5"/>
<text text-anchor="start" x="8" y="-40.5" font-family="Helvetica,sans-Serif" font-size="10.00" fill="#000000">/home/travis/build</text>
<text text-anchor="start" x="8" y="-29.5" font-family="Helvetica,sans-Serif" font-size="10.00" fill="#000000">/AliceO2Group/AliceO2</text>
<text text-anchor="start" x="8" y="-18.5" font-family="Helvetica,sans-Serif" font-size="10.00" fill="#000000">/Detectors/ITSMFT/MFT</text>
<text text-anchor="middle" x="86" y="-7.5" font-family="Helvetica,sans-Serif" font-size="10.00" fill="#000000">/base/src/HalfSegmentation.cxx</text>
</a>
</g>
</g>
<!-- Node2&#45;&gt;Node3 -->
<g id="edge1" class="edge">
<title>Node2&#45;&gt;Node3</title>
<path fill="none" stroke="#191970" d="M503.5551,-103.962C416.7001,-93.4722 290.1062,-76.1052 181,-53 178.0685,-52.3792 175.0939,-51.7195 172.0958,-51.029"/>
<polygon fill="#191970" stroke="#191970" points="503.336,-107.4607 513.6814,-105.1756 504.169,-100.5105 503.336,-107.4607"/>
</g>
<!-- Node4 -->
<g id="node3" class="node">
<title>Node4</title>
<g id="a_node3"><a xlink:href="../../de/d02/HeatExchanger_8cxx.html" target="_top" xlink:title="Class building the MFT heat exchanger. ">
<polygon fill="none" stroke="#000000" points="190.5,-.5 190.5,-52.5 347.5,-52.5 347.5,-.5 190.5,-.5"/>
<text text-anchor="start" x="198.5" y="-40.5" font-family="Helvetica,sans-Serif" font-size="10.00" fill="#000000">/home/travis/build</text>
<text text-anchor="start" x="198.5" y="-29.5" font-family="Helvetica,sans-Serif" font-size="10.00" fill="#000000">/AliceO2Group/AliceO2</text>
<text text-anchor="start" x="198.5" y="-18.5" font-family="Helvetica,sans-Serif" font-size="10.00" fill="#000000">/Detectors/ITSMFT/MFT</text>
<text text-anchor="middle" x="269" y="-7.5" font-family="Helvetica,sans-Serif" font-size="10.00" fill="#000000">/base/src/HeatExchanger.cxx</text>
</a>
</g>
</g>
<!-- Node2&#45;&gt;Node4 -->
<g id="edge2" class="edge">
<title>Node2&#45;&gt;Node4</title>
<path fill="none" stroke="#191970" d="M504.024,-90.8068C458.7309,-79.7415 405.1063,-66.2243 357,-53 353.923,-52.1542 350.7898,-51.2787 347.6277,-50.3835"/>
<polygon fill="#191970" stroke="#191970" points="503.3098,-94.2351 513.8542,-93.2018 504.9669,-87.434 503.3098,-94.2351"/>
</g>
<!-- Node5 -->
<g id="node4" class="node">
<title>Node5</title>
<g id="a_node4"><a xlink:href="../../de/dde/PCBSupport_8cxx.html" target="_top" xlink:title="Class building the MFT PCB Supports. ">
<polygon fill="none" stroke="#000000" points="366,-.5 366,-52.5 506,-52.5 506,-.5 366,-.5"/>
<text text-anchor="start" x="374" y="-40.5" font-family="Helvetica,sans-Serif" font-size="10.00" fill="#000000">/home/travis/build</text>
<text text-anchor="start" x="374" y="-29.5" font-family="Helvetica,sans-Serif" font-size="10.00" fill="#000000">/AliceO2Group/AliceO2</text>
<text text-anchor="start" x="374" y="-18.5" font-family="Helvetica,sans-Serif" font-size="10.00" fill="#000000">/Detectors/ITSMFT/MFT</text>
<text text-anchor="middle" x="436" y="-7.5" font-family="Helvetica,sans-Serif" font-size="10.00" fill="#000000">/base/src/PCBSupport.cxx</text>
</a>
</g>
</g>
<!-- Node2&#45;&gt;Node5 -->
<g id="edge3" class="edge">
<title>Node2&#45;&gt;Node5</title>
<path fill="none" stroke="#191970" d="M548.2151,-84.5648C528.0223,-74.1162 505.6975,-62.5644 486.3132,-52.5341"/>
<polygon fill="#191970" stroke="#191970" points="546.8347,-87.7913 557.3246,-89.2784 550.0516,-81.5742 546.8347,-87.7913"/>
</g>
<!-- Node6 -->
<g id="node5" class="node">
<title>Node6</title>
<g id="a_node5"><a xlink:href="../../d6/d7d/PowerSupplyUnit_8cxx.html" target="_top" xlink:title="Class building the MFT Power Supply Unit. ">
<polygon fill="none" stroke="#000000" points="524.5,-.5 524.5,-52.5 691.5,-52.5 691.5,-.5 524.5,-.5"/>
<text text-anchor="start" x="532.5" y="-40.5" font-family="Helvetica,sans-Serif" font-size="10.00" fill="#000000">/home/travis/build</text>
<text text-anchor="start" x="532.5" y="-29.5" font-family="Helvetica,sans-Serif" font-size="10.00" fill="#000000">/AliceO2Group/AliceO2</text>
<text text-anchor="start" x="532.5" y="-18.5" font-family="Helvetica,sans-Serif" font-size="10.00" fill="#000000">/Detectors/ITSMFT/MFT</text>
<text text-anchor="middle" x="608" y="-7.5" font-family="Helvetica,sans-Serif" font-size="10.00" fill="#000000">/base/src/PowerSupplyUnit.cxx</text>
</a>
</g>
</g>
<!-- Node2&#45;&gt;Node6 -->
<g id="edge4" class="edge">
<title>Node2&#45;&gt;Node6</title>
<path fill="none" stroke="#191970" d="M608,-79.1155C608,-70.2061 608,-60.8475 608,-52.5341"/>
<polygon fill="#191970" stroke="#191970" points="604.5001,-79.2784 608,-89.2784 611.5001,-79.2785 604.5001,-79.2784"/>
</g>
<!-- Node7 -->
<g id="node6" class="node">
<title>Node7</title>
<g id="a_node6"><a xlink:href="../../df/de3/Support_8cxx.html" target="_top" xlink:title="Class building the MFT PCB Supports. ">
<polygon fill="none" stroke="#000000" points="709.5,-.5 709.5,-52.5 836.5,-52.5 836.5,-.5 709.5,-.5"/>
<text text-anchor="start" x="717.5" y="-40.5" font-family="Helvetica,sans-Serif" font-size="10.00" fill="#000000">/home/travis/build</text>
<text text-anchor="start" x="717.5" y="-29.5" font-family="Helvetica,sans-Serif" font-size="10.00" fill="#000000">/AliceO2Group/AliceO2</text>
<text text-anchor="start" x="717.5" y="-18.5" font-family="Helvetica,sans-Serif" font-size="10.00" fill="#000000">/Detectors/ITSMFT/MFT</text>
<text text-anchor="middle" x="773" y="-7.5" font-family="Helvetica,sans-Serif" font-size="10.00" fill="#000000">/base/src/Support.cxx</text>
</a>
</g>
</g>
<!-- Node2&#45;&gt;Node7 -->
<g id="edge5" class="edge">
<title>Node2&#45;&gt;Node7</title>
<path fill="none" stroke="#191970" d="M665.6137,-84.4235C684.9156,-74.0122 706.2228,-62.5192 724.7344,-52.5341"/>
<polygon fill="#191970" stroke="#191970" points="663.7527,-81.4506 656.613,-89.2784 667.0759,-87.6115 663.7527,-81.4506"/>
</g>
<!-- Node8 -->
<g id="node7" class="node">
<title>Node8</title>
<g id="a_node7"><a xlink:href="../../d9/d5e/ITSMFT_2MFT_2reconstruction_2src_2ClustererTask_8cxx.html" target="_top" xlink:title="/home/travis/build\l/AliceO2Group/AliceO2\l/Detectors/ITSMFT/MFT\l/reconstruction/src/ClustererTask.cxx">
<polygon fill="none" stroke="#000000" points="855,-.5 855,-52.5 1051,-52.5 1051,-.5 855,-.5"/>
<text text-anchor="start" x="863" y="-40.5" font-family="Helvetica,sans-Serif" font-size="10.00" fill="#000000">/home/travis/build</text>
<text text-anchor="start" x="863" y="-29.5" font-family="Helvetica,sans-Serif" font-size="10.00" fill="#000000">/AliceO2Group/AliceO2</text>
<text text-anchor="start" x="863" y="-18.5" font-family="Helvetica,sans-Serif" font-size="10.00" fill="#000000">/Detectors/ITSMFT/MFT</text>
<text text-anchor="middle" x="953" y="-7.5" font-family="Helvetica,sans-Serif" font-size="10.00" fill="#000000">/reconstruction/src/ClustererTask.cxx</text>
</a>
</g>
</g>
<!-- Node2&#45;&gt;Node8 -->
<g id="edge6" class="edge">
<title>Node2&#45;&gt;Node8</title>
<path fill="none" stroke="#191970" d="M712.1239,-88.6391C757.4557,-76.9448 810.3042,-63.3114 854.93,-51.7992"/>
<polygon fill="#191970" stroke="#191970" points="711.0815,-85.2933 702.2728,-91.1804 712.8301,-92.0714 711.0815,-85.2933"/>
</g>
<!-- Node9 -->
<g id="node8" class="node">
<title>Node9</title>
<g id="a_node8"><a xlink:href="../../d7/d9c/ITSMFT_2MFT_2tracking_2src_2TrackFitter_8cxx.html" target="_top" xlink:title="/home/travis/build\l/AliceO2Group/AliceO2\l/Detectors/ITSMFT/MFT\l/tracking/src/TrackFitter.cxx">
<polygon fill="none" stroke="#000000" points="1068.5,-.5 1068.5,-52.5 1217.5,-52.5 1217.5,-.5 1068.5,-.5"/>
<text text-anchor="start" x="1076.5" y="-40.5" font-family="Helvetica,sans-Serif" font-size="10.00" fill="#000000">/home/travis/build</text>
<text text-anchor="start" x="1076.5" y="-29.5" font-family="Helvetica,sans-Serif" font-size="10.00" fill="#000000">/AliceO2Group/AliceO2</text>
<text text-anchor="start" x="1076.5" y="-18.5" font-family="Helvetica,sans-Serif" font-size="10.00" fill="#000000">/Detectors/ITSMFT/MFT</text>
<text text-anchor="middle" x="1143" y="-7.5" font-family="Helvetica,sans-Serif" font-size="10.00" fill="#000000">/tracking/src/TrackFitter.cxx</text>
</a>
</g>
</g>
<!-- Node2&#45;&gt;Node9 -->
<g id="edge7" class="edge">
<title>Node2&#45;&gt;Node9</title>
<path fill="none" stroke="#191970" d="M712.5141,-106.1883C804.7186,-96.7573 942.3501,-79.7075 1060,-53 1062.6552,-52.3973 1065.3473,-51.7483 1068.0581,-51.0625"/>
<polygon fill="#191970" stroke="#191970" points="711.9368,-102.7287 702.3396,-107.2169 712.641,-109.6932 711.9368,-102.7287"/>
</g>
</g>
</svg>
