<?xml version="1.0" encoding="UTF-8" standalone="no"?>
<!DOCTYPE svg PUBLIC "-//W3C//DTD SVG 1.1//EN"
 "http://www.w3.org/Graphics/SVG/1.1/DTD/svg11.dtd">
<!-- Generated by graphviz version 2.40.1 (20161225.0304)
 -->
<!-- Title: o2::header::HeartbeatTrailer Pages: 1 -->
<svg width="461pt" height="215pt"
 viewBox="0.00 0.00 460.50 215.00" xmlns="http://www.w3.org/2000/svg" xmlns:xlink="http://www.w3.org/1999/xlink">
<g id="graph0" class="graph" transform="scale(1 1) rotate(0) translate(4 211)">
<title>o2::header::HeartbeatTrailer</title>
<!-- Node1 -->
<g id="node1" class="node">
<title>Node1</title>
<polygon fill="#bfbfbf" stroke="#000000" points="138.5,-.5 138.5,-68.5 291.5,-68.5 291.5,-.5 138.5,-.5"/>
<text text-anchor="middle" x="215" y="-56.5" font-family="Helvetica,sans-Serif" font-size="10.00" fill="#000000">o2::header::HeartbeatTrailer</text>
<polyline fill="none" stroke="#000000" points="138.5,-49.5 291.5,-49.5 "/>
<text text-anchor="middle" x="215" y="-37.5" font-family="Helvetica,sans-Serif" font-size="10.00" fill="#000000"> </text>
<polyline fill="none" stroke="#000000" points="138.5,-30.5 291.5,-30.5 "/>
<text text-anchor="start" x="146.5" y="-18.5" font-family="Helvetica,sans-Serif" font-size="10.00" fill="#000000">+ operator bool()</text>
<text text-anchor="start" x="146.5" y="-7.5" font-family="Helvetica,sans-Serif" font-size="10.00" fill="#000000">+ operator uint64_t()</text>
</g>
<!-- Node2 -->
<g id="node2" class="node">
<title>Node2</title>
<g id="a_node2"><a xlink:href="../../d6/d30/classuint64__t.html" target="_top" xlink:title="{uint64_t\n||}">
<polygon fill="none" stroke="#000000" points="0,-149.5 0,-206.5 56,-206.5 56,-149.5 0,-149.5"/>
<text text-anchor="middle" x="28" y="-194.5" font-family="Helvetica,sans-Serif" font-size="10.00" fill="#000000">uint64_t</text>
<polyline fill="none" stroke="#000000" points="0,-187.5 56,-187.5 "/>
<text text-anchor="middle" x="28" y="-175.5" font-family="Helvetica,sans-Serif" font-size="10.00" fill="#000000"> </text>
<polyline fill="none" stroke="#000000" points="0,-168.5 56,-168.5 "/>
<text text-anchor="middle" x="28" y="-156.5" font-family="Helvetica,sans-Serif" font-size="10.00" fill="#000000"> </text>
</a>
</g>
</g>
<!-- Node2&#45;&gt;Node1 -->
<g id="edge1" class="edge">
<title>Node2&#45;&gt;Node1</title>
<path fill="none" stroke="#404040" d="M27.9037,-149.1356C29.3641,-129.3048 34.4896,-103.6501 50,-87 61.3182,-74.8501 93.5955,-63.4096 126.6347,-54.3289"/>
<polygon fill="none" stroke="#404040" points="126.7236,-54.3053 131.4925,-48.8963 138.3197,-51.2181 133.5507,-56.6271 126.7236,-54.3053"/>
<text text-anchor="middle" x="83" y="-106.5" font-family="Helvetica,sans-Serif" font-size="10.00" fill="#000000"> +trailerWord</text>
</g>
<!-- Node3 -->
<g id="node3" class="node">
<title>Node3</title>
<polygon fill="none" stroke="#bfbfbf" points="89,-149.5 89,-206.5 145,-206.5 145,-149.5 89,-149.5"/>
<text text-anchor="middle" x="117" y="-194.5" font-family="Helvetica,sans-Serif" font-size="10.00" fill="#000000">uint16_t</text>
<polyline fill="none" stroke="#bfbfbf" points="89,-187.5 145,-187.5 "/>
<text text-anchor="middle" x="117" y="-175.5" font-family="Helvetica,sans-Serif" font-size="10.00" fill="#000000"> </text>
<polyline fill="none" stroke="#bfbfbf" points="89,-168.5 145,-168.5 "/>
<text text-anchor="middle" x="117" y="-156.5" font-family="Helvetica,sans-Serif" font-size="10.00" fill="#000000"> </text>
</g>
<!-- Node3&#45;&gt;Node1 -->
<g id="edge2" class="edge">
<title>Node3&#45;&gt;Node1</title>
<path fill="none" stroke="#404040" d="M117.4653,-149.1605C119.0359,-130.0847 123.6059,-105.3105 136,-87 138.3798,-83.4841 141.0816,-80.144 144.0162,-76.9798"/>
<polygon fill="none" stroke="#404040" points="144.1681,-76.8341 145.7303,-69.7942 152.8294,-68.5285 151.2673,-75.5684 144.1681,-76.8341"/>
<text text-anchor="middle" x="173.5" y="-123" font-family="Helvetica,sans-Serif" font-size="10.00" fill="#000000"> +hbfTruncated</text>
<text text-anchor="middle" x="173.5" y="-112" font-family="Helvetica,sans-Serif" font-size="10.00" fill="#000000">+hbfStatus</text>
<text text-anchor="middle" x="173.5" y="-101" font-family="Helvetica,sans-Serif" font-size="10.00" fill="#000000">+trailerLength</text>
<text text-anchor="middle" x="173.5" y="-90" font-family="Helvetica,sans-Serif" font-size="10.00" fill="#000000">+hbAccept</text>
</g>
<!-- Node4 -->
<g id="node4" class="node">
<title>Node4</title>
<polygon fill="none" stroke="#bfbfbf" points="190,-149.5 190,-206.5 240,-206.5 240,-149.5 190,-149.5"/>
<text text-anchor="middle" x="215" y="-194.5" font-family="Helvetica,sans-Serif" font-size="10.00" fill="#000000">uint8_t</text>
<polyline fill="none" stroke="#bfbfbf" points="190,-187.5 240,-187.5 "/>
<text text-anchor="middle" x="215" y="-175.5" font-family="Helvetica,sans-Serif" font-size="10.00" fill="#000000"> </text>
<polyline fill="none" stroke="#bfbfbf" points="190,-168.5 240,-168.5 "/>
<text text-anchor="middle" x="215" y="-156.5" font-family="Helvetica,sans-Serif" font-size="10.00" fill="#000000"> </text>
</g>
<!-- Node4&#45;&gt;Node1 -->
<g id="edge3" class="edge">
<title>Node4&#45;&gt;Node1</title>
<path fill="none" stroke="#404040" d="M215,-149.3055C215,-129.7064 215,-103.3057 215,-80.7629"/>
<polygon fill="none" stroke="#404040" points="215.0001,-80.7037 211,-74.7038 215,-68.7037 219,-74.7037 215.0001,-80.7037"/>
<text text-anchor="middle" x="245.5" y="-106.5" font-family="Helvetica,sans-Serif" font-size="10.00" fill="#000000"> +blockType</text>
</g>
<!-- Node5 -->
<g id="node5" class="node">
<title>Node5</title>
<g id="a_node5"><a xlink:href="../../d3/d87/classuint32__t.html" target="_top" xlink:title="{uint32_t\n||}">
<polygon fill="none" stroke="#000000" points="271,-149.5 271,-206.5 327,-206.5 327,-149.5 271,-149.5"/>
<text text-anchor="middle" x="299" y="-194.5" font-family="Helvetica,sans-Serif" font-size="10.00" fill="#000000">uint32_t</text>
<polyline fill="none" stroke="#000000" points="271,-187.5 327,-187.5 "/>
<text text-anchor="middle" x="299" y="-175.5" font-family="Helvetica,sans-Serif" font-size="10.00" fill="#000000"> </text>
<polyline fill="none" stroke="#000000" points="271,-168.5 327,-168.5 "/>
<text text-anchor="middle" x="299" y="-156.5" font-family="Helvetica,sans-Serif" font-size="10.00" fill="#000000"> </text>
</a>
</g>
</g>
<!-- Node5&#45;&gt;Node1 -->
<g id="edge4" class="edge">
<title>Node5&#45;&gt;Node1</title>
<path fill="none" stroke="#404040" d="M296.6795,-149.1619C294.0884,-130.3207 288.6047,-105.814 277,-87 275.0274,-83.8019 272.7939,-80.7009 270.3752,-77.7114"/>
<polygon fill="none" stroke="#404040" points="270.1547,-77.4672 263.1648,-75.6946 262.1125,-68.5607 269.1024,-70.3332 270.1547,-77.4672"/>
<text text-anchor="middle" x="325" y="-112" font-family="Helvetica,sans-Serif" font-size="10.00" fill="#000000"> +status</text>
<text text-anchor="middle" x="325" y="-101" font-family="Helvetica,sans-Serif" font-size="10.00" fill="#000000">+dataLength</text>
</g>
<!-- Node6 -->
<g id="node6" class="node">
<title>Node6</title>
<polygon fill="none" stroke="#bfbfbf" points="345.5,-149.5 345.5,-206.5 452.5,-206.5 452.5,-149.5 345.5,-149.5"/>
<text text-anchor="middle" x="399" y="-194.5" font-family="Helvetica,sans-Serif" font-size="10.00" fill="#000000">anonymous:+@88</text>
<polyline fill="none" stroke="#bfbfbf" points="345.5,-187.5 452.5,-187.5 "/>
<text text-anchor="middle" x="399" y="-175.5" font-family="Helvetica,sans-Serif" font-size="10.00" fill="#000000"> </text>
<polyline fill="none" stroke="#bfbfbf" points="345.5,-168.5 452.5,-168.5 "/>
<text text-anchor="middle" x="399" y="-156.5" font-family="Helvetica,sans-Serif" font-size="10.00" fill="#000000"> </text>
</g>
<!-- Node6&#45;&gt;Node1 -->
<g id="edge5" class="edge">
<title>Node6&#45;&gt;Node1</title>
<path fill="none" stroke="#404040" d="M393.4755,-149.4781C388.2452,-129.5507 378.4942,-103.6344 361,-87 344.9414,-71.7307 324.1268,-60.8535 303.2713,-53.1224"/>
<polygon fill="none" stroke="#404040" points="303.0572,-53.0488 296.082,-54.8782 291.7106,-49.1432 298.6858,-47.3138 303.0572,-53.0488"/>
<text text-anchor="middle" x="404" y="-106.5" font-family="Helvetica,sans-Serif" font-size="10.00" fill="#000000"> +@88</text>
</g>
</g>
</svg>
