<?xml version="1.0" encoding="UTF-8" standalone="no"?>
<!DOCTYPE svg PUBLIC "-//W3C//DTD SVG 1.1//EN"
 "http://www.w3.org/Graphics/SVG/1.1/DTD/svg11.dtd">
<!-- Generated by graphviz version 2.40.1 (20161225.0304)
 -->
<!-- Title: /home/travis/build/AliceO2Group/AliceO2/DataFormats/Detectors/ITSMFT/MFT/src/TrackMFT.cxx Pages: 1 -->
<svg width="885pt" height="408pt"
 viewBox="0.00 0.00 885.00 408.00" xmlns="http://www.w3.org/2000/svg" xmlns:xlink="http://www.w3.org/1999/xlink">
<g id="graph0" class="graph" transform="scale(1 1) rotate(0) translate(4 404)">
<title>/home/travis/build/AliceO2Group/AliceO2/DataFormats/Detectors/ITSMFT/MFT/src/TrackMFT.cxx</title>
<!-- Node0 -->
<g id="node1" class="node">
<title>Node0</title>
<polygon fill="#bfbfbf" stroke="#000000" points="634,-347.5 634,-399.5 795,-399.5 795,-347.5 634,-347.5"/>
<text text-anchor="start" x="642" y="-387.5" font-family="Helvetica,sans-Serif" font-size="10.00" fill="#000000">/home/travis/build</text>
<text text-anchor="start" x="642" y="-376.5" font-family="Helvetica,sans-Serif" font-size="10.00" fill="#000000">/AliceO2Group/AliceO2</text>
<text text-anchor="start" x="642" y="-365.5" font-family="Helvetica,sans-Serif" font-size="10.00" fill="#000000">/DataFormats/Detectors</text>
<text text-anchor="middle" x="714.5" y="-354.5" font-family="Helvetica,sans-Serif" font-size="10.00" fill="#000000">/ITSMFT/MFT/src/TrackMFT.cxx</text>
</g>
<!-- Node1 -->
<g id="node2" class="node">
<title>Node1</title>
<g id="a_node2"><a xlink:href="../../db/dd0/TrackMFT_8h.html" target="_top" xlink:title="DataFormatsMFT/TrackMFT.h">
<polygon fill="none" stroke="#000000" points="358,-291.5 358,-310.5 513,-310.5 513,-291.5 358,-291.5"/>
<text text-anchor="middle" x="435.5" y="-298.5" font-family="Helvetica,sans-Serif" font-size="10.00" fill="#000000">DataFormatsMFT/TrackMFT.h</text>
</a>
</g>
</g>
<!-- Node0&#45;&gt;Node1 -->
<g id="edge1" class="edge">
<title>Node0&#45;&gt;Node1</title>
<path fill="none" stroke="#191970" d="M633.8016,-352.53C584.5894,-339.7419 523.4268,-323.8484 482.1422,-313.1203"/>
<polygon fill="#191970" stroke="#191970" points="482.9122,-309.7042 472.3534,-310.5766 481.1516,-316.4792 482.9122,-309.7042"/>
</g>
<!-- Node10 -->
<g id="node11" class="node">
<title>Node10</title>
<g id="a_node11"><a xlink:href="../../d9/d52/Common_2MathUtils_2include_2MathUtils_2Utils_8h.html" target="_top" xlink:title="MathUtils/Utils.h">
<polygon fill="none" stroke="#000000" points="549.5,-168.5 549.5,-187.5 647.5,-187.5 647.5,-168.5 549.5,-168.5"/>
<text text-anchor="middle" x="598.5" y="-175.5" font-family="Helvetica,sans-Serif" font-size="10.00" fill="#000000">MathUtils/Utils.h</text>
</a>
</g>
</g>
<!-- Node0&#45;&gt;Node10 -->
<g id="edge27" class="edge">
<title>Node0&#45;&gt;Node10</title>
<path fill="none" stroke="#191970" d="M713.8189,-347.3981C711.7443,-315.3519 704.0542,-260.7443 676.5,-224 665.8774,-209.8345 649.5047,-199.2297 634.4972,-191.7944"/>
<polygon fill="#191970" stroke="#191970" points="635.9374,-188.6043 625.393,-187.5709 632.9916,-194.9543 635.9374,-188.6043"/>
</g>
<!-- Node18 -->
<g id="node19" class="node">
<title>Node18</title>
<g id="a_node19"><a xlink:href="../../d6/d84/MathConstants_8h.html" target="_top" xlink:title="useful math constants ">
<polygon fill="none" stroke="#000000" points="655.5,-112.5 655.5,-131.5 849.5,-131.5 849.5,-112.5 655.5,-112.5"/>
<text text-anchor="middle" x="752.5" y="-119.5" font-family="Helvetica,sans-Serif" font-size="10.00" fill="#000000">CommonConstants/MathConstants.h</text>
</a>
</g>
</g>
<!-- Node0&#45;&gt;Node18 -->
<g id="edge24" class="edge">
<title>Node0&#45;&gt;Node18</title>
<path fill="none" stroke="#191970" d="M718.4948,-347.0604C726.1539,-296.3695 742.7444,-186.5668 749.5232,-141.7017"/>
<polygon fill="#191970" stroke="#191970" points="752.9905,-142.1806 751.0238,-131.7699 746.0691,-141.1347 752.9905,-142.1806"/>
</g>
<!-- Node19 -->
<g id="node20" class="node">
<title>Node19</title>
<g id="a_node20"><a xlink:href="../../dd/da4/Logger_8h.html" target="_top" xlink:title="Framework/Logger.h">
<polygon fill="none" stroke="#000000" points="762,-291.5 762,-310.5 877,-310.5 877,-291.5 762,-291.5"/>
<text text-anchor="middle" x="819.5" y="-298.5" font-family="Helvetica,sans-Serif" font-size="10.00" fill="#000000">Framework/Logger.h</text>
</a>
</g>
</g>
<!-- Node0&#45;&gt;Node19 -->
<g id="edge25" class="edge">
<title>Node0&#45;&gt;Node19</title>
<path fill="none" stroke="#191970" d="M752.4074,-347.3258C767.4895,-336.912 784.3168,-325.2931 797.3465,-316.2965"/>
<polygon fill="#191970" stroke="#191970" points="799.4518,-319.0961 805.6921,-310.534 795.4745,-313.3358 799.4518,-319.0961"/>
</g>
<!-- Node2 -->
<g id="node3" class="node">
<title>Node2</title>
<polygon fill="none" stroke="#bfbfbf" points="412,-230 412,-249 459,-249 459,-230 412,-230"/>
<text text-anchor="middle" x="435.5" y="-237" font-family="Helvetica,sans-Serif" font-size="10.00" fill="#000000">vector</text>
</g>
<!-- Node1&#45;&gt;Node2 -->
<g id="edge2" class="edge">
<title>Node1&#45;&gt;Node2</title>
<path fill="none" stroke="#191970" d="M435.5,-291.3906C435.5,-282.8657 435.5,-270.1392 435.5,-259.4235"/>
<polygon fill="#191970" stroke="#191970" points="439.0001,-259.2448 435.5,-249.2449 432.0001,-259.2449 439.0001,-259.2448"/>
</g>
<!-- Node3 -->
<g id="node4" class="node">
<title>Node3</title>
<polygon fill="none" stroke="#bfbfbf" points="361.5,-168.5 361.5,-187.5 417.5,-187.5 417.5,-168.5 361.5,-168.5"/>
<text text-anchor="middle" x="389.5" y="-175.5" font-family="Helvetica,sans-Serif" font-size="10.00" fill="#000000">TMath.h</text>
</g>
<!-- Node1&#45;&gt;Node3 -->
<g id="edge3" class="edge">
<title>Node1&#45;&gt;Node3</title>
<path fill="none" stroke="#191970" d="M426.4311,-291.2208C418.8022,-282.4215 408.2458,-268.7904 402.5,-255 394.8217,-236.5715 391.6754,-213.866 390.3879,-197.9016"/>
<polygon fill="#191970" stroke="#191970" points="393.8625,-197.3863 389.7407,-187.6261 386.8763,-197.8264 393.8625,-197.3863"/>
</g>
<!-- Node4 -->
<g id="node5" class="node">
<title>Node4</title>
<polygon fill="none" stroke="#bfbfbf" points="443,-168.5 443,-187.5 532,-187.5 532,-168.5 443,-168.5"/>
<text text-anchor="middle" x="487.5" y="-175.5" font-family="Helvetica,sans-Serif" font-size="10.00" fill="#000000">Math/SMatrix.h</text>
</g>
<!-- Node1&#45;&gt;Node4 -->
<g id="edge4" class="edge">
<title>Node1&#45;&gt;Node4</title>
<path fill="none" stroke="#191970" d="M443.7114,-291.3942C450.9326,-282.4933 461.2414,-268.6119 467.5,-255 475.9964,-236.521 481.3358,-213.8231 484.3389,-197.8743"/>
<polygon fill="#191970" stroke="#191970" points="487.8586,-198.0627 486.1243,-187.6108 480.9621,-196.8629 487.8586,-198.0627"/>
</g>
<!-- Node5 -->
<g id="node6" class="node">
<title>Node5</title>
<g id="a_node6"><a xlink:href="../../de/d64/RangeReference_8h.html" target="_top" xlink:title="Class to refer to the 1st entry and N elements of some group in the continuous container. ">
<polygon fill="none" stroke="#000000" points="145.5,-230 145.5,-249 355.5,-249 355.5,-230 145.5,-230"/>
<text text-anchor="middle" x="250.5" y="-237" font-family="Helvetica,sans-Serif" font-size="10.00" fill="#000000">CommonDataFormat/RangeReference.h</text>
</a>
</g>
</g>
<!-- Node1&#45;&gt;Node5 -->
<g id="edge5" class="edge">
<title>Node1&#45;&gt;Node5</title>
<path fill="none" stroke="#191970" d="M406.5938,-291.3906C374.961,-280.8749 324.097,-263.966 289.0771,-252.3243"/>
<polygon fill="#191970" stroke="#191970" points="289.7968,-248.8753 279.2033,-249.0419 287.5885,-255.5178 289.7968,-248.8753"/>
</g>
<!-- Node8 -->
<g id="node9" class="node">
<title>Node8</title>
<g id="a_node9"><a xlink:href="../../d7/dcd/MCCompLabel_8h.html" target="_top" xlink:title="SimulationDataFormat\l/MCCompLabel.h">
<polygon fill="none" stroke="#000000" points="0,-224.5 0,-254.5 127,-254.5 127,-224.5 0,-224.5"/>
<text text-anchor="start" x="8" y="-242.5" font-family="Helvetica,sans-Serif" font-size="10.00" fill="#000000">SimulationDataFormat</text>
<text text-anchor="middle" x="63.5" y="-231.5" font-family="Helvetica,sans-Serif" font-size="10.00" fill="#000000">/MCCompLabel.h</text>
</a>
</g>
</g>
<!-- Node1&#45;&gt;Node8 -->
<g id="edge8" class="edge">
<title>Node1&#45;&gt;Node8</title>
<path fill="none" stroke="#191970" d="M366.1348,-291.463C307.7274,-283.1726 221.7503,-270.3634 137.1944,-255.0667"/>
<polygon fill="#191970" stroke="#191970" points="137.6247,-251.5876 127.1592,-253.2382 136.3698,-258.4742 137.6247,-251.5876"/>
</g>
<!-- Node9 -->
<g id="node10" class="node">
<title>Node9</title>
<g id="a_node10"><a xlink:href="../../d7/df7/TrackFwd_8h.html" target="_top" xlink:title="Base forward track model, params only, w/o covariance. ">
<polygon fill="none" stroke="#000000" points="515.5,-224.5 515.5,-254.5 667.5,-254.5 667.5,-224.5 515.5,-224.5"/>
<text text-anchor="start" x="523.5" y="-242.5" font-family="Helvetica,sans-Serif" font-size="10.00" fill="#000000">ReconstructionDataFormats</text>
<text text-anchor="middle" x="591.5" y="-231.5" font-family="Helvetica,sans-Serif" font-size="10.00" fill="#000000">/TrackFwd.h</text>
</a>
</g>
</g>
<!-- Node1&#45;&gt;Node9 -->
<g id="edge10" class="edge">
<title>Node1&#45;&gt;Node9</title>
<path fill="none" stroke="#191970" d="M459.875,-291.3906C482.2584,-282.5664 516.0609,-269.2404 543.8057,-258.3026"/>
<polygon fill="#191970" stroke="#191970" points="545.3186,-261.4684 553.3381,-254.5446 542.7513,-254.9561 545.3186,-261.4684"/>
</g>
<!-- Node6 -->
<g id="node7" class="node">
<title>Node6</title>
<g id="a_node7"><a xlink:href="../../d2/d45/GPUCommonRtypes_8h.html" target="_top" xlink:title="GPUCommonRtypes.h">
<polygon fill="none" stroke="#000000" points="95,-168.5 95,-187.5 220,-187.5 220,-168.5 95,-168.5"/>
<text text-anchor="middle" x="157.5" y="-175.5" font-family="Helvetica,sans-Serif" font-size="10.00" fill="#000000">GPUCommonRtypes.h</text>
</a>
</g>
</g>
<!-- Node5&#45;&gt;Node6 -->
<g id="edge6" class="edge">
<title>Node5&#45;&gt;Node6</title>
<path fill="none" stroke="#191970" d="M235.9688,-229.8906C221.0906,-220.0519 197.7496,-204.6167 180.3872,-193.1351"/>
<polygon fill="#191970" stroke="#191970" points="182.201,-190.1385 171.9292,-187.5419 178.3398,-195.9773 182.201,-190.1385"/>
</g>
<!-- Node7 -->
<g id="node8" class="node">
<title>Node7</title>
<polygon fill="none" stroke="#bfbfbf" points="128,-112.5 128,-131.5 187,-131.5 187,-112.5 128,-112.5"/>
<text text-anchor="middle" x="157.5" y="-119.5" font-family="Helvetica,sans-Serif" font-size="10.00" fill="#000000">Rtypes.h</text>
</g>
<!-- Node6&#45;&gt;Node7 -->
<g id="edge7" class="edge">
<title>Node6&#45;&gt;Node7</title>
<path fill="none" stroke="#191970" d="M157.5,-168.2455C157.5,-160.9382 157.5,-150.6944 157.5,-141.7046"/>
<polygon fill="#191970" stroke="#191970" points="161.0001,-141.6426 157.5,-131.6427 154.0001,-141.6427 161.0001,-141.6426"/>
</g>
<!-- Node8&#45;&gt;Node6 -->
<g id="edge9" class="edge">
<title>Node8&#45;&gt;Node6</title>
<path fill="none" stroke="#191970" d="M86.736,-224.2977C101.2334,-214.8127 119.8244,-202.6495 134.3126,-193.1705"/>
<polygon fill="#191970" stroke="#191970" points="136.2782,-196.0671 142.7301,-187.6633 132.4457,-190.2094 136.2782,-196.0671"/>
</g>
<!-- Node9&#45;&gt;Node3 -->
<g id="edge11" class="edge">
<title>Node9&#45;&gt;Node3</title>
<path fill="none" stroke="#191970" d="M542.0852,-224.4554C506.6254,-213.6595 459.5692,-199.333 427.1366,-189.4587"/>
<polygon fill="#191970" stroke="#191970" points="428.1557,-186.1104 417.5698,-186.546 426.1169,-192.8069 428.1557,-186.1104"/>
</g>
<!-- Node9&#45;&gt;Node4 -->
<g id="edge12" class="edge">
<title>Node9&#45;&gt;Node4</title>
<path fill="none" stroke="#191970" d="M566.0587,-224.4554C549.7716,-214.8241 528.7327,-202.3828 512.527,-192.7996"/>
<polygon fill="#191970" stroke="#191970" points="514.0055,-189.6078 503.6163,-187.5303 510.4424,-195.6331 514.0055,-189.6078"/>
</g>
<!-- Node9&#45;&gt;Node10 -->
<g id="edge13" class="edge">
<title>Node9&#45;&gt;Node10</title>
<path fill="none" stroke="#191970" d="M593.2303,-224.2977C594.1413,-216.2945 595.2693,-206.3843 596.2476,-197.7889"/>
<polygon fill="#191970" stroke="#191970" points="599.7258,-198.1786 597.3792,-187.8469 592.7707,-197.3869 599.7258,-198.1786"/>
</g>
<!-- Node11 -->
<g id="node12" class="node">
<title>Node11</title>
<polygon fill="none" stroke="#bfbfbf" points="557.5,-112.5 557.5,-131.5 599.5,-131.5 599.5,-112.5 557.5,-112.5"/>
<text text-anchor="middle" x="578.5" y="-119.5" font-family="Helvetica,sans-Serif" font-size="10.00" fill="#000000">array</text>
</g>
<!-- Node10&#45;&gt;Node11 -->
<g id="edge14" class="edge">
<title>Node10&#45;&gt;Node11</title>
<path fill="none" stroke="#191970" d="M595.0163,-168.2455C592.3492,-160.7776 588.5867,-150.2427 585.3263,-141.1137"/>
<polygon fill="#191970" stroke="#191970" points="588.6033,-139.8829 581.9438,-131.6427 582.0111,-142.2373 588.6033,-139.8829"/>
</g>
<!-- Node12 -->
<g id="node13" class="node">
<title>Node12</title>
<polygon fill="none" stroke="#bfbfbf" points="577,-56.5 577,-75.5 624,-75.5 624,-56.5 577,-56.5"/>
<text text-anchor="middle" x="600.5" y="-63.5" font-family="Helvetica,sans-Serif" font-size="10.00" fill="#000000">cmath</text>
</g>
<!-- Node10&#45;&gt;Node12 -->
<g id="edge15" class="edge">
<title>Node10&#45;&gt;Node12</title>
<path fill="none" stroke="#191970" d="M601.2621,-168.2293C603.7226,-158.985 607.138,-144.6764 608.5,-132 610.1761,-116.3996 607.8164,-98.7572 605.2344,-85.6402"/>
<polygon fill="#191970" stroke="#191970" points="608.6458,-84.856 603.0969,-75.8304 601.8062,-86.3464 608.6458,-84.856"/>
</g>
<!-- Node13 -->
<g id="node14" class="node">
<title>Node13</title>
<g id="a_node14"><a xlink:href="../../df/d21/GPUCommonDef_8h.html" target="_top" xlink:title="GPUCommonDef.h">
<polygon fill="none" stroke="#000000" points="342,-56.5 342,-75.5 449,-75.5 449,-56.5 342,-56.5"/>
<text text-anchor="middle" x="395.5" y="-63.5" font-family="Helvetica,sans-Serif" font-size="10.00" fill="#000000">GPUCommonDef.h</text>
</a>
</g>
</g>
<!-- Node10&#45;&gt;Node13 -->
<g id="edge16" class="edge">
<title>Node10&#45;&gt;Node13</title>
<path fill="none" stroke="#191970" d="M549.9106,-168.4602C498.7796,-158.0146 424.3317,-141.4904 414.5,-132 402.0579,-119.9898 397.6153,-100.4049 396.1016,-85.6825"/>
<polygon fill="#191970" stroke="#191970" points="399.5856,-85.3243 395.4311,-75.5781 392.601,-85.7879 399.5856,-85.3243"/>
</g>
<!-- Node16 -->
<g id="node17" class="node">
<title>Node16</title>
<g id="a_node17"><a xlink:href="../../d6/da2/GPUCommonMath_8h.html" target="_top" xlink:title="GPUCommonMath.h">
<polygon fill="none" stroke="#000000" points="424,-112.5 424,-131.5 539,-131.5 539,-112.5 424,-112.5"/>
<text text-anchor="middle" x="481.5" y="-119.5" font-family="Helvetica,sans-Serif" font-size="10.00" fill="#000000">GPUCommonMath.h</text>
</a>
</g>
</g>
<!-- Node10&#45;&gt;Node16 -->
<g id="edge19" class="edge">
<title>Node10&#45;&gt;Node16</title>
<path fill="none" stroke="#191970" d="M578.387,-168.3733C559.6897,-159.4241 531.6256,-145.9917 510.5066,-135.8835"/>
<polygon fill="#191970" stroke="#191970" points="511.8817,-132.6614 501.3506,-131.5011 508.8595,-138.9755 511.8817,-132.6614"/>
</g>
<!-- Node10&#45;&gt;Node18 -->
<g id="edge23" class="edge">
<title>Node10&#45;&gt;Node18</title>
<path fill="none" stroke="#191970" d="M624.9735,-168.3733C650.3597,-159.1419 688.8645,-145.1402 716.922,-134.9375"/>
<polygon fill="#191970" stroke="#191970" points="718.1701,-138.2079 726.3719,-131.5011 715.7778,-131.6293 718.1701,-138.2079"/>
</g>
<!-- Node14 -->
<g id="node15" class="node">
<title>Node14</title>
<g id="a_node15"><a xlink:href="../../d5/d93/GPUCommonDefSettings_8h.html" target="_top" xlink:title="GPUCommonDefSettings.h">
<polygon fill="none" stroke="#000000" points="244.5,-.5 244.5,-19.5 392.5,-19.5 392.5,-.5 244.5,-.5"/>
<text text-anchor="middle" x="318.5" y="-7.5" font-family="Helvetica,sans-Serif" font-size="10.00" fill="#000000">GPUCommonDefSettings.h</text>
</a>
</g>
</g>
<!-- Node13&#45;&gt;Node14 -->
<g id="edge17" class="edge">
<title>Node13&#45;&gt;Node14</title>
<path fill="none" stroke="#191970" d="M382.0876,-56.2455C370.4943,-47.814 353.5252,-35.4729 340.0322,-25.6598"/>
<polygon fill="#191970" stroke="#191970" points="341.9047,-22.6938 331.7587,-19.6427 337.7874,-28.355 341.9047,-22.6938"/>
</g>
<!-- Node15 -->
<g id="node16" class="node">
<title>Node15</title>
<g id="a_node16"><a xlink:href="../../da/d5a/GPUCommonDefAPI_8h.html" target="_top" xlink:title="GPUCommonDefAPI.h">
<polygon fill="none" stroke="#000000" points="410.5,-.5 410.5,-19.5 534.5,-19.5 534.5,-.5 410.5,-.5"/>
<text text-anchor="middle" x="472.5" y="-7.5" font-family="Helvetica,sans-Serif" font-size="10.00" fill="#000000">GPUCommonDefAPI.h</text>
</a>
</g>
</g>
<!-- Node13&#45;&gt;Node15 -->
<g id="edge18" class="edge">
<title>Node13&#45;&gt;Node15</title>
<path fill="none" stroke="#191970" d="M408.9124,-56.2455C420.5057,-47.814 437.4748,-35.4729 450.9678,-25.6598"/>
<polygon fill="#191970" stroke="#191970" points="453.2126,-28.355 459.2413,-19.6427 449.0953,-22.6938 453.2126,-28.355"/>
</g>
<!-- Node16&#45;&gt;Node12 -->
<g id="edge21" class="edge">
<title>Node16&#45;&gt;Node12</title>
<path fill="none" stroke="#191970" d="M501.9568,-112.3733C520.9738,-103.4241 549.5175,-89.9917 570.9976,-79.8835"/>
<polygon fill="#191970" stroke="#191970" points="572.7522,-82.926 580.3101,-75.5011 569.7716,-76.5923 572.7522,-82.926"/>
</g>
<!-- Node16&#45;&gt;Node13 -->
<g id="edge20" class="edge">
<title>Node16&#45;&gt;Node13</title>
<path fill="none" stroke="#191970" d="M466.5199,-112.2455C453.3249,-103.6534 433.8949,-91.0014 418.6921,-81.1018"/>
<polygon fill="#191970" stroke="#191970" points="420.5983,-78.1665 410.3084,-75.6427 416.7785,-84.0325 420.5983,-78.1665"/>
</g>
<!-- Node17 -->
<g id="node18" class="node">
<title>Node17</title>
<polygon fill="none" stroke="#bfbfbf" points="467.5,-56.5 467.5,-75.5 531.5,-75.5 531.5,-56.5 467.5,-56.5"/>
<text text-anchor="middle" x="499.5" y="-63.5" font-family="Helvetica,sans-Serif" font-size="10.00" fill="#000000">algorithm</text>
</g>
<!-- Node16&#45;&gt;Node17 -->
<g id="edge22" class="edge">
<title>Node16&#45;&gt;Node17</title>
<path fill="none" stroke="#191970" d="M484.6354,-112.2455C487.01,-104.8579 490.3493,-94.4689 493.2615,-85.4087"/>
<polygon fill="#191970" stroke="#191970" points="496.6725,-86.234 496.4006,-75.6427 490.0083,-84.0919 496.6725,-86.234"/>
</g>
<!-- Node20 -->
<g id="node21" class="node">
<title>Node20</title>
<polygon fill="none" stroke="#bfbfbf" points="765.5,-230 765.5,-249 873.5,-249 873.5,-230 765.5,-230"/>
<text text-anchor="middle" x="819.5" y="-237" font-family="Helvetica,sans-Serif" font-size="10.00" fill="#000000">fairlogger/Logger.h</text>
</g>
<!-- Node19&#45;&gt;Node20 -->
<g id="edge26" class="edge">
<title>Node19&#45;&gt;Node20</title>
<path fill="none" stroke="#191970" d="M819.5,-291.3906C819.5,-282.8657 819.5,-270.1392 819.5,-259.4235"/>
<polygon fill="#191970" stroke="#191970" points="823.0001,-259.2448 819.5,-249.2449 816.0001,-259.2449 823.0001,-259.2448"/>
</g>
</g>
</svg>
