<?xml version="1.0" encoding="UTF-8" standalone="no"?>
<!DOCTYPE svg PUBLIC "-//W3C//DTD SVG 1.1//EN"
 "http://www.w3.org/Graphics/SVG/1.1/DTD/svg11.dtd">
<!-- Generated by graphviz version 2.40.1 (20161225.0304)
 -->
<!-- Title: /home/travis/build/AliceO2Group/AliceO2/Common/MathUtils/include/MathUtils/Chebyshev3DCalc.h Pages: 1 -->
<svg width="4614pt" height="495pt"
 viewBox="0.00 0.00 4613.50 495.00" xmlns="http://www.w3.org/2000/svg" xmlns:xlink="http://www.w3.org/1999/xlink">
<g id="graph0" class="graph" transform="scale(1 1) rotate(0) translate(4 491)">
<title>/home/travis/build/AliceO2Group/AliceO2/Common/MathUtils/include/MathUtils/Chebyshev3DCalc.h</title>
<!-- Node4 -->
<g id="node1" class="node">
<title>Node4</title>
<polygon fill="#bfbfbf" stroke="#000000" points="2469.5,-434.5 2469.5,-486.5 2636.5,-486.5 2636.5,-434.5 2469.5,-434.5"/>
<text text-anchor="start" x="2477.5" y="-474.5" font-family="Helvetica,sans-Serif" font-size="10.00" fill="#000000">/home/travis/build</text>
<text text-anchor="start" x="2477.5" y="-463.5" font-family="Helvetica,sans-Serif" font-size="10.00" fill="#000000">/AliceO2Group/AliceO2</text>
<text text-anchor="start" x="2477.5" y="-452.5" font-family="Helvetica,sans-Serif" font-size="10.00" fill="#000000">/Common/MathUtils/include</text>
<text text-anchor="middle" x="2553" y="-441.5" font-family="Helvetica,sans-Serif" font-size="10.00" fill="#000000">/MathUtils/Chebyshev3DCalc.h</text>
</g>
<!-- Node5 -->
<g id="node2" class="node">
<title>Node5</title>
<g id="a_node2"><a xlink:href="../../dd/dfb/MagneticWrapperChebyshev_8h.html" target="_top" xlink:title="/home/travis/build\l/AliceO2Group/AliceO2\l/Common/Field/include\l/Field/MagneticWrapperChebyshev.h">
<polygon fill="none" stroke="#000000" points="2315,-256.5 2315,-308.5 2507,-308.5 2507,-256.5 2315,-256.5"/>
<text text-anchor="start" x="2323" y="-296.5" font-family="Helvetica,sans-Serif" font-size="10.00" fill="#000000">/home/travis/build</text>
<text text-anchor="start" x="2323" y="-285.5" font-family="Helvetica,sans-Serif" font-size="10.00" fill="#000000">/AliceO2Group/AliceO2</text>
<text text-anchor="start" x="2323" y="-274.5" font-family="Helvetica,sans-Serif" font-size="10.00" fill="#000000">/Common/Field/include</text>
<text text-anchor="middle" x="2411" y="-263.5" font-family="Helvetica,sans-Serif" font-size="10.00" fill="#000000">/Field/MagneticWrapperChebyshev.h</text>
</a>
</g>
</g>
<!-- Node4&#45;&gt;Node5 -->
<g id="edge1" class="edge">
<title>Node4&#45;&gt;Node5</title>
<path fill="none" stroke="#191970" d="M2460.1782,-435.0041C2442.8576,-426.0606 2426.8244,-414.0611 2416,-398 2398.277,-371.7028 2400.5262,-333.8699 2404.8455,-308.7578"/>
<polygon fill="#191970" stroke="#191970" points="2458.8036,-438.2267 2469.3324,-439.4078 2461.8382,-431.9186 2458.8036,-438.2267"/>
</g>
<!-- Node35 -->
<g id="node32" class="node">
<title>Node35</title>
<g id="a_node32"><a xlink:href="../../d8/d64/Chebyshev3D_8h.html" target="_top" xlink:title="/home/travis/build\l/AliceO2Group/AliceO2\l/Common/MathUtils/include\l/MathUtils/Chebyshev3D.h">
<polygon fill="none" stroke="#000000" points="2425,-345.5 2425,-397.5 2577,-397.5 2577,-345.5 2425,-345.5"/>
<text text-anchor="start" x="2433" y="-385.5" font-family="Helvetica,sans-Serif" font-size="10.00" fill="#000000">/home/travis/build</text>
<text text-anchor="start" x="2433" y="-374.5" font-family="Helvetica,sans-Serif" font-size="10.00" fill="#000000">/AliceO2Group/AliceO2</text>
<text text-anchor="start" x="2433" y="-363.5" font-family="Helvetica,sans-Serif" font-size="10.00" fill="#000000">/Common/MathUtils/include</text>
<text text-anchor="middle" x="2501" y="-352.5" font-family="Helvetica,sans-Serif" font-size="10.00" fill="#000000">/MathUtils/Chebyshev3D.h</text>
</a>
</g>
</g>
<!-- Node4&#45;&gt;Node35 -->
<g id="edge32" class="edge">
<title>Node4&#45;&gt;Node35</title>
<path fill="none" stroke="#191970" d="M2532.5879,-425.5639C2527.1323,-416.2264 2521.3322,-406.2993 2516.211,-397.5341"/>
<polygon fill="#191970" stroke="#191970" points="2529.6127,-427.4098 2537.6795,-434.2784 2535.6567,-423.8785 2529.6127,-427.4098"/>
</g>
<!-- Node36 -->
<g id="node33" class="node">
<title>Node36</title>
<g id="a_node33"><a xlink:href="../../d8/d8d/Chebyshev3D_8cxx.html" target="_top" xlink:title="/home/travis/build\l/AliceO2Group/AliceO2\l/Common/MathUtils/src\l/Chebyshev3D.cxx">
<polygon fill="none" stroke="#000000" points="2532.5,-256.5 2532.5,-308.5 2663.5,-308.5 2663.5,-256.5 2532.5,-256.5"/>
<text text-anchor="start" x="2540.5" y="-296.5" font-family="Helvetica,sans-Serif" font-size="10.00" fill="#000000">/home/travis/build</text>
<text text-anchor="start" x="2540.5" y="-285.5" font-family="Helvetica,sans-Serif" font-size="10.00" fill="#000000">/AliceO2Group/AliceO2</text>
<text text-anchor="start" x="2540.5" y="-274.5" font-family="Helvetica,sans-Serif" font-size="10.00" fill="#000000">/Common/MathUtils/src</text>
<text text-anchor="middle" x="2598" y="-263.5" font-family="Helvetica,sans-Serif" font-size="10.00" fill="#000000">/Chebyshev3D.cxx</text>
</a>
</g>
</g>
<!-- Node4&#45;&gt;Node36 -->
<g id="edge35" class="edge">
<title>Node4&#45;&gt;Node36</title>
<path fill="none" stroke="#191970" d="M2574.5464,-425.3453C2579.0096,-416.6771 2583.1999,-407.2262 2586,-398 2595.0163,-368.2916 2597.5274,-332.5293 2598.0971,-308.7475"/>
<polygon fill="#191970" stroke="#191970" points="2571.3296,-423.9358 2569.6491,-434.3965 2577.4862,-427.267 2571.3296,-423.9358"/>
</g>
<!-- Node37 -->
<g id="node34" class="node">
<title>Node37</title>
<g id="a_node34"><a xlink:href="../../d0/df2/Chebyshev3DCalc_8cxx.html" target="_top" xlink:title="/home/travis/build\l/AliceO2Group/AliceO2\l/Common/MathUtils/src\l/Chebyshev3DCalc.cxx">
<polygon fill="none" stroke="#000000" points="2633.5,-345.5 2633.5,-397.5 2764.5,-397.5 2764.5,-345.5 2633.5,-345.5"/>
<text text-anchor="start" x="2641.5" y="-385.5" font-family="Helvetica,sans-Serif" font-size="10.00" fill="#000000">/home/travis/build</text>
<text text-anchor="start" x="2641.5" y="-374.5" font-family="Helvetica,sans-Serif" font-size="10.00" fill="#000000">/AliceO2Group/AliceO2</text>
<text text-anchor="start" x="2641.5" y="-363.5" font-family="Helvetica,sans-Serif" font-size="10.00" fill="#000000">/Common/MathUtils/src</text>
<text text-anchor="middle" x="2699" y="-352.5" font-family="Helvetica,sans-Serif" font-size="10.00" fill="#000000">/Chebyshev3DCalc.cxx</text>
</a>
</g>
</g>
<!-- Node4&#45;&gt;Node37 -->
<g id="edge36" class="edge">
<title>Node4&#45;&gt;Node37</title>
<path fill="none" stroke="#191970" d="M2604.6759,-428.9989C2621.5701,-418.7004 2640.1346,-407.3837 2656.2923,-397.5341"/>
<polygon fill="#191970" stroke="#191970" points="2602.732,-426.0848 2596.0152,-434.2784 2606.3755,-432.0619 2602.732,-426.0848"/>
</g>
<!-- Node6 -->
<g id="node3" class="node">
<title>Node6</title>
<g id="a_node3"><a xlink:href="../../db/d4b/MagneticField_8h.html" target="_top" xlink:title="Definition of the MagF class. ">
<polygon fill="none" stroke="#000000" points="2258,-167.5 2258,-219.5 2386,-219.5 2386,-167.5 2258,-167.5"/>
<text text-anchor="start" x="2266" y="-207.5" font-family="Helvetica,sans-Serif" font-size="10.00" fill="#000000">/home/travis/build</text>
<text text-anchor="start" x="2266" y="-196.5" font-family="Helvetica,sans-Serif" font-size="10.00" fill="#000000">/AliceO2Group/AliceO2</text>
<text text-anchor="start" x="2266" y="-185.5" font-family="Helvetica,sans-Serif" font-size="10.00" fill="#000000">/Common/Field/include</text>
<text text-anchor="middle" x="2322" y="-174.5" font-family="Helvetica,sans-Serif" font-size="10.00" fill="#000000">/Field/MagneticField.h</text>
</a>
</g>
</g>
<!-- Node5&#45;&gt;Node6 -->
<g id="edge2" class="edge">
<title>Node5&#45;&gt;Node6</title>
<path fill="none" stroke="#191970" d="M2377.5029,-249.0029C2367.7529,-239.2529 2357.2511,-228.7511 2348.0341,-219.5341"/>
<polygon fill="#191970" stroke="#191970" points="2375.2325,-251.6822 2384.7784,-256.2784 2380.1822,-246.7325 2375.2325,-251.6822"/>
</g>
<!-- Node34 -->
<g id="node31" class="node">
<title>Node34</title>
<g id="a_node31"><a xlink:href="../../de/d97/MagneticWrapperChebyshev_8cxx.html" target="_top" xlink:title="/home/travis/build\l/AliceO2Group/AliceO2\l/Common/Field/src/MagneticWrapper\lChebyshev.cxx">
<polygon fill="none" stroke="#000000" points="2404,-167.5 2404,-219.5 2598,-219.5 2598,-167.5 2404,-167.5"/>
<text text-anchor="start" x="2412" y="-207.5" font-family="Helvetica,sans-Serif" font-size="10.00" fill="#000000">/home/travis/build</text>
<text text-anchor="start" x="2412" y="-196.5" font-family="Helvetica,sans-Serif" font-size="10.00" fill="#000000">/AliceO2Group/AliceO2</text>
<text text-anchor="start" x="2412" y="-185.5" font-family="Helvetica,sans-Serif" font-size="10.00" fill="#000000">/Common/Field/src/MagneticWrapper</text>
<text text-anchor="middle" x="2501" y="-174.5" font-family="Helvetica,sans-Serif" font-size="10.00" fill="#000000">Chebyshev.cxx</text>
</a>
</g>
</g>
<!-- Node5&#45;&gt;Node34 -->
<g id="edge31" class="edge">
<title>Node5&#45;&gt;Node34</title>
<path fill="none" stroke="#191970" d="M2444.8735,-249.0029C2454.733,-239.2529 2465.3528,-228.7511 2474.6733,-219.5341"/>
<polygon fill="#191970" stroke="#191970" points="2442.1657,-246.7583 2437.5162,-256.2784 2447.0877,-251.7356 2442.1657,-246.7583"/>
</g>
<!-- Node7 -->
<g id="node4" class="node">
<title>Node7</title>
<g id="a_node4"><a xlink:href="../../da/d34/MagFieldFact_8h.html" target="_top" xlink:title="Definition of the MagFieldFact: factory for ALIDE mag. field from MagFieldParam. ">
<polygon fill="none" stroke="#000000" points="0,-78.5 0,-130.5 128,-130.5 128,-78.5 0,-78.5"/>
<text text-anchor="start" x="8" y="-118.5" font-family="Helvetica,sans-Serif" font-size="10.00" fill="#000000">/home/travis/build</text>
<text text-anchor="start" x="8" y="-107.5" font-family="Helvetica,sans-Serif" font-size="10.00" fill="#000000">/AliceO2Group/AliceO2</text>
<text text-anchor="start" x="8" y="-96.5" font-family="Helvetica,sans-Serif" font-size="10.00" fill="#000000">/Common/Field/include</text>
<text text-anchor="middle" x="64" y="-85.5" font-family="Helvetica,sans-Serif" font-size="10.00" fill="#000000">/Field/MagFieldFact.h</text>
</a>
</g>
</g>
<!-- Node6&#45;&gt;Node7 -->
<g id="edge3" class="edge">
<title>Node6&#45;&gt;Node7</title>
<path fill="none" stroke="#191970" d="M2247.6833,-192.6853C1889.7894,-188.5846 352.5033,-168.8889 142,-131 137.4958,-130.1893 132.8989,-129.1672 128.3028,-127.9992"/>
<polygon fill="#191970" stroke="#191970" points="2247.886,-196.1877 2257.9253,-192.8021 2247.9659,-189.1882 2247.886,-196.1877"/>
</g>
<!-- Node8 -->
<g id="node5" class="node">
<title>Node8</title>
<g id="a_node5"><a xlink:href="../../d0/dec/MagFieldFact_8cxx.html" target="_top" xlink:title="/home/travis/build\l/AliceO2Group/AliceO2\l/Common/Field/src/MagFieldFact.cxx">
<polygon fill="none" stroke="#000000" points="14,-.5 14,-41.5 206,-41.5 206,-.5 14,-.5"/>
<text text-anchor="start" x="22" y="-29.5" font-family="Helvetica,sans-Serif" font-size="10.00" fill="#000000">/home/travis/build</text>
<text text-anchor="start" x="22" y="-18.5" font-family="Helvetica,sans-Serif" font-size="10.00" fill="#000000">/AliceO2Group/AliceO2</text>
<text text-anchor="middle" x="110" y="-7.5" font-family="Helvetica,sans-Serif" font-size="10.00" fill="#000000">/Common/Field/src/MagFieldFact.cxx</text>
</a>
</g>
</g>
<!-- Node6&#45;&gt;Node8 -->
<g id="edge5" class="edge">
<title>Node6&#45;&gt;Node8</title>
<path fill="none" stroke="#191970" d="M2247.6198,-193.3416C1879.435,-192.3045 266.006,-184.7011 175,-131 157.8063,-120.8543 132.6562,-70.5937 119.2387,-41.6456"/>
<polygon fill="#191970" stroke="#191970" points="2247.8806,-196.8422 2257.8902,-193.3697 2247.8999,-189.8423 2247.8806,-196.8422"/>
</g>
<!-- Node9 -->
<g id="node6" class="node">
<title>Node9</title>
<g id="a_node6"><a xlink:href="../../df/d54/MagFieldParam_8cxx.html" target="_top" xlink:title="Implementation of the MagFieldParam class. ">
<polygon fill="none" stroke="#000000" points="184.5,-84 184.5,-125 387.5,-125 387.5,-84 184.5,-84"/>
<text text-anchor="start" x="192.5" y="-113" font-family="Helvetica,sans-Serif" font-size="10.00" fill="#000000">/home/travis/build</text>
<text text-anchor="start" x="192.5" y="-102" font-family="Helvetica,sans-Serif" font-size="10.00" fill="#000000">/AliceO2Group/AliceO2</text>
<text text-anchor="middle" x="286" y="-91" font-family="Helvetica,sans-Serif" font-size="10.00" fill="#000000">/Common/Field/src/MagFieldParam.cxx</text>
</a>
</g>
</g>
<!-- Node6&#45;&gt;Node9 -->
<g id="edge6" class="edge">
<title>Node6&#45;&gt;Node9</title>
<path fill="none" stroke="#191970" d="M2247.4633,-193.1121C1939.2818,-191.1951 763.5567,-180.7074 396,-131 385.0988,-129.5258 373.7032,-127.4284 362.5512,-125.0512"/>
<polygon fill="#191970" stroke="#191970" points="2247.6049,-196.613 2257.6261,-193.1742 2247.6477,-189.6131 2247.6049,-196.613"/>
</g>
<!-- Node10 -->
<g id="node7" class="node">
<title>Node10</title>
<g id="a_node7"><a xlink:href="../../d2/d78/MagneticField_8cxx.html" target="_top" xlink:title="/home/travis/build\l/AliceO2Group/AliceO2\l/Common/Field/src/MagneticField.cxx">
<polygon fill="none" stroke="#000000" points="405.5,-84 405.5,-125 602.5,-125 602.5,-84 405.5,-84"/>
<text text-anchor="start" x="413.5" y="-113" font-family="Helvetica,sans-Serif" font-size="10.00" fill="#000000">/home/travis/build</text>
<text text-anchor="start" x="413.5" y="-102" font-family="Helvetica,sans-Serif" font-size="10.00" fill="#000000">/AliceO2Group/AliceO2</text>
<text text-anchor="middle" x="504" y="-91" font-family="Helvetica,sans-Serif" font-size="10.00" fill="#000000">/Common/Field/src/MagneticField.cxx</text>
</a>
</g>
</g>
<!-- Node6&#45;&gt;Node10 -->
<g id="edge7" class="edge">
<title>Node6&#45;&gt;Node10</title>
<path fill="none" stroke="#191970" d="M2247.4182,-192.8214C1961.3463,-189.9013 934.107,-176.416 611,-131 600.3873,-129.5083 589.2975,-127.4011 578.4472,-125.0191"/>
<polygon fill="#191970" stroke="#191970" points="2247.6469,-196.3238 2257.6817,-192.9249 2247.7175,-189.3242 2247.6469,-196.3238"/>
</g>
<!-- Node11 -->
<g id="node8" class="node">
<title>Node11</title>
<g id="a_node8"><a xlink:href="../../d6/dda/testMagneticField_8cxx.html" target="_top" xlink:title="/home/travis/build\l/AliceO2Group/AliceO2\l/Common/Field/test/testMagnetic\lField.cxx">
<polygon fill="none" stroke="#000000" points="620.5,-78.5 620.5,-130.5 797.5,-130.5 797.5,-78.5 620.5,-78.5"/>
<text text-anchor="start" x="628.5" y="-118.5" font-family="Helvetica,sans-Serif" font-size="10.00" fill="#000000">/home/travis/build</text>
<text text-anchor="start" x="628.5" y="-107.5" font-family="Helvetica,sans-Serif" font-size="10.00" fill="#000000">/AliceO2Group/AliceO2</text>
<text text-anchor="start" x="628.5" y="-96.5" font-family="Helvetica,sans-Serif" font-size="10.00" fill="#000000">/Common/Field/test/testMagnetic</text>
<text text-anchor="middle" x="709" y="-85.5" font-family="Helvetica,sans-Serif" font-size="10.00" fill="#000000">Field.cxx</text>
</a>
</g>
</g>
<!-- Node6&#45;&gt;Node11 -->
<g id="edge8" class="edge">
<title>Node6&#45;&gt;Node11</title>
<path fill="none" stroke="#191970" d="M2247.6481,-192.6521C1983.166,-189.2903 1088.7187,-174.8705 806,-131 803.2398,-130.5717 800.4458,-130.0934 797.6329,-129.5731"/>
<polygon fill="#191970" stroke="#191970" points="2247.8649,-196.155 2257.9081,-192.781 2247.9529,-189.1556 2247.8649,-196.155"/>
</g>
<!-- Node12 -->
<g id="node9" class="node">
<title>Node12</title>
<g id="a_node9"><a xlink:href="../../d3/dee/Base_2src_2Detector_8cxx.html" target="_top" xlink:title="/home/travis/build\l/AliceO2Group/AliceO2\l/Detectors/Base/src/Detector.cxx">
<polygon fill="none" stroke="#000000" points="815,-84 815,-125 991,-125 991,-84 815,-84"/>
<text text-anchor="start" x="823" y="-113" font-family="Helvetica,sans-Serif" font-size="10.00" fill="#000000">/home/travis/build</text>
<text text-anchor="start" x="823" y="-102" font-family="Helvetica,sans-Serif" font-size="10.00" fill="#000000">/AliceO2Group/AliceO2</text>
<text text-anchor="middle" x="903" y="-91" font-family="Helvetica,sans-Serif" font-size="10.00" fill="#000000">/Detectors/Base/src/Detector.cxx</text>
</a>
</g>
</g>
<!-- Node6&#45;&gt;Node12 -->
<g id="edge9" class="edge">
<title>Node6&#45;&gt;Node12</title>
<path fill="none" stroke="#191970" d="M2247.8992,-192.1642C2006.2152,-187.4677 1242.4416,-169.8545 999,-131 989.524,-129.4876 979.6446,-127.3854 969.9822,-125.0203"/>
<polygon fill="#191970" stroke="#191970" points="2247.9216,-195.6652 2257.9872,-192.3587 2248.0566,-188.6665 2247.9216,-195.6652"/>
</g>
<!-- Node13 -->
<g id="node10" class="node">
<title>Node13</title>
<g id="a_node10"><a xlink:href="../../d8/dee/Propagator_8cxx.html" target="_top" xlink:title="/home/travis/build\l/AliceO2Group/AliceO2\l/Detectors/Base/src/Propagator.cxx">
<polygon fill="none" stroke="#000000" points="1008.5,-84 1008.5,-125 1195.5,-125 1195.5,-84 1008.5,-84"/>
<text text-anchor="start" x="1016.5" y="-113" font-family="Helvetica,sans-Serif" font-size="10.00" fill="#000000">/home/travis/build</text>
<text text-anchor="start" x="1016.5" y="-102" font-family="Helvetica,sans-Serif" font-size="10.00" fill="#000000">/AliceO2Group/AliceO2</text>
<text text-anchor="middle" x="1102" y="-91" font-family="Helvetica,sans-Serif" font-size="10.00" fill="#000000">/Detectors/Base/src/Propagator.cxx</text>
</a>
</g>
</g>
<!-- Node6&#45;&gt;Node13 -->
<g id="edge10" class="edge">
<title>Node6&#45;&gt;Node13</title>
<path fill="none" stroke="#191970" d="M2247.6113,-191.2408C2031.6119,-184.3788 1406.9407,-162.3176 1205,-131 1195.0558,-129.4578 1184.6775,-127.3712 1174.5005,-125.0419"/>
<polygon fill="#191970" stroke="#191970" points="2247.7856,-194.7479 2257.8912,-191.5656 2248.0068,-187.7514 2247.7856,-194.7479"/>
</g>
<!-- Node14 -->
<g id="node11" class="node">
<title>Node14</title>
<g id="a_node11"><a xlink:href="../../d3/d0f/FIT_2FDD_2simulation_2src_2Detector_8cxx.html" target="_top" xlink:title="/home/travis/build\l/AliceO2Group/AliceO2\l/Detectors/FIT/FDD/simulation\l/src/Detector.cxx">
<polygon fill="none" stroke="#000000" points="1214,-78.5 1214,-130.5 1376,-130.5 1376,-78.5 1214,-78.5"/>
<text text-anchor="start" x="1222" y="-118.5" font-family="Helvetica,sans-Serif" font-size="10.00" fill="#000000">/home/travis/build</text>
<text text-anchor="start" x="1222" y="-107.5" font-family="Helvetica,sans-Serif" font-size="10.00" fill="#000000">/AliceO2Group/AliceO2</text>
<text text-anchor="start" x="1222" y="-96.5" font-family="Helvetica,sans-Serif" font-size="10.00" fill="#000000">/Detectors/FIT/FDD/simulation</text>
<text text-anchor="middle" x="1295" y="-85.5" font-family="Helvetica,sans-Serif" font-size="10.00" fill="#000000">/src/Detector.cxx</text>
</a>
</g>
</g>
<!-- Node6&#45;&gt;Node14 -->
<g id="edge11" class="edge">
<title>Node6&#45;&gt;Node14</title>
<path fill="none" stroke="#191970" d="M2247.5405,-190.6483C2056.1117,-182.9778 1550.2863,-160.476 1385,-131 1382.1137,-130.4853 1379.1883,-129.9119 1376.2436,-129.2907"/>
<polygon fill="#191970" stroke="#191970" points="2247.6518,-194.1554 2257.7833,-191.0565 2247.9307,-187.1609 2247.6518,-194.1554"/>
</g>
<!-- Node15 -->
<g id="node12" class="node">
<title>Node15</title>
<g id="a_node12"><a xlink:href="../../db/d6a/MatchTOF_8cxx.html" target="_top" xlink:title="/home/travis/build\l/AliceO2Group/AliceO2\l/Detectors/GlobalTracking\l/src/MatchTOF.cxx">
<polygon fill="none" stroke="#000000" points="1394,-78.5 1394,-130.5 1536,-130.5 1536,-78.5 1394,-78.5"/>
<text text-anchor="start" x="1402" y="-118.5" font-family="Helvetica,sans-Serif" font-size="10.00" fill="#000000">/home/travis/build</text>
<text text-anchor="start" x="1402" y="-107.5" font-family="Helvetica,sans-Serif" font-size="10.00" fill="#000000">/AliceO2Group/AliceO2</text>
<text text-anchor="start" x="1402" y="-96.5" font-family="Helvetica,sans-Serif" font-size="10.00" fill="#000000">/Detectors/GlobalTracking</text>
<text text-anchor="middle" x="1465" y="-85.5" font-family="Helvetica,sans-Serif" font-size="10.00" fill="#000000">/src/MatchTOF.cxx</text>
</a>
</g>
</g>
<!-- Node6&#45;&gt;Node15 -->
<g id="edge12" class="edge">
<title>Node6&#45;&gt;Node15</title>
<path fill="none" stroke="#191970" d="M2247.7651,-189.8014C2080.4546,-181.0969 1678.1598,-158.0025 1545,-131 1542.1322,-130.4185 1539.2241,-129.766 1536.2997,-129.0574"/>
<polygon fill="#191970" stroke="#191970" points="2247.7928,-193.3075 2257.9604,-190.3292 2248.1548,-186.3168 2247.7928,-193.3075"/>
</g>
<!-- Node16 -->
<g id="node13" class="node">
<title>Node16</title>
<g id="a_node13"><a xlink:href="../../dc/d59/MatchTPCITS_8cxx.html" target="_top" xlink:title="/home/travis/build\l/AliceO2Group/AliceO2\l/Detectors/GlobalTracking\l/src/MatchTPCITS.cxx">
<polygon fill="none" stroke="#000000" points="1554,-78.5 1554,-130.5 1696,-130.5 1696,-78.5 1554,-78.5"/>
<text text-anchor="start" x="1562" y="-118.5" font-family="Helvetica,sans-Serif" font-size="10.00" fill="#000000">/home/travis/build</text>
<text text-anchor="start" x="1562" y="-107.5" font-family="Helvetica,sans-Serif" font-size="10.00" fill="#000000">/AliceO2Group/AliceO2</text>
<text text-anchor="start" x="1562" y="-96.5" font-family="Helvetica,sans-Serif" font-size="10.00" fill="#000000">/Detectors/GlobalTracking</text>
<text text-anchor="middle" x="1625" y="-85.5" font-family="Helvetica,sans-Serif" font-size="10.00" fill="#000000">/src/MatchTPCITS.cxx</text>
</a>
</g>
</g>
<!-- Node6&#45;&gt;Node16 -->
<g id="edge13" class="edge">
<title>Node6&#45;&gt;Node16</title>
<path fill="none" stroke="#191970" d="M2247.5259,-191.208C2130.7375,-186.4416 1897.9155,-172.2018 1705,-131 1702.1383,-130.3888 1699.2355,-129.7114 1696.3154,-128.9818"/>
<polygon fill="#191970" stroke="#191970" points="2247.6483,-194.7155 2257.779,-191.6142 2247.9254,-187.721 2247.6483,-194.7155"/>
</g>
<!-- Node17 -->
<g id="node14" class="node">
<title>Node17</title>
<g id="a_node14"><a xlink:href="../../d7/dca/CookedTracker_8cxx.html" target="_top" xlink:title="Implementation of the &quot;Cooked Matrix&quot; ITS tracker. ">
<polygon fill="none" stroke="#000000" points="1714.5,-78.5 1714.5,-130.5 1915.5,-130.5 1915.5,-78.5 1714.5,-78.5"/>
<text text-anchor="start" x="1722.5" y="-118.5" font-family="Helvetica,sans-Serif" font-size="10.00" fill="#000000">/home/travis/build</text>
<text text-anchor="start" x="1722.5" y="-107.5" font-family="Helvetica,sans-Serif" font-size="10.00" fill="#000000">/AliceO2Group/AliceO2</text>
<text text-anchor="start" x="1722.5" y="-96.5" font-family="Helvetica,sans-Serif" font-size="10.00" fill="#000000">/Detectors/ITSMFT/ITS</text>
<text text-anchor="middle" x="1815" y="-85.5" font-family="Helvetica,sans-Serif" font-size="10.00" fill="#000000">/reconstruction/src/CookedTracker.cxx</text>
</a>
</g>
</g>
<!-- Node6&#45;&gt;Node17 -->
<g id="edge14" class="edge">
<title>Node6&#45;&gt;Node17</title>
<path fill="none" stroke="#191970" d="M2247.7953,-183.6323C2167.8043,-172.5727 2036.8924,-153.2483 1925,-131 1921.9174,-130.3871 1918.7904,-129.7472 1915.6366,-129.0862"/>
<polygon fill="#191970" stroke="#191970" points="2247.3902,-187.1094 2257.774,-185.0055 2248.3446,-180.1748 2247.3902,-187.1094"/>
</g>
<!-- Node18 -->
<g id="node15" class="node">
<title>Node18</title>
<g id="a_node15"><a xlink:href="../../d6/dbc/CookedTrackerSpec_8cxx.html" target="_top" xlink:title="/home/travis/build\l/AliceO2Group/AliceO2\l/Detectors/ITSMFT/ITS\l/workflow/src/CookedTrackerSpec.cxx">
<polygon fill="none" stroke="#000000" points="1934,-78.5 1934,-130.5 2134,-130.5 2134,-78.5 1934,-78.5"/>
<text text-anchor="start" x="1942" y="-118.5" font-family="Helvetica,sans-Serif" font-size="10.00" fill="#000000">/home/travis/build</text>
<text text-anchor="start" x="1942" y="-107.5" font-family="Helvetica,sans-Serif" font-size="10.00" fill="#000000">/AliceO2Group/AliceO2</text>
<text text-anchor="start" x="1942" y="-96.5" font-family="Helvetica,sans-Serif" font-size="10.00" fill="#000000">/Detectors/ITSMFT/ITS</text>
<text text-anchor="middle" x="2034" y="-85.5" font-family="Helvetica,sans-Serif" font-size="10.00" fill="#000000">/workflow/src/CookedTrackerSpec.cxx</text>
</a>
</g>
</g>
<!-- Node6&#45;&gt;Node18 -->
<g id="edge15" class="edge">
<title>Node6&#45;&gt;Node18</title>
<path fill="none" stroke="#191970" d="M2248.1198,-170.669C2208.4732,-158.4171 2159.4452,-143.266 2118.312,-130.5547"/>
<polygon fill="#191970" stroke="#191970" points="2247.138,-174.0288 2257.7256,-173.6374 2249.2048,-167.3409 2247.138,-174.0288"/>
</g>
<!-- Node19 -->
<g id="node16" class="node">
<title>Node19</title>
<g id="a_node16"><a xlink:href="../../de/d95/ITSMFT_2ITS_2workflow_2src_2TrackerSpec_8cxx.html" target="_top" xlink:title="/home/travis/build\l/AliceO2Group/AliceO2\l/Detectors/ITSMFT/ITS\l/workflow/src/TrackerSpec.cxx">
<polygon fill="none" stroke="#000000" points="2152.5,-78.5 2152.5,-130.5 2315.5,-130.5 2315.5,-78.5 2152.5,-78.5"/>
<text text-anchor="start" x="2160.5" y="-118.5" font-family="Helvetica,sans-Serif" font-size="10.00" fill="#000000">/home/travis/build</text>
<text text-anchor="start" x="2160.5" y="-107.5" font-family="Helvetica,sans-Serif" font-size="10.00" fill="#000000">/AliceO2Group/AliceO2</text>
<text text-anchor="start" x="2160.5" y="-96.5" font-family="Helvetica,sans-Serif" font-size="10.00" fill="#000000">/Detectors/ITSMFT/ITS</text>
<text text-anchor="middle" x="2234" y="-85.5" font-family="Helvetica,sans-Serif" font-size="10.00" fill="#000000">/workflow/src/TrackerSpec.cxx</text>
</a>
</g>
</g>
<!-- Node6&#45;&gt;Node19 -->
<g id="edge16" class="edge">
<title>Node6&#45;&gt;Node19</title>
<path fill="none" stroke="#191970" d="M2288.8793,-160.0029C2279.2389,-150.2529 2268.8551,-139.7511 2259.7416,-130.5341"/>
<polygon fill="#191970" stroke="#191970" points="2286.5532,-162.6284 2296.0731,-167.2784 2291.5309,-157.7066 2286.5532,-162.6284"/>
</g>
<!-- Node20 -->
<g id="node17" class="node">
<title>Node20</title>
<g id="a_node17"><a xlink:href="../../d0/d6b/ITSMFT_2MFT_2simulation_2src_2Detector_8cxx.html" target="_top" xlink:title="/home/travis/build\l/AliceO2Group/AliceO2\l/Detectors/ITSMFT/MFT\l/simulation/src/Detector.cxx">
<polygon fill="none" stroke="#000000" points="2333.5,-78.5 2333.5,-130.5 2486.5,-130.5 2486.5,-78.5 2333.5,-78.5"/>
<text text-anchor="start" x="2341.5" y="-118.5" font-family="Helvetica,sans-Serif" font-size="10.00" fill="#000000">/home/travis/build</text>
<text text-anchor="start" x="2341.5" y="-107.5" font-family="Helvetica,sans-Serif" font-size="10.00" fill="#000000">/AliceO2Group/AliceO2</text>
<text text-anchor="start" x="2341.5" y="-96.5" font-family="Helvetica,sans-Serif" font-size="10.00" fill="#000000">/Detectors/ITSMFT/MFT</text>
<text text-anchor="middle" x="2410" y="-85.5" font-family="Helvetica,sans-Serif" font-size="10.00" fill="#000000">/simulation/src/Detector.cxx</text>
</a>
</g>
</g>
<!-- Node6&#45;&gt;Node20 -->
<g id="edge17" class="edge">
<title>Node6&#45;&gt;Node20</title>
<path fill="none" stroke="#191970" d="M2355.1207,-160.0029C2364.7611,-150.2529 2375.1449,-139.7511 2384.2584,-130.5341"/>
<polygon fill="#191970" stroke="#191970" points="2352.4691,-157.7066 2347.9269,-167.2784 2357.4468,-162.6284 2352.4691,-157.7066"/>
</g>
<!-- Node21 -->
<g id="node18" class="node">
<title>Node21</title>
<g id="a_node18"><a xlink:href="../../d1/dd0/ITSMFT_2MFT_2workflow_2src_2TrackerSpec_8cxx.html" target="_top" xlink:title="/home/travis/build\l/AliceO2Group/AliceO2\l/Detectors/ITSMFT/MFT\l/workflow/src/TrackerSpec.cxx">
<polygon fill="none" stroke="#000000" points="2504.5,-78.5 2504.5,-130.5 2667.5,-130.5 2667.5,-78.5 2504.5,-78.5"/>
<text text-anchor="start" x="2512.5" y="-118.5" font-family="Helvetica,sans-Serif" font-size="10.00" fill="#000000">/home/travis/build</text>
<text text-anchor="start" x="2512.5" y="-107.5" font-family="Helvetica,sans-Serif" font-size="10.00" fill="#000000">/AliceO2Group/AliceO2</text>
<text text-anchor="start" x="2512.5" y="-96.5" font-family="Helvetica,sans-Serif" font-size="10.00" fill="#000000">/Detectors/ITSMFT/MFT</text>
<text text-anchor="middle" x="2586" y="-85.5" font-family="Helvetica,sans-Serif" font-size="10.00" fill="#000000">/workflow/src/TrackerSpec.cxx</text>
</a>
</g>
</g>
<!-- Node6&#45;&gt;Node21 -->
<g id="edge18" class="edge">
<title>Node6&#45;&gt;Node21</title>
<path fill="none" stroke="#191970" d="M2395.6726,-166.8012C2436.5018,-152.7698 2472.9991,-140.7501 2504.4851,-130.5395"/>
<polygon fill="#191970" stroke="#191970" points="2394.3666,-163.5492 2386.053,-170.1168 2396.6477,-170.1671 2394.3666,-163.5492"/>
</g>
<!-- Node22 -->
<g id="node19" class="node">
<title>Node22</title>
<g id="a_node19"><a xlink:href="../../d1/d96/TrackAtVertexSpec_8cxx.html" target="_top" xlink:title="Implementation of a data processor to extrapolate the tracks to the vertex. ">
<polygon fill="none" stroke="#000000" points="2686,-78.5 2686,-130.5 2856,-130.5 2856,-78.5 2686,-78.5"/>
<text text-anchor="start" x="2694" y="-118.5" font-family="Helvetica,sans-Serif" font-size="10.00" fill="#000000">/home/travis/build</text>
<text text-anchor="start" x="2694" y="-107.5" font-family="Helvetica,sans-Serif" font-size="10.00" fill="#000000">/AliceO2Group/AliceO2</text>
<text text-anchor="start" x="2694" y="-96.5" font-family="Helvetica,sans-Serif" font-size="10.00" fill="#000000">/Detectors/MUON/MCH/Tracking</text>
<text text-anchor="middle" x="2771" y="-85.5" font-family="Helvetica,sans-Serif" font-size="10.00" fill="#000000">/src/TrackAtVertexSpec.cxx</text>
</a>
</g>
</g>
<!-- Node6&#45;&gt;Node22 -->
<g id="edge19" class="edge">
<title>Node6&#45;&gt;Node22</title>
<path fill="none" stroke="#191970" d="M2396.0868,-166.9598C2519.655,-138.195 2556.3338,-155.5706 2677,-131 2679.9076,-130.408 2682.8569,-129.773 2685.8286,-129.1038"/>
<polygon fill="#191970" stroke="#191970" points="2395.1658,-163.5811 2386.2492,-169.3034 2396.7881,-170.3906 2395.1658,-163.5811"/>
</g>
<!-- Node23 -->
<g id="node20" class="node">
<title>Node23</title>
<g id="a_node20"><a xlink:href="../../d1/d8b/TrackFinder_8cxx.html" target="_top" xlink:title="Implementation of a class to reconstruct tracks. ">
<polygon fill="none" stroke="#000000" points="2874,-78.5 2874,-130.5 3044,-130.5 3044,-78.5 2874,-78.5"/>
<text text-anchor="start" x="2882" y="-118.5" font-family="Helvetica,sans-Serif" font-size="10.00" fill="#000000">/home/travis/build</text>
<text text-anchor="start" x="2882" y="-107.5" font-family="Helvetica,sans-Serif" font-size="10.00" fill="#000000">/AliceO2Group/AliceO2</text>
<text text-anchor="start" x="2882" y="-96.5" font-family="Helvetica,sans-Serif" font-size="10.00" fill="#000000">/Detectors/MUON/MCH/Tracking</text>
<text text-anchor="middle" x="2959" y="-85.5" font-family="Helvetica,sans-Serif" font-size="10.00" fill="#000000">/src/TrackFinder.cxx</text>
</a>
</g>
</g>
<!-- Node6&#45;&gt;Node23 -->
<g id="edge20" class="edge">
<title>Node6&#45;&gt;Node23</title>
<path fill="none" stroke="#191970" d="M2396.1072,-167.0174C2601.6731,-124.2281 2661.9446,-167.0307 2865,-131 2867.9216,-130.4816 2870.883,-129.9102 2873.8651,-129.2955"/>
<polygon fill="#191970" stroke="#191970" points="2395.2618,-163.6188 2386.2073,-169.1203 2396.7164,-170.466 2395.2618,-163.6188"/>
</g>
<!-- Node24 -->
<g id="node21" class="node">
<title>Node24</title>
<g id="a_node21"><a xlink:href="../../d6/d6d/TrackFinderOriginal_8cxx.html" target="_top" xlink:title="Implementation of a class to reconstruct tracks with the original algorithm. ">
<polygon fill="none" stroke="#000000" points="3062,-78.5 3062,-130.5 3232,-130.5 3232,-78.5 3062,-78.5"/>
<text text-anchor="start" x="3070" y="-118.5" font-family="Helvetica,sans-Serif" font-size="10.00" fill="#000000">/home/travis/build</text>
<text text-anchor="start" x="3070" y="-107.5" font-family="Helvetica,sans-Serif" font-size="10.00" fill="#000000">/AliceO2Group/AliceO2</text>
<text text-anchor="start" x="3070" y="-96.5" font-family="Helvetica,sans-Serif" font-size="10.00" fill="#000000">/Detectors/MUON/MCH/Tracking</text>
<text text-anchor="middle" x="3147" y="-85.5" font-family="Helvetica,sans-Serif" font-size="10.00" fill="#000000">/src/TrackFinderOriginal.cxx</text>
</a>
</g>
</g>
<!-- Node6&#45;&gt;Node24 -->
<g id="edge21" class="edge">
<title>Node6&#45;&gt;Node24</title>
<path fill="none" stroke="#191970" d="M2396.0753,-167.0473C2683.8303,-109.9718 2767.3272,-178.4863 3053,-131 3055.9271,-130.5134 3058.8932,-129.9696 3061.8794,-129.3785"/>
<polygon fill="#191970" stroke="#191970" points="2395.3012,-163.6329 2386.1907,-169.0411 2396.6853,-170.4947 2395.3012,-163.6329"/>
</g>
<!-- Node25 -->
<g id="node22" class="node">
<title>Node25</title>
<g id="a_node22"><a xlink:href="../../de/db3/MUON_2MCH_2Tracking_2src_2TrackFitter_8cxx.html" target="_top" xlink:title="/home/travis/build\l/AliceO2Group/AliceO2\l/Detectors/MUON/MCH/Tracking\l/src/TrackFitter.cxx">
<polygon fill="none" stroke="#000000" points="3250,-78.5 3250,-130.5 3420,-130.5 3420,-78.5 3250,-78.5"/>
<text text-anchor="start" x="3258" y="-118.5" font-family="Helvetica,sans-Serif" font-size="10.00" fill="#000000">/home/travis/build</text>
<text text-anchor="start" x="3258" y="-107.5" font-family="Helvetica,sans-Serif" font-size="10.00" fill="#000000">/AliceO2Group/AliceO2</text>
<text text-anchor="start" x="3258" y="-96.5" font-family="Helvetica,sans-Serif" font-size="10.00" fill="#000000">/Detectors/MUON/MCH/Tracking</text>
<text text-anchor="middle" x="3335" y="-85.5" font-family="Helvetica,sans-Serif" font-size="10.00" fill="#000000">/src/TrackFitter.cxx</text>
</a>
</g>
</g>
<!-- Node6&#45;&gt;Node25 -->
<g id="edge22" class="edge">
<title>Node6&#45;&gt;Node25</title>
<path fill="none" stroke="#191970" d="M2396.0857,-167.0574C2766.0503,-95.6242 2872.6525,-189.9357 3241,-131 3243.93,-130.5312 3246.8986,-130.0027 3249.8869,-129.4248"/>
<polygon fill="#191970" stroke="#191970" points="2395.3227,-163.6402 2386.1818,-168.9969 2396.6681,-170.5097 2395.3227,-163.6402"/>
</g>
<!-- Node26 -->
<g id="node23" class="node">
<title>Node26</title>
<g id="a_node23"><a xlink:href="../../de/da5/FrameStructure_8cxx.html" target="_top" xlink:title="/home/travis/build\l/AliceO2Group/AliceO2\l/Detectors/Passive/src\l/FrameStructure.cxx">
<polygon fill="none" stroke="#000000" points="3438.5,-78.5 3438.5,-130.5 3565.5,-130.5 3565.5,-78.5 3438.5,-78.5"/>
<text text-anchor="start" x="3446.5" y="-118.5" font-family="Helvetica,sans-Serif" font-size="10.00" fill="#000000">/home/travis/build</text>
<text text-anchor="start" x="3446.5" y="-107.5" font-family="Helvetica,sans-Serif" font-size="10.00" fill="#000000">/AliceO2Group/AliceO2</text>
<text text-anchor="start" x="3446.5" y="-96.5" font-family="Helvetica,sans-Serif" font-size="10.00" fill="#000000">/Detectors/Passive/src</text>
<text text-anchor="middle" x="3502" y="-85.5" font-family="Helvetica,sans-Serif" font-size="10.00" fill="#000000">/FrameStructure.cxx</text>
</a>
</g>
</g>
<!-- Node6&#45;&gt;Node26 -->
<g id="edge23" class="edge">
<title>Node6&#45;&gt;Node26</title>
<path fill="none" stroke="#191970" d="M2396.2365,-167.0388C2848.3654,-81.4985 2980.8792,-217.8851 3429,-131 3432.0444,-130.4097 3435.1309,-129.7116 3438.2276,-128.9298"/>
<polygon fill="#191970" stroke="#191970" points="2395.3378,-163.6473 2386.1763,-168.9687 2396.6566,-170.522 2395.3378,-163.6473"/>
</g>
<!-- Node27 -->
<g id="node24" class="node">
<title>Node27</title>
<g id="a_node24"><a xlink:href="../../da/d8e/SpaceCharge_8cxx.html" target="_top" xlink:title="Implementation of the interface for the ALICE TPC space&#45;charge distortions calculations. ">
<polygon fill="none" stroke="#000000" points="3583.5,-78.5 3583.5,-130.5 3726.5,-130.5 3726.5,-78.5 3583.5,-78.5"/>
<text text-anchor="start" x="3591.5" y="-118.5" font-family="Helvetica,sans-Serif" font-size="10.00" fill="#000000">/home/travis/build</text>
<text text-anchor="start" x="3591.5" y="-107.5" font-family="Helvetica,sans-Serif" font-size="10.00" fill="#000000">/AliceO2Group/AliceO2</text>
<text text-anchor="start" x="3591.5" y="-96.5" font-family="Helvetica,sans-Serif" font-size="10.00" fill="#000000">/Detectors/TPC/simulation</text>
<text text-anchor="middle" x="3655" y="-85.5" font-family="Helvetica,sans-Serif" font-size="10.00" fill="#000000">/src/SpaceCharge.cxx</text>
</a>
</g>
</g>
<!-- Node6&#45;&gt;Node27 -->
<g id="edge24" class="edge">
<title>Node6&#45;&gt;Node27</title>
<path fill="none" stroke="#191970" d="M2396.1091,-167.0657C2912.2038,-70.1856 3061.622,-221.8685 3575,-131 3577.7374,-130.5155 3580.509,-129.9569 3583.2949,-129.338"/>
<polygon fill="#191970" stroke="#191970" points="2395.3445,-163.6483 2386.1733,-168.953 2396.6508,-170.5254 2395.3445,-163.6483"/>
</g>
<!-- Node28 -->
<g id="node25" class="node">
<title>Node28</title>
<g id="a_node25"><a xlink:href="../../d8/dd6/TRDCommonParam_8cxx.html" target="_top" xlink:title="/home/travis/build\l/AliceO2Group/AliceO2\l/Detectors/TRD/base/src\l/TRDCommonParam.cxx">
<polygon fill="none" stroke="#000000" points="3744.5,-78.5 3744.5,-130.5 3879.5,-130.5 3879.5,-78.5 3744.5,-78.5"/>
<text text-anchor="start" x="3752.5" y="-118.5" font-family="Helvetica,sans-Serif" font-size="10.00" fill="#000000">/home/travis/build</text>
<text text-anchor="start" x="3752.5" y="-107.5" font-family="Helvetica,sans-Serif" font-size="10.00" fill="#000000">/AliceO2Group/AliceO2</text>
<text text-anchor="start" x="3752.5" y="-96.5" font-family="Helvetica,sans-Serif" font-size="10.00" fill="#000000">/Detectors/TRD/base/src</text>
<text text-anchor="middle" x="3812" y="-85.5" font-family="Helvetica,sans-Serif" font-size="10.00" fill="#000000">/TRDCommonParam.cxx</text>
</a>
</g>
</g>
<!-- Node6&#45;&gt;Node28 -->
<g id="edge25" class="edge">
<title>Node6&#45;&gt;Node28</title>
<path fill="none" stroke="#191970" d="M2396.0495,-167.131C2704.0459,-112.9829 3445.9215,-184.1363 3736,-131 3738.749,-130.4964 3741.5323,-129.9098 3744.3278,-129.2562"/>
<polygon fill="#191970" stroke="#191970" points="2395.3769,-163.6959 2386.1707,-168.9396 2396.6376,-170.5815 2395.3769,-163.6959"/>
</g>
<!-- Node29 -->
<g id="node26" class="node">
<title>Node29</title>
<g id="a_node26"><a xlink:href="../../dc/d6e/testTRDDiffusionCoefficient_8cxx.html" target="_top" xlink:title="This task tests the Diffusion Coefficient module of the TRD digitization. ">
<polygon fill="none" stroke="#000000" points="3897.5,-78.5 3897.5,-130.5 4072.5,-130.5 4072.5,-78.5 3897.5,-78.5"/>
<text text-anchor="start" x="3905.5" y="-118.5" font-family="Helvetica,sans-Serif" font-size="10.00" fill="#000000">/home/travis/build</text>
<text text-anchor="start" x="3905.5" y="-107.5" font-family="Helvetica,sans-Serif" font-size="10.00" fill="#000000">/AliceO2Group/AliceO2</text>
<text text-anchor="start" x="3905.5" y="-96.5" font-family="Helvetica,sans-Serif" font-size="10.00" fill="#000000">/Detectors/TRD/base/test</text>
<text text-anchor="middle" x="3985" y="-85.5" font-family="Helvetica,sans-Serif" font-size="10.00" fill="#000000">/testTRDDiffusionCoefficient.cxx</text>
</a>
</g>
</g>
<!-- Node6&#45;&gt;Node29 -->
<g id="edge26" class="edge">
<title>Node6&#45;&gt;Node29</title>
<path fill="none" stroke="#191970" d="M2396.1321,-167.1114C2737.6989,-106.9685 3563.6797,-179.0742 3889,-131 3891.7367,-130.5956 3894.5063,-130.1382 3897.294,-129.6361"/>
<polygon fill="#191970" stroke="#191970" points="2395.378,-163.6911 2386.1688,-168.9296 2396.6347,-170.5774 2395.378,-163.6911"/>
</g>
<!-- Node30 -->
<g id="node27" class="node">
<title>Node30</title>
<g id="a_node27"><a xlink:href="../../dd/d2b/o2__sim__its__ALP3_8cxx.html" target="_top" xlink:title="/home/travis/build\l/AliceO2Group/AliceO2\l/Framework/TestWorkflows\l/src/o2_sim_its_ALP3.cxx">
<polygon fill="none" stroke="#000000" points="4091,-78.5 4091,-130.5 4237,-130.5 4237,-78.5 4091,-78.5"/>
<text text-anchor="start" x="4099" y="-118.5" font-family="Helvetica,sans-Serif" font-size="10.00" fill="#000000">/home/travis/build</text>
<text text-anchor="start" x="4099" y="-107.5" font-family="Helvetica,sans-Serif" font-size="10.00" fill="#000000">/AliceO2Group/AliceO2</text>
<text text-anchor="start" x="4099" y="-96.5" font-family="Helvetica,sans-Serif" font-size="10.00" fill="#000000">/Framework/TestWorkflows</text>
<text text-anchor="middle" x="4164" y="-85.5" font-family="Helvetica,sans-Serif" font-size="10.00" fill="#000000">/src/o2_sim_its_ALP3.cxx</text>
</a>
</g>
</g>
<!-- Node6&#45;&gt;Node30 -->
<g id="edge27" class="edge">
<title>Node6&#45;&gt;Node30</title>
<path fill="none" stroke="#191970" d="M2396.2501,-167.0906C2780.2218,-99.7678 3715.4896,-192.7663 4082,-131 4084.9506,-130.5027 4087.9407,-129.9214 4090.946,-129.2723"/>
<polygon fill="#191970" stroke="#191970" points="2395.3817,-163.6909 2386.1669,-168.9195 2396.6311,-170.5786 2395.3817,-163.6909"/>
</g>
<!-- Node31 -->
<g id="node28" class="node">
<title>Node31</title>
<g id="a_node28"><a xlink:href="../../d7/d11/o2__sim__tpc_8cxx.html" target="_top" xlink:title="/home/travis/build\l/AliceO2Group/AliceO2\l/Framework/TestWorkflows\l/src/o2_sim_tpc.cxx">
<polygon fill="none" stroke="#000000" points="4255,-78.5 4255,-130.5 4401,-130.5 4401,-78.5 4255,-78.5"/>
<text text-anchor="start" x="4263" y="-118.5" font-family="Helvetica,sans-Serif" font-size="10.00" fill="#000000">/home/travis/build</text>
<text text-anchor="start" x="4263" y="-107.5" font-family="Helvetica,sans-Serif" font-size="10.00" fill="#000000">/AliceO2Group/AliceO2</text>
<text text-anchor="start" x="4263" y="-96.5" font-family="Helvetica,sans-Serif" font-size="10.00" fill="#000000">/Framework/TestWorkflows</text>
<text text-anchor="middle" x="4328" y="-85.5" font-family="Helvetica,sans-Serif" font-size="10.00" fill="#000000">/src/o2_sim_tpc.cxx</text>
</a>
</g>
</g>
<!-- Node6&#45;&gt;Node31 -->
<g id="edge28" class="edge">
<title>Node6&#45;&gt;Node31</title>
<path fill="none" stroke="#191970" d="M2396.2769,-167.0843C2816.2078,-93.5099 3843.5141,-198.438 4246,-131 4248.9511,-130.5055 4251.9415,-129.9266 4254.9472,-129.2794"/>
<polygon fill="#191970" stroke="#191970" points="2395.3833,-163.6891 2386.1656,-168.9126 2396.6289,-170.5774 2395.3833,-163.6891"/>
</g>
<!-- Node32 -->
<g id="node29" class="node">
<title>Node32</title>
<g id="a_node29"><a xlink:href="../../dc/d50/O2PrimaryServerDevice_8h.html" target="_top" xlink:title="/home/travis/build\l/AliceO2Group/AliceO2\l/run/O2PrimaryServerDevice.h">
<polygon fill="none" stroke="#000000" points="4419,-84 4419,-125 4583,-125 4583,-84 4419,-84"/>
<text text-anchor="start" x="4427" y="-113" font-family="Helvetica,sans-Serif" font-size="10.00" fill="#000000">/home/travis/build</text>
<text text-anchor="start" x="4427" y="-102" font-family="Helvetica,sans-Serif" font-size="10.00" fill="#000000">/AliceO2Group/AliceO2</text>
<text text-anchor="middle" x="4501" y="-91" font-family="Helvetica,sans-Serif" font-size="10.00" fill="#000000">/run/O2PrimaryServerDevice.h</text>
</a>
</g>
</g>
<!-- Node6&#45;&gt;Node32 -->
<g id="edge29" class="edge">
<title>Node6&#45;&gt;Node32</title>
<path fill="none" stroke="#191970" d="M2396.1441,-167.1052C2851.9106,-87.123 3970.4641,-197.7073 4410,-131 4419.2731,-129.5926 4428.9281,-127.4982 4438.3354,-125.0925"/>
<polygon fill="#191970" stroke="#191970" points="2395.3836,-163.6858 2386.1646,-168.9068 2396.6273,-170.5744 2395.3836,-163.6858"/>
</g>
<!-- Node7&#45;&gt;Node8 -->
<g id="edge4" class="edge">
<title>Node7&#45;&gt;Node8</title>
<path fill="none" stroke="#191970" d="M83.4063,-69.2733C88.5831,-59.8763 94.009,-50.0272 98.5997,-41.6941"/>
<polygon fill="#191970" stroke="#191970" points="80.3144,-67.6324 78.5547,-78.0801 86.4456,-71.0101 80.3144,-67.6324"/>
</g>
<!-- Node33 -->
<g id="node30" class="node">
<title>Node33</title>
<g id="a_node30"><a xlink:href="../../db/d8f/O2PrimaryServerDeviceRunner_8cxx.html" target="_top" xlink:title="/home/travis/build\l/AliceO2Group/AliceO2\l/run/O2PrimaryServerDeviceRunner.cxx">
<polygon fill="none" stroke="#000000" points="4396.5,-.5 4396.5,-41.5 4605.5,-41.5 4605.5,-.5 4396.5,-.5"/>
<text text-anchor="start" x="4404.5" y="-29.5" font-family="Helvetica,sans-Serif" font-size="10.00" fill="#000000">/home/travis/build</text>
<text text-anchor="start" x="4404.5" y="-18.5" font-family="Helvetica,sans-Serif" font-size="10.00" fill="#000000">/AliceO2Group/AliceO2</text>
<text text-anchor="middle" x="4501" y="-7.5" font-family="Helvetica,sans-Serif" font-size="10.00" fill="#000000">/run/O2PrimaryServerDeviceRunner.cxx</text>
</a>
</g>
</g>
<!-- Node32&#45;&gt;Node33 -->
<g id="edge30" class="edge">
<title>Node32&#45;&gt;Node33</title>
<path fill="none" stroke="#191970" d="M4501,-73.6593C4501,-63.0064 4501,-51.3344 4501,-41.6924"/>
<polygon fill="#191970" stroke="#191970" points="4497.5001,-73.8595 4501,-83.8595 4504.5001,-73.8596 4497.5001,-73.8595"/>
</g>
<!-- Node35&#45;&gt;Node5 -->
<g id="edge33" class="edge">
<title>Node35&#45;&gt;Node5</title>
<path fill="none" stroke="#191970" d="M2467.1265,-338.0029C2457.267,-328.2529 2446.6472,-317.7511 2437.3267,-308.5341"/>
<polygon fill="#191970" stroke="#191970" points="2464.9123,-340.7356 2474.4838,-345.2784 2469.8343,-335.7583 2464.9123,-340.7356"/>
</g>
<!-- Node35&#45;&gt;Node36 -->
<g id="edge34" class="edge">
<title>Node35&#45;&gt;Node36</title>
<path fill="none" stroke="#191970" d="M2537.1958,-338.2894C2547.9099,-328.459 2559.4817,-317.8415 2569.6257,-308.5341"/>
<polygon fill="#191970" stroke="#191970" points="2534.5807,-335.9388 2529.5786,-345.2784 2539.3132,-341.0967 2534.5807,-335.9388"/>
</g>
</g>
</svg>
