<?xml version="1.0" encoding="UTF-8" standalone="no"?>
<!DOCTYPE svg PUBLIC "-//W3C//DTD SVG 1.1//EN"
 "http://www.w3.org/Graphics/SVG/1.1/DTD/svg11.dtd">
<!-- Generated by graphviz version 2.40.1 (20161225.0304)
 -->
<!-- Title: o2::framework::ParsedMetricMatch Pages: 1 -->
<!--zoomable 215 -->
<svg id="main" version="1.1" xmlns="http://www.w3.org/2000/svg" xmlns:xlink="http://www.w3.org/1999/xlink" xml:space="preserve" onload="init(evt)">
<style type="text/css"><![CDATA[
.edge:hover path { stroke: red; }
.edge:hover polygon { stroke: red; fill: red; }
]]></style>
<script type="text/javascript"><![CDATA[
var edges = document.getElementsByTagName('g');
if (edges && edges.length) {
  for (var i=0;i<edges.length;i++) {
    if (edges[i].id.substr(0,4)=='edge') {
      edges[i].setAttribute('class','edge');
    }
  }
}
]]></script>
        <defs>
                <circle id="rim" cx="0" cy="0" r="7"/>
                <circle id="rim2" cx="0" cy="0" r="3.5"/>
                <g id="zoomPlus">
                        <use xlink:href="#rim" fill="#404040">
                                <set attributeName="fill" to="#808080" begin="zoomplus.mouseover" end="zoomplus.mouseout"/>
                        </use>
                        <path d="M-4,0h8M0,-4v8" fill="none" stroke="white" stroke-width="1.5" pointer-events="none"/>
                </g>
                <g id="zoomMin">
                        <use xlink:href="#rim" fill="#404040">
                                <set attributeName="fill" to="#808080" begin="zoomminus.mouseover" end="zoomminus.mouseout"/>
                        </use>
                        <path d="M-4,0h8" fill="none" stroke="white" stroke-width="1.5" pointer-events="none"/>
                </g>
                <g id="dirArrow">
                        <path fill="none" stroke="white" stroke-width="1.5" d="M0,-3.0v7 M-2.5,-0.5L0,-3.0L2.5,-0.5"/>
                </g>
               <g id="resetDef">
                       <use xlink:href="#rim2" fill="#404040">
                               <set attributeName="fill" to="#808080" begin="reset.mouseover" end="reset.mouseout"/>
                       </use>
               </g>
        </defs>

<script type="text/javascript">
var viewWidth = 550;
var viewHeight = 215;
var sectionId = 'dynsection-0';
</script>
<script xlink:href="../../svgpan.js"/>
<svg id="graph" class="graph">
<g id="viewport">
<title>o2::framework::ParsedMetricMatch</title>
<!-- Node1 -->
<g id="node1" class="node">
<title>Node1</title>
<polygon fill="#bfbfbf" stroke="#000000" points="172.5,-.5 172.5,-68.5 328.5,-68.5 328.5,-.5 172.5,-.5"/>
<text text-anchor="start" x="180.5" y="-56.5" font-family="Helvetica,sans-Serif" font-size="10.00" fill="#000000">o2::framework::ParsedMetric</text>
<text text-anchor="middle" x="250.5" y="-45.5" font-family="Helvetica,sans-Serif" font-size="10.00" fill="#000000">Match</text>
<polyline fill="none" stroke="#000000" points="172.5,-38.5 328.5,-38.5 "/>
<text text-anchor="middle" x="250.5" y="-26.5" font-family="Helvetica,sans-Serif" font-size="10.00" fill="#000000"> </text>
<polyline fill="none" stroke="#000000" points="172.5,-19.5 328.5,-19.5 "/>
<text text-anchor="middle" x="250.5" y="-7.5" font-family="Helvetica,sans-Serif" font-size="10.00" fill="#000000"> </text>
</g>
<!-- Node2 -->
<g id="node2" class="node">
<title>Node2</title>
<polygon fill="none" stroke="#bfbfbf" points="0,-149.5 0,-206.5 69,-206.5 69,-149.5 0,-149.5"/>
<text text-anchor="middle" x="34.5" y="-194.5" font-family="Helvetica,sans-Serif" font-size="10.00" fill="#000000">MetricType</text>
<polyline fill="none" stroke="#bfbfbf" points="0,-187.5 69,-187.5 "/>
<text text-anchor="middle" x="34.5" y="-175.5" font-family="Helvetica,sans-Serif" font-size="10.00" fill="#000000"> </text>
<polyline fill="none" stroke="#bfbfbf" points="0,-168.5 69,-168.5 "/>
<text text-anchor="middle" x="34.5" y="-156.5" font-family="Helvetica,sans-Serif" font-size="10.00" fill="#000000"> </text>
</g>
<!-- Node2&#45;&gt;Node1 -->
<g id="edge1" class="edge">
<title>Node2&#45;&gt;Node1</title>
<path fill="none" stroke="#404040" d="M40.7623,-149.1551C46.5516,-129.0713 57.1229,-103.1008 75.5,-87 88.9505,-75.2156 124.5011,-63.6274 160.0748,-54.3486"/>
<polygon fill="none" stroke="#404040" points="160.477,-54.2466 165.3081,-48.8931 172.108,-51.2935 167.2768,-56.6471 160.477,-54.2466"/>
<text text-anchor="middle" x="92.5" y="-106.5" font-family="Helvetica,sans-Serif" font-size="10.00" fill="#000000"> +type</text>
</g>
<!-- Node3 -->
<g id="node3" class="node">
<title>Node3</title>
<g id="a_node3"><a xlink:href="../../d6/d30/classuint64__t.html" target="_top" xlink:title="{uint64_t\n||}">
<polygon fill="none" stroke="#000000" points="87.5,-149.5 87.5,-206.5 143.5,-206.5 143.5,-149.5 87.5,-149.5"/>
<text text-anchor="middle" x="115.5" y="-194.5" font-family="Helvetica,sans-Serif" font-size="10.00" fill="#000000">uint64_t</text>
<polyline fill="none" stroke="#000000" points="87.5,-187.5 143.5,-187.5 "/>
<text text-anchor="middle" x="115.5" y="-175.5" font-family="Helvetica,sans-Serif" font-size="10.00" fill="#000000"> </text>
<polyline fill="none" stroke="#000000" points="87.5,-168.5 143.5,-168.5 "/>
<text text-anchor="middle" x="115.5" y="-156.5" font-family="Helvetica,sans-Serif" font-size="10.00" fill="#000000"> </text>
</a>
</g>
</g>
<!-- Node3&#45;&gt;Node1 -->
<g id="edge2" class="edge">
<title>Node3&#45;&gt;Node1</title>
<path fill="none" stroke="#404040" d="M112.7168,-149.3902C112.3453,-129.9312 115.0194,-104.617 128.5,-87 137.2031,-75.6264 148.8644,-66.6813 161.5361,-59.6559"/>
<polygon fill="none" stroke="#404040" points="161.6586,-59.5942 165.2172,-53.3223 172.3753,-54.1948 168.8168,-60.4668 161.6586,-59.5942"/>
<text text-anchor="middle" x="163.5" y="-106.5" font-family="Helvetica,sans-Serif" font-size="10.00" fill="#000000"> +uint64Value</text>
</g>
<!-- Node4 -->
<g id="node4" class="node">
<title>Node4</title>
<g id="a_node4"><a xlink:href="../../d4/dc3/classfloat.html" target="_top" xlink:title="{float\n||}">
<polygon fill="none" stroke="#000000" points="189.5,-149.5 189.5,-206.5 227.5,-206.5 227.5,-149.5 189.5,-149.5"/>
<text text-anchor="middle" x="208.5" y="-194.5" font-family="Helvetica,sans-Serif" font-size="10.00" fill="#000000">float</text>
<polyline fill="none" stroke="#000000" points="189.5,-187.5 227.5,-187.5 "/>
<text text-anchor="middle" x="208.5" y="-175.5" font-family="Helvetica,sans-Serif" font-size="10.00" fill="#000000"> </text>
<polyline fill="none" stroke="#000000" points="189.5,-168.5 227.5,-168.5 "/>
<text text-anchor="middle" x="208.5" y="-156.5" font-family="Helvetica,sans-Serif" font-size="10.00" fill="#000000"> </text>
</a>
</g>
</g>
<!-- Node4&#45;&gt;Node1 -->
<g id="edge3" class="edge">
<title>Node4&#45;&gt;Node1</title>
<path fill="none" stroke="#404040" d="M204.1951,-149.3103C202.5536,-130.9767 202.4994,-106.9805 209.5,-87 210.401,-84.4283 211.4835,-81.8853 212.7065,-79.3875"/>
<polygon fill="none" stroke="#404040" points="212.8348,-79.1654 212.3745,-71.9689 218.8403,-68.7762 219.3006,-75.9726 212.8348,-79.1654"/>
<text text-anchor="middle" x="240" y="-106.5" font-family="Helvetica,sans-Serif" font-size="10.00" fill="#000000"> +floatValue</text>
</g>
<!-- Node5 -->
<g id="node5" class="node">
<title>Node5</title>
<polygon fill="none" stroke="#bfbfbf" points="273.5,-149.5 273.5,-206.5 311.5,-206.5 311.5,-149.5 273.5,-149.5"/>
<text text-anchor="middle" x="292.5" y="-194.5" font-family="Helvetica,sans-Serif" font-size="10.00" fill="#000000">char</text>
<polyline fill="none" stroke="#bfbfbf" points="273.5,-187.5 311.5,-187.5 "/>
<text text-anchor="middle" x="292.5" y="-175.5" font-family="Helvetica,sans-Serif" font-size="10.00" fill="#000000"> </text>
<polyline fill="none" stroke="#bfbfbf" points="273.5,-168.5 311.5,-168.5 "/>
<text text-anchor="middle" x="292.5" y="-156.5" font-family="Helvetica,sans-Serif" font-size="10.00" fill="#000000"> </text>
</g>
<!-- Node5&#45;&gt;Node1 -->
<g id="edge4" class="edge">
<title>Node5&#45;&gt;Node1</title>
<path fill="none" stroke="#404040" d="M286.577,-149.4646C282.5887,-131.4037 276.9006,-107.6482 270.5,-87 269.8069,-84.7641 269.068,-82.486 268.2979,-80.1933"/>
<polygon fill="none" stroke="#404040" points="268.2481,-80.0519 262.4799,-75.7243 264.2561,-68.7354 270.0243,-73.063 268.2481,-80.0519"/>
<text text-anchor="middle" x="327" y="-123" font-family="Helvetica,sans-Serif" font-size="10.00" fill="#000000"> +beginKey</text>
<text text-anchor="middle" x="327" y="-112" font-family="Helvetica,sans-Serif" font-size="10.00" fill="#000000">+endStringValue</text>
<text text-anchor="middle" x="327" y="-101" font-family="Helvetica,sans-Serif" font-size="10.00" fill="#000000">+beginStringValue</text>
<text text-anchor="middle" x="327" y="-90" font-family="Helvetica,sans-Serif" font-size="10.00" fill="#000000">+endKey</text>
</g>
<!-- Node6 -->
<g id="node6" class="node">
<title>Node6</title>
<polygon fill="none" stroke="#bfbfbf" points="384,-149.5 384,-206.5 429,-206.5 429,-149.5 384,-149.5"/>
<text text-anchor="middle" x="406.5" y="-194.5" font-family="Helvetica,sans-Serif" font-size="10.00" fill="#000000">size_t</text>
<polyline fill="none" stroke="#bfbfbf" points="384,-187.5 429,-187.5 "/>
<text text-anchor="middle" x="406.5" y="-175.5" font-family="Helvetica,sans-Serif" font-size="10.00" fill="#000000"> </text>
<polyline fill="none" stroke="#bfbfbf" points="384,-168.5 429,-168.5 "/>
<text text-anchor="middle" x="406.5" y="-156.5" font-family="Helvetica,sans-Serif" font-size="10.00" fill="#000000"> </text>
</g>
<!-- Node6&#45;&gt;Node1 -->
<g id="edge5" class="edge">
<title>Node6&#45;&gt;Node1</title>
<path fill="none" stroke="#404040" d="M403.3523,-149.403C399.8157,-129.6982 392.3274,-104.0842 376.5,-87 366.27,-75.9576 353.3594,-67.1628 339.7282,-60.1801"/>
<polygon fill="none" stroke="#404040" points="339.5294,-60.0862 332.3957,-61.1399 328.6793,-54.9602 335.813,-53.9065 339.5294,-60.0862"/>
<text text-anchor="middle" x="431" y="-106.5" font-family="Helvetica,sans-Serif" font-size="10.00" fill="#000000"> +timestamp</text>
</g>
<!-- Node7 -->
<g id="node7" class="node">
<title>Node7</title>
<polygon fill="none" stroke="#bfbfbf" points="480,-149.5 480,-206.5 509,-206.5 509,-149.5 480,-149.5"/>
<text text-anchor="middle" x="494.5" y="-194.5" font-family="Helvetica,sans-Serif" font-size="10.00" fill="#000000">int</text>
<polyline fill="none" stroke="#bfbfbf" points="480,-187.5 509,-187.5 "/>
<text text-anchor="middle" x="494.5" y="-175.5" font-family="Helvetica,sans-Serif" font-size="10.00" fill="#000000"> </text>
<polyline fill="none" stroke="#bfbfbf" points="480,-168.5 509,-168.5 "/>
<text text-anchor="middle" x="494.5" y="-156.5" font-family="Helvetica,sans-Serif" font-size="10.00" fill="#000000"> </text>
</g>
<!-- Node7&#45;&gt;Node1 -->
<g id="edge6" class="edge">
<title>Node7&#45;&gt;Node1</title>
<path fill="none" stroke="#404040" d="M493.247,-149.0974C490.8242,-128.9857 484.3443,-103.0055 467.5,-87 448.9332,-69.3577 391.7065,-55.9395 340.6828,-47.0857"/>
<polygon fill="none" stroke="#404040" points="340.3876,-47.0361 333.8069,-49.9848 328.554,-45.0444 335.1347,-42.0957 340.3876,-47.0361"/>
<text text-anchor="middle" x="515.5" y="-106.5" font-family="Helvetica,sans-Serif" font-size="10.00" fill="#000000"> +intValue</text>
</g>
</g>
</svg>
        <g id="navigator" transform="translate(0 0)" fill="#404254">
                <rect fill="#f2f5e9" fill-opacity="0.5" stroke="#606060" stroke-width=".5" x="0" y="0" width="60" height="60"/>
                <use id="zoomplus" xlink:href="#zoomPlus" x="17" y="9" onmousedown="handleZoom(evt,'in')"/>
                <use id="zoomminus" xlink:href="#zoomMin" x="42" y="9" onmousedown="handleZoom(evt,'out')"/>
                <use id="reset" xlink:href="#resetDef" x="30" y="36" onmousedown="handleReset()"/>
                <g id="arrowUp" xlink:href="#dirArrow" transform="translate(30 24)" onmousedown="handlePan(0,-1)">
                  <use xlink:href="#rim" fill="#404040">
                        <set attributeName="fill" to="#808080" begin="arrowUp.mouseover" end="arrowUp.mouseout"/>
                  </use>
                  <path fill="none" stroke="white" stroke-width="1.5" d="M0,-3.0v7 M-2.5,-0.5L0,-3.0L2.5,-0.5"/>
                </g>
                <g id="arrowRight" xlink:href="#dirArrow" transform="rotate(90) translate(36 -43)" onmousedown="handlePan(1,0)">
                  <use xlink:href="#rim" fill="#404040">
                        <set attributeName="fill" to="#808080" begin="arrowRight.mouseover" end="arrowRight.mouseout"/>
                  </use>
                  <path fill="none" stroke="white" stroke-width="1.5" d="M0,-3.0v7 M-2.5,-0.5L0,-3.0L2.5,-0.5"/>
                </g>
                <g id="arrowDown" xlink:href="#dirArrow" transform="rotate(180) translate(-30 -48)" onmousedown="handlePan(0,1)">
                  <use xlink:href="#rim" fill="#404040">
                        <set attributeName="fill" to="#808080" begin="arrowDown.mouseover" end="arrowDown.mouseout"/>
                  </use>
                  <path fill="none" stroke="white" stroke-width="1.5" d="M0,-3.0v7 M-2.5,-0.5L0,-3.0L2.5,-0.5"/>
                </g>
                <g id="arrowLeft" xlink:href="#dirArrow" transform="rotate(270) translate(-36 17)" onmousedown="handlePan(-1,0)">
                  <use xlink:href="#rim" fill="#404040">
                        <set attributeName="fill" to="#808080" begin="arrowLeft.mouseover" end="arrowLeft.mouseout"/>
                  </use>
                  <path fill="none" stroke="white" stroke-width="1.5" d="M0,-3.0v7 M-2.5,-0.5L0,-3.0L2.5,-0.5"/>
                </g>
        </g>
        <svg viewBox="0 0 15 15" width="100%" height="30px" preserveAspectRatio="xMaxYMin meet">
         <g id="arrow_out" transform="scale(0.3 0.3)">
          <a xlink:href="structo2_1_1framework_1_1ParsedMetricMatch__coll__graph_org.svg" target="_base">
           <rect id="button" ry="5" rx="5" y="6" x="6" height="38" width="38"
                fill="#f2f5e9" fill-opacity="0.5" stroke="#606060" stroke-width="1.0"/>
           <path id="arrow"
             d="M 11.500037,31.436501 C 11.940474,20.09759 22.043105,11.32322 32.158766,21.979434 L 37.068811,17.246167 C 37.068811,17.246167 37.088388,32 37.088388,32 L 22.160133,31.978069 C 22.160133,31.978069 26.997745,27.140456 26.997745,27.140456 C 18.528582,18.264221 13.291696,25.230495 11.500037,31.436501 z"
             style="fill:#404040;"/>
          </a>
         </g>
        </svg>
</svg>
