<?xml version="1.0" encoding="UTF-8" standalone="no"?>
<!DOCTYPE svg PUBLIC "-//W3C//DTD SVG 1.1//EN"
 "http://www.w3.org/Graphics/SVG/1.1/DTD/svg11.dtd">
<!-- Generated by graphviz version 2.40.1 (20161225.0304)
 -->
<!-- Title: /home/travis/build/AliceO2Group/AliceO2/Detectors/MUON/MID/Raw/include/MIDRaw/CrateMasks.h Pages: 1 -->
<svg width="1150pt" height="239pt"
 viewBox="0.00 0.00 1150.00 239.00" xmlns="http://www.w3.org/2000/svg" xmlns:xlink="http://www.w3.org/1999/xlink">
<g id="graph0" class="graph" transform="scale(1 1) rotate(0) translate(4 235)">
<title>/home/travis/build/AliceO2Group/AliceO2/Detectors/MUON/MID/Raw/include/MIDRaw/CrateMasks.h</title>
<!-- Node4 -->
<g id="node1" class="node">
<title>Node4</title>
<polygon fill="#bfbfbf" stroke="#000000" points="520.5,-178.5 520.5,-230.5 687.5,-230.5 687.5,-178.5 520.5,-178.5"/>
<text text-anchor="start" x="528.5" y="-218.5" font-family="Helvetica,sans-Serif" font-size="10.00" fill="#000000">/home/travis/build</text>
<text text-anchor="start" x="528.5" y="-207.5" font-family="Helvetica,sans-Serif" font-size="10.00" fill="#000000">/AliceO2Group/AliceO2</text>
<text text-anchor="start" x="528.5" y="-196.5" font-family="Helvetica,sans-Serif" font-size="10.00" fill="#000000">/Detectors/MUON/MID/Raw</text>
<text text-anchor="middle" x="604" y="-185.5" font-family="Helvetica,sans-Serif" font-size="10.00" fill="#000000">/include/MIDRaw/CrateMasks.h</text>
</g>
<!-- Node5 -->
<g id="node2" class="node">
<title>Node5</title>
<g id="a_node2"><a xlink:href="../../d7/de8/raw-checker_8cxx.html" target="_top" xlink:title="Raw data checker for MID. ">
<polygon fill="none" stroke="#000000" points="158,-.5 158,-52.5 298,-52.5 298,-.5 158,-.5"/>
<text text-anchor="start" x="166" y="-40.5" font-family="Helvetica,sans-Serif" font-size="10.00" fill="#000000">/home/travis/build</text>
<text text-anchor="start" x="166" y="-29.5" font-family="Helvetica,sans-Serif" font-size="10.00" fill="#000000">/AliceO2Group/AliceO2</text>
<text text-anchor="start" x="166" y="-18.5" font-family="Helvetica,sans-Serif" font-size="10.00" fill="#000000">/Detectors/MUON/MID/QC</text>
<text text-anchor="middle" x="228" y="-7.5" font-family="Helvetica,sans-Serif" font-size="10.00" fill="#000000">/exe/raw&#45;checker.cxx</text>
</a>
</g>
</g>
<!-- Node4&#45;&gt;Node5 -->
<g id="edge1" class="edge">
<title>Node4&#45;&gt;Node5</title>
<path fill="none" stroke="#191970" d="M538.6862,-174.1779C516.8295,-163.9932 492.3449,-152.5431 470,-142 405.3727,-111.5066 331.2411,-76.0556 282.2384,-52.5556"/>
<polygon fill="#191970" stroke="#191970" points="537.3358,-177.4099 547.8786,-178.4589 540.2911,-171.0643 537.3358,-177.4099"/>
</g>
<!-- Node6 -->
<g id="node3" class="node">
<title>Node6</title>
<g id="a_node3"><a xlink:href="../../d2/d52/RawDataChecker_8h.html" target="_top" xlink:title="Class to check the raw data. ">
<polygon fill="none" stroke="#000000" points="135,-89.5 135,-141.5 321,-141.5 321,-89.5 135,-89.5"/>
<text text-anchor="start" x="143" y="-129.5" font-family="Helvetica,sans-Serif" font-size="10.00" fill="#000000">/home/travis/build</text>
<text text-anchor="start" x="143" y="-118.5" font-family="Helvetica,sans-Serif" font-size="10.00" fill="#000000">/AliceO2Group/AliceO2</text>
<text text-anchor="start" x="143" y="-107.5" font-family="Helvetica,sans-Serif" font-size="10.00" fill="#000000">/Detectors/MUON/MID/QC</text>
<text text-anchor="middle" x="228" y="-96.5" font-family="Helvetica,sans-Serif" font-size="10.00" fill="#000000">/include/MIDQC/RawDataChecker.h</text>
</a>
</g>
</g>
<!-- Node4&#45;&gt;Node6 -->
<g id="edge2" class="edge">
<title>Node4&#45;&gt;Node6</title>
<path fill="none" stroke="#191970" d="M510.2371,-182.3061C452.5273,-168.6461 378.8379,-151.2036 321.2273,-137.5671"/>
<polygon fill="#191970" stroke="#191970" points="509.5489,-185.7399 520.0863,-184.6374 511.1614,-178.9281 509.5489,-185.7399"/>
</g>
<!-- Node8 -->
<g id="node5" class="node">
<title>Node8</title>
<g id="a_node5"><a xlink:href="../../d9/d05/Detectors_2MUON_2MID_2Raw_2include_2MIDRaw_2Decoder_8h.html" target="_top" xlink:title="MID raw data decoder. ">
<polygon fill="none" stroke="#000000" points="478.5,-89.5 478.5,-141.5 627.5,-141.5 627.5,-89.5 478.5,-89.5"/>
<text text-anchor="start" x="486.5" y="-129.5" font-family="Helvetica,sans-Serif" font-size="10.00" fill="#000000">/home/travis/build</text>
<text text-anchor="start" x="486.5" y="-118.5" font-family="Helvetica,sans-Serif" font-size="10.00" fill="#000000">/AliceO2Group/AliceO2</text>
<text text-anchor="start" x="486.5" y="-107.5" font-family="Helvetica,sans-Serif" font-size="10.00" fill="#000000">/Detectors/MUON/MID/Raw</text>
<text text-anchor="middle" x="553" y="-96.5" font-family="Helvetica,sans-Serif" font-size="10.00" fill="#000000">/include/MIDRaw/Decoder.h</text>
</a>
</g>
</g>
<!-- Node4&#45;&gt;Node8 -->
<g id="edge5" class="edge">
<title>Node4&#45;&gt;Node8</title>
<path fill="none" stroke="#191970" d="M583.9804,-169.5639C578.6298,-160.2264 572.9412,-150.2993 567.9184,-141.5341"/>
<polygon fill="#191970" stroke="#191970" points="580.9655,-171.3422 588.9742,-178.2784 587.039,-167.8618 580.9655,-171.3422"/>
</g>
<!-- Node13 -->
<g id="node10" class="node">
<title>Node13</title>
<g id="a_node10"><a xlink:href="../../d1/dc9/RawDecoderSpec_8cxx.html" target="_top" xlink:title="Data processor spec for MID raw decoder device. ">
<polygon fill="none" stroke="#000000" points="972,-.5 972,-52.5 1142,-52.5 1142,-.5 972,-.5"/>
<text text-anchor="start" x="980" y="-40.5" font-family="Helvetica,sans-Serif" font-size="10.00" fill="#000000">/home/travis/build</text>
<text text-anchor="start" x="980" y="-29.5" font-family="Helvetica,sans-Serif" font-size="10.00" fill="#000000">/AliceO2Group/AliceO2</text>
<text text-anchor="start" x="980" y="-18.5" font-family="Helvetica,sans-Serif" font-size="10.00" fill="#000000">/Detectors/MUON/MID/Workflow</text>
<text text-anchor="middle" x="1057" y="-7.5" font-family="Helvetica,sans-Serif" font-size="10.00" fill="#000000">/src/RawDecoderSpec.cxx</text>
</a>
</g>
</g>
<!-- Node4&#45;&gt;Node13 -->
<g id="edge14" class="edge">
<title>Node4&#45;&gt;Node13</title>
<path fill="none" stroke="#191970" d="M623.3789,-169.1183C641.2691,-137.0514 666.2093,-94.048 674,-89 782.6275,-18.6151 836.1265,-78.6335 963,-53 965.9085,-52.4124 968.8585,-51.7813 971.8309,-51.1153"/>
<polygon fill="#191970" stroke="#191970" points="620.1043,-167.806 618.3103,-178.2478 626.2244,-171.2038 620.1043,-167.806"/>
</g>
<!-- Node14 -->
<g id="node11" class="node">
<title>Node14</title>
<g id="a_node11"><a xlink:href="../../d2/d8f/CrateMasks_8cxx.html" target="_top" xlink:title="MID crate masks. ">
<polygon fill="none" stroke="#000000" points="683,-89.5 683,-141.5 829,-141.5 829,-89.5 683,-89.5"/>
<text text-anchor="start" x="691" y="-129.5" font-family="Helvetica,sans-Serif" font-size="10.00" fill="#000000">/home/travis/build</text>
<text text-anchor="start" x="691" y="-118.5" font-family="Helvetica,sans-Serif" font-size="10.00" fill="#000000">/AliceO2Group/AliceO2</text>
<text text-anchor="start" x="691" y="-107.5" font-family="Helvetica,sans-Serif" font-size="10.00" fill="#000000">/Detectors/MUON/MID/Raw</text>
<text text-anchor="middle" x="756" y="-96.5" font-family="Helvetica,sans-Serif" font-size="10.00" fill="#000000">/src/CrateMasks.cxx</text>
</a>
</g>
</g>
<!-- Node4&#45;&gt;Node14 -->
<g id="edge12" class="edge">
<title>Node4&#45;&gt;Node14</title>
<path fill="none" stroke="#191970" d="M657.7996,-172.9989C675.388,-162.7004 694.7155,-151.3837 711.5372,-141.5341"/>
<polygon fill="#191970" stroke="#191970" points="655.6439,-170.2052 648.7829,-178.2784 659.181,-176.2459 655.6439,-170.2052"/>
</g>
<!-- Node15 -->
<g id="node12" class="node">
<title>Node15</title>
<g id="a_node12"><a xlink:href="../../d8/dc6/MUON_2MID_2Raw_2src_2Encoder_8cxx.html" target="_top" xlink:title="MID raw data encoder. ">
<polygon fill="none" stroke="#000000" points="847,-89.5 847,-141.5 993,-141.5 993,-89.5 847,-89.5"/>
<text text-anchor="start" x="855" y="-129.5" font-family="Helvetica,sans-Serif" font-size="10.00" fill="#000000">/home/travis/build</text>
<text text-anchor="start" x="855" y="-118.5" font-family="Helvetica,sans-Serif" font-size="10.00" fill="#000000">/AliceO2Group/AliceO2</text>
<text text-anchor="start" x="855" y="-107.5" font-family="Helvetica,sans-Serif" font-size="10.00" fill="#000000">/Detectors/MUON/MID/Raw</text>
<text text-anchor="middle" x="920" y="-96.5" font-family="Helvetica,sans-Serif" font-size="10.00" fill="#000000">/src/Encoder.cxx</text>
</a>
</g>
</g>
<!-- Node4&#45;&gt;Node15 -->
<g id="edge13" class="edge">
<title>Node4&#45;&gt;Node15</title>
<path fill="none" stroke="#191970" d="M697.5537,-180.6926C740.4896,-169.464 791.9769,-155.5731 838,-142 840.87,-141.1536 843.7921,-140.2777 846.7405,-139.382"/>
<polygon fill="#191970" stroke="#191970" points="696.4757,-177.3565 687.6825,-183.2666 698.2421,-184.13 696.4757,-177.3565"/>
</g>
<!-- Node6&#45;&gt;Node5 -->
<g id="edge3" class="edge">
<title>Node6&#45;&gt;Node5</title>
<path fill="none" stroke="#191970" d="M228,-79.1155C228,-70.2061 228,-60.8475 228,-52.5341"/>
<polygon fill="#191970" stroke="#191970" points="224.5001,-79.2784 228,-89.2784 231.5001,-79.2785 224.5001,-79.2784"/>
</g>
<!-- Node7 -->
<g id="node4" class="node">
<title>Node7</title>
<g id="a_node4"><a xlink:href="../../db/d34/RawDataChecker_8cxx.html" target="_top" xlink:title="Class to check the raw data. ">
<polygon fill="none" stroke="#000000" points="0,-.5 0,-52.5 140,-52.5 140,-.5 0,-.5"/>
<text text-anchor="start" x="8" y="-40.5" font-family="Helvetica,sans-Serif" font-size="10.00" fill="#000000">/home/travis/build</text>
<text text-anchor="start" x="8" y="-29.5" font-family="Helvetica,sans-Serif" font-size="10.00" fill="#000000">/AliceO2Group/AliceO2</text>
<text text-anchor="start" x="8" y="-18.5" font-family="Helvetica,sans-Serif" font-size="10.00" fill="#000000">/Detectors/MUON/MID/QC</text>
<text text-anchor="middle" x="70" y="-7.5" font-family="Helvetica,sans-Serif" font-size="10.00" fill="#000000">/src/RawDataChecker.cxx</text>
</a>
</g>
</g>
<!-- Node6&#45;&gt;Node7 -->
<g id="edge4" class="edge">
<title>Node6&#45;&gt;Node7</title>
<path fill="none" stroke="#191970" d="M172.5795,-84.2821C154.1629,-73.9082 133.864,-62.4741 116.2179,-52.5341"/>
<polygon fill="#191970" stroke="#191970" points="171.0188,-87.42 181.4494,-89.2784 174.4543,-81.321 171.0188,-87.42"/>
</g>
<!-- Node8&#45;&gt;Node5 -->
<g id="edge6" class="edge">
<title>Node8&#45;&gt;Node5</title>
<path fill="none" stroke="#191970" d="M468.3629,-95.6544C420.7224,-84.0697 360.2782,-68.6801 307,-53 304.0857,-52.1423 301.1179,-51.247 298.125,-50.326"/>
<polygon fill="#191970" stroke="#191970" points="467.7844,-99.1154 478.3273,-98.0674 469.432,-92.312 467.7844,-99.1154"/>
</g>
<!-- Node9 -->
<g id="node6" class="node">
<title>Node9</title>
<g id="a_node6"><a xlink:href="../../d8/d6c/MID_2Raw_2exe_2rawdump_8cxx.html" target="_top" xlink:title="Raw data dumper for MID. ">
<polygon fill="none" stroke="#000000" points="480,-.5 480,-52.5 626,-52.5 626,-.5 480,-.5"/>
<text text-anchor="start" x="488" y="-40.5" font-family="Helvetica,sans-Serif" font-size="10.00" fill="#000000">/home/travis/build</text>
<text text-anchor="start" x="488" y="-29.5" font-family="Helvetica,sans-Serif" font-size="10.00" fill="#000000">/AliceO2Group/AliceO2</text>
<text text-anchor="start" x="488" y="-18.5" font-family="Helvetica,sans-Serif" font-size="10.00" fill="#000000">/Detectors/MUON/MID/Raw</text>
<text text-anchor="middle" x="553" y="-7.5" font-family="Helvetica,sans-Serif" font-size="10.00" fill="#000000">/exe/rawdump.cxx</text>
</a>
</g>
</g>
<!-- Node8&#45;&gt;Node9 -->
<g id="edge7" class="edge">
<title>Node8&#45;&gt;Node9</title>
<path fill="none" stroke="#191970" d="M553,-79.1155C553,-70.2061 553,-60.8475 553,-52.5341"/>
<polygon fill="#191970" stroke="#191970" points="549.5001,-79.2784 553,-89.2784 556.5001,-79.2785 549.5001,-79.2784"/>
</g>
<!-- Node10 -->
<g id="node7" class="node">
<title>Node10</title>
<g id="a_node7"><a xlink:href="../../dc/d28/MUON_2MID_2Raw_2src_2Decoder_8cxx.html" target="_top" xlink:title="MID raw data decoder. ">
<polygon fill="none" stroke="#000000" points="644,-.5 644,-52.5 790,-52.5 790,-.5 644,-.5"/>
<text text-anchor="start" x="652" y="-40.5" font-family="Helvetica,sans-Serif" font-size="10.00" fill="#000000">/home/travis/build</text>
<text text-anchor="start" x="652" y="-29.5" font-family="Helvetica,sans-Serif" font-size="10.00" fill="#000000">/AliceO2Group/AliceO2</text>
<text text-anchor="start" x="652" y="-18.5" font-family="Helvetica,sans-Serif" font-size="10.00" fill="#000000">/Detectors/MUON/MID/Raw</text>
<text text-anchor="middle" x="717" y="-7.5" font-family="Helvetica,sans-Serif" font-size="10.00" fill="#000000">/src/Decoder.cxx</text>
</a>
</g>
</g>
<!-- Node8&#45;&gt;Node10 -->
<g id="edge8" class="edge">
<title>Node8&#45;&gt;Node10</title>
<path fill="none" stroke="#191970" d="M610.2645,-84.4235C629.4495,-74.0122 650.6275,-62.5192 669.027,-52.5341"/>
<polygon fill="#191970" stroke="#191970" points="608.4382,-81.4324 601.3184,-89.2784 611.777,-87.5849 608.4382,-81.4324"/>
</g>
<!-- Node11 -->
<g id="node8" class="node">
<title>Node11</title>
<g id="a_node8"><a xlink:href="../../d5/d52/bench__Raw_8cxx.html" target="_top" xlink:title="Benchmark MID raw data decoder. ">
<polygon fill="none" stroke="#000000" points="808,-.5 808,-52.5 954,-52.5 954,-.5 808,-.5"/>
<text text-anchor="start" x="816" y="-40.5" font-family="Helvetica,sans-Serif" font-size="10.00" fill="#000000">/home/travis/build</text>
<text text-anchor="start" x="816" y="-29.5" font-family="Helvetica,sans-Serif" font-size="10.00" fill="#000000">/AliceO2Group/AliceO2</text>
<text text-anchor="start" x="816" y="-18.5" font-family="Helvetica,sans-Serif" font-size="10.00" fill="#000000">/Detectors/MUON/MID/Raw</text>
<text text-anchor="middle" x="881" y="-7.5" font-family="Helvetica,sans-Serif" font-size="10.00" fill="#000000">/test/bench_Raw.cxx</text>
</a>
</g>
</g>
<!-- Node8&#45;&gt;Node11 -->
<g id="edge9" class="edge">
<title>Node8&#45;&gt;Node11</title>
<path fill="none" stroke="#191970" d="M637.7414,-89.868C638.8336,-89.5747 639.9202,-89.2853 641,-89 710.6334,-70.6056 729.5548,-72.0925 799,-53 801.8852,-52.2068 804.82,-51.3758 807.7792,-50.5177"/>
<polygon fill="#191970" stroke="#191970" points="636.5113,-86.576 627.7935,-92.5969 638.3632,-93.3266 636.5113,-86.576"/>
</g>
<!-- Node12 -->
<g id="node9" class="node">
<title>Node12</title>
<g id="a_node9"><a xlink:href="../../d8/d4c/testRaw_8cxx.html" target="_top" xlink:title="Test MID raw data decoder. ">
<polygon fill="none" stroke="#000000" points="316,-.5 316,-52.5 462,-52.5 462,-.5 316,-.5"/>
<text text-anchor="start" x="324" y="-40.5" font-family="Helvetica,sans-Serif" font-size="10.00" fill="#000000">/home/travis/build</text>
<text text-anchor="start" x="324" y="-29.5" font-family="Helvetica,sans-Serif" font-size="10.00" fill="#000000">/AliceO2Group/AliceO2</text>
<text text-anchor="start" x="324" y="-18.5" font-family="Helvetica,sans-Serif" font-size="10.00" fill="#000000">/Detectors/MUON/MID/Raw</text>
<text text-anchor="middle" x="389" y="-7.5" font-family="Helvetica,sans-Serif" font-size="10.00" fill="#000000">/test/testRaw.cxx</text>
</a>
</g>
</g>
<!-- Node8&#45;&gt;Node12 -->
<g id="edge10" class="edge">
<title>Node8&#45;&gt;Node12</title>
<path fill="none" stroke="#191970" d="M495.7355,-84.4235C476.5505,-74.0122 455.3725,-62.5192 436.973,-52.5341"/>
<polygon fill="#191970" stroke="#191970" points="494.223,-87.5849 504.6816,-89.2784 497.5618,-81.4324 494.223,-87.5849"/>
</g>
<!-- Node8&#45;&gt;Node13 -->
<g id="edge11" class="edge">
<title>Node8&#45;&gt;Node13</title>
<path fill="none" stroke="#191970" d="M637.7007,-89.6941C638.8057,-89.4555 639.9058,-89.224 641,-89 782.0771,-60.1203 821.6726,-80.629 963,-53 965.9121,-52.4307 968.8653,-51.8154 971.8404,-51.163"/>
<polygon fill="#191970" stroke="#191970" points="636.6128,-86.3531 627.657,-92.0138 638.1881,-93.1736 636.6128,-86.3531"/>
</g>
</g>
</svg>
