<?xml version="1.0" encoding="UTF-8" standalone="no"?>
<!DOCTYPE svg PUBLIC "-//W3C//DTD SVG 1.1//EN"
 "http://www.w3.org/Graphics/SVG/1.1/DTD/svg11.dtd">
<!-- Generated by graphviz version 2.40.1 (20161225.0304)
 -->
<!-- Title: /home/travis/build/AliceO2Group/AliceO2/Framework/Core/include/Framework/InputRecordWalker.h Pages: 1 -->
<svg width="2045pt" height="161pt"
 viewBox="0.00 0.00 2045.00 161.00" xmlns="http://www.w3.org/2000/svg" xmlns:xlink="http://www.w3.org/1999/xlink">
<g id="graph0" class="graph" transform="scale(1 1) rotate(0) translate(4 157)">
<title>/home/travis/build/AliceO2Group/AliceO2/Framework/Core/include/Framework/InputRecordWalker.h</title>
<!-- Node85 -->
<g id="node1" class="node">
<title>Node85</title>
<polygon fill="#bfbfbf" stroke="#000000" points="971.5,-100.5 971.5,-152.5 1147.5,-152.5 1147.5,-100.5 971.5,-100.5"/>
<text text-anchor="start" x="979.5" y="-140.5" font-family="Helvetica,sans-Serif" font-size="10.00" fill="#000000">/home/travis/build</text>
<text text-anchor="start" x="979.5" y="-129.5" font-family="Helvetica,sans-Serif" font-size="10.00" fill="#000000">/AliceO2Group/AliceO2</text>
<text text-anchor="start" x="979.5" y="-118.5" font-family="Helvetica,sans-Serif" font-size="10.00" fill="#000000">/Framework/Core/include</text>
<text text-anchor="middle" x="1059.5" y="-107.5" font-family="Helvetica,sans-Serif" font-size="10.00" fill="#000000">/Framework/InputRecordWalker.h</text>
</g>
<!-- Node86 -->
<g id="node2" class="node">
<title>Node86</title>
<g id="a_node2"><a xlink:href="../../d6/d73/TPCITSMatchingSpec_8cxx.html" target="_top" xlink:title="/home/travis/build\l/AliceO2Group/AliceO2\l/Detectors/GlobalTrackingWorkflow\l/src/TPCITSMatchingSpec.cxx">
<polygon fill="none" stroke="#000000" points="0,-6 0,-58 187,-58 187,-6 0,-6"/>
<text text-anchor="start" x="8" y="-46" font-family="Helvetica,sans-Serif" font-size="10.00" fill="#000000">/home/travis/build</text>
<text text-anchor="start" x="8" y="-35" font-family="Helvetica,sans-Serif" font-size="10.00" fill="#000000">/AliceO2Group/AliceO2</text>
<text text-anchor="start" x="8" y="-24" font-family="Helvetica,sans-Serif" font-size="10.00" fill="#000000">/Detectors/GlobalTrackingWorkflow</text>
<text text-anchor="middle" x="93.5" y="-13" font-family="Helvetica,sans-Serif" font-size="10.00" fill="#000000">/src/TPCITSMatchingSpec.cxx</text>
</a>
</g>
</g>
<!-- Node85&#45;&gt;Node86 -->
<g id="edge1" class="edge">
<title>Node85&#45;&gt;Node86</title>
<path fill="none" stroke="#191970" d="M961.0127,-122.2508C766.5732,-113.3885 339.7349,-91.4561 195.5,-64 187.1133,-62.4035 178.4472,-60.3476 169.873,-58.0488"/>
<polygon fill="#191970" stroke="#191970" points="961.0753,-125.7572 971.2237,-122.7139 961.3926,-118.7644 961.0753,-125.7572"/>
</g>
<!-- Node87 -->
<g id="node3" class="node">
<title>Node87</title>
<g id="a_node3"><a xlink:href="../../d8/d85/TPCInterpolationSpec_8cxx.html" target="_top" xlink:title="/home/travis/build\l/AliceO2Group/AliceO2\l/Detectors/GlobalTrackingWorkflow\l/tpcinterpolationworkflow/src\l/TPCInterpolationSpec.cxx">
<polygon fill="none" stroke="#000000" points="205,-.5 205,-63.5 392,-63.5 392,-.5 205,-.5"/>
<text text-anchor="start" x="213" y="-51.5" font-family="Helvetica,sans-Serif" font-size="10.00" fill="#000000">/home/travis/build</text>
<text text-anchor="start" x="213" y="-40.5" font-family="Helvetica,sans-Serif" font-size="10.00" fill="#000000">/AliceO2Group/AliceO2</text>
<text text-anchor="start" x="213" y="-29.5" font-family="Helvetica,sans-Serif" font-size="10.00" fill="#000000">/Detectors/GlobalTrackingWorkflow</text>
<text text-anchor="start" x="213" y="-18.5" font-family="Helvetica,sans-Serif" font-size="10.00" fill="#000000">/tpcinterpolationworkflow/src</text>
<text text-anchor="middle" x="298.5" y="-7.5" font-family="Helvetica,sans-Serif" font-size="10.00" fill="#000000">/TPCInterpolationSpec.cxx</text>
</a>
</g>
</g>
<!-- Node85&#45;&gt;Node87 -->
<g id="edge2" class="edge">
<title>Node85&#45;&gt;Node87</title>
<path fill="none" stroke="#191970" d="M961.0987,-123.4836C831.6449,-118.0775 597.5812,-103.332 401.5,-64 398.3789,-63.3739 395.2181,-62.6899 392.0367,-61.9584"/>
<polygon fill="#191970" stroke="#191970" points="961.2488,-126.9925 971.383,-123.9025 961.5338,-119.9983 961.2488,-126.9925"/>
</g>
<!-- Node88 -->
<g id="node4" class="node">
<title>Node88</title>
<g id="a_node4"><a xlink:href="../../da/d78/CATrackerSpec_8cxx.html" target="_top" xlink:title="Processor spec for running TPC CA tracking. ">
<polygon fill="none" stroke="#000000" points="410.5,-6 410.5,-58 546.5,-58 546.5,-6 410.5,-6"/>
<text text-anchor="start" x="418.5" y="-46" font-family="Helvetica,sans-Serif" font-size="10.00" fill="#000000">/home/travis/build</text>
<text text-anchor="start" x="418.5" y="-35" font-family="Helvetica,sans-Serif" font-size="10.00" fill="#000000">/AliceO2Group/AliceO2</text>
<text text-anchor="start" x="418.5" y="-24" font-family="Helvetica,sans-Serif" font-size="10.00" fill="#000000">/Detectors/TPC/workflow</text>
<text text-anchor="middle" x="478.5" y="-13" font-family="Helvetica,sans-Serif" font-size="10.00" fill="#000000">/src/CATrackerSpec.cxx</text>
</a>
</g>
</g>
<!-- Node85&#45;&gt;Node88 -->
<g id="edge3" class="edge">
<title>Node85&#45;&gt;Node88</title>
<path fill="none" stroke="#191970" d="M961.1315,-122.1677C858.4489,-115.8286 693.4662,-100.4987 555.5,-64 549.3422,-62.371 543.0264,-60.3566 536.789,-58.1375"/>
<polygon fill="#191970" stroke="#191970" points="960.9869,-125.6652 971.1789,-122.7715 961.4069,-118.6778 960.9869,-125.6652"/>
</g>
<!-- Node89 -->
<g id="node5" class="node">
<title>Node89</title>
<g id="a_node5"><a xlink:href="../../d9/d7b/ClusterDecoderRawSpec_8cxx.html" target="_top" xlink:title="Processor spec for decoder of TPC raw cluster data. ">
<polygon fill="none" stroke="#000000" points="564.5,-6 564.5,-58 740.5,-58 740.5,-6 564.5,-6"/>
<text text-anchor="start" x="572.5" y="-46" font-family="Helvetica,sans-Serif" font-size="10.00" fill="#000000">/home/travis/build</text>
<text text-anchor="start" x="572.5" y="-35" font-family="Helvetica,sans-Serif" font-size="10.00" fill="#000000">/AliceO2Group/AliceO2</text>
<text text-anchor="start" x="572.5" y="-24" font-family="Helvetica,sans-Serif" font-size="10.00" fill="#000000">/Detectors/TPC/workflow</text>
<text text-anchor="middle" x="652.5" y="-13" font-family="Helvetica,sans-Serif" font-size="10.00" fill="#000000">/src/ClusterDecoderRawSpec.cxx</text>
</a>
</g>
</g>
<!-- Node85&#45;&gt;Node89 -->
<g id="edge4" class="edge">
<title>Node85&#45;&gt;Node89</title>
<path fill="none" stroke="#191970" d="M961.2738,-109.8052C899.9623,-98.619 819.6339,-82.5671 749.5,-64 742.643,-62.1847 735.5607,-60.1554 728.4908,-58.0234"/>
<polygon fill="#191970" stroke="#191970" points="960.8677,-113.2885 971.3315,-111.6278 962.1159,-106.4007 960.8677,-113.2885"/>
</g>
<!-- Node90 -->
<g id="node6" class="node">
<title>Node90</title>
<g id="a_node6"><a xlink:href="../../d5/d17/TPC_2workflow_2src_2ClustererSpec_8cxx.html" target="_top" xlink:title="/home/travis/build\l/AliceO2Group/AliceO2\l/Detectors/TPC/workflow\l/src/ClustererSpec.cxx">
<polygon fill="none" stroke="#000000" points="758.5,-6 758.5,-58 894.5,-58 894.5,-6 758.5,-6"/>
<text text-anchor="start" x="766.5" y="-46" font-family="Helvetica,sans-Serif" font-size="10.00" fill="#000000">/home/travis/build</text>
<text text-anchor="start" x="766.5" y="-35" font-family="Helvetica,sans-Serif" font-size="10.00" fill="#000000">/AliceO2Group/AliceO2</text>
<text text-anchor="start" x="766.5" y="-24" font-family="Helvetica,sans-Serif" font-size="10.00" fill="#000000">/Detectors/TPC/workflow</text>
<text text-anchor="middle" x="826.5" y="-13" font-family="Helvetica,sans-Serif" font-size="10.00" fill="#000000">/src/ClustererSpec.cxx</text>
</a>
</g>
</g>
<!-- Node85&#45;&gt;Node90 -->
<g id="edge5" class="edge">
<title>Node85&#45;&gt;Node90</title>
<path fill="none" stroke="#191970" d="M984.456,-96.66C958.7561,-86.3809 929.8443,-74.7509 903.5,-64 898.8088,-62.0856 893.9611,-60.0965 889.0873,-58.0889"/>
<polygon fill="#191970" stroke="#191970" points="983.1836,-99.9206 993.7684,-100.3818 985.7815,-93.4205 983.1836,-99.9206"/>
</g>
<!-- Node91 -->
<g id="node7" class="node">
<title>Node91</title>
<g id="a_node7"><a xlink:href="../../d2/dbc/ZSSpec_8cxx.html" target="_top" xlink:title="/home/travis/build\l/AliceO2Group/AliceO2\l/Detectors/TPC/workflow\l/src/ZSSpec.cxx">
<polygon fill="none" stroke="#000000" points="912.5,-6 912.5,-58 1048.5,-58 1048.5,-6 912.5,-6"/>
<text text-anchor="start" x="920.5" y="-46" font-family="Helvetica,sans-Serif" font-size="10.00" fill="#000000">/home/travis/build</text>
<text text-anchor="start" x="920.5" y="-35" font-family="Helvetica,sans-Serif" font-size="10.00" fill="#000000">/AliceO2Group/AliceO2</text>
<text text-anchor="start" x="920.5" y="-24" font-family="Helvetica,sans-Serif" font-size="10.00" fill="#000000">/Detectors/TPC/workflow</text>
<text text-anchor="middle" x="980.5" y="-13" font-family="Helvetica,sans-Serif" font-size="10.00" fill="#000000">/src/ZSSpec.cxx</text>
</a>
</g>
</g>
<!-- Node85&#45;&gt;Node91 -->
<g id="edge6" class="edge">
<title>Node85&#45;&gt;Node91</title>
<path fill="none" stroke="#191970" d="M1031.0528,-92.4714C1021.6517,-81.2258 1011.3422,-68.8935 1002.4993,-58.3157"/>
<polygon fill="#191970" stroke="#191970" points="1028.6046,-94.9999 1037.7038,-100.4273 1033.9752,-90.5102 1028.6046,-94.9999"/>
</g>
<!-- Node92 -->
<g id="node8" class="node">
<title>Node92</title>
<g id="a_node8"><a xlink:href="../../dc/d05/test__InputRecordWalker_8cxx.html" target="_top" xlink:title="/home/travis/build\l/AliceO2Group/AliceO2\l/Framework/Core/test/test\l_InputRecordWalker.cxx">
<polygon fill="none" stroke="#000000" points="1067,-6 1067,-58 1210,-58 1210,-6 1067,-6"/>
<text text-anchor="start" x="1075" y="-46" font-family="Helvetica,sans-Serif" font-size="10.00" fill="#000000">/home/travis/build</text>
<text text-anchor="start" x="1075" y="-35" font-family="Helvetica,sans-Serif" font-size="10.00" fill="#000000">/AliceO2Group/AliceO2</text>
<text text-anchor="start" x="1075" y="-24" font-family="Helvetica,sans-Serif" font-size="10.00" fill="#000000">/Framework/Core/test/test</text>
<text text-anchor="middle" x="1138.5" y="-13" font-family="Helvetica,sans-Serif" font-size="10.00" fill="#000000">_InputRecordWalker.cxx</text>
</a>
</g>
</g>
<!-- Node85&#45;&gt;Node92 -->
<g id="edge7" class="edge">
<title>Node85&#45;&gt;Node92</title>
<path fill="none" stroke="#191970" d="M1087.9472,-92.4714C1097.3483,-81.2258 1107.6578,-68.8935 1116.5007,-58.3157"/>
<polygon fill="#191970" stroke="#191970" points="1085.0248,-90.5102 1081.2962,-100.4273 1090.3954,-94.9999 1085.0248,-90.5102"/>
</g>
<!-- Node93 -->
<g id="node9" class="node">
<title>Node93</title>
<g id="a_node9"><a xlink:href="../../d1/d02/test__RootTreeWriterWorkflow_8cxx.html" target="_top" xlink:title="/home/travis/build\l/AliceO2Group/AliceO2\l/Framework/Utils/test\l/test_RootTreeWriterWorkflow.cxx">
<polygon fill="none" stroke="#000000" points="1228,-6 1228,-58 1407,-58 1407,-6 1228,-6"/>
<text text-anchor="start" x="1236" y="-46" font-family="Helvetica,sans-Serif" font-size="10.00" fill="#000000">/home/travis/build</text>
<text text-anchor="start" x="1236" y="-35" font-family="Helvetica,sans-Serif" font-size="10.00" fill="#000000">/AliceO2Group/AliceO2</text>
<text text-anchor="start" x="1236" y="-24" font-family="Helvetica,sans-Serif" font-size="10.00" fill="#000000">/Framework/Utils/test</text>
<text text-anchor="middle" x="1317.5" y="-13" font-family="Helvetica,sans-Serif" font-size="10.00" fill="#000000">/test_RootTreeWriterWorkflow.cxx</text>
</a>
</g>
</g>
<!-- Node85&#45;&gt;Node93 -->
<g id="edge8" class="edge">
<title>Node85&#45;&gt;Node93</title>
<path fill="none" stroke="#191970" d="M1140.1077,-96.9751C1174.0492,-84.543 1213.218,-70.1963 1246.1023,-58.1515"/>
<polygon fill="#191970" stroke="#191970" points="1138.8688,-93.7014 1130.6826,-100.4273 1141.2763,-100.2744 1138.8688,-93.7014"/>
</g>
<!-- Node94 -->
<g id="node10" class="node">
<title>Node94</title>
<g id="a_node10"><a xlink:href="../../d8/dd2/TPCDigitRootWriterSpec_8cxx.html" target="_top" xlink:title="/home/travis/build\l/AliceO2Group/AliceO2\l/Steer/DigitizerWorkflow\l/src/TPCDigitRootWriterSpec.cxx">
<polygon fill="none" stroke="#000000" points="1425,-6 1425,-58 1598,-58 1598,-6 1425,-6"/>
<text text-anchor="start" x="1433" y="-46" font-family="Helvetica,sans-Serif" font-size="10.00" fill="#000000">/home/travis/build</text>
<text text-anchor="start" x="1433" y="-35" font-family="Helvetica,sans-Serif" font-size="10.00" fill="#000000">/AliceO2Group/AliceO2</text>
<text text-anchor="start" x="1433" y="-24" font-family="Helvetica,sans-Serif" font-size="10.00" fill="#000000">/Steer/DigitizerWorkflow</text>
<text text-anchor="middle" x="1511.5" y="-13" font-family="Helvetica,sans-Serif" font-size="10.00" fill="#000000">/src/TPCDigitRootWriterSpec.cxx</text>
</a>
</g>
</g>
<!-- Node85&#45;&gt;Node94 -->
<g id="edge9" class="edge">
<title>Node85&#45;&gt;Node94</title>
<path fill="none" stroke="#191970" d="M1157.5787,-113.4229C1229.7804,-102.8082 1330.0132,-86.0017 1416.5,-64 1423.4152,-62.2408 1430.5522,-60.2243 1437.6624,-58.0781"/>
<polygon fill="#191970" stroke="#191970" points="1156.972,-109.9743 1147.5811,-114.8795 1157.9813,-116.9012 1156.972,-109.9743"/>
</g>
<!-- Node95 -->
<g id="node11" class="node">
<title>Node95</title>
<g id="a_node11"><a xlink:href="../../d1/dca/Dispatcher_8cxx.html" target="_top" xlink:title="Implementation of Dispatcher for O2 Data Sampling. ">
<polygon fill="none" stroke="#000000" points="1616.5,-6 1616.5,-58 1746.5,-58 1746.5,-6 1616.5,-6"/>
<text text-anchor="start" x="1624.5" y="-46" font-family="Helvetica,sans-Serif" font-size="10.00" fill="#000000">/home/travis/build</text>
<text text-anchor="start" x="1624.5" y="-35" font-family="Helvetica,sans-Serif" font-size="10.00" fill="#000000">/AliceO2Group/AliceO2</text>
<text text-anchor="start" x="1624.5" y="-24" font-family="Helvetica,sans-Serif" font-size="10.00" fill="#000000">/Utilities/DataSampling</text>
<text text-anchor="middle" x="1681.5" y="-13" font-family="Helvetica,sans-Serif" font-size="10.00" fill="#000000">/src/Dispatcher.cxx</text>
</a>
</g>
</g>
<!-- Node85&#45;&gt;Node95 -->
<g id="edge10" class="edge">
<title>Node85&#45;&gt;Node95</title>
<path fill="none" stroke="#191970" d="M1157.9388,-118.7712C1292.1012,-107.6366 1525.1097,-85.993 1607.5,-64 1613.5856,-62.3755 1619.8182,-60.3334 1625.9582,-58.0706"/>
<polygon fill="#191970" stroke="#191970" points="1157.3369,-115.3089 1147.6588,-119.6198 1157.9129,-122.2851 1157.3369,-115.3089"/>
</g>
<!-- Node96 -->
<g id="node12" class="node">
<title>Node96</title>
<g id="a_node12"><a xlink:href="../../db/d51/FullHistoryMerger_8cxx.html" target="_top" xlink:title="Implementation of O2 Mergers, v0.1. ">
<polygon fill="none" stroke="#000000" points="1765,-6 1765,-58 1892,-58 1892,-6 1765,-6"/>
<text text-anchor="start" x="1773" y="-46" font-family="Helvetica,sans-Serif" font-size="10.00" fill="#000000">/home/travis/build</text>
<text text-anchor="start" x="1773" y="-35" font-family="Helvetica,sans-Serif" font-size="10.00" fill="#000000">/AliceO2Group/AliceO2</text>
<text text-anchor="start" x="1773" y="-24" font-family="Helvetica,sans-Serif" font-size="10.00" fill="#000000">/Utilities/Mergers/src</text>
<text text-anchor="middle" x="1828.5" y="-13" font-family="Helvetica,sans-Serif" font-size="10.00" fill="#000000">/FullHistoryMerger.cxx</text>
</a>
</g>
</g>
<!-- Node85&#45;&gt;Node96 -->
<g id="edge11" class="edge">
<title>Node85&#45;&gt;Node96</title>
<path fill="none" stroke="#191970" d="M1157.8315,-121.5911C1322.0898,-112.7346 1645.15,-92.335 1755.5,-64 1761.6654,-62.4169 1767.9721,-60.3695 1774.1702,-58.0758"/>
<polygon fill="#191970" stroke="#191970" points="1157.525,-118.1024 1147.7265,-122.1321 1157.8993,-125.0923 1157.525,-118.1024"/>
</g>
<!-- Node97 -->
<g id="node13" class="node">
<title>Node97</title>
<g id="a_node13"><a xlink:href="../../d0/d24/IntegratingMerger_8cxx.html" target="_top" xlink:title="Implementation of O2 Mergers, v0.1. ">
<polygon fill="none" stroke="#000000" points="1910,-6 1910,-58 2037,-58 2037,-6 1910,-6"/>
<text text-anchor="start" x="1918" y="-46" font-family="Helvetica,sans-Serif" font-size="10.00" fill="#000000">/home/travis/build</text>
<text text-anchor="start" x="1918" y="-35" font-family="Helvetica,sans-Serif" font-size="10.00" fill="#000000">/AliceO2Group/AliceO2</text>
<text text-anchor="start" x="1918" y="-24" font-family="Helvetica,sans-Serif" font-size="10.00" fill="#000000">/Utilities/Mergers/src</text>
<text text-anchor="middle" x="1973.5" y="-13" font-family="Helvetica,sans-Serif" font-size="10.00" fill="#000000">/IntegratingMerger.cxx</text>
</a>
</g>
</g>
<!-- Node85&#45;&gt;Node97 -->
<g id="edge12" class="edge">
<title>Node85&#45;&gt;Node97</title>
<path fill="none" stroke="#191970" d="M1157.5779,-123.4408C1348.4273,-116.7941 1763.1443,-98.7624 1901.5,-64 1907.7353,-62.4334 1914.108,-60.3633 1920.3574,-58.0276"/>
<polygon fill="#191970" stroke="#191970" points="1157.4247,-119.9439 1147.5514,-123.7867 1157.6661,-126.9398 1157.4247,-119.9439"/>
</g>
</g>
</svg>
