<?xml version="1.0" encoding="UTF-8" standalone="no"?>
<!DOCTYPE svg PUBLIC "-//W3C//DTD SVG 1.1//EN"
 "http://www.w3.org/Graphics/SVG/1.1/DTD/svg11.dtd">
<!-- Generated by graphviz version 2.40.1 (20161225.0304)
 -->
<!-- Title: o2::analysis::SimpleInclusiveCut Pages: 1 -->
<svg width="191pt" height="215pt"
 viewBox="0.00 0.00 190.50 215.00" xmlns="http://www.w3.org/2000/svg" xmlns:xlink="http://www.w3.org/1999/xlink">
<g id="graph0" class="graph" transform="scale(1 1) rotate(0) translate(4 211)">
<title>o2::analysis::SimpleInclusiveCut</title>
<!-- Node2 -->
<g id="node1" class="node">
<title>Node2</title>
<polygon fill="#bfbfbf" stroke="#000000" points="7.5,-.5 7.5,-101.5 182.5,-101.5 182.5,-.5 7.5,-.5"/>
<text text-anchor="middle" x="95" y="-89.5" font-family="Helvetica,sans-Serif" font-size="10.00" fill="#000000">o2::analysis::SimpleInclusiveCut</text>
<polyline fill="none" stroke="#000000" points="7.5,-82.5 182.5,-82.5 "/>
<text text-anchor="middle" x="95" y="-70.5" font-family="Helvetica,sans-Serif" font-size="10.00" fill="#000000"> </text>
<polyline fill="none" stroke="#000000" points="7.5,-63.5 182.5,-63.5 "/>
<text text-anchor="start" x="15.5" y="-51.5" font-family="Helvetica,sans-Serif" font-size="10.00" fill="#000000">+ SimpleInclusiveCut()</text>
<text text-anchor="start" x="15.5" y="-40.5" font-family="Helvetica,sans-Serif" font-size="10.00" fill="#000000">+ SimpleInclusiveCut()</text>
<text text-anchor="start" x="15.5" y="-29.5" font-family="Helvetica,sans-Serif" font-size="10.00" fill="#000000">+ SimpleInclusiveCut()</text>
<text text-anchor="start" x="15.5" y="-18.5" font-family="Helvetica,sans-Serif" font-size="10.00" fill="#000000">+ ~SimpleInclusiveCut()</text>
<text text-anchor="start" x="15.5" y="-7.5" font-family="Helvetica,sans-Serif" font-size="10.00" fill="#000000">+ operator=()</text>
</g>
<!-- Node3 -->
<g id="node2" class="node">
<title>Node3</title>
<polygon fill="none" stroke="#bfbfbf" points="0,-149.5 0,-206.5 58,-206.5 58,-149.5 0,-149.5"/>
<text text-anchor="middle" x="29" y="-194.5" font-family="Helvetica,sans-Serif" font-size="10.00" fill="#000000">TNamed</text>
<polyline fill="none" stroke="#bfbfbf" points="0,-187.5 58,-187.5 "/>
<text text-anchor="middle" x="29" y="-175.5" font-family="Helvetica,sans-Serif" font-size="10.00" fill="#000000"> </text>
<polyline fill="none" stroke="#bfbfbf" points="0,-168.5 58,-168.5 "/>
<text text-anchor="middle" x="29" y="-156.5" font-family="Helvetica,sans-Serif" font-size="10.00" fill="#000000"> </text>
</g>
<!-- Node3&#45;&gt;Node2 -->
<g id="edge1" class="edge">
<title>Node3&#45;&gt;Node2</title>
<path fill="none" stroke="#191970" d="M48.4776,-140.5204C54.8097,-128.3358 61.945,-114.6058 68.6909,-101.625"/>
<polygon fill="none" stroke="#191970" points="45.3174,-139.0114 43.8117,-149.4987 51.5287,-142.2394 45.3174,-139.0114"/>
</g>
<!-- Node4 -->
<g id="node3" class="node">
<title>Node4</title>
<g id="a_node3"><a xlink:href="../../d4/dc3/classfloat.html" target="_top" xlink:title="{float\n||}">
<polygon fill="none" stroke="#000000" points="76,-149.5 76,-206.5 114,-206.5 114,-149.5 76,-149.5"/>
<text text-anchor="middle" x="95" y="-194.5" font-family="Helvetica,sans-Serif" font-size="10.00" fill="#000000">float</text>
<polyline fill="none" stroke="#000000" points="76,-187.5 114,-187.5 "/>
<text text-anchor="middle" x="95" y="-175.5" font-family="Helvetica,sans-Serif" font-size="10.00" fill="#000000"> </text>
<polyline fill="none" stroke="#000000" points="76,-168.5 114,-168.5 "/>
<text text-anchor="middle" x="95" y="-156.5" font-family="Helvetica,sans-Serif" font-size="10.00" fill="#000000"> </text>
</a>
</g>
</g>
<!-- Node4&#45;&gt;Node2 -->
<g id="edge2" class="edge">
<title>Node4&#45;&gt;Node2</title>
<path fill="none" stroke="#404040" d="M95,-149.4987C95,-138.9128 95,-126.4397 95,-113.9926"/>
<polygon fill="none" stroke="#404040" points="95.0001,-113.625 91,-107.625 95,-101.625 99,-107.625 95.0001,-113.625"/>
<text text-anchor="middle" x="109" y="-123" font-family="Helvetica,sans-Serif" font-size="10.00" fill="#000000"> +mY</text>
</g>
<!-- Node5 -->
<g id="node4" class="node">
<title>Node5</title>
<polygon fill="none" stroke="#bfbfbf" points="132.5,-149.5 132.5,-206.5 161.5,-206.5 161.5,-149.5 132.5,-149.5"/>
<text text-anchor="middle" x="147" y="-194.5" font-family="Helvetica,sans-Serif" font-size="10.00" fill="#000000">int</text>
<polyline fill="none" stroke="#bfbfbf" points="132.5,-187.5 161.5,-187.5 "/>
<text text-anchor="middle" x="147" y="-175.5" font-family="Helvetica,sans-Serif" font-size="10.00" fill="#000000"> </text>
<polyline fill="none" stroke="#bfbfbf" points="132.5,-168.5 161.5,-168.5 "/>
<text text-anchor="middle" x="147" y="-156.5" font-family="Helvetica,sans-Serif" font-size="10.00" fill="#000000"> </text>
</g>
<!-- Node5&#45;&gt;Node2 -->
<g id="edge3" class="edge">
<title>Node5&#45;&gt;Node2</title>
<path fill="none" stroke="#404040" d="M136.4146,-149.2787C132.8785,-139.9074 128.855,-129.4769 125,-120 124.0579,-117.684 123.089,-115.3287 122.1025,-112.9527"/>
<polygon fill="none" stroke="#404040" points="122.0452,-112.8163 116.0319,-108.8362 117.3929,-101.7547 123.4062,-105.7347 122.0452,-112.8163"/>
<text text-anchor="middle" x="142" y="-123" font-family="Helvetica,sans-Serif" font-size="10.00" fill="#000000"> +mX</text>
</g>
</g>
</svg>
