<?xml version="1.0" encoding="UTF-8" standalone="no"?>
<!DOCTYPE svg PUBLIC "-//W3C//DTD SVG 1.1//EN"
 "http://www.w3.org/Graphics/SVG/1.1/DTD/svg11.dtd">
<!-- Generated by graphviz version 2.40.1 (20161225.0304)
 -->
<!-- Title: o2::cpv::Clusterer Pages: 1 -->
<svg width="886pt" height="391pt"
 viewBox="0.00 0.00 885.50 391.00" xmlns="http://www.w3.org/2000/svg" xmlns:xlink="http://www.w3.org/1999/xlink">
<g id="graph0" class="graph" transform="scale(1 1) rotate(0) translate(4 387)">
<title>o2::cpv::Clusterer</title>
<!-- Node1 -->
<g id="node1" class="node">
<title>Node1</title>
<polygon fill="#bfbfbf" stroke="#000000" points="372.5,-.5 372.5,-167.5 494.5,-167.5 494.5,-.5 372.5,-.5"/>
<text text-anchor="middle" x="433.5" y="-155.5" font-family="Helvetica,sans-Serif" font-size="10.00" fill="#000000">o2::cpv::Clusterer</text>
<polyline fill="none" stroke="#000000" points="372.5,-148.5 494.5,-148.5 "/>
<text text-anchor="middle" x="433.5" y="-136.5" font-family="Helvetica,sans-Serif" font-size="10.00" fill="#000000"> </text>
<polyline fill="none" stroke="#000000" points="372.5,-129.5 494.5,-129.5 "/>
<text text-anchor="start" x="380.5" y="-117.5" font-family="Helvetica,sans-Serif" font-size="10.00" fill="#000000">+ Clusterer()</text>
<text text-anchor="start" x="380.5" y="-106.5" font-family="Helvetica,sans-Serif" font-size="10.00" fill="#000000">+ ~Clusterer()</text>
<text text-anchor="start" x="380.5" y="-95.5" font-family="Helvetica,sans-Serif" font-size="10.00" fill="#000000">+ initialize()</text>
<text text-anchor="start" x="380.5" y="-84.5" font-family="Helvetica,sans-Serif" font-size="10.00" fill="#000000">+ process()</text>
<text text-anchor="start" x="380.5" y="-73.5" font-family="Helvetica,sans-Serif" font-size="10.00" fill="#000000">+ makeClusters()</text>
<text text-anchor="start" x="380.5" y="-62.5" font-family="Helvetica,sans-Serif" font-size="10.00" fill="#000000">+ evalCluProperties()</text>
<text text-anchor="start" x="380.5" y="-51.5" font-family="Helvetica,sans-Serif" font-size="10.00" fill="#000000">+ responseShape()</text>
<text text-anchor="start" x="380.5" y="-40.5" font-family="Helvetica,sans-Serif" font-size="10.00" fill="#000000">+ makeUnfoldings()</text>
<text text-anchor="start" x="380.5" y="-29.5" font-family="Helvetica,sans-Serif" font-size="10.00" fill="#000000">+ unfoldOneCluster()</text>
<text text-anchor="start" x="380.5" y="-18.5" font-family="Helvetica,sans-Serif" font-size="10.00" fill="#000000"># calibrate()</text>
<text text-anchor="start" x="380.5" y="-7.5" font-family="Helvetica,sans-Serif" font-size="10.00" fill="#000000"># isBadChannel()</text>
</g>
<!-- Node2 -->
<g id="node2" class="node">
<title>Node2</title>
<polygon fill="none" stroke="#bfbfbf" points="0,-276 0,-333 161,-333 161,-276 0,-276"/>
<text text-anchor="middle" x="80.5" y="-321" font-family="Helvetica,sans-Serif" font-size="10.00" fill="#000000">vector&lt; o2::cpv::FullCluster &gt;</text>
<polyline fill="none" stroke="#bfbfbf" points="0,-314 161,-314 "/>
<text text-anchor="middle" x="80.5" y="-302" font-family="Helvetica,sans-Serif" font-size="10.00" fill="#000000"> </text>
<polyline fill="none" stroke="#bfbfbf" points="0,-295 161,-295 "/>
<text text-anchor="middle" x="80.5" y="-283" font-family="Helvetica,sans-Serif" font-size="10.00" fill="#000000"> </text>
</g>
<!-- Node2&#45;&gt;Node1 -->
<g id="edge1" class="edge">
<title>Node2&#45;&gt;Node1</title>
<path fill="none" stroke="#404040" d="M99.1132,-275.9455C117.5624,-249.5549 148.0005,-210.7881 182.5,-186 236.7466,-147.0234 308.0471,-119.9019 360.7882,-103.4768"/>
<polygon fill="none" stroke="#404040" points="360.9417,-103.4302 365.5156,-97.8553 372.4208,-99.9332 367.8469,-105.5081 360.9417,-103.4302"/>
<text text-anchor="middle" x="213" y="-194.5" font-family="Helvetica,sans-Serif" font-size="10.00" fill="#000000"> #mClusters</text>
</g>
<!-- Node3 -->
<g id="node3" class="node">
<title>Node3</title>
<g id="a_node3"><a xlink:href="../../dc/d10/classshort.html" target="_top" xlink:title="{short\n||}">
<polygon fill="none" stroke="#000000" points="179,-276 179,-333 220,-333 220,-276 179,-276"/>
<text text-anchor="middle" x="199.5" y="-321" font-family="Helvetica,sans-Serif" font-size="10.00" fill="#000000">short</text>
<polyline fill="none" stroke="#000000" points="179,-314 220,-314 "/>
<text text-anchor="middle" x="199.5" y="-302" font-family="Helvetica,sans-Serif" font-size="10.00" fill="#000000"> </text>
<polyline fill="none" stroke="#000000" points="179,-295 220,-295 "/>
<text text-anchor="middle" x="199.5" y="-283" font-family="Helvetica,sans-Serif" font-size="10.00" fill="#000000"> </text>
</a>
</g>
</g>
<!-- Node3&#45;&gt;Node1 -->
<g id="edge2" class="edge">
<title>Node3&#45;&gt;Node1</title>
<path fill="none" stroke="#404040" d="M206.0464,-275.9597C210.7001,-260.0969 218.1719,-240.6628 229.5,-226 264.5962,-180.5723 318.3048,-144.0123 361.8044,-119.371"/>
<polygon fill="none" stroke="#404040" points="361.8489,-119.3463 365.1525,-112.9365 372.3399,-113.5206 369.0363,-119.9305 361.8489,-119.3463"/>
<text text-anchor="middle" x="293" y="-194.5" font-family="Helvetica,sans-Serif" font-size="10.00" fill="#000000"> #NLMMax</text>
</g>
<!-- Node4 -->
<g id="node4" class="node">
<title>Node4</title>
<polygon fill="none" stroke="#bfbfbf" points="238.5,-270.5 238.5,-338.5 348.5,-338.5 348.5,-270.5 238.5,-270.5"/>
<text text-anchor="start" x="246.5" y="-326.5" font-family="Helvetica,sans-Serif" font-size="10.00" fill="#000000">vector&lt; std::vector</text>
<text text-anchor="middle" x="293.5" y="-315.5" font-family="Helvetica,sans-Serif" font-size="10.00" fill="#000000">&lt; float &gt; &gt;</text>
<polyline fill="none" stroke="#bfbfbf" points="238.5,-308.5 348.5,-308.5 "/>
<text text-anchor="middle" x="293.5" y="-296.5" font-family="Helvetica,sans-Serif" font-size="10.00" fill="#000000"> </text>
<polyline fill="none" stroke="#bfbfbf" points="238.5,-289.5 348.5,-289.5 "/>
<text text-anchor="middle" x="293.5" y="-277.5" font-family="Helvetica,sans-Serif" font-size="10.00" fill="#000000"> </text>
</g>
<!-- Node4&#45;&gt;Node1 -->
<g id="edge3" class="edge">
<title>Node4&#45;&gt;Node1</title>
<path fill="none" stroke="#404040" d="M309.7807,-270.4991C321.765,-246.3655 338.9624,-213.5039 356.5,-186 359.362,-181.5115 362.3639,-176.9685 365.4543,-172.4205"/>
<polygon fill="none" stroke="#404040" points="365.5093,-172.341 365.6368,-165.131 372.3412,-162.4755 372.2137,-169.6855 365.5093,-172.341"/>
<text text-anchor="middle" x="393" y="-200" font-family="Helvetica,sans-Serif" font-size="10.00" fill="#000000"> #mfij</text>
<text text-anchor="middle" x="393" y="-189" font-family="Helvetica,sans-Serif" font-size="10.00" fill="#000000">#meInClusters</text>
</g>
<!-- Node5 -->
<g id="node5" class="node">
<title>Node5</title>
<polygon fill="none" stroke="#bfbfbf" points="366.5,-276 366.5,-333 500.5,-333 500.5,-276 366.5,-276"/>
<text text-anchor="middle" x="433.5" y="-321" font-family="Helvetica,sans-Serif" font-size="10.00" fill="#000000">vector&lt; o2::cpv::Digit &gt;</text>
<polyline fill="none" stroke="#bfbfbf" points="366.5,-314 500.5,-314 "/>
<text text-anchor="middle" x="433.5" y="-302" font-family="Helvetica,sans-Serif" font-size="10.00" fill="#000000"> </text>
<polyline fill="none" stroke="#bfbfbf" points="366.5,-295 500.5,-295 "/>
<text text-anchor="middle" x="433.5" y="-283" font-family="Helvetica,sans-Serif" font-size="10.00" fill="#000000"> </text>
</g>
<!-- Node5&#45;&gt;Node1 -->
<g id="edge4" class="edge">
<title>Node5&#45;&gt;Node1</title>
<path fill="none" stroke="#404040" d="M433.5,-275.6735C433.5,-251.1337 433.5,-214.4339 433.5,-179.6961"/>
<polygon fill="none" stroke="#404040" points="433.5001,-179.5139 429.5,-173.5139 433.5,-167.5139 437.5,-173.5138 433.5001,-179.5139"/>
<text text-anchor="middle" x="458.5" y="-194.5" font-family="Helvetica,sans-Serif" font-size="10.00" fill="#000000"> #mDigits</text>
</g>
<!-- Node6 -->
<g id="node6" class="node">
<title>Node6</title>
<polygon fill="none" stroke="#bfbfbf" points="519,-276 519,-333 548,-333 548,-276 519,-276"/>
<text text-anchor="middle" x="533.5" y="-321" font-family="Helvetica,sans-Serif" font-size="10.00" fill="#000000">int</text>
<polyline fill="none" stroke="#bfbfbf" points="519,-314 548,-314 "/>
<text text-anchor="middle" x="533.5" y="-302" font-family="Helvetica,sans-Serif" font-size="10.00" fill="#000000"> </text>
<polyline fill="none" stroke="#bfbfbf" points="519,-295 548,-295 "/>
<text text-anchor="middle" x="533.5" y="-283" font-family="Helvetica,sans-Serif" font-size="10.00" fill="#000000"> </text>
</g>
<!-- Node6&#45;&gt;Node1 -->
<g id="edge5" class="edge">
<title>Node6&#45;&gt;Node1</title>
<path fill="none" stroke="#404040" d="M526.1438,-275.6879C521.939,-260.6347 516.1754,-242.0539 509.5,-226 502.9579,-210.2668 495.2241,-193.9778 487.2366,-178.2891"/>
<polygon fill="none" stroke="#404040" points="487.1891,-178.1973 480.8802,-174.7047 481.6777,-167.5378 487.9866,-171.0304 487.1891,-178.1973"/>
<text text-anchor="middle" x="551.5" y="-200" font-family="Helvetica,sans-Serif" font-size="10.00" fill="#000000"> #mFirstDigitInEvent</text>
<text text-anchor="middle" x="551.5" y="-189" font-family="Helvetica,sans-Serif" font-size="10.00" fill="#000000">#mLastDigitInEvent</text>
</g>
<!-- Node7 -->
<g id="node7" class="node">
<title>Node7</title>
<g id="a_node7"><a xlink:href="../../d3/dd0/classo2_1_1cpv_1_1BadChannelMap.html" target="_top" xlink:title="CCDB container for bad (masked) channels in CPV. ">
<polygon fill="none" stroke="#000000" points="565.5,-226.5 565.5,-382.5 741.5,-382.5 741.5,-226.5 565.5,-226.5"/>
<text text-anchor="middle" x="653.5" y="-370.5" font-family="Helvetica,sans-Serif" font-size="10.00" fill="#000000">o2::cpv::BadChannelMap</text>
<polyline fill="none" stroke="#000000" points="565.5,-363.5 741.5,-363.5 "/>
<text text-anchor="middle" x="653.5" y="-351.5" font-family="Helvetica,sans-Serif" font-size="10.00" fill="#000000"> </text>
<polyline fill="none" stroke="#000000" points="565.5,-344.5 741.5,-344.5 "/>
<text text-anchor="start" x="573.5" y="-332.5" font-family="Helvetica,sans-Serif" font-size="10.00" fill="#000000">+ BadChannelMap()</text>
<text text-anchor="start" x="573.5" y="-321.5" font-family="Helvetica,sans-Serif" font-size="10.00" fill="#000000">+ BadChannelMap()</text>
<text text-anchor="start" x="573.5" y="-310.5" font-family="Helvetica,sans-Serif" font-size="10.00" fill="#000000">+ ~BadChannelMap()</text>
<text text-anchor="start" x="573.5" y="-299.5" font-family="Helvetica,sans-Serif" font-size="10.00" fill="#000000">+ operator+=()</text>
<text text-anchor="start" x="573.5" y="-288.5" font-family="Helvetica,sans-Serif" font-size="10.00" fill="#000000">+ operator==()</text>
<text text-anchor="start" x="573.5" y="-277.5" font-family="Helvetica,sans-Serif" font-size="10.00" fill="#000000">+ addBadChannel()</text>
<text text-anchor="start" x="573.5" y="-266.5" font-family="Helvetica,sans-Serif" font-size="10.00" fill="#000000">+ setChannelGood()</text>
<text text-anchor="start" x="573.5" y="-255.5" font-family="Helvetica,sans-Serif" font-size="10.00" fill="#000000">+ isChannelGood()</text>
<text text-anchor="start" x="573.5" y="-244.5" font-family="Helvetica,sans-Serif" font-size="10.00" fill="#000000">+ getHistogramRepresentation()</text>
<text text-anchor="start" x="573.5" y="-233.5" font-family="Helvetica,sans-Serif" font-size="10.00" fill="#000000">+ PrintStream()</text>
</a>
</g>
</g>
<!-- Node7&#45;&gt;Node1 -->
<g id="edge6" class="edge">
<title>Node7&#45;&gt;Node1</title>
<path fill="none" stroke="#404040" d="M631.0728,-226.3758C624.6513,-211.9644 616.5729,-197.7708 606.5,-186 579.4983,-154.4471 540.1723,-130.1748 505.8355,-113.2387"/>
<polygon fill="none" stroke="#404040" points="505.7088,-113.1781 498.5698,-114.1961 494.8845,-107.9979 502.0234,-106.9799 505.7088,-113.1781"/>
<text text-anchor="middle" x="650" y="-194.5" font-family="Helvetica,sans-Serif" font-size="10.00" fill="#000000"> #mBadMap</text>
</g>
<!-- Node8 -->
<g id="node8" class="node">
<title>Node8</title>
<g id="a_node8"><a xlink:href="../../d3/df4/classo2_1_1cpv_1_1CalibParams.html" target="_top" xlink:title="{o2::cpv::CalibParams\n||+ CalibParams()\l+ CalibParams()\l+ ~CalibParams()\l+ getGain()\l+ setGain()\l+ setGain()\l}">
<polygon fill="none" stroke="#000000" points="759.5,-248.5 759.5,-360.5 877.5,-360.5 877.5,-248.5 759.5,-248.5"/>
<text text-anchor="middle" x="818.5" y="-348.5" font-family="Helvetica,sans-Serif" font-size="10.00" fill="#000000">o2::cpv::CalibParams</text>
<polyline fill="none" stroke="#000000" points="759.5,-341.5 877.5,-341.5 "/>
<text text-anchor="middle" x="818.5" y="-329.5" font-family="Helvetica,sans-Serif" font-size="10.00" fill="#000000"> </text>
<polyline fill="none" stroke="#000000" points="759.5,-322.5 877.5,-322.5 "/>
<text text-anchor="start" x="767.5" y="-310.5" font-family="Helvetica,sans-Serif" font-size="10.00" fill="#000000">+ CalibParams()</text>
<text text-anchor="start" x="767.5" y="-299.5" font-family="Helvetica,sans-Serif" font-size="10.00" fill="#000000">+ CalibParams()</text>
<text text-anchor="start" x="767.5" y="-288.5" font-family="Helvetica,sans-Serif" font-size="10.00" fill="#000000">+ ~CalibParams()</text>
<text text-anchor="start" x="767.5" y="-277.5" font-family="Helvetica,sans-Serif" font-size="10.00" fill="#000000">+ getGain()</text>
<text text-anchor="start" x="767.5" y="-266.5" font-family="Helvetica,sans-Serif" font-size="10.00" fill="#000000">+ setGain()</text>
<text text-anchor="start" x="767.5" y="-255.5" font-family="Helvetica,sans-Serif" font-size="10.00" fill="#000000">+ setGain()</text>
</a>
</g>
</g>
<!-- Node8&#45;&gt;Node1 -->
<g id="edge7" class="edge">
<title>Node8&#45;&gt;Node1</title>
<path fill="none" stroke="#404040" d="M773.7332,-248.366C766.3538,-240.4621 758.4925,-232.7444 750.5,-226 677.9602,-164.7881 574.7905,-125.1682 506.0753,-103.7283"/>
<polygon fill="none" stroke="#404040" points="505.983,-103.7001 499.0752,-105.7696 494.5081,-100.1891 501.4159,-98.1196 505.983,-103.7001"/>
<text text-anchor="middle" x="761.5" y="-194.5" font-family="Helvetica,sans-Serif" font-size="10.00" fill="#000000"> #mCalibParams</text>
</g>
</g>
</svg>
