<?xml version="1.0" encoding="UTF-8" standalone="no"?>
<!DOCTYPE svg PUBLIC "-//W3C//DTD SVG 1.1//EN"
 "http://www.w3.org/Graphics/SVG/1.1/DTD/svg11.dtd">
<!-- Generated by graphviz version 2.40.1 (20161225.0304)
 -->
<!-- Title: /home/travis/build/AliceO2Group/AliceO2/GPU/GPUTracking/Base/GPUReconstructionIncludes.h Pages: 1 -->
<svg width="874pt" height="296pt"
 viewBox="0.00 0.00 874.00 296.00" xmlns="http://www.w3.org/2000/svg" xmlns:xlink="http://www.w3.org/1999/xlink">
<g id="graph0" class="graph" transform="scale(1 1) rotate(0) translate(4 292)">
<title>/home/travis/build/AliceO2Group/AliceO2/GPU/GPUTracking/Base/GPUReconstructionIncludes.h</title>
<!-- Node0 -->
<g id="node1" class="node">
<title>Node0</title>
<polygon fill="#bfbfbf" stroke="#000000" points="396,-235.5 396,-287.5 558,-287.5 558,-235.5 396,-235.5"/>
<text text-anchor="start" x="404" y="-275.5" font-family="Helvetica,sans-Serif" font-size="10.00" fill="#000000">/home/travis/build</text>
<text text-anchor="start" x="404" y="-264.5" font-family="Helvetica,sans-Serif" font-size="10.00" fill="#000000">/AliceO2Group/AliceO2</text>
<text text-anchor="start" x="404" y="-253.5" font-family="Helvetica,sans-Serif" font-size="10.00" fill="#000000">/GPU/GPUTracking/Base</text>
<text text-anchor="middle" x="477" y="-242.5" font-family="Helvetica,sans-Serif" font-size="10.00" fill="#000000">/GPUReconstructionIncludes.h</text>
</g>
<!-- Node1 -->
<g id="node2" class="node">
<title>Node1</title>
<polygon fill="none" stroke="#bfbfbf" points="111.5,-174 111.5,-193 190.5,-193 190.5,-174 111.5,-174"/>
<text text-anchor="middle" x="151" y="-181" font-family="Helvetica,sans-Serif" font-size="10.00" fill="#000000">sys/syscall.h</text>
</g>
<!-- Node0&#45;&gt;Node1 -->
<g id="edge1" class="edge">
<title>Node0&#45;&gt;Node1</title>
<path fill="none" stroke="#191970" d="M395.9527,-245.0988C340.4896,-233.4146 265.4354,-216.6977 200,-199 196.5804,-198.0751 193.0429,-197.0643 189.5063,-196.0165"/>
<polygon fill="#191970" stroke="#191970" points="190.2266,-192.577 179.6405,-193.0059 188.1835,-199.2722 190.2266,-192.577"/>
</g>
<!-- Node2 -->
<g id="node3" class="node">
<title>Node2</title>
<polygon fill="none" stroke="#bfbfbf" points="209,-174 209,-193 289,-193 289,-174 209,-174"/>
<text text-anchor="middle" x="249" y="-181" font-family="Helvetica,sans-Serif" font-size="10.00" fill="#000000">semaphore.h</text>
</g>
<!-- Node0&#45;&gt;Node2 -->
<g id="edge2" class="edge">
<title>Node0&#45;&gt;Node2</title>
<path fill="none" stroke="#191970" d="M400.7623,-235.4187C362.3307,-222.271 317.4441,-206.9151 286.5088,-196.332"/>
<polygon fill="#191970" stroke="#191970" points="287.5755,-192.9978 276.9809,-193.0724 285.3096,-199.6209 287.5755,-192.9978"/>
</g>
<!-- Node3 -->
<g id="node4" class="node">
<title>Node3</title>
<polygon fill="none" stroke="#bfbfbf" points="307.5,-174 307.5,-193 354.5,-193 354.5,-174 307.5,-174"/>
<text text-anchor="middle" x="331" y="-181" font-family="Helvetica,sans-Serif" font-size="10.00" fill="#000000">fcntl.h</text>
</g>
<!-- Node0&#45;&gt;Node3 -->
<g id="edge3" class="edge">
<title>Node0&#45;&gt;Node3</title>
<path fill="none" stroke="#191970" d="M427.978,-235.3101C404.6272,-222.8351 377.5942,-208.3928 358.0108,-197.9304"/>
<polygon fill="#191970" stroke="#191970" points="359.5138,-194.7653 349.0443,-193.1401 356.2152,-200.9394 359.5138,-194.7653"/>
</g>
<!-- Node4 -->
<g id="node5" class="node">
<title>Node4</title>
<polygon fill="none" stroke="#bfbfbf" points="373,-174 373,-193 427,-193 427,-174 373,-174"/>
<text text-anchor="middle" x="400" y="-181" font-family="Helvetica,sans-Serif" font-size="10.00" fill="#000000">sched.h</text>
</g>
<!-- Node0&#45;&gt;Node4 -->
<g id="edge4" class="edge">
<title>Node0&#45;&gt;Node4</title>
<path fill="none" stroke="#191970" d="M450.9313,-235.0928C439.6395,-223.6543 426.7494,-210.5968 416.7622,-200.4799"/>
<polygon fill="#191970" stroke="#191970" points="418.9771,-197.7416 409.461,-193.0839 413.9955,-202.6593 418.9771,-197.7416"/>
</g>
<!-- Node5 -->
<g id="node6" class="node">
<title>Node5</title>
<g id="a_node6"><a xlink:href="../../d2/d6d/GPUDef_8h.html" target="_top" xlink:title="GPUDef.h">
<polygon fill="none" stroke="#000000" points="445.5,-174 445.5,-193 508.5,-193 508.5,-174 445.5,-174"/>
<text text-anchor="middle" x="477" y="-181" font-family="Helvetica,sans-Serif" font-size="10.00" fill="#000000">GPUDef.h</text>
</a>
</g>
</g>
<!-- Node0&#45;&gt;Node5 -->
<g id="edge5" class="edge">
<title>Node0&#45;&gt;Node5</title>
<path fill="none" stroke="#191970" d="M477,-235.0928C477,-224.6735 477,-212.911 477,-203.2512"/>
<polygon fill="#191970" stroke="#191970" points="480.5001,-203.0838 477,-193.0839 473.5001,-203.0839 480.5001,-203.0838"/>
</g>
<!-- Node15 -->
<g id="node16" class="node">
<title>Node15</title>
<g id="a_node16"><a xlink:href="../../df/ddc/GPULogging_8h.html" target="_top" xlink:title="GPULogging.h">
<polygon fill="none" stroke="#000000" points="712.5,-112.5 712.5,-131.5 797.5,-131.5 797.5,-112.5 712.5,-112.5"/>
<text text-anchor="middle" x="755" y="-119.5" font-family="Helvetica,sans-Serif" font-size="10.00" fill="#000000">GPULogging.h</text>
</a>
</g>
</g>
<!-- Node0&#45;&gt;Node15 -->
<g id="edge16" class="edge">
<title>Node0&#45;&gt;Node15</title>
<path fill="none" stroke="#191970" d="M492.4238,-235.2288C506.3481,-213.8582 528.7947,-184.6129 556,-168 580.2074,-153.2178 651.8731,-138.947 702.2287,-130.3211"/>
<polygon fill="#191970" stroke="#191970" points="703.0319,-133.7351 712.3103,-128.6203 701.8674,-126.8327 703.0319,-133.7351"/>
</g>
<!-- Node16 -->
<g id="node17" class="node">
<title>Node16</title>
<polygon fill="none" stroke="#bfbfbf" points="565,-174 565,-193 625,-193 625,-174 565,-174"/>
<text text-anchor="middle" x="595" y="-181" font-family="Helvetica,sans-Serif" font-size="10.00" fill="#000000">iostream</text>
</g>
<!-- Node0&#45;&gt;Node16 -->
<g id="edge18" class="edge">
<title>Node0&#45;&gt;Node16</title>
<path fill="none" stroke="#191970" d="M516.6206,-235.3101C534.9784,-223.1753 556.1522,-209.1791 571.8611,-198.7952"/>
<polygon fill="#191970" stroke="#191970" points="574.0041,-201.5743 580.4162,-193.1401 570.144,-195.7347 574.0041,-201.5743"/>
</g>
<!-- Node17 -->
<g id="node18" class="node">
<title>Node17</title>
<polygon fill="none" stroke="#bfbfbf" points="643.5,-174 643.5,-193 698.5,-193 698.5,-174 643.5,-174"/>
<text text-anchor="middle" x="671" y="-181" font-family="Helvetica,sans-Serif" font-size="10.00" fill="#000000">fstream</text>
</g>
<!-- Node0&#45;&gt;Node17 -->
<g id="edge19" class="edge">
<title>Node0&#45;&gt;Node17</title>
<path fill="none" stroke="#191970" d="M543.1824,-235.4567C571.2384,-224.3379 604.2609,-211.1474 634,-199 635.5957,-198.3482 637.2287,-197.6776 638.8769,-196.9978"/>
<polygon fill="#191970" stroke="#191970" points="640.4354,-200.1405 648.3283,-193.0728 637.7507,-193.6758 640.4354,-200.1405"/>
</g>
<!-- Node18 -->
<g id="node19" class="node">
<title>Node18</title>
<g id="a_node19"><a xlink:href="../../d6/de9/GPUReconstructionIncludesITS_8h.html" target="_top" xlink:title="GPUReconstructionIncludes\lITS.h">
<polygon fill="none" stroke="#000000" points="716,-168.5 716,-198.5 866,-198.5 866,-168.5 716,-168.5"/>
<text text-anchor="start" x="724" y="-186.5" font-family="Helvetica,sans-Serif" font-size="10.00" fill="#000000">GPUReconstructionIncludes</text>
<text text-anchor="middle" x="791" y="-175.5" font-family="Helvetica,sans-Serif" font-size="10.00" fill="#000000">ITS.h</text>
</a>
</g>
</g>
<!-- Node0&#45;&gt;Node18 -->
<g id="edge20" class="edge">
<title>Node0&#45;&gt;Node18</title>
<path fill="none" stroke="#191970" d="M558.2712,-241.3116C608.5914,-228.8117 672.5598,-212.9215 720.6924,-200.965"/>
<polygon fill="#191970" stroke="#191970" points="721.5441,-204.3598 730.4053,-198.5522 719.8565,-197.5663 721.5441,-204.3598"/>
</g>
<!-- Node6 -->
<g id="node7" class="node">
<title>Node6</title>
<g id="a_node7"><a xlink:href="../../df/d21/GPUCommonDef_8h.html" target="_top" xlink:title="GPUCommonDef.h">
<polygon fill="none" stroke="#000000" points="630.5,-56.5 630.5,-75.5 737.5,-75.5 737.5,-56.5 630.5,-56.5"/>
<text text-anchor="middle" x="684" y="-63.5" font-family="Helvetica,sans-Serif" font-size="10.00" fill="#000000">GPUCommonDef.h</text>
</a>
</g>
</g>
<!-- Node5&#45;&gt;Node6 -->
<g id="edge6" class="edge">
<title>Node5&#45;&gt;Node6</title>
<path fill="none" stroke="#191970" d="M504.133,-173.973C510.3066,-171.9126 516.8566,-169.8109 523,-168 585.4511,-149.5915 618.231,-177.2954 665,-132 677.4222,-119.9692 681.8675,-100.387 683.3872,-85.6709"/>
<polygon fill="#191970" stroke="#191970" points="686.8874,-85.7829 684.0627,-75.5716 679.903,-85.3157 686.8874,-85.7829"/>
</g>
<!-- Node9 -->
<g id="node10" class="node">
<title>Node9</title>
<g id="a_node10"><a xlink:href="../../d2/d37/GPUDefConstantsAndSettings_8h.html" target="_top" xlink:title="GPUDefConstantsAndSettings.h">
<polygon fill="none" stroke="#000000" points="484.5,-112.5 484.5,-131.5 655.5,-131.5 655.5,-112.5 484.5,-112.5"/>
<text text-anchor="middle" x="570" y="-119.5" font-family="Helvetica,sans-Serif" font-size="10.00" fill="#000000">GPUDefConstantsAndSettings.h</text>
</a>
</g>
</g>
<!-- Node5&#45;&gt;Node9 -->
<g id="edge9" class="edge">
<title>Node5&#45;&gt;Node9</title>
<path fill="none" stroke="#191970" d="M491.5313,-173.8906C506.4094,-164.0519 529.7504,-148.6167 547.1128,-137.1351"/>
<polygon fill="#191970" stroke="#191970" points="549.1602,-139.9773 555.5708,-131.5419 545.299,-134.1385 549.1602,-139.9773"/>
</g>
<!-- Node10 -->
<g id="node11" class="node">
<title>Node10</title>
<g id="a_node11"><a xlink:href="../../dc/de9/GPUDefGPUParameters_8h.html" target="_top" xlink:title="GPUDefGPUParameters.h">
<polygon fill="none" stroke="#000000" points="0,-112.5 0,-131.5 140,-131.5 140,-112.5 0,-112.5"/>
<text text-anchor="middle" x="70" y="-119.5" font-family="Helvetica,sans-Serif" font-size="10.00" fill="#000000">GPUDefGPUParameters.h</text>
</a>
</g>
</g>
<!-- Node5&#45;&gt;Node10 -->
<g id="edge11" class="edge">
<title>Node5&#45;&gt;Node10</title>
<path fill="none" stroke="#191970" d="M454.7478,-173.9962C448.751,-171.7375 442.204,-169.5395 436,-168 434.2688,-167.5704 257.5049,-145.4374 150.2943,-132.033"/>
<polygon fill="#191970" stroke="#191970" points="150.5014,-128.5317 140.1444,-130.764 149.633,-135.4776 150.5014,-128.5317"/>
</g>
<!-- Node12 -->
<g id="node13" class="node">
<title>Node12</title>
<g id="a_node13"><a xlink:href="../../d3/d4c/GPUDefOpenCL12Templates_8h.html" target="_top" xlink:title="GPUDefOpenCL12Templates.h">
<polygon fill="none" stroke="#000000" points="302,-112.5 302,-131.5 466,-131.5 466,-112.5 302,-112.5"/>
<text text-anchor="middle" x="384" y="-119.5" font-family="Helvetica,sans-Serif" font-size="10.00" fill="#000000">GPUDefOpenCL12Templates.h</text>
</a>
</g>
</g>
<!-- Node5&#45;&gt;Node12 -->
<g id="edge13" class="edge">
<title>Node5&#45;&gt;Node12</title>
<path fill="none" stroke="#191970" d="M462.4688,-173.8906C447.5906,-164.0519 424.2496,-148.6167 406.8872,-137.1351"/>
<polygon fill="#191970" stroke="#191970" points="408.701,-134.1385 398.4292,-131.5419 404.8398,-139.9773 408.701,-134.1385"/>
</g>
<!-- Node13 -->
<g id="node14" class="node">
<title>Node13</title>
<g id="a_node14"><a xlink:href="../../d2/d45/GPUCommonRtypes_8h.html" target="_top" xlink:title="GPUCommonRtypes.h">
<polygon fill="none" stroke="#000000" points="158.5,-112.5 158.5,-131.5 283.5,-131.5 283.5,-112.5 158.5,-112.5"/>
<text text-anchor="middle" x="221" y="-119.5" font-family="Helvetica,sans-Serif" font-size="10.00" fill="#000000">GPUCommonRtypes.h</text>
</a>
</g>
</g>
<!-- Node5&#45;&gt;Node13 -->
<g id="edge14" class="edge">
<title>Node5&#45;&gt;Node13</title>
<path fill="none" stroke="#191970" d="M453.3581,-173.8696C447.7249,-171.7684 441.6943,-169.6751 436,-168 386.6731,-153.4891 329.7303,-141.5131 286.8429,-133.422"/>
<polygon fill="#191970" stroke="#191970" points="287.2824,-129.9437 276.8103,-131.5516 285.9995,-136.8251 287.2824,-129.9437"/>
</g>
<!-- Node7 -->
<g id="node8" class="node">
<title>Node7</title>
<g id="a_node8"><a xlink:href="../../d5/d93/GPUCommonDefSettings_8h.html" target="_top" xlink:title="GPUCommonDefSettings.h">
<polygon fill="none" stroke="#000000" points="533,-.5 533,-19.5 681,-19.5 681,-.5 533,-.5"/>
<text text-anchor="middle" x="607" y="-7.5" font-family="Helvetica,sans-Serif" font-size="10.00" fill="#000000">GPUCommonDefSettings.h</text>
</a>
</g>
</g>
<!-- Node6&#45;&gt;Node7 -->
<g id="edge7" class="edge">
<title>Node6&#45;&gt;Node7</title>
<path fill="none" stroke="#191970" d="M670.5876,-56.2455C658.9943,-47.814 642.0252,-35.4729 628.5322,-25.6598"/>
<polygon fill="#191970" stroke="#191970" points="630.4047,-22.6938 620.2587,-19.6427 626.2874,-28.355 630.4047,-22.6938"/>
</g>
<!-- Node8 -->
<g id="node9" class="node">
<title>Node8</title>
<g id="a_node9"><a xlink:href="../../da/d5a/GPUCommonDefAPI_8h.html" target="_top" xlink:title="GPUCommonDefAPI.h">
<polygon fill="none" stroke="#000000" points="699,-.5 699,-19.5 823,-19.5 823,-.5 699,-.5"/>
<text text-anchor="middle" x="761" y="-7.5" font-family="Helvetica,sans-Serif" font-size="10.00" fill="#000000">GPUCommonDefAPI.h</text>
</a>
</g>
</g>
<!-- Node6&#45;&gt;Node8 -->
<g id="edge8" class="edge">
<title>Node6&#45;&gt;Node8</title>
<path fill="none" stroke="#191970" d="M697.4124,-56.2455C709.0057,-47.814 725.9748,-35.4729 739.4678,-25.6598"/>
<polygon fill="#191970" stroke="#191970" points="741.7126,-28.355 747.7413,-19.6427 737.5953,-22.6938 741.7126,-28.355"/>
</g>
<!-- Node9&#45;&gt;Node6 -->
<g id="edge10" class="edge">
<title>Node9&#45;&gt;Node6</title>
<path fill="none" stroke="#191970" d="M589.5973,-112.3733C607.7331,-103.4644 634.9135,-90.1127 655.4587,-80.0203"/>
<polygon fill="#191970" stroke="#191970" points="657.2261,-83.0517 664.6584,-75.5011 654.1397,-76.7688 657.2261,-83.0517"/>
</g>
<!-- Node11 -->
<g id="node12" class="node">
<title>Node11</title>
<g id="a_node12"><a xlink:href="../../d6/dff/GPUDefMacros_8h.html" target="_top" xlink:title="GPUDefMacros.h">
<polygon fill="none" stroke="#000000" points="21,-56.5 21,-75.5 119,-75.5 119,-56.5 21,-56.5"/>
<text text-anchor="middle" x="70" y="-63.5" font-family="Helvetica,sans-Serif" font-size="10.00" fill="#000000">GPUDefMacros.h</text>
</a>
</g>
</g>
<!-- Node10&#45;&gt;Node11 -->
<g id="edge12" class="edge">
<title>Node10&#45;&gt;Node11</title>
<path fill="none" stroke="#191970" d="M70,-112.2455C70,-104.9382 70,-94.6944 70,-85.7046"/>
<polygon fill="#191970" stroke="#191970" points="73.5001,-85.6426 70,-75.6427 66.5001,-85.6427 73.5001,-85.6426"/>
</g>
<!-- Node14 -->
<g id="node15" class="node">
<title>Node14</title>
<polygon fill="none" stroke="#bfbfbf" points="191.5,-56.5 191.5,-75.5 250.5,-75.5 250.5,-56.5 191.5,-56.5"/>
<text text-anchor="middle" x="221" y="-63.5" font-family="Helvetica,sans-Serif" font-size="10.00" fill="#000000">Rtypes.h</text>
</g>
<!-- Node13&#45;&gt;Node14 -->
<g id="edge15" class="edge">
<title>Node13&#45;&gt;Node14</title>
<path fill="none" stroke="#191970" d="M221,-112.2455C221,-104.9382 221,-94.6944 221,-85.7046"/>
<polygon fill="#191970" stroke="#191970" points="224.5001,-85.6426 221,-75.6427 217.5001,-85.6427 224.5001,-85.6426"/>
</g>
<!-- Node15&#45;&gt;Node6 -->
<g id="edge17" class="edge">
<title>Node15&#45;&gt;Node6</title>
<path fill="none" stroke="#191970" d="M742.6327,-112.2455C732.0446,-103.8943 716.5936,-91.7076 704.2107,-81.9408"/>
<polygon fill="#191970" stroke="#191970" points="706.2447,-79.0875 696.2255,-75.6427 701.9097,-84.5837 706.2447,-79.0875"/>
</g>
</g>
</svg>
