<?xml version="1.0" encoding="UTF-8" standalone="no"?>
<!DOCTYPE svg PUBLIC "-//W3C//DTD SVG 1.1//EN"
 "http://www.w3.org/Graphics/SVG/1.1/DTD/svg11.dtd">
<!-- Generated by graphviz version 2.40.1 (20161225.0304)
 -->
<!-- Title: /home/travis/build/AliceO2Group/AliceO2/GPU/GPUTracking/TPCClusterFinder/ClusterAccumulator.h Pages: 1 -->
<svg width="831pt" height="397pt"
 viewBox="0.00 0.00 831.00 397.00" xmlns="http://www.w3.org/2000/svg" xmlns:xlink="http://www.w3.org/1999/xlink">
<g id="graph0" class="graph" transform="scale(1 1) rotate(0) translate(4 393)">
<title>/home/travis/build/AliceO2Group/AliceO2/GPU/GPUTracking/TPCClusterFinder/ClusterAccumulator.h</title>
<!-- Node0 -->
<g id="node1" class="node">
<title>Node0</title>
<polygon fill="#bfbfbf" stroke="#000000" points="382.5,-336.5 382.5,-388.5 573.5,-388.5 573.5,-336.5 382.5,-336.5"/>
<text text-anchor="start" x="390.5" y="-376.5" font-family="Helvetica,sans-Serif" font-size="10.00" fill="#000000">/home/travis/build</text>
<text text-anchor="start" x="390.5" y="-365.5" font-family="Helvetica,sans-Serif" font-size="10.00" fill="#000000">/AliceO2Group/AliceO2</text>
<text text-anchor="start" x="390.5" y="-354.5" font-family="Helvetica,sans-Serif" font-size="10.00" fill="#000000">/GPU/GPUTracking/TPCClusterFinder</text>
<text text-anchor="middle" x="478" y="-343.5" font-family="Helvetica,sans-Serif" font-size="10.00" fill="#000000">/ClusterAccumulator.h</text>
</g>
<!-- Node1 -->
<g id="node2" class="node">
<title>Node1</title>
<g id="a_node2"><a xlink:href="../../d9/db0/clusterFinderDefs_8h.html" target="_top" xlink:title="clusterFinderDefs.h">
<polygon fill="none" stroke="#000000" points="385,-224.5 385,-243.5 495,-243.5 495,-224.5 385,-224.5"/>
<text text-anchor="middle" x="440" y="-231.5" font-family="Helvetica,sans-Serif" font-size="10.00" fill="#000000">clusterFinderDefs.h</text>
</a>
</g>
</g>
<!-- Node0&#45;&gt;Node1 -->
<g id="edge1" class="edge">
<title>Node0&#45;&gt;Node1</title>
<path fill="none" stroke="#191970" d="M470.3101,-336.4961C463.0376,-311.9033 452.289,-275.5564 445.7377,-253.4024"/>
<polygon fill="#191970" stroke="#191970" points="449.0057,-252.1111 442.8135,-243.5142 442.2931,-254.0962 449.0057,-252.1111"/>
</g>
<!-- Node12 -->
<g id="node13" class="node">
<title>Node12</title>
<g id="a_node13"><a xlink:href="../../d1/d65/PackedCharge_8h.html" target="_top" xlink:title="PackedCharge.h">
<polygon fill="none" stroke="#000000" points="468.5,-280.5 468.5,-299.5 563.5,-299.5 563.5,-280.5 468.5,-280.5"/>
<text text-anchor="middle" x="516" y="-287.5" font-family="Helvetica,sans-Serif" font-size="10.00" fill="#000000">PackedCharge.h</text>
</a>
</g>
</g>
<!-- Node0&#45;&gt;Node12 -->
<g id="edge13" class="edge">
<title>Node0&#45;&gt;Node12</title>
<path fill="none" stroke="#191970" d="M491.7189,-336.3258C496.5473,-327.1136 501.8701,-316.9584 506.2984,-308.5096"/>
<polygon fill="#191970" stroke="#191970" points="509.4605,-310.016 511.0029,-299.534 503.2605,-306.7663 509.4605,-310.016"/>
</g>
<!-- Node2 -->
<g id="node3" class="node">
<title>Node2</title>
<g id="a_node3"><a xlink:href="../../d2/d6d/GPUDef_8h.html" target="_top" xlink:title="GPUDef.h">
<polygon fill="none" stroke="#000000" points="400.5,-168.5 400.5,-187.5 463.5,-187.5 463.5,-168.5 400.5,-168.5"/>
<text text-anchor="middle" x="432" y="-175.5" font-family="Helvetica,sans-Serif" font-size="10.00" fill="#000000">GPUDef.h</text>
</a>
</g>
</g>
<!-- Node1&#45;&gt;Node2 -->
<g id="edge2" class="edge">
<title>Node1&#45;&gt;Node2</title>
<path fill="none" stroke="#191970" d="M438.6065,-224.2455C437.5626,-216.9382 436.0992,-206.6944 434.8149,-197.7046"/>
<polygon fill="#191970" stroke="#191970" points="438.2566,-197.0472 433.3775,-187.6427 431.327,-198.0372 438.2566,-197.0472"/>
</g>
<!-- Node3 -->
<g id="node4" class="node">
<title>Node3</title>
<g id="a_node4"><a xlink:href="../../df/d21/GPUCommonDef_8h.html" target="_top" xlink:title="GPUCommonDef.h">
<polygon fill="none" stroke="#000000" points="630.5,-56.5 630.5,-75.5 737.5,-75.5 737.5,-56.5 630.5,-56.5"/>
<text text-anchor="middle" x="684" y="-63.5" font-family="Helvetica,sans-Serif" font-size="10.00" fill="#000000">GPUCommonDef.h</text>
</a>
</g>
</g>
<!-- Node2&#45;&gt;Node3 -->
<g id="edge3" class="edge">
<title>Node2&#45;&gt;Node3</title>
<path fill="none" stroke="#191970" d="M463.7878,-173.5923C524.0575,-164.9676 650.269,-145.5241 665,-132 677.7388,-120.305 682.1419,-100.6781 683.5656,-85.8602"/>
<polygon fill="#191970" stroke="#191970" points="687.0713,-85.8648 684.1623,-75.6772 680.0832,-85.4553 687.0713,-85.8648"/>
</g>
<!-- Node6 -->
<g id="node7" class="node">
<title>Node6</title>
<g id="a_node7"><a xlink:href="../../d2/d37/GPUDefConstantsAndSettings_8h.html" target="_top" xlink:title="GPUDefConstantsAndSettings.h">
<polygon fill="none" stroke="#000000" points="484.5,-112.5 484.5,-131.5 655.5,-131.5 655.5,-112.5 484.5,-112.5"/>
<text text-anchor="middle" x="570" y="-119.5" font-family="Helvetica,sans-Serif" font-size="10.00" fill="#000000">GPUDefConstantsAndSettings.h</text>
</a>
</g>
</g>
<!-- Node2&#45;&gt;Node6 -->
<g id="edge6" class="edge">
<title>Node2&#45;&gt;Node6</title>
<path fill="none" stroke="#191970" d="M455.723,-168.3733C478.1737,-159.2629 512.0739,-145.5062 537.1255,-135.3404"/>
<polygon fill="#191970" stroke="#191970" points="538.6365,-138.5045 546.5865,-131.5011 536.0043,-132.0182 538.6365,-138.5045"/>
</g>
<!-- Node7 -->
<g id="node8" class="node">
<title>Node7</title>
<g id="a_node8"><a xlink:href="../../dc/de9/GPUDefGPUParameters_8h.html" target="_top" xlink:title="GPUDefGPUParameters.h">
<polygon fill="none" stroke="#000000" points="0,-112.5 0,-131.5 140,-131.5 140,-112.5 0,-112.5"/>
<text text-anchor="middle" x="70" y="-119.5" font-family="Helvetica,sans-Serif" font-size="10.00" fill="#000000">GPUDefGPUParameters.h</text>
</a>
</g>
</g>
<!-- Node2&#45;&gt;Node7 -->
<g id="edge8" class="edge">
<title>Node2&#45;&gt;Node7</title>
<path fill="none" stroke="#191970" d="M400.1922,-173.0795C342.7321,-164.1906 220.3123,-145.2527 141.7559,-133.1004"/>
<polygon fill="#191970" stroke="#191970" points="141.8675,-129.5761 131.45,-131.5061 140.7973,-136.4938 141.8675,-129.5761"/>
</g>
<!-- Node9 -->
<g id="node10" class="node">
<title>Node9</title>
<g id="a_node10"><a xlink:href="../../d3/d4c/GPUDefOpenCL12Templates_8h.html" target="_top" xlink:title="GPUDefOpenCL12Templates.h">
<polygon fill="none" stroke="#000000" points="302,-112.5 302,-131.5 466,-131.5 466,-112.5 302,-112.5"/>
<text text-anchor="middle" x="384" y="-119.5" font-family="Helvetica,sans-Serif" font-size="10.00" fill="#000000">GPUDefOpenCL12Templates.h</text>
</a>
</g>
</g>
<!-- Node2&#45;&gt;Node9 -->
<g id="edge10" class="edge">
<title>Node2&#45;&gt;Node9</title>
<path fill="none" stroke="#191970" d="M423.639,-168.2455C416.825,-160.2958 407.0319,-148.8706 398.8848,-139.3656"/>
<polygon fill="#191970" stroke="#191970" points="401.4305,-136.9575 392.2651,-131.6427 396.1157,-141.513 401.4305,-136.9575"/>
</g>
<!-- Node10 -->
<g id="node11" class="node">
<title>Node10</title>
<g id="a_node11"><a xlink:href="../../d2/d45/GPUCommonRtypes_8h.html" target="_top" xlink:title="GPUCommonRtypes.h">
<polygon fill="none" stroke="#000000" points="158.5,-112.5 158.5,-131.5 283.5,-131.5 283.5,-112.5 158.5,-112.5"/>
<text text-anchor="middle" x="221" y="-119.5" font-family="Helvetica,sans-Serif" font-size="10.00" fill="#000000">GPUCommonRtypes.h</text>
</a>
</g>
</g>
<!-- Node2&#45;&gt;Node10 -->
<g id="edge11" class="edge">
<title>Node2&#45;&gt;Node10</title>
<path fill="none" stroke="#191970" d="M400.4112,-169.6162C365.0128,-160.2214 307.3048,-144.9055 266.9223,-134.1879"/>
<polygon fill="#191970" stroke="#191970" points="267.6163,-130.751 257.053,-131.5686 265.8206,-137.5168 267.6163,-130.751"/>
</g>
<!-- Node4 -->
<g id="node5" class="node">
<title>Node4</title>
<g id="a_node5"><a xlink:href="../../d5/d93/GPUCommonDefSettings_8h.html" target="_top" xlink:title="GPUCommonDefSettings.h">
<polygon fill="none" stroke="#000000" points="533,-.5 533,-19.5 681,-19.5 681,-.5 533,-.5"/>
<text text-anchor="middle" x="607" y="-7.5" font-family="Helvetica,sans-Serif" font-size="10.00" fill="#000000">GPUCommonDefSettings.h</text>
</a>
</g>
</g>
<!-- Node3&#45;&gt;Node4 -->
<g id="edge4" class="edge">
<title>Node3&#45;&gt;Node4</title>
<path fill="none" stroke="#191970" d="M670.5876,-56.2455C658.9943,-47.814 642.0252,-35.4729 628.5322,-25.6598"/>
<polygon fill="#191970" stroke="#191970" points="630.4047,-22.6938 620.2587,-19.6427 626.2874,-28.355 630.4047,-22.6938"/>
</g>
<!-- Node5 -->
<g id="node6" class="node">
<title>Node5</title>
<g id="a_node6"><a xlink:href="../../da/d5a/GPUCommonDefAPI_8h.html" target="_top" xlink:title="GPUCommonDefAPI.h">
<polygon fill="none" stroke="#000000" points="699,-.5 699,-19.5 823,-19.5 823,-.5 699,-.5"/>
<text text-anchor="middle" x="761" y="-7.5" font-family="Helvetica,sans-Serif" font-size="10.00" fill="#000000">GPUCommonDefAPI.h</text>
</a>
</g>
</g>
<!-- Node3&#45;&gt;Node5 -->
<g id="edge5" class="edge">
<title>Node3&#45;&gt;Node5</title>
<path fill="none" stroke="#191970" d="M697.4124,-56.2455C709.0057,-47.814 725.9748,-35.4729 739.4678,-25.6598"/>
<polygon fill="#191970" stroke="#191970" points="741.7126,-28.355 747.7413,-19.6427 737.5953,-22.6938 741.7126,-28.355"/>
</g>
<!-- Node6&#45;&gt;Node3 -->
<g id="edge7" class="edge">
<title>Node6&#45;&gt;Node3</title>
<path fill="none" stroke="#191970" d="M589.5973,-112.3733C607.7331,-103.4644 634.9135,-90.1127 655.4587,-80.0203"/>
<polygon fill="#191970" stroke="#191970" points="657.2261,-83.0517 664.6584,-75.5011 654.1397,-76.7688 657.2261,-83.0517"/>
</g>
<!-- Node8 -->
<g id="node9" class="node">
<title>Node8</title>
<g id="a_node9"><a xlink:href="../../d6/dff/GPUDefMacros_8h.html" target="_top" xlink:title="GPUDefMacros.h">
<polygon fill="none" stroke="#000000" points="21,-56.5 21,-75.5 119,-75.5 119,-56.5 21,-56.5"/>
<text text-anchor="middle" x="70" y="-63.5" font-family="Helvetica,sans-Serif" font-size="10.00" fill="#000000">GPUDefMacros.h</text>
</a>
</g>
</g>
<!-- Node7&#45;&gt;Node8 -->
<g id="edge9" class="edge">
<title>Node7&#45;&gt;Node8</title>
<path fill="none" stroke="#191970" d="M70,-112.2455C70,-104.9382 70,-94.6944 70,-85.7046"/>
<polygon fill="#191970" stroke="#191970" points="73.5001,-85.6426 70,-75.6427 66.5001,-85.6427 73.5001,-85.6426"/>
</g>
<!-- Node11 -->
<g id="node12" class="node">
<title>Node11</title>
<polygon fill="none" stroke="#bfbfbf" points="191.5,-56.5 191.5,-75.5 250.5,-75.5 250.5,-56.5 191.5,-56.5"/>
<text text-anchor="middle" x="221" y="-63.5" font-family="Helvetica,sans-Serif" font-size="10.00" fill="#000000">Rtypes.h</text>
</g>
<!-- Node10&#45;&gt;Node11 -->
<g id="edge12" class="edge">
<title>Node10&#45;&gt;Node11</title>
<path fill="none" stroke="#191970" d="M221,-112.2455C221,-104.9382 221,-94.6944 221,-85.7046"/>
<polygon fill="#191970" stroke="#191970" points="224.5001,-85.6426 221,-75.6427 217.5001,-85.6427 224.5001,-85.6426"/>
</g>
<!-- Node12&#45;&gt;Node1 -->
<g id="edge14" class="edge">
<title>Node12&#45;&gt;Node1</title>
<path fill="none" stroke="#191970" d="M502.7618,-280.2455C491.319,-271.814 474.5704,-259.4729 461.2525,-249.6598"/>
<polygon fill="#191970" stroke="#191970" points="463.2133,-246.757 453.0865,-243.6427 459.0609,-252.3924 463.2133,-246.757"/>
</g>
<!-- Node13 -->
<g id="node14" class="node">
<title>Node13</title>
<g id="a_node14"><a xlink:href="../../d6/da2/GPUCommonMath_8h.html" target="_top" xlink:title="GPUCommonMath.h">
<polygon fill="none" stroke="#000000" points="517.5,-224.5 517.5,-243.5 632.5,-243.5 632.5,-224.5 517.5,-224.5"/>
<text text-anchor="middle" x="575" y="-231.5" font-family="Helvetica,sans-Serif" font-size="10.00" fill="#000000">GPUCommonMath.h</text>
</a>
</g>
</g>
<!-- Node12&#45;&gt;Node13 -->
<g id="edge15" class="edge">
<title>Node12&#45;&gt;Node13</title>
<path fill="none" stroke="#191970" d="M526.277,-280.2455C534.8218,-272.1352 547.1778,-260.4075 557.3085,-250.7919"/>
<polygon fill="#191970" stroke="#191970" points="559.9972,-253.0655 564.8408,-243.6427 555.1782,-247.9884 559.9972,-253.0655"/>
</g>
<!-- Node13&#45;&gt;Node3 -->
<g id="edge16" class="edge">
<title>Node13&#45;&gt;Node3</title>
<path fill="none" stroke="#191970" d="M599.0382,-224.4712C616.2752,-216.6939 639.1565,-204.3264 655,-188 674.6634,-167.7371 678.1266,-159.386 685,-132 687.1639,-123.3785 685.0966,-120.8884 685,-112 684.9057,-103.3235 684.7114,-93.7282 684.5189,-85.5559"/>
<polygon fill="#191970" stroke="#191970" points="688.0168,-85.4229 684.2671,-75.5138 681.019,-85.5984 688.0168,-85.4229"/>
</g>
<!-- Node14 -->
<g id="node15" class="node">
<title>Node14</title>
<polygon fill="none" stroke="#bfbfbf" points="516.5,-168.5 516.5,-187.5 563.5,-187.5 563.5,-168.5 516.5,-168.5"/>
<text text-anchor="middle" x="540" y="-175.5" font-family="Helvetica,sans-Serif" font-size="10.00" fill="#000000">cmath</text>
</g>
<!-- Node13&#45;&gt;Node14 -->
<g id="edge17" class="edge">
<title>Node13&#45;&gt;Node14</title>
<path fill="none" stroke="#191970" d="M568.9035,-224.2455C564.0855,-216.5367 557.2249,-205.5598 551.3968,-196.2348"/>
<polygon fill="#191970" stroke="#191970" points="554.2947,-194.2677 546.0267,-187.6427 548.3587,-197.9777 554.2947,-194.2677"/>
</g>
<!-- Node15 -->
<g id="node16" class="node">
<title>Node15</title>
<polygon fill="none" stroke="#bfbfbf" points="582,-168.5 582,-187.5 646,-187.5 646,-168.5 582,-168.5"/>
<text text-anchor="middle" x="614" y="-175.5" font-family="Helvetica,sans-Serif" font-size="10.00" fill="#000000">algorithm</text>
</g>
<!-- Node13&#45;&gt;Node15 -->
<g id="edge18" class="edge">
<title>Node13&#45;&gt;Node15</title>
<path fill="none" stroke="#191970" d="M581.7933,-224.2455C587.2178,-216.4564 594.9661,-205.3308 601.5033,-195.9439"/>
<polygon fill="#191970" stroke="#191970" points="604.4417,-197.849 607.2846,-187.6427 598.6975,-193.8485 604.4417,-197.849"/>
</g>
</g>
</svg>
