<?xml version="1.0" encoding="UTF-8" standalone="no"?>
<!DOCTYPE svg PUBLIC "-//W3C//DTD SVG 1.1//EN"
 "http://www.w3.org/Graphics/SVG/1.1/DTD/svg11.dtd">
<!-- Generated by graphviz version 2.40.1 (20161225.0304)
 -->
<!-- Title: /home/travis/build/AliceO2Group/AliceO2/DataFormats/Detectors/FIT/FV0/include/DataFormatsFV0/BCData.h Pages: 1 -->
<!--zoomable 339 -->
<svg id="main" version="1.1" xmlns="http://www.w3.org/2000/svg" xmlns:xlink="http://www.w3.org/1999/xlink" xml:space="preserve" onload="init(evt)">
<style type="text/css"><![CDATA[
.edge:hover path { stroke: red; }
.edge:hover polygon { stroke: red; fill: red; }
]]></style>
<script type="text/javascript"><![CDATA[
var edges = document.getElementsByTagName('g');
if (edges && edges.length) {
  for (var i=0;i<edges.length;i++) {
    if (edges[i].id.substr(0,4)=='edge') {
      edges[i].setAttribute('class','edge');
    }
  }
}
]]></script>
        <defs>
                <circle id="rim" cx="0" cy="0" r="7"/>
                <circle id="rim2" cx="0" cy="0" r="3.5"/>
                <g id="zoomPlus">
                        <use xlink:href="#rim" fill="#404040">
                                <set attributeName="fill" to="#808080" begin="zoomplus.mouseover" end="zoomplus.mouseout"/>
                        </use>
                        <path d="M-4,0h8M0,-4v8" fill="none" stroke="white" stroke-width="1.5" pointer-events="none"/>
                </g>
                <g id="zoomMin">
                        <use xlink:href="#rim" fill="#404040">
                                <set attributeName="fill" to="#808080" begin="zoomminus.mouseover" end="zoomminus.mouseout"/>
                        </use>
                        <path d="M-4,0h8" fill="none" stroke="white" stroke-width="1.5" pointer-events="none"/>
                </g>
                <g id="dirArrow">
                        <path fill="none" stroke="white" stroke-width="1.5" d="M0,-3.0v7 M-2.5,-0.5L0,-3.0L2.5,-0.5"/>
                </g>
               <g id="resetDef">
                       <use xlink:href="#rim2" fill="#404040">
                               <set attributeName="fill" to="#808080" begin="reset.mouseover" end="reset.mouseout"/>
                       </use>
               </g>
        </defs>

<script type="text/javascript">
var viewWidth = 1922;
var viewHeight = 339;
var sectionId = 'dynsection-1';
</script>
<script xlink:href="../../svgpan.js"/>
<svg id="graph" class="graph">
<g id="viewport">
<title>/home/travis/build/AliceO2Group/AliceO2/DataFormats/Detectors/FIT/FV0/include/DataFormatsFV0/BCData.h</title>
<!-- Node10 -->
<g id="node1" class="node">
<title>Node10</title>
<polygon fill="#bfbfbf" stroke="#000000" points="1145,-267.5 1145,-330.5 1322,-330.5 1322,-267.5 1145,-267.5"/>
<text text-anchor="start" x="1153" y="-318.5" font-family="Helvetica,sans-Serif" font-size="10.00" fill="#000000">/home/travis/build</text>
<text text-anchor="start" x="1153" y="-307.5" font-family="Helvetica,sans-Serif" font-size="10.00" fill="#000000">/AliceO2Group/AliceO2</text>
<text text-anchor="start" x="1153" y="-296.5" font-family="Helvetica,sans-Serif" font-size="10.00" fill="#000000">/DataFormats/Detectors</text>
<text text-anchor="start" x="1153" y="-285.5" font-family="Helvetica,sans-Serif" font-size="10.00" fill="#000000">/FIT/FV0/include/DataFormatsFV0</text>
<text text-anchor="middle" x="1233.5" y="-274.5" font-family="Helvetica,sans-Serif" font-size="10.00" fill="#000000">/BCData.h</text>
</g>
<!-- Node11 -->
<g id="node2" class="node">
<title>Node11</title>
<g id="a_node2"><a xlink:href="../../d3/de9/FIT_2FV0_2src_2BCData_8cxx.html" target="_top" xlink:title="/home/travis/build\l/AliceO2Group/AliceO2\l/DataFormats/Detectors\l/FIT/FV0/src/BCData.cxx">
<polygon fill="none" stroke="#000000" points="334,-178.5 334,-230.5 467,-230.5 467,-178.5 334,-178.5"/>
<text text-anchor="start" x="342" y="-218.5" font-family="Helvetica,sans-Serif" font-size="10.00" fill="#000000">/home/travis/build</text>
<text text-anchor="start" x="342" y="-207.5" font-family="Helvetica,sans-Serif" font-size="10.00" fill="#000000">/AliceO2Group/AliceO2</text>
<text text-anchor="start" x="342" y="-196.5" font-family="Helvetica,sans-Serif" font-size="10.00" fill="#000000">/DataFormats/Detectors</text>
<text text-anchor="middle" x="400.5" y="-185.5" font-family="Helvetica,sans-Serif" font-size="10.00" fill="#000000">/FIT/FV0/src/BCData.cxx</text>
</a>
</g>
</g>
<!-- Node10&#45;&gt;Node11 -->
<g id="edge1" class="edge">
<title>Node10&#45;&gt;Node11</title>
<path fill="none" stroke="#191970" d="M1134.798,-293.16C959.2078,-282.2669 599.4687,-257.5372 476.5,-231 473.495,-230.3515 470.4452,-229.6188 467.3805,-228.821"/>
<polygon fill="#191970" stroke="#191970" points="1134.6159,-296.6553 1144.8128,-293.7787 1135.0476,-289.6687 1134.6159,-296.6553"/>
</g>
<!-- Node12 -->
<g id="node3" class="node">
<title>Node12</title>
<g id="a_node3"><a xlink:href="../../d5/df7/FIT_2FV0_2reconstruction_2include_2FV0Reconstruction_2CTFCoder_8h.html" target="_top" xlink:title="/home/travis/build\l/AliceO2Group/AliceO2\l/Detectors/FIT/FV0/reconstruction\l/include/FV0Reconstruction/CTFCoder.h">
<polygon fill="none" stroke="#000000" points="485.5,-178.5 485.5,-230.5 691.5,-230.5 691.5,-178.5 485.5,-178.5"/>
<text text-anchor="start" x="493.5" y="-218.5" font-family="Helvetica,sans-Serif" font-size="10.00" fill="#000000">/home/travis/build</text>
<text text-anchor="start" x="493.5" y="-207.5" font-family="Helvetica,sans-Serif" font-size="10.00" fill="#000000">/AliceO2Group/AliceO2</text>
<text text-anchor="start" x="493.5" y="-196.5" font-family="Helvetica,sans-Serif" font-size="10.00" fill="#000000">/Detectors/FIT/FV0/reconstruction</text>
<text text-anchor="middle" x="588.5" y="-185.5" font-family="Helvetica,sans-Serif" font-size="10.00" fill="#000000">/include/FV0Reconstruction/CTFCoder.h</text>
</a>
</g>
</g>
<!-- Node10&#45;&gt;Node12 -->
<g id="edge2" class="edge">
<title>Node10&#45;&gt;Node12</title>
<path fill="none" stroke="#191970" d="M1134.9143,-284.5561C1015.0013,-266.9874 813.5362,-237.4704 691.6128,-219.6072"/>
<polygon fill="#191970" stroke="#191970" points="1134.4288,-288.0222 1144.8306,-286.0089 1135.4436,-281.0961 1134.4288,-288.0222"/>
</g>
<!-- Node21 -->
<g id="node12" class="node">
<title>Node21</title>
<g id="a_node12"><a xlink:href="../../d5/db3/FV0_2reconstruction_2include_2FV0Reconstruction_2ReadRaw_8h.html" target="_top" xlink:title="/home/travis/build\l/AliceO2Group/AliceO2\l/Detectors/FIT/FV0/reconstruction\l/include/FV0Reconstruction/ReadRaw.h">
<polygon fill="none" stroke="#000000" points="848.5,-178.5 848.5,-230.5 1052.5,-230.5 1052.5,-178.5 848.5,-178.5"/>
<text text-anchor="start" x="856.5" y="-218.5" font-family="Helvetica,sans-Serif" font-size="10.00" fill="#000000">/home/travis/build</text>
<text text-anchor="start" x="856.5" y="-207.5" font-family="Helvetica,sans-Serif" font-size="10.00" fill="#000000">/AliceO2Group/AliceO2</text>
<text text-anchor="start" x="856.5" y="-196.5" font-family="Helvetica,sans-Serif" font-size="10.00" fill="#000000">/Detectors/FIT/FV0/reconstruction</text>
<text text-anchor="middle" x="950.5" y="-185.5" font-family="Helvetica,sans-Serif" font-size="10.00" fill="#000000">/include/FV0Reconstruction/ReadRaw.h</text>
</a>
</g>
</g>
<!-- Node10&#45;&gt;Node21 -->
<g id="edge11" class="edge">
<title>Node10&#45;&gt;Node21</title>
<path fill="none" stroke="#191970" d="M1135.0033,-266.1098C1100.1145,-254.4596 1061.3714,-241.5224 1028.4307,-230.5228"/>
<polygon fill="#191970" stroke="#191970" points="1134.1398,-269.5113 1144.7335,-269.3589 1136.3569,-262.8717 1134.1398,-269.5113"/>
</g>
<!-- Node23 -->
<g id="node14" class="node">
<title>Node23</title>
<g id="a_node14"><a xlink:href="../../d6/d82/FIT_2FV0_2simulation_2include_2FV0Simulation_2Digitizer_8h.html" target="_top" xlink:title="/home/travis/build\l/AliceO2Group/AliceO2\l/Detectors/FIT/FV0/simulation\l/include/FV0Simulation/Digitizer.h">
<polygon fill="none" stroke="#000000" points="1084,-178.5 1084,-230.5 1265,-230.5 1265,-178.5 1084,-178.5"/>
<text text-anchor="start" x="1092" y="-218.5" font-family="Helvetica,sans-Serif" font-size="10.00" fill="#000000">/home/travis/build</text>
<text text-anchor="start" x="1092" y="-207.5" font-family="Helvetica,sans-Serif" font-size="10.00" fill="#000000">/AliceO2Group/AliceO2</text>
<text text-anchor="start" x="1092" y="-196.5" font-family="Helvetica,sans-Serif" font-size="10.00" fill="#000000">/Detectors/FIT/FV0/simulation</text>
<text text-anchor="middle" x="1174.5" y="-185.5" font-family="Helvetica,sans-Serif" font-size="10.00" fill="#000000">/include/FV0Simulation/Digitizer.h</text>
</a>
</g>
</g>
<!-- Node10&#45;&gt;Node23 -->
<g id="edge13" class="edge">
<title>Node10&#45;&gt;Node23</title>
<path fill="none" stroke="#191970" d="M1208.3404,-258.702C1202.4116,-249.2058 1196.2436,-239.3266 1190.8228,-230.6442"/>
<polygon fill="#191970" stroke="#191970" points="1205.4248,-260.6411 1213.6897,-267.27 1211.3626,-256.9339 1205.4248,-260.6411"/>
</g>
<!-- Node25 -->
<g id="node16" class="node">
<title>Node25</title>
<g id="a_node16"><a xlink:href="../../d0/d1c/FV0DigitizerSpec_8cxx.html" target="_top" xlink:title="/home/travis/build\l/AliceO2Group/AliceO2\l/Steer/DigitizerWorkflow\l/src/FV0DigitizerSpec.cxx">
<polygon fill="none" stroke="#000000" points="1223.5,-89.5 1223.5,-141.5 1363.5,-141.5 1363.5,-89.5 1223.5,-89.5"/>
<text text-anchor="start" x="1231.5" y="-129.5" font-family="Helvetica,sans-Serif" font-size="10.00" fill="#000000">/home/travis/build</text>
<text text-anchor="start" x="1231.5" y="-118.5" font-family="Helvetica,sans-Serif" font-size="10.00" fill="#000000">/AliceO2Group/AliceO2</text>
<text text-anchor="start" x="1231.5" y="-107.5" font-family="Helvetica,sans-Serif" font-size="10.00" fill="#000000">/Steer/DigitizerWorkflow</text>
<text text-anchor="middle" x="1293.5" y="-96.5" font-family="Helvetica,sans-Serif" font-size="10.00" fill="#000000">/src/FV0DigitizerSpec.cxx</text>
</a>
</g>
</g>
<!-- Node10&#45;&gt;Node25 -->
<g id="edge20" class="edge">
<title>Node10&#45;&gt;Node25</title>
<path fill="none" stroke="#191970" d="M1260.5257,-258.4567C1265.4548,-249.6856 1270.1041,-240.2573 1273.5,-231 1284.2932,-201.5774 1289.3384,-165.7571 1291.6453,-141.8836"/>
<polygon fill="#191970" stroke="#191970" points="1257.3653,-256.9273 1255.3285,-267.3245 1263.4045,-260.4668 1257.3653,-256.9273"/>
</g>
<!-- Node26 -->
<g id="node17" class="node">
<title>Node26</title>
<g id="a_node17"><a xlink:href="../../d6/dc1/FV0_2simulation_2include_2FV0Simulation_2Digits2Raw_8h.html" target="_top" xlink:title="/home/travis/build\l/AliceO2Group/AliceO2\l/Detectors/FIT/FV0/simulation\l/include/FV0Simulation/Digits2Raw.h">
<polygon fill="none" stroke="#000000" points="1342,-178.5 1342,-230.5 1537,-230.5 1537,-178.5 1342,-178.5"/>
<text text-anchor="start" x="1350" y="-218.5" font-family="Helvetica,sans-Serif" font-size="10.00" fill="#000000">/home/travis/build</text>
<text text-anchor="start" x="1350" y="-207.5" font-family="Helvetica,sans-Serif" font-size="10.00" fill="#000000">/AliceO2Group/AliceO2</text>
<text text-anchor="start" x="1350" y="-196.5" font-family="Helvetica,sans-Serif" font-size="10.00" fill="#000000">/Detectors/FIT/FV0/simulation</text>
<text text-anchor="middle" x="1439.5" y="-185.5" font-family="Helvetica,sans-Serif" font-size="10.00" fill="#000000">/include/FV0Simulation/Digits2Raw.h</text>
</a>
</g>
</g>
<!-- Node10&#45;&gt;Node26 -->
<g id="edge16" class="edge">
<title>Node10&#45;&gt;Node26</title>
<path fill="none" stroke="#191970" d="M1311.6742,-263.1385C1335.2868,-252.3065 1360.7504,-240.6254 1382.6883,-230.5617"/>
<polygon fill="#191970" stroke="#191970" points="1310.0113,-260.0506 1302.3814,-267.4015 1312.9301,-266.4131 1310.0113,-260.0506"/>
</g>
<!-- Node29 -->
<g id="node20" class="node">
<title>Node29</title>
<g id="a_node20"><a xlink:href="../../d2/d00/FIT_2FV0_2workflow_2src_2DigitReaderSpec_8cxx.html" target="_top" xlink:title="/home/travis/build\l/AliceO2Group/AliceO2\l/Detectors/FIT/FV0/workflow\l/src/DigitReaderSpec.cxx">
<polygon fill="none" stroke="#000000" points="1555.5,-178.5 1555.5,-230.5 1707.5,-230.5 1707.5,-178.5 1555.5,-178.5"/>
<text text-anchor="start" x="1563.5" y="-218.5" font-family="Helvetica,sans-Serif" font-size="10.00" fill="#000000">/home/travis/build</text>
<text text-anchor="start" x="1563.5" y="-207.5" font-family="Helvetica,sans-Serif" font-size="10.00" fill="#000000">/AliceO2Group/AliceO2</text>
<text text-anchor="start" x="1563.5" y="-196.5" font-family="Helvetica,sans-Serif" font-size="10.00" fill="#000000">/Detectors/FIT/FV0/workflow</text>
<text text-anchor="middle" x="1631.5" y="-185.5" font-family="Helvetica,sans-Serif" font-size="10.00" fill="#000000">/src/DigitReaderSpec.cxx</text>
</a>
</g>
</g>
<!-- Node10&#45;&gt;Node29 -->
<g id="edge19" class="edge">
<title>Node10&#45;&gt;Node29</title>
<path fill="none" stroke="#191970" d="M1332.1701,-279.714C1393.8054,-267.1193 1474.6433,-249.603 1545.5,-231 1548.6733,-230.1669 1551.9048,-229.2921 1555.1634,-228.3881"/>
<polygon fill="#191970" stroke="#191970" points="1331.1613,-276.3474 1322.06,-281.771 1332.557,-283.2069 1331.1613,-276.3474"/>
</g>
<!-- Node30 -->
<g id="node21" class="node">
<title>Node30</title>
<g id="a_node21"><a xlink:href="../../d3/d12/FV0DigitWriterSpec_8h.html" target="_top" xlink:title="/home/travis/build\l/AliceO2Group/AliceO2\l/Steer/DigitizerWorkflow\l/src/FV0DigitWriterSpec.h">
<polygon fill="none" stroke="#000000" points="1740.5,-178.5 1740.5,-230.5 1880.5,-230.5 1880.5,-178.5 1740.5,-178.5"/>
<text text-anchor="start" x="1748.5" y="-218.5" font-family="Helvetica,sans-Serif" font-size="10.00" fill="#000000">/home/travis/build</text>
<text text-anchor="start" x="1748.5" y="-207.5" font-family="Helvetica,sans-Serif" font-size="10.00" fill="#000000">/AliceO2Group/AliceO2</text>
<text text-anchor="start" x="1748.5" y="-196.5" font-family="Helvetica,sans-Serif" font-size="10.00" fill="#000000">/Steer/DigitizerWorkflow</text>
<text text-anchor="middle" x="1810.5" y="-185.5" font-family="Helvetica,sans-Serif" font-size="10.00" fill="#000000">/src/FV0DigitWriterSpec.h</text>
</a>
</g>
</g>
<!-- Node10&#45;&gt;Node30 -->
<g id="edge21" class="edge">
<title>Node10&#45;&gt;Node30</title>
<path fill="none" stroke="#191970" d="M1332.4597,-289.0223C1430.5681,-278.2045 1584.842,-258.694 1716.5,-231 1724.2984,-229.3596 1732.4018,-227.4283 1740.4353,-225.3683"/>
<polygon fill="#191970" stroke="#191970" points="1331.8184,-285.5715 1322.2582,-290.1382 1332.5795,-292.53 1331.8184,-285.5715"/>
</g>
<!-- Node13 -->
<g id="node4" class="node">
<title>Node13</title>
<g id="a_node4"><a xlink:href="../../d7/d64/test__ctf__io__fv0_8cxx.html" target="_top" xlink:title="/home/travis/build\l/AliceO2Group/AliceO2\l/Detectors/CTF/test/test\l_ctf_io_fv0.cxx">
<polygon fill="none" stroke="#000000" points="0,-89.5 0,-141.5 131,-141.5 131,-89.5 0,-89.5"/>
<text text-anchor="start" x="8" y="-129.5" font-family="Helvetica,sans-Serif" font-size="10.00" fill="#000000">/home/travis/build</text>
<text text-anchor="start" x="8" y="-118.5" font-family="Helvetica,sans-Serif" font-size="10.00" fill="#000000">/AliceO2Group/AliceO2</text>
<text text-anchor="start" x="8" y="-107.5" font-family="Helvetica,sans-Serif" font-size="10.00" fill="#000000">/Detectors/CTF/test/test</text>
<text text-anchor="middle" x="65.5" y="-96.5" font-family="Helvetica,sans-Serif" font-size="10.00" fill="#000000">_ctf_io_fv0.cxx</text>
</a>
</g>
</g>
<!-- Node12&#45;&gt;Node13 -->
<g id="edge3" class="edge">
<title>Node12&#45;&gt;Node13</title>
<path fill="none" stroke="#191970" d="M475.8074,-178.0524C475.7049,-178.0349 475.6024,-178.0174 475.5,-178 327.8797,-152.8573 286.5267,-175.1679 140.5,-142 137.4027,-141.2965 134.2565,-140.5055 131.0952,-139.6484"/>
<polygon fill="#191970" stroke="#191970" points="474.9932,-181.4622 485.4539,-179.7819 476.2285,-174.572 474.9932,-181.4622"/>
</g>
<!-- Node14 -->
<g id="node5" class="node">
<title>Node14</title>
<g id="a_node5"><a xlink:href="../../db/d3b/FIT_2FV0_2reconstruction_2src_2CTFCoder_8cxx.html" target="_top" xlink:title="/home/travis/build\l/AliceO2Group/AliceO2\l/Detectors/FIT/FV0/reconstruction\l/src/CTFCoder.cxx">
<polygon fill="none" stroke="#000000" points="149.5,-89.5 149.5,-141.5 327.5,-141.5 327.5,-89.5 149.5,-89.5"/>
<text text-anchor="start" x="157.5" y="-129.5" font-family="Helvetica,sans-Serif" font-size="10.00" fill="#000000">/home/travis/build</text>
<text text-anchor="start" x="157.5" y="-118.5" font-family="Helvetica,sans-Serif" font-size="10.00" fill="#000000">/AliceO2Group/AliceO2</text>
<text text-anchor="start" x="157.5" y="-107.5" font-family="Helvetica,sans-Serif" font-size="10.00" fill="#000000">/Detectors/FIT/FV0/reconstruction</text>
<text text-anchor="middle" x="238.5" y="-96.5" font-family="Helvetica,sans-Serif" font-size="10.00" fill="#000000">/src/CTFCoder.cxx</text>
</a>
</g>
</g>
<!-- Node12&#45;&gt;Node14 -->
<g id="edge4" class="edge">
<title>Node12&#45;&gt;Node14</title>
<path fill="none" stroke="#191970" d="M475.6283,-177.0417C432.098,-166.3117 381.9337,-153.7756 336.5,-142 333.5996,-141.2483 330.6522,-140.4795 327.677,-139.6993"/>
<polygon fill="#191970" stroke="#191970" points="474.8394,-180.4519 485.3862,-179.4441 476.5129,-173.6549 474.8394,-180.4519"/>
</g>
<!-- Node15 -->
<g id="node6" class="node">
<title>Node15</title>
<g id="a_node6"><a xlink:href="../../d0/d18/FIT_2FV0_2workflow_2include_2FV0Workflow_2EntropyDecoderSpec_8h.html" target="_top" xlink:title="/home/travis/build\l/AliceO2Group/AliceO2\l/Detectors/FIT/FV0/workflow\l/include/FV0Workflow/EntropyDecoderSpec.h">
<polygon fill="none" stroke="#000000" points="345.5,-89.5 345.5,-141.5 579.5,-141.5 579.5,-89.5 345.5,-89.5"/>
<text text-anchor="start" x="353.5" y="-129.5" font-family="Helvetica,sans-Serif" font-size="10.00" fill="#000000">/home/travis/build</text>
<text text-anchor="start" x="353.5" y="-118.5" font-family="Helvetica,sans-Serif" font-size="10.00" fill="#000000">/AliceO2Group/AliceO2</text>
<text text-anchor="start" x="353.5" y="-107.5" font-family="Helvetica,sans-Serif" font-size="10.00" fill="#000000">/Detectors/FIT/FV0/workflow</text>
<text text-anchor="middle" x="462.5" y="-96.5" font-family="Helvetica,sans-Serif" font-size="10.00" fill="#000000">/include/FV0Workflow/EntropyDecoderSpec.h</text>
</a>
</g>
</g>
<!-- Node12&#45;&gt;Node15 -->
<g id="edge5" class="edge">
<title>Node12&#45;&gt;Node15</title>
<path fill="none" stroke="#191970" d="M543.099,-172.431C528.7358,-162.2856 513.0458,-151.203 499.3573,-141.5341"/>
<polygon fill="#191970" stroke="#191970" points="541.1901,-175.3678 551.3773,-178.2784 545.2287,-169.6503 541.1901,-175.3678"/>
</g>
<!-- Node18 -->
<g id="node9" class="node">
<title>Node18</title>
<g id="a_node9"><a xlink:href="../../de/de1/FIT_2FV0_2workflow_2include_2FV0Workflow_2EntropyEncoderSpec_8h.html" target="_top" xlink:title="/home/travis/build\l/AliceO2Group/AliceO2\l/Detectors/FIT/FV0/workflow\l/include/FV0Workflow/EntropyEncoderSpec.h">
<polygon fill="none" stroke="#000000" points="598,-89.5 598,-141.5 831,-141.5 831,-89.5 598,-89.5"/>
<text text-anchor="start" x="606" y="-129.5" font-family="Helvetica,sans-Serif" font-size="10.00" fill="#000000">/home/travis/build</text>
<text text-anchor="start" x="606" y="-118.5" font-family="Helvetica,sans-Serif" font-size="10.00" fill="#000000">/AliceO2Group/AliceO2</text>
<text text-anchor="start" x="606" y="-107.5" font-family="Helvetica,sans-Serif" font-size="10.00" fill="#000000">/Detectors/FIT/FV0/workflow</text>
<text text-anchor="middle" x="714.5" y="-96.5" font-family="Helvetica,sans-Serif" font-size="10.00" fill="#000000">/include/FV0Workflow/EntropyEncoderSpec.h</text>
</a>
</g>
</g>
<!-- Node12&#45;&gt;Node18 -->
<g id="edge8" class="edge">
<title>Node12&#45;&gt;Node18</title>
<path fill="none" stroke="#191970" d="M633.901,-172.431C648.2642,-162.2856 663.9542,-151.203 677.6427,-141.5341"/>
<polygon fill="#191970" stroke="#191970" points="631.7713,-169.6503 625.6227,-178.2784 635.8099,-175.3678 631.7713,-169.6503"/>
</g>
<!-- Node16 -->
<g id="node7" class="node">
<title>Node16</title>
<g id="a_node7"><a xlink:href="../../dc/d55/ctf-reader-workflow_8cxx.html" target="_top" xlink:title="/home/travis/build\l/AliceO2Group/AliceO2\l/Detectors/CTF/workflow\l/src/ctf&#45;reader&#45;workflow.cxx">
<polygon fill="none" stroke="#000000" points="230,-.5 230,-52.5 381,-52.5 381,-.5 230,-.5"/>
<text text-anchor="start" x="238" y="-40.5" font-family="Helvetica,sans-Serif" font-size="10.00" fill="#000000">/home/travis/build</text>
<text text-anchor="start" x="238" y="-29.5" font-family="Helvetica,sans-Serif" font-size="10.00" fill="#000000">/AliceO2Group/AliceO2</text>
<text text-anchor="start" x="238" y="-18.5" font-family="Helvetica,sans-Serif" font-size="10.00" fill="#000000">/Detectors/CTF/workflow</text>
<text text-anchor="middle" x="305.5" y="-7.5" font-family="Helvetica,sans-Serif" font-size="10.00" fill="#000000">/src/ctf&#45;reader&#45;workflow.cxx</text>
</a>
</g>
</g>
<!-- Node15&#45;&gt;Node16 -->
<g id="edge6" class="edge">
<title>Node15&#45;&gt;Node16</title>
<path fill="none" stroke="#191970" d="M407.4303,-84.2821C389.1302,-73.9082 368.9598,-62.4741 351.4254,-52.5341"/>
<polygon fill="#191970" stroke="#191970" points="405.8185,-87.3917 416.244,-89.2784 409.2706,-81.3021 405.8185,-87.3917"/>
</g>
<!-- Node17 -->
<g id="node8" class="node">
<title>Node17</title>
<g id="a_node8"><a xlink:href="../../dd/dce/FIT_2FV0_2workflow_2src_2EntropyDecoderSpec_8cxx.html" target="_top" xlink:title="/home/travis/build\l/AliceO2Group/AliceO2\l/Detectors/FIT/FV0/workflow\l/src/EntropyDecoderSpec.cxx">
<polygon fill="none" stroke="#000000" points="399.5,-.5 399.5,-52.5 557.5,-52.5 557.5,-.5 399.5,-.5"/>
<text text-anchor="start" x="407.5" y="-40.5" font-family="Helvetica,sans-Serif" font-size="10.00" fill="#000000">/home/travis/build</text>
<text text-anchor="start" x="407.5" y="-29.5" font-family="Helvetica,sans-Serif" font-size="10.00" fill="#000000">/AliceO2Group/AliceO2</text>
<text text-anchor="start" x="407.5" y="-18.5" font-family="Helvetica,sans-Serif" font-size="10.00" fill="#000000">/Detectors/FIT/FV0/workflow</text>
<text text-anchor="middle" x="478.5" y="-7.5" font-family="Helvetica,sans-Serif" font-size="10.00" fill="#000000">/src/EntropyDecoderSpec.cxx</text>
</a>
</g>
</g>
<!-- Node15&#45;&gt;Node17 -->
<g id="edge7" class="edge">
<title>Node15&#45;&gt;Node17</title>
<path fill="none" stroke="#191970" d="M468.9888,-79.4059C470.6061,-70.4097 472.3089,-60.9379 473.8197,-52.5341"/>
<polygon fill="#191970" stroke="#191970" points="465.5387,-78.8169 467.214,-89.2784 472.4282,-80.0555 465.5387,-78.8169"/>
</g>
<!-- Node19 -->
<g id="node10" class="node">
<title>Node19</title>
<g id="a_node10"><a xlink:href="../../d8/d40/FIT_2FV0_2workflow_2src_2entropy-encoder-workflow_8cxx.html" target="_top" xlink:title="/home/travis/build\l/AliceO2Group/AliceO2\l/Detectors/FIT/FV0/workflow\l/src/entropy&#45;encoder&#45;workflow.cxx">
<polygon fill="none" stroke="#000000" points="606.5,-.5 606.5,-52.5 790.5,-52.5 790.5,-.5 606.5,-.5"/>
<text text-anchor="start" x="614.5" y="-40.5" font-family="Helvetica,sans-Serif" font-size="10.00" fill="#000000">/home/travis/build</text>
<text text-anchor="start" x="614.5" y="-29.5" font-family="Helvetica,sans-Serif" font-size="10.00" fill="#000000">/AliceO2Group/AliceO2</text>
<text text-anchor="start" x="614.5" y="-18.5" font-family="Helvetica,sans-Serif" font-size="10.00" fill="#000000">/Detectors/FIT/FV0/workflow</text>
<text text-anchor="middle" x="698.5" y="-7.5" font-family="Helvetica,sans-Serif" font-size="10.00" fill="#000000">/src/entropy&#45;encoder&#45;workflow.cxx</text>
</a>
</g>
</g>
<!-- Node18&#45;&gt;Node19 -->
<g id="edge9" class="edge">
<title>Node18&#45;&gt;Node19</title>
<path fill="none" stroke="#191970" d="M708.0112,-79.4059C706.3939,-70.4097 704.6911,-60.9379 703.1803,-52.5341"/>
<polygon fill="#191970" stroke="#191970" points="704.5718,-80.0555 709.786,-89.2784 711.4613,-78.8169 704.5718,-80.0555"/>
</g>
<!-- Node20 -->
<g id="node11" class="node">
<title>Node20</title>
<g id="a_node11"><a xlink:href="../../d6/dec/FIT_2FV0_2workflow_2src_2EntropyEncoderSpec_8cxx.html" target="_top" xlink:title="/home/travis/build\l/AliceO2Group/AliceO2\l/Detectors/FIT/FV0/workflow\l/src/EntropyEncoderSpec.cxx">
<polygon fill="none" stroke="#000000" points="809,-.5 809,-52.5 966,-52.5 966,-.5 809,-.5"/>
<text text-anchor="start" x="817" y="-40.5" font-family="Helvetica,sans-Serif" font-size="10.00" fill="#000000">/home/travis/build</text>
<text text-anchor="start" x="817" y="-29.5" font-family="Helvetica,sans-Serif" font-size="10.00" fill="#000000">/AliceO2Group/AliceO2</text>
<text text-anchor="start" x="817" y="-18.5" font-family="Helvetica,sans-Serif" font-size="10.00" fill="#000000">/Detectors/FIT/FV0/workflow</text>
<text text-anchor="middle" x="887.5" y="-7.5" font-family="Helvetica,sans-Serif" font-size="10.00" fill="#000000">/src/EntropyEncoderSpec.cxx</text>
</a>
</g>
</g>
<!-- Node18&#45;&gt;Node20 -->
<g id="edge10" class="edge">
<title>Node18&#45;&gt;Node20</title>
<path fill="none" stroke="#191970" d="M774.6325,-84.5648C794.9427,-74.1162 817.3973,-62.5644 836.8943,-52.5341"/>
<polygon fill="#191970" stroke="#191970" points="772.7612,-81.5914 765.47,-89.2784 775.9634,-87.816 772.7612,-81.5914"/>
</g>
<!-- Node22 -->
<g id="node13" class="node">
<title>Node22</title>
<g id="a_node13"><a xlink:href="../../d6/d62/FV0_2reconstruction_2src_2ReadRaw_8cxx.html" target="_top" xlink:title="/home/travis/build\l/AliceO2Group/AliceO2\l/Detectors/FIT/FV0/reconstruction\l/src/ReadRaw.cxx">
<polygon fill="none" stroke="#000000" points="849.5,-89.5 849.5,-141.5 1027.5,-141.5 1027.5,-89.5 849.5,-89.5"/>
<text text-anchor="start" x="857.5" y="-129.5" font-family="Helvetica,sans-Serif" font-size="10.00" fill="#000000">/home/travis/build</text>
<text text-anchor="start" x="857.5" y="-118.5" font-family="Helvetica,sans-Serif" font-size="10.00" fill="#000000">/AliceO2Group/AliceO2</text>
<text text-anchor="start" x="857.5" y="-107.5" font-family="Helvetica,sans-Serif" font-size="10.00" fill="#000000">/Detectors/FIT/FV0/reconstruction</text>
<text text-anchor="middle" x="938.5" y="-96.5" font-family="Helvetica,sans-Serif" font-size="10.00" fill="#000000">/src/ReadRaw.cxx</text>
</a>
</g>
</g>
<!-- Node21&#45;&gt;Node22 -->
<g id="edge12" class="edge">
<title>Node21&#45;&gt;Node22</title>
<path fill="none" stroke="#191970" d="M945.5942,-168.1155C944.393,-159.2061 943.1311,-149.8475 942.0102,-141.5341"/>
<polygon fill="#191970" stroke="#191970" points="942.1596,-168.8358 946.9645,-178.2784 949.0968,-167.9004 942.1596,-168.8358"/>
</g>
<!-- Node24 -->
<g id="node15" class="node">
<title>Node24</title>
<g id="a_node15"><a xlink:href="../../da/d9b/FIT_2FV0_2simulation_2src_2Digitizer_8cxx.html" target="_top" xlink:title="/home/travis/build\l/AliceO2Group/AliceO2\l/Detectors/FIT/FV0/simulation\l/src/Digitizer.cxx">
<polygon fill="none" stroke="#000000" points="1045.5,-89.5 1045.5,-141.5 1205.5,-141.5 1205.5,-89.5 1045.5,-89.5"/>
<text text-anchor="start" x="1053.5" y="-129.5" font-family="Helvetica,sans-Serif" font-size="10.00" fill="#000000">/home/travis/build</text>
<text text-anchor="start" x="1053.5" y="-118.5" font-family="Helvetica,sans-Serif" font-size="10.00" fill="#000000">/AliceO2Group/AliceO2</text>
<text text-anchor="start" x="1053.5" y="-107.5" font-family="Helvetica,sans-Serif" font-size="10.00" fill="#000000">/Detectors/FIT/FV0/simulation</text>
<text text-anchor="middle" x="1125.5" y="-96.5" font-family="Helvetica,sans-Serif" font-size="10.00" fill="#000000">/src/Digitizer.cxx</text>
</a>
</g>
</g>
<!-- Node23&#45;&gt;Node24 -->
<g id="edge14" class="edge">
<title>Node23&#45;&gt;Node24</title>
<path fill="none" stroke="#191970" d="M1155.1064,-169.2749C1150.0121,-160.0219 1144.6094,-150.209 1139.8334,-141.5341"/>
<polygon fill="#191970" stroke="#191970" points="1152.1744,-171.2064 1160.0634,-178.2784 1158.3064,-167.8303 1152.1744,-171.2064"/>
</g>
<!-- Node23&#45;&gt;Node25 -->
<g id="edge15" class="edge">
<title>Node23&#45;&gt;Node25</title>
<path fill="none" stroke="#191970" d="M1217.7594,-172.1463C1231.2208,-162.0786 1245.8832,-151.1126 1258.6903,-141.5341"/>
<polygon fill="#191970" stroke="#191970" points="1215.4721,-169.4863 1209.5603,-178.2784 1219.6646,-175.092 1215.4721,-169.4863"/>
</g>
<!-- Node27 -->
<g id="node18" class="node">
<title>Node27</title>
<g id="a_node18"><a xlink:href="../../d7/d4a/FIT_2FV0_2simulation_2src_2digit2raw_8cxx.html" target="_top" xlink:title="/home/travis/build\l/AliceO2Group/AliceO2\l/Detectors/FIT/FV0/simulation\l/src/digit2raw.cxx">
<polygon fill="none" stroke="#000000" points="1381.5,-89.5 1381.5,-141.5 1541.5,-141.5 1541.5,-89.5 1381.5,-89.5"/>
<text text-anchor="start" x="1389.5" y="-129.5" font-family="Helvetica,sans-Serif" font-size="10.00" fill="#000000">/home/travis/build</text>
<text text-anchor="start" x="1389.5" y="-118.5" font-family="Helvetica,sans-Serif" font-size="10.00" fill="#000000">/AliceO2Group/AliceO2</text>
<text text-anchor="start" x="1389.5" y="-107.5" font-family="Helvetica,sans-Serif" font-size="10.00" fill="#000000">/Detectors/FIT/FV0/simulation</text>
<text text-anchor="middle" x="1461.5" y="-96.5" font-family="Helvetica,sans-Serif" font-size="10.00" fill="#000000">/src/digit2raw.cxx</text>
</a>
</g>
</g>
<!-- Node26&#45;&gt;Node27 -->
<g id="edge17" class="edge">
<title>Node26&#45;&gt;Node27</title>
<path fill="none" stroke="#191970" d="M1448.4221,-168.4059C1450.6459,-159.4097 1452.9873,-149.9379 1455.0646,-141.5341"/>
<polygon fill="#191970" stroke="#191970" points="1444.9838,-167.7307 1445.9817,-178.2784 1451.7792,-169.4105 1444.9838,-167.7307"/>
</g>
<!-- Node28 -->
<g id="node19" class="node">
<title>Node28</title>
<g id="a_node19"><a xlink:href="../../d5/da7/FV0_2simulation_2src_2Digits2Raw_8cxx.html" target="_top" xlink:title="/home/travis/build\l/AliceO2Group/AliceO2\l/Detectors/FIT/FV0/simulation\l/src/Digits2Raw.cxx">
<polygon fill="none" stroke="#000000" points="1559.5,-89.5 1559.5,-141.5 1719.5,-141.5 1719.5,-89.5 1559.5,-89.5"/>
<text text-anchor="start" x="1567.5" y="-129.5" font-family="Helvetica,sans-Serif" font-size="10.00" fill="#000000">/home/travis/build</text>
<text text-anchor="start" x="1567.5" y="-118.5" font-family="Helvetica,sans-Serif" font-size="10.00" fill="#000000">/AliceO2Group/AliceO2</text>
<text text-anchor="start" x="1567.5" y="-107.5" font-family="Helvetica,sans-Serif" font-size="10.00" fill="#000000">/Detectors/FIT/FV0/simulation</text>
<text text-anchor="middle" x="1639.5" y="-96.5" font-family="Helvetica,sans-Serif" font-size="10.00" fill="#000000">/src/Digits2Raw.cxx</text>
</a>
</g>
</g>
<!-- Node26&#45;&gt;Node28 -->
<g id="edge18" class="edge">
<title>Node26&#45;&gt;Node28</title>
<path fill="none" stroke="#191970" d="M1507.4857,-174.2464C1531.3121,-163.6436 1557.8493,-151.8346 1580.8458,-141.6011"/>
<polygon fill="#191970" stroke="#191970" points="1505.8685,-171.1351 1498.1552,-178.3984 1508.7145,-177.5304 1505.8685,-171.1351"/>
</g>
<!-- Node31 -->
<g id="node22" class="node">
<title>Node31</title>
<g id="a_node22"><a xlink:href="../../d2/dd7/SimpleDigitizerWorkflow_8cxx.html" target="_top" xlink:title="/home/travis/build\l/AliceO2Group/AliceO2\l/Steer/DigitizerWorkflow\l/src/SimpleDigitizerWorkflow.cxx">
<polygon fill="none" stroke="#000000" points="1737.5,-89.5 1737.5,-141.5 1913.5,-141.5 1913.5,-89.5 1737.5,-89.5"/>
<text text-anchor="start" x="1745.5" y="-129.5" font-family="Helvetica,sans-Serif" font-size="10.00" fill="#000000">/home/travis/build</text>
<text text-anchor="start" x="1745.5" y="-118.5" font-family="Helvetica,sans-Serif" font-size="10.00" fill="#000000">/AliceO2Group/AliceO2</text>
<text text-anchor="start" x="1745.5" y="-107.5" font-family="Helvetica,sans-Serif" font-size="10.00" fill="#000000">/Steer/DigitizerWorkflow</text>
<text text-anchor="middle" x="1825.5" y="-96.5" font-family="Helvetica,sans-Serif" font-size="10.00" fill="#000000">/src/SimpleDigitizerWorkflow.cxx</text>
</a>
</g>
</g>
<!-- Node30&#45;&gt;Node31 -->
<g id="edge22" class="edge">
<title>Node30&#45;&gt;Node31</title>
<path fill="none" stroke="#191970" d="M1816.5833,-168.4059C1818.0995,-159.4097 1819.6959,-149.9379 1821.1122,-141.5341"/>
<polygon fill="#191970" stroke="#191970" points="1813.1301,-167.8358 1814.9194,-178.2784 1820.0327,-168.9992 1813.1301,-167.8358"/>
</g>
</g>
</svg>
        <g id="navigator" transform="translate(0 0)" fill="#404254">
                <rect fill="#f2f5e9" fill-opacity="0.5" stroke="#606060" stroke-width=".5" x="0" y="0" width="60" height="60"/>
                <use id="zoomplus" xlink:href="#zoomPlus" x="17" y="9" onmousedown="handleZoom(evt,'in')"/>
                <use id="zoomminus" xlink:href="#zoomMin" x="42" y="9" onmousedown="handleZoom(evt,'out')"/>
                <use id="reset" xlink:href="#resetDef" x="30" y="36" onmousedown="handleReset()"/>
                <g id="arrowUp" xlink:href="#dirArrow" transform="translate(30 24)" onmousedown="handlePan(0,-1)">
                  <use xlink:href="#rim" fill="#404040">
                        <set attributeName="fill" to="#808080" begin="arrowUp.mouseover" end="arrowUp.mouseout"/>
                  </use>
                  <path fill="none" stroke="white" stroke-width="1.5" d="M0,-3.0v7 M-2.5,-0.5L0,-3.0L2.5,-0.5"/>
                </g>
                <g id="arrowRight" xlink:href="#dirArrow" transform="rotate(90) translate(36 -43)" onmousedown="handlePan(1,0)">
                  <use xlink:href="#rim" fill="#404040">
                        <set attributeName="fill" to="#808080" begin="arrowRight.mouseover" end="arrowRight.mouseout"/>
                  </use>
                  <path fill="none" stroke="white" stroke-width="1.5" d="M0,-3.0v7 M-2.5,-0.5L0,-3.0L2.5,-0.5"/>
                </g>
                <g id="arrowDown" xlink:href="#dirArrow" transform="rotate(180) translate(-30 -48)" onmousedown="handlePan(0,1)">
                  <use xlink:href="#rim" fill="#404040">
                        <set attributeName="fill" to="#808080" begin="arrowDown.mouseover" end="arrowDown.mouseout"/>
                  </use>
                  <path fill="none" stroke="white" stroke-width="1.5" d="M0,-3.0v7 M-2.5,-0.5L0,-3.0L2.5,-0.5"/>
                </g>
                <g id="arrowLeft" xlink:href="#dirArrow" transform="rotate(270) translate(-36 17)" onmousedown="handlePan(-1,0)">
                  <use xlink:href="#rim" fill="#404040">
                        <set attributeName="fill" to="#808080" begin="arrowLeft.mouseover" end="arrowLeft.mouseout"/>
                  </use>
                  <path fill="none" stroke="white" stroke-width="1.5" d="M0,-3.0v7 M-2.5,-0.5L0,-3.0L2.5,-0.5"/>
                </g>
        </g>
        <svg viewBox="0 0 15 15" width="100%" height="30px" preserveAspectRatio="xMaxYMin meet">
         <g id="arrow_out" transform="scale(0.3 0.3)">
          <a xlink:href="FIT_2FV0_2include_2DataFormatsFV0_2BCData_8h__dep__incl_org.svg" target="_base">
           <rect id="button" ry="5" rx="5" y="6" x="6" height="38" width="38"
                fill="#f2f5e9" fill-opacity="0.5" stroke="#606060" stroke-width="1.0"/>
           <path id="arrow"
             d="M 11.500037,31.436501 C 11.940474,20.09759 22.043105,11.32322 32.158766,21.979434 L 37.068811,17.246167 C 37.068811,17.246167 37.088388,32 37.088388,32 L 22.160133,31.978069 C 22.160133,31.978069 26.997745,27.140456 26.997745,27.140456 C 18.528582,18.264221 13.291696,25.230495 11.500037,31.436501 z"
             style="fill:#404040;"/>
          </a>
         </g>
        </svg>
</svg>
