<?xml version="1.0" encoding="UTF-8" standalone="no"?>
<!DOCTYPE svg PUBLIC "-//W3C//DTD SVG 1.1//EN"
 "http://www.w3.org/Graphics/SVG/1.1/DTD/svg11.dtd">
<!-- Generated by graphviz version 2.40.1 (20161225.0304)
 -->
<!-- Title: /home/travis/build/AliceO2Group/AliceO2/Detectors/TPC/simulation/include/TPCSimulation/Detector.h Pages: 1 -->
<svg width="822pt" height="239pt"
 viewBox="0.00 0.00 822.00 239.00" xmlns="http://www.w3.org/2000/svg" xmlns:xlink="http://www.w3.org/1999/xlink">
<g id="graph0" class="graph" transform="scale(1 1) rotate(0) translate(4 235)">
<title>/home/travis/build/AliceO2Group/AliceO2/Detectors/TPC/simulation/include/TPCSimulation/Detector.h</title>
<!-- Node44 -->
<g id="node1" class="node">
<title>Node44</title>
<polygon fill="#bfbfbf" stroke="#000000" points="328,-178.5 328,-230.5 510,-230.5 510,-178.5 328,-178.5"/>
<text text-anchor="start" x="336" y="-218.5" font-family="Helvetica,sans-Serif" font-size="10.00" fill="#000000">/home/travis/build</text>
<text text-anchor="start" x="336" y="-207.5" font-family="Helvetica,sans-Serif" font-size="10.00" fill="#000000">/AliceO2Group/AliceO2</text>
<text text-anchor="start" x="336" y="-196.5" font-family="Helvetica,sans-Serif" font-size="10.00" fill="#000000">/Detectors/TPC/simulation</text>
<text text-anchor="middle" x="419" y="-185.5" font-family="Helvetica,sans-Serif" font-size="10.00" fill="#000000">/include/TPCSimulation/Detector.h</text>
</g>
<!-- Node45 -->
<g id="node2" class="node">
<title>Node45</title>
<g id="a_node2"><a xlink:href="../../d4/dca/BetheBloch_8h.html" target="_top" xlink:title="Implementation for the TPC PID response of the BB parametrization. ">
<polygon fill="none" stroke="#000000" points="11.5,-89.5 11.5,-141.5 166.5,-141.5 166.5,-89.5 11.5,-89.5"/>
<text text-anchor="start" x="19.5" y="-129.5" font-family="Helvetica,sans-Serif" font-size="10.00" fill="#000000">/home/travis/build</text>
<text text-anchor="start" x="19.5" y="-118.5" font-family="Helvetica,sans-Serif" font-size="10.00" fill="#000000">/AliceO2Group/AliceO2</text>
<text text-anchor="start" x="19.5" y="-107.5" font-family="Helvetica,sans-Serif" font-size="10.00" fill="#000000">/Analysis/DataModel/include</text>
<text text-anchor="middle" x="89" y="-96.5" font-family="Helvetica,sans-Serif" font-size="10.00" fill="#000000">/PID/BetheBloch.h</text>
</a>
</g>
</g>
<!-- Node44&#45;&gt;Node45 -->
<g id="edge1" class="edge">
<title>Node44&#45;&gt;Node45</title>
<path fill="none" stroke="#191970" d="M317.9173,-179.7683C273.8864,-168.6962 221.7584,-155.1843 175,-142 172.2933,-141.2368 169.5421,-140.4499 166.766,-139.6465"/>
<polygon fill="#191970" stroke="#191970" points="317.2117,-183.1997 327.7627,-182.2374 318.9145,-176.4099 317.2117,-183.1997"/>
</g>
<!-- Node47 -->
<g id="node4" class="node">
<title>Node47</title>
<g id="a_node4"><a xlink:href="../../d2/d2c/TPC_2simulation_2src_2Detector_8cxx.html" target="_top" xlink:title="/home/travis/build\l/AliceO2Group/AliceO2\l/Detectors/TPC/simulation\l/src/Detector.cxx">
<polygon fill="none" stroke="#000000" points="184.5,-89.5 184.5,-141.5 327.5,-141.5 327.5,-89.5 184.5,-89.5"/>
<text text-anchor="start" x="192.5" y="-129.5" font-family="Helvetica,sans-Serif" font-size="10.00" fill="#000000">/home/travis/build</text>
<text text-anchor="start" x="192.5" y="-118.5" font-family="Helvetica,sans-Serif" font-size="10.00" fill="#000000">/AliceO2Group/AliceO2</text>
<text text-anchor="start" x="192.5" y="-107.5" font-family="Helvetica,sans-Serif" font-size="10.00" fill="#000000">/Detectors/TPC/simulation</text>
<text text-anchor="middle" x="256" y="-96.5" font-family="Helvetica,sans-Serif" font-size="10.00" fill="#000000">/src/Detector.cxx</text>
</a>
</g>
</g>
<!-- Node44&#45;&gt;Node47 -->
<g id="edge3" class="edge">
<title>Node44&#45;&gt;Node47</title>
<path fill="none" stroke="#191970" d="M362.0847,-173.4235C343.0167,-163.0122 321.9678,-151.5192 303.6805,-141.5341"/>
<polygon fill="#191970" stroke="#191970" points="360.522,-176.558 370.9762,-178.2784 363.8766,-170.4142 360.522,-176.558"/>
</g>
<!-- Node48 -->
<g id="node5" class="node">
<title>Node48</title>
<g id="a_node5"><a xlink:href="../../d7/d11/o2__sim__tpc_8cxx.html" target="_top" xlink:title="/home/travis/build\l/AliceO2Group/AliceO2\l/Framework/TestWorkflows\l/src/o2_sim_tpc.cxx">
<polygon fill="none" stroke="#000000" points="346,-89.5 346,-141.5 492,-141.5 492,-89.5 346,-89.5"/>
<text text-anchor="start" x="354" y="-129.5" font-family="Helvetica,sans-Serif" font-size="10.00" fill="#000000">/home/travis/build</text>
<text text-anchor="start" x="354" y="-118.5" font-family="Helvetica,sans-Serif" font-size="10.00" fill="#000000">/AliceO2Group/AliceO2</text>
<text text-anchor="start" x="354" y="-107.5" font-family="Helvetica,sans-Serif" font-size="10.00" fill="#000000">/Framework/TestWorkflows</text>
<text text-anchor="middle" x="419" y="-96.5" font-family="Helvetica,sans-Serif" font-size="10.00" fill="#000000">/src/o2_sim_tpc.cxx</text>
</a>
</g>
</g>
<!-- Node44&#45;&gt;Node48 -->
<g id="edge4" class="edge">
<title>Node44&#45;&gt;Node48</title>
<path fill="none" stroke="#191970" d="M419,-168.1155C419,-159.2061 419,-149.8475 419,-141.5341"/>
<polygon fill="#191970" stroke="#191970" points="415.5001,-168.2784 419,-178.2784 422.5001,-168.2785 415.5001,-168.2784"/>
</g>
<!-- Node49 -->
<g id="node6" class="node">
<title>Node49</title>
<g id="a_node6"><a xlink:href="../../db/d50/O2HitMerger_8h.html" target="_top" xlink:title="/home/travis/build\l/AliceO2Group/AliceO2\l/run/O2HitMerger.h">
<polygon fill="none" stroke="#000000" points="510.5,-95 510.5,-136 637.5,-136 637.5,-95 510.5,-95"/>
<text text-anchor="start" x="518.5" y="-124" font-family="Helvetica,sans-Serif" font-size="10.00" fill="#000000">/home/travis/build</text>
<text text-anchor="start" x="518.5" y="-113" font-family="Helvetica,sans-Serif" font-size="10.00" fill="#000000">/AliceO2Group/AliceO2</text>
<text text-anchor="middle" x="574" y="-102" font-family="Helvetica,sans-Serif" font-size="10.00" fill="#000000">/run/O2HitMerger.h</text>
</a>
</g>
</g>
<!-- Node44&#45;&gt;Node49 -->
<g id="edge5" class="edge">
<title>Node44&#45;&gt;Node49</title>
<path fill="none" stroke="#191970" d="M473.3867,-173.2715C494.8909,-160.9239 519.0084,-147.0758 538.2392,-136.0336"/>
<polygon fill="#191970" stroke="#191970" points="471.596,-170.2637 464.6668,-178.2784 475.0817,-176.3342 471.596,-170.2637"/>
</g>
<!-- Node51 -->
<g id="node8" class="node">
<title>Node51</title>
<g id="a_node8"><a xlink:href="../../d2/d0b/TPCDigitizerSpec_8cxx.html" target="_top" xlink:title="/home/travis/build\l/AliceO2Group/AliceO2\l/Steer/DigitizerWorkflow\l/src/TPCDigitizerSpec.cxx">
<polygon fill="none" stroke="#000000" points="674,-89.5 674,-141.5 814,-141.5 814,-89.5 674,-89.5"/>
<text text-anchor="start" x="682" y="-129.5" font-family="Helvetica,sans-Serif" font-size="10.00" fill="#000000">/home/travis/build</text>
<text text-anchor="start" x="682" y="-118.5" font-family="Helvetica,sans-Serif" font-size="10.00" fill="#000000">/AliceO2Group/AliceO2</text>
<text text-anchor="start" x="682" y="-107.5" font-family="Helvetica,sans-Serif" font-size="10.00" fill="#000000">/Steer/DigitizerWorkflow</text>
<text text-anchor="middle" x="744" y="-96.5" font-family="Helvetica,sans-Serif" font-size="10.00" fill="#000000">/src/TPCDigitizerSpec.cxx</text>
</a>
</g>
</g>
<!-- Node44&#45;&gt;Node51 -->
<g id="edge8" class="edge">
<title>Node44&#45;&gt;Node51</title>
<path fill="none" stroke="#191970" d="M520.2468,-180.587C564.8449,-169.5884 617.7415,-155.9084 665,-142 667.9143,-141.1423 670.8821,-140.247 673.875,-139.326"/>
<polygon fill="#191970" stroke="#191970" points="519.1531,-177.2515 510.2764,-183.0354 520.8226,-184.0495 519.1531,-177.2515"/>
</g>
<!-- Node46 -->
<g id="node3" class="node">
<title>Node46</title>
<g id="a_node3"><a xlink:href="../../d1/dc6/handleParamTPCBetheBloch_8cxx.html" target="_top" xlink:title="A simple tool to produce Bethe Bloch parametrization objects for the TPC PID Response. ">
<polygon fill="none" stroke="#000000" points="0,-.5 0,-52.5 178,-52.5 178,-.5 0,-.5"/>
<text text-anchor="start" x="8" y="-40.5" font-family="Helvetica,sans-Serif" font-size="10.00" fill="#000000">/home/travis/build</text>
<text text-anchor="start" x="8" y="-29.5" font-family="Helvetica,sans-Serif" font-size="10.00" fill="#000000">/AliceO2Group/AliceO2</text>
<text text-anchor="start" x="8" y="-18.5" font-family="Helvetica,sans-Serif" font-size="10.00" fill="#000000">/Analysis/DataModel/src</text>
<text text-anchor="middle" x="89" y="-7.5" font-family="Helvetica,sans-Serif" font-size="10.00" fill="#000000">/handleParamTPCBetheBloch.cxx</text>
</a>
</g>
</g>
<!-- Node45&#45;&gt;Node46 -->
<g id="edge2" class="edge">
<title>Node45&#45;&gt;Node46</title>
<path fill="none" stroke="#191970" d="M89,-79.1155C89,-70.2061 89,-60.8475 89,-52.5341"/>
<polygon fill="#191970" stroke="#191970" points="85.5001,-79.2784 89,-89.2784 92.5001,-79.2785 85.5001,-79.2784"/>
</g>
<!-- Node49&#45;&gt;Node49 -->
<g id="edge6" class="edge">
<title>Node49&#45;&gt;Node49</title>
<path fill="none" stroke="#191970" d="M647.1757,-127.5715C652.3451,-124.8251 655.5,-120.8013 655.5,-115.5 655.5,-107.4219 648.1744,-102.3099 637.558,-100.1642"/>
<polygon fill="#191970" stroke="#191970" points="645.9026,-124.3075 637.558,-130.8358 648.1524,-130.9361 645.9026,-124.3075"/>
</g>
<!-- Node50 -->
<g id="node7" class="node">
<title>Node50</title>
<g id="a_node7"><a xlink:href="../../d9/d16/O2HitMergerRunner_8cxx.html" target="_top" xlink:title="/home/travis/build\l/AliceO2Group/AliceO2\l/run/O2HitMergerRunner.cxx">
<polygon fill="none" stroke="#000000" points="497.5,-6 497.5,-47 650.5,-47 650.5,-6 497.5,-6"/>
<text text-anchor="start" x="505.5" y="-35" font-family="Helvetica,sans-Serif" font-size="10.00" fill="#000000">/home/travis/build</text>
<text text-anchor="start" x="505.5" y="-24" font-family="Helvetica,sans-Serif" font-size="10.00" fill="#000000">/AliceO2Group/AliceO2</text>
<text text-anchor="middle" x="574" y="-13" font-family="Helvetica,sans-Serif" font-size="10.00" fill="#000000">/run/O2HitMergerRunner.cxx</text>
</a>
</g>
</g>
<!-- Node49&#45;&gt;Node50 -->
<g id="edge7" class="edge">
<title>Node49&#45;&gt;Node50</title>
<path fill="none" stroke="#191970" d="M574,-84.844C574,-72.3522 574,-58.2439 574,-47.0301"/>
<polygon fill="#191970" stroke="#191970" points="570.5001,-84.8579 574,-94.8579 577.5001,-84.8579 570.5001,-84.8579"/>
</g>
</g>
</svg>
