<?xml version="1.0" encoding="UTF-8" standalone="no"?>
<!DOCTYPE svg PUBLIC "-//W3C//DTD SVG 1.1//EN"
 "http://www.w3.org/Graphics/SVG/1.1/DTD/svg11.dtd">
<!-- Generated by graphviz version 2.40.1 (20161225.0304)
 -->
<!-- Title: /home/travis/build/AliceO2Group/AliceO2/Utilities/rANS/src/FrequencyTable.cxx Pages: 1 -->
<svg width="809pt" height="229pt"
 viewBox="0.00 0.00 809.00 229.00" xmlns="http://www.w3.org/2000/svg" xmlns:xlink="http://www.w3.org/1999/xlink">
<g id="graph0" class="graph" transform="scale(1 1) rotate(0) translate(4 225)">
<title>/home/travis/build/AliceO2Group/AliceO2/Utilities/rANS/src/FrequencyTable.cxx</title>
<!-- Node0 -->
<g id="node1" class="node">
<title>Node0</title>
<polygon fill="#bfbfbf" stroke="#000000" points="253.5,-168.5 253.5,-220.5 408.5,-220.5 408.5,-168.5 253.5,-168.5"/>
<text text-anchor="start" x="261.5" y="-208.5" font-family="Helvetica,sans-Serif" font-size="10.00" fill="#000000">/home/travis/build</text>
<text text-anchor="start" x="261.5" y="-197.5" font-family="Helvetica,sans-Serif" font-size="10.00" fill="#000000">/AliceO2Group/AliceO2</text>
<text text-anchor="start" x="261.5" y="-186.5" font-family="Helvetica,sans-Serif" font-size="10.00" fill="#000000">/Utilities/rANS/src/Frequency</text>
<text text-anchor="middle" x="331" y="-175.5" font-family="Helvetica,sans-Serif" font-size="10.00" fill="#000000">Table.cxx</text>
</g>
<!-- Node1 -->
<g id="node2" class="node">
<title>Node1</title>
<g id="a_node2"><a xlink:href="../../dd/d65/FrequencyTable_8h.html" target="_top" xlink:title="Histogram to depict frequencies of source symbols for rANS compression. ">
<polygon fill="none" stroke="#000000" points="267,-112.5 267,-131.5 395,-131.5 395,-112.5 267,-112.5"/>
<text text-anchor="middle" x="331" y="-119.5" font-family="Helvetica,sans-Serif" font-size="10.00" fill="#000000">rANS/FrequencyTable.h</text>
</a>
</g>
</g>
<!-- Node0&#45;&gt;Node1 -->
<g id="edge1" class="edge">
<title>Node0&#45;&gt;Node1</title>
<path fill="none" stroke="#191970" d="M331,-168.3258C331,-159.5142 331,-149.8397 331,-141.621"/>
<polygon fill="#191970" stroke="#191970" points="334.5001,-141.534 331,-131.534 327.5001,-141.534 334.5001,-141.534"/>
</g>
<!-- Node2 -->
<g id="node3" class="node">
<title>Node2</title>
<polygon fill="none" stroke="#bfbfbf" points="0,-56.5 0,-75.5 64,-75.5 64,-56.5 0,-56.5"/>
<text text-anchor="middle" x="32" y="-63.5" font-family="Helvetica,sans-Serif" font-size="10.00" fill="#000000">algorithm</text>
</g>
<!-- Node1&#45;&gt;Node2 -->
<g id="edge2" class="edge">
<title>Node1&#45;&gt;Node2</title>
<path fill="none" stroke="#191970" d="M271.36,-112.4583C221.1885,-104.1828 147.3471,-91.4247 74.0523,-76.1279"/>
<polygon fill="#191970" stroke="#191970" points="74.6917,-72.6859 64.1854,-74.0523 73.2507,-79.536 74.6917,-72.6859"/>
</g>
<!-- Node3 -->
<g id="node4" class="node">
<title>Node3</title>
<polygon fill="none" stroke="#bfbfbf" points="82,-56.5 82,-75.5 134,-75.5 134,-56.5 82,-56.5"/>
<text text-anchor="middle" x="108" y="-63.5" font-family="Helvetica,sans-Serif" font-size="10.00" fill="#000000">cassert</text>
</g>
<!-- Node1&#45;&gt;Node3 -->
<g id="edge3" class="edge">
<title>Node1&#45;&gt;Node3</title>
<path fill="none" stroke="#191970" d="M292.9183,-112.4369C251.1752,-101.9543 184.7182,-85.2656 143.8725,-75.0083"/>
<polygon fill="#191970" stroke="#191970" points="144.6218,-71.5879 134.0704,-72.5468 142.9168,-78.3771 144.6218,-71.5879"/>
</g>
<!-- Node4 -->
<g id="node5" class="node">
<title>Node4</title>
<polygon fill="none" stroke="#bfbfbf" points="394.5,-.5 394.5,-19.5 441.5,-19.5 441.5,-.5 394.5,-.5"/>
<text text-anchor="middle" x="418" y="-7.5" font-family="Helvetica,sans-Serif" font-size="10.00" fill="#000000">cmath</text>
</g>
<!-- Node1&#45;&gt;Node4 -->
<g id="edge4" class="edge">
<title>Node1&#45;&gt;Node4</title>
<path fill="none" stroke="#191970" d="M266.7848,-115.253C214.2454,-107.1518 152.8543,-90.1338 181,-56 206.3535,-25.2524 324.8156,-14.8027 384.0689,-11.4615"/>
<polygon fill="#191970" stroke="#191970" points="384.6059,-14.9381 394.408,-10.917 384.2378,-7.9478 384.6059,-14.9381"/>
</g>
<!-- Node5 -->
<g id="node6" class="node">
<title>Node5</title>
<polygon fill="none" stroke="#bfbfbf" points="190,-56.5 190,-75.5 250,-75.5 250,-56.5 190,-56.5"/>
<text text-anchor="middle" x="220" y="-63.5" font-family="Helvetica,sans-Serif" font-size="10.00" fill="#000000">iostream</text>
</g>
<!-- Node1&#45;&gt;Node5 -->
<g id="edge5" class="edge">
<title>Node1&#45;&gt;Node5</title>
<path fill="none" stroke="#191970" d="M311.9184,-112.3733C294.2598,-103.4644 267.7947,-90.1127 247.7902,-80.0203"/>
<polygon fill="#191970" stroke="#191970" points="249.3372,-76.8806 238.8326,-75.5011 246.1842,-83.1303 249.3372,-76.8806"/>
</g>
<!-- Node6 -->
<g id="node7" class="node">
<title>Node6</title>
<polygon fill="none" stroke="#bfbfbf" points="268.5,-56.5 268.5,-75.5 321.5,-75.5 321.5,-56.5 268.5,-56.5"/>
<text text-anchor="middle" x="295" y="-63.5" font-family="Helvetica,sans-Serif" font-size="10.00" fill="#000000">iterator</text>
</g>
<!-- Node1&#45;&gt;Node6 -->
<g id="edge6" class="edge">
<title>Node1&#45;&gt;Node6</title>
<path fill="none" stroke="#191970" d="M324.7293,-112.2455C319.7736,-104.5367 312.717,-93.5598 306.7224,-84.2348"/>
<polygon fill="#191970" stroke="#191970" points="309.5506,-82.1618 301.1989,-75.6427 303.6624,-85.9471 309.5506,-82.1618"/>
</g>
<!-- Node7 -->
<g id="node8" class="node">
<title>Node7</title>
<polygon fill="none" stroke="#bfbfbf" points="340,-56.5 340,-75.5 396,-75.5 396,-56.5 340,-56.5"/>
<text text-anchor="middle" x="368" y="-63.5" font-family="Helvetica,sans-Serif" font-size="10.00" fill="#000000">numeric</text>
</g>
<!-- Node1&#45;&gt;Node7 -->
<g id="edge7" class="edge">
<title>Node1&#45;&gt;Node7</title>
<path fill="none" stroke="#191970" d="M337.4449,-112.2455C342.5382,-104.5367 349.7908,-93.5598 355.952,-84.2348"/>
<polygon fill="#191970" stroke="#191970" points="359.0365,-85.9155 361.6289,-75.6427 353.1962,-82.0566 359.0365,-85.9155"/>
</g>
<!-- Node8 -->
<g id="node9" class="node">
<title>Node8</title>
<polygon fill="none" stroke="#bfbfbf" points="414.5,-56.5 414.5,-75.5 483.5,-75.5 483.5,-56.5 414.5,-56.5"/>
<text text-anchor="middle" x="449" y="-63.5" font-family="Helvetica,sans-Serif" font-size="10.00" fill="#000000">type_traits</text>
</g>
<!-- Node1&#45;&gt;Node8 -->
<g id="edge8" class="edge">
<title>Node1&#45;&gt;Node8</title>
<path fill="none" stroke="#191970" d="M351.2849,-112.3733C370.1421,-103.4241 398.446,-89.9917 419.7455,-79.8835"/>
<polygon fill="#191970" stroke="#191970" points="421.4461,-82.9506 428.9798,-75.5011 418.4449,-76.6266 421.4461,-82.9506"/>
</g>
<!-- Node9 -->
<g id="node10" class="node">
<title>Node9</title>
<polygon fill="none" stroke="#bfbfbf" points="501.5,-56.5 501.5,-75.5 548.5,-75.5 548.5,-56.5 501.5,-56.5"/>
<text text-anchor="middle" x="525" y="-63.5" font-family="Helvetica,sans-Serif" font-size="10.00" fill="#000000">vector</text>
</g>
<!-- Node1&#45;&gt;Node9 -->
<g id="edge9" class="edge">
<title>Node1&#45;&gt;Node9</title>
<path fill="none" stroke="#191970" d="M364.9675,-112.4647C395.608,-103.8256 442.1521,-90.6099 491.6225,-76.0801"/>
<polygon fill="#191970" stroke="#191970" points="492.6156,-79.4363 501.2205,-73.2553 490.6391,-72.7211 492.6156,-79.4363"/>
</g>
<!-- Node10 -->
<g id="node11" class="node">
<title>Node10</title>
<polygon fill="none" stroke="#bfbfbf" points="567,-56.5 567,-75.5 675,-75.5 675,-56.5 567,-56.5"/>
<text text-anchor="middle" x="621" y="-63.5" font-family="Helvetica,sans-Serif" font-size="10.00" fill="#000000">fairlogger/Logger.h</text>
</g>
<!-- Node1&#45;&gt;Node10 -->
<g id="edge10" class="edge">
<title>Node1&#45;&gt;Node10</title>
<path fill="none" stroke="#191970" d="M380.5233,-112.4369C430.6759,-102.7522 508.261,-87.7703 561.6697,-77.4569"/>
<polygon fill="#191970" stroke="#191970" points="562.526,-80.8563 571.681,-75.5237 561.1987,-73.9832 562.526,-80.8563"/>
</g>
<!-- Node11 -->
<g id="node12" class="node">
<title>Node11</title>
<g id="a_node12"><a xlink:href="../../d4/da1/helper_8h.html" target="_top" xlink:title="various helper functions ">
<polygon fill="none" stroke="#000000" points="693,-56.5 693,-75.5 789,-75.5 789,-56.5 693,-56.5"/>
<text text-anchor="middle" x="741" y="-63.5" font-family="Helvetica,sans-Serif" font-size="10.00" fill="#000000">internal/helper.h</text>
</a>
</g>
</g>
<!-- Node1&#45;&gt;Node11 -->
<g id="edge11" class="edge">
<title>Node1&#45;&gt;Node11</title>
<path fill="none" stroke="#191970" d="M395.2119,-114.4952C463.9023,-106.2721 576.2883,-92.2601 682.86,-76.1234"/>
<polygon fill="#191970" stroke="#191970" points="683.4635,-79.5719 692.8225,-74.606 682.4095,-72.6517 683.4635,-79.5719"/>
</g>
<!-- Node11&#45;&gt;Node4 -->
<g id="edge13" class="edge">
<title>Node11&#45;&gt;Node4</title>
<path fill="none" stroke="#191970" d="M692.7994,-57.5353C689.8219,-57.015 686.8704,-56.5 684,-56 600.5923,-41.4716 502.4421,-24.5412 451.8899,-15.8335"/>
<polygon fill="#191970" stroke="#191970" points="452.2965,-12.3521 441.8476,-14.104 451.1084,-19.2505 452.2965,-12.3521"/>
</g>
<!-- Node12 -->
<g id="node13" class="node">
<title>Node12</title>
<polygon fill="none" stroke="#bfbfbf" points="679.5,-.5 679.5,-19.5 732.5,-19.5 732.5,-.5 679.5,-.5"/>
<text text-anchor="middle" x="706" y="-7.5" font-family="Helvetica,sans-Serif" font-size="10.00" fill="#000000">cstddef</text>
</g>
<!-- Node11&#45;&gt;Node12 -->
<g id="edge12" class="edge">
<title>Node11&#45;&gt;Node12</title>
<path fill="none" stroke="#191970" d="M734.9035,-56.2455C730.0855,-48.5367 723.2249,-37.5598 717.3968,-28.2348"/>
<polygon fill="#191970" stroke="#191970" points="720.2947,-26.2677 712.0267,-19.6427 714.3587,-29.9777 720.2947,-26.2677"/>
</g>
<!-- Node13 -->
<g id="node14" class="node">
<title>Node13</title>
<polygon fill="none" stroke="#bfbfbf" points="751,-.5 751,-19.5 801,-19.5 801,-.5 751,-.5"/>
<text text-anchor="middle" x="776" y="-7.5" font-family="Helvetica,sans-Serif" font-size="10.00" fill="#000000">chrono</text>
</g>
<!-- Node11&#45;&gt;Node13 -->
<g id="edge14" class="edge">
<title>Node11&#45;&gt;Node13</title>
<path fill="none" stroke="#191970" d="M747.0965,-56.2455C751.9145,-48.5367 758.7751,-37.5598 764.6032,-28.2348"/>
<polygon fill="#191970" stroke="#191970" points="767.6413,-29.9777 769.9733,-19.6427 761.7053,-26.2677 767.6413,-29.9777"/>
</g>
</g>
</svg>
