<?xml version="1.0" encoding="UTF-8" standalone="no"?>
<!DOCTYPE svg PUBLIC "-//W3C//DTD SVG 1.1//EN"
 "http://www.w3.org/Graphics/SVG/1.1/DTD/svg11.dtd">
<!-- Generated by graphviz version 2.40.1 (20161225.0304)
 -->
<!-- Title: o2::framework::SimpleRawDeviceService Pages: 1 -->
<svg width="168pt" height="365pt"
 viewBox="0.00 0.00 168.00 365.00" xmlns="http://www.w3.org/2000/svg" xmlns:xlink="http://www.w3.org/1999/xlink">
<g id="graph0" class="graph" transform="scale(1 1) rotate(0) translate(4 361)">
<title>o2::framework::SimpleRawDeviceService</title>
<!-- Node2 -->
<g id="node1" class="node">
<title>Node2</title>
<polygon fill="#bfbfbf" stroke="#000000" points="0,-.5 0,-112.5 160,-112.5 160,-.5 0,-.5"/>
<text text-anchor="start" x="8" y="-100.5" font-family="Helvetica,sans-Serif" font-size="10.00" fill="#000000">o2::framework::SimpleRaw</text>
<text text-anchor="middle" x="80" y="-89.5" font-family="Helvetica,sans-Serif" font-size="10.00" fill="#000000">DeviceService</text>
<polyline fill="none" stroke="#000000" points="0,-82.5 160,-82.5 "/>
<text text-anchor="middle" x="80" y="-70.5" font-family="Helvetica,sans-Serif" font-size="10.00" fill="#000000"> </text>
<polyline fill="none" stroke="#000000" points="0,-63.5 160,-63.5 "/>
<text text-anchor="start" x="8" y="-51.5" font-family="Helvetica,sans-Serif" font-size="10.00" fill="#000000">+ SimpleRawDeviceService()</text>
<text text-anchor="start" x="8" y="-40.5" font-family="Helvetica,sans-Serif" font-size="10.00" fill="#000000">+ device()</text>
<text text-anchor="start" x="8" y="-29.5" font-family="Helvetica,sans-Serif" font-size="10.00" fill="#000000">+ setDevice()</text>
<text text-anchor="start" x="8" y="-18.5" font-family="Helvetica,sans-Serif" font-size="10.00" fill="#000000">+ spec()</text>
<text text-anchor="start" x="8" y="-7.5" font-family="Helvetica,sans-Serif" font-size="10.00" fill="#000000">+ waitFor()</text>
</g>
<!-- Node3 -->
<g id="node2" class="node">
<title>Node3</title>
<g id="a_node2"><a xlink:href="../../d7/d1b/classo2_1_1framework_1_1RawDeviceService.html" target="_top" xlink:title="{o2::framework::RawDevice\lService\n||+ device()\l+ setDevice()\l+ spec()\l+ waitFor()\l}">
<polygon fill="none" stroke="#000000" points="5.5,-150.5 5.5,-251.5 154.5,-251.5 154.5,-150.5 5.5,-150.5"/>
<text text-anchor="start" x="13.5" y="-239.5" font-family="Helvetica,sans-Serif" font-size="10.00" fill="#000000">o2::framework::RawDevice</text>
<text text-anchor="middle" x="80" y="-228.5" font-family="Helvetica,sans-Serif" font-size="10.00" fill="#000000">Service</text>
<polyline fill="none" stroke="#000000" points="5.5,-221.5 154.5,-221.5 "/>
<text text-anchor="middle" x="80" y="-209.5" font-family="Helvetica,sans-Serif" font-size="10.00" fill="#000000"> </text>
<polyline fill="none" stroke="#000000" points="5.5,-202.5 154.5,-202.5 "/>
<text text-anchor="start" x="13.5" y="-190.5" font-family="Helvetica,sans-Serif" font-size="10.00" fill="#000000">+ device()</text>
<text text-anchor="start" x="13.5" y="-179.5" font-family="Helvetica,sans-Serif" font-size="10.00" fill="#000000">+ setDevice()</text>
<text text-anchor="start" x="13.5" y="-168.5" font-family="Helvetica,sans-Serif" font-size="10.00" fill="#000000">+ spec()</text>
<text text-anchor="start" x="13.5" y="-157.5" font-family="Helvetica,sans-Serif" font-size="10.00" fill="#000000">+ waitFor()</text>
</a>
</g>
</g>
<!-- Node3&#45;&gt;Node2 -->
<g id="edge1" class="edge">
<title>Node3&#45;&gt;Node2</title>
<path fill="none" stroke="#191970" d="M80,-140.2745C80,-131.1284 80,-121.7294 80,-112.6842"/>
<polygon fill="none" stroke="#191970" points="76.5001,-140.4609 80,-150.4609 83.5001,-140.4609 76.5001,-140.4609"/>
</g>
<!-- Node4 -->
<g id="node3" class="node">
<title>Node4</title>
<polygon fill="none" stroke="#bfbfbf" points="2.5,-299.5 2.5,-356.5 157.5,-356.5 157.5,-299.5 2.5,-299.5"/>
<text text-anchor="middle" x="80" y="-344.5" font-family="Helvetica,sans-Serif" font-size="10.00" fill="#000000">static constexpr ServiceKind</text>
<polyline fill="none" stroke="#bfbfbf" points="2.5,-337.5 157.5,-337.5 "/>
<text text-anchor="middle" x="80" y="-325.5" font-family="Helvetica,sans-Serif" font-size="10.00" fill="#000000"> </text>
<polyline fill="none" stroke="#bfbfbf" points="2.5,-318.5 157.5,-318.5 "/>
<text text-anchor="middle" x="80" y="-306.5" font-family="Helvetica,sans-Serif" font-size="10.00" fill="#000000"> </text>
</g>
<!-- Node4&#45;&gt;Node3 -->
<g id="edge2" class="edge">
<title>Node4&#45;&gt;Node3</title>
<path fill="none" stroke="#404040" d="M80,-299.4987C80,-288.9128 80,-276.4397 80,-263.9926"/>
<polygon fill="none" stroke="#404040" points="80.0001,-263.625 76,-257.625 80,-251.625 84,-257.625 80.0001,-263.625"/>
<text text-anchor="middle" x="116.5" y="-273" font-family="Helvetica,sans-Serif" font-size="10.00" fill="#000000"> +service_kind</text>
</g>
</g>
</svg>
