<?xml version="1.0" encoding="UTF-8" standalone="no"?>
<!DOCTYPE svg PUBLIC "-//W3C//DTD SVG 1.1//EN"
 "http://www.w3.org/Graphics/SVG/1.1/DTD/svg11.dtd">
<!-- Generated by graphviz version 2.40.1 (20161225.0304)
 -->
<!-- Title: o2::emcal::EventData&lt; InputType &gt; Pages: 1 -->
<svg width="590pt" height="683pt"
 viewBox="0.00 0.00 589.50 683.00" xmlns="http://www.w3.org/2000/svg" xmlns:xlink="http://www.w3.org/1999/xlink">
<g id="graph0" class="graph" transform="scale(1 1) rotate(0) translate(4 679)">
<title>o2::emcal::EventData&lt; InputType &gt;</title>
<!-- Node2 -->
<g id="node1" class="node">
<title>Node2</title>
<polygon fill="#bfbfbf" stroke="#000000" points="266,-.5 266,-79.5 388,-79.5 388,-.5 266,-.5"/>
<text text-anchor="start" x="274" y="-67.5" font-family="Helvetica,sans-Serif" font-size="10.00" fill="#000000">o2::emcal::EventData</text>
<text text-anchor="middle" x="327" y="-56.5" font-family="Helvetica,sans-Serif" font-size="10.00" fill="#000000">&lt; InputType &gt;</text>
<polyline fill="none" stroke="#000000" points="266,-49.5 388,-49.5 "/>
<text text-anchor="middle" x="327" y="-37.5" font-family="Helvetica,sans-Serif" font-size="10.00" fill="#000000"> </text>
<polyline fill="none" stroke="#000000" points="266,-30.5 388,-30.5 "/>
<text text-anchor="start" x="274" y="-18.5" font-family="Helvetica,sans-Serif" font-size="10.00" fill="#000000">+ reset()</text>
<text text-anchor="start" x="274" y="-7.5" font-family="Helvetica,sans-Serif" font-size="10.00" fill="#000000">+ ClassDefNV()</text>
</g>
<!-- Node3 -->
<g id="node2" class="node">
<title>Node3</title>
<g id="a_node2"><a xlink:href="../../d1/d21/structo2_1_1InteractionRecord.html" target="_top" xlink:title="{o2::InteractionRecord\n||+ InteractionRecord()\l+ InteractionRecord()\l+ InteractionRecord()\l+ InteractionRecord()\l+ clear()\l+ isDummy()\l+ setFromNS()\l+ bc2ns()\l+ operator==()\l+ operator!=()\l+ differenceInBC()\l+ differenceInBCns()\l+ toLong()\l+ setFromLong()\l+ operator\&gt;()\l+ operator\&gt;=()\l+ operator\&lt;()\l+ operator\&lt;=()\l+ operator&#45;&#45;()\l+ operator&#45;&#45;()\l+ operator++()\l+ operator++()\l+ operator+=()\l+ operator&#45;=()\l+ operator+=()\l+ operator&#45;=()\l+ operator+()\l+ operator&#45;()\l+ operator+()\l+ operator&#45;()\l+ print()\l+ asString()\l+ ClassDefNV()\l+ bc2ns()\l+ ns2bc()\l}">
<polygon fill="none" stroke="#000000" points="63.5,-127.5 63.5,-558.5 184.5,-558.5 184.5,-127.5 63.5,-127.5"/>
<text text-anchor="middle" x="124" y="-546.5" font-family="Helvetica,sans-Serif" font-size="10.00" fill="#000000">o2::InteractionRecord</text>
<polyline fill="none" stroke="#000000" points="63.5,-539.5 184.5,-539.5 "/>
<text text-anchor="middle" x="124" y="-527.5" font-family="Helvetica,sans-Serif" font-size="10.00" fill="#000000"> </text>
<polyline fill="none" stroke="#000000" points="63.5,-520.5 184.5,-520.5 "/>
<text text-anchor="start" x="71.5" y="-508.5" font-family="Helvetica,sans-Serif" font-size="10.00" fill="#000000">+ InteractionRecord()</text>
<text text-anchor="start" x="71.5" y="-497.5" font-family="Helvetica,sans-Serif" font-size="10.00" fill="#000000">+ InteractionRecord()</text>
<text text-anchor="start" x="71.5" y="-486.5" font-family="Helvetica,sans-Serif" font-size="10.00" fill="#000000">+ InteractionRecord()</text>
<text text-anchor="start" x="71.5" y="-475.5" font-family="Helvetica,sans-Serif" font-size="10.00" fill="#000000">+ InteractionRecord()</text>
<text text-anchor="start" x="71.5" y="-464.5" font-family="Helvetica,sans-Serif" font-size="10.00" fill="#000000">+ clear()</text>
<text text-anchor="start" x="71.5" y="-453.5" font-family="Helvetica,sans-Serif" font-size="10.00" fill="#000000">+ isDummy()</text>
<text text-anchor="start" x="71.5" y="-442.5" font-family="Helvetica,sans-Serif" font-size="10.00" fill="#000000">+ setFromNS()</text>
<text text-anchor="start" x="71.5" y="-431.5" font-family="Helvetica,sans-Serif" font-size="10.00" fill="#000000">+ bc2ns()</text>
<text text-anchor="start" x="71.5" y="-420.5" font-family="Helvetica,sans-Serif" font-size="10.00" fill="#000000">+ operator==()</text>
<text text-anchor="start" x="71.5" y="-409.5" font-family="Helvetica,sans-Serif" font-size="10.00" fill="#000000">+ operator!=()</text>
<text text-anchor="start" x="71.5" y="-398.5" font-family="Helvetica,sans-Serif" font-size="10.00" fill="#000000">+ differenceInBC()</text>
<text text-anchor="start" x="71.5" y="-387.5" font-family="Helvetica,sans-Serif" font-size="10.00" fill="#000000">+ differenceInBCns()</text>
<text text-anchor="start" x="71.5" y="-376.5" font-family="Helvetica,sans-Serif" font-size="10.00" fill="#000000">+ toLong()</text>
<text text-anchor="start" x="71.5" y="-365.5" font-family="Helvetica,sans-Serif" font-size="10.00" fill="#000000">+ setFromLong()</text>
<text text-anchor="start" x="71.5" y="-354.5" font-family="Helvetica,sans-Serif" font-size="10.00" fill="#000000">+ operator&gt;()</text>
<text text-anchor="start" x="71.5" y="-343.5" font-family="Helvetica,sans-Serif" font-size="10.00" fill="#000000">+ operator&gt;=()</text>
<text text-anchor="start" x="71.5" y="-332.5" font-family="Helvetica,sans-Serif" font-size="10.00" fill="#000000">+ operator&lt;()</text>
<text text-anchor="start" x="71.5" y="-321.5" font-family="Helvetica,sans-Serif" font-size="10.00" fill="#000000">+ operator&lt;=()</text>
<text text-anchor="start" x="71.5" y="-310.5" font-family="Helvetica,sans-Serif" font-size="10.00" fill="#000000">+ operator&#45;&#45;()</text>
<text text-anchor="start" x="71.5" y="-299.5" font-family="Helvetica,sans-Serif" font-size="10.00" fill="#000000">+ operator&#45;&#45;()</text>
<text text-anchor="start" x="71.5" y="-288.5" font-family="Helvetica,sans-Serif" font-size="10.00" fill="#000000">+ operator++()</text>
<text text-anchor="start" x="71.5" y="-277.5" font-family="Helvetica,sans-Serif" font-size="10.00" fill="#000000">+ operator++()</text>
<text text-anchor="start" x="71.5" y="-266.5" font-family="Helvetica,sans-Serif" font-size="10.00" fill="#000000">+ operator+=()</text>
<text text-anchor="start" x="71.5" y="-255.5" font-family="Helvetica,sans-Serif" font-size="10.00" fill="#000000">+ operator&#45;=()</text>
<text text-anchor="start" x="71.5" y="-244.5" font-family="Helvetica,sans-Serif" font-size="10.00" fill="#000000">+ operator+=()</text>
<text text-anchor="start" x="71.5" y="-233.5" font-family="Helvetica,sans-Serif" font-size="10.00" fill="#000000">+ operator&#45;=()</text>
<text text-anchor="start" x="71.5" y="-222.5" font-family="Helvetica,sans-Serif" font-size="10.00" fill="#000000">+ operator+()</text>
<text text-anchor="start" x="71.5" y="-211.5" font-family="Helvetica,sans-Serif" font-size="10.00" fill="#000000">+ operator&#45;()</text>
<text text-anchor="start" x="71.5" y="-200.5" font-family="Helvetica,sans-Serif" font-size="10.00" fill="#000000">+ operator+()</text>
<text text-anchor="start" x="71.5" y="-189.5" font-family="Helvetica,sans-Serif" font-size="10.00" fill="#000000">+ operator&#45;()</text>
<text text-anchor="start" x="71.5" y="-178.5" font-family="Helvetica,sans-Serif" font-size="10.00" fill="#000000">+ print()</text>
<text text-anchor="start" x="71.5" y="-167.5" font-family="Helvetica,sans-Serif" font-size="10.00" fill="#000000">+ asString()</text>
<text text-anchor="start" x="71.5" y="-156.5" font-family="Helvetica,sans-Serif" font-size="10.00" fill="#000000">+ ClassDefNV()</text>
<text text-anchor="start" x="71.5" y="-145.5" font-family="Helvetica,sans-Serif" font-size="10.00" fill="#000000">+ bc2ns()</text>
<text text-anchor="start" x="71.5" y="-134.5" font-family="Helvetica,sans-Serif" font-size="10.00" fill="#000000">+ ns2bc()</text>
</a>
</g>
</g>
<!-- Node3&#45;&gt;Node2 -->
<g id="edge1" class="edge">
<title>Node3&#45;&gt;Node2</title>
<path fill="none" stroke="#404040" d="M169.9634,-127.4271C176.1244,-116.9586 183.1009,-107.0552 191,-98 207.5278,-79.0531 231.3182,-66.114 254.3938,-57.3591"/>
<polygon fill="none" stroke="#404040" points="254.6726,-57.2609 259.0014,-51.4936 265.9899,-53.2712 261.6612,-59.0385 254.6726,-57.2609"/>
<text text-anchor="middle" x="244.5" y="-101" font-family="Helvetica,sans-Serif" font-size="10.00" fill="#000000"> +mInteractionRecord</text>
</g>
<!-- Node4 -->
<g id="node3" class="node">
<title>Node4</title>
<polygon fill="none" stroke="#bfbfbf" points="0,-617.5 0,-674.5 50,-674.5 50,-617.5 0,-617.5"/>
<text text-anchor="middle" x="25" y="-662.5" font-family="Helvetica,sans-Serif" font-size="10.00" fill="#000000">double</text>
<polyline fill="none" stroke="#bfbfbf" points="0,-655.5 50,-655.5 "/>
<text text-anchor="middle" x="25" y="-643.5" font-family="Helvetica,sans-Serif" font-size="10.00" fill="#000000"> </text>
<polyline fill="none" stroke="#bfbfbf" points="0,-636.5 50,-636.5 "/>
<text text-anchor="middle" x="25" y="-624.5" font-family="Helvetica,sans-Serif" font-size="10.00" fill="#000000"> </text>
</g>
<!-- Node4&#45;&gt;Node3 -->
<g id="edge2" class="edge">
<title>Node4&#45;&gt;Node3</title>
<path fill="none" stroke="#404040" d="M32.4706,-617.352C35.8249,-604.9023 39.9366,-590.1796 44,-577 48.9332,-560.9991 54.2201,-544.4427 59.6382,-527.8714"/>
<polygon fill="none" stroke="#404040" points="59.6606,-527.8032 57.7341,-520.8542 63.4076,-516.4031 65.3341,-523.3522 59.6606,-527.8032"/>
<text text-anchor="middle" x="82" y="-585.5" font-family="Helvetica,sans-Serif" font-size="10.00" fill="#000000"> +DummyTime</text>
</g>
<!-- Node5 -->
<g id="node4" class="node">
<title>Node5</title>
<polygon fill="none" stroke="#bfbfbf" points="96,-617.5 96,-674.5 152,-674.5 152,-617.5 96,-617.5"/>
<text text-anchor="middle" x="124" y="-662.5" font-family="Helvetica,sans-Serif" font-size="10.00" fill="#000000">uint16_t</text>
<polyline fill="none" stroke="#bfbfbf" points="96,-655.5 152,-655.5 "/>
<text text-anchor="middle" x="124" y="-643.5" font-family="Helvetica,sans-Serif" font-size="10.00" fill="#000000"> </text>
<polyline fill="none" stroke="#bfbfbf" points="96,-636.5 152,-636.5 "/>
<text text-anchor="middle" x="124" y="-624.5" font-family="Helvetica,sans-Serif" font-size="10.00" fill="#000000"> </text>
</g>
<!-- Node5&#45;&gt;Node3 -->
<g id="edge3" class="edge">
<title>Node5&#45;&gt;Node3</title>
<path fill="none" stroke="#404040" d="M124,-617.4945C124,-604.8659 124,-588.7714 124,-570.7257"/>
<polygon fill="none" stroke="#404040" points="124.0001,-570.6021 120,-564.6021 124,-558.6021 128,-564.602 124.0001,-570.6021"/>
<text text-anchor="middle" x="156" y="-591" font-family="Helvetica,sans-Serif" font-size="10.00" fill="#000000"> +DummyBC</text>
<text text-anchor="middle" x="156" y="-580" font-family="Helvetica,sans-Serif" font-size="10.00" fill="#000000">+bc</text>
</g>
<!-- Node6 -->
<g id="node5" class="node">
<title>Node6</title>
<g id="a_node5"><a xlink:href="../../d3/d87/classuint32__t.html" target="_top" xlink:title="{uint32_t\n||}">
<polygon fill="none" stroke="#000000" points="183,-617.5 183,-674.5 239,-674.5 239,-617.5 183,-617.5"/>
<text text-anchor="middle" x="211" y="-662.5" font-family="Helvetica,sans-Serif" font-size="10.00" fill="#000000">uint32_t</text>
<polyline fill="none" stroke="#000000" points="183,-655.5 239,-655.5 "/>
<text text-anchor="middle" x="211" y="-643.5" font-family="Helvetica,sans-Serif" font-size="10.00" fill="#000000"> </text>
<polyline fill="none" stroke="#000000" points="183,-636.5 239,-636.5 "/>
<text text-anchor="middle" x="211" y="-624.5" font-family="Helvetica,sans-Serif" font-size="10.00" fill="#000000"> </text>
</a>
</g>
</g>
<!-- Node6&#45;&gt;Node3 -->
<g id="edge4" class="edge">
<title>Node6&#45;&gt;Node3</title>
<path fill="none" stroke="#404040" d="M202.8153,-617.4945C198.8542,-603.6991 193.7056,-585.7679 187.9364,-565.6751"/>
<polygon fill="none" stroke="#404040" points="187.8839,-565.4921 182.3834,-560.829 184.5721,-553.9581 190.0727,-558.6212 187.8839,-565.4921"/>
<text text-anchor="middle" x="233" y="-591" font-family="Helvetica,sans-Serif" font-size="10.00" fill="#000000"> +orbit</text>
<text text-anchor="middle" x="233" y="-580" font-family="Helvetica,sans-Serif" font-size="10.00" fill="#000000">+DummyOrbit</text>
</g>
<!-- Node7 -->
<g id="node6" class="node">
<title>Node7</title>
<polygon fill="none" stroke="#bfbfbf" points="203,-309 203,-377 331,-377 331,-309 203,-309"/>
<text text-anchor="start" x="211" y="-365" font-family="Helvetica,sans-Serif" font-size="10.00" fill="#000000">span&lt; const o2::emcal</text>
<text text-anchor="middle" x="267" y="-354" font-family="Helvetica,sans-Serif" font-size="10.00" fill="#000000">::Cluster &gt;</text>
<polyline fill="none" stroke="#bfbfbf" points="203,-347 331,-347 "/>
<text text-anchor="middle" x="267" y="-335" font-family="Helvetica,sans-Serif" font-size="10.00" fill="#000000"> </text>
<polyline fill="none" stroke="#bfbfbf" points="203,-328 331,-328 "/>
<text text-anchor="middle" x="267" y="-316" font-family="Helvetica,sans-Serif" font-size="10.00" fill="#000000"> </text>
</g>
<!-- Node7&#45;&gt;Node2 -->
<g id="edge5" class="edge">
<title>Node7&#45;&gt;Node2</title>
<path fill="none" stroke="#404040" d="M269.6892,-308.8113C274.0062,-260.9915 284.097,-171.7156 304,-98 304.6141,-95.7254 305.2899,-93.4187 306.0125,-91.1017"/>
<polygon fill="none" stroke="#404040" points="306.0832,-90.8936 304.2274,-83.9253 309.9458,-79.5322 311.8016,-86.5005 306.0832,-90.8936"/>
<text text-anchor="middle" x="334.5" y="-101" font-family="Helvetica,sans-Serif" font-size="10.00" fill="#000000"> +mClusters</text>
</g>
<!-- Node8 -->
<g id="node7" class="node">
<title>Node8</title>
<polygon fill="none" stroke="#bfbfbf" points="349.5,-314.5 349.5,-371.5 424.5,-371.5 424.5,-314.5 349.5,-314.5"/>
<text text-anchor="middle" x="387" y="-359.5" font-family="Helvetica,sans-Serif" font-size="10.00" fill="#000000">span&lt; int &gt;</text>
<polyline fill="none" stroke="#bfbfbf" points="349.5,-352.5 424.5,-352.5 "/>
<text text-anchor="middle" x="387" y="-340.5" font-family="Helvetica,sans-Serif" font-size="10.00" fill="#000000"> </text>
<polyline fill="none" stroke="#bfbfbf" points="349.5,-333.5 424.5,-333.5 "/>
<text text-anchor="middle" x="387" y="-321.5" font-family="Helvetica,sans-Serif" font-size="10.00" fill="#000000"> </text>
</g>
<!-- Node8&#45;&gt;Node2 -->
<g id="edge6" class="edge">
<title>Node8&#45;&gt;Node2</title>
<path fill="none" stroke="#404040" d="M388.8521,-314.1365C390.8878,-267.3375 390.9582,-172.6197 365,-98 364.1162,-95.4596 363.0973,-92.9207 361.9734,-90.4026"/>
<polygon fill="none" stroke="#404040" points="361.8986,-90.2549 355.6165,-86.7144 356.4685,-79.5538 362.7506,-83.0943 361.8986,-90.2549"/>
<text text-anchor="middle" x="404.5" y="-101" font-family="Helvetica,sans-Serif" font-size="10.00" fill="#000000"> +mCellIndices</text>
</g>
<!-- Node9 -->
<g id="node8" class="node">
<title>Node9</title>
<polygon fill="none" stroke="#bfbfbf" points="442.5,-314.5 442.5,-371.5 581.5,-371.5 581.5,-314.5 442.5,-314.5"/>
<text text-anchor="middle" x="512" y="-359.5" font-family="Helvetica,sans-Serif" font-size="10.00" fill="#000000">span&lt; const InputType &gt;</text>
<polyline fill="none" stroke="#bfbfbf" points="442.5,-352.5 581.5,-352.5 "/>
<text text-anchor="middle" x="512" y="-340.5" font-family="Helvetica,sans-Serif" font-size="10.00" fill="#000000"> </text>
<polyline fill="none" stroke="#bfbfbf" points="442.5,-333.5 581.5,-333.5 "/>
<text text-anchor="middle" x="512" y="-321.5" font-family="Helvetica,sans-Serif" font-size="10.00" fill="#000000"> </text>
</g>
<!-- Node9&#45;&gt;Node2 -->
<g id="edge7" class="edge">
<title>Node9&#45;&gt;Node2</title>
<path fill="none" stroke="#404040" d="M511.6811,-314.2377C509.6641,-264.5998 498.8693,-162.0302 446,-98 433.7561,-83.1713 416.8035,-71.84 399.5282,-63.304"/>
<polygon fill="none" stroke="#404040" points="399.0802,-63.0983 391.9583,-64.2288 388.1755,-58.0896 395.2974,-56.959 399.0802,-63.0983"/>
<text text-anchor="middle" x="477" y="-101" font-family="Helvetica,sans-Serif" font-size="10.00" fill="#000000"> +mCells</text>
</g>
</g>
</svg>
