<?xml version="1.0" encoding="UTF-8" standalone="no"?>
<!DOCTYPE svg PUBLIC "-//W3C//DTD SVG 1.1//EN"
 "http://www.w3.org/Graphics/SVG/1.1/DTD/svg11.dtd">
<!-- Generated by graphviz version 2.40.1 (20161225.0304)
 -->
<!-- Title: QATrackingResolution Pages: 1 -->
<svg width="1211pt" height="838pt"
 viewBox="0.00 0.00 1210.65 838.00" xmlns="http://www.w3.org/2000/svg" xmlns:xlink="http://www.w3.org/1999/xlink">
<g id="graph0" class="graph" transform="scale(1 1) rotate(0) translate(4 834)">
<title>QATrackingResolution</title>
<!-- Node1 -->
<g id="node1" class="node">
<title>Node1</title>
<polygon fill="#bfbfbf" stroke="#000000" points="452.6513,-.5 452.6513,-57.5 574.6513,-57.5 574.6513,-.5 452.6513,-.5"/>
<text text-anchor="middle" x="513.6513" y="-45.5" font-family="Helvetica,sans-Serif" font-size="10.00" fill="#000000">QATrackingResolution</text>
<polyline fill="none" stroke="#000000" points="452.6513,-38.5 574.6513,-38.5 "/>
<text text-anchor="middle" x="513.6513" y="-26.5" font-family="Helvetica,sans-Serif" font-size="10.00" fill="#000000"> </text>
<polyline fill="none" stroke="#000000" points="452.6513,-19.5 574.6513,-19.5 "/>
<text text-anchor="start" x="460.6513" y="-7.5" font-family="Helvetica,sans-Serif" font-size="10.00" fill="#000000">+ process()</text>
</g>
<!-- Node2 -->
<g id="node2" class="node">
<title>Node2</title>
<g id="a_node2"><a xlink:href="../../d4/d79/structo2_1_1framework_1_1OutputObj.html" target="_top" xlink:title="{o2::framework::OutputObj\l\&lt; TH2F \&gt;\n||+ spec()\l+ OutputObj()\l+ OutputObj()\l+ setObject()\l+ setObject()\l+ setObject()\l+ setObject()\l+ setHash()\l+ operator&#45;\&gt;()\l+ operator*()\l+ ref()\l}">
<polygon fill="none" stroke="#000000" points="332.1513,-138.5 332.1513,-316.5 475.1513,-316.5 475.1513,-138.5 332.1513,-138.5"/>
<text text-anchor="start" x="340.1513" y="-304.5" font-family="Helvetica,sans-Serif" font-size="10.00" fill="#000000">o2::framework::OutputObj</text>
<text text-anchor="middle" x="403.6513" y="-293.5" font-family="Helvetica,sans-Serif" font-size="10.00" fill="#000000">&lt; TH2F &gt;</text>
<polyline fill="none" stroke="#000000" points="332.1513,-286.5 475.1513,-286.5 "/>
<text text-anchor="middle" x="403.6513" y="-274.5" font-family="Helvetica,sans-Serif" font-size="10.00" fill="#000000"> </text>
<polyline fill="none" stroke="#000000" points="332.1513,-267.5 475.1513,-267.5 "/>
<text text-anchor="start" x="340.1513" y="-255.5" font-family="Helvetica,sans-Serif" font-size="10.00" fill="#000000">+ spec()</text>
<text text-anchor="start" x="340.1513" y="-244.5" font-family="Helvetica,sans-Serif" font-size="10.00" fill="#000000">+ OutputObj()</text>
<text text-anchor="start" x="340.1513" y="-233.5" font-family="Helvetica,sans-Serif" font-size="10.00" fill="#000000">+ OutputObj()</text>
<text text-anchor="start" x="340.1513" y="-222.5" font-family="Helvetica,sans-Serif" font-size="10.00" fill="#000000">+ setObject()</text>
<text text-anchor="start" x="340.1513" y="-211.5" font-family="Helvetica,sans-Serif" font-size="10.00" fill="#000000">+ setObject()</text>
<text text-anchor="start" x="340.1513" y="-200.5" font-family="Helvetica,sans-Serif" font-size="10.00" fill="#000000">+ setObject()</text>
<text text-anchor="start" x="340.1513" y="-189.5" font-family="Helvetica,sans-Serif" font-size="10.00" fill="#000000">+ setObject()</text>
<text text-anchor="start" x="340.1513" y="-178.5" font-family="Helvetica,sans-Serif" font-size="10.00" fill="#000000">+ setHash()</text>
<text text-anchor="start" x="340.1513" y="-167.5" font-family="Helvetica,sans-Serif" font-size="10.00" fill="#000000">+ operator&#45;&gt;()</text>
<text text-anchor="start" x="340.1513" y="-156.5" font-family="Helvetica,sans-Serif" font-size="10.00" fill="#000000">+ operator*()</text>
<text text-anchor="start" x="340.1513" y="-145.5" font-family="Helvetica,sans-Serif" font-size="10.00" fill="#000000">+ ref()</text>
</a>
</g>
</g>
<!-- Node2&#45;&gt;Node1 -->
<g id="edge1" class="edge">
<title>Node2&#45;&gt;Node1</title>
<path fill="none" stroke="#404040" d="M453.0204,-138.4111C466.6101,-113.888 480.6632,-88.5286 491.814,-68.4064"/>
<polygon fill="none" stroke="#404040" points="491.8724,-68.3009 491.282,-61.114 497.689,-57.8048 498.2794,-64.9917 491.8724,-68.3009"/>
<text text-anchor="middle" x="519.6513" y="-101" font-family="Helvetica,sans-Serif" font-size="10.00" fill="#000000"> +ptResvseta</text>
<text text-anchor="middle" x="519.6513" y="-90" font-family="Helvetica,sans-Serif" font-size="10.00" fill="#000000">+ptResvspt</text>
</g>
<!-- Node3 -->
<g id="node3" class="node">
<title>Node3</title>
<polygon fill="none" stroke="#bfbfbf" points="377.1513,-607 377.1513,-664 516.1513,-664 516.1513,-607 377.1513,-607"/>
<text text-anchor="middle" x="446.6513" y="-652" font-family="Helvetica,sans-Serif" font-size="10.00" fill="#000000">OutputObjHandlingPolicy</text>
<polyline fill="none" stroke="#bfbfbf" points="377.1513,-645 516.1513,-645 "/>
<text text-anchor="middle" x="446.6513" y="-633" font-family="Helvetica,sans-Serif" font-size="10.00" fill="#000000"> </text>
<polyline fill="none" stroke="#bfbfbf" points="377.1513,-626 516.1513,-626 "/>
<text text-anchor="middle" x="446.6513" y="-614" font-family="Helvetica,sans-Serif" font-size="10.00" fill="#000000"> </text>
</g>
<!-- Node3&#45;&gt;Node2 -->
<g id="edge2" class="edge">
<title>Node3&#45;&gt;Node2</title>
<path fill="none" stroke="#404040" d="M418.2848,-606.9175C407.4209,-594.0113 396.2888,-577.8822 390.6513,-561 365.5904,-485.9514 370.9633,-396.0781 381.4335,-328.5478"/>
<polygon fill="none" stroke="#404040" points="381.4447,-328.4784 378.4586,-321.9146 383.369,-316.6337 386.3551,-323.1975 381.4447,-328.4784"/>
<text text-anchor="middle" x="401.1513" y="-445.5" font-family="Helvetica,sans-Serif" font-size="10.00" fill="#000000"> +policy</text>
</g>
<!-- Node11 -->
<g id="node11" class="node">
<title>Node11</title>
<g id="a_node11"><a xlink:href="../../d4/d79/structo2_1_1framework_1_1OutputObj.html" target="_top" xlink:title="{o2::framework::OutputObj\&lt; T \&gt;\n||+ OutputObj()\l+ OutputObj()\l+ setObject()\l+ setObject()\l+ setObject()\l+ setObject()\l+ setHash()\l+ spec()\l+ operator&#45;\&gt;()\l+ operator*()\l+ ref()\l}">
<polygon fill="none" stroke="#000000" points="522.6513,-364.5 522.6513,-531.5 694.6513,-531.5 694.6513,-364.5 522.6513,-364.5"/>
<text text-anchor="middle" x="608.6513" y="-519.5" font-family="Helvetica,sans-Serif" font-size="10.00" fill="#000000">o2::framework::OutputObj&lt; T &gt;</text>
<polyline fill="none" stroke="#000000" points="522.6513,-512.5 694.6513,-512.5 "/>
<text text-anchor="middle" x="608.6513" y="-500.5" font-family="Helvetica,sans-Serif" font-size="10.00" fill="#000000"> </text>
<polyline fill="none" stroke="#000000" points="522.6513,-493.5 694.6513,-493.5 "/>
<text text-anchor="start" x="530.6513" y="-481.5" font-family="Helvetica,sans-Serif" font-size="10.00" fill="#000000">+ OutputObj()</text>
<text text-anchor="start" x="530.6513" y="-470.5" font-family="Helvetica,sans-Serif" font-size="10.00" fill="#000000">+ OutputObj()</text>
<text text-anchor="start" x="530.6513" y="-459.5" font-family="Helvetica,sans-Serif" font-size="10.00" fill="#000000">+ setObject()</text>
<text text-anchor="start" x="530.6513" y="-448.5" font-family="Helvetica,sans-Serif" font-size="10.00" fill="#000000">+ setObject()</text>
<text text-anchor="start" x="530.6513" y="-437.5" font-family="Helvetica,sans-Serif" font-size="10.00" fill="#000000">+ setObject()</text>
<text text-anchor="start" x="530.6513" y="-426.5" font-family="Helvetica,sans-Serif" font-size="10.00" fill="#000000">+ setObject()</text>
<text text-anchor="start" x="530.6513" y="-415.5" font-family="Helvetica,sans-Serif" font-size="10.00" fill="#000000">+ setHash()</text>
<text text-anchor="start" x="530.6513" y="-404.5" font-family="Helvetica,sans-Serif" font-size="10.00" fill="#000000">+ spec()</text>
<text text-anchor="start" x="530.6513" y="-393.5" font-family="Helvetica,sans-Serif" font-size="10.00" fill="#000000">+ operator&#45;&gt;()</text>
<text text-anchor="start" x="530.6513" y="-382.5" font-family="Helvetica,sans-Serif" font-size="10.00" fill="#000000">+ operator*()</text>
<text text-anchor="start" x="530.6513" y="-371.5" font-family="Helvetica,sans-Serif" font-size="10.00" fill="#000000">+ ref()</text>
</a>
</g>
</g>
<!-- Node3&#45;&gt;Node11 -->
<g id="edge12" class="edge">
<title>Node3&#45;&gt;Node11</title>
<path fill="none" stroke="#404040" d="M461.0375,-606.8174C470.3463,-589.5438 483.3662,-567.5668 497.6513,-550 502.7545,-543.7244 508.2434,-537.4774 513.9504,-531.3436"/>
<polygon fill="none" stroke="#404040" points="514.1594,-531.1248 515.4116,-524.0232 522.4485,-522.4477 521.1963,-529.5493 514.1594,-531.1248"/>
<text text-anchor="middle" x="518.1513" y="-553" font-family="Helvetica,sans-Serif" font-size="10.00" fill="#000000"> +policy</text>
</g>
<!-- Node13 -->
<g id="node13" class="node">
<title>Node13</title>
<g id="a_node13"><a xlink:href="../../d4/d79/structo2_1_1framework_1_1OutputObj.html" target="_top" xlink:title="{o2::framework::OutputObj\l\&lt; TH1F \&gt;\n||+ spec()\l+ OutputObj()\l+ OutputObj()\l+ setObject()\l+ setObject()\l+ setObject()\l+ setObject()\l+ setHash()\l+ operator&#45;\&gt;()\l+ operator*()\l+ ref()\l}">
<polygon fill="none" stroke="#000000" points="647.1513,-138.5 647.1513,-316.5 790.1513,-316.5 790.1513,-138.5 647.1513,-138.5"/>
<text text-anchor="start" x="655.1513" y="-304.5" font-family="Helvetica,sans-Serif" font-size="10.00" fill="#000000">o2::framework::OutputObj</text>
<text text-anchor="middle" x="718.6513" y="-293.5" font-family="Helvetica,sans-Serif" font-size="10.00" fill="#000000">&lt; TH1F &gt;</text>
<polyline fill="none" stroke="#000000" points="647.1513,-286.5 790.1513,-286.5 "/>
<text text-anchor="middle" x="718.6513" y="-274.5" font-family="Helvetica,sans-Serif" font-size="10.00" fill="#000000"> </text>
<polyline fill="none" stroke="#000000" points="647.1513,-267.5 790.1513,-267.5 "/>
<text text-anchor="start" x="655.1513" y="-255.5" font-family="Helvetica,sans-Serif" font-size="10.00" fill="#000000">+ spec()</text>
<text text-anchor="start" x="655.1513" y="-244.5" font-family="Helvetica,sans-Serif" font-size="10.00" fill="#000000">+ OutputObj()</text>
<text text-anchor="start" x="655.1513" y="-233.5" font-family="Helvetica,sans-Serif" font-size="10.00" fill="#000000">+ OutputObj()</text>
<text text-anchor="start" x="655.1513" y="-222.5" font-family="Helvetica,sans-Serif" font-size="10.00" fill="#000000">+ setObject()</text>
<text text-anchor="start" x="655.1513" y="-211.5" font-family="Helvetica,sans-Serif" font-size="10.00" fill="#000000">+ setObject()</text>
<text text-anchor="start" x="655.1513" y="-200.5" font-family="Helvetica,sans-Serif" font-size="10.00" fill="#000000">+ setObject()</text>
<text text-anchor="start" x="655.1513" y="-189.5" font-family="Helvetica,sans-Serif" font-size="10.00" fill="#000000">+ setObject()</text>
<text text-anchor="start" x="655.1513" y="-178.5" font-family="Helvetica,sans-Serif" font-size="10.00" fill="#000000">+ setHash()</text>
<text text-anchor="start" x="655.1513" y="-167.5" font-family="Helvetica,sans-Serif" font-size="10.00" fill="#000000">+ operator&#45;&gt;()</text>
<text text-anchor="start" x="655.1513" y="-156.5" font-family="Helvetica,sans-Serif" font-size="10.00" fill="#000000">+ operator*()</text>
<text text-anchor="start" x="655.1513" y="-145.5" font-family="Helvetica,sans-Serif" font-size="10.00" fill="#000000">+ ref()</text>
</a>
</g>
</g>
<!-- Node3&#45;&gt;Node13 -->
<g id="edge19" class="edge">
<title>Node3&#45;&gt;Node13</title>
<path fill="none" stroke="#404040" d="M448.302,-606.7579C452.2133,-541.3924 462.4819,-385.5767 472.6513,-364 502.5684,-300.5239 576.3871,-265.3028 635.4077,-246.6151"/>
<polygon fill="none" stroke="#404040" points="635.5152,-246.5826 640.0935,-241.0113 646.9971,-243.0946 642.4188,-248.6659 635.5152,-246.5826"/>
<text text-anchor="middle" x="493.1513" y="-445.5" font-family="Helvetica,sans-Serif" font-size="10.00" fill="#000000"> +policy</text>
</g>
<!-- Node4 -->
<g id="node4" class="node">
<title>Node4</title>
<g id="a_node4"><a xlink:href="../../d3/d87/classuint32__t.html" target="_top" xlink:title="{uint32_t\n||}">
<polygon fill="none" stroke="#000000" points="254.6513,-607 254.6513,-664 310.6513,-664 310.6513,-607 254.6513,-607"/>
<text text-anchor="middle" x="282.6513" y="-652" font-family="Helvetica,sans-Serif" font-size="10.00" fill="#000000">uint32_t</text>
<polyline fill="none" stroke="#000000" points="254.6513,-645 310.6513,-645 "/>
<text text-anchor="middle" x="282.6513" y="-633" font-family="Helvetica,sans-Serif" font-size="10.00" fill="#000000"> </text>
<polyline fill="none" stroke="#000000" points="254.6513,-626 310.6513,-626 "/>
<text text-anchor="middle" x="282.6513" y="-614" font-family="Helvetica,sans-Serif" font-size="10.00" fill="#000000"> </text>
</a>
</g>
</g>
<!-- Node4&#45;&gt;Node2 -->
<g id="edge3" class="edge">
<title>Node4&#45;&gt;Node2</title>
<path fill="none" stroke="#404040" d="M254.5983,-632.4121C204.0732,-625.1682 98.8407,-602.0146 53.6513,-532 13.1606,-469.2655 11.524,-425.6474 53.6513,-364 84.7056,-318.5564 226.9492,-273.7012 320.2688,-248.412"/>
<polygon fill="none" stroke="#404040" points="320.3712,-248.3846 325.1302,-242.9668 331.9616,-245.276 327.2026,-250.6937 320.3712,-248.3846"/>
<text text-anchor="middle" x="87.6513" y="-445.5" font-family="Helvetica,sans-Serif" font-size="10.00" fill="#000000"> +mTaskHash</text>
</g>
<!-- Node4&#45;&gt;Node11 -->
<g id="edge13" class="edge">
<title>Node4&#45;&gt;Node11</title>
<path fill="none" stroke="#404040" d="M310.7529,-616.6533C327.4703,-605.5381 349.1553,-591.2875 368.6513,-579 389.7373,-565.7104 393.3985,-558.9746 416.6513,-550 455.5208,-534.9979 471.0616,-549.9698 508.6513,-532 509.6805,-531.508 510.7079,-531.0029 511.7331,-530.4854"/>
<polygon fill="none" stroke="#404040" points="512.1053,-530.2807 515.4353,-523.8844 522.6202,-524.4981 519.2903,-530.8944 512.1053,-530.2807"/>
<text text-anchor="middle" x="450.6513" y="-553" font-family="Helvetica,sans-Serif" font-size="10.00" fill="#000000"> +mTaskHash</text>
</g>
<!-- Node4&#45;&gt;Node13 -->
<g id="edge20" class="edge">
<title>Node4&#45;&gt;Node13</title>
<path fill="none" stroke="#404040" d="M274.6954,-606.5814C261.6378,-552.2084 242.5259,-433.9327 300.6513,-364 354.6019,-299.0902 404.212,-342.563 484.6513,-317 535.4633,-300.8523 591.2654,-279.6484 635.6288,-261.9327"/>
<polygon fill="none" stroke="#404040" points="635.8069,-261.8612 639.8851,-255.9141 646.9433,-257.3912 642.8651,-263.3383 635.8069,-261.8612"/>
<text text-anchor="middle" x="334.6513" y="-445.5" font-family="Helvetica,sans-Serif" font-size="10.00" fill="#000000"> +mTaskHash</text>
</g>
<!-- Node5 -->
<g id="node5" class="node">
<title>Node5</title>
<polygon fill="none" stroke="#bfbfbf" points="579.1513,-756 579.1513,-813 608.1513,-813 608.1513,-756 579.1513,-756"/>
<text text-anchor="middle" x="593.6513" y="-801" font-family="Helvetica,sans-Serif" font-size="10.00" fill="#000000">int</text>
<polyline fill="none" stroke="#bfbfbf" points="579.1513,-794 608.1513,-794 "/>
<text text-anchor="middle" x="593.6513" y="-782" font-family="Helvetica,sans-Serif" font-size="10.00" fill="#000000"> </text>
<polyline fill="none" stroke="#bfbfbf" points="579.1513,-775 608.1513,-775 "/>
<text text-anchor="middle" x="593.6513" y="-763" font-family="Helvetica,sans-Serif" font-size="10.00" fill="#000000"> </text>
</g>
<!-- Node5&#45;&gt;Node2 -->
<g id="edge4" class="edge">
<title>Node5&#45;&gt;Node2</title>
<path fill="none" stroke="#404040" d="M578.9075,-782.1366C529.97,-773.9703 369.0296,-744.5252 245.6513,-692 132.417,-643.7934 39.9906,-653.3762 19.6513,-532 7.3113,-458.3601 -17.3324,-428.8638 19.6513,-364 50.1173,-310.5673 216.3257,-266.7512 319.841,-244.1358"/>
<polygon fill="none" stroke="#404040" points="320.0993,-244.0802 325.121,-238.905 331.8295,-241.5499 326.8078,-246.7251 320.0993,-244.0802"/>
<text text-anchor="middle" x="44.6513" y="-553" font-family="Helvetica,sans-Serif" font-size="10.00" fill="#000000"> +label</text>
</g>
<!-- Node7 -->
<g id="node7" class="node">
<title>Node7</title>
<g id="a_node7"><a xlink:href="../../da/d96/structo2_1_1framework_1_1InputSpec.html" target="_top" xlink:title="{o2::framework::InputSpec\n||+ InputSpec()\l+ InputSpec()\l+ InputSpec()\l+ InputSpec()\l+ InputSpec()\l+ operator==()\l}">
<polygon fill="none" stroke="#000000" points="722.6513,-579.5 722.6513,-691.5 864.6513,-691.5 864.6513,-579.5 722.6513,-579.5"/>
<text text-anchor="middle" x="793.6513" y="-679.5" font-family="Helvetica,sans-Serif" font-size="10.00" fill="#000000">o2::framework::InputSpec</text>
<polyline fill="none" stroke="#000000" points="722.6513,-672.5 864.6513,-672.5 "/>
<text text-anchor="middle" x="793.6513" y="-660.5" font-family="Helvetica,sans-Serif" font-size="10.00" fill="#000000"> </text>
<polyline fill="none" stroke="#000000" points="722.6513,-653.5 864.6513,-653.5 "/>
<text text-anchor="start" x="730.6513" y="-641.5" font-family="Helvetica,sans-Serif" font-size="10.00" fill="#000000">+ InputSpec()</text>
<text text-anchor="start" x="730.6513" y="-630.5" font-family="Helvetica,sans-Serif" font-size="10.00" fill="#000000">+ InputSpec()</text>
<text text-anchor="start" x="730.6513" y="-619.5" font-family="Helvetica,sans-Serif" font-size="10.00" fill="#000000">+ InputSpec()</text>
<text text-anchor="start" x="730.6513" y="-608.5" font-family="Helvetica,sans-Serif" font-size="10.00" fill="#000000">+ InputSpec()</text>
<text text-anchor="start" x="730.6513" y="-597.5" font-family="Helvetica,sans-Serif" font-size="10.00" fill="#000000">+ InputSpec()</text>
<text text-anchor="start" x="730.6513" y="-586.5" font-family="Helvetica,sans-Serif" font-size="10.00" fill="#000000">+ operator==()</text>
</a>
</g>
</g>
<!-- Node5&#45;&gt;Node7 -->
<g id="edge9" class="edge">
<title>Node5&#45;&gt;Node7</title>
<path fill="none" stroke="#404040" d="M608.3578,-773.5437C630.3958,-757.1253 673.5881,-724.9471 712.7302,-695.7862"/>
<polygon fill="none" stroke="#404040" points="712.9559,-695.6181 715.3777,-688.8258 722.5789,-688.4489 720.1571,-695.2412 712.9559,-695.6181"/>
<text text-anchor="middle" x="717.6513" y="-713" font-family="Helvetica,sans-Serif" font-size="10.00" fill="#000000"> +binding</text>
</g>
<!-- Node5&#45;&gt;Node11 -->
<g id="edge14" class="edge">
<title>Node5&#45;&gt;Node11</title>
<path fill="none" stroke="#404040" d="M581.4108,-755.9479C574.3798,-737.9684 566.2503,-714.0651 562.6513,-692 554.5664,-642.4328 554.2116,-628.508 562.6513,-579 564.6412,-567.3271 567.5612,-555.3102 570.9812,-543.5113"/>
<polygon fill="none" stroke="#404040" points="571.0506,-543.2836 568.9753,-536.3776 574.5519,-531.8057 576.6272,-538.7118 571.0506,-543.2836"/>
<text text-anchor="middle" x="580.6513" y="-633" font-family="Helvetica,sans-Serif" font-size="10.00" fill="#000000"> +label</text>
</g>
<!-- Node5&#45;&gt;Node13 -->
<g id="edge21" class="edge">
<title>Node5&#45;&gt;Node13</title>
<path fill="none" stroke="#404040" d="M608.2212,-776.4627C628.1843,-765.8727 665.4666,-747.5869 699.6513,-739 744.4337,-727.7511 865.9873,-742.8732 906.6513,-721 953.4725,-695.8148 978.9034,-692.1022 1021.6513,-532 1040.9128,-459.8605 1062.1802,-426.7098 1021.6513,-364 973.6181,-289.679 874.3776,-255.4163 802.5311,-239.8896"/>
<polygon fill="none" stroke="#404040" points="802.105,-239.8019 795.4209,-242.508 790.3521,-237.3789 797.0362,-234.6728 802.105,-239.8019"/>
<text text-anchor="middle" x="1033.6513" y="-553" font-family="Helvetica,sans-Serif" font-size="10.00" fill="#000000"> +label</text>
</g>
<!-- Node6 -->
<g id="node6" class="node">
<title>Node6</title>
<polygon fill="none" stroke="#bfbfbf" points="882.6513,-607 882.6513,-664 920.6513,-664 920.6513,-607 882.6513,-607"/>
<text text-anchor="middle" x="901.6513" y="-652" font-family="Helvetica,sans-Serif" font-size="10.00" fill="#000000">bool</text>
<polyline fill="none" stroke="#bfbfbf" points="882.6513,-645 920.6513,-645 "/>
<text text-anchor="middle" x="901.6513" y="-633" font-family="Helvetica,sans-Serif" font-size="10.00" fill="#000000"> </text>
<polyline fill="none" stroke="#bfbfbf" points="882.6513,-626 920.6513,-626 "/>
<text text-anchor="middle" x="901.6513" y="-614" font-family="Helvetica,sans-Serif" font-size="10.00" fill="#000000"> </text>
</g>
<!-- Node6&#45;&gt;Node2 -->
<g id="edge5" class="edge">
<title>Node6&#45;&gt;Node2</title>
<path fill="none" stroke="#404040" d="M891.7062,-606.8241C884.8978,-586.2266 876.1413,-557.6801 870.6513,-532 862.7798,-495.1799 873.6758,-392.1328 848.6513,-364 813.6181,-324.6154 785.1247,-346.3559 733.6513,-335 691.687,-325.742 680.0033,-328.693 638.6513,-317 587.1555,-302.4387 531.0952,-281.302 486.6483,-263.2253"/>
<polygon fill="none" stroke="#404040" points="486.4194,-263.1316 479.3506,-264.5573 475.3158,-258.5806 482.3846,-257.1549 486.4194,-263.1316"/>
<text text-anchor="middle" x="901.6513" y="-445.5" font-family="Helvetica,sans-Serif" font-size="10.00" fill="#000000"> +isdangling</text>
</g>
<!-- Node6&#45;&gt;Node11 -->
<g id="edge16" class="edge">
<title>Node6&#45;&gt;Node11</title>
<path fill="none" stroke="#404040" d="M893.2179,-606.8504C888.8919,-596.6925 882.594,-586.0466 873.6513,-579 845.3662,-556.7123 829.3128,-570.7658 794.6513,-561 755.826,-550.061 743.8166,-551.7601 708.6513,-532 707.49,-531.3475 706.3294,-530.6806 705.1699,-530.0005"/>
<polygon fill="none" stroke="#404040" points="704.9766,-529.8804 697.7692,-530.1116 694.7837,-523.5476 701.9911,-523.3163 704.9766,-529.8804"/>
<text text-anchor="middle" x="825.6513" y="-553" font-family="Helvetica,sans-Serif" font-size="10.00" fill="#000000"> +isdangling</text>
</g>
<!-- Node6&#45;&gt;Node13 -->
<g id="edge22" class="edge">
<title>Node6&#45;&gt;Node13</title>
<path fill="none" stroke="#404040" d="M915.9656,-606.8298C939.7123,-554.8724 980.5077,-443.2047 936.6513,-364 907.9043,-312.0828 850.2536,-277.2829 801.4562,-255.8196"/>
<polygon fill="none" stroke="#404040" points="801.2744,-255.7423 794.1874,-257.0744 790.232,-251.0449 797.319,-249.7128 801.2744,-255.7423"/>
<text text-anchor="middle" x="986.6513" y="-445.5" font-family="Helvetica,sans-Serif" font-size="10.00" fill="#000000"> +isdangling</text>
</g>
<!-- Node7&#45;&gt;Node2 -->
<g id="edge6" class="edge">
<title>Node7&#45;&gt;Node2</title>
<path fill="none" stroke="#404040" d="M752.6538,-579.3441C743.8556,-564.6127 735.6961,-548.275 730.6513,-532 717.6571,-490.0796 745.1749,-368.3553 716.6513,-335 693.5288,-307.9606 672.6886,-327.3556 638.6513,-317 587.3574,-301.3942 531.1954,-280.1642 486.6407,-262.2976"/>
<polygon fill="none" stroke="#404040" points="486.4085,-262.204 479.3477,-263.6686 475.2801,-257.7142 482.3409,-256.2496 486.4085,-262.204"/>
<text text-anchor="middle" x="747.6513" y="-445.5" font-family="Helvetica,sans-Serif" font-size="10.00" fill="#000000"> +spec</text>
</g>
<!-- Node7&#45;&gt;Node11 -->
<g id="edge17" class="edge">
<title>Node7&#45;&gt;Node11</title>
<path fill="none" stroke="#404040" d="M722.3371,-584.663C719.4167,-582.7309 716.5134,-580.8365 713.6513,-579 700.2424,-570.3961 694.2154,-571.959 682.6513,-561 676.3321,-555.0115 670.2895,-548.3835 664.5761,-541.4273"/>
<polygon fill="none" stroke="#404040" points="664.4033,-541.2071 657.5522,-538.957 656.9941,-531.7675 663.8452,-534.0176 664.4033,-541.2071"/>
<text text-anchor="middle" x="699.6513" y="-553" font-family="Helvetica,sans-Serif" font-size="10.00" fill="#000000"> +spec</text>
</g>
<!-- Node7&#45;&gt;Node13 -->
<g id="edge23" class="edge">
<title>Node7&#45;&gt;Node13</title>
<path fill="none" stroke="#404040" d="M826.5923,-579.3443C829.0326,-569.6438 829.5561,-559.5938 826.6513,-550 823.8651,-540.7977 818.6387,-540.749 814.6513,-532 782.546,-461.5561 792.2077,-437.744 768.6513,-364 764.9267,-352.3401 760.8188,-340.1989 756.6064,-328.1773"/>
<polygon fill="none" stroke="#404040" points="756.5506,-328.0194 750.7772,-323.6987 752.5449,-316.7076 758.3183,-321.0283 756.5506,-328.0194"/>
<text text-anchor="middle" x="831.6513" y="-445.5" font-family="Helvetica,sans-Serif" font-size="10.00" fill="#000000"> +spec</text>
</g>
<!-- Node8 -->
<g id="node8" class="node">
<title>Node8</title>
<polygon fill="none" stroke="#bfbfbf" points="708.6513,-756 708.6513,-813 796.6513,-813 796.6513,-756 708.6513,-756"/>
<text text-anchor="middle" x="752.6513" y="-801" font-family="Helvetica,sans-Serif" font-size="10.00" fill="#000000">enum Lifetime</text>
<polyline fill="none" stroke="#bfbfbf" points="708.6513,-794 796.6513,-794 "/>
<text text-anchor="middle" x="752.6513" y="-782" font-family="Helvetica,sans-Serif" font-size="10.00" fill="#000000"> </text>
<polyline fill="none" stroke="#bfbfbf" points="708.6513,-775 796.6513,-775 "/>
<text text-anchor="middle" x="752.6513" y="-763" font-family="Helvetica,sans-Serif" font-size="10.00" fill="#000000"> </text>
</g>
<!-- Node8&#45;&gt;Node7 -->
<g id="edge7" class="edge">
<title>Node8&#45;&gt;Node7</title>
<path fill="none" stroke="#404040" d="M760.5565,-755.7713C764.6801,-740.7857 769.9137,-721.766 774.995,-703.2998"/>
<polygon fill="none" stroke="#404040" points="775.0293,-703.1749 772.7645,-696.3287 778.213,-691.6049 780.4778,-698.4512 775.0293,-703.1749"/>
<text text-anchor="middle" x="797.6513" y="-713" font-family="Helvetica,sans-Serif" font-size="10.00" fill="#000000"> +lifetime</text>
</g>
<!-- Node9 -->
<g id="node9" class="node">
<title>Node9</title>
<polygon fill="none" stroke="#bfbfbf" points="814.6513,-739.5 814.6513,-829.5 978.6513,-829.5 978.6513,-739.5 814.6513,-739.5"/>
<text text-anchor="start" x="822.6513" y="-817.5" font-family="Helvetica,sans-Serif" font-size="10.00" fill="#000000">variant&lt; o2::framework</text>
<text text-anchor="start" x="822.6513" y="-806.5" font-family="Helvetica,sans-Serif" font-size="10.00" fill="#000000">::ConcreteDataMatcher,</text>
<text text-anchor="start" x="822.6513" y="-795.5" font-family="Helvetica,sans-Serif" font-size="10.00" fill="#000000"> o2::framework::data_matcher</text>
<text text-anchor="middle" x="896.6513" y="-784.5" font-family="Helvetica,sans-Serif" font-size="10.00" fill="#000000">::DataDescriptorMatcher &gt;</text>
<polyline fill="none" stroke="#bfbfbf" points="814.6513,-777.5 978.6513,-777.5 "/>
<text text-anchor="middle" x="896.6513" y="-765.5" font-family="Helvetica,sans-Serif" font-size="10.00" fill="#000000"> </text>
<polyline fill="none" stroke="#bfbfbf" points="814.6513,-758.5 978.6513,-758.5 "/>
<text text-anchor="middle" x="896.6513" y="-746.5" font-family="Helvetica,sans-Serif" font-size="10.00" fill="#000000"> </text>
</g>
<!-- Node9&#45;&gt;Node7 -->
<g id="edge8" class="edge">
<title>Node9&#45;&gt;Node7</title>
<path fill="none" stroke="#404040" d="M865.4684,-739.3907C857.2456,-727.4956 848.1998,-714.41 839.3825,-701.6548"/>
<polygon fill="none" stroke="#404040" points="839.2039,-701.3964 832.5017,-698.7355 832.3802,-691.5254 839.0824,-694.1863 839.2039,-701.3964"/>
<text text-anchor="middle" x="876.6513" y="-713" font-family="Helvetica,sans-Serif" font-size="10.00" fill="#000000"> +matcher</text>
</g>
<!-- Node10 -->
<g id="node10" class="node">
<title>Node10</title>
<polygon fill="none" stroke="#bfbfbf" points="130.6513,-419.5 130.6513,-476.5 246.6513,-476.5 246.6513,-419.5 130.6513,-419.5"/>
<text text-anchor="middle" x="188.6513" y="-464.5" font-family="Helvetica,sans-Serif" font-size="10.00" fill="#000000">shared_ptr&lt; TH2F &gt;</text>
<polyline fill="none" stroke="#bfbfbf" points="130.6513,-457.5 246.6513,-457.5 "/>
<text text-anchor="middle" x="188.6513" y="-445.5" font-family="Helvetica,sans-Serif" font-size="10.00" fill="#000000"> </text>
<polyline fill="none" stroke="#bfbfbf" points="130.6513,-438.5 246.6513,-438.5 "/>
<text text-anchor="middle" x="188.6513" y="-426.5" font-family="Helvetica,sans-Serif" font-size="10.00" fill="#000000"> </text>
</g>
<!-- Node10&#45;&gt;Node2 -->
<g id="edge10" class="edge">
<title>Node10&#45;&gt;Node2</title>
<path fill="none" stroke="#404040" d="M192.6401,-419.3681C197.2875,-394.7978 206.9992,-359.5673 226.6513,-335 251.476,-303.9664 287.8625,-279.6903 321.198,-262.1221"/>
<polygon fill="none" stroke="#404040" points="321.2106,-262.1157 324.7324,-255.8231 331.8955,-256.6537 328.3737,-262.9464 321.2106,-262.1157"/>
<text text-anchor="middle" x="247.6513" y="-338" font-family="Helvetica,sans-Serif" font-size="10.00" fill="#000000"> +object</text>
</g>
<!-- Node11&#45;&gt;Node2 -->
<g id="edge11" class="edge">
<title>Node11&#45;&gt;Node2</title>
<path fill="none" stroke="#ffa500" d="M523.9716,-356.9177C507.8066,-339.5304 491.0314,-321.4869 475.3217,-304.5894"/>
<polygon fill="#ffa500" stroke="#ffa500" points="521.4849,-359.3833 530.8573,-364.324 526.6116,-354.617 521.4849,-359.3833"/>
<text text-anchor="middle" x="537.1513" y="-338" font-family="Helvetica,sans-Serif" font-size="10.00" fill="#000000"> &lt; TH2F &gt;</text>
</g>
<!-- Node11&#45;&gt;Node13 -->
<g id="edge25" class="edge">
<title>Node11&#45;&gt;Node13</title>
<path fill="none" stroke="#ffa500" d="M654.9908,-355.1104C661.3485,-342.3661 667.8645,-329.3044 674.1875,-316.6296"/>
<polygon fill="#ffa500" stroke="#ffa500" points="651.7266,-353.8132 650.3944,-364.324 657.9904,-356.9381 651.7266,-353.8132"/>
<text text-anchor="middle" x="689.1513" y="-338" font-family="Helvetica,sans-Serif" font-size="10.00" fill="#000000"> &lt; TH1F &gt;</text>
</g>
<!-- Node12 -->
<g id="node12" class="node">
<title>Node12</title>
<polygon fill="none" stroke="#bfbfbf" points="607.1513,-607 607.1513,-664 704.1513,-664 704.1513,-607 607.1513,-607"/>
<text text-anchor="middle" x="655.6513" y="-652" font-family="Helvetica,sans-Serif" font-size="10.00" fill="#000000">shared_ptr&lt; T &gt;</text>
<polyline fill="none" stroke="#bfbfbf" points="607.1513,-645 704.1513,-645 "/>
<text text-anchor="middle" x="655.6513" y="-633" font-family="Helvetica,sans-Serif" font-size="10.00" fill="#000000"> </text>
<polyline fill="none" stroke="#bfbfbf" points="607.1513,-626 704.1513,-626 "/>
<text text-anchor="middle" x="655.6513" y="-614" font-family="Helvetica,sans-Serif" font-size="10.00" fill="#000000"> </text>
</g>
<!-- Node12&#45;&gt;Node11 -->
<g id="edge15" class="edge">
<title>Node12&#45;&gt;Node11</title>
<path fill="none" stroke="#404040" d="M637.7037,-606.8647C630.1832,-593.4432 622.1551,-576.9276 617.6513,-561 616.0774,-555.4341 614.7463,-549.6568 613.623,-543.79"/>
<polygon fill="none" stroke="#404040" points="613.5742,-543.4971 608.6406,-538.2378 611.5978,-531.661 616.5313,-536.9202 613.5742,-543.4971"/>
<text text-anchor="middle" x="638.6513" y="-553" font-family="Helvetica,sans-Serif" font-size="10.00" fill="#000000"> +object</text>
</g>
<!-- Node13&#45;&gt;Node1 -->
<g id="edge18" class="edge">
<title>Node13&#45;&gt;Node1</title>
<path fill="none" stroke="#404040" d="M646.9522,-158.0743C615.002,-127.1371 578.6501,-91.9379 551.9872,-66.1204"/>
<polygon fill="none" stroke="#404040" points="551.9577,-66.0918 544.8647,-64.7917 543.3368,-57.7443 550.4298,-59.0444 551.9577,-66.0918"/>
<text text-anchor="middle" x="626.1513" y="-112" font-family="Helvetica,sans-Serif" font-size="10.00" fill="#000000"> +etaDiff</text>
<text text-anchor="middle" x="626.1513" y="-101" font-family="Helvetica,sans-Serif" font-size="10.00" fill="#000000">+ptRes</text>
<text text-anchor="middle" x="626.1513" y="-90" font-family="Helvetica,sans-Serif" font-size="10.00" fill="#000000">+ptDiff</text>
<text text-anchor="middle" x="626.1513" y="-79" font-family="Helvetica,sans-Serif" font-size="10.00" fill="#000000">+phiDiff</text>
</g>
<!-- Node14 -->
<g id="node14" class="node">
<title>Node14</title>
<polygon fill="none" stroke="#bfbfbf" points="1086.6513,-419.5 1086.6513,-476.5 1202.6513,-476.5 1202.6513,-419.5 1086.6513,-419.5"/>
<text text-anchor="middle" x="1144.6513" y="-464.5" font-family="Helvetica,sans-Serif" font-size="10.00" fill="#000000">shared_ptr&lt; TH1F &gt;</text>
<polyline fill="none" stroke="#bfbfbf" points="1086.6513,-457.5 1202.6513,-457.5 "/>
<text text-anchor="middle" x="1144.6513" y="-445.5" font-family="Helvetica,sans-Serif" font-size="10.00" fill="#000000"> </text>
<polyline fill="none" stroke="#bfbfbf" points="1086.6513,-438.5 1202.6513,-438.5 "/>
<text text-anchor="middle" x="1144.6513" y="-426.5" font-family="Helvetica,sans-Serif" font-size="10.00" fill="#000000"> </text>
</g>
<!-- Node14&#45;&gt;Node13 -->
<g id="edge24" class="edge">
<title>Node14&#45;&gt;Node13</title>
<path fill="none" stroke="#404040" d="M1133.2851,-419.29C1121.7094,-393.6237 1101.3732,-356.7965 1072.6513,-335 993.002,-274.556 879.3199,-247.8721 802.4478,-236.2405"/>
<polygon fill="none" stroke="#404040" points="802.3131,-236.2211 795.8015,-239.3193 790.4371,-234.5001 796.9488,-231.402 802.3131,-236.2211"/>
<text text-anchor="middle" x="1103.6513" y="-338" font-family="Helvetica,sans-Serif" font-size="10.00" fill="#000000"> +object</text>
</g>
</g>
</svg>
