<?xml version="1.0" encoding="UTF-8" standalone="no"?>
<!DOCTYPE svg PUBLIC "-//W3C//DTD SVG 1.1//EN"
 "http://www.w3.org/Graphics/SVG/1.1/DTD/svg11.dtd">
<!-- Generated by graphviz version 2.40.1 (20161225.0304)
 -->
<!-- Title: /home/travis/build/AliceO2Group/AliceO2/Utilities/Mergers/test/benchmark_Types.cxx Pages: 1 -->
<!--zoomable 184 -->
<svg id="main" version="1.1" xmlns="http://www.w3.org/2000/svg" xmlns:xlink="http://www.w3.org/1999/xlink" xml:space="preserve" onload="init(evt)">
<style type="text/css"><![CDATA[
.edge:hover path { stroke: red; }
.edge:hover polygon { stroke: red; fill: red; }
]]></style>
<script type="text/javascript"><![CDATA[
var edges = document.getElementsByTagName('g');
if (edges && edges.length) {
  for (var i=0;i<edges.length;i++) {
    if (edges[i].id.substr(0,4)=='edge') {
      edges[i].setAttribute('class','edge');
    }
  }
}
]]></script>
        <defs>
                <circle id="rim" cx="0" cy="0" r="7"/>
                <circle id="rim2" cx="0" cy="0" r="3.5"/>
                <g id="zoomPlus">
                        <use xlink:href="#rim" fill="#404040">
                                <set attributeName="fill" to="#808080" begin="zoomplus.mouseover" end="zoomplus.mouseout"/>
                        </use>
                        <path d="M-4,0h8M0,-4v8" fill="none" stroke="white" stroke-width="1.5" pointer-events="none"/>
                </g>
                <g id="zoomMin">
                        <use xlink:href="#rim" fill="#404040">
                                <set attributeName="fill" to="#808080" begin="zoomminus.mouseover" end="zoomminus.mouseout"/>
                        </use>
                        <path d="M-4,0h8" fill="none" stroke="white" stroke-width="1.5" pointer-events="none"/>
                </g>
                <g id="dirArrow">
                        <path fill="none" stroke="white" stroke-width="1.5" d="M0,-3.0v7 M-2.5,-0.5L0,-3.0L2.5,-0.5"/>
                </g>
               <g id="resetDef">
                       <use xlink:href="#rim2" fill="#404040">
                               <set attributeName="fill" to="#808080" begin="reset.mouseover" end="reset.mouseout"/>
                       </use>
               </g>
        </defs>

<script type="text/javascript">
var viewWidth = 2285;
var viewHeight = 184;
var sectionId = 'dynsection-0';
</script>
<script xlink:href="../../svgpan.js"/>
<svg id="graph" class="graph">
<g id="viewport">
<title>/home/travis/build/AliceO2Group/AliceO2/Utilities/Mergers/test/benchmark_Types.cxx</title>
<!-- Node0 -->
<g id="node1" class="node">
<title>Node0</title>
<polygon fill="#bfbfbf" stroke="#000000" points="1020.5,-123.5 1020.5,-175.5 1148.5,-175.5 1148.5,-123.5 1020.5,-123.5"/>
<text text-anchor="start" x="1028.5" y="-163.5" font-family="Helvetica,sans-Serif" font-size="10.00" fill="#000000">/home/travis/build</text>
<text text-anchor="start" x="1028.5" y="-152.5" font-family="Helvetica,sans-Serif" font-size="10.00" fill="#000000">/AliceO2Group/AliceO2</text>
<text text-anchor="start" x="1028.5" y="-141.5" font-family="Helvetica,sans-Serif" font-size="10.00" fill="#000000">/Utilities/Mergers/test</text>
<text text-anchor="middle" x="1084.5" y="-130.5" font-family="Helvetica,sans-Serif" font-size="10.00" fill="#000000">/benchmark_Types.cxx</text>
</g>
<!-- Node1 -->
<g id="node2" class="node">
<title>Node1</title>
<polygon fill="none" stroke="#bfbfbf" points="0,-.5 0,-19.5 73,-19.5 73,-.5 0,-.5"/>
<text text-anchor="middle" x="36.5" y="-7.5" font-family="Helvetica,sans-Serif" font-size="10.00" fill="#000000">TObjArray.h</text>
</g>
<!-- Node0&#45;&gt;Node1 -->
<g id="edge1" class="edge">
<title>Node0&#45;&gt;Node1</title>
<path fill="none" stroke="#191970" d="M1020.2656,-147.6101C846.4912,-142.0617 369.9656,-123.8413 217.5,-87 159.8521,-73.0701 97.1191,-42.6024 62.7321,-24.4466"/>
<polygon fill="#191970" stroke="#191970" points="64.2813,-21.3061 53.8126,-19.6762 60.98,-27.4787 64.2813,-21.3061"/>
</g>
<!-- Node2 -->
<g id="node3" class="node">
<title>Node2</title>
<polygon fill="none" stroke="#bfbfbf" points="509,-62 509,-81 554,-81 554,-62 509,-62"/>
<text text-anchor="middle" x="531.5" y="-69" font-family="Helvetica,sans-Serif" font-size="10.00" fill="#000000">TH1.h</text>
</g>
<!-- Node0&#45;&gt;Node2 -->
<g id="edge2" class="edge">
<title>Node0&#45;&gt;Node2</title>
<path fill="none" stroke="#191970" d="M1020.233,-144.4637C900.488,-134.6389 647.7502,-111.7043 563.5,-87 561.7896,-86.4985 560.0579,-85.9129 558.3315,-85.2686"/>
<polygon fill="#191970" stroke="#191970" points="559.2554,-81.8556 548.6866,-81.1128 556.4854,-88.2843 559.2554,-81.8556"/>
</g>
<!-- Node3 -->
<g id="node4" class="node">
<title>Node3</title>
<polygon fill="none" stroke="#bfbfbf" points="572,-62 572,-81 617,-81 617,-62 572,-62"/>
<text text-anchor="middle" x="594.5" y="-69" font-family="Helvetica,sans-Serif" font-size="10.00" fill="#000000">TH2.h</text>
</g>
<!-- Node0&#45;&gt;Node3 -->
<g id="edge3" class="edge">
<title>Node0&#45;&gt;Node3</title>
<path fill="none" stroke="#191970" d="M1020.1811,-147.0927C930.3094,-142.3073 762.8602,-128.1892 626.5,-87 624.6386,-86.4377 622.7507,-85.7792 620.8712,-85.0565"/>
<polygon fill="#191970" stroke="#191970" points="622.2683,-81.8475 611.7029,-81.0582 619.47,-88.2639 622.2683,-81.8475"/>
</g>
<!-- Node4 -->
<g id="node5" class="node">
<title>Node4</title>
<polygon fill="none" stroke="#bfbfbf" points="635,-62 635,-81 680,-81 680,-62 635,-62"/>
<text text-anchor="middle" x="657.5" y="-69" font-family="Helvetica,sans-Serif" font-size="10.00" fill="#000000">TH3.h</text>
</g>
<!-- Node0&#45;&gt;Node4 -->
<g id="edge4" class="edge">
<title>Node0&#45;&gt;Node4</title>
<path fill="none" stroke="#191970" d="M1020.2435,-145.1586C940.9674,-138.4863 802.7806,-122.5387 689.5,-87 687.8398,-86.4792 686.1572,-85.8851 684.4773,-85.2402"/>
<polygon fill="#191970" stroke="#191970" points="685.6265,-81.9235 675.06,-81.1479 682.8366,-88.3435 685.6265,-81.9235"/>
</g>
<!-- Node5 -->
<g id="node6" class="node">
<title>Node5</title>
<polygon fill="none" stroke="#bfbfbf" points="698.5,-62 698.5,-81 750.5,-81 750.5,-62 698.5,-62"/>
<text text-anchor="middle" x="724.5" y="-69" font-family="Helvetica,sans-Serif" font-size="10.00" fill="#000000">TTree.h</text>
</g>
<!-- Node0&#45;&gt;Node5 -->
<g id="edge5" class="edge">
<title>Node0&#45;&gt;Node5</title>
<path fill="none" stroke="#191970" d="M1020.2297,-141.5299C953.894,-132.2901 847.9173,-114.6846 759.5,-87 757.5974,-86.4043 755.6601,-85.7353 753.7223,-85.0185"/>
<polygon fill="#191970" stroke="#191970" points="754.7705,-81.6667 744.1881,-81.1524 752.14,-88.1537 754.7705,-81.6667"/>
</g>
<!-- Node6 -->
<g id="node7" class="node">
<title>Node6</title>
<polygon fill="none" stroke="#bfbfbf" points="768.5,-62 768.5,-81 846.5,-81 846.5,-62 768.5,-62"/>
<text text-anchor="middle" x="807.5" y="-69" font-family="Helvetica,sans-Serif" font-size="10.00" fill="#000000">THnSparse.h</text>
</g>
<!-- Node0&#45;&gt;Node6 -->
<g id="edge6" class="edge">
<title>Node0&#45;&gt;Node6</title>
<path fill="none" stroke="#191970" d="M1020.4311,-132.6495C974.6332,-120.4309 911.6114,-103.2636 856.5,-87 853.3337,-86.0656 850.0591,-85.0775 846.7736,-84.0708"/>
<polygon fill="#191970" stroke="#191970" points="847.5702,-80.6533 836.982,-81.0297 845.4939,-87.3384 847.5702,-80.6533"/>
</g>
<!-- Node7 -->
<g id="node8" class="node">
<title>Node7</title>
<polygon fill="none" stroke="#bfbfbf" points="865,-62 865,-81 908,-81 908,-62 865,-62"/>
<text text-anchor="middle" x="886.5" y="-69" font-family="Helvetica,sans-Serif" font-size="10.00" fill="#000000">TF1.h</text>
</g>
<!-- Node0&#45;&gt;Node7 -->
<g id="edge7" class="edge">
<title>Node0&#45;&gt;Node7</title>
<path fill="none" stroke="#191970" d="M1020.4292,-127.3147C989.0866,-116.0092 950.9889,-101.5904 917.5,-87 916.3209,-86.4863 915.1225,-85.9503 913.9164,-85.3993"/>
<polygon fill="#191970" stroke="#191970" points="915.24,-82.1529 904.7076,-81.0038 912.2246,-88.4701 915.24,-82.1529"/>
</g>
<!-- Node8 -->
<g id="node9" class="node">
<title>Node8</title>
<polygon fill="none" stroke="#bfbfbf" points="926,-62 926,-81 969,-81 969,-62 926,-62"/>
<text text-anchor="middle" x="947.5" y="-69" font-family="Helvetica,sans-Serif" font-size="10.00" fill="#000000">TF2.h</text>
</g>
<!-- Node0&#45;&gt;Node8 -->
<g id="edge8" class="edge">
<title>Node0&#45;&gt;Node8</title>
<path fill="none" stroke="#191970" d="M1038.4999,-123.3101C1016.7877,-110.9485 991.6829,-96.6552 973.3486,-86.2167"/>
<polygon fill="#191970" stroke="#191970" points="974.854,-83.0463 964.432,-81.1401 971.3905,-89.1295 974.854,-83.0463"/>
</g>
<!-- Node9 -->
<g id="node10" class="node">
<title>Node9</title>
<polygon fill="none" stroke="#bfbfbf" points="987,-62 987,-81 1030,-81 1030,-62 987,-62"/>
<text text-anchor="middle" x="1008.5" y="-69" font-family="Helvetica,sans-Serif" font-size="10.00" fill="#000000">TF3.h</text>
</g>
<!-- Node0&#45;&gt;Node9 -->
<g id="edge9" class="edge">
<title>Node0&#45;&gt;Node9</title>
<path fill="none" stroke="#191970" d="M1058.7699,-123.0928C1047.6247,-111.6543 1034.902,-98.5968 1025.0445,-88.4799"/>
<polygon fill="#191970" stroke="#191970" points="1027.3236,-85.8037 1017.8381,-81.0839 1022.31,-90.6887 1027.3236,-85.8037"/>
</g>
<!-- Node10 -->
<g id="node11" class="node">
<title>Node10</title>
<polygon fill="none" stroke="#bfbfbf" points="1048.5,-62 1048.5,-81 1120.5,-81 1120.5,-62 1048.5,-62"/>
<text text-anchor="middle" x="1084.5" y="-69" font-family="Helvetica,sans-Serif" font-size="10.00" fill="#000000">TRandom.h</text>
</g>
<!-- Node0&#45;&gt;Node10 -->
<g id="edge10" class="edge">
<title>Node0&#45;&gt;Node10</title>
<path fill="none" stroke="#191970" d="M1084.5,-123.0928C1084.5,-112.6735 1084.5,-100.911 1084.5,-91.2512"/>
<polygon fill="#191970" stroke="#191970" points="1088.0001,-91.0838 1084.5,-81.0839 1081.0001,-91.0839 1088.0001,-91.0838"/>
</g>
<!-- Node11 -->
<g id="node12" class="node">
<title>Node11</title>
<polygon fill="none" stroke="#bfbfbf" points="1138.5,-62 1138.5,-81 1230.5,-81 1230.5,-62 1138.5,-62"/>
<text text-anchor="middle" x="1184.5" y="-69" font-family="Helvetica,sans-Serif" font-size="10.00" fill="#000000">TRandomGen.h</text>
</g>
<!-- Node0&#45;&gt;Node11 -->
<g id="edge11" class="edge">
<title>Node0&#45;&gt;Node11</title>
<path fill="none" stroke="#191970" d="M1118.0767,-123.3101C1133.3434,-111.4021 1150.9081,-97.7017 1164.1395,-87.3812"/>
<polygon fill="#191970" stroke="#191970" points="1166.4085,-90.0502 1172.1409,-81.1401 1162.1032,-84.5307 1166.4085,-90.0502"/>
</g>
<!-- Node12 -->
<g id="node13" class="node">
<title>Node12</title>
<polygon fill="none" stroke="#bfbfbf" points="1248.5,-62 1248.5,-81 1298.5,-81 1298.5,-62 1248.5,-62"/>
<text text-anchor="middle" x="1273.5" y="-69" font-family="Helvetica,sans-Serif" font-size="10.00" fill="#000000">chrono</text>
</g>
<!-- Node0&#45;&gt;Node12 -->
<g id="edge12" class="edge">
<title>Node0&#45;&gt;Node12</title>
<path fill="none" stroke="#191970" d="M1148.8653,-124.289C1176.8342,-113.1427 1209.9053,-99.7051 1239.5,-87 1240.7071,-86.4818 1241.936,-85.9486 1243.1757,-85.4059"/>
<polygon fill="#191970" stroke="#191970" points="1244.9995,-88.425 1252.7073,-81.1558 1242.1487,-82.0317 1244.9995,-88.425"/>
</g>
<!-- Node13 -->
<g id="node14" class="node">
<title>Node13</title>
<polygon fill="none" stroke="#bfbfbf" points="1316.5,-62 1316.5,-81 1360.5,-81 1360.5,-62 1316.5,-62"/>
<text text-anchor="middle" x="1338.5" y="-69" font-family="Helvetica,sans-Serif" font-size="10.00" fill="#000000">ctime</text>
</g>
<!-- Node0&#45;&gt;Node13 -->
<g id="edge13" class="edge">
<title>Node0&#45;&gt;Node13</title>
<path fill="none" stroke="#191970" d="M1148.5054,-135.0012C1193.6589,-123.9454 1255.1755,-107.2017 1307.5,-87 1308.8683,-86.4717 1310.257,-85.9036 1311.6499,-85.3078"/>
<polygon fill="#191970" stroke="#191970" points="1313.1232,-88.4827 1320.7303,-81.1083 1310.1847,-82.1293 1313.1232,-88.4827"/>
</g>
<!-- Node14 -->
<g id="node15" class="node">
<title>Node14</title>
<polygon fill="none" stroke="#bfbfbf" points="91.5,-.5 91.5,-19.5 165.5,-19.5 165.5,-.5 91.5,-.5"/>
<text text-anchor="middle" x="128.5" y="-7.5" font-family="Helvetica,sans-Serif" font-size="10.00" fill="#000000">TMessage.h</text>
</g>
<!-- Node0&#45;&gt;Node14 -->
<g id="edge14" class="edge">
<title>Node0&#45;&gt;Node14</title>
<path fill="none" stroke="#191970" d="M1020.4252,-147.0782C859.2977,-140.553 440.4922,-120.7793 305.5,-87 249.2829,-72.9327 188.2491,-42.7347 154.5584,-24.6178"/>
<polygon fill="#191970" stroke="#191970" points="155.8672,-21.3451 145.4116,-19.633 152.5175,-27.4916 155.8672,-21.3451"/>
</g>
<!-- Node15 -->
<g id="node16" class="node">
<title>Node15</title>
<g id="a_node16"><a xlink:href="../../d8/d3c/TMessageSerializer_8h.html" target="_top" xlink:title="Framework/TMessageSerializer.h">
<polygon fill="none" stroke="#000000" points="314.5,-62 314.5,-81 490.5,-81 490.5,-62 314.5,-62"/>
<text text-anchor="middle" x="402.5" y="-69" font-family="Helvetica,sans-Serif" font-size="10.00" fill="#000000">Framework/TMessageSerializer.h</text>
</a>
</g>
</g>
<!-- Node0&#45;&gt;Node15 -->
<g id="edge15" class="edge">
<title>Node0&#45;&gt;Node15</title>
<path fill="none" stroke="#191970" d="M1020.4264,-143.7052C912.8109,-133.7346 689.0222,-111.9805 500.5,-87 490.4064,-85.6625 479.7493,-84.1163 469.327,-82.5291"/>
<polygon fill="#191970" stroke="#191970" points="469.8497,-79.0684 459.4325,-81.0003 468.7807,-85.9863 469.8497,-79.0684"/>
</g>
<!-- Node24 -->
<g id="node25" class="node">
<title>Node24</title>
<polygon fill="none" stroke="#bfbfbf" points="1379,-62 1379,-81 1448,-81 1448,-62 1379,-62"/>
<text text-anchor="middle" x="1413.5" y="-69" font-family="Helvetica,sans-Serif" font-size="10.00" fill="#000000">type_traits</text>
</g>
<!-- Node0&#45;&gt;Node24 -->
<g id="edge26" class="edge">
<title>Node0&#45;&gt;Node24</title>
<path fill="none" stroke="#191970" d="M1148.7295,-137.7564C1206.8617,-126.5751 1294.593,-108.3202 1369.5,-87 1372.443,-86.1624 1375.4757,-85.2343 1378.5075,-84.2609"/>
<polygon fill="#191970" stroke="#191970" points="1379.709,-87.5496 1388.0774,-81.0519 1377.4835,-80.9128 1379.709,-87.5496"/>
</g>
<!-- Node25 -->
<g id="node26" class="node">
<title>Node25</title>
<polygon fill="none" stroke="#bfbfbf" points="1466.5,-62 1466.5,-81 1526.5,-81 1526.5,-62 1466.5,-62"/>
<text text-anchor="middle" x="1496.5" y="-69" font-family="Helvetica,sans-Serif" font-size="10.00" fill="#000000">iostream</text>
</g>
<!-- Node0&#45;&gt;Node25 -->
<g id="edge27" class="edge">
<title>Node0&#45;&gt;Node25</title>
<path fill="none" stroke="#191970" d="M1148.7597,-142.9329C1223.8166,-134.3021 1351.2517,-116.6518 1457.5,-87 1460.1076,-86.2723 1462.7798,-85.4293 1465.4429,-84.5198"/>
<polygon fill="#191970" stroke="#191970" points="1466.7475,-87.7691 1474.9163,-81.0221 1464.323,-81.2024 1466.7475,-87.7691"/>
</g>
<!-- Node26 -->
<g id="node27" class="node">
<title>Node26</title>
<polygon fill="none" stroke="#bfbfbf" points="1545,-62 1545,-81 1600,-81 1600,-62 1545,-62"/>
<text text-anchor="middle" x="1572.5" y="-69" font-family="Helvetica,sans-Serif" font-size="10.00" fill="#000000">fstream</text>
</g>
<!-- Node0&#45;&gt;Node26 -->
<g id="edge28" class="edge">
<title>Node0&#45;&gt;Node26</title>
<path fill="none" stroke="#191970" d="M1148.6603,-145.8455C1237.0777,-139.6335 1400.7428,-123.8902 1535.5,-87 1537.8238,-86.3639 1540.1952,-85.6166 1542.5589,-84.7999"/>
<polygon fill="#191970" stroke="#191970" points="1543.9984,-87.9967 1552.0906,-81.1581 1541.5,-81.4577 1543.9984,-87.9967"/>
</g>
<!-- Node27 -->
<g id="node28" class="node">
<title>Node27</title>
<polygon fill="none" stroke="#bfbfbf" points="1618.5,-56.5 1618.5,-86.5 1734.5,-86.5 1734.5,-56.5 1618.5,-56.5"/>
<text text-anchor="start" x="1626.5" y="-74.5" font-family="Helvetica,sans-Serif" font-size="10.00" fill="#000000">boost/archive/binary</text>
<text text-anchor="middle" x="1676.5" y="-63.5" font-family="Helvetica,sans-Serif" font-size="10.00" fill="#000000">_iarchive.hpp</text>
</g>
<!-- Node0&#45;&gt;Node27 -->
<g id="edge29" class="edge">
<title>Node0&#45;&gt;Node27</title>
<path fill="none" stroke="#191970" d="M1148.6717,-144.13C1246.0418,-135.4814 1437.0319,-116.5606 1608.5105,-87.0609"/>
<polygon fill="#191970" stroke="#191970" points="1609.2204,-90.4901 1618.4742,-85.331 1608.0229,-83.5933 1609.2204,-90.4901"/>
</g>
<!-- Node28 -->
<g id="node29" class="node">
<title>Node28</title>
<polygon fill="none" stroke="#bfbfbf" points="1752.5,-56.5 1752.5,-86.5 1868.5,-86.5 1868.5,-56.5 1752.5,-56.5"/>
<text text-anchor="start" x="1760.5" y="-74.5" font-family="Helvetica,sans-Serif" font-size="10.00" fill="#000000">boost/archive/binary</text>
<text text-anchor="middle" x="1810.5" y="-63.5" font-family="Helvetica,sans-Serif" font-size="10.00" fill="#000000">_oarchive.hpp</text>
</g>
<!-- Node0&#45;&gt;Node28 -->
<g id="edge30" class="edge">
<title>Node0&#45;&gt;Node28</title>
<path fill="none" stroke="#191970" d="M1148.9401,-146.2357C1265.585,-139.7055 1519.5365,-122.6405 1742.5631,-87.018"/>
<polygon fill="#191970" stroke="#191970" points="1743.1737,-90.4649 1752.4887,-85.417 1742.0589,-83.5542 1743.1737,-90.4649"/>
</g>
<!-- Node29 -->
<g id="node30" class="node">
<title>Node29</title>
<polygon fill="none" stroke="#bfbfbf" points="1887,-62 1887,-81 2004,-81 2004,-62 1887,-62"/>
<text text-anchor="middle" x="1945.5" y="-69" font-family="Helvetica,sans-Serif" font-size="10.00" fill="#000000">boost/histogram.hpp</text>
</g>
<!-- Node0&#45;&gt;Node29 -->
<g id="edge31" class="edge">
<title>Node0&#45;&gt;Node29</title>
<path fill="none" stroke="#191970" d="M1148.5915,-147.6086C1283.9349,-142.9223 1608.5533,-128.0276 1877.5,-87 1884.2555,-85.9695 1891.3373,-84.64 1898.2733,-83.1934"/>
<polygon fill="#191970" stroke="#191970" points="1899.2515,-86.5624 1908.2758,-81.0115 1897.7596,-79.7232 1899.2515,-86.5624"/>
</g>
<!-- Node30 -->
<g id="node31" class="node">
<title>Node30</title>
<polygon fill="none" stroke="#bfbfbf" points="2022.5,-62 2022.5,-81 2202.5,-81 2202.5,-62 2022.5,-62"/>
<text text-anchor="middle" x="2112.5" y="-69" font-family="Helvetica,sans-Serif" font-size="10.00" fill="#000000">boost/histogram/serialization.hpp</text>
</g>
<!-- Node0&#45;&gt;Node30 -->
<g id="edge32" class="edge">
<title>Node0&#45;&gt;Node30</title>
<path fill="none" stroke="#191970" d="M1148.5911,-147.1357C1299.6331,-141.1393 1689.5891,-123.1813 2013.5,-87 2024.4207,-85.7801 2035.9792,-84.2186 2047.1961,-82.5584"/>
<polygon fill="#191970" stroke="#191970" points="2048.012,-85.9747 2057.3731,-81.0128 2046.9609,-79.054 2048.012,-85.9747"/>
</g>
<!-- Node31 -->
<g id="node32" class="node">
<title>Node31</title>
<polygon fill="none" stroke="#bfbfbf" points="2220.5,-62 2220.5,-81 2276.5,-81 2276.5,-62 2220.5,-62"/>
<text text-anchor="middle" x="2248.5" y="-69" font-family="Helvetica,sans-Serif" font-size="10.00" fill="#000000">sstream</text>
</g>
<!-- Node0&#45;&gt;Node31 -->
<g id="edge33" class="edge">
<title>Node0&#45;&gt;Node31</title>
<path fill="none" stroke="#191970" d="M1148.6867,-148.8048C1356.1521,-146.1091 2007.0376,-134.0233 2211.5,-87 2214.1449,-86.3917 2216.842,-85.6094 2219.514,-84.7203"/>
<polygon fill="#191970" stroke="#191970" points="2220.8297,-87.9647 2228.9434,-81.1516 2218.3519,-81.4178 2220.8297,-87.9647"/>
</g>
<!-- Node15&#45;&gt;Node1 -->
<g id="edge19" class="edge">
<title>Node15&#45;&gt;Node1</title>
<path fill="none" stroke="#191970" d="M336.7413,-61.9879C274.1373,-52.6887 177.0516,-37.6375 83.0845,-20.0286"/>
<polygon fill="#191970" stroke="#191970" points="83.5971,-16.5636 73.1216,-18.1496 82.2997,-23.4423 83.5971,-16.5636"/>
</g>
<!-- Node15&#45;&gt;Node14 -->
<g id="edge18" class="edge">
<title>Node15&#45;&gt;Node14</title>
<path fill="none" stroke="#191970" d="M359.9881,-61.9581C310.1022,-50.7611 227.6269,-32.2493 175.7705,-20.61"/>
<polygon fill="#191970" stroke="#191970" points="176.35,-17.153 165.8262,-18.378 174.8169,-23.9831 176.35,-17.153"/>
</g>
<!-- Node16 -->
<g id="node17" class="node">
<title>Node16</title>
<polygon fill="none" stroke="#bfbfbf" points="414,-.5 414,-19.5 551,-19.5 551,-.5 414,-.5"/>
<text text-anchor="middle" x="482.5" y="-7.5" font-family="Helvetica,sans-Serif" font-size="10.00" fill="#000000">fairmq/FairMQMessage.h</text>
</g>
<!-- Node15&#45;&gt;Node16 -->
<g id="edge16" class="edge">
<title>Node15&#45;&gt;Node16</title>
<path fill="none" stroke="#191970" d="M415,-61.8906C427.5636,-52.2324 447.1423,-37.1812 461.9849,-25.771"/>
<polygon fill="#191970" stroke="#191970" points="464.2928,-28.4115 470.0878,-19.5419 460.0265,-22.8618 464.2928,-28.4115"/>
</g>
<!-- Node17 -->
<g id="node18" class="node">
<title>Node17</title>
<polygon fill="none" stroke="#bfbfbf" points="569,-.5 569,-19.5 618,-19.5 618,-.5 569,-.5"/>
<text text-anchor="middle" x="593.5" y="-7.5" font-family="Helvetica,sans-Serif" font-size="10.00" fill="#000000">TList.h</text>
</g>
<!-- Node15&#45;&gt;Node17 -->
<g id="edge17" class="edge">
<title>Node15&#45;&gt;Node17</title>
<path fill="none" stroke="#191970" d="M432.3438,-61.8906C466.677,-50.8357 522.9536,-32.7152 559.0996,-21.0766"/>
<polygon fill="#191970" stroke="#191970" points="560.2799,-24.3736 568.7259,-17.977 558.1344,-17.7104 560.2799,-24.3736"/>
</g>
<!-- Node18 -->
<g id="node19" class="node">
<title>Node18</title>
<polygon fill="none" stroke="#bfbfbf" points="636,-.5 636,-19.5 731,-19.5 731,-.5 636,-.5"/>
<text text-anchor="middle" x="683.5" y="-7.5" font-family="Helvetica,sans-Serif" font-size="10.00" fill="#000000">TStreamerInfo.h</text>
</g>
<!-- Node15&#45;&gt;Node18 -->
<g id="edge20" class="edge">
<title>Node15&#45;&gt;Node18</title>
<path fill="none" stroke="#191970" d="M446.0979,-61.9581C495.6271,-51.1181 576.4807,-33.4224 629.8411,-21.7439"/>
<polygon fill="#191970" stroke="#191970" points="630.7793,-25.1214 639.7998,-19.5643 629.2827,-18.2833 630.7793,-25.1214"/>
</g>
<!-- Node19 -->
<g id="node20" class="node">
<title>Node19</title>
<polygon fill="none" stroke="#bfbfbf" points="749,-.5 749,-19.5 818,-19.5 818,-.5 749,-.5"/>
<text text-anchor="middle" x="783.5" y="-7.5" font-family="Helvetica,sans-Serif" font-size="10.00" fill="#000000">gsl/gsl_util</text>
</g>
<!-- Node15&#45;&gt;Node19 -->
<g id="edge21" class="edge">
<title>Node15&#45;&gt;Node19</title>
<path fill="none" stroke="#191970" d="M462.0864,-61.9978C474.7632,-59.998 488.0721,-57.9149 500.5,-56 603.8748,-40.0721 632.8198,-40.2078 738.6734,-20.2451"/>
<polygon fill="#191970" stroke="#191970" points="739.6468,-23.6228 748.8166,-18.3157 738.3387,-16.7461 739.6468,-23.6228"/>
</g>
<!-- Node20 -->
<g id="node21" class="node">
<title>Node20</title>
<polygon fill="none" stroke="#bfbfbf" points="836,-.5 836,-19.5 893,-19.5 893,-.5 836,-.5"/>
<text text-anchor="middle" x="864.5" y="-7.5" font-family="Helvetica,sans-Serif" font-size="10.00" fill="#000000">gsl/span</text>
</g>
<!-- Node15&#45;&gt;Node20 -->
<g id="edge22" class="edge">
<title>Node15&#45;&gt;Node20</title>
<path fill="none" stroke="#191970" d="M459.6951,-61.9885C473.067,-59.894 487.2687,-57.7737 500.5,-56 642.1602,-37.0102 682.0528,-46.6946 825.8394,-20.0852"/>
<polygon fill="#191970" stroke="#191970" points="826.7355,-23.4782 835.9178,-18.1927 825.4436,-16.5984 826.7355,-23.4782"/>
</g>
<!-- Node21 -->
<g id="node22" class="node">
<title>Node21</title>
<polygon fill="none" stroke="#bfbfbf" points="911.5,-.5 911.5,-19.5 969.5,-19.5 969.5,-.5 911.5,-.5"/>
<text text-anchor="middle" x="940.5" y="-7.5" font-family="Helvetica,sans-Serif" font-size="10.00" fill="#000000">memory</text>
</g>
<!-- Node15&#45;&gt;Node21 -->
<g id="edge23" class="edge">
<title>Node15&#45;&gt;Node21</title>
<path fill="none" stroke="#191970" d="M458.3783,-61.9941C472.1251,-59.8401 486.824,-57.6919 500.5,-56 675.3082,-34.3737 724.0548,-50.3347 901.2375,-19.9687"/>
<polygon fill="#191970" stroke="#191970" points="901.8969,-23.4066 911.1493,-18.245 900.6975,-16.5101 901.8969,-23.4066"/>
</g>
<!-- Node22 -->
<g id="node23" class="node">
<title>Node22</title>
<polygon fill="none" stroke="#bfbfbf" points="183.5,-.5 183.5,-19.5 231.5,-19.5 231.5,-.5 183.5,-.5"/>
<text text-anchor="middle" x="207.5" y="-7.5" font-family="Helvetica,sans-Serif" font-size="10.00" fill="#000000">mutex</text>
</g>
<!-- Node15&#45;&gt;Node22 -->
<g id="edge24" class="edge">
<title>Node15&#45;&gt;Node22</title>
<path fill="none" stroke="#191970" d="M372.0313,-61.8906C336.5873,-50.7122 278.2371,-32.3094 241.3916,-20.6889"/>
<polygon fill="#191970" stroke="#191970" points="242.1961,-17.2727 231.6064,-17.6028 240.0906,-23.9486 242.1961,-17.2727"/>
</g>
<!-- Node23 -->
<g id="node24" class="node">
<title>Node23</title>
<g id="a_node24"><a xlink:href="../../d7/df8/Types_8h.html" target="_top" xlink:title="MemoryResources/Types.h">
<polygon fill="none" stroke="#000000" points="249.5,-.5 249.5,-19.5 395.5,-19.5 395.5,-.5 249.5,-.5"/>
<text text-anchor="middle" x="322.5" y="-7.5" font-family="Helvetica,sans-Serif" font-size="10.00" fill="#000000">MemoryResources/Types.h</text>
</a>
</g>
</g>
<!-- Node15&#45;&gt;Node23 -->
<g id="edge25" class="edge">
<title>Node15&#45;&gt;Node23</title>
<path fill="none" stroke="#191970" d="M390,-61.8906C377.4364,-52.2324 357.8577,-37.1812 343.0151,-25.771"/>
<polygon fill="#191970" stroke="#191970" points="344.9735,-22.8618 334.9122,-19.5419 340.7072,-28.4115 344.9735,-22.8618"/>
</g>
</g>
</svg>
        <g id="navigator" transform="translate(0 0)" fill="#404254">
                <rect fill="#f2f5e9" fill-opacity="0.5" stroke="#606060" stroke-width=".5" x="0" y="0" width="60" height="60"/>
                <use id="zoomplus" xlink:href="#zoomPlus" x="17" y="9" onmousedown="handleZoom(evt,'in')"/>
                <use id="zoomminus" xlink:href="#zoomMin" x="42" y="9" onmousedown="handleZoom(evt,'out')"/>
                <use id="reset" xlink:href="#resetDef" x="30" y="36" onmousedown="handleReset()"/>
                <g id="arrowUp" xlink:href="#dirArrow" transform="translate(30 24)" onmousedown="handlePan(0,-1)">
                  <use xlink:href="#rim" fill="#404040">
                        <set attributeName="fill" to="#808080" begin="arrowUp.mouseover" end="arrowUp.mouseout"/>
                  </use>
                  <path fill="none" stroke="white" stroke-width="1.5" d="M0,-3.0v7 M-2.5,-0.5L0,-3.0L2.5,-0.5"/>
                </g>
                <g id="arrowRight" xlink:href="#dirArrow" transform="rotate(90) translate(36 -43)" onmousedown="handlePan(1,0)">
                  <use xlink:href="#rim" fill="#404040">
                        <set attributeName="fill" to="#808080" begin="arrowRight.mouseover" end="arrowRight.mouseout"/>
                  </use>
                  <path fill="none" stroke="white" stroke-width="1.5" d="M0,-3.0v7 M-2.5,-0.5L0,-3.0L2.5,-0.5"/>
                </g>
                <g id="arrowDown" xlink:href="#dirArrow" transform="rotate(180) translate(-30 -48)" onmousedown="handlePan(0,1)">
                  <use xlink:href="#rim" fill="#404040">
                        <set attributeName="fill" to="#808080" begin="arrowDown.mouseover" end="arrowDown.mouseout"/>
                  </use>
                  <path fill="none" stroke="white" stroke-width="1.5" d="M0,-3.0v7 M-2.5,-0.5L0,-3.0L2.5,-0.5"/>
                </g>
                <g id="arrowLeft" xlink:href="#dirArrow" transform="rotate(270) translate(-36 17)" onmousedown="handlePan(-1,0)">
                  <use xlink:href="#rim" fill="#404040">
                        <set attributeName="fill" to="#808080" begin="arrowLeft.mouseover" end="arrowLeft.mouseout"/>
                  </use>
                  <path fill="none" stroke="white" stroke-width="1.5" d="M0,-3.0v7 M-2.5,-0.5L0,-3.0L2.5,-0.5"/>
                </g>
        </g>
        <svg viewBox="0 0 15 15" width="100%" height="30px" preserveAspectRatio="xMaxYMin meet">
         <g id="arrow_out" transform="scale(0.3 0.3)">
          <a xlink:href="benchmark__Types_8cxx__incl_org.svg" target="_base">
           <rect id="button" ry="5" rx="5" y="6" x="6" height="38" width="38"
                fill="#f2f5e9" fill-opacity="0.5" stroke="#606060" stroke-width="1.0"/>
           <path id="arrow"
             d="M 11.500037,31.436501 C 11.940474,20.09759 22.043105,11.32322 32.158766,21.979434 L 37.068811,17.246167 C 37.068811,17.246167 37.088388,32 37.088388,32 L 22.160133,31.978069 C 22.160133,31.978069 26.997745,27.140456 26.997745,27.140456 C 18.528582,18.264221 13.291696,25.230495 11.500037,31.436501 z"
             style="fill:#404040;"/>
          </a>
         </g>
        </svg>
</svg>
