<?xml version="1.0" encoding="UTF-8" standalone="no"?>
<!DOCTYPE svg PUBLIC "-//W3C//DTD SVG 1.1//EN"
 "http://www.w3.org/Graphics/SVG/1.1/DTD/svg11.dtd">
<!-- Generated by graphviz version 2.40.1 (20161225.0304)
 -->
<!-- Title: o2::ft0::RawEventData Pages: 1 -->
<!--zoomable 485 -->
<svg id="main" version="1.1" xmlns="http://www.w3.org/2000/svg" xmlns:xlink="http://www.w3.org/1999/xlink" xml:space="preserve" onload="init(evt)">
<style type="text/css"><![CDATA[
.edge:hover path { stroke: red; }
.edge:hover polygon { stroke: red; fill: red; }
]]></style>
<script type="text/javascript"><![CDATA[
var edges = document.getElementsByTagName('g');
if (edges && edges.length) {
  for (var i=0;i<edges.length;i++) {
    if (edges[i].id.substr(0,4)=='edge') {
      edges[i].setAttribute('class','edge');
    }
  }
}
]]></script>
        <defs>
                <circle id="rim" cx="0" cy="0" r="7"/>
                <circle id="rim2" cx="0" cy="0" r="3.5"/>
                <g id="zoomPlus">
                        <use xlink:href="#rim" fill="#404040">
                                <set attributeName="fill" to="#808080" begin="zoomplus.mouseover" end="zoomplus.mouseout"/>
                        </use>
                        <path d="M-4,0h8M0,-4v8" fill="none" stroke="white" stroke-width="1.5" pointer-events="none"/>
                </g>
                <g id="zoomMin">
                        <use xlink:href="#rim" fill="#404040">
                                <set attributeName="fill" to="#808080" begin="zoomminus.mouseover" end="zoomminus.mouseout"/>
                        </use>
                        <path d="M-4,0h8" fill="none" stroke="white" stroke-width="1.5" pointer-events="none"/>
                </g>
                <g id="dirArrow">
                        <path fill="none" stroke="white" stroke-width="1.5" d="M0,-3.0v7 M-2.5,-0.5L0,-3.0L2.5,-0.5"/>
                </g>
               <g id="resetDef">
                       <use xlink:href="#rim2" fill="#404040">
                               <set attributeName="fill" to="#808080" begin="reset.mouseover" end="reset.mouseout"/>
                       </use>
               </g>
        </defs>

<script type="text/javascript">
var viewWidth = 1067;
var viewHeight = 485;
var sectionId = 'dynsection-0';
</script>
<script xlink:href="../../svgpan.js"/>
<svg id="graph" class="graph">
<g id="viewport">
<title>o2::ft0::RawEventData</title>
<!-- Node1 -->
<g id="node1" class="node">
<title>Node1</title>
<polygon fill="#bfbfbf" stroke="#000000" points="434.5,-.5 434.5,-112.5 560.5,-112.5 560.5,-.5 434.5,-.5"/>
<text text-anchor="middle" x="497.5" y="-100.5" font-family="Helvetica,sans-Serif" font-size="10.00" fill="#000000">o2::ft0::RawEventData</text>
<polyline fill="none" stroke="#000000" points="434.5,-93.5 560.5,-93.5 "/>
<text text-anchor="middle" x="497.5" y="-81.5" font-family="Helvetica,sans-Serif" font-size="10.00" fill="#000000"> </text>
<polyline fill="none" stroke="#000000" points="434.5,-74.5 560.5,-74.5 "/>
<text text-anchor="start" x="442.5" y="-62.5" font-family="Helvetica,sans-Serif" font-size="10.00" fill="#000000">+ RawEventData()</text>
<text text-anchor="start" x="442.5" y="-51.5" font-family="Helvetica,sans-Serif" font-size="10.00" fill="#000000">+ print()</text>
<text text-anchor="start" x="442.5" y="-40.5" font-family="Helvetica,sans-Serif" font-size="10.00" fill="#000000">+ size()</text>
<text text-anchor="start" x="442.5" y="-29.5" font-family="Helvetica,sans-Serif" font-size="10.00" fill="#000000">+ to_vector()</text>
<text text-anchor="start" x="442.5" y="-18.5" font-family="Helvetica,sans-Serif" font-size="10.00" fill="#000000">+ setIsPadded()</text>
<text text-anchor="start" x="442.5" y="-7.5" font-family="Helvetica,sans-Serif" font-size="10.00" fill="#000000">+ ClassDefNV()</text>
</g>
<!-- Node2 -->
<g id="node2" class="node">
<title>Node2</title>
<g id="a_node2"><a xlink:href="../../d9/d8e/structo2_1_1ft0_1_1EventHeader.html" target="_top" xlink:title="{o2::ft0::EventHeader\n||+ getIntRec()\l+ print()\l}">
<polygon fill="none" stroke="#000000" points="149,-177 149,-245 266,-245 266,-177 149,-177"/>
<text text-anchor="middle" x="207.5" y="-233" font-family="Helvetica,sans-Serif" font-size="10.00" fill="#000000">o2::ft0::EventHeader</text>
<polyline fill="none" stroke="#000000" points="149,-226 266,-226 "/>
<text text-anchor="middle" x="207.5" y="-214" font-family="Helvetica,sans-Serif" font-size="10.00" fill="#000000"> </text>
<polyline fill="none" stroke="#000000" points="149,-207 266,-207 "/>
<text text-anchor="start" x="157" y="-195" font-family="Helvetica,sans-Serif" font-size="10.00" fill="#000000">+ getIntRec()</text>
<text text-anchor="start" x="157" y="-184" font-family="Helvetica,sans-Serif" font-size="10.00" fill="#000000">+ print()</text>
</a>
</g>
</g>
<!-- Node2&#45;&gt;Node1 -->
<g id="edge1" class="edge">
<title>Node2&#45;&gt;Node1</title>
<path fill="none" stroke="#404040" d="M258.6114,-176.9666C281.6939,-162.1446 309.5549,-144.9998 335.5,-131 363.515,-115.8833 395.1626,-100.8902 423.0042,-88.3605"/>
<polygon fill="none" stroke="#404040" points="423.3183,-88.2203 427.1663,-82.1217 434.2758,-83.328 430.4279,-89.4266 423.3183,-88.2203"/>
<text text-anchor="middle" x="378" y="-134" font-family="Helvetica,sans-Serif" font-size="10.00" fill="#000000"> +mEventHeader</text>
</g>
<!-- Node3 -->
<g id="node3" class="node">
<title>Node3</title>
<g id="a_node3"><a xlink:href="../../d6/d30/classuint64__t.html" target="_top" xlink:title="{uint64_t\n||}">
<polygon fill="none" stroke="#000000" points="178.5,-419.5 178.5,-476.5 234.5,-476.5 234.5,-419.5 178.5,-419.5"/>
<text text-anchor="middle" x="206.5" y="-464.5" font-family="Helvetica,sans-Serif" font-size="10.00" fill="#000000">uint64_t</text>
<polyline fill="none" stroke="#000000" points="178.5,-457.5 234.5,-457.5 "/>
<text text-anchor="middle" x="206.5" y="-445.5" font-family="Helvetica,sans-Serif" font-size="10.00" fill="#000000"> </text>
<polyline fill="none" stroke="#000000" points="178.5,-438.5 234.5,-438.5 "/>
<text text-anchor="middle" x="206.5" y="-426.5" font-family="Helvetica,sans-Serif" font-size="10.00" fill="#000000"> </text>
</a>
</g>
</g>
<!-- Node3&#45;&gt;Node2 -->
<g id="edge2" class="edge">
<title>Node3&#45;&gt;Node2</title>
<path fill="none" stroke="#404040" d="M178.4863,-443.8744C153.7672,-438.5902 119.1547,-426.8032 102.5,-401 73.3363,-355.8167 76.9677,-327.3302 102.5,-280 110.7882,-264.6358 124.1562,-252.1345 138.6178,-242.2076"/>
<polygon fill="none" stroke="#404040" points="138.6376,-242.195 141.5458,-235.5963 148.7554,-235.7428 145.8472,-242.3415 138.6376,-242.195"/>
<text text-anchor="middle" x="143.5" y="-393" font-family="Helvetica,sans-Serif" font-size="10.00" fill="#000000"> +word</text>
<text text-anchor="middle" x="143.5" y="-382" font-family="Helvetica,sans-Serif" font-size="10.00" fill="#000000">+nGBTWords</text>
<text text-anchor="middle" x="143.5" y="-371" font-family="Helvetica,sans-Serif" font-size="10.00" fill="#000000">+startDescriptor</text>
<text text-anchor="middle" x="143.5" y="-360" font-family="Helvetica,sans-Serif" font-size="10.00" fill="#000000">+reservedField1</text>
<text text-anchor="middle" x="143.5" y="-349" font-family="Helvetica,sans-Serif" font-size="10.00" fill="#000000">+reservedField2</text>
<text text-anchor="middle" x="143.5" y="-338" font-family="Helvetica,sans-Serif" font-size="10.00" fill="#000000">+bc</text>
<text text-anchor="middle" x="143.5" y="-327" font-family="Helvetica,sans-Serif" font-size="10.00" fill="#000000">+reservedField3</text>
<text text-anchor="middle" x="143.5" y="-316" font-family="Helvetica,sans-Serif" font-size="10.00" fill="#000000">+orbit</text>
<text text-anchor="middle" x="143.5" y="-305" font-family="Helvetica,sans-Serif" font-size="10.00" fill="#000000">+errorPhase</text>
<text text-anchor="middle" x="143.5" y="-294" font-family="Helvetica,sans-Serif" font-size="10.00" fill="#000000">+phase</text>
<text text-anchor="middle" x="143.5" y="-283" font-family="Helvetica,sans-Serif" font-size="10.00" fill="#000000">...</text>
</g>
<!-- Node6 -->
<g id="node6" class="node">
<title>Node6</title>
<g id="a_node6"><a xlink:href="../../d2/df4/structo2_1_1ft0_1_1EventData.html" target="_top" xlink:title="{o2::ft0::EventData\n|+ isDoubleEvent\l+ isTimeInfoNOTvalid\l|+ generateFlags()\l+ getFlagWord()\l+ print()\l+ fillChannelData()\l}">
<polygon fill="none" stroke="#000000" points="649,-160.5 649,-261.5 774,-261.5 774,-160.5 649,-160.5"/>
<text text-anchor="middle" x="711.5" y="-249.5" font-family="Helvetica,sans-Serif" font-size="10.00" fill="#000000">o2::ft0::EventData</text>
<polyline fill="none" stroke="#000000" points="649,-242.5 774,-242.5 "/>
<text text-anchor="start" x="657" y="-230.5" font-family="Helvetica,sans-Serif" font-size="10.00" fill="#000000">+ isDoubleEvent</text>
<text text-anchor="start" x="657" y="-219.5" font-family="Helvetica,sans-Serif" font-size="10.00" fill="#000000">+ isTimeInfoNOTvalid</text>
<polyline fill="none" stroke="#000000" points="649,-212.5 774,-212.5 "/>
<text text-anchor="start" x="657" y="-200.5" font-family="Helvetica,sans-Serif" font-size="10.00" fill="#000000">+ generateFlags()</text>
<text text-anchor="start" x="657" y="-189.5" font-family="Helvetica,sans-Serif" font-size="10.00" fill="#000000">+ getFlagWord()</text>
<text text-anchor="start" x="657" y="-178.5" font-family="Helvetica,sans-Serif" font-size="10.00" fill="#000000">+ print()</text>
<text text-anchor="start" x="657" y="-167.5" font-family="Helvetica,sans-Serif" font-size="10.00" fill="#000000">+ fillChannelData()</text>
</a>
</g>
</g>
<!-- Node3&#45;&gt;Node6 -->
<g id="edge6" class="edge">
<title>Node3&#45;&gt;Node6</title>
<path fill="none" stroke="#404040" d="M234.5353,-443.919C273.8455,-438.2185 347.5891,-427.6042 410.5,-419 440.9229,-414.8391 525.1755,-422.0827 547.5,-401 587.2986,-363.4153 533.1175,-319.9886 570.5,-280 589.8605,-259.2898 606.8061,-271.9322 637.2888,-261.9397"/>
<polygon fill="none" stroke="#404040" points="637.5269,-261.844 641.6027,-255.8952 648.6615,-257.3695 644.5857,-263.3183 637.5269,-261.844"/>
<text text-anchor="middle" x="614.5" y="-393" font-family="Helvetica,sans-Serif" font-size="10.00" fill="#000000"> +isEventInTVDC</text>
<text text-anchor="middle" x="614.5" y="-382" font-family="Helvetica,sans-Serif" font-size="10.00" fill="#000000">+word</text>
<text text-anchor="middle" x="614.5" y="-371" font-family="Helvetica,sans-Serif" font-size="10.00" fill="#000000">+isTimeInfoLate</text>
<text text-anchor="middle" x="614.5" y="-360" font-family="Helvetica,sans-Serif" font-size="10.00" fill="#000000">+numberADC</text>
<text text-anchor="middle" x="614.5" y="-349" font-family="Helvetica,sans-Serif" font-size="10.00" fill="#000000">+isCFDinADCgate</text>
<text text-anchor="middle" x="614.5" y="-338" font-family="Helvetica,sans-Serif" font-size="10.00" fill="#000000">+word_zeros</text>
<text text-anchor="middle" x="614.5" y="-327" font-family="Helvetica,sans-Serif" font-size="10.00" fill="#000000">+channelID</text>
<text text-anchor="middle" x="614.5" y="-316" font-family="Helvetica,sans-Serif" font-size="10.00" fill="#000000">+isTimeInfoLost</text>
<text text-anchor="middle" x="614.5" y="-305" font-family="Helvetica,sans-Serif" font-size="10.00" fill="#000000">+reservedField</text>
<text text-anchor="middle" x="614.5" y="-294" font-family="Helvetica,sans-Serif" font-size="10.00" fill="#000000">+isAmpHigh</text>
<text text-anchor="middle" x="614.5" y="-283" font-family="Helvetica,sans-Serif" font-size="10.00" fill="#000000">...</text>
</g>
<!-- Node11 -->
<g id="node11" class="node">
<title>Node11</title>
<g id="a_node11"><a xlink:href="../../d6/d6b/structo2_1_1ft0_1_1TCMdata.html" target="_top" xlink:title="{o2::ft0::TCMdata\n||+ print()\l+ fillTrigger()\l}">
<polygon fill="none" stroke="#000000" points="365.5,-177 365.5,-245 461.5,-245 461.5,-177 365.5,-177"/>
<text text-anchor="middle" x="413.5" y="-233" font-family="Helvetica,sans-Serif" font-size="10.00" fill="#000000">o2::ft0::TCMdata</text>
<polyline fill="none" stroke="#000000" points="365.5,-226 461.5,-226 "/>
<text text-anchor="middle" x="413.5" y="-214" font-family="Helvetica,sans-Serif" font-size="10.00" fill="#000000"> </text>
<polyline fill="none" stroke="#000000" points="365.5,-207 461.5,-207 "/>
<text text-anchor="start" x="373.5" y="-195" font-family="Helvetica,sans-Serif" font-size="10.00" fill="#000000">+ print()</text>
<text text-anchor="start" x="373.5" y="-184" font-family="Helvetica,sans-Serif" font-size="10.00" fill="#000000">+ fillTrigger()</text>
</a>
</g>
</g>
<!-- Node3&#45;&gt;Node11 -->
<g id="edge13" class="edge">
<title>Node3&#45;&gt;Node11</title>
<path fill="none" stroke="#404040" d="M197.1133,-419.3858C187.1166,-382.9902 176.5875,-320.066 207.5,-280 226.335,-255.5877 245.1085,-271.3196 274.5,-262 300.8351,-253.6495 329.558,-243.3212 354.0217,-234.1478"/>
<polygon fill="none" stroke="#404040" points="354.0719,-234.1289 358.2715,-228.2668 365.2978,-229.8887 361.0983,-235.7508 354.0719,-234.1289"/>
<text text-anchor="middle" x="247.5" y="-393" font-family="Helvetica,sans-Serif" font-size="10.00" fill="#000000"> +orA</text>
<text text-anchor="middle" x="247.5" y="-382" font-family="Helvetica,sans-Serif" font-size="10.00" fill="#000000">+nChanA</text>
<text text-anchor="middle" x="247.5" y="-371" font-family="Helvetica,sans-Serif" font-size="10.00" fill="#000000">+sCen</text>
<text text-anchor="middle" x="247.5" y="-360" font-family="Helvetica,sans-Serif" font-size="10.00" fill="#000000">+orC</text>
<text text-anchor="middle" x="247.5" y="-349" font-family="Helvetica,sans-Serif" font-size="10.00" fill="#000000">+nChanC</text>
<text text-anchor="middle" x="247.5" y="-338" font-family="Helvetica,sans-Serif" font-size="10.00" fill="#000000">+reservedField1</text>
<text text-anchor="middle" x="247.5" y="-327" font-family="Helvetica,sans-Serif" font-size="10.00" fill="#000000">+reservedField2</text>
<text text-anchor="middle" x="247.5" y="-316" font-family="Helvetica,sans-Serif" font-size="10.00" fill="#000000">+reservedField3</text>
<text text-anchor="middle" x="247.5" y="-305" font-family="Helvetica,sans-Serif" font-size="10.00" fill="#000000">+vertex</text>
<text text-anchor="middle" x="247.5" y="-294" font-family="Helvetica,sans-Serif" font-size="10.00" fill="#000000">+cen</text>
<text text-anchor="middle" x="247.5" y="-283" font-family="Helvetica,sans-Serif" font-size="10.00" fill="#000000">...</text>
</g>
<!-- Node4 -->
<g id="node4" class="node">
<title>Node4</title>
<polygon fill="none" stroke="#bfbfbf" points="419.5,-419.5 419.5,-476.5 463.5,-476.5 463.5,-419.5 419.5,-419.5"/>
<text text-anchor="middle" x="441.5" y="-464.5" font-family="Helvetica,sans-Serif" font-size="10.00" fill="#000000">static</text>
<polyline fill="none" stroke="#bfbfbf" points="419.5,-457.5 463.5,-457.5 "/>
<text text-anchor="middle" x="441.5" y="-445.5" font-family="Helvetica,sans-Serif" font-size="10.00" fill="#000000"> </text>
<polyline fill="none" stroke="#bfbfbf" points="419.5,-438.5 463.5,-438.5 "/>
<text text-anchor="middle" x="441.5" y="-426.5" font-family="Helvetica,sans-Serif" font-size="10.00" fill="#000000"> </text>
</g>
<!-- Node4&#45;&gt;Node2 -->
<g id="edge3" class="edge">
<title>Node4&#45;&gt;Node2</title>
<path fill="none" stroke="#404040" d="M419.3067,-443.0221C385.3867,-434.9613 323.0399,-418.2108 308.5,-401 273.2759,-359.3056 314.4055,-327.4895 287.5,-280 282.0555,-270.3903 274.7458,-261.4835 266.7497,-253.4808"/>
<polygon fill="none" stroke="#404040" points="266.6213,-253.3607 259.5072,-252.1817 257.8593,-245.1614 264.9734,-246.3404 266.6213,-253.3607"/>
<text text-anchor="middle" x="363" y="-354.5" font-family="Helvetica,sans-Serif" font-size="10.00" fill="#000000"> +PayloadPerGBTword</text>
<text text-anchor="middle" x="363" y="-343.5" font-family="Helvetica,sans-Serif" font-size="10.00" fill="#000000">+MaxNelements</text>
<text text-anchor="middle" x="363" y="-332.5" font-family="Helvetica,sans-Serif" font-size="10.00" fill="#000000">+MinNelements</text>
<text text-anchor="middle" x="363" y="-321.5" font-family="Helvetica,sans-Serif" font-size="10.00" fill="#000000">+PayloadSize</text>
</g>
<!-- Node4&#45;&gt;Node6 -->
<g id="edge8" class="edge">
<title>Node4&#45;&gt;Node6</title>
<path fill="none" stroke="#404040" d="M463.5259,-446.3571C513.8127,-442.1454 634.8598,-429.2467 662.5,-401 700.7851,-361.8747 670.6828,-332.6972 685.5,-280 686.1367,-277.7356 686.816,-275.4407 687.5284,-273.1315"/>
<polygon fill="none" stroke="#404040" points="687.5897,-272.944 685.6551,-265.9973 691.3234,-261.5396 693.258,-268.4864 687.5897,-272.944"/>
<text text-anchor="middle" x="750.5" y="-371" font-family="Helvetica,sans-Serif" font-size="10.00" fill="#000000"> +PayloadSizeSecondWord</text>
<text text-anchor="middle" x="750.5" y="-360" font-family="Helvetica,sans-Serif" font-size="10.00" fill="#000000">+PayloadSizeFirstWord</text>
<text text-anchor="middle" x="750.5" y="-349" font-family="Helvetica,sans-Serif" font-size="10.00" fill="#000000">+BitFlagPos</text>
<text text-anchor="middle" x="750.5" y="-338" font-family="Helvetica,sans-Serif" font-size="10.00" fill="#000000">+PayloadPerGBTword</text>
<text text-anchor="middle" x="750.5" y="-327" font-family="Helvetica,sans-Serif" font-size="10.00" fill="#000000">+MaxNelements</text>
<text text-anchor="middle" x="750.5" y="-316" font-family="Helvetica,sans-Serif" font-size="10.00" fill="#000000">+MinNelements</text>
<text text-anchor="middle" x="750.5" y="-305" font-family="Helvetica,sans-Serif" font-size="10.00" fill="#000000">+PayloadSize</text>
</g>
<!-- Node4&#45;&gt;Node11 -->
<g id="edge15" class="edge">
<title>Node4&#45;&gt;Node11</title>
<path fill="none" stroke="#404040" d="M438.1225,-419.4123C433.3591,-379.0931 424.6155,-305.0851 418.9324,-256.981"/>
<polygon fill="none" stroke="#404040" points="418.9304,-256.9641 414.2541,-251.4748 417.5224,-245.0469 422.1988,-250.5362 418.9304,-256.9641"/>
<text text-anchor="middle" x="489" y="-354.5" font-family="Helvetica,sans-Serif" font-size="10.00" fill="#000000"> +PayloadPerGBTword</text>
<text text-anchor="middle" x="489" y="-343.5" font-family="Helvetica,sans-Serif" font-size="10.00" fill="#000000">+MaxNelements</text>
<text text-anchor="middle" x="489" y="-332.5" font-family="Helvetica,sans-Serif" font-size="10.00" fill="#000000">+MinNelements</text>
<text text-anchor="middle" x="489" y="-321.5" font-family="Helvetica,sans-Serif" font-size="10.00" fill="#000000">+PayloadSize</text>
</g>
<!-- Node5 -->
<g id="node5" class="node">
<title>Node5</title>
<polygon fill="none" stroke="#bfbfbf" points="0,-419.5 0,-476.5 101,-476.5 101,-419.5 0,-419.5"/>
<text text-anchor="middle" x="50.5" y="-464.5" font-family="Helvetica,sans-Serif" font-size="10.00" fill="#000000">anonymous:+@8</text>
<polyline fill="none" stroke="#bfbfbf" points="0,-457.5 101,-457.5 "/>
<text text-anchor="middle" x="50.5" y="-445.5" font-family="Helvetica,sans-Serif" font-size="10.00" fill="#000000"> </text>
<polyline fill="none" stroke="#bfbfbf" points="0,-438.5 101,-438.5 "/>
<text text-anchor="middle" x="50.5" y="-426.5" font-family="Helvetica,sans-Serif" font-size="10.00" fill="#000000"> </text>
</g>
<!-- Node5&#45;&gt;Node2 -->
<g id="edge4" class="edge">
<title>Node5&#45;&gt;Node2</title>
<path fill="none" stroke="#404040" d="M41.7219,-419.4862C32.5584,-383.7625 22.9967,-322.1297 50.5,-280 69.8513,-250.3576 105.0939,-233.3657 137.2922,-223.6677"/>
<polygon fill="none" stroke="#404040" points="137.4212,-223.6318 142.1292,-218.1697 148.982,-220.4148 144.2739,-225.8769 137.4212,-223.6318"/>
<text text-anchor="middle" x="64.5" y="-338" font-family="Helvetica,sans-Serif" font-size="10.00" fill="#000000"> +@8</text>
</g>
<!-- Node6&#45;&gt;Node1 -->
<g id="edge5" class="edge">
<title>Node6&#45;&gt;Node1</title>
<path fill="none" stroke="#404040" d="M687.3317,-160.0882C680.6747,-149.5445 672.7048,-139.1733 663.5,-131 637.4235,-107.8455 602.9671,-90.8067 572.2075,-78.915"/>
<polygon fill="none" stroke="#404040" points="571.8722,-78.7903 564.8542,-80.448 560.6248,-74.6074 567.6429,-72.9497 571.8722,-78.7903"/>
<text text-anchor="middle" x="710" y="-134" font-family="Helvetica,sans-Serif" font-size="10.00" fill="#000000"> +mEventData</text>
</g>
<!-- Node7 -->
<g id="node7" class="node">
<title>Node7</title>
<polygon fill="none" stroke="#bfbfbf" points="847.5,-419.5 847.5,-476.5 897.5,-476.5 897.5,-419.5 847.5,-419.5"/>
<text text-anchor="middle" x="872.5" y="-464.5" font-family="Helvetica,sans-Serif" font-size="10.00" fill="#000000">int64_t</text>
<polyline fill="none" stroke="#bfbfbf" points="847.5,-457.5 897.5,-457.5 "/>
<text text-anchor="middle" x="872.5" y="-445.5" font-family="Helvetica,sans-Serif" font-size="10.00" fill="#000000"> </text>
<polyline fill="none" stroke="#bfbfbf" points="847.5,-438.5 897.5,-438.5 "/>
<text text-anchor="middle" x="872.5" y="-426.5" font-family="Helvetica,sans-Serif" font-size="10.00" fill="#000000"> </text>
</g>
<!-- Node7&#45;&gt;Node6 -->
<g id="edge7" class="edge">
<title>Node7&#45;&gt;Node6</title>
<path fill="none" stroke="#404040" d="M897.636,-429.1449C905.9051,-421.4348 914.1012,-411.7832 918.5,-401 938.8125,-351.2059 949.9444,-323.6268 918.5,-280 902.4895,-257.7866 838.5493,-238.6575 785.9182,-226.213"/>
<polygon fill="none" stroke="#404040" points="785.8886,-226.2062 779.1423,-228.7534 774.1963,-223.5057 780.9426,-220.9586 785.8886,-226.2062"/>
<text text-anchor="middle" x="958.5" y="-343.5" font-family="Helvetica,sans-Serif" font-size="10.00" fill="#000000"> +time</text>
<text text-anchor="middle" x="958.5" y="-332.5" font-family="Helvetica,sans-Serif" font-size="10.00" fill="#000000">+charge</text>
</g>
<!-- Node7&#45;&gt;Node11 -->
<g id="edge14" class="edge">
<title>Node7&#45;&gt;Node11</title>
<path fill="none" stroke="#404040" d="M847.3583,-421.7777C842.3997,-415.392 837.736,-408.2887 834.5,-401 812.4107,-351.2464 855.9233,-316.4597 815.5,-280 787.3255,-254.5881 509.8113,-275.8808 474.5,-262 468.3174,-259.5696 462.3035,-256.2507 456.6136,-252.4632"/>
<polygon fill="none" stroke="#404040" points="456.4302,-252.3287 449.2264,-252.0046 446.7548,-245.2302 453.9586,-245.5543 456.4302,-252.3287"/>
<text text-anchor="middle" x="874.5" y="-382" font-family="Helvetica,sans-Serif" font-size="10.00" fill="#000000"> +timeA</text>
<text text-anchor="middle" x="874.5" y="-371" font-family="Helvetica,sans-Serif" font-size="10.00" fill="#000000">+timeC</text>
<text text-anchor="middle" x="874.5" y="-360" font-family="Helvetica,sans-Serif" font-size="10.00" fill="#000000">+reservedField4</text>
<text text-anchor="middle" x="874.5" y="-349" font-family="Helvetica,sans-Serif" font-size="10.00" fill="#000000">+reservedField5</text>
<text text-anchor="middle" x="874.5" y="-338" font-family="Helvetica,sans-Serif" font-size="10.00" fill="#000000">+reservedField6</text>
<text text-anchor="middle" x="874.5" y="-327" font-family="Helvetica,sans-Serif" font-size="10.00" fill="#000000">+amplA</text>
<text text-anchor="middle" x="874.5" y="-316" font-family="Helvetica,sans-Serif" font-size="10.00" fill="#000000">+reservedField7</text>
<text text-anchor="middle" x="874.5" y="-305" font-family="Helvetica,sans-Serif" font-size="10.00" fill="#000000">+reservedField8</text>
<text text-anchor="middle" x="874.5" y="-294" font-family="Helvetica,sans-Serif" font-size="10.00" fill="#000000">+amplC</text>
</g>
<!-- Node8 -->
<g id="node8" class="node">
<title>Node8</title>
<polygon fill="none" stroke="#bfbfbf" points="952,-419.5 952,-476.5 1059,-476.5 1059,-419.5 952,-419.5"/>
<text text-anchor="middle" x="1005.5" y="-464.5" font-family="Helvetica,sans-Serif" font-size="10.00" fill="#000000">anonymous:+@12</text>
<polyline fill="none" stroke="#bfbfbf" points="952,-457.5 1059,-457.5 "/>
<text text-anchor="middle" x="1005.5" y="-445.5" font-family="Helvetica,sans-Serif" font-size="10.00" fill="#000000"> </text>
<polyline fill="none" stroke="#bfbfbf" points="952,-438.5 1059,-438.5 "/>
<text text-anchor="middle" x="1005.5" y="-426.5" font-family="Helvetica,sans-Serif" font-size="10.00" fill="#000000"> </text>
</g>
<!-- Node8&#45;&gt;Node6 -->
<g id="edge9" class="edge">
<title>Node8&#45;&gt;Node6</title>
<path fill="none" stroke="#404040" d="M1010.5953,-419.4286C1015.4267,-382.4938 1017.5884,-318.3769 983.5,-280 957.5799,-250.819 857.5503,-231.136 786.3357,-220.493"/>
<polygon fill="none" stroke="#404040" points="786.1599,-220.4675 779.6457,-223.5602 774.2854,-218.7366 780.7996,-215.6439 786.1599,-220.4675"/>
<text text-anchor="middle" x="1029.5" y="-338" font-family="Helvetica,sans-Serif" font-size="10.00" fill="#000000"> +@12</text>
</g>
<!-- Node9 -->
<g id="node9" class="node">
<title>Node9</title>
<polygon fill="none" stroke="#bfbfbf" points="483,-182.5 483,-239.5 512,-239.5 512,-182.5 483,-182.5"/>
<text text-anchor="middle" x="497.5" y="-227.5" font-family="Helvetica,sans-Serif" font-size="10.00" fill="#000000">int</text>
<polyline fill="none" stroke="#bfbfbf" points="483,-220.5 512,-220.5 "/>
<text text-anchor="middle" x="497.5" y="-208.5" font-family="Helvetica,sans-Serif" font-size="10.00" fill="#000000"> </text>
<polyline fill="none" stroke="#bfbfbf" points="483,-201.5 512,-201.5 "/>
<text text-anchor="middle" x="497.5" y="-189.5" font-family="Helvetica,sans-Serif" font-size="10.00" fill="#000000"> </text>
</g>
<!-- Node9&#45;&gt;Node1 -->
<g id="edge10" class="edge">
<title>Node9&#45;&gt;Node1</title>
<path fill="none" stroke="#404040" d="M497.5,-182.3018C497.5,-166.0376 497.5,-144.9447 497.5,-124.6936"/>
<polygon fill="none" stroke="#404040" points="497.5001,-124.5784 493.5,-118.5785 497.5,-112.5784 501.5,-118.5784 497.5001,-124.5784"/>
<text text-anchor="middle" x="543" y="-134" font-family="Helvetica,sans-Serif" font-size="10.00" fill="#000000"> +gStartDescriptor</text>
</g>
<!-- Node10 -->
<g id="node10" class="node">
<title>Node10</title>
<polygon fill="none" stroke="#bfbfbf" points="592.5,-182.5 592.5,-239.5 630.5,-239.5 630.5,-182.5 592.5,-182.5"/>
<text text-anchor="middle" x="611.5" y="-227.5" font-family="Helvetica,sans-Serif" font-size="10.00" fill="#000000">bool</text>
<polyline fill="none" stroke="#bfbfbf" points="592.5,-220.5 630.5,-220.5 "/>
<text text-anchor="middle" x="611.5" y="-208.5" font-family="Helvetica,sans-Serif" font-size="10.00" fill="#000000"> </text>
<polyline fill="none" stroke="#bfbfbf" points="592.5,-201.5 630.5,-201.5 "/>
<text text-anchor="middle" x="611.5" y="-189.5" font-family="Helvetica,sans-Serif" font-size="10.00" fill="#000000"> </text>
</g>
<!-- Node10&#45;&gt;Node1 -->
<g id="edge11" class="edge">
<title>Node10&#45;&gt;Node1</title>
<path fill="none" stroke="#404040" d="M607.9992,-182.1936C605.0064,-166.1179 599.5138,-146.3096 589.5,-131 583.9206,-122.47 577.0502,-114.4489 569.5985,-107.0598"/>
<polygon fill="none" stroke="#404040" points="569.3977,-106.8724 562.2823,-105.7017 560.6262,-98.6833 567.7417,-99.854 569.3977,-106.8724"/>
<text text-anchor="middle" x="627" y="-134" font-family="Helvetica,sans-Serif" font-size="10.00" fill="#000000"> +mIsPadded</text>
</g>
<!-- Node11&#45;&gt;Node1 -->
<g id="edge12" class="edge">
<title>Node11&#45;&gt;Node1</title>
<path fill="none" stroke="#404040" d="M416.1913,-176.9738C418.3772,-162.2352 422.3353,-145.1535 429.5,-131 430.8841,-128.2658 432.3967,-125.5573 434.0138,-122.8837"/>
<polygon fill="none" stroke="#404040" points="434.0905,-122.768 434.0699,-115.5569 440.7183,-112.7644 440.7389,-119.9755 434.0905,-122.768"/>
<text text-anchor="middle" x="461.5" y="-134" font-family="Helvetica,sans-Serif" font-size="10.00" fill="#000000"> +mTCMdata</text>
</g>
</g>
</svg>
        <g id="navigator" transform="translate(0 0)" fill="#404254">
                <rect fill="#f2f5e9" fill-opacity="0.5" stroke="#606060" stroke-width=".5" x="0" y="0" width="60" height="60"/>
                <use id="zoomplus" xlink:href="#zoomPlus" x="17" y="9" onmousedown="handleZoom(evt,'in')"/>
                <use id="zoomminus" xlink:href="#zoomMin" x="42" y="9" onmousedown="handleZoom(evt,'out')"/>
                <use id="reset" xlink:href="#resetDef" x="30" y="36" onmousedown="handleReset()"/>
                <g id="arrowUp" xlink:href="#dirArrow" transform="translate(30 24)" onmousedown="handlePan(0,-1)">
                  <use xlink:href="#rim" fill="#404040">
                        <set attributeName="fill" to="#808080" begin="arrowUp.mouseover" end="arrowUp.mouseout"/>
                  </use>
                  <path fill="none" stroke="white" stroke-width="1.5" d="M0,-3.0v7 M-2.5,-0.5L0,-3.0L2.5,-0.5"/>
                </g>
                <g id="arrowRight" xlink:href="#dirArrow" transform="rotate(90) translate(36 -43)" onmousedown="handlePan(1,0)">
                  <use xlink:href="#rim" fill="#404040">
                        <set attributeName="fill" to="#808080" begin="arrowRight.mouseover" end="arrowRight.mouseout"/>
                  </use>
                  <path fill="none" stroke="white" stroke-width="1.5" d="M0,-3.0v7 M-2.5,-0.5L0,-3.0L2.5,-0.5"/>
                </g>
                <g id="arrowDown" xlink:href="#dirArrow" transform="rotate(180) translate(-30 -48)" onmousedown="handlePan(0,1)">
                  <use xlink:href="#rim" fill="#404040">
                        <set attributeName="fill" to="#808080" begin="arrowDown.mouseover" end="arrowDown.mouseout"/>
                  </use>
                  <path fill="none" stroke="white" stroke-width="1.5" d="M0,-3.0v7 M-2.5,-0.5L0,-3.0L2.5,-0.5"/>
                </g>
                <g id="arrowLeft" xlink:href="#dirArrow" transform="rotate(270) translate(-36 17)" onmousedown="handlePan(-1,0)">
                  <use xlink:href="#rim" fill="#404040">
                        <set attributeName="fill" to="#808080" begin="arrowLeft.mouseover" end="arrowLeft.mouseout"/>
                  </use>
                  <path fill="none" stroke="white" stroke-width="1.5" d="M0,-3.0v7 M-2.5,-0.5L0,-3.0L2.5,-0.5"/>
                </g>
        </g>
        <svg viewBox="0 0 15 15" width="100%" height="30px" preserveAspectRatio="xMaxYMin meet">
         <g id="arrow_out" transform="scale(0.3 0.3)">
          <a xlink:href="classo2_1_1ft0_1_1RawEventData__coll__graph_org.svg" target="_base">
           <rect id="button" ry="5" rx="5" y="6" x="6" height="38" width="38"
                fill="#f2f5e9" fill-opacity="0.5" stroke="#606060" stroke-width="1.0"/>
           <path id="arrow"
             d="M 11.500037,31.436501 C 11.940474,20.09759 22.043105,11.32322 32.158766,21.979434 L 37.068811,17.246167 C 37.068811,17.246167 37.088388,32 37.088388,32 L 22.160133,31.978069 C 22.160133,31.978069 26.997745,27.140456 26.997745,27.140456 C 18.528582,18.264221 13.291696,25.230495 11.500037,31.436501 z"
             style="fill:#404040;"/>
          </a>
         </g>
        </svg>
</svg>
