<?xml version="1.0" encoding="UTF-8" standalone="no"?>
<!DOCTYPE svg PUBLIC "-//W3C//DTD SVG 1.1//EN"
 "http://www.w3.org/Graphics/SVG/1.1/DTD/svg11.dtd">
<!-- Generated by graphviz version 2.40.1 (20161225.0304)
 -->
<!-- Title: /home/travis/build/AliceO2Group/AliceO2/Detectors/FIT/FV0/base/include/FV0Base/Constants.h Pages: 1 -->
<svg width="418pt" height="173pt"
 viewBox="0.00 0.00 418.00 173.00" xmlns="http://www.w3.org/2000/svg" xmlns:xlink="http://www.w3.org/1999/xlink">
<g id="graph0" class="graph" transform="scale(1 1) rotate(0) translate(4 169)">
<title>/home/travis/build/AliceO2Group/AliceO2/Detectors/FIT/FV0/base/include/FV0Base/Constants.h</title>
<!-- Node0 -->
<g id="node1" class="node">
<title>Node0</title>
<polygon fill="#bfbfbf" stroke="#000000" points="86,-112.5 86,-164.5 247,-164.5 247,-112.5 86,-112.5"/>
<text text-anchor="start" x="94" y="-152.5" font-family="Helvetica,sans-Serif" font-size="10.00" fill="#000000">/home/travis/build</text>
<text text-anchor="start" x="94" y="-141.5" font-family="Helvetica,sans-Serif" font-size="10.00" fill="#000000">/AliceO2Group/AliceO2</text>
<text text-anchor="start" x="94" y="-130.5" font-family="Helvetica,sans-Serif" font-size="10.00" fill="#000000">/Detectors/FIT/FV0/base</text>
<text text-anchor="middle" x="166.5" y="-119.5" font-family="Helvetica,sans-Serif" font-size="10.00" fill="#000000">/include/FV0Base/Constants.h</text>
</g>
<!-- Node1 -->
<g id="node2" class="node">
<title>Node1</title>
<g id="a_node2"><a xlink:href="../../d8/de0/FIT_2FV0_2base_2include_2FV0Base_2Geometry_8h.html" target="_top" xlink:title="FV0Base/Geometry.h">
<polygon fill="none" stroke="#000000" points="107.5,-56.5 107.5,-75.5 225.5,-75.5 225.5,-56.5 107.5,-56.5"/>
<text text-anchor="middle" x="166.5" y="-63.5" font-family="Helvetica,sans-Serif" font-size="10.00" fill="#000000">FV0Base/Geometry.h</text>
</a>
</g>
</g>
<!-- Node0&#45;&gt;Node1 -->
<g id="edge1" class="edge">
<title>Node0&#45;&gt;Node1</title>
<path fill="none" stroke="#191970" d="M166.5,-112.3258C166.5,-103.5142 166.5,-93.8397 166.5,-85.621"/>
<polygon fill="#191970" stroke="#191970" points="170.0001,-85.534 166.5,-75.534 163.0001,-85.534 170.0001,-85.534"/>
</g>
<!-- Node2 -->
<g id="node3" class="node">
<title>Node2</title>
<polygon fill="none" stroke="#bfbfbf" points="0,-.5 0,-19.5 47,-19.5 47,-.5 0,-.5"/>
<text text-anchor="middle" x="23.5" y="-7.5" font-family="Helvetica,sans-Serif" font-size="10.00" fill="#000000">vector</text>
</g>
<!-- Node1&#45;&gt;Node2 -->
<g id="edge2" class="edge">
<title>Node1&#45;&gt;Node2</title>
<path fill="none" stroke="#191970" d="M141.9174,-56.3733C118.4088,-47.1671 82.785,-33.2165 56.75,-23.021"/>
<polygon fill="#191970" stroke="#191970" points="57.8744,-19.7025 47.2866,-19.315 55.3218,-26.2206 57.8744,-19.7025"/>
</g>
<!-- Node3 -->
<g id="node4" class="node">
<title>Node3</title>
<polygon fill="none" stroke="#bfbfbf" points="65.5,-.5 65.5,-19.5 107.5,-19.5 107.5,-.5 65.5,-.5"/>
<text text-anchor="middle" x="86.5" y="-7.5" font-family="Helvetica,sans-Serif" font-size="10.00" fill="#000000">array</text>
</g>
<!-- Node1&#45;&gt;Node3 -->
<g id="edge3" class="edge">
<title>Node1&#45;&gt;Node3</title>
<path fill="none" stroke="#191970" d="M152.5651,-56.2455C140.4053,-47.7337 122.5536,-35.2375 108.4715,-25.3801"/>
<polygon fill="#191970" stroke="#191970" points="110.4747,-22.51 100.2752,-19.6427 106.4605,-28.2447 110.4747,-22.51"/>
</g>
<!-- Node4 -->
<g id="node5" class="node">
<title>Node4</title>
<polygon fill="none" stroke="#bfbfbf" points="125.5,-.5 125.5,-19.5 207.5,-19.5 207.5,-.5 125.5,-.5"/>
<text text-anchor="middle" x="166.5" y="-7.5" font-family="Helvetica,sans-Serif" font-size="10.00" fill="#000000">TGeoMatrix.h</text>
</g>
<!-- Node1&#45;&gt;Node4 -->
<g id="edge4" class="edge">
<title>Node1&#45;&gt;Node4</title>
<path fill="none" stroke="#191970" d="M166.5,-56.2455C166.5,-48.9382 166.5,-38.6944 166.5,-29.7046"/>
<polygon fill="#191970" stroke="#191970" points="170.0001,-29.6426 166.5,-19.6427 163.0001,-29.6427 170.0001,-29.6426"/>
</g>
<!-- Node5 -->
<g id="node6" class="node">
<title>Node5</title>
<polygon fill="none" stroke="#bfbfbf" points="225.5,-.5 225.5,-19.5 313.5,-19.5 313.5,-.5 225.5,-.5"/>
<text text-anchor="middle" x="269.5" y="-7.5" font-family="Helvetica,sans-Serif" font-size="10.00" fill="#000000">TGeoVolume.h</text>
</g>
<!-- Node1&#45;&gt;Node5 -->
<g id="edge5" class="edge">
<title>Node1&#45;&gt;Node5</title>
<path fill="none" stroke="#191970" d="M184.4412,-56.2455C200.54,-47.4928 224.3879,-34.527 242.7391,-24.5496"/>
<polygon fill="#191970" stroke="#191970" points="244.6507,-27.4942 251.7644,-19.6427 241.3071,-21.3444 244.6507,-27.4942"/>
</g>
<!-- Node6 -->
<g id="node7" class="node">
<title>Node6</title>
<polygon fill="none" stroke="#bfbfbf" points="331,-.5 331,-19.5 410,-19.5 410,-.5 331,-.5"/>
<text text-anchor="middle" x="370.5" y="-7.5" font-family="Helvetica,sans-Serif" font-size="10.00" fill="#000000">TVirtualMC.h</text>
</g>
<!-- Node1&#45;&gt;Node6 -->
<g id="edge6" class="edge">
<title>Node1&#45;&gt;Node6</title>
<path fill="none" stroke="#191970" d="M201.5689,-56.3733C235.9315,-46.9404 288.4392,-32.5265 325.7851,-22.2747"/>
<polygon fill="#191970" stroke="#191970" points="327.172,-25.5235 335.8888,-19.5011 325.319,-18.7732 327.172,-25.5235"/>
</g>
</g>
</svg>
