<?xml version="1.0" encoding="UTF-8" standalone="no"?>
<!DOCTYPE svg PUBLIC "-//W3C//DTD SVG 1.1//EN"
 "http://www.w3.org/Graphics/SVG/1.1/DTD/svg11.dtd">
<!-- Generated by graphviz version 2.40.1 (20161225.0304)
 -->
<!-- Title: o2::rans::DedupDecoder&lt; coder_T, stream_T, source_T &gt; Pages: 1 -->
<svg width="407pt" height="420pt"
 viewBox="0.00 0.00 406.50 420.00" xmlns="http://www.w3.org/2000/svg" xmlns:xlink="http://www.w3.org/1999/xlink">
<g id="graph0" class="graph" transform="scale(1 1) rotate(0) translate(4 416)">
<title>o2::rans::DedupDecoder&lt; coder_T, stream_T, source_T &gt;</title>
<!-- Node2 -->
<g id="node1" class="node">
<title>Node2</title>
<polygon fill="#bfbfbf" stroke="#000000" points="91.5,-.5 91.5,-68.5 270.5,-68.5 270.5,-.5 91.5,-.5"/>
<text text-anchor="start" x="99.5" y="-56.5" font-family="Helvetica,sans-Serif" font-size="10.00" fill="#000000">o2::rans::DedupDecoder</text>
<text text-anchor="middle" x="181" y="-45.5" font-family="Helvetica,sans-Serif" font-size="10.00" fill="#000000">&lt; coder_T, stream_T, source_T &gt;</text>
<polyline fill="none" stroke="#000000" points="91.5,-38.5 270.5,-38.5 "/>
<text text-anchor="middle" x="181" y="-26.5" font-family="Helvetica,sans-Serif" font-size="10.00" fill="#000000"> </text>
<polyline fill="none" stroke="#000000" points="91.5,-19.5 270.5,-19.5 "/>
<text text-anchor="start" x="99.5" y="-7.5" font-family="Helvetica,sans-Serif" font-size="10.00" fill="#000000">+ process()</text>
</g>
<!-- Node3 -->
<g id="node2" class="node">
<title>Node3</title>
<g id="a_node2"><a xlink:href="../../d0/d91/classo2_1_1rans_1_1Decoder.html" target="_top" xlink:title="{o2::rans::Decoder\&lt;\l coder_T, stream_T,\l source_T \&gt;\n||+ Decoder()\l+ Decoder()\l+ operator=()\l+ operator=()\l+ ~Decoder()\l+ Decoder()\l+ process()\l+ getAlphabetRangeBits()\l+ getMinSymbol()\l+ getMaxSymbol()\l}">
<polygon fill="none" stroke="#000000" points="109,-106.5 109,-284.5 253,-284.5 253,-106.5 109,-106.5"/>
<text text-anchor="start" x="117" y="-272.5" font-family="Helvetica,sans-Serif" font-size="10.00" fill="#000000">o2::rans::Decoder&lt;</text>
<text text-anchor="start" x="117" y="-261.5" font-family="Helvetica,sans-Serif" font-size="10.00" fill="#000000"> coder_T, stream_T,</text>
<text text-anchor="middle" x="181" y="-250.5" font-family="Helvetica,sans-Serif" font-size="10.00" fill="#000000"> source_T &gt;</text>
<polyline fill="none" stroke="#000000" points="109,-243.5 253,-243.5 "/>
<text text-anchor="middle" x="181" y="-231.5" font-family="Helvetica,sans-Serif" font-size="10.00" fill="#000000"> </text>
<polyline fill="none" stroke="#000000" points="109,-224.5 253,-224.5 "/>
<text text-anchor="start" x="117" y="-212.5" font-family="Helvetica,sans-Serif" font-size="10.00" fill="#000000">+ Decoder()</text>
<text text-anchor="start" x="117" y="-201.5" font-family="Helvetica,sans-Serif" font-size="10.00" fill="#000000">+ Decoder()</text>
<text text-anchor="start" x="117" y="-190.5" font-family="Helvetica,sans-Serif" font-size="10.00" fill="#000000">+ operator=()</text>
<text text-anchor="start" x="117" y="-179.5" font-family="Helvetica,sans-Serif" font-size="10.00" fill="#000000">+ operator=()</text>
<text text-anchor="start" x="117" y="-168.5" font-family="Helvetica,sans-Serif" font-size="10.00" fill="#000000">+ ~Decoder()</text>
<text text-anchor="start" x="117" y="-157.5" font-family="Helvetica,sans-Serif" font-size="10.00" fill="#000000">+ Decoder()</text>
<text text-anchor="start" x="117" y="-146.5" font-family="Helvetica,sans-Serif" font-size="10.00" fill="#000000">+ process()</text>
<text text-anchor="start" x="117" y="-135.5" font-family="Helvetica,sans-Serif" font-size="10.00" fill="#000000">+ getAlphabetRangeBits()</text>
<text text-anchor="start" x="117" y="-124.5" font-family="Helvetica,sans-Serif" font-size="10.00" fill="#000000">+ getMinSymbol()</text>
<text text-anchor="start" x="117" y="-113.5" font-family="Helvetica,sans-Serif" font-size="10.00" fill="#000000">+ getMaxSymbol()</text>
</a>
</g>
</g>
<!-- Node3&#45;&gt;Node2 -->
<g id="edge1" class="edge">
<title>Node3&#45;&gt;Node2</title>
<path fill="none" stroke="#191970" d="M181,-95.8456C181,-86.1612 181,-76.8694 181,-68.5763"/>
<polygon fill="none" stroke="#191970" points="177.5001,-96.0545 181,-106.0545 184.5001,-96.0546 177.5001,-96.0545"/>
</g>
<!-- Node4 -->
<g id="node3" class="node">
<title>Node4</title>
<polygon fill="none" stroke="#bfbfbf" points="0,-338 0,-406 140,-406 140,-338 0,-338"/>
<text text-anchor="start" x="8" y="-394" font-family="Helvetica,sans-Serif" font-size="10.00" fill="#000000">unique_ptr&lt; o2::rans</text>
<text text-anchor="middle" x="70" y="-383" font-family="Helvetica,sans-Serif" font-size="10.00" fill="#000000">::internal::SymbolTable &gt;</text>
<polyline fill="none" stroke="#bfbfbf" points="0,-376 140,-376 "/>
<text text-anchor="middle" x="70" y="-364" font-family="Helvetica,sans-Serif" font-size="10.00" fill="#000000"> </text>
<polyline fill="none" stroke="#bfbfbf" points="0,-357 140,-357 "/>
<text text-anchor="middle" x="70" y="-345" font-family="Helvetica,sans-Serif" font-size="10.00" fill="#000000"> </text>
</g>
<!-- Node4&#45;&gt;Node3 -->
<g id="edge2" class="edge">
<title>Node4&#45;&gt;Node3</title>
<path fill="none" stroke="#404040" d="M78.6413,-337.977C82.2545,-326.4882 87.0254,-313.8367 93,-303 95.8003,-297.9209 98.8509,-292.8475 102.0802,-287.8235"/>
<polygon fill="none" stroke="#404040" points="102.2552,-287.5625 102.2733,-280.3514 108.9366,-277.5946 108.9185,-284.8057 102.2552,-287.5625"/>
<text text-anchor="middle" x="135" y="-306" font-family="Helvetica,sans-Serif" font-size="10.00" fill="#000000"> #mSymbolTable</text>
</g>
<!-- Node5 -->
<g id="node4" class="node">
<title>Node5</title>
<polygon fill="none" stroke="#bfbfbf" points="158.5,-343.5 158.5,-400.5 203.5,-400.5 203.5,-343.5 158.5,-343.5"/>
<text text-anchor="middle" x="181" y="-388.5" font-family="Helvetica,sans-Serif" font-size="10.00" fill="#000000">size_t</text>
<polyline fill="none" stroke="#bfbfbf" points="158.5,-381.5 203.5,-381.5 "/>
<text text-anchor="middle" x="181" y="-369.5" font-family="Helvetica,sans-Serif" font-size="10.00" fill="#000000"> </text>
<polyline fill="none" stroke="#bfbfbf" points="158.5,-362.5 203.5,-362.5 "/>
<text text-anchor="middle" x="181" y="-350.5" font-family="Helvetica,sans-Serif" font-size="10.00" fill="#000000"> </text>
</g>
<!-- Node5&#45;&gt;Node3 -->
<g id="edge3" class="edge">
<title>Node5&#45;&gt;Node3</title>
<path fill="none" stroke="#404040" d="M181,-343.2494C181,-330.2012 181,-313.9047 181,-296.9429"/>
<polygon fill="none" stroke="#404040" points="181.0001,-296.5115 177,-290.5115 181,-284.5115 185,-290.5115 181.0001,-296.5115"/>
<text text-anchor="middle" x="227.5" y="-306" font-family="Helvetica,sans-Serif" font-size="10.00" fill="#000000"> #mProbabilityBits</text>
</g>
<!-- Node6 -->
<g id="node5" class="node">
<title>Node6</title>
<polygon fill="none" stroke="#bfbfbf" points="221.5,-332.5 221.5,-411.5 398.5,-411.5 398.5,-332.5 221.5,-332.5"/>
<text text-anchor="start" x="229.5" y="-399.5" font-family="Helvetica,sans-Serif" font-size="10.00" fill="#000000">unique_ptr&lt; o2::rans</text>
<text text-anchor="start" x="229.5" y="-388.5" font-family="Helvetica,sans-Serif" font-size="10.00" fill="#000000">::internal::ReverseSymbolLookup</text>
<text text-anchor="middle" x="310" y="-377.5" font-family="Helvetica,sans-Serif" font-size="10.00" fill="#000000">Table &gt;</text>
<polyline fill="none" stroke="#bfbfbf" points="221.5,-370.5 398.5,-370.5 "/>
<text text-anchor="middle" x="310" y="-358.5" font-family="Helvetica,sans-Serif" font-size="10.00" fill="#000000"> </text>
<polyline fill="none" stroke="#bfbfbf" points="221.5,-351.5 398.5,-351.5 "/>
<text text-anchor="middle" x="310" y="-339.5" font-family="Helvetica,sans-Serif" font-size="10.00" fill="#000000"> </text>
</g>
<!-- Node6&#45;&gt;Node3 -->
<g id="edge4" class="edge">
<title>Node6&#45;&gt;Node3</title>
<path fill="none" stroke="#404040" d="M294.0226,-332.221C289.4009,-322.3577 283.9717,-312.0323 278,-303 272.7269,-295.0243 266.8795,-287.0456 260.7448,-279.2408"/>
<polygon fill="none" stroke="#404040" points="260.6764,-279.1561 253.7951,-277.0001 253.1387,-269.8189 260.02,-271.9749 260.6764,-279.1561"/>
<text text-anchor="middle" x="323.5" y="-306" font-family="Helvetica,sans-Serif" font-size="10.00" fill="#000000"> #mReverseLUT</text>
</g>
</g>
</svg>
