<?xml version="1.0" encoding="UTF-8" standalone="no"?>
<!DOCTYPE svg PUBLIC "-//W3C//DTD SVG 1.1//EN"
 "http://www.w3.org/Graphics/SVG/1.1/DTD/svg11.dtd">
<!-- Generated by graphviz version 2.40.1 (20161225.0304)
 -->
<!-- Title: /home/travis/build/AliceO2Group/AliceO2/Analysis/Core/src/TriggerAliases.cxx Pages: 1 -->
<svg width="251pt" height="162pt"
 viewBox="0.00 0.00 250.50 162.00" xmlns="http://www.w3.org/2000/svg" xmlns:xlink="http://www.w3.org/1999/xlink">
<g id="graph0" class="graph" transform="scale(1 1) rotate(0) translate(4 158)">
<title>/home/travis/build/AliceO2Group/AliceO2/Analysis/Core/src/TriggerAliases.cxx</title>
<!-- Node0 -->
<g id="node1" class="node">
<title>Node0</title>
<polygon fill="#bfbfbf" stroke="#000000" points="12.5,-112.5 12.5,-153.5 207.5,-153.5 207.5,-112.5 12.5,-112.5"/>
<text text-anchor="start" x="20.5" y="-141.5" font-family="Helvetica,sans-Serif" font-size="10.00" fill="#000000">/home/travis/build</text>
<text text-anchor="start" x="20.5" y="-130.5" font-family="Helvetica,sans-Serif" font-size="10.00" fill="#000000">/AliceO2Group/AliceO2</text>
<text text-anchor="middle" x="110" y="-119.5" font-family="Helvetica,sans-Serif" font-size="10.00" fill="#000000">/Analysis/Core/src/TriggerAliases.cxx</text>
</g>
<!-- Node1 -->
<g id="node2" class="node">
<title>Node1</title>
<g id="a_node2"><a xlink:href="../../d6/d44/TriggerAliases_8h.html" target="_top" xlink:title="Analysis/TriggerAliases.h">
<polygon fill="none" stroke="#000000" points="41,-56.5 41,-75.5 179,-75.5 179,-56.5 41,-56.5"/>
<text text-anchor="middle" x="110" y="-63.5" font-family="Helvetica,sans-Serif" font-size="10.00" fill="#000000">Analysis/TriggerAliases.h</text>
</a>
</g>
</g>
<!-- Node0&#45;&gt;Node1 -->
<g id="edge1" class="edge">
<title>Node0&#45;&gt;Node1</title>
<path fill="none" stroke="#191970" d="M110,-112.168C110,-103.8226 110,-94.2471 110,-85.9879"/>
<polygon fill="#191970" stroke="#191970" points="113.5001,-85.7804 110,-75.7805 106.5001,-85.7805 113.5001,-85.7804"/>
</g>
<!-- Node2 -->
<g id="node3" class="node">
<title>Node2</title>
<polygon fill="none" stroke="#bfbfbf" points="0,-.5 0,-19.5 38,-19.5 38,-.5 0,-.5"/>
<text text-anchor="middle" x="19" y="-7.5" font-family="Helvetica,sans-Serif" font-size="10.00" fill="#000000">map</text>
</g>
<!-- Node1&#45;&gt;Node2 -->
<g id="edge2" class="edge">
<title>Node1&#45;&gt;Node2</title>
<path fill="none" stroke="#191970" d="M94.149,-56.2455C80.1868,-47.6534 59.6272,-35.0014 43.5404,-25.1018"/>
<polygon fill="#191970" stroke="#191970" points="45.0203,-21.9029 34.6693,-19.6427 41.3516,-27.8645 45.0203,-21.9029"/>
</g>
<!-- Node3 -->
<g id="node4" class="node">
<title>Node3</title>
<polygon fill="none" stroke="#bfbfbf" points="56,-.5 56,-19.5 100,-19.5 100,-.5 56,-.5"/>
<text text-anchor="middle" x="78" y="-7.5" font-family="Helvetica,sans-Serif" font-size="10.00" fill="#000000">string</text>
</g>
<!-- Node1&#45;&gt;Node3 -->
<g id="edge3" class="edge">
<title>Node1&#45;&gt;Node3</title>
<path fill="none" stroke="#191970" d="M104.426,-56.2455C100.0669,-48.617 93.8789,-37.7881 88.5867,-28.5267"/>
<polygon fill="#191970" stroke="#191970" points="91.5104,-26.5886 83.5101,-19.6427 85.4327,-30.0616 91.5104,-26.5886"/>
</g>
<!-- Node4 -->
<g id="node5" class="node">
<title>Node4</title>
<polygon fill="none" stroke="#bfbfbf" points="118.5,-.5 118.5,-19.5 165.5,-19.5 165.5,-.5 118.5,-.5"/>
<text text-anchor="middle" x="142" y="-7.5" font-family="Helvetica,sans-Serif" font-size="10.00" fill="#000000">vector</text>
</g>
<!-- Node1&#45;&gt;Node4 -->
<g id="edge4" class="edge">
<title>Node1&#45;&gt;Node4</title>
<path fill="none" stroke="#191970" d="M115.574,-56.2455C119.9331,-48.617 126.1211,-37.7881 131.4133,-28.5267"/>
<polygon fill="#191970" stroke="#191970" points="134.5673,-30.0616 136.4899,-19.6427 128.4896,-26.5886 134.5673,-30.0616"/>
</g>
<!-- Node5 -->
<g id="node6" class="node">
<title>Node5</title>
<polygon fill="none" stroke="#bfbfbf" points="183.5,-.5 183.5,-19.5 242.5,-19.5 242.5,-.5 183.5,-.5"/>
<text text-anchor="middle" x="213" y="-7.5" font-family="Helvetica,sans-Serif" font-size="10.00" fill="#000000">Rtypes.h</text>
</g>
<!-- Node1&#45;&gt;Node5 -->
<g id="edge5" class="edge">
<title>Node1&#45;&gt;Node5</title>
<path fill="none" stroke="#191970" d="M127.9412,-56.2455C144.04,-47.4928 167.8879,-34.527 186.2391,-24.5496"/>
<polygon fill="#191970" stroke="#191970" points="188.1507,-27.4942 195.2644,-19.6427 184.8071,-21.3444 188.1507,-27.4942"/>
</g>
</g>
</svg>
