<?xml version="1.0" encoding="UTF-8" standalone="no"?>
<!DOCTYPE svg PUBLIC "-//W3C//DTD SVG 1.1//EN"
 "http://www.w3.org/Graphics/SVG/1.1/DTD/svg11.dtd">
<!-- Generated by graphviz version 2.40.1 (20161225.0304)
 -->
<!-- Title: /home/travis/build/AliceO2Group/AliceO2/DataFormats/Reconstruction/include/ReconstructionDataFormats/VtxTrackRef.h Pages: 1 -->
<!--zoomable 262 -->
<svg id="main" version="1.1" xmlns="http://www.w3.org/2000/svg" xmlns:xlink="http://www.w3.org/1999/xlink" xml:space="preserve" onload="init(evt)">
<style type="text/css"><![CDATA[
.edge:hover path { stroke: red; }
.edge:hover polygon { stroke: red; fill: red; }
]]></style>
<script type="text/javascript"><![CDATA[
var edges = document.getElementsByTagName('g');
if (edges && edges.length) {
  for (var i=0;i<edges.length;i++) {
    if (edges[i].id.substr(0,4)=='edge') {
      edges[i].setAttribute('class','edge');
    }
  }
}
]]></script>
        <defs>
                <circle id="rim" cx="0" cy="0" r="7"/>
                <circle id="rim2" cx="0" cy="0" r="3.5"/>
                <g id="zoomPlus">
                        <use xlink:href="#rim" fill="#404040">
                                <set attributeName="fill" to="#808080" begin="zoomplus.mouseover" end="zoomplus.mouseout"/>
                        </use>
                        <path d="M-4,0h8M0,-4v8" fill="none" stroke="white" stroke-width="1.5" pointer-events="none"/>
                </g>
                <g id="zoomMin">
                        <use xlink:href="#rim" fill="#404040">
                                <set attributeName="fill" to="#808080" begin="zoomminus.mouseover" end="zoomminus.mouseout"/>
                        </use>
                        <path d="M-4,0h8" fill="none" stroke="white" stroke-width="1.5" pointer-events="none"/>
                </g>
                <g id="dirArrow">
                        <path fill="none" stroke="white" stroke-width="1.5" d="M0,-3.0v7 M-2.5,-0.5L0,-3.0L2.5,-0.5"/>
                </g>
               <g id="resetDef">
                       <use xlink:href="#rim2" fill="#404040">
                               <set attributeName="fill" to="#808080" begin="reset.mouseover" end="reset.mouseout"/>
                       </use>
               </g>
        </defs>

<script type="text/javascript">
var viewWidth = 647;
var viewHeight = 262;
var sectionId = 'dynsection-0';
</script>
<script xlink:href="../../svgpan.js"/>
<svg id="graph" class="graph">
<g id="viewport">
<title>/home/travis/build/AliceO2Group/AliceO2/DataFormats/Reconstruction/include/ReconstructionDataFormats/VtxTrackRef.h</title>
<!-- Node0 -->
<g id="node1" class="node">
<title>Node0</title>
<polygon fill="#bfbfbf" stroke="#000000" points="372.5,-190.5 372.5,-253.5 565.5,-253.5 565.5,-190.5 372.5,-190.5"/>
<text text-anchor="start" x="380.5" y="-241.5" font-family="Helvetica,sans-Serif" font-size="10.00" fill="#000000">/home/travis/build</text>
<text text-anchor="start" x="380.5" y="-230.5" font-family="Helvetica,sans-Serif" font-size="10.00" fill="#000000">/AliceO2Group/AliceO2</text>
<text text-anchor="start" x="380.5" y="-219.5" font-family="Helvetica,sans-Serif" font-size="10.00" fill="#000000">/DataFormats/Reconstruction</text>
<text text-anchor="start" x="380.5" y="-208.5" font-family="Helvetica,sans-Serif" font-size="10.00" fill="#000000">/include/ReconstructionDataFormats</text>
<text text-anchor="middle" x="469" y="-197.5" font-family="Helvetica,sans-Serif" font-size="10.00" fill="#000000">/VtxTrackRef.h</text>
</g>
<!-- Node1 -->
<g id="node2" class="node">
<title>Node1</title>
<g id="a_node2"><a xlink:href="../../de/d64/RangeReference_8h.html" target="_top" xlink:title="Class to refer to the 1st entry and N elements of some group in the continuous container. ">
<polygon fill="none" stroke="#000000" points="0,-129 0,-148 210,-148 210,-129 0,-129"/>
<text text-anchor="middle" x="105" y="-136" font-family="Helvetica,sans-Serif" font-size="10.00" fill="#000000">CommonDataFormat/RangeReference.h</text>
</a>
</g>
</g>
<!-- Node0&#45;&gt;Node1 -->
<g id="edge1" class="edge">
<title>Node0&#45;&gt;Node1</title>
<path fill="none" stroke="#191970" d="M372.4103,-199.8428C303.2114,-183.9688 212.7083,-163.2078 156.7375,-150.3684"/>
<polygon fill="#191970" stroke="#191970" points="157.2308,-146.8907 146.7014,-148.0661 155.6656,-153.7135 157.2308,-146.8907"/>
</g>
<!-- Node4 -->
<g id="node5" class="node">
<title>Node4</title>
<g id="a_node5"><a xlink:href="../../d0/d00/VtxTrackIndex_8h.html" target="_top" xlink:title="Index of track attached to vertx: index in its proper container, container source and flags...">
<polygon fill="none" stroke="#000000" points="341,-123.5 341,-153.5 493,-153.5 493,-123.5 341,-123.5"/>
<text text-anchor="start" x="349" y="-141.5" font-family="Helvetica,sans-Serif" font-size="10.00" fill="#000000">ReconstructionDataFormats</text>
<text text-anchor="middle" x="417" y="-130.5" font-family="Helvetica,sans-Serif" font-size="10.00" fill="#000000">/VtxTrackIndex.h</text>
</a>
</g>
</g>
<!-- Node0&#45;&gt;Node4 -->
<g id="edge4" class="edge">
<title>Node0&#45;&gt;Node4</title>
<path fill="none" stroke="#191970" d="M449.341,-190.4322C443.535,-181.109 437.2796,-171.0643 431.8319,-162.3165"/>
<polygon fill="#191970" stroke="#191970" points="434.7571,-160.3928 426.4998,-153.7545 428.8151,-164.0932 434.7571,-160.3928"/>
</g>
<!-- Node6 -->
<g id="node7" class="node">
<title>Node6</title>
<polygon fill="none" stroke="#bfbfbf" points="159.5,-62 159.5,-81 208.5,-81 208.5,-62 159.5,-62"/>
<text text-anchor="middle" x="184" y="-69" font-family="Helvetica,sans-Serif" font-size="10.00" fill="#000000">iosfwd</text>
</g>
<!-- Node0&#45;&gt;Node6 -->
<g id="edge13" class="edge">
<title>Node0&#45;&gt;Node6</title>
<path fill="none" stroke="#191970" d="M403.8651,-190.4618C381.0194,-179.1912 355.2608,-166.247 332,-154 288.5481,-131.1223 238.8331,-103.0008 209.4996,-86.2023"/>
<polygon fill="#191970" stroke="#191970" points="211.141,-83.1089 200.7256,-81.167 207.6568,-89.1802 211.141,-83.1089"/>
</g>
<!-- Node7 -->
<g id="node8" class="node">
<title>Node7</title>
<polygon fill="none" stroke="#bfbfbf" points="499,-62 499,-81 543,-81 543,-62 499,-62"/>
<text text-anchor="middle" x="521" y="-69" font-family="Helvetica,sans-Serif" font-size="10.00" fill="#000000">string</text>
</g>
<!-- Node0&#45;&gt;Node7 -->
<g id="edge14" class="edge">
<title>Node0&#45;&gt;Node7</title>
<path fill="none" stroke="#191970" d="M486.1357,-190.4667C491.7646,-179.1965 497.6789,-166.2513 502,-154 509.3791,-133.0786 514.6617,-108.1484 517.7548,-91.2095"/>
<polygon fill="#191970" stroke="#191970" points="521.2034,-91.8069 519.4713,-81.3546 514.3072,-90.6057 521.2034,-91.8069"/>
</g>
<!-- Node8 -->
<g id="node9" class="node">
<title>Node8</title>
<polygon fill="none" stroke="#bfbfbf" points="561,-62 561,-81 603,-81 603,-62 561,-62"/>
<text text-anchor="middle" x="582" y="-69" font-family="Helvetica,sans-Serif" font-size="10.00" fill="#000000">array</text>
</g>
<!-- Node0&#45;&gt;Node8 -->
<g id="edge12" class="edge">
<title>Node0&#45;&gt;Node8</title>
<path fill="none" stroke="#191970" d="M493.4447,-190.2541C502.1795,-178.8525 512.068,-165.8781 521,-154 537.6206,-131.8973 556.5166,-106.2613 568.8155,-89.5063"/>
<polygon fill="#191970" stroke="#191970" points="571.8224,-91.3244 574.9131,-81.1904 566.1773,-87.1851 571.8224,-91.3244"/>
</g>
<!-- Node10 -->
<g id="node11" class="node">
<title>Node10</title>
<polygon fill="none" stroke="#bfbfbf" points="587,-129 587,-148 639,-148 639,-129 587,-129"/>
<text text-anchor="middle" x="613" y="-136" font-family="Helvetica,sans-Serif" font-size="10.00" fill="#000000">cassert</text>
</g>
<!-- Node0&#45;&gt;Node10 -->
<g id="edge11" class="edge">
<title>Node0&#45;&gt;Node10</title>
<path fill="none" stroke="#191970" d="M523.4402,-190.4322C545.3476,-177.729 569.5648,-163.6864 587.2872,-153.4098"/>
<polygon fill="#191970" stroke="#191970" points="589.5138,-156.1647 596.4089,-148.1205 586.0023,-150.1091 589.5138,-156.1647"/>
</g>
<!-- Node2 -->
<g id="node3" class="node">
<title>Node2</title>
<g id="a_node3"><a xlink:href="../../d2/d45/GPUCommonRtypes_8h.html" target="_top" xlink:title="GPUCommonRtypes.h">
<polygon fill="none" stroke="#000000" points="16.5,-62 16.5,-81 141.5,-81 141.5,-62 16.5,-62"/>
<text text-anchor="middle" x="79" y="-69" font-family="Helvetica,sans-Serif" font-size="10.00" fill="#000000">GPUCommonRtypes.h</text>
</a>
</g>
</g>
<!-- Node1&#45;&gt;Node2 -->
<g id="edge2" class="edge">
<title>Node1&#45;&gt;Node2</title>
<path fill="none" stroke="#191970" d="M101.2748,-128.9005C97.4134,-118.95 91.274,-103.1292 86.4177,-90.6147"/>
<polygon fill="#191970" stroke="#191970" points="89.599,-89.1381 82.7183,-81.0817 83.0731,-91.6706 89.599,-89.1381"/>
</g>
<!-- Node3 -->
<g id="node4" class="node">
<title>Node3</title>
<polygon fill="none" stroke="#bfbfbf" points="163.5,-.5 163.5,-19.5 222.5,-19.5 222.5,-.5 163.5,-.5"/>
<text text-anchor="middle" x="193" y="-7.5" font-family="Helvetica,sans-Serif" font-size="10.00" fill="#000000">Rtypes.h</text>
</g>
<!-- Node2&#45;&gt;Node3 -->
<g id="edge3" class="edge">
<title>Node2&#45;&gt;Node3</title>
<path fill="none" stroke="#191970" d="M96.8125,-61.8906C115.4685,-51.8262 144.9797,-35.9057 166.3974,-24.3514"/>
<polygon fill="#191970" stroke="#191970" points="168.1734,-27.3702 175.3126,-19.5419 164.8498,-21.2095 168.1734,-27.3702"/>
</g>
<!-- Node5 -->
<g id="node6" class="node">
<title>Node5</title>
<g id="a_node6"><a xlink:href="../../df/d9a/AbstractRef_8h.html" target="_top" xlink:title="Class to refer to object indicating its Indec, Source and status flags. ">
<polygon fill="none" stroke="#000000" points="227,-56.5 227,-86.5 389,-86.5 389,-56.5 227,-56.5"/>
<text text-anchor="start" x="235" y="-74.5" font-family="Helvetica,sans-Serif" font-size="10.00" fill="#000000">CommonDataFormat/Abstract</text>
<text text-anchor="middle" x="308" y="-63.5" font-family="Helvetica,sans-Serif" font-size="10.00" fill="#000000">Ref.h</text>
</a>
</g>
</g>
<!-- Node4&#45;&gt;Node5 -->
<g id="edge5" class="edge">
<title>Node4&#45;&gt;Node5</title>
<path fill="none" stroke="#191970" d="M392.5383,-123.4639C377.4977,-114.2188 358.0183,-102.2452 341.5495,-92.1222"/>
<polygon fill="#191970" stroke="#191970" points="343.1093,-88.9726 332.7572,-86.7177 339.4437,-94.9361 343.1093,-88.9726"/>
</g>
<!-- Node4&#45;&gt;Node6 -->
<g id="edge7" class="edge">
<title>Node4&#45;&gt;Node6</title>
<path fill="none" stroke="#191970" d="M346.5707,-123.4389C308.0911,-114.4235 259.8794,-101.8372 218,-87 216.3605,-86.4191 214.6914,-85.7899 213.017,-85.1289"/>
<polygon fill="#191970" stroke="#191970" points="214.1096,-81.7905 203.5366,-81.1092 211.377,-88.2352 214.1096,-81.7905"/>
</g>
<!-- Node4&#45;&gt;Node7 -->
<g id="edge8" class="edge">
<title>Node4&#45;&gt;Node7</title>
<path fill="none" stroke="#191970" d="M440.3396,-123.4639C457.3179,-112.526 480.2242,-97.769 497.2882,-86.7759"/>
<polygon fill="#191970" stroke="#191970" points="499.5814,-89.462 506.0924,-81.1039 495.7904,-83.5774 499.5814,-89.462"/>
</g>
<!-- Node4&#45;&gt;Node8 -->
<g id="edge9" class="edge">
<title>Node4&#45;&gt;Node8</title>
<path fill="none" stroke="#191970" d="M460.0626,-123.4742C486.8268,-113.7917 521.7746,-100.522 552,-87 553.0168,-86.5451 554.0478,-86.0724 555.0855,-85.587"/>
<polygon fill="#191970" stroke="#191970" points="556.9618,-88.5648 564.3942,-81.0143 553.8755,-82.2819 556.9618,-88.5648"/>
</g>
<!-- Node9 -->
<g id="node10" class="node">
<title>Node9</title>
<polygon fill="none" stroke="#bfbfbf" points="407.5,-62 407.5,-81 480.5,-81 480.5,-62 407.5,-62"/>
<text text-anchor="middle" x="444" y="-69" font-family="Helvetica,sans-Serif" font-size="10.00" fill="#000000">string_view</text>
</g>
<!-- Node4&#45;&gt;Node9 -->
<g id="edge10" class="edge">
<title>Node4&#45;&gt;Node9</title>
<path fill="none" stroke="#191970" d="M423.1267,-123.2967C427.0475,-113.5672 432.1653,-100.8675 436.352,-90.4784"/>
<polygon fill="#191970" stroke="#191970" points="439.658,-91.6384 440.1495,-81.055 433.1653,-89.0219 439.658,-91.6384"/>
</g>
<!-- Node5&#45;&gt;Node3 -->
<g id="edge6" class="edge">
<title>Node5&#45;&gt;Node3</title>
<path fill="none" stroke="#191970" d="M279.8678,-56.4554C261.5214,-46.644 237.7223,-33.9167 219.6749,-24.2653"/>
<polygon fill="#191970" stroke="#191970" points="221.2897,-21.1598 210.8209,-19.5303 217.9886,-27.3326 221.2897,-21.1598"/>
</g>
</g>
</svg>
        <g id="navigator" transform="translate(0 0)" fill="#404254">
                <rect fill="#f2f5e9" fill-opacity="0.5" stroke="#606060" stroke-width=".5" x="0" y="0" width="60" height="60"/>
                <use id="zoomplus" xlink:href="#zoomPlus" x="17" y="9" onmousedown="handleZoom(evt,'in')"/>
                <use id="zoomminus" xlink:href="#zoomMin" x="42" y="9" onmousedown="handleZoom(evt,'out')"/>
                <use id="reset" xlink:href="#resetDef" x="30" y="36" onmousedown="handleReset()"/>
                <g id="arrowUp" xlink:href="#dirArrow" transform="translate(30 24)" onmousedown="handlePan(0,-1)">
                  <use xlink:href="#rim" fill="#404040">
                        <set attributeName="fill" to="#808080" begin="arrowUp.mouseover" end="arrowUp.mouseout"/>
                  </use>
                  <path fill="none" stroke="white" stroke-width="1.5" d="M0,-3.0v7 M-2.5,-0.5L0,-3.0L2.5,-0.5"/>
                </g>
                <g id="arrowRight" xlink:href="#dirArrow" transform="rotate(90) translate(36 -43)" onmousedown="handlePan(1,0)">
                  <use xlink:href="#rim" fill="#404040">
                        <set attributeName="fill" to="#808080" begin="arrowRight.mouseover" end="arrowRight.mouseout"/>
                  </use>
                  <path fill="none" stroke="white" stroke-width="1.5" d="M0,-3.0v7 M-2.5,-0.5L0,-3.0L2.5,-0.5"/>
                </g>
                <g id="arrowDown" xlink:href="#dirArrow" transform="rotate(180) translate(-30 -48)" onmousedown="handlePan(0,1)">
                  <use xlink:href="#rim" fill="#404040">
                        <set attributeName="fill" to="#808080" begin="arrowDown.mouseover" end="arrowDown.mouseout"/>
                  </use>
                  <path fill="none" stroke="white" stroke-width="1.5" d="M0,-3.0v7 M-2.5,-0.5L0,-3.0L2.5,-0.5"/>
                </g>
                <g id="arrowLeft" xlink:href="#dirArrow" transform="rotate(270) translate(-36 17)" onmousedown="handlePan(-1,0)">
                  <use xlink:href="#rim" fill="#404040">
                        <set attributeName="fill" to="#808080" begin="arrowLeft.mouseover" end="arrowLeft.mouseout"/>
                  </use>
                  <path fill="none" stroke="white" stroke-width="1.5" d="M0,-3.0v7 M-2.5,-0.5L0,-3.0L2.5,-0.5"/>
                </g>
        </g>
        <svg viewBox="0 0 15 15" width="100%" height="30px" preserveAspectRatio="xMaxYMin meet">
         <g id="arrow_out" transform="scale(0.3 0.3)">
          <a xlink:href="VtxTrackRef_8h__incl_org.svg" target="_base">
           <rect id="button" ry="5" rx="5" y="6" x="6" height="38" width="38"
                fill="#f2f5e9" fill-opacity="0.5" stroke="#606060" stroke-width="1.0"/>
           <path id="arrow"
             d="M 11.500037,31.436501 C 11.940474,20.09759 22.043105,11.32322 32.158766,21.979434 L 37.068811,17.246167 C 37.068811,17.246167 37.088388,32 37.088388,32 L 22.160133,31.978069 C 22.160133,31.978069 26.997745,27.140456 26.997745,27.140456 C 18.528582,18.264221 13.291696,25.230495 11.500037,31.436501 z"
             style="fill:#404040;"/>
          </a>
         </g>
        </svg>
</svg>
