<?xml version="1.0" encoding="UTF-8" standalone="no"?>
<!DOCTYPE svg PUBLIC "-//W3C//DTD SVG 1.1//EN"
 "http://www.w3.org/Graphics/SVG/1.1/DTD/svg11.dtd">
<!-- Generated by graphviz version 2.40.1 (20161225.0304)
 -->
<!-- Title: CTask Pages: 1 -->
<svg width="1251pt" height="904pt"
 viewBox="0.00 0.00 1251.00 904.00" xmlns="http://www.w3.org/2000/svg" xmlns:xlink="http://www.w3.org/1999/xlink">
<g id="graph0" class="graph" transform="scale(1 1) rotate(0) translate(4 900)">
<title>CTask</title>
<!-- Node1 -->
<g id="node1" class="node">
<title>Node1</title>
<polygon fill="#bfbfbf" stroke="#000000" points="240.5,-.5 240.5,-112.5 313.5,-112.5 313.5,-.5 240.5,-.5"/>
<text text-anchor="middle" x="277" y="-100.5" font-family="Helvetica,sans-Serif" font-size="10.00" fill="#000000">CTask</text>
<polyline fill="none" stroke="#000000" points="240.5,-93.5 313.5,-93.5 "/>
<text text-anchor="middle" x="277" y="-81.5" font-family="Helvetica,sans-Serif" font-size="10.00" fill="#000000"> </text>
<polyline fill="none" stroke="#000000" points="240.5,-74.5 313.5,-74.5 "/>
<text text-anchor="start" x="248.5" y="-62.5" font-family="Helvetica,sans-Serif" font-size="10.00" fill="#000000">+ process()</text>
<text text-anchor="start" x="248.5" y="-51.5" font-family="Helvetica,sans-Serif" font-size="10.00" fill="#000000">+ init()</text>
<text text-anchor="start" x="248.5" y="-40.5" font-family="Helvetica,sans-Serif" font-size="10.00" fill="#000000">+ process()</text>
<text text-anchor="start" x="248.5" y="-29.5" font-family="Helvetica,sans-Serif" font-size="10.00" fill="#000000">+ process()</text>
<text text-anchor="start" x="248.5" y="-18.5" font-family="Helvetica,sans-Serif" font-size="10.00" fill="#000000">+ process()</text>
<text text-anchor="start" x="248.5" y="-7.5" font-family="Helvetica,sans-Serif" font-size="10.00" fill="#000000">+ process()</text>
</g>
<!-- Node2 -->
<g id="node2" class="node">
<title>Node2</title>
<polygon fill="none" stroke="#bfbfbf" points="197.5,-254 197.5,-311 238.5,-311 238.5,-254 197.5,-254"/>
<text text-anchor="middle" x="218" y="-299" font-family="Helvetica,sans-Serif" font-size="10.00" fill="#000000">Filter</text>
<polyline fill="none" stroke="#bfbfbf" points="197.5,-292 238.5,-292 "/>
<text text-anchor="middle" x="218" y="-280" font-family="Helvetica,sans-Serif" font-size="10.00" fill="#000000"> </text>
<polyline fill="none" stroke="#bfbfbf" points="197.5,-273 238.5,-273 "/>
<text text-anchor="middle" x="218" y="-261" font-family="Helvetica,sans-Serif" font-size="10.00" fill="#000000"> </text>
</g>
<!-- Node2&#45;&gt;Node1 -->
<g id="edge1" class="edge">
<title>Node2&#45;&gt;Node1</title>
<path fill="none" stroke="#404040" d="M212.8549,-253.9385C208.446,-222.7754 204.8135,-171.8761 219,-131 222.322,-121.4281 227.4213,-112.1351 233.2458,-103.5445"/>
<polygon fill="none" stroke="#404040" points="233.2781,-103.5002 233.585,-96.2956 240.3534,-93.8078 240.0465,-101.0124 233.2781,-103.5002"/>
<text text-anchor="middle" x="241" y="-150.5" font-family="Helvetica,sans-Serif" font-size="10.00" fill="#000000"> +ptfilter</text>
</g>
<!-- Node3 -->
<g id="node3" class="node">
<title>Node3</title>
<g id="a_node3"><a xlink:href="../../d8/d71/structo2_1_1framework_1_1Configurable.html" target="_top" xlink:title="{o2::framework::Configurable\l\&lt; float \&gt;\n||+ Configurable()\l+ operator float()\l+ operator&#45;\&gt;()\l}">
<polygon fill="none" stroke="#000000" points="150.5,-458 150.5,-548 305.5,-548 305.5,-458 150.5,-458"/>
<text text-anchor="start" x="158.5" y="-536" font-family="Helvetica,sans-Serif" font-size="10.00" fill="#000000">o2::framework::Configurable</text>
<text text-anchor="middle" x="228" y="-525" font-family="Helvetica,sans-Serif" font-size="10.00" fill="#000000">&lt; float &gt;</text>
<polyline fill="none" stroke="#000000" points="150.5,-518 305.5,-518 "/>
<text text-anchor="middle" x="228" y="-506" font-family="Helvetica,sans-Serif" font-size="10.00" fill="#000000"> </text>
<polyline fill="none" stroke="#000000" points="150.5,-499 305.5,-499 "/>
<text text-anchor="start" x="158.5" y="-487" font-family="Helvetica,sans-Serif" font-size="10.00" fill="#000000">+ Configurable()</text>
<text text-anchor="start" x="158.5" y="-476" font-family="Helvetica,sans-Serif" font-size="10.00" fill="#000000">+ operator float()</text>
<text text-anchor="start" x="158.5" y="-465" font-family="Helvetica,sans-Serif" font-size="10.00" fill="#000000">+ operator&#45;&gt;()</text>
</a>
</g>
</g>
<!-- Node3&#45;&gt;Node1 -->
<g id="edge2" class="edge">
<title>Node3&#45;&gt;Node1</title>
<path fill="none" stroke="#404040" d="M235.0997,-457.9053C238.9307,-432.6783 243.564,-400.6358 247,-372 257.1858,-287.1109 266.0594,-189.0326 271.4609,-125.0535"/>
<polygon fill="none" stroke="#404040" points="271.4918,-124.6844 268.007,-118.3712 272.4943,-112.7263 275.9791,-119.0395 271.4918,-124.6844"/>
<text text-anchor="middle" x="286" y="-280" font-family="Helvetica,sans-Serif" font-size="10.00" fill="#000000"> +pTCut</text>
</g>
<!-- Node4 -->
<g id="node4" class="node">
<title>Node4</title>
<g id="a_node4"><a xlink:href="../../d4/dc3/classfloat.html" target="_top" xlink:title="{float\n||}">
<polygon fill="none" stroke="#000000" points="278,-662 278,-719 316,-719 316,-662 278,-662"/>
<text text-anchor="middle" x="297" y="-707" font-family="Helvetica,sans-Serif" font-size="10.00" fill="#000000">float</text>
<polyline fill="none" stroke="#000000" points="278,-700 316,-700 "/>
<text text-anchor="middle" x="297" y="-688" font-family="Helvetica,sans-Serif" font-size="10.00" fill="#000000"> </text>
<polyline fill="none" stroke="#000000" points="278,-681 316,-681 "/>
<text text-anchor="middle" x="297" y="-669" font-family="Helvetica,sans-Serif" font-size="10.00" fill="#000000"> </text>
</a>
</g>
</g>
<!-- Node4&#45;&gt;Node3 -->
<g id="edge3" class="edge">
<title>Node4&#45;&gt;Node3</title>
<path fill="none" stroke="#404040" d="M286.37,-661.614C276.4281,-634.5981 261.2991,-593.4868 248.9349,-559.8884"/>
<polygon fill="none" stroke="#404040" points="248.8343,-559.6147 243.0082,-555.3653 244.6899,-548.353 250.516,-552.6024 248.8343,-559.6147"/>
<text text-anchor="middle" x="288.5" y="-608" font-family="Helvetica,sans-Serif" font-size="10.00" fill="#000000"> +value</text>
</g>
<!-- Node5 -->
<g id="node5" class="node">
<title>Node5</title>
<polygon fill="none" stroke="#bfbfbf" points="684.5,-822 684.5,-879 713.5,-879 713.5,-822 684.5,-822"/>
<text text-anchor="middle" x="699" y="-867" font-family="Helvetica,sans-Serif" font-size="10.00" fill="#000000">int</text>
<polyline fill="none" stroke="#bfbfbf" points="684.5,-860 713.5,-860 "/>
<text text-anchor="middle" x="699" y="-848" font-family="Helvetica,sans-Serif" font-size="10.00" fill="#000000"> </text>
<polyline fill="none" stroke="#bfbfbf" points="684.5,-841 713.5,-841 "/>
<text text-anchor="middle" x="699" y="-829" font-family="Helvetica,sans-Serif" font-size="10.00" fill="#000000"> </text>
</g>
<!-- Node5&#45;&gt;Node3 -->
<g id="edge4" class="edge">
<title>Node5&#45;&gt;Node3</title>
<path fill="none" stroke="#404040" d="M684.0825,-849.6269C610.6175,-844.9906 288.4299,-820.6315 229,-747 206.7071,-719.3799 213.1717,-623.3652 220.2969,-560.3337"/>
<polygon fill="none" stroke="#404040" points="220.3224,-560.1153 217.0497,-553.6896 221.7224,-548.1972 224.9951,-554.6229 220.3224,-560.1153"/>
<text text-anchor="middle" x="249" y="-693.5" font-family="Helvetica,sans-Serif" font-size="10.00" fill="#000000"> +name</text>
<text text-anchor="middle" x="249" y="-682.5" font-family="Helvetica,sans-Serif" font-size="10.00" fill="#000000">+help</text>
</g>
<!-- Node6 -->
<g id="node6" class="node">
<title>Node6</title>
<g id="a_node6"><a xlink:href="../../d8/d71/structo2_1_1framework_1_1Configurable.html" target="_top" xlink:title="{o2::framework::Configurable\&lt; T \&gt;\n||+ Configurable()\l+ operator T()\l+ operator&#45;\&gt;()\l}">
<polygon fill="none" stroke="#000000" points="0,-651 0,-730 184,-730 184,-651 0,-651"/>
<text text-anchor="middle" x="92" y="-718" font-family="Helvetica,sans-Serif" font-size="10.00" fill="#000000">o2::framework::Configurable&lt; T &gt;</text>
<polyline fill="none" stroke="#000000" points="0,-711 184,-711 "/>
<text text-anchor="middle" x="92" y="-699" font-family="Helvetica,sans-Serif" font-size="10.00" fill="#000000"> </text>
<polyline fill="none" stroke="#000000" points="0,-692 184,-692 "/>
<text text-anchor="start" x="8" y="-680" font-family="Helvetica,sans-Serif" font-size="10.00" fill="#000000">+ Configurable()</text>
<text text-anchor="start" x="8" y="-669" font-family="Helvetica,sans-Serif" font-size="10.00" fill="#000000">+ operator T()</text>
<text text-anchor="start" x="8" y="-658" font-family="Helvetica,sans-Serif" font-size="10.00" fill="#000000">+ operator&#45;&gt;()</text>
</a>
</g>
</g>
<!-- Node5&#45;&gt;Node6 -->
<g id="edge6" class="edge">
<title>Node5&#45;&gt;Node6</title>
<path fill="none" stroke="#404040" d="M684.3297,-850.269C608.2088,-848.847 258.2189,-839.5065 166,-787 146.8289,-776.0846 130.9793,-758.0026 118.9337,-740.4229"/>
<polygon fill="none" stroke="#404040" points="118.8222,-740.2512 112.1991,-737.3989 112.2846,-730.1883 118.9077,-733.0406 118.8222,-740.2512"/>
<text text-anchor="middle" x="186" y="-779" font-family="Helvetica,sans-Serif" font-size="10.00" fill="#000000"> +name</text>
<text text-anchor="middle" x="186" y="-768" font-family="Helvetica,sans-Serif" font-size="10.00" fill="#000000">+help</text>
</g>
<!-- Node8 -->
<g id="node8" class="node">
<title>Node8</title>
<g id="a_node8"><a xlink:href="../../d4/d79/structo2_1_1framework_1_1OutputObj.html" target="_top" xlink:title="{o2::framework::OutputObj\l\&lt; TH1F \&gt;\n||+ spec()\l+ OutputObj()\l+ OutputObj()\l+ setObject()\l+ setObject()\l+ setObject()\l+ setObject()\l+ setHash()\l+ operator&#45;\&gt;()\l+ operator*()\l+ ref()\l}">
<polygon fill="none" stroke="#000000" points="607.5,-193.5 607.5,-371.5 750.5,-371.5 750.5,-193.5 607.5,-193.5"/>
<text text-anchor="start" x="615.5" y="-359.5" font-family="Helvetica,sans-Serif" font-size="10.00" fill="#000000">o2::framework::OutputObj</text>
<text text-anchor="middle" x="679" y="-348.5" font-family="Helvetica,sans-Serif" font-size="10.00" fill="#000000">&lt; TH1F &gt;</text>
<polyline fill="none" stroke="#000000" points="607.5,-341.5 750.5,-341.5 "/>
<text text-anchor="middle" x="679" y="-329.5" font-family="Helvetica,sans-Serif" font-size="10.00" fill="#000000"> </text>
<polyline fill="none" stroke="#000000" points="607.5,-322.5 750.5,-322.5 "/>
<text text-anchor="start" x="615.5" y="-310.5" font-family="Helvetica,sans-Serif" font-size="10.00" fill="#000000">+ spec()</text>
<text text-anchor="start" x="615.5" y="-299.5" font-family="Helvetica,sans-Serif" font-size="10.00" fill="#000000">+ OutputObj()</text>
<text text-anchor="start" x="615.5" y="-288.5" font-family="Helvetica,sans-Serif" font-size="10.00" fill="#000000">+ OutputObj()</text>
<text text-anchor="start" x="615.5" y="-277.5" font-family="Helvetica,sans-Serif" font-size="10.00" fill="#000000">+ setObject()</text>
<text text-anchor="start" x="615.5" y="-266.5" font-family="Helvetica,sans-Serif" font-size="10.00" fill="#000000">+ setObject()</text>
<text text-anchor="start" x="615.5" y="-255.5" font-family="Helvetica,sans-Serif" font-size="10.00" fill="#000000">+ setObject()</text>
<text text-anchor="start" x="615.5" y="-244.5" font-family="Helvetica,sans-Serif" font-size="10.00" fill="#000000">+ setObject()</text>
<text text-anchor="start" x="615.5" y="-233.5" font-family="Helvetica,sans-Serif" font-size="10.00" fill="#000000">+ setHash()</text>
<text text-anchor="start" x="615.5" y="-222.5" font-family="Helvetica,sans-Serif" font-size="10.00" fill="#000000">+ operator&#45;&gt;()</text>
<text text-anchor="start" x="615.5" y="-211.5" font-family="Helvetica,sans-Serif" font-size="10.00" fill="#000000">+ operator*()</text>
<text text-anchor="start" x="615.5" y="-200.5" font-family="Helvetica,sans-Serif" font-size="10.00" fill="#000000">+ ref()</text>
</a>
</g>
</g>
<!-- Node5&#45;&gt;Node8 -->
<g id="edge11" class="edge">
<title>Node5&#45;&gt;Node8</title>
<path fill="none" stroke="#404040" d="M713.5388,-839.6318C777.7486,-790.2891 1028.4943,-582.6876 931,-419 894.6582,-357.9841 820.5026,-322.5741 761.9974,-303.1846"/>
<polygon fill="none" stroke="#404040" points="761.9515,-303.17 755.0187,-305.154 750.5209,-299.5175 757.4537,-297.5335 761.9515,-303.17"/>
<text text-anchor="middle" x="941" y="-608" font-family="Helvetica,sans-Serif" font-size="10.00" fill="#000000"> +label</text>
</g>
<!-- Node12 -->
<g id="node12" class="node">
<title>Node12</title>
<g id="a_node12"><a xlink:href="../../da/d96/structo2_1_1framework_1_1InputSpec.html" target="_top" xlink:title="{o2::framework::InputSpec\n||+ InputSpec()\l+ InputSpec()\l+ InputSpec()\l+ InputSpec()\l+ InputSpec()\l+ operator==()\l}">
<polygon fill="none" stroke="#000000" points="941,-634.5 941,-746.5 1083,-746.5 1083,-634.5 941,-634.5"/>
<text text-anchor="middle" x="1012" y="-734.5" font-family="Helvetica,sans-Serif" font-size="10.00" fill="#000000">o2::framework::InputSpec</text>
<polyline fill="none" stroke="#000000" points="941,-727.5 1083,-727.5 "/>
<text text-anchor="middle" x="1012" y="-715.5" font-family="Helvetica,sans-Serif" font-size="10.00" fill="#000000"> </text>
<polyline fill="none" stroke="#000000" points="941,-708.5 1083,-708.5 "/>
<text text-anchor="start" x="949" y="-696.5" font-family="Helvetica,sans-Serif" font-size="10.00" fill="#000000">+ InputSpec()</text>
<text text-anchor="start" x="949" y="-685.5" font-family="Helvetica,sans-Serif" font-size="10.00" fill="#000000">+ InputSpec()</text>
<text text-anchor="start" x="949" y="-674.5" font-family="Helvetica,sans-Serif" font-size="10.00" fill="#000000">+ InputSpec()</text>
<text text-anchor="start" x="949" y="-663.5" font-family="Helvetica,sans-Serif" font-size="10.00" fill="#000000">+ InputSpec()</text>
<text text-anchor="start" x="949" y="-652.5" font-family="Helvetica,sans-Serif" font-size="10.00" fill="#000000">+ InputSpec()</text>
<text text-anchor="start" x="949" y="-641.5" font-family="Helvetica,sans-Serif" font-size="10.00" fill="#000000">+ operator==()</text>
</a>
</g>
</g>
<!-- Node5&#45;&gt;Node12 -->
<g id="edge16" class="edge">
<title>Node5&#45;&gt;Node12</title>
<path fill="none" stroke="#404040" d="M713.5277,-849.1783C751.0156,-845.2098 853.0339,-830.8279 924,-787 937.6816,-778.5504 950.5366,-767.3761 961.9729,-755.6353"/>
<polygon fill="none" stroke="#404040" points="962.2391,-755.3504 963.4128,-748.2355 970.4319,-746.5824 969.2582,-753.6974 962.2391,-755.3504"/>
<text text-anchor="middle" x="976" y="-773.5" font-family="Helvetica,sans-Serif" font-size="10.00" fill="#000000"> +binding</text>
</g>
<!-- Node16 -->
<g id="node16" class="node">
<title>Node16</title>
<g id="a_node16"><a xlink:href="../../d4/d79/structo2_1_1framework_1_1OutputObj.html" target="_top" xlink:title="{o2::framework::OutputObj\&lt; T \&gt;\n||+ OutputObj()\l+ OutputObj()\l+ setObject()\l+ setObject()\l+ setObject()\l+ setObject()\l+ setHash()\l+ spec()\l+ operator&#45;\&gt;()\l+ operator*()\l+ ref()\l}">
<polygon fill="none" stroke="#000000" points="518,-419.5 518,-586.5 690,-586.5 690,-419.5 518,-419.5"/>
<text text-anchor="middle" x="604" y="-574.5" font-family="Helvetica,sans-Serif" font-size="10.00" fill="#000000">o2::framework::OutputObj&lt; T &gt;</text>
<polyline fill="none" stroke="#000000" points="518,-567.5 690,-567.5 "/>
<text text-anchor="middle" x="604" y="-555.5" font-family="Helvetica,sans-Serif" font-size="10.00" fill="#000000"> </text>
<polyline fill="none" stroke="#000000" points="518,-548.5 690,-548.5 "/>
<text text-anchor="start" x="526" y="-536.5" font-family="Helvetica,sans-Serif" font-size="10.00" fill="#000000">+ OutputObj()</text>
<text text-anchor="start" x="526" y="-525.5" font-family="Helvetica,sans-Serif" font-size="10.00" fill="#000000">+ OutputObj()</text>
<text text-anchor="start" x="526" y="-514.5" font-family="Helvetica,sans-Serif" font-size="10.00" fill="#000000">+ setObject()</text>
<text text-anchor="start" x="526" y="-503.5" font-family="Helvetica,sans-Serif" font-size="10.00" fill="#000000">+ setObject()</text>
<text text-anchor="start" x="526" y="-492.5" font-family="Helvetica,sans-Serif" font-size="10.00" fill="#000000">+ setObject()</text>
<text text-anchor="start" x="526" y="-481.5" font-family="Helvetica,sans-Serif" font-size="10.00" fill="#000000">+ setObject()</text>
<text text-anchor="start" x="526" y="-470.5" font-family="Helvetica,sans-Serif" font-size="10.00" fill="#000000">+ setHash()</text>
<text text-anchor="start" x="526" y="-459.5" font-family="Helvetica,sans-Serif" font-size="10.00" fill="#000000">+ spec()</text>
<text text-anchor="start" x="526" y="-448.5" font-family="Helvetica,sans-Serif" font-size="10.00" fill="#000000">+ operator&#45;&gt;()</text>
<text text-anchor="start" x="526" y="-437.5" font-family="Helvetica,sans-Serif" font-size="10.00" fill="#000000">+ operator*()</text>
<text text-anchor="start" x="526" y="-426.5" font-family="Helvetica,sans-Serif" font-size="10.00" fill="#000000">+ ref()</text>
</a>
</g>
</g>
<!-- Node5&#45;&gt;Node16 -->
<g id="edge21" class="edge">
<title>Node5&#45;&gt;Node16</title>
<path fill="none" stroke="#404040" d="M698.4043,-821.8142C696.8397,-779.7224 691.2053,-699.1588 671,-634 667.3019,-622.0741 662.5734,-609.9266 657.3429,-598.077"/>
<polygon fill="none" stroke="#404040" points="657.1864,-597.7352 651.0519,-593.9447 652.1914,-586.8241 658.326,-590.6147 657.1864,-597.7352"/>
<text text-anchor="middle" x="711" y="-688" font-family="Helvetica,sans-Serif" font-size="10.00" fill="#000000"> +label</text>
</g>
<!-- Node6&#45;&gt;Node3 -->
<g id="edge5" class="edge">
<title>Node6&#45;&gt;Node3</title>
<path fill="none" stroke="#ffa500" d="M126.8908,-642.3968C147.9046,-613.4257 174.4986,-576.7612 195.1378,-548.3063"/>
<polygon fill="#ffa500" stroke="#ffa500" points="123.8804,-640.5862 120.8421,-650.7361 129.5468,-644.6963 123.8804,-640.5862"/>
<text text-anchor="middle" x="176" y="-608" font-family="Helvetica,sans-Serif" font-size="10.00" fill="#000000"> &lt; float &gt;</text>
</g>
<!-- Node7 -->
<g id="node7" class="node">
<title>Node7</title>
<polygon fill="none" stroke="#bfbfbf" points="77.5,-822 77.5,-879 106.5,-879 106.5,-822 77.5,-822"/>
<text text-anchor="middle" x="92" y="-867" font-family="Helvetica,sans-Serif" font-size="10.00" fill="#000000">T</text>
<polyline fill="none" stroke="#bfbfbf" points="77.5,-860 106.5,-860 "/>
<text text-anchor="middle" x="92" y="-848" font-family="Helvetica,sans-Serif" font-size="10.00" fill="#000000"> </text>
<polyline fill="none" stroke="#bfbfbf" points="77.5,-841 106.5,-841 "/>
<text text-anchor="middle" x="92" y="-829" font-family="Helvetica,sans-Serif" font-size="10.00" fill="#000000"> </text>
</g>
<!-- Node7&#45;&gt;Node6 -->
<g id="edge7" class="edge">
<title>Node7&#45;&gt;Node6</title>
<path fill="none" stroke="#404040" d="M92,-821.8952C92,-799.8577 92,-768.7968 92,-742.4075"/>
<polygon fill="none" stroke="#404040" points="92.0001,-742.2754 88,-736.2755 92,-730.2754 96,-736.2754 92.0001,-742.2754"/>
<text text-anchor="middle" x="111.5" y="-773.5" font-family="Helvetica,sans-Serif" font-size="10.00" fill="#000000"> +value</text>
</g>
<!-- Node8&#45;&gt;Node1 -->
<g id="edge8" class="edge">
<title>Node8&#45;&gt;Node1</title>
<path fill="none" stroke="#404040" d="M607.1305,-242.0957C525.3482,-196.1186 394.106,-122.3357 324.2789,-83.0797"/>
<polygon fill="none" stroke="#404040" points="324.0767,-82.966 316.8863,-83.5124 313.6163,-77.0853 320.8067,-76.5389 324.0767,-82.966"/>
<text text-anchor="middle" x="500.5" y="-167" font-family="Helvetica,sans-Serif" font-size="10.00" fill="#000000"> +etaDiff</text>
<text text-anchor="middle" x="500.5" y="-156" font-family="Helvetica,sans-Serif" font-size="10.00" fill="#000000">+ptH</text>
<text text-anchor="middle" x="500.5" y="-145" font-family="Helvetica,sans-Serif" font-size="10.00" fill="#000000">+trZ</text>
<text text-anchor="middle" x="500.5" y="-134" font-family="Helvetica,sans-Serif" font-size="10.00" fill="#000000">+phiDiff</text>
</g>
<!-- Node9 -->
<g id="node9" class="node">
<title>Node9</title>
<polygon fill="none" stroke="#bfbfbf" points="408.5,-662 408.5,-719 547.5,-719 547.5,-662 408.5,-662"/>
<text text-anchor="middle" x="478" y="-707" font-family="Helvetica,sans-Serif" font-size="10.00" fill="#000000">OutputObjHandlingPolicy</text>
<polyline fill="none" stroke="#bfbfbf" points="408.5,-700 547.5,-700 "/>
<text text-anchor="middle" x="478" y="-688" font-family="Helvetica,sans-Serif" font-size="10.00" fill="#000000"> </text>
<polyline fill="none" stroke="#bfbfbf" points="408.5,-681 547.5,-681 "/>
<text text-anchor="middle" x="478" y="-669" font-family="Helvetica,sans-Serif" font-size="10.00" fill="#000000"> </text>
</g>
<!-- Node9&#45;&gt;Node8 -->
<g id="edge9" class="edge">
<title>Node9&#45;&gt;Node8</title>
<path fill="none" stroke="#404040" d="M463.9793,-661.8713C458.0968,-648.3143 451.9456,-631.6872 449,-616 432.7672,-529.549 422.084,-494.0267 468,-419 497.3502,-371.0419 550.6226,-336.7767 596.2936,-314.5719"/>
<polygon fill="none" stroke="#404040" points="596.5648,-314.444 600.2849,-308.2665 607.418,-309.3244 603.6979,-315.5019 596.5648,-314.444"/>
<text text-anchor="middle" x="488.5" y="-500.5" font-family="Helvetica,sans-Serif" font-size="10.00" fill="#000000"> +policy</text>
</g>
<!-- Node9&#45;&gt;Node16 -->
<g id="edge19" class="edge">
<title>Node9&#45;&gt;Node16</title>
<path fill="none" stroke="#404040" d="M502.1931,-661.8217C513.2494,-648.2543 526.2475,-631.6327 537,-616 541.241,-609.8341 545.4956,-603.3924 549.6905,-596.8469"/>
<polygon fill="none" stroke="#404040" points="549.8166,-596.6472 549.6375,-589.4383 556.223,-586.5003 556.4021,-593.7092 549.8166,-596.6472"/>
<text text-anchor="middle" x="563.5" y="-608" font-family="Helvetica,sans-Serif" font-size="10.00" fill="#000000"> +policy</text>
</g>
<!-- Node10 -->
<g id="node10" class="node">
<title>Node10</title>
<g id="a_node10"><a xlink:href="../../d3/d87/classuint32__t.html" target="_top" xlink:title="{uint32_t\n||}">
<polygon fill="none" stroke="#000000" points="334,-662 334,-719 390,-719 390,-662 334,-662"/>
<text text-anchor="middle" x="362" y="-707" font-family="Helvetica,sans-Serif" font-size="10.00" fill="#000000">uint32_t</text>
<polyline fill="none" stroke="#000000" points="334,-700 390,-700 "/>
<text text-anchor="middle" x="362" y="-688" font-family="Helvetica,sans-Serif" font-size="10.00" fill="#000000"> </text>
<polyline fill="none" stroke="#000000" points="334,-681 390,-681 "/>
<text text-anchor="middle" x="362" y="-669" font-family="Helvetica,sans-Serif" font-size="10.00" fill="#000000"> </text>
</a>
</g>
</g>
<!-- Node10&#45;&gt;Node8 -->
<g id="edge10" class="edge">
<title>Node10&#45;&gt;Node8</title>
<path fill="none" stroke="#404040" d="M352.8297,-661.8155C337.7776,-608.856 314.1828,-494.2751 364,-419 415.1781,-341.6686 520.5025,-307.9157 595.2522,-293.3348"/>
<polygon fill="none" stroke="#404040" points="595.6387,-293.2632 600.8082,-288.2356 607.4373,-291.0737 602.2678,-296.1013 595.6387,-293.2632"/>
<text text-anchor="middle" x="398" y="-500.5" font-family="Helvetica,sans-Serif" font-size="10.00" fill="#000000"> +mTaskHash</text>
</g>
<!-- Node10&#45;&gt;Node16 -->
<g id="edge20" class="edge">
<title>Node10&#45;&gt;Node16</title>
<path fill="none" stroke="#404040" d="M376.6805,-661.772C382.6406,-652.0776 390.2093,-641.7591 399,-634 434.6164,-602.5634 454.6482,-612.0704 495,-587 499.2806,-584.3405 503.5958,-581.5489 507.9109,-578.6652"/>
<polygon fill="none" stroke="#404040" points="508.0589,-578.5639 510.7521,-571.8746 517.9627,-571.7878 515.2695,-578.4771 508.0589,-578.5639"/>
<text text-anchor="middle" x="489" y="-608" font-family="Helvetica,sans-Serif" font-size="10.00" fill="#000000"> +mTaskHash</text>
</g>
<!-- Node11 -->
<g id="node11" class="node">
<title>Node11</title>
<polygon fill="none" stroke="#bfbfbf" points="767,-662 767,-719 805,-719 805,-662 767,-662"/>
<text text-anchor="middle" x="786" y="-707" font-family="Helvetica,sans-Serif" font-size="10.00" fill="#000000">bool</text>
<polyline fill="none" stroke="#bfbfbf" points="767,-700 805,-700 "/>
<text text-anchor="middle" x="786" y="-688" font-family="Helvetica,sans-Serif" font-size="10.00" fill="#000000"> </text>
<polyline fill="none" stroke="#bfbfbf" points="767,-681 805,-681 "/>
<text text-anchor="middle" x="786" y="-669" font-family="Helvetica,sans-Serif" font-size="10.00" fill="#000000"> </text>
</g>
<!-- Node11&#45;&gt;Node8 -->
<g id="edge12" class="edge">
<title>Node11&#45;&gt;Node8</title>
<path fill="none" stroke="#404040" d="M789.4644,-661.7242C790.0893,-643.7726 787.9076,-621.1015 776,-605 764.1669,-588.9992 747.3503,-602.6051 735,-587 731.7461,-582.8885 711.6446,-470.6079 696.4481,-383.5816"/>
<polygon fill="none" stroke="#404040" points="696.4471,-383.5757 691.4759,-378.352 694.3857,-371.7541 699.357,-376.9778 696.4471,-383.5757"/>
<text text-anchor="middle" x="766" y="-500.5" font-family="Helvetica,sans-Serif" font-size="10.00" fill="#000000"> +isdangling</text>
</g>
<!-- Node11&#45;&gt;Node16 -->
<g id="edge23" class="edge">
<title>Node11&#45;&gt;Node16</title>
<path fill="none" stroke="#404040" d="M766.9161,-664.8226C758.8338,-654.7087 748.9849,-643.3107 739,-634 728.9865,-624.6626 724.3703,-624.9395 714,-616 706.3986,-609.4474 698.7187,-602.4544 691.1387,-595.2816"/>
<polygon fill="none" stroke="#404040" points="690.9541,-595.1043 683.8555,-593.835 682.297,-586.7943 689.3956,-588.0637 690.9541,-595.1043"/>
<text text-anchor="middle" x="745" y="-608" font-family="Helvetica,sans-Serif" font-size="10.00" fill="#000000"> +isdangling</text>
</g>
<!-- Node12&#45;&gt;Node8 -->
<g id="edge13" class="edge">
<title>Node12&#45;&gt;Node8</title>
<path fill="none" stroke="#404040" d="M1018.6707,-634.2358C1023.2862,-568.307 1020.52,-459.2889 964,-390 914.6744,-329.5308 827.5175,-303.0549 762.5326,-291.4751"/>
<polygon fill="none" stroke="#404040" points="762.5047,-291.4704 755.9247,-294.4206 750.6707,-289.4813 757.2507,-286.5312 762.5047,-291.4704"/>
<text text-anchor="middle" x="1037" y="-500.5" font-family="Helvetica,sans-Serif" font-size="10.00" fill="#000000"> +spec</text>
</g>
<!-- Node12&#45;&gt;Node16 -->
<g id="edge24" class="edge">
<title>Node12&#45;&gt;Node16</title>
<path fill="none" stroke="#404040" d="M940.9056,-661.7668C895.3732,-643.998 834.764,-621.5108 780,-605 746.7654,-594.9801 735.0171,-602.5846 704,-587 702.9807,-586.4878 701.9628,-585.9634 700.9467,-585.4273"/>
<polygon fill="none" stroke="#404040" points="700.5686,-585.2118 693.3751,-585.7156 690.1433,-579.2692 697.3368,-578.7654 700.5686,-585.2118"/>
<text text-anchor="middle" x="830" y="-608" font-family="Helvetica,sans-Serif" font-size="10.00" fill="#000000"> +spec</text>
</g>
<!-- Node13 -->
<g id="node13" class="node">
<title>Node13</title>
<polygon fill="none" stroke="#bfbfbf" points="973,-822 973,-879 1061,-879 1061,-822 973,-822"/>
<text text-anchor="middle" x="1017" y="-867" font-family="Helvetica,sans-Serif" font-size="10.00" fill="#000000">enum Lifetime</text>
<polyline fill="none" stroke="#bfbfbf" points="973,-860 1061,-860 "/>
<text text-anchor="middle" x="1017" y="-848" font-family="Helvetica,sans-Serif" font-size="10.00" fill="#000000"> </text>
<polyline fill="none" stroke="#bfbfbf" points="973,-841 1061,-841 "/>
<text text-anchor="middle" x="1017" y="-829" font-family="Helvetica,sans-Serif" font-size="10.00" fill="#000000"> </text>
</g>
<!-- Node13&#45;&gt;Node12 -->
<g id="edge14" class="edge">
<title>Node13&#45;&gt;Node12</title>
<path fill="none" stroke="#404040" d="M1016.1061,-821.8952C1015.5563,-804.3 1014.8266,-780.9527 1014.1351,-758.8235"/>
<polygon fill="none" stroke="#404040" points="1014.1311,-758.6932 1009.9456,-752.8211 1013.7562,-746.6991 1017.9417,-752.5712 1014.1311,-758.6932"/>
<text text-anchor="middle" x="1039" y="-773.5" font-family="Helvetica,sans-Serif" font-size="10.00" fill="#000000"> +lifetime</text>
</g>
<!-- Node14 -->
<g id="node14" class="node">
<title>Node14</title>
<polygon fill="none" stroke="#bfbfbf" points="1079,-805.5 1079,-895.5 1243,-895.5 1243,-805.5 1079,-805.5"/>
<text text-anchor="start" x="1087" y="-883.5" font-family="Helvetica,sans-Serif" font-size="10.00" fill="#000000">variant&lt; o2::framework</text>
<text text-anchor="start" x="1087" y="-872.5" font-family="Helvetica,sans-Serif" font-size="10.00" fill="#000000">::ConcreteDataMatcher,</text>
<text text-anchor="start" x="1087" y="-861.5" font-family="Helvetica,sans-Serif" font-size="10.00" fill="#000000"> o2::framework::data_matcher</text>
<text text-anchor="middle" x="1161" y="-850.5" font-family="Helvetica,sans-Serif" font-size="10.00" fill="#000000">::DataDescriptorMatcher &gt;</text>
<polyline fill="none" stroke="#bfbfbf" points="1079,-843.5 1243,-843.5 "/>
<text text-anchor="middle" x="1161" y="-831.5" font-family="Helvetica,sans-Serif" font-size="10.00" fill="#000000"> </text>
<polyline fill="none" stroke="#bfbfbf" points="1079,-824.5 1243,-824.5 "/>
<text text-anchor="middle" x="1161" y="-812.5" font-family="Helvetica,sans-Serif" font-size="10.00" fill="#000000"> </text>
</g>
<!-- Node14&#45;&gt;Node12 -->
<g id="edge15" class="edge">
<title>Node14&#45;&gt;Node12</title>
<path fill="none" stroke="#404040" d="M1118.7011,-805.0784C1104.4002,-789.7217 1088.1389,-772.2599 1072.6975,-755.6785"/>
<polygon fill="none" stroke="#404040" points="1072.399,-755.3579 1065.3827,-753.6931 1064.2209,-746.5761 1071.2372,-748.241 1072.399,-755.3579"/>
<text text-anchor="middle" x="1125" y="-773.5" font-family="Helvetica,sans-Serif" font-size="10.00" fill="#000000"> +matcher</text>
</g>
<!-- Node15 -->
<g id="node15" class="node">
<title>Node15</title>
<polygon fill="none" stroke="#bfbfbf" points="806,-474.5 806,-531.5 922,-531.5 922,-474.5 806,-474.5"/>
<text text-anchor="middle" x="864" y="-519.5" font-family="Helvetica,sans-Serif" font-size="10.00" fill="#000000">shared_ptr&lt; TH1F &gt;</text>
<polyline fill="none" stroke="#bfbfbf" points="806,-512.5 922,-512.5 "/>
<text text-anchor="middle" x="864" y="-500.5" font-family="Helvetica,sans-Serif" font-size="10.00" fill="#000000"> </text>
<polyline fill="none" stroke="#bfbfbf" points="806,-493.5 922,-493.5 "/>
<text text-anchor="middle" x="864" y="-481.5" font-family="Helvetica,sans-Serif" font-size="10.00" fill="#000000"> </text>
</g>
<!-- Node15&#45;&gt;Node8 -->
<g id="edge17" class="edge">
<title>Node15&#45;&gt;Node8</title>
<path fill="none" stroke="#404040" d="M839.8145,-474.1735C819.0457,-449.4194 787.8957,-412.292 758.526,-377.2864"/>
<polygon fill="none" stroke="#404040" points="758.4167,-377.1561 751.4959,-375.1306 750.7037,-367.9631 757.6245,-369.9886 758.4167,-377.1561"/>
<text text-anchor="middle" x="799" y="-393" font-family="Helvetica,sans-Serif" font-size="10.00" fill="#000000"> +object</text>
</g>
<!-- Node16&#45;&gt;Node8 -->
<g id="edge18" class="edge">
<title>Node16&#45;&gt;Node8</title>
<path fill="none" stroke="#ffa500" d="M635.7214,-409.7391C640.0161,-397.1125 644.4145,-384.1814 648.6838,-371.6296"/>
<polygon fill="#ffa500" stroke="#ffa500" points="632.3679,-408.7296 632.4612,-419.324 638.995,-410.9837 632.3679,-408.7296"/>
<text text-anchor="middle" x="667.5" y="-393" font-family="Helvetica,sans-Serif" font-size="10.00" fill="#000000"> &lt; TH1F &gt;</text>
</g>
<!-- Node17 -->
<g id="node17" class="node">
<title>Node17</title>
<polygon fill="none" stroke="#bfbfbf" points="565.5,-662 565.5,-719 662.5,-719 662.5,-662 565.5,-662"/>
<text text-anchor="middle" x="614" y="-707" font-family="Helvetica,sans-Serif" font-size="10.00" fill="#000000">shared_ptr&lt; T &gt;</text>
<polyline fill="none" stroke="#bfbfbf" points="565.5,-700 662.5,-700 "/>
<text text-anchor="middle" x="614" y="-688" font-family="Helvetica,sans-Serif" font-size="10.00" fill="#000000"> </text>
<polyline fill="none" stroke="#bfbfbf" points="565.5,-681 662.5,-681 "/>
<text text-anchor="middle" x="614" y="-669" font-family="Helvetica,sans-Serif" font-size="10.00" fill="#000000"> </text>
</g>
<!-- Node17&#45;&gt;Node16 -->
<g id="edge22" class="edge">
<title>Node17&#45;&gt;Node16</title>
<path fill="none" stroke="#404040" d="M612.4594,-661.614C611.545,-644.4686 610.3278,-621.6459 609.1024,-598.6694"/>
<polygon fill="none" stroke="#404040" points="609.1016,-598.6523 604.7876,-592.8739 608.4624,-586.6694 612.7763,-592.4478 609.1016,-598.6523"/>
<text text-anchor="middle" x="631" y="-608" font-family="Helvetica,sans-Serif" font-size="10.00" fill="#000000"> +object</text>
</g>
</g>
</svg>
