<?xml version="1.0" encoding="UTF-8" standalone="no"?>
<!DOCTYPE svg PUBLIC "-//W3C//DTD SVG 1.1//EN"
 "http://www.w3.org/Graphics/SVG/1.1/DTD/svg11.dtd">
<!-- Generated by graphviz version 2.40.1 (20161225.0304)
 -->
<!-- Title: /home/travis/build/AliceO2Group/AliceO2/Framework/Core/include/Framework/CallbackService.h Pages: 1 -->
<!--zoomable 296 -->
<svg id="main" version="1.1" xmlns="http://www.w3.org/2000/svg" xmlns:xlink="http://www.w3.org/1999/xlink" xml:space="preserve" onload="init(evt)">
<style type="text/css"><![CDATA[
.edge:hover path { stroke: red; }
.edge:hover polygon { stroke: red; fill: red; }
]]></style>
<script type="text/javascript"><![CDATA[
var edges = document.getElementsByTagName('g');
if (edges && edges.length) {
  for (var i=0;i<edges.length;i++) {
    if (edges[i].id.substr(0,4)=='edge') {
      edges[i].setAttribute('class','edge');
    }
  }
}
]]></script>
        <defs>
                <circle id="rim" cx="0" cy="0" r="7"/>
                <circle id="rim2" cx="0" cy="0" r="3.5"/>
                <g id="zoomPlus">
                        <use xlink:href="#rim" fill="#404040">
                                <set attributeName="fill" to="#808080" begin="zoomplus.mouseover" end="zoomplus.mouseout"/>
                        </use>
                        <path d="M-4,0h8M0,-4v8" fill="none" stroke="white" stroke-width="1.5" pointer-events="none"/>
                </g>
                <g id="zoomMin">
                        <use xlink:href="#rim" fill="#404040">
                                <set attributeName="fill" to="#808080" begin="zoomminus.mouseover" end="zoomminus.mouseout"/>
                        </use>
                        <path d="M-4,0h8" fill="none" stroke="white" stroke-width="1.5" pointer-events="none"/>
                </g>
                <g id="dirArrow">
                        <path fill="none" stroke="white" stroke-width="1.5" d="M0,-3.0v7 M-2.5,-0.5L0,-3.0L2.5,-0.5"/>
                </g>
               <g id="resetDef">
                       <use xlink:href="#rim2" fill="#404040">
                               <set attributeName="fill" to="#808080" begin="reset.mouseover" end="reset.mouseout"/>
                       </use>
               </g>
        </defs>

<script type="text/javascript">
var viewWidth = 609;
var viewHeight = 296;
var sectionId = 'dynsection-0';
</script>
<script xlink:href="../../svgpan.js"/>
<svg id="graph" class="graph">
<g id="viewport">
<title>/home/travis/build/AliceO2Group/AliceO2/Framework/Core/include/Framework/CallbackService.h</title>
<!-- Node0 -->
<g id="node1" class="node">
<title>Node0</title>
<polygon fill="#bfbfbf" stroke="#000000" points="156.0408,-235.5 156.0408,-287.5 320.0408,-287.5 320.0408,-235.5 156.0408,-235.5"/>
<text text-anchor="start" x="164.0408" y="-275.5" font-family="Helvetica,sans-Serif" font-size="10.00" fill="#000000">/home/travis/build</text>
<text text-anchor="start" x="164.0408" y="-264.5" font-family="Helvetica,sans-Serif" font-size="10.00" fill="#000000">/AliceO2Group/AliceO2</text>
<text text-anchor="start" x="164.0408" y="-253.5" font-family="Helvetica,sans-Serif" font-size="10.00" fill="#000000">/Framework/Core/include</text>
<text text-anchor="middle" x="238.0408" y="-242.5" font-family="Helvetica,sans-Serif" font-size="10.00" fill="#000000">/Framework/CallbackService.h</text>
</g>
<!-- Node1 -->
<g id="node2" class="node">
<title>Node1</title>
<g id="a_node2"><a xlink:href="../../d7/d3e/CallbackRegistry_8h.html" target="_top" xlink:title="A generic registry for callbacks. ">
<polygon fill="none" stroke="#000000" points="185.0408,-179.5 185.0408,-198.5 291.0408,-198.5 291.0408,-179.5 185.0408,-179.5"/>
<text text-anchor="middle" x="238.0408" y="-186.5" font-family="Helvetica,sans-Serif" font-size="10.00" fill="#000000">CallbackRegistry.h</text>
</a>
</g>
</g>
<!-- Node0&#45;&gt;Node1 -->
<g id="edge1" class="edge">
<title>Node0&#45;&gt;Node1</title>
<path fill="none" stroke="#191970" d="M238.0408,-235.3258C238.0408,-226.5142 238.0408,-216.8397 238.0408,-208.621"/>
<polygon fill="#191970" stroke="#191970" points="241.5409,-208.534 238.0408,-198.534 234.5409,-208.534 241.5409,-208.534"/>
</g>
<!-- Node10 -->
<g id="node11" class="node">
<title>Node10</title>
<polygon fill="none" stroke="#bfbfbf" points="87.5408,-123.5 87.5408,-142.5 128.5408,-142.5 128.5408,-123.5 87.5408,-123.5"/>
<text text-anchor="middle" x="108.0408" y="-130.5" font-family="Helvetica,sans-Serif" font-size="10.00" fill="#000000">tuple</text>
</g>
<!-- Node0&#45;&gt;Node10 -->
<g id="edge16" class="edge">
<title>Node0&#45;&gt;Node10</title>
<path fill="none" stroke="#191970" d="M211.7333,-235.4961C185.831,-209.8926 147.0399,-171.5491 124.981,-149.7448"/>
<polygon fill="#191970" stroke="#191970" points="127.2385,-147.0549 117.666,-142.5142 122.3175,-152.0333 127.2385,-147.0549"/>
</g>
<!-- Node13 -->
<g id="node14" class="node">
<title>Node13</title>
<g id="a_node14"><a xlink:href="../../d3/d28/ServiceHandle_8h.html" target="_top" xlink:title="Framework/ServiceHandle.h">
<polygon fill="none" stroke="#000000" points="361.5408,-179.5 361.5408,-198.5 514.5408,-198.5 514.5408,-179.5 361.5408,-179.5"/>
<text text-anchor="middle" x="438.0408" y="-186.5" font-family="Helvetica,sans-Serif" font-size="10.00" fill="#000000">Framework/ServiceHandle.h</text>
</a>
</g>
</g>
<!-- Node0&#45;&gt;Node13 -->
<g id="edge14" class="edge">
<title>Node0&#45;&gt;Node13</title>
<path fill="none" stroke="#191970" d="M309.9628,-235.4283C341.2041,-224.1033 376.424,-211.3361 402.0122,-202.0604"/>
<polygon fill="#191970" stroke="#191970" points="403.4527,-205.2611 411.6613,-198.5626 401.0671,-198.6802 403.4527,-205.2611"/>
</g>
<!-- Node2 -->
<g id="node3" class="node">
<title>Node2</title>
<g id="a_node3"><a xlink:href="../../d0/d95/TypeTraits_8h.html" target="_top" xlink:title="Framework/TypeTraits.h">
<polygon fill="none" stroke="#000000" points="146.5408,-123.5 146.5408,-142.5 277.5408,-142.5 277.5408,-123.5 146.5408,-123.5"/>
<text text-anchor="middle" x="212.0408" y="-130.5" font-family="Helvetica,sans-Serif" font-size="10.00" fill="#000000">Framework/TypeTraits.h</text>
</a>
</g>
</g>
<!-- Node1&#45;&gt;Node2 -->
<g id="edge2" class="edge">
<title>Node1&#45;&gt;Node2</title>
<path fill="none" stroke="#191970" d="M233.5119,-179.2455C230.0074,-171.6973 225.0481,-161.0158 220.7785,-151.8197"/>
<polygon fill="#191970" stroke="#191970" points="223.9034,-150.2389 216.5177,-142.6427 217.5544,-153.1867 223.9034,-150.2389"/>
</g>
<!-- Node1&#45;&gt;Node10 -->
<g id="edge11" class="edge">
<title>Node1&#45;&gt;Node10</title>
<path fill="none" stroke="#191970" d="M215.693,-179.3733C194.2546,-170.1383 161.7333,-156.1291 138.046,-145.9253"/>
<polygon fill="#191970" stroke="#191970" points="139.3792,-142.6888 128.8104,-141.9469 136.6098,-149.1177 139.3792,-142.6888"/>
</g>
<!-- Node11 -->
<g id="node12" class="node">
<title>Node11</title>
<polygon fill="none" stroke="#bfbfbf" points="295.5408,-123.5 295.5408,-142.5 360.5408,-142.5 360.5408,-123.5 295.5408,-123.5"/>
<text text-anchor="middle" x="328.0408" y="-130.5" font-family="Helvetica,sans-Serif" font-size="10.00" fill="#000000">stdexcept</text>
</g>
<!-- Node1&#45;&gt;Node11 -->
<g id="edge12" class="edge">
<title>Node1&#45;&gt;Node11</title>
<path fill="none" stroke="#191970" d="M253.7176,-179.2455C267.5264,-170.6534 287.86,-158.0014 303.77,-148.1018"/>
<polygon fill="#191970" stroke="#191970" points="305.9021,-150.8974 312.5436,-142.6427 302.204,-144.954 305.9021,-150.8974"/>
</g>
<!-- Node12 -->
<g id="node13" class="node">
<title>Node12</title>
<polygon fill="none" stroke="#bfbfbf" points="378.5408,-123.5 378.5408,-142.5 423.5408,-142.5 423.5408,-123.5 378.5408,-123.5"/>
<text text-anchor="middle" x="401.0408" y="-130.5" font-family="Helvetica,sans-Serif" font-size="10.00" fill="#000000">utility</text>
</g>
<!-- Node1&#45;&gt;Node12 -->
<g id="edge13" class="edge">
<title>Node1&#45;&gt;Node12</title>
<path fill="none" stroke="#191970" d="M266.0615,-179.3733C294.6024,-169.5678 338.8094,-154.3801 368.7902,-144.08"/>
<polygon fill="#191970" stroke="#191970" points="370.0488,-147.3484 378.369,-140.7891 367.7743,-140.7282 370.0488,-147.3484"/>
</g>
<!-- Node3 -->
<g id="node4" class="node">
<title>Node3</title>
<polygon fill="none" stroke="#bfbfbf" points="64.5408,-.5 64.5408,-19.5 133.5408,-19.5 133.5408,-.5 64.5408,-.5"/>
<text text-anchor="middle" x="99.0408" y="-7.5" font-family="Helvetica,sans-Serif" font-size="10.00" fill="#000000">type_traits</text>
</g>
<!-- Node2&#45;&gt;Node3 -->
<g id="edge3" class="edge">
<title>Node2&#45;&gt;Node3</title>
<path fill="none" stroke="#191970" d="M152.0681,-123.4978C94.6097,-113.7839 15.2783,-98.5278 6.0408,-87 -2.5748,-76.2483 -1.2279,-67.7044 6.0408,-56 16.8846,-38.5387 36.5389,-27.5043 54.995,-20.6367"/>
<polygon fill="#191970" stroke="#191970" points="56.1412,-23.9438 64.484,-17.4132 53.8896,-17.3158 56.1412,-23.9438"/>
</g>
<!-- Node4 -->
<g id="node5" class="node">
<title>Node4</title>
<polygon fill="none" stroke="#bfbfbf" points="15.5408,-62 15.5408,-81 62.5408,-81 62.5408,-62 15.5408,-62"/>
<text text-anchor="middle" x="39.0408" y="-69" font-family="Helvetica,sans-Serif" font-size="10.00" fill="#000000">vector</text>
</g>
<!-- Node2&#45;&gt;Node4 -->
<g id="edge4" class="edge">
<title>Node2&#45;&gt;Node4</title>
<path fill="none" stroke="#191970" d="M179.1072,-123.4187C150.4785,-114.7972 108.0601,-101.315 72.0408,-87 70.6438,-86.4448 69.2219,-85.8592 67.7919,-85.2536"/>
<polygon fill="#191970" stroke="#191970" points="68.9711,-81.9474 58.412,-81.0778 66.1241,-88.3424 68.9711,-81.9474"/>
</g>
<!-- Node5 -->
<g id="node6" class="node">
<title>Node5</title>
<polygon fill="none" stroke="#bfbfbf" points="81.0408,-62 81.0408,-81 139.0408,-81 139.0408,-62 81.0408,-62"/>
<text text-anchor="middle" x="110.0408" y="-69" font-family="Helvetica,sans-Serif" font-size="10.00" fill="#000000">memory</text>
</g>
<!-- Node2&#45;&gt;Node5 -->
<g id="edge5" class="edge">
<title>Node2&#45;&gt;Node5</title>
<path fill="none" stroke="#191970" d="M196.1033,-123.3906C179.6356,-113.4616 153.715,-97.833 134.6204,-86.3201"/>
<polygon fill="#191970" stroke="#191970" points="136.2374,-83.2081 125.8664,-81.0419 132.6229,-89.2027 136.2374,-83.2081"/>
</g>
<!-- Node6 -->
<g id="node7" class="node">
<title>Node6</title>
<g id="a_node7"><a xlink:href="../../db/d31/Traits_8h.html" target="_top" xlink:title="Framework/Traits.h">
<polygon fill="none" stroke="#000000" points="157.5408,-62 157.5408,-81 266.5408,-81 266.5408,-62 157.5408,-62"/>
<text text-anchor="middle" x="212.0408" y="-69" font-family="Helvetica,sans-Serif" font-size="10.00" fill="#000000">Framework/Traits.h</text>
</a>
</g>
</g>
<!-- Node2&#45;&gt;Node6 -->
<g id="edge6" class="edge">
<title>Node2&#45;&gt;Node6</title>
<path fill="none" stroke="#191970" d="M212.0408,-123.3906C212.0408,-114.8657 212.0408,-102.1392 212.0408,-91.4235"/>
<polygon fill="#191970" stroke="#191970" points="215.5409,-91.2448 212.0408,-81.2449 208.5409,-91.2449 215.5409,-91.2448"/>
</g>
<!-- Node7 -->
<g id="node8" class="node">
<title>Node7</title>
<polygon fill="none" stroke="#bfbfbf" points="285.0408,-56.5 285.0408,-86.5 401.0408,-86.5 401.0408,-56.5 285.0408,-56.5"/>
<text text-anchor="start" x="293.0408" y="-74.5" font-family="Helvetica,sans-Serif" font-size="10.00" fill="#000000">boost/archive/binary</text>
<text text-anchor="middle" x="343.0408" y="-63.5" font-family="Helvetica,sans-Serif" font-size="10.00" fill="#000000">_iarchive.hpp</text>
</g>
<!-- Node2&#45;&gt;Node7 -->
<g id="edge8" class="edge">
<title>Node2&#45;&gt;Node7</title>
<path fill="none" stroke="#191970" d="M232.5095,-123.3906C250.9775,-114.7205 278.7026,-101.7046 301.7643,-90.8779"/>
<polygon fill="#191970" stroke="#191970" points="303.4299,-93.9625 310.9946,-86.5446 300.4551,-87.6261 303.4299,-93.9625"/>
</g>
<!-- Node8 -->
<g id="node9" class="node">
<title>Node8</title>
<polygon fill="none" stroke="#bfbfbf" points="419.0408,-56.5 419.0408,-86.5 535.0408,-86.5 535.0408,-56.5 419.0408,-56.5"/>
<text text-anchor="start" x="427.0408" y="-74.5" font-family="Helvetica,sans-Serif" font-size="10.00" fill="#000000">boost/archive/binary</text>
<text text-anchor="middle" x="477.0408" y="-63.5" font-family="Helvetica,sans-Serif" font-size="10.00" fill="#000000">_oarchive.hpp</text>
</g>
<!-- Node2&#45;&gt;Node8 -->
<g id="edge9" class="edge">
<title>Node2&#45;&gt;Node8</title>
<path fill="none" stroke="#191970" d="M253.1563,-123.4581C294.6387,-113.831 359.421,-98.7967 408.6486,-87.3722"/>
<polygon fill="#191970" stroke="#191970" points="409.6389,-90.7354 418.5888,-85.0653 408.0564,-83.9166 409.6389,-90.7354"/>
</g>
<!-- Node9 -->
<g id="node10" class="node">
<title>Node9</title>
<polygon fill="none" stroke="#bfbfbf" points="553.0408,-62 553.0408,-81 601.0408,-81 601.0408,-62 553.0408,-62"/>
<text text-anchor="middle" x="577.0408" y="-69" font-family="Helvetica,sans-Serif" font-size="10.00" fill="#000000">gsl/gsl</text>
</g>
<!-- Node2&#45;&gt;Node9 -->
<g id="edge10" class="edge">
<title>Node2&#45;&gt;Node9</title>
<path fill="none" stroke="#191970" d="M277.6353,-124.1631C372.5687,-111.3382 537.6951,-88.8826 544.0408,-87 545.9523,-86.4329 547.893,-85.7707 549.8268,-85.0454"/>
<polygon fill="#191970" stroke="#191970" points="551.4309,-88.1669 559.2711,-81.0408 548.6982,-81.7223 551.4309,-88.1669"/>
</g>
<!-- Node6&#45;&gt;Node3 -->
<g id="edge7" class="edge">
<title>Node6&#45;&gt;Node3</title>
<path fill="none" stroke="#191970" d="M194.3845,-61.8906C175.8922,-51.8262 146.6398,-35.9057 125.41,-24.3514"/>
<polygon fill="#191970" stroke="#191970" points="127.0296,-21.2481 116.573,-19.5419 123.6833,-27.3965 127.0296,-21.2481"/>
</g>
<!-- Node14 -->
<g id="node15" class="node">
<title>Node14</title>
<polygon fill="none" stroke="#bfbfbf" points="442.0408,-123.5 442.0408,-142.5 486.0408,-142.5 486.0408,-123.5 442.0408,-123.5"/>
<text text-anchor="middle" x="464.0408" y="-130.5" font-family="Helvetica,sans-Serif" font-size="10.00" fill="#000000">string</text>
</g>
<!-- Node13&#45;&gt;Node14 -->
<g id="edge15" class="edge">
<title>Node13&#45;&gt;Node14</title>
<path fill="none" stroke="#191970" d="M442.5696,-179.2455C446.0742,-171.6973 451.0335,-161.0158 455.3031,-151.8197"/>
<polygon fill="#191970" stroke="#191970" points="458.5272,-153.1867 459.5638,-142.6427 452.1781,-150.2389 458.5272,-153.1867"/>
</g>
</g>
</svg>
        <g id="navigator" transform="translate(0 0)" fill="#404254">
                <rect fill="#f2f5e9" fill-opacity="0.5" stroke="#606060" stroke-width=".5" x="0" y="0" width="60" height="60"/>
                <use id="zoomplus" xlink:href="#zoomPlus" x="17" y="9" onmousedown="handleZoom(evt,'in')"/>
                <use id="zoomminus" xlink:href="#zoomMin" x="42" y="9" onmousedown="handleZoom(evt,'out')"/>
                <use id="reset" xlink:href="#resetDef" x="30" y="36" onmousedown="handleReset()"/>
                <g id="arrowUp" xlink:href="#dirArrow" transform="translate(30 24)" onmousedown="handlePan(0,-1)">
                  <use xlink:href="#rim" fill="#404040">
                        <set attributeName="fill" to="#808080" begin="arrowUp.mouseover" end="arrowUp.mouseout"/>
                  </use>
                  <path fill="none" stroke="white" stroke-width="1.5" d="M0,-3.0v7 M-2.5,-0.5L0,-3.0L2.5,-0.5"/>
                </g>
                <g id="arrowRight" xlink:href="#dirArrow" transform="rotate(90) translate(36 -43)" onmousedown="handlePan(1,0)">
                  <use xlink:href="#rim" fill="#404040">
                        <set attributeName="fill" to="#808080" begin="arrowRight.mouseover" end="arrowRight.mouseout"/>
                  </use>
                  <path fill="none" stroke="white" stroke-width="1.5" d="M0,-3.0v7 M-2.5,-0.5L0,-3.0L2.5,-0.5"/>
                </g>
                <g id="arrowDown" xlink:href="#dirArrow" transform="rotate(180) translate(-30 -48)" onmousedown="handlePan(0,1)">
                  <use xlink:href="#rim" fill="#404040">
                        <set attributeName="fill" to="#808080" begin="arrowDown.mouseover" end="arrowDown.mouseout"/>
                  </use>
                  <path fill="none" stroke="white" stroke-width="1.5" d="M0,-3.0v7 M-2.5,-0.5L0,-3.0L2.5,-0.5"/>
                </g>
                <g id="arrowLeft" xlink:href="#dirArrow" transform="rotate(270) translate(-36 17)" onmousedown="handlePan(-1,0)">
                  <use xlink:href="#rim" fill="#404040">
                        <set attributeName="fill" to="#808080" begin="arrowLeft.mouseover" end="arrowLeft.mouseout"/>
                  </use>
                  <path fill="none" stroke="white" stroke-width="1.5" d="M0,-3.0v7 M-2.5,-0.5L0,-3.0L2.5,-0.5"/>
                </g>
        </g>
        <svg viewBox="0 0 15 15" width="100%" height="30px" preserveAspectRatio="xMaxYMin meet">
         <g id="arrow_out" transform="scale(0.3 0.3)">
          <a xlink:href="CallbackService_8h__incl_org.svg" target="_base">
           <rect id="button" ry="5" rx="5" y="6" x="6" height="38" width="38"
                fill="#f2f5e9" fill-opacity="0.5" stroke="#606060" stroke-width="1.0"/>
           <path id="arrow"
             d="M 11.500037,31.436501 C 11.940474,20.09759 22.043105,11.32322 32.158766,21.979434 L 37.068811,17.246167 C 37.068811,17.246167 37.088388,32 37.088388,32 L 22.160133,31.978069 C 22.160133,31.978069 26.997745,27.140456 26.997745,27.140456 C 18.528582,18.264221 13.291696,25.230495 11.500037,31.436501 z"
             style="fill:#404040;"/>
          </a>
         </g>
        </svg>
</svg>
