<?xml version="1.0" encoding="UTF-8" standalone="no"?>
<!DOCTYPE svg PUBLIC "-//W3C//DTD SVG 1.1//EN"
 "http://www.w3.org/Graphics/SVG/1.1/DTD/svg11.dtd">
<!-- Generated by graphviz version 2.40.1 (20161225.0304)
 -->
<!-- Title: /home/travis/build/AliceO2Group/AliceO2/Utilities/rANS/src/SymbolStatistics.cxx Pages: 1 -->
<!--zoomable 274 -->
<svg id="main" version="1.1" xmlns="http://www.w3.org/2000/svg" xmlns:xlink="http://www.w3.org/1999/xlink" xml:space="preserve" onload="init(evt)">
<style type="text/css"><![CDATA[
.edge:hover path { stroke: red; }
.edge:hover polygon { stroke: red; fill: red; }
]]></style>
<script type="text/javascript"><![CDATA[
var edges = document.getElementsByTagName('g');
if (edges && edges.length) {
  for (var i=0;i<edges.length;i++) {
    if (edges[i].id.substr(0,4)=='edge') {
      edges[i].setAttribute('class','edge');
    }
  }
}
]]></script>
        <defs>
                <circle id="rim" cx="0" cy="0" r="7"/>
                <circle id="rim2" cx="0" cy="0" r="3.5"/>
                <g id="zoomPlus">
                        <use xlink:href="#rim" fill="#404040">
                                <set attributeName="fill" to="#808080" begin="zoomplus.mouseover" end="zoomplus.mouseout"/>
                        </use>
                        <path d="M-4,0h8M0,-4v8" fill="none" stroke="white" stroke-width="1.5" pointer-events="none"/>
                </g>
                <g id="zoomMin">
                        <use xlink:href="#rim" fill="#404040">
                                <set attributeName="fill" to="#808080" begin="zoomminus.mouseover" end="zoomminus.mouseout"/>
                        </use>
                        <path d="M-4,0h8" fill="none" stroke="white" stroke-width="1.5" pointer-events="none"/>
                </g>
                <g id="dirArrow">
                        <path fill="none" stroke="white" stroke-width="1.5" d="M0,-3.0v7 M-2.5,-0.5L0,-3.0L2.5,-0.5"/>
                </g>
               <g id="resetDef">
                       <use xlink:href="#rim2" fill="#404040">
                               <set attributeName="fill" to="#808080" begin="reset.mouseover" end="reset.mouseout"/>
                       </use>
               </g>
        </defs>

<script type="text/javascript">
var viewWidth = 811;
var viewHeight = 274;
var sectionId = 'dynsection-0';
</script>
<script xlink:href="../../svgpan.js"/>
<svg id="graph" class="graph">
<g id="viewport">
<title>/home/travis/build/AliceO2Group/AliceO2/Utilities/rANS/src/SymbolStatistics.cxx</title>
<!-- Node0 -->
<g id="node1" class="node">
<title>Node0</title>
<polygon fill="#bfbfbf" stroke="#000000" points="231.0621,-224.5 231.0621,-265.5 438.0621,-265.5 438.0621,-224.5 231.0621,-224.5"/>
<text text-anchor="start" x="239.0621" y="-253.5" font-family="Helvetica,sans-Serif" font-size="10.00" fill="#000000">/home/travis/build</text>
<text text-anchor="start" x="239.0621" y="-242.5" font-family="Helvetica,sans-Serif" font-size="10.00" fill="#000000">/AliceO2Group/AliceO2</text>
<text text-anchor="middle" x="334.5621" y="-231.5" font-family="Helvetica,sans-Serif" font-size="10.00" fill="#000000">/Utilities/rANS/src/SymbolStatistics.cxx</text>
</g>
<!-- Node1 -->
<g id="node2" class="node">
<title>Node1</title>
<polygon fill="none" stroke="#bfbfbf" points="141.0621,-.5 141.0621,-19.5 188.0621,-19.5 188.0621,-.5 141.0621,-.5"/>
<text text-anchor="middle" x="164.5621" y="-7.5" font-family="Helvetica,sans-Serif" font-size="10.00" fill="#000000">cmath</text>
</g>
<!-- Node0&#45;&gt;Node1 -->
<g id="edge1" class="edge">
<title>Node0&#45;&gt;Node1</title>
<path fill="none" stroke="#191970" d="M230.7393,-227.6249C148.7885,-207.387 42.0706,-164.6166 3.5621,-76 .0194,-67.8476 -1.7908,-63.0964 3.5621,-56 18.8853,-35.6855 88.5426,-21.6432 131.0555,-14.7947"/>
<polygon fill="#191970" stroke="#191970" points="131.6309,-18.2474 140.972,-13.2479 130.5521,-11.331 131.6309,-18.2474"/>
</g>
<!-- Node2 -->
<g id="node3" class="node">
<title>Node2</title>
<g id="a_node3"><a xlink:href="../../d0/d51/SymbolStatistics_8h.html" target="_top" xlink:title="Structure to depict the distribution of symbols in the source message. ">
<polygon fill="none" stroke="#000000" points="247.0621,-168.5 247.0621,-187.5 422.0621,-187.5 422.0621,-168.5 247.0621,-168.5"/>
<text text-anchor="middle" x="334.5621" y="-175.5" font-family="Helvetica,sans-Serif" font-size="10.00" fill="#000000">rANS/internal/SymbolStatistics.h</text>
</a>
</g>
</g>
<!-- Node0&#45;&gt;Node2 -->
<g id="edge2" class="edge">
<title>Node0&#45;&gt;Node2</title>
<path fill="none" stroke="#191970" d="M334.5621,-224.168C334.5621,-215.8226 334.5621,-206.2471 334.5621,-197.9879"/>
<polygon fill="#191970" stroke="#191970" points="338.0622,-197.7804 334.5621,-187.7805 331.0622,-197.7805 338.0622,-197.7804"/>
</g>
<!-- Node11 -->
<g id="node12" class="node">
<title>Node11</title>
<g id="a_node12"><a xlink:href="../../d4/da1/helper_8h.html" target="_top" xlink:title="various helper functions ">
<polygon fill="none" stroke="#000000" points="713.5621,-56.5 713.5621,-75.5 769.5621,-75.5 769.5621,-56.5 713.5621,-56.5"/>
<text text-anchor="middle" x="741.5621" y="-63.5" font-family="Helvetica,sans-Serif" font-size="10.00" fill="#000000">helper.h</text>
</a>
</g>
</g>
<!-- Node0&#45;&gt;Node11 -->
<g id="edge27" class="edge">
<title>Node0&#45;&gt;Node11</title>
<path fill="none" stroke="#191970" d="M381.2502,-224.4664C465.2062,-187.5423 639.515,-110.8807 710.4844,-79.6681"/>
<polygon fill="#191970" stroke="#191970" points="712.0477,-82.8041 719.7924,-75.5744 709.2295,-76.3965 712.0477,-82.8041"/>
</g>
<!-- Node2&#45;&gt;Node1 -->
<g id="edge8" class="edge">
<title>Node2&#45;&gt;Node1</title>
<path fill="none" stroke="#191970" d="M276.8581,-168.4636C192.5106,-153.1652 42.3123,-120.3003 12.5621,-76 -17.436,-31.3306 77.5306,-16.703 130.8776,-12.0635"/>
<polygon fill="#191970" stroke="#191970" points="131.2517,-15.5449 140.9427,-11.2628 130.6966,-8.5669 131.2517,-15.5449"/>
</g>
<!-- Node3 -->
<g id="node4" class="node">
<title>Node3</title>
<polygon fill="none" stroke="#bfbfbf" points="21.5621,-56.5 21.5621,-75.5 85.5621,-75.5 85.5621,-56.5 21.5621,-56.5"/>
<text text-anchor="middle" x="53.5621" y="-63.5" font-family="Helvetica,sans-Serif" font-size="10.00" fill="#000000">algorithm</text>
</g>
<!-- Node2&#45;&gt;Node3 -->
<g id="edge3" class="edge">
<title>Node2&#45;&gt;Node3</title>
<path fill="none" stroke="#191970" d="M302.6893,-168.4766C274.4864,-159.7901 232.3691,-146.1807 196.5621,-132 155.9067,-115.8992 110.2409,-94.1585 81.6901,-80.1076"/>
<polygon fill="#191970" stroke="#191970" points="83.2108,-76.955 72.6958,-75.6565 80.106,-83.2288 83.2108,-76.955"/>
</g>
<!-- Node4 -->
<g id="node5" class="node">
<title>Node4</title>
<polygon fill="none" stroke="#bfbfbf" points="103.5621,-56.5 103.5621,-75.5 155.5621,-75.5 155.5621,-56.5 103.5621,-56.5"/>
<text text-anchor="middle" x="129.5621" y="-63.5" font-family="Helvetica,sans-Serif" font-size="10.00" fill="#000000">cassert</text>
</g>
<!-- Node2&#45;&gt;Node4 -->
<g id="edge4" class="edge">
<title>Node2&#45;&gt;Node4</title>
<path fill="none" stroke="#191970" d="M310.3311,-168.4223C289.1321,-159.7522 257.7263,-146.1974 231.5621,-132 202.817,-116.4021 171.4739,-95.4868 151.2251,-81.4175"/>
<polygon fill="#191970" stroke="#191970" points="153.2071,-78.5326 143.0089,-75.6606 149.1902,-84.2654 153.2071,-78.5326"/>
</g>
<!-- Node5 -->
<g id="node6" class="node">
<title>Node5</title>
<polygon fill="none" stroke="#bfbfbf" points="173.5621,-56.5 173.5621,-75.5 233.5621,-75.5 233.5621,-56.5 173.5621,-56.5"/>
<text text-anchor="middle" x="203.5621" y="-63.5" font-family="Helvetica,sans-Serif" font-size="10.00" fill="#000000">iostream</text>
</g>
<!-- Node2&#45;&gt;Node5 -->
<g id="edge5" class="edge">
<title>Node2&#45;&gt;Node5</title>
<path fill="none" stroke="#191970" d="M312.7069,-168.337C295.7299,-160.1767 272.188,-147.3774 254.5621,-132 238.6293,-118.0998 224.2802,-98.5847 214.8915,-84.382"/>
<polygon fill="#191970" stroke="#191970" points="217.8152,-82.4574 209.4713,-75.9283 211.9224,-86.2357 217.8152,-82.4574"/>
</g>
<!-- Node6 -->
<g id="node7" class="node">
<title>Node6</title>
<polygon fill="none" stroke="#bfbfbf" points="251.5621,-56.5 251.5621,-75.5 307.5621,-75.5 307.5621,-56.5 251.5621,-56.5"/>
<text text-anchor="middle" x="279.5621" y="-63.5" font-family="Helvetica,sans-Serif" font-size="10.00" fill="#000000">numeric</text>
</g>
<!-- Node2&#45;&gt;Node6 -->
<g id="edge6" class="edge">
<title>Node2&#45;&gt;Node6</title>
<path fill="none" stroke="#191970" d="M306.8662,-168.4275C290.5158,-161.1781 271.1882,-149.4435 261.5621,-132 253.4351,-117.273 259.8092,-98.641 267.127,-84.9319"/>
<polygon fill="#191970" stroke="#191970" points="270.3616,-86.3372 272.4284,-75.9459 264.3326,-82.7802 270.3616,-86.3372"/>
</g>
<!-- Node7 -->
<g id="node8" class="node">
<title>Node7</title>
<polygon fill="none" stroke="#bfbfbf" points="364.0621,-56.5 364.0621,-75.5 411.0621,-75.5 411.0621,-56.5 364.0621,-56.5"/>
<text text-anchor="middle" x="387.5621" y="-63.5" font-family="Helvetica,sans-Serif" font-size="10.00" fill="#000000">vector</text>
</g>
<!-- Node2&#45;&gt;Node7 -->
<g id="edge7" class="edge">
<title>Node2&#45;&gt;Node7</title>
<path fill="none" stroke="#191970" d="M362.258,-168.4275C378.6084,-161.1781 397.936,-149.4435 407.5621,-132 415.8343,-117.0098 408.6244,-98.1727 400.6476,-84.4637"/>
<polygon fill="#191970" stroke="#191970" points="403.5139,-82.449 395.1835,-75.9025 397.6132,-86.215 403.5139,-82.449"/>
</g>
<!-- Node8 -->
<g id="node9" class="node">
<title>Node8</title>
<polygon fill="none" stroke="#bfbfbf" points="429.0621,-56.5 429.0621,-75.5 482.0621,-75.5 482.0621,-56.5 429.0621,-56.5"/>
<text text-anchor="middle" x="455.5621" y="-63.5" font-family="Helvetica,sans-Serif" font-size="10.00" fill="#000000">iterator</text>
</g>
<!-- Node2&#45;&gt;Node8 -->
<g id="edge9" class="edge">
<title>Node2&#45;&gt;Node8</title>
<path fill="none" stroke="#191970" d="M363.2013,-168.3446C381.9741,-160.8392 406.013,-148.85 422.5621,-132 435.438,-118.89 444.245,-99.7512 449.5006,-85.4552"/>
<polygon fill="#191970" stroke="#191970" points="452.93,-86.2414 452.8359,-75.647 446.3027,-83.9878 452.93,-86.2414"/>
</g>
<!-- Node9 -->
<g id="node10" class="node">
<title>Node9</title>
<polygon fill="none" stroke="#bfbfbf" points="500.0621,-56.5 500.0621,-75.5 569.0621,-75.5 569.0621,-56.5 500.0621,-56.5"/>
<text text-anchor="middle" x="534.5621" y="-63.5" font-family="Helvetica,sans-Serif" font-size="10.00" fill="#000000">type_traits</text>
</g>
<!-- Node2&#45;&gt;Node9 -->
<g id="edge10" class="edge">
<title>Node2&#45;&gt;Node9</title>
<path fill="none" stroke="#191970" d="M361.7988,-168.4872C384.3524,-160.1483 416.9036,-147.0314 443.5621,-132 469.7132,-117.2547 497.2937,-96.3994 515.1435,-82.1011"/>
<polygon fill="#191970" stroke="#191970" points="517.516,-84.6832 523.0755,-75.6641 513.1051,-79.2478 517.516,-84.6832"/>
</g>
<!-- Node10 -->
<g id="node11" class="node">
<title>Node10</title>
<polygon fill="none" stroke="#bfbfbf" points="587.5621,-56.5 587.5621,-75.5 695.5621,-75.5 695.5621,-56.5 587.5621,-56.5"/>
<text text-anchor="middle" x="641.5621" y="-63.5" font-family="Helvetica,sans-Serif" font-size="10.00" fill="#000000">fairlogger/Logger.h</text>
</g>
<!-- Node2&#45;&gt;Node10 -->
<g id="edge11" class="edge">
<title>Node2&#45;&gt;Node10</title>
<path fill="none" stroke="#191970" d="M364.5935,-168.4734C392.6501,-159.459 435.6327,-145.3563 472.5621,-132 520.2801,-114.7417 574.8659,-93.0681 608.7794,-79.3705"/>
<polygon fill="#191970" stroke="#191970" points="610.2364,-82.5567 618.1917,-75.5592 607.6091,-76.0684 610.2364,-82.5567"/>
</g>
<!-- Node2&#45;&gt;Node11 -->
<g id="edge12" class="edge">
<title>Node2&#45;&gt;Node11</title>
<path fill="none" stroke="#191970" d="M372.2712,-168.4929C408.1552,-159.3766 463.6321,-145.1029 511.5621,-132 579.3646,-113.4645 658.0156,-90.5986 703.5546,-77.2241"/>
<polygon fill="#191970" stroke="#191970" points="704.6934,-80.5375 713.2997,-74.3584 702.7185,-73.8218 704.6934,-80.5375"/>
</g>
<!-- Node14 -->
<g id="node15" class="node">
<title>Node14</title>
<g id="a_node15"><a xlink:href="../../dd/d65/FrequencyTable_8h.html" target="_top" xlink:title="Histogram to depict frequencies of source symbols for rANS compression. ">
<polygon fill="none" stroke="#000000" points="270.5621,-112.5 270.5621,-131.5 398.5621,-131.5 398.5621,-112.5 270.5621,-112.5"/>
<text text-anchor="middle" x="334.5621" y="-119.5" font-family="Helvetica,sans-Serif" font-size="10.00" fill="#000000">rANS/FrequencyTable.h</text>
</a>
</g>
</g>
<!-- Node2&#45;&gt;Node14 -->
<g id="edge16" class="edge">
<title>Node2&#45;&gt;Node14</title>
<path fill="none" stroke="#191970" d="M334.5621,-168.2455C334.5621,-160.9382 334.5621,-150.6944 334.5621,-141.7046"/>
<polygon fill="#191970" stroke="#191970" points="338.0622,-141.6426 334.5621,-131.6427 331.0622,-141.6427 338.0622,-141.6426"/>
</g>
<!-- Node11&#45;&gt;Node1 -->
<g id="edge14" class="edge">
<title>Node11&#45;&gt;Node1</title>
<path fill="none" stroke="#191970" d="M713.3975,-57.8303C710.4307,-57.1372 707.4454,-56.5082 704.5621,-56 515.067,-22.5988 283.7252,-13.2073 198.3204,-10.7806"/>
<polygon fill="#191970" stroke="#191970" points="198.2687,-7.278 188.1777,-10.5061 198.0793,-14.2754 198.2687,-7.278"/>
</g>
<!-- Node12 -->
<g id="node13" class="node">
<title>Node12</title>
<polygon fill="none" stroke="#bfbfbf" points="750.0621,-.5 750.0621,-19.5 803.0621,-19.5 803.0621,-.5 750.0621,-.5"/>
<text text-anchor="middle" x="776.5621" y="-7.5" font-family="Helvetica,sans-Serif" font-size="10.00" fill="#000000">cstddef</text>
</g>
<!-- Node11&#45;&gt;Node12 -->
<g id="edge13" class="edge">
<title>Node11&#45;&gt;Node12</title>
<path fill="none" stroke="#191970" d="M747.6586,-56.2455C752.4766,-48.5367 759.3372,-37.5598 765.1653,-28.2348"/>
<polygon fill="#191970" stroke="#191970" points="768.2034,-29.9777 770.5354,-19.6427 762.2674,-26.2677 768.2034,-29.9777"/>
</g>
<!-- Node13 -->
<g id="node14" class="node">
<title>Node13</title>
<polygon fill="none" stroke="#bfbfbf" points="681.5621,-.5 681.5621,-19.5 731.5621,-19.5 731.5621,-.5 681.5621,-.5"/>
<text text-anchor="middle" x="706.5621" y="-7.5" font-family="Helvetica,sans-Serif" font-size="10.00" fill="#000000">chrono</text>
</g>
<!-- Node11&#45;&gt;Node13 -->
<g id="edge15" class="edge">
<title>Node11&#45;&gt;Node13</title>
<path fill="none" stroke="#191970" d="M735.4656,-56.2455C730.6475,-48.5367 723.787,-37.5598 717.9588,-28.2348"/>
<polygon fill="#191970" stroke="#191970" points="720.8568,-26.2677 712.5888,-19.6427 714.9208,-29.9777 720.8568,-26.2677"/>
</g>
<!-- Node14&#45;&gt;Node1 -->
<g id="edge19" class="edge">
<title>Node14&#45;&gt;Node1</title>
<path fill="none" stroke="#191970" d="M334.6861,-112.0548C334.3118,-97.728 331.4686,-71.324 316.5621,-56 300.1058,-39.0829 237.6806,-24.2199 198.1301,-16.2294"/>
<polygon fill="#191970" stroke="#191970" points="198.6127,-12.7573 188.1243,-14.2554 197.2577,-19.6249 198.6127,-12.7573"/>
</g>
<!-- Node14&#45;&gt;Node3 -->
<g id="edge17" class="edge">
<title>Node14&#45;&gt;Node3</title>
<path fill="none" stroke="#191970" d="M280.5505,-112.4427C234.0906,-104.0418 165.0413,-91.1301 95.9477,-76.2259"/>
<polygon fill="#191970" stroke="#191970" points="96.2709,-72.7146 85.7559,-74.0128 94.7855,-79.5552 96.2709,-72.7146"/>
</g>
<!-- Node14&#45;&gt;Node4 -->
<g id="edge18" class="edge">
<title>Node14&#45;&gt;Node4</title>
<path fill="none" stroke="#191970" d="M298.7037,-112.4538C266.3559,-103.8073 217.2138,-90.5863 165.8741,-76.341"/>
<polygon fill="#191970" stroke="#191970" points="166.4963,-72.8813 155.9242,-73.5749 164.6213,-79.6255 166.4963,-72.8813"/>
</g>
<!-- Node14&#45;&gt;Node5 -->
<g id="edge20" class="edge">
<title>Node14&#45;&gt;Node5</title>
<path fill="none" stroke="#191970" d="M312.0424,-112.3733C290.8249,-103.3032 258.8345,-89.6279 235.0852,-79.4755"/>
<polygon fill="#191970" stroke="#191970" points="236.3588,-76.2136 225.7879,-75.5011 233.6072,-82.6502 236.3588,-76.2136"/>
</g>
<!-- Node14&#45;&gt;Node6 -->
<g id="edge22" class="edge">
<title>Node14&#45;&gt;Node6</title>
<path fill="none" stroke="#191970" d="M324.9818,-112.2455C317.0163,-104.1352 305.498,-92.4075 296.0541,-82.7919"/>
<polygon fill="#191970" stroke="#191970" points="298.5368,-80.3247 289.0326,-75.6427 293.5426,-85.2297 298.5368,-80.3247"/>
</g>
<!-- Node14&#45;&gt;Node7 -->
<g id="edge24" class="edge">
<title>Node14&#45;&gt;Node7</title>
<path fill="none" stroke="#191970" d="M343.794,-112.2455C351.3938,-104.2155 362.3498,-92.6394 371.3988,-83.0781"/>
<polygon fill="#191970" stroke="#191970" points="374.1041,-85.3115 378.436,-75.6427 369.0201,-80.4998 374.1041,-85.3115"/>
</g>
<!-- Node14&#45;&gt;Node8 -->
<g id="edge21" class="edge">
<title>Node14&#45;&gt;Node8</title>
<path fill="none" stroke="#191970" d="M355.3627,-112.3733C374.7864,-103.3838 403.9845,-89.8706 425.8585,-79.7471"/>
<polygon fill="#191970" stroke="#191970" points="427.4277,-82.8776 435.0329,-75.5011 424.4876,-76.5249 427.4277,-82.8776"/>
</g>
<!-- Node14&#45;&gt;Node9 -->
<g id="edge23" class="edge">
<title>Node14&#45;&gt;Node9</title>
<path fill="none" stroke="#191970" d="M368.9433,-112.3733C402.6322,-102.9404 454.1103,-88.5265 490.7239,-78.2747"/>
<polygon fill="#191970" stroke="#191970" points="491.9436,-81.5679 500.6295,-75.5011 490.0561,-74.8271 491.9436,-81.5679"/>
</g>
<!-- Node14&#45;&gt;Node10 -->
<g id="edge25" class="edge">
<title>Node14&#45;&gt;Node10</title>
<path fill="none" stroke="#191970" d="M386.9884,-112.4369C440.3018,-102.712 522.8978,-87.6456 579.4577,-77.3285"/>
<polygon fill="#191970" stroke="#191970" points="580.1424,-80.7614 589.352,-75.5237 578.8862,-73.8751 580.1424,-80.7614"/>
</g>
<!-- Node14&#45;&gt;Node11 -->
<g id="edge26" class="edge">
<title>Node14&#45;&gt;Node11</title>
<path fill="none" stroke="#191970" d="M398.8323,-116.7663C470.8049,-110.2881 591.0266,-97.623 703.2395,-76.0343"/>
<polygon fill="#191970" stroke="#191970" points="704.2323,-79.4066 713.3762,-74.0551 702.8908,-72.5363 704.2323,-79.4066"/>
</g>
</g>
</svg>
        <g id="navigator" transform="translate(0 0)" fill="#404254">
                <rect fill="#f2f5e9" fill-opacity="0.5" stroke="#606060" stroke-width=".5" x="0" y="0" width="60" height="60"/>
                <use id="zoomplus" xlink:href="#zoomPlus" x="17" y="9" onmousedown="handleZoom(evt,'in')"/>
                <use id="zoomminus" xlink:href="#zoomMin" x="42" y="9" onmousedown="handleZoom(evt,'out')"/>
                <use id="reset" xlink:href="#resetDef" x="30" y="36" onmousedown="handleReset()"/>
                <g id="arrowUp" xlink:href="#dirArrow" transform="translate(30 24)" onmousedown="handlePan(0,-1)">
                  <use xlink:href="#rim" fill="#404040">
                        <set attributeName="fill" to="#808080" begin="arrowUp.mouseover" end="arrowUp.mouseout"/>
                  </use>
                  <path fill="none" stroke="white" stroke-width="1.5" d="M0,-3.0v7 M-2.5,-0.5L0,-3.0L2.5,-0.5"/>
                </g>
                <g id="arrowRight" xlink:href="#dirArrow" transform="rotate(90) translate(36 -43)" onmousedown="handlePan(1,0)">
                  <use xlink:href="#rim" fill="#404040">
                        <set attributeName="fill" to="#808080" begin="arrowRight.mouseover" end="arrowRight.mouseout"/>
                  </use>
                  <path fill="none" stroke="white" stroke-width="1.5" d="M0,-3.0v7 M-2.5,-0.5L0,-3.0L2.5,-0.5"/>
                </g>
                <g id="arrowDown" xlink:href="#dirArrow" transform="rotate(180) translate(-30 -48)" onmousedown="handlePan(0,1)">
                  <use xlink:href="#rim" fill="#404040">
                        <set attributeName="fill" to="#808080" begin="arrowDown.mouseover" end="arrowDown.mouseout"/>
                  </use>
                  <path fill="none" stroke="white" stroke-width="1.5" d="M0,-3.0v7 M-2.5,-0.5L0,-3.0L2.5,-0.5"/>
                </g>
                <g id="arrowLeft" xlink:href="#dirArrow" transform="rotate(270) translate(-36 17)" onmousedown="handlePan(-1,0)">
                  <use xlink:href="#rim" fill="#404040">
                        <set attributeName="fill" to="#808080" begin="arrowLeft.mouseover" end="arrowLeft.mouseout"/>
                  </use>
                  <path fill="none" stroke="white" stroke-width="1.5" d="M0,-3.0v7 M-2.5,-0.5L0,-3.0L2.5,-0.5"/>
                </g>
        </g>
        <svg viewBox="0 0 15 15" width="100%" height="30px" preserveAspectRatio="xMaxYMin meet">
         <g id="arrow_out" transform="scale(0.3 0.3)">
          <a xlink:href="SymbolStatistics_8cxx__incl_org.svg" target="_base">
           <rect id="button" ry="5" rx="5" y="6" x="6" height="38" width="38"
                fill="#f2f5e9" fill-opacity="0.5" stroke="#606060" stroke-width="1.0"/>
           <path id="arrow"
             d="M 11.500037,31.436501 C 11.940474,20.09759 22.043105,11.32322 32.158766,21.979434 L 37.068811,17.246167 C 37.068811,17.246167 37.088388,32 37.088388,32 L 22.160133,31.978069 C 22.160133,31.978069 26.997745,27.140456 26.997745,27.140456 C 18.528582,18.264221 13.291696,25.230495 11.500037,31.436501 z"
             style="fill:#404040;"/>
          </a>
         </g>
        </svg>
</svg>
