<?xml version="1.0" encoding="UTF-8" standalone="no"?>
<!DOCTYPE svg PUBLIC "-//W3C//DTD SVG 1.1//EN"
 "http://www.w3.org/Graphics/SVG/1.1/DTD/svg11.dtd">
<!-- Generated by graphviz version 2.40.1 (20161225.0304)
 -->
<!-- Title: /home/travis/build/AliceO2Group/AliceO2/GPU/GPUTracking/TRDTracking/GPUTRDTrackletReaderComponent.cxx Pages: 1 -->
<!--zoomable 341 -->
<svg id="main" version="1.1" xmlns="http://www.w3.org/2000/svg" xmlns:xlink="http://www.w3.org/1999/xlink" xml:space="preserve" onload="init(evt)">
<style type="text/css"><![CDATA[
.edge:hover path { stroke: red; }
.edge:hover polygon { stroke: red; fill: red; }
]]></style>
<script type="text/javascript"><![CDATA[
var edges = document.getElementsByTagName('g');
if (edges && edges.length) {
  for (var i=0;i<edges.length;i++) {
    if (edges[i].id.substr(0,4)=='edge') {
      edges[i].setAttribute('class','edge');
    }
  }
}
]]></script>
        <defs>
                <circle id="rim" cx="0" cy="0" r="7"/>
                <circle id="rim2" cx="0" cy="0" r="3.5"/>
                <g id="zoomPlus">
                        <use xlink:href="#rim" fill="#404040">
                                <set attributeName="fill" to="#808080" begin="zoomplus.mouseover" end="zoomplus.mouseout"/>
                        </use>
                        <path d="M-4,0h8M0,-4v8" fill="none" stroke="white" stroke-width="1.5" pointer-events="none"/>
                </g>
                <g id="zoomMin">
                        <use xlink:href="#rim" fill="#404040">
                                <set attributeName="fill" to="#808080" begin="zoomminus.mouseover" end="zoomminus.mouseout"/>
                        </use>
                        <path d="M-4,0h8" fill="none" stroke="white" stroke-width="1.5" pointer-events="none"/>
                </g>
                <g id="dirArrow">
                        <path fill="none" stroke="white" stroke-width="1.5" d="M0,-3.0v7 M-2.5,-0.5L0,-3.0L2.5,-0.5"/>
                </g>
               <g id="resetDef">
                       <use xlink:href="#rim2" fill="#404040">
                               <set attributeName="fill" to="#808080" begin="reset.mouseover" end="reset.mouseout"/>
                       </use>
               </g>
        </defs>

<script type="text/javascript">
var viewWidth = 1951;
var viewHeight = 341;
var sectionId = 'dynsection-0';
</script>
<script xlink:href="../../svgpan.js"/>
<svg id="graph" class="graph">
<g id="viewport">
<title>/home/travis/build/AliceO2Group/AliceO2/GPU/GPUTracking/TRDTracking/GPUTRDTrackletReaderComponent.cxx</title>
<!-- Node0 -->
<g id="node1" class="node">
<title>Node0</title>
<polygon fill="#bfbfbf" stroke="#000000" points="943,-280.5 943,-332.5 1152,-332.5 1152,-280.5 943,-280.5"/>
<text text-anchor="start" x="951" y="-320.5" font-family="Helvetica,sans-Serif" font-size="10.00" fill="#000000">/home/travis/build</text>
<text text-anchor="start" x="951" y="-309.5" font-family="Helvetica,sans-Serif" font-size="10.00" fill="#000000">/AliceO2Group/AliceO2</text>
<text text-anchor="start" x="951" y="-298.5" font-family="Helvetica,sans-Serif" font-size="10.00" fill="#000000">/GPU/GPUTracking/TRDTracking</text>
<text text-anchor="middle" x="1047.5" y="-287.5" font-family="Helvetica,sans-Serif" font-size="10.00" fill="#000000">/GPUTRDTrackletReaderComponent.cxx</text>
</g>
<!-- Node1 -->
<g id="node2" class="node">
<title>Node1</title>
<polygon fill="none" stroke="#bfbfbf" points="0,-224.5 0,-243.5 49,-243.5 49,-224.5 0,-224.5"/>
<text text-anchor="middle" x="24.5" y="-231.5" font-family="Helvetica,sans-Serif" font-size="10.00" fill="#000000">cstdlib</text>
</g>
<!-- Node0&#45;&gt;Node1 -->
<g id="edge1" class="edge">
<title>Node0&#45;&gt;Node1</title>
<path fill="none" stroke="#191970" d="M942.7941,-302.8389C728.1861,-294.8598 243.8312,-274.2896 59.118,-243.667"/>
<polygon fill="#191970" stroke="#191970" points="59.6789,-240.2122 49.2304,-241.9666 58.4925,-247.1109 59.6789,-240.2122"/>
</g>
<!-- Node2 -->
<g id="node3" class="node">
<title>Node2</title>
<polygon fill="none" stroke="#bfbfbf" points="67.5,-224.5 67.5,-243.5 123.5,-243.5 123.5,-224.5 67.5,-224.5"/>
<text text-anchor="middle" x="95.5" y="-231.5" font-family="Helvetica,sans-Serif" font-size="10.00" fill="#000000">AliLog.h</text>
</g>
<!-- Node0&#45;&gt;Node2 -->
<g id="edge2" class="edge">
<title>Node0&#45;&gt;Node2</title>
<path fill="none" stroke="#191970" d="M942.8783,-301.935C741.0633,-292.712 303.6744,-270.5905 133.7319,-243.8632"/>
<polygon fill="#191970" stroke="#191970" points="134.0891,-240.3753 123.656,-242.2195 132.962,-247.284 134.0891,-240.3753"/>
</g>
<!-- Node3 -->
<g id="node4" class="node">
<title>Node3</title>
<g id="a_node4"><a xlink:href="../../d6/d34/AliHLTDataTypes_8h.html" target="_top" xlink:title="Data type declaration for the HLT module. ">
<polygon fill="none" stroke="#000000" points="142,-224.5 142,-243.5 249,-243.5 249,-224.5 142,-224.5"/>
<text text-anchor="middle" x="195.5" y="-231.5" font-family="Helvetica,sans-Serif" font-size="10.00" fill="#000000">AliHLTDataTypes.h</text>
</a>
</g>
</g>
<!-- Node0&#45;&gt;Node3 -->
<g id="edge3" class="edge">
<title>Node0&#45;&gt;Node3</title>
<path fill="none" stroke="#191970" d="M942.9055,-300.8312C793.5732,-292.1523 510.5016,-273.5325 259.1338,-243.9869"/>
<polygon fill="#191970" stroke="#191970" points="259.4185,-240.4963 249.0765,-242.7969 258.5959,-247.4478 259.4185,-240.4963"/>
</g>
<!-- Node4 -->
<g id="node5" class="node">
<title>Node4</title>
<polygon fill="none" stroke="#bfbfbf" points="267.5,-224.5 267.5,-243.5 395.5,-243.5 395.5,-224.5 267.5,-224.5"/>
<text text-anchor="middle" x="331.5" y="-231.5" font-family="Helvetica,sans-Serif" font-size="10.00" fill="#000000">AliHLTTRDDefinitions.h</text>
</g>
<!-- Node0&#45;&gt;Node4 -->
<g id="edge4" class="edge">
<title>Node0&#45;&gt;Node4</title>
<path fill="none" stroke="#191970" d="M942.9556,-297.608C817.7883,-286.6739 601.5617,-266.8735 405.7696,-244.1122"/>
<polygon fill="#191970" stroke="#191970" points="405.9144,-240.6055 395.576,-242.9223 405.1027,-247.5582 405.9144,-240.6055"/>
</g>
<!-- Node5 -->
<g id="node6" class="node">
<title>Node5</title>
<g id="a_node6"><a xlink:href="../../dc/d2e/GPUTRDTrackletReaderComponent_8h.html" target="_top" xlink:title="A pre&#45;processing component for TRD tracking/trigger data on FEP&#45;level. ">
<polygon fill="none" stroke="#000000" points="414,-224.5 414,-243.5 609,-243.5 609,-224.5 414,-224.5"/>
<text text-anchor="middle" x="511.5" y="-231.5" font-family="Helvetica,sans-Serif" font-size="10.00" fill="#000000">GPUTRDTrackletReaderComponent.h</text>
</a>
</g>
</g>
<!-- Node0&#45;&gt;Node5 -->
<g id="edge5" class="edge">
<title>Node0&#45;&gt;Node5</title>
<path fill="none" stroke="#191970" d="M942.8814,-292.3492C840.1462,-278.4531 685.6135,-257.5508 592.0774,-244.899"/>
<polygon fill="#191970" stroke="#191970" points="592.4801,-241.4217 582.1012,-243.5496 591.5418,-248.3585 592.4801,-241.4217"/>
</g>
<!-- Node7 -->
<g id="node8" class="node">
<title>Node7</title>
<polygon fill="none" stroke="#bfbfbf" points="627,-224.5 627,-243.5 758,-243.5 758,-224.5 627,-224.5"/>
<text text-anchor="middle" x="692.5" y="-231.5" font-family="Helvetica,sans-Serif" font-size="10.00" fill="#000000">AliRawReaderMemory.h</text>
</g>
<!-- Node0&#45;&gt;Node7 -->
<g id="edge7" class="edge">
<title>Node0&#45;&gt;Node7</title>
<path fill="none" stroke="#191970" d="M942.9084,-285.1397C879.6338,-272.2175 801.3983,-256.2398 749.3846,-245.6173"/>
<polygon fill="#191970" stroke="#191970" points="749.8418,-242.1385 739.3437,-243.5667 748.4411,-248.9969 749.8418,-242.1385"/>
</g>
<!-- Node8 -->
<g id="node9" class="node">
<title>Node8</title>
<polygon fill="none" stroke="#bfbfbf" points="776.5,-224.5 776.5,-243.5 888.5,-243.5 888.5,-224.5 776.5,-224.5"/>
<text text-anchor="middle" x="832.5" y="-231.5" font-family="Helvetica,sans-Serif" font-size="10.00" fill="#000000">AliTRDrawStream.h</text>
</g>
<!-- Node0&#45;&gt;Node8 -->
<g id="edge8" class="edge">
<title>Node0&#45;&gt;Node8</title>
<path fill="none" stroke="#191970" d="M970.1838,-280.4283C936.3023,-269.0031 898.0676,-256.11 870.5029,-246.8149"/>
<polygon fill="#191970" stroke="#191970" points="871.4521,-243.4414 860.858,-243.5626 869.2154,-250.0745 871.4521,-243.4414"/>
</g>
<!-- Node9 -->
<g id="node10" class="node">
<title>Node9</title>
<g id="a_node10"><a xlink:href="../../df/d3c/GPUTRDTrackletWord_8h.html" target="_top" xlink:title="TRD Tracklet word for GPU tracker &#45; 32bit tracklet info + half chamber ID + index. ">
<polygon fill="none" stroke="#000000" points="906.5,-224.5 906.5,-243.5 1036.5,-243.5 1036.5,-224.5 906.5,-224.5"/>
<text text-anchor="middle" x="971.5" y="-231.5" font-family="Helvetica,sans-Serif" font-size="10.00" fill="#000000">GPUTRDTrackletWord.h</text>
</a>
</g>
</g>
<!-- Node0&#45;&gt;Node9 -->
<g id="edge9" class="edge">
<title>Node0&#45;&gt;Node9</title>
<path fill="none" stroke="#191970" d="M1020.0623,-280.3258C1009.6706,-270.4127 998.1341,-259.4075 988.9138,-250.6118"/>
<polygon fill="#191970" stroke="#191970" points="991.1459,-247.904 981.4943,-243.534 986.3141,-252.969 991.1459,-247.904"/>
</g>
<!-- Node20 -->
<g id="node21" class="node">
<title>Node20</title>
<g id="a_node21"><a xlink:href="../../d5/df2/GPUTRDTrackletLabels_8h.html" target="_top" xlink:title="Used for storing the MC labels for the TRD tracklets. ">
<polygon fill="none" stroke="#000000" points="1055,-224.5 1055,-243.5 1192,-243.5 1192,-224.5 1055,-224.5"/>
<text text-anchor="middle" x="1123.5" y="-231.5" font-family="Helvetica,sans-Serif" font-size="10.00" fill="#000000">GPUTRDTrackletLabels.h</text>
</a>
</g>
</g>
<!-- Node0&#45;&gt;Node20 -->
<g id="edge21" class="edge">
<title>Node0&#45;&gt;Node20</title>
<path fill="none" stroke="#191970" d="M1074.9377,-280.3258C1085.3294,-270.4127 1096.8659,-259.4075 1106.0862,-250.6118"/>
<polygon fill="#191970" stroke="#191970" points="1108.6859,-252.969 1113.5057,-243.534 1103.8541,-247.904 1108.6859,-252.969"/>
</g>
<!-- Node21 -->
<g id="node22" class="node">
<title>Node21</title>
<polygon fill="none" stroke="#bfbfbf" points="1210,-224.5 1210,-243.5 1331,-243.5 1331,-224.5 1210,-224.5"/>
<text text-anchor="middle" x="1270.5" y="-231.5" font-family="Helvetica,sans-Serif" font-size="10.00" fill="#000000">AliTRDtrackletWord.h</text>
</g>
<!-- Node0&#45;&gt;Node21 -->
<g id="edge22" class="edge">
<title>Node0&#45;&gt;Node21</title>
<path fill="none" stroke="#191970" d="M1127.6931,-280.4283C1162.9895,-268.953 1202.8406,-255.9969 1231.4586,-246.6928"/>
<polygon fill="#191970" stroke="#191970" points="1232.659,-249.983 1241.0868,-243.5626 1230.4946,-243.326 1232.659,-249.983"/>
</g>
<!-- Node22 -->
<g id="node23" class="node">
<title>Node22</title>
<polygon fill="none" stroke="#bfbfbf" points="1349,-224.5 1349,-243.5 1468,-243.5 1468,-224.5 1349,-224.5"/>
<text text-anchor="middle" x="1408.5" y="-231.5" font-family="Helvetica,sans-Serif" font-size="10.00" fill="#000000">AliTRDtrackletMCM.h</text>
</g>
<!-- Node0&#45;&gt;Node22 -->
<g id="edge23" class="edge">
<title>Node0&#45;&gt;Node22</title>
<path fill="none" stroke="#191970" d="M1152.4011,-285.4326C1217.1353,-272.432 1297.7036,-256.2513 1350.9945,-245.5489"/>
<polygon fill="#191970" stroke="#191970" points="1351.8316,-248.9507 1360.9467,-243.5502 1350.4533,-242.0878 1351.8316,-248.9507"/>
</g>
<!-- Node23 -->
<g id="node24" class="node">
<title>Node23</title>
<polygon fill="none" stroke="#bfbfbf" points="1486.5,-224.5 1486.5,-243.5 1538.5,-243.5 1538.5,-224.5 1486.5,-224.5"/>
<text text-anchor="middle" x="1512.5" y="-231.5" font-family="Helvetica,sans-Serif" font-size="10.00" fill="#000000">TTree.h</text>
</g>
<!-- Node0&#45;&gt;Node23 -->
<g id="edge24" class="edge">
<title>Node0&#45;&gt;Node23</title>
<path fill="none" stroke="#191970" d="M1152.026,-295.2796C1237.056,-285.2316 1360.2037,-268.5913 1476.1073,-244.0798"/>
<polygon fill="#191970" stroke="#191970" points="1477.1752,-247.4306 1486.222,-241.9165 1475.7111,-240.5855 1477.1752,-247.4306"/>
</g>
<!-- Node24 -->
<g id="node25" class="node">
<title>Node24</title>
<polygon fill="none" stroke="#bfbfbf" points="1557,-224.5 1557,-243.5 1634,-243.5 1634,-224.5 1557,-224.5"/>
<text text-anchor="middle" x="1595.5" y="-231.5" font-family="Helvetica,sans-Serif" font-size="10.00" fill="#000000">TEventList.h</text>
</g>
<!-- Node0&#45;&gt;Node24 -->
<g id="edge25" class="edge">
<title>Node0&#45;&gt;Node24</title>
<path fill="none" stroke="#191970" d="M1152.2403,-295.9057C1251.2762,-285.3136 1404.2137,-267.4746 1546.5491,-244.0446"/>
<polygon fill="#191970" stroke="#191970" points="1547.4856,-247.4372 1556.7781,-242.348 1546.3401,-240.5315 1547.4856,-247.4372"/>
</g>
<!-- Node25 -->
<g id="node26" class="node">
<title>Node25</title>
<polygon fill="none" stroke="#bfbfbf" points="1652,-224.5 1652,-243.5 1741,-243.5 1741,-224.5 1652,-224.5"/>
<text text-anchor="middle" x="1696.5" y="-231.5" font-family="Helvetica,sans-Serif" font-size="10.00" fill="#000000">AliRunLoader.h</text>
</g>
<!-- Node0&#45;&gt;Node25 -->
<g id="edge26" class="edge">
<title>Node0&#45;&gt;Node25</title>
<path fill="none" stroke="#191970" d="M1152.2578,-298.1324C1269.3307,-288.1856 1464.6894,-269.8108 1641.7046,-244.1771"/>
<polygon fill="#191970" stroke="#191970" points="1642.3339,-247.6225 1651.7239,-242.7155 1641.3234,-240.6958 1642.3339,-247.6225"/>
</g>
<!-- Node26 -->
<g id="node27" class="node">
<title>Node26</title>
<polygon fill="none" stroke="#bfbfbf" points="1759,-224.5 1759,-243.5 1830,-243.5 1830,-224.5 1759,-224.5"/>
<text text-anchor="middle" x="1794.5" y="-231.5" font-family="Helvetica,sans-Serif" font-size="10.00" fill="#000000">AliLoader.h</text>
</g>
<!-- Node0&#45;&gt;Node26 -->
<g id="edge27" class="edge">
<title>Node0&#45;&gt;Node26</title>
<path fill="none" stroke="#191970" d="M1152.2567,-301.6032C1288.0068,-294.2655 1532.0592,-277.6994 1748.594,-244.1429"/>
<polygon fill="#191970" stroke="#191970" points="1749.2195,-247.5878 1758.558,-242.5837 1748.1371,-240.6719 1749.2195,-247.5878"/>
</g>
<!-- Node27 -->
<g id="node28" class="node">
<title>Node27</title>
<polygon fill="none" stroke="#bfbfbf" points="1848.5,-224.5 1848.5,-243.5 1942.5,-243.5 1942.5,-224.5 1848.5,-224.5"/>
<text text-anchor="middle" x="1895.5" y="-231.5" font-family="Helvetica,sans-Serif" font-size="10.00" fill="#000000">AliDataLoader.h</text>
</g>
<!-- Node0&#45;&gt;Node27 -->
<g id="edge28" class="edge">
<title>Node0&#45;&gt;Node27</title>
<path fill="none" stroke="#191970" d="M1152.2537,-301.5076C1302.1639,-293.6311 1586.6536,-275.9672 1838.4248,-244.0256"/>
<polygon fill="#191970" stroke="#191970" points="1839.0224,-247.4778 1848.4977,-242.7378 1838.1345,-240.5343 1839.0224,-247.4778"/>
</g>
<!-- Node6 -->
<g id="node7" class="node">
<title>Node6</title>
<polygon fill="none" stroke="#bfbfbf" points="460.5,-168.5 460.5,-187.5 562.5,-187.5 562.5,-168.5 460.5,-168.5"/>
<text text-anchor="middle" x="511.5" y="-175.5" font-family="Helvetica,sans-Serif" font-size="10.00" fill="#000000">AliHLTProcessor.h</text>
</g>
<!-- Node5&#45;&gt;Node6 -->
<g id="edge6" class="edge">
<title>Node5&#45;&gt;Node6</title>
<path fill="none" stroke="#191970" d="M511.5,-224.2455C511.5,-216.9382 511.5,-206.6944 511.5,-197.7046"/>
<polygon fill="#191970" stroke="#191970" points="515.0001,-197.6426 511.5,-187.6427 508.0001,-197.6427 515.0001,-197.6426"/>
</g>
<!-- Node10 -->
<g id="node11" class="node">
<title>Node10</title>
<g id="a_node11"><a xlink:href="../../d2/d6d/GPUDef_8h.html" target="_top" xlink:title="GPUDef.h">
<polygon fill="none" stroke="#000000" points="940,-168.5 940,-187.5 1003,-187.5 1003,-168.5 940,-168.5"/>
<text text-anchor="middle" x="971.5" y="-175.5" font-family="Helvetica,sans-Serif" font-size="10.00" fill="#000000">GPUDef.h</text>
</a>
</g>
</g>
<!-- Node9&#45;&gt;Node10 -->
<g id="edge10" class="edge">
<title>Node9&#45;&gt;Node10</title>
<path fill="none" stroke="#191970" d="M971.5,-224.2455C971.5,-216.9382 971.5,-206.6944 971.5,-197.7046"/>
<polygon fill="#191970" stroke="#191970" points="975.0001,-197.6426 971.5,-187.6427 968.0001,-197.6427 975.0001,-197.6426"/>
</g>
<!-- Node11 -->
<g id="node12" class="node">
<title>Node11</title>
<g id="a_node12"><a xlink:href="../../df/d21/GPUCommonDef_8h.html" target="_top" xlink:title="GPUCommonDef.h">
<polygon fill="none" stroke="#000000" points="687,-56.5 687,-75.5 794,-75.5 794,-56.5 687,-56.5"/>
<text text-anchor="middle" x="740.5" y="-63.5" font-family="Helvetica,sans-Serif" font-size="10.00" fill="#000000">GPUCommonDef.h</text>
</a>
</g>
</g>
<!-- Node10&#45;&gt;Node11 -->
<g id="edge11" class="edge">
<title>Node10&#45;&gt;Node11</title>
<path fill="none" stroke="#191970" d="M939.9467,-174.8802C872.2021,-167.8642 717.717,-150.04 702.5,-132 689.578,-116.6807 705.2805,-96.364 720.2405,-82.3385"/>
<polygon fill="#191970" stroke="#191970" points="722.6545,-84.8763 727.8404,-75.6374 718.025,-79.6258 722.6545,-84.8763"/>
</g>
<!-- Node14 -->
<g id="node15" class="node">
<title>Node14</title>
<g id="a_node15"><a xlink:href="../../d2/d37/GPUDefConstantsAndSettings_8h.html" target="_top" xlink:title="GPUDefConstantsAndSettings.h">
<polygon fill="none" stroke="#000000" points="712,-112.5 712,-131.5 883,-131.5 883,-112.5 712,-112.5"/>
<text text-anchor="middle" x="797.5" y="-119.5" font-family="Helvetica,sans-Serif" font-size="10.00" fill="#000000">GPUDefConstantsAndSettings.h</text>
</a>
</g>
</g>
<!-- Node10&#45;&gt;Node14 -->
<g id="edge14" class="edge">
<title>Node10&#45;&gt;Node14</title>
<path fill="none" stroke="#191970" d="M941.5883,-168.3733C912.6548,-159.0613 868.6389,-144.8953 836.8707,-134.671"/>
<polygon fill="#191970" stroke="#191970" points="837.6128,-131.2331 827.0213,-131.5011 835.4682,-137.8965 837.6128,-131.2331"/>
</g>
<!-- Node15 -->
<g id="node16" class="node">
<title>Node15</title>
<g id="a_node16"><a xlink:href="../../dc/de9/GPUDefGPUParameters_8h.html" target="_top" xlink:title="GPUDefGPUParameters.h">
<polygon fill="none" stroke="#000000" points="901.5,-112.5 901.5,-131.5 1041.5,-131.5 1041.5,-112.5 901.5,-112.5"/>
<text text-anchor="middle" x="971.5" y="-119.5" font-family="Helvetica,sans-Serif" font-size="10.00" fill="#000000">GPUDefGPUParameters.h</text>
</a>
</g>
</g>
<!-- Node10&#45;&gt;Node15 -->
<g id="edge16" class="edge">
<title>Node10&#45;&gt;Node15</title>
<path fill="none" stroke="#191970" d="M971.5,-168.2455C971.5,-160.9382 971.5,-150.6944 971.5,-141.7046"/>
<polygon fill="#191970" stroke="#191970" points="975.0001,-141.6426 971.5,-131.6427 968.0001,-141.6427 975.0001,-141.6426"/>
</g>
<!-- Node17 -->
<g id="node18" class="node">
<title>Node17</title>
<g id="a_node18"><a xlink:href="../../d3/d4c/GPUDefOpenCL12Templates_8h.html" target="_top" xlink:title="GPUDefOpenCL12Templates.h">
<polygon fill="none" stroke="#000000" points="1059.5,-112.5 1059.5,-131.5 1223.5,-131.5 1223.5,-112.5 1059.5,-112.5"/>
<text text-anchor="middle" x="1141.5" y="-119.5" font-family="Helvetica,sans-Serif" font-size="10.00" fill="#000000">GPUDefOpenCL12Templates.h</text>
</a>
</g>
</g>
<!-- Node10&#45;&gt;Node17 -->
<g id="edge18" class="edge">
<title>Node10&#45;&gt;Node17</title>
<path fill="none" stroke="#191970" d="M1000.724,-168.3733C1028.9925,-159.0613 1071.9965,-144.8953 1103.0344,-134.671"/>
<polygon fill="#191970" stroke="#191970" points="1104.2544,-137.9542 1112.6573,-131.5011 1102.0643,-131.3056 1104.2544,-137.9542"/>
</g>
<!-- Node18 -->
<g id="node19" class="node">
<title>Node18</title>
<g id="a_node19"><a xlink:href="../../d2/d45/GPUCommonRtypes_8h.html" target="_top" xlink:title="GPUCommonRtypes.h">
<polygon fill="none" stroke="#000000" points="1242,-112.5 1242,-131.5 1367,-131.5 1367,-112.5 1242,-112.5"/>
<text text-anchor="middle" x="1304.5" y="-119.5" font-family="Helvetica,sans-Serif" font-size="10.00" fill="#000000">GPUCommonRtypes.h</text>
</a>
</g>
</g>
<!-- Node10&#45;&gt;Node18 -->
<g id="edge19" class="edge">
<title>Node10&#45;&gt;Node18</title>
<path fill="none" stroke="#191970" d="M1003.128,-172.6812C1056.6675,-163.6775 1166.2672,-145.2464 1237.4979,-133.2676"/>
<polygon fill="#191970" stroke="#191970" points="1238.4367,-136.659 1247.7177,-131.549 1237.2758,-129.7559 1238.4367,-136.659"/>
</g>
<!-- Node12 -->
<g id="node13" class="node">
<title>Node12</title>
<g id="a_node13"><a xlink:href="../../d5/d93/GPUCommonDefSettings_8h.html" target="_top" xlink:title="GPUCommonDefSettings.h">
<polygon fill="none" stroke="#000000" points="589.5,-.5 589.5,-19.5 737.5,-19.5 737.5,-.5 589.5,-.5"/>
<text text-anchor="middle" x="663.5" y="-7.5" font-family="Helvetica,sans-Serif" font-size="10.00" fill="#000000">GPUCommonDefSettings.h</text>
</a>
</g>
</g>
<!-- Node11&#45;&gt;Node12 -->
<g id="edge12" class="edge">
<title>Node11&#45;&gt;Node12</title>
<path fill="none" stroke="#191970" d="M727.0876,-56.2455C715.4943,-47.814 698.5252,-35.4729 685.0322,-25.6598"/>
<polygon fill="#191970" stroke="#191970" points="686.9047,-22.6938 676.7587,-19.6427 682.7874,-28.355 686.9047,-22.6938"/>
</g>
<!-- Node13 -->
<g id="node14" class="node">
<title>Node13</title>
<g id="a_node14"><a xlink:href="../../da/d5a/GPUCommonDefAPI_8h.html" target="_top" xlink:title="GPUCommonDefAPI.h">
<polygon fill="none" stroke="#000000" points="755.5,-.5 755.5,-19.5 879.5,-19.5 879.5,-.5 755.5,-.5"/>
<text text-anchor="middle" x="817.5" y="-7.5" font-family="Helvetica,sans-Serif" font-size="10.00" fill="#000000">GPUCommonDefAPI.h</text>
</a>
</g>
</g>
<!-- Node11&#45;&gt;Node13 -->
<g id="edge13" class="edge">
<title>Node11&#45;&gt;Node13</title>
<path fill="none" stroke="#191970" d="M753.9124,-56.2455C765.5057,-47.814 782.4748,-35.4729 795.9678,-25.6598"/>
<polygon fill="#191970" stroke="#191970" points="798.2126,-28.355 804.2413,-19.6427 794.0953,-22.6938 798.2126,-28.355"/>
</g>
<!-- Node14&#45;&gt;Node11 -->
<g id="edge15" class="edge">
<title>Node14&#45;&gt;Node11</title>
<path fill="none" stroke="#191970" d="M787.5714,-112.2455C779.3162,-104.1352 767.3791,-92.4075 757.5918,-82.7919"/>
<polygon fill="#191970" stroke="#191970" points="759.9011,-80.1542 750.3149,-75.6427 754.9954,-85.1476 759.9011,-80.1542"/>
</g>
<!-- Node16 -->
<g id="node17" class="node">
<title>Node16</title>
<g id="a_node17"><a xlink:href="../../d6/dff/GPUDefMacros_8h.html" target="_top" xlink:title="GPUDefMacros.h">
<polygon fill="none" stroke="#000000" points="922.5,-56.5 922.5,-75.5 1020.5,-75.5 1020.5,-56.5 922.5,-56.5"/>
<text text-anchor="middle" x="971.5" y="-63.5" font-family="Helvetica,sans-Serif" font-size="10.00" fill="#000000">GPUDefMacros.h</text>
</a>
</g>
</g>
<!-- Node15&#45;&gt;Node16 -->
<g id="edge17" class="edge">
<title>Node15&#45;&gt;Node16</title>
<path fill="none" stroke="#191970" d="M971.5,-112.2455C971.5,-104.9382 971.5,-94.6944 971.5,-85.7046"/>
<polygon fill="#191970" stroke="#191970" points="975.0001,-85.6426 971.5,-75.6427 968.0001,-85.6427 975.0001,-85.6426"/>
</g>
<!-- Node19 -->
<g id="node20" class="node">
<title>Node19</title>
<polygon fill="none" stroke="#bfbfbf" points="1275,-56.5 1275,-75.5 1334,-75.5 1334,-56.5 1275,-56.5"/>
<text text-anchor="middle" x="1304.5" y="-63.5" font-family="Helvetica,sans-Serif" font-size="10.00" fill="#000000">Rtypes.h</text>
</g>
<!-- Node18&#45;&gt;Node19 -->
<g id="edge20" class="edge">
<title>Node18&#45;&gt;Node19</title>
<path fill="none" stroke="#191970" d="M1304.5,-112.2455C1304.5,-104.9382 1304.5,-94.6944 1304.5,-85.7046"/>
<polygon fill="#191970" stroke="#191970" points="1308.0001,-85.6426 1304.5,-75.6427 1301.0001,-85.6427 1308.0001,-85.6426"/>
</g>
</g>
</svg>
        <g id="navigator" transform="translate(0 0)" fill="#404254">
                <rect fill="#f2f5e9" fill-opacity="0.5" stroke="#606060" stroke-width=".5" x="0" y="0" width="60" height="60"/>
                <use id="zoomplus" xlink:href="#zoomPlus" x="17" y="9" onmousedown="handleZoom(evt,'in')"/>
                <use id="zoomminus" xlink:href="#zoomMin" x="42" y="9" onmousedown="handleZoom(evt,'out')"/>
                <use id="reset" xlink:href="#resetDef" x="30" y="36" onmousedown="handleReset()"/>
                <g id="arrowUp" xlink:href="#dirArrow" transform="translate(30 24)" onmousedown="handlePan(0,-1)">
                  <use xlink:href="#rim" fill="#404040">
                        <set attributeName="fill" to="#808080" begin="arrowUp.mouseover" end="arrowUp.mouseout"/>
                  </use>
                  <path fill="none" stroke="white" stroke-width="1.5" d="M0,-3.0v7 M-2.5,-0.5L0,-3.0L2.5,-0.5"/>
                </g>
                <g id="arrowRight" xlink:href="#dirArrow" transform="rotate(90) translate(36 -43)" onmousedown="handlePan(1,0)">
                  <use xlink:href="#rim" fill="#404040">
                        <set attributeName="fill" to="#808080" begin="arrowRight.mouseover" end="arrowRight.mouseout"/>
                  </use>
                  <path fill="none" stroke="white" stroke-width="1.5" d="M0,-3.0v7 M-2.5,-0.5L0,-3.0L2.5,-0.5"/>
                </g>
                <g id="arrowDown" xlink:href="#dirArrow" transform="rotate(180) translate(-30 -48)" onmousedown="handlePan(0,1)">
                  <use xlink:href="#rim" fill="#404040">
                        <set attributeName="fill" to="#808080" begin="arrowDown.mouseover" end="arrowDown.mouseout"/>
                  </use>
                  <path fill="none" stroke="white" stroke-width="1.5" d="M0,-3.0v7 M-2.5,-0.5L0,-3.0L2.5,-0.5"/>
                </g>
                <g id="arrowLeft" xlink:href="#dirArrow" transform="rotate(270) translate(-36 17)" onmousedown="handlePan(-1,0)">
                  <use xlink:href="#rim" fill="#404040">
                        <set attributeName="fill" to="#808080" begin="arrowLeft.mouseover" end="arrowLeft.mouseout"/>
                  </use>
                  <path fill="none" stroke="white" stroke-width="1.5" d="M0,-3.0v7 M-2.5,-0.5L0,-3.0L2.5,-0.5"/>
                </g>
        </g>
        <svg viewBox="0 0 15 15" width="100%" height="30px" preserveAspectRatio="xMaxYMin meet">
         <g id="arrow_out" transform="scale(0.3 0.3)">
          <a xlink:href="GPUTRDTrackletReaderComponent_8cxx__incl_org.svg" target="_base">
           <rect id="button" ry="5" rx="5" y="6" x="6" height="38" width="38"
                fill="#f2f5e9" fill-opacity="0.5" stroke="#606060" stroke-width="1.0"/>
           <path id="arrow"
             d="M 11.500037,31.436501 C 11.940474,20.09759 22.043105,11.32322 32.158766,21.979434 L 37.068811,17.246167 C 37.068811,17.246167 37.088388,32 37.088388,32 L 22.160133,31.978069 C 22.160133,31.978069 26.997745,27.140456 26.997745,27.140456 C 18.528582,18.264221 13.291696,25.230495 11.500037,31.436501 z"
             style="fill:#404040;"/>
          </a>
         </g>
        </svg>
</svg>
