<?xml version="1.0" encoding="UTF-8" standalone="no"?>
<!DOCTYPE svg PUBLIC "-//W3C//DTD SVG 1.1//EN"
 "http://www.w3.org/Graphics/SVG/1.1/DTD/svg11.dtd">
<!-- Generated by graphviz version 2.40.1 (20161225.0304)
 -->
<!-- Title: /home/travis/build/AliceO2Group/AliceO2/GPU/GPUTracking/TPCClusterFinder/GPUTPCClusterFinder.h Pages: 1 -->
<svg width="1001pt" height="397pt"
 viewBox="0.00 0.00 1000.50 397.00" xmlns="http://www.w3.org/2000/svg" xmlns:xlink="http://www.w3.org/1999/xlink">
<g id="graph0" class="graph" transform="scale(1 1) rotate(0) translate(4 393)">
<title>/home/travis/build/AliceO2Group/AliceO2/GPU/GPUTracking/TPCClusterFinder/GPUTPCClusterFinder.h</title>
<!-- Node0 -->
<g id="node1" class="node">
<title>Node0</title>
<polygon fill="#bfbfbf" stroke="#000000" points="189.5,-336.5 189.5,-388.5 380.5,-388.5 380.5,-336.5 189.5,-336.5"/>
<text text-anchor="start" x="197.5" y="-376.5" font-family="Helvetica,sans-Serif" font-size="10.00" fill="#000000">/home/travis/build</text>
<text text-anchor="start" x="197.5" y="-365.5" font-family="Helvetica,sans-Serif" font-size="10.00" fill="#000000">/AliceO2Group/AliceO2</text>
<text text-anchor="start" x="197.5" y="-354.5" font-family="Helvetica,sans-Serif" font-size="10.00" fill="#000000">/GPU/GPUTracking/TPCClusterFinder</text>
<text text-anchor="middle" x="285" y="-343.5" font-family="Helvetica,sans-Serif" font-size="10.00" fill="#000000">/GPUTPCClusterFinder.h</text>
</g>
<!-- Node1 -->
<g id="node2" class="node">
<title>Node1</title>
<g id="a_node2"><a xlink:href="../../d2/d6d/GPUDef_8h.html" target="_top" xlink:title="GPUDef.h">
<polygon fill="none" stroke="#000000" points="467.5,-168.5 467.5,-187.5 530.5,-187.5 530.5,-168.5 467.5,-168.5"/>
<text text-anchor="middle" x="499" y="-175.5" font-family="Helvetica,sans-Serif" font-size="10.00" fill="#000000">GPUDef.h</text>
</a>
</g>
</g>
<!-- Node0&#45;&gt;Node1 -->
<g id="edge1" class="edge">
<title>Node0&#45;&gt;Node1</title>
<path fill="none" stroke="#191970" d="M380.5811,-338.815C404.7861,-329.5657 429.4379,-316.9734 449,-300 479.7104,-273.3537 491.8753,-224.9505 496.4455,-197.8106"/>
<polygon fill="#191970" stroke="#191970" points="499.9539,-198.0141 497.9711,-187.6065 493.0309,-196.979 499.9539,-198.0141"/>
</g>
<!-- Node11 -->
<g id="node12" class="node">
<title>Node11</title>
<g id="a_node12"><a xlink:href="../../d6/d57/GPUProcessor_8h.html" target="_top" xlink:title="GPUProcessor.h">
<polygon fill="none" stroke="#000000" points="116.5,-224.5 116.5,-243.5 209.5,-243.5 209.5,-224.5 116.5,-224.5"/>
<text text-anchor="middle" x="163" y="-231.5" font-family="Helvetica,sans-Serif" font-size="10.00" fill="#000000">GPUProcessor.h</text>
</a>
</g>
</g>
<!-- Node0&#45;&gt;Node11 -->
<g id="edge12" class="edge">
<title>Node0&#45;&gt;Node11</title>
<path fill="none" stroke="#191970" d="M257.4526,-336.4907C245.9833,-325.434 232.6513,-312.2805 221,-300 205.842,-284.0234 189.3339,-265.0756 177.8196,-251.5893"/>
<polygon fill="#191970" stroke="#191970" points="180.1786,-248.96 171.0386,-243.6017 174.8422,-253.4902 180.1786,-248.96"/>
</g>
<!-- Node14 -->
<g id="node15" class="node">
<title>Node14</title>
<g id="a_node15"><a xlink:href="../../d4/dc5/GPUDataTypes_8h.html" target="_top" xlink:title="GPUDataTypes.h">
<polygon fill="none" stroke="#000000" points="0,-224.5 0,-243.5 98,-243.5 98,-224.5 0,-224.5"/>
<text text-anchor="middle" x="49" y="-231.5" font-family="Helvetica,sans-Serif" font-size="10.00" fill="#000000">GPUDataTypes.h</text>
</a>
</g>
</g>
<!-- Node0&#45;&gt;Node14 -->
<g id="edge17" class="edge">
<title>Node0&#45;&gt;Node14</title>
<path fill="none" stroke="#191970" d="M237.2419,-336.4961C188.5693,-309.9943 114.8278,-269.8427 75.6523,-248.512"/>
<polygon fill="#191970" stroke="#191970" points="76.9297,-245.2223 66.4735,-243.5142 73.5823,-251.3701 76.9297,-245.2223"/>
</g>
<!-- Node15 -->
<g id="node16" class="node">
<title>Node15</title>
<g id="a_node16"><a xlink:href="../../d8/dcc/CfFragment_8h.html" target="_top" xlink:title="CfFragment.h">
<polygon fill="none" stroke="#000000" points="358,-280.5 358,-299.5 440,-299.5 440,-280.5 358,-280.5"/>
<text text-anchor="middle" x="399" y="-287.5" font-family="Helvetica,sans-Serif" font-size="10.00" fill="#000000">CfFragment.h</text>
</a>
</g>
</g>
<!-- Node0&#45;&gt;Node15 -->
<g id="edge20" class="edge">
<title>Node0&#45;&gt;Node15</title>
<path fill="none" stroke="#191970" d="M326.1566,-336.3258C342.6889,-325.8119 361.1527,-314.0696 375.3545,-305.0377"/>
<polygon fill="#191970" stroke="#191970" points="377.4487,-307.8538 384.0086,-299.534 373.6922,-301.9471 377.4487,-307.8538"/>
</g>
<!-- Node19 -->
<g id="node20" class="node">
<title>Node19</title>
<g id="a_node20"><a xlink:href="../../d7/dbd/TPCCFCalibration_8h.html" target="_top" xlink:title="TPCCFCalibration.h">
<polygon fill="none" stroke="#000000" points="230,-280.5 230,-299.5 340,-299.5 340,-280.5 230,-280.5"/>
<text text-anchor="middle" x="285" y="-287.5" font-family="Helvetica,sans-Serif" font-size="10.00" fill="#000000">TPCCFCalibration.h</text>
</a>
</g>
</g>
<!-- Node0&#45;&gt;Node19 -->
<g id="edge27" class="edge">
<title>Node0&#45;&gt;Node19</title>
<path fill="none" stroke="#191970" d="M285,-336.3258C285,-327.5142 285,-317.8397 285,-309.621"/>
<polygon fill="#191970" stroke="#191970" points="288.5001,-309.534 285,-299.534 281.5001,-309.534 288.5001,-309.534"/>
</g>
<!-- Node2 -->
<g id="node3" class="node">
<title>Node2</title>
<g id="a_node3"><a xlink:href="../../df/d21/GPUCommonDef_8h.html" target="_top" xlink:title="GPUCommonDef.h">
<polygon fill="none" stroke="#000000" points="217.5,-56.5 217.5,-75.5 324.5,-75.5 324.5,-56.5 217.5,-56.5"/>
<text text-anchor="middle" x="271" y="-63.5" font-family="Helvetica,sans-Serif" font-size="10.00" fill="#000000">GPUCommonDef.h</text>
</a>
</g>
</g>
<!-- Node1&#45;&gt;Node2 -->
<g id="edge2" class="edge">
<title>Node1&#45;&gt;Node2</title>
<path fill="none" stroke="#191970" d="M498.9602,-168.3556C498.3511,-153.9189 494.9869,-126.8071 479,-112 458.2252,-92.7583 387.8808,-80.0771 334.7018,-72.9926"/>
<polygon fill="#191970" stroke="#191970" points="335.0181,-69.5045 324.6516,-71.6924 334.1198,-76.4466 335.0181,-69.5045"/>
</g>
<!-- Node5 -->
<g id="node6" class="node">
<title>Node5</title>
<g id="a_node6"><a xlink:href="../../d2/d37/GPUDefConstantsAndSettings_8h.html" target="_top" xlink:title="GPUDefConstantsAndSettings.h">
<polygon fill="none" stroke="#000000" points="299.5,-112.5 299.5,-131.5 470.5,-131.5 470.5,-112.5 299.5,-112.5"/>
<text text-anchor="middle" x="385" y="-119.5" font-family="Helvetica,sans-Serif" font-size="10.00" fill="#000000">GPUDefConstantsAndSettings.h</text>
</a>
</g>
</g>
<!-- Node1&#45;&gt;Node5 -->
<g id="edge5" class="edge">
<title>Node1&#45;&gt;Node5</title>
<path fill="none" stroke="#191970" d="M479.4027,-168.3733C461.2669,-159.4644 434.0865,-146.1127 413.5413,-136.0203"/>
<polygon fill="#191970" stroke="#191970" points="414.8603,-132.7688 404.3416,-131.5011 411.7739,-139.0517 414.8603,-132.7688"/>
</g>
<!-- Node6 -->
<g id="node7" class="node">
<title>Node6</title>
<g id="a_node7"><a xlink:href="../../dc/de9/GPUDefGPUParameters_8h.html" target="_top" xlink:title="GPUDefGPUParameters.h">
<polygon fill="none" stroke="#000000" points="527,-112.5 527,-131.5 667,-131.5 667,-112.5 527,-112.5"/>
<text text-anchor="middle" x="597" y="-119.5" font-family="Helvetica,sans-Serif" font-size="10.00" fill="#000000">GPUDefGPUParameters.h</text>
</a>
</g>
</g>
<!-- Node1&#45;&gt;Node6 -->
<g id="edge7" class="edge">
<title>Node1&#45;&gt;Node6</title>
<path fill="none" stroke="#191970" d="M516.0703,-168.2455C531.247,-159.5731 553.6621,-146.7645 571.0563,-136.825"/>
<polygon fill="#191970" stroke="#191970" points="573.1794,-139.643 580.1253,-131.6427 569.7064,-133.5653 573.1794,-139.643"/>
</g>
<!-- Node8 -->
<g id="node9" class="node">
<title>Node8</title>
<g id="a_node9"><a xlink:href="../../d3/d4c/GPUDefOpenCL12Templates_8h.html" target="_top" xlink:title="GPUDefOpenCL12Templates.h">
<polygon fill="none" stroke="#000000" points="685,-112.5 685,-131.5 849,-131.5 849,-112.5 685,-112.5"/>
<text text-anchor="middle" x="767" y="-119.5" font-family="Helvetica,sans-Serif" font-size="10.00" fill="#000000">GPUDefOpenCL12Templates.h</text>
</a>
</g>
</g>
<!-- Node1&#45;&gt;Node8 -->
<g id="edge9" class="edge">
<title>Node1&#45;&gt;Node8</title>
<path fill="none" stroke="#191970" d="M530.5311,-171.4114C574.9494,-162.13 656.6281,-145.0628 711.3817,-133.6217"/>
<polygon fill="#191970" stroke="#191970" points="712.2043,-137.0255 721.277,-131.5541 710.7725,-130.1735 712.2043,-137.0255"/>
</g>
<!-- Node9 -->
<g id="node10" class="node">
<title>Node9</title>
<g id="a_node10"><a xlink:href="../../d2/d45/GPUCommonRtypes_8h.html" target="_top" xlink:title="GPUCommonRtypes.h">
<polygon fill="none" stroke="#000000" points="867.5,-112.5 867.5,-131.5 992.5,-131.5 992.5,-112.5 867.5,-112.5"/>
<text text-anchor="middle" x="930" y="-119.5" font-family="Helvetica,sans-Serif" font-size="10.00" fill="#000000">GPUCommonRtypes.h</text>
</a>
</g>
</g>
<!-- Node1&#45;&gt;Node9 -->
<g id="edge10" class="edge">
<title>Node1&#45;&gt;Node9</title>
<path fill="none" stroke="#191970" d="M530.71,-174.0511C591.7173,-166.4292 729.9172,-149.0441 857.2486,-132.0893"/>
<polygon fill="#191970" stroke="#191970" points="857.7272,-135.5566 867.1767,-130.7653 856.8018,-128.618 857.7272,-135.5566"/>
</g>
<!-- Node3 -->
<g id="node4" class="node">
<title>Node3</title>
<g id="a_node4"><a xlink:href="../../d5/d93/GPUCommonDefSettings_8h.html" target="_top" xlink:title="GPUCommonDefSettings.h">
<polygon fill="none" stroke="#000000" points="120,-.5 120,-19.5 268,-19.5 268,-.5 120,-.5"/>
<text text-anchor="middle" x="194" y="-7.5" font-family="Helvetica,sans-Serif" font-size="10.00" fill="#000000">GPUCommonDefSettings.h</text>
</a>
</g>
</g>
<!-- Node2&#45;&gt;Node3 -->
<g id="edge3" class="edge">
<title>Node2&#45;&gt;Node3</title>
<path fill="none" stroke="#191970" d="M257.5876,-56.2455C245.9943,-47.814 229.0252,-35.4729 215.5322,-25.6598"/>
<polygon fill="#191970" stroke="#191970" points="217.4047,-22.6938 207.2587,-19.6427 213.2874,-28.355 217.4047,-22.6938"/>
</g>
<!-- Node4 -->
<g id="node5" class="node">
<title>Node4</title>
<g id="a_node5"><a xlink:href="../../da/d5a/GPUCommonDefAPI_8h.html" target="_top" xlink:title="GPUCommonDefAPI.h">
<polygon fill="none" stroke="#000000" points="286,-.5 286,-19.5 410,-19.5 410,-.5 286,-.5"/>
<text text-anchor="middle" x="348" y="-7.5" font-family="Helvetica,sans-Serif" font-size="10.00" fill="#000000">GPUCommonDefAPI.h</text>
</a>
</g>
</g>
<!-- Node2&#45;&gt;Node4 -->
<g id="edge4" class="edge">
<title>Node2&#45;&gt;Node4</title>
<path fill="none" stroke="#191970" d="M284.4124,-56.2455C296.0057,-47.814 312.9748,-35.4729 326.4678,-25.6598"/>
<polygon fill="#191970" stroke="#191970" points="328.7126,-28.355 334.7413,-19.6427 324.5953,-22.6938 328.7126,-28.355"/>
</g>
<!-- Node5&#45;&gt;Node2 -->
<g id="edge6" class="edge">
<title>Node5&#45;&gt;Node2</title>
<path fill="none" stroke="#191970" d="M365.4027,-112.3733C347.2669,-103.4644 320.0865,-90.1127 299.5413,-80.0203"/>
<polygon fill="#191970" stroke="#191970" points="300.8603,-76.7688 290.3416,-75.5011 297.7739,-83.0517 300.8603,-76.7688"/>
</g>
<!-- Node7 -->
<g id="node8" class="node">
<title>Node7</title>
<g id="a_node8"><a xlink:href="../../d6/dff/GPUDefMacros_8h.html" target="_top" xlink:title="GPUDefMacros.h">
<polygon fill="none" stroke="#000000" points="548,-56.5 548,-75.5 646,-75.5 646,-56.5 548,-56.5"/>
<text text-anchor="middle" x="597" y="-63.5" font-family="Helvetica,sans-Serif" font-size="10.00" fill="#000000">GPUDefMacros.h</text>
</a>
</g>
</g>
<!-- Node6&#45;&gt;Node7 -->
<g id="edge8" class="edge">
<title>Node6&#45;&gt;Node7</title>
<path fill="none" stroke="#191970" d="M597,-112.2455C597,-104.9382 597,-94.6944 597,-85.7046"/>
<polygon fill="#191970" stroke="#191970" points="600.5001,-85.6426 597,-75.6427 593.5001,-85.6427 600.5001,-85.6426"/>
</g>
<!-- Node10 -->
<g id="node11" class="node">
<title>Node10</title>
<polygon fill="none" stroke="#bfbfbf" points="900.5,-56.5 900.5,-75.5 959.5,-75.5 959.5,-56.5 900.5,-56.5"/>
<text text-anchor="middle" x="930" y="-63.5" font-family="Helvetica,sans-Serif" font-size="10.00" fill="#000000">Rtypes.h</text>
</g>
<!-- Node9&#45;&gt;Node10 -->
<g id="edge11" class="edge">
<title>Node9&#45;&gt;Node10</title>
<path fill="none" stroke="#191970" d="M930,-112.2455C930,-104.9382 930,-94.6944 930,-85.7046"/>
<polygon fill="#191970" stroke="#191970" points="933.5001,-85.6426 930,-75.6427 926.5001,-85.6427 933.5001,-85.6426"/>
</g>
<!-- Node11&#45;&gt;Node1 -->
<g id="edge14" class="edge">
<title>Node11&#45;&gt;Node1</title>
<path fill="none" stroke="#191970" d="M209.5006,-225.486C212.3757,-224.978 215.2266,-224.4791 218,-224 302.8907,-209.3355 402.421,-193.3198 457.321,-184.5881"/>
<polygon fill="#191970" stroke="#191970" points="458.0366,-188.0184 467.3637,-182.9929 456.9385,-181.1051 458.0366,-188.0184"/>
</g>
<!-- Node11&#45;&gt;Node2 -->
<g id="edge13" class="edge">
<title>Node11&#45;&gt;Node2</title>
<path fill="none" stroke="#191970" d="M162.8776,-224.0522C163.097,-210.6297 164.8739,-186.295 174,-168 191.9909,-131.9339 227.0618,-100.0027 249.7374,-81.8483"/>
<polygon fill="#191970" stroke="#191970" points="252.0313,-84.4978 257.7597,-75.5851 247.7235,-78.9802 252.0313,-84.4978"/>
</g>
<!-- Node12 -->
<g id="node13" class="node">
<title>Node12</title>
<polygon fill="none" stroke="#bfbfbf" points="73.5,-168.5 73.5,-187.5 126.5,-187.5 126.5,-168.5 73.5,-168.5"/>
<text text-anchor="middle" x="100" y="-175.5" font-family="Helvetica,sans-Serif" font-size="10.00" fill="#000000">cstddef</text>
</g>
<!-- Node11&#45;&gt;Node12 -->
<g id="edge15" class="edge">
<title>Node11&#45;&gt;Node12</title>
<path fill="none" stroke="#191970" d="M152.0262,-224.2455C142.8118,-216.0549 129.4468,-204.1749 118.5703,-194.5069"/>
<polygon fill="#191970" stroke="#191970" points="120.6474,-191.6704 110.848,-187.6427 115.9968,-196.9023 120.6474,-191.6704"/>
</g>
<!-- Node13 -->
<g id="node14" class="node">
<title>Node13</title>
<polygon fill="none" stroke="#bfbfbf" points="183,-168.5 183,-187.5 247,-187.5 247,-168.5 183,-168.5"/>
<text text-anchor="middle" x="215" y="-175.5" font-family="Helvetica,sans-Serif" font-size="10.00" fill="#000000">algorithm</text>
</g>
<!-- Node11&#45;&gt;Node13 -->
<g id="edge16" class="edge">
<title>Node11&#45;&gt;Node13</title>
<path fill="none" stroke="#191970" d="M172.0577,-224.2455C179.5142,-216.2155 190.2634,-204.6394 199.1417,-195.0781"/>
<polygon fill="#191970" stroke="#191970" points="201.8063,-197.3522 206.0461,-187.6427 196.6768,-192.589 201.8063,-197.3522"/>
</g>
<!-- Node14&#45;&gt;Node2 -->
<g id="edge18" class="edge">
<title>Node14&#45;&gt;Node2</title>
<path fill="none" stroke="#191970" d="M48.7161,-224.3927C48.8032,-210.4868 50.8951,-184.6019 64,-168 102.4698,-119.2646 170.2238,-92.1547 217.7075,-78.3477"/>
<polygon fill="#191970" stroke="#191970" points="218.8294,-81.6683 227.5146,-75.6004 216.9411,-74.9278 218.8294,-81.6683"/>
</g>
<!-- Node14&#45;&gt;Node12 -->
<g id="edge19" class="edge">
<title>Node14&#45;&gt;Node12</title>
<path fill="none" stroke="#191970" d="M57.8835,-224.2455C65.1966,-216.2155 75.7391,-204.6394 84.4467,-195.0781"/>
<polygon fill="#191970" stroke="#191970" points="87.0727,-197.3928 91.2183,-187.6427 81.8972,-192.6795 87.0727,-197.3928"/>
</g>
<!-- Node16 -->
<g id="node17" class="node">
<title>Node16</title>
<g id="a_node17"><a xlink:href="../../d9/db0/clusterFinderDefs_8h.html" target="_top" xlink:title="clusterFinderDefs.h">
<polygon fill="none" stroke="#000000" points="361,-224.5 361,-243.5 471,-243.5 471,-224.5 361,-224.5"/>
<text text-anchor="middle" x="416" y="-231.5" font-family="Helvetica,sans-Serif" font-size="10.00" fill="#000000">clusterFinderDefs.h</text>
</a>
</g>
</g>
<!-- Node15&#45;&gt;Node16 -->
<g id="edge21" class="edge">
<title>Node15&#45;&gt;Node16</title>
<path fill="none" stroke="#191970" d="M401.9612,-280.2455C404.2038,-272.8579 407.3577,-262.4689 410.1081,-253.4087"/>
<polygon fill="#191970" stroke="#191970" points="413.517,-254.2282 413.0728,-243.6427 406.8188,-252.1948 413.517,-254.2282"/>
</g>
<!-- Node17 -->
<g id="node18" class="node">
<title>Node17</title>
<g id="a_node18"><a xlink:href="../../d6/da2/GPUCommonMath_8h.html" target="_top" xlink:title="GPUCommonMath.h">
<polygon fill="none" stroke="#000000" points="227.5,-224.5 227.5,-243.5 342.5,-243.5 342.5,-224.5 227.5,-224.5"/>
<text text-anchor="middle" x="285" y="-231.5" font-family="Helvetica,sans-Serif" font-size="10.00" fill="#000000">GPUCommonMath.h</text>
</a>
</g>
</g>
<!-- Node15&#45;&gt;Node17 -->
<g id="edge23" class="edge">
<title>Node15&#45;&gt;Node17</title>
<path fill="none" stroke="#191970" d="M379.4027,-280.3733C361.2669,-271.4644 334.0865,-258.1127 313.5413,-248.0203"/>
<polygon fill="#191970" stroke="#191970" points="314.8603,-244.7688 304.3416,-243.5011 311.7739,-251.0517 314.8603,-244.7688"/>
</g>
<!-- Node16&#45;&gt;Node1 -->
<g id="edge22" class="edge">
<title>Node16&#45;&gt;Node1</title>
<path fill="none" stroke="#191970" d="M430.4575,-224.2455C443.0732,-215.7337 461.5944,-203.2375 476.2045,-193.3801"/>
<polygon fill="#191970" stroke="#191970" points="478.3761,-196.1371 484.7082,-187.6427 474.4609,-190.3343 478.3761,-196.1371"/>
</g>
<!-- Node17&#45;&gt;Node2 -->
<g id="edge24" class="edge">
<title>Node17&#45;&gt;Node2</title>
<path fill="none" stroke="#191970" d="M284.2072,-224.4862C281.9941,-197.9293 275.7138,-122.5651 272.6805,-86.1655"/>
<polygon fill="#191970" stroke="#191970" points="276.1374,-85.5027 271.819,-75.8279 269.1616,-86.084 276.1374,-85.5027"/>
</g>
<!-- Node17&#45;&gt;Node13 -->
<g id="edge26" class="edge">
<title>Node17&#45;&gt;Node13</title>
<path fill="none" stroke="#191970" d="M272.8069,-224.2455C262.3679,-215.8943 247.1345,-203.7076 234.926,-193.9408"/>
<polygon fill="#191970" stroke="#191970" points="237.0485,-191.1566 227.0533,-187.6427 232.6756,-196.6227 237.0485,-191.1566"/>
</g>
<!-- Node18 -->
<g id="node19" class="node">
<title>Node18</title>
<polygon fill="none" stroke="#bfbfbf" points="303.5,-168.5 303.5,-187.5 350.5,-187.5 350.5,-168.5 303.5,-168.5"/>
<text text-anchor="middle" x="327" y="-175.5" font-family="Helvetica,sans-Serif" font-size="10.00" fill="#000000">cmath</text>
</g>
<!-- Node17&#45;&gt;Node18 -->
<g id="edge25" class="edge">
<title>Node17&#45;&gt;Node18</title>
<path fill="none" stroke="#191970" d="M292.3158,-224.2455C298.2179,-216.3761 306.6742,-205.101 313.7594,-195.6542"/>
<polygon fill="#191970" stroke="#191970" points="316.568,-197.7427 319.768,-187.6427 310.9679,-193.5427 316.568,-197.7427"/>
</g>
<!-- Node19&#45;&gt;Node16 -->
<g id="edge28" class="edge">
<title>Node19&#45;&gt;Node16</title>
<path fill="none" stroke="#191970" d="M307.5197,-280.3733C328.7372,-271.3032 360.7276,-257.6279 384.4769,-247.4755"/>
<polygon fill="#191970" stroke="#191970" points="385.9548,-250.6502 393.7742,-243.5011 383.2033,-244.2136 385.9548,-250.6502"/>
</g>
<!-- Node19&#45;&gt;Node17 -->
<g id="edge29" class="edge">
<title>Node19&#45;&gt;Node17</title>
<path fill="none" stroke="#191970" d="M285,-280.2455C285,-272.9382 285,-262.6944 285,-253.7046"/>
<polygon fill="#191970" stroke="#191970" points="288.5001,-253.6426 285,-243.6427 281.5001,-253.6427 288.5001,-253.6426"/>
</g>
</g>
</svg>
