<?xml version="1.0" encoding="UTF-8" standalone="no"?>
<!DOCTYPE svg PUBLIC "-//W3C//DTD SVG 1.1//EN"
 "http://www.w3.org/Graphics/SVG/1.1/DTD/svg11.dtd">
<!-- Generated by graphviz version 2.40.1 (20161225.0304)
 -->
<!-- Title: cascadeQA Pages: 1 -->
<svg width="787pt" height="959pt"
 viewBox="0.00 0.00 786.98 959.00" xmlns="http://www.w3.org/2000/svg" xmlns:xlink="http://www.w3.org/1999/xlink">
<g id="graph0" class="graph" transform="scale(1 1) rotate(0) translate(4 955)">
<title>cascadeQA</title>
<!-- Node1 -->
<g id="node1" class="node">
<title>Node1</title>
<polygon fill="#bfbfbf" stroke="#000000" points="320.9818,-.5 320.9818,-101.5 442.9818,-101.5 442.9818,-.5 320.9818,-.5"/>
<text text-anchor="middle" x="381.9818" y="-89.5" font-family="Helvetica,sans-Serif" font-size="10.00" fill="#000000">cascadeQA</text>
<polyline fill="none" stroke="#000000" points="320.9818,-82.5 442.9818,-82.5 "/>
<text text-anchor="start" x="328.9818" y="-70.5" font-family="Helvetica,sans-Serif" font-size="10.00" fill="#000000">+ hMassOmegaMinus</text>
<text text-anchor="start" x="328.9818" y="-59.5" font-family="Helvetica,sans-Serif" font-size="10.00" fill="#000000">+ hCascRadius</text>
<text text-anchor="start" x="328.9818" y="-48.5" font-family="Helvetica,sans-Serif" font-size="10.00" fill="#000000">+ hV0CosPA</text>
<text text-anchor="start" x="328.9818" y="-37.5" font-family="Helvetica,sans-Serif" font-size="10.00" fill="#000000">+ hCascCosPA</text>
<text text-anchor="start" x="328.9818" y="-26.5" font-family="Helvetica,sans-Serif" font-size="10.00" fill="#000000">+ hDCACascDau</text>
<polyline fill="none" stroke="#000000" points="320.9818,-19.5 442.9818,-19.5 "/>
<text text-anchor="start" x="328.9818" y="-7.5" font-family="Helvetica,sans-Serif" font-size="10.00" fill="#000000">+ process()</text>
</g>
<!-- Node2 -->
<g id="node2" class="node">
<title>Node2</title>
<g id="a_node2"><a xlink:href="../../d4/d79/structo2_1_1framework_1_1OutputObj.html" target="_top" xlink:title="{o2::framework::OutputObj\l\&lt; TH1F \&gt;\n||+ spec()\l+ OutputObj()\l+ OutputObj()\l+ setObject()\l+ setObject()\l+ setObject()\l+ setObject()\l+ setHash()\l+ operator&#45;\&gt;()\l+ operator*()\l+ ref()\l}">
<polygon fill="none" stroke="#000000" points="310.4818,-259.5 310.4818,-437.5 453.4818,-437.5 453.4818,-259.5 310.4818,-259.5"/>
<text text-anchor="start" x="318.4818" y="-425.5" font-family="Helvetica,sans-Serif" font-size="10.00" fill="#000000">o2::framework::OutputObj</text>
<text text-anchor="middle" x="381.9818" y="-414.5" font-family="Helvetica,sans-Serif" font-size="10.00" fill="#000000">&lt; TH1F &gt;</text>
<polyline fill="none" stroke="#000000" points="310.4818,-407.5 453.4818,-407.5 "/>
<text text-anchor="middle" x="381.9818" y="-395.5" font-family="Helvetica,sans-Serif" font-size="10.00" fill="#000000"> </text>
<polyline fill="none" stroke="#000000" points="310.4818,-388.5 453.4818,-388.5 "/>
<text text-anchor="start" x="318.4818" y="-376.5" font-family="Helvetica,sans-Serif" font-size="10.00" fill="#000000">+ spec()</text>
<text text-anchor="start" x="318.4818" y="-365.5" font-family="Helvetica,sans-Serif" font-size="10.00" fill="#000000">+ OutputObj()</text>
<text text-anchor="start" x="318.4818" y="-354.5" font-family="Helvetica,sans-Serif" font-size="10.00" fill="#000000">+ OutputObj()</text>
<text text-anchor="start" x="318.4818" y="-343.5" font-family="Helvetica,sans-Serif" font-size="10.00" fill="#000000">+ setObject()</text>
<text text-anchor="start" x="318.4818" y="-332.5" font-family="Helvetica,sans-Serif" font-size="10.00" fill="#000000">+ setObject()</text>
<text text-anchor="start" x="318.4818" y="-321.5" font-family="Helvetica,sans-Serif" font-size="10.00" fill="#000000">+ setObject()</text>
<text text-anchor="start" x="318.4818" y="-310.5" font-family="Helvetica,sans-Serif" font-size="10.00" fill="#000000">+ setObject()</text>
<text text-anchor="start" x="318.4818" y="-299.5" font-family="Helvetica,sans-Serif" font-size="10.00" fill="#000000">+ setHash()</text>
<text text-anchor="start" x="318.4818" y="-288.5" font-family="Helvetica,sans-Serif" font-size="10.00" fill="#000000">+ operator&#45;&gt;()</text>
<text text-anchor="start" x="318.4818" y="-277.5" font-family="Helvetica,sans-Serif" font-size="10.00" fill="#000000">+ operator*()</text>
<text text-anchor="start" x="318.4818" y="-266.5" font-family="Helvetica,sans-Serif" font-size="10.00" fill="#000000">+ ref()</text>
</a>
</g>
</g>
<!-- Node2&#45;&gt;Node1 -->
<g id="edge1" class="edge">
<title>Node2&#45;&gt;Node1</title>
<path fill="none" stroke="#404040" d="M381.9818,-259.2402C381.9818,-212.3515 381.9818,-156.0209 381.9818,-113.7768"/>
<polygon fill="none" stroke="#404040" points="381.9819,-113.7012 377.9819,-107.7012 381.9818,-101.7012 385.9819,-107.7012 381.9819,-113.7012"/>
<text text-anchor="middle" x="429.4818" y="-233" font-family="Helvetica,sans-Serif" font-size="10.00" fill="#000000"> +hDCAV0Dau</text>
<text text-anchor="middle" x="429.4818" y="-222" font-family="Helvetica,sans-Serif" font-size="10.00" fill="#000000">+hDCANegToPV</text>
<text text-anchor="middle" x="429.4818" y="-211" font-family="Helvetica,sans-Serif" font-size="10.00" fill="#000000">+hV0Radius</text>
<text text-anchor="middle" x="429.4818" y="-200" font-family="Helvetica,sans-Serif" font-size="10.00" fill="#000000">+hMassXiMinus</text>
<text text-anchor="middle" x="429.4818" y="-189" font-family="Helvetica,sans-Serif" font-size="10.00" fill="#000000">+hMassOmegaPlus</text>
<text text-anchor="middle" x="429.4818" y="-178" font-family="Helvetica,sans-Serif" font-size="10.00" fill="#000000">+hMassXiPlus</text>
<text text-anchor="middle" x="429.4818" y="-167" font-family="Helvetica,sans-Serif" font-size="10.00" fill="#000000">+hLambdaMass</text>
<text text-anchor="middle" x="429.4818" y="-156" font-family="Helvetica,sans-Serif" font-size="10.00" fill="#000000">+hDCABachToPV</text>
<text text-anchor="middle" x="429.4818" y="-145" font-family="Helvetica,sans-Serif" font-size="10.00" fill="#000000">+hDCAPosToPV</text>
<text text-anchor="middle" x="429.4818" y="-134" font-family="Helvetica,sans-Serif" font-size="10.00" fill="#000000">+hDCAV0ToPV</text>
<text text-anchor="middle" x="429.4818" y="-123" font-family="Helvetica,sans-Serif" font-size="10.00" fill="#000000">...</text>
</g>
<!-- Node3 -->
<g id="node3" class="node">
<title>Node3</title>
<polygon fill="none" stroke="#bfbfbf" points="140.4818,-728 140.4818,-785 279.4818,-785 279.4818,-728 140.4818,-728"/>
<text text-anchor="middle" x="209.9818" y="-773" font-family="Helvetica,sans-Serif" font-size="10.00" fill="#000000">OutputObjHandlingPolicy</text>
<polyline fill="none" stroke="#bfbfbf" points="140.4818,-766 279.4818,-766 "/>
<text text-anchor="middle" x="209.9818" y="-754" font-family="Helvetica,sans-Serif" font-size="10.00" fill="#000000"> </text>
<polyline fill="none" stroke="#bfbfbf" points="140.4818,-747 279.4818,-747 "/>
<text text-anchor="middle" x="209.9818" y="-735" font-family="Helvetica,sans-Serif" font-size="10.00" fill="#000000"> </text>
</g>
<!-- Node3&#45;&gt;Node2 -->
<g id="edge2" class="edge">
<title>Node3&#45;&gt;Node2</title>
<path fill="none" stroke="#404040" d="M207.9663,-727.8273C205.5677,-676.3413 206.0617,-566.0426 245.9818,-485 259.2987,-457.9651 280.0849,-433.0539 301.4344,-412.1196"/>
<polygon fill="none" stroke="#404040" points="301.5851,-411.976 303.1696,-404.9411 310.2728,-403.698 308.6882,-410.7329 301.5851,-411.976"/>
<text text-anchor="middle" x="266.4818" y="-566.5" font-family="Helvetica,sans-Serif" font-size="10.00" fill="#000000"> +policy</text>
</g>
<!-- Node11 -->
<g id="node11" class="node">
<title>Node11</title>
<g id="a_node11"><a xlink:href="../../d4/d79/structo2_1_1framework_1_1OutputObj.html" target="_top" xlink:title="{o2::framework::OutputObj\&lt; T \&gt;\n||+ OutputObj()\l+ OutputObj()\l+ setObject()\l+ setObject()\l+ setObject()\l+ setObject()\l+ setHash()\l+ spec()\l+ operator&#45;\&gt;()\l+ operator*()\l+ ref()\l}">
<polygon fill="none" stroke="#000000" points="295.9818,-485.5 295.9818,-652.5 467.9818,-652.5 467.9818,-485.5 295.9818,-485.5"/>
<text text-anchor="middle" x="381.9818" y="-640.5" font-family="Helvetica,sans-Serif" font-size="10.00" fill="#000000">o2::framework::OutputObj&lt; T &gt;</text>
<polyline fill="none" stroke="#000000" points="295.9818,-633.5 467.9818,-633.5 "/>
<text text-anchor="middle" x="381.9818" y="-621.5" font-family="Helvetica,sans-Serif" font-size="10.00" fill="#000000"> </text>
<polyline fill="none" stroke="#000000" points="295.9818,-614.5 467.9818,-614.5 "/>
<text text-anchor="start" x="303.9818" y="-602.5" font-family="Helvetica,sans-Serif" font-size="10.00" fill="#000000">+ OutputObj()</text>
<text text-anchor="start" x="303.9818" y="-591.5" font-family="Helvetica,sans-Serif" font-size="10.00" fill="#000000">+ OutputObj()</text>
<text text-anchor="start" x="303.9818" y="-580.5" font-family="Helvetica,sans-Serif" font-size="10.00" fill="#000000">+ setObject()</text>
<text text-anchor="start" x="303.9818" y="-569.5" font-family="Helvetica,sans-Serif" font-size="10.00" fill="#000000">+ setObject()</text>
<text text-anchor="start" x="303.9818" y="-558.5" font-family="Helvetica,sans-Serif" font-size="10.00" fill="#000000">+ setObject()</text>
<text text-anchor="start" x="303.9818" y="-547.5" font-family="Helvetica,sans-Serif" font-size="10.00" fill="#000000">+ setObject()</text>
<text text-anchor="start" x="303.9818" y="-536.5" font-family="Helvetica,sans-Serif" font-size="10.00" fill="#000000">+ setHash()</text>
<text text-anchor="start" x="303.9818" y="-525.5" font-family="Helvetica,sans-Serif" font-size="10.00" fill="#000000">+ spec()</text>
<text text-anchor="start" x="303.9818" y="-514.5" font-family="Helvetica,sans-Serif" font-size="10.00" fill="#000000">+ operator&#45;&gt;()</text>
<text text-anchor="start" x="303.9818" y="-503.5" font-family="Helvetica,sans-Serif" font-size="10.00" fill="#000000">+ operator*()</text>
<text text-anchor="start" x="303.9818" y="-492.5" font-family="Helvetica,sans-Serif" font-size="10.00" fill="#000000">+ ref()</text>
</a>
</g>
</g>
<!-- Node3&#45;&gt;Node11 -->
<g id="edge12" class="edge">
<title>Node3&#45;&gt;Node11</title>
<path fill="none" stroke="#404040" d="M236.4799,-727.614C252.8573,-709.7607 274.8815,-685.7517 296.8319,-661.8233"/>
<polygon fill="none" stroke="#404040" points="297.1172,-661.5123 298.2255,-654.3869 305.2291,-652.6694 304.1208,-659.7948 297.1172,-661.5123"/>
<text text-anchor="middle" x="306.4818" y="-674" font-family="Helvetica,sans-Serif" font-size="10.00" fill="#000000"> +policy</text>
</g>
<!-- Node4 -->
<g id="node4" class="node">
<title>Node4</title>
<g id="a_node4"><a xlink:href="../../d3/d87/classuint32__t.html" target="_top" xlink:title="{uint32_t\n||}">
<polygon fill="none" stroke="#000000" points="65.9818,-728 65.9818,-785 121.9818,-785 121.9818,-728 65.9818,-728"/>
<text text-anchor="middle" x="93.9818" y="-773" font-family="Helvetica,sans-Serif" font-size="10.00" fill="#000000">uint32_t</text>
<polyline fill="none" stroke="#000000" points="65.9818,-766 121.9818,-766 "/>
<text text-anchor="middle" x="93.9818" y="-754" font-family="Helvetica,sans-Serif" font-size="10.00" fill="#000000"> </text>
<polyline fill="none" stroke="#000000" points="65.9818,-747 121.9818,-747 "/>
<text text-anchor="middle" x="93.9818" y="-735" font-family="Helvetica,sans-Serif" font-size="10.00" fill="#000000"> </text>
</a>
</g>
</g>
<!-- Node4&#45;&gt;Node2 -->
<g id="edge3" class="edge">
<title>Node4&#45;&gt;Node2</title>
<path fill="none" stroke="#404040" d="M90.8281,-727.7476C86.5469,-674.6764 84.6443,-559.9187 136.9818,-485 175.5756,-429.7549 244.0512,-394.3472 298.8168,-373.4749"/>
<polygon fill="none" stroke="#404040" points="299.0231,-373.3988 303.2649,-367.5672 310.2794,-369.2397 306.0376,-375.0713 299.0231,-373.3988"/>
<text text-anchor="middle" x="170.9818" y="-566.5" font-family="Helvetica,sans-Serif" font-size="10.00" fill="#000000"> +mTaskHash</text>
</g>
<!-- Node4&#45;&gt;Node11 -->
<g id="edge13" class="edge">
<title>Node4&#45;&gt;Node11</title>
<path fill="none" stroke="#404040" d="M107.8921,-727.8591C113.8608,-717.9441 121.6335,-707.4594 130.9818,-700 179.9864,-660.8974 208.0145,-681.2512 263.9818,-653 271.1461,-649.3836 278.358,-645.3634 285.4943,-641.0963"/>
<polygon fill="none" stroke="#404040" points="285.6694,-640.9883 288.6747,-634.4332 295.8813,-634.6861 292.8761,-641.2412 285.6694,-640.9883"/>
<text text-anchor="middle" x="236.9818" y="-674" font-family="Helvetica,sans-Serif" font-size="10.00" fill="#000000"> +mTaskHash</text>
</g>
<!-- Node5 -->
<g id="node5" class="node">
<title>Node5</title>
<polygon fill="none" stroke="#bfbfbf" points="416.4818,-877 416.4818,-934 445.4818,-934 445.4818,-877 416.4818,-877"/>
<text text-anchor="middle" x="430.9818" y="-922" font-family="Helvetica,sans-Serif" font-size="10.00" fill="#000000">int</text>
<polyline fill="none" stroke="#bfbfbf" points="416.4818,-915 445.4818,-915 "/>
<text text-anchor="middle" x="430.9818" y="-903" font-family="Helvetica,sans-Serif" font-size="10.00" fill="#000000"> </text>
<polyline fill="none" stroke="#bfbfbf" points="416.4818,-896 445.4818,-896 "/>
<text text-anchor="middle" x="430.9818" y="-884" font-family="Helvetica,sans-Serif" font-size="10.00" fill="#000000"> </text>
</g>
<!-- Node5&#45;&gt;Node2 -->
<g id="edge4" class="edge">
<title>Node5&#45;&gt;Node2</title>
<path fill="none" stroke="#404040" d="M416.3198,-904.1414C353.0826,-897.9612 104.7219,-870.2967 56.9818,-813 -36.6986,-700.5666 -4.6143,-599.9331 85.9818,-485 138.4453,-418.4432 230.8235,-383.0443 298.4628,-365.1259"/>
<polygon fill="none" stroke="#404040" points="298.7384,-365.0556 303.5612,-359.6945 310.3647,-362.0844 305.5419,-367.4455 298.7384,-365.0556"/>
<text text-anchor="middle" x="18.9818" y="-674" font-family="Helvetica,sans-Serif" font-size="10.00" fill="#000000"> +label</text>
</g>
<!-- Node7 -->
<g id="node7" class="node">
<title>Node7</title>
<g id="a_node7"><a xlink:href="../../da/d96/structo2_1_1framework_1_1InputSpec.html" target="_top" xlink:title="{o2::framework::InputSpec\n||+ InputSpec()\l+ InputSpec()\l+ InputSpec()\l+ InputSpec()\l+ InputSpec()\l+ operator==()\l}">
<polygon fill="none" stroke="#000000" points="540.9818,-700.5 540.9818,-812.5 682.9818,-812.5 682.9818,-700.5 540.9818,-700.5"/>
<text text-anchor="middle" x="611.9818" y="-800.5" font-family="Helvetica,sans-Serif" font-size="10.00" fill="#000000">o2::framework::InputSpec</text>
<polyline fill="none" stroke="#000000" points="540.9818,-793.5 682.9818,-793.5 "/>
<text text-anchor="middle" x="611.9818" y="-781.5" font-family="Helvetica,sans-Serif" font-size="10.00" fill="#000000"> </text>
<polyline fill="none" stroke="#000000" points="540.9818,-774.5 682.9818,-774.5 "/>
<text text-anchor="start" x="548.9818" y="-762.5" font-family="Helvetica,sans-Serif" font-size="10.00" fill="#000000">+ InputSpec()</text>
<text text-anchor="start" x="548.9818" y="-751.5" font-family="Helvetica,sans-Serif" font-size="10.00" fill="#000000">+ InputSpec()</text>
<text text-anchor="start" x="548.9818" y="-740.5" font-family="Helvetica,sans-Serif" font-size="10.00" fill="#000000">+ InputSpec()</text>
<text text-anchor="start" x="548.9818" y="-729.5" font-family="Helvetica,sans-Serif" font-size="10.00" fill="#000000">+ InputSpec()</text>
<text text-anchor="start" x="548.9818" y="-718.5" font-family="Helvetica,sans-Serif" font-size="10.00" fill="#000000">+ InputSpec()</text>
<text text-anchor="start" x="548.9818" y="-707.5" font-family="Helvetica,sans-Serif" font-size="10.00" fill="#000000">+ operator==()</text>
</a>
</g>
</g>
<!-- Node5&#45;&gt;Node7 -->
<g id="edge9" class="edge">
<title>Node5&#45;&gt;Node7</title>
<path fill="none" stroke="#404040" d="M445.4878,-893.5586C464.8876,-877.5886 500.7291,-848.0837 534.2019,-820.5287"/>
<polygon fill="none" stroke="#404040" points="534.2999,-820.4481 536.39,-813.5465 543.5646,-812.8214 541.4745,-819.723 534.2999,-820.4481"/>
<text text-anchor="middle" x="544.9818" y="-834" font-family="Helvetica,sans-Serif" font-size="10.00" fill="#000000"> +binding</text>
</g>
<!-- Node5&#45;&gt;Node11 -->
<g id="edge14" class="edge">
<title>Node5&#45;&gt;Node11</title>
<path fill="none" stroke="#404040" d="M427.2984,-876.8796C422.1356,-837.147 412.3284,-763.0428 402.9818,-700 401.3021,-688.6701 399.4825,-676.799 397.6409,-665.0244"/>
<polygon fill="none" stroke="#404040" points="397.5851,-664.6697 392.7006,-659.3649 395.7186,-652.8158 400.6032,-658.1206 397.5851,-664.6697"/>
<text text-anchor="middle" x="436.9818" y="-754" font-family="Helvetica,sans-Serif" font-size="10.00" fill="#000000"> +label</text>
</g>
<!-- Node6 -->
<g id="node6" class="node">
<title>Node6</title>
<polygon fill="none" stroke="#bfbfbf" points="484.9818,-728 484.9818,-785 522.9818,-785 522.9818,-728 484.9818,-728"/>
<text text-anchor="middle" x="503.9818" y="-773" font-family="Helvetica,sans-Serif" font-size="10.00" fill="#000000">bool</text>
<polyline fill="none" stroke="#bfbfbf" points="484.9818,-766 522.9818,-766 "/>
<text text-anchor="middle" x="503.9818" y="-754" font-family="Helvetica,sans-Serif" font-size="10.00" fill="#000000"> </text>
<polyline fill="none" stroke="#bfbfbf" points="484.9818,-747 522.9818,-747 "/>
<text text-anchor="middle" x="503.9818" y="-735" font-family="Helvetica,sans-Serif" font-size="10.00" fill="#000000"> </text>
</g>
<!-- Node6&#45;&gt;Node2 -->
<g id="edge5" class="edge">
<title>Node6&#45;&gt;Node2</title>
<path fill="none" stroke="#404040" d="M505.9317,-727.6423C508.3323,-676.7929 508.76,-568.6955 476.9818,-485 472.2258,-472.4739 466.0724,-460.0037 459.1844,-447.9808"/>
<polygon fill="none" stroke="#404040" points="459.1046,-447.8469 452.5961,-444.7421 452.9589,-437.5401 459.4674,-440.6449 459.1046,-447.8469"/>
<text text-anchor="middle" x="537.9818" y="-566.5" font-family="Helvetica,sans-Serif" font-size="10.00" fill="#000000"> +isdangling</text>
</g>
<!-- Node6&#45;&gt;Node11 -->
<g id="edge16" class="edge">
<title>Node6&#45;&gt;Node11</title>
<path fill="none" stroke="#404040" d="M491.2871,-727.888C486.0088,-718.2044 479.1801,-707.8631 470.9818,-700 458.642,-688.1647 448.8652,-694.2935 436.9818,-682 431.3782,-676.203 426.2464,-669.7251 421.5668,-662.8836"/>
<polygon fill="none" stroke="#404040" points="421.4845,-662.7544 414.8858,-659.8464 415.0321,-652.6368 421.6309,-655.5448 421.4845,-662.7544"/>
<text text-anchor="middle" x="467.9818" y="-674" font-family="Helvetica,sans-Serif" font-size="10.00" fill="#000000"> +isdangling</text>
</g>
<!-- Node7&#45;&gt;Node2 -->
<g id="edge6" class="edge">
<title>Node7&#45;&gt;Node2</title>
<path fill="none" stroke="#404040" d="M616.2762,-700.4929C618.056,-642.4052 613.134,-551.0095 572.9818,-485 547.4679,-443.0557 503.6769,-410.3625 464.4573,-387.5011"/>
<polygon fill="none" stroke="#404040" points="464.2421,-387.3791 457.0499,-387.9 453.8028,-381.4613 460.9951,-380.9404 464.2421,-387.3791"/>
<text text-anchor="middle" x="631.9818" y="-566.5" font-family="Helvetica,sans-Serif" font-size="10.00" fill="#000000"> +spec</text>
</g>
<!-- Node7&#45;&gt;Node11 -->
<g id="edge17" class="edge">
<title>Node7&#45;&gt;Node11</title>
<path fill="none" stroke="#404040" d="M543.2858,-700.4978C522.6692,-683.6908 499.6691,-664.9407 477.6434,-646.985"/>
<polygon fill="none" stroke="#404040" points="477.5743,-646.9287 470.3963,-646.2378 468.2733,-639.3463 475.4513,-640.0372 477.5743,-646.9287"/>
<text text-anchor="middle" x="533.9818" y="-674" font-family="Helvetica,sans-Serif" font-size="10.00" fill="#000000"> +spec</text>
</g>
<!-- Node8 -->
<g id="node8" class="node">
<title>Node8</title>
<polygon fill="none" stroke="#bfbfbf" points="678.9818,-877 678.9818,-934 766.9818,-934 766.9818,-877 678.9818,-877"/>
<text text-anchor="middle" x="722.9818" y="-922" font-family="Helvetica,sans-Serif" font-size="10.00" fill="#000000">enum Lifetime</text>
<polyline fill="none" stroke="#bfbfbf" points="678.9818,-915 766.9818,-915 "/>
<text text-anchor="middle" x="722.9818" y="-903" font-family="Helvetica,sans-Serif" font-size="10.00" fill="#000000"> </text>
<polyline fill="none" stroke="#bfbfbf" points="678.9818,-896 766.9818,-896 "/>
<text text-anchor="middle" x="722.9818" y="-884" font-family="Helvetica,sans-Serif" font-size="10.00" fill="#000000"> </text>
</g>
<!-- Node8&#45;&gt;Node7 -->
<g id="edge7" class="edge">
<title>Node8&#45;&gt;Node7</title>
<path fill="none" stroke="#404040" d="M701.5799,-876.7713C690.0457,-861.2885 675.3036,-841.4995 661.1227,-822.4639"/>
<polygon fill="none" stroke="#404040" points="660.9471,-822.2281 654.1549,-819.8062 653.7781,-812.6049 660.5703,-815.0269 660.9471,-822.2281"/>
<text text-anchor="middle" x="698.9818" y="-834" font-family="Helvetica,sans-Serif" font-size="10.00" fill="#000000"> +lifetime</text>
</g>
<!-- Node9 -->
<g id="node9" class="node">
<title>Node9</title>
<polygon fill="none" stroke="#bfbfbf" points="496.9818,-860.5 496.9818,-950.5 660.9818,-950.5 660.9818,-860.5 496.9818,-860.5"/>
<text text-anchor="start" x="504.9818" y="-938.5" font-family="Helvetica,sans-Serif" font-size="10.00" fill="#000000">variant&lt; o2::framework</text>
<text text-anchor="start" x="504.9818" y="-927.5" font-family="Helvetica,sans-Serif" font-size="10.00" fill="#000000">::ConcreteDataMatcher,</text>
<text text-anchor="start" x="504.9818" y="-916.5" font-family="Helvetica,sans-Serif" font-size="10.00" fill="#000000"> o2::framework::data_matcher</text>
<text text-anchor="middle" x="578.9818" y="-905.5" font-family="Helvetica,sans-Serif" font-size="10.00" fill="#000000">::DataDescriptorMatcher &gt;</text>
<polyline fill="none" stroke="#bfbfbf" points="496.9818,-898.5 660.9818,-898.5 "/>
<text text-anchor="middle" x="578.9818" y="-886.5" font-family="Helvetica,sans-Serif" font-size="10.00" fill="#000000"> </text>
<polyline fill="none" stroke="#bfbfbf" points="496.9818,-879.5 660.9818,-879.5 "/>
<text text-anchor="middle" x="578.9818" y="-867.5" font-family="Helvetica,sans-Serif" font-size="10.00" fill="#000000"> </text>
</g>
<!-- Node9&#45;&gt;Node7 -->
<g id="edge8" class="edge">
<title>Node9&#45;&gt;Node7</title>
<path fill="none" stroke="#404040" d="M588.9725,-860.3907C591.4765,-849.0845 594.2188,-836.7027 596.91,-824.5514"/>
<polygon fill="none" stroke="#404040" points="596.9786,-824.2414 594.3707,-817.5184 599.5735,-812.5254 602.1814,-819.2484 596.9786,-824.2414"/>
<text text-anchor="middle" x="620.9818" y="-834" font-family="Helvetica,sans-Serif" font-size="10.00" fill="#000000"> +matcher</text>
</g>
<!-- Node10 -->
<g id="node10" class="node">
<title>Node10</title>
<polygon fill="none" stroke="#bfbfbf" points="662.9818,-540.5 662.9818,-597.5 778.9818,-597.5 778.9818,-540.5 662.9818,-540.5"/>
<text text-anchor="middle" x="720.9818" y="-585.5" font-family="Helvetica,sans-Serif" font-size="10.00" fill="#000000">shared_ptr&lt; TH1F &gt;</text>
<polyline fill="none" stroke="#bfbfbf" points="662.9818,-578.5 778.9818,-578.5 "/>
<text text-anchor="middle" x="720.9818" y="-566.5" font-family="Helvetica,sans-Serif" font-size="10.00" fill="#000000"> </text>
<polyline fill="none" stroke="#bfbfbf" points="662.9818,-559.5 778.9818,-559.5 "/>
<text text-anchor="middle" x="720.9818" y="-547.5" font-family="Helvetica,sans-Serif" font-size="10.00" fill="#000000"> </text>
</g>
<!-- Node10&#45;&gt;Node2 -->
<g id="edge10" class="edge">
<title>Node10&#45;&gt;Node2</title>
<path fill="none" stroke="#404040" d="M702.1897,-540.2883C684.6639,-515.3285 656.5364,-479.569 624.9818,-456 576.6349,-419.8883 514.2493,-392.6131 464.7954,-374.5725"/>
<polygon fill="none" stroke="#404040" points="464.7851,-374.5689 457.788,-376.313 453.4869,-370.525 460.484,-368.7809 464.7851,-374.5689"/>
<text text-anchor="middle" x="657.9818" y="-459" font-family="Helvetica,sans-Serif" font-size="10.00" fill="#000000"> +object</text>
</g>
<!-- Node11&#45;&gt;Node2 -->
<g id="edge11" class="edge">
<title>Node11&#45;&gt;Node2</title>
<path fill="none" stroke="#ffa500" d="M381.9818,-474.996C381.9818,-462.6056 381.9818,-449.9353 381.9818,-437.6296"/>
<polygon fill="#ffa500" stroke="#ffa500" points="378.4819,-475.324 381.9818,-485.324 385.4819,-475.324 378.4819,-475.324"/>
<text text-anchor="middle" x="407.4818" y="-459" font-family="Helvetica,sans-Serif" font-size="10.00" fill="#000000"> &lt; TH1F &gt;</text>
</g>
<!-- Node12 -->
<g id="node12" class="node">
<title>Node12</title>
<polygon fill="none" stroke="#bfbfbf" points="297.4818,-728 297.4818,-785 394.4818,-785 394.4818,-728 297.4818,-728"/>
<text text-anchor="middle" x="345.9818" y="-773" font-family="Helvetica,sans-Serif" font-size="10.00" fill="#000000">shared_ptr&lt; T &gt;</text>
<polyline fill="none" stroke="#bfbfbf" points="297.4818,-766 394.4818,-766 "/>
<text text-anchor="middle" x="345.9818" y="-754" font-family="Helvetica,sans-Serif" font-size="10.00" fill="#000000"> </text>
<polyline fill="none" stroke="#bfbfbf" points="297.4818,-747 394.4818,-747 "/>
<text text-anchor="middle" x="345.9818" y="-735" font-family="Helvetica,sans-Serif" font-size="10.00" fill="#000000"> </text>
</g>
<!-- Node12&#45;&gt;Node11 -->
<g id="edge15" class="edge">
<title>Node12&#45;&gt;Node11</title>
<path fill="none" stroke="#404040" d="M344.055,-727.7928C343.4961,-711.0988 343.7461,-689.7238 346.9818,-671 347.3542,-668.8453 347.7654,-666.6749 348.2112,-664.4947"/>
<polygon fill="none" stroke="#404040" points="348.2164,-664.4716 345.6596,-657.729 350.9001,-652.7755 353.457,-659.5182 348.2164,-664.4716"/>
<text text-anchor="middle" x="367.9818" y="-674" font-family="Helvetica,sans-Serif" font-size="10.00" fill="#000000"> +object</text>
</g>
</g>
</svg>
