<?xml version="1.0" encoding="UTF-8" standalone="no"?>
<!DOCTYPE svg PUBLIC "-//W3C//DTD SVG 1.1//EN"
 "http://www.w3.org/Graphics/SVG/1.1/DTD/svg11.dtd">
<!-- Generated by graphviz version 2.40.1 (20161225.0304)
 -->
<!-- Title: /home/travis/build/AliceO2Group/AliceO2/Detectors/TPC/base/test/testTPCCalDet.cxx Pages: 1 -->
<svg width="1580pt" height="699pt"
 viewBox="0.00 0.00 1580.00 699.00" xmlns="http://www.w3.org/2000/svg" xmlns:xlink="http://www.w3.org/1999/xlink">
<g id="graph0" class="graph" transform="scale(1 1) rotate(0) translate(4 695)">
<title>/home/travis/build/AliceO2Group/AliceO2/Detectors/TPC/base/test/testTPCCalDet.cxx</title>
<!-- Node0 -->
<g id="node1" class="node">
<title>Node0</title>
<polygon fill="#bfbfbf" stroke="#000000" points="1141.5,-638.5 1141.5,-690.5 1278.5,-690.5 1278.5,-638.5 1141.5,-638.5"/>
<text text-anchor="start" x="1149.5" y="-678.5" font-family="Helvetica,sans-Serif" font-size="10.00" fill="#000000">/home/travis/build</text>
<text text-anchor="start" x="1149.5" y="-667.5" font-family="Helvetica,sans-Serif" font-size="10.00" fill="#000000">/AliceO2Group/AliceO2</text>
<text text-anchor="start" x="1149.5" y="-656.5" font-family="Helvetica,sans-Serif" font-size="10.00" fill="#000000">/Detectors/TPC/base/test</text>
<text text-anchor="middle" x="1210" y="-645.5" font-family="Helvetica,sans-Serif" font-size="10.00" fill="#000000">/testTPCCalDet.cxx</text>
</g>
<!-- Node1 -->
<g id="node2" class="node">
<title>Node1</title>
<polygon fill="none" stroke="#bfbfbf" points="561,-526.5 561,-545.5 701,-545.5 701,-526.5 561,-526.5"/>
<text text-anchor="middle" x="631" y="-533.5" font-family="Helvetica,sans-Serif" font-size="10.00" fill="#000000">boost/range/combine.hpp</text>
</g>
<!-- Node0&#45;&gt;Node1 -->
<g id="edge1" class="edge">
<title>Node0&#45;&gt;Node1</title>
<path fill="none" stroke="#191970" d="M1141.2609,-651.5687C1078.1226,-639.4817 982.0383,-620.5597 899,-602 821.0195,-584.5708 730.9178,-561.8442 677.5726,-548.1165"/>
<polygon fill="#191970" stroke="#191970" points="678.2868,-544.6863 667.7296,-545.5783 676.5388,-551.4645 678.2868,-544.6863"/>
</g>
<!-- Node2 -->
<g id="node3" class="node">
<title>Node2</title>
<polygon fill="none" stroke="#bfbfbf" points="1238,-582.5 1238,-601.5 1370,-601.5 1370,-582.5 1238,-582.5"/>
<text text-anchor="middle" x="1304" y="-589.5" font-family="Helvetica,sans-Serif" font-size="10.00" fill="#000000">boost/test/unit_test.hpp</text>
</g>
<!-- Node0&#45;&gt;Node2 -->
<g id="edge2" class="edge">
<title>Node0&#45;&gt;Node2</title>
<path fill="none" stroke="#191970" d="M1243.9362,-638.3258C1257.1785,-628.1123 1271.9239,-616.7396 1283.4906,-607.8184"/>
<polygon fill="#191970" stroke="#191970" points="1285.8578,-610.4128 1291.6387,-601.534 1281.5827,-604.8699 1285.8578,-610.4128"/>
</g>
<!-- Node3 -->
<g id="node4" class="node">
<title>Node3</title>
<polygon fill="none" stroke="#bfbfbf" points="1046.5,-358.5 1046.5,-377.5 1093.5,-377.5 1093.5,-358.5 1046.5,-358.5"/>
<text text-anchor="middle" x="1070" y="-365.5" font-family="Helvetica,sans-Serif" font-size="10.00" fill="#000000">vector</text>
</g>
<!-- Node0&#45;&gt;Node3 -->
<g id="edge3" class="edge">
<title>Node0&#45;&gt;Node3</title>
<path fill="none" stroke="#191970" d="M1210.6787,-638.4515C1212.3272,-620.9826 1216.9033,-598.281 1229,-582 1248.2332,-556.114 1275.8133,-573.8925 1292,-546 1297.4404,-536.6252 1304.7435,-504.5819 1291,-470 1261.9571,-396.9211 1158.3564,-376.1891 1103.9414,-370.3158"/>
<polygon fill="#191970" stroke="#191970" points="1104.0418,-366.8093 1093.7508,-369.3282 1103.3665,-373.7766 1104.0418,-366.8093"/>
</g>
<!-- Node4 -->
<g id="node5" class="node">
<title>Node4</title>
<polygon fill="none" stroke="#bfbfbf" points="1388,-582.5 1388,-601.5 1432,-601.5 1432,-582.5 1388,-582.5"/>
<text text-anchor="middle" x="1410" y="-589.5" font-family="Helvetica,sans-Serif" font-size="10.00" fill="#000000">limits</text>
</g>
<!-- Node0&#45;&gt;Node4 -->
<g id="edge4" class="edge">
<title>Node0&#45;&gt;Node4</title>
<path fill="none" stroke="#191970" d="M1278.5488,-639.651C1312.239,-627.4383 1351.2317,-613.3035 1377.9477,-603.619"/>
<polygon fill="#191970" stroke="#191970" points="1379.3405,-606.837 1387.5491,-600.1385 1376.9549,-600.256 1379.3405,-606.837"/>
</g>
<!-- Node5 -->
<g id="node6" class="node">
<title>Node5</title>
<polygon fill="none" stroke="#bfbfbf" points="1450,-582.5 1450,-601.5 1506,-601.5 1506,-582.5 1450,-582.5"/>
<text text-anchor="middle" x="1478" y="-589.5" font-family="Helvetica,sans-Serif" font-size="10.00" fill="#000000">TMath.h</text>
</g>
<!-- Node0&#45;&gt;Node5 -->
<g id="edge5" class="edge">
<title>Node0&#45;&gt;Node5</title>
<path fill="none" stroke="#191970" d="M1278.6686,-645.9236C1329.9607,-632.0479 1398.1611,-613.5982 1440.0234,-602.2735"/>
<polygon fill="#191970" stroke="#191970" points="1441.0779,-605.6141 1449.817,-599.6241 1439.2499,-598.857 1441.0779,-605.6141"/>
</g>
<!-- Node6 -->
<g id="node7" class="node">
<title>Node6</title>
<g id="a_node7"><a xlink:href="../../d5/d1d/TPC_2base_2include_2TPCBase_2Mapper_8h.html" target="_top" xlink:title="TPCBase/Mapper.h">
<polygon fill="none" stroke="#000000" points="327.5,-470.5 327.5,-489.5 434.5,-489.5 434.5,-470.5 327.5,-470.5"/>
<text text-anchor="middle" x="381" y="-477.5" font-family="Helvetica,sans-Serif" font-size="10.00" fill="#000000">TPCBase/Mapper.h</text>
</a>
</g>
</g>
<!-- Node0&#45;&gt;Node6 -->
<g id="edge6" class="edge">
<title>Node0&#45;&gt;Node6</title>
<path fill="none" stroke="#191970" d="M1141.0987,-657.2274C1020.0067,-643.3177 761.9503,-608.618 552,-546 501.9025,-531.0583 445.6822,-508.1137 411.8286,-493.5908"/>
<polygon fill="#191970" stroke="#191970" points="413.0524,-490.3069 402.4845,-489.5521 410.2751,-496.7324 413.0524,-490.3069"/>
</g>
<!-- Node35 -->
<g id="node36" class="node">
<title>Node35</title>
<g id="a_node36"><a xlink:href="../../db/d9b/CalArray_8h.html" target="_top" xlink:title="TPCBase/CalArray.h">
<polygon fill="none" stroke="#000000" points="757,-526.5 757,-545.5 869,-545.5 869,-526.5 757,-526.5"/>
<text text-anchor="middle" x="813" y="-533.5" font-family="Helvetica,sans-Serif" font-size="10.00" fill="#000000">TPCBase/CalArray.h</text>
</a>
</g>
</g>
<!-- Node0&#45;&gt;Node35 -->
<g id="edge55" class="edge">
<title>Node0&#45;&gt;Node35</title>
<path fill="none" stroke="#191970" d="M1141.2339,-652.1327C1088.14,-641.5931 1013.2984,-624.5639 950,-602 909.736,-587.6471 865.6018,-565.049 838.5988,-550.3766"/>
<polygon fill="#191970" stroke="#191970" points="840.2466,-547.2885 829.7964,-545.5438 836.8777,-553.4245 840.2466,-547.2885"/>
</g>
<!-- Node42 -->
<g id="node43" class="node">
<title>Node42</title>
<g id="a_node43"><a xlink:href="../../d6/d2b/TPC_2base_2include_2TPCBase_2CalDet_8h.html" target="_top" xlink:title="TPCBase/CalDet.h">
<polygon fill="none" stroke="#000000" points="959,-582.5 959,-601.5 1063,-601.5 1063,-582.5 959,-582.5"/>
<text text-anchor="middle" x="1011" y="-589.5" font-family="Helvetica,sans-Serif" font-size="10.00" fill="#000000">TPCBase/CalDet.h</text>
</a>
</g>
</g>
<!-- Node0&#45;&gt;Node42 -->
<g id="edge65" class="edge">
<title>Node0&#45;&gt;Node42</title>
<path fill="none" stroke="#191970" d="M1141.2368,-639.4481C1109.5585,-627.907 1073.2708,-614.6866 1047.0592,-605.1372"/>
<polygon fill="#191970" stroke="#191970" points="1048.1314,-601.8028 1037.5374,-601.6681 1045.7351,-608.3799 1048.1314,-601.8028"/>
</g>
<!-- Node46 -->
<g id="node47" class="node">
<title>Node46</title>
<polygon fill="none" stroke="#bfbfbf" points="1524,-582.5 1524,-601.5 1572,-601.5 1572,-582.5 1524,-582.5"/>
<text text-anchor="middle" x="1548" y="-589.5" font-family="Helvetica,sans-Serif" font-size="10.00" fill="#000000">TFile.h</text>
</g>
<!-- Node0&#45;&gt;Node46 -->
<g id="edge79" class="edge">
<title>Node0&#45;&gt;Node46</title>
<path fill="none" stroke="#191970" d="M1278.5479,-652.3226C1338.3899,-641.2654 1427.704,-623.7369 1514.2065,-602.0345"/>
<polygon fill="#191970" stroke="#191970" points="1515.0853,-605.4225 1523.9212,-599.5763 1513.3681,-598.6364 1515.0853,-605.4225"/>
</g>
<!-- Node6&#45;&gt;Node3 -->
<g id="edge8" class="edge">
<title>Node6&#45;&gt;Node3</title>
<path fill="none" stroke="#191970" d="M434.5758,-471.1972C437.761,-470.7667 440.9205,-470.3633 444,-470 649.4176,-445.7676 707.9194,-486.4535 908,-434 928.3882,-428.655 931.604,-422.2487 951,-414 979.536,-401.8642 1012.4503,-389.2446 1036.4199,-380.2999"/>
<polygon fill="#191970" stroke="#191970" points="1037.9497,-383.4654 1046.1061,-376.7035 1035.5131,-376.9031 1037.9497,-383.4654"/>
</g>
<!-- Node7 -->
<g id="node8" class="node">
<title>Node7</title>
<polygon fill="none" stroke="#bfbfbf" points="232,-414.5 232,-433.5 270,-433.5 270,-414.5 232,-414.5"/>
<text text-anchor="middle" x="251" y="-421.5" font-family="Helvetica,sans-Serif" font-size="10.00" fill="#000000">map</text>
</g>
<!-- Node6&#45;&gt;Node7 -->
<g id="edge7" class="edge">
<title>Node6&#45;&gt;Node7</title>
<path fill="none" stroke="#191970" d="M358.6522,-470.3733C336.7034,-460.9184 303.1376,-446.4593 279.3286,-436.2031"/>
<polygon fill="#191970" stroke="#191970" points="280.6678,-432.9691 270.099,-432.2273 277.8984,-439.398 280.6678,-432.9691"/>
</g>
<!-- Node8 -->
<g id="node9" class="node">
<title>Node8</title>
<polygon fill="none" stroke="#bfbfbf" points="628,-414.5 628,-433.5 670,-433.5 670,-414.5 628,-414.5"/>
<text text-anchor="middle" x="649" y="-421.5" font-family="Helvetica,sans-Serif" font-size="10.00" fill="#000000">array</text>
</g>
<!-- Node6&#45;&gt;Node8 -->
<g id="edge9" class="edge">
<title>Node6&#45;&gt;Node8</title>
<path fill="none" stroke="#191970" d="M434.7057,-470.4647C489.6552,-460.5691 572.2981,-445.2681 618.0727,-433.9456"/>
<polygon fill="#191970" stroke="#191970" points="618.9824,-437.3256 627.798,-431.4489 617.2417,-430.5455 618.9824,-437.3256"/>
</g>
<!-- Node9 -->
<g id="node10" class="node">
<title>Node9</title>
<polygon fill="none" stroke="#bfbfbf" points="960,-414.5 960,-433.5 1004,-433.5 1004,-414.5 960,-414.5"/>
<text text-anchor="middle" x="982" y="-421.5" font-family="Helvetica,sans-Serif" font-size="10.00" fill="#000000">string</text>
</g>
<!-- Node6&#45;&gt;Node9 -->
<g id="edge10" class="edge">
<title>Node6&#45;&gt;Node9</title>
<path fill="none" stroke="#191970" d="M434.5733,-471.1758C437.7591,-470.7507 440.9195,-470.3543 444,-470 666.2193,-444.4433 725.5886,-472.1231 946,-434 947.2584,-433.7823 948.5361,-433.539 949.8228,-433.2753"/>
<polygon fill="#191970" stroke="#191970" points="950.7636,-436.6494 959.6887,-430.9403 949.1514,-429.8376 950.7636,-436.6494"/>
</g>
<!-- Node10 -->
<g id="node11" class="node">
<title>Node10</title>
<polygon fill="none" stroke="#bfbfbf" points="367.5,-134.5 367.5,-153.5 414.5,-153.5 414.5,-134.5 367.5,-134.5"/>
<text text-anchor="middle" x="391" y="-141.5" font-family="Helvetica,sans-Serif" font-size="10.00" fill="#000000">cmath</text>
</g>
<!-- Node6&#45;&gt;Node10 -->
<g id="edge11" class="edge">
<title>Node6&#45;&gt;Node10</title>
<path fill="none" stroke="#191970" d="M366.9202,-470.4001C343.2399,-452.9894 298,-413.7414 298,-368 298,-368 298,-368 298,-256 298,-213.3531 338.4045,-178.267 365.9496,-159.3028"/>
<polygon fill="#191970" stroke="#191970" points="367.9693,-162.1632 374.3735,-153.7229 364.1037,-156.3273 367.9693,-162.1632"/>
</g>
<!-- Node11 -->
<g id="node12" class="node">
<title>Node11</title>
<g id="a_node12"><a xlink:href="../../d1/d73/Defs_8h.html" target="_top" xlink:title="Common definitions for 2D coordinates. ">
<polygon fill="none" stroke="#000000" points="783.5,-190.5 783.5,-209.5 916.5,-209.5 916.5,-190.5 783.5,-190.5"/>
<text text-anchor="middle" x="850" y="-197.5" font-family="Helvetica,sans-Serif" font-size="10.00" fill="#000000">DataFormatsTPC/Defs.h</text>
</a>
</g>
</g>
<!-- Node6&#45;&gt;Node11 -->
<g id="edge12" class="edge">
<title>Node6&#45;&gt;Node11</title>
<path fill="none" stroke="#191970" d="M434.5784,-471.2188C437.7629,-470.7829 440.9216,-470.3724 444,-470 634.8316,-446.917 693.1656,-496.3362 875,-434 877.6966,-433.0755 959.6413,-380.5061 961,-378 990.0392,-324.4377 967.6751,-288.4816 924,-246 911.0131,-233.368 893.9813,-222.4874 879.5318,-214.4842"/>
<polygon fill="#191970" stroke="#191970" points="880.9477,-211.2726 870.4777,-209.651 877.6512,-217.4479 880.9477,-211.2726"/>
</g>
<!-- Node24 -->
<g id="node25" class="node">
<title>Node24</title>
<g id="a_node25"><a xlink:href="../../de/d41/PadPos_8h.html" target="_top" xlink:title="TPCBase/PadPos.h">
<polygon fill="none" stroke="#000000" points="496,-302.5 496,-321.5 602,-321.5 602,-302.5 496,-302.5"/>
<text text-anchor="middle" x="549" y="-309.5" font-family="Helvetica,sans-Serif" font-size="10.00" fill="#000000">TPCBase/PadPos.h</text>
</a>
</g>
</g>
<!-- Node6&#45;&gt;Node24 -->
<g id="edge27" class="edge">
<title>Node6&#45;&gt;Node24</title>
<path fill="none" stroke="#191970" d="M393.0177,-470.4791C414.6241,-453.1203 461.0346,-414.7213 496,-378 510.6306,-362.6347 525.6159,-343.6087 535.9025,-329.938"/>
<polygon fill="#191970" stroke="#191970" points="538.7792,-331.9347 541.9327,-321.82 533.16,-327.7605 538.7792,-331.9347"/>
</g>
<!-- Node25 -->
<g id="node26" class="node">
<title>Node25</title>
<g id="a_node26"><a xlink:href="../../dd/d0b/PadSecPos_8h.html" target="_top" xlink:title="TPCBase/PadSecPos.h">
<polygon fill="none" stroke="#000000" points="364.5,-358.5 364.5,-377.5 487.5,-377.5 487.5,-358.5 364.5,-358.5"/>
<text text-anchor="middle" x="426" y="-365.5" font-family="Helvetica,sans-Serif" font-size="10.00" fill="#000000">TPCBase/PadSecPos.h</text>
</a>
</g>
</g>
<!-- Node6&#45;&gt;Node25 -->
<g id="edge28" class="edge">
<title>Node6&#45;&gt;Node25</title>
<path fill="none" stroke="#191970" d="M384.8367,-470.4509C392.2425,-452.0186 408.6327,-411.2254 418.3488,-387.043"/>
<polygon fill="#191970" stroke="#191970" points="421.6925,-388.1088 422.173,-377.5249 415.1971,-385.499 421.6925,-388.1088"/>
</g>
<!-- Node26 -->
<g id="node27" class="node">
<title>Node26</title>
<g id="a_node27"><a xlink:href="../../d3/dd6/Sector_8h.html" target="_top" xlink:title="TPCBase/Sector.h">
<polygon fill="none" stroke="#000000" points="590.5,-246.5 590.5,-265.5 691.5,-265.5 691.5,-246.5 590.5,-246.5"/>
<text text-anchor="middle" x="641" y="-253.5" font-family="Helvetica,sans-Serif" font-size="10.00" fill="#000000">TPCBase/Sector.h</text>
</a>
</g>
</g>
<!-- Node6&#45;&gt;Node26 -->
<g id="edge54" class="edge">
<title>Node6&#45;&gt;Node26</title>
<path fill="none" stroke="#191970" d="M374.6025,-470.3657C361.088,-448.6925 332.6431,-395.0963 355,-358 379.0885,-318.0305 506.6562,-284.5588 583.0478,-267.7153"/>
<polygon fill="#191970" stroke="#191970" points="583.9859,-271.0931 593.0138,-265.548 582.4984,-264.253 583.9859,-271.0931"/>
</g>
<!-- Node28 -->
<g id="node29" class="node">
<title>Node28</title>
<g id="a_node29"><a xlink:href="../../da/d61/PadROCPos_8h.html" target="_top" xlink:title="TPCBase/PadROCPos.h">
<polygon fill="none" stroke="#000000" points="806.5,-358.5 806.5,-377.5 933.5,-377.5 933.5,-358.5 806.5,-358.5"/>
<text text-anchor="middle" x="870" y="-365.5" font-family="Helvetica,sans-Serif" font-size="10.00" fill="#000000">TPCBase/PadROCPos.h</text>
</a>
</g>
</g>
<!-- Node6&#45;&gt;Node28 -->
<g id="edge33" class="edge">
<title>Node6&#45;&gt;Node28</title>
<path fill="none" stroke="#191970" d="M434.6131,-471.4698C437.7889,-470.9708 440.9362,-470.4778 444,-470 548.4008,-453.7177 578.6428,-467.0618 679,-434 697.1269,-428.0282 699.3353,-421.2254 717,-414 750.9057,-400.1315 790.5489,-388.3295 820.9855,-380.1529"/>
<polygon fill="#191970" stroke="#191970" points="822.1607,-383.4625 830.9329,-377.5212 820.3703,-376.6953 822.1607,-383.4625"/>
</g>
<!-- Node30 -->
<g id="node31" class="node">
<title>Node30</title>
<g id="a_node31"><a xlink:href="../../d3/d54/DigitPos_8h.html" target="_top" xlink:title="TPCBase/DigitPos.h">
<polygon fill="none" stroke="#000000" points="498,-414.5 498,-433.5 610,-433.5 610,-414.5 498,-414.5"/>
<text text-anchor="middle" x="554" y="-421.5" font-family="Helvetica,sans-Serif" font-size="10.00" fill="#000000">TPCBase/DigitPos.h</text>
</a>
</g>
</g>
<!-- Node6&#45;&gt;Node30 -->
<g id="edge39" class="edge">
<title>Node6&#45;&gt;Node30</title>
<path fill="none" stroke="#191970" d="M410.7398,-470.3733C439.507,-461.0613 483.27,-446.8953 514.8556,-436.671"/>
<polygon fill="#191970" stroke="#191970" points="516.2122,-439.9107 524.6483,-433.5011 514.0564,-433.251 516.2122,-439.9107"/>
</g>
<!-- Node32 -->
<g id="node33" class="node">
<title>Node32</title>
<g id="a_node33"><a xlink:href="../../d1/d1f/FECInfo_8h.html" target="_top" xlink:title="TPCBase/FECInfo.h">
<polygon fill="none" stroke="#000000" points="0,-246.5 0,-265.5 108,-265.5 108,-246.5 0,-246.5"/>
<text text-anchor="middle" x="54" y="-253.5" font-family="Helvetica,sans-Serif" font-size="10.00" fill="#000000">TPCBase/FECInfo.h</text>
</a>
</g>
</g>
<!-- Node6&#45;&gt;Node32 -->
<g id="edge47" class="edge">
<title>Node6&#45;&gt;Node32</title>
<path fill="none" stroke="#191970" d="M327.3999,-475.5428C243.8616,-468.0769 90.3303,-452.0724 73,-434 31.6733,-390.9037 41.6756,-312.2385 49.2398,-275.6658"/>
<polygon fill="#191970" stroke="#191970" points="52.6898,-276.2749 51.4495,-265.7529 45.8575,-274.7518 52.6898,-276.2749"/>
</g>
<!-- Node33 -->
<g id="node34" class="node">
<title>Node33</title>
<g id="a_node34"><a xlink:href="../../da/d9d/PadRegionInfo_8h.html" target="_top" xlink:title="TPCBase/PadRegionInfo.h">
<polygon fill="none" stroke="#000000" points="726,-414.5 726,-433.5 866,-433.5 866,-414.5 726,-414.5"/>
<text text-anchor="middle" x="796" y="-421.5" font-family="Helvetica,sans-Serif" font-size="10.00" fill="#000000">TPCBase/PadRegionInfo.h</text>
</a>
</g>
</g>
<!-- Node6&#45;&gt;Node33 -->
<g id="edge49" class="edge">
<title>Node6&#45;&gt;Node33</title>
<path fill="none" stroke="#191970" d="M434.601,-471.3893C437.7799,-470.9105 440.9311,-470.444 444,-470 537.0184,-456.5423 644.1256,-442.7945 715.5274,-433.8779"/>
<polygon fill="#191970" stroke="#191970" points="716.3067,-437.3079 725.7971,-432.598 715.441,-430.3617 716.3067,-437.3079"/>
</g>
<!-- Node34 -->
<g id="node35" class="node">
<title>Node34</title>
<g id="a_node35"><a xlink:href="../../d6/d42/PartitionInfo_8h.html" target="_top" xlink:title="TPCBase/PartitionInfo.h">
<polygon fill="none" stroke="#000000" points="82.5,-414.5 82.5,-433.5 213.5,-433.5 213.5,-414.5 82.5,-414.5"/>
<text text-anchor="middle" x="148" y="-421.5" font-family="Helvetica,sans-Serif" font-size="10.00" fill="#000000">TPCBase/PartitionInfo.h</text>
</a>
</g>
</g>
<!-- Node6&#45;&gt;Node34 -->
<g id="edge53" class="edge">
<title>Node6&#45;&gt;Node34</title>
<path fill="none" stroke="#191970" d="M341.2106,-470.4369C301.502,-460.8932 240.3896,-446.2052 197.5545,-435.9101"/>
<polygon fill="#191970" stroke="#191970" points="198.1663,-432.4575 187.6253,-433.5237 196.5305,-439.2637 198.1663,-432.4575"/>
</g>
<!-- Node11&#45;&gt;Node10 -->
<g id="edge13" class="edge">
<title>Node11&#45;&gt;Node10</title>
<path fill="none" stroke="#191970" d="M783.2575,-191.8571C683.9616,-179.7426 500.9184,-157.4105 425.1848,-148.1707"/>
<polygon fill="#191970" stroke="#191970" points="425.1627,-144.6421 414.8124,-146.9052 424.3149,-151.5906 425.1627,-144.6421"/>
</g>
<!-- Node12 -->
<g id="node13" class="node">
<title>Node12</title>
<g id="a_node13"><a xlink:href="../../d2/dd0/Cartesian2D_8h.html" target="_top" xlink:title="MathUtils/Cartesian2D.h">
<polygon fill="none" stroke="#000000" points="1219.5,-73 1219.5,-92 1354.5,-92 1354.5,-73 1219.5,-73"/>
<text text-anchor="middle" x="1287" y="-80" font-family="Helvetica,sans-Serif" font-size="10.00" fill="#000000">MathUtils/Cartesian2D.h</text>
</a>
</g>
</g>
<!-- Node11&#45;&gt;Node12 -->
<g id="edge14" class="edge">
<title>Node11&#45;&gt;Node12</title>
<path fill="none" stroke="#191970" d="M885.3914,-190.484C964.257,-169.2787 1154.3442,-118.1683 1241.7035,-94.6793"/>
<polygon fill="#191970" stroke="#191970" points="1242.8355,-97.9993 1251.5837,-92.0227 1241.0179,-91.2394 1242.8355,-97.9993"/>
</g>
<!-- Node15 -->
<g id="node16" class="node">
<title>Node15</title>
<g id="a_node16"><a xlink:href="../../dd/d76/Cartesian3D_8h.html" target="_top" xlink:title="MathUtils/Cartesian3D.h">
<polygon fill="none" stroke="#000000" points="595.5,-134.5 595.5,-153.5 730.5,-153.5 730.5,-134.5 595.5,-134.5"/>
<text text-anchor="middle" x="663" y="-141.5" font-family="Helvetica,sans-Serif" font-size="10.00" fill="#000000">MathUtils/Cartesian3D.h</text>
</a>
</g>
</g>
<!-- Node11&#45;&gt;Node15 -->
<g id="edge17" class="edge">
<title>Node11&#45;&gt;Node15</title>
<path fill="none" stroke="#191970" d="M817.8536,-190.3733C786.4891,-180.9807 738.6335,-166.6496 704.4284,-156.4064"/>
<polygon fill="#191970" stroke="#191970" points="705.3107,-153.0171 694.727,-153.5011 703.3025,-159.7229 705.3107,-153.0171"/>
</g>
<!-- Node13 -->
<g id="node14" class="node">
<title>Node13</title>
<polygon fill="none" stroke="#bfbfbf" points="1107,-.5 1107,-30.5 1271,-30.5 1271,-.5 1107,-.5"/>
<text text-anchor="start" x="1115" y="-18.5" font-family="Helvetica,sans-Serif" font-size="10.00" fill="#000000">Math/GenVector/Displacement</text>
<text text-anchor="middle" x="1189" y="-7.5" font-family="Helvetica,sans-Serif" font-size="10.00" fill="#000000">Vector2D.h</text>
</g>
<!-- Node12&#45;&gt;Node13 -->
<g id="edge15" class="edge">
<title>Node12&#45;&gt;Node13</title>
<path fill="none" stroke="#191970" d="M1272.959,-72.9005C1259.0412,-63.3853 1237.272,-48.5023 1219.388,-36.2755"/>
<polygon fill="#191970" stroke="#191970" points="1221.2026,-33.2763 1210.9721,-30.5218 1217.2519,-39.0549 1221.2026,-33.2763"/>
</g>
<!-- Node14 -->
<g id="node15" class="node">
<title>Node14</title>
<polygon fill="none" stroke="#bfbfbf" points="1289.5,-6 1289.5,-25 1478.5,-25 1478.5,-6 1289.5,-6"/>
<text text-anchor="middle" x="1384" y="-13" font-family="Helvetica,sans-Serif" font-size="10.00" fill="#000000">Math/GenVector/PositionVector2D.h</text>
</g>
<!-- Node12&#45;&gt;Node14 -->
<g id="edge16" class="edge">
<title>Node12&#45;&gt;Node14</title>
<path fill="none" stroke="#191970" d="M1300.8977,-72.9005C1316.8164,-61.9052 1343.1121,-43.7422 1361.8599,-30.7927"/>
<polygon fill="#191970" stroke="#191970" points="1363.8892,-33.6448 1370.128,-25.0817 1359.9108,-27.8852 1363.8892,-33.6448"/>
</g>
<!-- Node15&#45;&gt;Node12 -->
<g id="edge26" class="edge">
<title>Node15&#45;&gt;Node12</title>
<path fill="none" stroke="#191970" d="M730.6486,-140.813C834.2536,-135.3686 1038.281,-122.4216 1210,-98 1217.7838,-96.893 1225.9672,-95.4984 1233.9754,-94.0019"/>
<polygon fill="#191970" stroke="#191970" points="1234.8291,-97.4018 1243.9822,-92.0659 1233.4994,-90.5292 1234.8291,-97.4018"/>
</g>
<!-- Node16 -->
<g id="node17" class="node">
<title>Node16</title>
<polygon fill="none" stroke="#bfbfbf" points="651,-67.5 651,-97.5 815,-97.5 815,-67.5 651,-67.5"/>
<text text-anchor="start" x="659" y="-85.5" font-family="Helvetica,sans-Serif" font-size="10.00" fill="#000000">Math/GenVector/Displacement</text>
<text text-anchor="middle" x="733" y="-74.5" font-family="Helvetica,sans-Serif" font-size="10.00" fill="#000000">Vector3D.h</text>
</g>
<!-- Node15&#45;&gt;Node16 -->
<g id="edge18" class="edge">
<title>Node15&#45;&gt;Node16</title>
<path fill="none" stroke="#191970" d="M673.9375,-134.3906C683.0603,-126.3756 696.4103,-114.6466 708.1112,-104.3666"/>
<polygon fill="#191970" stroke="#191970" points="710.6737,-106.7742 715.8761,-97.5446 706.0535,-101.5155 710.6737,-106.7742"/>
</g>
<!-- Node17 -->
<g id="node18" class="node">
<title>Node17</title>
<polygon fill="none" stroke="#bfbfbf" points="833.5,-73 833.5,-92 1022.5,-92 1022.5,-73 833.5,-73"/>
<text text-anchor="middle" x="928" y="-80" font-family="Helvetica,sans-Serif" font-size="10.00" fill="#000000">Math/GenVector/PositionVector3D.h</text>
</g>
<!-- Node15&#45;&gt;Node17 -->
<g id="edge19" class="edge">
<title>Node15&#45;&gt;Node17</title>
<path fill="none" stroke="#191970" d="M704.1155,-134.4581C750.6302,-123.6632 826.4408,-106.0694 876.7673,-94.3899"/>
<polygon fill="#191970" stroke="#191970" points="877.8382,-97.7344 886.7881,-92.0643 876.2557,-90.9156 877.8382,-97.7344"/>
</g>
<!-- Node18 -->
<g id="node19" class="node">
<title>Node18</title>
<polygon fill="none" stroke="#bfbfbf" points="1041,-73 1041,-92 1201,-92 1201,-73 1041,-73"/>
<text text-anchor="middle" x="1121" y="-80" font-family="Helvetica,sans-Serif" font-size="10.00" fill="#000000">Math/GenVector/Rotation3D.h</text>
</g>
<!-- Node15&#45;&gt;Node18 -->
<g id="edge20" class="edge">
<title>Node15&#45;&gt;Node18</title>
<path fill="none" stroke="#191970" d="M730.8057,-136.5438C804.9266,-128.1609 927.1256,-113.6598 1032,-98 1040.6782,-96.7042 1049.8139,-95.2345 1058.7927,-93.7288"/>
<polygon fill="#191970" stroke="#191970" points="1059.5593,-97.1487 1068.8305,-92.0208 1058.3851,-90.2479 1059.5593,-97.1487"/>
</g>
<!-- Node19 -->
<g id="node20" class="node">
<title>Node19</title>
<polygon fill="none" stroke="#bfbfbf" points="96,-73 96,-92 264,-92 264,-73 96,-73"/>
<text text-anchor="middle" x="180" y="-80" font-family="Helvetica,sans-Serif" font-size="10.00" fill="#000000">Math/GenVector/Transform3D.h</text>
</g>
<!-- Node15&#45;&gt;Node19 -->
<g id="edge21" class="edge">
<title>Node15&#45;&gt;Node19</title>
<path fill="none" stroke="#191970" d="M595.2358,-136.9995C517.3427,-128.7226 385.7224,-114.0319 273,-98 263.7388,-96.6828 253.9779,-95.1813 244.4019,-93.6434"/>
<polygon fill="#191970" stroke="#191970" points="244.9509,-90.1868 234.5183,-92.0337 243.8257,-97.0957 244.9509,-90.1868"/>
</g>
<!-- Node20 -->
<g id="node21" class="node">
<title>Node20</title>
<polygon fill="none" stroke="#bfbfbf" points="282.5,-73 282.5,-92 455.5,-92 455.5,-73 282.5,-73"/>
<text text-anchor="middle" x="369" y="-80" font-family="Helvetica,sans-Serif" font-size="10.00" fill="#000000">Math/GenVector/Translation3D.h</text>
</g>
<!-- Node15&#45;&gt;Node20 -->
<g id="edge22" class="edge">
<title>Node15&#45;&gt;Node20</title>
<path fill="none" stroke="#191970" d="M617.3851,-134.4581C565.4568,-123.5956 480.6185,-105.8488 424.7936,-94.1711"/>
<polygon fill="#191970" stroke="#191970" points="425.2267,-90.686 414.7219,-92.0643 423.7934,-97.5377 425.2267,-90.686"/>
</g>
<!-- Node21 -->
<g id="node22" class="node">
<title>Node21</title>
<polygon fill="none" stroke="#bfbfbf" points="473.5,-73 473.5,-92 532.5,-92 532.5,-73 473.5,-73"/>
<text text-anchor="middle" x="503" y="-80" font-family="Helvetica,sans-Serif" font-size="10.00" fill="#000000">Rtypes.h</text>
</g>
<!-- Node15&#45;&gt;Node21 -->
<g id="edge23" class="edge">
<title>Node15&#45;&gt;Node21</title>
<path fill="none" stroke="#191970" d="M637.4632,-134.4188C612.945,-125.1898 574.8859,-110.7852 542,-98 540.1665,-97.2872 538.2859,-96.5523 536.3886,-95.8079"/>
<polygon fill="#191970" stroke="#191970" points="537.4895,-92.4798 526.9028,-92.0655 534.9205,-98.9913 537.4895,-92.4798"/>
</g>
<!-- Node22 -->
<g id="node23" class="node">
<title>Node22</title>
<polygon fill="none" stroke="#bfbfbf" points="551,-73 551,-92 633,-92 633,-73 551,-73"/>
<text text-anchor="middle" x="592" y="-80" font-family="Helvetica,sans-Serif" font-size="10.00" fill="#000000">TGeoMatrix.h</text>
</g>
<!-- Node15&#45;&gt;Node22 -->
<g id="edge24" class="edge">
<title>Node15&#45;&gt;Node22</title>
<path fill="none" stroke="#191970" d="M651.9063,-134.3906C641.0285,-124.9683 624.2252,-110.4134 611.18,-99.1137"/>
<polygon fill="#191970" stroke="#191970" points="613.1004,-96.1466 603.2502,-92.2449 608.5173,-101.4377 613.1004,-96.1466"/>
</g>
<!-- Node23 -->
<g id="node24" class="node">
<title>Node23</title>
<polygon fill="none" stroke="#bfbfbf" points="29.5,-73 29.5,-92 78.5,-92 78.5,-73 29.5,-73"/>
<text text-anchor="middle" x="54" y="-80" font-family="Helvetica,sans-Serif" font-size="10.00" fill="#000000">iosfwd</text>
</g>
<!-- Node15&#45;&gt;Node23 -->
<g id="edge25" class="edge">
<title>Node15&#45;&gt;Node23</title>
<path fill="none" stroke="#191970" d="M595.3185,-141.6341C464.4342,-136.5592 181.235,-123.0082 87,-98 85.027,-97.4764 83.0274,-96.8387 81.0391,-96.124"/>
<polygon fill="#191970" stroke="#191970" points="81.9453,-92.7093 71.3691,-92.0804 79.2447,-99.1674 81.9453,-92.7093"/>
</g>
<!-- Node25&#45;&gt;Node24 -->
<g id="edge32" class="edge">
<title>Node25&#45;&gt;Node24</title>
<path fill="none" stroke="#191970" d="M447.1445,-358.3733C466.8892,-349.3838 496.5698,-335.8706 518.8055,-325.7471"/>
<polygon fill="#191970" stroke="#191970" points="520.4806,-328.8302 528.1315,-321.5011 517.58,-322.4594 520.4806,-328.8302"/>
</g>
<!-- Node25&#45;&gt;Node26 -->
<g id="edge29" class="edge">
<title>Node25&#45;&gt;Node26</title>
<path fill="none" stroke="#191970" d="M432.3038,-358.41C442.2375,-344.0443 462.9029,-317.0241 487,-302 515.2935,-284.3595 550.7262,-273.1649 580.4691,-266.2422"/>
<polygon fill="#191970" stroke="#191970" points="581.3156,-269.6395 590.3192,-264.0551 579.7983,-262.8059 581.3156,-269.6395"/>
</g>
<!-- Node26&#45;&gt;Node11 -->
<g id="edge31" class="edge">
<title>Node26&#45;&gt;Node11</title>
<path fill="none" stroke="#191970" d="M676.9284,-246.3733C712.2837,-236.9001 766.388,-222.4032 804.6788,-212.1435"/>
<polygon fill="#191970" stroke="#191970" points="805.787,-215.4701 814.5405,-209.5011 803.9753,-208.7086 805.787,-215.4701"/>
</g>
<!-- Node27 -->
<g id="node28" class="node">
<title>Node27</title>
<g id="a_node28"><a xlink:href="../../d0/dda/DataFormats_2Detectors_2TPC_2include_2DataFormatsTPC_2Constants_8h.html" target="_top" xlink:title="DataFormatsTPC/Constants.h">
<polygon fill="none" stroke="#000000" points="561.5,-190.5 561.5,-209.5 720.5,-209.5 720.5,-190.5 561.5,-190.5"/>
<text text-anchor="middle" x="641" y="-197.5" font-family="Helvetica,sans-Serif" font-size="10.00" fill="#000000">DataFormatsTPC/Constants.h</text>
</a>
</g>
</g>
<!-- Node26&#45;&gt;Node27 -->
<g id="edge30" class="edge">
<title>Node26&#45;&gt;Node27</title>
<path fill="none" stroke="#191970" d="M641,-246.2455C641,-238.9382 641,-228.6944 641,-219.7046"/>
<polygon fill="#191970" stroke="#191970" points="644.5001,-219.6426 641,-209.6427 637.5001,-219.6427 644.5001,-219.6426"/>
</g>
<!-- Node28&#45;&gt;Node11 -->
<g id="edge34" class="edge">
<title>Node28&#45;&gt;Node11</title>
<path fill="none" stroke="#191970" d="M880.559,-358.2076C889.0009,-349.6048 900.1906,-336.2634 905,-322 907.8401,-313.577 907.1756,-310.6185 905,-302 896.9659,-270.1727 876.8313,-237.4821 863.2842,-217.9571"/>
<polygon fill="#191970" stroke="#191970" points="866.0721,-215.8384 857.4176,-209.7269 860.372,-219.9015 866.0721,-215.8384"/>
</g>
<!-- Node28&#45;&gt;Node24 -->
<g id="edge38" class="edge">
<title>Node28&#45;&gt;Node24</title>
<path fill="none" stroke="#191970" d="M815.1829,-358.4369C758.8997,-348.618 671.404,-333.354 612.23,-323.0308"/>
<polygon fill="#191970" stroke="#191970" points="612.7088,-319.5615 602.256,-321.2908 611.5057,-326.4574 612.7088,-319.5615"/>
</g>
<!-- Node29 -->
<g id="node30" class="node">
<title>Node29</title>
<g id="a_node30"><a xlink:href="../../dc/d14/ROC_8h.html" target="_top" xlink:title="TPCBase/ROC.h">
<polygon fill="none" stroke="#000000" points="804,-302.5 804,-321.5 896,-321.5 896,-302.5 804,-302.5"/>
<text text-anchor="middle" x="850" y="-309.5" font-family="Helvetica,sans-Serif" font-size="10.00" fill="#000000">TPCBase/ROC.h</text>
</a>
</g>
</g>
<!-- Node28&#45;&gt;Node29 -->
<g id="edge35" class="edge">
<title>Node28&#45;&gt;Node29</title>
<path fill="none" stroke="#191970" d="M866.5163,-358.2455C863.8492,-350.7776 860.0867,-340.2427 856.8263,-331.1137"/>
<polygon fill="#191970" stroke="#191970" points="860.1033,-329.8829 853.4438,-321.6427 853.5111,-332.2373 860.1033,-329.8829"/>
</g>
<!-- Node29&#45;&gt;Node11 -->
<g id="edge36" class="edge">
<title>Node29&#45;&gt;Node11</title>
<path fill="none" stroke="#191970" d="M850,-302.4509C850,-284.184 850,-243.9553 850,-219.6976"/>
<polygon fill="#191970" stroke="#191970" points="853.5001,-219.5249 850,-209.5249 846.5001,-219.5249 853.5001,-219.5249"/>
</g>
<!-- Node29&#45;&gt;Node26 -->
<g id="edge37" class="edge">
<title>Node29&#45;&gt;Node26</title>
<path fill="none" stroke="#191970" d="M814.0716,-302.3733C778.7163,-292.9001 724.612,-278.4032 686.3212,-268.1435"/>
<polygon fill="#191970" stroke="#191970" points="687.0247,-264.7086 676.4595,-265.5011 685.213,-271.4701 687.0247,-264.7086"/>
</g>
<!-- Node30&#45;&gt;Node11 -->
<g id="edge40" class="edge">
<title>Node30&#45;&gt;Node11</title>
<path fill="none" stroke="#191970" d="M607.5572,-414.494C664.242,-404.039 747.1605,-387.4685 759,-378 788.1893,-354.6564 778.1248,-335.3491 795,-302 809.91,-272.5347 828.3109,-238.9215 839.5966,-218.5928"/>
<polygon fill="#191970" stroke="#191970" points="842.7099,-220.1961 844.5188,-209.7568 836.5947,-216.7895 842.7099,-220.1961"/>
</g>
<!-- Node30&#45;&gt;Node24 -->
<g id="edge45" class="edge">
<title>Node30&#45;&gt;Node24</title>
<path fill="none" stroke="#191970" d="M553.5737,-414.4509C552.7582,-396.184 550.9623,-355.9553 549.8794,-331.6976"/>
<polygon fill="#191970" stroke="#191970" points="553.3678,-331.3588 549.4252,-321.5249 546.3748,-331.6711 553.3678,-331.3588"/>
</g>
<!-- Node30&#45;&gt;Node25 -->
<g id="edge46" class="edge">
<title>Node30&#45;&gt;Node25</title>
<path fill="none" stroke="#191970" d="M531.996,-414.3733C511.3565,-405.3435 480.2842,-391.7494 457.1111,-381.6111"/>
<polygon fill="#191970" stroke="#191970" points="458.2813,-378.3028 447.7169,-377.5011 455.4755,-384.7159 458.2813,-378.3028"/>
</g>
<!-- Node31 -->
<g id="node32" class="node">
<title>Node31</title>
<g id="a_node32"><a xlink:href="../../df/d26/CRU_8h.html" target="_top" xlink:title="TPCBase/CRU.h">
<polygon fill="none" stroke="#000000" points="658,-358.5 658,-377.5 750,-377.5 750,-358.5 658,-358.5"/>
<text text-anchor="middle" x="704" y="-365.5" font-family="Helvetica,sans-Serif" font-size="10.00" fill="#000000">TPCBase/CRU.h</text>
</a>
</g>
</g>
<!-- Node30&#45;&gt;Node31 -->
<g id="edge41" class="edge">
<title>Node30&#45;&gt;Node31</title>
<path fill="none" stroke="#191970" d="M579.7859,-414.3733C604.4047,-405.1822 641.69,-391.2624 668.9875,-381.0713"/>
<polygon fill="#191970" stroke="#191970" points="670.4063,-384.2777 678.5506,-377.5011 667.958,-377.7198 670.4063,-384.2777"/>
</g>
<!-- Node31&#45;&gt;Node11 -->
<g id="edge42" class="edge">
<title>Node31&#45;&gt;Node11</title>
<path fill="none" stroke="#191970" d="M706.3537,-358.2282C712.196,-335.8006 729.3049,-279.9577 762,-246 775.6934,-231.7778 794.7464,-221.0745 811.6233,-213.5879"/>
<polygon fill="#191970" stroke="#191970" points="813.3838,-216.645 821.2517,-209.5494 810.6763,-210.1898 813.3838,-216.645"/>
</g>
<!-- Node31&#45;&gt;Node26 -->
<g id="edge43" class="edge">
<title>Node31&#45;&gt;Node26</title>
<path fill="none" stroke="#191970" d="M698.6287,-358.4509C688.1675,-339.8533 664.9017,-298.4919 651.348,-274.3964"/>
<polygon fill="#191970" stroke="#191970" points="654.3109,-272.5247 646.3577,-265.5249 648.2099,-275.9566 654.3109,-272.5247"/>
</g>
<!-- Node31&#45;&gt;Node29 -->
<g id="edge44" class="edge">
<title>Node31&#45;&gt;Node29</title>
<path fill="none" stroke="#191970" d="M729.0983,-358.3733C752.9555,-349.2226 789.0335,-335.3844 815.571,-325.2057"/>
<polygon fill="#191970" stroke="#191970" points="817.1459,-328.3503 825.2292,-321.5011 814.639,-321.8145 817.1459,-328.3503"/>
</g>
<!-- Node32&#45;&gt;Node23 -->
<g id="edge48" class="edge">
<title>Node32&#45;&gt;Node23</title>
<path fill="none" stroke="#191970" d="M54,-246.4248C54,-218.999 54,-139.732 54,-102.3964"/>
<polygon fill="#191970" stroke="#191970" points="57.5001,-102.2595 54,-92.2595 50.5001,-102.2596 57.5001,-102.2595"/>
</g>
<!-- Node33&#45;&gt;Node3 -->
<g id="edge50" class="edge">
<title>Node33&#45;&gt;Node3</title>
<path fill="none" stroke="#191970" d="M842.791,-414.4369C897.7568,-403.203 987.5974,-384.8414 1036.207,-374.9066"/>
<polygon fill="#191970" stroke="#191970" points="1037.1145,-378.2936 1046.2111,-372.862 1035.7128,-371.4353 1037.1145,-378.2936"/>
</g>
<!-- Node33&#45;&gt;Node11 -->
<g id="edge51" class="edge">
<title>Node33&#45;&gt;Node11</title>
<path fill="none" stroke="#191970" d="M848.0814,-414.4495C885.5689,-406.3926 931.4796,-393.6763 943,-378 983.1185,-323.409 908.761,-249.1443 870.591,-216.5197"/>
<polygon fill="#191970" stroke="#191970" points="872.5352,-213.5833 862.6167,-209.8586 868.0476,-218.9556 872.5352,-213.5833"/>
</g>
<!-- Node33&#45;&gt;Node24 -->
<g id="edge52" class="edge">
<title>Node33&#45;&gt;Node24</title>
<path fill="none" stroke="#191970" d="M725.6745,-414.8768C691.0133,-408.2339 649.5627,-396.952 616,-378 594.3692,-365.7856 574.7849,-344.7786 562.4544,-329.7439"/>
<polygon fill="#191970" stroke="#191970" points="565.0272,-327.3552 556.0721,-321.6934 559.5419,-331.7039 565.0272,-327.3552"/>
</g>
<!-- Node35&#45;&gt;Node3 -->
<g id="edge58" class="edge">
<title>Node35&#45;&gt;Node3</title>
<path fill="none" stroke="#191970" d="M813.6453,-526.2777C815.1567,-511.7391 820.1993,-484.4961 837,-470 897.4503,-417.8418 944.116,-474.3696 1013,-434 1032.6871,-422.4623 1048.9502,-401.6332 1058.9971,-386.4524"/>
<polygon fill="#191970" stroke="#191970" points="1062.0412,-388.187 1064.4244,-377.8637 1056.1237,-384.4476 1062.0412,-388.187"/>
</g>
<!-- Node35&#45;&gt;Node6 -->
<g id="edge62" class="edge">
<title>Node35&#45;&gt;Node6</title>
<path fill="none" stroke="#191970" d="M756.8511,-527.8676C752.1672,-527.223 747.5033,-526.5927 743,-526 613.5356,-508.9608 578.2707,-508.5071 444.8034,-490.0665"/>
<polygon fill="#191970" stroke="#191970" points="444.9824,-486.5578 434.5958,-488.6477 444.0187,-493.4911 444.9824,-486.5578"/>
</g>
<!-- Node35&#45;&gt;Node9 -->
<g id="edge59" class="edge">
<title>Node35&#45;&gt;Node9</title>
<path fill="none" stroke="#191970" d="M807.4885,-526.3533C800.3295,-512.3983 790.1758,-486.4528 803,-470 843.2908,-418.309 882.6437,-450.7717 946,-434 947.2698,-433.6639 948.564,-433.3183 949.8707,-432.967"/>
<polygon fill="#191970" stroke="#191970" points="951.2125,-436.2289 959.9383,-430.2196 949.3696,-429.4758 951.2125,-436.2289"/>
</g>
<!-- Node36 -->
<g id="node37" class="node">
<title>Node36</title>
<polygon fill="none" stroke="#bfbfbf" points="707,-470.5 707,-489.5 751,-489.5 751,-470.5 707,-470.5"/>
<text text-anchor="middle" x="729" y="-477.5" font-family="Helvetica,sans-Serif" font-size="10.00" fill="#000000">Vc/Vc</text>
</g>
<!-- Node35&#45;&gt;Node36 -->
<g id="edge56" class="edge">
<title>Node35&#45;&gt;Node36</title>
<path fill="none" stroke="#191970" d="M798.3683,-526.2455C785.6006,-517.7337 766.8562,-505.2375 752.0701,-495.3801"/>
<polygon fill="#191970" stroke="#191970" points="753.726,-492.2775 743.464,-489.6427 749.8431,-498.1019 753.726,-492.2775"/>
</g>
<!-- Node37 -->
<g id="node38" class="node">
<title>Node37</title>
<polygon fill="none" stroke="#bfbfbf" points="965,-470.5 965,-489.5 1023,-489.5 1023,-470.5 965,-470.5"/>
<text text-anchor="middle" x="994" y="-477.5" font-family="Helvetica,sans-Serif" font-size="10.00" fill="#000000">memory</text>
</g>
<!-- Node35&#45;&gt;Node37 -->
<g id="edge57" class="edge">
<title>Node35&#45;&gt;Node37</title>
<path fill="none" stroke="#191970" d="M844.115,-526.3733C874.8008,-516.8793 921.7951,-502.3396 954.9684,-492.0761"/>
<polygon fill="#191970" stroke="#191970" points="956.2678,-495.3378 964.7865,-489.0384 954.1987,-488.6506 956.2678,-495.3378"/>
</g>
<!-- Node38 -->
<g id="node39" class="node">
<title>Node38</title>
<polygon fill="none" stroke="#bfbfbf" points="453,-470.5 453,-489.5 509,-489.5 509,-470.5 453,-470.5"/>
<text text-anchor="middle" x="481" y="-477.5" font-family="Helvetica,sans-Serif" font-size="10.00" fill="#000000">numeric</text>
</g>
<!-- Node35&#45;&gt;Node38 -->
<g id="edge60" class="edge">
<title>Node35&#45;&gt;Node38</title>
<path fill="none" stroke="#191970" d="M756.724,-527.9741C688.5208,-518.1245 576.5377,-501.53 519.2434,-490.0457"/>
<polygon fill="#191970" stroke="#191970" points="519.707,-486.5675 509.2046,-487.9636 518.2854,-493.4216 519.707,-486.5675"/>
</g>
<!-- Node39 -->
<g id="node40" class="node">
<title>Node39</title>
<polygon fill="none" stroke="#bfbfbf" points="527.5,-470.5 527.5,-489.5 596.5,-489.5 596.5,-470.5 527.5,-470.5"/>
<text text-anchor="middle" x="562" y="-477.5" font-family="Helvetica,sans-Serif" font-size="10.00" fill="#000000">type_traits</text>
</g>
<!-- Node35&#45;&gt;Node39 -->
<g id="edge61" class="edge">
<title>Node35&#45;&gt;Node39</title>
<path fill="none" stroke="#191970" d="M769.7719,-526.4572C730.0126,-517.6659 669.1442,-504.1715 606.6282,-490.1335"/>
<polygon fill="#191970" stroke="#191970" points="607.1077,-486.654 596.5836,-487.8764 605.573,-493.4837 607.1077,-486.654"/>
</g>
<!-- Node40 -->
<g id="node41" class="node">
<title>Node40</title>
<polygon fill="none" stroke="#bfbfbf" points="614.5,-470.5 614.5,-489.5 689.5,-489.5 689.5,-470.5 614.5,-470.5"/>
<text text-anchor="middle" x="652" y="-477.5" font-family="Helvetica,sans-Serif" font-size="10.00" fill="#000000">FairLogger.h</text>
</g>
<!-- Node35&#45;&gt;Node40 -->
<g id="edge63" class="edge">
<title>Node35&#45;&gt;Node40</title>
<path fill="none" stroke="#191970" d="M785.3231,-526.3733C758.6672,-517.1016 718.1762,-503.0178 688.8116,-492.804"/>
<polygon fill="#191970" stroke="#191970" points="689.9105,-489.4807 679.3157,-489.5011 687.6109,-496.0921 689.9105,-489.4807"/>
</g>
<!-- Node41 -->
<g id="node42" class="node">
<title>Node41</title>
<polygon fill="none" stroke="#bfbfbf" points="845.5,-470.5 845.5,-489.5 946.5,-489.5 946.5,-470.5 845.5,-470.5"/>
<text text-anchor="middle" x="896" y="-477.5" font-family="Helvetica,sans-Serif" font-size="10.00" fill="#000000">boost/format.hpp</text>
</g>
<!-- Node35&#45;&gt;Node41 -->
<g id="edge64" class="edge">
<title>Node35&#45;&gt;Node41</title>
<path fill="none" stroke="#191970" d="M827.4575,-526.2455C840.0732,-517.7337 858.5944,-505.2375 873.2045,-495.3801"/>
<polygon fill="#191970" stroke="#191970" points="875.3761,-498.1371 881.7082,-489.6427 871.4609,-492.3343 875.3761,-498.1371"/>
</g>
<!-- Node42&#45;&gt;Node1 -->
<g id="edge78" class="edge">
<title>Node42&#45;&gt;Node1</title>
<path fill="none" stroke="#191970" d="M958.9594,-584.3309C893.5358,-574.6895 780.7636,-558.0704 706.027,-547.0566"/>
<polygon fill="#191970" stroke="#191970" points="706.1462,-543.5364 695.7427,-545.541 705.1255,-550.4617 706.1462,-543.5364"/>
</g>
<!-- Node42&#45;&gt;Node3 -->
<g id="edge67" class="edge">
<title>Node42&#45;&gt;Node3</title>
<path fill="none" stroke="#191970" d="M1063.0367,-590.4594C1131.3998,-587.2128 1245.8617,-577.1479 1272,-546 1293.713,-520.1256 1289.7012,-498.7681 1272,-470 1235.1544,-410.1182 1151.1045,-384.112 1103.8567,-373.8829"/>
<polygon fill="#191970" stroke="#191970" points="1104.3032,-370.4018 1093.8044,-371.8249 1102.8992,-377.2596 1104.3032,-370.4018"/>
</g>
<!-- Node42&#45;&gt;Node6 -->
<g id="edge71" class="edge">
<title>Node42&#45;&gt;Node6</title>
<path fill="none" stroke="#191970" d="M958.9081,-587.7053C904.9764,-582.1544 818.8493,-570.1739 748,-546 729.9372,-539.8369 728.1784,-531.813 710,-526 599.4755,-490.657 563.9684,-506.4254 444.8513,-490.0529"/>
<polygon fill="#191970" stroke="#191970" points="444.997,-486.5384 434.6035,-488.594 444.0103,-493.4685 444.997,-486.5384"/>
</g>
<!-- Node42&#45;&gt;Node9 -->
<g id="edge68" class="edge">
<title>Node42&#45;&gt;Node9</title>
<path fill="none" stroke="#191970" d="M1045.9858,-582.4429C1076.0103,-572.1839 1112.6025,-553.5519 1100,-526 1081.6036,-485.7813 1038.6515,-455.3639 1009.9638,-438.6117"/>
<polygon fill="#191970" stroke="#191970" points="1011.6279,-435.5318 1001.2001,-433.6577 1008.1831,-441.6256 1011.6279,-435.5318"/>
</g>
<!-- Node42&#45;&gt;Node11 -->
<g id="edge70" class="edge">
<title>Node42&#45;&gt;Node11</title>
<path fill="none" stroke="#191970" d="M1063.17,-586.9389C1132.9262,-579.5806 1252.3986,-564.7384 1292,-546 1332.1359,-527.0087 1367,-524.4022 1367,-480 1367,-480 1367,-480 1367,-312 1367,-267.4931 1070.5635,-226.1706 926.6242,-208.7293"/>
<polygon fill="#191970" stroke="#191970" points="926.8768,-205.2345 916.5303,-207.5151 926.0407,-212.1844 926.8768,-205.2345"/>
</g>
<!-- Node42&#45;&gt;Node26 -->
<g id="edge73" class="edge">
<title>Node42&#45;&gt;Node26</title>
<path fill="none" stroke="#191970" d="M1010.2066,-582.4161C1009.4051,-569.406 1008.9169,-545.5371 1014,-526 1018.5043,-508.6878 1027.8901,-507.41 1032,-490 1039.9994,-456.1141 1040.2659,-435.6522 1013,-414 949.3458,-363.4515 705.5171,-436.4195 649,-378 622.6679,-350.7816 629.154,-302.2433 635.5037,-275.3235"/>
<polygon fill="#191970" stroke="#191970" points="638.9185,-276.098 638.0343,-265.5402 632.1415,-274.3451 638.9185,-276.098"/>
</g>
<!-- Node42&#45;&gt;Node29 -->
<g id="edge72" class="edge">
<title>Node42&#45;&gt;Node29</title>
<path fill="none" stroke="#191970" d="M1011.3889,-582.3563C1012.4316,-568.405 1016.2314,-542.4642 1030,-526 1053.2069,-498.2497 1083.8971,-520.7201 1103,-490 1133.9799,-440.1801 1140.5905,-403.0414 1103,-358 1078.4607,-328.5967 973.1743,-317.9439 906.3965,-314.1154"/>
<polygon fill="#191970" stroke="#191970" points="906.2015,-310.5999 896.028,-313.5577 905.8255,-317.5898 906.2015,-310.5999"/>
</g>
<!-- Node42&#45;&gt;Node35 -->
<g id="edge74" class="edge">
<title>Node42&#45;&gt;Node35</title>
<path fill="none" stroke="#191970" d="M976.9626,-582.3733C943.6106,-572.9404 892.6473,-558.5265 856.3998,-548.2747"/>
<polygon fill="#191970" stroke="#191970" points="857.1684,-544.8548 846.5933,-545.5011 855.2632,-551.5906 857.1684,-544.8548"/>
</g>
<!-- Node42&#45;&gt;Node37 -->
<g id="edge66" class="edge">
<title>Node42&#45;&gt;Node37</title>
<path fill="none" stroke="#191970" d="M993.9433,-582.377C981.6911,-574.4014 966.1292,-561.8248 959,-546 951.3237,-528.9606 963.3775,-510.193 975.3826,-497.0411"/>
<polygon fill="#191970" stroke="#191970" points="978.147,-499.2223 982.6743,-489.6435 973.1617,-494.3084 978.147,-499.2223"/>
</g>
<!-- Node42&#45;&gt;Node41 -->
<g id="edge77" class="edge">
<title>Node42&#45;&gt;Node41</title>
<path fill="none" stroke="#191970" d="M996.753,-582.1602C984.3746,-573.3221 966.2459,-559.668 952,-546 936.3448,-530.9798 920.5364,-511.9096 909.7268,-498.1348"/>
<polygon fill="#191970" stroke="#191970" points="912.2811,-495.7161 903.3971,-489.9433 906.742,-499.9962 912.2811,-495.7161"/>
</g>
<!-- Node43 -->
<g id="node44" class="node">
<title>Node43</title>
<polygon fill="none" stroke="#bfbfbf" points="1039,-526.5 1039,-545.5 1091,-545.5 1091,-526.5 1039,-526.5"/>
<text text-anchor="middle" x="1065" y="-533.5" font-family="Helvetica,sans-Serif" font-size="10.00" fill="#000000">cassert</text>
</g>
<!-- Node42&#45;&gt;Node43 -->
<g id="edge69" class="edge">
<title>Node42&#45;&gt;Node43</title>
<path fill="none" stroke="#191970" d="M1020.4061,-582.2455C1028.1493,-574.2155 1039.312,-562.6394 1048.5318,-553.0781"/>
<polygon fill="#191970" stroke="#191970" points="1051.2798,-555.2706 1055.7017,-545.6427 1046.2409,-550.4117 1051.2798,-555.2706"/>
</g>
<!-- Node44 -->
<g id="node45" class="node">
<title>Node44</title>
<g id="a_node45"><a xlink:href="../../dd/da4/Logger_8h.html" target="_top" xlink:title="Framework/Logger.h">
<polygon fill="none" stroke="#000000" points="1147.5,-526.5 1147.5,-545.5 1262.5,-545.5 1262.5,-526.5 1147.5,-526.5"/>
<text text-anchor="middle" x="1205" y="-533.5" font-family="Helvetica,sans-Serif" font-size="10.00" fill="#000000">Framework/Logger.h</text>
</a>
</g>
</g>
<!-- Node42&#45;&gt;Node44 -->
<g id="edge75" class="edge">
<title>Node42&#45;&gt;Node44</title>
<path fill="none" stroke="#191970" d="M1044.3498,-582.3733C1077.028,-572.9404 1126.9618,-558.5265 1162.477,-548.2747"/>
<polygon fill="#191970" stroke="#191970" points="1163.4484,-551.6373 1172.0854,-545.5011 1161.507,-544.9119 1163.4484,-551.6373"/>
</g>
<!-- Node45 -->
<g id="node46" class="node">
<title>Node45</title>
<polygon fill="none" stroke="#bfbfbf" points="1155,-470.5 1155,-489.5 1263,-489.5 1263,-470.5 1155,-470.5"/>
<text text-anchor="middle" x="1209" y="-477.5" font-family="Helvetica,sans-Serif" font-size="10.00" fill="#000000">fairlogger/Logger.h</text>
</g>
<!-- Node44&#45;&gt;Node45 -->
<g id="edge76" class="edge">
<title>Node44&#45;&gt;Node45</title>
<path fill="none" stroke="#191970" d="M1205.6967,-526.2455C1206.2187,-518.9382 1206.9504,-508.6944 1207.5925,-499.7046"/>
<polygon fill="#191970" stroke="#191970" points="1211.0898,-499.8667 1208.3112,-489.6427 1204.1076,-499.3679 1211.0898,-499.8667"/>
</g>
</g>
</svg>
