<?xml version="1.0" encoding="UTF-8" standalone="no"?>
<!DOCTYPE svg PUBLIC "-//W3C//DTD SVG 1.1//EN"
 "http://www.w3.org/Graphics/SVG/1.1/DTD/svg11.dtd">
<!-- Generated by graphviz version 2.40.1 (20161225.0304)
 -->
<!-- Title: o2::ft0::DataBlockWrapper&lt; T &gt; Pages: 1 -->
<svg width="313pt" height="292pt"
 viewBox="0.00 0.00 312.50 292.00" xmlns="http://www.w3.org/2000/svg" xmlns:xlink="http://www.w3.org/1999/xlink">
<g id="graph0" class="graph" transform="scale(1 1) rotate(0) translate(4 288)">
<title>o2::ft0::DataBlockWrapper&lt; T &gt;</title>
<!-- Node1 -->
<g id="node1" class="node">
<title>Node1</title>
<polygon fill="#bfbfbf" stroke="#000000" points="39,-.5 39,-145.5 212,-145.5 212,-.5 39,-.5"/>
<text text-anchor="middle" x="125.5" y="-133.5" font-family="Helvetica,sans-Serif" font-size="10.00" fill="#000000">o2::ft0::DataBlockWrapper&lt; T &gt;</text>
<polyline fill="none" stroke="#000000" points="39,-126.5 212,-126.5 "/>
<text text-anchor="middle" x="125.5" y="-114.5" font-family="Helvetica,sans-Serif" font-size="10.00" fill="#000000"> </text>
<polyline fill="none" stroke="#000000" points="39,-107.5 212,-107.5 "/>
<text text-anchor="start" x="47" y="-95.5" font-family="Helvetica,sans-Serif" font-size="10.00" fill="#000000">+ DataBlockWrapper()</text>
<text text-anchor="start" x="47" y="-84.5" font-family="Helvetica,sans-Serif" font-size="10.00" fill="#000000">+ DataBlockWrapper()</text>
<text text-anchor="start" x="47" y="-73.5" font-family="Helvetica,sans-Serif" font-size="10.00" fill="#000000">+ serialize()</text>
<text text-anchor="start" x="47" y="-62.5" font-family="Helvetica,sans-Serif" font-size="10.00" fill="#000000">+ deserialize()</text>
<text text-anchor="start" x="47" y="-51.5" font-family="Helvetica,sans-Serif" font-size="10.00" fill="#000000">+ print()</text>
<text text-anchor="start" x="47" y="-40.5" font-family="Helvetica,sans-Serif" font-size="10.00" fill="#000000">+ getNsteps()</text>
<text text-anchor="start" x="47" y="-29.5" font-family="Helvetica,sans-Serif" font-size="10.00" fill="#000000">+ GetByteLookupTable()</text>
<text text-anchor="start" x="47" y="-18.5" font-family="Helvetica,sans-Serif" font-size="10.00" fill="#000000">+ GetReadingLookupTable()</text>
<text text-anchor="start" x="47" y="-7.5" font-family="Helvetica,sans-Serif" font-size="10.00" fill="#000000">+ printLUT()</text>
</g>
<!-- Node2 -->
<g id="node2" class="node">
<title>Node2</title>
<polygon fill="none" stroke="#bfbfbf" points="0,-226.5 0,-283.5 61,-283.5 61,-226.5 0,-226.5"/>
<text text-anchor="middle" x="30.5" y="-271.5" font-family="Helvetica,sans-Serif" font-size="10.00" fill="#000000">unsigned</text>
<polyline fill="none" stroke="#bfbfbf" points="0,-264.5 61,-264.5 "/>
<text text-anchor="middle" x="30.5" y="-252.5" font-family="Helvetica,sans-Serif" font-size="10.00" fill="#000000"> </text>
<polyline fill="none" stroke="#bfbfbf" points="0,-245.5 61,-245.5 "/>
<text text-anchor="middle" x="30.5" y="-233.5" font-family="Helvetica,sans-Serif" font-size="10.00" fill="#000000"> </text>
</g>
<!-- Node2&#45;&gt;Node1 -->
<g id="edge1" class="edge">
<title>Node2&#45;&gt;Node1</title>
<path fill="none" stroke="#404040" d="M32.859,-226.3723C35.2422,-207.845 40.0067,-183.6112 49.5,-164 50.7675,-161.3816 52.1267,-158.7749 53.5636,-156.1867"/>
<polygon fill="none" stroke="#404040" points="53.7004,-155.9585 53.3561,-148.7556 59.8724,-145.6675 60.2168,-152.8704 53.7004,-155.9585"/>
<text text-anchor="middle" x="85.5" y="-189" font-family="Helvetica,sans-Serif" font-size="10.00" fill="#000000"> +mNwords</text>
<text text-anchor="middle" x="85.5" y="-178" font-family="Helvetica,sans-Serif" font-size="10.00" fill="#000000">+mNelements</text>
</g>
<!-- Node3 -->
<g id="node3" class="node">
<title>Node3</title>
<polygon fill="none" stroke="#bfbfbf" points="103.5,-226.5 103.5,-283.5 147.5,-283.5 147.5,-226.5 103.5,-226.5"/>
<text text-anchor="middle" x="125.5" y="-271.5" font-family="Helvetica,sans-Serif" font-size="10.00" fill="#000000">static</text>
<polyline fill="none" stroke="#bfbfbf" points="103.5,-264.5 147.5,-264.5 "/>
<text text-anchor="middle" x="125.5" y="-252.5" font-family="Helvetica,sans-Serif" font-size="10.00" fill="#000000"> </text>
<polyline fill="none" stroke="#bfbfbf" points="103.5,-245.5 147.5,-245.5 "/>
<text text-anchor="middle" x="125.5" y="-233.5" font-family="Helvetica,sans-Serif" font-size="10.00" fill="#000000"> </text>
</g>
<!-- Node3&#45;&gt;Node1 -->
<g id="edge2" class="edge">
<title>Node3&#45;&gt;Node1</title>
<path fill="none" stroke="#404040" d="M125.5,-226.1616C125.5,-207.5559 125.5,-182.3093 125.5,-157.6828"/>
<polygon fill="none" stroke="#404040" points="125.5001,-157.675 121.5,-151.675 125.5,-145.675 129.5,-151.6749 125.5001,-157.675"/>
<text text-anchor="middle" x="184" y="-200" font-family="Helvetica,sans-Serif" font-size="10.00" fill="#000000"> +sReadingLookupTable</text>
<text text-anchor="middle" x="184" y="-189" font-family="Helvetica,sans-Serif" font-size="10.00" fill="#000000">+MaxNbytes</text>
<text text-anchor="middle" x="184" y="-178" font-family="Helvetica,sans-Serif" font-size="10.00" fill="#000000">+MaxNwords</text>
<text text-anchor="middle" x="184" y="-167" font-family="Helvetica,sans-Serif" font-size="10.00" fill="#000000">+sByteLookupTable</text>
</g>
<!-- Node4 -->
<g id="node4" class="node">
<title>Node4</title>
<polygon fill="none" stroke="#bfbfbf" points="251,-226.5 251,-283.5 280,-283.5 280,-226.5 251,-226.5"/>
<text text-anchor="middle" x="265.5" y="-271.5" font-family="Helvetica,sans-Serif" font-size="10.00" fill="#000000">T</text>
<polyline fill="none" stroke="#bfbfbf" points="251,-264.5 280,-264.5 "/>
<text text-anchor="middle" x="265.5" y="-252.5" font-family="Helvetica,sans-Serif" font-size="10.00" fill="#000000"> </text>
<polyline fill="none" stroke="#bfbfbf" points="251,-245.5 280,-245.5 "/>
<text text-anchor="middle" x="265.5" y="-233.5" font-family="Helvetica,sans-Serif" font-size="10.00" fill="#000000"> </text>
</g>
<!-- Node4&#45;&gt;Node1 -->
<g id="edge3" class="edge">
<title>Node4&#45;&gt;Node1</title>
<path fill="none" stroke="#404040" d="M263.5149,-226.4002C261.0684,-207.4285 255.62,-182.6803 243.5,-164 237.2296,-154.3355 229.5701,-145.2798 221.1946,-136.9135"/>
<polygon fill="none" stroke="#404040" points="220.9576,-136.6895 213.8493,-135.476 212.2354,-128.4478 219.3437,-129.6613 220.9576,-136.6895"/>
<text text-anchor="middle" x="282" y="-183.5" font-family="Helvetica,sans-Serif" font-size="10.00" fill="#000000"> +mData</text>
</g>
</g>
</svg>
