<?xml version="1.0" encoding="UTF-8" standalone="no"?>
<!DOCTYPE svg PUBLIC "-//W3C//DTD SVG 1.1//EN"
 "http://www.w3.org/Graphics/SVG/1.1/DTD/svg11.dtd">
<!-- Generated by graphviz version 2.40.1 (20161225.0304)
 -->
<!-- Title: o2::fv0::EventHeader Pages: 1 -->
<svg width="283pt" height="248pt"
 viewBox="0.00 0.00 283.00 248.00" xmlns="http://www.w3.org/2000/svg" xmlns:xlink="http://www.w3.org/1999/xlink">
<g id="graph0" class="graph" transform="scale(1 1) rotate(0) translate(4 244)">
<title>o2::fv0::EventHeader</title>
<!-- Node1 -->
<g id="node1" class="node">
<title>Node1</title>
<polygon fill="#bfbfbf" stroke="#000000" points="73.5,-.5 73.5,-57.5 192.5,-57.5 192.5,-.5 73.5,-.5"/>
<text text-anchor="middle" x="133" y="-45.5" font-family="Helvetica,sans-Serif" font-size="10.00" fill="#000000">o2::fv0::EventHeader</text>
<polyline fill="none" stroke="#000000" points="73.5,-38.5 192.5,-38.5 "/>
<text text-anchor="middle" x="133" y="-26.5" font-family="Helvetica,sans-Serif" font-size="10.00" fill="#000000"> </text>
<polyline fill="none" stroke="#000000" points="73.5,-19.5 192.5,-19.5 "/>
<text text-anchor="middle" x="133" y="-7.5" font-family="Helvetica,sans-Serif" font-size="10.00" fill="#000000"> </text>
</g>
<!-- Node2 -->
<g id="node2" class="node">
<title>Node2</title>
<g id="a_node2"><a xlink:href="../../d6/d30/classuint64__t.html" target="_top" xlink:title="{uint64_t\n||}">
<polygon fill="none" stroke="#000000" points="0,-182.5 0,-239.5 56,-239.5 56,-182.5 0,-182.5"/>
<text text-anchor="middle" x="28" y="-227.5" font-family="Helvetica,sans-Serif" font-size="10.00" fill="#000000">uint64_t</text>
<polyline fill="none" stroke="#000000" points="0,-220.5 56,-220.5 "/>
<text text-anchor="middle" x="28" y="-208.5" font-family="Helvetica,sans-Serif" font-size="10.00" fill="#000000"> </text>
<polyline fill="none" stroke="#000000" points="0,-201.5 56,-201.5 "/>
<text text-anchor="middle" x="28" y="-189.5" font-family="Helvetica,sans-Serif" font-size="10.00" fill="#000000"> </text>
</a>
</g>
</g>
<!-- Node2&#45;&gt;Node1 -->
<g id="edge1" class="edge">
<title>Node2&#45;&gt;Node1</title>
<path fill="none" stroke="#404040" d="M24.9652,-182.2444C23.3822,-152.9355 25.2521,-107.4348 47,-76 51.3835,-69.664 56.9069,-64.099 63.0298,-59.2304"/>
<polygon fill="none" stroke="#404040" points="63.2651,-59.0644 65.8589,-52.3359 73.0675,-52.1424 70.4736,-58.8708 63.2651,-59.0644"/>
<text text-anchor="middle" x="88" y="-156" font-family="Helvetica,sans-Serif" font-size="10.00" fill="#000000"> +word</text>
<text text-anchor="middle" x="88" y="-145" font-family="Helvetica,sans-Serif" font-size="10.00" fill="#000000">+nGBTWords</text>
<text text-anchor="middle" x="88" y="-134" font-family="Helvetica,sans-Serif" font-size="10.00" fill="#000000">+startDescriptor</text>
<text text-anchor="middle" x="88" y="-123" font-family="Helvetica,sans-Serif" font-size="10.00" fill="#000000">+reservedField1</text>
<text text-anchor="middle" x="88" y="-112" font-family="Helvetica,sans-Serif" font-size="10.00" fill="#000000">+reservedField2</text>
<text text-anchor="middle" x="88" y="-101" font-family="Helvetica,sans-Serif" font-size="10.00" fill="#000000">+bc</text>
<text text-anchor="middle" x="88" y="-90" font-family="Helvetica,sans-Serif" font-size="10.00" fill="#000000">+reservedField3</text>
<text text-anchor="middle" x="88" y="-79" font-family="Helvetica,sans-Serif" font-size="10.00" fill="#000000">+orbit</text>
</g>
<!-- Node3 -->
<g id="node3" class="node">
<title>Node3</title>
<polygon fill="none" stroke="#bfbfbf" points="79.5,-182.5 79.5,-239.5 186.5,-239.5 186.5,-182.5 79.5,-182.5"/>
<text text-anchor="middle" x="133" y="-227.5" font-family="Helvetica,sans-Serif" font-size="10.00" fill="#000000">anonymous:+@19</text>
<polyline fill="none" stroke="#bfbfbf" points="79.5,-220.5 186.5,-220.5 "/>
<text text-anchor="middle" x="133" y="-208.5" font-family="Helvetica,sans-Serif" font-size="10.00" fill="#000000"> </text>
<polyline fill="none" stroke="#bfbfbf" points="79.5,-201.5 186.5,-201.5 "/>
<text text-anchor="middle" x="133" y="-189.5" font-family="Helvetica,sans-Serif" font-size="10.00" fill="#000000"> </text>
</g>
<!-- Node3&#45;&gt;Node1 -->
<g id="edge2" class="edge">
<title>Node3&#45;&gt;Node1</title>
<path fill="none" stroke="#404040" d="M133,-182.1616C133,-151.943 133,-104.2065 133,-70.0602"/>
<polygon fill="none" stroke="#404040" points="133.0001,-69.7035 129,-63.7036 133,-57.7035 137,-63.7035 133.0001,-69.7035"/>
<text text-anchor="middle" x="150" y="-117.5" font-family="Helvetica,sans-Serif" font-size="10.00" fill="#000000"> +@19</text>
</g>
<!-- Node4 -->
<g id="node4" class="node">
<title>Node4</title>
<polygon fill="none" stroke="#bfbfbf" points="204.5,-182.5 204.5,-239.5 233.5,-239.5 233.5,-182.5 204.5,-182.5"/>
<text text-anchor="middle" x="219" y="-227.5" font-family="Helvetica,sans-Serif" font-size="10.00" fill="#000000">int</text>
<polyline fill="none" stroke="#bfbfbf" points="204.5,-220.5 233.5,-220.5 "/>
<text text-anchor="middle" x="219" y="-208.5" font-family="Helvetica,sans-Serif" font-size="10.00" fill="#000000"> </text>
<polyline fill="none" stroke="#bfbfbf" points="204.5,-201.5 233.5,-201.5 "/>
<text text-anchor="middle" x="219" y="-189.5" font-family="Helvetica,sans-Serif" font-size="10.00" fill="#000000"> </text>
</g>
<!-- Node4&#45;&gt;Node1 -->
<g id="edge3" class="edge">
<title>Node4&#45;&gt;Node1</title>
<path fill="none" stroke="#404040" d="M211.8757,-182.403C204.1681,-154.2243 190.3342,-110.5033 171,-76 169.4195,-73.1795 167.6689,-70.357 165.8122,-67.574"/>
<polygon fill="none" stroke="#404040" points="165.7465,-67.4827 158.9952,-64.9488 158.7376,-57.7423 165.4888,-60.2762 165.7465,-67.4827"/>
<text text-anchor="middle" x="240" y="-117.5" font-family="Helvetica,sans-Serif" font-size="10.00" fill="#000000"> +PayloadSize</text>
</g>
</g>
</svg>
