<?xml version="1.0" encoding="UTF-8" standalone="no"?>
<!DOCTYPE svg PUBLIC "-//W3C//DTD SVG 1.1//EN"
 "http://www.w3.org/Graphics/SVG/1.1/DTD/svg11.dtd">
<!-- Generated by graphviz version 2.40.1 (20161225.0304)
 -->
<!-- Title: AnalysisCompositeCut Pages: 1 -->
<!--zoomable 463 -->
<svg id="main" version="1.1" xmlns="http://www.w3.org/2000/svg" xmlns:xlink="http://www.w3.org/1999/xlink" xml:space="preserve" onload="init(evt)">
<style type="text/css"><![CDATA[
.edge:hover path { stroke: red; }
.edge:hover polygon { stroke: red; fill: red; }
]]></style>
<script type="text/javascript"><![CDATA[
var edges = document.getElementsByTagName('g');
if (edges && edges.length) {
  for (var i=0;i<edges.length;i++) {
    if (edges[i].id.substr(0,4)=='edge') {
      edges[i].setAttribute('class','edge');
    }
  }
}
]]></script>
        <defs>
                <circle id="rim" cx="0" cy="0" r="7"/>
                <circle id="rim2" cx="0" cy="0" r="3.5"/>
                <g id="zoomPlus">
                        <use xlink:href="#rim" fill="#404040">
                                <set attributeName="fill" to="#808080" begin="zoomplus.mouseover" end="zoomplus.mouseout"/>
                        </use>
                        <path d="M-4,0h8M0,-4v8" fill="none" stroke="white" stroke-width="1.5" pointer-events="none"/>
                </g>
                <g id="zoomMin">
                        <use xlink:href="#rim" fill="#404040">
                                <set attributeName="fill" to="#808080" begin="zoomminus.mouseover" end="zoomminus.mouseout"/>
                        </use>
                        <path d="M-4,0h8" fill="none" stroke="white" stroke-width="1.5" pointer-events="none"/>
                </g>
                <g id="dirArrow">
                        <path fill="none" stroke="white" stroke-width="1.5" d="M0,-3.0v7 M-2.5,-0.5L0,-3.0L2.5,-0.5"/>
                </g>
               <g id="resetDef">
                       <use xlink:href="#rim2" fill="#404040">
                               <set attributeName="fill" to="#808080" begin="reset.mouseover" end="reset.mouseout"/>
                       </use>
               </g>
        </defs>

<script type="text/javascript">
var viewWidth = 425;
var viewHeight = 463;
var sectionId = 'dynsection-1';
</script>
<script xlink:href="../../svgpan.js"/>
<svg id="graph" class="graph">
<g id="viewport">
<title>AnalysisCompositeCut</title>
<!-- Node3 -->
<g id="node1" class="node">
<title>Node3</title>
<polygon fill="#bfbfbf" stroke="#000000" points="190,-.5 190,-156.5 344,-156.5 344,-.5 190,-.5"/>
<text text-anchor="middle" x="267" y="-144.5" font-family="Helvetica,sans-Serif" font-size="10.00" fill="#000000">AnalysisCompositeCut</text>
<polyline fill="none" stroke="#000000" points="190,-137.5 344,-137.5 "/>
<text text-anchor="middle" x="267" y="-125.5" font-family="Helvetica,sans-Serif" font-size="10.00" fill="#000000"> </text>
<polyline fill="none" stroke="#000000" points="190,-118.5 344,-118.5 "/>
<text text-anchor="start" x="198" y="-106.5" font-family="Helvetica,sans-Serif" font-size="10.00" fill="#000000">+ AnalysisCompositeCut()</text>
<text text-anchor="start" x="198" y="-95.5" font-family="Helvetica,sans-Serif" font-size="10.00" fill="#000000">+ AnalysisCompositeCut()</text>
<text text-anchor="start" x="198" y="-84.5" font-family="Helvetica,sans-Serif" font-size="10.00" fill="#000000">+ AnalysisCompositeCut()</text>
<text text-anchor="start" x="198" y="-73.5" font-family="Helvetica,sans-Serif" font-size="10.00" fill="#000000">+ operator=()</text>
<text text-anchor="start" x="198" y="-62.5" font-family="Helvetica,sans-Serif" font-size="10.00" fill="#000000">+ ~AnalysisCompositeCut()</text>
<text text-anchor="start" x="198" y="-51.5" font-family="Helvetica,sans-Serif" font-size="10.00" fill="#000000">+ AddCut()</text>
<text text-anchor="start" x="198" y="-40.5" font-family="Helvetica,sans-Serif" font-size="10.00" fill="#000000">+ GetUseAND()</text>
<text text-anchor="start" x="198" y="-29.5" font-family="Helvetica,sans-Serif" font-size="10.00" fill="#000000">+ GetNCuts()</text>
<text text-anchor="start" x="198" y="-18.5" font-family="Helvetica,sans-Serif" font-size="10.00" fill="#000000">+ IsSelected()</text>
<text text-anchor="start" x="198" y="-7.5" font-family="Helvetica,sans-Serif" font-size="10.00" fill="#000000"># ClassDef()</text>
</g>
<!-- Node4 -->
<g id="node2" class="node">
<title>Node4</title>
<g id="a_node2"><a xlink:href="../../de/df4/classAnalysisCut.html" target="_top" xlink:title="{AnalysisCut\n||+ AnalysisCut()\l+ AnalysisCut()\l+ AnalysisCut()\l+ operator=()\l+ ~AnalysisCut()\l+ AddCut()\l+ IsSelected()\l# ClassDef()\l}">
<polygon fill="none" stroke="#000000" points="83.5,-204.5 83.5,-338.5 184.5,-338.5 184.5,-204.5 83.5,-204.5"/>
<text text-anchor="middle" x="134" y="-326.5" font-family="Helvetica,sans-Serif" font-size="10.00" fill="#000000">AnalysisCut</text>
<polyline fill="none" stroke="#000000" points="83.5,-319.5 184.5,-319.5 "/>
<text text-anchor="middle" x="134" y="-307.5" font-family="Helvetica,sans-Serif" font-size="10.00" fill="#000000"> </text>
<polyline fill="none" stroke="#000000" points="83.5,-300.5 184.5,-300.5 "/>
<text text-anchor="start" x="91.5" y="-288.5" font-family="Helvetica,sans-Serif" font-size="10.00" fill="#000000">+ AnalysisCut()</text>
<text text-anchor="start" x="91.5" y="-277.5" font-family="Helvetica,sans-Serif" font-size="10.00" fill="#000000">+ AnalysisCut()</text>
<text text-anchor="start" x="91.5" y="-266.5" font-family="Helvetica,sans-Serif" font-size="10.00" fill="#000000">+ AnalysisCut()</text>
<text text-anchor="start" x="91.5" y="-255.5" font-family="Helvetica,sans-Serif" font-size="10.00" fill="#000000">+ operator=()</text>
<text text-anchor="start" x="91.5" y="-244.5" font-family="Helvetica,sans-Serif" font-size="10.00" fill="#000000">+ ~AnalysisCut()</text>
<text text-anchor="start" x="91.5" y="-233.5" font-family="Helvetica,sans-Serif" font-size="10.00" fill="#000000">+ AddCut()</text>
<text text-anchor="start" x="91.5" y="-222.5" font-family="Helvetica,sans-Serif" font-size="10.00" fill="#000000">+ IsSelected()</text>
<text text-anchor="start" x="91.5" y="-211.5" font-family="Helvetica,sans-Serif" font-size="10.00" fill="#000000"># ClassDef()</text>
</a>
</g>
</g>
<!-- Node4&#45;&gt;Node3 -->
<g id="edge1" class="edge">
<title>Node4&#45;&gt;Node3</title>
<path fill="none" stroke="#191970" d="M186.0941,-195.9048C194.9544,-183.0474 204.1731,-169.6698 213.0794,-156.7456"/>
<polygon fill="none" stroke="#191970" points="183.1226,-194.0487 180.3302,-204.2689 188.8866,-198.0207 183.1226,-194.0487"/>
</g>
<!-- Node5 -->
<g id="node3" class="node">
<title>Node5</title>
<polygon fill="none" stroke="#bfbfbf" points="0,-392 0,-449 58,-449 58,-392 0,-392"/>
<text text-anchor="middle" x="29" y="-437" font-family="Helvetica,sans-Serif" font-size="10.00" fill="#000000">TNamed</text>
<polyline fill="none" stroke="#bfbfbf" points="0,-430 58,-430 "/>
<text text-anchor="middle" x="29" y="-418" font-family="Helvetica,sans-Serif" font-size="10.00" fill="#000000"> </text>
<polyline fill="none" stroke="#bfbfbf" points="0,-411 58,-411 "/>
<text text-anchor="middle" x="29" y="-399" font-family="Helvetica,sans-Serif" font-size="10.00" fill="#000000"> </text>
</g>
<!-- Node5&#45;&gt;Node4 -->
<g id="edge2" class="edge">
<title>Node5&#45;&gt;Node4</title>
<path fill="none" stroke="#191970" d="M55.257,-383.2401C64.7743,-369.7346 75.8405,-354.0311 86.6165,-338.7394"/>
<polygon fill="none" stroke="#191970" points="52.1445,-381.5809 49.2451,-391.7713 57.8665,-385.6132 52.1445,-381.5809"/>
</g>
<!-- Node6 -->
<g id="node4" class="node">
<title>Node6</title>
<polygon fill="none" stroke="#bfbfbf" points="76,-386.5 76,-454.5 192,-454.5 192,-386.5 76,-386.5"/>
<text text-anchor="start" x="84" y="-442.5" font-family="Helvetica,sans-Serif" font-size="10.00" fill="#000000">vector&lt; AnalysisCut</text>
<text text-anchor="middle" x="134" y="-431.5" font-family="Helvetica,sans-Serif" font-size="10.00" fill="#000000">::CutContainer &gt;</text>
<polyline fill="none" stroke="#bfbfbf" points="76,-424.5 192,-424.5 "/>
<text text-anchor="middle" x="134" y="-412.5" font-family="Helvetica,sans-Serif" font-size="10.00" fill="#000000"> </text>
<polyline fill="none" stroke="#bfbfbf" points="76,-405.5 192,-405.5 "/>
<text text-anchor="middle" x="134" y="-393.5" font-family="Helvetica,sans-Serif" font-size="10.00" fill="#000000"> </text>
</g>
<!-- Node6&#45;&gt;Node4 -->
<g id="edge3" class="edge">
<title>Node6&#45;&gt;Node4</title>
<path fill="none" stroke="#404040" d="M134,-386.3164C134,-375.5733 134,-363.2297 134,-350.7079"/>
<polygon fill="none" stroke="#404040" points="134.0001,-350.6944 130,-344.6945 134,-338.6944 138,-344.6944 134.0001,-350.6944"/>
<text text-anchor="middle" x="152.5" y="-360" font-family="Helvetica,sans-Serif" font-size="10.00" fill="#000000"> #fCuts</text>
</g>
<!-- Node7 -->
<g id="node5" class="node">
<title>Node7</title>
<polygon fill="none" stroke="#bfbfbf" points="210,-392 210,-449 254,-449 254,-392 210,-392"/>
<text text-anchor="middle" x="232" y="-437" font-family="Helvetica,sans-Serif" font-size="10.00" fill="#000000">static</text>
<polyline fill="none" stroke="#bfbfbf" points="210,-430 254,-430 "/>
<text text-anchor="middle" x="232" y="-418" font-family="Helvetica,sans-Serif" font-size="10.00" fill="#000000"> </text>
<polyline fill="none" stroke="#bfbfbf" points="210,-411 254,-411 "/>
<text text-anchor="middle" x="232" y="-399" font-family="Helvetica,sans-Serif" font-size="10.00" fill="#000000"> </text>
</g>
<!-- Node7&#45;&gt;Node4 -->
<g id="edge4" class="edge">
<title>Node7&#45;&gt;Node4</title>
<path fill="none" stroke="#404040" d="M213.1046,-391.7713C204.9375,-379.354 194.9487,-364.1669 184.8548,-348.8201"/>
<polygon fill="none" stroke="#404040" points="184.8188,-348.7653 178.1797,-345.9504 178.2246,-338.7394 184.8636,-341.5543 184.8188,-348.7653"/>
<text text-anchor="middle" x="228.5" y="-360" font-family="Helvetica,sans-Serif" font-size="10.00" fill="#000000"> +fgUsedVars</text>
</g>
<!-- Node8 -->
<g id="node6" class="node">
<title>Node8</title>
<polygon fill="none" stroke="#bfbfbf" points="203,-243 203,-300 331,-300 331,-243 203,-243"/>
<text text-anchor="middle" x="267" y="-288" font-family="Helvetica,sans-Serif" font-size="10.00" fill="#000000">vector&lt; AnalysisCut &gt;</text>
<polyline fill="none" stroke="#bfbfbf" points="203,-281 331,-281 "/>
<text text-anchor="middle" x="267" y="-269" font-family="Helvetica,sans-Serif" font-size="10.00" fill="#000000"> </text>
<polyline fill="none" stroke="#bfbfbf" points="203,-262 331,-262 "/>
<text text-anchor="middle" x="267" y="-250" font-family="Helvetica,sans-Serif" font-size="10.00" fill="#000000"> </text>
</g>
<!-- Node8&#45;&gt;Node3 -->
<g id="edge5" class="edge">
<title>Node8&#45;&gt;Node3</title>
<path fill="none" stroke="#404040" d="M267,-242.6059C267,-222.9087 267,-195.6594 267,-169.0201"/>
<polygon fill="none" stroke="#404040" points="267.0001,-168.8527 263,-162.8527 267,-156.8527 271,-162.8526 267.0001,-168.8527"/>
<text text-anchor="middle" x="291.5" y="-178" font-family="Helvetica,sans-Serif" font-size="10.00" fill="#000000"> #fCutList</text>
</g>
<!-- Node9 -->
<g id="node7" class="node">
<title>Node9</title>
<polygon fill="none" stroke="#bfbfbf" points="349,-243 349,-300 387,-300 387,-243 349,-243"/>
<text text-anchor="middle" x="368" y="-288" font-family="Helvetica,sans-Serif" font-size="10.00" fill="#000000">bool</text>
<polyline fill="none" stroke="#bfbfbf" points="349,-281 387,-281 "/>
<text text-anchor="middle" x="368" y="-269" font-family="Helvetica,sans-Serif" font-size="10.00" fill="#000000"> </text>
<polyline fill="none" stroke="#bfbfbf" points="349,-262 387,-262 "/>
<text text-anchor="middle" x="368" y="-250" font-family="Helvetica,sans-Serif" font-size="10.00" fill="#000000"> </text>
</g>
<!-- Node9&#45;&gt;Node3 -->
<g id="edge6" class="edge">
<title>Node9&#45;&gt;Node3</title>
<path fill="none" stroke="#404040" d="M357.1121,-242.8797C352.2369,-230.726 346.1959,-216.5049 340,-204 334.0278,-191.9466 327.3732,-179.4648 320.5802,-167.2568"/>
<polygon fill="none" stroke="#404040" points="320.4767,-167.0729 314.0473,-163.8075 314.5887,-156.6168 321.0181,-159.8822 320.4767,-167.0729"/>
<text text-anchor="middle" x="373" y="-178" font-family="Helvetica,sans-Serif" font-size="10.00" fill="#000000"> #fOptionUseAND</text>
</g>
</g>
</svg>
        <g id="navigator" transform="translate(0 0)" fill="#404254">
                <rect fill="#f2f5e9" fill-opacity="0.5" stroke="#606060" stroke-width=".5" x="0" y="0" width="60" height="60"/>
                <use id="zoomplus" xlink:href="#zoomPlus" x="17" y="9" onmousedown="handleZoom(evt,'in')"/>
                <use id="zoomminus" xlink:href="#zoomMin" x="42" y="9" onmousedown="handleZoom(evt,'out')"/>
                <use id="reset" xlink:href="#resetDef" x="30" y="36" onmousedown="handleReset()"/>
                <g id="arrowUp" xlink:href="#dirArrow" transform="translate(30 24)" onmousedown="handlePan(0,-1)">
                  <use xlink:href="#rim" fill="#404040">
                        <set attributeName="fill" to="#808080" begin="arrowUp.mouseover" end="arrowUp.mouseout"/>
                  </use>
                  <path fill="none" stroke="white" stroke-width="1.5" d="M0,-3.0v7 M-2.5,-0.5L0,-3.0L2.5,-0.5"/>
                </g>
                <g id="arrowRight" xlink:href="#dirArrow" transform="rotate(90) translate(36 -43)" onmousedown="handlePan(1,0)">
                  <use xlink:href="#rim" fill="#404040">
                        <set attributeName="fill" to="#808080" begin="arrowRight.mouseover" end="arrowRight.mouseout"/>
                  </use>
                  <path fill="none" stroke="white" stroke-width="1.5" d="M0,-3.0v7 M-2.5,-0.5L0,-3.0L2.5,-0.5"/>
                </g>
                <g id="arrowDown" xlink:href="#dirArrow" transform="rotate(180) translate(-30 -48)" onmousedown="handlePan(0,1)">
                  <use xlink:href="#rim" fill="#404040">
                        <set attributeName="fill" to="#808080" begin="arrowDown.mouseover" end="arrowDown.mouseout"/>
                  </use>
                  <path fill="none" stroke="white" stroke-width="1.5" d="M0,-3.0v7 M-2.5,-0.5L0,-3.0L2.5,-0.5"/>
                </g>
                <g id="arrowLeft" xlink:href="#dirArrow" transform="rotate(270) translate(-36 17)" onmousedown="handlePan(-1,0)">
                  <use xlink:href="#rim" fill="#404040">
                        <set attributeName="fill" to="#808080" begin="arrowLeft.mouseover" end="arrowLeft.mouseout"/>
                  </use>
                  <path fill="none" stroke="white" stroke-width="1.5" d="M0,-3.0v7 M-2.5,-0.5L0,-3.0L2.5,-0.5"/>
                </g>
        </g>
        <svg viewBox="0 0 15 15" width="100%" height="30px" preserveAspectRatio="xMaxYMin meet">
         <g id="arrow_out" transform="scale(0.3 0.3)">
          <a xlink:href="classAnalysisCompositeCut__coll__graph_org.svg" target="_base">
           <rect id="button" ry="5" rx="5" y="6" x="6" height="38" width="38"
                fill="#f2f5e9" fill-opacity="0.5" stroke="#606060" stroke-width="1.0"/>
           <path id="arrow"
             d="M 11.500037,31.436501 C 11.940474,20.09759 22.043105,11.32322 32.158766,21.979434 L 37.068811,17.246167 C 37.068811,17.246167 37.088388,32 37.088388,32 L 22.160133,31.978069 C 22.160133,31.978069 26.997745,27.140456 26.997745,27.140456 C 18.528582,18.264221 13.291696,25.230495 11.500037,31.436501 z"
             style="fill:#404040;"/>
          </a>
         </g>
        </svg>
</svg>
