<?xml version="1.0" encoding="UTF-8" standalone="no"?>
<!DOCTYPE svg PUBLIC "-//W3C//DTD SVG 1.1//EN"
 "http://www.w3.org/Graphics/SVG/1.1/DTD/svg11.dtd">
<!-- Generated by graphviz version 2.40.1 (20161225.0304)
 -->
<!-- Title: /home/travis/build/AliceO2Group/AliceO2/EventVisualisation/View/src/MultiView.cxx Pages: 1 -->
<svg width="2430pt" height="508pt"
 viewBox="0.00 0.00 2429.79 508.00" xmlns="http://www.w3.org/2000/svg" xmlns:xlink="http://www.w3.org/1999/xlink">
<g id="graph0" class="graph" transform="scale(1 1) rotate(0) translate(4 504)">
<title>/home/travis/build/AliceO2Group/AliceO2/EventVisualisation/View/src/MultiView.cxx</title>
<!-- Node0 -->
<g id="node1" class="node">
<title>Node0</title>
<polygon fill="#bfbfbf" stroke="#000000" points="1561.7901,-447.5 1561.7901,-499.5 1698.7901,-499.5 1698.7901,-447.5 1561.7901,-447.5"/>
<text text-anchor="start" x="1569.7901" y="-487.5" font-family="Helvetica,sans-Serif" font-size="10.00" fill="#000000">/home/travis/build</text>
<text text-anchor="start" x="1569.7901" y="-476.5" font-family="Helvetica,sans-Serif" font-size="10.00" fill="#000000">/AliceO2Group/AliceO2</text>
<text text-anchor="start" x="1569.7901" y="-465.5" font-family="Helvetica,sans-Serif" font-size="10.00" fill="#000000">/EventVisualisation/View</text>
<text text-anchor="middle" x="1630.2901" y="-454.5" font-family="Helvetica,sans-Serif" font-size="10.00" fill="#000000">/src/MultiView.cxx</text>
</g>
<!-- Node1 -->
<g id="node2" class="node">
<title>Node1</title>
<g id="a_node2"><a xlink:href="../../d7/d29/MultiView_8h.html" target="_top" xlink:title="EventVisualisationView\l/MultiView.h">
<polygon fill="none" stroke="#000000" points="1253.7901,-380.5 1253.7901,-410.5 1384.7901,-410.5 1384.7901,-380.5 1253.7901,-380.5"/>
<text text-anchor="start" x="1261.7901" y="-398.5" font-family="Helvetica,sans-Serif" font-size="10.00" fill="#000000">EventVisualisationView</text>
<text text-anchor="middle" x="1319.2901" y="-387.5" font-family="Helvetica,sans-Serif" font-size="10.00" fill="#000000">/MultiView.h</text>
</a>
</g>
</g>
<!-- Node0&#45;&gt;Node1 -->
<g id="edge1" class="edge">
<title>Node0&#45;&gt;Node1</title>
<path fill="none" stroke="#191970" d="M1561.6549,-456.286C1510.4,-443.4311 1440.6066,-425.9266 1389.0769,-413.0028"/>
<polygon fill="#191970" stroke="#191970" points="1389.9023,-409.6015 1379.3512,-410.5636 1388.1993,-416.3912 1389.9023,-409.6015"/>
</g>
<!-- Node7 -->
<g id="node8" class="node">
<title>Node7</title>
<g id="a_node8"><a xlink:href="../../db/d9e/ConfigurationManager_8h.html" target="_top" xlink:title="EventVisualisationBase\l/ConfigurationManager.h">
<polygon fill="none" stroke="#000000" points="1402.7901,-380.5 1402.7901,-410.5 1537.7901,-410.5 1537.7901,-380.5 1402.7901,-380.5"/>
<text text-anchor="start" x="1410.7901" y="-398.5" font-family="Helvetica,sans-Serif" font-size="10.00" fill="#000000">EventVisualisationBase</text>
<text text-anchor="middle" x="1470.2901" y="-387.5" font-family="Helvetica,sans-Serif" font-size="10.00" fill="#000000">/ConfigurationManager.h</text>
</a>
</g>
</g>
<!-- Node0&#45;&gt;Node7 -->
<g id="edge7" class="edge">
<title>Node0&#45;&gt;Node7</title>
<path fill="none" stroke="#191970" d="M1576.5674,-447.3101C1554.9365,-436.7651 1530.4224,-424.8145 1510.393,-415.0501"/>
<polygon fill="#191970" stroke="#191970" points="1511.7659,-411.8257 1501.2434,-410.5897 1508.6985,-418.1179 1511.7659,-411.8257"/>
</g>
<!-- Node8 -->
<g id="node9" class="node">
<title>Node8</title>
<polygon fill="none" stroke="#bfbfbf" points="1606.7901,-319 1606.7901,-338 1655.7901,-338 1655.7901,-319 1606.7901,-319"/>
<text text-anchor="middle" x="1631.2901" y="-326" font-family="Helvetica,sans-Serif" font-size="10.00" fill="#000000">TEnv.h</text>
</g>
<!-- Node0&#45;&gt;Node8 -->
<g id="edge58" class="edge">
<title>Node0&#45;&gt;Node8</title>
<path fill="none" stroke="#191970" d="M1605.6279,-447.3912C1591.2521,-428.9054 1577.5272,-403.3465 1586.2901,-380 1591.31,-366.6259 1601.5507,-354.4478 1610.9963,-345.2954"/>
<polygon fill="#191970" stroke="#191970" points="1613.5753,-347.6806 1618.6115,-338.3593 1608.8616,-342.5055 1613.5753,-347.6806"/>
</g>
<!-- Node9 -->
<g id="node10" class="node">
<title>Node9</title>
<g id="a_node10"><a xlink:href="../../d8/d25/EventManager_8h.html" target="_top" xlink:title="EventVisualisationView\l/EventManager.h">
<polygon fill="none" stroke="#000000" points="440.7901,-380.5 440.7901,-410.5 571.7901,-410.5 571.7901,-380.5 440.7901,-380.5"/>
<text text-anchor="start" x="448.7901" y="-398.5" font-family="Helvetica,sans-Serif" font-size="10.00" fill="#000000">EventVisualisationView</text>
<text text-anchor="middle" x="506.2901" y="-387.5" font-family="Helvetica,sans-Serif" font-size="10.00" fill="#000000">/EventManager.h</text>
</a>
</g>
</g>
<!-- Node0&#45;&gt;Node9 -->
<g id="edge9" class="edge">
<title>Node0&#45;&gt;Node9</title>
<path fill="none" stroke="#191970" d="M1561.6709,-468.7382C1363.1672,-454.963 789.307,-415.14 582.0719,-400.7589"/>
<polygon fill="#191970" stroke="#191970" points="582.1117,-397.2533 571.8934,-400.0525 581.6271,-404.2365 582.1117,-397.2533"/>
</g>
<!-- Node10 -->
<g id="node11" class="node">
<title>Node10</title>
<g id="a_node11"><a xlink:href="../../d6/d7c/VisualisationConstants_8h.html" target="_top" xlink:title="EventVisualisationBase\l/VisualisationConstants.h">
<polygon fill="none" stroke="#000000" points="1117.2901,-246.5 1117.2901,-276.5 1257.2901,-276.5 1257.2901,-246.5 1117.2901,-246.5"/>
<text text-anchor="start" x="1125.2901" y="-264.5" font-family="Helvetica,sans-Serif" font-size="10.00" fill="#000000">EventVisualisationBase</text>
<text text-anchor="middle" x="1187.2901" y="-253.5" font-family="Helvetica,sans-Serif" font-size="10.00" fill="#000000">/VisualisationConstants.h</text>
</a>
</g>
</g>
<!-- Node0&#45;&gt;Node10 -->
<g id="edge56" class="edge">
<title>Node0&#45;&gt;Node10</title>
<path fill="none" stroke="#191970" d="M1561.4194,-466.0849C1466.4195,-455.2209 1300.5241,-433.7824 1244.2901,-411 1196.067,-391.4631 1172.3506,-390.133 1148.2901,-344 1137.9019,-324.0818 1150.9868,-300.9179 1164.7286,-284.2147"/>
<polygon fill="#191970" stroke="#191970" points="1167.4652,-286.4025 1171.4274,-276.5764 1162.2024,-281.7869 1167.4652,-286.4025"/>
</g>
<!-- Node38 -->
<g id="node39" class="node">
<title>Node38</title>
<g id="a_node39"><a xlink:href="../../d7/d97/EventVisualisation_2Base_2include_2EventVisualisationBase_2GeometryManager_8h.html" target="_top" xlink:title="EventVisualisationBase\l/GeometryManager.h">
<polygon fill="none" stroke="#000000" points="969.7901,-380.5 969.7901,-410.5 1100.7901,-410.5 1100.7901,-380.5 969.7901,-380.5"/>
<text text-anchor="start" x="977.7901" y="-398.5" font-family="Helvetica,sans-Serif" font-size="10.00" fill="#000000">EventVisualisationBase</text>
<text text-anchor="middle" x="1035.2901" y="-387.5" font-family="Helvetica,sans-Serif" font-size="10.00" fill="#000000">/GeometryManager.h</text>
</a>
</g>
</g>
<!-- Node0&#45;&gt;Node38 -->
<g id="edge53" class="edge">
<title>Node0&#45;&gt;Node38</title>
<path fill="none" stroke="#191970" d="M1561.7667,-466.7399C1462.8809,-456.6317 1274.5482,-436.0598 1115.2901,-411 1113.9931,-410.7959 1112.6849,-410.5862 1111.3681,-410.3717"/>
<polygon fill="#191970" stroke="#191970" points="1111.5903,-406.8596 1101.1464,-408.6418 1110.4222,-413.7614 1111.5903,-406.8596"/>
</g>
<!-- Node39 -->
<g id="node40" class="node">
<title>Node39</title>
<polygon fill="none" stroke="#bfbfbf" points="1594.7901,-386 1594.7901,-405 1665.7901,-405 1665.7901,-386 1594.7901,-386"/>
<text text-anchor="middle" x="1630.2901" y="-393" font-family="Helvetica,sans-Serif" font-size="10.00" fill="#000000">TBrowser.h</text>
</g>
<!-- Node0&#45;&gt;Node39 -->
<g id="edge57" class="edge">
<title>Node0&#45;&gt;Node39</title>
<path fill="none" stroke="#191970" d="M1630.2901,-447.0928C1630.2901,-436.6735 1630.2901,-424.911 1630.2901,-415.2512"/>
<polygon fill="#191970" stroke="#191970" points="1633.7902,-415.0838 1630.2901,-405.0839 1626.7902,-415.0839 1633.7902,-415.0838"/>
</g>
<!-- Node40 -->
<g id="node41" class="node">
<title>Node40</title>
<polygon fill="none" stroke="#bfbfbf" points="1683.7901,-386 1683.7901,-405 1772.7901,-405 1772.7901,-386 1683.7901,-386"/>
<text text-anchor="middle" x="1728.2901" y="-393" font-family="Helvetica,sans-Serif" font-size="10.00" fill="#000000">TEveBrowser.h</text>
</g>
<!-- Node0&#45;&gt;Node40 -->
<g id="edge59" class="edge">
<title>Node0&#45;&gt;Node40</title>
<path fill="none" stroke="#191970" d="M1663.1953,-447.3101C1678.1567,-435.4021 1695.3701,-421.7017 1708.3368,-411.3812"/>
<polygon fill="#191970" stroke="#191970" points="1710.5336,-414.1061 1716.1782,-405.1401 1706.1743,-408.6291 1710.5336,-414.1061"/>
</g>
<!-- Node41 -->
<g id="node42" class="node">
<title>Node41</title>
<polygon fill="none" stroke="#bfbfbf" points="1790.7901,-386 1790.7901,-405 1881.7901,-405 1881.7901,-386 1790.7901,-386"/>
<text text-anchor="middle" x="1836.2901" y="-393" font-family="Helvetica,sans-Serif" font-size="10.00" fill="#000000">TEveManager.h</text>
</g>
<!-- Node0&#45;&gt;Node41 -->
<g id="edge60" class="edge">
<title>Node0&#45;&gt;Node41</title>
<path fill="none" stroke="#191970" d="M1698.8852,-447.5271C1733.4354,-434.445 1773.8208,-419.1534 1801.8279,-408.5488"/>
<polygon fill="#191970" stroke="#191970" points="1803.0756,-411.819 1811.1882,-405.0046 1800.5968,-405.2725 1803.0756,-411.819"/>
</g>
<!-- Node42 -->
<g id="node43" class="node">
<title>Node42</title>
<polygon fill="none" stroke="#bfbfbf" points="1900.2901,-386 1900.2901,-405 2022.2901,-405 2022.2901,-386 1900.2901,-386"/>
<text text-anchor="middle" x="1961.2901" y="-393" font-family="Helvetica,sans-Serif" font-size="10.00" fill="#000000">TEveProjectionAxes.h</text>
</g>
<!-- Node0&#45;&gt;Node42 -->
<g id="edge61" class="edge">
<title>Node0&#45;&gt;Node42</title>
<path fill="none" stroke="#191970" d="M1698.8736,-457.3383C1762.1099,-442.4367 1854.4932,-420.6667 1911.0993,-407.3274"/>
<polygon fill="#191970" stroke="#191970" points="1911.9639,-410.7197 1920.8945,-405.0192 1910.3583,-403.9063 1911.9639,-410.7197"/>
</g>
<!-- Node43 -->
<g id="node44" class="node">
<title>Node43</title>
<polygon fill="none" stroke="#bfbfbf" points="2040.2901,-386 2040.2901,-405 2180.2901,-405 2180.2901,-386 2040.2901,-386"/>
<text text-anchor="middle" x="2110.2901" y="-393" font-family="Helvetica,sans-Serif" font-size="10.00" fill="#000000">TEveProjectionManager.h</text>
</g>
<!-- Node0&#45;&gt;Node43 -->
<g id="edge62" class="edge">
<title>Node0&#45;&gt;Node43</title>
<path fill="none" stroke="#191970" d="M1698.8958,-463.6413C1778.851,-451.9585 1914.8843,-431.483 2031.2901,-411 2038.3879,-409.7511 2045.8313,-408.3764 2053.1933,-406.9774"/>
<polygon fill="#191970" stroke="#191970" points="2053.9827,-410.3898 2063.1416,-405.064 2052.6605,-403.5158 2053.9827,-410.3898"/>
</g>
<!-- Node44 -->
<g id="node45" class="node">
<title>Node44</title>
<polygon fill="none" stroke="#bfbfbf" points="2198.2901,-386 2198.2901,-405 2328.2901,-405 2328.2901,-386 2198.2901,-386"/>
<text text-anchor="middle" x="2263.2901" y="-393" font-family="Helvetica,sans-Serif" font-size="10.00" fill="#000000">TEveWindowManager.h</text>
</g>
<!-- Node0&#45;&gt;Node44 -->
<g id="edge63" class="edge">
<title>Node0&#45;&gt;Node44</title>
<path fill="none" stroke="#191970" d="M1698.9861,-467.9393C1804.7257,-458.9029 2013.5593,-439.1627 2189.2901,-411 2196.4185,-409.8576 2203.8996,-408.4906 2211.2528,-407.0483"/>
<polygon fill="#191970" stroke="#191970" points="2212.046,-410.4589 2221.1554,-405.0488 2210.6605,-403.5973 2212.046,-410.4589"/>
</g>
<!-- Node45 -->
<g id="node46" class="node">
<title>Node45</title>
<polygon fill="none" stroke="#bfbfbf" points="2346.7901,-386 2346.7901,-405 2421.7901,-405 2421.7901,-386 2346.7901,-386"/>
<text text-anchor="middle" x="2384.2901" y="-393" font-family="Helvetica,sans-Serif" font-size="10.00" fill="#000000">FairLogger.h</text>
</g>
<!-- Node0&#45;&gt;Node45 -->
<g id="edge64" class="edge">
<title>Node0&#45;&gt;Node45</title>
<path fill="none" stroke="#191970" d="M1698.7975,-469.4614C1851.6085,-460.1254 2216.3814,-435.9332 2337.2901,-411 2341.1557,-410.2029 2345.1474,-409.1927 2349.0955,-408.0716"/>
<polygon fill="#191970" stroke="#191970" points="2350.1912,-411.3966 2358.7228,-405.1147 2348.1359,-404.7051 2350.1912,-411.3966"/>
</g>
<!-- Node2 -->
<g id="node3" class="node">
<title>Node2</title>
<polygon fill="none" stroke="#bfbfbf" points="1511.7901,-319 1511.7901,-338 1588.7901,-338 1588.7901,-319 1511.7901,-319"/>
<text text-anchor="middle" x="1550.2901" y="-326" font-family="Helvetica,sans-Serif" font-size="10.00" fill="#000000">TGLViewer.h</text>
</g>
<!-- Node1&#45;&gt;Node2 -->
<g id="edge2" class="edge">
<title>Node1&#45;&gt;Node2</title>
<path fill="none" stroke="#191970" d="M1375.4471,-380.4967C1411.9873,-370.5585 1460.6105,-357.003 1503.2901,-344 1506.2361,-343.1025 1509.2786,-342.1524 1512.3327,-341.1821"/>
<polygon fill="#191970" stroke="#191970" points="1513.5824,-344.4566 1522.0235,-338.0536 1511.4318,-337.7951 1513.5824,-344.4566"/>
</g>
<!-- Node3 -->
<g id="node4" class="node">
<title>Node3</title>
<polygon fill="none" stroke="#bfbfbf" points="1157.7901,-319 1157.7901,-338 1256.7901,-338 1256.7901,-319 1157.7901,-319"/>
<text text-anchor="middle" x="1207.2901" y="-326" font-family="Helvetica,sans-Serif" font-size="10.00" fill="#000000">TEveGeoShape.h</text>
</g>
<!-- Node1&#45;&gt;Node3 -->
<g id="edge3" class="edge">
<title>Node1&#45;&gt;Node3</title>
<path fill="none" stroke="#191970" d="M1294.1552,-380.4639C1275.6169,-369.3741 1250.5161,-354.3584 1232.0639,-343.32"/>
<polygon fill="#191970" stroke="#191970" points="1233.723,-340.2341 1223.3445,-338.1039 1230.1293,-346.2412 1233.723,-340.2341"/>
</g>
<!-- Node4 -->
<g id="node5" class="node">
<title>Node4</title>
<polygon fill="none" stroke="#bfbfbf" points="1313.7901,-319 1313.7901,-338 1392.7901,-338 1392.7901,-319 1313.7901,-319"/>
<text text-anchor="middle" x="1353.2901" y="-326" font-family="Helvetica,sans-Serif" font-size="10.00" fill="#000000">TEveScene.h</text>
</g>
<!-- Node1&#45;&gt;Node4 -->
<g id="edge4" class="edge">
<title>Node1&#45;&gt;Node4</title>
<path fill="none" stroke="#191970" d="M1327.0053,-380.2967C1331.994,-370.4658 1338.5217,-357.6026 1343.8237,-347.1545"/>
<polygon fill="#191970" stroke="#191970" points="1347.0371,-348.5563 1348.4413,-338.055 1340.7949,-345.3886 1347.0371,-348.5563"/>
</g>
<!-- Node5 -->
<g id="node6" class="node">
<title>Node5</title>
<polygon fill="none" stroke="#bfbfbf" points="1410.7901,-319 1410.7901,-338 1493.7901,-338 1493.7901,-319 1410.7901,-319"/>
<text text-anchor="middle" x="1452.2901" y="-326" font-family="Helvetica,sans-Serif" font-size="10.00" fill="#000000">TEveViewer.h</text>
</g>
<!-- Node1&#45;&gt;Node5 -->
<g id="edge5" class="edge">
<title>Node1&#45;&gt;Node5</title>
<path fill="none" stroke="#191970" d="M1349.1379,-380.4639C1371.5542,-369.1715 1402.0508,-353.8086 1424.064,-342.7192"/>
<polygon fill="#191970" stroke="#191970" points="1425.8695,-345.7287 1433.2256,-338.1039 1422.7202,-339.4772 1425.8695,-345.7287"/>
</g>
<!-- Node6 -->
<g id="node7" class="node">
<title>Node6</title>
<polygon fill="none" stroke="#bfbfbf" points="1103.7901,-56.5 1103.7901,-75.5 1150.7901,-75.5 1150.7901,-56.5 1103.7901,-56.5"/>
<text text-anchor="middle" x="1127.2901" y="-63.5" font-family="Helvetica,sans-Serif" font-size="10.00" fill="#000000">vector</text>
</g>
<!-- Node1&#45;&gt;Node6 -->
<g id="edge6" class="edge">
<title>Node1&#45;&gt;Node6</title>
<path fill="none" stroke="#191970" d="M1314.6062,-380.3923C1304.281,-347.4375 1279.4384,-270.1175 1266.2901,-246 1230.7037,-180.7249 1172.2668,-114.092 1143.8467,-83.4132"/>
<polygon fill="#191970" stroke="#191970" points="1146.059,-80.6549 1136.6707,-75.7447 1140.9479,-85.4378 1146.059,-80.6549"/>
</g>
<!-- Node7&#45;&gt;Node8 -->
<g id="edge8" class="edge">
<title>Node7&#45;&gt;Node8</title>
<path fill="none" stroke="#191970" d="M1509.4595,-380.4043C1534.9208,-370.4288 1568.7534,-356.8663 1598.2901,-344 1599.6321,-343.4154 1601.0009,-342.81 1602.3807,-342.1923"/>
<polygon fill="#191970" stroke="#191970" points="1603.8438,-345.3718 1611.4795,-338.027 1600.9301,-339.0071 1603.8438,-345.3718"/>
</g>
<!-- Node9&#45;&gt;Node10 -->
<g id="edge10" class="edge">
<title>Node9&#45;&gt;Node10</title>
<path fill="none" stroke="#191970" d="M572.243,-392.3954C694.4192,-386.0997 951.2433,-370.1641 1036.2901,-344 1081.3134,-330.1489 1128.1627,-302.0597 1157.5059,-282.5281"/>
<polygon fill="#191970" stroke="#191970" points="1159.7045,-285.2666 1166.029,-276.7665 1155.7842,-279.4673 1159.7045,-285.2666"/>
</g>
<!-- Node11 -->
<g id="node12" class="node">
<title>Node11</title>
<polygon fill="none" stroke="#bfbfbf" points="576.2901,-.5 576.2901,-19.5 620.2901,-19.5 620.2901,-.5 576.2901,-.5"/>
<text text-anchor="middle" x="598.2901" y="-7.5" font-family="Helvetica,sans-Serif" font-size="10.00" fill="#000000">string</text>
</g>
<!-- Node9&#45;&gt;Node11 -->
<g id="edge52" class="edge">
<title>Node9&#45;&gt;Node11</title>
<path fill="none" stroke="#191970" d="M440.6193,-392.7165C315.3808,-386.8082 52.0654,-371.2718 21.2901,-344 -6.8704,-319.0453 2.2901,-299.1265 2.2901,-261.5 2.2901,-261.5 2.2901,-261.5 2.2901,-127.5 2.2901,-93.9798 -.1165,-76.647 26.2901,-56 68.915,-22.6722 451.1087,-12.7827 565.8582,-10.5521"/>
<polygon fill="#191970" stroke="#191970" points="566.1753,-14.0469 576.1078,-10.3596 566.0438,-7.0481 566.1753,-14.0469"/>
</g>
<!-- Node12 -->
<g id="node13" class="node">
<title>Node12</title>
<g id="a_node13"><a xlink:href="../../dd/dbf/DataInterpreter_8h.html" target="_top" xlink:title="EventVisualisationBase\l/DataInterpreter.h">
<polygon fill="none" stroke="#000000" points="896.7901,-313.5 896.7901,-343.5 1027.7901,-343.5 1027.7901,-313.5 896.7901,-313.5"/>
<text text-anchor="start" x="904.7901" y="-331.5" font-family="Helvetica,sans-Serif" font-size="10.00" fill="#000000">EventVisualisationBase</text>
<text text-anchor="middle" x="962.2901" y="-320.5" font-family="Helvetica,sans-Serif" font-size="10.00" fill="#000000">/DataInterpreter.h</text>
</a>
</g>
</g>
<!-- Node9&#45;&gt;Node12 -->
<g id="edge12" class="edge">
<title>Node9&#45;&gt;Node12</title>
<path fill="none" stroke="#191970" d="M572.1095,-385.8292C655.468,-373.5813 798.7931,-352.5226 886.5934,-339.6221"/>
<polygon fill="#191970" stroke="#191970" points="887.1058,-343.0845 896.4908,-338.1679 886.0882,-336.1588 887.1058,-343.0845"/>
</g>
<!-- Node21 -->
<g id="node22" class="node">
<title>Node21</title>
<polygon fill="none" stroke="#bfbfbf" points="811.2901,-252 811.2901,-271 901.2901,-271 901.2901,-252 811.2901,-252"/>
<text text-anchor="middle" x="856.2901" y="-259" font-family="Helvetica,sans-Serif" font-size="10.00" fill="#000000">TEveElement.h</text>
</g>
<!-- Node9&#45;&gt;Node21 -->
<g id="edge49" class="edge">
<title>Node9&#45;&gt;Node21</title>
<path fill="none" stroke="#191970" d="M546.7939,-380.3948C574.0872,-370.1865 610.8852,-356.366 643.2901,-344 706.5741,-319.8504 780.2322,-291.1998 822.2486,-274.8053"/>
<polygon fill="#191970" stroke="#191970" points="823.6794,-278.004 831.7221,-271.1072 821.1339,-271.4833 823.6794,-278.004"/>
</g>
<!-- Node22 -->
<g id="node23" class="node">
<title>Node22</title>
<g id="a_node23"><a xlink:href="../../d7/dec/EventVisualisation_2Base_2include_2EventVisualisationBase_2DataReader_8h.html" target="_top" xlink:title="EventVisualisationBase\l/DataReader.h">
<polygon fill="none" stroke="#000000" points="30.7901,-313.5 30.7901,-343.5 161.7901,-343.5 161.7901,-313.5 30.7901,-313.5"/>
<text text-anchor="start" x="38.7901" y="-331.5" font-family="Helvetica,sans-Serif" font-size="10.00" fill="#000000">EventVisualisationBase</text>
<text text-anchor="middle" x="96.2901" y="-320.5" font-family="Helvetica,sans-Serif" font-size="10.00" fill="#000000">/DataReader.h</text>
</a>
</g>
</g>
<!-- Node9&#45;&gt;Node22 -->
<g id="edge30" class="edge">
<title>Node9&#45;&gt;Node22</title>
<path fill="none" stroke="#191970" d="M440.7592,-386.5315C375.0978,-377.3015 270.9076,-361.9955 171.8939,-344.2431"/>
<polygon fill="#191970" stroke="#191970" points="172.4839,-340.7931 162.0213,-342.4616 171.2408,-347.6818 172.4839,-340.7931"/>
</g>
<!-- Node23 -->
<g id="node24" class="node">
<title>Node23</title>
<g id="a_node24"><a xlink:href="../../d5/df3/BasicCCDBManager_8h.html" target="_top" xlink:title="CCDB/BasicCCDBManager.h">
<polygon fill="none" stroke="#000000" points="482.2901,-319 482.2901,-338 634.2901,-338 634.2901,-319 482.2901,-319"/>
<text text-anchor="middle" x="558.2901" y="-326" font-family="Helvetica,sans-Serif" font-size="10.00" fill="#000000">CCDB/BasicCCDBManager.h</text>
</a>
</g>
</g>
<!-- Node9&#45;&gt;Node23 -->
<g id="edge31" class="edge">
<title>Node9&#45;&gt;Node23</title>
<path fill="none" stroke="#191970" d="M518.0897,-380.2967C525.9556,-370.1618 536.3228,-356.804 544.5589,-346.1921"/>
<polygon fill="#191970" stroke="#191970" points="547.508,-348.1008 550.8743,-338.055 541.9781,-343.8089 547.508,-348.1008"/>
</g>
<!-- Node24 -->
<g id="node25" class="node">
<title>Node24</title>
<g id="a_node25"><a xlink:href="../../dd/d3e/CcdbApi_8h.html" target="_top" xlink:title="CCDB/CcdbApi.h">
<polygon fill="none" stroke="#000000" points="289.2901,-252 289.2901,-271 385.2901,-271 385.2901,-252 289.2901,-252"/>
<text text-anchor="middle" x="337.2901" y="-259" font-family="Helvetica,sans-Serif" font-size="10.00" fill="#000000">CCDB/CcdbApi.h</text>
</a>
</g>
</g>
<!-- Node9&#45;&gt;Node24 -->
<g id="edge48" class="edge">
<title>Node9&#45;&gt;Node24</title>
<path fill="none" stroke="#191970" d="M487.2322,-380.389C455.0597,-354.8794 390.2757,-303.5122 357.4046,-277.4487"/>
<polygon fill="#191970" stroke="#191970" points="359.4132,-274.5746 349.4029,-271.1042 355.0641,-280.0597 359.4132,-274.5746"/>
</g>
<!-- Node36 -->
<g id="node37" class="node">
<title>Node36</title>
<polygon fill="none" stroke="#bfbfbf" points="179.7901,-319 179.7901,-338 298.7901,-338 298.7901,-319 179.7901,-319"/>
<text text-anchor="middle" x="239.2901" y="-326" font-family="Helvetica,sans-Serif" font-size="10.00" fill="#000000">TEveEventManager.h</text>
</g>
<!-- Node9&#45;&gt;Node36 -->
<g id="edge50" class="edge">
<title>Node9&#45;&gt;Node36</title>
<path fill="none" stroke="#191970" d="M446.3701,-380.4639C398.1992,-368.3761 331.441,-351.624 286.8811,-340.4423"/>
<polygon fill="#191970" stroke="#191970" points="287.7206,-337.0445 277.1694,-338.0053 286.0168,-343.834 287.7206,-337.0445"/>
</g>
<!-- Node37 -->
<g id="node38" class="node">
<title>Node37</title>
<polygon fill="none" stroke="#bfbfbf" points="316.7901,-319 316.7901,-338 387.7901,-338 387.7901,-319 316.7901,-319"/>
<text text-anchor="middle" x="352.2901" y="-326" font-family="Helvetica,sans-Serif" font-size="10.00" fill="#000000">TQObject.h</text>
</g>
<!-- Node9&#45;&gt;Node37 -->
<g id="edge51" class="edge">
<title>Node9&#45;&gt;Node37</title>
<path fill="none" stroke="#191970" d="M471.7295,-380.4639C445.3083,-368.969 409.1923,-353.2561 383.6111,-342.1266"/>
<polygon fill="#191970" stroke="#191970" points="384.9309,-338.884 374.3648,-338.1039 382.1383,-345.3028 384.9309,-338.884"/>
</g>
<!-- Node10&#45;&gt;Node11 -->
<g id="edge11" class="edge">
<title>Node10&#45;&gt;Node11</title>
<path fill="none" stroke="#191970" d="M1190.7779,-246.3276C1198.5912,-208.0083 1212.8644,-106.7767 1159.2901,-56 1120.812,-19.5311 744.476,-11.8364 630.7041,-10.3383"/>
<polygon fill="#191970" stroke="#191970" points="630.5765,-6.8366 620.5338,-10.2119 630.4895,-13.836 630.5765,-6.8366"/>
</g>
<!-- Node12&#45;&gt;Node10 -->
<g id="edge13" class="edge">
<title>Node12&#45;&gt;Node10</title>
<path fill="none" stroke="#191970" d="M1012.7845,-313.4639C1046.5373,-303.4131 1091.1193,-290.1375 1126.7726,-279.5208"/>
<polygon fill="#191970" stroke="#191970" points="1127.9903,-282.8101 1136.5755,-276.6017 1125.9925,-276.1013 1127.9903,-282.8101"/>
</g>
<!-- Node13 -->
<g id="node14" class="node">
<title>Node13</title>
<g id="a_node14"><a xlink:href="../../d0/d35/VisualisationEvent_8h.html" target="_top" xlink:title="EventVisualisationDataConverter\l/VisualisationEvent.h">
<polygon fill="none" stroke="#000000" points="919.7901,-246.5 919.7901,-276.5 1098.7901,-276.5 1098.7901,-246.5 919.7901,-246.5"/>
<text text-anchor="start" x="927.7901" y="-264.5" font-family="Helvetica,sans-Serif" font-size="10.00" fill="#000000">EventVisualisationDataConverter</text>
<text text-anchor="middle" x="1009.2901" y="-253.5" font-family="Helvetica,sans-Serif" font-size="10.00" fill="#000000">/VisualisationEvent.h</text>
</a>
</g>
</g>
<!-- Node12&#45;&gt;Node13 -->
<g id="edge14" class="edge">
<title>Node12&#45;&gt;Node13</title>
<path fill="none" stroke="#191970" d="M972.9552,-313.2967C978.8442,-304.9016 986.2845,-294.2952 992.8964,-284.8698"/>
<polygon fill="#191970" stroke="#191970" points="995.7898,-286.8398 998.6673,-276.6432 990.0591,-282.8198 995.7898,-286.8398"/>
</g>
<!-- Node12&#45;&gt;Node21 -->
<g id="edge29" class="edge">
<title>Node12&#45;&gt;Node21</title>
<path fill="none" stroke="#191970" d="M938.5017,-313.4639C921.0367,-302.4247 897.4172,-287.4954 879.9763,-276.4715"/>
<polygon fill="#191970" stroke="#191970" points="881.8074,-273.4883 871.4844,-271.1039 878.0674,-279.4054 881.8074,-273.4883"/>
</g>
<!-- Node13&#45;&gt;Node6 -->
<g id="edge27" class="edge">
<title>Node13&#45;&gt;Node6</title>
<path fill="none" stroke="#191970" d="M1058.4799,-246.459C1076.5849,-238.4749 1095.5223,-226.7486 1107.2901,-210 1133.6667,-172.4593 1132.6689,-115.6272 1129.8731,-85.828"/>
<polygon fill="#191970" stroke="#191970" points="1133.3452,-85.3819 1128.7668,-75.8274 1126.3876,-86.1516 1133.3452,-85.3819"/>
</g>
<!-- Node14 -->
<g id="node15" class="node">
<title>Node14</title>
<g id="a_node15"><a xlink:href="../../d0/d40/VisualisationTrack_8h.html" target="_top" xlink:title="EventVisualisationDataConverter\l/VisualisationTrack.h">
<polygon fill="none" stroke="#000000" points="859.7901,-112.5 859.7901,-142.5 1038.7901,-142.5 1038.7901,-112.5 859.7901,-112.5"/>
<text text-anchor="start" x="867.7901" y="-130.5" font-family="Helvetica,sans-Serif" font-size="10.00" fill="#000000">EventVisualisationDataConverter</text>
<text text-anchor="middle" x="949.2901" y="-119.5" font-family="Helvetica,sans-Serif" font-size="10.00" fill="#000000">/VisualisationTrack.h</text>
</a>
</g>
</g>
<!-- Node13&#45;&gt;Node14 -->
<g id="edge15" class="edge">
<title>Node13&#45;&gt;Node14</title>
<path fill="none" stroke="#191970" d="M956.3081,-246.4668C938.5183,-238.6136 920.5945,-226.9756 910.2901,-210 898.5628,-190.6802 912.0162,-167.2737 926.2281,-150.3346"/>
<polygon fill="#191970" stroke="#191970" points="929.1015,-152.372 933.1587,-142.5847 923.8836,-147.7057 929.1015,-152.372"/>
</g>
<!-- Node19 -->
<g id="node20" class="node">
<title>Node19</title>
<g id="a_node20"><a xlink:href="../../d5/d20/VisualisationCluster_8h.html" target="_top" xlink:title="EventVisualisationDataConverter\l/VisualisationCluster.h">
<polygon fill="none" stroke="#000000" points="919.7901,-179.5 919.7901,-209.5 1098.7901,-209.5 1098.7901,-179.5 919.7901,-179.5"/>
<text text-anchor="start" x="927.7901" y="-197.5" font-family="Helvetica,sans-Serif" font-size="10.00" fill="#000000">EventVisualisationDataConverter</text>
<text text-anchor="middle" x="1009.2901" y="-186.5" font-family="Helvetica,sans-Serif" font-size="10.00" fill="#000000">/VisualisationCluster.h</text>
</a>
</g>
</g>
<!-- Node13&#45;&gt;Node19 -->
<g id="edge23" class="edge">
<title>Node13&#45;&gt;Node19</title>
<path fill="none" stroke="#191970" d="M1009.2901,-246.2967C1009.2901,-238.5013 1009.2901,-228.7991 1009.2901,-219.9064"/>
<polygon fill="#191970" stroke="#191970" points="1012.7902,-219.6431 1009.2901,-209.6432 1005.7902,-219.6432 1012.7902,-219.6431"/>
</g>
<!-- Node20 -->
<g id="node21" class="node">
<title>Node20</title>
<polygon fill="none" stroke="#bfbfbf" points="797.2901,-118 797.2901,-137 841.2901,-137 841.2901,-118 797.2901,-118"/>
<text text-anchor="middle" x="819.2901" y="-125" font-family="Helvetica,sans-Serif" font-size="10.00" fill="#000000">ctime</text>
</g>
<!-- Node13&#45;&gt;Node20 -->
<g id="edge28" class="edge">
<title>Node13&#45;&gt;Node20</title>
<path fill="none" stroke="#191970" d="M970.1854,-246.4244C949.1273,-237.4046 923.2472,-224.8189 902.2901,-210 875.4887,-191.0485 849.4581,-163.1587 833.9,-145.1608"/>
<polygon fill="#191970" stroke="#191970" points="836.2854,-142.5623 827.1463,-137.2025 830.9483,-147.0917 836.2854,-142.5623"/>
</g>
<!-- Node14&#45;&gt;Node6 -->
<g id="edge20" class="edge">
<title>Node14&#45;&gt;Node6</title>
<path fill="none" stroke="#191970" d="M992.8338,-112.4554C1023.9528,-101.7036 1065.2068,-87.4501 1093.7738,-77.5801"/>
<polygon fill="#191970" stroke="#191970" points="1095.003,-80.8585 1103.3117,-74.2847 1092.717,-74.2423 1095.003,-80.8585"/>
</g>
<!-- Node14&#45;&gt;Node11 -->
<g id="edge19" class="edge">
<title>Node14&#45;&gt;Node11</title>
<path fill="none" stroke="#191970" d="M945.0269,-112.4666C939.463,-95.7914 928.0298,-69.4678 908.2901,-56 863.5096,-25.4475 700.6122,-14.5874 630.6152,-11.2746"/>
<polygon fill="#191970" stroke="#191970" points="630.7461,-7.777 620.5984,-10.8224 630.4304,-14.7699 630.7461,-7.777"/>
</g>
<!-- Node15 -->
<g id="node16" class="node">
<title>Node15</title>
<g id="a_node16"><a xlink:href="../../de/ddf/ConversionConstants_8h.html" target="_top" xlink:title="ConversionConstants.h">
<polygon fill="none" stroke="#000000" points="956.7901,-56.5 956.7901,-75.5 1085.7901,-75.5 1085.7901,-56.5 956.7901,-56.5"/>
<text text-anchor="middle" x="1021.2901" y="-63.5" font-family="Helvetica,sans-Serif" font-size="10.00" fill="#000000">ConversionConstants.h</text>
</a>
</g>
</g>
<!-- Node14&#45;&gt;Node15 -->
<g id="edge16" class="edge">
<title>Node14&#45;&gt;Node15</title>
<path fill="none" stroke="#191970" d="M967.0879,-112.2977C977.7069,-103.2274 991.1933,-91.7077 1002.0568,-82.4285"/>
<polygon fill="#191970" stroke="#191970" points="1004.4315,-85.0031 1009.762,-75.8469 999.8851,-79.6805 1004.4315,-85.0031"/>
</g>
<!-- Node16 -->
<g id="node17" class="node">
<title>Node16</title>
<polygon fill="none" stroke="#bfbfbf" points="724.7901,-56.5 724.7901,-75.5 773.7901,-75.5 773.7901,-56.5 724.7901,-56.5"/>
<text text-anchor="middle" x="749.2901" y="-63.5" font-family="Helvetica,sans-Serif" font-size="10.00" fill="#000000">iosfwd</text>
</g>
<!-- Node14&#45;&gt;Node16 -->
<g id="edge18" class="edge">
<title>Node14&#45;&gt;Node16</title>
<path fill="none" stroke="#191970" d="M900.3646,-112.4554C864.2593,-101.353 816.0115,-86.5168 783.8553,-76.6288"/>
<polygon fill="#191970" stroke="#191970" points="784.6033,-73.1971 774.0162,-73.6033 782.5458,-79.8879 784.6033,-73.1971"/>
</g>
<!-- Node17 -->
<g id="node18" class="node">
<title>Node17</title>
<polygon fill="none" stroke="#bfbfbf" points="792.2901,-56.5 792.2901,-75.5 834.2901,-75.5 834.2901,-56.5 792.2901,-56.5"/>
<text text-anchor="middle" x="813.2901" y="-63.5" font-family="Helvetica,sans-Serif" font-size="10.00" fill="#000000">array</text>
</g>
<!-- Node14&#45;&gt;Node17 -->
<g id="edge21" class="edge">
<title>Node14&#45;&gt;Node17</title>
<path fill="none" stroke="#191970" d="M916.0208,-112.4554C893.926,-102.464 865.1441,-89.4487 843.6682,-79.7372"/>
<polygon fill="#191970" stroke="#191970" points="844.9191,-76.4616 834.3653,-75.5303 842.0349,-82.8398 844.9191,-76.4616"/>
</g>
<!-- Node18 -->
<g id="node19" class="node">
<title>Node18</title>
<polygon fill="none" stroke="#bfbfbf" points="852.7901,-56.5 852.7901,-75.5 899.7901,-75.5 899.7901,-56.5 852.7901,-56.5"/>
<text text-anchor="middle" x="876.2901" y="-63.5" font-family="Helvetica,sans-Serif" font-size="10.00" fill="#000000">cmath</text>
</g>
<!-- Node14&#45;&gt;Node18 -->
<g id="edge22" class="edge">
<title>Node14&#45;&gt;Node18</title>
<path fill="none" stroke="#191970" d="M931.2452,-112.2977C920.4787,-103.2274 906.805,-91.7077 895.7906,-82.4285"/>
<polygon fill="#191970" stroke="#191970" points="897.8812,-79.6132 887.9784,-75.8469 893.3711,-84.9667 897.8812,-79.6132"/>
</g>
<!-- Node15&#45;&gt;Node11 -->
<g id="edge17" class="edge">
<title>Node15&#45;&gt;Node11</title>
<path fill="none" stroke="#191970" d="M956.5851,-57.4338C864.7577,-45.277 700.0811,-23.4759 630.6105,-14.2788"/>
<polygon fill="#191970" stroke="#191970" points="630.677,-10.7572 620.3041,-12.9144 629.7582,-17.6966 630.677,-10.7572"/>
</g>
<!-- Node19&#45;&gt;Node6 -->
<g id="edge25" class="edge">
<title>Node19&#45;&gt;Node6</title>
<path fill="none" stroke="#191970" d="M1023.2897,-179.2548C1045.4346,-155.1393 1088.4036,-108.3468 1111.5741,-83.1145"/>
<polygon fill="#191970" stroke="#191970" points="1114.1641,-85.4687 1118.3499,-75.7358 1109.0081,-80.7341 1114.1641,-85.4687"/>
</g>
<!-- Node19&#45;&gt;Node14 -->
<g id="edge24" class="edge">
<title>Node19&#45;&gt;Node14</title>
<path fill="none" stroke="#191970" d="M995.6752,-179.2967C988.0038,-170.7303 978.2705,-159.8614 969.7029,-150.2943"/>
<polygon fill="#191970" stroke="#191970" points="972.1298,-147.7578 962.8512,-142.6432 966.9151,-152.4276 972.1298,-147.7578"/>
</g>
<!-- Node19&#45;&gt;Node20 -->
<g id="edge26" class="edge">
<title>Node19&#45;&gt;Node20</title>
<path fill="none" stroke="#191970" d="M955.935,-179.4097C924.7243,-170.0424 884.798,-157.1218 850.2901,-143 849.0998,-142.5129 847.8921,-141.999 846.6782,-141.4663"/>
<polygon fill="#191970" stroke="#191970" points="847.9795,-138.2111 837.4386,-137.144 845.0134,-144.5516 847.9795,-138.2111"/>
</g>
<!-- Node23&#45;&gt;Node11 -->
<g id="edge44" class="edge">
<title>Node23&#45;&gt;Node11</title>
<path fill="none" stroke="#191970" d="M560.3014,-318.7102C564.3957,-298.4836 573.7763,-250.5783 579.2901,-210 588.2315,-144.1978 594.3825,-65.6471 596.9479,-29.7081"/>
<polygon fill="#191970" stroke="#191970" points="600.448,-29.8267 597.6538,-19.607 593.4651,-29.3387 600.448,-29.8267"/>
</g>
<!-- Node23&#45;&gt;Node24 -->
<g id="edge32" class="edge">
<title>Node23&#45;&gt;Node24</title>
<path fill="none" stroke="#191970" d="M526.6262,-318.9005C487.6502,-307.0843 421.3693,-286.9901 378.4705,-273.9845"/>
<polygon fill="#191970" stroke="#191970" points="379.4807,-270.6335 368.8953,-271.0817 377.4497,-277.3325 379.4807,-270.6335"/>
</g>
<!-- Node25 -->
<g id="node26" class="node">
<title>Node25</title>
<polygon fill="none" stroke="#bfbfbf" points="512.2901,-185 512.2901,-204 570.2901,-204 570.2901,-185 512.2901,-185"/>
<text text-anchor="middle" x="541.2901" y="-192" font-family="Helvetica,sans-Serif" font-size="10.00" fill="#000000">memory</text>
</g>
<!-- Node23&#45;&gt;Node25 -->
<g id="edge47" class="edge">
<title>Node23&#45;&gt;Node25</title>
<path fill="none" stroke="#191970" d="M498.2029,-318.9959C473.4724,-311.8007 447.178,-299.1686 432.2901,-277 424.6088,-265.5622 424.9167,-257.6387 432.2901,-246 436.7498,-238.9605 477.8477,-220.7474 508.2707,-207.988"/>
<polygon fill="#191970" stroke="#191970" points="509.8258,-211.1319 517.7132,-204.0581 507.136,-204.6693 509.8258,-211.1319"/>
</g>
<!-- Node26 -->
<g id="node27" class="node">
<title>Node26</title>
<polygon fill="none" stroke="#bfbfbf" points="695.2901,-185 695.2901,-204 733.2901,-204 733.2901,-185 695.2901,-185"/>
<text text-anchor="middle" x="714.2901" y="-192" font-family="Helvetica,sans-Serif" font-size="10.00" fill="#000000">map</text>
</g>
<!-- Node23&#45;&gt;Node26 -->
<g id="edge45" class="edge">
<title>Node23&#45;&gt;Node26</title>
<path fill="none" stroke="#191970" d="M634.5089,-319.1804C685.9462,-311.1436 747.2678,-297.5453 763.2901,-277 780.0374,-255.5251 755.4143,-227.8348 735.4281,-210.6244"/>
<polygon fill="#191970" stroke="#191970" points="737.4996,-207.7964 727.5515,-204.1512 733.0551,-213.2045 737.4996,-207.7964"/>
</g>
<!-- Node34 -->
<g id="node35" class="node">
<title>Node34</title>
<g id="a_node35"><a xlink:href="../../da/d86/CCDBTimeStampUtils_8h.html" target="_top" xlink:title="CCDB/CCDBTimeStampUtils.h">
<polygon fill="none" stroke="#000000" points="591.7901,-252 591.7901,-271 754.7901,-271 754.7901,-252 591.7901,-252"/>
<text text-anchor="middle" x="673.2901" y="-259" font-family="Helvetica,sans-Serif" font-size="10.00" fill="#000000">CCDB/CCDBTimeStampUtils.h</text>
</a>
</g>
</g>
<!-- Node23&#45;&gt;Node34 -->
<g id="edge43" class="edge">
<title>Node23&#45;&gt;Node34</title>
<path fill="none" stroke="#191970" d="M574.7668,-318.9005C593.8956,-307.7559 625.6635,-289.2477 647.9417,-276.2682"/>
<polygon fill="#191970" stroke="#191970" points="649.9654,-279.1399 656.844,-271.0817 646.4415,-273.0916 649.9654,-279.1399"/>
</g>
<!-- Node35 -->
<g id="node36" class="node">
<title>Node35</title>
<polygon fill="none" stroke="#bfbfbf" points="441.7901,-252 441.7901,-271 534.7901,-271 534.7901,-252 441.7901,-252"/>
<text text-anchor="middle" x="488.2901" y="-259" font-family="Helvetica,sans-Serif" font-size="10.00" fill="#000000">unordered_map</text>
</g>
<!-- Node23&#45;&gt;Node35 -->
<g id="edge46" class="edge">
<title>Node23&#45;&gt;Node35</title>
<path fill="none" stroke="#191970" d="M548.2608,-318.9005C537.137,-308.2535 518.9915,-290.8856 505.5691,-278.0385"/>
<polygon fill="#191970" stroke="#191970" points="507.9451,-275.4678 498.3008,-271.0817 503.1049,-280.5247 507.9451,-275.4678"/>
</g>
<!-- Node24&#45;&gt;Node11 -->
<g id="edge33" class="edge">
<title>Node24&#45;&gt;Node11</title>
<path fill="none" stroke="#191970" d="M377.1288,-251.9673C403.9042,-244.0654 438.8189,-230.7187 464.2901,-210 527.9842,-158.1901 572.8308,-68.1247 590.2496,-29.0238"/>
<polygon fill="#191970" stroke="#191970" points="593.4713,-30.3918 594.2561,-19.826 587.0537,-27.5963 593.4713,-30.3918"/>
</g>
<!-- Node24&#45;&gt;Node25 -->
<g id="edge34" class="edge">
<title>Node24&#45;&gt;Node25</title>
<path fill="none" stroke="#191970" d="M368.2645,-251.9592C400.763,-241.8633 453.2798,-225.3055 498.2901,-210 500.5722,-209.224 502.9181,-208.4139 505.2805,-207.5888"/>
<polygon fill="#191970" stroke="#191970" points="506.7056,-210.7972 514.9644,-204.1607 504.3696,-204.1985 506.7056,-210.7972"/>
</g>
<!-- Node24&#45;&gt;Node26 -->
<g id="edge35" class="edge">
<title>Node24&#45;&gt;Node26</title>
<path fill="none" stroke="#191970" d="M385.4204,-252.9463C464.7719,-238.8441 620.6868,-211.1351 685.2399,-199.6628"/>
<polygon fill="#191970" stroke="#191970" points="685.9092,-203.0988 695.1425,-197.9029 684.6843,-196.2067 685.9092,-203.0988"/>
</g>
<!-- Node27 -->
<g id="node28" class="node">
<title>Node27</title>
<polygon fill="none" stroke="#bfbfbf" points="309.7901,-185 309.7901,-204 374.7901,-204 374.7901,-185 309.7901,-185"/>
<text text-anchor="middle" x="342.2901" y="-192" font-family="Helvetica,sans-Serif" font-size="10.00" fill="#000000">curl/curl.h</text>
</g>
<!-- Node24&#45;&gt;Node27 -->
<g id="edge36" class="edge">
<title>Node24&#45;&gt;Node27</title>
<path fill="none" stroke="#191970" d="M338.0065,-251.9005C338.7342,-242.149 339.8827,-226.7597 340.8073,-214.3695"/>
<polygon fill="#191970" stroke="#191970" points="344.3211,-214.3144 341.5751,-204.0817 337.3405,-213.7934 344.3211,-214.3144"/>
</g>
<!-- Node28 -->
<g id="node29" class="node">
<title>Node28</title>
<polygon fill="none" stroke="#bfbfbf" points="392.7901,-185 392.7901,-204 455.7901,-204 455.7901,-185 392.7901,-185"/>
<text text-anchor="middle" x="424.2901" y="-192" font-family="Helvetica,sans-Serif" font-size="10.00" fill="#000000">TObject.h</text>
</g>
<!-- Node24&#45;&gt;Node28 -->
<g id="edge37" class="edge">
<title>Node24&#45;&gt;Node28</title>
<path fill="none" stroke="#191970" d="M349.7551,-251.9005C363.8388,-241.0544 386.9789,-223.2339 403.744,-210.3229"/>
<polygon fill="#191970" stroke="#191970" points="406.0609,-212.9562 411.8483,-204.0817 401.7899,-207.4102 406.0609,-212.9562"/>
</g>
<!-- Node29 -->
<g id="node30" class="node">
<title>Node29</title>
<polygon fill="none" stroke="#bfbfbf" points="68.2901,-185 68.2901,-204 142.2901,-204 142.2901,-185 68.2901,-185"/>
<text text-anchor="middle" x="105.2901" y="-192" font-family="Helvetica,sans-Serif" font-size="10.00" fill="#000000">TMessage.h</text>
</g>
<!-- Node24&#45;&gt;Node29 -->
<g id="edge38" class="edge">
<title>Node24&#45;&gt;Node29</title>
<path fill="none" stroke="#191970" d="M300.4142,-251.929C262.7615,-242.0069 202.7049,-225.7672 151.2901,-210 148.4954,-209.1429 145.6134,-208.2336 142.7193,-207.3018"/>
<polygon fill="#191970" stroke="#191970" points="143.5338,-203.8855 132.941,-204.091 141.35,-210.5361 143.5338,-203.8855"/>
</g>
<!-- Node30 -->
<g id="node31" class="node">
<title>Node30</title>
<g id="a_node31"><a xlink:href="../../d4/dab/CcdbObjectInfo_8h.html" target="_top" xlink:title="CCDB/CcdbObjectInfo.h">
<polygon fill="none" stroke="#000000" points="160.7901,-185 160.7901,-204 291.7901,-204 291.7901,-185 160.7901,-185"/>
<text text-anchor="middle" x="226.2901" y="-192" font-family="Helvetica,sans-Serif" font-size="10.00" fill="#000000">CCDB/CcdbObjectInfo.h</text>
</a>
</g>
</g>
<!-- Node24&#45;&gt;Node30 -->
<g id="edge39" class="edge">
<title>Node24&#45;&gt;Node30</title>
<path fill="none" stroke="#191970" d="M321.3865,-251.9005C302.9231,-240.7559 272.2602,-222.2477 250.7569,-209.2682"/>
<polygon fill="#191970" stroke="#191970" points="252.5342,-206.2529 242.1642,-204.0817 248.9168,-212.2458 252.5342,-206.2529"/>
</g>
<!-- Node31 -->
<g id="node32" class="node">
<title>Node31</title>
<polygon fill="none" stroke="#bfbfbf" points="144.7901,-118 144.7901,-137 203.7901,-137 203.7901,-118 144.7901,-118"/>
<text text-anchor="middle" x="174.2901" y="-125" font-family="Helvetica,sans-Serif" font-size="10.00" fill="#000000">Rtypes.h</text>
</g>
<!-- Node30&#45;&gt;Node31 -->
<g id="edge40" class="edge">
<title>Node30&#45;&gt;Node31</title>
<path fill="none" stroke="#191970" d="M218.8398,-184.9005C210.8081,-174.552 197.8486,-157.8542 187.9727,-145.1295"/>
<polygon fill="#191970" stroke="#191970" points="190.6229,-142.8356 181.7266,-137.0817 185.093,-147.1275 190.6229,-142.8356"/>
</g>
<!-- Node32 -->
<g id="node33" class="node">
<title>Node32</title>
<g id="a_node33"><a xlink:href="../../dd/da4/Logger_8h.html" target="_top" xlink:title="Framework/Logger.h">
<polygon fill="none" stroke="#000000" points="221.7901,-118 221.7901,-137 336.7901,-137 336.7901,-118 221.7901,-118"/>
<text text-anchor="middle" x="279.2901" y="-125" font-family="Helvetica,sans-Serif" font-size="10.00" fill="#000000">Framework/Logger.h</text>
</a>
</g>
</g>
<!-- Node30&#45;&gt;Node32 -->
<g id="edge41" class="edge">
<title>Node30&#45;&gt;Node32</title>
<path fill="none" stroke="#191970" d="M233.8837,-184.9005C242.0699,-174.552 255.2786,-157.8542 265.3444,-145.1295"/>
<polygon fill="#191970" stroke="#191970" points="268.2515,-147.0959 271.7106,-137.0817 262.7615,-142.7531 268.2515,-147.0959"/>
</g>
<!-- Node33 -->
<g id="node34" class="node">
<title>Node33</title>
<polygon fill="none" stroke="#bfbfbf" points="225.2901,-56.5 225.2901,-75.5 333.2901,-75.5 333.2901,-56.5 225.2901,-56.5"/>
<text text-anchor="middle" x="279.2901" y="-63.5" font-family="Helvetica,sans-Serif" font-size="10.00" fill="#000000">fairlogger/Logger.h</text>
</g>
<!-- Node32&#45;&gt;Node33 -->
<g id="edge42" class="edge">
<title>Node32&#45;&gt;Node33</title>
<path fill="none" stroke="#191970" d="M279.2901,-117.8906C279.2901,-109.3657 279.2901,-96.6392 279.2901,-85.9235"/>
<polygon fill="#191970" stroke="#191970" points="282.7902,-85.7448 279.2901,-75.7449 275.7902,-85.7449 282.7902,-85.7448"/>
</g>
<!-- Node38&#45;&gt;Node3 -->
<g id="edge54" class="edge">
<title>Node38&#45;&gt;Node3</title>
<path fill="none" stroke="#191970" d="M1073.8903,-380.4639C1103.7483,-368.8332 1144.6916,-352.8843 1173.3159,-341.7342"/>
<polygon fill="#191970" stroke="#191970" points="1174.8409,-344.8963 1182.8885,-338.0053 1172.3001,-338.3737 1174.8409,-344.8963"/>
</g>
<!-- Node38&#45;&gt;Node11 -->
<g id="edge55" class="edge">
<title>Node38&#45;&gt;Node11</title>
<path fill="none" stroke="#191970" d="M969.6063,-391.8858C842.2017,-384.4796 565.9091,-366.3773 473.2901,-344 437.4304,-335.3361 431.0737,-325.2918 396.2901,-313 248.6218,-260.817 152.455,-335.894 59.2901,-210 1.1474,-131.4316 124.8953,-90.649 216.2901,-56 280.1207,-31.801 485.5227,-16.921 565.7521,-11.9046"/>
<polygon fill="#191970" stroke="#191970" points="566.4477,-15.3685 576.2144,-11.2622 566.0186,-8.3817 566.4477,-15.3685"/>
</g>
</g>
</svg>
