<?xml version="1.0" encoding="UTF-8" standalone="no"?>
<!DOCTYPE svg PUBLIC "-//W3C//DTD SVG 1.1//EN"
 "http://www.w3.org/Graphics/SVG/1.1/DTD/svg11.dtd">
<!-- Generated by graphviz version 2.40.1 (20161225.0304)
 -->
<!-- Title: /home/travis/build/AliceO2Group/AliceO2/DataFormats/Detectors/Common/src/CTFHeader.cxx Pages: 1 -->
<svg width="1247pt" height="419pt"
 viewBox="0.00 0.00 1247.00 419.00" xmlns="http://www.w3.org/2000/svg" xmlns:xlink="http://www.w3.org/1999/xlink">
<g id="graph0" class="graph" transform="scale(1 1) rotate(0) translate(4 415)">
<title>/home/travis/build/AliceO2Group/AliceO2/DataFormats/Detectors/Common/src/CTFHeader.cxx</title>
<!-- Node0 -->
<g id="node1" class="node">
<title>Node0</title>
<polygon fill="#bfbfbf" stroke="#000000" points="334.5,-358.5 334.5,-410.5 491.5,-410.5 491.5,-358.5 334.5,-358.5"/>
<text text-anchor="start" x="342.5" y="-398.5" font-family="Helvetica,sans-Serif" font-size="10.00" fill="#000000">/home/travis/build</text>
<text text-anchor="start" x="342.5" y="-387.5" font-family="Helvetica,sans-Serif" font-size="10.00" fill="#000000">/AliceO2Group/AliceO2</text>
<text text-anchor="start" x="342.5" y="-376.5" font-family="Helvetica,sans-Serif" font-size="10.00" fill="#000000">/DataFormats/Detectors</text>
<text text-anchor="middle" x="413" y="-365.5" font-family="Helvetica,sans-Serif" font-size="10.00" fill="#000000">/Common/src/CTFHeader.cxx</text>
</g>
<!-- Node1 -->
<g id="node2" class="node">
<title>Node1</title>
<g id="a_node2"><a xlink:href="../../df/d3a/CTFHeader_8h.html" target="_top" xlink:title="Header for CTF collection. ">
<polygon fill="none" stroke="#000000" points="247.5,-291.5 247.5,-321.5 418.5,-321.5 418.5,-291.5 247.5,-291.5"/>
<text text-anchor="start" x="255.5" y="-309.5" font-family="Helvetica,sans-Serif" font-size="10.00" fill="#000000">DetectorsCommonDataFormats</text>
<text text-anchor="middle" x="333" y="-298.5" font-family="Helvetica,sans-Serif" font-size="10.00" fill="#000000">/CTFHeader.h</text>
</a>
</g>
</g>
<!-- Node0&#45;&gt;Node1 -->
<g id="edge1" class="edge">
<title>Node0&#45;&gt;Node1</title>
<path fill="none" stroke="#191970" d="M385.9156,-358.0928C376.0438,-348.4677 364.9962,-337.6963 355.5591,-328.4951"/>
<polygon fill="#191970" stroke="#191970" points="357.9927,-325.9796 348.3893,-321.5046 353.106,-330.9916 357.9927,-325.9796"/>
</g>
<!-- Node26 -->
<g id="node27" class="node">
<title>Node26</title>
<g id="a_node27"><a xlink:href="../../dd/da4/Logger_8h.html" target="_top" xlink:title="Framework/Logger.h">
<polygon fill="none" stroke="#000000" points="499.5,-297 499.5,-316 614.5,-316 614.5,-297 499.5,-297"/>
<text text-anchor="middle" x="557" y="-304" font-family="Helvetica,sans-Serif" font-size="10.00" fill="#000000">Framework/Logger.h</text>
</a>
</g>
</g>
<!-- Node0&#45;&gt;Node26 -->
<g id="edge35" class="edge">
<title>Node0&#45;&gt;Node26</title>
<path fill="none" stroke="#191970" d="M461.3505,-358.3101C484.3814,-345.8351 511.0441,-331.3928 530.3592,-320.9304"/>
<polygon fill="#191970" stroke="#191970" points="532.0769,-323.9805 539.2029,-316.1401 528.7429,-317.8255 532.0769,-323.9805"/>
</g>
<!-- Node2 -->
<g id="node3" class="node">
<title>Node2</title>
<polygon fill="none" stroke="#bfbfbf" points="147.5,-168.5 147.5,-187.5 206.5,-187.5 206.5,-168.5 147.5,-168.5"/>
<text text-anchor="middle" x="177" y="-175.5" font-family="Helvetica,sans-Serif" font-size="10.00" fill="#000000">Rtypes.h</text>
</g>
<!-- Node1&#45;&gt;Node2 -->
<g id="edge2" class="edge">
<title>Node1&#45;&gt;Node2</title>
<path fill="none" stroke="#191970" d="M314.4921,-291.2548C284.8355,-266.8261 226.9292,-219.1276 196.597,-194.1424"/>
<polygon fill="#191970" stroke="#191970" points="198.7632,-191.3923 188.8193,-187.7358 194.3126,-196.7953 198.7632,-191.3923"/>
</g>
<!-- Node3 -->
<g id="node4" class="node">
<title>Node3</title>
<polygon fill="none" stroke="#bfbfbf" points="0,-112.5 0,-131.5 44,-131.5 44,-112.5 0,-112.5"/>
<text text-anchor="middle" x="22" y="-119.5" font-family="Helvetica,sans-Serif" font-size="10.00" fill="#000000">string</text>
</g>
<!-- Node1&#45;&gt;Node3 -->
<g id="edge3" class="edge">
<title>Node1&#45;&gt;Node3</title>
<path fill="none" stroke="#191970" d="M301.9943,-291.4026C282.0555,-281.4814 255.7219,-267.9795 233,-255 162.8595,-214.9333 82.9015,-162.6373 44.6778,-137.2099"/>
<polygon fill="#191970" stroke="#191970" points="46.5774,-134.2698 36.316,-131.6326 42.6931,-140.0933 46.5774,-134.2698"/>
</g>
<!-- Node4 -->
<g id="node5" class="node">
<title>Node4</title>
<g id="a_node5"><a xlink:href="../../d6/d31/DetID_8h.html" target="_top" xlink:title="DetectorsCommonDataFormats\l/DetID.h">
<polygon fill="none" stroke="#000000" points="383.5,-224.5 383.5,-254.5 554.5,-254.5 554.5,-224.5 383.5,-224.5"/>
<text text-anchor="start" x="391.5" y="-242.5" font-family="Helvetica,sans-Serif" font-size="10.00" fill="#000000">DetectorsCommonDataFormats</text>
<text text-anchor="middle" x="469" y="-231.5" font-family="Helvetica,sans-Serif" font-size="10.00" fill="#000000">/DetID.h</text>
</a>
</g>
</g>
<!-- Node1&#45;&gt;Node4 -->
<g id="edge4" class="edge">
<title>Node1&#45;&gt;Node4</title>
<path fill="none" stroke="#191970" d="M363.5211,-291.4639C382.8955,-281.9191 408.173,-269.4663 429.1257,-259.144"/>
<polygon fill="#191970" stroke="#191970" points="430.6865,-262.2768 438.1103,-254.7177 427.593,-255.9974 430.6865,-262.2768"/>
</g>
<!-- Node4&#45;&gt;Node2 -->
<g id="edge5" class="edge">
<title>Node4&#45;&gt;Node2</title>
<path fill="none" stroke="#191970" d="M394.8594,-224.4817C345.535,-214.3974 279.3317,-200.6841 221,-188 219.5647,-187.6879 218.1037,-187.3679 216.6283,-187.0428"/>
<polygon fill="#191970" stroke="#191970" points="217.3271,-183.6127 206.8052,-184.8533 215.8042,-190.4451 217.3271,-183.6127"/>
</g>
<!-- Node4&#45;&gt;Node3 -->
<g id="edge11" class="edge">
<title>Node4&#45;&gt;Node3</title>
<path fill="none" stroke="#191970" d="M386.2136,-224.4975C345.6809,-215.9422 296.5652,-203.7539 254,-188 235.7314,-181.2386 233.3235,-174.611 215,-168 148.6023,-144.044 126.1064,-150.6848 54.2606,-132.1189"/>
<polygon fill="#191970" stroke="#191970" points="54.8404,-128.6514 44.2766,-129.4607 53.0394,-135.4158 54.8404,-128.6514"/>
</g>
<!-- Node5 -->
<g id="node6" class="node">
<title>Node5</title>
<polygon fill="none" stroke="#bfbfbf" points="764,-112.5 764,-131.5 806,-131.5 806,-112.5 764,-112.5"/>
<text text-anchor="middle" x="785" y="-119.5" font-family="Helvetica,sans-Serif" font-size="10.00" fill="#000000">array</text>
</g>
<!-- Node4&#45;&gt;Node5 -->
<g id="edge6" class="edge">
<title>Node4&#45;&gt;Node5</title>
<path fill="none" stroke="#191970" d="M544.1364,-224.4868C595.9474,-213.5854 659.839,-198.8973 685,-188 715.1264,-174.9521 746.1152,-152.9066 765.4522,-137.9173"/>
<polygon fill="#191970" stroke="#191970" points="767.7928,-140.5287 773.4719,-131.5844 763.4547,-135.0349 767.7928,-140.5287"/>
</g>
<!-- Node6 -->
<g id="node7" class="node">
<title>Node6</title>
<polygon fill="none" stroke="#bfbfbf" points="409,-168.5 409,-187.5 453,-187.5 453,-168.5 409,-168.5"/>
<text text-anchor="middle" x="431" y="-175.5" font-family="Helvetica,sans-Serif" font-size="10.00" fill="#000000">bitset</text>
</g>
<!-- Node4&#45;&gt;Node6 -->
<g id="edge7" class="edge">
<title>Node4&#45;&gt;Node6</title>
<path fill="none" stroke="#191970" d="M459.6067,-224.2977C454.3869,-215.8498 447.8543,-205.2773 442.35,-196.369"/>
<polygon fill="#191970" stroke="#191970" points="445.3182,-194.5143 437.0843,-187.8469 439.3632,-198.1938 445.3182,-194.5143"/>
</g>
<!-- Node7 -->
<g id="node8" class="node">
<title>Node7</title>
<polygon fill="none" stroke="#bfbfbf" points="626,-112.5 626,-131.5 678,-131.5 678,-112.5 626,-112.5"/>
<text text-anchor="middle" x="652" y="-119.5" font-family="Helvetica,sans-Serif" font-size="10.00" fill="#000000">cassert</text>
</g>
<!-- Node4&#45;&gt;Node7 -->
<g id="edge8" class="edge">
<title>Node4&#45;&gt;Node7</title>
<path fill="none" stroke="#191970" d="M547.4359,-224.4343C586.4764,-215.3363 628.0657,-202.6727 641,-188 651.9102,-175.6234 654.1002,-156.6644 653.8878,-142.2367"/>
<polygon fill="#191970" stroke="#191970" points="657.3609,-141.6449 653.3231,-131.8497 650.3712,-142.025 657.3609,-141.6449"/>
</g>
<!-- Node8 -->
<g id="node9" class="node">
<title>Node8</title>
<polygon fill="none" stroke="#bfbfbf" points="696,-112.5 696,-131.5 746,-131.5 746,-112.5 696,-112.5"/>
<text text-anchor="middle" x="721" y="-119.5" font-family="Helvetica,sans-Serif" font-size="10.00" fill="#000000">cstdint</text>
</g>
<!-- Node4&#45;&gt;Node8 -->
<g id="edge9" class="edge">
<title>Node4&#45;&gt;Node8</title>
<path fill="none" stroke="#191970" d="M540.003,-224.4979C585.1496,-214.1547 638.7818,-200.1377 659,-188 679.3151,-175.8042 697.1998,-155.0918 708.4743,-140.1184"/>
<polygon fill="#191970" stroke="#191970" points="711.5672,-141.8151 714.6027,-131.6644 705.8997,-137.7067 711.5672,-141.8151"/>
</g>
<!-- Node9 -->
<g id="node10" class="node">
<title>Node9</title>
<polygon fill="none" stroke="#bfbfbf" points="471.5,-168.5 471.5,-187.5 544.5,-187.5 544.5,-168.5 471.5,-168.5"/>
<text text-anchor="middle" x="508" y="-175.5" font-family="Helvetica,sans-Serif" font-size="10.00" fill="#000000">string_view</text>
</g>
<!-- Node4&#45;&gt;Node9 -->
<g id="edge10" class="edge">
<title>Node4&#45;&gt;Node9</title>
<path fill="none" stroke="#191970" d="M478.6405,-224.2977C483.9977,-215.8498 490.7022,-205.2773 496.3513,-196.369"/>
<polygon fill="#191970" stroke="#191970" points="499.3559,-198.1664 501.7556,-187.8469 493.4444,-194.4176 499.3559,-198.1664"/>
</g>
<!-- Node10 -->
<g id="node11" class="node">
<title>Node10</title>
<polygon fill="none" stroke="#bfbfbf" points="562.5,-168.5 562.5,-187.5 631.5,-187.5 631.5,-168.5 562.5,-168.5"/>
<text text-anchor="middle" x="597" y="-175.5" font-family="Helvetica,sans-Serif" font-size="10.00" fill="#000000">type_traits</text>
</g>
<!-- Node4&#45;&gt;Node10 -->
<g id="edge12" class="edge">
<title>Node4&#45;&gt;Node10</title>
<path fill="none" stroke="#191970" d="M500.3123,-224.4554C521.0138,-214.509 547.9523,-201.5659 568.1353,-191.8686"/>
<polygon fill="#191970" stroke="#191970" points="569.6667,-195.0159 577.1645,-187.5303 566.6352,-188.7064 569.6667,-195.0159"/>
</g>
<!-- Node11 -->
<g id="node12" class="node">
<title>Node11</title>
<g id="a_node12"><a xlink:href="../../d9/d52/Common_2MathUtils_2include_2MathUtils_2Utils_8h.html" target="_top" xlink:title="MathUtils/Utils.h">
<polygon fill="none" stroke="#000000" points="958,-168.5 958,-187.5 1056,-187.5 1056,-168.5 958,-168.5"/>
<text text-anchor="middle" x="1007" y="-175.5" font-family="Helvetica,sans-Serif" font-size="10.00" fill="#000000">MathUtils/Utils.h</text>
</a>
</g>
</g>
<!-- Node4&#45;&gt;Node11 -->
<g id="edge13" class="edge">
<title>Node4&#45;&gt;Node11</title>
<path fill="none" stroke="#191970" d="M554.6708,-225.2865C557.8179,-224.8394 560.9356,-224.4087 564,-224 700.99,-205.7279 862.6357,-190.5473 947.7322,-183.0481"/>
<polygon fill="#191970" stroke="#191970" points="948.0675,-186.5323 957.7235,-182.172 947.4559,-179.559 948.0675,-186.5323"/>
</g>
<!-- Node19 -->
<g id="node20" class="node">
<title>Node19</title>
<g id="a_node20"><a xlink:href="../../dc/dcd/DataHeader_8h.html" target="_top" xlink:title="Headers/DataHeader.h">
<polygon fill="none" stroke="#000000" points="263.5,-168.5 263.5,-187.5 390.5,-187.5 390.5,-168.5 263.5,-168.5"/>
<text text-anchor="middle" x="327" y="-175.5" font-family="Helvetica,sans-Serif" font-size="10.00" fill="#000000">Headers/DataHeader.h</text>
</a>
</g>
</g>
<!-- Node4&#45;&gt;Node19 -->
<g id="edge24" class="edge">
<title>Node4&#45;&gt;Node19</title>
<path fill="none" stroke="#191970" d="M434.2629,-224.4554C411.0894,-214.419 380.8708,-201.3314 358.4158,-191.6061"/>
<polygon fill="#191970" stroke="#191970" points="359.5723,-188.2929 349.005,-187.5303 356.7903,-194.7164 359.5723,-188.2929"/>
</g>
<!-- Node11&#45;&gt;Node5 -->
<g id="edge14" class="edge">
<title>Node11&#45;&gt;Node5</title>
<path fill="none" stroke="#191970" d="M962.4859,-168.4834C925.5268,-160.3244 871.4123,-147.7861 815.8829,-132.0869"/>
<polygon fill="#191970" stroke="#191970" points="816.8111,-128.7122 806.2344,-129.3308 814.8884,-135.4429 816.8111,-128.7122"/>
</g>
<!-- Node12 -->
<g id="node13" class="node">
<title>Node12</title>
<polygon fill="none" stroke="#bfbfbf" points="1185.5,-56.5 1185.5,-75.5 1232.5,-75.5 1232.5,-56.5 1185.5,-56.5"/>
<text text-anchor="middle" x="1209" y="-63.5" font-family="Helvetica,sans-Serif" font-size="10.00" fill="#000000">cmath</text>
</g>
<!-- Node11&#45;&gt;Node12 -->
<g id="edge15" class="edge">
<title>Node11&#45;&gt;Node12</title>
<path fill="none" stroke="#191970" d="M1056.2324,-169.226C1099.2873,-160.7372 1157.7129,-146.9842 1176,-132 1190.5123,-120.1088 1199.2203,-100.2228 1204.0155,-85.381"/>
<polygon fill="#191970" stroke="#191970" points="1207.4132,-86.2313 1206.8427,-75.6518 1200.6912,-84.2779 1207.4132,-86.2313"/>
</g>
<!-- Node13 -->
<g id="node14" class="node">
<title>Node13</title>
<g id="a_node14"><a xlink:href="../../df/d21/GPUCommonDef_8h.html" target="_top" xlink:title="GPUCommonDef.h">
<polygon fill="none" stroke="#000000" points="1046.5,-56.5 1046.5,-75.5 1153.5,-75.5 1153.5,-56.5 1046.5,-56.5"/>
<text text-anchor="middle" x="1100" y="-63.5" font-family="Helvetica,sans-Serif" font-size="10.00" fill="#000000">GPUCommonDef.h</text>
</a>
</g>
</g>
<!-- Node11&#45;&gt;Node13 -->
<g id="edge16" class="edge">
<title>Node11&#45;&gt;Node13</title>
<path fill="none" stroke="#191970" d="M1056.0088,-169.7685C1095.8416,-161.9612 1147.4217,-148.9162 1160,-132 1174.0495,-113.1052 1150.2432,-93.3723 1128.5935,-80.4625"/>
<polygon fill="#191970" stroke="#191970" points="1130.3006,-77.4071 1119.8725,-75.5351 1126.8572,-83.5016 1130.3006,-77.4071"/>
</g>
<!-- Node16 -->
<g id="node17" class="node">
<title>Node16</title>
<g id="a_node17"><a xlink:href="../../d6/da2/GPUCommonMath_8h.html" target="_top" xlink:title="GPUCommonMath.h">
<polygon fill="none" stroke="#000000" points="1035.5,-112.5 1035.5,-131.5 1150.5,-131.5 1150.5,-112.5 1035.5,-112.5"/>
<text text-anchor="middle" x="1093" y="-119.5" font-family="Helvetica,sans-Serif" font-size="10.00" fill="#000000">GPUCommonMath.h</text>
</a>
</g>
</g>
<!-- Node11&#45;&gt;Node16 -->
<g id="edge19" class="edge">
<title>Node11&#45;&gt;Node16</title>
<path fill="none" stroke="#191970" d="M1021.9801,-168.2455C1035.1751,-159.6534 1054.6051,-147.0014 1069.8079,-137.1018"/>
<polygon fill="#191970" stroke="#191970" points="1071.7215,-140.0325 1078.1916,-131.6427 1067.9017,-134.1665 1071.7215,-140.0325"/>
</g>
<!-- Node18 -->
<g id="node19" class="node">
<title>Node18</title>
<g id="a_node19"><a xlink:href="../../d6/d84/MathConstants_8h.html" target="_top" xlink:title="useful math constants ">
<polygon fill="none" stroke="#000000" points="824,-112.5 824,-131.5 1018,-131.5 1018,-112.5 824,-112.5"/>
<text text-anchor="middle" x="921" y="-119.5" font-family="Helvetica,sans-Serif" font-size="10.00" fill="#000000">CommonConstants/MathConstants.h</text>
</a>
</g>
</g>
<!-- Node11&#45;&gt;Node18 -->
<g id="edge23" class="edge">
<title>Node11&#45;&gt;Node18</title>
<path fill="none" stroke="#191970" d="M992.0199,-168.2455C978.8249,-159.6534 959.3949,-147.0014 944.1921,-137.1018"/>
<polygon fill="#191970" stroke="#191970" points="946.0983,-134.1665 935.8084,-131.6427 942.2785,-140.0325 946.0983,-134.1665"/>
</g>
<!-- Node14 -->
<g id="node15" class="node">
<title>Node14</title>
<g id="a_node15"><a xlink:href="../../d5/d93/GPUCommonDefSettings_8h.html" target="_top" xlink:title="GPUCommonDefSettings.h">
<polygon fill="none" stroke="#000000" points="949,-.5 949,-19.5 1097,-19.5 1097,-.5 949,-.5"/>
<text text-anchor="middle" x="1023" y="-7.5" font-family="Helvetica,sans-Serif" font-size="10.00" fill="#000000">GPUCommonDefSettings.h</text>
</a>
</g>
</g>
<!-- Node13&#45;&gt;Node14 -->
<g id="edge17" class="edge">
<title>Node13&#45;&gt;Node14</title>
<path fill="none" stroke="#191970" d="M1086.5876,-56.2455C1074.9943,-47.814 1058.0252,-35.4729 1044.5322,-25.6598"/>
<polygon fill="#191970" stroke="#191970" points="1046.4047,-22.6938 1036.2587,-19.6427 1042.2874,-28.355 1046.4047,-22.6938"/>
</g>
<!-- Node15 -->
<g id="node16" class="node">
<title>Node15</title>
<g id="a_node16"><a xlink:href="../../da/d5a/GPUCommonDefAPI_8h.html" target="_top" xlink:title="GPUCommonDefAPI.h">
<polygon fill="none" stroke="#000000" points="1115,-.5 1115,-19.5 1239,-19.5 1239,-.5 1115,-.5"/>
<text text-anchor="middle" x="1177" y="-7.5" font-family="Helvetica,sans-Serif" font-size="10.00" fill="#000000">GPUCommonDefAPI.h</text>
</a>
</g>
</g>
<!-- Node13&#45;&gt;Node15 -->
<g id="edge18" class="edge">
<title>Node13&#45;&gt;Node15</title>
<path fill="none" stroke="#191970" d="M1113.4124,-56.2455C1125.0057,-47.814 1141.9748,-35.4729 1155.4678,-25.6598"/>
<polygon fill="#191970" stroke="#191970" points="1157.7126,-28.355 1163.7413,-19.6427 1153.5953,-22.6938 1157.7126,-28.355"/>
</g>
<!-- Node16&#45;&gt;Node12 -->
<g id="edge21" class="edge">
<title>Node16&#45;&gt;Node12</title>
<path fill="none" stroke="#191970" d="M1112.9411,-112.3733C1131.4786,-103.4241 1159.3028,-89.9917 1180.2413,-79.8835"/>
<polygon fill="#191970" stroke="#191970" points="1181.8352,-83.0006 1189.3191,-75.5011 1178.7919,-76.6967 1181.8352,-83.0006"/>
</g>
<!-- Node16&#45;&gt;Node13 -->
<g id="edge20" class="edge">
<title>Node16&#45;&gt;Node13</title>
<path fill="none" stroke="#191970" d="M1094.2193,-112.2455C1095.1327,-104.9382 1096.4132,-94.6944 1097.5369,-85.7046"/>
<polygon fill="#191970" stroke="#191970" points="1101.0272,-85.9996 1098.7947,-75.6427 1094.0813,-85.1313 1101.0272,-85.9996"/>
</g>
<!-- Node17 -->
<g id="node18" class="node">
<title>Node17</title>
<polygon fill="none" stroke="#bfbfbf" points="539,-56.5 539,-75.5 603,-75.5 603,-56.5 539,-56.5"/>
<text text-anchor="middle" x="571" y="-63.5" font-family="Helvetica,sans-Serif" font-size="10.00" fill="#000000">algorithm</text>
</g>
<!-- Node16&#45;&gt;Node17 -->
<g id="edge22" class="edge">
<title>Node16&#45;&gt;Node17</title>
<path fill="none" stroke="#191970" d="M1035.4306,-113.1047C1032.5817,-112.7187 1029.7595,-112.348 1027,-112 875.1424,-92.8482 694.0306,-76.5055 613.3724,-69.5639"/>
<polygon fill="#191970" stroke="#191970" points="613.3897,-66.0527 603.1275,-68.6864 612.7923,-73.0271 613.3897,-66.0527"/>
</g>
<!-- Node19&#45;&gt;Node3 -->
<g id="edge31" class="edge">
<title>Node19&#45;&gt;Node3</title>
<path fill="none" stroke="#191970" d="M263.347,-169.9931C209.762,-162.6441 131.0124,-150.4241 54.0968,-132.0007"/>
<polygon fill="#191970" stroke="#191970" points="54.784,-128.5658 44.24,-129.6026 53.1292,-135.3674 54.784,-128.5658"/>
</g>
<!-- Node19&#45;&gt;Node7 -->
<g id="edge27" class="edge">
<title>Node19&#45;&gt;Node7</title>
<path fill="none" stroke="#191970" d="M390.7816,-168.8043C458.3434,-158.9104 561.6079,-143.3144 615.8582,-132.009"/>
<polygon fill="#191970" stroke="#191970" points="616.6788,-135.4126 625.7139,-129.8793 615.2002,-128.5705 616.6788,-135.4126"/>
</g>
<!-- Node19&#45;&gt;Node8 -->
<g id="edge25" class="edge">
<title>Node19&#45;&gt;Node8</title>
<path fill="none" stroke="#191970" d="M390.6955,-169.2312C393.8412,-168.8118 396.956,-168.3994 400,-168 524.2263,-151.7007 559.3766,-157.8847 685.7944,-131.9754"/>
<polygon fill="#191970" stroke="#191970" points="686.7844,-135.3445 695.8637,-129.8841 685.3609,-128.4908 686.7844,-135.3445"/>
</g>
<!-- Node19&#45;&gt;Node17 -->
<g id="edge29" class="edge">
<title>Node19&#45;&gt;Node17</title>
<path fill="none" stroke="#191970" d="M263.2878,-168.9344C220.6985,-161.42 170.1476,-149.178 157,-132 151.5975,-124.9413 151.0718,-118.6234 157,-112 181.5135,-84.6119 428.1979,-71.7131 528.7139,-67.5634"/>
<polygon fill="#191970" stroke="#191970" points="528.9693,-71.056 538.82,-67.1554 528.6869,-64.0617 528.9693,-71.056"/>
</g>
<!-- Node20 -->
<g id="node21" class="node">
<title>Node20</title>
<polygon fill="none" stroke="#bfbfbf" points="166,-112.5 166,-131.5 224,-131.5 224,-112.5 166,-112.5"/>
<text text-anchor="middle" x="195" y="-119.5" font-family="Helvetica,sans-Serif" font-size="10.00" fill="#000000">memory</text>
</g>
<!-- Node19&#45;&gt;Node20 -->
<g id="edge26" class="edge">
<title>Node19&#45;&gt;Node20</title>
<path fill="none" stroke="#191970" d="M304.3084,-168.3733C282.9289,-159.3032 250.6943,-145.6279 226.7638,-135.4755"/>
<polygon fill="#191970" stroke="#191970" points="227.9683,-132.1846 217.3955,-131.5011 225.2344,-138.6287 227.9683,-132.1846"/>
</g>
<!-- Node21 -->
<g id="node22" class="node">
<title>Node21</title>
<polygon fill="none" stroke="#bfbfbf" points="242,-112.5 242,-131.5 292,-131.5 292,-112.5 242,-112.5"/>
<text text-anchor="middle" x="267" y="-119.5" font-family="Helvetica,sans-Serif" font-size="10.00" fill="#000000">cstring</text>
</g>
<!-- Node19&#45;&gt;Node21 -->
<g id="edge28" class="edge">
<title>Node19&#45;&gt;Node21</title>
<path fill="none" stroke="#191970" d="M316.5488,-168.2455C307.7731,-160.0549 295.0446,-148.1749 284.686,-138.5069"/>
<polygon fill="#191970" stroke="#191970" points="287.0301,-135.9072 277.3314,-131.6427 282.2539,-141.0246 287.0301,-135.9072"/>
</g>
<!-- Node22 -->
<g id="node23" class="node">
<title>Node22</title>
<polygon fill="none" stroke="#bfbfbf" points="310.5,-112.5 310.5,-131.5 375.5,-131.5 375.5,-112.5 310.5,-112.5"/>
<text text-anchor="middle" x="343" y="-119.5" font-family="Helvetica,sans-Serif" font-size="10.00" fill="#000000">stdexcept</text>
</g>
<!-- Node19&#45;&gt;Node22 -->
<g id="edge30" class="edge">
<title>Node19&#45;&gt;Node22</title>
<path fill="none" stroke="#191970" d="M329.787,-168.2455C331.8977,-160.8579 334.866,-150.4689 337.4547,-141.4087"/>
<polygon fill="#191970" stroke="#191970" points="340.863,-142.2195 340.245,-131.6427 334.1323,-140.2964 340.863,-142.2195"/>
</g>
<!-- Node23 -->
<g id="node24" class="node">
<title>Node23</title>
<polygon fill="none" stroke="#bfbfbf" points="394,-112.5 394,-131.5 444,-131.5 444,-112.5 394,-112.5"/>
<text text-anchor="middle" x="419" y="-119.5" font-family="Helvetica,sans-Serif" font-size="10.00" fill="#000000">climits</text>
</g>
<!-- Node19&#45;&gt;Node23 -->
<g id="edge32" class="edge">
<title>Node19&#45;&gt;Node23</title>
<path fill="none" stroke="#191970" d="M343.0252,-168.2455C357.1408,-159.6534 377.9263,-147.0014 394.1899,-137.1018"/>
<polygon fill="#191970" stroke="#191970" points="396.4363,-139.8319 403.1585,-131.6427 392.7966,-133.8525 396.4363,-139.8319"/>
</g>
<!-- Node24 -->
<g id="node25" class="node">
<title>Node24</title>
<g id="a_node25"><a xlink:href="../../d7/df8/Types_8h.html" target="_top" xlink:title="MemoryResources/Types.h">
<polygon fill="none" stroke="#000000" points="462,-112.5 462,-131.5 608,-131.5 608,-112.5 462,-112.5"/>
<text text-anchor="middle" x="535" y="-119.5" font-family="Helvetica,sans-Serif" font-size="10.00" fill="#000000">MemoryResources/Types.h</text>
</a>
</g>
</g>
<!-- Node19&#45;&gt;Node24 -->
<g id="edge33" class="edge">
<title>Node19&#45;&gt;Node24</title>
<path fill="none" stroke="#191970" d="M362.7565,-168.3733C397.9426,-158.9001 451.7881,-144.4032 489.8956,-134.1435"/>
<polygon fill="#191970" stroke="#191970" points="490.9639,-137.4806 499.7101,-131.5011 489.144,-130.7213 490.9639,-137.4806"/>
</g>
<!-- Node25 -->
<g id="node26" class="node">
<title>Node25</title>
<polygon fill="none" stroke="#bfbfbf" points="62.5,-112.5 62.5,-131.5 109.5,-131.5 109.5,-112.5 62.5,-112.5"/>
<text text-anchor="middle" x="86" y="-119.5" font-family="Helvetica,sans-Serif" font-size="10.00" fill="#000000">cerrno</text>
</g>
<!-- Node19&#45;&gt;Node25 -->
<g id="edge34" class="edge">
<title>Node19&#45;&gt;Node25</title>
<path fill="none" stroke="#191970" d="M282.9422,-168.4758C241.7535,-159.4631 178.5807,-145.3615 124,-132 122.5505,-131.6452 121.0713,-131.278 119.578,-130.9031"/>
<polygon fill="#191970" stroke="#191970" points="120.2405,-127.4598 109.6846,-128.3676 118.5026,-134.2407 120.2405,-127.4598"/>
</g>
<!-- Node27 -->
<g id="node28" class="node">
<title>Node27</title>
<polygon fill="none" stroke="#bfbfbf" points="573,-230 573,-249 681,-249 681,-230 573,-230"/>
<text text-anchor="middle" x="627" y="-237" font-family="Helvetica,sans-Serif" font-size="10.00" fill="#000000">fairlogger/Logger.h</text>
</g>
<!-- Node26&#45;&gt;Node27 -->
<g id="edge36" class="edge">
<title>Node26&#45;&gt;Node27</title>
<path fill="none" stroke="#191970" d="M567.0293,-296.9005C578.1531,-286.2535 596.2987,-268.8856 609.721,-256.0385"/>
<polygon fill="#191970" stroke="#191970" points="612.1852,-258.5247 616.9893,-249.0817 607.345,-253.4678 612.1852,-258.5247"/>
</g>
</g>
</svg>
