<?xml version="1.0" encoding="UTF-8" standalone="no"?>
<!DOCTYPE svg PUBLIC "-//W3C//DTD SVG 1.1//EN"
 "http://www.w3.org/Graphics/SVG/1.1/DTD/svg11.dtd">
<!-- Generated by graphviz version 2.40.1 (20161225.0304)
 -->
<!-- Title: o2::framework::MessageContext::ContainerRefObject&lt; T &gt; Pages: 1 -->
<svg width="186pt" height="431pt"
 viewBox="0.00 0.00 185.50 431.00" xmlns="http://www.w3.org/2000/svg" xmlns:xlink="http://www.w3.org/1999/xlink">
<g id="graph0" class="graph" transform="scale(1 1) rotate(0) translate(4 427)">
<title>o2::framework::MessageContext::ContainerRefObject&lt; T &gt;</title>
<!-- Node2 -->
<g id="node1" class="node">
<title>Node2</title>
<polygon fill="#bfbfbf" stroke="#000000" points="2.5,-.5 2.5,-134.5 177.5,-134.5 177.5,-.5 2.5,-.5"/>
<text text-anchor="start" x="10.5" y="-122.5" font-family="Helvetica,sans-Serif" font-size="10.00" fill="#000000">o2::framework::MessageContext</text>
<text text-anchor="middle" x="90" y="-111.5" font-family="Helvetica,sans-Serif" font-size="10.00" fill="#000000">::ContainerRefObject&lt; T &gt;</text>
<polyline fill="none" stroke="#000000" points="2.5,-104.5 177.5,-104.5 "/>
<text text-anchor="middle" x="90" y="-92.5" font-family="Helvetica,sans-Serif" font-size="10.00" fill="#000000"> </text>
<polyline fill="none" stroke="#000000" points="2.5,-85.5 177.5,-85.5 "/>
<text text-anchor="start" x="10.5" y="-73.5" font-family="Helvetica,sans-Serif" font-size="10.00" fill="#000000">+ ContainerRefObject()</text>
<text text-anchor="start" x="10.5" y="-62.5" font-family="Helvetica,sans-Serif" font-size="10.00" fill="#000000">+ ContainerRefObject()</text>
<text text-anchor="start" x="10.5" y="-51.5" font-family="Helvetica,sans-Serif" font-size="10.00" fill="#000000">+ ~ContainerRefObject()</text>
<text text-anchor="start" x="10.5" y="-40.5" font-family="Helvetica,sans-Serif" font-size="10.00" fill="#000000">+ finalize()</text>
<text text-anchor="start" x="10.5" y="-29.5" font-family="Helvetica,sans-Serif" font-size="10.00" fill="#000000">+ operator return_type &amp;()</text>
<text text-anchor="start" x="10.5" y="-18.5" font-family="Helvetica,sans-Serif" font-size="10.00" fill="#000000">+ get()</text>
<text text-anchor="start" x="10.5" y="-7.5" font-family="Helvetica,sans-Serif" font-size="10.00" fill="#000000">+ data()</text>
</g>
<!-- Node3 -->
<g id="node2" class="node">
<title>Node3</title>
<g id="a_node2"><a xlink:href="../../d3/dc5/classo2_1_1framework_1_1MessageContext_1_1ContextObject.html" target="_top" xlink:title="{o2::framework::MessageContext\l::ContextObject\n||+ ContextObject()\l+ ContextObject()\l+ ContextObject()\l+ ~ContextObject()\l+ finalize()\l+ channel()\l+ empty()\l+ header()\l}">
<polygon fill="none" stroke="#000000" points="2.5,-172.5 2.5,-317.5 177.5,-317.5 177.5,-172.5 2.5,-172.5"/>
<text text-anchor="start" x="10.5" y="-305.5" font-family="Helvetica,sans-Serif" font-size="10.00" fill="#000000">o2::framework::MessageContext</text>
<text text-anchor="middle" x="90" y="-294.5" font-family="Helvetica,sans-Serif" font-size="10.00" fill="#000000">::ContextObject</text>
<polyline fill="none" stroke="#000000" points="2.5,-287.5 177.5,-287.5 "/>
<text text-anchor="middle" x="90" y="-275.5" font-family="Helvetica,sans-Serif" font-size="10.00" fill="#000000"> </text>
<polyline fill="none" stroke="#000000" points="2.5,-268.5 177.5,-268.5 "/>
<text text-anchor="start" x="10.5" y="-256.5" font-family="Helvetica,sans-Serif" font-size="10.00" fill="#000000">+ ContextObject()</text>
<text text-anchor="start" x="10.5" y="-245.5" font-family="Helvetica,sans-Serif" font-size="10.00" fill="#000000">+ ContextObject()</text>
<text text-anchor="start" x="10.5" y="-234.5" font-family="Helvetica,sans-Serif" font-size="10.00" fill="#000000">+ ContextObject()</text>
<text text-anchor="start" x="10.5" y="-223.5" font-family="Helvetica,sans-Serif" font-size="10.00" fill="#000000">+ ~ContextObject()</text>
<text text-anchor="start" x="10.5" y="-212.5" font-family="Helvetica,sans-Serif" font-size="10.00" fill="#000000">+ finalize()</text>
<text text-anchor="start" x="10.5" y="-201.5" font-family="Helvetica,sans-Serif" font-size="10.00" fill="#000000">+ channel()</text>
<text text-anchor="start" x="10.5" y="-190.5" font-family="Helvetica,sans-Serif" font-size="10.00" fill="#000000">+ empty()</text>
<text text-anchor="start" x="10.5" y="-179.5" font-family="Helvetica,sans-Serif" font-size="10.00" fill="#000000">+ header()</text>
</a>
</g>
</g>
<!-- Node3&#45;&gt;Node2 -->
<g id="edge1" class="edge">
<title>Node3&#45;&gt;Node2</title>
<path fill="none" stroke="#191970" d="M90,-162.0053C90,-152.8449 90,-143.6024 90,-134.6704"/>
<polygon fill="none" stroke="#191970" points="86.5001,-162.2918 90,-172.2918 93.5001,-162.2918 86.5001,-162.2918"/>
</g>
<!-- Node4 -->
<g id="node3" class="node">
<title>Node4</title>
<polygon fill="none" stroke="#bfbfbf" points="0,-365.5 0,-422.5 84,-422.5 84,-365.5 0,-365.5"/>
<text text-anchor="middle" x="42" y="-410.5" font-family="Helvetica,sans-Serif" font-size="10.00" fill="#000000">string const &amp;</text>
<polyline fill="none" stroke="#bfbfbf" points="0,-403.5 84,-403.5 "/>
<text text-anchor="middle" x="42" y="-391.5" font-family="Helvetica,sans-Serif" font-size="10.00" fill="#000000"> </text>
<polyline fill="none" stroke="#bfbfbf" points="0,-384.5 84,-384.5 "/>
<text text-anchor="middle" x="42" y="-372.5" font-family="Helvetica,sans-Serif" font-size="10.00" fill="#000000"> </text>
</g>
<!-- Node4&#45;&gt;Node3 -->
<g id="edge2" class="edge">
<title>Node4&#45;&gt;Node3</title>
<path fill="none" stroke="#404040" d="M48.1576,-365.4941C50.391,-356.0416 53.0878,-345.5083 56,-336 56.6853,-333.7625 57.3962,-331.5003 58.1279,-329.2225"/>
<polygon fill="none" stroke="#404040" points="58.1565,-329.136 56.2507,-322.1813 61.9375,-317.7472 63.8433,-324.7019 58.1565,-329.136"/>
<text text-anchor="middle" x="86.5" y="-339" font-family="Helvetica,sans-Serif" font-size="10.00" fill="#000000"> #mChannel</text>
</g>
<!-- Node5 -->
<g id="node4" class="node">
<title>Node5</title>
<polygon fill="none" stroke="#bfbfbf" points="102,-365.5 102,-422.5 176,-422.5 176,-365.5 102,-365.5"/>
<text text-anchor="middle" x="139" y="-410.5" font-family="Helvetica,sans-Serif" font-size="10.00" fill="#000000">FairMQParts</text>
<polyline fill="none" stroke="#bfbfbf" points="102,-403.5 176,-403.5 "/>
<text text-anchor="middle" x="139" y="-391.5" font-family="Helvetica,sans-Serif" font-size="10.00" fill="#000000"> </text>
<polyline fill="none" stroke="#bfbfbf" points="102,-384.5 176,-384.5 "/>
<text text-anchor="middle" x="139" y="-372.5" font-family="Helvetica,sans-Serif" font-size="10.00" fill="#000000"> </text>
</g>
<!-- Node5&#45;&gt;Node3 -->
<g id="edge3" class="edge">
<title>Node5&#45;&gt;Node3</title>
<path fill="none" stroke="#404040" d="M129.5523,-365.2713C126.0678,-354.6755 121.92,-342.0629 117.6423,-329.0551"/>
<polygon fill="none" stroke="#404040" points="117.6119,-328.9625 111.9377,-324.5125 113.863,-317.5631 119.5373,-322.0132 117.6119,-328.9625"/>
<text text-anchor="middle" x="146" y="-339" font-family="Helvetica,sans-Serif" font-size="10.00" fill="#000000"> #mParts</text>
</g>
</g>
</svg>
