<?xml version="1.0" encoding="UTF-8" standalone="no"?>
<!DOCTYPE svg PUBLIC "-//W3C//DTD SVG 1.1//EN"
 "http://www.w3.org/Graphics/SVG/1.1/DTD/svg11.dtd">
<!-- Generated by graphviz version 2.40.1 (20161225.0304)
 -->
<!-- Title: /home/travis/build/AliceO2Group/AliceO2/DataFormats/Reconstruction/include/ReconstructionDataFormats/VtxTrackIndex.h Pages: 1 -->
<svg width="452pt" height="195pt"
 viewBox="0.00 0.00 451.50 195.00" xmlns="http://www.w3.org/2000/svg" xmlns:xlink="http://www.w3.org/1999/xlink">
<g id="graph0" class="graph" transform="scale(1 1) rotate(0) translate(4 191)">
<title>/home/travis/build/AliceO2Group/AliceO2/DataFormats/Reconstruction/include/ReconstructionDataFormats/VtxTrackIndex.h</title>
<!-- Node0 -->
<g id="node1" class="node">
<title>Node0</title>
<polygon fill="#bfbfbf" stroke="#000000" points="173.5,-123.5 173.5,-186.5 366.5,-186.5 366.5,-123.5 173.5,-123.5"/>
<text text-anchor="start" x="181.5" y="-174.5" font-family="Helvetica,sans-Serif" font-size="10.00" fill="#000000">/home/travis/build</text>
<text text-anchor="start" x="181.5" y="-163.5" font-family="Helvetica,sans-Serif" font-size="10.00" fill="#000000">/AliceO2Group/AliceO2</text>
<text text-anchor="start" x="181.5" y="-152.5" font-family="Helvetica,sans-Serif" font-size="10.00" fill="#000000">/DataFormats/Reconstruction</text>
<text text-anchor="start" x="181.5" y="-141.5" font-family="Helvetica,sans-Serif" font-size="10.00" fill="#000000">/include/ReconstructionDataFormats</text>
<text text-anchor="middle" x="270" y="-130.5" font-family="Helvetica,sans-Serif" font-size="10.00" fill="#000000">/VtxTrackIndex.h</text>
</g>
<!-- Node1 -->
<g id="node2" class="node">
<title>Node1</title>
<g id="a_node2"><a xlink:href="../../df/d9a/AbstractRef_8h.html" target="_top" xlink:title="Class to refer to object indicating its Indec, Source and status flags. ">
<polygon fill="none" stroke="#000000" points="0,-56.5 0,-86.5 162,-86.5 162,-56.5 0,-56.5"/>
<text text-anchor="start" x="8" y="-74.5" font-family="Helvetica,sans-Serif" font-size="10.00" fill="#000000">CommonDataFormat/Abstract</text>
<text text-anchor="middle" x="81" y="-63.5" font-family="Helvetica,sans-Serif" font-size="10.00" fill="#000000">Ref.h</text>
</a>
</g>
</g>
<!-- Node0&#45;&gt;Node1 -->
<g id="edge1" class="edge">
<title>Node0&#45;&gt;Node1</title>
<path fill="none" stroke="#191970" d="M198.5472,-123.4322C173.597,-112.4093 146.3641,-100.3778 124.3988,-90.6736"/>
<polygon fill="#191970" stroke="#191970" points="125.5795,-87.3688 115.0179,-86.5291 122.7506,-93.7718 125.5795,-87.3688"/>
</g>
<!-- Node3 -->
<g id="node4" class="node">
<title>Node3</title>
<polygon fill="none" stroke="#bfbfbf" points="180.5,-62 180.5,-81 229.5,-81 229.5,-62 180.5,-62"/>
<text text-anchor="middle" x="205" y="-69" font-family="Helvetica,sans-Serif" font-size="10.00" fill="#000000">iosfwd</text>
</g>
<!-- Node0&#45;&gt;Node3 -->
<g id="edge3" class="edge">
<title>Node0&#45;&gt;Node3</title>
<path fill="none" stroke="#191970" d="M245.4263,-123.4322C236.4172,-111.859 226.5427,-99.1741 218.8081,-89.2382"/>
<polygon fill="#191970" stroke="#191970" points="221.542,-87.0522 212.6375,-81.3112 216.0183,-91.3522 221.542,-87.0522"/>
</g>
<!-- Node4 -->
<g id="node5" class="node">
<title>Node4</title>
<polygon fill="none" stroke="#bfbfbf" points="248,-62 248,-81 292,-81 292,-62 248,-62"/>
<text text-anchor="middle" x="270" y="-69" font-family="Helvetica,sans-Serif" font-size="10.00" fill="#000000">string</text>
</g>
<!-- Node0&#45;&gt;Node4 -->
<g id="edge4" class="edge">
<title>Node0&#45;&gt;Node4</title>
<path fill="none" stroke="#191970" d="M270,-123.4322C270,-112.6773 270,-100.9624 270,-91.3857"/>
<polygon fill="#191970" stroke="#191970" points="273.5001,-91.3112 270,-81.3112 266.5001,-91.3112 273.5001,-91.3112"/>
</g>
<!-- Node5 -->
<g id="node6" class="node">
<title>Node5</title>
<polygon fill="none" stroke="#bfbfbf" points="310,-62 310,-81 352,-81 352,-62 310,-62"/>
<text text-anchor="middle" x="331" y="-69" font-family="Helvetica,sans-Serif" font-size="10.00" fill="#000000">array</text>
</g>
<!-- Node0&#45;&gt;Node5 -->
<g id="edge5" class="edge">
<title>Node0&#45;&gt;Node5</title>
<path fill="none" stroke="#191970" d="M293.0615,-123.4322C301.4308,-111.9759 310.5958,-99.4303 317.821,-89.5401"/>
<polygon fill="#191970" stroke="#191970" points="320.7597,-91.4507 323.8325,-81.3112 315.1074,-87.3214 320.7597,-91.4507"/>
</g>
<!-- Node6 -->
<g id="node7" class="node">
<title>Node6</title>
<polygon fill="none" stroke="#bfbfbf" points="370.5,-62 370.5,-81 443.5,-81 443.5,-62 370.5,-62"/>
<text text-anchor="middle" x="407" y="-69" font-family="Helvetica,sans-Serif" font-size="10.00" fill="#000000">string_view</text>
</g>
<!-- Node0&#45;&gt;Node6 -->
<g id="edge6" class="edge">
<title>Node0&#45;&gt;Node6</title>
<path fill="none" stroke="#191970" d="M321.7938,-123.4322C342.6363,-110.729 365.6763,-96.6864 382.5372,-86.4098"/>
<polygon fill="#191970" stroke="#191970" points="384.498,-89.3136 391.2154,-81.1205 380.8549,-83.3364 384.498,-89.3136"/>
</g>
<!-- Node2 -->
<g id="node3" class="node">
<title>Node2</title>
<polygon fill="none" stroke="#bfbfbf" points="51.5,-.5 51.5,-19.5 110.5,-19.5 110.5,-.5 51.5,-.5"/>
<text text-anchor="middle" x="81" y="-7.5" font-family="Helvetica,sans-Serif" font-size="10.00" fill="#000000">Rtypes.h</text>
</g>
<!-- Node1&#45;&gt;Node2 -->
<g id="edge2" class="edge">
<title>Node1&#45;&gt;Node2</title>
<path fill="none" stroke="#191970" d="M81,-56.2977C81,-48.3834 81,-38.6043 81,-30.0759"/>
<polygon fill="#191970" stroke="#191970" points="84.5001,-29.8469 81,-19.8469 77.5001,-29.847 84.5001,-29.8469"/>
</g>
</g>
</svg>
