<?xml version="1.0" encoding="UTF-8" standalone="no"?>
<!DOCTYPE svg PUBLIC "-//W3C//DTD SVG 1.1//EN"
 "http://www.w3.org/Graphics/SVG/1.1/DTD/svg11.dtd">
<!-- Generated by graphviz version 2.40.1 (20161225.0304)
 -->
<!-- Title: /home/travis/build/AliceO2Group/AliceO2/CCDB/src/UploadTool.cxx Pages: 1 -->
<svg width="917pt" height="274pt"
 viewBox="0.00 0.00 917.00 274.00" xmlns="http://www.w3.org/2000/svg" xmlns:xlink="http://www.w3.org/1999/xlink">
<g id="graph0" class="graph" transform="scale(1 1) rotate(0) translate(4 270)">
<title>/home/travis/build/AliceO2Group/AliceO2/CCDB/src/UploadTool.cxx</title>
<!-- Node0 -->
<g id="node1" class="node">
<title>Node0</title>
<polygon fill="#bfbfbf" stroke="#000000" points="426,-224.5 426,-265.5 568,-265.5 568,-224.5 426,-224.5"/>
<text text-anchor="start" x="434" y="-253.5" font-family="Helvetica,sans-Serif" font-size="10.00" fill="#000000">/home/travis/build</text>
<text text-anchor="start" x="434" y="-242.5" font-family="Helvetica,sans-Serif" font-size="10.00" fill="#000000">/AliceO2Group/AliceO2</text>
<text text-anchor="middle" x="497" y="-231.5" font-family="Helvetica,sans-Serif" font-size="10.00" fill="#000000">/CCDB/src/UploadTool.cxx</text>
</g>
<!-- Node1 -->
<g id="node2" class="node">
<title>Node1</title>
<g id="a_node2"><a xlink:href="../../dd/d3e/CcdbApi_8h.html" target="_top" xlink:title="CCDB/CcdbApi.h">
<polygon fill="none" stroke="#000000" points="177,-168.5 177,-187.5 273,-187.5 273,-168.5 177,-168.5"/>
<text text-anchor="middle" x="225" y="-175.5" font-family="Helvetica,sans-Serif" font-size="10.00" fill="#000000">CCDB/CcdbApi.h</text>
</a>
</g>
</g>
<!-- Node0&#45;&gt;Node1 -->
<g id="edge1" class="edge">
<title>Node0&#45;&gt;Node1</title>
<path fill="none" stroke="#191970" d="M425.8905,-227.4841C377.9479,-215.6747 315.9529,-200.4038 273.5912,-189.9691"/>
<polygon fill="#191970" stroke="#191970" points="274.3457,-186.5505 263.7988,-187.5571 272.6714,-193.3473 274.3457,-186.5505"/>
</g>
<!-- Node4 -->
<g id="node5" class="node">
<title>Node4</title>
<polygon fill="none" stroke="#bfbfbf" points="0,-112.5 0,-131.5 38,-131.5 38,-112.5 0,-112.5"/>
<text text-anchor="middle" x="19" y="-119.5" font-family="Helvetica,sans-Serif" font-size="10.00" fill="#000000">map</text>
</g>
<!-- Node0&#45;&gt;Node4 -->
<g id="edge17" class="edge">
<title>Node0&#45;&gt;Node4</title>
<path fill="none" stroke="#191970" d="M425.5473,-240.4286C303.9076,-232.02 66.8851,-212.6784 38,-188 24.8521,-176.7669 20.5034,-157.0785 19.2038,-142.1205"/>
<polygon fill="#191970" stroke="#191970" points="22.6849,-141.643 18.709,-131.8225 15.693,-141.979 22.6849,-141.643"/>
</g>
<!-- Node12 -->
<g id="node13" class="node">
<title>Node12</title>
<g id="a_node13"><a xlink:href="../../d3/de5/CCDBQuery_8h.html" target="_top" xlink:title="CCDB/CCDBQuery.h">
<polygon fill="none" stroke="#000000" points="47,-168.5 47,-187.5 159,-187.5 159,-168.5 47,-168.5"/>
<text text-anchor="middle" x="103" y="-175.5" font-family="Helvetica,sans-Serif" font-size="10.00" fill="#000000">CCDB/CCDBQuery.h</text>
</a>
</g>
</g>
<!-- Node0&#45;&gt;Node12 -->
<g id="edge12" class="edge">
<title>Node0&#45;&gt;Node12</title>
<path fill="none" stroke="#191970" d="M425.6496,-232.8668C352.7294,-220.4667 240.3891,-201.3631 169.341,-189.2813"/>
<polygon fill="#191970" stroke="#191970" points="169.613,-185.7774 159.1677,-187.5514 168.4394,-192.6783 169.613,-185.7774"/>
</g>
<!-- Node13 -->
<g id="node14" class="node">
<title>Node13</title>
<g id="a_node14"><a xlink:href="../../da/d86/CCDBTimeStampUtils_8h.html" target="_top" xlink:title="CCDB/CCDBTimeStampUtils.h">
<polygon fill="none" stroke="#000000" points="291.5,-168.5 291.5,-187.5 454.5,-187.5 454.5,-168.5 291.5,-168.5"/>
<text text-anchor="middle" x="373" y="-175.5" font-family="Helvetica,sans-Serif" font-size="10.00" fill="#000000">CCDB/CCDBTimeStampUtils.h</text>
</a>
</g>
</g>
<!-- Node0&#45;&gt;Node13 -->
<g id="edge16" class="edge">
<title>Node0&#45;&gt;Node13</title>
<path fill="none" stroke="#191970" d="M458.7841,-224.3511C439.6909,-214.0346 417.0506,-201.8015 399.8245,-192.4939"/>
<polygon fill="#191970" stroke="#191970" points="401.33,-189.3291 390.8683,-187.6546 398.0024,-195.4876 401.33,-189.3291"/>
</g>
<!-- Node14 -->
<g id="node15" class="node">
<title>Node14</title>
<polygon fill="none" stroke="#bfbfbf" points="473,-168.5 473,-187.5 521,-187.5 521,-168.5 473,-168.5"/>
<text text-anchor="middle" x="497" y="-175.5" font-family="Helvetica,sans-Serif" font-size="10.00" fill="#000000">TFile.h</text>
</g>
<!-- Node0&#45;&gt;Node14 -->
<g id="edge18" class="edge">
<title>Node0&#45;&gt;Node14</title>
<path fill="none" stroke="#191970" d="M497,-224.168C497,-215.8226 497,-206.2471 497,-197.9879"/>
<polygon fill="#191970" stroke="#191970" points="500.5001,-197.7804 497,-187.7805 493.5001,-197.7805 500.5001,-197.7804"/>
</g>
<!-- Node15 -->
<g id="node16" class="node">
<title>Node15</title>
<polygon fill="none" stroke="#bfbfbf" points="539.5,-168.5 539.5,-187.5 596.5,-187.5 596.5,-168.5 539.5,-168.5"/>
<text text-anchor="middle" x="568" y="-175.5" font-family="Helvetica,sans-Serif" font-size="10.00" fill="#000000">TClass.h</text>
</g>
<!-- Node0&#45;&gt;Node15 -->
<g id="edge19" class="edge">
<title>Node0&#45;&gt;Node15</title>
<path fill="none" stroke="#191970" d="M519.0757,-224.168C529.1253,-214.6846 540.8582,-203.6127 550.3146,-194.689"/>
<polygon fill="#191970" stroke="#191970" points="552.7648,-197.1893 557.6356,-187.7805 547.9605,-192.0982 552.7648,-197.1893"/>
</g>
<!-- Node16 -->
<g id="node17" class="node">
<title>Node16</title>
<polygon fill="none" stroke="#bfbfbf" points="615,-168.5 615,-187.5 663,-187.5 663,-168.5 615,-168.5"/>
<text text-anchor="middle" x="639" y="-175.5" font-family="Helvetica,sans-Serif" font-size="10.00" fill="#000000">TKey.h</text>
</g>
<!-- Node0&#45;&gt;Node16 -->
<g id="edge20" class="edge">
<title>Node0&#45;&gt;Node16</title>
<path fill="none" stroke="#191970" d="M540.7634,-224.3511C563.0331,-213.8435 589.5166,-201.3478 609.3712,-191.9798"/>
<polygon fill="#191970" stroke="#191970" points="610.9876,-195.0872 618.5379,-187.6546 608.0005,-188.7565 610.9876,-195.0872"/>
</g>
<!-- Node17 -->
<g id="node18" class="node">
<title>Node17</title>
<polygon fill="none" stroke="#bfbfbf" points="681,-168.5 681,-187.5 741,-187.5 741,-168.5 681,-168.5"/>
<text text-anchor="middle" x="711" y="-175.5" font-family="Helvetica,sans-Serif" font-size="10.00" fill="#000000">iostream</text>
</g>
<!-- Node0&#45;&gt;Node17 -->
<g id="edge21" class="edge">
<title>Node0&#45;&gt;Node17</title>
<path fill="none" stroke="#191970" d="M562.6614,-224.4425C598.0951,-213.3487 640.676,-200.0173 671.1098,-190.489"/>
<polygon fill="#191970" stroke="#191970" points="672.4399,-193.7402 680.9373,-187.4122 670.3483,-187.0599 672.4399,-193.7402"/>
</g>
<!-- Node18 -->
<g id="node19" class="node">
<title>Node18</title>
<polygon fill="none" stroke="#bfbfbf" points="759,-168.5 759,-187.5 909,-187.5 909,-168.5 759,-168.5"/>
<text text-anchor="middle" x="834" y="-175.5" font-family="Helvetica,sans-Serif" font-size="10.00" fill="#000000">boost/program_options.hpp</text>
</g>
<!-- Node0&#45;&gt;Node18 -->
<g id="edge22" class="edge">
<title>Node0&#45;&gt;Node18</title>
<path fill="none" stroke="#191970" d="M568.0572,-230.8729C629.9045,-218.5769 718.4369,-200.9755 776.0699,-189.5173"/>
<polygon fill="#191970" stroke="#191970" points="776.9788,-192.9051 786.1044,-187.5223 775.6138,-186.0395 776.9788,-192.9051"/>
</g>
<!-- Node2 -->
<g id="node3" class="node">
<title>Node2</title>
<polygon fill="none" stroke="#bfbfbf" points="94,-112.5 94,-131.5 138,-131.5 138,-112.5 94,-112.5"/>
<text text-anchor="middle" x="116" y="-119.5" font-family="Helvetica,sans-Serif" font-size="10.00" fill="#000000">string</text>
</g>
<!-- Node1&#45;&gt;Node2 -->
<g id="edge2" class="edge">
<title>Node1&#45;&gt;Node2</title>
<path fill="none" stroke="#191970" d="M206.0136,-168.2455C188.8208,-159.4125 163.2762,-146.2887 143.7868,-136.2758"/>
<polygon fill="#191970" stroke="#191970" points="145.263,-133.0993 134.7688,-131.6427 142.0641,-139.3257 145.263,-133.0993"/>
</g>
<!-- Node3 -->
<g id="node4" class="node">
<title>Node3</title>
<polygon fill="none" stroke="#bfbfbf" points="398,-112.5 398,-131.5 456,-131.5 456,-112.5 398,-112.5"/>
<text text-anchor="middle" x="427" y="-119.5" font-family="Helvetica,sans-Serif" font-size="10.00" fill="#000000">memory</text>
</g>
<!-- Node1&#45;&gt;Node3 -->
<g id="edge3" class="edge">
<title>Node1&#45;&gt;Node3</title>
<path fill="none" stroke="#191970" d="M259.725,-168.3733C295.4005,-158.483 350.8277,-143.1171 387.9927,-132.8139"/>
<polygon fill="#191970" stroke="#191970" points="389.2577,-136.0953 397.9592,-130.0509 387.3876,-129.3497 389.2577,-136.0953"/>
</g>
<!-- Node1&#45;&gt;Node4 -->
<g id="edge4" class="edge">
<title>Node1&#45;&gt;Node4</title>
<path fill="none" stroke="#191970" d="M189.5873,-168.3733C149.5251,-157.4826 85.0389,-139.9523 47.8899,-129.8536"/>
<polygon fill="#191970" stroke="#191970" points="48.7478,-126.4598 38.1799,-127.2139 46.9115,-133.2147 48.7478,-126.4598"/>
</g>
<!-- Node5 -->
<g id="node6" class="node">
<title>Node5</title>
<polygon fill="none" stroke="#bfbfbf" points="474.5,-112.5 474.5,-131.5 539.5,-131.5 539.5,-112.5 474.5,-112.5"/>
<text text-anchor="middle" x="507" y="-119.5" font-family="Helvetica,sans-Serif" font-size="10.00" fill="#000000">curl/curl.h</text>
</g>
<!-- Node1&#45;&gt;Node5 -->
<g id="edge5" class="edge">
<title>Node1&#45;&gt;Node5</title>
<path fill="none" stroke="#191970" d="M273.3949,-169.3759C319.7755,-160.9646 391.9903,-147.488 464.2755,-132.0814"/>
<polygon fill="#191970" stroke="#191970" points="465.429,-135.4137 474.473,-129.895 463.9615,-128.5693 465.429,-135.4137"/>
</g>
<!-- Node6 -->
<g id="node7" class="node">
<title>Node6</title>
<polygon fill="none" stroke="#bfbfbf" points="557.5,-112.5 557.5,-131.5 620.5,-131.5 620.5,-112.5 557.5,-112.5"/>
<text text-anchor="middle" x="589" y="-119.5" font-family="Helvetica,sans-Serif" font-size="10.00" fill="#000000">TObject.h</text>
</g>
<!-- Node1&#45;&gt;Node6 -->
<g id="edge6" class="edge">
<title>Node1&#45;&gt;Node6</title>
<path fill="none" stroke="#191970" d="M273.1798,-169.4091C276.1624,-168.9201 279.1208,-168.4465 282,-168 397.0907,-150.1526 429.6383,-154.3045 547.0839,-132.2159"/>
<polygon fill="#191970" stroke="#191970" points="548.0257,-135.5995 557.194,-130.2897 546.7156,-128.7232 548.0257,-135.5995"/>
</g>
<!-- Node7 -->
<g id="node8" class="node">
<title>Node7</title>
<polygon fill="none" stroke="#bfbfbf" points="156,-112.5 156,-131.5 230,-131.5 230,-112.5 156,-112.5"/>
<text text-anchor="middle" x="193" y="-119.5" font-family="Helvetica,sans-Serif" font-size="10.00" fill="#000000">TMessage.h</text>
</g>
<!-- Node1&#45;&gt;Node7 -->
<g id="edge7" class="edge">
<title>Node1&#45;&gt;Node7</title>
<path fill="none" stroke="#191970" d="M219.426,-168.2455C215.0669,-160.617 208.8789,-149.7881 203.5867,-140.5267"/>
<polygon fill="#191970" stroke="#191970" points="206.5104,-138.5886 198.5101,-131.6427 200.4327,-142.0616 206.5104,-138.5886"/>
</g>
<!-- Node8 -->
<g id="node9" class="node">
<title>Node8</title>
<g id="a_node9"><a xlink:href="../../d4/dab/CcdbObjectInfo_8h.html" target="_top" xlink:title="CCDB/CcdbObjectInfo.h">
<polygon fill="none" stroke="#000000" points="248.5,-112.5 248.5,-131.5 379.5,-131.5 379.5,-112.5 248.5,-112.5"/>
<text text-anchor="middle" x="314" y="-119.5" font-family="Helvetica,sans-Serif" font-size="10.00" fill="#000000">CCDB/CcdbObjectInfo.h</text>
</a>
</g>
</g>
<!-- Node1&#45;&gt;Node8 -->
<g id="edge8" class="edge">
<title>Node1&#45;&gt;Node8</title>
<path fill="none" stroke="#191970" d="M240.5026,-168.2455C254.158,-159.6534 274.2657,-147.0014 289.9989,-137.1018"/>
<polygon fill="#191970" stroke="#191970" points="292.0751,-139.9307 298.675,-131.6427 288.3471,-134.006 292.0751,-139.9307"/>
</g>
<!-- Node9 -->
<g id="node10" class="node">
<title>Node9</title>
<polygon fill="none" stroke="#bfbfbf" points="108.5,-56.5 108.5,-75.5 167.5,-75.5 167.5,-56.5 108.5,-56.5"/>
<text text-anchor="middle" x="138" y="-63.5" font-family="Helvetica,sans-Serif" font-size="10.00" fill="#000000">Rtypes.h</text>
</g>
<!-- Node8&#45;&gt;Node9 -->
<g id="edge9" class="edge">
<title>Node8&#45;&gt;Node9</title>
<path fill="none" stroke="#191970" d="M283.7445,-112.3733C254.2626,-102.9927 209.2992,-88.6861 177.1145,-78.4455"/>
<polygon fill="#191970" stroke="#191970" points="178.1582,-75.1048 167.5677,-75.4079 176.0358,-81.7753 178.1582,-75.1048"/>
</g>
<!-- Node10 -->
<g id="node11" class="node">
<title>Node10</title>
<g id="a_node11"><a xlink:href="../../dd/da4/Logger_8h.html" target="_top" xlink:title="Framework/Logger.h">
<polygon fill="none" stroke="#000000" points="256.5,-56.5 256.5,-75.5 371.5,-75.5 371.5,-56.5 256.5,-56.5"/>
<text text-anchor="middle" x="314" y="-63.5" font-family="Helvetica,sans-Serif" font-size="10.00" fill="#000000">Framework/Logger.h</text>
</a>
</g>
</g>
<!-- Node8&#45;&gt;Node10 -->
<g id="edge10" class="edge">
<title>Node8&#45;&gt;Node10</title>
<path fill="none" stroke="#191970" d="M314,-112.2455C314,-104.9382 314,-94.6944 314,-85.7046"/>
<polygon fill="#191970" stroke="#191970" points="317.5001,-85.6426 314,-75.6427 310.5001,-85.6427 317.5001,-85.6426"/>
</g>
<!-- Node11 -->
<g id="node12" class="node">
<title>Node11</title>
<polygon fill="none" stroke="#bfbfbf" points="260,-.5 260,-19.5 368,-19.5 368,-.5 260,-.5"/>
<text text-anchor="middle" x="314" y="-7.5" font-family="Helvetica,sans-Serif" font-size="10.00" fill="#000000">fairlogger/Logger.h</text>
</g>
<!-- Node10&#45;&gt;Node11 -->
<g id="edge11" class="edge">
<title>Node10&#45;&gt;Node11</title>
<path fill="none" stroke="#191970" d="M314,-56.2455C314,-48.9382 314,-38.6944 314,-29.7046"/>
<polygon fill="#191970" stroke="#191970" points="317.5001,-29.6426 314,-19.6427 310.5001,-29.6427 317.5001,-29.6426"/>
</g>
<!-- Node12&#45;&gt;Node2 -->
<g id="edge13" class="edge">
<title>Node12&#45;&gt;Node2</title>
<path fill="none" stroke="#191970" d="M105.2644,-168.2455C106.9794,-160.8579 109.3912,-150.4689 111.4944,-141.4087"/>
<polygon fill="#191970" stroke="#191970" points="114.9095,-142.1751 113.7615,-131.6427 108.0908,-140.5922 114.9095,-142.1751"/>
</g>
<!-- Node12&#45;&gt;Node4 -->
<g id="edge14" class="edge">
<title>Node12&#45;&gt;Node4</title>
<path fill="none" stroke="#191970" d="M88.3683,-168.2455C75.6006,-159.7337 56.8562,-147.2375 42.0701,-137.3801"/>
<polygon fill="#191970" stroke="#191970" points="43.726,-134.2775 33.464,-131.6427 39.8431,-140.1019 43.726,-134.2775"/>
</g>
<!-- Node12&#45;&gt;Node9 -->
<g id="edge15" class="edge">
<title>Node12&#45;&gt;Node9</title>
<path fill="none" stroke="#191970" d="M96.2835,-168.264C88.0854,-155.0814 76.3242,-131.0178 85,-112 90.6889,-99.5296 101.6131,-89.1361 112.0726,-81.4023"/>
<polygon fill="#191970" stroke="#191970" points="114.3523,-84.0832 120.6242,-75.5442 110.3963,-78.3082 114.3523,-84.0832"/>
</g>
</g>
</svg>
