<?xml version="1.0" encoding="UTF-8" standalone="no"?>
<!DOCTYPE svg PUBLIC "-//W3C//DTD SVG 1.1//EN"
 "http://www.w3.org/Graphics/SVG/1.1/DTD/svg11.dtd">
<!-- Generated by graphviz version 2.40.1 (20161225.0304)
 -->
<!-- Title: o2::tof::compressed::Decoder::DigitInfo Pages: 1 -->
<svg width="272pt" height="204pt"
 viewBox="0.00 0.00 272.00 204.00" xmlns="http://www.w3.org/2000/svg" xmlns:xlink="http://www.w3.org/1999/xlink">
<g id="graph0" class="graph" transform="scale(1 1) rotate(0) translate(4 200)">
<title>o2::tof::compressed::Decoder::DigitInfo</title>
<!-- Node1 -->
<g id="node1" class="node">
<title>Node1</title>
<polygon fill="#bfbfbf" stroke="#000000" points="82.5,-.5 82.5,-68.5 195.5,-68.5 195.5,-.5 82.5,-.5"/>
<text text-anchor="start" x="90.5" y="-56.5" font-family="Helvetica,sans-Serif" font-size="10.00" fill="#000000">o2::tof::compressed</text>
<text text-anchor="middle" x="139" y="-45.5" font-family="Helvetica,sans-Serif" font-size="10.00" fill="#000000">::Decoder::DigitInfo</text>
<polyline fill="none" stroke="#000000" points="82.5,-38.5 195.5,-38.5 "/>
<text text-anchor="middle" x="139" y="-26.5" font-family="Helvetica,sans-Serif" font-size="10.00" fill="#000000"> </text>
<polyline fill="none" stroke="#000000" points="82.5,-19.5 195.5,-19.5 "/>
<text text-anchor="middle" x="139" y="-7.5" font-family="Helvetica,sans-Serif" font-size="10.00" fill="#000000"> </text>
</g>
<!-- Node2 -->
<g id="node2" class="node">
<title>Node2</title>
<g id="a_node2"><a xlink:href="../../d6/d30/classuint64__t.html" target="_top" xlink:title="{uint64_t\n||}">
<polygon fill="none" stroke="#000000" points="0,-138.5 0,-195.5 56,-195.5 56,-138.5 0,-138.5"/>
<text text-anchor="middle" x="28" y="-183.5" font-family="Helvetica,sans-Serif" font-size="10.00" fill="#000000">uint64_t</text>
<polyline fill="none" stroke="#000000" points="0,-176.5 56,-176.5 "/>
<text text-anchor="middle" x="28" y="-164.5" font-family="Helvetica,sans-Serif" font-size="10.00" fill="#000000"> </text>
<polyline fill="none" stroke="#000000" points="0,-157.5 56,-157.5 "/>
<text text-anchor="middle" x="28" y="-145.5" font-family="Helvetica,sans-Serif" font-size="10.00" fill="#000000"> </text>
</a>
</g>
</g>
<!-- Node2&#45;&gt;Node1 -->
<g id="edge1" class="edge">
<title>Node2&#45;&gt;Node1</title>
<path fill="none" stroke="#404040" d="M39.8866,-138.1666C47.3655,-122.0822 58.0494,-102.2741 71,-87 73.9208,-83.5552 77.102,-80.1908 80.4412,-76.936"/>
<polygon fill="none" stroke="#404040" points="80.7154,-76.6857 82.4506,-69.6865 89.5788,-68.5962 87.8436,-75.5954 80.7154,-76.6857"/>
<text text-anchor="middle" x="91.5" y="-101" font-family="Helvetica,sans-Serif" font-size="10.00" fill="#000000"> +bcAbs</text>
</g>
<!-- Node3 -->
<g id="node3" class="node">
<title>Node3</title>
<polygon fill="none" stroke="#bfbfbf" points="74,-138.5 74,-195.5 130,-195.5 130,-138.5 74,-138.5"/>
<text text-anchor="middle" x="102" y="-183.5" font-family="Helvetica,sans-Serif" font-size="10.00" fill="#000000">uint16_t</text>
<polyline fill="none" stroke="#bfbfbf" points="74,-176.5 130,-176.5 "/>
<text text-anchor="middle" x="102" y="-164.5" font-family="Helvetica,sans-Serif" font-size="10.00" fill="#000000"> </text>
<polyline fill="none" stroke="#bfbfbf" points="74,-157.5 130,-157.5 "/>
<text text-anchor="middle" x="102" y="-145.5" font-family="Helvetica,sans-Serif" font-size="10.00" fill="#000000"> </text>
</g>
<!-- Node3&#45;&gt;Node1 -->
<g id="edge2" class="edge">
<title>Node3&#45;&gt;Node1</title>
<path fill="none" stroke="#404040" d="M110.0284,-138.2495C114.7455,-121.3574 120.8168,-99.6155 126.182,-80.4023"/>
<polygon fill="none" stroke="#404040" points="126.1854,-80.3899 123.9465,-73.5352 129.4129,-68.8321 131.6518,-75.6868 126.1854,-80.3899"/>
<text text-anchor="middle" x="134.5" y="-101" font-family="Helvetica,sans-Serif" font-size="10.00" fill="#000000"> +bc</text>
</g>
<!-- Node4 -->
<g id="node4" class="node">
<title>Node4</title>
<g id="a_node4"><a xlink:href="../../d3/d87/classuint32__t.html" target="_top" xlink:title="{uint32_t\n||}">
<polygon fill="none" stroke="#000000" points="148,-138.5 148,-195.5 204,-195.5 204,-138.5 148,-138.5"/>
<text text-anchor="middle" x="176" y="-183.5" font-family="Helvetica,sans-Serif" font-size="10.00" fill="#000000">uint32_t</text>
<polyline fill="none" stroke="#000000" points="148,-176.5 204,-176.5 "/>
<text text-anchor="middle" x="176" y="-164.5" font-family="Helvetica,sans-Serif" font-size="10.00" fill="#000000"> </text>
<polyline fill="none" stroke="#000000" points="148,-157.5 204,-157.5 "/>
<text text-anchor="middle" x="176" y="-145.5" font-family="Helvetica,sans-Serif" font-size="10.00" fill="#000000"> </text>
</a>
</g>
</g>
<!-- Node4&#45;&gt;Node1 -->
<g id="edge3" class="edge">
<title>Node4&#45;&gt;Node1</title>
<path fill="none" stroke="#404040" d="M167.9716,-138.2495C163.2545,-121.3574 157.1832,-99.6155 151.818,-80.4023"/>
<polygon fill="none" stroke="#404040" points="151.8146,-80.3899 146.3482,-75.6868 148.5871,-68.8321 154.0535,-73.5352 151.8146,-80.3899"/>
<text text-anchor="middle" x="178" y="-101" font-family="Helvetica,sans-Serif" font-size="10.00" fill="#000000"> +orbit</text>
</g>
<!-- Node5 -->
<g id="node5" class="node">
<title>Node5</title>
<polygon fill="none" stroke="#bfbfbf" points="222.5,-138.5 222.5,-195.5 251.5,-195.5 251.5,-138.5 222.5,-138.5"/>
<text text-anchor="middle" x="237" y="-183.5" font-family="Helvetica,sans-Serif" font-size="10.00" fill="#000000">int</text>
<polyline fill="none" stroke="#bfbfbf" points="222.5,-176.5 251.5,-176.5 "/>
<text text-anchor="middle" x="237" y="-164.5" font-family="Helvetica,sans-Serif" font-size="10.00" fill="#000000"> </text>
<polyline fill="none" stroke="#bfbfbf" points="222.5,-157.5 251.5,-157.5 "/>
<text text-anchor="middle" x="237" y="-145.5" font-family="Helvetica,sans-Serif" font-size="10.00" fill="#000000"> </text>
</g>
<!-- Node5&#45;&gt;Node1 -->
<g id="edge4" class="edge">
<title>Node5&#45;&gt;Node1</title>
<path fill="none" stroke="#404040" d="M226.7526,-138.394C220.2264,-122.3831 210.7822,-102.5727 199,-87 196.5024,-83.6989 193.7696,-80.4527 190.8905,-77.2934"/>
<polygon fill="none" stroke="#404040" points="190.8391,-77.2407 183.7868,-75.7359 182.4634,-68.6473 189.5157,-70.1521 190.8391,-77.2407"/>
<text text-anchor="middle" x="240.5" y="-112" font-family="Helvetica,sans-Serif" font-size="10.00" fill="#000000"> +tdc</text>
<text text-anchor="middle" x="240.5" y="-101" font-family="Helvetica,sans-Serif" font-size="10.00" fill="#000000">+channel</text>
<text text-anchor="middle" x="240.5" y="-90" font-family="Helvetica,sans-Serif" font-size="10.00" fill="#000000">+tot</text>
</g>
</g>
</svg>
