<?xml version="1.0" encoding="UTF-8" standalone="no"?>
<!DOCTYPE svg PUBLIC "-//W3C//DTD SVG 1.1//EN"
 "http://www.w3.org/Graphics/SVG/1.1/DTD/svg11.dtd">
<!-- Generated by graphviz version 2.40.1 (20161225.0304)
 -->
<!-- Title: o2::eventgen::GeneratorPythia8 Pages: 1 -->
<!--zoomable 738 -->
<svg id="main" version="1.1" xmlns="http://www.w3.org/2000/svg" xmlns:xlink="http://www.w3.org/1999/xlink" xml:space="preserve" onload="init(evt)">
<style type="text/css"><![CDATA[
.edge:hover path { stroke: red; }
.edge:hover polygon { stroke: red; fill: red; }
]]></style>
<script type="text/javascript"><![CDATA[
var edges = document.getElementsByTagName('g');
if (edges && edges.length) {
  for (var i=0;i<edges.length;i++) {
    if (edges[i].id.substr(0,4)=='edge') {
      edges[i].setAttribute('class','edge');
    }
  }
}
]]></script>
        <defs>
                <circle id="rim" cx="0" cy="0" r="7"/>
                <circle id="rim2" cx="0" cy="0" r="3.5"/>
                <g id="zoomPlus">
                        <use xlink:href="#rim" fill="#404040">
                                <set attributeName="fill" to="#808080" begin="zoomplus.mouseover" end="zoomplus.mouseout"/>
                        </use>
                        <path d="M-4,0h8M0,-4v8" fill="none" stroke="white" stroke-width="1.5" pointer-events="none"/>
                </g>
                <g id="zoomMin">
                        <use xlink:href="#rim" fill="#404040">
                                <set attributeName="fill" to="#808080" begin="zoomminus.mouseover" end="zoomminus.mouseout"/>
                        </use>
                        <path d="M-4,0h8" fill="none" stroke="white" stroke-width="1.5" pointer-events="none"/>
                </g>
                <g id="dirArrow">
                        <path fill="none" stroke="white" stroke-width="1.5" d="M0,-3.0v7 M-2.5,-0.5L0,-3.0L2.5,-0.5"/>
                </g>
               <g id="resetDef">
                       <use xlink:href="#rim2" fill="#404040">
                               <set attributeName="fill" to="#808080" begin="reset.mouseover" end="reset.mouseout"/>
                       </use>
               </g>
        </defs>

<script type="text/javascript">
var viewWidth = 1124;
var viewHeight = 738;
var sectionId = 'dynsection-1';
</script>
<script xlink:href="../../svgpan.js"/>
<svg id="graph" class="graph">
<g id="viewport">
<title>o2::eventgen::GeneratorPythia8</title>
<!-- Node3 -->
<g id="node1" class="node">
<title>Node3</title>
<polygon fill="#bfbfbf" stroke="#000000" points="861,-.5 861,-244.5 1033,-244.5 1033,-.5 861,-.5"/>
<text text-anchor="middle" x="947" y="-232.5" font-family="Helvetica,sans-Serif" font-size="10.00" fill="#000000">o2::eventgen::GeneratorPythia8</text>
<polyline fill="none" stroke="#000000" points="861,-225.5 1033,-225.5 "/>
<text text-anchor="middle" x="947" y="-213.5" font-family="Helvetica,sans-Serif" font-size="10.00" fill="#000000"> </text>
<polyline fill="none" stroke="#000000" points="861,-206.5 1033,-206.5 "/>
<text text-anchor="start" x="869" y="-194.5" font-family="Helvetica,sans-Serif" font-size="10.00" fill="#000000">+ GeneratorPythia8()</text>
<text text-anchor="start" x="869" y="-183.5" font-family="Helvetica,sans-Serif" font-size="10.00" fill="#000000">+ GeneratorPythia8()</text>
<text text-anchor="start" x="869" y="-172.5" font-family="Helvetica,sans-Serif" font-size="10.00" fill="#000000">+ ~GeneratorPythia8()</text>
<text text-anchor="start" x="869" y="-161.5" font-family="Helvetica,sans-Serif" font-size="10.00" fill="#000000">+ Init()</text>
<text text-anchor="start" x="869" y="-150.5" font-family="Helvetica,sans-Serif" font-size="10.00" fill="#000000">+ setConfig()</text>
<text text-anchor="start" x="869" y="-139.5" font-family="Helvetica,sans-Serif" font-size="10.00" fill="#000000">+ setHooksFileName()</text>
<text text-anchor="start" x="869" y="-128.5" font-family="Helvetica,sans-Serif" font-size="10.00" fill="#000000">+ setHooksFuncName()</text>
<text text-anchor="start" x="869" y="-117.5" font-family="Helvetica,sans-Serif" font-size="10.00" fill="#000000">+ setUserHooks()</text>
<text text-anchor="start" x="869" y="-106.5" font-family="Helvetica,sans-Serif" font-size="10.00" fill="#000000">+ readString()</text>
<text text-anchor="start" x="869" y="-95.5" font-family="Helvetica,sans-Serif" font-size="10.00" fill="#000000">+ readFile()</text>
<text text-anchor="start" x="869" y="-84.5" font-family="Helvetica,sans-Serif" font-size="10.00" fill="#000000"># GeneratorPythia8()</text>
<text text-anchor="start" x="869" y="-73.5" font-family="Helvetica,sans-Serif" font-size="10.00" fill="#000000"># operator=()</text>
<text text-anchor="start" x="869" y="-62.5" font-family="Helvetica,sans-Serif" font-size="10.00" fill="#000000"># generateEvent()</text>
<text text-anchor="start" x="869" y="-51.5" font-family="Helvetica,sans-Serif" font-size="10.00" fill="#000000"># importParticles()</text>
<text text-anchor="start" x="869" y="-40.5" font-family="Helvetica,sans-Serif" font-size="10.00" fill="#000000"># updateHeader()</text>
<text text-anchor="start" x="869" y="-29.5" font-family="Helvetica,sans-Serif" font-size="10.00" fill="#000000"># importParticles()</text>
<text text-anchor="start" x="869" y="-18.5" font-family="Helvetica,sans-Serif" font-size="10.00" fill="#000000"># selectFromAncestor()</text>
<text text-anchor="start" x="869" y="-7.5" font-family="Helvetica,sans-Serif" font-size="10.00" fill="#000000"># ClassDefOverride()</text>
</g>
<!-- Node4 -->
<g id="node2" class="node">
<title>Node4</title>
<g id="a_node2"><a xlink:href="../../d3/da7/classo2_1_1eventgen_1_1Generator.html" target="_top" xlink:title="{o2::eventgen::Generator\n||+ Generator()\l+ Generator()\l+ ~Generator()\l+ Init()\l+ ReadEvent()\l+ setMomentumUnit()\l+ setEnergyUnit()\l+ setPositionUnit()\l+ setTimeUnit()\l+ setBoost()\l+ setTriggerMode()\l+ addTrigger()\l+ addDeepTrigger()\l+ notifyEmbedding()\l# Generator()\l# operator=()\l# generateEvent()\l# importParticles()\l# updateHeader()\l# addTracks()\l# boostEvent()\l# triggerEvent()\l# ClassDefOverride()\l}">
<polygon fill="none" stroke="#000000" points="473.5,-292.5 473.5,-591.5 608.5,-591.5 608.5,-292.5 473.5,-292.5"/>
<text text-anchor="middle" x="541" y="-579.5" font-family="Helvetica,sans-Serif" font-size="10.00" fill="#000000">o2::eventgen::Generator</text>
<polyline fill="none" stroke="#000000" points="473.5,-572.5 608.5,-572.5 "/>
<text text-anchor="middle" x="541" y="-560.5" font-family="Helvetica,sans-Serif" font-size="10.00" fill="#000000"> </text>
<polyline fill="none" stroke="#000000" points="473.5,-553.5 608.5,-553.5 "/>
<text text-anchor="start" x="481.5" y="-541.5" font-family="Helvetica,sans-Serif" font-size="10.00" fill="#000000">+ Generator()</text>
<text text-anchor="start" x="481.5" y="-530.5" font-family="Helvetica,sans-Serif" font-size="10.00" fill="#000000">+ Generator()</text>
<text text-anchor="start" x="481.5" y="-519.5" font-family="Helvetica,sans-Serif" font-size="10.00" fill="#000000">+ ~Generator()</text>
<text text-anchor="start" x="481.5" y="-508.5" font-family="Helvetica,sans-Serif" font-size="10.00" fill="#000000">+ Init()</text>
<text text-anchor="start" x="481.5" y="-497.5" font-family="Helvetica,sans-Serif" font-size="10.00" fill="#000000">+ ReadEvent()</text>
<text text-anchor="start" x="481.5" y="-486.5" font-family="Helvetica,sans-Serif" font-size="10.00" fill="#000000">+ setMomentumUnit()</text>
<text text-anchor="start" x="481.5" y="-475.5" font-family="Helvetica,sans-Serif" font-size="10.00" fill="#000000">+ setEnergyUnit()</text>
<text text-anchor="start" x="481.5" y="-464.5" font-family="Helvetica,sans-Serif" font-size="10.00" fill="#000000">+ setPositionUnit()</text>
<text text-anchor="start" x="481.5" y="-453.5" font-family="Helvetica,sans-Serif" font-size="10.00" fill="#000000">+ setTimeUnit()</text>
<text text-anchor="start" x="481.5" y="-442.5" font-family="Helvetica,sans-Serif" font-size="10.00" fill="#000000">+ setBoost()</text>
<text text-anchor="start" x="481.5" y="-431.5" font-family="Helvetica,sans-Serif" font-size="10.00" fill="#000000">+ setTriggerMode()</text>
<text text-anchor="start" x="481.5" y="-420.5" font-family="Helvetica,sans-Serif" font-size="10.00" fill="#000000">+ addTrigger()</text>
<text text-anchor="start" x="481.5" y="-409.5" font-family="Helvetica,sans-Serif" font-size="10.00" fill="#000000">+ addDeepTrigger()</text>
<text text-anchor="start" x="481.5" y="-398.5" font-family="Helvetica,sans-Serif" font-size="10.00" fill="#000000">+ notifyEmbedding()</text>
<text text-anchor="start" x="481.5" y="-387.5" font-family="Helvetica,sans-Serif" font-size="10.00" fill="#000000"># Generator()</text>
<text text-anchor="start" x="481.5" y="-376.5" font-family="Helvetica,sans-Serif" font-size="10.00" fill="#000000"># operator=()</text>
<text text-anchor="start" x="481.5" y="-365.5" font-family="Helvetica,sans-Serif" font-size="10.00" fill="#000000"># generateEvent()</text>
<text text-anchor="start" x="481.5" y="-354.5" font-family="Helvetica,sans-Serif" font-size="10.00" fill="#000000"># importParticles()</text>
<text text-anchor="start" x="481.5" y="-343.5" font-family="Helvetica,sans-Serif" font-size="10.00" fill="#000000"># updateHeader()</text>
<text text-anchor="start" x="481.5" y="-332.5" font-family="Helvetica,sans-Serif" font-size="10.00" fill="#000000"># addTracks()</text>
<text text-anchor="start" x="481.5" y="-321.5" font-family="Helvetica,sans-Serif" font-size="10.00" fill="#000000"># boostEvent()</text>
<text text-anchor="start" x="481.5" y="-310.5" font-family="Helvetica,sans-Serif" font-size="10.00" fill="#000000"># triggerEvent()</text>
<text text-anchor="start" x="481.5" y="-299.5" font-family="Helvetica,sans-Serif" font-size="10.00" fill="#000000"># ClassDefOverride()</text>
</a>
</g>
</g>
<!-- Node4&#45;&gt;Node3 -->
<g id="edge1" class="edge">
<title>Node4&#45;&gt;Node3</title>
<path fill="none" stroke="#191970" d="M617.2345,-382.0076C686.4928,-327.5051 788.573,-247.1735 860.7805,-190.3501"/>
<polygon fill="none" stroke="#191970" points="614.6493,-379.5882 608.9553,-388.5229 618.9783,-385.0891 614.6493,-379.5882"/>
</g>
<!-- Node5 -->
<g id="node3" class="node">
<title>Node5</title>
<g id="a_node3"><a xlink:href="../../df/d40/classFairGenerator.html" target="_top" xlink:title="{FairGenerator\n||}">
<polygon fill="none" stroke="#000000" points="544.5,-672.5 544.5,-729.5 627.5,-729.5 627.5,-672.5 544.5,-672.5"/>
<text text-anchor="middle" x="586" y="-717.5" font-family="Helvetica,sans-Serif" font-size="10.00" fill="#000000">FairGenerator</text>
<polyline fill="none" stroke="#000000" points="544.5,-710.5 627.5,-710.5 "/>
<text text-anchor="middle" x="586" y="-698.5" font-family="Helvetica,sans-Serif" font-size="10.00" fill="#000000"> </text>
<polyline fill="none" stroke="#000000" points="544.5,-691.5 627.5,-691.5 "/>
<text text-anchor="middle" x="586" y="-679.5" font-family="Helvetica,sans-Serif" font-size="10.00" fill="#000000"> </text>
</a>
</g>
</g>
<!-- Node5&#45;&gt;Node4 -->
<g id="edge2" class="edge">
<title>Node5&#45;&gt;Node4</title>
<path fill="none" stroke="#191970" d="M579.284,-662.3454C575.8974,-642.8541 571.5497,-617.8304 567.0064,-591.6812"/>
<polygon fill="none" stroke="#191970" points="575.852,-663.0396 581.0123,-672.2929 582.7487,-661.8413 575.852,-663.0396"/>
</g>
<!-- Node6 -->
<g id="node4" class="node">
<title>Node6</title>
<polygon fill="none" stroke="#bfbfbf" points="0,-672.5 0,-729.5 112,-729.5 112,-672.5 0,-672.5"/>
<text text-anchor="middle" x="56" y="-717.5" font-family="Helvetica,sans-Serif" font-size="10.00" fill="#000000">vector&lt; TParticle &gt;</text>
<polyline fill="none" stroke="#bfbfbf" points="0,-710.5 112,-710.5 "/>
<text text-anchor="middle" x="56" y="-698.5" font-family="Helvetica,sans-Serif" font-size="10.00" fill="#000000"> </text>
<polyline fill="none" stroke="#bfbfbf" points="0,-691.5 112,-691.5 "/>
<text text-anchor="middle" x="56" y="-679.5" font-family="Helvetica,sans-Serif" font-size="10.00" fill="#000000"> </text>
</g>
<!-- Node6&#45;&gt;Node4 -->
<g id="edge3" class="edge">
<title>Node6&#45;&gt;Node4</title>
<path fill="none" stroke="#404040" d="M64.7802,-672.1071C72.1347,-652.2628 84.4522,-626.6038 103,-610 206.437,-517.4041 366.3197,-473.634 461.6181,-454.7216"/>
<polygon fill="none" stroke="#404040" points="461.6998,-454.7059 466.8321,-449.6403 473.4819,-452.4295 468.3497,-457.495 461.6998,-454.7059"/>
<text text-anchor="middle" x="134.5" y="-629.5" font-family="Helvetica,sans-Serif" font-size="10.00" fill="#000000"> #mParticles</text>
</g>
<!-- Node7 -->
<g id="node5" class="node">
<title>Node7</title>
<polygon fill="none" stroke="#bfbfbf" points="130,-672.5 130,-729.5 180,-729.5 180,-672.5 130,-672.5"/>
<text text-anchor="middle" x="155" y="-717.5" font-family="Helvetica,sans-Serif" font-size="10.00" fill="#000000">double</text>
<polyline fill="none" stroke="#bfbfbf" points="130,-710.5 180,-710.5 "/>
<text text-anchor="middle" x="155" y="-698.5" font-family="Helvetica,sans-Serif" font-size="10.00" fill="#000000"> </text>
<polyline fill="none" stroke="#bfbfbf" points="130,-691.5 180,-691.5 "/>
<text text-anchor="middle" x="155" y="-679.5" font-family="Helvetica,sans-Serif" font-size="10.00" fill="#000000"> </text>
</g>
<!-- Node7&#45;&gt;Node4 -->
<g id="edge4" class="edge">
<title>Node7&#45;&gt;Node4</title>
<path fill="none" stroke="#404040" d="M162.7008,-672.1843C169.1573,-652.6309 180.086,-627.2884 197,-610 270.6794,-534.6895 385.0115,-488.2299 461.3998,-463.7675"/>
<polygon fill="none" stroke="#404040" points="461.8715,-463.6197 466.3999,-458.0077 473.3218,-460.0293 468.7935,-465.6413 461.8715,-463.6197"/>
<text text-anchor="middle" x="244" y="-646" font-family="Helvetica,sans-Serif" font-size="10.00" fill="#000000"> #mTimeUnit</text>
<text text-anchor="middle" x="244" y="-635" font-family="Helvetica,sans-Serif" font-size="10.00" fill="#000000">#mEnergyUnit</text>
<text text-anchor="middle" x="244" y="-624" font-family="Helvetica,sans-Serif" font-size="10.00" fill="#000000">#mPositionUnit</text>
<text text-anchor="middle" x="244" y="-613" font-family="Helvetica,sans-Serif" font-size="10.00" fill="#000000">#mMomentumUnit</text>
</g>
<!-- Node8 -->
<g id="node6" class="node">
<title>Node8</title>
<polygon fill="none" stroke="#bfbfbf" points="198,-672.5 198,-729.5 326,-729.5 326,-672.5 198,-672.5"/>
<text text-anchor="middle" x="262" y="-717.5" font-family="Helvetica,sans-Serif" font-size="10.00" fill="#000000">vector&lt; DeepTrigger &gt;</text>
<polyline fill="none" stroke="#bfbfbf" points="198,-710.5 326,-710.5 "/>
<text text-anchor="middle" x="262" y="-698.5" font-family="Helvetica,sans-Serif" font-size="10.00" fill="#000000"> </text>
<polyline fill="none" stroke="#bfbfbf" points="198,-691.5 326,-691.5 "/>
<text text-anchor="middle" x="262" y="-679.5" font-family="Helvetica,sans-Serif" font-size="10.00" fill="#000000"> </text>
</g>
<!-- Node8&#45;&gt;Node4 -->
<g id="edge5" class="edge">
<title>Node8&#45;&gt;Node4</title>
<path fill="none" stroke="#404040" d="M280.8659,-672.4906C293.8852,-653.7883 312.1827,-629.3127 331,-610 371.4204,-568.5154 421.9797,-527.7859 463.3598,-496.8214"/>
<polygon fill="none" stroke="#404040" points="463.4921,-496.7231 465.9233,-489.9342 473.1251,-489.5672 470.6939,-496.3561 463.4921,-496.7231"/>
<text text-anchor="middle" x="373.5" y="-629.5" font-family="Helvetica,sans-Serif" font-size="10.00" fill="#000000"> #mDeepTriggers</text>
</g>
<!-- Node9 -->
<g id="node7" class="node">
<title>Node9</title>
<polygon fill="none" stroke="#bfbfbf" points="344.5,-672.5 344.5,-729.5 447.5,-729.5 447.5,-672.5 344.5,-672.5"/>
<text text-anchor="middle" x="396" y="-717.5" font-family="Helvetica,sans-Serif" font-size="10.00" fill="#000000">vector&lt; Trigger &gt;</text>
<polyline fill="none" stroke="#bfbfbf" points="344.5,-710.5 447.5,-710.5 "/>
<text text-anchor="middle" x="396" y="-698.5" font-family="Helvetica,sans-Serif" font-size="10.00" fill="#000000"> </text>
<polyline fill="none" stroke="#bfbfbf" points="344.5,-691.5 447.5,-691.5 "/>
<text text-anchor="middle" x="396" y="-679.5" font-family="Helvetica,sans-Serif" font-size="10.00" fill="#000000"> </text>
</g>
<!-- Node9&#45;&gt;Node4 -->
<g id="edge6" class="edge">
<title>Node9&#45;&gt;Node4</title>
<path fill="none" stroke="#404040" d="M409.4267,-672.4263C418.0928,-654.3505 429.8014,-630.5929 441,-610 449.2345,-594.8577 458.137,-579.1122 467.1184,-563.5987"/>
<polygon fill="none" stroke="#404040" points="467.3055,-563.2773 466.8665,-556.0795 473.3417,-552.906 473.7807,-560.1037 467.3055,-563.2773"/>
<text text-anchor="middle" x="471" y="-629.5" font-family="Helvetica,sans-Serif" font-size="10.00" fill="#000000"> #mTriggers</text>
</g>
<!-- Node10 -->
<g id="node8" class="node">
<title>Node10</title>
<polygon fill="none" stroke="#bfbfbf" points="466,-672.5 466,-729.5 526,-729.5 526,-672.5 466,-672.5"/>
<text text-anchor="middle" x="496" y="-717.5" font-family="Helvetica,sans-Serif" font-size="10.00" fill="#000000">Double_t</text>
<polyline fill="none" stroke="#bfbfbf" points="466,-710.5 526,-710.5 "/>
<text text-anchor="middle" x="496" y="-698.5" font-family="Helvetica,sans-Serif" font-size="10.00" fill="#000000"> </text>
<polyline fill="none" stroke="#bfbfbf" points="466,-691.5 526,-691.5 "/>
<text text-anchor="middle" x="496" y="-679.5" font-family="Helvetica,sans-Serif" font-size="10.00" fill="#000000"> </text>
</g>
<!-- Node10&#45;&gt;Node4 -->
<g id="edge7" class="edge">
<title>Node10&#45;&gt;Node4</title>
<path fill="none" stroke="#404040" d="M500.9877,-672.2929C504.0874,-654.4525 508.3475,-629.9332 512.9371,-603.5175"/>
<polygon fill="none" stroke="#404040" points="512.9394,-603.5041 510.0255,-596.9079 514.9936,-591.6812 517.9074,-598.2774 512.9394,-603.5041"/>
<text text-anchor="middle" x="535.5" y="-629.5" font-family="Helvetica,sans-Serif" font-size="10.00" fill="#000000"> #mBoost</text>
</g>
<!-- Node11 -->
<g id="node9" class="node">
<title>Node11</title>
<polygon fill="none" stroke="#bfbfbf" points="862.5,-672.5 862.5,-729.5 891.5,-729.5 891.5,-672.5 862.5,-672.5"/>
<text text-anchor="middle" x="877" y="-717.5" font-family="Helvetica,sans-Serif" font-size="10.00" fill="#000000">int</text>
<polyline fill="none" stroke="#bfbfbf" points="862.5,-710.5 891.5,-710.5 "/>
<text text-anchor="middle" x="877" y="-698.5" font-family="Helvetica,sans-Serif" font-size="10.00" fill="#000000"> </text>
<polyline fill="none" stroke="#bfbfbf" points="862.5,-691.5 891.5,-691.5 "/>
<text text-anchor="middle" x="877" y="-679.5" font-family="Helvetica,sans-Serif" font-size="10.00" fill="#000000"> </text>
</g>
<!-- Node11&#45;&gt;Node3 -->
<g id="edge11" class="edge">
<title>Node11&#45;&gt;Node3</title>
<path fill="none" stroke="#404040" d="M891.506,-693.5515C904.9976,-685.7325 924.2871,-672.0627 933,-654 949.7853,-619.2024 950.6038,-402.6026 949.1605,-256.8724"/>
<polygon fill="none" stroke="#404040" points="949.1594,-256.7549 945.0968,-250.7971 949.0337,-244.7556 953.0963,-250.7134 949.1594,-256.7549"/>
<text text-anchor="middle" x="1001.5" y="-450.5" font-family="Helvetica,sans-Serif" font-size="10.00" fill="#000000"> #mHooksFuncName</text>
<text text-anchor="middle" x="1001.5" y="-439.5" font-family="Helvetica,sans-Serif" font-size="10.00" fill="#000000">#mConfig</text>
<text text-anchor="middle" x="1001.5" y="-428.5" font-family="Helvetica,sans-Serif" font-size="10.00" fill="#000000">#mHooksFileName</text>
</g>
<!-- Node11&#45;&gt;Node4 -->
<g id="edge8" class="edge">
<title>Node11&#45;&gt;Node4</title>
<path fill="none" stroke="#404040" d="M862.4385,-684.6459C854.9835,-675.8784 846.024,-664.7025 839,-654 826.8927,-635.552 831.0738,-626.115 816,-610 760.4118,-550.5724 679.2193,-504.4427 619.4607,-475.6835"/>
<polygon fill="none" stroke="#404040" points="619.4058,-475.6575 612.2706,-476.7013 608.5629,-470.5164 615.698,-469.4726 619.4058,-475.6575"/>
<text text-anchor="middle" x="886" y="-629.5" font-family="Helvetica,sans-Serif" font-size="10.00" fill="#000000"> #mInterfaceName</text>
</g>
<!-- Node12 -->
<g id="node10" class="node">
<title>Node12</title>
<polygon fill="none" stroke="#bfbfbf" points="645.5,-672.5 645.5,-729.5 736.5,-729.5 736.5,-672.5 645.5,-672.5"/>
<text text-anchor="middle" x="691" y="-717.5" font-family="Helvetica,sans-Serif" font-size="10.00" fill="#000000">ETriggerMode_t</text>
<polyline fill="none" stroke="#bfbfbf" points="645.5,-710.5 736.5,-710.5 "/>
<text text-anchor="middle" x="691" y="-698.5" font-family="Helvetica,sans-Serif" font-size="10.00" fill="#000000"> </text>
<polyline fill="none" stroke="#bfbfbf" points="645.5,-691.5 736.5,-691.5 "/>
<text text-anchor="middle" x="691" y="-679.5" font-family="Helvetica,sans-Serif" font-size="10.00" fill="#000000"> </text>
</g>
<!-- Node12&#45;&gt;Node4 -->
<g id="edge9" class="edge">
<title>Node12&#45;&gt;Node4</title>
<path fill="none" stroke="#404040" d="M661.6892,-672.2799C656.4817,-666.4787 651.342,-660.2383 647,-654 635.5534,-637.5541 624.6263,-619.6945 614.4352,-601.554"/>
<polygon fill="none" stroke="#404040" points="614.3242,-601.353 607.9216,-598.0354 608.5215,-590.8492 614.9241,-594.1669 614.3242,-601.353"/>
<text text-anchor="middle" x="687.5" y="-629.5" font-family="Helvetica,sans-Serif" font-size="10.00" fill="#000000"> #mTriggerMode</text>
</g>
<!-- Node13 -->
<g id="node11" class="node">
<title>Node13</title>
<polygon fill="none" stroke="#bfbfbf" points="755,-672.5 755,-729.5 801,-729.5 801,-672.5 755,-672.5"/>
<text text-anchor="middle" x="778" y="-717.5" font-family="Helvetica,sans-Serif" font-size="10.00" fill="#000000">void *</text>
<polyline fill="none" stroke="#bfbfbf" points="755,-710.5 801,-710.5 "/>
<text text-anchor="middle" x="778" y="-698.5" font-family="Helvetica,sans-Serif" font-size="10.00" fill="#000000"> </text>
<polyline fill="none" stroke="#bfbfbf" points="755,-691.5 801,-691.5 "/>
<text text-anchor="middle" x="778" y="-679.5" font-family="Helvetica,sans-Serif" font-size="10.00" fill="#000000"> </text>
</g>
<!-- Node13&#45;&gt;Node4 -->
<g id="edge10" class="edge">
<title>Node13&#45;&gt;Node4</title>
<path fill="none" stroke="#404040" d="M761.2544,-672.2694C757.8184,-666.2579 754.2575,-659.9409 751,-654 740.391,-634.6516 741.5337,-627.4285 728,-610 696.5485,-569.4974 654.5738,-530.7829 618.3617,-500.7477"/>
<polygon fill="none" stroke="#404040" points="618.082,-500.5183 610.9061,-499.8063 608.8034,-492.9085 615.9793,-493.6205 618.082,-500.5183"/>
<text text-anchor="middle" x="783.5" y="-629.5" font-family="Helvetica,sans-Serif" font-size="10.00" fill="#000000"> #mInterface</text>
</g>
<!-- Node14 -->
<g id="node12" class="node">
<title>Node14</title>
<polygon fill="none" stroke="#bfbfbf" points="1068.5,-413.5 1068.5,-470.5 1115.5,-470.5 1115.5,-413.5 1068.5,-413.5"/>
<text text-anchor="middle" x="1092" y="-458.5" font-family="Helvetica,sans-Serif" font-size="10.00" fill="#000000">Pythia</text>
<polyline fill="none" stroke="#bfbfbf" points="1068.5,-451.5 1115.5,-451.5 "/>
<text text-anchor="middle" x="1092" y="-439.5" font-family="Helvetica,sans-Serif" font-size="10.00" fill="#000000"> </text>
<polyline fill="none" stroke="#bfbfbf" points="1068.5,-432.5 1115.5,-432.5 "/>
<text text-anchor="middle" x="1092" y="-420.5" font-family="Helvetica,sans-Serif" font-size="10.00" fill="#000000"> </text>
</g>
<!-- Node14&#45;&gt;Node3 -->
<g id="edge12" class="edge">
<title>Node14&#45;&gt;Node3</title>
<path fill="none" stroke="#404040" d="M1087.5397,-413.4915C1082.0899,-382.6571 1071.3839,-332.4829 1054,-292 1048.743,-279.7578 1042.6653,-267.3863 1036.1299,-255.1979"/>
<polygon fill="none" stroke="#404040" points="1036.0543,-255.0603 1029.66,-251.7266 1030.2779,-244.542 1036.6722,-247.8757 1036.0543,-255.0603"/>
<text text-anchor="middle" x="1070" y="-266" font-family="Helvetica,sans-Serif" font-size="10.00" fill="#000000"> #mPythia</text>
</g>
</g>
</svg>
        <g id="navigator" transform="translate(0 0)" fill="#404254">
                <rect fill="#f2f5e9" fill-opacity="0.5" stroke="#606060" stroke-width=".5" x="0" y="0" width="60" height="60"/>
                <use id="zoomplus" xlink:href="#zoomPlus" x="17" y="9" onmousedown="handleZoom(evt,'in')"/>
                <use id="zoomminus" xlink:href="#zoomMin" x="42" y="9" onmousedown="handleZoom(evt,'out')"/>
                <use id="reset" xlink:href="#resetDef" x="30" y="36" onmousedown="handleReset()"/>
                <g id="arrowUp" xlink:href="#dirArrow" transform="translate(30 24)" onmousedown="handlePan(0,-1)">
                  <use xlink:href="#rim" fill="#404040">
                        <set attributeName="fill" to="#808080" begin="arrowUp.mouseover" end="arrowUp.mouseout"/>
                  </use>
                  <path fill="none" stroke="white" stroke-width="1.5" d="M0,-3.0v7 M-2.5,-0.5L0,-3.0L2.5,-0.5"/>
                </g>
                <g id="arrowRight" xlink:href="#dirArrow" transform="rotate(90) translate(36 -43)" onmousedown="handlePan(1,0)">
                  <use xlink:href="#rim" fill="#404040">
                        <set attributeName="fill" to="#808080" begin="arrowRight.mouseover" end="arrowRight.mouseout"/>
                  </use>
                  <path fill="none" stroke="white" stroke-width="1.5" d="M0,-3.0v7 M-2.5,-0.5L0,-3.0L2.5,-0.5"/>
                </g>
                <g id="arrowDown" xlink:href="#dirArrow" transform="rotate(180) translate(-30 -48)" onmousedown="handlePan(0,1)">
                  <use xlink:href="#rim" fill="#404040">
                        <set attributeName="fill" to="#808080" begin="arrowDown.mouseover" end="arrowDown.mouseout"/>
                  </use>
                  <path fill="none" stroke="white" stroke-width="1.5" d="M0,-3.0v7 M-2.5,-0.5L0,-3.0L2.5,-0.5"/>
                </g>
                <g id="arrowLeft" xlink:href="#dirArrow" transform="rotate(270) translate(-36 17)" onmousedown="handlePan(-1,0)">
                  <use xlink:href="#rim" fill="#404040">
                        <set attributeName="fill" to="#808080" begin="arrowLeft.mouseover" end="arrowLeft.mouseout"/>
                  </use>
                  <path fill="none" stroke="white" stroke-width="1.5" d="M0,-3.0v7 M-2.5,-0.5L0,-3.0L2.5,-0.5"/>
                </g>
        </g>
        <svg viewBox="0 0 15 15" width="100%" height="30px" preserveAspectRatio="xMaxYMin meet">
         <g id="arrow_out" transform="scale(0.3 0.3)">
          <a xlink:href="classo2_1_1eventgen_1_1GeneratorPythia8__coll__graph_org.svg" target="_base">
           <rect id="button" ry="5" rx="5" y="6" x="6" height="38" width="38"
                fill="#f2f5e9" fill-opacity="0.5" stroke="#606060" stroke-width="1.0"/>
           <path id="arrow"
             d="M 11.500037,31.436501 C 11.940474,20.09759 22.043105,11.32322 32.158766,21.979434 L 37.068811,17.246167 C 37.068811,17.246167 37.088388,32 37.088388,32 L 22.160133,31.978069 C 22.160133,31.978069 26.997745,27.140456 26.997745,27.140456 C 18.528582,18.264221 13.291696,25.230495 11.500037,31.436501 z"
             style="fill:#404040;"/>
          </a>
         </g>
        </svg>
</svg>
