<?xml version="1.0" encoding="UTF-8" standalone="no"?>
<!DOCTYPE svg PUBLIC "-//W3C//DTD SVG 1.1//EN"
 "http://www.w3.org/Graphics/SVG/1.1/DTD/svg11.dtd">
<!-- Generated by graphviz version 2.40.1 (20161225.0304)
 -->
<!-- Title: /home/travis/build/AliceO2Group/AliceO2/DataFormats/simulation/src/MCEventLabel.cxx Pages: 1 -->
<svg width="473pt" height="240pt"
 viewBox="0.00 0.00 472.50 240.00" xmlns="http://www.w3.org/2000/svg" xmlns:xlink="http://www.w3.org/1999/xlink">
<g id="graph0" class="graph" transform="scale(1 1) rotate(0) translate(4 236)">
<title>/home/travis/build/AliceO2Group/AliceO2/DataFormats/simulation/src/MCEventLabel.cxx</title>
<!-- Node0 -->
<g id="node1" class="node">
<title>Node0</title>
<polygon fill="#bfbfbf" stroke="#000000" points="240,-179.5 240,-231.5 377,-231.5 377,-179.5 240,-179.5"/>
<text text-anchor="start" x="248" y="-219.5" font-family="Helvetica,sans-Serif" font-size="10.00" fill="#000000">/home/travis/build</text>
<text text-anchor="start" x="248" y="-208.5" font-family="Helvetica,sans-Serif" font-size="10.00" fill="#000000">/AliceO2Group/AliceO2</text>
<text text-anchor="start" x="248" y="-197.5" font-family="Helvetica,sans-Serif" font-size="10.00" fill="#000000">/DataFormats/simulation</text>
<text text-anchor="middle" x="308.5" y="-186.5" font-family="Helvetica,sans-Serif" font-size="10.00" fill="#000000">/src/MCEventLabel.cxx</text>
</g>
<!-- Node1 -->
<g id="node2" class="node">
<title>Node1</title>
<g id="a_node2"><a xlink:href="../../da/df0/MCEventLabel_8h.html" target="_top" xlink:title="SimulationDataFormat\l/MCEventLabel.h">
<polygon fill="none" stroke="#000000" points="97,-112.5 97,-142.5 224,-142.5 224,-112.5 97,-112.5"/>
<text text-anchor="start" x="105" y="-130.5" font-family="Helvetica,sans-Serif" font-size="10.00" fill="#000000">SimulationDataFormat</text>
<text text-anchor="middle" x="160.5" y="-119.5" font-family="Helvetica,sans-Serif" font-size="10.00" fill="#000000">/MCEventLabel.h</text>
</a>
</g>
</g>
<!-- Node0&#45;&gt;Node1 -->
<g id="edge1" class="edge">
<title>Node0&#45;&gt;Node1</title>
<path fill="none" stroke="#191970" d="M258.8064,-179.3101C238.979,-168.8605 216.5325,-157.0307 198.0991,-147.3158"/>
<polygon fill="#191970" stroke="#191970" points="199.6103,-144.1559 189.1318,-142.5897 196.3466,-150.3485 199.6103,-144.1559"/>
</g>
<!-- Node5 -->
<g id="node6" class="node">
<title>Node5</title>
<polygon fill="none" stroke="#bfbfbf" points="220.5,-56.5 220.5,-75.5 272.5,-75.5 272.5,-56.5 220.5,-56.5"/>
<text text-anchor="middle" x="246.5" y="-63.5" font-family="Helvetica,sans-Serif" font-size="10.00" fill="#000000">cassert</text>
</g>
<!-- Node0&#45;&gt;Node5 -->
<g id="edge9" class="edge">
<title>Node0&#45;&gt;Node5</title>
<path fill="none" stroke="#191970" d="M291.3199,-179.4298C284.5666,-168.474 277.1055,-155.4111 271.5,-143 262.945,-124.0585 255.9318,-101.3075 251.5336,-85.4681"/>
<polygon fill="#191970" stroke="#191970" points="254.8945,-84.4878 248.9198,-75.7383 248.1342,-86.304 254.8945,-84.4878"/>
</g>
<!-- Node6 -->
<g id="node7" class="node">
<title>Node6</title>
<polygon fill="none" stroke="#bfbfbf" points="280.5,-118 280.5,-137 336.5,-137 336.5,-118 280.5,-118"/>
<text text-anchor="middle" x="308.5" y="-125" font-family="Helvetica,sans-Serif" font-size="10.00" fill="#000000">iomanip</text>
</g>
<!-- Node0&#45;&gt;Node6 -->
<g id="edge6" class="edge">
<title>Node0&#45;&gt;Node6</title>
<path fill="none" stroke="#191970" d="M308.5,-179.0928C308.5,-168.6735 308.5,-156.911 308.5,-147.2512"/>
<polygon fill="#191970" stroke="#191970" points="312.0001,-147.0838 308.5,-137.0839 305.0001,-147.0839 312.0001,-147.0838"/>
</g>
<!-- Node7 -->
<g id="node8" class="node">
<title>Node7</title>
<polygon fill="none" stroke="#bfbfbf" points="355,-118 355,-137 386,-137 386,-118 355,-118"/>
<text text-anchor="middle" x="370.5" y="-125" font-family="Helvetica,sans-Serif" font-size="10.00" fill="#000000">ios</text>
</g>
<!-- Node0&#45;&gt;Node7 -->
<g id="edge7" class="edge">
<title>Node0&#45;&gt;Node7</title>
<path fill="none" stroke="#191970" d="M329.4904,-179.0928C338.4025,-167.8808 348.551,-155.1133 356.5227,-145.0843"/>
<polygon fill="#191970" stroke="#191970" points="359.3995,-147.09 362.8821,-137.0839 353.9197,-142.7343 359.3995,-147.09"/>
</g>
<!-- Node8 -->
<g id="node9" class="node">
<title>Node8</title>
<polygon fill="none" stroke="#bfbfbf" points="404.5,-118 404.5,-137 464.5,-137 464.5,-118 404.5,-118"/>
<text text-anchor="middle" x="434.5" y="-125" font-family="Helvetica,sans-Serif" font-size="10.00" fill="#000000">iostream</text>
</g>
<!-- Node0&#45;&gt;Node8 -->
<g id="edge8" class="edge">
<title>Node0&#45;&gt;Node8</title>
<path fill="none" stroke="#191970" d="M350.8067,-179.3101C370.5923,-167.0619 393.4413,-152.9173 410.2611,-142.505"/>
<polygon fill="#191970" stroke="#191970" points="412.2671,-145.3796 418.9275,-137.1401 408.5826,-139.4278 412.2671,-145.3796"/>
</g>
<!-- Node2 -->
<g id="node3" class="node">
<title>Node2</title>
<g id="a_node3"><a xlink:href="../../d2/d45/GPUCommonRtypes_8h.html" target="_top" xlink:title="GPUCommonRtypes.h">
<polygon fill="none" stroke="#000000" points="0,-56.5 0,-75.5 125,-75.5 125,-56.5 0,-56.5"/>
<text text-anchor="middle" x="62.5" y="-63.5" font-family="Helvetica,sans-Serif" font-size="10.00" fill="#000000">GPUCommonRtypes.h</text>
</a>
</g>
</g>
<!-- Node1&#45;&gt;Node2 -->
<g id="edge2" class="edge">
<title>Node1&#45;&gt;Node2</title>
<path fill="none" stroke="#191970" d="M136.5265,-112.4554C121.3224,-102.9141 101.7241,-90.6151 86.5125,-81.0691"/>
<polygon fill="#191970" stroke="#191970" points="88.0172,-77.8813 77.6865,-75.5303 84.2963,-83.8105 88.0172,-77.8813"/>
</g>
<!-- Node4 -->
<g id="node5" class="node">
<title>Node4</title>
<polygon fill="none" stroke="#bfbfbf" points="143,-56.5 143,-75.5 190,-75.5 190,-56.5 143,-56.5"/>
<text text-anchor="middle" x="166.5" y="-63.5" font-family="Helvetica,sans-Serif" font-size="10.00" fill="#000000">cmath</text>
</g>
<!-- Node1&#45;&gt;Node4 -->
<g id="edge4" class="edge">
<title>Node1&#45;&gt;Node4</title>
<path fill="none" stroke="#191970" d="M161.9831,-112.2977C162.7553,-104.3834 163.7093,-94.6043 164.5414,-86.0759"/>
<polygon fill="#191970" stroke="#191970" points="168.0517,-86.1396 165.5393,-75.8469 161.0848,-85.4598 168.0517,-86.1396"/>
</g>
<!-- Node1&#45;&gt;Node5 -->
<g id="edge5" class="edge">
<title>Node1&#45;&gt;Node5</title>
<path fill="none" stroke="#191970" d="M181.7584,-112.2977C194.7718,-102.9917 211.3903,-91.1075 224.5317,-81.7099"/>
<polygon fill="#191970" stroke="#191970" points="226.8889,-84.3271 232.9871,-75.6633 222.8171,-78.6332 226.8889,-84.3271"/>
</g>
<!-- Node3 -->
<g id="node4" class="node">
<title>Node3</title>
<polygon fill="none" stroke="#bfbfbf" points="33,-.5 33,-19.5 92,-19.5 92,-.5 33,-.5"/>
<text text-anchor="middle" x="62.5" y="-7.5" font-family="Helvetica,sans-Serif" font-size="10.00" fill="#000000">Rtypes.h</text>
</g>
<!-- Node2&#45;&gt;Node3 -->
<g id="edge3" class="edge">
<title>Node2&#45;&gt;Node3</title>
<path fill="none" stroke="#191970" d="M62.5,-56.2455C62.5,-48.9382 62.5,-38.6944 62.5,-29.7046"/>
<polygon fill="#191970" stroke="#191970" points="66.0001,-29.6426 62.5,-19.6427 59.0001,-29.6427 66.0001,-29.6426"/>
</g>
</g>
</svg>
