<?xml version="1.0" encoding="UTF-8" standalone="no"?>
<!DOCTYPE svg PUBLIC "-//W3C//DTD SVG 1.1//EN"
 "http://www.w3.org/Graphics/SVG/1.1/DTD/svg11.dtd">
<!-- Generated by graphviz version 2.40.1 (20161225.0304)
 -->
<!-- Title: /home/travis/build/AliceO2Group/AliceO2/Generators/src/GeneratorHepMC.cxx Pages: 1 -->
<!--zoomable 318 -->
<svg id="main" version="1.1" xmlns="http://www.w3.org/2000/svg" xmlns:xlink="http://www.w3.org/1999/xlink" xml:space="preserve" onload="init(evt)">
<style type="text/css"><![CDATA[
.edge:hover path { stroke: red; }
.edge:hover polygon { stroke: red; fill: red; }
]]></style>
<script type="text/javascript"><![CDATA[
var edges = document.getElementsByTagName('g');
if (edges && edges.length) {
  for (var i=0;i<edges.length;i++) {
    if (edges[i].id.substr(0,4)=='edge') {
      edges[i].setAttribute('class','edge');
    }
  }
}
]]></script>
        <defs>
                <circle id="rim" cx="0" cy="0" r="7"/>
                <circle id="rim2" cx="0" cy="0" r="3.5"/>
                <g id="zoomPlus">
                        <use xlink:href="#rim" fill="#404040">
                                <set attributeName="fill" to="#808080" begin="zoomplus.mouseover" end="zoomplus.mouseout"/>
                        </use>
                        <path d="M-4,0h8M0,-4v8" fill="none" stroke="white" stroke-width="1.5" pointer-events="none"/>
                </g>
                <g id="zoomMin">
                        <use xlink:href="#rim" fill="#404040">
                                <set attributeName="fill" to="#808080" begin="zoomminus.mouseover" end="zoomminus.mouseout"/>
                        </use>
                        <path d="M-4,0h8" fill="none" stroke="white" stroke-width="1.5" pointer-events="none"/>
                </g>
                <g id="dirArrow">
                        <path fill="none" stroke="white" stroke-width="1.5" d="M0,-3.0v7 M-2.5,-0.5L0,-3.0L2.5,-0.5"/>
                </g>
               <g id="resetDef">
                       <use xlink:href="#rim2" fill="#404040">
                               <set attributeName="fill" to="#808080" begin="reset.mouseover" end="reset.mouseout"/>
                       </use>
               </g>
        </defs>

<script type="text/javascript">
var viewWidth = 1847;
var viewHeight = 318;
var sectionId = 'dynsection-0';
</script>
<script xlink:href="../../svgpan.js"/>
<svg id="graph" class="graph">
<g id="viewport">
<title>/home/travis/build/AliceO2Group/AliceO2/Generators/src/GeneratorHepMC.cxx</title>
<!-- Node0 -->
<g id="node1" class="node">
<title>Node0</title>
<polygon fill="#bfbfbf" stroke="#000000" points="1027.4221,-257.5 1027.4221,-309.5 1189.4221,-309.5 1189.4221,-257.5 1027.4221,-257.5"/>
<text text-anchor="start" x="1035.4221" y="-297.5" font-family="Helvetica,sans-Serif" font-size="10.00" fill="#000000">/home/travis/build</text>
<text text-anchor="start" x="1035.4221" y="-286.5" font-family="Helvetica,sans-Serif" font-size="10.00" fill="#000000">/AliceO2Group/AliceO2</text>
<text text-anchor="start" x="1035.4221" y="-275.5" font-family="Helvetica,sans-Serif" font-size="10.00" fill="#000000">/Generators/src/GeneratorHep</text>
<text text-anchor="middle" x="1108.4221" y="-264.5" font-family="Helvetica,sans-Serif" font-size="10.00" fill="#000000">MC.cxx</text>
</g>
<!-- Node1 -->
<g id="node2" class="node">
<title>Node1</title>
<g id="a_node2"><a xlink:href="../../d1/dfe/GeneratorHepMC_8h.html" target="_top" xlink:title="Generators/GeneratorHepMC.h">
<polygon fill="none" stroke="#000000" points="182.4221,-201.5 182.4221,-220.5 348.4221,-220.5 348.4221,-201.5 182.4221,-201.5"/>
<text text-anchor="middle" x="265.4221" y="-208.5" font-family="Helvetica,sans-Serif" font-size="10.00" fill="#000000">Generators/GeneratorHepMC.h</text>
</a>
</g>
</g>
<!-- Node0&#45;&gt;Node1 -->
<g id="edge1" class="edge">
<title>Node0&#45;&gt;Node1</title>
<path fill="none" stroke="#191970" d="M1027.2355,-277.4187C891.2436,-267.0828 608.5408,-244.9592 358.6545,-221.0997"/>
<polygon fill="#191970" stroke="#191970" points="358.9453,-217.6116 348.6572,-220.1425 358.2781,-224.5797 358.9453,-217.6116"/>
</g>
<!-- Node4 -->
<g id="node5" class="node">
<title>Node4</title>
<polygon fill="none" stroke="#bfbfbf" points="100.4221,-6 100.4221,-25 168.4221,-25 168.4221,-6 100.4221,-6"/>
<text text-anchor="middle" x="134.4221" y="-13" font-family="Helvetica,sans-Serif" font-size="10.00" fill="#000000">TParticle.h</text>
</g>
<!-- Node0&#45;&gt;Node4 -->
<g id="edge31" class="edge">
<title>Node0&#45;&gt;Node4</title>
<path fill="none" stroke="#191970" d="M1027.0796,-280.6605C814.3509,-272.8682 252.4799,-249.801 173.4221,-221 86.4728,-189.3241 47.2834,-180.5299 5.4221,-98 -.8104,-85.7125 -2.3059,-78.4063 5.4221,-67 24.2973,-39.1409 60.9255,-26.3514 90.3438,-20.4805"/>
<polygon fill="#191970" stroke="#191970" points="91.1809,-23.8863 100.4077,-18.679 89.9474,-16.9958 91.1809,-23.8863"/>
</g>
<!-- Node9 -->
<g id="node10" class="node">
<title>Node9</title>
<g id="a_node10"><a xlink:href="../../d7/d69/GeneratorHepMCParam_8h.html" target="_top" xlink:title="Generators/GeneratorHepMCParam.h">
<polygon fill="none" stroke="#000000" points="366.9221,-201.5 366.9221,-220.5 563.9221,-220.5 563.9221,-201.5 366.9221,-201.5"/>
<text text-anchor="middle" x="465.4221" y="-208.5" font-family="Helvetica,sans-Serif" font-size="10.00" fill="#000000">Generators/GeneratorHepMCParam.h</text>
</a>
</g>
</g>
<!-- Node0&#45;&gt;Node9 -->
<g id="edge10" class="edge">
<title>Node0&#45;&gt;Node9</title>
<path fill="none" stroke="#191970" d="M1027.3115,-274.3546C908.1524,-260.919 686.2718,-235.9014 559.9128,-221.6541"/>
<polygon fill="#191970" stroke="#191970" points="560.1902,-218.1633 549.861,-220.5207 559.4058,-225.1192 560.1902,-218.1633"/>
</g>
<!-- Node21 -->
<g id="node22" class="node">
<title>Node21</title>
<polygon fill="none" stroke="#bfbfbf" points="582.4221,-201.5 582.4221,-220.5 708.4221,-220.5 708.4221,-201.5 582.4221,-201.5"/>
<text text-anchor="middle" x="645.4221" y="-208.5" font-family="Helvetica,sans-Serif" font-size="10.00" fill="#000000">HepMC3/ReaderAscii.h</text>
</g>
<!-- Node0&#45;&gt;Node21 -->
<g id="edge25" class="edge">
<title>Node0&#45;&gt;Node21</title>
<path fill="none" stroke="#191970" d="M1027.2439,-270.7885C939.1454,-256.9934 799.8767,-235.1856 716.1156,-222.0697"/>
<polygon fill="#191970" stroke="#191970" points="716.6042,-218.6037 706.1831,-220.5144 715.5213,-225.5194 716.6042,-218.6037"/>
</g>
<!-- Node22 -->
<g id="node23" class="node">
<title>Node22</title>
<polygon fill="none" stroke="#bfbfbf" points="726.9221,-201.5 726.9221,-220.5 893.9221,-220.5 893.9221,-201.5 726.9221,-201.5"/>
<text text-anchor="middle" x="810.4221" y="-208.5" font-family="Helvetica,sans-Serif" font-size="10.00" fill="#000000">HepMC3/ReaderAsciiHepMC2.h</text>
</g>
<!-- Node0&#45;&gt;Node22 -->
<g id="edge26" class="edge">
<title>Node0&#45;&gt;Node22</title>
<path fill="none" stroke="#191970" d="M1027.386,-263.7848C973.7081,-250.7256 905.0531,-234.0226 859.5038,-222.941"/>
<polygon fill="#191970" stroke="#191970" points="860.126,-219.4904 849.582,-220.5272 858.4712,-226.292 860.126,-219.4904"/>
</g>
<!-- Node23 -->
<g id="node24" class="node">
<title>Node23</title>
<polygon fill="none" stroke="#bfbfbf" points="911.4221,-201.5 911.4221,-220.5 1027.4221,-220.5 1027.4221,-201.5 911.4221,-201.5"/>
<text text-anchor="middle" x="969.4221" y="-208.5" font-family="Helvetica,sans-Serif" font-size="10.00" fill="#000000">HepMC3/GenEvent.h</text>
</g>
<!-- Node0&#45;&gt;Node23 -->
<g id="edge27" class="edge">
<title>Node0&#45;&gt;Node23</title>
<path fill="none" stroke="#191970" d="M1058.24,-257.3258C1037.5063,-246.5115 1014.281,-234.3976 996.7817,-225.2703"/>
<polygon fill="#191970" stroke="#191970" points="998.1862,-222.0554 987.7011,-220.534 994.9489,-228.2619 998.1862,-222.0554"/>
</g>
<!-- Node24 -->
<g id="node25" class="node">
<title>Node24</title>
<polygon fill="none" stroke="#bfbfbf" points="1045.9221,-201.5 1045.9221,-220.5 1170.9221,-220.5 1170.9221,-201.5 1045.9221,-201.5"/>
<text text-anchor="middle" x="1108.4221" y="-208.5" font-family="Helvetica,sans-Serif" font-size="10.00" fill="#000000">HepMC3/GenParticle.h</text>
</g>
<!-- Node0&#45;&gt;Node24 -->
<g id="edge28" class="edge">
<title>Node0&#45;&gt;Node24</title>
<path fill="none" stroke="#191970" d="M1108.4221,-257.3258C1108.4221,-248.5142 1108.4221,-238.8397 1108.4221,-230.621"/>
<polygon fill="#191970" stroke="#191970" points="1111.9222,-230.534 1108.4221,-220.534 1104.9222,-230.534 1111.9222,-230.534"/>
</g>
<!-- Node25 -->
<g id="node26" class="node">
<title>Node25</title>
<polygon fill="none" stroke="#bfbfbf" points="1189.4221,-201.5 1189.4221,-220.5 1309.4221,-220.5 1309.4221,-201.5 1189.4221,-201.5"/>
<text text-anchor="middle" x="1249.4221" y="-208.5" font-family="Helvetica,sans-Serif" font-size="10.00" fill="#000000">HepMC3/GenVertex.h</text>
</g>
<!-- Node0&#45;&gt;Node25 -->
<g id="edge29" class="edge">
<title>Node0&#45;&gt;Node25</title>
<path fill="none" stroke="#191970" d="M1159.3264,-257.3258C1180.3584,-246.5115 1203.9179,-234.3976 1221.669,-225.2703"/>
<polygon fill="#191970" stroke="#191970" points="1223.5874,-228.2195 1230.8802,-220.534 1220.3864,-221.9942 1223.5874,-228.2195"/>
</g>
<!-- Node26 -->
<g id="node27" class="node">
<title>Node26</title>
<polygon fill="none" stroke="#bfbfbf" points="1327.4221,-201.5 1327.4221,-220.5 1447.4221,-220.5 1447.4221,-201.5 1327.4221,-201.5"/>
<text text-anchor="middle" x="1387.4221" y="-208.5" font-family="Helvetica,sans-Serif" font-size="10.00" fill="#000000">HepMC3/FourVector.h</text>
</g>
<!-- Node0&#45;&gt;Node26 -->
<g id="edge30" class="edge">
<title>Node0&#45;&gt;Node26</title>
<path fill="none" stroke="#191970" d="M1189.4953,-262.4326C1238.6933,-249.6482 1299.7249,-233.7887 1340.9065,-223.0874"/>
<polygon fill="#191970" stroke="#191970" points="1341.8721,-226.4528 1350.6704,-220.5502 1340.1116,-219.6778 1341.8721,-226.4528"/>
</g>
<!-- Node27 -->
<g id="node28" class="node">
<title>Node27</title>
<polygon fill="none" stroke="#bfbfbf" points="1465.4221,-201.5 1465.4221,-220.5 1533.4221,-220.5 1533.4221,-201.5 1465.4221,-201.5"/>
<text text-anchor="middle" x="1499.4221" y="-208.5" font-family="Helvetica,sans-Serif" font-size="10.00" fill="#000000">TSystem.h</text>
</g>
<!-- Node0&#45;&gt;Node27 -->
<g id="edge32" class="edge">
<title>Node0&#45;&gt;Node27</title>
<path fill="none" stroke="#191970" d="M1189.5105,-270.1361C1257.836,-258.5992 1358.3929,-240.9755 1455.2269,-221.1741"/>
<polygon fill="#191970" stroke="#191970" points="1456.0986,-224.5682 1465.1891,-219.1264 1454.6891,-217.7115 1456.0986,-224.5682"/>
</g>
<!-- Node28 -->
<g id="node29" class="node">
<title>Node28</title>
<polygon fill="none" stroke="#bfbfbf" points="1551.9221,-201.5 1551.9221,-220.5 1626.9221,-220.5 1626.9221,-201.5 1551.9221,-201.5"/>
<text text-anchor="middle" x="1589.4221" y="-208.5" font-family="Helvetica,sans-Serif" font-size="10.00" fill="#000000">FairLogger.h</text>
</g>
<!-- Node0&#45;&gt;Node28 -->
<g id="edge33" class="edge">
<title>Node0&#45;&gt;Node28</title>
<path fill="none" stroke="#191970" d="M1189.4682,-273.4688C1274.6246,-262.5562 1412.6604,-243.8153 1541.6903,-221.0336"/>
<polygon fill="#191970" stroke="#191970" points="1542.5221,-224.4407 1551.7554,-219.2449 1541.2972,-217.5487 1542.5221,-224.4407"/>
</g>
<!-- Node29 -->
<g id="node30" class="node">
<title>Node29</title>
<polygon fill="none" stroke="#bfbfbf" points="1644.9221,-201.5 1644.9221,-220.5 1773.9221,-220.5 1773.9221,-201.5 1644.9221,-201.5"/>
<text text-anchor="middle" x="1709.4221" y="-208.5" font-family="Helvetica,sans-Serif" font-size="10.00" fill="#000000">FairPrimaryGenerator.h</text>
</g>
<!-- Node0&#45;&gt;Node29 -->
<g id="edge34" class="edge">
<title>Node0&#45;&gt;Node29</title>
<path fill="none" stroke="#191970" d="M1189.4352,-274.3769C1290.989,-262.8357 1470.6873,-242.0677 1634.297,-221.2563"/>
<polygon fill="#191970" stroke="#191970" points="1635.0744,-224.6856 1644.5516,-219.9492 1634.1892,-217.7418 1635.0744,-224.6856"/>
</g>
<!-- Node30 -->
<g id="node31" class="node">
<title>Node30</title>
<polygon fill="none" stroke="#bfbfbf" points="1791.9221,-201.5 1791.9221,-220.5 1838.9221,-220.5 1838.9221,-201.5 1791.9221,-201.5"/>
<text text-anchor="middle" x="1815.4221" y="-208.5" font-family="Helvetica,sans-Serif" font-size="10.00" fill="#000000">cmath</text>
</g>
<!-- Node0&#45;&gt;Node30 -->
<g id="edge35" class="edge">
<title>Node0&#45;&gt;Node30</title>
<path fill="none" stroke="#191970" d="M1189.4809,-281.4935C1315.0856,-277.1744 1564.1259,-263.7827 1781.7875,-220.9851"/>
<polygon fill="#191970" stroke="#191970" points="1782.677,-224.3768 1791.8007,-218.9909 1781.3097,-217.5116 1782.677,-224.3768"/>
</g>
<!-- Node2 -->
<g id="node3" class="node">
<title>Node2</title>
<g id="a_node3"><a xlink:href="../../d9/d12/Generator_8h.html" target="_top" xlink:title="Generators/Generator.h">
<polygon fill="none" stroke="#000000" points="111.9221,-140 111.9221,-159 242.9221,-159 242.9221,-140 111.9221,-140"/>
<text text-anchor="middle" x="177.4221" y="-147" font-family="Helvetica,sans-Serif" font-size="10.00" fill="#000000">Generators/Generator.h</text>
</a>
</g>
</g>
<!-- Node1&#45;&gt;Node2 -->
<g id="edge2" class="edge">
<title>Node1&#45;&gt;Node2</title>
<path fill="none" stroke="#191970" d="M251.6721,-201.3906C237.7231,-191.6421 215.9123,-176.3994 199.5324,-164.9521"/>
<polygon fill="#191970" stroke="#191970" points="201.2772,-161.9015 191.0756,-159.0419 197.2674,-167.6392 201.2772,-161.9015"/>
</g>
<!-- Node8 -->
<g id="node9" class="node">
<title>Node8</title>
<polygon fill="none" stroke="#bfbfbf" points="260.9221,-140 260.9221,-159 315.9221,-159 315.9221,-140 260.9221,-140"/>
<text text-anchor="middle" x="288.4221" y="-147" font-family="Helvetica,sans-Serif" font-size="10.00" fill="#000000">fstream</text>
</g>
<!-- Node1&#45;&gt;Node8 -->
<g id="edge9" class="edge">
<title>Node1&#45;&gt;Node8</title>
<path fill="none" stroke="#191970" d="M269.0159,-201.3906C272.2712,-192.6862 277.1647,-179.6015 281.2232,-168.7494"/>
<polygon fill="#191970" stroke="#191970" points="284.553,-169.8373 284.7777,-159.2449 277.9965,-167.3852 284.553,-169.8373"/>
</g>
<!-- Node3 -->
<g id="node4" class="node">
<title>Node3</title>
<polygon fill="none" stroke="#bfbfbf" points="14.9221,-73 14.9221,-92 105.9221,-92 105.9221,-73 14.9221,-73"/>
<text text-anchor="middle" x="60.4221" y="-80" font-family="Helvetica,sans-Serif" font-size="10.00" fill="#000000">FairGenerator.h</text>
</g>
<!-- Node2&#45;&gt;Node3 -->
<g id="edge3" class="edge">
<title>Node2&#45;&gt;Node3</title>
<path fill="none" stroke="#191970" d="M160.6589,-139.9005C141.1105,-128.7062 108.5883,-110.0823 85.9085,-97.0947"/>
<polygon fill="#191970" stroke="#191970" points="87.5715,-94.0138 77.1543,-92.0817 84.0929,-100.0883 87.5715,-94.0138"/>
</g>
<!-- Node2&#45;&gt;Node4 -->
<g id="edge4" class="edge">
<title>Node2&#45;&gt;Node4</title>
<path fill="none" stroke="#191970" d="M172.1929,-139.8807C166.8493,-129.7207 158.6189,-113.1114 153.4221,-98 146.2764,-77.2211 140.9969,-52.5757 137.841,-35.6661"/>
<polygon fill="#191970" stroke="#191970" points="141.2004,-34.5679 135.9985,-25.338 134.3092,-35.7973 141.2004,-34.5679"/>
</g>
<!-- Node5 -->
<g id="node6" class="node">
<title>Node5</title>
<g id="a_node6"><a xlink:href="../../d7/dac/Trigger_8h.html" target="_top" xlink:title="Generators/Trigger.h">
<polygon fill="none" stroke="#000000" points="162.9221,-73 162.9221,-92 277.9221,-92 277.9221,-73 162.9221,-73"/>
<text text-anchor="middle" x="220.4221" y="-80" font-family="Helvetica,sans-Serif" font-size="10.00" fill="#000000">Generators/Trigger.h</text>
</a>
</g>
</g>
<!-- Node2&#45;&gt;Node5 -->
<g id="edge5" class="edge">
<title>Node2&#45;&gt;Node5</title>
<path fill="none" stroke="#191970" d="M183.583,-139.9005C190.1608,-129.6515 200.7354,-113.1747 208.8714,-100.4976"/>
<polygon fill="#191970" stroke="#191970" points="211.817,-102.388 214.2727,-92.0817 205.9259,-98.6071 211.817,-102.388"/>
</g>
<!-- Node7 -->
<g id="node8" class="node">
<title>Node7</title>
<polygon fill="none" stroke="#bfbfbf" points="271.9221,-6 271.9221,-25 318.9221,-25 318.9221,-6 271.9221,-6"/>
<text text-anchor="middle" x="295.4221" y="-13" font-family="Helvetica,sans-Serif" font-size="10.00" fill="#000000">vector</text>
</g>
<!-- Node2&#45;&gt;Node7 -->
<g id="edge8" class="edge">
<title>Node2&#45;&gt;Node7</title>
<path fill="none" stroke="#191970" d="M220.8119,-139.9391C244.0525,-132.4919 270.9988,-119.6482 286.4221,-98 299.4379,-79.7311 299.9511,-53.17 298.3549,-35.1595"/>
<polygon fill="#191970" stroke="#191970" points="301.8277,-34.7225 297.1813,-25.2008 294.8758,-35.5418 301.8277,-34.7225"/>
</g>
<!-- Node5&#45;&gt;Node4 -->
<g id="edge7" class="edge">
<title>Node5&#45;&gt;Node4</title>
<path fill="none" stroke="#191970" d="M208.1004,-72.9005C194.1786,-62.0544 171.3045,-44.2339 154.7321,-31.3229"/>
<polygon fill="#191970" stroke="#191970" points="156.7606,-28.4664 146.721,-25.0817 152.4586,-33.9885 156.7606,-28.4664"/>
</g>
<!-- Node6 -->
<g id="node7" class="node">
<title>Node6</title>
<polygon fill="none" stroke="#bfbfbf" points="187.9221,-6 187.9221,-25 252.9221,-25 252.9221,-6 187.9221,-6"/>
<text text-anchor="middle" x="220.4221" y="-13" font-family="Helvetica,sans-Serif" font-size="10.00" fill="#000000">functional</text>
</g>
<!-- Node5&#45;&gt;Node6 -->
<g id="edge6" class="edge">
<title>Node5&#45;&gt;Node6</title>
<path fill="none" stroke="#191970" d="M220.4221,-72.9005C220.4221,-63.149 220.4221,-47.7597 220.4221,-35.3695"/>
<polygon fill="#191970" stroke="#191970" points="223.9222,-35.0816 220.4221,-25.0817 216.9222,-35.0817 223.9222,-35.0816"/>
</g>
<!-- Node10 -->
<g id="node11" class="node">
<title>Node10</title>
<g id="a_node11"><a xlink:href="../../db/d2c/ConfigurableParam_8h.html" target="_top" xlink:title="CommonUtils/Configurable\lParam.h">
<polygon fill="none" stroke="#000000" points="369.4221,-67.5 369.4221,-97.5 517.4221,-97.5 517.4221,-67.5 369.4221,-67.5"/>
<text text-anchor="start" x="377.4221" y="-85.5" font-family="Helvetica,sans-Serif" font-size="10.00" fill="#000000">CommonUtils/Configurable</text>
<text text-anchor="middle" x="443.4221" y="-74.5" font-family="Helvetica,sans-Serif" font-size="10.00" fill="#000000">Param.h</text>
</a>
</g>
</g>
<!-- Node9&#45;&gt;Node10 -->
<g id="edge11" class="edge">
<title>Node9&#45;&gt;Node10</title>
<path fill="none" stroke="#191970" d="M463.7686,-201.3416C460.4014,-181.6745 452.6539,-136.4221 447.75,-107.7784"/>
<polygon fill="#191970" stroke="#191970" points="451.1622,-106.9675 446.0248,-97.7016 444.2625,-108.1489 451.1622,-106.9675"/>
</g>
<!-- Node16 -->
<g id="node17" class="node">
<title>Node16</title>
<g id="a_node17"><a xlink:href="../../da/d6b/ConfigurableParamHelper_8h.html" target="_top" xlink:title="CommonUtils/Configurable\lParamHelper.h">
<polygon fill="none" stroke="#000000" points="471.4221,-134.5 471.4221,-164.5 619.4221,-164.5 619.4221,-134.5 471.4221,-134.5"/>
<text text-anchor="start" x="479.4221" y="-152.5" font-family="Helvetica,sans-Serif" font-size="10.00" fill="#000000">CommonUtils/Configurable</text>
<text text-anchor="middle" x="545.4221" y="-141.5" font-family="Helvetica,sans-Serif" font-size="10.00" fill="#000000">ParamHelper.h</text>
</a>
</g>
</g>
<!-- Node9&#45;&gt;Node16 -->
<g id="edge18" class="edge">
<title>Node9&#45;&gt;Node16</title>
<path fill="none" stroke="#191970" d="M477.9221,-201.3906C488.5487,-193.2215 504.194,-181.1941 517.7471,-170.7752"/>
<polygon fill="#191970" stroke="#191970" points="520.057,-173.4142 525.8519,-164.5446 515.7907,-167.8645 520.057,-173.4142"/>
</g>
<!-- Node20 -->
<g id="node21" class="node">
<title>Node20</title>
<polygon fill="none" stroke="#bfbfbf" points="637.4221,-140 637.4221,-159 681.4221,-159 681.4221,-140 637.4221,-140"/>
<text text-anchor="middle" x="659.4221" y="-147" font-family="Helvetica,sans-Serif" font-size="10.00" fill="#000000">string</text>
</g>
<!-- Node9&#45;&gt;Node20 -->
<g id="edge24" class="edge">
<title>Node9&#45;&gt;Node20</title>
<path fill="none" stroke="#191970" d="M507.3272,-201.4872C540.676,-193.368 588.2505,-180.5512 628.4221,-165 629.7899,-164.4705 631.1783,-163.9013 632.5709,-163.3048"/>
<polygon fill="#191970" stroke="#191970" points="634.0452,-166.4792 641.6502,-159.1026 631.105,-160.1266 634.0452,-166.4792"/>
</g>
<!-- Node10&#45;&gt;Node7 -->
<g id="edge12" class="edge">
<title>Node10&#45;&gt;Node7</title>
<path fill="none" stroke="#191970" d="M409.3834,-67.4498C386.4562,-57.2651 355.5634,-43.4501 328.4221,-31 327.2571,-30.4656 326.0699,-29.9187 324.8713,-29.3647"/>
<polygon fill="#191970" stroke="#191970" points="326.1825,-26.1145 315.6396,-25.0666 323.2279,-32.4604 326.1825,-26.1145"/>
</g>
<!-- Node11 -->
<g id="node12" class="node">
<title>Node11</title>
<polygon fill="none" stroke="#bfbfbf" points="337.4221,-6 337.4221,-25 375.4221,-25 375.4221,-6 337.4221,-6"/>
<text text-anchor="middle" x="356.4221" y="-13" font-family="Helvetica,sans-Serif" font-size="10.00" fill="#000000">map</text>
</g>
<!-- Node10&#45;&gt;Node11 -->
<g id="edge13" class="edge">
<title>Node10&#45;&gt;Node11</title>
<path fill="none" stroke="#191970" d="M423.6805,-67.2967C409.7307,-56.5537 391.0787,-42.1895 376.9554,-31.3129"/>
<polygon fill="#191970" stroke="#191970" points="378.8878,-28.3835 368.8294,-25.055 374.6167,-33.9295 378.8878,-28.3835"/>
</g>
<!-- Node12 -->
<g id="node13" class="node">
<title>Node12</title>
<polygon fill="none" stroke="#bfbfbf" points="393.9221,-6 393.9221,-25 486.9221,-25 486.9221,-6 393.9221,-6"/>
<text text-anchor="middle" x="440.4221" y="-13" font-family="Helvetica,sans-Serif" font-size="10.00" fill="#000000">unordered_map</text>
</g>
<!-- Node10&#45;&gt;Node12 -->
<g id="edge14" class="edge">
<title>Node10&#45;&gt;Node12</title>
<path fill="none" stroke="#191970" d="M442.7414,-67.2967C442.3148,-57.7699 441.7607,-45.3954 441.3011,-35.1306"/>
<polygon fill="#191970" stroke="#191970" points="444.7939,-34.8884 440.85,-25.055 437.8009,-35.2016 444.7939,-34.8884"/>
</g>
<!-- Node13 -->
<g id="node14" class="node">
<title>Node13</title>
<polygon fill="none" stroke="#bfbfbf" points="504.9221,-.5 504.9221,-30.5 617.9221,-30.5 617.9221,-.5 504.9221,-.5"/>
<text text-anchor="start" x="512.9221" y="-18.5" font-family="Helvetica,sans-Serif" font-size="10.00" fill="#000000">boost/property_tree</text>
<text text-anchor="middle" x="561.4221" y="-7.5" font-family="Helvetica,sans-Serif" font-size="10.00" fill="#000000">/ptree.hpp</text>
</g>
<!-- Node10&#45;&gt;Node13 -->
<g id="edge15" class="edge">
<title>Node10&#45;&gt;Node13</title>
<path fill="none" stroke="#191970" d="M469.9037,-67.4639C486.3369,-58.1332 507.6648,-46.0232 525.5969,-35.8415"/>
<polygon fill="#191970" stroke="#191970" points="527.6529,-38.699 534.6208,-30.7177 524.1966,-32.6117 527.6529,-38.699"/>
</g>
<!-- Node14 -->
<g id="node15" class="node">
<title>Node14</title>
<polygon fill="none" stroke="#bfbfbf" points="714.9221,-6 714.9221,-25 771.9221,-25 771.9221,-6 714.9221,-6"/>
<text text-anchor="middle" x="743.4221" y="-13" font-family="Helvetica,sans-Serif" font-size="10.00" fill="#000000">typeinfo</text>
</g>
<!-- Node10&#45;&gt;Node14 -->
<g id="edge16" class="edge">
<title>Node10&#45;&gt;Node14</title>
<path fill="none" stroke="#191970" d="M517.4994,-68.6967C588.528,-55.3385 687.5465,-36.3478 705.4221,-31 707.7259,-30.3108 710.0827,-29.5339 712.4385,-28.7044"/>
<polygon fill="#191970" stroke="#191970" points="713.8684,-31.9055 721.9789,-25.0885 711.3875,-25.3599 713.8684,-31.9055"/>
</g>
<!-- Node15 -->
<g id="node16" class="node">
<title>Node15</title>
<polygon fill="none" stroke="#bfbfbf" points="636.4221,-6 636.4221,-25 696.4221,-25 696.4221,-6 636.4221,-6"/>
<text text-anchor="middle" x="666.4221" y="-13" font-family="Helvetica,sans-Serif" font-size="10.00" fill="#000000">iostream</text>
</g>
<!-- Node10&#45;&gt;Node15 -->
<g id="edge17" class="edge">
<title>Node10&#45;&gt;Node15</title>
<path fill="none" stroke="#191970" d="M503.1557,-67.4881C539.3937,-57.9598 586.407,-44.8474 627.4221,-31 629.5535,-30.2804 631.738,-29.509 633.9319,-28.7086"/>
<polygon fill="#191970" stroke="#191970" points="635.3677,-31.9073 643.4743,-25.0858 632.8831,-25.3631 635.3677,-31.9073"/>
</g>
<!-- Node16&#45;&gt;Node10 -->
<g id="edge19" class="edge">
<title>Node16&#45;&gt;Node10</title>
<path fill="none" stroke="#191970" d="M522.5314,-134.4639C508.587,-125.3044 490.5655,-113.4667 475.2459,-103.4038"/>
<polygon fill="#191970" stroke="#191970" points="476.8692,-100.2826 466.5894,-97.7177 473.026,-106.1333 476.8692,-100.2826"/>
</g>
<!-- Node16&#45;&gt;Node14 -->
<g id="edge22" class="edge">
<title>Node16&#45;&gt;Node14</title>
<path fill="none" stroke="#191970" d="M544.7199,-134.1886C544.747,-115.7255 547.7258,-84.9432 565.4221,-67 610.5355,-21.2573 644.4269,-51.1788 705.4221,-31 707.5656,-30.2909 709.7607,-29.5198 711.9617,-28.7131"/>
<polygon fill="#191970" stroke="#191970" points="713.4392,-31.8945 721.5081,-25.0284 710.9186,-25.3641 713.4392,-31.8945"/>
</g>
<!-- Node17 -->
<g id="node18" class="node">
<title>Node17</title>
<polygon fill="none" stroke="#bfbfbf" points="573.9221,-73 573.9221,-92 630.9221,-92 630.9221,-73 573.9221,-73"/>
<text text-anchor="middle" x="602.4221" y="-80" font-family="Helvetica,sans-Serif" font-size="10.00" fill="#000000">TClass.h</text>
</g>
<!-- Node16&#45;&gt;Node17 -->
<g id="edge20" class="edge">
<title>Node16&#45;&gt;Node17</title>
<path fill="none" stroke="#191970" d="M558.3563,-134.2967C567.0647,-124.0605 578.5701,-110.5366 587.6408,-99.8746"/>
<polygon fill="#191970" stroke="#191970" points="590.4793,-101.9395 594.2933,-92.055 585.1477,-97.4036 590.4793,-101.9395"/>
</g>
<!-- Node18 -->
<g id="node19" class="node">
<title>Node18</title>
<polygon fill="none" stroke="#bfbfbf" points="648.9221,-73 648.9221,-92 717.9221,-92 717.9221,-73 648.9221,-73"/>
<text text-anchor="middle" x="683.4221" y="-80" font-family="Helvetica,sans-Serif" font-size="10.00" fill="#000000">type_traits</text>
</g>
<!-- Node16&#45;&gt;Node18 -->
<g id="edge21" class="edge">
<title>Node16&#45;&gt;Node18</title>
<path fill="none" stroke="#191970" d="M576.392,-134.4639C599.7553,-123.1209 631.578,-107.6707 654.4416,-96.5703"/>
<polygon fill="#191970" stroke="#191970" points="656.1738,-99.62 663.6409,-92.1039 653.1165,-93.323 656.1738,-99.62"/>
</g>
<!-- Node19 -->
<g id="node20" class="node">
<title>Node19</title>
<polygon fill="none" stroke="#bfbfbf" points="736.4221,-73 736.4221,-92 784.4221,-92 784.4221,-73 736.4221,-73"/>
<text text-anchor="middle" x="760.4221" y="-80" font-family="Helvetica,sans-Serif" font-size="10.00" fill="#000000">TFile.h</text>
</g>
<!-- Node16&#45;&gt;Node19 -->
<g id="edge23" class="edge">
<title>Node16&#45;&gt;Node19</title>
<path fill="none" stroke="#191970" d="M608.1478,-134.4546C643.6118,-125.279 688.5077,-112.5337 727.4221,-98 729.012,-97.4062 730.6309,-96.7668 732.2552,-96.0978"/>
<polygon fill="#191970" stroke="#191970" points="733.7076,-99.2826 741.4541,-92.0547 730.891,-92.8743 733.7076,-99.2826"/>
</g>
</g>
</svg>
        <g id="navigator" transform="translate(0 0)" fill="#404254">
                <rect fill="#f2f5e9" fill-opacity="0.5" stroke="#606060" stroke-width=".5" x="0" y="0" width="60" height="60"/>
                <use id="zoomplus" xlink:href="#zoomPlus" x="17" y="9" onmousedown="handleZoom(evt,'in')"/>
                <use id="zoomminus" xlink:href="#zoomMin" x="42" y="9" onmousedown="handleZoom(evt,'out')"/>
                <use id="reset" xlink:href="#resetDef" x="30" y="36" onmousedown="handleReset()"/>
                <g id="arrowUp" xlink:href="#dirArrow" transform="translate(30 24)" onmousedown="handlePan(0,-1)">
                  <use xlink:href="#rim" fill="#404040">
                        <set attributeName="fill" to="#808080" begin="arrowUp.mouseover" end="arrowUp.mouseout"/>
                  </use>
                  <path fill="none" stroke="white" stroke-width="1.5" d="M0,-3.0v7 M-2.5,-0.5L0,-3.0L2.5,-0.5"/>
                </g>
                <g id="arrowRight" xlink:href="#dirArrow" transform="rotate(90) translate(36 -43)" onmousedown="handlePan(1,0)">
                  <use xlink:href="#rim" fill="#404040">
                        <set attributeName="fill" to="#808080" begin="arrowRight.mouseover" end="arrowRight.mouseout"/>
                  </use>
                  <path fill="none" stroke="white" stroke-width="1.5" d="M0,-3.0v7 M-2.5,-0.5L0,-3.0L2.5,-0.5"/>
                </g>
                <g id="arrowDown" xlink:href="#dirArrow" transform="rotate(180) translate(-30 -48)" onmousedown="handlePan(0,1)">
                  <use xlink:href="#rim" fill="#404040">
                        <set attributeName="fill" to="#808080" begin="arrowDown.mouseover" end="arrowDown.mouseout"/>
                  </use>
                  <path fill="none" stroke="white" stroke-width="1.5" d="M0,-3.0v7 M-2.5,-0.5L0,-3.0L2.5,-0.5"/>
                </g>
                <g id="arrowLeft" xlink:href="#dirArrow" transform="rotate(270) translate(-36 17)" onmousedown="handlePan(-1,0)">
                  <use xlink:href="#rim" fill="#404040">
                        <set attributeName="fill" to="#808080" begin="arrowLeft.mouseover" end="arrowLeft.mouseout"/>
                  </use>
                  <path fill="none" stroke="white" stroke-width="1.5" d="M0,-3.0v7 M-2.5,-0.5L0,-3.0L2.5,-0.5"/>
                </g>
        </g>
        <svg viewBox="0 0 15 15" width="100%" height="30px" preserveAspectRatio="xMaxYMin meet">
         <g id="arrow_out" transform="scale(0.3 0.3)">
          <a xlink:href="GeneratorHepMC_8cxx__incl_org.svg" target="_base">
           <rect id="button" ry="5" rx="5" y="6" x="6" height="38" width="38"
                fill="#f2f5e9" fill-opacity="0.5" stroke="#606060" stroke-width="1.0"/>
           <path id="arrow"
             d="M 11.500037,31.436501 C 11.940474,20.09759 22.043105,11.32322 32.158766,21.979434 L 37.068811,17.246167 C 37.068811,17.246167 37.088388,32 37.088388,32 L 22.160133,31.978069 C 22.160133,31.978069 26.997745,27.140456 26.997745,27.140456 C 18.528582,18.264221 13.291696,25.230495 11.500037,31.436501 z"
             style="fill:#404040;"/>
          </a>
         </g>
        </svg>
</svg>
