<?xml version="1.0" encoding="UTF-8" standalone="no"?>
<!DOCTYPE svg PUBLIC "-//W3C//DTD SVG 1.1//EN"
 "http://www.w3.org/Graphics/SVG/1.1/DTD/svg11.dtd">
<!-- Generated by graphviz version 2.40.1 (20161225.0304)
 -->
<!-- Title: LOCKING Pages: 1 -->
<svg width="137pt" height="226pt"
 viewBox="0.00 0.00 137.00 226.00" xmlns="http://www.w3.org/2000/svg" xmlns:xlink="http://www.w3.org/1999/xlink">
<g id="graph0" class="graph" transform="scale(1 1) rotate(0) translate(4 222)">
<title>LOCKING</title>
<!-- Node0 -->
<g id="node1" class="node">
<title>Node0</title>
<polygon fill="#bfbfbf" stroke="#000000" points="34,-160.5 34,-217.5 95,-217.5 95,-160.5 34,-160.5"/>
<text text-anchor="middle" x="64.5" y="-205.5" font-family="Helvetica,sans-Serif" font-size="10.00" fill="#000000">LOCKING</text>
<polyline fill="none" stroke="#000000" points="34,-198.5 95,-198.5 "/>
<text text-anchor="middle" x="64.5" y="-186.5" font-family="Helvetica,sans-Serif" font-size="10.00" fill="#000000"> </text>
<polyline fill="none" stroke="#000000" points="34,-179.5 95,-179.5 "/>
<text text-anchor="middle" x="64.5" y="-167.5" font-family="Helvetica,sans-Serif" font-size="10.00" fill="#000000"> </text>
</g>
<!-- Node1 -->
<g id="node2" class="node">
<title>Node1</title>
<g id="a_node2"><a xlink:href="../../d6/d73/classo2_1_1framework_1_1service__ptr.html" target="_top" xlink:title="{o2::framework::service\l_ptr\&lt; T, LOCKING \&gt;\n||+ service_ptr()\l+ ~service_ptr()\l+ service_ptr()\l+ operator=()\l+ operator*()\l+ operator&#45;\&gt;()\l}">
<polygon fill="none" stroke="#000000" points="0,-.5 0,-123.5 129,-123.5 129,-.5 0,-.5"/>
<text text-anchor="start" x="8" y="-111.5" font-family="Helvetica,sans-Serif" font-size="10.00" fill="#000000">o2::framework::service</text>
<text text-anchor="middle" x="64.5" y="-100.5" font-family="Helvetica,sans-Serif" font-size="10.00" fill="#000000">_ptr&lt; T, LOCKING &gt;</text>
<polyline fill="none" stroke="#000000" points="0,-93.5 129,-93.5 "/>
<text text-anchor="middle" x="64.5" y="-81.5" font-family="Helvetica,sans-Serif" font-size="10.00" fill="#000000"> </text>
<polyline fill="none" stroke="#000000" points="0,-74.5 129,-74.5 "/>
<text text-anchor="start" x="8" y="-62.5" font-family="Helvetica,sans-Serif" font-size="10.00" fill="#000000">+ service_ptr()</text>
<text text-anchor="start" x="8" y="-51.5" font-family="Helvetica,sans-Serif" font-size="10.00" fill="#000000">+ ~service_ptr()</text>
<text text-anchor="start" x="8" y="-40.5" font-family="Helvetica,sans-Serif" font-size="10.00" fill="#000000">+ service_ptr()</text>
<text text-anchor="start" x="8" y="-29.5" font-family="Helvetica,sans-Serif" font-size="10.00" fill="#000000">+ operator=()</text>
<text text-anchor="start" x="8" y="-18.5" font-family="Helvetica,sans-Serif" font-size="10.00" fill="#000000">+ operator*()</text>
<text text-anchor="start" x="8" y="-7.5" font-family="Helvetica,sans-Serif" font-size="10.00" fill="#000000">+ operator&#45;&gt;()</text>
</a>
</g>
</g>
<!-- Node0&#45;&gt;Node1 -->
<g id="edge1" class="edge">
<title>Node0&#45;&gt;Node1</title>
<path fill="none" stroke="#8b1a1a" d="M64.5,-150.2486C64.5,-141.8213 64.5,-132.7045 64.5,-123.6384"/>
<polygon fill="none" stroke="#8b1a1a" points="61.0001,-150.4987 64.5,-160.4987 68.0001,-150.4988 61.0001,-150.4987"/>
</g>
</g>
</svg>
