<?xml version="1.0" encoding="UTF-8" standalone="no"?>
<!DOCTYPE svg PUBLIC "-//W3C//DTD SVG 1.1//EN"
 "http://www.w3.org/Graphics/SVG/1.1/DTD/svg11.dtd">
<!-- Generated by graphviz version 2.40.1 (20161225.0304)
 -->
<!-- Title: o2::its::TrackerTraits Pages: 1 -->
<svg width="1943pt" height="843pt"
 viewBox="0.00 0.00 1942.50 843.00" xmlns="http://www.w3.org/2000/svg" xmlns:xlink="http://www.w3.org/1999/xlink">
<g id="graph0" class="graph" transform="scale(1 1) rotate(0) translate(4 839)">
<title>o2::its::TrackerTraits</title>
<!-- Node4 -->
<g id="node1" class="node">
<title>Node4</title>
<polygon fill="#bfbfbf" stroke="#000000" points="299,-.5 299,-145.5 466,-145.5 466,-.5 299,-.5"/>
<text text-anchor="middle" x="382.5" y="-133.5" font-family="Helvetica,sans-Serif" font-size="10.00" fill="#000000">o2::its::TrackerTraits</text>
<polyline fill="none" stroke="#000000" points="299,-126.5 466,-126.5 "/>
<text text-anchor="middle" x="382.5" y="-114.5" font-family="Helvetica,sans-Serif" font-size="10.00" fill="#000000"> </text>
<polyline fill="none" stroke="#000000" points="299,-107.5 466,-107.5 "/>
<text text-anchor="start" x="307" y="-95.5" font-family="Helvetica,sans-Serif" font-size="10.00" fill="#000000">+ ~TrackerTraits()</text>
<text text-anchor="start" x="307" y="-84.5" font-family="Helvetica,sans-Serif" font-size="10.00" fill="#000000">+ SetRecoChain()</text>
<text text-anchor="start" x="307" y="-73.5" font-family="Helvetica,sans-Serif" font-size="10.00" fill="#000000">+ computeLayerTracklets()</text>
<text text-anchor="start" x="307" y="-62.5" font-family="Helvetica,sans-Serif" font-size="10.00" fill="#000000">+ computeLayerCells()</text>
<text text-anchor="start" x="307" y="-51.5" font-family="Helvetica,sans-Serif" font-size="10.00" fill="#000000">+ refitTracks()</text>
<text text-anchor="start" x="307" y="-40.5" font-family="Helvetica,sans-Serif" font-size="10.00" fill="#000000">+ UpdateTrackingParameters()</text>
<text text-anchor="start" x="307" y="-29.5" font-family="Helvetica,sans-Serif" font-size="10.00" fill="#000000">+ getPrimaryVertexContext()</text>
<text text-anchor="start" x="307" y="-18.5" font-family="Helvetica,sans-Serif" font-size="10.00" fill="#000000">+ getEmptyBinsRect()</text>
<text text-anchor="start" x="307" y="-7.5" font-family="Helvetica,sans-Serif" font-size="10.00" fill="#000000">+ getBinsRect()</text>
</g>
<!-- Node5 -->
<g id="node2" class="node">
<title>Node5</title>
<polygon fill="none" stroke="#bfbfbf" points="111,-309 111,-366 200,-366 200,-309 111,-309"/>
<text text-anchor="middle" x="155.5" y="-354" font-family="Helvetica,sans-Serif" font-size="10.00" fill="#000000">GPUChainITS *</text>
<polyline fill="none" stroke="#bfbfbf" points="111,-347 200,-347 "/>
<text text-anchor="middle" x="155.5" y="-335" font-family="Helvetica,sans-Serif" font-size="10.00" fill="#000000"> </text>
<polyline fill="none" stroke="#bfbfbf" points="111,-328 200,-328 "/>
<text text-anchor="middle" x="155.5" y="-316" font-family="Helvetica,sans-Serif" font-size="10.00" fill="#000000"> </text>
</g>
<!-- Node5&#45;&gt;Node4 -->
<g id="edge1" class="edge">
<title>Node5&#45;&gt;Node4</title>
<path fill="none" stroke="#404040" d="M150.3224,-308.9089C145.2659,-271.7667 142.292,-206.6447 173.5,-164 200.5244,-127.0721 245.7745,-104.9381 287.2728,-91.7676"/>
<polygon fill="none" stroke="#404040" points="287.3674,-91.7392 291.9624,-86.1817 298.8598,-88.2856 294.2648,-93.8432 287.3674,-91.7392"/>
<text text-anchor="middle" x="198" y="-167" font-family="Helvetica,sans-Serif" font-size="10.00" fill="#000000"> #mChain</text>
</g>
<!-- Node6 -->
<g id="node3" class="node">
<title>Node6</title>
<g id="a_node3"><a xlink:href="../../d2/db0/structo2_1_1its_1_1TrackingParameters.html" target="_top" xlink:title="{o2::its::TrackingParameters\n||+ operator=()\l+ CellMinimumLevel()\l}">
<polygon fill="none" stroke="#000000" points="0,-562.5 0,-630.5 149,-630.5 149,-562.5 0,-562.5"/>
<text text-anchor="middle" x="74.5" y="-618.5" font-family="Helvetica,sans-Serif" font-size="10.00" fill="#000000">o2::its::TrackingParameters</text>
<polyline fill="none" stroke="#000000" points="0,-611.5 149,-611.5 "/>
<text text-anchor="middle" x="74.5" y="-599.5" font-family="Helvetica,sans-Serif" font-size="10.00" fill="#000000"> </text>
<polyline fill="none" stroke="#000000" points="0,-592.5 149,-592.5 "/>
<text text-anchor="start" x="8" y="-580.5" font-family="Helvetica,sans-Serif" font-size="10.00" fill="#000000">+ operator=()</text>
<text text-anchor="start" x="8" y="-569.5" font-family="Helvetica,sans-Serif" font-size="10.00" fill="#000000">+ CellMinimumLevel()</text>
</a>
</g>
</g>
<!-- Node6&#45;&gt;Node4 -->
<g id="edge2" class="edge">
<title>Node6&#45;&gt;Node4</title>
<path fill="none" stroke="#404040" d="M124.7733,-562.4478C152.3532,-541.7577 185.5114,-513.3334 208.5,-482 282.362,-381.3259 332.3679,-244.5145 359.166,-157.4707"/>
<polygon fill="none" stroke="#404040" points="359.2259,-157.2734 357.1428,-150.3697 362.7143,-145.7916 364.7974,-152.6953 359.2259,-157.2734"/>
<text text-anchor="middle" x="383.5" y="-335" font-family="Helvetica,sans-Serif" font-size="10.00" fill="#000000"> #mTrkParams</text>
</g>
<!-- Node7 -->
<g id="node4" class="node">
<title>Node7</title>
<g id="a_node4"><a xlink:href="../../d4/dc3/classfloat.html" target="_top" xlink:title="{float\n||}">
<polygon fill="none" stroke="#000000" points="1215.5,-777.5 1215.5,-834.5 1253.5,-834.5 1253.5,-777.5 1215.5,-777.5"/>
<text text-anchor="middle" x="1234.5" y="-822.5" font-family="Helvetica,sans-Serif" font-size="10.00" fill="#000000">float</text>
<polyline fill="none" stroke="#000000" points="1215.5,-815.5 1253.5,-815.5 "/>
<text text-anchor="middle" x="1234.5" y="-803.5" font-family="Helvetica,sans-Serif" font-size="10.00" fill="#000000"> </text>
<polyline fill="none" stroke="#000000" points="1215.5,-796.5 1253.5,-796.5 "/>
<text text-anchor="middle" x="1234.5" y="-784.5" font-family="Helvetica,sans-Serif" font-size="10.00" fill="#000000"> </text>
</a>
</g>
</g>
<!-- Node7&#45;&gt;Node6 -->
<g id="edge3" class="edge">
<title>Node7&#45;&gt;Node6</title>
<path fill="none" stroke="#404040" d="M1215.3845,-804.459C1088.2665,-794.0369 363.9249,-731.893 158.5,-653 148.0175,-648.9742 137.5352,-643.4387 127.706,-637.3978"/>
<polygon fill="none" stroke="#404040" points="127.4065,-637.2043 120.1962,-637.3078 117.3274,-630.6919 124.5378,-630.5884 127.4065,-637.2043"/>
<text text-anchor="middle" x="829.5" y="-751" font-family="Helvetica,sans-Serif" font-size="10.00" fill="#000000"> +NeighbourMaxDeltaN</text>
<text text-anchor="middle" x="829.5" y="-740" font-family="Helvetica,sans-Serif" font-size="10.00" fill="#000000">+CellMaxDCA</text>
<text text-anchor="middle" x="829.5" y="-729" font-family="Helvetica,sans-Serif" font-size="10.00" fill="#000000">+CellMaxDeltaPhi</text>
<text text-anchor="middle" x="829.5" y="-718" font-family="Helvetica,sans-Serif" font-size="10.00" fill="#000000">+TrackletMaxDeltaZ</text>
<text text-anchor="middle" x="829.5" y="-707" font-family="Helvetica,sans-Serif" font-size="10.00" fill="#000000">+CellMaxDeltaTanLambda</text>
<text text-anchor="middle" x="829.5" y="-696" font-family="Helvetica,sans-Serif" font-size="10.00" fill="#000000">+CellMaxDeltaZ</text>
<text text-anchor="middle" x="829.5" y="-685" font-family="Helvetica,sans-Serif" font-size="10.00" fill="#000000">+NeighbourMaxDeltaCurvature</text>
<text text-anchor="middle" x="829.5" y="-674" font-family="Helvetica,sans-Serif" font-size="10.00" fill="#000000">+TrackletMaxDeltaPhi</text>
</g>
<!-- Node20 -->
<g id="node17" class="node">
<title>Node20</title>
<g id="a_node17"><a xlink:href="../../d9/d19/structfloat3.html" target="_top" xlink:title="{float3\n||}">
<polygon fill="none" stroke="#000000" points="1879.5,-568 1879.5,-625 1923.5,-625 1923.5,-568 1879.5,-568"/>
<text text-anchor="middle" x="1901.5" y="-613" font-family="Helvetica,sans-Serif" font-size="10.00" fill="#000000">float3</text>
<polyline fill="none" stroke="#000000" points="1879.5,-606 1923.5,-606 "/>
<text text-anchor="middle" x="1901.5" y="-594" font-family="Helvetica,sans-Serif" font-size="10.00" fill="#000000"> </text>
<polyline fill="none" stroke="#000000" points="1879.5,-587 1923.5,-587 "/>
<text text-anchor="middle" x="1901.5" y="-575" font-family="Helvetica,sans-Serif" font-size="10.00" fill="#000000"> </text>
</a>
</g>
</g>
<!-- Node7&#45;&gt;Node20 -->
<g id="edge17" class="edge">
<title>Node7&#45;&gt;Node20</title>
<path fill="none" stroke="#404040" d="M1253.5554,-803.5574C1348.4557,-791.0823 1769.5692,-731.9785 1871.5,-653 1877.3491,-648.468 1882.1856,-642.4681 1886.1405,-636.0712"/>
<polygon fill="none" stroke="#404040" points="1886.3354,-635.7061 1885.6326,-628.5293 1891.987,-625.1202 1892.6898,-632.297 1886.3354,-635.7061"/>
<text text-anchor="middle" x="1845.5" y="-723.5" font-family="Helvetica,sans-Serif" font-size="10.00" fill="#000000"> +x</text>
<text text-anchor="middle" x="1845.5" y="-712.5" font-family="Helvetica,sans-Serif" font-size="10.00" fill="#000000">+y</text>
<text text-anchor="middle" x="1845.5" y="-701.5" font-family="Helvetica,sans-Serif" font-size="10.00" fill="#000000">+z</text>
</g>
<!-- Node8 -->
<g id="node5" class="node">
<title>Node8</title>
<polygon fill="none" stroke="#bfbfbf" points="60,-777.5 60,-834.5 89,-834.5 89,-777.5 60,-777.5"/>
<text text-anchor="middle" x="74.5" y="-822.5" font-family="Helvetica,sans-Serif" font-size="10.00" fill="#000000">int</text>
<polyline fill="none" stroke="#bfbfbf" points="60,-815.5 89,-815.5 "/>
<text text-anchor="middle" x="74.5" y="-803.5" font-family="Helvetica,sans-Serif" font-size="10.00" fill="#000000"> </text>
<polyline fill="none" stroke="#bfbfbf" points="60,-796.5 89,-796.5 "/>
<text text-anchor="middle" x="74.5" y="-784.5" font-family="Helvetica,sans-Serif" font-size="10.00" fill="#000000"> </text>
</g>
<!-- Node8&#45;&gt;Node6 -->
<g id="edge4" class="edge">
<title>Node8&#45;&gt;Node6</title>
<path fill="none" stroke="#404040" d="M74.5,-777.3092C74.5,-742.6779 74.5,-683.9822 74.5,-642.8879"/>
<polygon fill="none" stroke="#404040" points="74.5001,-642.7457 70.5,-636.7458 74.5,-630.7457 78.5,-636.7457 74.5001,-642.7457"/>
<text text-anchor="middle" x="117" y="-718" font-family="Helvetica,sans-Serif" font-size="10.00" fill="#000000"> +ClusterSharing</text>
<text text-anchor="middle" x="117" y="-707" font-family="Helvetica,sans-Serif" font-size="10.00" fill="#000000">+MinTrackLength</text>
</g>
<!-- Node9 -->
<g id="node6" class="node">
<title>Node9</title>
<polygon fill="none" stroke="#bfbfbf" points="1005,-270.5 1005,-404.5 1226,-404.5 1226,-270.5 1005,-270.5"/>
<text text-anchor="start" x="1013" y="-392.5" font-family="Helvetica,sans-Serif" font-size="10.00" fill="#000000">function&lt; int(o2::gpu</text>
<text text-anchor="start" x="1013" y="-381.5" font-family="Helvetica,sans-Serif" font-size="10.00" fill="#000000">::GPUChainITS &amp;, std</text>
<text text-anchor="start" x="1013" y="-370.5" font-family="Helvetica,sans-Serif" font-size="10.00" fill="#000000">::vector&lt; Road &gt; &amp;roads,</text>
<text text-anchor="start" x="1013" y="-359.5" font-family="Helvetica,sans-Serif" font-size="10.00" fill="#000000"> std::array&lt; const Cluster</text>
<text text-anchor="start" x="1013" y="-348.5" font-family="Helvetica,sans-Serif" font-size="10.00" fill="#000000"> *, 7 &gt;, std::array&lt; const</text>
<text text-anchor="start" x="1013" y="-337.5" font-family="Helvetica,sans-Serif" font-size="10.00" fill="#000000"> Cell *, 5 &gt;, const std::array</text>
<text text-anchor="start" x="1013" y="-326.5" font-family="Helvetica,sans-Serif" font-size="10.00" fill="#000000">&lt; std::vector&lt; TrackingFrameInfo</text>
<text text-anchor="middle" x="1115.5" y="-315.5" font-family="Helvetica,sans-Serif" font-size="10.00" fill="#000000"> &gt;, 7 &gt; &amp;, std::vector&lt; TrackITSExt &gt; &amp;)&gt;</text>
<polyline fill="none" stroke="#bfbfbf" points="1005,-308.5 1226,-308.5 "/>
<text text-anchor="middle" x="1115.5" y="-296.5" font-family="Helvetica,sans-Serif" font-size="10.00" fill="#000000"> </text>
<polyline fill="none" stroke="#bfbfbf" points="1005,-289.5 1226,-289.5 "/>
<text text-anchor="middle" x="1115.5" y="-277.5" font-family="Helvetica,sans-Serif" font-size="10.00" fill="#000000"> </text>
</g>
<!-- Node9&#45;&gt;Node4 -->
<g id="edge5" class="edge">
<title>Node9&#45;&gt;Node4</title>
<path fill="none" stroke="#404040" d="M1075.1189,-270.2065C1054.9292,-242.1577 1028.0464,-211.8002 996.5,-193 910.2869,-141.6209 628.5733,-101.8867 478.5485,-83.7598"/>
<polygon fill="none" stroke="#404040" points="478.1301,-83.7098 471.6969,-86.9677 466.2153,-82.2825 472.6485,-79.0245 478.1301,-83.7098"/>
<text text-anchor="middle" x="1009" y="-167" font-family="Helvetica,sans-Serif" font-size="10.00" fill="#000000"> #mChainRunITSTrackFit</text>
</g>
<!-- Node10 -->
<g id="node7" class="node">
<title>Node10</title>
<g id="a_node7"><a xlink:href="../../df/dde/classo2_1_1its_1_1PrimaryVertexContext.html" target="_top" xlink:title="{o2::its::PrimaryVertexContext\n||+ PrimaryVertexContext()\l+ ~PrimaryVertexContext()\l+ PrimaryVertexContext()\l+ operator=()\l+ initialise()\l+ getPrimaryVertex()\l+ getClusters()\l+ getCells()\l+ getCellsLookupTable()\l+ getCellsNeighbours()\l+ getRoads()\l+ getMinR()\l+ getMaxR()\l+ isClusterUsed()\l+ markUsedCluster()\l+ getIndexTables()\l+ getTracklets()\l+ getTrackletsLookupTable()\l+ initialiseRoadLabels()\l+ setRoadLabel()\l+ getRoadLabel()\l+ isRoadFake()\l}">
<polygon fill="none" stroke="#000000" points="826,-193.5 826,-481.5 987,-481.5 987,-193.5 826,-193.5"/>
<text text-anchor="middle" x="906.5" y="-469.5" font-family="Helvetica,sans-Serif" font-size="10.00" fill="#000000">o2::its::PrimaryVertexContext</text>
<polyline fill="none" stroke="#000000" points="826,-462.5 987,-462.5 "/>
<text text-anchor="middle" x="906.5" y="-450.5" font-family="Helvetica,sans-Serif" font-size="10.00" fill="#000000"> </text>
<polyline fill="none" stroke="#000000" points="826,-443.5 987,-443.5 "/>
<text text-anchor="start" x="834" y="-431.5" font-family="Helvetica,sans-Serif" font-size="10.00" fill="#000000">+ PrimaryVertexContext()</text>
<text text-anchor="start" x="834" y="-420.5" font-family="Helvetica,sans-Serif" font-size="10.00" fill="#000000">+ ~PrimaryVertexContext()</text>
<text text-anchor="start" x="834" y="-409.5" font-family="Helvetica,sans-Serif" font-size="10.00" fill="#000000">+ PrimaryVertexContext()</text>
<text text-anchor="start" x="834" y="-398.5" font-family="Helvetica,sans-Serif" font-size="10.00" fill="#000000">+ operator=()</text>
<text text-anchor="start" x="834" y="-387.5" font-family="Helvetica,sans-Serif" font-size="10.00" fill="#000000">+ initialise()</text>
<text text-anchor="start" x="834" y="-376.5" font-family="Helvetica,sans-Serif" font-size="10.00" fill="#000000">+ getPrimaryVertex()</text>
<text text-anchor="start" x="834" y="-365.5" font-family="Helvetica,sans-Serif" font-size="10.00" fill="#000000">+ getClusters()</text>
<text text-anchor="start" x="834" y="-354.5" font-family="Helvetica,sans-Serif" font-size="10.00" fill="#000000">+ getCells()</text>
<text text-anchor="start" x="834" y="-343.5" font-family="Helvetica,sans-Serif" font-size="10.00" fill="#000000">+ getCellsLookupTable()</text>
<text text-anchor="start" x="834" y="-332.5" font-family="Helvetica,sans-Serif" font-size="10.00" fill="#000000">+ getCellsNeighbours()</text>
<text text-anchor="start" x="834" y="-321.5" font-family="Helvetica,sans-Serif" font-size="10.00" fill="#000000">+ getRoads()</text>
<text text-anchor="start" x="834" y="-310.5" font-family="Helvetica,sans-Serif" font-size="10.00" fill="#000000">+ getMinR()</text>
<text text-anchor="start" x="834" y="-299.5" font-family="Helvetica,sans-Serif" font-size="10.00" fill="#000000">+ getMaxR()</text>
<text text-anchor="start" x="834" y="-288.5" font-family="Helvetica,sans-Serif" font-size="10.00" fill="#000000">+ isClusterUsed()</text>
<text text-anchor="start" x="834" y="-277.5" font-family="Helvetica,sans-Serif" font-size="10.00" fill="#000000">+ markUsedCluster()</text>
<text text-anchor="start" x="834" y="-266.5" font-family="Helvetica,sans-Serif" font-size="10.00" fill="#000000">+ getIndexTables()</text>
<text text-anchor="start" x="834" y="-255.5" font-family="Helvetica,sans-Serif" font-size="10.00" fill="#000000">+ getTracklets()</text>
<text text-anchor="start" x="834" y="-244.5" font-family="Helvetica,sans-Serif" font-size="10.00" fill="#000000">+ getTrackletsLookupTable()</text>
<text text-anchor="start" x="834" y="-233.5" font-family="Helvetica,sans-Serif" font-size="10.00" fill="#000000">+ initialiseRoadLabels()</text>
<text text-anchor="start" x="834" y="-222.5" font-family="Helvetica,sans-Serif" font-size="10.00" fill="#000000">+ setRoadLabel()</text>
<text text-anchor="start" x="834" y="-211.5" font-family="Helvetica,sans-Serif" font-size="10.00" fill="#000000">+ getRoadLabel()</text>
<text text-anchor="start" x="834" y="-200.5" font-family="Helvetica,sans-Serif" font-size="10.00" fill="#000000">+ isRoadFake()</text>
</a>
</g>
</g>
<!-- Node10&#45;&gt;Node4 -->
<g id="edge6" class="edge">
<title>Node10&#45;&gt;Node4</title>
<path fill="none" stroke="#404040" d="M825.7734,-296.7515C731.8305,-249.3319 576.9008,-171.1279 477.315,-120.8598"/>
<polygon fill="none" stroke="#404040" points="477.0674,-120.7349 469.9086,-121.6021 466.3548,-115.3275 473.5136,-114.4603 477.0674,-120.7349"/>
<text text-anchor="middle" x="647.5" y="-167" font-family="Helvetica,sans-Serif" font-size="10.00" fill="#000000"> #mPrimaryVertexContext</text>
</g>
<!-- Node11 -->
<g id="node8" class="node">
<title>Node11</title>
<polygon fill="none" stroke="#bfbfbf" points="167.5,-562.5 167.5,-630.5 295.5,-630.5 295.5,-562.5 167.5,-562.5"/>
<text text-anchor="start" x="175.5" y="-618.5" font-family="Helvetica,sans-Serif" font-size="10.00" fill="#000000">array&lt; float, constants</text>
<text text-anchor="middle" x="231.5" y="-607.5" font-family="Helvetica,sans-Serif" font-size="10.00" fill="#000000">::its::LayersNumber &gt;</text>
<polyline fill="none" stroke="#bfbfbf" points="167.5,-600.5 295.5,-600.5 "/>
<text text-anchor="middle" x="231.5" y="-588.5" font-family="Helvetica,sans-Serif" font-size="10.00" fill="#000000"> </text>
<polyline fill="none" stroke="#bfbfbf" points="167.5,-581.5 295.5,-581.5 "/>
<text text-anchor="middle" x="231.5" y="-569.5" font-family="Helvetica,sans-Serif" font-size="10.00" fill="#000000"> </text>
</g>
<!-- Node11&#45;&gt;Node10 -->
<g id="edge7" class="edge">
<title>Node11&#45;&gt;Node10</title>
<path fill="none" stroke="#404040" d="M270.7723,-562.274C281.2614,-554.2291 292.9147,-546.203 304.5,-540 474.0767,-449.2057 692.0716,-388.1229 813.7614,-358.4178"/>
<polygon fill="none" stroke="#404040" points="813.9291,-358.3773 818.8199,-353.0782 825.5924,-355.5547 820.7016,-360.8538 813.9291,-358.3773"/>
<text text-anchor="middle" x="407" y="-514" font-family="Helvetica,sans-Serif" font-size="10.00" fill="#000000"> #mMaxR</text>
<text text-anchor="middle" x="407" y="-503" font-family="Helvetica,sans-Serif" font-size="10.00" fill="#000000">#mMinR</text>
</g>
<!-- Node12 -->
<g id="node9" class="node">
<title>Node12</title>
<polygon fill="none" stroke="#bfbfbf" points="313.5,-568 313.5,-625 443.5,-625 443.5,-568 313.5,-568"/>
<text text-anchor="middle" x="378.5" y="-613" font-family="Helvetica,sans-Serif" font-size="10.00" fill="#000000">vector&lt; o2::its::Road &gt;</text>
<polyline fill="none" stroke="#bfbfbf" points="313.5,-606 443.5,-606 "/>
<text text-anchor="middle" x="378.5" y="-594" font-family="Helvetica,sans-Serif" font-size="10.00" fill="#000000"> </text>
<polyline fill="none" stroke="#bfbfbf" points="313.5,-587 443.5,-587 "/>
<text text-anchor="middle" x="378.5" y="-575" font-family="Helvetica,sans-Serif" font-size="10.00" fill="#000000"> </text>
</g>
<!-- Node12&#45;&gt;Node10 -->
<g id="edge8" class="edge">
<title>Node12&#45;&gt;Node10</title>
<path fill="none" stroke="#404040" d="M412.7047,-567.7421C424.8429,-558.2626 438.8796,-548.0874 452.5,-540 571.8229,-469.1501 720.3596,-407.4137 814.3377,-371.2934"/>
<polygon fill="none" stroke="#404040" points="814.5974,-371.1941 818.7733,-365.3152 825.8061,-366.9086 821.6303,-372.7876 814.5974,-371.1941"/>
<text text-anchor="middle" x="550" y="-508.5" font-family="Helvetica,sans-Serif" font-size="10.00" fill="#000000"> #mRoads</text>
</g>
<!-- Node13 -->
<g id="node10" class="node">
<title>Node13</title>
<polygon fill="none" stroke="#bfbfbf" points="462,-557 462,-636 577,-636 577,-557 462,-557"/>
<text text-anchor="start" x="470" y="-624" font-family="Helvetica,sans-Serif" font-size="10.00" fill="#000000">vector&lt; std::pair&lt;</text>
<text text-anchor="start" x="470" y="-613" font-family="Helvetica,sans-Serif" font-size="10.00" fill="#000000"> unsigned long long,</text>
<text text-anchor="middle" x="519.5" y="-602" font-family="Helvetica,sans-Serif" font-size="10.00" fill="#000000"> bool &gt; &gt;</text>
<polyline fill="none" stroke="#bfbfbf" points="462,-595 577,-595 "/>
<text text-anchor="middle" x="519.5" y="-583" font-family="Helvetica,sans-Serif" font-size="10.00" fill="#000000"> </text>
<polyline fill="none" stroke="#bfbfbf" points="462,-576 577,-576 "/>
<text text-anchor="middle" x="519.5" y="-564" font-family="Helvetica,sans-Serif" font-size="10.00" fill="#000000"> </text>
</g>
<!-- Node13&#45;&gt;Node10 -->
<g id="edge9" class="edge">
<title>Node13&#45;&gt;Node10</title>
<path fill="none" stroke="#404040" d="M564.8681,-556.7623C571.7024,-551.0398 578.7298,-545.2993 585.5,-540 659.0084,-482.4623 749.4649,-426.5911 815.599,-388.1632"/>
<polygon fill="none" stroke="#404040" points="815.6106,-388.1565 818.8014,-381.6897 825.9979,-382.1479 822.8071,-388.6147 815.6106,-388.1565"/>
<text text-anchor="middle" x="674" y="-508.5" font-family="Helvetica,sans-Serif" font-size="10.00" fill="#000000"> #mRoadLabels</text>
</g>
<!-- Node14 -->
<g id="node11" class="node">
<title>Node14</title>
<polygon fill="none" stroke="#bfbfbf" points="595,-557 595,-636 720,-636 720,-557 595,-557"/>
<text text-anchor="start" x="603" y="-624" font-family="Helvetica,sans-Serif" font-size="10.00" fill="#000000">array&lt; std::vector</text>
<text text-anchor="start" x="603" y="-613" font-family="Helvetica,sans-Serif" font-size="10.00" fill="#000000">&lt; int &gt;, constants::</text>
<text text-anchor="middle" x="657.5" y="-602" font-family="Helvetica,sans-Serif" font-size="10.00" fill="#000000">its::CellsPerRoad &#45; 1 &gt;</text>
<polyline fill="none" stroke="#bfbfbf" points="595,-595 720,-595 "/>
<text text-anchor="middle" x="657.5" y="-583" font-family="Helvetica,sans-Serif" font-size="10.00" fill="#000000"> </text>
<polyline fill="none" stroke="#bfbfbf" points="595,-576 720,-576 "/>
<text text-anchor="middle" x="657.5" y="-564" font-family="Helvetica,sans-Serif" font-size="10.00" fill="#000000"> </text>
</g>
<!-- Node14&#45;&gt;Node10 -->
<g id="edge10" class="edge">
<title>Node14&#45;&gt;Node10</title>
<path fill="none" stroke="#404040" d="M690.274,-556.8594C705.2477,-539.1531 723.4208,-518.2163 740.5,-500 764.6814,-474.2086 791.7673,-447.0257 816.9329,-422.4288"/>
<polygon fill="none" stroke="#404040" points="817.1508,-422.2166 818.6573,-415.1646 825.7463,-413.843 824.2397,-420.895 817.1508,-422.2166"/>
<text text-anchor="middle" x="793.5" y="-508.5" font-family="Helvetica,sans-Serif" font-size="10.00" fill="#000000"> #mCellsLookupTable</text>
</g>
<!-- Node15 -->
<g id="node12" class="node">
<title>Node15</title>
<polygon fill="none" stroke="#bfbfbf" points="738.5,-557 738.5,-636 914.5,-636 914.5,-557 738.5,-557"/>
<text text-anchor="start" x="746.5" y="-624" font-family="Helvetica,sans-Serif" font-size="10.00" fill="#000000">array&lt; std::vector</text>
<text text-anchor="start" x="746.5" y="-613" font-family="Helvetica,sans-Serif" font-size="10.00" fill="#000000">&lt; o2::its::Cluster &gt;</text>
<text text-anchor="middle" x="826.5" y="-602" font-family="Helvetica,sans-Serif" font-size="10.00" fill="#000000">, constants::its::LayersNumber &gt;</text>
<polyline fill="none" stroke="#bfbfbf" points="738.5,-595 914.5,-595 "/>
<text text-anchor="middle" x="826.5" y="-583" font-family="Helvetica,sans-Serif" font-size="10.00" fill="#000000"> </text>
<polyline fill="none" stroke="#bfbfbf" points="738.5,-576 914.5,-576 "/>
<text text-anchor="middle" x="826.5" y="-564" font-family="Helvetica,sans-Serif" font-size="10.00" fill="#000000"> </text>
</g>
<!-- Node15&#45;&gt;Node10 -->
<g id="edge11" class="edge">
<title>Node15&#45;&gt;Node10</title>
<path fill="none" stroke="#404040" d="M838.7374,-556.8815C844.248,-539.0409 851.1458,-516.7094 858.4153,-493.1742"/>
<polygon fill="none" stroke="#404040" points="858.4679,-493.0038 856.4168,-486.0905 862.0094,-481.5383 864.0605,-488.4515 858.4679,-493.0038"/>
<text text-anchor="middle" x="908.5" y="-514" font-family="Helvetica,sans-Serif" font-size="10.00" fill="#000000"> #mUnsortedClusters</text>
<text text-anchor="middle" x="908.5" y="-503" font-family="Helvetica,sans-Serif" font-size="10.00" fill="#000000">#mClusters</text>
</g>
<!-- Node16 -->
<g id="node13" class="node">
<title>Node16</title>
<polygon fill="none" stroke="#bfbfbf" points="932,-557 932,-636 1043,-636 1043,-557 932,-557"/>
<text text-anchor="start" x="940" y="-624" font-family="Helvetica,sans-Serif" font-size="10.00" fill="#000000">array&lt; std::vector</text>
<text text-anchor="start" x="940" y="-613" font-family="Helvetica,sans-Serif" font-size="10.00" fill="#000000">&lt; int &gt;, constants::</text>
<text text-anchor="middle" x="987.5" y="-602" font-family="Helvetica,sans-Serif" font-size="10.00" fill="#000000">its::CellsPerRoad &gt;</text>
<polyline fill="none" stroke="#bfbfbf" points="932,-595 1043,-595 "/>
<text text-anchor="middle" x="987.5" y="-583" font-family="Helvetica,sans-Serif" font-size="10.00" fill="#000000"> </text>
<polyline fill="none" stroke="#bfbfbf" points="932,-576 1043,-576 "/>
<text text-anchor="middle" x="987.5" y="-564" font-family="Helvetica,sans-Serif" font-size="10.00" fill="#000000"> </text>
</g>
<!-- Node16&#45;&gt;Node10 -->
<g id="edge12" class="edge">
<title>Node16&#45;&gt;Node10</title>
<path fill="none" stroke="#404040" d="M979.6057,-556.7751C975.8235,-539.2409 970.9334,-518.4624 965.5,-500 964.8327,-497.7326 964.1506,-495.4509 963.4553,-493.1579"/>
<polygon fill="none" stroke="#404040" points="963.4297,-493.0751 957.8321,-488.5289 959.8757,-481.6134 965.4732,-486.1596 963.4297,-493.0751"/>
<text text-anchor="middle" x="1033.5" y="-508.5" font-family="Helvetica,sans-Serif" font-size="10.00" fill="#000000"> #mTrackletsLookupTable</text>
</g>
<!-- Node17 -->
<g id="node14" class="node">
<title>Node17</title>
<polygon fill="none" stroke="#bfbfbf" points="1061.5,-540.5 1061.5,-652.5 1225.5,-652.5 1225.5,-540.5 1061.5,-540.5"/>
<text text-anchor="start" x="1069.5" y="-640.5" font-family="Helvetica,sans-Serif" font-size="10.00" fill="#000000">array&lt; std::array&lt;</text>
<text text-anchor="start" x="1069.5" y="-629.5" font-family="Helvetica,sans-Serif" font-size="10.00" fill="#000000"> int, constants::index</text>
<text text-anchor="start" x="1069.5" y="-618.5" font-family="Helvetica,sans-Serif" font-size="10.00" fill="#000000">_table::ZBins *constants</text>
<text text-anchor="start" x="1069.5" y="-607.5" font-family="Helvetica,sans-Serif" font-size="10.00" fill="#000000">::index_table::PhiBins+1</text>
<text text-anchor="start" x="1069.5" y="-596.5" font-family="Helvetica,sans-Serif" font-size="10.00" fill="#000000"> &gt;, constants::its::TrackletsPer</text>
<text text-anchor="middle" x="1143.5" y="-585.5" font-family="Helvetica,sans-Serif" font-size="10.00" fill="#000000">Road &gt;</text>
<polyline fill="none" stroke="#bfbfbf" points="1061.5,-578.5 1225.5,-578.5 "/>
<text text-anchor="middle" x="1143.5" y="-566.5" font-family="Helvetica,sans-Serif" font-size="10.00" fill="#000000"> </text>
<polyline fill="none" stroke="#bfbfbf" points="1061.5,-559.5 1225.5,-559.5 "/>
<text text-anchor="middle" x="1143.5" y="-547.5" font-family="Helvetica,sans-Serif" font-size="10.00" fill="#000000"> </text>
</g>
<!-- Node17&#45;&gt;Node10 -->
<g id="edge13" class="edge">
<title>Node17&#45;&gt;Node10</title>
<path fill="none" stroke="#404040" d="M1129.2445,-540.438C1122.809,-525.244 1113.5979,-510.1967 1100.5,-500 1066.2322,-473.3224 1039.6282,-503.0668 997.6237,-481.3822"/>
<polygon fill="none" stroke="#404040" points="997.4955,-481.3052 990.2922,-481.6402 987.2125,-475.1198 994.4158,-474.7848 997.4955,-481.3052"/>
<text text-anchor="middle" x="1158" y="-508.5" font-family="Helvetica,sans-Serif" font-size="10.00" fill="#000000"> #mIndexTables</text>
</g>
<!-- Node18 -->
<g id="node15" class="node">
<title>Node18</title>
<polygon fill="none" stroke="#bfbfbf" points="1244,-551.5 1244,-641.5 1389,-641.5 1389,-551.5 1244,-551.5"/>
<text text-anchor="start" x="1252" y="-629.5" font-family="Helvetica,sans-Serif" font-size="10.00" fill="#000000">array&lt; std::vector</text>
<text text-anchor="start" x="1252" y="-618.5" font-family="Helvetica,sans-Serif" font-size="10.00" fill="#000000">&lt; std::vector&lt; int &gt;</text>
<text text-anchor="start" x="1252" y="-607.5" font-family="Helvetica,sans-Serif" font-size="10.00" fill="#000000"> &gt;, constants::its::CellsPer</text>
<text text-anchor="middle" x="1316.5" y="-596.5" font-family="Helvetica,sans-Serif" font-size="10.00" fill="#000000">Road &#45; 1 &gt;</text>
<polyline fill="none" stroke="#bfbfbf" points="1244,-589.5 1389,-589.5 "/>
<text text-anchor="middle" x="1316.5" y="-577.5" font-family="Helvetica,sans-Serif" font-size="10.00" fill="#000000"> </text>
<polyline fill="none" stroke="#bfbfbf" points="1244,-570.5 1389,-570.5 "/>
<text text-anchor="middle" x="1316.5" y="-558.5" font-family="Helvetica,sans-Serif" font-size="10.00" fill="#000000"> </text>
</g>
<!-- Node18&#45;&gt;Node10 -->
<g id="edge14" class="edge">
<title>Node18&#45;&gt;Node10</title>
<path fill="none" stroke="#404040" d="M1275.4698,-551.3675C1255.2082,-532.1135 1229.1893,-511.4746 1201.5,-500 1162.1411,-483.6894 1052.0131,-502.9161 998.2147,-481.2203"/>
<polygon fill="none" stroke="#404040" points="998.0553,-481.1403 990.8982,-482.0211 987.3323,-475.7533 994.4894,-474.8725 998.0553,-481.1403"/>
<text text-anchor="middle" x="1287" y="-508.5" font-family="Helvetica,sans-Serif" font-size="10.00" fill="#000000"> #mCellsNeighbours</text>
</g>
<!-- Node19 -->
<g id="node16" class="node">
<title>Node19</title>
<polygon fill="none" stroke="#bfbfbf" points="1407,-557 1407,-636 1530,-636 1530,-557 1407,-557"/>
<text text-anchor="start" x="1415" y="-624" font-family="Helvetica,sans-Serif" font-size="10.00" fill="#000000">array&lt; std::vector</text>
<text text-anchor="start" x="1415" y="-613" font-family="Helvetica,sans-Serif" font-size="10.00" fill="#000000">&lt; bool &gt;, constants</text>
<text text-anchor="middle" x="1468.5" y="-602" font-family="Helvetica,sans-Serif" font-size="10.00" fill="#000000">::its::LayersNumber &gt;</text>
<polyline fill="none" stroke="#bfbfbf" points="1407,-595 1530,-595 "/>
<text text-anchor="middle" x="1468.5" y="-583" font-family="Helvetica,sans-Serif" font-size="10.00" fill="#000000"> </text>
<polyline fill="none" stroke="#bfbfbf" points="1407,-576 1530,-576 "/>
<text text-anchor="middle" x="1468.5" y="-564" font-family="Helvetica,sans-Serif" font-size="10.00" fill="#000000"> </text>
</g>
<!-- Node19&#45;&gt;Node10 -->
<g id="edge15" class="edge">
<title>Node19&#45;&gt;Node10</title>
<path fill="none" stroke="#404040" d="M1430.132,-556.915C1406.7594,-535.6783 1375.0094,-511.5533 1341.5,-500 1272.1821,-476.1007 1080.8888,-517.0129 998.1683,-481.4465"/>
<polygon fill="none" stroke="#404040" points="997.9435,-481.3325 990.7831,-482.1867 987.2407,-475.9056 994.401,-475.0515 997.9435,-481.3325"/>
<text text-anchor="middle" x="1426.5" y="-508.5" font-family="Helvetica,sans-Serif" font-size="10.00" fill="#000000"> #mUsedClusters</text>
</g>
<!-- Node20&#45;&gt;Node10 -->
<g id="edge16" class="edge">
<title>Node20&#45;&gt;Node10</title>
<path fill="none" stroke="#404040" d="M1891.6891,-567.7913C1886.9843,-557.7492 1880.3913,-547.1972 1871.5,-540 1821.2015,-499.2849 1795.4719,-509.7595 1731.5,-500 1693.1721,-494.1527 1097.3144,-501.4462 998.5864,-479.7611"/>
<polygon fill="none" stroke="#404040" points="998.576,-479.7577 991.6294,-481.6932 987.1711,-476.0255 994.1176,-474.09 998.576,-479.7577"/>
<text text-anchor="middle" x="1889" y="-508.5" font-family="Helvetica,sans-Serif" font-size="10.00" fill="#000000"> #mPrimaryVertex</text>
</g>
<!-- Node21 -->
<g id="node18" class="node">
<title>Node21</title>
<polygon fill="none" stroke="#bfbfbf" points="1548,-557 1548,-636 1695,-636 1695,-557 1548,-557"/>
<text text-anchor="start" x="1556" y="-624" font-family="Helvetica,sans-Serif" font-size="10.00" fill="#000000">array&lt; std::vector</text>
<text text-anchor="start" x="1556" y="-613" font-family="Helvetica,sans-Serif" font-size="10.00" fill="#000000">&lt; o2::its::Cell &gt;, constants</text>
<text text-anchor="middle" x="1621.5" y="-602" font-family="Helvetica,sans-Serif" font-size="10.00" fill="#000000">::its::CellsPerRoad &gt;</text>
<polyline fill="none" stroke="#bfbfbf" points="1548,-595 1695,-595 "/>
<text text-anchor="middle" x="1621.5" y="-583" font-family="Helvetica,sans-Serif" font-size="10.00" fill="#000000"> </text>
<polyline fill="none" stroke="#bfbfbf" points="1548,-576 1695,-576 "/>
<text text-anchor="middle" x="1621.5" y="-564" font-family="Helvetica,sans-Serif" font-size="10.00" fill="#000000"> </text>
</g>
<!-- Node21&#45;&gt;Node10 -->
<g id="edge18" class="edge">
<title>Node21&#45;&gt;Node10</title>
<path fill="none" stroke="#404040" d="M1576.0294,-556.9564C1548.3976,-535.5894 1511.2554,-511.3198 1473.5,-500 1425.326,-485.5565 1080.8617,-506.2529 998.2931,-480.5967"/>
<polygon fill="none" stroke="#404040" points="998.2782,-480.5905 991.2003,-481.9706 987.2042,-475.968 994.282,-474.5879 998.2782,-480.5905"/>
<text text-anchor="middle" x="1544.5" y="-508.5" font-family="Helvetica,sans-Serif" font-size="10.00" fill="#000000"> #mCells</text>
</g>
<!-- Node22 -->
<g id="node19" class="node">
<title>Node22</title>
<polygon fill="none" stroke="#bfbfbf" points="1713,-551.5 1713,-641.5 1862,-641.5 1862,-551.5 1713,-551.5"/>
<text text-anchor="start" x="1721" y="-629.5" font-family="Helvetica,sans-Serif" font-size="10.00" fill="#000000">array&lt; std::vector</text>
<text text-anchor="start" x="1721" y="-618.5" font-family="Helvetica,sans-Serif" font-size="10.00" fill="#000000">&lt; o2::its::Tracklet</text>
<text text-anchor="start" x="1721" y="-607.5" font-family="Helvetica,sans-Serif" font-size="10.00" fill="#000000"> &gt;, constants::its::Tracklets</text>
<text text-anchor="middle" x="1787.5" y="-596.5" font-family="Helvetica,sans-Serif" font-size="10.00" fill="#000000">PerRoad &gt;</text>
<polyline fill="none" stroke="#bfbfbf" points="1713,-589.5 1862,-589.5 "/>
<text text-anchor="middle" x="1787.5" y="-577.5" font-family="Helvetica,sans-Serif" font-size="10.00" fill="#000000"> </text>
<polyline fill="none" stroke="#bfbfbf" points="1713,-570.5 1862,-570.5 "/>
<text text-anchor="middle" x="1787.5" y="-558.5" font-family="Helvetica,sans-Serif" font-size="10.00" fill="#000000"> </text>
</g>
<!-- Node22&#45;&gt;Node10 -->
<g id="edge19" class="edge">
<title>Node22&#45;&gt;Node10</title>
<path fill="none" stroke="#404040" d="M1725.2565,-551.2247C1718.4185,-547.1362 1711.4232,-543.3009 1704.5,-540 1648.7825,-513.4344 1632.4212,-509.939 1571.5,-500 1511.3094,-490.1802 1092.9694,-511.7524 998.4977,-480.832"/>
<polygon fill="none" stroke="#404040" points="998.2216,-480.714 991.1321,-482.0328 987.1881,-475.9959 994.2776,-474.6771 998.2216,-480.714"/>
<text text-anchor="middle" x="1695" y="-508.5" font-family="Helvetica,sans-Serif" font-size="10.00" fill="#000000"> #mTracklets</text>
</g>
</g>
</svg>
