<?xml version="1.0" encoding="UTF-8" standalone="no"?>
<!DOCTYPE svg PUBLIC "-//W3C//DTD SVG 1.1//EN"
 "http://www.w3.org/Graphics/SVG/1.1/DTD/svg11.dtd">
<!-- Generated by graphviz version 2.40.1 (20161225.0304)
 -->
<!-- Title: /home/travis/build/AliceO2Group/AliceO2/Detectors/ITSMFT/common/reconstruction/src/BuildTopologyDictionary.cxx Pages: 1 -->
<svg width="2063pt" height="407pt"
 viewBox="0.00 0.00 2062.52 407.00" xmlns="http://www.w3.org/2000/svg" xmlns:xlink="http://www.w3.org/1999/xlink">
<g id="graph0" class="graph" transform="scale(1 1) rotate(0) translate(4 403)">
<title>/home/travis/build/AliceO2Group/AliceO2/Detectors/ITSMFT/common/reconstruction/src/BuildTopologyDictionary.cxx</title>
<!-- Node0 -->
<g id="node1" class="node">
<title>Node0</title>
<polygon fill="#bfbfbf" stroke="#000000" points="1370,-335.5 1370,-398.5 1548,-398.5 1548,-335.5 1370,-335.5"/>
<text text-anchor="start" x="1378" y="-386.5" font-family="Helvetica,sans-Serif" font-size="10.00" fill="#000000">/home/travis/build</text>
<text text-anchor="start" x="1378" y="-375.5" font-family="Helvetica,sans-Serif" font-size="10.00" fill="#000000">/AliceO2Group/AliceO2</text>
<text text-anchor="start" x="1378" y="-364.5" font-family="Helvetica,sans-Serif" font-size="10.00" fill="#000000">/Detectors/ITSMFT/common</text>
<text text-anchor="start" x="1378" y="-353.5" font-family="Helvetica,sans-Serif" font-size="10.00" fill="#000000">/reconstruction/src/BuildTopology</text>
<text text-anchor="middle" x="1459" y="-342.5" font-family="Helvetica,sans-Serif" font-size="10.00" fill="#000000">Dictionary.cxx</text>
</g>
<!-- Node1 -->
<g id="node2" class="node">
<title>Node1</title>
<g id="a_node2"><a xlink:href="../../d9/d1d/BuildTopologyDictionary_8h.html" target="_top" xlink:title="Definition of the BuildTopologyDictionary class. ">
<polygon fill="none" stroke="#000000" points="1134,-268.5 1134,-298.5 1280,-298.5 1280,-268.5 1134,-268.5"/>
<text text-anchor="start" x="1142" y="-286.5" font-family="Helvetica,sans-Serif" font-size="10.00" fill="#000000">ITSMFTReconstruction</text>
<text text-anchor="middle" x="1207" y="-275.5" font-family="Helvetica,sans-Serif" font-size="10.00" fill="#000000">/BuildTopologyDictionary.h</text>
</a>
</g>
</g>
<!-- Node0&#45;&gt;Node1 -->
<g id="edge1" class="edge">
<title>Node0&#45;&gt;Node1</title>
<path fill="none" stroke="#191970" d="M1369.7996,-337.4435C1334.0267,-325.5902 1293.9159,-312.2995 1262.4594,-301.8764"/>
<polygon fill="#191970" stroke="#191970" points="1263.1602,-298.4216 1252.5669,-298.5985 1260.9585,-305.0663 1263.1602,-298.4216"/>
</g>
<!-- Node30 -->
<g id="node31" class="node">
<title>Node30</title>
<g id="a_node31"><a xlink:href="../../df/ddf/LookUp_8h.html" target="_top" xlink:title="Definition of the LookUp class. ">
<polygon fill="none" stroke="#000000" points="1346.5,-268.5 1346.5,-298.5 1469.5,-298.5 1469.5,-268.5 1346.5,-268.5"/>
<text text-anchor="start" x="1354.5" y="-286.5" font-family="Helvetica,sans-Serif" font-size="10.00" fill="#000000">ITSMFTReconstruction</text>
<text text-anchor="middle" x="1408" y="-275.5" font-family="Helvetica,sans-Serif" font-size="10.00" fill="#000000">/LookUp.h</text>
</a>
</g>
</g>
<!-- Node0&#45;&gt;Node30 -->
<g id="edge39" class="edge">
<title>Node0&#45;&gt;Node30</title>
<path fill="none" stroke="#191970" d="M1439.7191,-335.4322C1434.0247,-326.109 1427.8896,-316.0643 1422.5466,-307.3165"/>
<polygon fill="#191970" stroke="#191970" points="1425.5165,-305.4642 1417.3171,-298.7545 1419.5427,-309.1129 1425.5165,-305.4642"/>
</g>
<!-- Node31 -->
<g id="node32" class="node">
<title>Node31</title>
<polygon fill="none" stroke="#bfbfbf" points="1487.5,-274 1487.5,-293 1534.5,-293 1534.5,-274 1487.5,-274"/>
<text text-anchor="middle" x="1511" y="-281" font-family="Helvetica,sans-Serif" font-size="10.00" fill="#000000">cmath</text>
</g>
<!-- Node0&#45;&gt;Node31 -->
<g id="edge43" class="edge">
<title>Node0&#45;&gt;Node31</title>
<path fill="none" stroke="#191970" d="M1478.659,-335.4322C1485.7206,-324.0928 1493.4469,-311.6862 1499.5764,-301.8437"/>
<polygon fill="#191970" stroke="#191970" points="1502.5747,-303.65 1504.89,-293.3112 1496.6327,-299.9495 1502.5747,-303.65"/>
</g>
<!-- Node32 -->
<g id="node33" class="node">
<title>Node32</title>
<polygon fill="none" stroke="#bfbfbf" points="1553,-274 1553,-293 1601,-293 1601,-274 1553,-274"/>
<text text-anchor="middle" x="1577" y="-281" font-family="Helvetica,sans-Serif" font-size="10.00" fill="#000000">TFile.h</text>
</g>
<!-- Node0&#45;&gt;Node32 -->
<g id="edge44" class="edge">
<title>Node0&#45;&gt;Node32</title>
<path fill="none" stroke="#191970" d="M1503.6107,-335.4322C1521.2302,-322.9642 1540.673,-309.206 1555.1176,-298.9846"/>
<polygon fill="#191970" stroke="#191970" points="1557.2633,-301.754 1563.4045,-293.1205 1553.2198,-296.0399 1557.2633,-301.754"/>
</g>
<!-- Node2 -->
<g id="node3" class="node">
<title>Node2</title>
<polygon fill="none" stroke="#bfbfbf" points="876,-207 876,-226 940,-226 940,-207 876,-207"/>
<text text-anchor="middle" x="908" y="-214" font-family="Helvetica,sans-Serif" font-size="10.00" fill="#000000">algorithm</text>
</g>
<!-- Node1&#45;&gt;Node2 -->
<g id="edge2" class="edge">
<title>Node1&#45;&gt;Node2</title>
<path fill="none" stroke="#191970" d="M1133.918,-271.1084C1083.0834,-261.885 1013.9485,-248.1346 954,-232 950.8263,-231.1458 947.552,-230.1922 944.2814,-229.1892"/>
<polygon fill="#191970" stroke="#191970" points="945.176,-225.8006 934.585,-226.0823 943.0401,-232.4668 945.176,-225.8006"/>
</g>
<!-- Node3 -->
<g id="node4" class="node">
<title>Node3</title>
<polygon fill="none" stroke="#bfbfbf" points="209,-140 209,-159 247,-159 247,-140 209,-140"/>
<text text-anchor="middle" x="228" y="-147" font-family="Helvetica,sans-Serif" font-size="10.00" fill="#000000">map</text>
</g>
<!-- Node1&#45;&gt;Node3 -->
<g id="edge3" class="edge">
<title>Node1&#45;&gt;Node3</title>
<path fill="none" stroke="#191970" d="M1133.8478,-274.8776C1089.6388,-267.6347 1033.1112,-254.6807 987,-232 967.442,-222.38 969.3344,-208.8469 949,-201 806.1678,-145.8821 409.5003,-202.2382 261,-165 258.8051,-164.4496 256.5797,-163.7507 254.3751,-162.9554"/>
<polygon fill="#191970" stroke="#191970" points="255.5771,-159.664 245.0022,-159.0141 252.8637,-166.1168 255.5771,-159.664"/>
</g>
<!-- Node4 -->
<g id="node5" class="node">
<title>Node4</title>
<g id="a_node5"><a xlink:href="../../d3/dba/SegmentationAlpide_8h.html" target="_top" xlink:title="Definition of the SegmentationAlpide class. ">
<polygon fill="none" stroke="#000000" points="996,-207 996,-226 1182,-226 1182,-207 996,-207"/>
<text text-anchor="middle" x="1089" y="-214" font-family="Helvetica,sans-Serif" font-size="10.00" fill="#000000">ITSMFTBase/SegmentationAlpide.h</text>
</a>
</g>
</g>
<!-- Node1&#45;&gt;Node4 -->
<g id="edge4" class="edge">
<title>Node1&#45;&gt;Node4</title>
<path fill="none" stroke="#191970" d="M1180.5185,-268.4639C1160.898,-257.3234 1134.3,-242.2212 1114.8351,-231.1691"/>
<polygon fill="#191970" stroke="#191970" points="1116.3385,-227.9979 1105.9144,-226.1039 1112.8822,-234.0851 1116.3385,-227.9979"/>
</g>
<!-- Node17 -->
<g id="node18" class="node">
<title>Node17</title>
<g id="a_node18"><a xlink:href="../../d8/ddb/ClusterTopology_8h.html" target="_top" xlink:title="Definition of the ClusterTopology class. ">
<polygon fill="none" stroke="#000000" points="1232,-201.5 1232,-231.5 1384,-231.5 1384,-201.5 1232,-201.5"/>
<text text-anchor="start" x="1240" y="-219.5" font-family="Helvetica,sans-Serif" font-size="10.00" fill="#000000">DataFormatsITSMFT/Cluster</text>
<text text-anchor="middle" x="1308" y="-208.5" font-family="Helvetica,sans-Serif" font-size="10.00" fill="#000000">Topology.h</text>
</a>
</g>
</g>
<!-- Node1&#45;&gt;Node17 -->
<g id="edge18" class="edge">
<title>Node1&#45;&gt;Node17</title>
<path fill="none" stroke="#191970" d="M1229.6664,-268.4639C1243.474,-259.3044 1261.3189,-247.4667 1276.4882,-237.4038"/>
<polygon fill="#191970" stroke="#191970" points="1278.6614,-240.1623 1285.0598,-231.7177 1274.7918,-234.3291 1278.6614,-240.1623"/>
</g>
<!-- Node22 -->
<g id="node23" class="node">
<title>Node22</title>
<g id="a_node23"><a xlink:href="../../d1/d08/TopologyDictionary_8h.html" target="_top" xlink:title="Definition of the ClusterTopology class. ">
<polygon fill="none" stroke="#000000" points="1510.5,-201.5 1510.5,-231.5 1671.5,-231.5 1671.5,-201.5 1510.5,-201.5"/>
<text text-anchor="start" x="1518.5" y="-219.5" font-family="Helvetica,sans-Serif" font-size="10.00" fill="#000000">DataFormatsITSMFT/Topology</text>
<text text-anchor="middle" x="1591" y="-208.5" font-family="Helvetica,sans-Serif" font-size="10.00" fill="#000000">Dictionary.h</text>
</a>
</g>
</g>
<!-- Node1&#45;&gt;Node22 -->
<g id="edge28" class="edge">
<title>Node1&#45;&gt;Node22</title>
<path fill="none" stroke="#191970" d="M1280.1313,-270.7401C1342.6394,-259.8338 1432.8599,-244.0922 1500.0215,-232.3739"/>
<polygon fill="#191970" stroke="#191970" points="1500.9259,-235.769 1510.1755,-230.6022 1499.7227,-228.8732 1500.9259,-235.769"/>
</g>
<!-- Node5 -->
<g id="node6" class="node">
<title>Node5</title>
<polygon fill="none" stroke="#bfbfbf" points="1415.5,-6 1415.5,-25 1474.5,-25 1474.5,-6 1415.5,-6"/>
<text text-anchor="middle" x="1445" y="-13" font-family="Helvetica,sans-Serif" font-size="10.00" fill="#000000">Rtypes.h</text>
</g>
<!-- Node4&#45;&gt;Node5 -->
<g id="edge5" class="edge">
<title>Node4&#45;&gt;Node5</title>
<path fill="none" stroke="#191970" d="M1023.2088,-206.9791C833.2175,-179.4486 296.9985,-101.4785 294,-98 285.0044,-87.5642 284.4779,-76.9577 294,-67 333.1964,-26.0106 1206.5488,-17.2267 1405.0914,-15.7571"/>
<polygon fill="#191970" stroke="#191970" points="1405.3811,-19.2552 1415.3556,-15.6832 1405.3306,-12.2553 1405.3811,-19.2552"/>
</g>
<!-- Node6 -->
<g id="node7" class="node">
<title>Node6</title>
<g id="a_node7"><a xlink:href="../../dd/d76/Cartesian3D_8h.html" target="_top" xlink:title="MathUtils/Cartesian3D.h">
<polygon fill="none" stroke="#000000" points="990.5,-140 990.5,-159 1125.5,-159 1125.5,-140 990.5,-140"/>
<text text-anchor="middle" x="1058" y="-147" font-family="Helvetica,sans-Serif" font-size="10.00" fill="#000000">MathUtils/Cartesian3D.h</text>
</a>
</g>
</g>
<!-- Node4&#45;&gt;Node6 -->
<g id="edge6" class="edge">
<title>Node4&#45;&gt;Node6</title>
<path fill="none" stroke="#191970" d="M1084.5585,-206.9005C1079.9084,-196.8505 1072.4877,-180.8122 1066.6709,-168.2403"/>
<polygon fill="#191970" stroke="#191970" points="1069.809,-166.6876 1062.4333,-159.0817 1063.4561,-169.627 1069.809,-166.6876"/>
</g>
<!-- Node6&#45;&gt;Node5 -->
<g id="edge12" class="edge">
<title>Node6&#45;&gt;Node5</title>
<path fill="none" stroke="#191970" d="M1125.716,-140.9938C1196.5937,-131.4097 1302.6696,-114.9455 1340,-98 1360.1621,-88.8478 1361.6049,-80.6997 1379,-67 1394.1735,-55.0499 1411.3787,-41.6289 1424.4175,-31.4842"/>
<polygon fill="#191970" stroke="#191970" points="1426.5747,-34.2404 1432.3209,-25.3392 1422.278,-28.7142 1426.5747,-34.2404"/>
</g>
<!-- Node7 -->
<g id="node8" class="node">
<title>Node7</title>
<polygon fill="none" stroke="#bfbfbf" points="781,-67.5 781,-97.5 945,-97.5 945,-67.5 781,-67.5"/>
<text text-anchor="start" x="789" y="-85.5" font-family="Helvetica,sans-Serif" font-size="10.00" fill="#000000">Math/GenVector/Displacement</text>
<text text-anchor="middle" x="863" y="-74.5" font-family="Helvetica,sans-Serif" font-size="10.00" fill="#000000">Vector3D.h</text>
</g>
<!-- Node6&#45;&gt;Node7 -->
<g id="edge7" class="edge">
<title>Node6&#45;&gt;Node7</title>
<path fill="none" stroke="#191970" d="M1030.0613,-139.9005C1000.4796,-129.7366 953.0721,-113.4479 916.3023,-100.8141"/>
<polygon fill="#191970" stroke="#191970" points="917.3147,-97.4612 906.7201,-97.5218 915.0401,-104.0813 917.3147,-97.4612"/>
</g>
<!-- Node8 -->
<g id="node9" class="node">
<title>Node8</title>
<polygon fill="none" stroke="#bfbfbf" points="963.5,-73 963.5,-92 1152.5,-92 1152.5,-73 963.5,-73"/>
<text text-anchor="middle" x="1058" y="-80" font-family="Helvetica,sans-Serif" font-size="10.00" fill="#000000">Math/GenVector/PositionVector3D.h</text>
</g>
<!-- Node6&#45;&gt;Node8 -->
<g id="edge8" class="edge">
<title>Node6&#45;&gt;Node8</title>
<path fill="none" stroke="#191970" d="M1058,-139.9005C1058,-130.149 1058,-114.7597 1058,-102.3695"/>
<polygon fill="#191970" stroke="#191970" points="1061.5001,-102.0816 1058,-92.0817 1054.5001,-102.0817 1061.5001,-102.0816"/>
</g>
<!-- Node9 -->
<g id="node10" class="node">
<title>Node9</title>
<polygon fill="none" stroke="#bfbfbf" points="1171,-73 1171,-92 1331,-92 1331,-73 1171,-73"/>
<text text-anchor="middle" x="1251" y="-80" font-family="Helvetica,sans-Serif" font-size="10.00" fill="#000000">Math/GenVector/Rotation3D.h</text>
</g>
<!-- Node6&#45;&gt;Node9 -->
<g id="edge9" class="edge">
<title>Node6&#45;&gt;Node9</title>
<path fill="none" stroke="#191970" d="M1085.6522,-139.9005C1119.3318,-128.2086 1176.3574,-108.4122 1213.8472,-95.3976"/>
<polygon fill="#191970" stroke="#191970" points="1215.1,-98.6677 1223.3991,-92.0817 1212.8043,-92.0548 1215.1,-98.6677"/>
</g>
<!-- Node10 -->
<g id="node11" class="node">
<title>Node10</title>
<polygon fill="none" stroke="#bfbfbf" points="303,-73 303,-92 471,-92 471,-73 303,-73"/>
<text text-anchor="middle" x="387" y="-80" font-family="Helvetica,sans-Serif" font-size="10.00" fill="#000000">Math/GenVector/Transform3D.h</text>
</g>
<!-- Node6&#45;&gt;Node10 -->
<g id="edge10" class="edge">
<title>Node6&#45;&gt;Node10</title>
<path fill="none" stroke="#191970" d="M990.1907,-145.1422C882.0267,-137.8125 663.8773,-121.4801 480,-98 470.258,-96.756 459.9739,-95.2437 449.937,-93.6572"/>
<polygon fill="#191970" stroke="#191970" points="450.442,-90.1934 440.0117,-92.0531 449.3251,-97.1038 450.442,-90.1934"/>
</g>
<!-- Node11 -->
<g id="node12" class="node">
<title>Node11</title>
<polygon fill="none" stroke="#bfbfbf" points="489.5,-73 489.5,-92 662.5,-92 662.5,-73 489.5,-73"/>
<text text-anchor="middle" x="576" y="-80" font-family="Helvetica,sans-Serif" font-size="10.00" fill="#000000">Math/GenVector/Translation3D.h</text>
</g>
<!-- Node6&#45;&gt;Node11 -->
<g id="edge11" class="edge">
<title>Node6&#45;&gt;Node11</title>
<path fill="none" stroke="#191970" d="M990.285,-141.0368C913.1484,-131.2634 783.3634,-114.4161 672,-98 662.703,-96.6295 652.9102,-95.1222 643.2768,-93.6023"/>
<polygon fill="#191970" stroke="#191970" points="643.7486,-90.1335 633.323,-92.0192 642.649,-97.0466 643.7486,-90.1335"/>
</g>
<!-- Node12 -->
<g id="node13" class="node">
<title>Node12</title>
<polygon fill="none" stroke="#bfbfbf" points="681,-73 681,-92 763,-92 763,-73 681,-73"/>
<text text-anchor="middle" x="722" y="-80" font-family="Helvetica,sans-Serif" font-size="10.00" fill="#000000">TGeoMatrix.h</text>
</g>
<!-- Node6&#45;&gt;Node12 -->
<g id="edge13" class="edge">
<title>Node6&#45;&gt;Node12</title>
<path fill="none" stroke="#191970" d="M992.2075,-139.9982C933.9284,-131.026 846.7444,-116.2423 772,-98 768.1856,-97.0691 764.2347,-96.0109 760.3018,-94.8949"/>
<polygon fill="#191970" stroke="#191970" points="761.2334,-91.5206 750.6514,-92.0415 759.2486,-98.2333 761.2334,-91.5206"/>
</g>
<!-- Node13 -->
<g id="node14" class="node">
<title>Node13</title>
<polygon fill="none" stroke="#bfbfbf" points="1387.5,-73 1387.5,-92 1436.5,-92 1436.5,-73 1387.5,-73"/>
<text text-anchor="middle" x="1412" y="-80" font-family="Helvetica,sans-Serif" font-size="10.00" fill="#000000">iosfwd</text>
</g>
<!-- Node6&#45;&gt;Node13 -->
<g id="edge14" class="edge">
<title>Node6&#45;&gt;Node13</title>
<path fill="none" stroke="#191970" d="M1125.5817,-142.7335C1189.9933,-135.2843 1289.2902,-121.1832 1373,-98 1375.609,-97.2774 1378.2822,-96.4381 1380.9461,-95.5311"/>
<polygon fill="#191970" stroke="#191970" points="1382.2488,-98.7812 1390.4207,-92.0379 1379.8273,-92.2134 1382.2488,-98.7812"/>
</g>
<!-- Node14 -->
<g id="node15" class="node">
<title>Node14</title>
<g id="a_node15"><a xlink:href="../../d2/dd0/Cartesian2D_8h.html" target="_top" xlink:title="MathUtils/Cartesian2D.h">
<polygon fill="none" stroke="#000000" points="111.5,-73 111.5,-92 246.5,-92 246.5,-73 111.5,-73"/>
<text text-anchor="middle" x="179" y="-80" font-family="Helvetica,sans-Serif" font-size="10.00" fill="#000000">MathUtils/Cartesian2D.h</text>
</a>
</g>
</g>
<!-- Node6&#45;&gt;Node14 -->
<g id="edge15" class="edge">
<title>Node6&#45;&gt;Node14</title>
<path fill="none" stroke="#191970" d="M990.4213,-146.4606C857.0396,-140.1265 550.5984,-123.9118 294,-98 281.0623,-96.6935 267.3379,-95.0605 254.0459,-93.3486"/>
<polygon fill="#191970" stroke="#191970" points="254.3564,-89.8595 243.986,-92.0283 253.4455,-96.7999 254.3564,-89.8595"/>
</g>
<!-- Node15 -->
<g id="node16" class="node">
<title>Node15</title>
<polygon fill="none" stroke="#bfbfbf" points="0,-.5 0,-30.5 164,-30.5 164,-.5 0,-.5"/>
<text text-anchor="start" x="8" y="-18.5" font-family="Helvetica,sans-Serif" font-size="10.00" fill="#000000">Math/GenVector/Displacement</text>
<text text-anchor="middle" x="82" y="-7.5" font-family="Helvetica,sans-Serif" font-size="10.00" fill="#000000">Vector2D.h</text>
</g>
<!-- Node14&#45;&gt;Node15 -->
<g id="edge16" class="edge">
<title>Node14&#45;&gt;Node15</title>
<path fill="none" stroke="#191970" d="M165.1023,-72.9005C151.3265,-63.3853 129.7795,-48.5023 112.0779,-36.2755"/>
<polygon fill="#191970" stroke="#191970" points="113.9651,-33.3253 103.7479,-30.5218 109.9868,-39.0849 113.9651,-33.3253"/>
</g>
<!-- Node16 -->
<g id="node17" class="node">
<title>Node16</title>
<polygon fill="none" stroke="#bfbfbf" points="182.5,-6 182.5,-25 371.5,-25 371.5,-6 182.5,-6"/>
<text text-anchor="middle" x="277" y="-13" font-family="Helvetica,sans-Serif" font-size="10.00" fill="#000000">Math/GenVector/PositionVector2D.h</text>
</g>
<!-- Node14&#45;&gt;Node16 -->
<g id="edge17" class="edge">
<title>Node14&#45;&gt;Node16</title>
<path fill="none" stroke="#191970" d="M193.041,-72.9005C209.1238,-61.9052 235.6906,-43.7422 254.6316,-30.7927"/>
<polygon fill="#191970" stroke="#191970" points="256.7052,-33.6148 262.985,-25.0817 252.7545,-27.8362 256.7052,-33.6148"/>
</g>
<!-- Node17&#45;&gt;Node3 -->
<g id="edge26" class="edge">
<title>Node17&#45;&gt;Node3</title>
<path fill="none" stroke="#191970" d="M1231.9443,-205.5463C1218.3314,-203.8363 1204.2615,-202.2311 1191,-201 823.5877,-166.8913 375.0588,-153.3418 257.3877,-150.2323"/>
<polygon fill="#191970" stroke="#191970" points="257.1345,-146.7246 247.0469,-149.9636 256.9526,-153.7222 257.1345,-146.7246"/>
</g>
<!-- Node17&#45;&gt;Node13 -->
<g id="edge27" class="edge">
<title>Node17&#45;&gt;Node13</title>
<path fill="none" stroke="#191970" d="M1308.0476,-201.3649C1308.8249,-183.6336 1312.4422,-154.1262 1327,-134 1334.4875,-123.6486 1361.7549,-108.0402 1383.4131,-96.7204"/>
<polygon fill="#191970" stroke="#191970" points="1385.2849,-99.6936 1392.5774,-92.0078 1382.0837,-93.4685 1385.2849,-99.6936"/>
</g>
<!-- Node18 -->
<g id="node19" class="node">
<title>Node18</title>
<g id="a_node19"><a xlink:href="../../de/dc1/ClusterPattern_8h.html" target="_top" xlink:title="DataFormatsITSMFT/Cluster\lPattern.h">
<polygon fill="none" stroke="#000000" points="1336,-134.5 1336,-164.5 1488,-164.5 1488,-134.5 1336,-134.5"/>
<text text-anchor="start" x="1344" y="-152.5" font-family="Helvetica,sans-Serif" font-size="10.00" fill="#000000">DataFormatsITSMFT/Cluster</text>
<text text-anchor="middle" x="1412" y="-141.5" font-family="Helvetica,sans-Serif" font-size="10.00" fill="#000000">Pattern.h</text>
</a>
</g>
</g>
<!-- Node17&#45;&gt;Node18 -->
<g id="edge19" class="edge">
<title>Node17&#45;&gt;Node18</title>
<path fill="none" stroke="#191970" d="M1331.3396,-201.4639C1345.5574,-192.3044 1363.9323,-180.4667 1379.5522,-170.4038"/>
<polygon fill="#191970" stroke="#191970" points="1381.8674,-173.0758 1388.3784,-164.7177 1378.0764,-167.1912 1381.8674,-173.0758"/>
</g>
<!-- Node18&#45;&gt;Node5 -->
<g id="edge20" class="edge">
<title>Node18&#45;&gt;Node5</title>
<path fill="none" stroke="#191970" d="M1465.7661,-134.4745C1483.6476,-126.6361 1501.6293,-115.006 1512,-98 1519.1734,-86.2369 1518.0886,-79.3595 1512,-67 1504.1819,-51.1298 1488.8633,-38.7839 1474.8449,-30.1633"/>
<polygon fill="#191970" stroke="#191970" points="1476.3277,-26.9789 1465.9124,-25.0368 1472.8433,-33.0501 1476.3277,-26.9789"/>
</g>
<!-- Node18&#45;&gt;Node13 -->
<g id="edge22" class="edge">
<title>Node18&#45;&gt;Node13</title>
<path fill="none" stroke="#191970" d="M1412,-134.2967C1412,-124.7699 1412,-112.3954 1412,-102.1306"/>
<polygon fill="#191970" stroke="#191970" points="1415.5001,-102.0549 1412,-92.055 1408.5001,-102.055 1415.5001,-102.0549"/>
</g>
<!-- Node19 -->
<g id="node20" class="node">
<title>Node19</title>
<polygon fill="none" stroke="#bfbfbf" points="1816,-73 1816,-92 1858,-92 1858,-73 1816,-73"/>
<text text-anchor="middle" x="1837" y="-80" font-family="Helvetica,sans-Serif" font-size="10.00" fill="#000000">array</text>
</g>
<!-- Node18&#45;&gt;Node19 -->
<g id="edge21" class="edge">
<title>Node18&#45;&gt;Node19</title>
<path fill="none" stroke="#191970" d="M1488.314,-138.9782C1558.117,-129.1397 1664.1764,-113.6524 1756,-98 1772.5135,-95.1851 1790.8517,-91.7056 1805.8974,-88.7569"/>
<polygon fill="#191970" stroke="#191970" points="1806.593,-92.1872 1815.7248,-86.8151 1805.236,-85.32 1806.593,-92.1872"/>
</g>
<!-- Node20 -->
<g id="node21" class="node">
<title>Node20</title>
<polygon fill="none" stroke="#bfbfbf" points="1455,-73 1455,-92 1503,-92 1503,-73 1455,-73"/>
<text text-anchor="middle" x="1479" y="-80" font-family="Helvetica,sans-Serif" font-size="10.00" fill="#000000">gsl/gsl</text>
</g>
<!-- Node18&#45;&gt;Node20 -->
<g id="edge23" class="edge">
<title>Node18&#45;&gt;Node20</title>
<path fill="none" stroke="#191970" d="M1427.2033,-134.2967C1437.6422,-123.8578 1451.5003,-109.9997 1462.2554,-99.2446"/>
<polygon fill="#191970" stroke="#191970" points="1464.8488,-101.601 1469.445,-92.055 1459.899,-96.6512 1464.8488,-101.601"/>
</g>
<!-- Node21 -->
<g id="node22" class="node">
<title>Node21</title>
<g id="a_node22"><a xlink:href="../../df/de4/CompCluster_8h.html" target="_top" xlink:title="Definition of the ITSMFT compact cluster. ">
<polygon fill="none" stroke="#000000" points="1559,-73 1559,-92 1747,-92 1747,-73 1559,-73"/>
<text text-anchor="middle" x="1653" y="-80" font-family="Helvetica,sans-Serif" font-size="10.00" fill="#000000">DataFormatsITSMFT/CompCluster.h</text>
</a>
</g>
</g>
<!-- Node18&#45;&gt;Node21 -->
<g id="edge24" class="edge">
<title>Node18&#45;&gt;Node21</title>
<path fill="none" stroke="#191970" d="M1466.0851,-134.4639C1509.1998,-122.4776 1568.8111,-105.9052 1609.0252,-94.7254"/>
<polygon fill="#191970" stroke="#191970" points="1610.1122,-98.056 1618.8093,-92.0053 1608.2372,-91.3117 1610.1122,-98.056"/>
</g>
<!-- Node21&#45;&gt;Node5 -->
<g id="edge25" class="edge">
<title>Node21&#45;&gt;Node5</title>
<path fill="none" stroke="#191970" d="M1623.1987,-72.9005C1586.6698,-61.134 1524.6582,-41.1591 1484.2692,-28.1492"/>
<polygon fill="#191970" stroke="#191970" points="1485.3376,-24.8163 1474.746,-25.0817 1483.1913,-31.4792 1485.3376,-24.8163"/>
</g>
<!-- Node22&#45;&gt;Node6 -->
<g id="edge36" class="edge">
<title>Node22&#45;&gt;Node6</title>
<path fill="none" stroke="#191970" d="M1510.3383,-206.3605C1408.9091,-193.6105 1235.964,-171.8707 1135.8687,-159.2884"/>
<polygon fill="#191970" stroke="#191970" points="1136.1779,-155.7998 1125.8195,-158.0251 1135.3048,-162.7451 1136.1779,-155.7998"/>
</g>
<!-- Node22&#45;&gt;Node18 -->
<g id="edge29" class="edge">
<title>Node22&#45;&gt;Node18</title>
<path fill="none" stroke="#191970" d="M1550.8289,-201.4639C1524.5504,-191.6278 1490.021,-178.7034 1461.9728,-168.2049"/>
<polygon fill="#191970" stroke="#191970" points="1462.9387,-164.8293 1452.3463,-164.6017 1460.4848,-171.3852 1462.9387,-164.8293"/>
</g>
<!-- Node22&#45;&gt;Node21 -->
<g id="edge37" class="edge">
<title>Node22&#45;&gt;Node21</title>
<path fill="none" stroke="#191970" d="M1568.819,-201.3544C1547.4848,-184.8521 1520.5743,-157.6439 1536,-134 1548.4615,-114.8995 1569.7711,-102.835 1590.8173,-95.2356"/>
<polygon fill="#191970" stroke="#191970" points="1592.0441,-98.5164 1600.436,-92.049 1589.8426,-91.8715 1592.0441,-98.5164"/>
</g>
<!-- Node23 -->
<g id="node24" class="node">
<title>Node23</title>
<g id="a_node24"><a xlink:href="../../dd/da4/Logger_8h.html" target="_top" xlink:title="Framework/Logger.h">
<polygon fill="none" stroke="#000000" points="1923.5,-140 1923.5,-159 2038.5,-159 2038.5,-140 1923.5,-140"/>
<text text-anchor="middle" x="1981" y="-147" font-family="Helvetica,sans-Serif" font-size="10.00" fill="#000000">Framework/Logger.h</text>
</a>
</g>
</g>
<!-- Node22&#45;&gt;Node23 -->
<g id="edge30" class="edge">
<title>Node22&#45;&gt;Node23</title>
<path fill="none" stroke="#191970" d="M1671.5798,-205.234C1737.0894,-195.6953 1831.7933,-181.0426 1914,-165 1919.7803,-163.872 1925.8207,-162.6032 1931.8062,-161.2897"/>
<polygon fill="#191970" stroke="#191970" points="1932.7808,-164.6582 1941.7721,-159.0541 1931.2485,-157.8279 1932.7808,-164.6582"/>
</g>
<!-- Node25 -->
<g id="node26" class="node">
<title>Node25</title>
<polygon fill="none" stroke="#bfbfbf" points="1787.5,-140 1787.5,-159 1842.5,-159 1842.5,-140 1787.5,-140"/>
<text text-anchor="middle" x="1815" y="-147" font-family="Helvetica,sans-Serif" font-size="10.00" fill="#000000">fstream</text>
</g>
<!-- Node22&#45;&gt;Node25 -->
<g id="edge32" class="edge">
<title>Node22&#45;&gt;Node25</title>
<path fill="none" stroke="#191970" d="M1654.3394,-201.4914C1691.1192,-192.1969 1738.1192,-179.3219 1779,-165 1780.8784,-164.3419 1782.7976,-163.6319 1784.7236,-162.8903"/>
<polygon fill="#191970" stroke="#191970" points="1786.3096,-166.0238 1794.2547,-159.0148 1783.6729,-159.5393 1786.3096,-166.0238"/>
</g>
<!-- Node26 -->
<g id="node27" class="node">
<title>Node26</title>
<polygon fill="none" stroke="#bfbfbf" points="1861,-140 1861,-159 1905,-159 1905,-140 1861,-140"/>
<text text-anchor="middle" x="1883" y="-147" font-family="Helvetica,sans-Serif" font-size="10.00" fill="#000000">string</text>
</g>
<!-- Node22&#45;&gt;Node26 -->
<g id="edge33" class="edge">
<title>Node22&#45;&gt;Node26</title>
<path fill="none" stroke="#191970" d="M1671.5526,-206.3267C1723.8991,-198.3295 1793.1067,-185.1219 1852,-165 1853.605,-164.4516 1855.2324,-163.8361 1856.8578,-163.1748"/>
<polygon fill="#191970" stroke="#191970" points="1858.3156,-166.3569 1865.9753,-159.037 1855.4227,-159.9826 1858.3156,-166.3569"/>
</g>
<!-- Node27 -->
<g id="node28" class="node">
<title>Node27</title>
<polygon fill="none" stroke="#bfbfbf" points="1544.5,-140 1544.5,-159 1637.5,-159 1637.5,-140 1544.5,-140"/>
<text text-anchor="middle" x="1591" y="-147" font-family="Helvetica,sans-Serif" font-size="10.00" fill="#000000">unordered_map</text>
</g>
<!-- Node22&#45;&gt;Node27 -->
<g id="edge34" class="edge">
<title>Node22&#45;&gt;Node27</title>
<path fill="none" stroke="#191970" d="M1591,-201.2967C1591,-191.7699 1591,-179.3954 1591,-169.1306"/>
<polygon fill="#191970" stroke="#191970" points="1594.5001,-169.0549 1591,-159.055 1587.5001,-169.055 1594.5001,-169.0549"/>
</g>
<!-- Node28 -->
<g id="node29" class="node">
<title>Node28</title>
<polygon fill="none" stroke="#bfbfbf" points="1655.5,-140 1655.5,-159 1702.5,-159 1702.5,-140 1655.5,-140"/>
<text text-anchor="middle" x="1679" y="-147" font-family="Helvetica,sans-Serif" font-size="10.00" fill="#000000">vector</text>
</g>
<!-- Node22&#45;&gt;Node28 -->
<g id="edge35" class="edge">
<title>Node22&#45;&gt;Node28</title>
<path fill="none" stroke="#191970" d="M1610.9686,-201.2967C1625.0787,-190.5537 1643.9451,-176.1895 1658.2308,-165.3129"/>
<polygon fill="#191970" stroke="#191970" points="1660.614,-167.8975 1666.4502,-159.055 1656.3736,-162.328 1660.614,-167.8975"/>
</g>
<!-- Node29 -->
<g id="node30" class="node">
<title>Node29</title>
<polygon fill="none" stroke="#bfbfbf" points="1720.5,-140 1720.5,-159 1769.5,-159 1769.5,-140 1720.5,-140"/>
<text text-anchor="middle" x="1745" y="-147" font-family="Helvetica,sans-Serif" font-size="10.00" fill="#000000">TH1F.h</text>
</g>
<!-- Node22&#45;&gt;Node29 -->
<g id="edge38" class="edge">
<title>Node22&#45;&gt;Node29</title>
<path fill="none" stroke="#191970" d="M1627.4199,-201.4092C1651.5185,-191.3231 1683.7628,-177.6355 1712,-165 1713.17,-164.4765 1714.3613,-163.9388 1715.5634,-163.3924"/>
<polygon fill="#191970" stroke="#191970" points="1717.1957,-166.4939 1724.8097,-159.1266 1714.2632,-160.1378 1717.1957,-166.4939"/>
</g>
<!-- Node24 -->
<g id="node25" class="node">
<title>Node24</title>
<polygon fill="none" stroke="#bfbfbf" points="1927,-73 1927,-92 2035,-92 2035,-73 1927,-73"/>
<text text-anchor="middle" x="1981" y="-80" font-family="Helvetica,sans-Serif" font-size="10.00" fill="#000000">fairlogger/Logger.h</text>
</g>
<!-- Node23&#45;&gt;Node24 -->
<g id="edge31" class="edge">
<title>Node23&#45;&gt;Node24</title>
<path fill="none" stroke="#191970" d="M1981,-139.9005C1981,-130.149 1981,-114.7597 1981,-102.3695"/>
<polygon fill="#191970" stroke="#191970" points="1984.5001,-102.0816 1981,-92.0817 1977.5001,-102.0817 1984.5001,-102.0816"/>
</g>
<!-- Node30&#45;&gt;Node17 -->
<g id="edge41" class="edge">
<title>Node30&#45;&gt;Node17</title>
<path fill="none" stroke="#191970" d="M1385.3085,-268.2967C1371.6278,-259.1306 1354.0126,-247.3285 1339.053,-237.3055"/>
<polygon fill="#191970" stroke="#191970" points="1340.8576,-234.3017 1330.6017,-231.6432 1336.9613,-240.1171 1340.8576,-234.3017"/>
</g>
<!-- Node30&#45;&gt;Node19 -->
<g id="edge40" class="edge">
<title>Node30&#45;&gt;Node19</title>
<path fill="none" stroke="#191970" d="M1469.5433,-269.9124C1472.7392,-269.2544 1475.906,-268.6132 1479,-268 1605.0478,-243.0189 1965.6998,-263.6852 2048,-165 2056.8243,-154.4189 2056.5093,-144.836 2048,-134 2042.382,-126.8459 1925.3219,-101.2104 1868.036,-89.0241"/>
<polygon fill="#191970" stroke="#191970" points="1868.5839,-85.5625 1858.0754,-86.9126 1867.1322,-92.4103 1868.5839,-85.5625"/>
</g>
<!-- Node30&#45;&gt;Node22 -->
<g id="edge42" class="edge">
<title>Node30&#45;&gt;Node22</title>
<path fill="none" stroke="#191970" d="M1449.0688,-268.4639C1476.0518,-258.5849 1511.544,-245.5905 1540.2857,-235.0675"/>
<polygon fill="#191970" stroke="#191970" points="1541.565,-238.3264 1549.7521,-231.6017 1539.1583,-231.7531 1541.565,-238.3264"/>
</g>
</g>
</svg>
