<?xml version="1.0" encoding="UTF-8" standalone="no"?>
<!DOCTYPE svg PUBLIC "-//W3C//DTD SVG 1.1//EN"
 "http://www.w3.org/Graphics/SVG/1.1/DTD/svg11.dtd">
<!-- Generated by graphviz version 2.40.1 (20161225.0304)
 -->
<!-- Title: o2::itsmft::ITSMFTDPLDigitizerTask Pages: 1 -->
<svg width="1777pt" height="1057pt"
 viewBox="0.00 0.00 1777.00 1057.00" xmlns="http://www.w3.org/2000/svg" xmlns:xlink="http://www.w3.org/1999/xlink">
<g id="graph0" class="graph" transform="scale(1 1) rotate(0) translate(4 1053)">
<title>o2::itsmft::ITSMFTDPLDigitizerTask</title>
<!-- Node4 -->
<g id="node1" class="node">
<title>Node4</title>
<polygon fill="#bfbfbf" stroke="#000000" points="891,-.5 891,-90.5 1077,-90.5 1077,-.5 891,-.5"/>
<text text-anchor="middle" x="984" y="-78.5" font-family="Helvetica,sans-Serif" font-size="10.00" fill="#000000">o2::itsmft::ITSMFTDPLDigitizerTask</text>
<polyline fill="none" stroke="#000000" points="891,-71.5 1077,-71.5 "/>
<text text-anchor="middle" x="984" y="-59.5" font-family="Helvetica,sans-Serif" font-size="10.00" fill="#000000"> </text>
<polyline fill="none" stroke="#000000" points="891,-52.5 1077,-52.5 "/>
<text text-anchor="start" x="899" y="-40.5" font-family="Helvetica,sans-Serif" font-size="10.00" fill="#000000">+ initDigitizerTask()</text>
<text text-anchor="start" x="899" y="-29.5" font-family="Helvetica,sans-Serif" font-size="10.00" fill="#000000">+ setDigitizationOptions()</text>
<text text-anchor="start" x="899" y="-18.5" font-family="Helvetica,sans-Serif" font-size="10.00" fill="#000000">+ run()</text>
<text text-anchor="start" x="899" y="-7.5" font-family="Helvetica,sans-Serif" font-size="10.00" fill="#000000"># ITSMFTDPLDigitizerTask()</text>
</g>
<!-- Node5 -->
<g id="node2" class="node">
<title>Node5</title>
<g id="a_node2"><a xlink:href="../../de/de1/classo2_1_1base_1_1BaseDPLDigitizer.html" target="_top" xlink:title="{o2::base::BaseDPLDigitizer\n||+ BaseDPLDigitizer()\l+ ~BaseDPLDigitizer()\l+ BaseDPLDigitizer()\l+ init()\l+ initDigitizerTask()\l}">
<polygon fill="none" stroke="#000000" points="0,-292.5 0,-393.5 148,-393.5 148,-292.5 0,-292.5"/>
<text text-anchor="middle" x="74" y="-381.5" font-family="Helvetica,sans-Serif" font-size="10.00" fill="#000000">o2::base::BaseDPLDigitizer</text>
<polyline fill="none" stroke="#000000" points="0,-374.5 148,-374.5 "/>
<text text-anchor="middle" x="74" y="-362.5" font-family="Helvetica,sans-Serif" font-size="10.00" fill="#000000"> </text>
<polyline fill="none" stroke="#000000" points="0,-355.5 148,-355.5 "/>
<text text-anchor="start" x="8" y="-343.5" font-family="Helvetica,sans-Serif" font-size="10.00" fill="#000000">+ BaseDPLDigitizer()</text>
<text text-anchor="start" x="8" y="-332.5" font-family="Helvetica,sans-Serif" font-size="10.00" fill="#000000">+ ~BaseDPLDigitizer()</text>
<text text-anchor="start" x="8" y="-321.5" font-family="Helvetica,sans-Serif" font-size="10.00" fill="#000000">+ BaseDPLDigitizer()</text>
<text text-anchor="start" x="8" y="-310.5" font-family="Helvetica,sans-Serif" font-size="10.00" fill="#000000">+ init()</text>
<text text-anchor="start" x="8" y="-299.5" font-family="Helvetica,sans-Serif" font-size="10.00" fill="#000000">+ initDigitizerTask()</text>
</a>
</g>
</g>
<!-- Node5&#45;&gt;Node4 -->
<g id="edge1" class="edge">
<title>Node5&#45;&gt;Node4</title>
<path fill="none" stroke="#8b1a1a" d="M87.5451,-282.5289C99.4763,-242.52 120.7723,-191.7653 157,-160 215.6715,-108.5555 248.4535,-124.1502 325,-109 524.2899,-69.5563 762.5293,-54.3088 890.9342,-48.6485"/>
<polygon fill="none" stroke="#8b1a1a" points="84.1669,-281.6125 84.7817,-292.1895 90.897,-283.5377 84.1669,-281.6125"/>
</g>
<!-- Node6 -->
<g id="node3" class="node">
<title>Node6</title>
<g id="a_node3"><a xlink:href="../../d0/d77/classo2_1_1itsmft_1_1Digitizer.html" target="_top" xlink:title="{o2::itsmft::Digitizer\n||+ Digitizer()\l+ ~Digitizer()\l+ Digitizer()\l+ operator=()\l+ setDigits()\l+ setMCLabels()\l+ setROFRecords()\l+ getParams()\l+ getParams()\l+ init()\l+ process()\l+ setEventTime()\l+ getEndTimeOfROFMax()\l+ setContinuous()\l+ isContinuous()\l+ fillOutputContainer()\l+ setDigiParams()\l+ getDigitParams()\l+ setGeometry()\l+ getEventROFrameMin()\l+ getEventROFrameMax()\l+ resetEventROFrames()\l}">
<polygon fill="none" stroke="#000000" points="166.5,-199 166.5,-487 311.5,-487 311.5,-199 166.5,-199"/>
<text text-anchor="middle" x="239" y="-475" font-family="Helvetica,sans-Serif" font-size="10.00" fill="#000000">o2::itsmft::Digitizer</text>
<polyline fill="none" stroke="#000000" points="166.5,-468 311.5,-468 "/>
<text text-anchor="middle" x="239" y="-456" font-family="Helvetica,sans-Serif" font-size="10.00" fill="#000000"> </text>
<polyline fill="none" stroke="#000000" points="166.5,-449 311.5,-449 "/>
<text text-anchor="start" x="174.5" y="-437" font-family="Helvetica,sans-Serif" font-size="10.00" fill="#000000">+ Digitizer()</text>
<text text-anchor="start" x="174.5" y="-426" font-family="Helvetica,sans-Serif" font-size="10.00" fill="#000000">+ ~Digitizer()</text>
<text text-anchor="start" x="174.5" y="-415" font-family="Helvetica,sans-Serif" font-size="10.00" fill="#000000">+ Digitizer()</text>
<text text-anchor="start" x="174.5" y="-404" font-family="Helvetica,sans-Serif" font-size="10.00" fill="#000000">+ operator=()</text>
<text text-anchor="start" x="174.5" y="-393" font-family="Helvetica,sans-Serif" font-size="10.00" fill="#000000">+ setDigits()</text>
<text text-anchor="start" x="174.5" y="-382" font-family="Helvetica,sans-Serif" font-size="10.00" fill="#000000">+ setMCLabels()</text>
<text text-anchor="start" x="174.5" y="-371" font-family="Helvetica,sans-Serif" font-size="10.00" fill="#000000">+ setROFRecords()</text>
<text text-anchor="start" x="174.5" y="-360" font-family="Helvetica,sans-Serif" font-size="10.00" fill="#000000">+ getParams()</text>
<text text-anchor="start" x="174.5" y="-349" font-family="Helvetica,sans-Serif" font-size="10.00" fill="#000000">+ getParams()</text>
<text text-anchor="start" x="174.5" y="-338" font-family="Helvetica,sans-Serif" font-size="10.00" fill="#000000">+ init()</text>
<text text-anchor="start" x="174.5" y="-327" font-family="Helvetica,sans-Serif" font-size="10.00" fill="#000000">+ process()</text>
<text text-anchor="start" x="174.5" y="-316" font-family="Helvetica,sans-Serif" font-size="10.00" fill="#000000">+ setEventTime()</text>
<text text-anchor="start" x="174.5" y="-305" font-family="Helvetica,sans-Serif" font-size="10.00" fill="#000000">+ getEndTimeOfROFMax()</text>
<text text-anchor="start" x="174.5" y="-294" font-family="Helvetica,sans-Serif" font-size="10.00" fill="#000000">+ setContinuous()</text>
<text text-anchor="start" x="174.5" y="-283" font-family="Helvetica,sans-Serif" font-size="10.00" fill="#000000">+ isContinuous()</text>
<text text-anchor="start" x="174.5" y="-272" font-family="Helvetica,sans-Serif" font-size="10.00" fill="#000000">+ fillOutputContainer()</text>
<text text-anchor="start" x="174.5" y="-261" font-family="Helvetica,sans-Serif" font-size="10.00" fill="#000000">+ setDigiParams()</text>
<text text-anchor="start" x="174.5" y="-250" font-family="Helvetica,sans-Serif" font-size="10.00" fill="#000000">+ getDigitParams()</text>
<text text-anchor="start" x="174.5" y="-239" font-family="Helvetica,sans-Serif" font-size="10.00" fill="#000000">+ setGeometry()</text>
<text text-anchor="start" x="174.5" y="-228" font-family="Helvetica,sans-Serif" font-size="10.00" fill="#000000">+ getEventROFrameMin()</text>
<text text-anchor="start" x="174.5" y="-217" font-family="Helvetica,sans-Serif" font-size="10.00" fill="#000000">+ getEventROFrameMax()</text>
<text text-anchor="start" x="174.5" y="-206" font-family="Helvetica,sans-Serif" font-size="10.00" fill="#000000">+ resetEventROFrames()</text>
</a>
</g>
</g>
<!-- Node6&#45;&gt;Node4 -->
<g id="edge2" class="edge">
<title>Node6&#45;&gt;Node4</title>
<path fill="none" stroke="#404040" d="M284.8027,-198.8182C304.3107,-161.9681 331.5085,-127.5419 369,-109 456.0618,-65.9423 727.3765,-52.028 878.9272,-47.5706"/>
<polygon fill="none" stroke="#404040" points="878.9751,-47.5693 884.8592,-43.4007 890.9702,-47.2288 885.0862,-51.3975 878.9751,-47.5693"/>
<text text-anchor="middle" x="400.5" y="-123" font-family="Helvetica,sans-Serif" font-size="10.00" fill="#000000"> #mDigitizer</text>
</g>
<!-- Node7 -->
<g id="node4" class="node">
<title>Node7</title>
<g id="a_node4"><a xlink:href="../../d5/d0f/classTObject.html" target="_top" xlink:title="{TObject\n||}">
<polygon fill="none" stroke="#000000" points="212,-837.5 212,-894.5 266,-894.5 266,-837.5 212,-837.5"/>
<text text-anchor="middle" x="239" y="-882.5" font-family="Helvetica,sans-Serif" font-size="10.00" fill="#000000">TObject</text>
<polyline fill="none" stroke="#000000" points="212,-875.5 266,-875.5 "/>
<text text-anchor="middle" x="239" y="-863.5" font-family="Helvetica,sans-Serif" font-size="10.00" fill="#000000"> </text>
<polyline fill="none" stroke="#000000" points="212,-856.5 266,-856.5 "/>
<text text-anchor="middle" x="239" y="-844.5" font-family="Helvetica,sans-Serif" font-size="10.00" fill="#000000"> </text>
</a>
</g>
</g>
<!-- Node7&#45;&gt;Node6 -->
<g id="edge3" class="edge">
<title>Node7&#45;&gt;Node6</title>
<path fill="none" stroke="#191970" d="M239,-826.8606C239,-755.7974 239,-602.2596 239,-487.0793"/>
<polygon fill="none" stroke="#191970" points="235.5001,-827.1362 239,-837.1363 242.5001,-827.1363 235.5001,-827.1362"/>
</g>
<!-- Node8 -->
<g id="node5" class="node">
<title>Node8</title>
<polygon fill="none" stroke="#bfbfbf" points="330,-309 330,-377 436,-377 436,-309 330,-309"/>
<text text-anchor="start" x="338" y="-365" font-family="Helvetica,sans-Serif" font-size="10.00" fill="#000000">vector&lt; o2::itsmft</text>
<text text-anchor="middle" x="383" y="-354" font-family="Helvetica,sans-Serif" font-size="10.00" fill="#000000">::ROFRecord &gt;</text>
<polyline fill="none" stroke="#bfbfbf" points="330,-347 436,-347 "/>
<text text-anchor="middle" x="383" y="-335" font-family="Helvetica,sans-Serif" font-size="10.00" fill="#000000"> </text>
<polyline fill="none" stroke="#bfbfbf" points="330,-328 436,-328 "/>
<text text-anchor="middle" x="383" y="-316" font-family="Helvetica,sans-Serif" font-size="10.00" fill="#000000"> </text>
</g>
<!-- Node8&#45;&gt;Node4 -->
<g id="edge4" class="edge">
<title>Node8&#45;&gt;Node4</title>
<path fill="none" stroke="#404040" d="M383.7619,-308.8515C386.9225,-256.8218 401.1415,-158.5297 462,-109 493.6273,-83.2601 735.3704,-62.5186 878.5356,-52.3363"/>
<polygon fill="none" stroke="#404040" points="878.8244,-52.316 884.5286,-47.9044 890.7947,-51.473 885.0906,-55.8846 878.8244,-52.316"/>
<text text-anchor="middle" x="516.5" y="-128.5" font-family="Helvetica,sans-Serif" font-size="10.00" fill="#000000"> #mROFRecords</text>
<text text-anchor="middle" x="516.5" y="-117.5" font-family="Helvetica,sans-Serif" font-size="10.00" fill="#000000">#mROFRecordsAccum</text>
</g>
<!-- Node9 -->
<g id="node6" class="node">
<title>Node9</title>
<polygon fill="none" stroke="#bfbfbf" points="454,-309 454,-377 560,-377 560,-309 454,-309"/>
<text text-anchor="start" x="462" y="-365" font-family="Helvetica,sans-Serif" font-size="10.00" fill="#000000">vector&lt; o2::itsmft</text>
<text text-anchor="middle" x="507" y="-354" font-family="Helvetica,sans-Serif" font-size="10.00" fill="#000000">::Digit &gt;</text>
<polyline fill="none" stroke="#bfbfbf" points="454,-347 560,-347 "/>
<text text-anchor="middle" x="507" y="-335" font-family="Helvetica,sans-Serif" font-size="10.00" fill="#000000"> </text>
<polyline fill="none" stroke="#bfbfbf" points="454,-328 560,-328 "/>
<text text-anchor="middle" x="507" y="-316" font-family="Helvetica,sans-Serif" font-size="10.00" fill="#000000"> </text>
</g>
<!-- Node9&#45;&gt;Node4 -->
<g id="edge5" class="edge">
<title>Node9&#45;&gt;Node4</title>
<path fill="none" stroke="#404040" d="M510.2462,-308.9616C517.5128,-254.6843 540.5451,-150.433 612,-109 656.2532,-83.3399 784.9319,-65.3572 878.5746,-55.2334"/>
<polygon fill="none" stroke="#404040" points="878.7436,-55.2155 884.2873,-50.6039 890.6764,-53.9474 885.1327,-58.5591 878.7436,-55.2155"/>
<text text-anchor="middle" x="637" y="-123" font-family="Helvetica,sans-Serif" font-size="10.00" fill="#000000"> #mDigits</text>
</g>
<!-- Node10 -->
<g id="node7" class="node">
<title>Node10</title>
<polygon fill="none" stroke="#bfbfbf" points="578.5,-314.5 578.5,-371.5 635.5,-371.5 635.5,-314.5 578.5,-314.5"/>
<text text-anchor="middle" x="607" y="-359.5" font-family="Helvetica,sans-Serif" font-size="10.00" fill="#000000">ROMode</text>
<polyline fill="none" stroke="#bfbfbf" points="578.5,-352.5 635.5,-352.5 "/>
<text text-anchor="middle" x="607" y="-340.5" font-family="Helvetica,sans-Serif" font-size="10.00" fill="#000000"> </text>
<polyline fill="none" stroke="#bfbfbf" points="578.5,-333.5 635.5,-333.5 "/>
<text text-anchor="middle" x="607" y="-321.5" font-family="Helvetica,sans-Serif" font-size="10.00" fill="#000000"> </text>
</g>
<!-- Node10&#45;&gt;Node4 -->
<g id="edge6" class="edge">
<title>Node10&#45;&gt;Node4</title>
<path fill="none" stroke="#404040" d="M605.1007,-314.3907C604.0617,-275.0649 608.035,-204.1691 645,-160 675.541,-123.5068 790.9439,-89.6839 878.6958,-68.4056"/>
<polygon fill="none" stroke="#404040" points="878.9403,-68.3471 883.8435,-63.0595 890.6102,-65.5519 885.707,-70.8395 878.9403,-68.3471"/>
<text text-anchor="middle" x="763" y="-123" font-family="Helvetica,sans-Serif" font-size="10.00" fill="#000000"> #mROMode</text>
</g>
<!-- Node11 -->
<g id="node8" class="node">
<title>Node11</title>
<polygon fill="none" stroke="#bfbfbf" points="653.5,-309 653.5,-377 810.5,-377 810.5,-309 653.5,-309"/>
<text text-anchor="start" x="661.5" y="-365" font-family="Helvetica,sans-Serif" font-size="10.00" fill="#000000">Descriptor&lt; gSizeDataOrigin</text>
<text text-anchor="middle" x="732" y="-354" font-family="Helvetica,sans-Serif" font-size="10.00" fill="#000000">String, printDataOrigin &gt;</text>
<polyline fill="none" stroke="#bfbfbf" points="653.5,-347 810.5,-347 "/>
<text text-anchor="middle" x="732" y="-335" font-family="Helvetica,sans-Serif" font-size="10.00" fill="#000000"> </text>
<polyline fill="none" stroke="#bfbfbf" points="653.5,-328 810.5,-328 "/>
<text text-anchor="middle" x="732" y="-316" font-family="Helvetica,sans-Serif" font-size="10.00" fill="#000000"> </text>
</g>
<!-- Node11&#45;&gt;Node4 -->
<g id="edge7" class="edge">
<title>Node11&#45;&gt;Node4</title>
<path fill="none" stroke="#404040" d="M742.8397,-308.8682C756.4094,-269.8889 782.5149,-205.6255 820,-160 839.7524,-135.9581 865.7697,-114.7186 891.2463,-97.2652"/>
<polygon fill="none" stroke="#404040" points="891.3691,-97.1832 894.1362,-90.5241 901.3473,-90.5171 898.5802,-97.1762 891.3691,-97.1832"/>
<text text-anchor="middle" x="896.5" y="-123" font-family="Helvetica,sans-Serif" font-size="10.00" fill="#000000"> #mOrigin</text>
</g>
<!-- Node12 -->
<g id="node9" class="node">
<title>Node12</title>
<g id="a_node9"><a xlink:href="../../d6/dd5/classo2_1_1detectors_1_1DetID.html" target="_top" xlink:title="Static class with identifiers, bitmasks and names for ALICE detectors. ">
<polygon fill="none" stroke="#000000" points="829,-182.5 829,-503.5 943,-503.5 943,-182.5 829,-182.5"/>
<text text-anchor="middle" x="886" y="-491.5" font-family="Helvetica,sans-Serif" font-size="10.00" fill="#000000">o2::detectors::DetID</text>
<polyline fill="none" stroke="#000000" points="829,-484.5 943,-484.5 "/>
<text text-anchor="start" x="837" y="-472.5" font-family="Helvetica,sans-Serif" font-size="10.00" fill="#000000">+ ITS</text>
<text text-anchor="start" x="837" y="-461.5" font-family="Helvetica,sans-Serif" font-size="10.00" fill="#000000">+ TOF</text>
<text text-anchor="start" x="837" y="-450.5" font-family="Helvetica,sans-Serif" font-size="10.00" fill="#000000">+ PHS</text>
<text text-anchor="start" x="837" y="-439.5" font-family="Helvetica,sans-Serif" font-size="10.00" fill="#000000">+ CPV</text>
<text text-anchor="start" x="837" y="-428.5" font-family="Helvetica,sans-Serif" font-size="10.00" fill="#000000">+ EMC</text>
<text text-anchor="start" x="837" y="-417.5" font-family="Helvetica,sans-Serif" font-size="10.00" fill="#000000">+ HMP</text>
<text text-anchor="start" x="837" y="-406.5" font-family="Helvetica,sans-Serif" font-size="10.00" fill="#000000">+ MFT</text>
<text text-anchor="start" x="837" y="-395.5" font-family="Helvetica,sans-Serif" font-size="10.00" fill="#000000">+ MID</text>
<text text-anchor="start" x="837" y="-384.5" font-family="Helvetica,sans-Serif" font-size="10.00" fill="#000000">+ ZDC</text>
<text text-anchor="start" x="837" y="-373.5" font-family="Helvetica,sans-Serif" font-size="10.00" fill="#000000">+ Last</text>
<polyline fill="none" stroke="#000000" points="829,-366.5 943,-366.5 "/>
<text text-anchor="start" x="837" y="-354.5" font-family="Helvetica,sans-Serif" font-size="10.00" fill="#000000">+ DetID()</text>
<text text-anchor="start" x="837" y="-343.5" font-family="Helvetica,sans-Serif" font-size="10.00" fill="#000000">+ DetID()</text>
<text text-anchor="start" x="837" y="-332.5" font-family="Helvetica,sans-Serif" font-size="10.00" fill="#000000">+ DetID()</text>
<text text-anchor="start" x="837" y="-321.5" font-family="Helvetica,sans-Serif" font-size="10.00" fill="#000000">+ operator=()</text>
<text text-anchor="start" x="837" y="-310.5" font-family="Helvetica,sans-Serif" font-size="10.00" fill="#000000">+ getID()</text>
<text text-anchor="start" x="837" y="-299.5" font-family="Helvetica,sans-Serif" font-size="10.00" fill="#000000">+ getMask()</text>
<text text-anchor="start" x="837" y="-288.5" font-family="Helvetica,sans-Serif" font-size="10.00" fill="#000000">+ getDataOrigin()</text>
<text text-anchor="start" x="837" y="-277.5" font-family="Helvetica,sans-Serif" font-size="10.00" fill="#000000">+ getName()</text>
<text text-anchor="start" x="837" y="-266.5" font-family="Helvetica,sans-Serif" font-size="10.00" fill="#000000">+ operator int()</text>
<text text-anchor="start" x="837" y="-255.5" font-family="Helvetica,sans-Serif" font-size="10.00" fill="#000000">+ DetID()</text>
<text text-anchor="start" x="837" y="-244.5" font-family="Helvetica,sans-Serif" font-size="10.00" fill="#000000">+ getNDetectors()</text>
<text text-anchor="start" x="837" y="-233.5" font-family="Helvetica,sans-Serif" font-size="10.00" fill="#000000">+ getName()</text>
<text text-anchor="start" x="837" y="-222.5" font-family="Helvetica,sans-Serif" font-size="10.00" fill="#000000">+ getMask()</text>
<text text-anchor="start" x="837" y="-211.5" font-family="Helvetica,sans-Serif" font-size="10.00" fill="#000000">+ getDataOrigin()</text>
<text text-anchor="start" x="837" y="-200.5" font-family="Helvetica,sans-Serif" font-size="10.00" fill="#000000">+ getMask()</text>
<text text-anchor="start" x="837" y="-189.5" font-family="Helvetica,sans-Serif" font-size="10.00" fill="#000000">+ getNames()</text>
</a>
</g>
</g>
<!-- Node12&#45;&gt;Node4 -->
<g id="edge8" class="edge">
<title>Node12&#45;&gt;Node4</title>
<path fill="none" stroke="#404040" d="M930.0582,-182.458C937.8029,-157.6685 946.2167,-132.5077 955,-109 955.8782,-106.6496 956.804,-104.264 957.764,-101.8644"/>
<polygon fill="none" stroke="#404040" points="957.8378,-101.6872 956.4545,-94.61 962.4553,-90.6112 963.8386,-97.6884 957.8378,-101.6872"/>
<text text-anchor="middle" x="971" y="-123" font-family="Helvetica,sans-Serif" font-size="10.00" fill="#000000"> #mID</text>
</g>
<!-- Node13 -->
<g id="node10" class="node">
<title>Node13</title>
<polygon fill="none" stroke="#bfbfbf" points="864,-837.5 864,-894.5 908,-894.5 908,-837.5 864,-837.5"/>
<text text-anchor="middle" x="886" y="-882.5" font-family="Helvetica,sans-Serif" font-size="10.00" fill="#000000">static</text>
<polyline fill="none" stroke="#bfbfbf" points="864,-875.5 908,-875.5 "/>
<text text-anchor="middle" x="886" y="-863.5" font-family="Helvetica,sans-Serif" font-size="10.00" fill="#000000"> </text>
<polyline fill="none" stroke="#bfbfbf" points="864,-856.5 908,-856.5 "/>
<text text-anchor="middle" x="886" y="-844.5" font-family="Helvetica,sans-Serif" font-size="10.00" fill="#000000"> </text>
</g>
<!-- Node13&#45;&gt;Node12 -->
<g id="edge9" class="edge">
<title>Node13&#45;&gt;Node12</title>
<path fill="none" stroke="#404040" d="M886,-837.1363C886,-776.7438 886,-632.9601 886,-515.9753"/>
<polygon fill="none" stroke="#404040" points="886.0001,-515.6609 882,-509.6609 886,-503.6609 890,-509.6609 886.0001,-515.6609"/>
<text text-anchor="middle" x="917" y="-657" font-family="Helvetica,sans-Serif" font-size="10.00" fill="#000000"> +ACO</text>
<text text-anchor="middle" x="917" y="-646" font-family="Helvetica,sans-Serif" font-size="10.00" fill="#000000">+NONE</text>
<text text-anchor="middle" x="917" y="-635" font-family="Helvetica,sans-Serif" font-size="10.00" fill="#000000">+First</text>
<text text-anchor="middle" x="917" y="-624" font-family="Helvetica,sans-Serif" font-size="10.00" fill="#000000">+MCH</text>
<text text-anchor="middle" x="917" y="-613" font-family="Helvetica,sans-Serif" font-size="10.00" fill="#000000">+FV0</text>
<text text-anchor="middle" x="917" y="-602" font-family="Helvetica,sans-Serif" font-size="10.00" fill="#000000">+FT0</text>
<text text-anchor="middle" x="917" y="-591" font-family="Helvetica,sans-Serif" font-size="10.00" fill="#000000">+FDD</text>
<text text-anchor="middle" x="917" y="-580" font-family="Helvetica,sans-Serif" font-size="10.00" fill="#000000">+TRD</text>
<text text-anchor="middle" x="917" y="-569" font-family="Helvetica,sans-Serif" font-size="10.00" fill="#000000">+nDetectors</text>
<text text-anchor="middle" x="917" y="-558" font-family="Helvetica,sans-Serif" font-size="10.00" fill="#000000">+TPC</text>
<text text-anchor="middle" x="917" y="-547" font-family="Helvetica,sans-Serif" font-size="10.00" fill="#000000">...</text>
</g>
<!-- Node14 -->
<g id="node11" class="node">
<title>Node14</title>
<polygon fill="none" stroke="#bfbfbf" points="961.5,-314.5 961.5,-371.5 1072.5,-371.5 1072.5,-314.5 961.5,-314.5"/>
<text text-anchor="middle" x="1017" y="-359.5" font-family="Helvetica,sans-Serif" font-size="10.00" fill="#000000">vector&lt; TChain * &gt;</text>
<polyline fill="none" stroke="#bfbfbf" points="961.5,-352.5 1072.5,-352.5 "/>
<text text-anchor="middle" x="1017" y="-340.5" font-family="Helvetica,sans-Serif" font-size="10.00" fill="#000000"> </text>
<polyline fill="none" stroke="#bfbfbf" points="961.5,-333.5 1072.5,-333.5 "/>
<text text-anchor="middle" x="1017" y="-321.5" font-family="Helvetica,sans-Serif" font-size="10.00" fill="#000000"> </text>
</g>
<!-- Node14&#45;&gt;Node4 -->
<g id="edge10" class="edge">
<title>Node14&#45;&gt;Node4</title>
<path fill="none" stroke="#404040" d="M1013.8358,-314.4744C1008.4442,-265.8679 997.3782,-166.1066 990.3434,-102.6869"/>
<polygon fill="none" stroke="#404040" points="990.3162,-102.4403 985.679,-96.9179 988.9931,-90.5134 993.6302,-96.0358 990.3162,-102.4403"/>
<text text-anchor="middle" x="1030.5" y="-123" font-family="Helvetica,sans-Serif" font-size="10.00" fill="#000000"> #mSimChains</text>
</g>
<!-- Node15 -->
<g id="node12" class="node">
<title>Node15</title>
<g id="a_node12"><a xlink:href="../../dc/daa/classo2_1_1dataformats_1_1MCTruthContainer.html" target="_top" xlink:title="{o2::dataformats::MCTruth\lContainer\&lt; o2::MCCompLabel \&gt;\n||+ MCTruthContainer()\l+ MCTruthContainer()\l+ MCTruthContainer()\l+ MCTruthContainer()\l+ ~MCTruthContainer()\l+ operator=()\l+ operator=()\l+ getMCTruthHeader()\l+ getElement()\l+ getIndexedSize()\l+ getNElements()\l+ getLabels()\l+ getLabels()\l+ clear()\l+ clear_andfreememory()\l+ addElement()\l+ addElements()\l+ addElements()\l+ addElementRandomAccess()\l+ setFrom()\l+ mergeAtBack()\l+ mergeAtBack()\l+ flatten_to()\l+ restore_from()\l+ print()\l+ inflate()\l+ deflate()\l+ ClassDefNV()\l}">
<polygon fill="none" stroke="#000000" points="1091,-160.5 1091,-525.5 1265,-525.5 1265,-160.5 1091,-160.5"/>
<text text-anchor="start" x="1099" y="-513.5" font-family="Helvetica,sans-Serif" font-size="10.00" fill="#000000">o2::dataformats::MCTruth</text>
<text text-anchor="middle" x="1178" y="-502.5" font-family="Helvetica,sans-Serif" font-size="10.00" fill="#000000">Container&lt; o2::MCCompLabel &gt;</text>
<polyline fill="none" stroke="#000000" points="1091,-495.5 1265,-495.5 "/>
<text text-anchor="middle" x="1178" y="-483.5" font-family="Helvetica,sans-Serif" font-size="10.00" fill="#000000"> </text>
<polyline fill="none" stroke="#000000" points="1091,-476.5 1265,-476.5 "/>
<text text-anchor="start" x="1099" y="-464.5" font-family="Helvetica,sans-Serif" font-size="10.00" fill="#000000">+ MCTruthContainer()</text>
<text text-anchor="start" x="1099" y="-453.5" font-family="Helvetica,sans-Serif" font-size="10.00" fill="#000000">+ MCTruthContainer()</text>
<text text-anchor="start" x="1099" y="-442.5" font-family="Helvetica,sans-Serif" font-size="10.00" fill="#000000">+ MCTruthContainer()</text>
<text text-anchor="start" x="1099" y="-431.5" font-family="Helvetica,sans-Serif" font-size="10.00" fill="#000000">+ MCTruthContainer()</text>
<text text-anchor="start" x="1099" y="-420.5" font-family="Helvetica,sans-Serif" font-size="10.00" fill="#000000">+ ~MCTruthContainer()</text>
<text text-anchor="start" x="1099" y="-409.5" font-family="Helvetica,sans-Serif" font-size="10.00" fill="#000000">+ operator=()</text>
<text text-anchor="start" x="1099" y="-398.5" font-family="Helvetica,sans-Serif" font-size="10.00" fill="#000000">+ operator=()</text>
<text text-anchor="start" x="1099" y="-387.5" font-family="Helvetica,sans-Serif" font-size="10.00" fill="#000000">+ getMCTruthHeader()</text>
<text text-anchor="start" x="1099" y="-376.5" font-family="Helvetica,sans-Serif" font-size="10.00" fill="#000000">+ getElement()</text>
<text text-anchor="start" x="1099" y="-365.5" font-family="Helvetica,sans-Serif" font-size="10.00" fill="#000000">+ getIndexedSize()</text>
<text text-anchor="start" x="1099" y="-354.5" font-family="Helvetica,sans-Serif" font-size="10.00" fill="#000000">+ getNElements()</text>
<text text-anchor="start" x="1099" y="-343.5" font-family="Helvetica,sans-Serif" font-size="10.00" fill="#000000">+ getLabels()</text>
<text text-anchor="start" x="1099" y="-332.5" font-family="Helvetica,sans-Serif" font-size="10.00" fill="#000000">+ getLabels()</text>
<text text-anchor="start" x="1099" y="-321.5" font-family="Helvetica,sans-Serif" font-size="10.00" fill="#000000">+ clear()</text>
<text text-anchor="start" x="1099" y="-310.5" font-family="Helvetica,sans-Serif" font-size="10.00" fill="#000000">+ clear_andfreememory()</text>
<text text-anchor="start" x="1099" y="-299.5" font-family="Helvetica,sans-Serif" font-size="10.00" fill="#000000">+ addElement()</text>
<text text-anchor="start" x="1099" y="-288.5" font-family="Helvetica,sans-Serif" font-size="10.00" fill="#000000">+ addElements()</text>
<text text-anchor="start" x="1099" y="-277.5" font-family="Helvetica,sans-Serif" font-size="10.00" fill="#000000">+ addElements()</text>
<text text-anchor="start" x="1099" y="-266.5" font-family="Helvetica,sans-Serif" font-size="10.00" fill="#000000">+ addElementRandomAccess()</text>
<text text-anchor="start" x="1099" y="-255.5" font-family="Helvetica,sans-Serif" font-size="10.00" fill="#000000">+ setFrom()</text>
<text text-anchor="start" x="1099" y="-244.5" font-family="Helvetica,sans-Serif" font-size="10.00" fill="#000000">+ mergeAtBack()</text>
<text text-anchor="start" x="1099" y="-233.5" font-family="Helvetica,sans-Serif" font-size="10.00" fill="#000000">+ mergeAtBack()</text>
<text text-anchor="start" x="1099" y="-222.5" font-family="Helvetica,sans-Serif" font-size="10.00" fill="#000000">+ flatten_to()</text>
<text text-anchor="start" x="1099" y="-211.5" font-family="Helvetica,sans-Serif" font-size="10.00" fill="#000000">+ restore_from()</text>
<text text-anchor="start" x="1099" y="-200.5" font-family="Helvetica,sans-Serif" font-size="10.00" fill="#000000">+ print()</text>
<text text-anchor="start" x="1099" y="-189.5" font-family="Helvetica,sans-Serif" font-size="10.00" fill="#000000">+ inflate()</text>
<text text-anchor="start" x="1099" y="-178.5" font-family="Helvetica,sans-Serif" font-size="10.00" fill="#000000">+ deflate()</text>
<text text-anchor="start" x="1099" y="-167.5" font-family="Helvetica,sans-Serif" font-size="10.00" fill="#000000">+ ClassDefNV()</text>
</a>
</g>
</g>
<!-- Node15&#45;&gt;Node4 -->
<g id="edge11" class="edge">
<title>Node15&#45;&gt;Node4</title>
<path fill="none" stroke="#404040" d="M1106.0086,-160.4859C1095.5167,-142.2859 1083.8527,-124.7455 1071,-109 1068.1732,-105.5369 1065.1156,-102.1669 1061.8951,-98.9027"/>
<polygon fill="none" stroke="#404040" points="1061.7515,-98.7668 1054.6442,-97.5477 1053.036,-90.5182 1060.1433,-91.7373 1061.7515,-98.7668"/>
<text text-anchor="middle" x="1132.5" y="-128.5" font-family="Helvetica,sans-Serif" font-size="10.00" fill="#000000"> #mLabels</text>
<text text-anchor="middle" x="1132.5" y="-117.5" font-family="Helvetica,sans-Serif" font-size="10.00" fill="#000000">#mLabelsAccum</text>
</g>
<!-- Node16 -->
<g id="node13" class="node">
<title>Node16</title>
<g id="a_node13"><a xlink:href="../../dc/daa/classo2_1_1dataformats_1_1MCTruthContainer.html" target="_top" xlink:title="A container to hold and manage MC truth information/labels. ">
<polygon fill="none" stroke="#000000" points="1094,-683.5 1094,-1048.5 1262,-1048.5 1262,-683.5 1094,-683.5"/>
<text text-anchor="start" x="1102" y="-1036.5" font-family="Helvetica,sans-Serif" font-size="10.00" fill="#000000">o2::dataformats::MCTruth</text>
<text text-anchor="middle" x="1178" y="-1025.5" font-family="Helvetica,sans-Serif" font-size="10.00" fill="#000000">Container&lt; TruthElement &gt;</text>
<polyline fill="none" stroke="#000000" points="1094,-1018.5 1262,-1018.5 "/>
<text text-anchor="middle" x="1178" y="-1006.5" font-family="Helvetica,sans-Serif" font-size="10.00" fill="#000000"> </text>
<polyline fill="none" stroke="#000000" points="1094,-999.5 1262,-999.5 "/>
<text text-anchor="start" x="1102" y="-987.5" font-family="Helvetica,sans-Serif" font-size="10.00" fill="#000000">+ MCTruthContainer()</text>
<text text-anchor="start" x="1102" y="-976.5" font-family="Helvetica,sans-Serif" font-size="10.00" fill="#000000">+ ~MCTruthContainer()</text>
<text text-anchor="start" x="1102" y="-965.5" font-family="Helvetica,sans-Serif" font-size="10.00" fill="#000000">+ MCTruthContainer()</text>
<text text-anchor="start" x="1102" y="-954.5" font-family="Helvetica,sans-Serif" font-size="10.00" fill="#000000">+ MCTruthContainer()</text>
<text text-anchor="start" x="1102" y="-943.5" font-family="Helvetica,sans-Serif" font-size="10.00" fill="#000000">+ MCTruthContainer()</text>
<text text-anchor="start" x="1102" y="-932.5" font-family="Helvetica,sans-Serif" font-size="10.00" fill="#000000">+ operator=()</text>
<text text-anchor="start" x="1102" y="-921.5" font-family="Helvetica,sans-Serif" font-size="10.00" fill="#000000">+ operator=()</text>
<text text-anchor="start" x="1102" y="-910.5" font-family="Helvetica,sans-Serif" font-size="10.00" fill="#000000">+ getMCTruthHeader()</text>
<text text-anchor="start" x="1102" y="-899.5" font-family="Helvetica,sans-Serif" font-size="10.00" fill="#000000">+ getElement()</text>
<text text-anchor="start" x="1102" y="-888.5" font-family="Helvetica,sans-Serif" font-size="10.00" fill="#000000">+ getIndexedSize()</text>
<text text-anchor="start" x="1102" y="-877.5" font-family="Helvetica,sans-Serif" font-size="10.00" fill="#000000">+ getNElements()</text>
<text text-anchor="start" x="1102" y="-866.5" font-family="Helvetica,sans-Serif" font-size="10.00" fill="#000000">+ getLabels()</text>
<text text-anchor="start" x="1102" y="-855.5" font-family="Helvetica,sans-Serif" font-size="10.00" fill="#000000">+ getLabels()</text>
<text text-anchor="start" x="1102" y="-844.5" font-family="Helvetica,sans-Serif" font-size="10.00" fill="#000000">+ clear()</text>
<text text-anchor="start" x="1102" y="-833.5" font-family="Helvetica,sans-Serif" font-size="10.00" fill="#000000">+ clear_andfreememory()</text>
<text text-anchor="start" x="1102" y="-822.5" font-family="Helvetica,sans-Serif" font-size="10.00" fill="#000000">+ addElement()</text>
<text text-anchor="start" x="1102" y="-811.5" font-family="Helvetica,sans-Serif" font-size="10.00" fill="#000000">+ addElements()</text>
<text text-anchor="start" x="1102" y="-800.5" font-family="Helvetica,sans-Serif" font-size="10.00" fill="#000000">+ addElements()</text>
<text text-anchor="start" x="1102" y="-789.5" font-family="Helvetica,sans-Serif" font-size="10.00" fill="#000000">+ addElementRandomAccess()</text>
<text text-anchor="start" x="1102" y="-778.5" font-family="Helvetica,sans-Serif" font-size="10.00" fill="#000000">+ setFrom()</text>
<text text-anchor="start" x="1102" y="-767.5" font-family="Helvetica,sans-Serif" font-size="10.00" fill="#000000">+ mergeAtBack()</text>
<text text-anchor="start" x="1102" y="-756.5" font-family="Helvetica,sans-Serif" font-size="10.00" fill="#000000">+ mergeAtBack()</text>
<text text-anchor="start" x="1102" y="-745.5" font-family="Helvetica,sans-Serif" font-size="10.00" fill="#000000">+ flatten_to()</text>
<text text-anchor="start" x="1102" y="-734.5" font-family="Helvetica,sans-Serif" font-size="10.00" fill="#000000">+ restore_from()</text>
<text text-anchor="start" x="1102" y="-723.5" font-family="Helvetica,sans-Serif" font-size="10.00" fill="#000000">+ print()</text>
<text text-anchor="start" x="1102" y="-712.5" font-family="Helvetica,sans-Serif" font-size="10.00" fill="#000000">+ inflate()</text>
<text text-anchor="start" x="1102" y="-701.5" font-family="Helvetica,sans-Serif" font-size="10.00" fill="#000000">+ deflate()</text>
<text text-anchor="start" x="1102" y="-690.5" font-family="Helvetica,sans-Serif" font-size="10.00" fill="#000000">+ ClassDefNV()</text>
</a>
</g>
</g>
<!-- Node16&#45;&gt;Node15 -->
<g id="edge12" class="edge">
<title>Node16&#45;&gt;Node15</title>
<path fill="none" stroke="#ffa500" d="M1178,-673.2054C1178,-624.9587 1178,-573.3536 1178,-525.6177"/>
<polygon fill="#ffa500" stroke="#ffa500" points="1174.5001,-673.4471 1178,-683.4472 1181.5001,-673.4472 1174.5001,-673.4471"/>
<text text-anchor="middle" x="1235" y="-602" font-family="Helvetica,sans-Serif" font-size="10.00" fill="#000000"> &lt; o2::MCCompLabel &gt;</text>
</g>
<!-- Node17 -->
<g id="node14" class="node">
<title>Node17</title>
<polygon fill="none" stroke="#bfbfbf" points="1283.5,-314.5 1283.5,-371.5 1312.5,-371.5 1312.5,-314.5 1283.5,-314.5"/>
<text text-anchor="middle" x="1298" y="-359.5" font-family="Helvetica,sans-Serif" font-size="10.00" fill="#000000">int</text>
<polyline fill="none" stroke="#bfbfbf" points="1283.5,-352.5 1312.5,-352.5 "/>
<text text-anchor="middle" x="1298" y="-340.5" font-family="Helvetica,sans-Serif" font-size="10.00" fill="#000000"> </text>
<polyline fill="none" stroke="#bfbfbf" points="1283.5,-333.5 1312.5,-333.5 "/>
<text text-anchor="middle" x="1298" y="-321.5" font-family="Helvetica,sans-Serif" font-size="10.00" fill="#000000"> </text>
</g>
<!-- Node17&#45;&gt;Node4 -->
<g id="edge13" class="edge">
<title>Node17&#45;&gt;Node4</title>
<path fill="none" stroke="#404040" d="M1301.8196,-314.461C1305.4282,-275.8511 1306.2334,-206.471 1274,-160 1232.3235,-99.9147 1153.8763,-71.3589 1089.0721,-57.7882"/>
<polygon fill="none" stroke="#404040" points="1088.9136,-57.7568 1082.2505,-60.5143 1077.1424,-55.4244 1083.8055,-52.6669 1088.9136,-57.7568"/>
<text text-anchor="middle" x="1296" y="-123" font-family="Helvetica,sans-Serif" font-size="10.00" fill="#000000"> #mFixMC2ROF</text>
</g>
<!-- Node18 -->
<g id="node15" class="node">
<title>Node18</title>
<polygon fill="none" stroke="#bfbfbf" points="1331,-309 1331,-377 1437,-377 1437,-309 1331,-309"/>
<text text-anchor="start" x="1339" y="-365" font-family="Helvetica,sans-Serif" font-size="10.00" fill="#000000">vector&lt; o2::itsmft</text>
<text text-anchor="middle" x="1384" y="-354" font-family="Helvetica,sans-Serif" font-size="10.00" fill="#000000">::Hit &gt; *</text>
<polyline fill="none" stroke="#bfbfbf" points="1331,-347 1437,-347 "/>
<text text-anchor="middle" x="1384" y="-335" font-family="Helvetica,sans-Serif" font-size="10.00" fill="#000000"> </text>
<polyline fill="none" stroke="#bfbfbf" points="1331,-328 1437,-328 "/>
<text text-anchor="middle" x="1384" y="-316" font-family="Helvetica,sans-Serif" font-size="10.00" fill="#000000"> </text>
</g>
<!-- Node18&#45;&gt;Node4 -->
<g id="edge14" class="edge">
<title>Node18&#45;&gt;Node4</title>
<path fill="none" stroke="#404040" d="M1388.1581,-308.8915C1392.3086,-257.818 1391.7231,-161.8378 1338,-109 1303.4378,-75.0073 1180.5632,-58.8893 1089.2249,-51.4682"/>
<polygon fill="none" stroke="#404040" points="1089.0871,-51.4575 1082.793,-54.9767 1077.1237,-50.5204 1083.4178,-47.0011 1089.0871,-51.4575"/>
<text text-anchor="middle" x="1383.5" y="-123" font-family="Helvetica,sans-Serif" font-size="10.00" fill="#000000"> #mHitsP</text>
</g>
<!-- Node19 -->
<g id="node16" class="node">
<title>Node19</title>
<polygon fill="none" stroke="#bfbfbf" points="1455.5,-309 1455.5,-377 1562.5,-377 1562.5,-309 1455.5,-309"/>
<text text-anchor="start" x="1463.5" y="-365" font-family="Helvetica,sans-Serif" font-size="10.00" fill="#000000">vector&lt; o2::itsmft</text>
<text text-anchor="middle" x="1509" y="-354" font-family="Helvetica,sans-Serif" font-size="10.00" fill="#000000">::MC2ROFRecord &gt;</text>
<polyline fill="none" stroke="#bfbfbf" points="1455.5,-347 1562.5,-347 "/>
<text text-anchor="middle" x="1509" y="-335" font-family="Helvetica,sans-Serif" font-size="10.00" fill="#000000"> </text>
<polyline fill="none" stroke="#bfbfbf" points="1455.5,-328 1562.5,-328 "/>
<text text-anchor="middle" x="1509" y="-316" font-family="Helvetica,sans-Serif" font-size="10.00" fill="#000000"> </text>
</g>
<!-- Node19&#45;&gt;Node4 -->
<g id="edge15" class="edge">
<title>Node19&#45;&gt;Node4</title>
<path fill="none" stroke="#404040" d="M1506.5126,-308.9499C1500.5081,-255.1521 1480.1008,-152.1771 1411,-109 1358.8499,-76.4144 1198.1059,-59.5124 1089.4155,-51.5766"/>
<polygon fill="none" stroke="#404040" points="1089.3895,-51.5748 1083.1203,-55.1381 1077.4199,-50.7216 1083.6891,-47.1583 1089.3895,-51.5748"/>
<text text-anchor="middle" x="1511.5" y="-123" font-family="Helvetica,sans-Serif" font-size="10.00" fill="#000000"> #mMC2ROFRecordsAccum</text>
</g>
<!-- Node20 -->
<g id="node17" class="node">
<title>Node20</title>
<polygon fill="none" stroke="#bfbfbf" points="1591,-314.5 1591,-371.5 1629,-371.5 1629,-314.5 1591,-314.5"/>
<text text-anchor="middle" x="1610" y="-359.5" font-family="Helvetica,sans-Serif" font-size="10.00" fill="#000000">bool</text>
<polyline fill="none" stroke="#bfbfbf" points="1591,-352.5 1629,-352.5 "/>
<text text-anchor="middle" x="1610" y="-340.5" font-family="Helvetica,sans-Serif" font-size="10.00" fill="#000000"> </text>
<polyline fill="none" stroke="#bfbfbf" points="1591,-333.5 1629,-333.5 "/>
<text text-anchor="middle" x="1610" y="-321.5" font-family="Helvetica,sans-Serif" font-size="10.00" fill="#000000"> </text>
</g>
<!-- Node20&#45;&gt;Node4 -->
<g id="edge16" class="edge">
<title>Node20&#45;&gt;Node4</title>
<path fill="none" stroke="#404040" d="M1616.5608,-314.4663C1626.0729,-264.9744 1637.0423,-163.315 1582,-109 1547.7105,-75.1636 1252.0305,-57.1103 1089.6893,-49.6697"/>
<polygon fill="none" stroke="#404040" points="1089.2676,-49.6508 1083.0934,-53.3762 1077.2798,-49.1097 1083.4541,-45.3843 1089.2676,-49.6508"/>
<text text-anchor="middle" x="1644.5" y="-134" font-family="Helvetica,sans-Serif" font-size="10.00" fill="#000000"> #mWithMCTruth</text>
<text text-anchor="middle" x="1644.5" y="-123" font-family="Helvetica,sans-Serif" font-size="10.00" fill="#000000">#mFinished</text>
<text text-anchor="middle" x="1644.5" y="-112" font-family="Helvetica,sans-Serif" font-size="10.00" fill="#000000">#mDisableQED</text>
</g>
<!-- Node21 -->
<g id="node18" class="node">
<title>Node21</title>
<polygon fill="none" stroke="#bfbfbf" points="1663,-309 1663,-377 1769,-377 1769,-309 1663,-309"/>
<text text-anchor="start" x="1671" y="-365" font-family="Helvetica,sans-Serif" font-size="10.00" fill="#000000">vector&lt; o2::itsmft</text>
<text text-anchor="middle" x="1716" y="-354" font-family="Helvetica,sans-Serif" font-size="10.00" fill="#000000">::Hit &gt;</text>
<polyline fill="none" stroke="#bfbfbf" points="1663,-347 1769,-347 "/>
<text text-anchor="middle" x="1716" y="-335" font-family="Helvetica,sans-Serif" font-size="10.00" fill="#000000"> </text>
<polyline fill="none" stroke="#bfbfbf" points="1663,-328 1769,-328 "/>
<text text-anchor="middle" x="1716" y="-316" font-family="Helvetica,sans-Serif" font-size="10.00" fill="#000000"> </text>
</g>
<!-- Node21&#45;&gt;Node4 -->
<g id="edge17" class="edge">
<title>Node21&#45;&gt;Node4</title>
<path fill="none" stroke="#404040" d="M1724.0621,-308.6939C1733.8696,-257.3622 1743.1517,-161.0494 1690,-109 1648.003,-67.8739 1275.4653,-52.7653 1089.1495,-47.7463"/>
<polygon fill="none" stroke="#404040" points="1089.1479,-47.7464 1083.0445,-51.5869 1077.152,-47.4302 1083.2554,-43.5897 1089.1479,-47.7464"/>
<text text-anchor="middle" x="1731.5" y="-123" font-family="Helvetica,sans-Serif" font-size="10.00" fill="#000000"> #mHits</text>
</g>
</g>
</svg>
