<?xml version="1.0" encoding="UTF-8" standalone="no"?>
<!DOCTYPE svg PUBLIC "-//W3C//DTD SVG 1.1//EN"
 "http://www.w3.org/Graphics/SVG/1.1/DTD/svg11.dtd">
<!-- Generated by graphviz version 2.40.1 (20161225.0304)
 -->
<!-- Title: /home/travis/build/AliceO2Group/AliceO2/Detectors/ITSMFT/MFT/base/src/HalfDetector.cxx Pages: 1 -->
<!--zoomable 374 -->
<svg id="main" version="1.1" xmlns="http://www.w3.org/2000/svg" xmlns:xlink="http://www.w3.org/1999/xlink" xml:space="preserve" onload="init(evt)">
<style type="text/css"><![CDATA[
.edge:hover path { stroke: red; }
.edge:hover polygon { stroke: red; fill: red; }
]]></style>
<script type="text/javascript"><![CDATA[
var edges = document.getElementsByTagName('g');
if (edges && edges.length) {
  for (var i=0;i<edges.length;i++) {
    if (edges[i].id.substr(0,4)=='edge') {
      edges[i].setAttribute('class','edge');
    }
  }
}
]]></script>
        <defs>
                <circle id="rim" cx="0" cy="0" r="7"/>
                <circle id="rim2" cx="0" cy="0" r="3.5"/>
                <g id="zoomPlus">
                        <use xlink:href="#rim" fill="#404040">
                                <set attributeName="fill" to="#808080" begin="zoomplus.mouseover" end="zoomplus.mouseout"/>
                        </use>
                        <path d="M-4,0h8M0,-4v8" fill="none" stroke="white" stroke-width="1.5" pointer-events="none"/>
                </g>
                <g id="zoomMin">
                        <use xlink:href="#rim" fill="#404040">
                                <set attributeName="fill" to="#808080" begin="zoomminus.mouseover" end="zoomminus.mouseout"/>
                        </use>
                        <path d="M-4,0h8" fill="none" stroke="white" stroke-width="1.5" pointer-events="none"/>
                </g>
                <g id="dirArrow">
                        <path fill="none" stroke="white" stroke-width="1.5" d="M0,-3.0v7 M-2.5,-0.5L0,-3.0L2.5,-0.5"/>
                </g>
               <g id="resetDef">
                       <use xlink:href="#rim2" fill="#404040">
                               <set attributeName="fill" to="#808080" begin="reset.mouseover" end="reset.mouseout"/>
                       </use>
               </g>
        </defs>

<script type="text/javascript">
var viewWidth = 1554;
var viewHeight = 374;
var sectionId = 'dynsection-0';
</script>
<script xlink:href="../../svgpan.js"/>
<svg id="graph" class="graph">
<g id="viewport">
<title>/home/travis/build/AliceO2Group/AliceO2/Detectors/ITSMFT/MFT/base/src/HalfDetector.cxx</title>
<!-- Node0 -->
<g id="node1" class="node">
<title>Node0</title>
<polygon fill="#bfbfbf" stroke="#000000" points="538.5,-313.5 538.5,-365.5 683.5,-365.5 683.5,-313.5 538.5,-313.5"/>
<text text-anchor="start" x="546.5" y="-353.5" font-family="Helvetica,sans-Serif" font-size="10.00" fill="#000000">/home/travis/build</text>
<text text-anchor="start" x="546.5" y="-342.5" font-family="Helvetica,sans-Serif" font-size="10.00" fill="#000000">/AliceO2Group/AliceO2</text>
<text text-anchor="start" x="546.5" y="-331.5" font-family="Helvetica,sans-Serif" font-size="10.00" fill="#000000">/Detectors/ITSMFT/MFT</text>
<text text-anchor="middle" x="611" y="-320.5" font-family="Helvetica,sans-Serif" font-size="10.00" fill="#000000">/base/src/HalfDetector.cxx</text>
</g>
<!-- Node1 -->
<g id="node2" class="node">
<title>Node1</title>
<polygon fill="none" stroke="#bfbfbf" points="33,-.5 33,-19.5 115,-19.5 115,-.5 33,-.5"/>
<text text-anchor="middle" x="74" y="-7.5" font-family="Helvetica,sans-Serif" font-size="10.00" fill="#000000">TGeoMatrix.h</text>
</g>
<!-- Node0&#45;&gt;Node1 -->
<g id="edge1" class="edge">
<title>Node0&#45;&gt;Node1</title>
<path fill="none" stroke="#191970" d="M538.2087,-331.1222C376.195,-311.4911 0,-260.0363 0,-205.5 0,-205.5 0,-205.5 0,-138.5 0,-93.3639 34.71,-49.7795 56.586,-26.7927"/>
<polygon fill="#191970" stroke="#191970" points="59.1915,-29.1349 63.7106,-19.5522 54.202,-24.2252 59.1915,-29.1349"/>
</g>
<!-- Node2 -->
<g id="node3" class="node">
<title>Node2</title>
<polygon fill="none" stroke="#bfbfbf" points="885.5,-257.5 885.5,-276.5 960.5,-276.5 960.5,-257.5 885.5,-257.5"/>
<text text-anchor="middle" x="923" y="-264.5" font-family="Helvetica,sans-Serif" font-size="10.00" fill="#000000">FairLogger.h</text>
</g>
<!-- Node0&#45;&gt;Node2 -->
<g id="edge2" class="edge">
<title>Node0&#45;&gt;Node2</title>
<path fill="none" stroke="#191970" d="M683.7564,-322.5935C742.8404,-308.864 824.4547,-289.8992 875.4547,-278.0482"/>
<polygon fill="#191970" stroke="#191970" points="876.2826,-281.4492 885.2308,-275.7765 874.6981,-274.6308 876.2826,-281.4492"/>
</g>
<!-- Node3 -->
<g id="node4" class="node">
<title>Node3</title>
<g id="a_node4"><a xlink:href="../../dc/d53/HalfDiskSegmentation_8h.html" target="_top" xlink:title="Class for the description of the structure of a half&#45;disk. ">
<polygon fill="none" stroke="#000000" points="213,-257.5 213,-276.5 395,-276.5 395,-257.5 213,-257.5"/>
<text text-anchor="middle" x="304" y="-264.5" font-family="Helvetica,sans-Serif" font-size="10.00" fill="#000000">MFTBase/HalfDiskSegmentation.h</text>
</a>
</g>
</g>
<!-- Node0&#45;&gt;Node3 -->
<g id="edge3" class="edge">
<title>Node0&#45;&gt;Node3</title>
<path fill="none" stroke="#191970" d="M538.2453,-322.3185C481.5129,-308.9208 404.209,-290.665 354.1996,-278.855"/>
<polygon fill="#191970" stroke="#191970" points="354.8047,-275.4016 344.268,-276.5095 353.1958,-282.2143 354.8047,-275.4016"/>
</g>
<!-- Node10 -->
<g id="node11" class="node">
<title>Node10</title>
<g id="a_node11"><a xlink:href="../../d2/d77/HalfSegmentation_8h.html" target="_top" xlink:title="Segmentation class for each half of the ALICE Muon Forward Tracker. ">
<polygon fill="none" stroke="#000000" points="389.5,-196 389.5,-215 550.5,-215 550.5,-196 389.5,-196"/>
<text text-anchor="middle" x="470" y="-203" font-family="Helvetica,sans-Serif" font-size="10.00" fill="#000000">MFTBase/HalfSegmentation.h</text>
</a>
</g>
</g>
<!-- Node0&#45;&gt;Node10 -->
<g id="edge14" class="edge">
<title>Node0&#45;&gt;Node10</title>
<path fill="none" stroke="#191970" d="M583.4791,-313.3453C555.1094,-286.3841 511.7249,-245.1535 487.6481,-222.2719"/>
<polygon fill="#191970" stroke="#191970" points="489.9325,-219.6145 480.2726,-215.2626 485.1103,-224.6886 489.9325,-219.6145"/>
</g>
<!-- Node12 -->
<g id="node13" class="node">
<title>Node12</title>
<g id="a_node13"><a xlink:href="../../d7/d73/HalfDisk_8h.html" target="_top" xlink:title="Class building geometry of one half of an MFT disk. ">
<polygon fill="none" stroke="#000000" points="569,-196 569,-215 683,-215 683,-196 569,-196"/>
<text text-anchor="middle" x="626" y="-203" font-family="Helvetica,sans-Serif" font-size="10.00" fill="#000000">MFTBase/HalfDisk.h</text>
</a>
</g>
</g>
<!-- Node0&#45;&gt;Node12 -->
<g id="edge21" class="edge">
<title>Node0&#45;&gt;Node12</title>
<path fill="none" stroke="#191970" d="M594.5775,-313.3367C586.4419,-297.0383 579.595,-275.6881 586,-257 590.4287,-244.0783 599.5682,-231.8969 607.9943,-222.6284"/>
<polygon fill="#191970" stroke="#191970" points="610.6528,-224.9138 615.079,-215.2878 605.616,-220.0526 610.6528,-224.9138"/>
</g>
<!-- Node13 -->
<g id="node14" class="node">
<title>Node13</title>
<g id="a_node14"><a xlink:href="../../d6/d2e/ITSMFT_2MFT_2base_2include_2MFTBase_2Geometry_8h.html" target="_top" xlink:title="MFTBase/Geometry.h">
<polygon fill="none" stroke="#000000" points="595.5,-257.5 595.5,-276.5 714.5,-276.5 714.5,-257.5 595.5,-257.5"/>
<text text-anchor="middle" x="655" y="-264.5" font-family="Helvetica,sans-Serif" font-size="10.00" fill="#000000">MFTBase/Geometry.h</text>
</a>
</g>
</g>
<!-- Node0&#45;&gt;Node13 -->
<g id="edge23" class="edge">
<title>Node0&#45;&gt;Node13</title>
<path fill="none" stroke="#191970" d="M626.885,-313.3258C632.5366,-304.0135 638.7731,-293.7375 643.9334,-285.2347"/>
<polygon fill="#191970" stroke="#191970" points="647.0176,-286.8987 649.2138,-276.534 641.0335,-283.2669 647.0176,-286.8987"/>
</g>
<!-- Node14 -->
<g id="node15" class="node">
<title>Node14</title>
<g id="a_node15"><a xlink:href="../../d3/d4f/HalfDetector_8h.html" target="_top" xlink:title="Class describing geometry of one half of the ALICE Muon Forward Tracker. ">
<polygon fill="none" stroke="#000000" points="733,-257.5 733,-276.5 867,-276.5 867,-257.5 733,-257.5"/>
<text text-anchor="middle" x="800" y="-264.5" font-family="Helvetica,sans-Serif" font-size="10.00" fill="#000000">MFTBase/HalfDetector.h</text>
</a>
</g>
</g>
<!-- Node0&#45;&gt;Node14 -->
<g id="edge25" class="edge">
<title>Node0&#45;&gt;Node14</title>
<path fill="none" stroke="#191970" d="M678.9663,-313.4283C708.3587,-302.1534 741.4777,-289.449 765.6315,-280.1837"/>
<polygon fill="#191970" stroke="#191970" points="766.9883,-283.412 775.0713,-276.5626 764.4811,-276.8763 766.9883,-283.412"/>
</g>
<!-- Node16 -->
<g id="node17" class="node">
<title>Node16</title>
<g id="a_node17"><a xlink:href="../../d1/d04/MFTBaseParam_8h.html" target="_top" xlink:title="MFTBase/MFTBaseParam.h">
<polygon fill="none" stroke="#000000" points="997,-257.5 997,-276.5 1143,-276.5 1143,-257.5 997,-257.5"/>
<text text-anchor="middle" x="1070" y="-264.5" font-family="Helvetica,sans-Serif" font-size="10.00" fill="#000000">MFTBase/MFTBaseParam.h</text>
</a>
</g>
</g>
<!-- Node0&#45;&gt;Node16 -->
<g id="edge28" class="edge">
<title>Node0&#45;&gt;Node16</title>
<path fill="none" stroke="#191970" d="M683.7299,-328.0122C770.4153,-314.32 914.2598,-291.5995 999.8101,-278.0866"/>
<polygon fill="#191970" stroke="#191970" points="1000.3592,-281.5434 1009.6906,-276.526 999.267,-274.6291 1000.3592,-281.5434"/>
</g>
<!-- Node4 -->
<g id="node5" class="node">
<title>Node4</title>
<polygon fill="none" stroke="#bfbfbf" points="322.5,-129 322.5,-148 407.5,-148 407.5,-129 322.5,-129"/>
<text text-anchor="middle" x="365" y="-136" font-family="Helvetica,sans-Serif" font-size="10.00" fill="#000000">TXMLEngine.h</text>
</g>
<!-- Node3&#45;&gt;Node4 -->
<g id="edge4" class="edge">
<title>Node3&#45;&gt;Node4</title>
<path fill="none" stroke="#191970" d="M313.7944,-257.2336C322.1084,-248.4425 333.8029,-234.8162 341,-221 351.5148,-200.8149 358.0212,-175.3846 361.5621,-158.1318"/>
<polygon fill="#191970" stroke="#191970" points="365.0376,-158.5911 363.4732,-148.1124 358.1615,-157.2796 365.0376,-158.5911"/>
</g>
<!-- Node5 -->
<g id="node6" class="node">
<title>Node5</title>
<g id="a_node6"><a xlink:href="../../d9/de7/LadderSegmentation_8h.html" target="_top" xlink:title="Description of the virtual segmentation of a ladder. ">
<polygon fill="none" stroke="#000000" points="159.5,-196 159.5,-215 332.5,-215 332.5,-196 159.5,-196"/>
<text text-anchor="middle" x="246" y="-203" font-family="Helvetica,sans-Serif" font-size="10.00" fill="#000000">MFTBase/LadderSegmentation.h</text>
</a>
</g>
</g>
<!-- Node3&#45;&gt;Node5 -->
<g id="edge5" class="edge">
<title>Node3&#45;&gt;Node5</title>
<path fill="none" stroke="#191970" d="M294.9375,-257.3906C286.2207,-248.1478 272.846,-233.966 262.2804,-222.7628"/>
<polygon fill="#191970" stroke="#191970" points="264.5976,-220.1186 255.1903,-215.2449 259.505,-224.9213 264.5976,-220.1186"/>
</g>
<!-- Node7 -->
<g id="node8" class="node">
<title>Node7</title>
<g id="a_node8"><a xlink:href="../../d3/de7/VSegmentation_8h.html" target="_top" xlink:title="Abstract base class for MFT Segmentation description. ">
<polygon fill="none" stroke="#000000" points="128.5,-62 128.5,-81 275.5,-81 275.5,-62 128.5,-62"/>
<text text-anchor="middle" x="202" y="-69" font-family="Helvetica,sans-Serif" font-size="10.00" fill="#000000">MFTBase/VSegmentation.h</text>
</a>
</g>
</g>
<!-- Node3&#45;&gt;Node7 -->
<g id="edge13" class="edge">
<title>Node3&#45;&gt;Node7</title>
<path fill="none" stroke="#191970" d="M229.5085,-257.4907C169.2926,-245.2135 89.4004,-217.2753 57,-154 50.7204,-141.7365 49.0535,-134.2552 57,-123 68.0205,-107.3909 112.0007,-93.1455 148.6642,-83.6136"/>
<polygon fill="#191970" stroke="#191970" points="149.9428,-86.9004 158.7777,-81.0529 148.2246,-80.1146 149.9428,-86.9004"/>
</g>
<!-- Node5&#45;&gt;Node4 -->
<g id="edge7" class="edge">
<title>Node5&#45;&gt;Node4</title>
<path fill="none" stroke="#191970" d="M263.0498,-195.9005C282.9323,-184.7062 316.0105,-166.0823 339.078,-153.0947"/>
<polygon fill="#191970" stroke="#191970" points="340.9852,-156.0376 347.9818,-148.0817 337.5509,-149.938 340.9852,-156.0376"/>
</g>
<!-- Node6 -->
<g id="node7" class="node">
<title>Node6</title>
<polygon fill="none" stroke="#bfbfbf" points="382.5,-62 382.5,-81 471.5,-81 471.5,-62 382.5,-62"/>
<text text-anchor="middle" x="427" y="-69" font-family="Helvetica,sans-Serif" font-size="10.00" fill="#000000">TClonesArray.h</text>
</g>
<!-- Node5&#45;&gt;Node6 -->
<g id="edge6" class="edge">
<title>Node5&#45;&gt;Node6</title>
<path fill="none" stroke="#191970" d="M251.6892,-195.8788C262.0217,-179.1087 285.3763,-144.2848 313,-123 334.9769,-106.0662 363.4086,-93.2084 386.3801,-84.5754"/>
<polygon fill="#191970" stroke="#191970" points="387.6511,-87.8376 395.856,-81.1347 385.2619,-81.2579 387.6511,-87.8376"/>
</g>
<!-- Node5&#45;&gt;Node7 -->
<g id="edge8" class="edge">
<title>Node5&#45;&gt;Node7</title>
<path fill="none" stroke="#191970" d="M246.4323,-195.7544C246.8085,-179.9586 246.2095,-148.013 237,-123 232.4817,-110.7282 224.4184,-98.5548 217.1692,-89.1268"/>
<polygon fill="#191970" stroke="#191970" points="219.8698,-86.9001 210.8658,-81.3163 214.4225,-91.2964 219.8698,-86.9001"/>
</g>
<!-- Node9 -->
<g id="node10" class="node">
<title>Node9</title>
<g id="a_node10"><a xlink:href="../../d3/dbd/ChipSegmentation_8h.html" target="_top" xlink:title="Chip (sensor) segmentation description. ">
<polygon fill="none" stroke="#000000" points="66,-129 66,-148 228,-148 228,-129 66,-129"/>
<text text-anchor="middle" x="147" y="-136" font-family="Helvetica,sans-Serif" font-size="10.00" fill="#000000">MFTBase/ChipSegmentation.h</text>
</a>
</g>
</g>
<!-- Node5&#45;&gt;Node9 -->
<g id="edge11" class="edge">
<title>Node5&#45;&gt;Node9</title>
<path fill="none" stroke="#191970" d="M231.8157,-195.9005C215.5689,-184.9052 188.7309,-166.7422 169.5966,-153.7927"/>
<polygon fill="#191970" stroke="#191970" points="171.4014,-150.7879 161.158,-148.0817 167.478,-156.5851 171.4014,-150.7879"/>
</g>
<!-- Node7&#45;&gt;Node1 -->
<g id="edge10" class="edge">
<title>Node7&#45;&gt;Node1</title>
<path fill="none" stroke="#191970" d="M182,-61.8906C160.7711,-51.6908 127.0238,-35.4763 102.904,-23.8875"/>
<polygon fill="#191970" stroke="#191970" points="104.3889,-20.7179 93.8596,-19.5419 101.3574,-27.0275 104.3889,-20.7179"/>
</g>
<!-- Node8 -->
<g id="node9" class="node">
<title>Node8</title>
<polygon fill="none" stroke="#bfbfbf" points="617.5,-.5 617.5,-19.5 684.5,-19.5 684.5,-.5 617.5,-.5"/>
<text text-anchor="middle" x="651" y="-7.5" font-family="Helvetica,sans-Serif" font-size="10.00" fill="#000000">TNamed.h</text>
</g>
<!-- Node7&#45;&gt;Node8 -->
<g id="edge9" class="edge">
<title>Node7&#45;&gt;Node8</title>
<path fill="none" stroke="#191970" d="M271.6636,-61.9581C365.3686,-49.1232 529.2431,-26.6772 607.2834,-15.9879"/>
<polygon fill="#191970" stroke="#191970" points="607.8292,-19.4459 617.2617,-14.6212 606.8792,-12.5107 607.8292,-19.4459"/>
</g>
<!-- Node9&#45;&gt;Node7 -->
<g id="edge12" class="edge">
<title>Node9&#45;&gt;Node7</title>
<path fill="none" stroke="#191970" d="M154.8802,-128.9005C163.3752,-118.552 177.0824,-101.8542 187.528,-89.1295"/>
<polygon fill="#191970" stroke="#191970" points="190.4947,-91.0317 194.1345,-81.0817 185.0842,-86.5902 190.4947,-91.0317"/>
</g>
<!-- Node10&#45;&gt;Node4 -->
<g id="edge16" class="edge">
<title>Node10&#45;&gt;Node4</title>
<path fill="none" stroke="#191970" d="M454.9561,-195.9005C437.6466,-184.8554 409.0023,-166.5776 388.6911,-153.6172"/>
<polygon fill="#191970" stroke="#191970" points="390.3288,-150.5103 380.016,-148.0817 386.5633,-156.4113 390.3288,-150.5103"/>
</g>
<!-- Node10&#45;&gt;Node7 -->
<g id="edge20" class="edge">
<title>Node10&#45;&gt;Node7</title>
<path fill="none" stroke="#191970" d="M466.4936,-195.8867C459.6331,-178.4859 442.7297,-141.8294 416,-123 393.0712,-106.8481 326.0772,-92.2867 273.0904,-82.8023"/>
<polygon fill="#191970" stroke="#191970" points="273.491,-79.3191 263.0356,-81.0328 272.2776,-86.2132 273.491,-79.3191"/>
</g>
<!-- Node10&#45;&gt;Node8 -->
<g id="edge15" class="edge">
<title>Node10&#45;&gt;Node8</title>
<path fill="none" stroke="#191970" d="M534.7935,-195.9225C562.3701,-188.7103 592.7708,-176.0853 613,-154 644.9006,-119.1724 650.6239,-60.7317 651.285,-30.1069"/>
<polygon fill="#191970" stroke="#191970" points="654.7862,-29.8557 651.3346,-19.8388 647.7863,-29.8218 654.7862,-29.8557"/>
</g>
<!-- Node11 -->
<g id="node12" class="node">
<title>Node11</title>
<g id="a_node12"><a xlink:href="../../dd/d83/ITSMFT_2MFT_2base_2include_2MFTBase_2Segmentation_8h.html" target="_top" xlink:title="MFTBase/Segmentation.h">
<polygon fill="none" stroke="#000000" points="464,-129 464,-148 604,-148 604,-129 464,-129"/>
<text text-anchor="middle" x="534" y="-136" font-family="Helvetica,sans-Serif" font-size="10.00" fill="#000000">MFTBase/Segmentation.h</text>
</a>
</g>
</g>
<!-- Node10&#45;&gt;Node11 -->
<g id="edge17" class="edge">
<title>Node10&#45;&gt;Node11</title>
<path fill="none" stroke="#191970" d="M479.1696,-195.9005C489.2449,-185.353 505.6207,-168.2096 517.8569,-155.3998"/>
<polygon fill="#191970" stroke="#191970" points="520.4709,-157.7304 524.8474,-148.0817 515.4091,-152.8952 520.4709,-157.7304"/>
</g>
<!-- Node11&#45;&gt;Node6 -->
<g id="edge19" class="edge">
<title>Node11&#45;&gt;Node6</title>
<path fill="none" stroke="#191970" d="M518.6695,-128.9005C500.9509,-117.8057 471.5772,-99.4128 450.8632,-86.4424"/>
<polygon fill="#191970" stroke="#191970" points="452.6351,-83.4224 442.3021,-81.0817 448.9201,-89.3553 452.6351,-83.4224"/>
</g>
<!-- Node11&#45;&gt;Node8 -->
<g id="edge18" class="edge">
<title>Node11&#45;&gt;Node8</title>
<path fill="none" stroke="#191970" d="M542.794,-128.8416C562.444,-107.2602 610.1451,-54.8706 635.1341,-27.4254"/>
<polygon fill="#191970" stroke="#191970" points="637.9594,-29.521 642.1039,-19.7705 632.7835,-24.8083 637.9594,-29.521"/>
</g>
<!-- Node12&#45;&gt;Node8 -->
<g id="edge22" class="edge">
<title>Node12&#45;&gt;Node8</title>
<path fill="none" stroke="#191970" d="M630.8449,-195.9249C635.6953,-185.8009 642.874,-169.2206 646,-154 654.9791,-110.2812 653.871,-57.5561 652.3747,-29.6142"/>
<polygon fill="#191970" stroke="#191970" points="655.864,-29.332 651.7595,-19.5646 648.8771,-29.7598 655.864,-29.332"/>
</g>
<!-- Node13&#45;&gt;Node8 -->
<g id="edge24" class="edge">
<title>Node13&#45;&gt;Node8</title>
<path fill="none" stroke="#191970" d="M666.1502,-257.3293C675.0671,-248.8007 686.8921,-235.5 692,-221 716.1399,-152.4729 679.8471,-66.1362 661.0805,-28.7157"/>
<polygon fill="#191970" stroke="#191970" points="664.0225,-26.7854 656.317,-19.5138 657.8061,-30.0035 664.0225,-26.7854"/>
</g>
<!-- Node14&#45;&gt;Node8 -->
<g id="edge26" class="edge">
<title>Node14&#45;&gt;Node8</title>
<path fill="none" stroke="#191970" d="M810.8548,-257.2679C819.5343,-248.7019 831.0417,-235.3808 836,-221 840.491,-207.9747 841.3596,-202.6926 836,-190 803.1944,-112.3096 718.6461,-51.5702 676.1579,-24.844"/>
<polygon fill="#191970" stroke="#191970" points="677.8701,-21.7879 667.5215,-19.5169 674.1952,-27.7457 677.8701,-21.7879"/>
</g>
<!-- Node15 -->
<g id="node16" class="node">
<title>Node15</title>
<polygon fill="none" stroke="#bfbfbf" points="739,-196 739,-215 827,-215 827,-196 739,-196"/>
<text text-anchor="middle" x="783" y="-203" font-family="Helvetica,sans-Serif" font-size="10.00" fill="#000000">TGeoVolume.h</text>
</g>
<!-- Node14&#45;&gt;Node15 -->
<g id="edge27" class="edge">
<title>Node14&#45;&gt;Node15</title>
<path fill="none" stroke="#191970" d="M797.3438,-257.3906C794.9625,-248.776 791.3952,-235.8708 788.414,-225.0858"/>
<polygon fill="#191970" stroke="#191970" points="791.7316,-223.9509 785.6937,-215.2449 784.9846,-225.8159 791.7316,-223.9509"/>
</g>
<!-- Node17 -->
<g id="node18" class="node">
<title>Node17</title>
<g id="a_node18"><a xlink:href="../../db/d2c/ConfigurableParam_8h.html" target="_top" xlink:title="CommonUtils/Configurable\lParam.h">
<polygon fill="none" stroke="#000000" points="1150,-123.5 1150,-153.5 1298,-153.5 1298,-123.5 1150,-123.5"/>
<text text-anchor="start" x="1158" y="-141.5" font-family="Helvetica,sans-Serif" font-size="10.00" fill="#000000">CommonUtils/Configurable</text>
<text text-anchor="middle" x="1224" y="-130.5" font-family="Helvetica,sans-Serif" font-size="10.00" fill="#000000">Param.h</text>
</a>
</g>
</g>
<!-- Node16&#45;&gt;Node17 -->
<g id="edge29" class="edge">
<title>Node16&#45;&gt;Node17</title>
<path fill="none" stroke="#191970" d="M1092.1119,-257.3975C1109.6373,-249.1852 1134.2165,-236.2868 1153,-221 1174.2861,-203.6764 1194.2717,-179.456 1207.5814,-161.7398"/>
<polygon fill="#191970" stroke="#191970" points="1210.446,-163.7523 1213.5554,-153.624 1204.8085,-159.6026 1210.446,-163.7523"/>
</g>
<!-- Node24 -->
<g id="node25" class="node">
<title>Node24</title>
<g id="a_node25"><a xlink:href="../../da/d6b/ConfigurableParamHelper_8h.html" target="_top" xlink:title="CommonUtils/Configurable\lParamHelper.h">
<polygon fill="none" stroke="#000000" points="996,-190.5 996,-220.5 1144,-220.5 1144,-190.5 996,-190.5"/>
<text text-anchor="start" x="1004" y="-208.5" font-family="Helvetica,sans-Serif" font-size="10.00" fill="#000000">CommonUtils/Configurable</text>
<text text-anchor="middle" x="1070" y="-197.5" font-family="Helvetica,sans-Serif" font-size="10.00" fill="#000000">ParamHelper.h</text>
</a>
</g>
</g>
<!-- Node16&#45;&gt;Node24 -->
<g id="edge36" class="edge">
<title>Node16&#45;&gt;Node24</title>
<path fill="none" stroke="#191970" d="M1070,-257.3906C1070,-250.2234 1070,-240.0862 1070,-230.671"/>
<polygon fill="#191970" stroke="#191970" points="1073.5001,-230.5446 1070,-220.5446 1066.5001,-230.5446 1073.5001,-230.5446"/>
</g>
<!-- Node18 -->
<g id="node19" class="node">
<title>Node18</title>
<polygon fill="none" stroke="#bfbfbf" points="1498.5,-62 1498.5,-81 1545.5,-81 1545.5,-62 1498.5,-62"/>
<text text-anchor="middle" x="1522" y="-69" font-family="Helvetica,sans-Serif" font-size="10.00" fill="#000000">vector</text>
</g>
<!-- Node17&#45;&gt;Node18 -->
<g id="edge30" class="edge">
<title>Node17&#45;&gt;Node18</title>
<path fill="none" stroke="#191970" d="M1298.0664,-129.1168C1351.9063,-121.0953 1426.0676,-107.5434 1489,-87 1490.8503,-86.396 1492.7322,-85.7135 1494.6114,-84.98"/>
<polygon fill="#191970" stroke="#191970" points="1496.0238,-88.1826 1503.8267,-81.0156 1493.2575,-81.7524 1496.0238,-88.1826"/>
</g>
<!-- Node19 -->
<g id="node20" class="node">
<title>Node19</title>
<polygon fill="none" stroke="#bfbfbf" points="1121,-62 1121,-81 1159,-81 1159,-62 1121,-62"/>
<text text-anchor="middle" x="1140" y="-69" font-family="Helvetica,sans-Serif" font-size="10.00" fill="#000000">map</text>
</g>
<!-- Node17&#45;&gt;Node19 -->
<g id="edge31" class="edge">
<title>Node17&#45;&gt;Node19</title>
<path fill="none" stroke="#191970" d="M1204.9391,-123.2967C1191.4703,-112.5537 1173.4615,-98.1895 1159.8252,-87.3129"/>
<polygon fill="#191970" stroke="#191970" points="1161.9796,-84.5544 1151.9794,-81.055 1157.6147,-90.0268 1161.9796,-84.5544"/>
</g>
<!-- Node20 -->
<g id="node21" class="node">
<title>Node20</title>
<polygon fill="none" stroke="#bfbfbf" points="1177.5,-62 1177.5,-81 1270.5,-81 1270.5,-62 1177.5,-62"/>
<text text-anchor="middle" x="1224" y="-69" font-family="Helvetica,sans-Serif" font-size="10.00" fill="#000000">unordered_map</text>
</g>
<!-- Node17&#45;&gt;Node20 -->
<g id="edge32" class="edge">
<title>Node17&#45;&gt;Node20</title>
<path fill="none" stroke="#191970" d="M1224,-123.2967C1224,-113.7699 1224,-101.3954 1224,-91.1306"/>
<polygon fill="#191970" stroke="#191970" points="1227.5001,-91.0549 1224,-81.055 1220.5001,-91.055 1227.5001,-91.0549"/>
</g>
<!-- Node21 -->
<g id="node22" class="node">
<title>Node21</title>
<polygon fill="none" stroke="#bfbfbf" points="1288.5,-56.5 1288.5,-86.5 1401.5,-86.5 1401.5,-56.5 1288.5,-56.5"/>
<text text-anchor="start" x="1296.5" y="-74.5" font-family="Helvetica,sans-Serif" font-size="10.00" fill="#000000">boost/property_tree</text>
<text text-anchor="middle" x="1345" y="-63.5" font-family="Helvetica,sans-Serif" font-size="10.00" fill="#000000">/ptree.hpp</text>
</g>
<!-- Node17&#45;&gt;Node21 -->
<g id="edge33" class="edge">
<title>Node17&#45;&gt;Node21</title>
<path fill="none" stroke="#191970" d="M1251.1548,-123.4639C1268.0831,-114.0903 1290.0767,-101.9121 1308.5168,-91.7015"/>
<polygon fill="#191970" stroke="#191970" points="1310.4643,-94.6239 1317.5172,-86.7177 1307.0734,-88.5 1310.4643,-94.6239"/>
</g>
<!-- Node22 -->
<g id="node23" class="node">
<title>Node22</title>
<polygon fill="none" stroke="#bfbfbf" points="1045.5,-62 1045.5,-81 1102.5,-81 1102.5,-62 1045.5,-62"/>
<text text-anchor="middle" x="1074" y="-69" font-family="Helvetica,sans-Serif" font-size="10.00" fill="#000000">typeinfo</text>
</g>
<!-- Node17&#45;&gt;Node22 -->
<g id="edge34" class="edge">
<title>Node17&#45;&gt;Node22</title>
<path fill="none" stroke="#191970" d="M1190.3371,-123.4639C1164.7155,-112.0196 1129.7339,-96.3945 1104.8373,-85.274"/>
<polygon fill="#191970" stroke="#191970" points="1106.0593,-81.9866 1095.5013,-81.1039 1103.2045,-88.378 1106.0593,-81.9866"/>
</g>
<!-- Node23 -->
<g id="node24" class="node">
<title>Node23</title>
<polygon fill="none" stroke="#bfbfbf" points="1420,-62 1420,-81 1480,-81 1480,-62 1420,-62"/>
<text text-anchor="middle" x="1450" y="-69" font-family="Helvetica,sans-Serif" font-size="10.00" fill="#000000">iostream</text>
</g>
<!-- Node17&#45;&gt;Node23 -->
<g id="edge35" class="edge">
<title>Node17&#45;&gt;Node23</title>
<path fill="none" stroke="#191970" d="M1285.1451,-123.4673C1321.921,-113.9796 1369.4948,-100.9165 1411,-87 1413.1328,-86.2849 1415.3185,-85.5168 1417.5132,-84.7189"/>
<polygon fill="#191970" stroke="#191970" points="1418.9468,-87.9186 1427.0576,-81.102 1416.4662,-81.3728 1418.9468,-87.9186"/>
</g>
<!-- Node24&#45;&gt;Node17 -->
<g id="edge37" class="edge">
<title>Node24&#45;&gt;Node17</title>
<path fill="none" stroke="#191970" d="M1104.5606,-190.4639C1126.8727,-180.7567 1156.0987,-168.0415 1180.0554,-157.6188"/>
<polygon fill="#191970" stroke="#191970" points="1181.5152,-160.8006 1189.2887,-153.6017 1178.7226,-154.3818 1181.5152,-160.8006"/>
</g>
<!-- Node24&#45;&gt;Node22 -->
<g id="edge40" class="edge">
<title>Node24&#45;&gt;Node22</title>
<path fill="none" stroke="#191970" d="M1082.9535,-190.4249C1090.4093,-180.7239 1099.0599,-167.452 1103,-154 1106.8728,-140.7777 1106.4944,-136.3273 1103,-123 1099.8771,-111.0893 1093.3098,-99.029 1087.2135,-89.5764"/>
<polygon fill="#191970" stroke="#191970" points="1089.9502,-87.3777 1081.4191,-81.0952 1084.1704,-91.3266 1089.9502,-87.3777"/>
</g>
<!-- Node25 -->
<g id="node26" class="node">
<title>Node25</title>
<polygon fill="none" stroke="#bfbfbf" points="883.5,-129 883.5,-148 940.5,-148 940.5,-129 883.5,-129"/>
<text text-anchor="middle" x="912" y="-136" font-family="Helvetica,sans-Serif" font-size="10.00" fill="#000000">TClass.h</text>
</g>
<!-- Node24&#45;&gt;Node25 -->
<g id="edge38" class="edge">
<title>Node24&#45;&gt;Node25</title>
<path fill="none" stroke="#191970" d="M1034.5417,-190.4639C1007.4343,-178.969 970.3801,-163.2561 944.1345,-152.1266"/>
<polygon fill="#191970" stroke="#191970" points="945.2209,-148.7857 934.6481,-148.1039 942.4881,-155.2302 945.2209,-148.7857"/>
</g>
<!-- Node26 -->
<g id="node27" class="node">
<title>Node26</title>
<polygon fill="none" stroke="#bfbfbf" points="958.5,-129 958.5,-148 1027.5,-148 1027.5,-129 958.5,-129"/>
<text text-anchor="middle" x="993" y="-136" font-family="Helvetica,sans-Serif" font-size="10.00" fill="#000000">type_traits</text>
</g>
<!-- Node24&#45;&gt;Node26 -->
<g id="edge39" class="edge">
<title>Node24&#45;&gt;Node26</title>
<path fill="none" stroke="#191970" d="M1052.5275,-190.2967C1040.2976,-179.6551 1023.9841,-165.4602 1011.5279,-154.6217"/>
<polygon fill="#191970" stroke="#191970" points="1013.8225,-151.9788 1003.9811,-148.055 1009.2276,-157.2596 1013.8225,-151.9788"/>
</g>
<!-- Node27 -->
<g id="node28" class="node">
<title>Node27</title>
<polygon fill="none" stroke="#bfbfbf" points="1046,-129 1046,-148 1094,-148 1094,-129 1046,-129"/>
<text text-anchor="middle" x="1070" y="-136" font-family="Helvetica,sans-Serif" font-size="10.00" fill="#000000">TFile.h</text>
</g>
<!-- Node24&#45;&gt;Node27 -->
<g id="edge41" class="edge">
<title>Node24&#45;&gt;Node27</title>
<path fill="none" stroke="#191970" d="M1070,-190.2967C1070,-180.7699 1070,-168.3954 1070,-158.1306"/>
<polygon fill="#191970" stroke="#191970" points="1073.5001,-158.0549 1070,-148.055 1066.5001,-158.055 1073.5001,-158.0549"/>
</g>
</g>
</svg>
        <g id="navigator" transform="translate(0 0)" fill="#404254">
                <rect fill="#f2f5e9" fill-opacity="0.5" stroke="#606060" stroke-width=".5" x="0" y="0" width="60" height="60"/>
                <use id="zoomplus" xlink:href="#zoomPlus" x="17" y="9" onmousedown="handleZoom(evt,'in')"/>
                <use id="zoomminus" xlink:href="#zoomMin" x="42" y="9" onmousedown="handleZoom(evt,'out')"/>
                <use id="reset" xlink:href="#resetDef" x="30" y="36" onmousedown="handleReset()"/>
                <g id="arrowUp" xlink:href="#dirArrow" transform="translate(30 24)" onmousedown="handlePan(0,-1)">
                  <use xlink:href="#rim" fill="#404040">
                        <set attributeName="fill" to="#808080" begin="arrowUp.mouseover" end="arrowUp.mouseout"/>
                  </use>
                  <path fill="none" stroke="white" stroke-width="1.5" d="M0,-3.0v7 M-2.5,-0.5L0,-3.0L2.5,-0.5"/>
                </g>
                <g id="arrowRight" xlink:href="#dirArrow" transform="rotate(90) translate(36 -43)" onmousedown="handlePan(1,0)">
                  <use xlink:href="#rim" fill="#404040">
                        <set attributeName="fill" to="#808080" begin="arrowRight.mouseover" end="arrowRight.mouseout"/>
                  </use>
                  <path fill="none" stroke="white" stroke-width="1.5" d="M0,-3.0v7 M-2.5,-0.5L0,-3.0L2.5,-0.5"/>
                </g>
                <g id="arrowDown" xlink:href="#dirArrow" transform="rotate(180) translate(-30 -48)" onmousedown="handlePan(0,1)">
                  <use xlink:href="#rim" fill="#404040">
                        <set attributeName="fill" to="#808080" begin="arrowDown.mouseover" end="arrowDown.mouseout"/>
                  </use>
                  <path fill="none" stroke="white" stroke-width="1.5" d="M0,-3.0v7 M-2.5,-0.5L0,-3.0L2.5,-0.5"/>
                </g>
                <g id="arrowLeft" xlink:href="#dirArrow" transform="rotate(270) translate(-36 17)" onmousedown="handlePan(-1,0)">
                  <use xlink:href="#rim" fill="#404040">
                        <set attributeName="fill" to="#808080" begin="arrowLeft.mouseover" end="arrowLeft.mouseout"/>
                  </use>
                  <path fill="none" stroke="white" stroke-width="1.5" d="M0,-3.0v7 M-2.5,-0.5L0,-3.0L2.5,-0.5"/>
                </g>
        </g>
        <svg viewBox="0 0 15 15" width="100%" height="30px" preserveAspectRatio="xMaxYMin meet">
         <g id="arrow_out" transform="scale(0.3 0.3)">
          <a xlink:href="HalfDetector_8cxx__incl_org.svg" target="_base">
           <rect id="button" ry="5" rx="5" y="6" x="6" height="38" width="38"
                fill="#f2f5e9" fill-opacity="0.5" stroke="#606060" stroke-width="1.0"/>
           <path id="arrow"
             d="M 11.500037,31.436501 C 11.940474,20.09759 22.043105,11.32322 32.158766,21.979434 L 37.068811,17.246167 C 37.068811,17.246167 37.088388,32 37.088388,32 L 22.160133,31.978069 C 22.160133,31.978069 26.997745,27.140456 26.997745,27.140456 C 18.528582,18.264221 13.291696,25.230495 11.500037,31.436501 z"
             style="fill:#404040;"/>
          </a>
         </g>
        </svg>
</svg>
