<?xml version="1.0" encoding="UTF-8" standalone="no"?>
<!DOCTYPE svg PUBLIC "-//W3C//DTD SVG 1.1//EN"
 "http://www.w3.org/Graphics/SVG/1.1/DTD/svg11.dtd">
<!-- Generated by graphviz version 2.40.1 (20161225.0304)
 -->
<!-- Title: /home/travis/build/AliceO2Group/AliceO2/GPU/GPUTracking/Standalone/utils/qconfig.h Pages: 1 -->
<svg width="353pt" height="341pt"
 viewBox="0.00 0.00 353.00 341.00" xmlns="http://www.w3.org/2000/svg" xmlns:xlink="http://www.w3.org/1999/xlink">
<g id="graph0" class="graph" transform="scale(1 1) rotate(0) translate(4 337)">
<title>/home/travis/build/AliceO2Group/AliceO2/GPU/GPUTracking/Standalone/utils/qconfig.h</title>
<!-- Node0 -->
<g id="node1" class="node">
<title>Node0</title>
<polygon fill="#bfbfbf" stroke="#000000" points="150.5,-280.5 150.5,-332.5 313.5,-332.5 313.5,-280.5 150.5,-280.5"/>
<text text-anchor="start" x="158.5" y="-320.5" font-family="Helvetica,sans-Serif" font-size="10.00" fill="#000000">/home/travis/build</text>
<text text-anchor="start" x="158.5" y="-309.5" font-family="Helvetica,sans-Serif" font-size="10.00" fill="#000000">/AliceO2Group/AliceO2</text>
<text text-anchor="start" x="158.5" y="-298.5" font-family="Helvetica,sans-Serif" font-size="10.00" fill="#000000">/GPU/GPUTracking/Standalone</text>
<text text-anchor="middle" x="232" y="-287.5" font-family="Helvetica,sans-Serif" font-size="10.00" fill="#000000">/utils/qconfig.h</text>
</g>
<!-- Node1 -->
<g id="node2" class="node">
<title>Node1</title>
<g id="a_node2"><a xlink:href="../../d8/de9/qconfigoptions_8h.html" target="_top" xlink:title="qconfigoptions.h">
<polygon fill="none" stroke="#000000" points="145.5,-224.5 145.5,-243.5 242.5,-243.5 242.5,-224.5 145.5,-224.5"/>
<text text-anchor="middle" x="194" y="-231.5" font-family="Helvetica,sans-Serif" font-size="10.00" fill="#000000">qconfigoptions.h</text>
</a>
</g>
</g>
<!-- Node0&#45;&gt;Node1 -->
<g id="edge1" class="edge">
<title>Node0&#45;&gt;Node1</title>
<path fill="none" stroke="#191970" d="M218.2811,-280.3258C213.4527,-271.1136 208.1299,-260.9584 203.7016,-252.5096"/>
<polygon fill="#191970" stroke="#191970" points="206.7395,-250.7663 198.9971,-243.534 200.5395,-254.016 206.7395,-250.7663"/>
</g>
<!-- Node2 -->
<g id="node3" class="node">
<title>Node2</title>
<g id="a_node3"><a xlink:href="../../d4/d57/GPUSettingsList_8h.html" target="_top" xlink:title="GPUSettingsList.h">
<polygon fill="none" stroke="#000000" points="140,-168.5 140,-187.5 244,-187.5 244,-168.5 140,-168.5"/>
<text text-anchor="middle" x="192" y="-175.5" font-family="Helvetica,sans-Serif" font-size="10.00" fill="#000000">GPUSettingsList.h</text>
</a>
</g>
</g>
<!-- Node1&#45;&gt;Node2 -->
<g id="edge2" class="edge">
<title>Node1&#45;&gt;Node2</title>
<path fill="none" stroke="#191970" d="M193.6516,-224.2455C193.3907,-216.9382 193.0248,-206.6944 192.7037,-197.7046"/>
<polygon fill="#191970" stroke="#191970" points="196.1992,-197.5113 192.3444,-187.6427 189.2036,-197.7613 196.1992,-197.5113"/>
</g>
<!-- Node3 -->
<g id="node4" class="node">
<title>Node3</title>
<g id="a_node4"><a xlink:href="../../d2/d37/GPUDefConstantsAndSettings_8h.html" target="_top" xlink:title="GPUDefConstantsAndSettings.h">
<polygon fill="none" stroke="#000000" points="39.5,-112.5 39.5,-131.5 210.5,-131.5 210.5,-112.5 39.5,-112.5"/>
<text text-anchor="middle" x="125" y="-119.5" font-family="Helvetica,sans-Serif" font-size="10.00" fill="#000000">GPUDefConstantsAndSettings.h</text>
</a>
</g>
</g>
<!-- Node2&#45;&gt;Node3 -->
<g id="edge3" class="edge">
<title>Node2&#45;&gt;Node3</title>
<path fill="none" stroke="#191970" d="M180.3295,-168.2455C170.4339,-159.9746 156.0373,-147.9416 144.4099,-138.2232"/>
<polygon fill="#191970" stroke="#191970" points="146.4542,-135.3703 136.5368,-131.6427 141.965,-140.7413 146.4542,-135.3703"/>
</g>
<!-- Node7 -->
<g id="node8" class="node">
<title>Node7</title>
<g id="a_node8"><a xlink:href="../../dd/dc6/GPUSettings_8h.html" target="_top" xlink:title="GPUSettings.h">
<polygon fill="none" stroke="#000000" points="229,-112.5 229,-131.5 315,-131.5 315,-112.5 229,-112.5"/>
<text text-anchor="middle" x="272" y="-119.5" font-family="Helvetica,sans-Serif" font-size="10.00" fill="#000000">GPUSettings.h</text>
</a>
</g>
</g>
<!-- Node2&#45;&gt;Node7 -->
<g id="edge7" class="edge">
<title>Node2&#45;&gt;Node7</title>
<path fill="none" stroke="#191970" d="M205.9349,-168.2455C218.0947,-159.7337 235.9464,-147.2375 250.0285,-137.3801"/>
<polygon fill="#191970" stroke="#191970" points="252.0395,-140.2447 258.2248,-131.6427 248.0253,-134.51 252.0395,-140.2447"/>
</g>
<!-- Node4 -->
<g id="node5" class="node">
<title>Node4</title>
<g id="a_node5"><a xlink:href="../../df/d21/GPUCommonDef_8h.html" target="_top" xlink:title="GPUCommonDef.h">
<polygon fill="none" stroke="#000000" points="97.5,-56.5 97.5,-75.5 204.5,-75.5 204.5,-56.5 97.5,-56.5"/>
<text text-anchor="middle" x="151" y="-63.5" font-family="Helvetica,sans-Serif" font-size="10.00" fill="#000000">GPUCommonDef.h</text>
</a>
</g>
</g>
<!-- Node3&#45;&gt;Node4 -->
<g id="edge4" class="edge">
<title>Node3&#45;&gt;Node4</title>
<path fill="none" stroke="#191970" d="M129.5289,-112.2455C133.0334,-104.6973 137.9927,-94.0158 142.2623,-84.8197"/>
<polygon fill="#191970" stroke="#191970" points="145.4864,-86.1867 146.523,-75.6427 139.1373,-83.2389 145.4864,-86.1867"/>
</g>
<!-- Node5 -->
<g id="node6" class="node">
<title>Node5</title>
<g id="a_node6"><a xlink:href="../../d5/d93/GPUCommonDefSettings_8h.html" target="_top" xlink:title="GPUCommonDefSettings.h">
<polygon fill="none" stroke="#000000" points="0,-.5 0,-19.5 148,-19.5 148,-.5 0,-.5"/>
<text text-anchor="middle" x="74" y="-7.5" font-family="Helvetica,sans-Serif" font-size="10.00" fill="#000000">GPUCommonDefSettings.h</text>
</a>
</g>
</g>
<!-- Node4&#45;&gt;Node5 -->
<g id="edge5" class="edge">
<title>Node4&#45;&gt;Node5</title>
<path fill="none" stroke="#191970" d="M137.5876,-56.2455C125.9943,-47.814 109.0252,-35.4729 95.5322,-25.6598"/>
<polygon fill="#191970" stroke="#191970" points="97.4047,-22.6938 87.2587,-19.6427 93.2874,-28.355 97.4047,-22.6938"/>
</g>
<!-- Node6 -->
<g id="node7" class="node">
<title>Node6</title>
<g id="a_node7"><a xlink:href="../../da/d5a/GPUCommonDefAPI_8h.html" target="_top" xlink:title="GPUCommonDefAPI.h">
<polygon fill="none" stroke="#000000" points="166,-.5 166,-19.5 290,-19.5 290,-.5 166,-.5"/>
<text text-anchor="middle" x="228" y="-7.5" font-family="Helvetica,sans-Serif" font-size="10.00" fill="#000000">GPUCommonDefAPI.h</text>
</a>
</g>
</g>
<!-- Node4&#45;&gt;Node6 -->
<g id="edge6" class="edge">
<title>Node4&#45;&gt;Node6</title>
<path fill="none" stroke="#191970" d="M164.4124,-56.2455C176.0057,-47.814 192.9748,-35.4729 206.4678,-25.6598"/>
<polygon fill="#191970" stroke="#191970" points="208.7126,-28.355 214.7413,-19.6427 204.5953,-22.6938 208.7126,-28.355"/>
</g>
<!-- Node7&#45;&gt;Node0 -->
<g id="edge11" class="edge">
<title>Node7&#45;&gt;Node0</title>
<path fill="none" stroke="#191970" d="M270.7664,-131.5731C268.0107,-152.2566 260.817,-202.5936 251,-244 248.9503,-252.6453 246.3757,-261.8526 243.7894,-270.4682"/>
<polygon fill="#191970" stroke="#191970" points="240.378,-269.654 240.7788,-280.2412 247.0678,-271.7148 240.378,-269.654"/>
</g>
<!-- Node7&#45;&gt;Node4 -->
<g id="edge8" class="edge">
<title>Node7&#45;&gt;Node4</title>
<path fill="none" stroke="#191970" d="M251.1994,-112.3733C231.7757,-103.3838 202.5776,-89.8706 180.7036,-79.7471"/>
<polygon fill="#191970" stroke="#191970" points="182.0745,-76.5249 171.5292,-75.5011 179.1344,-82.8776 182.0745,-76.5249"/>
</g>
<!-- Node8 -->
<g id="node9" class="node">
<title>Node8</title>
<polygon fill="none" stroke="#bfbfbf" points="235.5,-56.5 235.5,-75.5 282.5,-75.5 282.5,-56.5 235.5,-56.5"/>
<text text-anchor="middle" x="259" y="-63.5" font-family="Helvetica,sans-Serif" font-size="10.00" fill="#000000">vector</text>
</g>
<!-- Node7&#45;&gt;Node8 -->
<g id="edge9" class="edge">
<title>Node7&#45;&gt;Node8</title>
<path fill="none" stroke="#191970" d="M269.7356,-112.2455C268.0206,-104.8579 265.6088,-94.4689 263.5056,-85.4087"/>
<polygon fill="#191970" stroke="#191970" points="266.9092,-84.5922 261.2385,-75.6427 260.0905,-86.1751 266.9092,-84.5922"/>
</g>
<!-- Node9 -->
<g id="node10" class="node">
<title>Node9</title>
<polygon fill="none" stroke="#bfbfbf" points="301,-56.5 301,-75.5 345,-75.5 345,-56.5 301,-56.5"/>
<text text-anchor="middle" x="323" y="-63.5" font-family="Helvetica,sans-Serif" font-size="10.00" fill="#000000">string</text>
</g>
<!-- Node7&#45;&gt;Node9 -->
<g id="edge10" class="edge">
<title>Node7&#45;&gt;Node9</title>
<path fill="none" stroke="#191970" d="M280.8835,-112.2455C288.1966,-104.2155 298.7391,-92.6394 307.4467,-83.0781"/>
<polygon fill="#191970" stroke="#191970" points="310.0727,-85.3928 314.2183,-75.6427 304.8972,-80.6795 310.0727,-85.3928"/>
</g>
</g>
</svg>
