<?xml version="1.0" encoding="UTF-8" standalone="no"?>
<!DOCTYPE svg PUBLIC "-//W3C//DTD SVG 1.1//EN"
 "http://www.w3.org/Graphics/SVG/1.1/DTD/svg11.dtd">
<!-- Generated by graphviz version 2.40.1 (20161225.0304)
 -->
<!-- Title: /home/travis/build/AliceO2Group/AliceO2/Detectors/EMCAL/reconstruction/src/CaloRawFitterGamma2.cxx Pages: 1 -->
<!--zoomable 374 -->
<svg id="main" version="1.1" xmlns="http://www.w3.org/2000/svg" xmlns:xlink="http://www.w3.org/1999/xlink" xml:space="preserve" onload="init(evt)">
<style type="text/css"><![CDATA[
.edge:hover path { stroke: red; }
.edge:hover polygon { stroke: red; fill: red; }
]]></style>
<script type="text/javascript"><![CDATA[
var edges = document.getElementsByTagName('g');
if (edges && edges.length) {
  for (var i=0;i<edges.length;i++) {
    if (edges[i].id.substr(0,4)=='edge') {
      edges[i].setAttribute('class','edge');
    }
  }
}
]]></script>
        <defs>
                <circle id="rim" cx="0" cy="0" r="7"/>
                <circle id="rim2" cx="0" cy="0" r="3.5"/>
                <g id="zoomPlus">
                        <use xlink:href="#rim" fill="#404040">
                                <set attributeName="fill" to="#808080" begin="zoomplus.mouseover" end="zoomplus.mouseout"/>
                        </use>
                        <path d="M-4,0h8M0,-4v8" fill="none" stroke="white" stroke-width="1.5" pointer-events="none"/>
                </g>
                <g id="zoomMin">
                        <use xlink:href="#rim" fill="#404040">
                                <set attributeName="fill" to="#808080" begin="zoomminus.mouseover" end="zoomminus.mouseout"/>
                        </use>
                        <path d="M-4,0h8" fill="none" stroke="white" stroke-width="1.5" pointer-events="none"/>
                </g>
                <g id="dirArrow">
                        <path fill="none" stroke="white" stroke-width="1.5" d="M0,-3.0v7 M-2.5,-0.5L0,-3.0L2.5,-0.5"/>
                </g>
               <g id="resetDef">
                       <use xlink:href="#rim2" fill="#404040">
                               <set attributeName="fill" to="#808080" begin="reset.mouseover" end="reset.mouseout"/>
                       </use>
               </g>
        </defs>

<script type="text/javascript">
var viewWidth = 927;
var viewHeight = 374;
var sectionId = 'dynsection-0';
</script>
<script xlink:href="../../svgpan.js"/>
<svg id="graph" class="graph">
<g id="viewport">
<title>/home/travis/build/AliceO2Group/AliceO2/Detectors/EMCAL/reconstruction/src/CaloRawFitterGamma2.cxx</title>
<!-- Node0 -->
<g id="node1" class="node">
<title>Node0</title>
<polygon fill="#bfbfbf" stroke="#000000" points="161.5,-313.5 161.5,-365.5 337.5,-365.5 337.5,-313.5 161.5,-313.5"/>
<text text-anchor="start" x="169.5" y="-353.5" font-family="Helvetica,sans-Serif" font-size="10.00" fill="#000000">/home/travis/build</text>
<text text-anchor="start" x="169.5" y="-342.5" font-family="Helvetica,sans-Serif" font-size="10.00" fill="#000000">/AliceO2Group/AliceO2</text>
<text text-anchor="start" x="169.5" y="-331.5" font-family="Helvetica,sans-Serif" font-size="10.00" fill="#000000">/Detectors/EMCAL/reconstruction</text>
<text text-anchor="middle" x="249.5" y="-320.5" font-family="Helvetica,sans-Serif" font-size="10.00" fill="#000000">/src/CaloRawFitterGamma2.cxx</text>
</g>
<!-- Node1 -->
<g id="node2" class="node">
<title>Node1</title>
<polygon fill="none" stroke="#bfbfbf" points="0,-252 0,-271 75,-271 75,-252 0,-252"/>
<text text-anchor="middle" x="37.5" y="-259" font-family="Helvetica,sans-Serif" font-size="10.00" fill="#000000">FairLogger.h</text>
</g>
<!-- Node0&#45;&gt;Node1 -->
<g id="edge1" class="edge">
<title>Node0&#45;&gt;Node1</title>
<path fill="none" stroke="#191970" d="M178.6123,-313.4187C143.1871,-300.3849 101.8633,-285.1808 73.1266,-274.6079"/>
<polygon fill="#191970" stroke="#191970" points="74.1108,-271.2407 63.5173,-271.0724 71.6937,-277.8102 74.1108,-271.2407"/>
</g>
<!-- Node2 -->
<g id="node3" class="node">
<title>Node2</title>
<polygon fill="none" stroke="#bfbfbf" points="93.5,-252 93.5,-271 147.5,-271 147.5,-252 93.5,-252"/>
<text text-anchor="middle" x="120.5" y="-259" font-family="Helvetica,sans-Serif" font-size="10.00" fill="#000000">random</text>
</g>
<!-- Node0&#45;&gt;Node2 -->
<g id="edge2" class="edge">
<title>Node0&#45;&gt;Node2</title>
<path fill="none" stroke="#191970" d="M206.186,-313.3101C185.9293,-301.0619 162.5363,-286.9173 145.316,-276.505"/>
<polygon fill="#191970" stroke="#191970" points="146.8116,-273.3193 136.4433,-271.1401 143.1896,-279.3094 146.8116,-273.3193"/>
</g>
<!-- Node3 -->
<g id="node4" class="node">
<title>Node3</title>
<polygon fill="none" stroke="#bfbfbf" points="165.5,-252 165.5,-271 221.5,-271 221.5,-252 165.5,-252"/>
<text text-anchor="middle" x="193.5" y="-259" font-family="Helvetica,sans-Serif" font-size="10.00" fill="#000000">TMath.h</text>
</g>
<!-- Node0&#45;&gt;Node3 -->
<g id="edge3" class="edge">
<title>Node0&#45;&gt;Node3</title>
<path fill="none" stroke="#191970" d="M230.541,-313.0928C222.5726,-301.994 213.51,-289.371 206.3434,-279.389"/>
<polygon fill="#191970" stroke="#191970" points="209.056,-277.1659 200.3807,-271.0839 203.3697,-281.2484 209.056,-277.1659"/>
</g>
<!-- Node4 -->
<g id="node5" class="node">
<title>Node4</title>
<g id="a_node5"><a xlink:href="../../d1/d29/Bunch_8h.html" target="_top" xlink:title="EMCALReconstruction\l/Bunch.h">
<polygon fill="none" stroke="#000000" points="779.5,-112.5 779.5,-142.5 901.5,-142.5 901.5,-112.5 779.5,-112.5"/>
<text text-anchor="start" x="787.5" y="-130.5" font-family="Helvetica,sans-Serif" font-size="10.00" fill="#000000">EMCALReconstruction</text>
<text text-anchor="middle" x="840.5" y="-119.5" font-family="Helvetica,sans-Serif" font-size="10.00" fill="#000000">/Bunch.h</text>
</a>
</g>
</g>
<!-- Node0&#45;&gt;Node4 -->
<g id="edge4" class="edge">
<title>Node0&#45;&gt;Node4</title>
<path fill="none" stroke="#191970" d="M337.6299,-331.5464C440.1999,-321.3326 602.6594,-301.9138 658.5,-277 726.2591,-246.7687 789.3994,-184.2847 820.4264,-150.4577"/>
<polygon fill="#191970" stroke="#191970" points="823.144,-152.6706 827.2552,-142.906 817.952,-147.9756 823.144,-152.6706"/>
</g>
<!-- Node9 -->
<g id="node10" class="node">
<title>Node9</title>
<g id="a_node10"><a xlink:href="../../d2/d39/CaloFitResults_8h.html" target="_top" xlink:title="EMCALReconstruction\l/CaloFitResults.h">
<polygon fill="none" stroke="#000000" points="353.5,-112.5 353.5,-142.5 475.5,-142.5 475.5,-112.5 353.5,-112.5"/>
<text text-anchor="start" x="361.5" y="-130.5" font-family="Helvetica,sans-Serif" font-size="10.00" fill="#000000">EMCALReconstruction</text>
<text text-anchor="middle" x="414.5" y="-119.5" font-family="Helvetica,sans-Serif" font-size="10.00" fill="#000000">/CaloFitResults.h</text>
</a>
</g>
</g>
<!-- Node0&#45;&gt;Node9 -->
<g id="edge9" class="edge">
<title>Node0&#45;&gt;Node9</title>
<path fill="none" stroke="#191970" d="M270.0637,-313.0787C302.5912,-271.2858 365.3899,-190.599 396.3459,-150.8252"/>
<polygon fill="#191970" stroke="#191970" points="399.4163,-152.5788 402.7963,-142.5375 393.8922,-148.2793 399.4163,-152.5788"/>
</g>
<!-- Node11 -->
<g id="node12" class="node">
<title>Node11</title>
<g id="a_node12"><a xlink:href="../../dd/dda/DataFormats_2Detectors_2EMCAL_2include_2DataFormatsEMCAL_2Constants_8h.html" target="_top" xlink:title="DataFormatsEMCAL/Constants.h">
<polygon fill="none" stroke="#000000" points="302,-56.5 302,-75.5 475,-75.5 475,-56.5 302,-56.5"/>
<text text-anchor="middle" x="388.5" y="-63.5" font-family="Helvetica,sans-Serif" font-size="10.00" fill="#000000">DataFormatsEMCAL/Constants.h</text>
</a>
</g>
</g>
<!-- Node0&#45;&gt;Node11 -->
<g id="edge17" class="edge">
<title>Node0&#45;&gt;Node11</title>
<path fill="none" stroke="#191970" d="M254.9534,-313.3023C265.1394,-268.7994 290.2299,-176.9509 335.5,-112 343.5553,-100.4428 355.1459,-89.9416 365.435,-81.9001"/>
<polygon fill="#191970" stroke="#191970" points="367.7468,-84.542 373.6657,-75.7546 363.5588,-78.933 367.7468,-84.542"/>
</g>
<!-- Node13 -->
<g id="node14" class="node">
<title>Node13</title>
<g id="a_node14"><a xlink:href="../../d8/d35/CaloRawFitterGamma2_8h.html" target="_top" xlink:title="EMCALReconstruction\l/CaloRawFitterGamma2.h">
<polygon fill="none" stroke="#000000" points="508,-246.5 508,-276.5 649,-276.5 649,-246.5 508,-246.5"/>
<text text-anchor="start" x="516" y="-264.5" font-family="Helvetica,sans-Serif" font-size="10.00" fill="#000000">EMCALReconstruction</text>
<text text-anchor="middle" x="578.5" y="-253.5" font-family="Helvetica,sans-Serif" font-size="10.00" fill="#000000">/CaloRawFitterGamma2.h</text>
</a>
</g>
</g>
<!-- Node0&#45;&gt;Node13 -->
<g id="edge18" class="edge">
<title>Node0&#45;&gt;Node13</title>
<path fill="none" stroke="#191970" d="M337.666,-318.5974C390.019,-306.1855 455.626,-290.6312 505.1381,-278.8928"/>
<polygon fill="#191970" stroke="#191970" points="506.2096,-282.2359 515.1325,-276.5233 504.5947,-275.4247 506.2096,-282.2359"/>
</g>
<!-- Node5 -->
<g id="node6" class="node">
<title>Node5</title>
<polygon fill="none" stroke="#bfbfbf" points="460.5,-.5 460.5,-19.5 510.5,-19.5 510.5,-.5 460.5,-.5"/>
<text text-anchor="middle" x="485.5" y="-7.5" font-family="Helvetica,sans-Serif" font-size="10.00" fill="#000000">cstdint</text>
</g>
<!-- Node4&#45;&gt;Node5 -->
<g id="edge5" class="edge">
<title>Node4&#45;&gt;Node5</title>
<path fill="none" stroke="#191970" d="M812.3736,-112.3753C781.86,-96.4826 731.352,-71.6612 685.5,-56 655.2818,-45.6787 569.3262,-27.2587 520.5025,-17.1416"/>
<polygon fill="#191970" stroke="#191970" points="521.1821,-13.7081 510.6811,-15.1146 519.7672,-20.5637 521.1821,-13.7081"/>
</g>
<!-- Node6 -->
<g id="node7" class="node">
<title>Node6</title>
<polygon fill="none" stroke="#bfbfbf" points="765,-56.5 765,-75.5 812,-75.5 812,-56.5 765,-56.5"/>
<text text-anchor="middle" x="788.5" y="-63.5" font-family="Helvetica,sans-Serif" font-size="10.00" fill="#000000">vector</text>
</g>
<!-- Node4&#45;&gt;Node6 -->
<g id="edge6" class="edge">
<title>Node4&#45;&gt;Node6</title>
<path fill="none" stroke="#191970" d="M827.6461,-112.2977C820.2776,-103.5831 810.9974,-92.6075 803.3223,-83.5302"/>
<polygon fill="#191970" stroke="#191970" points="805.9552,-81.2233 796.8259,-75.8469 800.6098,-85.743 805.9552,-81.2233"/>
</g>
<!-- Node7 -->
<g id="node8" class="node">
<title>Node7</title>
<polygon fill="none" stroke="#bfbfbf" points="619,-56.5 619,-75.5 676,-75.5 676,-56.5 619,-56.5"/>
<text text-anchor="middle" x="647.5" y="-63.5" font-family="Helvetica,sans-Serif" font-size="10.00" fill="#000000">gsl/span</text>
</g>
<!-- Node4&#45;&gt;Node7 -->
<g id="edge7" class="edge">
<title>Node4&#45;&gt;Node7</title>
<path fill="none" stroke="#191970" d="M793.2869,-112.4554C760.2578,-101.9306 716.6987,-88.0504 685.8206,-78.211"/>
<polygon fill="#191970" stroke="#191970" points="686.8609,-74.8691 676.2702,-75.1677 684.7355,-81.5387 686.8609,-74.8691"/>
</g>
<!-- Node8 -->
<g id="node9" class="node">
<title>Node8</title>
<polygon fill="none" stroke="#bfbfbf" points="550,-.5 550,-19.5 609,-19.5 609,-.5 550,-.5"/>
<text text-anchor="middle" x="579.5" y="-7.5" font-family="Helvetica,sans-Serif" font-size="10.00" fill="#000000">Rtypes.h</text>
</g>
<!-- Node4&#45;&gt;Node8 -->
<g id="edge8" class="edge">
<title>Node4&#45;&gt;Node8</title>
<path fill="none" stroke="#191970" d="M840.8855,-112.292C840.4227,-95.9665 837.0143,-70.4372 821.5,-56 792.7185,-29.2167 680.4478,-17.1774 619.4609,-12.5191"/>
<polygon fill="#191970" stroke="#191970" points="619.6465,-9.0234 609.4174,-11.7833 619.135,-16.0047 619.6465,-9.0234"/>
</g>
<!-- Node9&#45;&gt;Node8 -->
<g id="edge11" class="edge">
<title>Node9&#45;&gt;Node8</title>
<path fill="none" stroke="#191970" d="M435.7331,-112.3795C467.2384,-89.9439 526.0528,-48.0609 557.8162,-25.4415"/>
<polygon fill="#191970" stroke="#191970" points="559.8973,-28.2563 566.0127,-19.6046 555.8367,-22.5544 559.8973,-28.2563"/>
</g>
<!-- Node10 -->
<g id="node11" class="node">
<title>Node10</title>
<polygon fill="none" stroke="#bfbfbf" points="269,-.5 269,-19.5 318,-19.5 318,-.5 269,-.5"/>
<text text-anchor="middle" x="293.5" y="-7.5" font-family="Helvetica,sans-Serif" font-size="10.00" fill="#000000">iosfwd</text>
</g>
<!-- Node9&#45;&gt;Node10 -->
<g id="edge10" class="edge">
<title>Node9&#45;&gt;Node10</title>
<path fill="none" stroke="#191970" d="M353.2545,-116.2832C330.5405,-108.8325 307.0362,-96.4725 293.5,-76 284.6239,-62.5755 285.4874,-44.0148 288.0752,-29.9948"/>
<polygon fill="#191970" stroke="#191970" points="291.5641,-30.4363 290.3671,-19.9093 284.7381,-28.8851 291.5641,-30.4363"/>
</g>
<!-- Node9&#45;&gt;Node11 -->
<g id="edge12" class="edge">
<title>Node9&#45;&gt;Node11</title>
<path fill="none" stroke="#191970" d="M408.073,-112.2977C404.6143,-104.1166 400.3133,-93.943 396.6246,-85.2179"/>
<polygon fill="#191970" stroke="#191970" points="399.7807,-83.6947 392.6629,-75.8469 393.3332,-86.4205 399.7807,-83.6947"/>
</g>
<!-- Node11&#45;&gt;Node5 -->
<g id="edge16" class="edge">
<title>Node11&#45;&gt;Node5</title>
<path fill="none" stroke="#191970" d="M405.3961,-56.2455C420.418,-47.5731 442.6043,-34.7645 459.821,-24.825"/>
<polygon fill="#191970" stroke="#191970" points="461.8871,-27.6737 468.7975,-19.6427 458.3872,-21.6114 461.8871,-27.6737"/>
</g>
<!-- Node11&#45;&gt;Node8 -->
<g id="edge13" class="edge">
<title>Node11&#45;&gt;Node8</title>
<path fill="none" stroke="#191970" d="M421.3341,-56.3733C454.2431,-46.7245 504.9274,-31.8642 540.0122,-21.5776"/>
<polygon fill="#191970" stroke="#191970" points="541.3027,-24.8466 549.914,-18.6744 539.3332,-18.1294 541.3027,-24.8466"/>
</g>
<!-- Node11&#45;&gt;Node10 -->
<g id="edge14" class="edge">
<title>Node11&#45;&gt;Node10</title>
<path fill="none" stroke="#191970" d="M371.9523,-56.2455C357.2401,-47.5731 335.5112,-34.7645 318.6495,-24.825"/>
<polygon fill="#191970" stroke="#191970" points="320.2502,-21.7057 309.8581,-19.6427 316.6954,-27.736 320.2502,-21.7057"/>
</g>
<!-- Node12 -->
<g id="node13" class="node">
<title>Node12</title>
<polygon fill="none" stroke="#bfbfbf" points="356,-.5 356,-19.5 421,-19.5 421,-.5 356,-.5"/>
<text text-anchor="middle" x="388.5" y="-7.5" font-family="Helvetica,sans-Serif" font-size="10.00" fill="#000000">exception</text>
</g>
<!-- Node11&#45;&gt;Node12 -->
<g id="edge15" class="edge">
<title>Node11&#45;&gt;Node12</title>
<path fill="none" stroke="#191970" d="M388.5,-56.2455C388.5,-48.9382 388.5,-38.6944 388.5,-29.7046"/>
<polygon fill="#191970" stroke="#191970" points="392.0001,-29.6426 388.5,-19.6427 385.0001,-29.6427 392.0001,-29.6426"/>
</g>
<!-- Node13&#45;&gt;Node4 -->
<g id="edge25" class="edge">
<title>Node13&#45;&gt;Node4</title>
<path fill="none" stroke="#191970" d="M615.3114,-246.4424C638.5802,-236.6441 669.1299,-223.2616 695.5,-210 734.4917,-190.3909 777.8211,-165.2813 806.8712,-147.9413"/>
<polygon fill="#191970" stroke="#191970" points="809.0009,-150.7453 815.7777,-142.6012 805.4013,-144.7417 809.0009,-150.7453"/>
</g>
<!-- Node13&#45;&gt;Node8 -->
<g id="edge22" class="edge">
<title>Node13&#45;&gt;Node8</title>
<path fill="none" stroke="#191970" d="M649.3822,-257.9962C761.2873,-249.2183 961.2638,-218.5784 910.5,-112 893.5162,-76.3426 877.4365,-72.385 841.5,-56 802.4917,-38.2144 682.2561,-22.0314 619.1314,-14.4814"/>
<polygon fill="#191970" stroke="#191970" points="619.4852,-10.999 609.1437,-13.302 618.6642,-17.9507 619.4852,-10.999"/>
</g>
<!-- Node13&#45;&gt;Node9 -->
<g id="edge23" class="edge">
<title>Node13&#45;&gt;Node9</title>
<path fill="none" stroke="#191970" d="M557.0058,-246.4153C542.9704,-236.3884 524.372,-222.7647 508.5,-210 483.9232,-190.2346 456.9746,-166.3397 438.2574,-149.3641"/>
<polygon fill="#191970" stroke="#191970" points="440.5204,-146.6911 430.7706,-142.5448 435.8066,-151.8662 440.5204,-146.6911"/>
</g>
<!-- Node13&#45;&gt;Node10 -->
<g id="edge19" class="edge">
<title>Node13&#45;&gt;Node10</title>
<path fill="none" stroke="#191970" d="M507.8735,-249.5765C456.9369,-239.9398 393.4422,-225.4727 371.5,-210 313.0711,-168.7984 303.1591,-144.4449 282.5,-76 277.8384,-60.5559 281.4716,-42.4453 285.7719,-29.1061"/>
<polygon fill="#191970" stroke="#191970" points="289.1098,-30.1677 289.218,-19.5734 282.5267,-27.7879 289.1098,-30.1677"/>
</g>
<!-- Node13&#45;&gt;Node11 -->
<g id="edge24" class="edge">
<title>Node13&#45;&gt;Node11</title>
<path fill="none" stroke="#191970" d="M507.9161,-247.1956C452.4899,-231.8045 379.0937,-201.2367 344.5,-143 337.4636,-131.1545 339.3692,-124.7868 344.5,-112 349.1633,-100.3782 358.3188,-90.0324 367.0762,-82.1099"/>
<polygon fill="#191970" stroke="#191970" points="369.4727,-84.6675 374.8664,-75.5484 364.9632,-79.3136 369.4727,-84.6675"/>
</g>
<!-- Node14 -->
<g id="node15" class="node">
<title>Node14</title>
<polygon fill="none" stroke="#bfbfbf" points="645.5,-118 645.5,-137 687.5,-137 687.5,-118 645.5,-118"/>
<text text-anchor="middle" x="666.5" y="-125" font-family="Helvetica,sans-Serif" font-size="10.00" fill="#000000">array</text>
</g>
<!-- Node13&#45;&gt;Node14 -->
<g id="edge20" class="edge">
<title>Node13&#45;&gt;Node14</title>
<path fill="none" stroke="#191970" d="M608.077,-246.4155C622.38,-237.6564 638.5618,-225.3136 648.5,-210 660.8005,-191.0465 664.8143,-165.0106 666.0609,-147.2908"/>
<polygon fill="#191970" stroke="#191970" points="669.56,-147.3913 666.5345,-137.2376 662.5677,-147.0618 669.56,-147.3913"/>
</g>
<!-- Node15 -->
<g id="node16" class="node">
<title>Node15</title>
<polygon fill="none" stroke="#bfbfbf" points="705.5,-118 705.5,-137 761.5,-137 761.5,-118 705.5,-118"/>
<text text-anchor="middle" x="733.5" y="-125" font-family="Helvetica,sans-Serif" font-size="10.00" fill="#000000">optional</text>
</g>
<!-- Node13&#45;&gt;Node15 -->
<g id="edge21" class="edge">
<title>Node13&#45;&gt;Node15</title>
<path fill="none" stroke="#191970" d="M611.6944,-246.3894C629.6014,-237.3187 651.4585,-224.6957 668.5,-210 690.4045,-191.1108 710.1198,-163.9551 721.9488,-146.0296"/>
<polygon fill="#191970" stroke="#191970" points="725.2062,-147.4354 727.673,-137.1317 719.3191,-143.6481 725.2062,-147.4354"/>
</g>
<!-- Node16 -->
<g id="node17" class="node">
<title>Node16</title>
<g id="a_node17"><a xlink:href="../../d4/d18/CaloRawFitter_8h.html" target="_top" xlink:title="EMCALReconstruction\l/CaloRawFitter.h">
<polygon fill="none" stroke="#000000" points="517.5,-179.5 517.5,-209.5 639.5,-209.5 639.5,-179.5 517.5,-179.5"/>
<text text-anchor="start" x="525.5" y="-197.5" font-family="Helvetica,sans-Serif" font-size="10.00" fill="#000000">EMCALReconstruction</text>
<text text-anchor="middle" x="578.5" y="-186.5" font-family="Helvetica,sans-Serif" font-size="10.00" fill="#000000">/CaloRawFitter.h</text>
</a>
</g>
</g>
<!-- Node13&#45;&gt;Node16 -->
<g id="edge26" class="edge">
<title>Node13&#45;&gt;Node16</title>
<path fill="none" stroke="#191970" d="M578.5,-246.2967C578.5,-238.5013 578.5,-228.7991 578.5,-219.9064"/>
<polygon fill="#191970" stroke="#191970" points="582.0001,-219.6431 578.5,-209.6432 575.0001,-219.6432 582.0001,-219.6431"/>
</g>
<!-- Node16&#45;&gt;Node4 -->
<g id="edge34" class="edge">
<title>Node16&#45;&gt;Node4</title>
<path fill="none" stroke="#191970" d="M637.2979,-179.4639C677.1051,-169.2842 729.8476,-155.7966 771.6223,-145.1138"/>
<polygon fill="#191970" stroke="#191970" points="772.6246,-148.4702 781.4456,-142.6017 770.8902,-141.6884 772.6246,-148.4702"/>
</g>
<!-- Node16&#45;&gt;Node7 -->
<g id="edge31" class="edge">
<title>Node16&#45;&gt;Node7</title>
<path fill="none" stroke="#191970" d="M586.6862,-179.2548C599.3551,-155.6612 623.6792,-110.3619 637.4143,-84.7828"/>
<polygon fill="#191970" stroke="#191970" points="640.625,-86.2018 642.2722,-75.7358 634.4578,-82.8902 640.625,-86.2018"/>
</g>
<!-- Node16&#45;&gt;Node8 -->
<g id="edge30" class="edge">
<title>Node16&#45;&gt;Node8</title>
<path fill="none" stroke="#191970" d="M578.5818,-179.4016C578.7619,-146.1761 579.1925,-66.7418 579.3934,-29.6748"/>
<polygon fill="#191970" stroke="#191970" points="582.8935,-29.6484 579.4478,-19.6295 575.8936,-29.6104 582.8935,-29.6484"/>
</g>
<!-- Node16&#45;&gt;Node9 -->
<g id="edge32" class="edge">
<title>Node16&#45;&gt;Node9</title>
<path fill="none" stroke="#191970" d="M541.6952,-179.4639C517.8291,-169.7137 486.5349,-156.9289 460.9598,-146.4805"/>
<polygon fill="#191970" stroke="#191970" points="462.0463,-143.1436 451.4653,-142.6017 459.3989,-149.6237 462.0463,-143.1436"/>
</g>
<!-- Node16&#45;&gt;Node10 -->
<g id="edge27" class="edge">
<title>Node16&#45;&gt;Node10</title>
<path fill="none" stroke="#191970" d="M572.6023,-179.2641C560.6256,-150.4301 530.6174,-87.9192 484.5,-56 471.6762,-47.1243 379.6823,-27.4509 328.1904,-16.9391"/>
<polygon fill="#191970" stroke="#191970" points="328.6603,-13.4632 318.1638,-14.9035 327.2675,-20.3232 328.6603,-13.4632"/>
</g>
<!-- Node16&#45;&gt;Node11 -->
<g id="edge33" class="edge">
<title>Node16&#45;&gt;Node11</title>
<path fill="none" stroke="#191970" d="M563.9197,-179.3974C546.2793,-161.6973 515.1221,-132.2201 484.5,-112 465.0629,-99.1655 441.4966,-87.8192 422.5777,-79.6064"/>
<polygon fill="#191970" stroke="#191970" points="423.727,-76.292 413.1544,-75.6059 420.9916,-82.7354 423.727,-76.292"/>
</g>
<!-- Node16&#45;&gt;Node14 -->
<g id="edge28" class="edge">
<title>Node16&#45;&gt;Node14</title>
<path fill="none" stroke="#191970" d="M598.4686,-179.2967C612.5787,-168.5537 631.4451,-154.1895 645.7308,-143.3129"/>
<polygon fill="#191970" stroke="#191970" points="648.114,-145.8975 653.9502,-137.055 643.8736,-140.328 648.114,-145.8975"/>
</g>
<!-- Node16&#45;&gt;Node15 -->
<g id="edge29" class="edge">
<title>Node16&#45;&gt;Node15</title>
<path fill="none" stroke="#191970" d="M613.285,-179.4639C639.8778,-167.969 676.2284,-152.2561 701.9757,-141.1266"/>
<polygon fill="#191970" stroke="#191970" points="703.4916,-144.2844 711.282,-137.1039 700.7141,-137.859 703.4916,-144.2844"/>
</g>
</g>
</svg>
        <g id="navigator" transform="translate(0 0)" fill="#404254">
                <rect fill="#f2f5e9" fill-opacity="0.5" stroke="#606060" stroke-width=".5" x="0" y="0" width="60" height="60"/>
                <use id="zoomplus" xlink:href="#zoomPlus" x="17" y="9" onmousedown="handleZoom(evt,'in')"/>
                <use id="zoomminus" xlink:href="#zoomMin" x="42" y="9" onmousedown="handleZoom(evt,'out')"/>
                <use id="reset" xlink:href="#resetDef" x="30" y="36" onmousedown="handleReset()"/>
                <g id="arrowUp" xlink:href="#dirArrow" transform="translate(30 24)" onmousedown="handlePan(0,-1)">
                  <use xlink:href="#rim" fill="#404040">
                        <set attributeName="fill" to="#808080" begin="arrowUp.mouseover" end="arrowUp.mouseout"/>
                  </use>
                  <path fill="none" stroke="white" stroke-width="1.5" d="M0,-3.0v7 M-2.5,-0.5L0,-3.0L2.5,-0.5"/>
                </g>
                <g id="arrowRight" xlink:href="#dirArrow" transform="rotate(90) translate(36 -43)" onmousedown="handlePan(1,0)">
                  <use xlink:href="#rim" fill="#404040">
                        <set attributeName="fill" to="#808080" begin="arrowRight.mouseover" end="arrowRight.mouseout"/>
                  </use>
                  <path fill="none" stroke="white" stroke-width="1.5" d="M0,-3.0v7 M-2.5,-0.5L0,-3.0L2.5,-0.5"/>
                </g>
                <g id="arrowDown" xlink:href="#dirArrow" transform="rotate(180) translate(-30 -48)" onmousedown="handlePan(0,1)">
                  <use xlink:href="#rim" fill="#404040">
                        <set attributeName="fill" to="#808080" begin="arrowDown.mouseover" end="arrowDown.mouseout"/>
                  </use>
                  <path fill="none" stroke="white" stroke-width="1.5" d="M0,-3.0v7 M-2.5,-0.5L0,-3.0L2.5,-0.5"/>
                </g>
                <g id="arrowLeft" xlink:href="#dirArrow" transform="rotate(270) translate(-36 17)" onmousedown="handlePan(-1,0)">
                  <use xlink:href="#rim" fill="#404040">
                        <set attributeName="fill" to="#808080" begin="arrowLeft.mouseover" end="arrowLeft.mouseout"/>
                  </use>
                  <path fill="none" stroke="white" stroke-width="1.5" d="M0,-3.0v7 M-2.5,-0.5L0,-3.0L2.5,-0.5"/>
                </g>
        </g>
        <svg viewBox="0 0 15 15" width="100%" height="30px" preserveAspectRatio="xMaxYMin meet">
         <g id="arrow_out" transform="scale(0.3 0.3)">
          <a xlink:href="CaloRawFitterGamma2_8cxx__incl_org.svg" target="_base">
           <rect id="button" ry="5" rx="5" y="6" x="6" height="38" width="38"
                fill="#f2f5e9" fill-opacity="0.5" stroke="#606060" stroke-width="1.0"/>
           <path id="arrow"
             d="M 11.500037,31.436501 C 11.940474,20.09759 22.043105,11.32322 32.158766,21.979434 L 37.068811,17.246167 C 37.068811,17.246167 37.088388,32 37.088388,32 L 22.160133,31.978069 C 22.160133,31.978069 26.997745,27.140456 26.997745,27.140456 C 18.528582,18.264221 13.291696,25.230495 11.500037,31.436501 z"
             style="fill:#404040;"/>
          </a>
         </g>
        </svg>
</svg>
