<?xml version="1.0" encoding="UTF-8" standalone="no"?>
<!DOCTYPE svg PUBLIC "-//W3C//DTD SVG 1.1//EN"
 "http://www.w3.org/Graphics/SVG/1.1/DTD/svg11.dtd">
<!-- Generated by graphviz version 2.40.1 (20161225.0304)
 -->
<!-- Title: o2::dataformats::PrimaryVertex Pages: 1 -->
<svg width="861pt" height="1713pt"
 viewBox="0.00 0.00 861.00 1713.00" xmlns="http://www.w3.org/2000/svg" xmlns:xlink="http://www.w3.org/1999/xlink">
<g id="graph0" class="graph" transform="scale(1 1) rotate(0) translate(4 1709)">
<title>o2::dataformats::PrimaryVertex</title>
<!-- Node5 -->
<g id="node1" class="node">
<title>Node5</title>
<polygon fill="#bfbfbf" stroke="#000000" points="411.5,-.5 411.5,-189.5 550.5,-189.5 550.5,-.5 411.5,-.5"/>
<text text-anchor="start" x="419.5" y="-177.5" font-family="Helvetica,sans-Serif" font-size="10.00" fill="#000000">o2::dataformats::Primary</text>
<text text-anchor="middle" x="481" y="-166.5" font-family="Helvetica,sans-Serif" font-size="10.00" fill="#000000">Vertex</text>
<polyline fill="none" stroke="#000000" points="411.5,-159.5 550.5,-159.5 "/>
<text text-anchor="middle" x="481" y="-147.5" font-family="Helvetica,sans-Serif" font-size="10.00" fill="#000000"> </text>
<polyline fill="none" stroke="#000000" points="411.5,-140.5 550.5,-140.5 "/>
<text text-anchor="start" x="419.5" y="-128.5" font-family="Helvetica,sans-Serif" font-size="10.00" fill="#000000">+ PrimaryVertex()</text>
<text text-anchor="start" x="419.5" y="-117.5" font-family="Helvetica,sans-Serif" font-size="10.00" fill="#000000">+ PrimaryVertex()</text>
<text text-anchor="start" x="419.5" y="-106.5" font-family="Helvetica,sans-Serif" font-size="10.00" fill="#000000">+ ~PrimaryVertex()</text>
<text text-anchor="start" x="419.5" y="-95.5" font-family="Helvetica,sans-Serif" font-size="10.00" fill="#000000">+ getIRMax()</text>
<text text-anchor="start" x="419.5" y="-84.5" font-family="Helvetica,sans-Serif" font-size="10.00" fill="#000000">+ setIRMax()</text>
<text text-anchor="start" x="419.5" y="-73.5" font-family="Helvetica,sans-Serif" font-size="10.00" fill="#000000">+ getIRMin()</text>
<text text-anchor="start" x="419.5" y="-62.5" font-family="Helvetica,sans-Serif" font-size="10.00" fill="#000000">+ setIRMin()</text>
<text text-anchor="start" x="419.5" y="-51.5" font-family="Helvetica,sans-Serif" font-size="10.00" fill="#000000">+ setIR()</text>
<text text-anchor="start" x="419.5" y="-40.5" font-family="Helvetica,sans-Serif" font-size="10.00" fill="#000000">+ hasUniqueIR()</text>
<text text-anchor="start" x="419.5" y="-29.5" font-family="Helvetica,sans-Serif" font-size="10.00" fill="#000000">+ print()</text>
<text text-anchor="start" x="419.5" y="-18.5" font-family="Helvetica,sans-Serif" font-size="10.00" fill="#000000">+ asString()</text>
<text text-anchor="start" x="419.5" y="-7.5" font-family="Helvetica,sans-Serif" font-size="10.00" fill="#000000"># ClassDefNV()</text>
</g>
<!-- Node6 -->
<g id="node2" class="node">
<title>Node6</title>
<g id="a_node2"><a xlink:href="../../dd/ded/classo2_1_1dataformats_1_1Vertex.html" target="_top" xlink:title="{o2::dataformats::Vertex\l\&lt; TimeStampWithError\&lt;\l float, float \&gt; \&gt;\n||+ Vertex()\l+ Vertex()\l+ ~Vertex()\l+ getNContributors()\l+ setNContributors()\l+ addContributor()\l+ getFlags()\l+ isFlagSet()\l+ setFlags()\l+ resetFrags()\l+ setChi2()\l+ getChi2()\l+ getTimeStamp()\l+ getTimeStamp()\l+ setTimeStamp()\l# ClassDefNV()\l}">
<polygon fill="none" stroke="#000000" points="293,-342 293,-586 431,-586 431,-342 293,-342"/>
<text text-anchor="start" x="301" y="-574" font-family="Helvetica,sans-Serif" font-size="10.00" fill="#000000">o2::dataformats::Vertex</text>
<text text-anchor="start" x="301" y="-563" font-family="Helvetica,sans-Serif" font-size="10.00" fill="#000000">&lt; TimeStampWithError&lt;</text>
<text text-anchor="middle" x="362" y="-552" font-family="Helvetica,sans-Serif" font-size="10.00" fill="#000000"> float, float &gt; &gt;</text>
<polyline fill="none" stroke="#000000" points="293,-545 431,-545 "/>
<text text-anchor="middle" x="362" y="-533" font-family="Helvetica,sans-Serif" font-size="10.00" fill="#000000"> </text>
<polyline fill="none" stroke="#000000" points="293,-526 431,-526 "/>
<text text-anchor="start" x="301" y="-514" font-family="Helvetica,sans-Serif" font-size="10.00" fill="#000000">+ Vertex()</text>
<text text-anchor="start" x="301" y="-503" font-family="Helvetica,sans-Serif" font-size="10.00" fill="#000000">+ Vertex()</text>
<text text-anchor="start" x="301" y="-492" font-family="Helvetica,sans-Serif" font-size="10.00" fill="#000000">+ ~Vertex()</text>
<text text-anchor="start" x="301" y="-481" font-family="Helvetica,sans-Serif" font-size="10.00" fill="#000000">+ getNContributors()</text>
<text text-anchor="start" x="301" y="-470" font-family="Helvetica,sans-Serif" font-size="10.00" fill="#000000">+ setNContributors()</text>
<text text-anchor="start" x="301" y="-459" font-family="Helvetica,sans-Serif" font-size="10.00" fill="#000000">+ addContributor()</text>
<text text-anchor="start" x="301" y="-448" font-family="Helvetica,sans-Serif" font-size="10.00" fill="#000000">+ getFlags()</text>
<text text-anchor="start" x="301" y="-437" font-family="Helvetica,sans-Serif" font-size="10.00" fill="#000000">+ isFlagSet()</text>
<text text-anchor="start" x="301" y="-426" font-family="Helvetica,sans-Serif" font-size="10.00" fill="#000000">+ setFlags()</text>
<text text-anchor="start" x="301" y="-415" font-family="Helvetica,sans-Serif" font-size="10.00" fill="#000000">+ resetFrags()</text>
<text text-anchor="start" x="301" y="-404" font-family="Helvetica,sans-Serif" font-size="10.00" fill="#000000">+ setChi2()</text>
<text text-anchor="start" x="301" y="-393" font-family="Helvetica,sans-Serif" font-size="10.00" fill="#000000">+ getChi2()</text>
<text text-anchor="start" x="301" y="-382" font-family="Helvetica,sans-Serif" font-size="10.00" fill="#000000">+ getTimeStamp()</text>
<text text-anchor="start" x="301" y="-371" font-family="Helvetica,sans-Serif" font-size="10.00" fill="#000000">+ getTimeStamp()</text>
<text text-anchor="start" x="301" y="-360" font-family="Helvetica,sans-Serif" font-size="10.00" fill="#000000">+ setTimeStamp()</text>
<text text-anchor="start" x="301" y="-349" font-family="Helvetica,sans-Serif" font-size="10.00" fill="#000000"># ClassDefNV()</text>
</a>
</g>
</g>
<!-- Node6&#45;&gt;Node5 -->
<g id="edge1" class="edge">
<title>Node6&#45;&gt;Node5</title>
<path fill="none" stroke="#191970" d="M404.4916,-332.2403C419.6775,-285.1513 436.4771,-233.0583 450.4566,-189.7103"/>
<polygon fill="none" stroke="#191970" points="401.1157,-331.3054 401.3774,-341.897 407.7778,-333.4539 401.1157,-331.3054"/>
</g>
<!-- Node7 -->
<g id="node3" class="node">
<title>Node7</title>
<g id="a_node3"><a xlink:href="../../dc/d08/classo2_1_1dataformats_1_1VertexBase.html" target="_top" xlink:title="{o2::dataformats::VertexBase\n||+ VertexBase()\l+ ~VertexBase()\l+ VertexBase()\l+ print()\l+ asString()\l+ getX()\l+ getY()\l+ getZ()\l+ getSigmaX2()\l+ getSigmaY2()\l+ getSigmaZ2()\l+ getSigmaXY()\l+ getSigmaXZ()\l+ getSigmaYZ()\l+ getCov()\l+ getXYZ()\l+ getXYZ()\l+ setX()\l+ setY()\l+ setZ()\l+ setXYZ()\l+ setPos()\l+ setSigmaX2()\l+ setSigmaY2()\l+ setSigmaZ2()\l+ setSigmaXY()\l+ setSigmaXZ()\l+ setSigmaYZ()\l+ setCov()\l+ setCov()\l# ClassDefNV()\l}">
<polygon fill="none" stroke="#000000" points="252,-1030.5 252,-1417.5 408,-1417.5 408,-1030.5 252,-1030.5"/>
<text text-anchor="middle" x="330" y="-1405.5" font-family="Helvetica,sans-Serif" font-size="10.00" fill="#000000">o2::dataformats::VertexBase</text>
<polyline fill="none" stroke="#000000" points="252,-1398.5 408,-1398.5 "/>
<text text-anchor="middle" x="330" y="-1386.5" font-family="Helvetica,sans-Serif" font-size="10.00" fill="#000000"> </text>
<polyline fill="none" stroke="#000000" points="252,-1379.5 408,-1379.5 "/>
<text text-anchor="start" x="260" y="-1367.5" font-family="Helvetica,sans-Serif" font-size="10.00" fill="#000000">+ VertexBase()</text>
<text text-anchor="start" x="260" y="-1356.5" font-family="Helvetica,sans-Serif" font-size="10.00" fill="#000000">+ ~VertexBase()</text>
<text text-anchor="start" x="260" y="-1345.5" font-family="Helvetica,sans-Serif" font-size="10.00" fill="#000000">+ VertexBase()</text>
<text text-anchor="start" x="260" y="-1334.5" font-family="Helvetica,sans-Serif" font-size="10.00" fill="#000000">+ print()</text>
<text text-anchor="start" x="260" y="-1323.5" font-family="Helvetica,sans-Serif" font-size="10.00" fill="#000000">+ asString()</text>
<text text-anchor="start" x="260" y="-1312.5" font-family="Helvetica,sans-Serif" font-size="10.00" fill="#000000">+ getX()</text>
<text text-anchor="start" x="260" y="-1301.5" font-family="Helvetica,sans-Serif" font-size="10.00" fill="#000000">+ getY()</text>
<text text-anchor="start" x="260" y="-1290.5" font-family="Helvetica,sans-Serif" font-size="10.00" fill="#000000">+ getZ()</text>
<text text-anchor="start" x="260" y="-1279.5" font-family="Helvetica,sans-Serif" font-size="10.00" fill="#000000">+ getSigmaX2()</text>
<text text-anchor="start" x="260" y="-1268.5" font-family="Helvetica,sans-Serif" font-size="10.00" fill="#000000">+ getSigmaY2()</text>
<text text-anchor="start" x="260" y="-1257.5" font-family="Helvetica,sans-Serif" font-size="10.00" fill="#000000">+ getSigmaZ2()</text>
<text text-anchor="start" x="260" y="-1246.5" font-family="Helvetica,sans-Serif" font-size="10.00" fill="#000000">+ getSigmaXY()</text>
<text text-anchor="start" x="260" y="-1235.5" font-family="Helvetica,sans-Serif" font-size="10.00" fill="#000000">+ getSigmaXZ()</text>
<text text-anchor="start" x="260" y="-1224.5" font-family="Helvetica,sans-Serif" font-size="10.00" fill="#000000">+ getSigmaYZ()</text>
<text text-anchor="start" x="260" y="-1213.5" font-family="Helvetica,sans-Serif" font-size="10.00" fill="#000000">+ getCov()</text>
<text text-anchor="start" x="260" y="-1202.5" font-family="Helvetica,sans-Serif" font-size="10.00" fill="#000000">+ getXYZ()</text>
<text text-anchor="start" x="260" y="-1191.5" font-family="Helvetica,sans-Serif" font-size="10.00" fill="#000000">+ getXYZ()</text>
<text text-anchor="start" x="260" y="-1180.5" font-family="Helvetica,sans-Serif" font-size="10.00" fill="#000000">+ setX()</text>
<text text-anchor="start" x="260" y="-1169.5" font-family="Helvetica,sans-Serif" font-size="10.00" fill="#000000">+ setY()</text>
<text text-anchor="start" x="260" y="-1158.5" font-family="Helvetica,sans-Serif" font-size="10.00" fill="#000000">+ setZ()</text>
<text text-anchor="start" x="260" y="-1147.5" font-family="Helvetica,sans-Serif" font-size="10.00" fill="#000000">+ setXYZ()</text>
<text text-anchor="start" x="260" y="-1136.5" font-family="Helvetica,sans-Serif" font-size="10.00" fill="#000000">+ setPos()</text>
<text text-anchor="start" x="260" y="-1125.5" font-family="Helvetica,sans-Serif" font-size="10.00" fill="#000000">+ setSigmaX2()</text>
<text text-anchor="start" x="260" y="-1114.5" font-family="Helvetica,sans-Serif" font-size="10.00" fill="#000000">+ setSigmaY2()</text>
<text text-anchor="start" x="260" y="-1103.5" font-family="Helvetica,sans-Serif" font-size="10.00" fill="#000000">+ setSigmaZ2()</text>
<text text-anchor="start" x="260" y="-1092.5" font-family="Helvetica,sans-Serif" font-size="10.00" fill="#000000">+ setSigmaXY()</text>
<text text-anchor="start" x="260" y="-1081.5" font-family="Helvetica,sans-Serif" font-size="10.00" fill="#000000">+ setSigmaXZ()</text>
<text text-anchor="start" x="260" y="-1070.5" font-family="Helvetica,sans-Serif" font-size="10.00" fill="#000000">+ setSigmaYZ()</text>
<text text-anchor="start" x="260" y="-1059.5" font-family="Helvetica,sans-Serif" font-size="10.00" fill="#000000">+ setCov()</text>
<text text-anchor="start" x="260" y="-1048.5" font-family="Helvetica,sans-Serif" font-size="10.00" fill="#000000">+ setCov()</text>
<text text-anchor="start" x="260" y="-1037.5" font-family="Helvetica,sans-Serif" font-size="10.00" fill="#000000"># ClassDefNV()</text>
</a>
</g>
</g>
<!-- Node7&#45;&gt;Node6 -->
<g id="edge2" class="edge">
<title>Node7&#45;&gt;Node6</title>
<path fill="none" stroke="#191970" d="M338.5923,-1019.9321C344.424,-881.429 351.9406,-702.9116 356.8611,-586.0478"/>
<polygon fill="none" stroke="#191970" points="335.0816,-1020.1151 338.1577,-1030.2535 342.0754,-1020.4096 335.0816,-1020.1151"/>
</g>
<!-- Node18 -->
<g id="node14" class="node">
<title>Node18</title>
<g id="a_node14"><a xlink:href="../../dd/ded/classo2_1_1dataformats_1_1Vertex.html" target="_top" xlink:title="{o2::dataformats::Vertex\l\&lt; Stamp \&gt;\n||+ Vertex()\l+ ~Vertex()\l+ Vertex()\l+ getNContributors()\l+ setNContributors()\l+ addContributor()\l+ getFlags()\l+ isFlagSet()\l+ setFlags()\l+ resetFrags()\l+ setChi2()\l+ getChi2()\l+ getTimeStamp()\l+ getTimeStamp()\l+ setTimeStamp()\l# ClassDefNV()\l}">
<polygon fill="none" stroke="#000000" points="139,-738.5 139,-971.5 271,-971.5 271,-738.5 139,-738.5"/>
<text text-anchor="start" x="147" y="-959.5" font-family="Helvetica,sans-Serif" font-size="10.00" fill="#000000">o2::dataformats::Vertex</text>
<text text-anchor="middle" x="205" y="-948.5" font-family="Helvetica,sans-Serif" font-size="10.00" fill="#000000">&lt; Stamp &gt;</text>
<polyline fill="none" stroke="#000000" points="139,-941.5 271,-941.5 "/>
<text text-anchor="middle" x="205" y="-929.5" font-family="Helvetica,sans-Serif" font-size="10.00" fill="#000000"> </text>
<polyline fill="none" stroke="#000000" points="139,-922.5 271,-922.5 "/>
<text text-anchor="start" x="147" y="-910.5" font-family="Helvetica,sans-Serif" font-size="10.00" fill="#000000">+ Vertex()</text>
<text text-anchor="start" x="147" y="-899.5" font-family="Helvetica,sans-Serif" font-size="10.00" fill="#000000">+ ~Vertex()</text>
<text text-anchor="start" x="147" y="-888.5" font-family="Helvetica,sans-Serif" font-size="10.00" fill="#000000">+ Vertex()</text>
<text text-anchor="start" x="147" y="-877.5" font-family="Helvetica,sans-Serif" font-size="10.00" fill="#000000">+ getNContributors()</text>
<text text-anchor="start" x="147" y="-866.5" font-family="Helvetica,sans-Serif" font-size="10.00" fill="#000000">+ setNContributors()</text>
<text text-anchor="start" x="147" y="-855.5" font-family="Helvetica,sans-Serif" font-size="10.00" fill="#000000">+ addContributor()</text>
<text text-anchor="start" x="147" y="-844.5" font-family="Helvetica,sans-Serif" font-size="10.00" fill="#000000">+ getFlags()</text>
<text text-anchor="start" x="147" y="-833.5" font-family="Helvetica,sans-Serif" font-size="10.00" fill="#000000">+ isFlagSet()</text>
<text text-anchor="start" x="147" y="-822.5" font-family="Helvetica,sans-Serif" font-size="10.00" fill="#000000">+ setFlags()</text>
<text text-anchor="start" x="147" y="-811.5" font-family="Helvetica,sans-Serif" font-size="10.00" fill="#000000">+ resetFrags()</text>
<text text-anchor="start" x="147" y="-800.5" font-family="Helvetica,sans-Serif" font-size="10.00" fill="#000000">+ setChi2()</text>
<text text-anchor="start" x="147" y="-789.5" font-family="Helvetica,sans-Serif" font-size="10.00" fill="#000000">+ getChi2()</text>
<text text-anchor="start" x="147" y="-778.5" font-family="Helvetica,sans-Serif" font-size="10.00" fill="#000000">+ getTimeStamp()</text>
<text text-anchor="start" x="147" y="-767.5" font-family="Helvetica,sans-Serif" font-size="10.00" fill="#000000">+ getTimeStamp()</text>
<text text-anchor="start" x="147" y="-756.5" font-family="Helvetica,sans-Serif" font-size="10.00" fill="#000000">+ setTimeStamp()</text>
<text text-anchor="start" x="147" y="-745.5" font-family="Helvetica,sans-Serif" font-size="10.00" fill="#000000"># ClassDefNV()</text>
</a>
</g>
</g>
<!-- Node7&#45;&gt;Node18 -->
<g id="edge15" class="edge">
<title>Node7&#45;&gt;Node18</title>
<path fill="none" stroke="#191970" d="M300.3039,-1020.5551C297.2028,-1010.115 293.7793,-999.8721 290,-990 284.851,-976.5498 278.2866,-962.9937 271.0944,-949.9297"/>
<polygon fill="none" stroke="#191970" points="296.9459,-1021.5424 303.0622,-1030.1935 303.6757,-1019.6165 296.9459,-1021.5424"/>
</g>
<!-- Node8 -->
<g id="node4" class="node">
<title>Node8</title>
<polygon fill="none" stroke="#bfbfbf" points="109.5,-1498.5 109.5,-1555.5 234.5,-1555.5 234.5,-1498.5 109.5,-1498.5"/>
<text text-anchor="middle" x="172" y="-1543.5" font-family="Helvetica,sans-Serif" font-size="10.00" fill="#000000">array&lt; float, kNCov &gt;</text>
<polyline fill="none" stroke="#bfbfbf" points="109.5,-1536.5 234.5,-1536.5 "/>
<text text-anchor="middle" x="172" y="-1524.5" font-family="Helvetica,sans-Serif" font-size="10.00" fill="#000000"> </text>
<polyline fill="none" stroke="#bfbfbf" points="109.5,-1517.5 234.5,-1517.5 "/>
<text text-anchor="middle" x="172" y="-1505.5" font-family="Helvetica,sans-Serif" font-size="10.00" fill="#000000"> </text>
</g>
<!-- Node8&#45;&gt;Node7 -->
<g id="edge3" class="edge">
<title>Node8&#45;&gt;Node7</title>
<path fill="none" stroke="#404040" d="M192.5615,-1498.1536C207.4752,-1476.6098 227.6404,-1446.152 243,-1418 244.0801,-1416.0204 245.1582,-1414.0247 246.2337,-1412.015"/>
<polygon fill="none" stroke="#404040" points="246.3673,-1411.7612 245.6237,-1404.5886 251.9586,-1401.1434 252.7022,-1408.3161 246.3673,-1411.7612"/>
<text text-anchor="middle" x="253" y="-1439" font-family="Helvetica,sans-Serif" font-size="10.00" fill="#000000"> #mCov</text>
</g>
<!-- Node9 -->
<g id="node5" class="node">
<title>Node9</title>
<g id="a_node5"><a xlink:href="../../d5/daf/classROOT_1_1Math_1_1PositionVector3D.html" target="_top" xlink:title="{ROOT::Math::PositionVector3\lD\&lt; float \&gt;\n||}">
<polygon fill="none" stroke="#000000" points="252.5,-1493 252.5,-1561 407.5,-1561 407.5,-1493 252.5,-1493"/>
<text text-anchor="start" x="260.5" y="-1549" font-family="Helvetica,sans-Serif" font-size="10.00" fill="#000000">ROOT::Math::PositionVector3</text>
<text text-anchor="middle" x="330" y="-1538" font-family="Helvetica,sans-Serif" font-size="10.00" fill="#000000">D&lt; float &gt;</text>
<polyline fill="none" stroke="#000000" points="252.5,-1531 407.5,-1531 "/>
<text text-anchor="middle" x="330" y="-1519" font-family="Helvetica,sans-Serif" font-size="10.00" fill="#000000"> </text>
<polyline fill="none" stroke="#000000" points="252.5,-1512 407.5,-1512 "/>
<text text-anchor="middle" x="330" y="-1500" font-family="Helvetica,sans-Serif" font-size="10.00" fill="#000000"> </text>
</a>
</g>
</g>
<!-- Node9&#45;&gt;Node7 -->
<g id="edge4" class="edge">
<title>Node9&#45;&gt;Node7</title>
<path fill="none" stroke="#404040" d="M330,-1492.831C330,-1475.8729 330,-1453.861 330,-1429.7352"/>
<polygon fill="none" stroke="#404040" points="330.0001,-1429.7347 326,-1423.7347 330,-1417.7347 334,-1423.7346 330.0001,-1429.7347"/>
<text text-anchor="middle" x="349.5" y="-1439" font-family="Helvetica,sans-Serif" font-size="10.00" fill="#000000"> #mPos</text>
</g>
<!-- Node10 -->
<g id="node6" class="node">
<title>Node10</title>
<g id="a_node6"><a xlink:href="../../d5/daf/classROOT_1_1Math_1_1PositionVector3D.html" target="_top" xlink:title="{ROOT::Math::PositionVector3\lD\&lt; CoordSystem, Tag \&gt;\n||}">
<polygon fill="none" stroke="#000000" points="252.5,-1636.5 252.5,-1704.5 407.5,-1704.5 407.5,-1636.5 252.5,-1636.5"/>
<text text-anchor="start" x="260.5" y="-1692.5" font-family="Helvetica,sans-Serif" font-size="10.00" fill="#000000">ROOT::Math::PositionVector3</text>
<text text-anchor="middle" x="330" y="-1681.5" font-family="Helvetica,sans-Serif" font-size="10.00" fill="#000000">D&lt; CoordSystem, Tag &gt;</text>
<polyline fill="none" stroke="#000000" points="252.5,-1674.5 407.5,-1674.5 "/>
<text text-anchor="middle" x="330" y="-1662.5" font-family="Helvetica,sans-Serif" font-size="10.00" fill="#000000"> </text>
<polyline fill="none" stroke="#000000" points="252.5,-1655.5 407.5,-1655.5 "/>
<text text-anchor="middle" x="330" y="-1643.5" font-family="Helvetica,sans-Serif" font-size="10.00" fill="#000000"> </text>
</a>
</g>
</g>
<!-- Node10&#45;&gt;Node9 -->
<g id="edge5" class="edge">
<title>Node10&#45;&gt;Node9</title>
<path fill="none" stroke="#ffa500" d="M330,-1626.2464C330,-1605.3266 330,-1580.7324 330,-1561.2607"/>
<polygon fill="#ffa500" stroke="#ffa500" points="326.5001,-1626.4925 330,-1636.4925 333.5001,-1626.4925 326.5001,-1626.4925"/>
<text text-anchor="middle" x="354" y="-1610" font-family="Helvetica,sans-Serif" font-size="10.00" fill="#000000"> &lt; float &gt;</text>
</g>
<!-- Node11 -->
<g id="node7" class="node">
<title>Node11</title>
<polygon fill="none" stroke="#bfbfbf" points="426,-1498.5 426,-1555.5 470,-1555.5 470,-1498.5 426,-1498.5"/>
<text text-anchor="middle" x="448" y="-1543.5" font-family="Helvetica,sans-Serif" font-size="10.00" fill="#000000">static</text>
<polyline fill="none" stroke="#bfbfbf" points="426,-1536.5 470,-1536.5 "/>
<text text-anchor="middle" x="448" y="-1524.5" font-family="Helvetica,sans-Serif" font-size="10.00" fill="#000000"> </text>
<polyline fill="none" stroke="#bfbfbf" points="426,-1517.5 470,-1517.5 "/>
<text text-anchor="middle" x="448" y="-1505.5" font-family="Helvetica,sans-Serif" font-size="10.00" fill="#000000"> </text>
</g>
<!-- Node11&#45;&gt;Node7 -->
<g id="edge6" class="edge">
<title>Node11&#45;&gt;Node7</title>
<path fill="none" stroke="#404040" d="M436.8988,-1498.4945C429.9907,-1480.7557 420.4194,-1456.1787 409.8198,-1428.961"/>
<polygon fill="none" stroke="#404040" points="409.7391,-1428.7536 403.8344,-1424.6141 405.3843,-1417.5716 411.289,-1421.711 409.7391,-1428.7536"/>
<text text-anchor="middle" x="438" y="-1439" font-family="Helvetica,sans-Serif" font-size="10.00" fill="#000000"> +kNCov</text>
</g>
<!-- Node12 -->
<g id="node8" class="node">
<title>Node12</title>
<g id="a_node8"><a xlink:href="../../dc/d10/classshort.html" target="_top" xlink:title="{short\n||}">
<polygon fill="none" stroke="#000000" points="365.5,-826.5 365.5,-883.5 406.5,-883.5 406.5,-826.5 365.5,-826.5"/>
<text text-anchor="middle" x="386" y="-871.5" font-family="Helvetica,sans-Serif" font-size="10.00" fill="#000000">short</text>
<polyline fill="none" stroke="#000000" points="365.5,-864.5 406.5,-864.5 "/>
<text text-anchor="middle" x="386" y="-852.5" font-family="Helvetica,sans-Serif" font-size="10.00" fill="#000000"> </text>
<polyline fill="none" stroke="#000000" points="365.5,-845.5 406.5,-845.5 "/>
<text text-anchor="middle" x="386" y="-833.5" font-family="Helvetica,sans-Serif" font-size="10.00" fill="#000000"> </text>
</a>
</g>
</g>
<!-- Node12&#45;&gt;Node6 -->
<g id="edge7" class="edge">
<title>Node12&#45;&gt;Node6</title>
<path fill="none" stroke="#404040" d="M384.2352,-826.2488C381.3101,-778.5943 375.2794,-680.3439 370.2358,-598.1752"/>
<polygon fill="none" stroke="#404040" points="370.2346,-598.154 365.8745,-592.4104 369.4993,-586.1766 373.8595,-591.9202 370.2346,-598.154"/>
<text text-anchor="middle" x="420" y="-712" font-family="Helvetica,sans-Serif" font-size="10.00" fill="#000000"> #mBits</text>
<text text-anchor="middle" x="420" y="-701" font-family="Helvetica,sans-Serif" font-size="10.00" fill="#000000">#mNContributors</text>
</g>
<!-- Node13 -->
<g id="node9" class="node">
<title>Node13</title>
<g id="a_node9"><a xlink:href="../../d4/dc3/classfloat.html" target="_top" xlink:title="{float\n||}">
<polygon fill="none" stroke="#000000" points="0,-1195.5 0,-1252.5 38,-1252.5 38,-1195.5 0,-1195.5"/>
<text text-anchor="middle" x="19" y="-1240.5" font-family="Helvetica,sans-Serif" font-size="10.00" fill="#000000">float</text>
<polyline fill="none" stroke="#000000" points="0,-1233.5 38,-1233.5 "/>
<text text-anchor="middle" x="19" y="-1221.5" font-family="Helvetica,sans-Serif" font-size="10.00" fill="#000000"> </text>
<polyline fill="none" stroke="#000000" points="0,-1214.5 38,-1214.5 "/>
<text text-anchor="middle" x="19" y="-1202.5" font-family="Helvetica,sans-Serif" font-size="10.00" fill="#000000"> </text>
</a>
</g>
</g>
<!-- Node13&#45;&gt;Node6 -->
<g id="edge8" class="edge">
<title>Node13&#45;&gt;Node6</title>
<path fill="none" stroke="#404040" d="M16.8933,-1195.3088C12.4004,-1117.2239 8.0238,-896.1619 87,-738 132.2487,-647.3826 219.1438,-568.7309 283.1942,-519.2253"/>
<polygon fill="none" stroke="#404040" points="283.3332,-519.1191 285.6727,-512.298 292.8689,-511.834 290.5294,-518.6551 283.3332,-519.1191"/>
<text text-anchor="middle" x="108.5" y="-852.5" font-family="Helvetica,sans-Serif" font-size="10.00" fill="#000000"> #mChi2</text>
</g>
<!-- Node13&#45;&gt;Node18 -->
<g id="edge16" class="edge">
<title>Node13&#45;&gt;Node18</title>
<path fill="none" stroke="#404040" d="M19.2084,-1195.1334C20.6935,-1149.0125 28.4555,-1057.0788 65,-990 80.9708,-960.685 105.4874,-933.8772 129.5668,-912.0126"/>
<polygon fill="none" stroke="#404040" points="129.7694,-911.8332 131.6112,-904.8613 138.7553,-903.8799 136.9135,-910.8518 129.7694,-911.8332"/>
<text text-anchor="middle" x="86.5" y="-998.5" font-family="Helvetica,sans-Serif" font-size="10.00" fill="#000000"> #mChi2</text>
</g>
<!-- Node14 -->
<g id="node10" class="node">
<title>Node14</title>
<g id="a_node10"><a xlink:href="../../d3/dbf/classo2_1_1dataformats_1_1TimeStampWithError.html" target="_top" xlink:title="{o2::dataformats::TimeStamp\lWithError\&lt; float, float \&gt;\n||+ TimeStampWithError()\l+ TimeStampWithError()\l+ getTimeStampError()\l+ setTimeStampError()\l}">
<polygon fill="none" stroke="#000000" points="425.5,-804.5 425.5,-905.5 582.5,-905.5 582.5,-804.5 425.5,-804.5"/>
<text text-anchor="start" x="433.5" y="-893.5" font-family="Helvetica,sans-Serif" font-size="10.00" fill="#000000">o2::dataformats::TimeStamp</text>
<text text-anchor="middle" x="504" y="-882.5" font-family="Helvetica,sans-Serif" font-size="10.00" fill="#000000">WithError&lt; float, float &gt;</text>
<polyline fill="none" stroke="#000000" points="425.5,-875.5 582.5,-875.5 "/>
<text text-anchor="middle" x="504" y="-863.5" font-family="Helvetica,sans-Serif" font-size="10.00" fill="#000000"> </text>
<polyline fill="none" stroke="#000000" points="425.5,-856.5 582.5,-856.5 "/>
<text text-anchor="start" x="433.5" y="-844.5" font-family="Helvetica,sans-Serif" font-size="10.00" fill="#000000">+ TimeStampWithError()</text>
<text text-anchor="start" x="433.5" y="-833.5" font-family="Helvetica,sans-Serif" font-size="10.00" fill="#000000">+ TimeStampWithError()</text>
<text text-anchor="start" x="433.5" y="-822.5" font-family="Helvetica,sans-Serif" font-size="10.00" fill="#000000">+ getTimeStampError()</text>
<text text-anchor="start" x="433.5" y="-811.5" font-family="Helvetica,sans-Serif" font-size="10.00" fill="#000000">+ setTimeStampError()</text>
</a>
</g>
</g>
<!-- Node14&#45;&gt;Node6 -->
<g id="edge9" class="edge">
<title>Node14&#45;&gt;Node6</title>
<path fill="none" stroke="#404040" d="M494.6418,-804.4664C488.2546,-773.3501 478.8149,-732.878 467,-698 455.7541,-664.8016 441.4962,-629.8944 427.142,-597.4684"/>
<polygon fill="none" stroke="#404040" points="426.9618,-597.065 420.8618,-593.2192 422.0656,-586.1093 428.1656,-589.955 426.9618,-597.065"/>
<text text-anchor="middle" x="512" y="-706.5" font-family="Helvetica,sans-Serif" font-size="10.00" fill="#000000"> #mTimeStamp</text>
</g>
<!-- Node15 -->
<g id="node11" class="node">
<title>Node15</title>
<g id="a_node11"><a xlink:href="../../d0/d94/classo2_1_1dataformats_1_1TimeStamp.html" target="_top" xlink:title="{o2::dataformats::TimeStamp\l\&lt; float \&gt;\n||+ GPUdDefault()\l+ GPUdDefault()\l+ GPUdi()\l+ GPUdi()\l+ GPUdi()\l+ GPUdi()\l+ ClassDefNV()\l}">
<polygon fill="none" stroke="#000000" points="426.5,-1157 426.5,-1291 583.5,-1291 583.5,-1157 426.5,-1157"/>
<text text-anchor="start" x="434.5" y="-1279" font-family="Helvetica,sans-Serif" font-size="10.00" fill="#000000">o2::dataformats::TimeStamp</text>
<text text-anchor="middle" x="505" y="-1268" font-family="Helvetica,sans-Serif" font-size="10.00" fill="#000000">&lt; float &gt;</text>
<polyline fill="none" stroke="#000000" points="426.5,-1261 583.5,-1261 "/>
<text text-anchor="middle" x="505" y="-1249" font-family="Helvetica,sans-Serif" font-size="10.00" fill="#000000"> </text>
<polyline fill="none" stroke="#000000" points="426.5,-1242 583.5,-1242 "/>
<text text-anchor="start" x="434.5" y="-1230" font-family="Helvetica,sans-Serif" font-size="10.00" fill="#000000">+ GPUdDefault()</text>
<text text-anchor="start" x="434.5" y="-1219" font-family="Helvetica,sans-Serif" font-size="10.00" fill="#000000">+ GPUdDefault()</text>
<text text-anchor="start" x="434.5" y="-1208" font-family="Helvetica,sans-Serif" font-size="10.00" fill="#000000">+ GPUdi()</text>
<text text-anchor="start" x="434.5" y="-1197" font-family="Helvetica,sans-Serif" font-size="10.00" fill="#000000">+ GPUdi()</text>
<text text-anchor="start" x="434.5" y="-1186" font-family="Helvetica,sans-Serif" font-size="10.00" fill="#000000">+ GPUdi()</text>
<text text-anchor="start" x="434.5" y="-1175" font-family="Helvetica,sans-Serif" font-size="10.00" fill="#000000">+ GPUdi()</text>
<text text-anchor="start" x="434.5" y="-1164" font-family="Helvetica,sans-Serif" font-size="10.00" fill="#000000">+ ClassDefNV()</text>
</a>
</g>
</g>
<!-- Node15&#45;&gt;Node14 -->
<g id="edge10" class="edge">
<title>Node15&#45;&gt;Node14</title>
<path fill="none" stroke="#191970" d="M504.7895,-1146.3144C504.5932,-1073.8824 504.3061,-967.9476 504.1376,-905.7785"/>
<polygon fill="none" stroke="#191970" points="501.2906,-1146.7583 504.8177,-1156.7488 508.2905,-1146.7393 501.2906,-1146.7583"/>
</g>
<!-- Node16 -->
<g id="node12" class="node">
<title>Node16</title>
<g id="a_node12"><a xlink:href="../../d0/d94/classo2_1_1dataformats_1_1TimeStamp.html" target="_top" xlink:title="{o2::dataformats::TimeStamp\&lt; T \&gt;\n||+ GPUdDefault()\l+ GPUdDefault()\l+ GPUdi()\l+ GPUdi()\l+ GPUdi()\l+ GPUdi()\l+ ClassDefNV()\l}">
<polygon fill="none" stroke="#000000" points="537.5,-1465.5 537.5,-1588.5 722.5,-1588.5 722.5,-1465.5 537.5,-1465.5"/>
<text text-anchor="middle" x="630" y="-1576.5" font-family="Helvetica,sans-Serif" font-size="10.00" fill="#000000">o2::dataformats::TimeStamp&lt; T &gt;</text>
<polyline fill="none" stroke="#000000" points="537.5,-1569.5 722.5,-1569.5 "/>
<text text-anchor="middle" x="630" y="-1557.5" font-family="Helvetica,sans-Serif" font-size="10.00" fill="#000000"> </text>
<polyline fill="none" stroke="#000000" points="537.5,-1550.5 722.5,-1550.5 "/>
<text text-anchor="start" x="545.5" y="-1538.5" font-family="Helvetica,sans-Serif" font-size="10.00" fill="#000000">+ GPUdDefault()</text>
<text text-anchor="start" x="545.5" y="-1527.5" font-family="Helvetica,sans-Serif" font-size="10.00" fill="#000000">+ GPUdDefault()</text>
<text text-anchor="start" x="545.5" y="-1516.5" font-family="Helvetica,sans-Serif" font-size="10.00" fill="#000000">+ GPUdi()</text>
<text text-anchor="start" x="545.5" y="-1505.5" font-family="Helvetica,sans-Serif" font-size="10.00" fill="#000000">+ GPUdi()</text>
<text text-anchor="start" x="545.5" y="-1494.5" font-family="Helvetica,sans-Serif" font-size="10.00" fill="#000000">+ GPUdi()</text>
<text text-anchor="start" x="545.5" y="-1483.5" font-family="Helvetica,sans-Serif" font-size="10.00" fill="#000000">+ GPUdi()</text>
<text text-anchor="start" x="545.5" y="-1472.5" font-family="Helvetica,sans-Serif" font-size="10.00" fill="#000000">+ ClassDefNV()</text>
</a>
</g>
</g>
<!-- Node16&#45;&gt;Node15 -->
<g id="edge11" class="edge">
<title>Node16&#45;&gt;Node15</title>
<path fill="none" stroke="#ffa500" d="M595.0203,-1456.0469C593.6416,-1452.9998 592.2959,-1449.9748 591,-1447 568.545,-1395.4536 545.7674,-1335.9993 529.2996,-1291.4493"/>
<polygon fill="#ffa500" stroke="#ffa500" points="591.8824,-1457.6007 599.2381,-1465.2259 598.243,-1454.6779 591.8824,-1457.6007"/>
<text text-anchor="middle" x="615" y="-1439" font-family="Helvetica,sans-Serif" font-size="10.00" fill="#000000"> &lt; float &gt;</text>
</g>
<!-- Node17 -->
<g id="node13" class="node">
<title>Node17</title>
<g id="a_node13"><a xlink:href="../../d3/dbf/classo2_1_1dataformats_1_1TimeStampWithError.html" target="_top" xlink:title="{o2::dataformats::TimeStamp\lWithError\&lt; T, E \&gt;\n||+ TimeStampWithError()\l+ TimeStampWithError()\l+ getTimeStampError()\l+ setTimeStampError()\l}">
<polygon fill="none" stroke="#000000" points="601.5,-1173.5 601.5,-1274.5 758.5,-1274.5 758.5,-1173.5 601.5,-1173.5"/>
<text text-anchor="start" x="609.5" y="-1262.5" font-family="Helvetica,sans-Serif" font-size="10.00" fill="#000000">o2::dataformats::TimeStamp</text>
<text text-anchor="middle" x="680" y="-1251.5" font-family="Helvetica,sans-Serif" font-size="10.00" fill="#000000">WithError&lt; T, E &gt;</text>
<polyline fill="none" stroke="#000000" points="601.5,-1244.5 758.5,-1244.5 "/>
<text text-anchor="middle" x="680" y="-1232.5" font-family="Helvetica,sans-Serif" font-size="10.00" fill="#000000"> </text>
<polyline fill="none" stroke="#000000" points="601.5,-1225.5 758.5,-1225.5 "/>
<text text-anchor="start" x="609.5" y="-1213.5" font-family="Helvetica,sans-Serif" font-size="10.00" fill="#000000">+ TimeStampWithError()</text>
<text text-anchor="start" x="609.5" y="-1202.5" font-family="Helvetica,sans-Serif" font-size="10.00" fill="#000000">+ TimeStampWithError()</text>
<text text-anchor="start" x="609.5" y="-1191.5" font-family="Helvetica,sans-Serif" font-size="10.00" fill="#000000">+ getTimeStampError()</text>
<text text-anchor="start" x="609.5" y="-1180.5" font-family="Helvetica,sans-Serif" font-size="10.00" fill="#000000">+ setTimeStampError()</text>
</a>
</g>
</g>
<!-- Node16&#45;&gt;Node17 -->
<g id="edge13" class="edge">
<title>Node16&#45;&gt;Node17</title>
<path fill="none" stroke="#191970" d="M641.8518,-1455.1781C651.0287,-1399.566 663.5094,-1323.9327 671.6578,-1274.5535"/>
<polygon fill="none" stroke="#191970" points="638.3534,-1454.8818 640.1785,-1465.3182 645.26,-1456.0215 638.3534,-1454.8818"/>
</g>
<!-- Node17&#45;&gt;Node14 -->
<g id="edge12" class="edge">
<title>Node17&#45;&gt;Node14</title>
<path fill="none" stroke="#ffa500" d="M653.9697,-1163.9356C637.0621,-1125.4352 614.285,-1074.5142 593,-1030 572.7823,-987.7178 548.6075,-940.3708 530.559,-905.5975"/>
<polygon fill="#ffa500" stroke="#ffa500" points="650.9175,-1165.6908 658.1374,-1173.4448 657.3288,-1162.8808 650.9175,-1165.6908"/>
<text text-anchor="middle" x="621" y="-998.5" font-family="Helvetica,sans-Serif" font-size="10.00" fill="#000000"> &lt; float, float &gt;</text>
</g>
<!-- Node18&#45;&gt;Node6 -->
<g id="edge14" class="edge">
<title>Node18&#45;&gt;Node6</title>
<path fill="none" stroke="#ffa500" d="M199.4437,-728.173C200.911,-717.8513 203.0361,-707.6778 206,-698 223.443,-641.0444 259.69,-585.2305 292.8571,-542.4053"/>
<polygon fill="#ffa500" stroke="#ffa500" points="195.9691,-727.753 198.2326,-738.1032 202.9176,-728.6005 195.9691,-727.753"/>
<text text-anchor="start" x="206" y="-712" font-family="Helvetica,sans-Serif" font-size="10.00" fill="#000000"> &lt; TimeStampWithError</text>
<text text-anchor="middle" x="264.5" y="-701" font-family="Helvetica,sans-Serif" font-size="10.00" fill="#000000">&lt; float, float &gt; &gt;</text>
</g>
<!-- Node19 -->
<g id="node15" class="node">
<title>Node19</title>
<polygon fill="none" stroke="#bfbfbf" points="71.5,-1195.5 71.5,-1252.5 132.5,-1252.5 132.5,-1195.5 71.5,-1195.5"/>
<text text-anchor="middle" x="102" y="-1240.5" font-family="Helvetica,sans-Serif" font-size="10.00" fill="#000000">unsigned</text>
<polyline fill="none" stroke="#bfbfbf" points="71.5,-1233.5 132.5,-1233.5 "/>
<text text-anchor="middle" x="102" y="-1221.5" font-family="Helvetica,sans-Serif" font-size="10.00" fill="#000000"> </text>
<polyline fill="none" stroke="#bfbfbf" points="71.5,-1214.5 132.5,-1214.5 "/>
<text text-anchor="middle" x="102" y="-1202.5" font-family="Helvetica,sans-Serif" font-size="10.00" fill="#000000"> </text>
</g>
<!-- Node19&#45;&gt;Node18 -->
<g id="edge17" class="edge">
<title>Node19&#45;&gt;Node18</title>
<path fill="none" stroke="#404040" d="M99.2594,-1195.3834C95.9496,-1150.38 93.442,-1060.8879 117,-990 121.1207,-977.6005 126.6667,-965.2321 132.9808,-953.2962"/>
<polygon fill="none" stroke="#404040" points="133.1637,-952.9658 132.5708,-945.7791 138.9766,-942.4676 139.5696,-949.6543 133.1637,-952.9658"/>
<text text-anchor="middle" x="160" y="-1004" font-family="Helvetica,sans-Serif" font-size="10.00" fill="#000000"> #mBits</text>
<text text-anchor="middle" x="160" y="-993" font-family="Helvetica,sans-Serif" font-size="10.00" fill="#000000">#mNContributors</text>
</g>
<!-- Node20 -->
<g id="node16" class="node">
<title>Node20</title>
<polygon fill="none" stroke="#bfbfbf" points="186,-1195.5 186,-1252.5 234,-1252.5 234,-1195.5 186,-1195.5"/>
<text text-anchor="middle" x="210" y="-1240.5" font-family="Helvetica,sans-Serif" font-size="10.00" fill="#000000">Stamp</text>
<polyline fill="none" stroke="#bfbfbf" points="186,-1233.5 234,-1233.5 "/>
<text text-anchor="middle" x="210" y="-1221.5" font-family="Helvetica,sans-Serif" font-size="10.00" fill="#000000"> </text>
<polyline fill="none" stroke="#bfbfbf" points="186,-1214.5 234,-1214.5 "/>
<text text-anchor="middle" x="210" y="-1202.5" font-family="Helvetica,sans-Serif" font-size="10.00" fill="#000000"> </text>
</g>
<!-- Node20&#45;&gt;Node18 -->
<g id="edge18" class="edge">
<title>Node20&#45;&gt;Node18</title>
<path fill="none" stroke="#404040" d="M209.6118,-1195.3522C209.0009,-1150.2665 207.7782,-1060.0305 206.7452,-983.796"/>
<polygon fill="none" stroke="#404040" points="206.7439,-983.689 202.6629,-977.7437 206.5812,-971.6901 210.6621,-977.6353 206.7439,-983.689"/>
<text text-anchor="middle" x="247" y="-998.5" font-family="Helvetica,sans-Serif" font-size="10.00" fill="#000000"> #mTimeStamp</text>
</g>
<!-- Node21 -->
<g id="node17" class="node">
<title>Node21</title>
<g id="a_node17"><a xlink:href="../../d1/d21/structo2_1_1InteractionRecord.html" target="_top" xlink:title="{o2::InteractionRecord\n||+ InteractionRecord()\l+ InteractionRecord()\l+ InteractionRecord()\l+ InteractionRecord()\l+ clear()\l+ isDummy()\l+ setFromNS()\l+ bc2ns()\l+ operator==()\l+ operator!=()\l+ differenceInBC()\l+ differenceInBCns()\l+ toLong()\l+ setFromLong()\l+ operator\&gt;()\l+ operator\&gt;=()\l+ operator\&lt;()\l+ operator\&lt;=()\l+ operator&#45;&#45;()\l+ operator&#45;&#45;()\l+ operator++()\l+ operator++()\l+ operator+=()\l+ operator&#45;=()\l+ operator+=()\l+ operator&#45;=()\l+ operator+()\l+ operator&#45;()\l+ operator+()\l+ operator&#45;()\l+ print()\l+ asString()\l+ ClassDefNV()\l+ bc2ns()\l+ ns2bc()\l}">
<polygon fill="none" stroke="#000000" points="614.5,-248.5 614.5,-679.5 735.5,-679.5 735.5,-248.5 614.5,-248.5"/>
<text text-anchor="middle" x="675" y="-667.5" font-family="Helvetica,sans-Serif" font-size="10.00" fill="#000000">o2::InteractionRecord</text>
<polyline fill="none" stroke="#000000" points="614.5,-660.5 735.5,-660.5 "/>
<text text-anchor="middle" x="675" y="-648.5" font-family="Helvetica,sans-Serif" font-size="10.00" fill="#000000"> </text>
<polyline fill="none" stroke="#000000" points="614.5,-641.5 735.5,-641.5 "/>
<text text-anchor="start" x="622.5" y="-629.5" font-family="Helvetica,sans-Serif" font-size="10.00" fill="#000000">+ InteractionRecord()</text>
<text text-anchor="start" x="622.5" y="-618.5" font-family="Helvetica,sans-Serif" font-size="10.00" fill="#000000">+ InteractionRecord()</text>
<text text-anchor="start" x="622.5" y="-607.5" font-family="Helvetica,sans-Serif" font-size="10.00" fill="#000000">+ InteractionRecord()</text>
<text text-anchor="start" x="622.5" y="-596.5" font-family="Helvetica,sans-Serif" font-size="10.00" fill="#000000">+ InteractionRecord()</text>
<text text-anchor="start" x="622.5" y="-585.5" font-family="Helvetica,sans-Serif" font-size="10.00" fill="#000000">+ clear()</text>
<text text-anchor="start" x="622.5" y="-574.5" font-family="Helvetica,sans-Serif" font-size="10.00" fill="#000000">+ isDummy()</text>
<text text-anchor="start" x="622.5" y="-563.5" font-family="Helvetica,sans-Serif" font-size="10.00" fill="#000000">+ setFromNS()</text>
<text text-anchor="start" x="622.5" y="-552.5" font-family="Helvetica,sans-Serif" font-size="10.00" fill="#000000">+ bc2ns()</text>
<text text-anchor="start" x="622.5" y="-541.5" font-family="Helvetica,sans-Serif" font-size="10.00" fill="#000000">+ operator==()</text>
<text text-anchor="start" x="622.5" y="-530.5" font-family="Helvetica,sans-Serif" font-size="10.00" fill="#000000">+ operator!=()</text>
<text text-anchor="start" x="622.5" y="-519.5" font-family="Helvetica,sans-Serif" font-size="10.00" fill="#000000">+ differenceInBC()</text>
<text text-anchor="start" x="622.5" y="-508.5" font-family="Helvetica,sans-Serif" font-size="10.00" fill="#000000">+ differenceInBCns()</text>
<text text-anchor="start" x="622.5" y="-497.5" font-family="Helvetica,sans-Serif" font-size="10.00" fill="#000000">+ toLong()</text>
<text text-anchor="start" x="622.5" y="-486.5" font-family="Helvetica,sans-Serif" font-size="10.00" fill="#000000">+ setFromLong()</text>
<text text-anchor="start" x="622.5" y="-475.5" font-family="Helvetica,sans-Serif" font-size="10.00" fill="#000000">+ operator&gt;()</text>
<text text-anchor="start" x="622.5" y="-464.5" font-family="Helvetica,sans-Serif" font-size="10.00" fill="#000000">+ operator&gt;=()</text>
<text text-anchor="start" x="622.5" y="-453.5" font-family="Helvetica,sans-Serif" font-size="10.00" fill="#000000">+ operator&lt;()</text>
<text text-anchor="start" x="622.5" y="-442.5" font-family="Helvetica,sans-Serif" font-size="10.00" fill="#000000">+ operator&lt;=()</text>
<text text-anchor="start" x="622.5" y="-431.5" font-family="Helvetica,sans-Serif" font-size="10.00" fill="#000000">+ operator&#45;&#45;()</text>
<text text-anchor="start" x="622.5" y="-420.5" font-family="Helvetica,sans-Serif" font-size="10.00" fill="#000000">+ operator&#45;&#45;()</text>
<text text-anchor="start" x="622.5" y="-409.5" font-family="Helvetica,sans-Serif" font-size="10.00" fill="#000000">+ operator++()</text>
<text text-anchor="start" x="622.5" y="-398.5" font-family="Helvetica,sans-Serif" font-size="10.00" fill="#000000">+ operator++()</text>
<text text-anchor="start" x="622.5" y="-387.5" font-family="Helvetica,sans-Serif" font-size="10.00" fill="#000000">+ operator+=()</text>
<text text-anchor="start" x="622.5" y="-376.5" font-family="Helvetica,sans-Serif" font-size="10.00" fill="#000000">+ operator&#45;=()</text>
<text text-anchor="start" x="622.5" y="-365.5" font-family="Helvetica,sans-Serif" font-size="10.00" fill="#000000">+ operator+=()</text>
<text text-anchor="start" x="622.5" y="-354.5" font-family="Helvetica,sans-Serif" font-size="10.00" fill="#000000">+ operator&#45;=()</text>
<text text-anchor="start" x="622.5" y="-343.5" font-family="Helvetica,sans-Serif" font-size="10.00" fill="#000000">+ operator+()</text>
<text text-anchor="start" x="622.5" y="-332.5" font-family="Helvetica,sans-Serif" font-size="10.00" fill="#000000">+ operator&#45;()</text>
<text text-anchor="start" x="622.5" y="-321.5" font-family="Helvetica,sans-Serif" font-size="10.00" fill="#000000">+ operator+()</text>
<text text-anchor="start" x="622.5" y="-310.5" font-family="Helvetica,sans-Serif" font-size="10.00" fill="#000000">+ operator&#45;()</text>
<text text-anchor="start" x="622.5" y="-299.5" font-family="Helvetica,sans-Serif" font-size="10.00" fill="#000000">+ print()</text>
<text text-anchor="start" x="622.5" y="-288.5" font-family="Helvetica,sans-Serif" font-size="10.00" fill="#000000">+ asString()</text>
<text text-anchor="start" x="622.5" y="-277.5" font-family="Helvetica,sans-Serif" font-size="10.00" fill="#000000">+ ClassDefNV()</text>
<text text-anchor="start" x="622.5" y="-266.5" font-family="Helvetica,sans-Serif" font-size="10.00" fill="#000000">+ bc2ns()</text>
<text text-anchor="start" x="622.5" y="-255.5" font-family="Helvetica,sans-Serif" font-size="10.00" fill="#000000">+ ns2bc()</text>
</a>
</g>
</g>
<!-- Node21&#45;&gt;Node5 -->
<g id="edge19" class="edge">
<title>Node21&#45;&gt;Node5</title>
<path fill="none" stroke="#404040" d="M614.4152,-348.7639C589.455,-301.2881 560.7316,-246.6544 536.3446,-200.2689"/>
<polygon fill="none" stroke="#404040" points="536.3128,-200.2083 529.9802,-196.759 530.7285,-189.5868 537.0612,-193.0361 536.3128,-200.2083"/>
<text text-anchor="middle" x="575" y="-222" font-family="Helvetica,sans-Serif" font-size="10.00" fill="#000000"> #mIRMax</text>
<text text-anchor="middle" x="575" y="-211" font-family="Helvetica,sans-Serif" font-size="10.00" fill="#000000">#mIRMin</text>
</g>
<!-- Node22 -->
<g id="node18" class="node">
<title>Node22</title>
<polygon fill="none" stroke="#bfbfbf" points="601,-826.5 601,-883.5 651,-883.5 651,-826.5 601,-826.5"/>
<text text-anchor="middle" x="626" y="-871.5" font-family="Helvetica,sans-Serif" font-size="10.00" fill="#000000">double</text>
<polyline fill="none" stroke="#bfbfbf" points="601,-864.5 651,-864.5 "/>
<text text-anchor="middle" x="626" y="-852.5" font-family="Helvetica,sans-Serif" font-size="10.00" fill="#000000"> </text>
<polyline fill="none" stroke="#bfbfbf" points="601,-845.5 651,-845.5 "/>
<text text-anchor="middle" x="626" y="-833.5" font-family="Helvetica,sans-Serif" font-size="10.00" fill="#000000"> </text>
</g>
<!-- Node22&#45;&gt;Node21 -->
<g id="edge20" class="edge">
<title>Node22&#45;&gt;Node21</title>
<path fill="none" stroke="#404040" d="M624.5021,-826.258C623.2486,-794.7046 622.3298,-742.5947 627,-698 627.219,-695.9087 627.4482,-693.8085 627.687,-691.7005"/>
<polygon fill="none" stroke="#404040" points="627.7156,-691.4637 624.4653,-685.0266 629.1571,-679.5506 632.4074,-685.9876 627.7156,-691.4637"/>
<text text-anchor="middle" x="665" y="-706.5" font-family="Helvetica,sans-Serif" font-size="10.00" fill="#000000"> +DummyTime</text>
</g>
<!-- Node23 -->
<g id="node19" class="node">
<title>Node23</title>
<polygon fill="none" stroke="#bfbfbf" points="697,-826.5 697,-883.5 753,-883.5 753,-826.5 697,-826.5"/>
<text text-anchor="middle" x="725" y="-871.5" font-family="Helvetica,sans-Serif" font-size="10.00" fill="#000000">uint16_t</text>
<polyline fill="none" stroke="#bfbfbf" points="697,-864.5 753,-864.5 "/>
<text text-anchor="middle" x="725" y="-852.5" font-family="Helvetica,sans-Serif" font-size="10.00" fill="#000000"> </text>
<polyline fill="none" stroke="#bfbfbf" points="697,-845.5 753,-845.5 "/>
<text text-anchor="middle" x="725" y="-833.5" font-family="Helvetica,sans-Serif" font-size="10.00" fill="#000000"> </text>
</g>
<!-- Node23&#45;&gt;Node21 -->
<g id="edge21" class="edge">
<title>Node23&#45;&gt;Node21</title>
<path fill="none" stroke="#404040" d="M721.3234,-826.2488C717.4574,-796.0168 710.9874,-745.4217 704.0905,-691.488"/>
<polygon fill="none" stroke="#404040" points="704.0885,-691.4717 699.3597,-686.0275 702.5663,-679.5686 707.2951,-685.0127 704.0885,-691.4717"/>
<text text-anchor="middle" x="739" y="-712" font-family="Helvetica,sans-Serif" font-size="10.00" fill="#000000"> +DummyBC</text>
<text text-anchor="middle" x="739" y="-701" font-family="Helvetica,sans-Serif" font-size="10.00" fill="#000000">+bc</text>
</g>
<!-- Node24 -->
<g id="node20" class="node">
<title>Node24</title>
<g id="a_node20"><a xlink:href="../../d3/d87/classuint32__t.html" target="_top" xlink:title="{uint32_t\n||}">
<polygon fill="none" stroke="#000000" points="784,-826.5 784,-883.5 840,-883.5 840,-826.5 784,-826.5"/>
<text text-anchor="middle" x="812" y="-871.5" font-family="Helvetica,sans-Serif" font-size="10.00" fill="#000000">uint32_t</text>
<polyline fill="none" stroke="#000000" points="784,-864.5 840,-864.5 "/>
<text text-anchor="middle" x="812" y="-852.5" font-family="Helvetica,sans-Serif" font-size="10.00" fill="#000000"> </text>
<polyline fill="none" stroke="#000000" points="784,-845.5 840,-845.5 "/>
<text text-anchor="middle" x="812" y="-833.5" font-family="Helvetica,sans-Serif" font-size="10.00" fill="#000000"> </text>
</a>
</g>
</g>
<!-- Node24&#45;&gt;Node21 -->
<g id="edge22" class="edge">
<title>Node24&#45;&gt;Node21</title>
<path fill="none" stroke="#404040" d="M806.7688,-826.2283C800.6307,-794.4272 789.4319,-741.8944 775,-698 765.0585,-667.7631 752.7924,-636.0119 740.2976,-605.9936"/>
<polygon fill="none" stroke="#404040" points="740.1505,-605.6435 734.1386,-601.6615 735.502,-594.5805 741.5139,-598.5625 740.1505,-605.6435"/>
<text text-anchor="middle" x="817" y="-712" font-family="Helvetica,sans-Serif" font-size="10.00" fill="#000000"> +orbit</text>
<text text-anchor="middle" x="817" y="-701" font-family="Helvetica,sans-Serif" font-size="10.00" fill="#000000">+DummyOrbit</text>
</g>
</g>
</svg>
