<?xml version="1.0" encoding="UTF-8" standalone="no"?>
<!DOCTYPE svg PUBLIC "-//W3C//DTD SVG 1.1//EN"
 "http://www.w3.org/Graphics/SVG/1.1/DTD/svg11.dtd">
<!-- Generated by graphviz version 2.40.1 (20161225.0304)
 -->
<!-- Title: /home/travis/build/AliceO2Group/AliceO2/Detectors/FIT/FT0/raw/include/FT0Raw/DigitBlockFT0.h Pages: 1 -->
<svg width="650pt" height="350pt"
 viewBox="0.00 0.00 650.00 350.00" xmlns="http://www.w3.org/2000/svg" xmlns:xlink="http://www.w3.org/1999/xlink">
<g id="graph0" class="graph" transform="scale(1 1) rotate(0) translate(4 346)">
<title>/home/travis/build/AliceO2Group/AliceO2/Detectors/FIT/FT0/raw/include/FT0Raw/DigitBlockFT0.h</title>
<!-- Node34 -->
<g id="node1" class="node">
<title>Node34</title>
<polygon fill="#bfbfbf" stroke="#000000" points="225.5,-289.5 225.5,-341.5 401.5,-341.5 401.5,-289.5 225.5,-289.5"/>
<text text-anchor="start" x="233.5" y="-329.5" font-family="Helvetica,sans-Serif" font-size="10.00" fill="#000000">/home/travis/build</text>
<text text-anchor="start" x="233.5" y="-318.5" font-family="Helvetica,sans-Serif" font-size="10.00" fill="#000000">/AliceO2Group/AliceO2</text>
<text text-anchor="start" x="233.5" y="-307.5" font-family="Helvetica,sans-Serif" font-size="10.00" fill="#000000">/Detectors/FIT/FT0/raw</text>
<text text-anchor="middle" x="313.5" y="-296.5" font-family="Helvetica,sans-Serif" font-size="10.00" fill="#000000">/include/FT0Raw/DigitBlockFT0.h</text>
</g>
<!-- Node35 -->
<g id="node2" class="node">
<title>Node35</title>
<g id="a_node2"><a xlink:href="../../d2/dbb/DataBlockReader_8h.html" target="_top" xlink:title="/home/travis/build\l/AliceO2Group/AliceO2\l/Detectors/FIT/FT0/raw\l/include/FT0Raw/DataBlockReader.h">
<polygon fill="none" stroke="#000000" points="48,-195 48,-247 239,-247 239,-195 48,-195"/>
<text text-anchor="start" x="56" y="-235" font-family="Helvetica,sans-Serif" font-size="10.00" fill="#000000">/home/travis/build</text>
<text text-anchor="start" x="56" y="-224" font-family="Helvetica,sans-Serif" font-size="10.00" fill="#000000">/AliceO2Group/AliceO2</text>
<text text-anchor="start" x="56" y="-213" font-family="Helvetica,sans-Serif" font-size="10.00" fill="#000000">/Detectors/FIT/FT0/raw</text>
<text text-anchor="middle" x="143.5" y="-202" font-family="Helvetica,sans-Serif" font-size="10.00" fill="#000000">/include/FT0Raw/DataBlockReader.h</text>
</a>
</g>
</g>
<!-- Node34&#45;&gt;Node35 -->
<g id="edge1" class="edge">
<title>Node34&#45;&gt;Node35</title>
<path fill="none" stroke="#191970" d="M257.791,-284.5324C236.0427,-272.4429 211.3796,-258.7331 190.545,-247.1515"/>
<polygon fill="#191970" stroke="#191970" points="256.1558,-287.6278 266.5967,-289.4273 259.5569,-281.5095 256.1558,-287.6278"/>
</g>
<!-- Node37 -->
<g id="node4" class="node">
<title>Node37</title>
<g id="a_node4"><a xlink:href="../../d4/dfa/FT0DataReaderDPLSpec_8h.html" target="_top" xlink:title="/home/travis/build\l/AliceO2Group/AliceO2\l/Detectors/FIT/FT0/workflow\l/include/FT0Workflow/FT0DataReader\lDPLSpec.h">
<polygon fill="none" stroke="#000000" points="169,-89.5 169,-152.5 366,-152.5 366,-89.5 169,-89.5"/>
<text text-anchor="start" x="177" y="-140.5" font-family="Helvetica,sans-Serif" font-size="10.00" fill="#000000">/home/travis/build</text>
<text text-anchor="start" x="177" y="-129.5" font-family="Helvetica,sans-Serif" font-size="10.00" fill="#000000">/AliceO2Group/AliceO2</text>
<text text-anchor="start" x="177" y="-118.5" font-family="Helvetica,sans-Serif" font-size="10.00" fill="#000000">/Detectors/FIT/FT0/workflow</text>
<text text-anchor="start" x="177" y="-107.5" font-family="Helvetica,sans-Serif" font-size="10.00" fill="#000000">/include/FT0Workflow/FT0DataReader</text>
<text text-anchor="middle" x="267.5" y="-96.5" font-family="Helvetica,sans-Serif" font-size="10.00" fill="#000000">DPLSpec.h</text>
</a>
</g>
</g>
<!-- Node34&#45;&gt;Node37 -->
<g id="edge11" class="edge">
<title>Node34&#45;&gt;Node37</title>
<path fill="none" stroke="#191970" d="M296.1936,-279.8937C292.5345,-271.2514 289.0219,-261.9255 286.5,-253 277.0255,-219.4678 272.1242,-179.7409 269.6936,-152.6921"/>
<polygon fill="#191970" stroke="#191970" points="293.1052,-281.5648 300.342,-289.3029 299.5103,-278.7408 293.1052,-281.5648"/>
</g>
<!-- Node41 -->
<g id="node8" class="node">
<title>Node41</title>
<g id="a_node8"><a xlink:href="../../db/d5f/DigitBlockFT0_8cxx.html" target="_top" xlink:title="/home/travis/build\l/AliceO2Group/AliceO2\l/Detectors/FIT/FT0/raw\l/src/DigitBlockFT0.cxx">
<polygon fill="none" stroke="#000000" points="296,-195 296,-247 423,-247 423,-195 296,-195"/>
<text text-anchor="start" x="304" y="-235" font-family="Helvetica,sans-Serif" font-size="10.00" fill="#000000">/home/travis/build</text>
<text text-anchor="start" x="304" y="-224" font-family="Helvetica,sans-Serif" font-size="10.00" fill="#000000">/AliceO2Group/AliceO2</text>
<text text-anchor="start" x="304" y="-213" font-family="Helvetica,sans-Serif" font-size="10.00" fill="#000000">/Detectors/FIT/FT0/raw</text>
<text text-anchor="middle" x="359.5" y="-202" font-family="Helvetica,sans-Serif" font-size="10.00" fill="#000000">/src/DigitBlockFT0.cxx</text>
</a>
</g>
</g>
<!-- Node34&#45;&gt;Node41 -->
<g id="edge7" class="edge">
<title>Node34&#45;&gt;Node41</title>
<path fill="none" stroke="#191970" d="M330.7042,-280.1565C336.0032,-269.2706 341.7412,-257.4827 346.6903,-247.3157"/>
<polygon fill="#191970" stroke="#191970" points="327.4213,-278.9041 326.1915,-289.4273 333.7152,-281.9678 327.4213,-278.9041"/>
</g>
<!-- Node42 -->
<g id="node9" class="node">
<title>Node42</title>
<g id="a_node9"><a xlink:href="../../d5/db7/FT0DataProcessDPLSpec_8h.html" target="_top" xlink:title="/home/travis/build\l/AliceO2Group/AliceO2\l/Detectors/FIT/FT0/workflow\l/include/FT0Workflow/FT0DataProcess\lDPLSpec.h">
<polygon fill="none" stroke="#000000" points="441,-189.5 441,-252.5 642,-252.5 642,-189.5 441,-189.5"/>
<text text-anchor="start" x="449" y="-240.5" font-family="Helvetica,sans-Serif" font-size="10.00" fill="#000000">/home/travis/build</text>
<text text-anchor="start" x="449" y="-229.5" font-family="Helvetica,sans-Serif" font-size="10.00" fill="#000000">/AliceO2Group/AliceO2</text>
<text text-anchor="start" x="449" y="-218.5" font-family="Helvetica,sans-Serif" font-size="10.00" fill="#000000">/Detectors/FIT/FT0/workflow</text>
<text text-anchor="start" x="449" y="-207.5" font-family="Helvetica,sans-Serif" font-size="10.00" fill="#000000">/include/FT0Workflow/FT0DataProcess</text>
<text text-anchor="middle" x="541.5" y="-196.5" font-family="Helvetica,sans-Serif" font-size="10.00" fill="#000000">DPLSpec.h</text>
</a>
</g>
</g>
<!-- Node34&#45;&gt;Node42 -->
<g id="edge8" class="edge">
<title>Node34&#45;&gt;Node42</title>
<path fill="none" stroke="#191970" d="M385.9482,-285.4721C411.2853,-274.9706 439.7948,-263.1541 465.4196,-252.5333"/>
<polygon fill="#191970" stroke="#191970" points="384.3034,-282.3651 376.4056,-289.4273 386.9836,-288.8316 384.3034,-282.3651"/>
</g>
<!-- Node36 -->
<g id="node3" class="node">
<title>Node36</title>
<g id="a_node3"><a xlink:href="../../d9/da5/DataBlockReader_8cxx.html" target="_top" xlink:title="/home/travis/build\l/AliceO2Group/AliceO2\l/Detectors/FIT/FT0/raw\l/src/DataBlockReader.cxx">
<polygon fill="none" stroke="#000000" points="10.5,-95 10.5,-147 150.5,-147 150.5,-95 10.5,-95"/>
<text text-anchor="start" x="18.5" y="-135" font-family="Helvetica,sans-Serif" font-size="10.00" fill="#000000">/home/travis/build</text>
<text text-anchor="start" x="18.5" y="-124" font-family="Helvetica,sans-Serif" font-size="10.00" fill="#000000">/AliceO2Group/AliceO2</text>
<text text-anchor="start" x="18.5" y="-113" font-family="Helvetica,sans-Serif" font-size="10.00" fill="#000000">/Detectors/FIT/FT0/raw</text>
<text text-anchor="middle" x="80.5" y="-102" font-family="Helvetica,sans-Serif" font-size="10.00" fill="#000000">/src/DataBlockReader.cxx</text>
</a>
</g>
</g>
<!-- Node35&#45;&gt;Node36 -->
<g id="edge2" class="edge">
<title>Node35&#45;&gt;Node36</title>
<path fill="none" stroke="#191970" d="M121.6921,-186.3843C113.6021,-173.543 104.5671,-159.2017 97.0249,-147.2299"/>
<polygon fill="#191970" stroke="#191970" points="118.8202,-188.3919 127.112,-194.9872 124.7429,-184.6606 118.8202,-188.3919"/>
</g>
<!-- Node35&#45;&gt;Node37 -->
<g id="edge3" class="edge">
<title>Node35&#45;&gt;Node37</title>
<path fill="none" stroke="#191970" d="M183.9225,-188.4012C198.1801,-176.9031 214.1771,-164.0023 228.3295,-152.5891"/>
<polygon fill="#191970" stroke="#191970" points="181.3428,-185.9852 175.7558,-194.9872 185.7371,-191.4341 181.3428,-185.9852"/>
</g>
<!-- Node38 -->
<g id="node5" class="node">
<title>Node38</title>
<g id="a_node5"><a xlink:href="../../d2/dc4/FT0DataReaderDPLSpec_8cxx.html" target="_top" xlink:title="/home/travis/build\l/AliceO2Group/AliceO2\l/Detectors/FIT/FT0/workflow\l/src/FT0DataReaderDPLSpec.cxx">
<polygon fill="none" stroke="#000000" points="0,-.5 0,-52.5 173,-52.5 173,-.5 0,-.5"/>
<text text-anchor="start" x="8" y="-40.5" font-family="Helvetica,sans-Serif" font-size="10.00" fill="#000000">/home/travis/build</text>
<text text-anchor="start" x="8" y="-29.5" font-family="Helvetica,sans-Serif" font-size="10.00" fill="#000000">/AliceO2Group/AliceO2</text>
<text text-anchor="start" x="8" y="-18.5" font-family="Helvetica,sans-Serif" font-size="10.00" fill="#000000">/Detectors/FIT/FT0/workflow</text>
<text text-anchor="middle" x="86.5" y="-7.5" font-family="Helvetica,sans-Serif" font-size="10.00" fill="#000000">/src/FT0DataReaderDPLSpec.cxx</text>
</a>
</g>
</g>
<!-- Node37&#45;&gt;Node38 -->
<g id="edge4" class="edge">
<title>Node37&#45;&gt;Node38</title>
<path fill="none" stroke="#191970" d="M197.9859,-84.7067C177.4725,-73.9967 155.4368,-62.4919 136.4171,-52.5617"/>
<polygon fill="#191970" stroke="#191970" points="196.4935,-87.8759 206.978,-89.4015 199.7333,-81.6707 196.4935,-87.8759"/>
</g>
<!-- Node39 -->
<g id="node6" class="node">
<title>Node39</title>
<g id="a_node6"><a xlink:href="../../d6/d99/FT0Workflow_8cxx.html" target="_top" xlink:title="/home/travis/build\l/AliceO2Group/AliceO2\l/Detectors/FIT/FT0/workflow\l/src/FT0Workflow.cxx">
<polygon fill="none" stroke="#000000" points="361.5,-.5 361.5,-52.5 513.5,-52.5 513.5,-.5 361.5,-.5"/>
<text text-anchor="start" x="369.5" y="-40.5" font-family="Helvetica,sans-Serif" font-size="10.00" fill="#000000">/home/travis/build</text>
<text text-anchor="start" x="369.5" y="-29.5" font-family="Helvetica,sans-Serif" font-size="10.00" fill="#000000">/AliceO2Group/AliceO2</text>
<text text-anchor="start" x="369.5" y="-18.5" font-family="Helvetica,sans-Serif" font-size="10.00" fill="#000000">/Detectors/FIT/FT0/workflow</text>
<text text-anchor="middle" x="437.5" y="-7.5" font-family="Helvetica,sans-Serif" font-size="10.00" fill="#000000">/src/FT0Workflow.cxx</text>
</a>
</g>
</g>
<!-- Node37&#45;&gt;Node39 -->
<g id="edge5" class="edge">
<title>Node37&#45;&gt;Node39</title>
<path fill="none" stroke="#191970" d="M333.4964,-84.3138C352.5082,-73.7455 372.8567,-62.4341 390.4682,-52.6442"/>
<polygon fill="#191970" stroke="#191970" points="331.6203,-81.3522 324.5805,-89.27 335.0214,-87.4704 331.6203,-81.3522"/>
</g>
<!-- Node40 -->
<g id="node7" class="node">
<title>Node40</title>
<g id="a_node7"><a xlink:href="../../d3/d63/FIT_2FT0_2workflow_2src_2RecoWorkflow_8cxx.html" target="_top" xlink:title="/home/travis/build\l/AliceO2Group/AliceO2\l/Detectors/FIT/FT0/workflow\l/src/RecoWorkflow.cxx">
<polygon fill="none" stroke="#000000" points="191.5,-.5 191.5,-52.5 343.5,-52.5 343.5,-.5 191.5,-.5"/>
<text text-anchor="start" x="199.5" y="-40.5" font-family="Helvetica,sans-Serif" font-size="10.00" fill="#000000">/home/travis/build</text>
<text text-anchor="start" x="199.5" y="-29.5" font-family="Helvetica,sans-Serif" font-size="10.00" fill="#000000">/AliceO2Group/AliceO2</text>
<text text-anchor="start" x="199.5" y="-18.5" font-family="Helvetica,sans-Serif" font-size="10.00" fill="#000000">/Detectors/FIT/FT0/workflow</text>
<text text-anchor="middle" x="267.5" y="-7.5" font-family="Helvetica,sans-Serif" font-size="10.00" fill="#000000">/src/RecoWorkflow.cxx</text>
</a>
</g>
</g>
<!-- Node37&#45;&gt;Node40 -->
<g id="edge6" class="edge">
<title>Node37&#45;&gt;Node40</title>
<path fill="none" stroke="#191970" d="M267.5,-79.2457C267.5,-70.2008 267.5,-60.8836 267.5,-52.6442"/>
<polygon fill="#191970" stroke="#191970" points="264.0001,-79.2699 267.5,-89.27 271.0001,-79.27 264.0001,-79.2699"/>
</g>
<!-- Node42&#45;&gt;Node39 -->
<g id="edge10" class="edge">
<title>Node42&#45;&gt;Node39</title>
<path fill="none" stroke="#191970" d="M481.6225,-182.8073C471.8805,-174.1119 462.9006,-164.1126 456.5,-153 438.5435,-121.8243 435.7046,-79.4482 436.0408,-52.5316"/>
<polygon fill="#191970" stroke="#191970" points="479.6611,-185.7314 489.564,-189.4976 484.1712,-180.3779 479.6611,-185.7314"/>
</g>
<!-- Node43 -->
<g id="node10" class="node">
<title>Node43</title>
<g id="a_node10"><a xlink:href="../../d7/d18/FT0DataProcessDPLSpec_8cxx.html" target="_top" xlink:title="/home/travis/build\l/AliceO2Group/AliceO2\l/Detectors/FIT/FT0/workflow\l/src/FT0DataProcessDPLSpec.cxx">
<polygon fill="none" stroke="#000000" points="465,-95 465,-147 642,-147 642,-95 465,-95"/>
<text text-anchor="start" x="473" y="-135" font-family="Helvetica,sans-Serif" font-size="10.00" fill="#000000">/home/travis/build</text>
<text text-anchor="start" x="473" y="-124" font-family="Helvetica,sans-Serif" font-size="10.00" fill="#000000">/AliceO2Group/AliceO2</text>
<text text-anchor="start" x="473" y="-113" font-family="Helvetica,sans-Serif" font-size="10.00" fill="#000000">/Detectors/FIT/FT0/workflow</text>
<text text-anchor="middle" x="553.5" y="-102" font-family="Helvetica,sans-Serif" font-size="10.00" fill="#000000">/src/FT0DataProcessDPLSpec.cxx</text>
</a>
</g>
</g>
<!-- Node42&#45;&gt;Node43 -->
<g id="edge9" class="edge">
<title>Node42&#45;&gt;Node43</title>
<path fill="none" stroke="#191970" d="M546.5204,-179.1631C547.8256,-168.2863 549.1944,-156.8798 550.3706,-147.078"/>
<polygon fill="#191970" stroke="#191970" points="543.0133,-179.0136 545.2969,-189.3594 549.9635,-179.8476 543.0133,-179.0136"/>
</g>
</g>
</svg>
