<?xml version="1.0" encoding="UTF-8" standalone="no"?>
<!DOCTYPE svg PUBLIC "-//W3C//DTD SVG 1.1//EN"
 "http://www.w3.org/Graphics/SVG/1.1/DTD/svg11.dtd">
<!-- Generated by graphviz version 2.40.1 (20161225.0304)
 -->
<!-- Title: TaskD0 Pages: 1 -->
<!--zoomable 937 -->
<svg id="main" version="1.1" xmlns="http://www.w3.org/2000/svg" xmlns:xlink="http://www.w3.org/1999/xlink" xml:space="preserve" onload="init(evt)">
<style type="text/css"><![CDATA[
.edge:hover path { stroke: red; }
.edge:hover polygon { stroke: red; fill: red; }
]]></style>
<script type="text/javascript"><![CDATA[
var edges = document.getElementsByTagName('g');
if (edges && edges.length) {
  for (var i=0;i<edges.length;i++) {
    if (edges[i].id.substr(0,4)=='edge') {
      edges[i].setAttribute('class','edge');
    }
  }
}
]]></script>
        <defs>
                <circle id="rim" cx="0" cy="0" r="7"/>
                <circle id="rim2" cx="0" cy="0" r="3.5"/>
                <g id="zoomPlus">
                        <use xlink:href="#rim" fill="#404040">
                                <set attributeName="fill" to="#808080" begin="zoomplus.mouseover" end="zoomplus.mouseout"/>
                        </use>
                        <path d="M-4,0h8M0,-4v8" fill="none" stroke="white" stroke-width="1.5" pointer-events="none"/>
                </g>
                <g id="zoomMin">
                        <use xlink:href="#rim" fill="#404040">
                                <set attributeName="fill" to="#808080" begin="zoomminus.mouseover" end="zoomminus.mouseout"/>
                        </use>
                        <path d="M-4,0h8" fill="none" stroke="white" stroke-width="1.5" pointer-events="none"/>
                </g>
                <g id="dirArrow">
                        <path fill="none" stroke="white" stroke-width="1.5" d="M0,-3.0v7 M-2.5,-0.5L0,-3.0L2.5,-0.5"/>
                </g>
               <g id="resetDef">
                       <use xlink:href="#rim2" fill="#404040">
                               <set attributeName="fill" to="#808080" begin="reset.mouseover" end="reset.mouseout"/>
                       </use>
               </g>
        </defs>

<script type="text/javascript">
var viewWidth = 1110;
var viewHeight = 937;
var sectionId = 'dynsection-0';
</script>
<script xlink:href="../../svgpan.js"/>
<svg id="graph" class="graph">
<g id="viewport">
<title>TaskD0</title>
<!-- Node1 -->
<g id="node1" class="node">
<title>Node1</title>
<polygon fill="#bfbfbf" stroke="#000000" points="636.5,-.5 636.5,-68.5 709.5,-68.5 709.5,-.5 636.5,-.5"/>
<text text-anchor="middle" x="673" y="-56.5" font-family="Helvetica,sans-Serif" font-size="10.00" fill="#000000">TaskD0</text>
<polyline fill="none" stroke="#000000" points="636.5,-49.5 709.5,-49.5 "/>
<text text-anchor="start" x="644.5" y="-37.5" font-family="Helvetica,sans-Serif" font-size="10.00" fill="#000000">+ hmass</text>
<text text-anchor="start" x="644.5" y="-26.5" font-family="Helvetica,sans-Serif" font-size="10.00" fill="#000000">+ hptcand</text>
<polyline fill="none" stroke="#000000" points="636.5,-19.5 709.5,-19.5 "/>
<text text-anchor="start" x="644.5" y="-7.5" font-family="Helvetica,sans-Serif" font-size="10.00" fill="#000000">+ process()</text>
</g>
<!-- Node2 -->
<g id="node2" class="node">
<title>Node2</title>
<g id="a_node2"><a xlink:href="../../d8/d71/structo2_1_1framework_1_1Configurable.html" target="_top" xlink:title="{o2::framework::Configurable\l\&lt; int \&gt;\n||+ Configurable()\l+ operator int()\l+ operator&#45;\&gt;()\l}">
<polygon fill="none" stroke="#000000" points="53.5,-491 53.5,-581 208.5,-581 208.5,-491 53.5,-491"/>
<text text-anchor="start" x="61.5" y="-569" font-family="Helvetica,sans-Serif" font-size="10.00" fill="#000000">o2::framework::Configurable</text>
<text text-anchor="middle" x="131" y="-558" font-family="Helvetica,sans-Serif" font-size="10.00" fill="#000000">&lt; int &gt;</text>
<polyline fill="none" stroke="#000000" points="53.5,-551 208.5,-551 "/>
<text text-anchor="middle" x="131" y="-539" font-family="Helvetica,sans-Serif" font-size="10.00" fill="#000000"> </text>
<polyline fill="none" stroke="#000000" points="53.5,-532 208.5,-532 "/>
<text text-anchor="start" x="61.5" y="-520" font-family="Helvetica,sans-Serif" font-size="10.00" fill="#000000">+ Configurable()</text>
<text text-anchor="start" x="61.5" y="-509" font-family="Helvetica,sans-Serif" font-size="10.00" fill="#000000">+ operator int()</text>
<text text-anchor="start" x="61.5" y="-498" font-family="Helvetica,sans-Serif" font-size="10.00" fill="#000000">+ operator&#45;&gt;()</text>
</a>
</g>
</g>
<!-- Node2&#45;&gt;Node1 -->
<g id="edge1" class="edge">
<title>Node2&#45;&gt;Node1</title>
<path fill="none" stroke="#404040" d="M180.0548,-490.6107C284.1646,-394.2803 525.9543,-170.5579 627.1598,-76.9149"/>
<polygon fill="none" stroke="#404040" points="627.4107,-76.6827 629.0981,-69.6718 636.2187,-68.5329 634.5313,-75.5438 627.4107,-76.6827"/>
<text text-anchor="middle" x="522" y="-318.5" font-family="Helvetica,sans-Serif" font-size="10.00" fill="#000000"> +d_selectionFlagD0</text>
<text text-anchor="middle" x="522" y="-307.5" font-family="Helvetica,sans-Serif" font-size="10.00" fill="#000000">+d_selectionFlagD0bar</text>
</g>
<!-- Node3 -->
<g id="node3" class="node">
<title>Node3</title>
<polygon fill="none" stroke="#bfbfbf" points="478.5,-855 478.5,-912 507.5,-912 507.5,-855 478.5,-855"/>
<text text-anchor="middle" x="493" y="-900" font-family="Helvetica,sans-Serif" font-size="10.00" fill="#000000">int</text>
<polyline fill="none" stroke="#bfbfbf" points="478.5,-893 507.5,-893 "/>
<text text-anchor="middle" x="493" y="-881" font-family="Helvetica,sans-Serif" font-size="10.00" fill="#000000"> </text>
<polyline fill="none" stroke="#bfbfbf" points="478.5,-874 507.5,-874 "/>
<text text-anchor="middle" x="493" y="-862" font-family="Helvetica,sans-Serif" font-size="10.00" fill="#000000"> </text>
</g>
<!-- Node3&#45;&gt;Node2 -->
<g id="edge2" class="edge">
<title>Node3&#45;&gt;Node2</title>
<path fill="none" stroke="#404040" d="M478.3769,-882.0489C434.2684,-876.8921 301.2058,-855.4974 230,-780 193.7409,-741.5556 212.5643,-716.091 193,-667 183.0335,-641.9918 170.5681,-615.0053 159.4334,-592.0624"/>
<polygon fill="none" stroke="#404040" points="159.3678,-591.9282 153.1368,-588.2984 154.0909,-581.1507 160.3219,-584.7805 159.3678,-591.9282"/>
<text text-anchor="middle" x="249.5" y="-732" font-family="Helvetica,sans-Serif" font-size="10.00" fill="#000000"> +value</text>
<text text-anchor="middle" x="249.5" y="-721" font-family="Helvetica,sans-Serif" font-size="10.00" fill="#000000">+name</text>
<text text-anchor="middle" x="249.5" y="-710" font-family="Helvetica,sans-Serif" font-size="10.00" fill="#000000">+help</text>
</g>
<!-- Node4 -->
<g id="node4" class="node">
<title>Node4</title>
<g id="a_node4"><a xlink:href="../../d8/d71/structo2_1_1framework_1_1Configurable.html" target="_top" xlink:title="{o2::framework::Configurable\&lt; T \&gt;\n||+ Configurable()\l+ operator T()\l+ operator&#45;\&gt;()\l}">
<polygon fill="none" stroke="#000000" points="0,-684 0,-763 184,-763 184,-684 0,-684"/>
<text text-anchor="middle" x="92" y="-751" font-family="Helvetica,sans-Serif" font-size="10.00" fill="#000000">o2::framework::Configurable&lt; T &gt;</text>
<polyline fill="none" stroke="#000000" points="0,-744 184,-744 "/>
<text text-anchor="middle" x="92" y="-732" font-family="Helvetica,sans-Serif" font-size="10.00" fill="#000000"> </text>
<polyline fill="none" stroke="#000000" points="0,-725 184,-725 "/>
<text text-anchor="start" x="8" y="-713" font-family="Helvetica,sans-Serif" font-size="10.00" fill="#000000">+ Configurable()</text>
<text text-anchor="start" x="8" y="-702" font-family="Helvetica,sans-Serif" font-size="10.00" fill="#000000">+ operator T()</text>
<text text-anchor="start" x="8" y="-691" font-family="Helvetica,sans-Serif" font-size="10.00" fill="#000000">+ operator&#45;&gt;()</text>
</a>
</g>
</g>
<!-- Node3&#45;&gt;Node4 -->
<g id="edge4" class="edge">
<title>Node3&#45;&gt;Node4</title>
<path fill="none" stroke="#404040" d="M478.2446,-882.0326C421.7911,-876.2082 219.9697,-853.4021 166,-820 147.3914,-808.4831 131.72,-790.4715 119.6581,-773.1131"/>
<polygon fill="none" stroke="#404040" points="119.6022,-773.0285 112.9549,-770.2332 112.9785,-763.0221 119.6258,-765.8174 119.6022,-773.0285"/>
<text text-anchor="middle" x="186" y="-812" font-family="Helvetica,sans-Serif" font-size="10.00" fill="#000000"> +name</text>
<text text-anchor="middle" x="186" y="-801" font-family="Helvetica,sans-Serif" font-size="10.00" fill="#000000">+help</text>
</g>
<!-- Node6 -->
<g id="node6" class="node">
<title>Node6</title>
<g id="a_node6"><a xlink:href="../../d4/d79/structo2_1_1framework_1_1OutputObj.html" target="_top" xlink:title="{o2::framework::OutputObj\l\&lt; TH1F \&gt;\n||+ spec()\l+ OutputObj()\l+ OutputObj()\l+ setObject()\l+ setObject()\l+ setObject()\l+ setObject()\l+ setHash()\l+ operator&#45;\&gt;()\l+ operator*()\l+ ref()\l}">
<polygon fill="none" stroke="#000000" points="601.5,-226.5 601.5,-404.5 744.5,-404.5 744.5,-226.5 601.5,-226.5"/>
<text text-anchor="start" x="609.5" y="-392.5" font-family="Helvetica,sans-Serif" font-size="10.00" fill="#000000">o2::framework::OutputObj</text>
<text text-anchor="middle" x="673" y="-381.5" font-family="Helvetica,sans-Serif" font-size="10.00" fill="#000000">&lt; TH1F &gt;</text>
<polyline fill="none" stroke="#000000" points="601.5,-374.5 744.5,-374.5 "/>
<text text-anchor="middle" x="673" y="-362.5" font-family="Helvetica,sans-Serif" font-size="10.00" fill="#000000"> </text>
<polyline fill="none" stroke="#000000" points="601.5,-355.5 744.5,-355.5 "/>
<text text-anchor="start" x="609.5" y="-343.5" font-family="Helvetica,sans-Serif" font-size="10.00" fill="#000000">+ spec()</text>
<text text-anchor="start" x="609.5" y="-332.5" font-family="Helvetica,sans-Serif" font-size="10.00" fill="#000000">+ OutputObj()</text>
<text text-anchor="start" x="609.5" y="-321.5" font-family="Helvetica,sans-Serif" font-size="10.00" fill="#000000">+ OutputObj()</text>
<text text-anchor="start" x="609.5" y="-310.5" font-family="Helvetica,sans-Serif" font-size="10.00" fill="#000000">+ setObject()</text>
<text text-anchor="start" x="609.5" y="-299.5" font-family="Helvetica,sans-Serif" font-size="10.00" fill="#000000">+ setObject()</text>
<text text-anchor="start" x="609.5" y="-288.5" font-family="Helvetica,sans-Serif" font-size="10.00" fill="#000000">+ setObject()</text>
<text text-anchor="start" x="609.5" y="-277.5" font-family="Helvetica,sans-Serif" font-size="10.00" fill="#000000">+ setObject()</text>
<text text-anchor="start" x="609.5" y="-266.5" font-family="Helvetica,sans-Serif" font-size="10.00" fill="#000000">+ setHash()</text>
<text text-anchor="start" x="609.5" y="-255.5" font-family="Helvetica,sans-Serif" font-size="10.00" fill="#000000">+ operator&#45;&gt;()</text>
<text text-anchor="start" x="609.5" y="-244.5" font-family="Helvetica,sans-Serif" font-size="10.00" fill="#000000">+ operator*()</text>
<text text-anchor="start" x="609.5" y="-233.5" font-family="Helvetica,sans-Serif" font-size="10.00" fill="#000000">+ ref()</text>
</a>
</g>
</g>
<!-- Node3&#45;&gt;Node6 -->
<g id="edge9" class="edge">
<title>Node3&#45;&gt;Node6</title>
<path fill="none" stroke="#404040" d="M507.7639,-881.4644C548.0251,-875.0495 659.9836,-851.2621 709,-780 750.3396,-719.8987 734.5082,-523.8657 722,-452 719.96,-440.2793 717.0038,-428.2352 713.5392,-416.3863"/>
<polygon fill="none" stroke="#404040" points="713.4485,-416.0913 707.8611,-411.5326 709.9201,-404.6217 715.5074,-409.1803 713.4485,-416.0913"/>
<text text-anchor="middle" x="754" y="-641" font-family="Helvetica,sans-Serif" font-size="10.00" fill="#000000"> +label</text>
</g>
<!-- Node10 -->
<g id="node10" class="node">
<title>Node10</title>
<g id="a_node10"><a xlink:href="../../da/d96/structo2_1_1framework_1_1InputSpec.html" target="_top" xlink:title="{o2::framework::InputSpec\n||+ InputSpec()\l+ InputSpec()\l+ InputSpec()\l+ InputSpec()\l+ InputSpec()\l+ operator==()\l}">
<polygon fill="none" stroke="#000000" points="818,-667.5 818,-779.5 960,-779.5 960,-667.5 818,-667.5"/>
<text text-anchor="middle" x="889" y="-767.5" font-family="Helvetica,sans-Serif" font-size="10.00" fill="#000000">o2::framework::InputSpec</text>
<polyline fill="none" stroke="#000000" points="818,-760.5 960,-760.5 "/>
<text text-anchor="middle" x="889" y="-748.5" font-family="Helvetica,sans-Serif" font-size="10.00" fill="#000000"> </text>
<polyline fill="none" stroke="#000000" points="818,-741.5 960,-741.5 "/>
<text text-anchor="start" x="826" y="-729.5" font-family="Helvetica,sans-Serif" font-size="10.00" fill="#000000">+ InputSpec()</text>
<text text-anchor="start" x="826" y="-718.5" font-family="Helvetica,sans-Serif" font-size="10.00" fill="#000000">+ InputSpec()</text>
<text text-anchor="start" x="826" y="-707.5" font-family="Helvetica,sans-Serif" font-size="10.00" fill="#000000">+ InputSpec()</text>
<text text-anchor="start" x="826" y="-696.5" font-family="Helvetica,sans-Serif" font-size="10.00" fill="#000000">+ InputSpec()</text>
<text text-anchor="start" x="826" y="-685.5" font-family="Helvetica,sans-Serif" font-size="10.00" fill="#000000">+ InputSpec()</text>
<text text-anchor="start" x="826" y="-674.5" font-family="Helvetica,sans-Serif" font-size="10.00" fill="#000000">+ operator==()</text>
</a>
</g>
</g>
<!-- Node3&#45;&gt;Node10 -->
<g id="edge14" class="edge">
<title>Node3&#45;&gt;Node10</title>
<path fill="none" stroke="#404040" d="M507.6501,-881.6101C547.6033,-876.09 661.2628,-857.9285 748,-820 774.6874,-808.3301 781.0265,-800.0674 807.9935,-780.814"/>
<polygon fill="none" stroke="#404040" points="808.1463,-780.7073 810.7792,-773.9941 817.9888,-773.8424 815.3559,-780.5557 808.1463,-780.7073"/>
<text text-anchor="middle" x="809" y="-806.5" font-family="Helvetica,sans-Serif" font-size="10.00" fill="#000000"> +binding</text>
</g>
<!-- Node14 -->
<g id="node14" class="node">
<title>Node14</title>
<g id="a_node14"><a xlink:href="../../d4/d79/structo2_1_1framework_1_1OutputObj.html" target="_top" xlink:title="{o2::framework::OutputObj\&lt; T \&gt;\n||+ OutputObj()\l+ OutputObj()\l+ setObject()\l+ setObject()\l+ setObject()\l+ setObject()\l+ setHash()\l+ spec()\l+ operator&#45;\&gt;()\l+ operator*()\l+ ref()\l}">
<polygon fill="none" stroke="#000000" points="331,-452.5 331,-619.5 503,-619.5 503,-452.5 331,-452.5"/>
<text text-anchor="middle" x="417" y="-607.5" font-family="Helvetica,sans-Serif" font-size="10.00" fill="#000000">o2::framework::OutputObj&lt; T &gt;</text>
<polyline fill="none" stroke="#000000" points="331,-600.5 503,-600.5 "/>
<text text-anchor="middle" x="417" y="-588.5" font-family="Helvetica,sans-Serif" font-size="10.00" fill="#000000"> </text>
<polyline fill="none" stroke="#000000" points="331,-581.5 503,-581.5 "/>
<text text-anchor="start" x="339" y="-569.5" font-family="Helvetica,sans-Serif" font-size="10.00" fill="#000000">+ OutputObj()</text>
<text text-anchor="start" x="339" y="-558.5" font-family="Helvetica,sans-Serif" font-size="10.00" fill="#000000">+ OutputObj()</text>
<text text-anchor="start" x="339" y="-547.5" font-family="Helvetica,sans-Serif" font-size="10.00" fill="#000000">+ setObject()</text>
<text text-anchor="start" x="339" y="-536.5" font-family="Helvetica,sans-Serif" font-size="10.00" fill="#000000">+ setObject()</text>
<text text-anchor="start" x="339" y="-525.5" font-family="Helvetica,sans-Serif" font-size="10.00" fill="#000000">+ setObject()</text>
<text text-anchor="start" x="339" y="-514.5" font-family="Helvetica,sans-Serif" font-size="10.00" fill="#000000">+ setObject()</text>
<text text-anchor="start" x="339" y="-503.5" font-family="Helvetica,sans-Serif" font-size="10.00" fill="#000000">+ setHash()</text>
<text text-anchor="start" x="339" y="-492.5" font-family="Helvetica,sans-Serif" font-size="10.00" fill="#000000">+ spec()</text>
<text text-anchor="start" x="339" y="-481.5" font-family="Helvetica,sans-Serif" font-size="10.00" fill="#000000">+ operator&#45;&gt;()</text>
<text text-anchor="start" x="339" y="-470.5" font-family="Helvetica,sans-Serif" font-size="10.00" fill="#000000">+ operator*()</text>
<text text-anchor="start" x="339" y="-459.5" font-family="Helvetica,sans-Serif" font-size="10.00" fill="#000000">+ ref()</text>
</a>
</g>
</g>
<!-- Node3&#45;&gt;Node14 -->
<g id="edge19" class="edge">
<title>Node3&#45;&gt;Node14</title>
<path fill="none" stroke="#404040" d="M492.0152,-854.8292C489.7353,-808.2878 482.2608,-713.8622 458,-638 457.2806,-635.7504 456.5349,-633.48 455.7672,-631.196"/>
<polygon fill="none" stroke="#404040" points="455.7093,-631.0294 449.9592,-626.6778 451.7646,-619.6963 457.5147,-624.048 455.7093,-631.0294"/>
<text text-anchor="middle" x="504" y="-721" font-family="Helvetica,sans-Serif" font-size="10.00" fill="#000000"> +label</text>
</g>
<!-- Node4&#45;&gt;Node2 -->
<g id="edge3" class="edge">
<title>Node4&#45;&gt;Node2</title>
<path fill="none" stroke="#ffa500" d="M102.3172,-673.898C108.2928,-645.1692 115.7593,-609.2727 121.5763,-581.3063"/>
<polygon fill="#ffa500" stroke="#ffa500" points="98.8807,-673.2328 100.2709,-683.7361 105.7341,-674.6584 98.8807,-673.2328"/>
<text text-anchor="middle" x="129.5" y="-641" font-family="Helvetica,sans-Serif" font-size="10.00" fill="#000000"> &lt; int &gt;</text>
</g>
<!-- Node5 -->
<g id="node5" class="node">
<title>Node5</title>
<polygon fill="none" stroke="#bfbfbf" points="77.5,-855 77.5,-912 106.5,-912 106.5,-855 77.5,-855"/>
<text text-anchor="middle" x="92" y="-900" font-family="Helvetica,sans-Serif" font-size="10.00" fill="#000000">T</text>
<polyline fill="none" stroke="#bfbfbf" points="77.5,-893 106.5,-893 "/>
<text text-anchor="middle" x="92" y="-881" font-family="Helvetica,sans-Serif" font-size="10.00" fill="#000000"> </text>
<polyline fill="none" stroke="#bfbfbf" points="77.5,-874 106.5,-874 "/>
<text text-anchor="middle" x="92" y="-862" font-family="Helvetica,sans-Serif" font-size="10.00" fill="#000000"> </text>
</g>
<!-- Node5&#45;&gt;Node4 -->
<g id="edge5" class="edge">
<title>Node5&#45;&gt;Node4</title>
<path fill="none" stroke="#404040" d="M92,-854.8952C92,-832.8577 92,-801.7968 92,-775.4075"/>
<polygon fill="none" stroke="#404040" points="92.0001,-775.2754 88,-769.2755 92,-763.2754 96,-769.2754 92.0001,-775.2754"/>
<text text-anchor="middle" x="111.5" y="-806.5" font-family="Helvetica,sans-Serif" font-size="10.00" fill="#000000"> +value</text>
</g>
<!-- Node6&#45;&gt;Node1 -->
<g id="edge6" class="edge">
<title>Node6&#45;&gt;Node1</title>
<path fill="none" stroke="#404040" d="M673,-226.2037C673,-177.9151 673,-120.2781 673,-80.8971"/>
<polygon fill="none" stroke="#404040" points="673.0001,-80.7876 669,-74.7876 673,-68.7876 677,-74.7875 673.0001,-80.7876"/>
<text text-anchor="middle" x="719" y="-200" font-family="Helvetica,sans-Serif" font-size="10.00" fill="#000000"> +hselectionstatus</text>
<text text-anchor="middle" x="719" y="-189" font-family="Helvetica,sans-Serif" font-size="10.00" fill="#000000">+hdeclengthxy</text>
<text text-anchor="middle" x="719" y="-178" font-family="Helvetica,sans-Serif" font-size="10.00" fill="#000000">+hdeclength</text>
<text text-anchor="middle" x="719" y="-167" font-family="Helvetica,sans-Serif" font-size="10.00" fill="#000000">+hCTS</text>
<text text-anchor="middle" x="719" y="-156" font-family="Helvetica,sans-Serif" font-size="10.00" fill="#000000">+hEta</text>
<text text-anchor="middle" x="719" y="-145" font-family="Helvetica,sans-Serif" font-size="10.00" fill="#000000">+hCt</text>
<text text-anchor="middle" x="719" y="-134" font-family="Helvetica,sans-Serif" font-size="10.00" fill="#000000">+hd0d0</text>
<text text-anchor="middle" x="719" y="-123" font-family="Helvetica,sans-Serif" font-size="10.00" fill="#000000">+hd0</text>
<text text-anchor="middle" x="719" y="-112" font-family="Helvetica,sans-Serif" font-size="10.00" fill="#000000">+hptprong0</text>
<text text-anchor="middle" x="719" y="-101" font-family="Helvetica,sans-Serif" font-size="10.00" fill="#000000">+hptprong1</text>
<text text-anchor="middle" x="719" y="-90" font-family="Helvetica,sans-Serif" font-size="10.00" fill="#000000">...</text>
</g>
<!-- Node7 -->
<g id="node7" class="node">
<title>Node7</title>
<polygon fill="none" stroke="#bfbfbf" points="561.5,-695 561.5,-752 700.5,-752 700.5,-695 561.5,-695"/>
<text text-anchor="middle" x="631" y="-740" font-family="Helvetica,sans-Serif" font-size="10.00" fill="#000000">OutputObjHandlingPolicy</text>
<polyline fill="none" stroke="#bfbfbf" points="561.5,-733 700.5,-733 "/>
<text text-anchor="middle" x="631" y="-721" font-family="Helvetica,sans-Serif" font-size="10.00" fill="#000000"> </text>
<polyline fill="none" stroke="#bfbfbf" points="561.5,-714 700.5,-714 "/>
<text text-anchor="middle" x="631" y="-702" font-family="Helvetica,sans-Serif" font-size="10.00" fill="#000000"> </text>
</g>
<!-- Node7&#45;&gt;Node6 -->
<g id="edge7" class="edge">
<title>Node7&#45;&gt;Node6</title>
<path fill="none" stroke="#404040" d="M644.2421,-694.7655C649.8597,-681.1862 655.8318,-664.5709 659,-649 674.6363,-572.1521 677.6534,-483.3576 677.0234,-416.7214"/>
<polygon fill="none" stroke="#404040" points="677.0212,-416.5437 672.9437,-410.5961 676.8656,-404.5447 680.9431,-410.4923 677.0212,-416.5437"/>
<text text-anchor="middle" x="697.5" y="-533.5" font-family="Helvetica,sans-Serif" font-size="10.00" fill="#000000"> +policy</text>
</g>
<!-- Node7&#45;&gt;Node14 -->
<g id="edge17" class="edge">
<title>Node7&#45;&gt;Node14</title>
<path fill="none" stroke="#404040" d="M590.5636,-694.932C572.247,-681.524 550.5826,-665.0004 532,-649 524.2173,-642.2988 516.3032,-635.1972 508.4552,-627.9476"/>
<polygon fill="none" stroke="#404040" points="508.4056,-627.9014 501.29,-626.7315 499.6331,-619.7133 506.7487,-620.8832 508.4056,-627.9014"/>
<text text-anchor="middle" x="552.5" y="-641" font-family="Helvetica,sans-Serif" font-size="10.00" fill="#000000"> +policy</text>
</g>
<!-- Node8 -->
<g id="node8" class="node">
<title>Node8</title>
<g id="a_node8"><a xlink:href="../../d3/d87/classuint32__t.html" target="_top" xlink:title="{uint32_t\n||}">
<polygon fill="none" stroke="#000000" points="278,-695 278,-752 334,-752 334,-695 278,-695"/>
<text text-anchor="middle" x="306" y="-740" font-family="Helvetica,sans-Serif" font-size="10.00" fill="#000000">uint32_t</text>
<polyline fill="none" stroke="#000000" points="278,-733 334,-733 "/>
<text text-anchor="middle" x="306" y="-721" font-family="Helvetica,sans-Serif" font-size="10.00" fill="#000000"> </text>
<polyline fill="none" stroke="#000000" points="278,-714 334,-714 "/>
<text text-anchor="middle" x="306" y="-702" font-family="Helvetica,sans-Serif" font-size="10.00" fill="#000000"> </text>
</a>
</g>
</g>
<!-- Node8&#45;&gt;Node6 -->
<g id="edge8" class="edge">
<title>Node8&#45;&gt;Node6</title>
<path fill="none" stroke="#404040" d="M289.7834,-694.9623C275.8997,-669.9078 257.5952,-635.1642 254,-620 236.775,-547.3473 210.1354,-512.4236 254,-452 293.7471,-397.2483 478.5768,-352.9954 589.042,-330.8693"/>
<polygon fill="none" stroke="#404040" points="589.3684,-330.8048 594.4776,-325.7159 601.1401,-328.4748 596.0309,-333.5637 589.3684,-330.8048"/>
<text text-anchor="middle" x="288" y="-533.5" font-family="Helvetica,sans-Serif" font-size="10.00" fill="#000000"> +mTaskHash</text>
</g>
<!-- Node8&#45;&gt;Node14 -->
<g id="edge18" class="edge">
<title>Node8&#45;&gt;Node14</title>
<path fill="none" stroke="#404040" d="M315.2003,-694.9045C321.2073,-677.8634 329.8158,-656.098 340,-638 341.4995,-635.3352 343.0608,-632.6617 344.6727,-629.9882"/>
<polygon fill="none" stroke="#404040" points="344.7498,-629.8651 344.5438,-622.6569 351.1183,-619.6944 351.3243,-626.9026 344.7498,-629.8651"/>
<text text-anchor="middle" x="374" y="-641" font-family="Helvetica,sans-Serif" font-size="10.00" fill="#000000"> +mTaskHash</text>
</g>
<!-- Node9 -->
<g id="node9" class="node">
<title>Node9</title>
<polygon fill="none" stroke="#bfbfbf" points="762,-695 762,-752 800,-752 800,-695 762,-695"/>
<text text-anchor="middle" x="781" y="-740" font-family="Helvetica,sans-Serif" font-size="10.00" fill="#000000">bool</text>
<polyline fill="none" stroke="#bfbfbf" points="762,-733 800,-733 "/>
<text text-anchor="middle" x="781" y="-721" font-family="Helvetica,sans-Serif" font-size="10.00" fill="#000000"> </text>
<polyline fill="none" stroke="#bfbfbf" points="762,-714 800,-714 "/>
<text text-anchor="middle" x="781" y="-702" font-family="Helvetica,sans-Serif" font-size="10.00" fill="#000000"> </text>
</g>
<!-- Node9&#45;&gt;Node6 -->
<g id="edge10" class="edge">
<title>Node9&#45;&gt;Node6</title>
<path fill="none" stroke="#404040" d="M783.8499,-694.9718C788.2156,-640.1509 792.5842,-517.1802 756,-423 754.2958,-418.6128 752.3528,-414.2563 750.2185,-409.9522"/>
<polygon fill="none" stroke="#404040" points="750.2172,-409.9497 743.8566,-406.5521 744.5464,-399.374 750.907,-402.7716 750.2172,-409.9497"/>
<text text-anchor="middle" x="818" y="-533.5" font-family="Helvetica,sans-Serif" font-size="10.00" fill="#000000"> +isdangling</text>
</g>
<!-- Node9&#45;&gt;Node14 -->
<g id="edge21" class="edge">
<title>Node9&#45;&gt;Node14</title>
<path fill="none" stroke="#404040" d="M761.7963,-704.6302C748.126,-692.2066 728.7463,-676.5332 709,-667 671.3195,-648.8086 567.9503,-641.7514 514.4912,-620.2568"/>
<polygon fill="none" stroke="#404040" points="514.18,-620.1144 507.0597,-621.255 503.2682,-615.1211 510.3886,-613.9805 514.18,-620.1144"/>
<text text-anchor="middle" x="670" y="-641" font-family="Helvetica,sans-Serif" font-size="10.00" fill="#000000"> +isdangling</text>
</g>
<!-- Node10&#45;&gt;Node6 -->
<g id="edge11" class="edge">
<title>Node10&#45;&gt;Node6</title>
<path fill="none" stroke="#404040" d="M893.6704,-667.4962C895.8617,-609.6175 891.7342,-518.5802 853,-452 830.1138,-412.6609 790.9896,-380.9385 755.0515,-358.0109"/>
<polygon fill="none" stroke="#404040" points="754.7185,-357.8044 747.5113,-358.0412 744.5207,-351.4794 751.7279,-351.2426 754.7185,-357.8044"/>
<text text-anchor="middle" x="911" y="-533.5" font-family="Helvetica,sans-Serif" font-size="10.00" fill="#000000"> +spec</text>
</g>
<!-- Node10&#45;&gt;Node14 -->
<g id="edge22" class="edge">
<title>Node10&#45;&gt;Node14</title>
<path fill="none" stroke="#404040" d="M827.4433,-667.3885C811.4147,-655.6957 793.4353,-644.8533 775,-638 668.8269,-598.5302 623.1531,-660.8143 514.6627,-620.4621"/>
<polygon fill="none" stroke="#404040" points="514.4105,-620.362 507.3578,-621.8652 503.2576,-615.9332 510.3103,-614.43 514.4105,-620.362"/>
<text text-anchor="middle" x="814" y="-641" font-family="Helvetica,sans-Serif" font-size="10.00" fill="#000000"> +spec</text>
</g>
<!-- Node11 -->
<g id="node11" class="node">
<title>Node11</title>
<polygon fill="none" stroke="#bfbfbf" points="832,-855 832,-912 920,-912 920,-855 832,-855"/>
<text text-anchor="middle" x="876" y="-900" font-family="Helvetica,sans-Serif" font-size="10.00" fill="#000000">enum Lifetime</text>
<polyline fill="none" stroke="#bfbfbf" points="832,-893 920,-893 "/>
<text text-anchor="middle" x="876" y="-881" font-family="Helvetica,sans-Serif" font-size="10.00" fill="#000000"> </text>
<polyline fill="none" stroke="#bfbfbf" points="832,-874 920,-874 "/>
<text text-anchor="middle" x="876" y="-862" font-family="Helvetica,sans-Serif" font-size="10.00" fill="#000000"> </text>
</g>
<!-- Node11&#45;&gt;Node10 -->
<g id="edge12" class="edge">
<title>Node11&#45;&gt;Node10</title>
<path fill="none" stroke="#404040" d="M878.3241,-854.8952C879.7537,-837.3 881.6507,-813.9527 883.4487,-791.8235"/>
<polygon fill="none" stroke="#404040" points="883.4619,-791.6597 879.961,-785.3554 884.4338,-779.6991 887.9347,-786.0033 883.4619,-791.6597"/>
<text text-anchor="middle" x="908" y="-806.5" font-family="Helvetica,sans-Serif" font-size="10.00" fill="#000000"> +lifetime</text>
</g>
<!-- Node12 -->
<g id="node12" class="node">
<title>Node12</title>
<polygon fill="none" stroke="#bfbfbf" points="938,-838.5 938,-928.5 1102,-928.5 1102,-838.5 938,-838.5"/>
<text text-anchor="start" x="946" y="-916.5" font-family="Helvetica,sans-Serif" font-size="10.00" fill="#000000">variant&lt; o2::framework</text>
<text text-anchor="start" x="946" y="-905.5" font-family="Helvetica,sans-Serif" font-size="10.00" fill="#000000">::ConcreteDataMatcher,</text>
<text text-anchor="start" x="946" y="-894.5" font-family="Helvetica,sans-Serif" font-size="10.00" fill="#000000"> o2::framework::data_matcher</text>
<text text-anchor="middle" x="1020" y="-883.5" font-family="Helvetica,sans-Serif" font-size="10.00" fill="#000000">::DataDescriptorMatcher &gt;</text>
<polyline fill="none" stroke="#bfbfbf" points="938,-876.5 1102,-876.5 "/>
<text text-anchor="middle" x="1020" y="-864.5" font-family="Helvetica,sans-Serif" font-size="10.00" fill="#000000"> </text>
<polyline fill="none" stroke="#bfbfbf" points="938,-857.5 1102,-857.5 "/>
<text text-anchor="middle" x="1020" y="-845.5" font-family="Helvetica,sans-Serif" font-size="10.00" fill="#000000"> </text>
</g>
<!-- Node12&#45;&gt;Node10 -->
<g id="edge13" class="edge">
<title>Node12&#45;&gt;Node10</title>
<path fill="none" stroke="#404040" d="M982.8111,-838.0784C970.3542,-822.8639 956.2056,-805.5831 942.7422,-789.1393"/>
<polygon fill="none" stroke="#404040" points="942.5144,-788.861 935.6184,-786.7526 934.9123,-779.5761 941.8083,-781.6846 942.5144,-788.861"/>
<text text-anchor="middle" x="993" y="-806.5" font-family="Helvetica,sans-Serif" font-size="10.00" fill="#000000"> +matcher</text>
</g>
<!-- Node13 -->
<g id="node13" class="node">
<title>Node13</title>
<polygon fill="none" stroke="#bfbfbf" points="521,-507.5 521,-564.5 637,-564.5 637,-507.5 521,-507.5"/>
<text text-anchor="middle" x="579" y="-552.5" font-family="Helvetica,sans-Serif" font-size="10.00" fill="#000000">shared_ptr&lt; TH1F &gt;</text>
<polyline fill="none" stroke="#bfbfbf" points="521,-545.5 637,-545.5 "/>
<text text-anchor="middle" x="579" y="-533.5" font-family="Helvetica,sans-Serif" font-size="10.00" fill="#000000"> </text>
<polyline fill="none" stroke="#bfbfbf" points="521,-526.5 637,-526.5 "/>
<text text-anchor="middle" x="579" y="-514.5" font-family="Helvetica,sans-Serif" font-size="10.00" fill="#000000"> </text>
</g>
<!-- Node13&#45;&gt;Node6 -->
<g id="edge15" class="edge">
<title>Node13&#45;&gt;Node6</title>
<path fill="none" stroke="#404040" d="M587.3213,-507.2139C594.3253,-484.0996 605.0866,-450.9961 617,-423 617.9978,-420.6552 619.0265,-418.2917 620.0809,-415.9165"/>
<polygon fill="none" stroke="#404040" points="620.1991,-415.6576 619.0531,-408.5381 625.1842,-404.742 626.3302,-411.8615 620.1991,-415.6576"/>
<text text-anchor="middle" x="638" y="-426" font-family="Helvetica,sans-Serif" font-size="10.00" fill="#000000"> +object</text>
</g>
<!-- Node14&#45;&gt;Node6 -->
<g id="edge16" class="edge">
<title>Node14&#45;&gt;Node6</title>
<path fill="none" stroke="#ffa500" d="M510.9056,-452.9479C511.2711,-452.6312 511.6359,-452.3152 512,-452 541.0887,-426.8134 573.4003,-399.3246 601.3975,-375.6591"/>
<polygon fill="#ffa500" stroke="#ffa500" points="508.3981,-450.49 503.1447,-459.6907 512.9891,-455.7742 508.3981,-450.49"/>
<text text-anchor="middle" x="568.5" y="-426" font-family="Helvetica,sans-Serif" font-size="10.00" fill="#000000"> &lt; TH1F &gt;</text>
</g>
<!-- Node15 -->
<g id="node15" class="node">
<title>Node15</title>
<polygon fill="none" stroke="#bfbfbf" points="359.5,-695 359.5,-752 456.5,-752 456.5,-695 359.5,-695"/>
<text text-anchor="middle" x="408" y="-740" font-family="Helvetica,sans-Serif" font-size="10.00" fill="#000000">shared_ptr&lt; T &gt;</text>
<polyline fill="none" stroke="#bfbfbf" points="359.5,-733 456.5,-733 "/>
<text text-anchor="middle" x="408" y="-721" font-family="Helvetica,sans-Serif" font-size="10.00" fill="#000000"> </text>
<polyline fill="none" stroke="#bfbfbf" points="359.5,-714 456.5,-714 "/>
<text text-anchor="middle" x="408" y="-702" font-family="Helvetica,sans-Serif" font-size="10.00" fill="#000000"> </text>
</g>
<!-- Node15&#45;&gt;Node14 -->
<g id="edge20" class="edge">
<title>Node15&#45;&gt;Node14</title>
<path fill="none" stroke="#404040" d="M409.3865,-694.614C410.2095,-677.4686 411.305,-654.6459 412.4079,-631.6694"/>
<polygon fill="none" stroke="#404040" points="412.4084,-631.6556 408.7008,-625.4707 412.9839,-619.6694 416.6916,-625.8543 412.4084,-631.6556"/>
<text text-anchor="middle" x="433" y="-641" font-family="Helvetica,sans-Serif" font-size="10.00" fill="#000000"> +object</text>
</g>
<!-- Node16 -->
<g id="node16" class="node">
<title>Node16</title>
<g id="a_node16"><a xlink:href="../../d1/d9a/structo2_1_1framework_1_1expressions_1_1Filter.html" target="_top" xlink:title="A struct, containing the root of the expression tree. ">
<polygon fill="none" stroke="#000000" points="882,-276 882,-355 1034,-355 1034,-276 882,-276"/>
<text text-anchor="start" x="890" y="-343" font-family="Helvetica,sans-Serif" font-size="10.00" fill="#000000">o2::framework::expressions</text>
<text text-anchor="middle" x="958" y="-332" font-family="Helvetica,sans-Serif" font-size="10.00" fill="#000000">::Filter</text>
<polyline fill="none" stroke="#000000" points="882,-325 1034,-325 "/>
<text text-anchor="middle" x="958" y="-313" font-family="Helvetica,sans-Serif" font-size="10.00" fill="#000000"> </text>
<polyline fill="none" stroke="#000000" points="882,-306 1034,-306 "/>
<text text-anchor="start" x="890" y="-294" font-family="Helvetica,sans-Serif" font-size="10.00" fill="#000000">+ Filter()</text>
<text text-anchor="start" x="890" y="-283" font-family="Helvetica,sans-Serif" font-size="10.00" fill="#000000">+ Filter()</text>
</a>
</g>
</g>
<!-- Node16&#45;&gt;Node1 -->
<g id="edge23" class="edge">
<title>Node16&#45;&gt;Node1</title>
<path fill="none" stroke="#404040" d="M932.0737,-275.6199C898.7721,-226.6548 837.0896,-143.2065 769,-87 754.4785,-75.0128 736.8095,-64.4374 720.6075,-55.9777"/>
<polygon fill="none" stroke="#404040" points="720.3965,-55.8713 713.238,-56.7409 709.682,-50.4676 716.8404,-49.5979 720.3965,-55.8713"/>
<text text-anchor="middle" x="905.5" y="-145" font-family="Helvetica,sans-Serif" font-size="10.00" fill="#000000"> +seltrack</text>
</g>
<!-- Node17 -->
<g id="node17" class="node">
<title>Node17</title>
<polygon fill="none" stroke="#bfbfbf" points="938.5,-502 938.5,-570 1089.5,-570 1089.5,-502 938.5,-502"/>
<text text-anchor="start" x="946.5" y="-558" font-family="Helvetica,sans-Serif" font-size="10.00" fill="#000000">unique_ptr&lt; o2::framework</text>
<text text-anchor="middle" x="1014" y="-547" font-family="Helvetica,sans-Serif" font-size="10.00" fill="#000000">::expressions::Node &gt;</text>
<polyline fill="none" stroke="#bfbfbf" points="938.5,-540 1089.5,-540 "/>
<text text-anchor="middle" x="1014" y="-528" font-family="Helvetica,sans-Serif" font-size="10.00" fill="#000000"> </text>
<polyline fill="none" stroke="#bfbfbf" points="938.5,-521 1089.5,-521 "/>
<text text-anchor="middle" x="1014" y="-509" font-family="Helvetica,sans-Serif" font-size="10.00" fill="#000000"> </text>
</g>
<!-- Node17&#45;&gt;Node16 -->
<g id="edge24" class="edge">
<title>Node17&#45;&gt;Node16</title>
<path fill="none" stroke="#404040" d="M1005.25,-501.5469C996.0947,-465.4977 981.6174,-408.4936 971.099,-367.0773"/>
<polygon fill="none" stroke="#404040" points="971.0627,-366.934 965.7088,-362.1032 968.1087,-355.3032 973.4626,-360.1339 971.0627,-366.934"/>
<text text-anchor="middle" x="1006" y="-426" font-family="Helvetica,sans-Serif" font-size="10.00" fill="#000000"> +node</text>
</g>
</g>
</svg>
        <g id="navigator" transform="translate(0 0)" fill="#404254">
                <rect fill="#f2f5e9" fill-opacity="0.5" stroke="#606060" stroke-width=".5" x="0" y="0" width="60" height="60"/>
                <use id="zoomplus" xlink:href="#zoomPlus" x="17" y="9" onmousedown="handleZoom(evt,'in')"/>
                <use id="zoomminus" xlink:href="#zoomMin" x="42" y="9" onmousedown="handleZoom(evt,'out')"/>
                <use id="reset" xlink:href="#resetDef" x="30" y="36" onmousedown="handleReset()"/>
                <g id="arrowUp" xlink:href="#dirArrow" transform="translate(30 24)" onmousedown="handlePan(0,-1)">
                  <use xlink:href="#rim" fill="#404040">
                        <set attributeName="fill" to="#808080" begin="arrowUp.mouseover" end="arrowUp.mouseout"/>
                  </use>
                  <path fill="none" stroke="white" stroke-width="1.5" d="M0,-3.0v7 M-2.5,-0.5L0,-3.0L2.5,-0.5"/>
                </g>
                <g id="arrowRight" xlink:href="#dirArrow" transform="rotate(90) translate(36 -43)" onmousedown="handlePan(1,0)">
                  <use xlink:href="#rim" fill="#404040">
                        <set attributeName="fill" to="#808080" begin="arrowRight.mouseover" end="arrowRight.mouseout"/>
                  </use>
                  <path fill="none" stroke="white" stroke-width="1.5" d="M0,-3.0v7 M-2.5,-0.5L0,-3.0L2.5,-0.5"/>
                </g>
                <g id="arrowDown" xlink:href="#dirArrow" transform="rotate(180) translate(-30 -48)" onmousedown="handlePan(0,1)">
                  <use xlink:href="#rim" fill="#404040">
                        <set attributeName="fill" to="#808080" begin="arrowDown.mouseover" end="arrowDown.mouseout"/>
                  </use>
                  <path fill="none" stroke="white" stroke-width="1.5" d="M0,-3.0v7 M-2.5,-0.5L0,-3.0L2.5,-0.5"/>
                </g>
                <g id="arrowLeft" xlink:href="#dirArrow" transform="rotate(270) translate(-36 17)" onmousedown="handlePan(-1,0)">
                  <use xlink:href="#rim" fill="#404040">
                        <set attributeName="fill" to="#808080" begin="arrowLeft.mouseover" end="arrowLeft.mouseout"/>
                  </use>
                  <path fill="none" stroke="white" stroke-width="1.5" d="M0,-3.0v7 M-2.5,-0.5L0,-3.0L2.5,-0.5"/>
                </g>
        </g>
        <svg viewBox="0 0 15 15" width="100%" height="30px" preserveAspectRatio="xMaxYMin meet">
         <g id="arrow_out" transform="scale(0.3 0.3)">
          <a xlink:href="structTaskD0__coll__graph_org.svg" target="_base">
           <rect id="button" ry="5" rx="5" y="6" x="6" height="38" width="38"
                fill="#f2f5e9" fill-opacity="0.5" stroke="#606060" stroke-width="1.0"/>
           <path id="arrow"
             d="M 11.500037,31.436501 C 11.940474,20.09759 22.043105,11.32322 32.158766,21.979434 L 37.068811,17.246167 C 37.068811,17.246167 37.088388,32 37.088388,32 L 22.160133,31.978069 C 22.160133,31.978069 26.997745,27.140456 26.997745,27.140456 C 18.528582,18.264221 13.291696,25.230495 11.500037,31.436501 z"
             style="fill:#404040;"/>
          </a>
         </g>
        </svg>
</svg>
