<?xml version="1.0" encoding="UTF-8" standalone="no"?>
<!DOCTYPE svg PUBLIC "-//W3C//DTD SVG 1.1//EN"
 "http://www.w3.org/Graphics/SVG/1.1/DTD/svg11.dtd">
<!-- Generated by graphviz version 2.40.1 (20161225.0304)
 -->
<!-- Title: o2::fdd::Digit Pages: 1 -->
<!--zoomable 870 -->
<svg id="main" version="1.1" xmlns="http://www.w3.org/2000/svg" xmlns:xlink="http://www.w3.org/1999/xlink" xml:space="preserve" onload="init(evt)">
<style type="text/css"><![CDATA[
.edge:hover path { stroke: red; }
.edge:hover polygon { stroke: red; fill: red; }
]]></style>
<script type="text/javascript"><![CDATA[
var edges = document.getElementsByTagName('g');
if (edges && edges.length) {
  for (var i=0;i<edges.length;i++) {
    if (edges[i].id.substr(0,4)=='edge') {
      edges[i].setAttribute('class','edge');
    }
  }
}
]]></script>
        <defs>
                <circle id="rim" cx="0" cy="0" r="7"/>
                <circle id="rim2" cx="0" cy="0" r="3.5"/>
                <g id="zoomPlus">
                        <use xlink:href="#rim" fill="#404040">
                                <set attributeName="fill" to="#808080" begin="zoomplus.mouseover" end="zoomplus.mouseout"/>
                        </use>
                        <path d="M-4,0h8M0,-4v8" fill="none" stroke="white" stroke-width="1.5" pointer-events="none"/>
                </g>
                <g id="zoomMin">
                        <use xlink:href="#rim" fill="#404040">
                                <set attributeName="fill" to="#808080" begin="zoomminus.mouseover" end="zoomminus.mouseout"/>
                        </use>
                        <path d="M-4,0h8" fill="none" stroke="white" stroke-width="1.5" pointer-events="none"/>
                </g>
                <g id="dirArrow">
                        <path fill="none" stroke="white" stroke-width="1.5" d="M0,-3.0v7 M-2.5,-0.5L0,-3.0L2.5,-0.5"/>
                </g>
               <g id="resetDef">
                       <use xlink:href="#rim2" fill="#404040">
                               <set attributeName="fill" to="#808080" begin="reset.mouseover" end="reset.mouseout"/>
                       </use>
               </g>
        </defs>

<script type="text/javascript">
var viewWidth = 746;
var viewHeight = 870;
var sectionId = 'dynsection-0';
</script>
<script xlink:href="../../svgpan.js"/>
<svg id="graph" class="graph">
<g id="viewport">
<title>o2::fdd::Digit</title>
<!-- Node1 -->
<g id="node1" class="node">
<title>Node1</title>
<polygon fill="#bfbfbf" stroke="#000000" points="342,-.5 342,-123.5 486,-123.5 486,-.5 342,-.5"/>
<text text-anchor="middle" x="414" y="-111.5" font-family="Helvetica,sans-Serif" font-size="10.00" fill="#000000">o2::fdd::Digit</text>
<polyline fill="none" stroke="#000000" points="342,-104.5 486,-104.5 "/>
<text text-anchor="middle" x="414" y="-92.5" font-family="Helvetica,sans-Serif" font-size="10.00" fill="#000000"> </text>
<polyline fill="none" stroke="#000000" points="342,-85.5 486,-85.5 "/>
<text text-anchor="start" x="350" y="-73.5" font-family="Helvetica,sans-Serif" font-size="10.00" fill="#000000">+ Digit()</text>
<text text-anchor="start" x="350" y="-62.5" font-family="Helvetica,sans-Serif" font-size="10.00" fill="#000000">+ Digit()</text>
<text text-anchor="start" x="350" y="-51.5" font-family="Helvetica,sans-Serif" font-size="10.00" fill="#000000">+ getOrbit()</text>
<text text-anchor="start" x="350" y="-40.5" font-family="Helvetica,sans-Serif" font-size="10.00" fill="#000000">+ getBC()</text>
<text text-anchor="start" x="350" y="-29.5" font-family="Helvetica,sans-Serif" font-size="10.00" fill="#000000">+ getIntRecord()</text>
<text text-anchor="start" x="350" y="-18.5" font-family="Helvetica,sans-Serif" font-size="10.00" fill="#000000">+ getBunchChannelData()</text>
<text text-anchor="start" x="350" y="-7.5" font-family="Helvetica,sans-Serif" font-size="10.00" fill="#000000">+ ClassDefNV()</text>
</g>
<!-- Node2 -->
<g id="node2" class="node">
<title>Node2</title>
<g id="a_node2"><a xlink:href="../../d1/d21/structo2_1_1InteractionRecord.html" target="_top" xlink:title="{o2::InteractionRecord\n||+ InteractionRecord()\l+ InteractionRecord()\l+ InteractionRecord()\l+ InteractionRecord()\l+ clear()\l+ isDummy()\l+ setFromNS()\l+ bc2ns()\l+ operator==()\l+ operator!=()\l+ differenceInBC()\l+ differenceInBCns()\l+ toLong()\l+ setFromLong()\l+ operator\&gt;()\l+ operator\&gt;=()\l+ operator\&lt;()\l+ operator\&lt;=()\l+ operator&#45;&#45;()\l+ operator&#45;&#45;()\l+ operator++()\l+ operator++()\l+ operator+=()\l+ operator&#45;=()\l+ operator+=()\l+ operator&#45;=()\l+ operator+()\l+ operator&#45;()\l+ operator+()\l+ operator&#45;()\l+ print()\l+ asString()\l+ ClassDefNV()\l+ bc2ns()\l+ ns2bc()\l}">
<polygon fill="none" stroke="#000000" points="107.5,-171.5 107.5,-602.5 228.5,-602.5 228.5,-171.5 107.5,-171.5"/>
<text text-anchor="middle" x="168" y="-590.5" font-family="Helvetica,sans-Serif" font-size="10.00" fill="#000000">o2::InteractionRecord</text>
<polyline fill="none" stroke="#000000" points="107.5,-583.5 228.5,-583.5 "/>
<text text-anchor="middle" x="168" y="-571.5" font-family="Helvetica,sans-Serif" font-size="10.00" fill="#000000"> </text>
<polyline fill="none" stroke="#000000" points="107.5,-564.5 228.5,-564.5 "/>
<text text-anchor="start" x="115.5" y="-552.5" font-family="Helvetica,sans-Serif" font-size="10.00" fill="#000000">+ InteractionRecord()</text>
<text text-anchor="start" x="115.5" y="-541.5" font-family="Helvetica,sans-Serif" font-size="10.00" fill="#000000">+ InteractionRecord()</text>
<text text-anchor="start" x="115.5" y="-530.5" font-family="Helvetica,sans-Serif" font-size="10.00" fill="#000000">+ InteractionRecord()</text>
<text text-anchor="start" x="115.5" y="-519.5" font-family="Helvetica,sans-Serif" font-size="10.00" fill="#000000">+ InteractionRecord()</text>
<text text-anchor="start" x="115.5" y="-508.5" font-family="Helvetica,sans-Serif" font-size="10.00" fill="#000000">+ clear()</text>
<text text-anchor="start" x="115.5" y="-497.5" font-family="Helvetica,sans-Serif" font-size="10.00" fill="#000000">+ isDummy()</text>
<text text-anchor="start" x="115.5" y="-486.5" font-family="Helvetica,sans-Serif" font-size="10.00" fill="#000000">+ setFromNS()</text>
<text text-anchor="start" x="115.5" y="-475.5" font-family="Helvetica,sans-Serif" font-size="10.00" fill="#000000">+ bc2ns()</text>
<text text-anchor="start" x="115.5" y="-464.5" font-family="Helvetica,sans-Serif" font-size="10.00" fill="#000000">+ operator==()</text>
<text text-anchor="start" x="115.5" y="-453.5" font-family="Helvetica,sans-Serif" font-size="10.00" fill="#000000">+ operator!=()</text>
<text text-anchor="start" x="115.5" y="-442.5" font-family="Helvetica,sans-Serif" font-size="10.00" fill="#000000">+ differenceInBC()</text>
<text text-anchor="start" x="115.5" y="-431.5" font-family="Helvetica,sans-Serif" font-size="10.00" fill="#000000">+ differenceInBCns()</text>
<text text-anchor="start" x="115.5" y="-420.5" font-family="Helvetica,sans-Serif" font-size="10.00" fill="#000000">+ toLong()</text>
<text text-anchor="start" x="115.5" y="-409.5" font-family="Helvetica,sans-Serif" font-size="10.00" fill="#000000">+ setFromLong()</text>
<text text-anchor="start" x="115.5" y="-398.5" font-family="Helvetica,sans-Serif" font-size="10.00" fill="#000000">+ operator&gt;()</text>
<text text-anchor="start" x="115.5" y="-387.5" font-family="Helvetica,sans-Serif" font-size="10.00" fill="#000000">+ operator&gt;=()</text>
<text text-anchor="start" x="115.5" y="-376.5" font-family="Helvetica,sans-Serif" font-size="10.00" fill="#000000">+ operator&lt;()</text>
<text text-anchor="start" x="115.5" y="-365.5" font-family="Helvetica,sans-Serif" font-size="10.00" fill="#000000">+ operator&lt;=()</text>
<text text-anchor="start" x="115.5" y="-354.5" font-family="Helvetica,sans-Serif" font-size="10.00" fill="#000000">+ operator&#45;&#45;()</text>
<text text-anchor="start" x="115.5" y="-343.5" font-family="Helvetica,sans-Serif" font-size="10.00" fill="#000000">+ operator&#45;&#45;()</text>
<text text-anchor="start" x="115.5" y="-332.5" font-family="Helvetica,sans-Serif" font-size="10.00" fill="#000000">+ operator++()</text>
<text text-anchor="start" x="115.5" y="-321.5" font-family="Helvetica,sans-Serif" font-size="10.00" fill="#000000">+ operator++()</text>
<text text-anchor="start" x="115.5" y="-310.5" font-family="Helvetica,sans-Serif" font-size="10.00" fill="#000000">+ operator+=()</text>
<text text-anchor="start" x="115.5" y="-299.5" font-family="Helvetica,sans-Serif" font-size="10.00" fill="#000000">+ operator&#45;=()</text>
<text text-anchor="start" x="115.5" y="-288.5" font-family="Helvetica,sans-Serif" font-size="10.00" fill="#000000">+ operator+=()</text>
<text text-anchor="start" x="115.5" y="-277.5" font-family="Helvetica,sans-Serif" font-size="10.00" fill="#000000">+ operator&#45;=()</text>
<text text-anchor="start" x="115.5" y="-266.5" font-family="Helvetica,sans-Serif" font-size="10.00" fill="#000000">+ operator+()</text>
<text text-anchor="start" x="115.5" y="-255.5" font-family="Helvetica,sans-Serif" font-size="10.00" fill="#000000">+ operator&#45;()</text>
<text text-anchor="start" x="115.5" y="-244.5" font-family="Helvetica,sans-Serif" font-size="10.00" fill="#000000">+ operator+()</text>
<text text-anchor="start" x="115.5" y="-233.5" font-family="Helvetica,sans-Serif" font-size="10.00" fill="#000000">+ operator&#45;()</text>
<text text-anchor="start" x="115.5" y="-222.5" font-family="Helvetica,sans-Serif" font-size="10.00" fill="#000000">+ print()</text>
<text text-anchor="start" x="115.5" y="-211.5" font-family="Helvetica,sans-Serif" font-size="10.00" fill="#000000">+ asString()</text>
<text text-anchor="start" x="115.5" y="-200.5" font-family="Helvetica,sans-Serif" font-size="10.00" fill="#000000">+ ClassDefNV()</text>
<text text-anchor="start" x="115.5" y="-189.5" font-family="Helvetica,sans-Serif" font-size="10.00" fill="#000000">+ bc2ns()</text>
<text text-anchor="start" x="115.5" y="-178.5" font-family="Helvetica,sans-Serif" font-size="10.00" fill="#000000">+ ns2bc()</text>
</a>
</g>
</g>
<!-- Node2&#45;&gt;Node1 -->
<g id="edge1" class="edge">
<title>Node2&#45;&gt;Node1</title>
<path fill="none" stroke="#404040" d="M228.571,-297.4566C261.2975,-250.3187 303.0837,-192.0679 343,-142 345.2989,-139.1164 347.6685,-136.1987 350.0838,-133.2697"/>
<polygon fill="none" stroke="#404040" points="350.2208,-133.106 351.0047,-125.9376 357.9231,-123.9041 357.1393,-131.0725 350.2208,-133.106"/>
<text text-anchor="middle" x="376.5" y="-145" font-family="Helvetica,sans-Serif" font-size="10.00" fill="#000000"> +mIntRecord</text>
</g>
<!-- Node3 -->
<g id="node3" class="node">
<title>Node3</title>
<polygon fill="none" stroke="#bfbfbf" points="0,-733 0,-790 50,-790 50,-733 0,-733"/>
<text text-anchor="middle" x="25" y="-778" font-family="Helvetica,sans-Serif" font-size="10.00" fill="#000000">double</text>
<polyline fill="none" stroke="#bfbfbf" points="0,-771 50,-771 "/>
<text text-anchor="middle" x="25" y="-759" font-family="Helvetica,sans-Serif" font-size="10.00" fill="#000000"> </text>
<polyline fill="none" stroke="#bfbfbf" points="0,-752 50,-752 "/>
<text text-anchor="middle" x="25" y="-740" font-family="Helvetica,sans-Serif" font-size="10.00" fill="#000000"> </text>
</g>
<!-- Node3&#45;&gt;Node2 -->
<g id="edge2" class="edge">
<title>Node3&#45;&gt;Node2</title>
<path fill="none" stroke="#404040" d="M26.7775,-732.8838C29.1912,-704.0408 34.7133,-658.544 47,-621 60.7501,-578.9844 81.3676,-535.3361 101.7061,-497.2783"/>
<polygon fill="none" stroke="#404040" points="101.7198,-497.253 101.0563,-490.0725 107.4293,-486.6983 108.0928,-493.8788 101.7198,-497.253"/>
<text text-anchor="middle" x="85" y="-629.5" font-family="Helvetica,sans-Serif" font-size="10.00" fill="#000000"> +DummyTime</text>
</g>
<!-- Node4 -->
<g id="node4" class="node">
<title>Node4</title>
<polygon fill="none" stroke="#bfbfbf" points="96,-733 96,-790 152,-790 152,-733 96,-733"/>
<text text-anchor="middle" x="124" y="-778" font-family="Helvetica,sans-Serif" font-size="10.00" fill="#000000">uint16_t</text>
<polyline fill="none" stroke="#bfbfbf" points="96,-771 152,-771 "/>
<text text-anchor="middle" x="124" y="-759" font-family="Helvetica,sans-Serif" font-size="10.00" fill="#000000"> </text>
<polyline fill="none" stroke="#bfbfbf" points="96,-752 152,-752 "/>
<text text-anchor="middle" x="124" y="-740" font-family="Helvetica,sans-Serif" font-size="10.00" fill="#000000"> </text>
</g>
<!-- Node4&#45;&gt;Node2 -->
<g id="edge3" class="edge">
<title>Node4&#45;&gt;Node2</title>
<path fill="none" stroke="#404040" d="M123.6379,-732.9013C123.5543,-704.4581 124.1696,-659.61 128,-621 128.2063,-618.9205 128.4201,-616.8316 128.6411,-614.7345"/>
<polygon fill="none" stroke="#404040" points="128.6594,-614.5688 125.345,-608.1645 129.982,-602.6419 133.2963,-609.0462 128.6594,-614.5688"/>
<text text-anchor="middle" x="160" y="-635" font-family="Helvetica,sans-Serif" font-size="10.00" fill="#000000"> +DummyBC</text>
<text text-anchor="middle" x="160" y="-624" font-family="Helvetica,sans-Serif" font-size="10.00" fill="#000000">+bc</text>
</g>
<!-- Node5 -->
<g id="node5" class="node">
<title>Node5</title>
<g id="a_node5"><a xlink:href="../../d3/d87/classuint32__t.html" target="_top" xlink:title="{uint32_t\n||}">
<polygon fill="none" stroke="#000000" points="183,-733 183,-790 239,-790 239,-733 183,-733"/>
<text text-anchor="middle" x="211" y="-778" font-family="Helvetica,sans-Serif" font-size="10.00" fill="#000000">uint32_t</text>
<polyline fill="none" stroke="#000000" points="183,-771 239,-771 "/>
<text text-anchor="middle" x="211" y="-759" font-family="Helvetica,sans-Serif" font-size="10.00" fill="#000000"> </text>
<polyline fill="none" stroke="#000000" points="183,-752 239,-752 "/>
<text text-anchor="middle" x="211" y="-740" font-family="Helvetica,sans-Serif" font-size="10.00" fill="#000000"> </text>
</a>
</g>
</g>
<!-- Node5&#45;&gt;Node2 -->
<g id="edge4" class="edge">
<title>Node5&#45;&gt;Node2</title>
<path fill="none" stroke="#404040" d="M207.6973,-732.7355C204.579,-705.5773 199.5848,-662.0813 194.1756,-614.9715"/>
<polygon fill="none" stroke="#404040" points="194.1613,-614.8459 189.5029,-609.3414 192.7924,-602.9243 197.4507,-608.4288 194.1613,-614.8459"/>
<text text-anchor="middle" x="234" y="-635" font-family="Helvetica,sans-Serif" font-size="10.00" fill="#000000"> +orbit</text>
<text text-anchor="middle" x="234" y="-624" font-family="Helvetica,sans-Serif" font-size="10.00" fill="#000000">+DummyOrbit</text>
</g>
<!-- Node6 -->
<g id="node6" class="node">
<title>Node6</title>
<g id="a_node6"><a xlink:href="../../d1/da6/structo2_1_1fdd_1_1Triggers.html" target="_top" xlink:title="{o2::fdd::Triggers\n||+ Triggers()\l+ Triggers()\l+ cleanTriggers()\l+ getTriggers()\l+ ClassDefNV()\l}">
<polygon fill="none" stroke="#000000" points="364,-336.5 364,-437.5 464,-437.5 464,-336.5 364,-336.5"/>
<text text-anchor="middle" x="414" y="-425.5" font-family="Helvetica,sans-Serif" font-size="10.00" fill="#000000">o2::fdd::Triggers</text>
<polyline fill="none" stroke="#000000" points="364,-418.5 464,-418.5 "/>
<text text-anchor="middle" x="414" y="-406.5" font-family="Helvetica,sans-Serif" font-size="10.00" fill="#000000"> </text>
<polyline fill="none" stroke="#000000" points="364,-399.5 464,-399.5 "/>
<text text-anchor="start" x="372" y="-387.5" font-family="Helvetica,sans-Serif" font-size="10.00" fill="#000000">+ Triggers()</text>
<text text-anchor="start" x="372" y="-376.5" font-family="Helvetica,sans-Serif" font-size="10.00" fill="#000000">+ Triggers()</text>
<text text-anchor="start" x="372" y="-365.5" font-family="Helvetica,sans-Serif" font-size="10.00" fill="#000000">+ cleanTriggers()</text>
<text text-anchor="start" x="372" y="-354.5" font-family="Helvetica,sans-Serif" font-size="10.00" fill="#000000">+ getTriggers()</text>
<text text-anchor="start" x="372" y="-343.5" font-family="Helvetica,sans-Serif" font-size="10.00" fill="#000000">+ ClassDefNV()</text>
</a>
</g>
</g>
<!-- Node6&#45;&gt;Node1 -->
<g id="edge5" class="edge">
<title>Node6&#45;&gt;Node1</title>
<path fill="none" stroke="#404040" d="M414,-336.2188C414,-282.4379 414,-197.014 414,-135.8007"/>
<polygon fill="none" stroke="#404040" points="414.0001,-135.5121 410,-129.5121 414,-123.5121 418,-129.5121 414.0001,-135.5121"/>
<text text-anchor="middle" x="444" y="-145" font-family="Helvetica,sans-Serif" font-size="10.00" fill="#000000"> +mTriggers</text>
</g>
<!-- Node7 -->
<g id="node7" class="node">
<title>Node7</title>
<polygon fill="none" stroke="#bfbfbf" points="284,-733 284,-790 328,-790 328,-733 284,-733"/>
<text text-anchor="middle" x="306" y="-778" font-family="Helvetica,sans-Serif" font-size="10.00" fill="#000000">int8_t</text>
<polyline fill="none" stroke="#bfbfbf" points="284,-771 328,-771 "/>
<text text-anchor="middle" x="306" y="-759" font-family="Helvetica,sans-Serif" font-size="10.00" fill="#000000"> </text>
<polyline fill="none" stroke="#bfbfbf" points="284,-752 328,-752 "/>
<text text-anchor="middle" x="306" y="-740" font-family="Helvetica,sans-Serif" font-size="10.00" fill="#000000"> </text>
</g>
<!-- Node7&#45;&gt;Node6 -->
<g id="edge6" class="edge">
<title>Node7&#45;&gt;Node6</title>
<path fill="none" stroke="#404040" d="M307.9408,-732.8785C310.3324,-704.2263 315.3276,-659.0498 325,-621 340.2345,-561.0697 366.0235,-495.4805 385.9308,-449.0315"/>
<polygon fill="none" stroke="#404040" points="385.9617,-448.96 384.6725,-441.8651 390.7259,-437.9462 392.0151,-445.0412 385.9617,-448.96"/>
<text text-anchor="middle" x="349.5" y="-635" font-family="Helvetica,sans-Serif" font-size="10.00" fill="#000000"> +nChanA</text>
<text text-anchor="middle" x="349.5" y="-624" font-family="Helvetica,sans-Serif" font-size="10.00" fill="#000000">+nChanC</text>
</g>
<!-- Node8 -->
<g id="node8" class="node">
<title>Node8</title>
<polygon fill="none" stroke="#bfbfbf" points="353,-733 353,-790 403,-790 403,-733 353,-733"/>
<text text-anchor="middle" x="378" y="-778" font-family="Helvetica,sans-Serif" font-size="10.00" fill="#000000">uint8_t</text>
<polyline fill="none" stroke="#bfbfbf" points="353,-771 403,-771 "/>
<text text-anchor="middle" x="378" y="-759" font-family="Helvetica,sans-Serif" font-size="10.00" fill="#000000"> </text>
<polyline fill="none" stroke="#bfbfbf" points="353,-752 403,-752 "/>
<text text-anchor="middle" x="378" y="-740" font-family="Helvetica,sans-Serif" font-size="10.00" fill="#000000"> </text>
</g>
<!-- Node8&#45;&gt;Node6 -->
<g id="edge7" class="edge">
<title>Node8&#45;&gt;Node6</title>
<path fill="none" stroke="#404040" d="M377.0237,-732.926C376.33,-704.5017 375.9858,-659.6675 379,-621 383.5519,-562.6064 393.8912,-496.6673 402.1588,-449.7037"/>
<polygon fill="none" stroke="#404040" points="402.1591,-449.7018 399.2744,-443.0928 404.2656,-437.8882 407.1502,-444.4972 402.1591,-449.7018"/>
<text text-anchor="middle" x="418.5" y="-629.5" font-family="Helvetica,sans-Serif" font-size="10.00" fill="#000000"> +triggersignals</text>
</g>
<!-- Node9 -->
<g id="node9" class="node">
<title>Node9</title>
<polygon fill="none" stroke="#bfbfbf" points="454,-733 454,-790 504,-790 504,-733 454,-733"/>
<text text-anchor="middle" x="479" y="-778" font-family="Helvetica,sans-Serif" font-size="10.00" fill="#000000">int32_t</text>
<polyline fill="none" stroke="#bfbfbf" points="454,-771 504,-771 "/>
<text text-anchor="middle" x="479" y="-759" font-family="Helvetica,sans-Serif" font-size="10.00" fill="#000000"> </text>
<polyline fill="none" stroke="#bfbfbf" points="454,-752 504,-752 "/>
<text text-anchor="middle" x="479" y="-740" font-family="Helvetica,sans-Serif" font-size="10.00" fill="#000000"> </text>
</g>
<!-- Node9&#45;&gt;Node6 -->
<g id="edge8" class="edge">
<title>Node9&#45;&gt;Node6</title>
<path fill="none" stroke="#404040" d="M475.0494,-732.9264C471.0441,-704.5023 464.5229,-659.6684 458,-621 448.1641,-562.6922 435.582,-496.4837 426.394,-449.4099"/>
<polygon fill="none" stroke="#404040" points="426.3815,-449.3459 421.3031,-444.2263 424.0757,-437.5695 429.1541,-442.6891 426.3815,-449.3459"/>
<text text-anchor="middle" x="482.5" y="-635" font-family="Helvetica,sans-Serif" font-size="10.00" fill="#000000"> +amplA</text>
<text text-anchor="middle" x="482.5" y="-624" font-family="Helvetica,sans-Serif" font-size="10.00" fill="#000000">+amplC</text>
</g>
<!-- Node10 -->
<g id="node10" class="node">
<title>Node10</title>
<polygon fill="none" stroke="#bfbfbf" points="522,-733 522,-790 572,-790 572,-733 522,-733"/>
<text text-anchor="middle" x="547" y="-778" font-family="Helvetica,sans-Serif" font-size="10.00" fill="#000000">int16_t</text>
<polyline fill="none" stroke="#bfbfbf" points="522,-771 572,-771 "/>
<text text-anchor="middle" x="547" y="-759" font-family="Helvetica,sans-Serif" font-size="10.00" fill="#000000"> </text>
<polyline fill="none" stroke="#bfbfbf" points="522,-752 572,-752 "/>
<text text-anchor="middle" x="547" y="-740" font-family="Helvetica,sans-Serif" font-size="10.00" fill="#000000"> </text>
</g>
<!-- Node10&#45;&gt;Node6 -->
<g id="edge9" class="edge">
<title>Node10&#45;&gt;Node6</title>
<path fill="none" stroke="#404040" d="M540.0712,-732.9619C532.8987,-704.3738 520.9451,-659.2455 508,-621 487.9009,-561.6188 460.8767,-495.4554 440.963,-448.6756"/>
<polygon fill="none" stroke="#404040" points="440.9084,-448.5478 434.8714,-444.6038 436.1901,-437.5143 442.227,-441.4583 440.9084,-448.5478"/>
<text text-anchor="middle" x="534.5" y="-635" font-family="Helvetica,sans-Serif" font-size="10.00" fill="#000000"> +timeA</text>
<text text-anchor="middle" x="534.5" y="-624" font-family="Helvetica,sans-Serif" font-size="10.00" fill="#000000">+timeC</text>
</g>
<!-- Node11 -->
<g id="node11" class="node">
<title>Node11</title>
<g id="a_node11"><a xlink:href="../../de/d0e/classo2_1_1dataformats_1_1RangeRefComp.html" target="_top" xlink:title="{o2::dataformats::RangeRef\lComp\&lt; 5 \&gt;\n||+ RangeRefComp()\l+ RangeRefComp()\l+ RangeRefComp()\l+ set()\l+ getFirstEntry()\l+ getEntries()\l+ setFirstEntry()\l+ setEntries()\l+ changeEntriesBy()\l+ operator==()\l+ ClassDefNV()\l+ getMaxFirstEntry()\l+ getMaxEntries()\l}">
<polygon fill="none" stroke="#000000" points="554.5,-287 554.5,-487 701.5,-487 701.5,-287 554.5,-287"/>
<text text-anchor="start" x="562.5" y="-475" font-family="Helvetica,sans-Serif" font-size="10.00" fill="#000000">o2::dataformats::RangeRef</text>
<text text-anchor="middle" x="628" y="-464" font-family="Helvetica,sans-Serif" font-size="10.00" fill="#000000">Comp&lt; 5 &gt;</text>
<polyline fill="none" stroke="#000000" points="554.5,-457 701.5,-457 "/>
<text text-anchor="middle" x="628" y="-445" font-family="Helvetica,sans-Serif" font-size="10.00" fill="#000000"> </text>
<polyline fill="none" stroke="#000000" points="554.5,-438 701.5,-438 "/>
<text text-anchor="start" x="562.5" y="-426" font-family="Helvetica,sans-Serif" font-size="10.00" fill="#000000">+ RangeRefComp()</text>
<text text-anchor="start" x="562.5" y="-415" font-family="Helvetica,sans-Serif" font-size="10.00" fill="#000000">+ RangeRefComp()</text>
<text text-anchor="start" x="562.5" y="-404" font-family="Helvetica,sans-Serif" font-size="10.00" fill="#000000">+ RangeRefComp()</text>
<text text-anchor="start" x="562.5" y="-393" font-family="Helvetica,sans-Serif" font-size="10.00" fill="#000000">+ set()</text>
<text text-anchor="start" x="562.5" y="-382" font-family="Helvetica,sans-Serif" font-size="10.00" fill="#000000">+ getFirstEntry()</text>
<text text-anchor="start" x="562.5" y="-371" font-family="Helvetica,sans-Serif" font-size="10.00" fill="#000000">+ getEntries()</text>
<text text-anchor="start" x="562.5" y="-360" font-family="Helvetica,sans-Serif" font-size="10.00" fill="#000000">+ setFirstEntry()</text>
<text text-anchor="start" x="562.5" y="-349" font-family="Helvetica,sans-Serif" font-size="10.00" fill="#000000">+ setEntries()</text>
<text text-anchor="start" x="562.5" y="-338" font-family="Helvetica,sans-Serif" font-size="10.00" fill="#000000">+ changeEntriesBy()</text>
<text text-anchor="start" x="562.5" y="-327" font-family="Helvetica,sans-Serif" font-size="10.00" fill="#000000">+ operator==()</text>
<text text-anchor="start" x="562.5" y="-316" font-family="Helvetica,sans-Serif" font-size="10.00" fill="#000000">+ ClassDefNV()</text>
<text text-anchor="start" x="562.5" y="-305" font-family="Helvetica,sans-Serif" font-size="10.00" fill="#000000">+ getMaxFirstEntry()</text>
<text text-anchor="start" x="562.5" y="-294" font-family="Helvetica,sans-Serif" font-size="10.00" fill="#000000">+ getMaxEntries()</text>
</a>
</g>
</g>
<!-- Node11&#45;&gt;Node1 -->
<g id="edge10" class="edge">
<title>Node11&#45;&gt;Node1</title>
<path fill="none" stroke="#404040" d="M570.5424,-286.84C543.6928,-241.738 510.5234,-188.3306 478,-142 476.036,-139.2022 474.0062,-136.3736 471.9315,-133.5346"/>
<polygon fill="none" stroke="#404040" points="471.9027,-133.4959 465.1108,-131.0729 464.7351,-123.8716 471.527,-126.2946 471.9027,-133.4959"/>
<text text-anchor="middle" x="494.5" y="-145" font-family="Helvetica,sans-Serif" font-size="10.00" fill="#000000"> +ref</text>
</g>
<!-- Node12 -->
<g id="node12" class="node">
<title>Node12</title>
<g id="a_node12"><a xlink:href="../../de/d0e/classo2_1_1dataformats_1_1RangeRefComp.html" target="_top" xlink:title="{o2::dataformats::RangeRef\lComp\&lt; NBitsN \&gt;\n||+ RangeRefComp()\l+ RangeRefComp()\l+ RangeRefComp()\l+ set()\l+ getFirstEntry()\l+ getEntries()\l+ setFirstEntry()\l+ setEntries()\l+ changeEntriesBy()\l+ operator==()\l+ ClassDefNV()\l+ getMaxFirstEntry()\l+ getMaxEntries()\l}">
<polygon fill="none" stroke="#000000" points="590.5,-661.5 590.5,-861.5 737.5,-861.5 737.5,-661.5 590.5,-661.5"/>
<text text-anchor="start" x="598.5" y="-849.5" font-family="Helvetica,sans-Serif" font-size="10.00" fill="#000000">o2::dataformats::RangeRef</text>
<text text-anchor="middle" x="664" y="-838.5" font-family="Helvetica,sans-Serif" font-size="10.00" fill="#000000">Comp&lt; NBitsN &gt;</text>
<polyline fill="none" stroke="#000000" points="590.5,-831.5 737.5,-831.5 "/>
<text text-anchor="middle" x="664" y="-819.5" font-family="Helvetica,sans-Serif" font-size="10.00" fill="#000000"> </text>
<polyline fill="none" stroke="#000000" points="590.5,-812.5 737.5,-812.5 "/>
<text text-anchor="start" x="598.5" y="-800.5" font-family="Helvetica,sans-Serif" font-size="10.00" fill="#000000">+ RangeRefComp()</text>
<text text-anchor="start" x="598.5" y="-789.5" font-family="Helvetica,sans-Serif" font-size="10.00" fill="#000000">+ RangeRefComp()</text>
<text text-anchor="start" x="598.5" y="-778.5" font-family="Helvetica,sans-Serif" font-size="10.00" fill="#000000">+ RangeRefComp()</text>
<text text-anchor="start" x="598.5" y="-767.5" font-family="Helvetica,sans-Serif" font-size="10.00" fill="#000000">+ set()</text>
<text text-anchor="start" x="598.5" y="-756.5" font-family="Helvetica,sans-Serif" font-size="10.00" fill="#000000">+ getFirstEntry()</text>
<text text-anchor="start" x="598.5" y="-745.5" font-family="Helvetica,sans-Serif" font-size="10.00" fill="#000000">+ getEntries()</text>
<text text-anchor="start" x="598.5" y="-734.5" font-family="Helvetica,sans-Serif" font-size="10.00" fill="#000000">+ setFirstEntry()</text>
<text text-anchor="start" x="598.5" y="-723.5" font-family="Helvetica,sans-Serif" font-size="10.00" fill="#000000">+ setEntries()</text>
<text text-anchor="start" x="598.5" y="-712.5" font-family="Helvetica,sans-Serif" font-size="10.00" fill="#000000">+ changeEntriesBy()</text>
<text text-anchor="start" x="598.5" y="-701.5" font-family="Helvetica,sans-Serif" font-size="10.00" fill="#000000">+ operator==()</text>
<text text-anchor="start" x="598.5" y="-690.5" font-family="Helvetica,sans-Serif" font-size="10.00" fill="#000000">+ ClassDefNV()</text>
<text text-anchor="start" x="598.5" y="-679.5" font-family="Helvetica,sans-Serif" font-size="10.00" fill="#000000">+ getMaxFirstEntry()</text>
<text text-anchor="start" x="598.5" y="-668.5" font-family="Helvetica,sans-Serif" font-size="10.00" fill="#000000">+ getMaxEntries()</text>
</a>
</g>
</g>
<!-- Node12&#45;&gt;Node11 -->
<g id="edge11" class="edge">
<title>Node12&#45;&gt;Node11</title>
<path fill="none" stroke="#ffa500" d="M653.3689,-650.9074C648.3867,-599.0788 642.4942,-537.7799 637.6427,-487.3111"/>
<polygon fill="#ffa500" stroke="#ffa500" points="649.9118,-651.5217 654.3527,-661.1409 656.8796,-650.8518 649.9118,-651.5217"/>
<text text-anchor="middle" x="668" y="-629.5" font-family="Helvetica,sans-Serif" font-size="10.00" fill="#000000"> &lt; 5 &gt;</text>
</g>
</g>
</svg>
        <g id="navigator" transform="translate(0 0)" fill="#404254">
                <rect fill="#f2f5e9" fill-opacity="0.5" stroke="#606060" stroke-width=".5" x="0" y="0" width="60" height="60"/>
                <use id="zoomplus" xlink:href="#zoomPlus" x="17" y="9" onmousedown="handleZoom(evt,'in')"/>
                <use id="zoomminus" xlink:href="#zoomMin" x="42" y="9" onmousedown="handleZoom(evt,'out')"/>
                <use id="reset" xlink:href="#resetDef" x="30" y="36" onmousedown="handleReset()"/>
                <g id="arrowUp" xlink:href="#dirArrow" transform="translate(30 24)" onmousedown="handlePan(0,-1)">
                  <use xlink:href="#rim" fill="#404040">
                        <set attributeName="fill" to="#808080" begin="arrowUp.mouseover" end="arrowUp.mouseout"/>
                  </use>
                  <path fill="none" stroke="white" stroke-width="1.5" d="M0,-3.0v7 M-2.5,-0.5L0,-3.0L2.5,-0.5"/>
                </g>
                <g id="arrowRight" xlink:href="#dirArrow" transform="rotate(90) translate(36 -43)" onmousedown="handlePan(1,0)">
                  <use xlink:href="#rim" fill="#404040">
                        <set attributeName="fill" to="#808080" begin="arrowRight.mouseover" end="arrowRight.mouseout"/>
                  </use>
                  <path fill="none" stroke="white" stroke-width="1.5" d="M0,-3.0v7 M-2.5,-0.5L0,-3.0L2.5,-0.5"/>
                </g>
                <g id="arrowDown" xlink:href="#dirArrow" transform="rotate(180) translate(-30 -48)" onmousedown="handlePan(0,1)">
                  <use xlink:href="#rim" fill="#404040">
                        <set attributeName="fill" to="#808080" begin="arrowDown.mouseover" end="arrowDown.mouseout"/>
                  </use>
                  <path fill="none" stroke="white" stroke-width="1.5" d="M0,-3.0v7 M-2.5,-0.5L0,-3.0L2.5,-0.5"/>
                </g>
                <g id="arrowLeft" xlink:href="#dirArrow" transform="rotate(270) translate(-36 17)" onmousedown="handlePan(-1,0)">
                  <use xlink:href="#rim" fill="#404040">
                        <set attributeName="fill" to="#808080" begin="arrowLeft.mouseover" end="arrowLeft.mouseout"/>
                  </use>
                  <path fill="none" stroke="white" stroke-width="1.5" d="M0,-3.0v7 M-2.5,-0.5L0,-3.0L2.5,-0.5"/>
                </g>
        </g>
        <svg viewBox="0 0 15 15" width="100%" height="30px" preserveAspectRatio="xMaxYMin meet">
         <g id="arrow_out" transform="scale(0.3 0.3)">
          <a xlink:href="structo2_1_1fdd_1_1Digit__coll__graph_org.svg" target="_base">
           <rect id="button" ry="5" rx="5" y="6" x="6" height="38" width="38"
                fill="#f2f5e9" fill-opacity="0.5" stroke="#606060" stroke-width="1.0"/>
           <path id="arrow"
             d="M 11.500037,31.436501 C 11.940474,20.09759 22.043105,11.32322 32.158766,21.979434 L 37.068811,17.246167 C 37.068811,17.246167 37.088388,32 37.088388,32 L 22.160133,31.978069 C 22.160133,31.978069 26.997745,27.140456 26.997745,27.140456 C 18.528582,18.264221 13.291696,25.230495 11.500037,31.436501 z"
             style="fill:#404040;"/>
          </a>
         </g>
        </svg>
</svg>
