<?xml version="1.0" encoding="UTF-8" standalone="no"?>
<!DOCTYPE svg PUBLIC "-//W3C//DTD SVG 1.1//EN"
 "http://www.w3.org/Graphics/SVG/1.1/DTD/svg11.dtd">
<!-- Generated by graphviz version 2.40.1 (20161225.0304)
 -->
<!-- Title: o2::rans::Decoder&lt; coder_T, stream_T, source_T &gt; Pages: 1 -->
<svg width="407pt" height="314pt"
 viewBox="0.00 0.00 406.50 314.00" xmlns="http://www.w3.org/2000/svg" xmlns:xlink="http://www.w3.org/1999/xlink">
<g id="graph0" class="graph" transform="scale(1 1) rotate(0) translate(4 310)">
<title>o2::rans::Decoder&lt; coder_T, stream_T, source_T &gt;</title>
<!-- Node3 -->
<g id="node1" class="node">
<title>Node3</title>
<polygon fill="#bfbfbf" stroke="#000000" points="109,-.5 109,-178.5 253,-178.5 253,-.5 109,-.5"/>
<text text-anchor="start" x="117" y="-166.5" font-family="Helvetica,sans-Serif" font-size="10.00" fill="#000000">o2::rans::Decoder&lt;</text>
<text text-anchor="start" x="117" y="-155.5" font-family="Helvetica,sans-Serif" font-size="10.00" fill="#000000"> coder_T, stream_T,</text>
<text text-anchor="middle" x="181" y="-144.5" font-family="Helvetica,sans-Serif" font-size="10.00" fill="#000000"> source_T &gt;</text>
<polyline fill="none" stroke="#000000" points="109,-137.5 253,-137.5 "/>
<text text-anchor="middle" x="181" y="-125.5" font-family="Helvetica,sans-Serif" font-size="10.00" fill="#000000"> </text>
<polyline fill="none" stroke="#000000" points="109,-118.5 253,-118.5 "/>
<text text-anchor="start" x="117" y="-106.5" font-family="Helvetica,sans-Serif" font-size="10.00" fill="#000000">+ Decoder()</text>
<text text-anchor="start" x="117" y="-95.5" font-family="Helvetica,sans-Serif" font-size="10.00" fill="#000000">+ Decoder()</text>
<text text-anchor="start" x="117" y="-84.5" font-family="Helvetica,sans-Serif" font-size="10.00" fill="#000000">+ operator=()</text>
<text text-anchor="start" x="117" y="-73.5" font-family="Helvetica,sans-Serif" font-size="10.00" fill="#000000">+ operator=()</text>
<text text-anchor="start" x="117" y="-62.5" font-family="Helvetica,sans-Serif" font-size="10.00" fill="#000000">+ ~Decoder()</text>
<text text-anchor="start" x="117" y="-51.5" font-family="Helvetica,sans-Serif" font-size="10.00" fill="#000000">+ Decoder()</text>
<text text-anchor="start" x="117" y="-40.5" font-family="Helvetica,sans-Serif" font-size="10.00" fill="#000000">+ process()</text>
<text text-anchor="start" x="117" y="-29.5" font-family="Helvetica,sans-Serif" font-size="10.00" fill="#000000">+ getAlphabetRangeBits()</text>
<text text-anchor="start" x="117" y="-18.5" font-family="Helvetica,sans-Serif" font-size="10.00" fill="#000000">+ getMinSymbol()</text>
<text text-anchor="start" x="117" y="-7.5" font-family="Helvetica,sans-Serif" font-size="10.00" fill="#000000">+ getMaxSymbol()</text>
</g>
<!-- Node4 -->
<g id="node2" class="node">
<title>Node4</title>
<polygon fill="none" stroke="#bfbfbf" points="0,-232 0,-300 140,-300 140,-232 0,-232"/>
<text text-anchor="start" x="8" y="-288" font-family="Helvetica,sans-Serif" font-size="10.00" fill="#000000">unique_ptr&lt; o2::rans</text>
<text text-anchor="middle" x="70" y="-277" font-family="Helvetica,sans-Serif" font-size="10.00" fill="#000000">::internal::SymbolTable &gt;</text>
<polyline fill="none" stroke="#bfbfbf" points="0,-270 140,-270 "/>
<text text-anchor="middle" x="70" y="-258" font-family="Helvetica,sans-Serif" font-size="10.00" fill="#000000"> </text>
<polyline fill="none" stroke="#bfbfbf" points="0,-251 140,-251 "/>
<text text-anchor="middle" x="70" y="-239" font-family="Helvetica,sans-Serif" font-size="10.00" fill="#000000"> </text>
</g>
<!-- Node4&#45;&gt;Node3 -->
<g id="edge1" class="edge">
<title>Node4&#45;&gt;Node3</title>
<path fill="none" stroke="#404040" d="M78.6413,-231.977C82.2545,-220.4882 87.0254,-207.8367 93,-197 95.8003,-191.9209 98.8509,-186.8475 102.0802,-181.8235"/>
<polygon fill="none" stroke="#404040" points="102.2552,-181.5625 102.2733,-174.3514 108.9366,-171.5946 108.9185,-178.8057 102.2552,-181.5625"/>
<text text-anchor="middle" x="135" y="-200" font-family="Helvetica,sans-Serif" font-size="10.00" fill="#000000"> #mSymbolTable</text>
</g>
<!-- Node5 -->
<g id="node3" class="node">
<title>Node5</title>
<polygon fill="none" stroke="#bfbfbf" points="158.5,-237.5 158.5,-294.5 203.5,-294.5 203.5,-237.5 158.5,-237.5"/>
<text text-anchor="middle" x="181" y="-282.5" font-family="Helvetica,sans-Serif" font-size="10.00" fill="#000000">size_t</text>
<polyline fill="none" stroke="#bfbfbf" points="158.5,-275.5 203.5,-275.5 "/>
<text text-anchor="middle" x="181" y="-263.5" font-family="Helvetica,sans-Serif" font-size="10.00" fill="#000000"> </text>
<polyline fill="none" stroke="#bfbfbf" points="158.5,-256.5 203.5,-256.5 "/>
<text text-anchor="middle" x="181" y="-244.5" font-family="Helvetica,sans-Serif" font-size="10.00" fill="#000000"> </text>
</g>
<!-- Node5&#45;&gt;Node3 -->
<g id="edge2" class="edge">
<title>Node5&#45;&gt;Node3</title>
<path fill="none" stroke="#404040" d="M181,-237.2494C181,-224.2012 181,-207.9047 181,-190.9429"/>
<polygon fill="none" stroke="#404040" points="181.0001,-190.5115 177,-184.5115 181,-178.5115 185,-184.5115 181.0001,-190.5115"/>
<text text-anchor="middle" x="227.5" y="-200" font-family="Helvetica,sans-Serif" font-size="10.00" fill="#000000"> #mProbabilityBits</text>
</g>
<!-- Node6 -->
<g id="node4" class="node">
<title>Node6</title>
<polygon fill="none" stroke="#bfbfbf" points="221.5,-226.5 221.5,-305.5 398.5,-305.5 398.5,-226.5 221.5,-226.5"/>
<text text-anchor="start" x="229.5" y="-293.5" font-family="Helvetica,sans-Serif" font-size="10.00" fill="#000000">unique_ptr&lt; o2::rans</text>
<text text-anchor="start" x="229.5" y="-282.5" font-family="Helvetica,sans-Serif" font-size="10.00" fill="#000000">::internal::ReverseSymbolLookup</text>
<text text-anchor="middle" x="310" y="-271.5" font-family="Helvetica,sans-Serif" font-size="10.00" fill="#000000">Table &gt;</text>
<polyline fill="none" stroke="#bfbfbf" points="221.5,-264.5 398.5,-264.5 "/>
<text text-anchor="middle" x="310" y="-252.5" font-family="Helvetica,sans-Serif" font-size="10.00" fill="#000000"> </text>
<polyline fill="none" stroke="#bfbfbf" points="221.5,-245.5 398.5,-245.5 "/>
<text text-anchor="middle" x="310" y="-233.5" font-family="Helvetica,sans-Serif" font-size="10.00" fill="#000000"> </text>
</g>
<!-- Node6&#45;&gt;Node3 -->
<g id="edge3" class="edge">
<title>Node6&#45;&gt;Node3</title>
<path fill="none" stroke="#404040" d="M294.0226,-226.221C289.4009,-216.3577 283.9717,-206.0323 278,-197 272.7269,-189.0243 266.8795,-181.0456 260.7448,-173.2408"/>
<polygon fill="none" stroke="#404040" points="260.6764,-173.1561 253.7951,-171.0001 253.1387,-163.8189 260.02,-165.9749 260.6764,-173.1561"/>
<text text-anchor="middle" x="323.5" y="-200" font-family="Helvetica,sans-Serif" font-size="10.00" fill="#000000"> #mReverseLUT</text>
</g>
</g>
</svg>
