<?xml version="1.0" encoding="UTF-8" standalone="no"?>
<!DOCTYPE svg PUBLIC "-//W3C//DTD SVG 1.1//EN"
 "http://www.w3.org/Graphics/SVG/1.1/DTD/svg11.dtd">
<!-- Generated by graphviz version 2.40.1 (20161225.0304)
 -->
<!-- Title: /home/travis/build/AliceO2Group/AliceO2/Detectors/DCS/include/DetectorsDCS/DeliveryType.h Pages: 1 -->
<svg width="356pt" height="173pt"
 viewBox="0.00 0.00 356.00 173.00" xmlns="http://www.w3.org/2000/svg" xmlns:xlink="http://www.w3.org/1999/xlink">
<g id="graph0" class="graph" transform="scale(1 1) rotate(0) translate(4 169)">
<title>/home/travis/build/AliceO2Group/AliceO2/Detectors/DCS/include/DetectorsDCS/DeliveryType.h</title>
<!-- Node0 -->
<g id="node1" class="node">
<title>Node0</title>
<polygon fill="#bfbfbf" stroke="#000000" points="0,-112.5 0,-164.5 163,-164.5 163,-112.5 0,-112.5"/>
<text text-anchor="start" x="8" y="-152.5" font-family="Helvetica,sans-Serif" font-size="10.00" fill="#000000">/home/travis/build</text>
<text text-anchor="start" x="8" y="-141.5" font-family="Helvetica,sans-Serif" font-size="10.00" fill="#000000">/AliceO2Group/AliceO2</text>
<text text-anchor="start" x="8" y="-130.5" font-family="Helvetica,sans-Serif" font-size="10.00" fill="#000000">/Detectors/DCS/include</text>
<text text-anchor="middle" x="81.5" y="-119.5" font-family="Helvetica,sans-Serif" font-size="10.00" fill="#000000">/DetectorsDCS/DeliveryType.h</text>
</g>
<!-- Node1 -->
<g id="node2" class="node">
<title>Node1</title>
<polygon fill="none" stroke="#bfbfbf" points="104.5,-.5 104.5,-19.5 148.5,-19.5 148.5,-.5 104.5,-.5"/>
<text text-anchor="middle" x="126.5" y="-7.5" font-family="Helvetica,sans-Serif" font-size="10.00" fill="#000000">string</text>
</g>
<!-- Node0&#45;&gt;Node1 -->
<g id="edge1" class="edge">
<title>Node0&#45;&gt;Node1</title>
<path fill="none" stroke="#191970" d="M38.6073,-112.3308C18.363,-96.565 1.2467,-75.7709 14.5,-56 32.1693,-29.6415 67.9461,-18.3739 94.3305,-13.5651"/>
<polygon fill="#191970" stroke="#191970" points="94.9565,-17.0095 104.2768,-11.9713 93.8489,-10.0977 94.9565,-17.0095"/>
</g>
<!-- Node2 -->
<g id="node3" class="node">
<title>Node2</title>
<polygon fill="none" stroke="#bfbfbf" points="23.5,-56.5 23.5,-75.5 67.5,-75.5 67.5,-56.5 23.5,-56.5"/>
<text text-anchor="middle" x="45.5" y="-63.5" font-family="Helvetica,sans-Serif" font-size="10.00" fill="#000000">regex</text>
</g>
<!-- Node0&#45;&gt;Node2 -->
<g id="edge2" class="edge">
<title>Node0&#45;&gt;Node2</title>
<path fill="none" stroke="#191970" d="M68.5032,-112.3258C63.9288,-103.1136 58.8862,-92.9584 54.691,-84.5096"/>
<polygon fill="#191970" stroke="#191970" points="57.8164,-82.934 50.2341,-75.534 51.5468,-86.0472 57.8164,-82.934"/>
</g>
<!-- Node3 -->
<g id="node4" class="node">
<title>Node3</title>
<polygon fill="none" stroke="#bfbfbf" points="86,-56.5 86,-75.5 151,-75.5 151,-56.5 86,-56.5"/>
<text text-anchor="middle" x="118.5" y="-63.5" font-family="Helvetica,sans-Serif" font-size="10.00" fill="#000000">stdexcept</text>
</g>
<!-- Node0&#45;&gt;Node3 -->
<g id="edge3" class="edge">
<title>Node0&#45;&gt;Node3</title>
<path fill="none" stroke="#191970" d="M94.8578,-112.3258C99.5593,-103.1136 104.7419,-92.9584 109.0537,-84.5096"/>
<polygon fill="#191970" stroke="#191970" points="112.2061,-86.0321 113.6344,-75.534 105.9711,-82.8501 112.2061,-86.0321"/>
</g>
<!-- Node4 -->
<g id="node5" class="node">
<title>Node4</title>
<g id="a_node5"><a xlink:href="../../d6/de3/GenericFunctions_8h.html" target="_top" xlink:title="DetectorsDCS/GenericFunctions.h">
<polygon fill="none" stroke="#000000" points="169,-56.5 169,-75.5 348,-75.5 348,-56.5 169,-56.5"/>
<text text-anchor="middle" x="258.5" y="-63.5" font-family="Helvetica,sans-Serif" font-size="10.00" fill="#000000">DetectorsDCS/GenericFunctions.h</text>
</a>
</g>
</g>
<!-- Node0&#45;&gt;Node4 -->
<g id="edge4" class="edge">
<title>Node0&#45;&gt;Node4</title>
<path fill="none" stroke="#191970" d="M145.4011,-112.3258C172.6586,-101.161 203.2978,-88.6111 225.804,-79.3924"/>
<polygon fill="#191970" stroke="#191970" points="227.2967,-82.5633 235.2239,-75.534 224.6434,-76.0856 227.2967,-82.5633"/>
</g>
<!-- Node4&#45;&gt;Node1 -->
<g id="edge5" class="edge">
<title>Node4&#45;&gt;Node1</title>
<path fill="none" stroke="#191970" d="M235.8084,-56.3733C214.4289,-47.3032 182.1943,-33.6279 158.2638,-23.4755"/>
<polygon fill="#191970" stroke="#191970" points="159.4683,-20.1846 148.8955,-19.5011 156.7344,-26.6287 159.4683,-20.1846"/>
</g>
</g>
</svg>
