<?xml version="1.0" encoding="UTF-8" standalone="no"?>
<!DOCTYPE svg PUBLIC "-//W3C//DTD SVG 1.1//EN"
 "http://www.w3.org/Graphics/SVG/1.1/DTD/svg11.dtd">
<!-- Generated by graphviz version 2.40.1 (20161225.0304)
 -->
<!-- Title: o2::tof::TOFCalibInfoSlot Pages: 1 -->
<svg width="206pt" height="270pt"
 viewBox="0.00 0.00 205.50 270.00" xmlns="http://www.w3.org/2000/svg" xmlns:xlink="http://www.w3.org/1999/xlink">
<g id="graph0" class="graph" transform="scale(1 1) rotate(0) translate(4 266)">
<title>o2::tof::TOFCalibInfoSlot</title>
<!-- Node1 -->
<g id="node1" class="node">
<title>Node1</title>
<polygon fill="#bfbfbf" stroke="#000000" points="0,-.5 0,-156.5 159,-156.5 159,-.5 0,-.5"/>
<text text-anchor="middle" x="79.5" y="-144.5" font-family="Helvetica,sans-Serif" font-size="10.00" fill="#000000">o2::tof::TOFCalibInfoSlot</text>
<polyline fill="none" stroke="#000000" points="0,-137.5 159,-137.5 "/>
<text text-anchor="middle" x="79.5" y="-125.5" font-family="Helvetica,sans-Serif" font-size="10.00" fill="#000000"> </text>
<polyline fill="none" stroke="#000000" points="0,-118.5 159,-118.5 "/>
<text text-anchor="start" x="8" y="-106.5" font-family="Helvetica,sans-Serif" font-size="10.00" fill="#000000">+ TOFCalibInfoSlot()</text>
<text text-anchor="start" x="8" y="-95.5" font-family="Helvetica,sans-Serif" font-size="10.00" fill="#000000">+ ~TOFCalibInfoSlot()</text>
<text text-anchor="start" x="8" y="-84.5" font-family="Helvetica,sans-Serif" font-size="10.00" fill="#000000">+ print()</text>
<text text-anchor="start" x="8" y="-73.5" font-family="Helvetica,sans-Serif" font-size="10.00" fill="#000000">+ printEntries()</text>
<text text-anchor="start" x="8" y="-62.5" font-family="Helvetica,sans-Serif" font-size="10.00" fill="#000000">+ fill()</text>
<text text-anchor="start" x="8" y="-51.5" font-family="Helvetica,sans-Serif" font-size="10.00" fill="#000000">+ merge()</text>
<text text-anchor="start" x="8" y="-40.5" font-family="Helvetica,sans-Serif" font-size="10.00" fill="#000000">+ getEntriesPerChannel()</text>
<text text-anchor="start" x="8" y="-29.5" font-family="Helvetica,sans-Serif" font-size="10.00" fill="#000000">+ getEntriesPerChannel()</text>
<text text-anchor="start" x="8" y="-18.5" font-family="Helvetica,sans-Serif" font-size="10.00" fill="#000000">+ getCollectedCalibInfoSlot()</text>
<text text-anchor="start" x="8" y="-7.5" font-family="Helvetica,sans-Serif" font-size="10.00" fill="#000000">+ getCollectedCalibInfoSlot()</text>
</g>
<!-- Node2 -->
<g id="node2" class="node">
<title>Node2</title>
<polygon fill="none" stroke="#bfbfbf" points="57.5,-204.5 57.5,-261.5 101.5,-261.5 101.5,-204.5 57.5,-204.5"/>
<text text-anchor="middle" x="79.5" y="-249.5" font-family="Helvetica,sans-Serif" font-size="10.00" fill="#000000">static</text>
<polyline fill="none" stroke="#bfbfbf" points="57.5,-242.5 101.5,-242.5 "/>
<text text-anchor="middle" x="79.5" y="-230.5" font-family="Helvetica,sans-Serif" font-size="10.00" fill="#000000"> </text>
<polyline fill="none" stroke="#bfbfbf" points="57.5,-223.5 101.5,-223.5 "/>
<text text-anchor="middle" x="79.5" y="-211.5" font-family="Helvetica,sans-Serif" font-size="10.00" fill="#000000"> </text>
</g>
<!-- Node2&#45;&gt;Node1 -->
<g id="edge1" class="edge">
<title>Node2&#45;&gt;Node1</title>
<path fill="none" stroke="#404040" d="M79.5,-204.3018C79.5,-193.9853 79.5,-181.726 79.5,-168.9711"/>
<polygon fill="none" stroke="#404040" points="79.5001,-168.6376 75.5,-162.6376 79.5,-156.6376 83.5,-162.6375 79.5001,-168.6376"/>
<text text-anchor="middle" x="138.5" y="-178" font-family="Helvetica,sans-Serif" font-size="10.00" fill="#000000"> +NCHANNELSXSECTOR</text>
</g>
</g>
</svg>
