<?xml version="1.0" encoding="UTF-8" standalone="no"?>
<!DOCTYPE svg PUBLIC "-//W3C//DTD SVG 1.1//EN"
 "http://www.w3.org/Graphics/SVG/1.1/DTD/svg11.dtd">
<!-- Generated by graphviz version 2.40.1 (20161225.0304)
 -->
<!-- Title: Results Pages: 1 -->
<svg width="275pt" height="193pt"
 viewBox="0.00 0.00 275.00 193.00" xmlns="http://www.w3.org/2000/svg" xmlns:xlink="http://www.w3.org/1999/xlink">
<g id="graph0" class="graph" transform="scale(1 1) rotate(0) translate(4 189)">
<title>Results</title>
<!-- Node1 -->
<g id="node1" class="node">
<title>Node1</title>
<polygon fill="#bfbfbf" stroke="#000000" points="71,-.5 71,-57.5 123,-57.5 123,-.5 71,-.5"/>
<text text-anchor="middle" x="97" y="-45.5" font-family="Helvetica,sans-Serif" font-size="10.00" fill="#000000">Results</text>
<polyline fill="none" stroke="#000000" points="71,-38.5 123,-38.5 "/>
<text text-anchor="middle" x="97" y="-26.5" font-family="Helvetica,sans-Serif" font-size="10.00" fill="#000000"> </text>
<polyline fill="none" stroke="#000000" points="71,-19.5 123,-19.5 "/>
<text text-anchor="middle" x="97" y="-7.5" font-family="Helvetica,sans-Serif" font-size="10.00" fill="#000000"> </text>
</g>
<!-- Node2 -->
<g id="node2" class="node">
<title>Node2</title>
<polygon fill="none" stroke="#bfbfbf" points="0,-127.5 0,-184.5 50,-184.5 50,-127.5 0,-127.5"/>
<text text-anchor="middle" x="25" y="-172.5" font-family="Helvetica,sans-Serif" font-size="10.00" fill="#000000">double</text>
<polyline fill="none" stroke="#bfbfbf" points="0,-165.5 50,-165.5 "/>
<text text-anchor="middle" x="25" y="-153.5" font-family="Helvetica,sans-Serif" font-size="10.00" fill="#000000"> </text>
<polyline fill="none" stroke="#bfbfbf" points="0,-146.5 50,-146.5 "/>
<text text-anchor="middle" x="25" y="-134.5" font-family="Helvetica,sans-Serif" font-size="10.00" fill="#000000"> </text>
</g>
<!-- Node2&#45;&gt;Node1 -->
<g id="edge1" class="edge">
<title>Node2&#45;&gt;Node1</title>
<path fill="none" stroke="#404040" d="M19.072,-127.3286C17.2419,-111.2966 17.554,-91.4869 26,-76 33.4647,-62.3123 46.8298,-51.9255 59.9665,-44.4429"/>
<polygon fill="none" stroke="#404040" points="60.1546,-44.3456 63.6459,-38.036 70.813,-38.8319 67.3217,-45.1415 60.1546,-44.3456"/>
<text text-anchor="middle" x="86.5" y="-101" font-family="Helvetica,sans-Serif" font-size="10.00" fill="#000000"> +serialisationSeconds</text>
<text text-anchor="middle" x="86.5" y="-90" font-family="Helvetica,sans-Serif" font-size="10.00" fill="#000000">+deserialisationSeconds</text>
<text text-anchor="middle" x="86.5" y="-79" font-family="Helvetica,sans-Serif" font-size="10.00" fill="#000000">+mergingSeconds</text>
</g>
<!-- Node3 -->
<g id="node3" class="node">
<title>Node3</title>
<polygon fill="none" stroke="#bfbfbf" points="146.5,-127.5 146.5,-184.5 191.5,-184.5 191.5,-127.5 146.5,-127.5"/>
<text text-anchor="middle" x="169" y="-172.5" font-family="Helvetica,sans-Serif" font-size="10.00" fill="#000000">size_t</text>
<polyline fill="none" stroke="#bfbfbf" points="146.5,-165.5 191.5,-165.5 "/>
<text text-anchor="middle" x="169" y="-153.5" font-family="Helvetica,sans-Serif" font-size="10.00" fill="#000000"> </text>
<polyline fill="none" stroke="#bfbfbf" points="146.5,-146.5 191.5,-146.5 "/>
<text text-anchor="middle" x="169" y="-134.5" font-family="Helvetica,sans-Serif" font-size="10.00" fill="#000000"> </text>
</g>
<!-- Node3&#45;&gt;Node1 -->
<g id="edge2" class="edge">
<title>Node3&#45;&gt;Node1</title>
<path fill="none" stroke="#404040" d="M165.0638,-127.467C161.9303,-111.4797 156.4422,-91.6686 147,-76 142.9647,-69.3036 137.7125,-62.9519 132.1326,-57.2081"/>
<polygon fill="none" stroke="#404040" points="131.9111,-56.9972 124.8077,-55.7552 123.2221,-48.7205 130.3255,-49.9625 131.9111,-56.9972"/>
<text text-anchor="middle" x="213.5" y="-95.5" font-family="Helvetica,sans-Serif" font-size="10.00" fill="#000000"> +sizeSerialisedBytes</text>
<text text-anchor="middle" x="213.5" y="-84.5" font-family="Helvetica,sans-Serif" font-size="10.00" fill="#000000">+sizeBytes</text>
</g>
</g>
</svg>
