<?xml version="1.0" encoding="UTF-8" standalone="no"?>
<!DOCTYPE svg PUBLIC "-//W3C//DTD SVG 1.1//EN"
 "http://www.w3.org/Graphics/SVG/1.1/DTD/svg11.dtd">
<!-- Generated by graphviz version 2.40.1 (20161225.0304)
 -->
<!-- Title: /home/travis/build/AliceO2Group/AliceO2/DataFormats/simulation/include/SimulationDataFormat/IOMCTruthContainerView.h Pages: 1 -->
<svg width="1931pt" height="250pt"
 viewBox="0.00 0.00 1930.50 250.00" xmlns="http://www.w3.org/2000/svg" xmlns:xlink="http://www.w3.org/1999/xlink">
<g id="graph0" class="graph" transform="scale(1 1) rotate(0) translate(4 246)">
<title>/home/travis/build/AliceO2Group/AliceO2/DataFormats/simulation/include/SimulationDataFormat/IOMCTruthContainerView.h</title>
<!-- Node5 -->
<g id="node1" class="node">
<title>Node5</title>
<polygon fill="#bfbfbf" stroke="#000000" points="909,-178.5 909,-241.5 1077,-241.5 1077,-178.5 909,-178.5"/>
<text text-anchor="start" x="917" y="-229.5" font-family="Helvetica,sans-Serif" font-size="10.00" fill="#000000">/home/travis/build</text>
<text text-anchor="start" x="917" y="-218.5" font-family="Helvetica,sans-Serif" font-size="10.00" fill="#000000">/AliceO2Group/AliceO2</text>
<text text-anchor="start" x="917" y="-207.5" font-family="Helvetica,sans-Serif" font-size="10.00" fill="#000000">/DataFormats/simulation</text>
<text text-anchor="start" x="917" y="-196.5" font-family="Helvetica,sans-Serif" font-size="10.00" fill="#000000">/include/SimulationDataFormat</text>
<text text-anchor="middle" x="993" y="-185.5" font-family="Helvetica,sans-Serif" font-size="10.00" fill="#000000">/IOMCTruthContainerView.h</text>
</g>
<!-- Node6 -->
<g id="node2" class="node">
<title>Node6</title>
<g id="a_node2"><a xlink:href="../../d5/d84/testMCTruthContainer_8cxx.html" target="_top" xlink:title="/home/travis/build\l/AliceO2Group/AliceO2\l/DataFormats/simulation\l/test/testMCTruthContainer.cxx">
<polygon fill="none" stroke="#000000" points="0,-89.5 0,-141.5 166,-141.5 166,-89.5 0,-89.5"/>
<text text-anchor="start" x="8" y="-129.5" font-family="Helvetica,sans-Serif" font-size="10.00" fill="#000000">/home/travis/build</text>
<text text-anchor="start" x="8" y="-118.5" font-family="Helvetica,sans-Serif" font-size="10.00" fill="#000000">/AliceO2Group/AliceO2</text>
<text text-anchor="start" x="8" y="-107.5" font-family="Helvetica,sans-Serif" font-size="10.00" fill="#000000">/DataFormats/simulation</text>
<text text-anchor="middle" x="83" y="-96.5" font-family="Helvetica,sans-Serif" font-size="10.00" fill="#000000">/test/testMCTruthContainer.cxx</text>
</a>
</g>
</g>
<!-- Node5&#45;&gt;Node6 -->
<g id="edge1" class="edge">
<title>Node5&#45;&gt;Node6</title>
<path fill="none" stroke="#191970" d="M898.6693,-208.194C745.5977,-203.9167 434.1199,-189.6059 175,-142 172.0574,-141.4594 169.0737,-140.8638 166.0693,-140.2236"/>
<polygon fill="#191970" stroke="#191970" points="898.876,-211.7008 908.9672,-208.4732 899.0658,-204.7034 898.876,-211.7008"/>
</g>
<!-- Node7 -->
<g id="node3" class="node">
<title>Node7</title>
<g id="a_node3"><a xlink:href="../../dc/d21/FIT_2FDD_2workflow_2src_2DigitReaderSpec_8cxx.html" target="_top" xlink:title="/home/travis/build\l/AliceO2Group/AliceO2\l/Detectors/FIT/FDD/workflow\l/src/DigitReaderSpec.cxx">
<polygon fill="none" stroke="#000000" points="184.5,-89.5 184.5,-141.5 339.5,-141.5 339.5,-89.5 184.5,-89.5"/>
<text text-anchor="start" x="192.5" y="-129.5" font-family="Helvetica,sans-Serif" font-size="10.00" fill="#000000">/home/travis/build</text>
<text text-anchor="start" x="192.5" y="-118.5" font-family="Helvetica,sans-Serif" font-size="10.00" fill="#000000">/AliceO2Group/AliceO2</text>
<text text-anchor="start" x="192.5" y="-107.5" font-family="Helvetica,sans-Serif" font-size="10.00" fill="#000000">/Detectors/FIT/FDD/workflow</text>
<text text-anchor="middle" x="262" y="-96.5" font-family="Helvetica,sans-Serif" font-size="10.00" fill="#000000">/src/DigitReaderSpec.cxx</text>
</a>
</g>
</g>
<!-- Node5&#45;&gt;Node7 -->
<g id="edge2" class="edge">
<title>Node5&#45;&gt;Node7</title>
<path fill="none" stroke="#191970" d="M898.8381,-205.6805C772.621,-198.6151 542.0883,-181.2284 349,-142 345.9054,-141.3713 342.7632,-140.6791 339.6,-139.9371"/>
<polygon fill="#191970" stroke="#191970" points="898.6829,-209.1771 908.8601,-206.232 899.0676,-202.1877 898.6829,-209.1771"/>
</g>
<!-- Node8 -->
<g id="node4" class="node">
<title>Node8</title>
<g id="a_node4"><a xlink:href="../../d9/df0/DigitWriterSpec_8cxx.html" target="_top" xlink:title="/home/travis/build\l/AliceO2Group/AliceO2\l/Detectors/ITSMFT/common\l/workflow/src/DigitWriterSpec.cxx">
<polygon fill="none" stroke="#000000" points="358,-89.5 358,-141.5 538,-141.5 538,-89.5 358,-89.5"/>
<text text-anchor="start" x="366" y="-129.5" font-family="Helvetica,sans-Serif" font-size="10.00" fill="#000000">/home/travis/build</text>
<text text-anchor="start" x="366" y="-118.5" font-family="Helvetica,sans-Serif" font-size="10.00" fill="#000000">/AliceO2Group/AliceO2</text>
<text text-anchor="start" x="366" y="-107.5" font-family="Helvetica,sans-Serif" font-size="10.00" fill="#000000">/Detectors/ITSMFT/common</text>
<text text-anchor="middle" x="448" y="-96.5" font-family="Helvetica,sans-Serif" font-size="10.00" fill="#000000">/workflow/src/DigitWriterSpec.cxx</text>
</a>
</g>
</g>
<!-- Node5&#45;&gt;Node8 -->
<g id="edge3" class="edge">
<title>Node5&#45;&gt;Node8</title>
<path fill="none" stroke="#191970" d="M898.6796,-198.6894C808.0354,-187.0975 667.4448,-167.2219 547,-142 544.0395,-141.38 541.0356,-140.7256 538.0071,-140.0439"/>
<polygon fill="#191970" stroke="#191970" points="898.2979,-202.1689 908.6594,-199.9579 899.1806,-195.2248 898.2979,-202.1689"/>
</g>
<!-- Node9 -->
<g id="node5" class="node">
<title>Node9</title>
<g id="a_node5"><a xlink:href="../../dc/d79/ITSMFT_2ITS_2workflow_2src_2DigitReaderSpec_8cxx.html" target="_top" xlink:title="/home/travis/build\l/AliceO2Group/AliceO2\l/Detectors/ITSMFT/ITS\l/workflow/src/DigitReaderSpec.cxx">
<polygon fill="none" stroke="#000000" points="556.5,-89.5 556.5,-141.5 741.5,-141.5 741.5,-89.5 556.5,-89.5"/>
<text text-anchor="start" x="564.5" y="-129.5" font-family="Helvetica,sans-Serif" font-size="10.00" fill="#000000">/home/travis/build</text>
<text text-anchor="start" x="564.5" y="-118.5" font-family="Helvetica,sans-Serif" font-size="10.00" fill="#000000">/AliceO2Group/AliceO2</text>
<text text-anchor="start" x="564.5" y="-107.5" font-family="Helvetica,sans-Serif" font-size="10.00" fill="#000000">/Detectors/ITSMFT/ITS</text>
<text text-anchor="middle" x="649" y="-96.5" font-family="Helvetica,sans-Serif" font-size="10.00" fill="#000000">/workflow/src/DigitReaderSpec.cxx</text>
</a>
</g>
</g>
<!-- Node5&#45;&gt;Node9 -->
<g id="edge4" class="edge">
<title>Node5&#45;&gt;Node9</title>
<path fill="none" stroke="#191970" d="M899.2003,-184.2324C850.2122,-170.7749 790.472,-154.3637 741.6532,-140.9527"/>
<polygon fill="#191970" stroke="#191970" points="898.2782,-187.6086 908.8481,-186.8827 900.1325,-180.8587 898.2782,-187.6086"/>
</g>
<!-- Node10 -->
<g id="node6" class="node">
<title>Node10</title>
<g id="a_node6"><a xlink:href="../../d0/d80/TPC_2workflow_2src_2RecoWorkflow_8cxx.html" target="_top" xlink:title="/home/travis/build\l/AliceO2Group/AliceO2\l/Detectors/TPC/workflow\l/src/RecoWorkflow.cxx">
<polygon fill="none" stroke="#000000" points="760,-89.5 760,-141.5 896,-141.5 896,-89.5 760,-89.5"/>
<text text-anchor="start" x="768" y="-129.5" font-family="Helvetica,sans-Serif" font-size="10.00" fill="#000000">/home/travis/build</text>
<text text-anchor="start" x="768" y="-118.5" font-family="Helvetica,sans-Serif" font-size="10.00" fill="#000000">/AliceO2Group/AliceO2</text>
<text text-anchor="start" x="768" y="-107.5" font-family="Helvetica,sans-Serif" font-size="10.00" fill="#000000">/Detectors/TPC/workflow</text>
<text text-anchor="middle" x="828" y="-96.5" font-family="Helvetica,sans-Serif" font-size="10.00" fill="#000000">/src/RecoWorkflow.cxx</text>
</a>
</g>
</g>
<!-- Node5&#45;&gt;Node10 -->
<g id="edge5" class="edge">
<title>Node5&#45;&gt;Node10</title>
<path fill="none" stroke="#191970" d="M928.6941,-173.1703C910.3134,-162.6431 890.6647,-151.3898 873.6485,-141.6442"/>
<polygon fill="#191970" stroke="#191970" points="927.1813,-176.3372 937.5984,-178.27 930.6603,-170.2629 927.1813,-176.3372"/>
</g>
<!-- Node11 -->
<g id="node7" class="node">
<title>Node11</title>
<g id="a_node7"><a xlink:href="../../d7/da6/TRDDigitReaderSpec_8cxx.html" target="_top" xlink:title="/home/travis/build\l/AliceO2Group/AliceO2\l/Detectors/TRD/workflow\l/src/TRDDigitReaderSpec.cxx">
<polygon fill="none" stroke="#000000" points="914,-89.5 914,-141.5 1072,-141.5 1072,-89.5 914,-89.5"/>
<text text-anchor="start" x="922" y="-129.5" font-family="Helvetica,sans-Serif" font-size="10.00" fill="#000000">/home/travis/build</text>
<text text-anchor="start" x="922" y="-118.5" font-family="Helvetica,sans-Serif" font-size="10.00" fill="#000000">/AliceO2Group/AliceO2</text>
<text text-anchor="start" x="922" y="-107.5" font-family="Helvetica,sans-Serif" font-size="10.00" fill="#000000">/Detectors/TRD/workflow</text>
<text text-anchor="middle" x="993" y="-96.5" font-family="Helvetica,sans-Serif" font-size="10.00" fill="#000000">/src/TRDDigitReaderSpec.cxx</text>
</a>
</g>
</g>
<!-- Node5&#45;&gt;Node11 -->
<g id="edge6" class="edge">
<title>Node5&#45;&gt;Node11</title>
<path fill="none" stroke="#191970" d="M993,-168.2457C993,-159.2008 993,-149.8836 993,-141.6442"/>
<polygon fill="#191970" stroke="#191970" points="989.5001,-168.2699 993,-178.27 996.5001,-168.27 989.5001,-168.2699"/>
</g>
<!-- Node12 -->
<g id="node8" class="node">
<title>Node12</title>
<g id="a_node8"><a xlink:href="../../dd/d1a/TRDDigitWriterSpec_8cxx.html" target="_top" xlink:title="/home/travis/build\l/AliceO2Group/AliceO2\l/Detectors/TRD/workflow\l/src/TRDDigitWriterSpec.cxx">
<polygon fill="none" stroke="#000000" points="1090.5,-89.5 1090.5,-141.5 1243.5,-141.5 1243.5,-89.5 1090.5,-89.5"/>
<text text-anchor="start" x="1098.5" y="-129.5" font-family="Helvetica,sans-Serif" font-size="10.00" fill="#000000">/home/travis/build</text>
<text text-anchor="start" x="1098.5" y="-118.5" font-family="Helvetica,sans-Serif" font-size="10.00" fill="#000000">/AliceO2Group/AliceO2</text>
<text text-anchor="start" x="1098.5" y="-107.5" font-family="Helvetica,sans-Serif" font-size="10.00" fill="#000000">/Detectors/TRD/workflow</text>
<text text-anchor="middle" x="1167" y="-96.5" font-family="Helvetica,sans-Serif" font-size="10.00" fill="#000000">/src/TRDDigitWriterSpec.cxx</text>
</a>
</g>
</g>
<!-- Node5&#45;&gt;Node12 -->
<g id="edge7" class="edge">
<title>Node5&#45;&gt;Node12</title>
<path fill="none" stroke="#191970" d="M1060.2852,-173.4572C1079.8198,-162.8479 1100.7541,-151.4784 1118.8616,-141.6442"/>
<polygon fill="#191970" stroke="#191970" points="1058.5407,-170.4217 1051.4235,-178.27 1061.8816,-176.573 1058.5407,-170.4217"/>
</g>
<!-- Node13 -->
<g id="node9" class="node">
<title>Node13</title>
<g id="a_node9"><a xlink:href="../../d8/dcd/FDDDigitWriterSpec_8h.html" target="_top" xlink:title="/home/travis/build\l/AliceO2Group/AliceO2\l/Steer/DigitizerWorkflow\l/src/FDDDigitWriterSpec.h">
<polygon fill="none" stroke="#000000" points="1262,-89.5 1262,-141.5 1404,-141.5 1404,-89.5 1262,-89.5"/>
<text text-anchor="start" x="1270" y="-129.5" font-family="Helvetica,sans-Serif" font-size="10.00" fill="#000000">/home/travis/build</text>
<text text-anchor="start" x="1270" y="-118.5" font-family="Helvetica,sans-Serif" font-size="10.00" fill="#000000">/AliceO2Group/AliceO2</text>
<text text-anchor="start" x="1270" y="-107.5" font-family="Helvetica,sans-Serif" font-size="10.00" fill="#000000">/Steer/DigitizerWorkflow</text>
<text text-anchor="middle" x="1333" y="-96.5" font-family="Helvetica,sans-Serif" font-size="10.00" fill="#000000">/src/FDDDigitWriterSpec.h</text>
</a>
</g>
</g>
<!-- Node5&#45;&gt;Node13 -->
<g id="edge8" class="edge">
<title>Node5&#45;&gt;Node13</title>
<path fill="none" stroke="#191970" d="M1086.747,-186.8179C1136.1122,-174.2502 1197.5457,-158.0407 1252,-142 1255.2644,-141.0384 1258.596,-140.0357 1261.9565,-139.007"/>
<polygon fill="#191970" stroke="#191970" points="1085.8719,-183.4289 1077.0404,-189.2818 1087.5942,-190.2138 1085.8719,-183.4289"/>
</g>
<!-- Node15 -->
<g id="node11" class="node">
<title>Node15</title>
<g id="a_node11"><a xlink:href="../../d2/d10/MCTruthReaderSpec_8h.html" target="_top" xlink:title="/home/travis/build\l/AliceO2Group/AliceO2\l/Steer/DigitizerWorkflow\l/src/MCTruthReaderSpec.h">
<polygon fill="none" stroke="#000000" points="1422,-89.5 1422,-141.5 1564,-141.5 1564,-89.5 1422,-89.5"/>
<text text-anchor="start" x="1430" y="-129.5" font-family="Helvetica,sans-Serif" font-size="10.00" fill="#000000">/home/travis/build</text>
<text text-anchor="start" x="1430" y="-118.5" font-family="Helvetica,sans-Serif" font-size="10.00" fill="#000000">/AliceO2Group/AliceO2</text>
<text text-anchor="start" x="1430" y="-107.5" font-family="Helvetica,sans-Serif" font-size="10.00" fill="#000000">/Steer/DigitizerWorkflow</text>
<text text-anchor="middle" x="1493" y="-96.5" font-family="Helvetica,sans-Serif" font-size="10.00" fill="#000000">/src/MCTruthReaderSpec.h</text>
</a>
</g>
</g>
<!-- Node5&#45;&gt;Node15 -->
<g id="edge10" class="edge">
<title>Node5&#45;&gt;Node15</title>
<path fill="none" stroke="#191970" d="M1087.03,-199.1361C1172.7193,-188.2083 1302.4065,-169.0867 1413,-142 1415.8422,-141.3039 1418.7286,-140.5548 1421.6349,-139.7653"/>
<polygon fill="#191970" stroke="#191970" points="1086.5448,-195.6695 1077.0625,-200.3956 1087.4224,-202.6143 1086.5448,-195.6695"/>
</g>
<!-- Node17 -->
<g id="node13" class="node">
<title>Node17</title>
<g id="a_node13"><a xlink:href="../../dd/d1a/MCTruthWriterSpec_8cxx.html" target="_top" xlink:title="/home/travis/build\l/AliceO2Group/AliceO2\l/Steer/DigitizerWorkflow\l/src/MCTruthWriterSpec.cxx">
<polygon fill="none" stroke="#000000" points="1582.5,-89.5 1582.5,-141.5 1731.5,-141.5 1731.5,-89.5 1582.5,-89.5"/>
<text text-anchor="start" x="1590.5" y="-129.5" font-family="Helvetica,sans-Serif" font-size="10.00" fill="#000000">/home/travis/build</text>
<text text-anchor="start" x="1590.5" y="-118.5" font-family="Helvetica,sans-Serif" font-size="10.00" fill="#000000">/AliceO2Group/AliceO2</text>
<text text-anchor="start" x="1590.5" y="-107.5" font-family="Helvetica,sans-Serif" font-size="10.00" fill="#000000">/Steer/DigitizerWorkflow</text>
<text text-anchor="middle" x="1657" y="-96.5" font-family="Helvetica,sans-Serif" font-size="10.00" fill="#000000">/src/MCTruthWriterSpec.cxx</text>
</a>
</g>
</g>
<!-- Node5&#45;&gt;Node17 -->
<g id="edge12" class="edge">
<title>Node5&#45;&gt;Node17</title>
<path fill="none" stroke="#191970" d="M1087.6015,-204.4147C1203.159,-196.3329 1404.1196,-178.1989 1573,-142 1575.9904,-141.359 1579.0263,-140.6564 1582.0823,-139.9058"/>
<polygon fill="#191970" stroke="#191970" points="1087.1109,-200.9401 1077.3752,-205.1192 1087.5921,-207.9236 1087.1109,-200.9401"/>
</g>
<!-- Node18 -->
<g id="node14" class="node">
<title>Node18</title>
<g id="a_node14"><a xlink:href="../../d8/dd2/TPCDigitRootWriterSpec_8cxx.html" target="_top" xlink:title="/home/travis/build\l/AliceO2Group/AliceO2\l/Steer/DigitizerWorkflow\l/src/TPCDigitRootWriterSpec.cxx">
<polygon fill="none" stroke="#000000" points="1749.5,-89.5 1749.5,-141.5 1922.5,-141.5 1922.5,-89.5 1749.5,-89.5"/>
<text text-anchor="start" x="1757.5" y="-129.5" font-family="Helvetica,sans-Serif" font-size="10.00" fill="#000000">/home/travis/build</text>
<text text-anchor="start" x="1757.5" y="-118.5" font-family="Helvetica,sans-Serif" font-size="10.00" fill="#000000">/AliceO2Group/AliceO2</text>
<text text-anchor="start" x="1757.5" y="-107.5" font-family="Helvetica,sans-Serif" font-size="10.00" fill="#000000">/Steer/DigitizerWorkflow</text>
<text text-anchor="middle" x="1836" y="-96.5" font-family="Helvetica,sans-Serif" font-size="10.00" fill="#000000">/src/TPCDigitRootWriterSpec.cxx</text>
</a>
</g>
</g>
<!-- Node5&#45;&gt;Node18 -->
<g id="edge13" class="edge">
<title>Node5&#45;&gt;Node18</title>
<path fill="none" stroke="#191970" d="M1087.2731,-206.9098C1229.8386,-201.0058 1508.3439,-184.66 1741,-142 1743.7789,-141.4905 1746.5943,-140.9365 1749.4298,-140.346"/>
<polygon fill="#191970" stroke="#191970" points="1087.0955,-203.414 1077.2458,-207.3171 1087.3797,-210.4083 1087.0955,-203.414"/>
</g>
<!-- Node14 -->
<g id="node10" class="node">
<title>Node14</title>
<g id="a_node10"><a xlink:href="../../d2/dd7/SimpleDigitizerWorkflow_8cxx.html" target="_top" xlink:title="/home/travis/build\l/AliceO2Group/AliceO2\l/Steer/DigitizerWorkflow\l/src/SimpleDigitizerWorkflow.cxx">
<polygon fill="none" stroke="#000000" points="1232,-.5 1232,-52.5 1408,-52.5 1408,-.5 1232,-.5"/>
<text text-anchor="start" x="1240" y="-40.5" font-family="Helvetica,sans-Serif" font-size="10.00" fill="#000000">/home/travis/build</text>
<text text-anchor="start" x="1240" y="-29.5" font-family="Helvetica,sans-Serif" font-size="10.00" fill="#000000">/AliceO2Group/AliceO2</text>
<text text-anchor="start" x="1240" y="-18.5" font-family="Helvetica,sans-Serif" font-size="10.00" fill="#000000">/Steer/DigitizerWorkflow</text>
<text text-anchor="middle" x="1320" y="-7.5" font-family="Helvetica,sans-Serif" font-size="10.00" fill="#000000">/src/SimpleDigitizerWorkflow.cxx</text>
</a>
</g>
</g>
<!-- Node13&#45;&gt;Node14 -->
<g id="edge9" class="edge">
<title>Node13&#45;&gt;Node14</title>
<path fill="none" stroke="#191970" d="M1327.6854,-79.1155C1326.384,-70.2061 1325.0171,-60.8475 1323.8027,-52.5341"/>
<polygon fill="#191970" stroke="#191970" points="1324.2612,-79.8893 1329.1699,-89.2784 1331.1877,-78.8775 1324.2612,-79.8893"/>
</g>
<!-- Node16 -->
<g id="node12" class="node">
<title>Node16</title>
<g id="a_node12"><a xlink:href="../../dd/dfd/MCTruthTestWorkflow_8cxx.html" target="_top" xlink:title="/home/travis/build\l/AliceO2Group/AliceO2\l/Steer/DigitizerWorkflow\l/src/MCTruthTestWorkflow.cxx">
<polygon fill="none" stroke="#000000" points="1426,-.5 1426,-52.5 1586,-52.5 1586,-.5 1426,-.5"/>
<text text-anchor="start" x="1434" y="-40.5" font-family="Helvetica,sans-Serif" font-size="10.00" fill="#000000">/home/travis/build</text>
<text text-anchor="start" x="1434" y="-29.5" font-family="Helvetica,sans-Serif" font-size="10.00" fill="#000000">/AliceO2Group/AliceO2</text>
<text text-anchor="start" x="1434" y="-18.5" font-family="Helvetica,sans-Serif" font-size="10.00" fill="#000000">/Steer/DigitizerWorkflow</text>
<text text-anchor="middle" x="1506" y="-7.5" font-family="Helvetica,sans-Serif" font-size="10.00" fill="#000000">/src/MCTruthTestWorkflow.cxx</text>
</a>
</g>
</g>
<!-- Node15&#45;&gt;Node16 -->
<g id="edge11" class="edge">
<title>Node15&#45;&gt;Node16</title>
<path fill="none" stroke="#191970" d="M1498.3146,-79.1155C1499.616,-70.2061 1500.9829,-60.8475 1502.1973,-52.5341"/>
<polygon fill="#191970" stroke="#191970" points="1494.8123,-78.8775 1496.8301,-89.2784 1501.7388,-79.8893 1494.8123,-78.8775"/>
</g>
</g>
</svg>
