<?xml version="1.0" encoding="UTF-8" standalone="no"?>
<!DOCTYPE svg PUBLIC "-//W3C//DTD SVG 1.1//EN"
 "http://www.w3.org/Graphics/SVG/1.1/DTD/svg11.dtd">
<!-- Generated by graphviz version 2.40.1 (20161225.0304)
 -->
<!-- Title: lambdakzeroproducer Pages: 1 -->
<svg width="1225pt" height="860pt"
 viewBox="0.00 0.00 1224.50 860.00" xmlns="http://www.w3.org/2000/svg" xmlns:xlink="http://www.w3.org/1999/xlink">
<g id="graph0" class="graph" transform="scale(1 1) rotate(0) translate(4 856)">
<title>lambdakzeroproducer</title>
<!-- Node1 -->
<g id="node1" class="node">
<title>Node1</title>
<polygon fill="#bfbfbf" stroke="#000000" points="227.5,-.5 227.5,-68.5 350.5,-68.5 350.5,-.5 227.5,-.5"/>
<text text-anchor="middle" x="289" y="-56.5" font-family="Helvetica,sans-Serif" font-size="10.00" fill="#000000">lambdakzeroproducer</text>
<polyline fill="none" stroke="#000000" points="227.5,-49.5 350.5,-49.5 "/>
<text text-anchor="middle" x="289" y="-37.5" font-family="Helvetica,sans-Serif" font-size="10.00" fill="#000000"> </text>
<polyline fill="none" stroke="#000000" points="227.5,-30.5 350.5,-30.5 "/>
<text text-anchor="start" x="235.5" y="-18.5" font-family="Helvetica,sans-Serif" font-size="10.00" fill="#000000">+ getdcaXY()</text>
<text text-anchor="start" x="235.5" y="-7.5" font-family="Helvetica,sans-Serif" font-size="10.00" fill="#000000">+ process()</text>
</g>
<!-- Node2 -->
<g id="node2" class="node">
<title>Node2</title>
<g id="a_node2"><a xlink:href="../../d8/d71/structo2_1_1framework_1_1Configurable.html" target="_top" xlink:title="{o2::framework::Configurable\l\&lt; double \&gt;\n||+ Configurable()\l+ operator double()\l+ operator&#45;\&gt;()\l}">
<polygon fill="none" stroke="#000000" points="119.5,-414 119.5,-504 274.5,-504 274.5,-414 119.5,-414"/>
<text text-anchor="start" x="127.5" y="-492" font-family="Helvetica,sans-Serif" font-size="10.00" fill="#000000">o2::framework::Configurable</text>
<text text-anchor="middle" x="197" y="-481" font-family="Helvetica,sans-Serif" font-size="10.00" fill="#000000">&lt; double &gt;</text>
<polyline fill="none" stroke="#000000" points="119.5,-474 274.5,-474 "/>
<text text-anchor="middle" x="197" y="-462" font-family="Helvetica,sans-Serif" font-size="10.00" fill="#000000"> </text>
<polyline fill="none" stroke="#000000" points="119.5,-455 274.5,-455 "/>
<text text-anchor="start" x="127.5" y="-443" font-family="Helvetica,sans-Serif" font-size="10.00" fill="#000000">+ Configurable()</text>
<text text-anchor="start" x="127.5" y="-432" font-family="Helvetica,sans-Serif" font-size="10.00" fill="#000000">+ operator double()</text>
<text text-anchor="start" x="127.5" y="-421" font-family="Helvetica,sans-Serif" font-size="10.00" fill="#000000">+ operator&#45;&gt;()</text>
</a>
</g>
</g>
<!-- Node2&#45;&gt;Node1 -->
<g id="edge1" class="edge">
<title>Node2&#45;&gt;Node1</title>
<path fill="none" stroke="#404040" d="M206.7585,-413.973C224.3532,-332.7888 261.2125,-162.7153 278.9894,-80.6903"/>
<polygon fill="none" stroke="#404040" points="279.0293,-80.5059 276.3909,-73.7948 281.571,-68.7782 284.2094,-75.4893 279.0293,-80.5059"/>
<text text-anchor="middle" x="307" y="-219.5" font-family="Helvetica,sans-Serif" font-size="10.00" fill="#000000"> +d_bz</text>
<text text-anchor="middle" x="307" y="-208.5" font-family="Helvetica,sans-Serif" font-size="10.00" fill="#000000">+d_UseAbsDCA</text>
</g>
<!-- Node3 -->
<g id="node3" class="node">
<title>Node3</title>
<polygon fill="none" stroke="#bfbfbf" points="0,-618 0,-675 50,-675 50,-618 0,-618"/>
<text text-anchor="middle" x="25" y="-663" font-family="Helvetica,sans-Serif" font-size="10.00" fill="#000000">double</text>
<polyline fill="none" stroke="#bfbfbf" points="0,-656 50,-656 "/>
<text text-anchor="middle" x="25" y="-644" font-family="Helvetica,sans-Serif" font-size="10.00" fill="#000000"> </text>
<polyline fill="none" stroke="#bfbfbf" points="0,-637 50,-637 "/>
<text text-anchor="middle" x="25" y="-625" font-family="Helvetica,sans-Serif" font-size="10.00" fill="#000000"> </text>
</g>
<!-- Node3&#45;&gt;Node1 -->
<g id="edge7" class="edge">
<title>Node3&#45;&gt;Node1</title>
<path fill="none" stroke="#404040" d="M32.5518,-617.9169C46.0639,-567.9387 76.1494,-461.7311 110,-375 154.3108,-261.4681 166.9042,-233.0256 227,-127 236.1398,-110.8749 247.1297,-93.8539 257.3021,-78.8698"/>
<polygon fill="none" stroke="#404040" points="257.3856,-78.7481 257.4865,-71.5377 264.181,-68.8576 264.0802,-76.068 257.3856,-78.7481"/>
<text text-anchor="middle" x="154" y="-349" font-family="Helvetica,sans-Serif" font-size="10.00" fill="#000000"> +massPr</text>
<text text-anchor="middle" x="154" y="-338" font-family="Helvetica,sans-Serif" font-size="10.00" fill="#000000">+massKa</text>
<text text-anchor="middle" x="154" y="-327" font-family="Helvetica,sans-Serif" font-size="10.00" fill="#000000">+massPi</text>
</g>
<!-- Node3&#45;&gt;Node2 -->
<g id="edge2" class="edge">
<title>Node3&#45;&gt;Node2</title>
<path fill="none" stroke="#404040" d="M38.5042,-617.7227C43.9424,-608.1342 50.8692,-597.8957 59,-590 70.7064,-578.632 78.1579,-582.0674 91,-572 112.8384,-554.88 134.2895,-533.2078 152.119,-513.4324"/>
<polygon fill="none" stroke="#404040" points="152.3412,-513.182 153.3307,-506.0391 160.3047,-504.2052 159.3152,-511.3481 152.3412,-513.182"/>
<text text-anchor="middle" x="123.5" y="-564" font-family="Helvetica,sans-Serif" font-size="10.00" fill="#000000"> +value</text>
</g>
<!-- Node4 -->
<g id="node4" class="node">
<title>Node4</title>
<polygon fill="none" stroke="#bfbfbf" points="341.5,-778 341.5,-835 370.5,-835 370.5,-778 341.5,-778"/>
<text text-anchor="middle" x="356" y="-823" font-family="Helvetica,sans-Serif" font-size="10.00" fill="#000000">int</text>
<polyline fill="none" stroke="#bfbfbf" points="341.5,-816 370.5,-816 "/>
<text text-anchor="middle" x="356" y="-804" font-family="Helvetica,sans-Serif" font-size="10.00" fill="#000000"> </text>
<polyline fill="none" stroke="#bfbfbf" points="341.5,-797 370.5,-797 "/>
<text text-anchor="middle" x="356" y="-785" font-family="Helvetica,sans-Serif" font-size="10.00" fill="#000000"> </text>
</g>
<!-- Node4&#45;&gt;Node2 -->
<g id="edge3" class="edge">
<title>Node4&#45;&gt;Node2</title>
<path fill="none" stroke="#404040" d="M341.4929,-781.0194C330.0222,-760.3492 313.9979,-730.2704 302,-703 280.485,-654.0978 281.8666,-639.1824 261,-590 250.4225,-565.0691 237.5075,-538.0952 226.0564,-515.1409"/>
<polygon fill="none" stroke="#404040" points="225.9575,-514.944 219.6893,-511.379 220.5692,-504.2218 226.8374,-507.7868 225.9575,-514.944"/>
<text text-anchor="middle" x="322" y="-649.5" font-family="Helvetica,sans-Serif" font-size="10.00" fill="#000000"> +name</text>
<text text-anchor="middle" x="322" y="-638.5" font-family="Helvetica,sans-Serif" font-size="10.00" fill="#000000">+help</text>
</g>
<!-- Node5 -->
<g id="node5" class="node">
<title>Node5</title>
<g id="a_node5"><a xlink:href="../../d8/d71/structo2_1_1framework_1_1Configurable.html" target="_top" xlink:title="{o2::framework::Configurable\&lt; T \&gt;\n||+ Configurable()\l+ operator T()\l+ operator&#45;\&gt;()\l}">
<polygon fill="none" stroke="#000000" points="68,-607 68,-686 252,-686 252,-607 68,-607"/>
<text text-anchor="middle" x="160" y="-674" font-family="Helvetica,sans-Serif" font-size="10.00" fill="#000000">o2::framework::Configurable&lt; T &gt;</text>
<polyline fill="none" stroke="#000000" points="68,-667 252,-667 "/>
<text text-anchor="middle" x="160" y="-655" font-family="Helvetica,sans-Serif" font-size="10.00" fill="#000000"> </text>
<polyline fill="none" stroke="#000000" points="68,-648 252,-648 "/>
<text text-anchor="start" x="76" y="-636" font-family="Helvetica,sans-Serif" font-size="10.00" fill="#000000">+ Configurable()</text>
<text text-anchor="start" x="76" y="-625" font-family="Helvetica,sans-Serif" font-size="10.00" fill="#000000">+ operator T()</text>
<text text-anchor="start" x="76" y="-614" font-family="Helvetica,sans-Serif" font-size="10.00" fill="#000000">+ operator&#45;&gt;()</text>
</a>
</g>
</g>
<!-- Node4&#45;&gt;Node5 -->
<g id="edge5" class="edge">
<title>Node4&#45;&gt;Node5</title>
<path fill="none" stroke="#404040" d="M341.2538,-801.2575C317.0069,-792.1357 268.0186,-771.5522 234,-743 218.1976,-729.7369 203.677,-712.5386 191.7621,-696.3419"/>
<polygon fill="none" stroke="#404040" points="191.6608,-696.1999 184.92,-693.6383 184.692,-686.4307 191.4328,-688.9924 191.6608,-696.1999"/>
<text text-anchor="middle" x="254" y="-735" font-family="Helvetica,sans-Serif" font-size="10.00" fill="#000000"> +name</text>
<text text-anchor="middle" x="254" y="-724" font-family="Helvetica,sans-Serif" font-size="10.00" fill="#000000">+help</text>
</g>
<!-- Node7 -->
<g id="node7" class="node">
<title>Node7</title>
<g id="a_node7"><a xlink:href="../../d4/d79/structo2_1_1framework_1_1OutputObj.html" target="_top" xlink:title="{o2::framework::OutputObj\l\&lt; TH1F \&gt;\n||+ spec()\l+ OutputObj()\l+ OutputObj()\l+ setObject()\l+ setObject()\l+ setObject()\l+ setObject()\l+ setHash()\l+ operator&#45;\&gt;()\l+ operator*()\l+ ref()\l}">
<polygon fill="none" stroke="#000000" points="497.5,-127.5 497.5,-305.5 640.5,-305.5 640.5,-127.5 497.5,-127.5"/>
<text text-anchor="start" x="505.5" y="-293.5" font-family="Helvetica,sans-Serif" font-size="10.00" fill="#000000">o2::framework::OutputObj</text>
<text text-anchor="middle" x="569" y="-282.5" font-family="Helvetica,sans-Serif" font-size="10.00" fill="#000000">&lt; TH1F &gt;</text>
<polyline fill="none" stroke="#000000" points="497.5,-275.5 640.5,-275.5 "/>
<text text-anchor="middle" x="569" y="-263.5" font-family="Helvetica,sans-Serif" font-size="10.00" fill="#000000"> </text>
<polyline fill="none" stroke="#000000" points="497.5,-256.5 640.5,-256.5 "/>
<text text-anchor="start" x="505.5" y="-244.5" font-family="Helvetica,sans-Serif" font-size="10.00" fill="#000000">+ spec()</text>
<text text-anchor="start" x="505.5" y="-233.5" font-family="Helvetica,sans-Serif" font-size="10.00" fill="#000000">+ OutputObj()</text>
<text text-anchor="start" x="505.5" y="-222.5" font-family="Helvetica,sans-Serif" font-size="10.00" fill="#000000">+ OutputObj()</text>
<text text-anchor="start" x="505.5" y="-211.5" font-family="Helvetica,sans-Serif" font-size="10.00" fill="#000000">+ setObject()</text>
<text text-anchor="start" x="505.5" y="-200.5" font-family="Helvetica,sans-Serif" font-size="10.00" fill="#000000">+ setObject()</text>
<text text-anchor="start" x="505.5" y="-189.5" font-family="Helvetica,sans-Serif" font-size="10.00" fill="#000000">+ setObject()</text>
<text text-anchor="start" x="505.5" y="-178.5" font-family="Helvetica,sans-Serif" font-size="10.00" fill="#000000">+ setObject()</text>
<text text-anchor="start" x="505.5" y="-167.5" font-family="Helvetica,sans-Serif" font-size="10.00" fill="#000000">+ setHash()</text>
<text text-anchor="start" x="505.5" y="-156.5" font-family="Helvetica,sans-Serif" font-size="10.00" fill="#000000">+ operator&#45;&gt;()</text>
<text text-anchor="start" x="505.5" y="-145.5" font-family="Helvetica,sans-Serif" font-size="10.00" fill="#000000">+ operator*()</text>
<text text-anchor="start" x="505.5" y="-134.5" font-family="Helvetica,sans-Serif" font-size="10.00" fill="#000000">+ ref()</text>
</a>
</g>
</g>
<!-- Node4&#45;&gt;Node7 -->
<g id="edge11" class="edge">
<title>Node4&#45;&gt;Node7</title>
<path fill="none" stroke="#404040" d="M352.6858,-777.7635C345.5319,-707.4194 332.4532,-521.6207 374,-375 380.8821,-350.7127 382.1405,-342.7881 399,-324 423.4088,-296.799 456.2736,-273.8715 486.6004,-256.2696"/>
<polygon fill="none" stroke="#404040" points="486.7606,-256.1789 490.0116,-249.7422 497.2036,-250.2674 493.9526,-256.7041 486.7606,-256.1789"/>
<text text-anchor="middle" x="365" y="-564" font-family="Helvetica,sans-Serif" font-size="10.00" fill="#000000"> +label</text>
</g>
<!-- Node11 -->
<g id="node11" class="node">
<title>Node11</title>
<g id="a_node11"><a xlink:href="../../da/d96/structo2_1_1framework_1_1InputSpec.html" target="_top" xlink:title="{o2::framework::InputSpec\n||+ InputSpec()\l+ InputSpec()\l+ InputSpec()\l+ InputSpec()\l+ InputSpec()\l+ operator==()\l}">
<polygon fill="none" stroke="#000000" points="933,-590.5 933,-702.5 1075,-702.5 1075,-590.5 933,-590.5"/>
<text text-anchor="middle" x="1004" y="-690.5" font-family="Helvetica,sans-Serif" font-size="10.00" fill="#000000">o2::framework::InputSpec</text>
<polyline fill="none" stroke="#000000" points="933,-683.5 1075,-683.5 "/>
<text text-anchor="middle" x="1004" y="-671.5" font-family="Helvetica,sans-Serif" font-size="10.00" fill="#000000"> </text>
<polyline fill="none" stroke="#000000" points="933,-664.5 1075,-664.5 "/>
<text text-anchor="start" x="941" y="-652.5" font-family="Helvetica,sans-Serif" font-size="10.00" fill="#000000">+ InputSpec()</text>
<text text-anchor="start" x="941" y="-641.5" font-family="Helvetica,sans-Serif" font-size="10.00" fill="#000000">+ InputSpec()</text>
<text text-anchor="start" x="941" y="-630.5" font-family="Helvetica,sans-Serif" font-size="10.00" fill="#000000">+ InputSpec()</text>
<text text-anchor="start" x="941" y="-619.5" font-family="Helvetica,sans-Serif" font-size="10.00" fill="#000000">+ InputSpec()</text>
<text text-anchor="start" x="941" y="-608.5" font-family="Helvetica,sans-Serif" font-size="10.00" fill="#000000">+ InputSpec()</text>
<text text-anchor="start" x="941" y="-597.5" font-family="Helvetica,sans-Serif" font-size="10.00" fill="#000000">+ operator==()</text>
</a>
</g>
</g>
<!-- Node4&#45;&gt;Node11 -->
<g id="edge16" class="edge">
<title>Node4&#45;&gt;Node11</title>
<path fill="none" stroke="#404040" d="M370.7025,-806.1277C436.2322,-804.0122 707.4914,-790.4092 921.7904,-703.4966"/>
<polygon fill="none" stroke="#404040" points="921.8261,-703.4819 925.8422,-697.4926 932.9154,-698.8963 928.8993,-704.8855 921.8261,-703.4819"/>
<text text-anchor="middle" x="890" y="-729.5" font-family="Helvetica,sans-Serif" font-size="10.00" fill="#000000"> +binding</text>
</g>
<!-- Node15 -->
<g id="node15" class="node">
<title>Node15</title>
<g id="a_node15"><a xlink:href="../../d4/d79/structo2_1_1framework_1_1OutputObj.html" target="_top" xlink:title="{o2::framework::OutputObj\&lt; T \&gt;\n||+ OutputObj()\l+ OutputObj()\l+ setObject()\l+ setObject()\l+ setObject()\l+ setObject()\l+ setHash()\l+ spec()\l+ operator&#45;\&gt;()\l+ operator*()\l+ ref()\l}">
<polygon fill="none" stroke="#000000" points="675,-375.5 675,-542.5 847,-542.5 847,-375.5 675,-375.5"/>
<text text-anchor="middle" x="761" y="-530.5" font-family="Helvetica,sans-Serif" font-size="10.00" fill="#000000">o2::framework::OutputObj&lt; T &gt;</text>
<polyline fill="none" stroke="#000000" points="675,-523.5 847,-523.5 "/>
<text text-anchor="middle" x="761" y="-511.5" font-family="Helvetica,sans-Serif" font-size="10.00" fill="#000000"> </text>
<polyline fill="none" stroke="#000000" points="675,-504.5 847,-504.5 "/>
<text text-anchor="start" x="683" y="-492.5" font-family="Helvetica,sans-Serif" font-size="10.00" fill="#000000">+ OutputObj()</text>
<text text-anchor="start" x="683" y="-481.5" font-family="Helvetica,sans-Serif" font-size="10.00" fill="#000000">+ OutputObj()</text>
<text text-anchor="start" x="683" y="-470.5" font-family="Helvetica,sans-Serif" font-size="10.00" fill="#000000">+ setObject()</text>
<text text-anchor="start" x="683" y="-459.5" font-family="Helvetica,sans-Serif" font-size="10.00" fill="#000000">+ setObject()</text>
<text text-anchor="start" x="683" y="-448.5" font-family="Helvetica,sans-Serif" font-size="10.00" fill="#000000">+ setObject()</text>
<text text-anchor="start" x="683" y="-437.5" font-family="Helvetica,sans-Serif" font-size="10.00" fill="#000000">+ setObject()</text>
<text text-anchor="start" x="683" y="-426.5" font-family="Helvetica,sans-Serif" font-size="10.00" fill="#000000">+ setHash()</text>
<text text-anchor="start" x="683" y="-415.5" font-family="Helvetica,sans-Serif" font-size="10.00" fill="#000000">+ spec()</text>
<text text-anchor="start" x="683" y="-404.5" font-family="Helvetica,sans-Serif" font-size="10.00" fill="#000000">+ operator&#45;&gt;()</text>
<text text-anchor="start" x="683" y="-393.5" font-family="Helvetica,sans-Serif" font-size="10.00" fill="#000000">+ operator*()</text>
<text text-anchor="start" x="683" y="-382.5" font-family="Helvetica,sans-Serif" font-size="10.00" fill="#000000">+ ref()</text>
</a>
</g>
</g>
<!-- Node4&#45;&gt;Node15 -->
<g id="edge21" class="edge">
<title>Node4&#45;&gt;Node15</title>
<path fill="none" stroke="#404040" d="M370.7965,-805.9443C419.5216,-803.3079 576.6438,-788.2653 661,-703 698.1669,-665.4326 678.2832,-639.03 698,-590 702.7579,-578.1686 708.092,-565.9039 713.5896,-553.8379"/>
<polygon fill="none" stroke="#404040" points="713.6415,-553.7255 712.5256,-546.6012 718.6726,-542.831 719.7885,-549.9553 713.6415,-553.7255"/>
<text text-anchor="middle" x="716" y="-644" font-family="Helvetica,sans-Serif" font-size="10.00" fill="#000000"> +label</text>
</g>
<!-- Node5&#45;&gt;Node2 -->
<g id="edge4" class="edge">
<title>Node5&#45;&gt;Node2</title>
<path fill="none" stroke="#ffa500" d="M169.7881,-596.898C175.4573,-568.1692 182.5409,-532.2727 188.0596,-504.3063"/>
<polygon fill="#ffa500" stroke="#ffa500" points="166.349,-596.2476 167.8467,-606.7361 173.2166,-597.6029 166.349,-596.2476"/>
<text text-anchor="middle" x="206.5" y="-564" font-family="Helvetica,sans-Serif" font-size="10.00" fill="#000000"> &lt; double &gt;</text>
</g>
<!-- Node6 -->
<g id="node6" class="node">
<title>Node6</title>
<polygon fill="none" stroke="#bfbfbf" points="145.5,-778 145.5,-835 174.5,-835 174.5,-778 145.5,-778"/>
<text text-anchor="middle" x="160" y="-823" font-family="Helvetica,sans-Serif" font-size="10.00" fill="#000000">T</text>
<polyline fill="none" stroke="#bfbfbf" points="145.5,-816 174.5,-816 "/>
<text text-anchor="middle" x="160" y="-804" font-family="Helvetica,sans-Serif" font-size="10.00" fill="#000000"> </text>
<polyline fill="none" stroke="#bfbfbf" points="145.5,-797 174.5,-797 "/>
<text text-anchor="middle" x="160" y="-785" font-family="Helvetica,sans-Serif" font-size="10.00" fill="#000000"> </text>
</g>
<!-- Node6&#45;&gt;Node5 -->
<g id="edge6" class="edge">
<title>Node6&#45;&gt;Node5</title>
<path fill="none" stroke="#404040" d="M160,-777.8952C160,-755.8577 160,-724.7968 160,-698.4075"/>
<polygon fill="none" stroke="#404040" points="160.0001,-698.2754 156,-692.2755 160,-686.2754 164,-692.2754 160.0001,-698.2754"/>
<text text-anchor="middle" x="179.5" y="-729.5" font-family="Helvetica,sans-Serif" font-size="10.00" fill="#000000"> +value</text>
</g>
<!-- Node7&#45;&gt;Node1 -->
<g id="edge8" class="edge">
<title>Node7&#45;&gt;Node1</title>
<path fill="none" stroke="#404040" d="M497.2566,-169.8668C452.255,-140.6157 394.7957,-103.2672 351.6359,-75.2133"/>
<polygon fill="none" stroke="#404040" points="351.6065,-75.1943 344.3959,-75.2781 341.5452,-68.6544 348.7558,-68.5705 351.6065,-75.1943"/>
<text text-anchor="middle" x="441.5" y="-101" font-family="Helvetica,sans-Serif" font-size="10.00" fill="#000000"> +hCascCandidate</text>
<text text-anchor="middle" x="441.5" y="-90" font-family="Helvetica,sans-Serif" font-size="10.00" fill="#000000">+hEventCounter</text>
</g>
<!-- Node8 -->
<g id="node8" class="node">
<title>Node8</title>
<polygon fill="none" stroke="#bfbfbf" points="513.5,-618 513.5,-675 652.5,-675 652.5,-618 513.5,-618"/>
<text text-anchor="middle" x="583" y="-663" font-family="Helvetica,sans-Serif" font-size="10.00" fill="#000000">OutputObjHandlingPolicy</text>
<polyline fill="none" stroke="#bfbfbf" points="513.5,-656 652.5,-656 "/>
<text text-anchor="middle" x="583" y="-644" font-family="Helvetica,sans-Serif" font-size="10.00" fill="#000000"> </text>
<polyline fill="none" stroke="#bfbfbf" points="513.5,-637 652.5,-637 "/>
<text text-anchor="middle" x="583" y="-625" font-family="Helvetica,sans-Serif" font-size="10.00" fill="#000000"> </text>
</g>
<!-- Node8&#45;&gt;Node7 -->
<g id="edge9" class="edge">
<title>Node8&#45;&gt;Node7</title>
<path fill="none" stroke="#404040" d="M586.5715,-617.9212C593.0267,-561.5261 604.9111,-432.0173 593,-324 592.773,-321.9419 592.5224,-319.8655 592.2503,-317.7761"/>
<polygon fill="none" stroke="#404040" points="592.2211,-317.5765 587.3911,-312.222 590.4761,-305.7041 595.3061,-311.0586 592.2211,-317.5765"/>
<text text-anchor="middle" x="619.5" y="-456.5" font-family="Helvetica,sans-Serif" font-size="10.00" fill="#000000"> +policy</text>
</g>
<!-- Node8&#45;&gt;Node15 -->
<g id="edge19" class="edge">
<title>Node8&#45;&gt;Node15</title>
<path fill="none" stroke="#404040" d="M598.8979,-617.6146C609.1564,-600.2669 623.456,-578.2833 639,-561 647.4481,-551.6066 651.2741,-551.063 661,-543 662.4182,-541.8242 663.8472,-540.6385 665.2847,-539.4446"/>
<polygon fill="none" stroke="#404040" points="665.65,-539.1407 667.7041,-532.2283 674.8748,-531.4657 672.8207,-538.3781 665.65,-539.1407"/>
<text text-anchor="middle" x="659.5" y="-564" font-family="Helvetica,sans-Serif" font-size="10.00" fill="#000000"> +policy</text>
</g>
<!-- Node9 -->
<g id="node9" class="node">
<title>Node9</title>
<g id="a_node9"><a xlink:href="../../d3/d87/classuint32__t.html" target="_top" xlink:title="{uint32_t\n||}">
<polygon fill="none" stroke="#000000" points="859,-618 859,-675 915,-675 915,-618 859,-618"/>
<text text-anchor="middle" x="887" y="-663" font-family="Helvetica,sans-Serif" font-size="10.00" fill="#000000">uint32_t</text>
<polyline fill="none" stroke="#000000" points="859,-656 915,-656 "/>
<text text-anchor="middle" x="887" y="-644" font-family="Helvetica,sans-Serif" font-size="10.00" fill="#000000"> </text>
<polyline fill="none" stroke="#000000" points="859,-637 915,-637 "/>
<text text-anchor="middle" x="887" y="-625" font-family="Helvetica,sans-Serif" font-size="10.00" fill="#000000"> </text>
</a>
</g>
</g>
<!-- Node9&#45;&gt;Node7 -->
<g id="edge10" class="edge">
<title>Node9&#45;&gt;Node7</title>
<path fill="none" stroke="#404040" d="M891.7803,-617.8121C898.9928,-564.8469 906.8944,-450.2571 856,-375 808.3979,-304.6112 718.7156,-262.4167 652.2191,-239.4702"/>
<polygon fill="none" stroke="#404040" points="651.8839,-239.3578 644.9236,-241.243 640.5063,-235.5432 647.4667,-233.658 651.8839,-239.3578"/>
<text text-anchor="middle" x="932" y="-456.5" font-family="Helvetica,sans-Serif" font-size="10.00" fill="#000000"> +mTaskHash</text>
</g>
<!-- Node9&#45;&gt;Node15 -->
<g id="edge20" class="edge">
<title>Node9&#45;&gt;Node15</title>
<path fill="none" stroke="#404040" d="M871.8472,-617.7178C865.719,-608.0182 857.9605,-597.7104 849,-590 834.8345,-577.8109 824.0428,-585.3836 811,-572 805.4169,-566.271 800.3994,-559.8135 795.9013,-552.9612"/>
<polygon fill="none" stroke="#404040" points="795.891,-552.9441 789.3621,-549.8825 789.6771,-542.6782 796.206,-545.7399 795.891,-552.9441"/>
<text text-anchor="middle" x="845" y="-564" font-family="Helvetica,sans-Serif" font-size="10.00" fill="#000000"> +mTaskHash</text>
</g>
<!-- Node10 -->
<g id="node10" class="node">
<title>Node10</title>
<polygon fill="none" stroke="#bfbfbf" points="410,-618 410,-675 448,-675 448,-618 410,-618"/>
<text text-anchor="middle" x="429" y="-663" font-family="Helvetica,sans-Serif" font-size="10.00" fill="#000000">bool</text>
<polyline fill="none" stroke="#bfbfbf" points="410,-656 448,-656 "/>
<text text-anchor="middle" x="429" y="-644" font-family="Helvetica,sans-Serif" font-size="10.00" fill="#000000"> </text>
<polyline fill="none" stroke="#bfbfbf" points="410,-637 448,-637 "/>
<text text-anchor="middle" x="429" y="-625" font-family="Helvetica,sans-Serif" font-size="10.00" fill="#000000"> </text>
</g>
<!-- Node10&#45;&gt;Node7 -->
<g id="edge12" class="edge">
<title>Node10&#45;&gt;Node7</title>
<path fill="none" stroke="#404040" d="M415.5563,-617.7204C393.6881,-566.5329 356.3554,-457.3152 393,-375 412.5662,-331.0482 451.0102,-294.164 486.9894,-267.0677"/>
<polygon fill="none" stroke="#404040" points="487.3774,-266.7832 489.8504,-260.0094 497.0543,-259.687 494.5813,-266.4608 487.3774,-266.7832"/>
<text text-anchor="middle" x="424" y="-456.5" font-family="Helvetica,sans-Serif" font-size="10.00" fill="#000000"> +isdangling</text>
</g>
<!-- Node10&#45;&gt;Node15 -->
<g id="edge23" class="edge">
<title>Node10&#45;&gt;Node15</title>
<path fill="none" stroke="#404040" d="M448.2841,-630.2538C462.9962,-618.2935 484.0617,-602.0795 504,-590 529.6746,-574.4452 536.4541,-570.2879 565,-561 606.2801,-547.5688 621.7617,-561.5688 661,-543 662.0311,-542.512 663.0603,-542.0108 664.0873,-541.497"/>
<polygon fill="none" stroke="#404040" points="664.4583,-541.2945 667.8078,-534.9085 674.9908,-535.5442 671.6414,-541.9302 664.4583,-541.2945"/>
<text text-anchor="middle" x="596" y="-564" font-family="Helvetica,sans-Serif" font-size="10.00" fill="#000000"> +isdangling</text>
</g>
<!-- Node11&#45;&gt;Node7 -->
<g id="edge13" class="edge">
<title>Node11&#45;&gt;Node7</title>
<path fill="none" stroke="#404040" d="M1003.5495,-590.2307C1001.891,-520.6976 995.2493,-407.5682 970,-375 929.9206,-323.303 757.6798,-268.3224 652.4028,-238.6346"/>
<polygon fill="none" stroke="#404040" points="652.097,-238.5491 645.2412,-240.7849 640.5406,-235.3164 647.3963,-233.0806 652.097,-238.5491"/>
<text text-anchor="middle" x="1019" y="-456.5" font-family="Helvetica,sans-Serif" font-size="10.00" fill="#000000"> +spec</text>
</g>
<!-- Node11&#45;&gt;Node15 -->
<g id="edge24" class="edge">
<title>Node11&#45;&gt;Node15</title>
<path fill="none" stroke="#404040" d="M932.7339,-591.5107C909.0157,-573.2096 882.1976,-552.5167 856.9258,-533.0168"/>
<polygon fill="none" stroke="#404040" points="856.8261,-532.9399 849.6322,-532.4414 847.3255,-525.6092 854.5194,-526.1077 856.8261,-532.9399"/>
<text text-anchor="middle" x="922" y="-564" font-family="Helvetica,sans-Serif" font-size="10.00" fill="#000000"> +spec</text>
</g>
<!-- Node12 -->
<g id="node12" class="node">
<title>Node12</title>
<polygon fill="none" stroke="#bfbfbf" points="888,-778 888,-835 976,-835 976,-778 888,-778"/>
<text text-anchor="middle" x="932" y="-823" font-family="Helvetica,sans-Serif" font-size="10.00" fill="#000000">enum Lifetime</text>
<polyline fill="none" stroke="#bfbfbf" points="888,-816 976,-816 "/>
<text text-anchor="middle" x="932" y="-804" font-family="Helvetica,sans-Serif" font-size="10.00" fill="#000000"> </text>
<polyline fill="none" stroke="#bfbfbf" points="888,-797 976,-797 "/>
<text text-anchor="middle" x="932" y="-785" font-family="Helvetica,sans-Serif" font-size="10.00" fill="#000000"> </text>
</g>
<!-- Node12&#45;&gt;Node11 -->
<g id="edge14" class="edge">
<title>Node12&#45;&gt;Node11</title>
<path fill="none" stroke="#404040" d="M944.8722,-777.8952C952.9,-760.0556 963.5886,-736.303 973.669,-713.9022"/>
<polygon fill="none" stroke="#404040" points="973.786,-713.6422 972.6005,-706.5291 978.7104,-702.6991 979.8959,-709.8121 973.786,-713.6422"/>
<text text-anchor="middle" x="996" y="-729.5" font-family="Helvetica,sans-Serif" font-size="10.00" fill="#000000"> +lifetime</text>
</g>
<!-- Node13 -->
<g id="node13" class="node">
<title>Node13</title>
<polygon fill="none" stroke="#bfbfbf" points="994,-761.5 994,-851.5 1158,-851.5 1158,-761.5 994,-761.5"/>
<text text-anchor="start" x="1002" y="-839.5" font-family="Helvetica,sans-Serif" font-size="10.00" fill="#000000">variant&lt; o2::framework</text>
<text text-anchor="start" x="1002" y="-828.5" font-family="Helvetica,sans-Serif" font-size="10.00" fill="#000000">::ConcreteDataMatcher,</text>
<text text-anchor="start" x="1002" y="-817.5" font-family="Helvetica,sans-Serif" font-size="10.00" fill="#000000"> o2::framework::data_matcher</text>
<text text-anchor="middle" x="1076" y="-806.5" font-family="Helvetica,sans-Serif" font-size="10.00" fill="#000000">::DataDescriptorMatcher &gt;</text>
<polyline fill="none" stroke="#bfbfbf" points="994,-799.5 1158,-799.5 "/>
<text text-anchor="middle" x="1076" y="-787.5" font-family="Helvetica,sans-Serif" font-size="10.00" fill="#000000"> </text>
<polyline fill="none" stroke="#bfbfbf" points="994,-780.5 1158,-780.5 "/>
<text text-anchor="middle" x="1076" y="-768.5" font-family="Helvetica,sans-Serif" font-size="10.00" fill="#000000"> </text>
</g>
<!-- Node13&#45;&gt;Node11 -->
<g id="edge15" class="edge">
<title>Node13&#45;&gt;Node11</title>
<path fill="none" stroke="#404040" d="M1055.5603,-761.0784C1048.9057,-746.2904 1041.3727,-729.5505 1034.161,-713.5244"/>
<polygon fill="none" stroke="#404040" points="1034.1587,-713.5192 1028.0488,-709.6891 1029.2343,-702.5761 1035.3442,-706.4062 1034.1587,-713.5192"/>
<text text-anchor="middle" x="1073" y="-729.5" font-family="Helvetica,sans-Serif" font-size="10.00" fill="#000000"> +matcher</text>
</g>
<!-- Node14 -->
<g id="node14" class="node">
<title>Node14</title>
<polygon fill="none" stroke="#bfbfbf" points="464,-430.5 464,-487.5 580,-487.5 580,-430.5 464,-430.5"/>
<text text-anchor="middle" x="522" y="-475.5" font-family="Helvetica,sans-Serif" font-size="10.00" fill="#000000">shared_ptr&lt; TH1F &gt;</text>
<polyline fill="none" stroke="#bfbfbf" points="464,-468.5 580,-468.5 "/>
<text text-anchor="middle" x="522" y="-456.5" font-family="Helvetica,sans-Serif" font-size="10.00" fill="#000000"> </text>
<polyline fill="none" stroke="#bfbfbf" points="464,-449.5 580,-449.5 "/>
<text text-anchor="middle" x="522" y="-437.5" font-family="Helvetica,sans-Serif" font-size="10.00" fill="#000000"> </text>
</g>
<!-- Node14&#45;&gt;Node7 -->
<g id="edge17" class="edge">
<title>Node14&#45;&gt;Node7</title>
<path fill="none" stroke="#404040" d="M527.5761,-430.2298C532.9761,-402.3678 541.485,-358.4656 549.3899,-317.6799"/>
<polygon fill="none" stroke="#404040" points="549.4262,-317.492 546.641,-310.8405 551.7096,-305.7112 554.4948,-312.3627 549.4262,-317.492"/>
<text text-anchor="middle" x="568" y="-338" font-family="Helvetica,sans-Serif" font-size="10.00" fill="#000000"> +object</text>
</g>
<!-- Node15&#45;&gt;Node7 -->
<g id="edge18" class="edge">
<title>Node15&#45;&gt;Node7</title>
<path fill="none" stroke="#ffa500" d="M688.3487,-367.2399C672.3781,-347.0686 655.4896,-325.7382 639.6013,-305.6709"/>
<polygon fill="#ffa500" stroke="#ffa500" points="685.7041,-369.5382 694.6556,-375.2057 691.1922,-365.1929 685.7041,-369.5382"/>
<text text-anchor="middle" x="702.5" y="-338" font-family="Helvetica,sans-Serif" font-size="10.00" fill="#000000"> &lt; TH1F &gt;</text>
</g>
<!-- Node16 -->
<g id="node16" class="node">
<title>Node16</title>
<polygon fill="none" stroke="#bfbfbf" points="743.5,-618 743.5,-675 840.5,-675 840.5,-618 743.5,-618"/>
<text text-anchor="middle" x="792" y="-663" font-family="Helvetica,sans-Serif" font-size="10.00" fill="#000000">shared_ptr&lt; T &gt;</text>
<polyline fill="none" stroke="#bfbfbf" points="743.5,-656 840.5,-656 "/>
<text text-anchor="middle" x="792" y="-644" font-family="Helvetica,sans-Serif" font-size="10.00" fill="#000000"> </text>
<polyline fill="none" stroke="#bfbfbf" points="743.5,-637 840.5,-637 "/>
<text text-anchor="middle" x="792" y="-625" font-family="Helvetica,sans-Serif" font-size="10.00" fill="#000000"> </text>
</g>
<!-- Node16&#45;&gt;Node15 -->
<g id="edge22" class="edge">
<title>Node16&#45;&gt;Node15</title>
<path fill="none" stroke="#404040" d="M769.1228,-617.8483C760.0347,-604.685 750.6489,-588.378 746,-572 744.4117,-566.4046 743.3859,-560.6046 742.8142,-554.7206"/>
<polygon fill="none" stroke="#404040" points="742.8063,-554.5508 738.5296,-548.7448 742.244,-542.564 746.5208,-548.3699 742.8063,-554.5508"/>
<text text-anchor="middle" x="767" y="-564" font-family="Helvetica,sans-Serif" font-size="10.00" fill="#000000"> +object</text>
</g>
<!-- Node17 -->
<g id="node17" class="node">
<title>Node17</title>
<g id="a_node17"><a xlink:href="../../d6/d86/structo2_1_1framework_1_1Produces.html" target="_top" xlink:title="{o2::framework::Produces\l\&lt; aod::V0Data \&gt;\n||}">
<polygon fill="none" stroke="#000000" points="885,-182.5 885,-250.5 1023,-250.5 1023,-182.5 885,-182.5"/>
<text text-anchor="start" x="893" y="-238.5" font-family="Helvetica,sans-Serif" font-size="10.00" fill="#000000">o2::framework::Produces</text>
<text text-anchor="middle" x="954" y="-227.5" font-family="Helvetica,sans-Serif" font-size="10.00" fill="#000000">&lt; aod::V0Data &gt;</text>
<polyline fill="none" stroke="#000000" points="885,-220.5 1023,-220.5 "/>
<text text-anchor="middle" x="954" y="-208.5" font-family="Helvetica,sans-Serif" font-size="10.00" fill="#000000"> </text>
<polyline fill="none" stroke="#000000" points="885,-201.5 1023,-201.5 "/>
<text text-anchor="middle" x="954" y="-189.5" font-family="Helvetica,sans-Serif" font-size="10.00" fill="#000000"> </text>
</a>
</g>
</g>
<!-- Node17&#45;&gt;Node1 -->
<g id="edge25" class="edge">
<title>Node17&#45;&gt;Node1</title>
<path fill="none" stroke="#404040" d="M884.8417,-195.4788C823.1472,-176.9002 730.2742,-149.3592 649,-127 550.1323,-99.8007 435.2978,-70.7282 362.4111,-52.5876"/>
<polygon fill="none" stroke="#404040" points="362.284,-52.5561 355.4964,-54.9908 350.6383,-49.6617 357.4259,-47.227 362.284,-52.5561"/>
<text text-anchor="middle" x="604" y="-95.5" font-family="Helvetica,sans-Serif" font-size="10.00" fill="#000000"> +v0data</text>
</g>
<!-- Node18 -->
<g id="node18" class="node">
<title>Node18</title>
<g id="a_node18"><a xlink:href="../../d6/d86/structo2_1_1framework_1_1Produces.html" target="_top" xlink:title="{o2::framework::Produces\&lt; T \&gt;\n||}">
<polygon fill="none" stroke="#000000" points="1049.5,-430.5 1049.5,-487.5 1216.5,-487.5 1216.5,-430.5 1049.5,-430.5"/>
<text text-anchor="middle" x="1133" y="-475.5" font-family="Helvetica,sans-Serif" font-size="10.00" fill="#000000">o2::framework::Produces&lt; T &gt;</text>
<polyline fill="none" stroke="#000000" points="1049.5,-468.5 1216.5,-468.5 "/>
<text text-anchor="middle" x="1133" y="-456.5" font-family="Helvetica,sans-Serif" font-size="10.00" fill="#000000"> </text>
<polyline fill="none" stroke="#000000" points="1049.5,-449.5 1216.5,-449.5 "/>
<text text-anchor="middle" x="1133" y="-437.5" font-family="Helvetica,sans-Serif" font-size="10.00" fill="#000000"> </text>
</a>
</g>
</g>
<!-- Node18&#45;&gt;Node17 -->
<g id="edge26" class="edge">
<title>Node18&#45;&gt;Node17</title>
<path fill="none" stroke="#ffa500" d="M1105.6307,-421.9214C1071.2167,-375.2991 1012.6105,-295.9024 979.2342,-250.6859"/>
<polygon fill="#ffa500" stroke="#ffa500" points="1103.0087,-424.2628 1111.7634,-430.2298 1108.6406,-420.1056 1103.0087,-424.2628"/>
<text text-anchor="middle" x="1098" y="-338" font-family="Helvetica,sans-Serif" font-size="10.00" fill="#000000"> &lt; aod::V0Data &gt;</text>
</g>
</g>
</svg>
