<?xml version="1.0" encoding="UTF-8" standalone="no"?>
<!DOCTYPE svg PUBLIC "-//W3C//DTD SVG 1.1//EN"
 "http://www.w3.org/Graphics/SVG/1.1/DTD/svg11.dtd">
<!-- Generated by graphviz version 2.40.1 (20161225.0304)
 -->
<!-- Title: /home/travis/build/AliceO2Group/AliceO2/Detectors/TRD/base/src/TRDGeometryBase.cxx Pages: 1 -->
<svg width="627pt" height="285pt"
 viewBox="0.00 0.00 627.00 285.00" xmlns="http://www.w3.org/2000/svg" xmlns:xlink="http://www.w3.org/1999/xlink">
<g id="graph0" class="graph" transform="scale(1 1) rotate(0) translate(4 281)">
<title>/home/travis/build/AliceO2Group/AliceO2/Detectors/TRD/base/src/TRDGeometryBase.cxx</title>
<!-- Node0 -->
<g id="node1" class="node">
<title>Node0</title>
<polygon fill="#bfbfbf" stroke="#000000" points="201,-224.5 201,-276.5 335,-276.5 335,-224.5 201,-224.5"/>
<text text-anchor="start" x="209" y="-264.5" font-family="Helvetica,sans-Serif" font-size="10.00" fill="#000000">/home/travis/build</text>
<text text-anchor="start" x="209" y="-253.5" font-family="Helvetica,sans-Serif" font-size="10.00" fill="#000000">/AliceO2Group/AliceO2</text>
<text text-anchor="start" x="209" y="-242.5" font-family="Helvetica,sans-Serif" font-size="10.00" fill="#000000">/Detectors/TRD/base/src</text>
<text text-anchor="middle" x="268" y="-231.5" font-family="Helvetica,sans-Serif" font-size="10.00" fill="#000000">/TRDGeometryBase.cxx</text>
</g>
<!-- Node1 -->
<g id="node2" class="node">
<title>Node1</title>
<g id="a_node2"><a xlink:href="../../d8/dad/TRDGeometryBase_8h.html" target="_top" xlink:title="TRDBase/TRDGeometryBase.h">
<polygon fill="none" stroke="#000000" points="185,-168.5 185,-187.5 351,-187.5 351,-168.5 185,-168.5"/>
<text text-anchor="middle" x="268" y="-175.5" font-family="Helvetica,sans-Serif" font-size="10.00" fill="#000000">TRDBase/TRDGeometryBase.h</text>
</a>
</g>
</g>
<!-- Node0&#45;&gt;Node1 -->
<g id="edge1" class="edge">
<title>Node0&#45;&gt;Node1</title>
<path fill="none" stroke="#191970" d="M268,-224.3258C268,-215.5142 268,-205.8397 268,-197.621"/>
<polygon fill="#191970" stroke="#191970" points="271.5001,-197.534 268,-187.534 264.5001,-197.534 271.5001,-197.534"/>
</g>
<!-- Node2 -->
<g id="node3" class="node">
<title>Node2</title>
<g id="a_node3"><a xlink:href="../../df/d21/GPUCommonDef_8h.html" target="_top" xlink:title="GPUCommonDef.h">
<polygon fill="none" stroke="#000000" points="82.5,-56.5 82.5,-75.5 189.5,-75.5 189.5,-56.5 82.5,-56.5"/>
<text text-anchor="middle" x="136" y="-63.5" font-family="Helvetica,sans-Serif" font-size="10.00" fill="#000000">GPUCommonDef.h</text>
</a>
</g>
</g>
<!-- Node1&#45;&gt;Node2 -->
<g id="edge2" class="edge">
<title>Node1&#45;&gt;Node2</title>
<path fill="none" stroke="#191970" d="M207.6211,-168.4792C167.267,-160.7415 119.3853,-148.4196 107,-132 95.7854,-117.1324 107.4048,-97.2508 119.1029,-83.2066"/>
<polygon fill="#191970" stroke="#191970" points="121.7658,-85.4795 125.8277,-75.6942 116.5501,-80.8107 121.7658,-85.4795"/>
</g>
<!-- Node5 -->
<g id="node6" class="node">
<title>Node5</title>
<g id="a_node6"><a xlink:href="../../da/d32/TRDCommonParam_8h.html" target="_top" xlink:title="TRDBase/TRDCommonParam.h">
<polygon fill="none" stroke="#000000" points="451,-112.5 451,-131.5 619,-131.5 619,-112.5 451,-112.5"/>
<text text-anchor="middle" x="535" y="-119.5" font-family="Helvetica,sans-Serif" font-size="10.00" fill="#000000">TRDBase/TRDCommonParam.h</text>
</a>
</g>
</g>
<!-- Node1&#45;&gt;Node5 -->
<g id="edge5" class="edge">
<title>Node1&#45;&gt;Node5</title>
<path fill="none" stroke="#191970" d="M313.5956,-168.4369C359.5785,-158.7925 430.6088,-143.8948 479.7606,-133.5858"/>
<polygon fill="#191970" stroke="#191970" points="480.5239,-137.0019 489.5925,-131.5237 479.087,-130.151 480.5239,-137.0019"/>
</g>
<!-- Node8 -->
<g id="node9" class="node">
<title>Node8</title>
<g id="a_node9"><a xlink:href="../../d6/dc2/DataFormats_2Detectors_2TRD_2include_2DataFormatsTRD_2Constants_8h.html" target="_top" xlink:title="DataFormatsTRD/Constants.h">
<polygon fill="none" stroke="#000000" points="271.5,-112.5 271.5,-131.5 432.5,-131.5 432.5,-112.5 271.5,-112.5"/>
<text text-anchor="middle" x="352" y="-119.5" font-family="Helvetica,sans-Serif" font-size="10.00" fill="#000000">DataFormatsTRD/Constants.h</text>
</a>
</g>
</g>
<!-- Node1&#45;&gt;Node8 -->
<g id="edge8" class="edge">
<title>Node1&#45;&gt;Node8</title>
<path fill="none" stroke="#191970" d="M282.6317,-168.2455C295.3994,-159.7337 314.1438,-147.2375 328.9299,-137.3801"/>
<polygon fill="#191970" stroke="#191970" points="331.1569,-140.1019 337.536,-131.6427 327.274,-134.2775 331.1569,-140.1019"/>
</g>
<!-- Node9 -->
<g id="node10" class="node">
<title>Node9</title>
<g id="a_node10"><a xlink:href="../../de/df3/TRDPadPlane_8h.html" target="_top" xlink:title="TRDBase/TRDPadPlane.h">
<polygon fill="none" stroke="#000000" points="116.5,-112.5 116.5,-131.5 253.5,-131.5 253.5,-112.5 116.5,-112.5"/>
<text text-anchor="middle" x="185" y="-119.5" font-family="Helvetica,sans-Serif" font-size="10.00" fill="#000000">TRDBase/TRDPadPlane.h</text>
</a>
</g>
</g>
<!-- Node1&#45;&gt;Node9 -->
<g id="edge9" class="edge">
<title>Node1&#45;&gt;Node9</title>
<path fill="none" stroke="#191970" d="M253.5425,-168.2455C240.9268,-159.7337 222.4056,-147.2375 207.7955,-137.3801"/>
<polygon fill="#191970" stroke="#191970" points="209.5391,-134.3343 199.2918,-131.6427 205.6239,-140.1371 209.5391,-134.3343"/>
</g>
<!-- Node3 -->
<g id="node4" class="node">
<title>Node3</title>
<g id="a_node4"><a xlink:href="../../d5/d93/GPUCommonDefSettings_8h.html" target="_top" xlink:title="GPUCommonDefSettings.h">
<polygon fill="none" stroke="#000000" points="142,-.5 142,-19.5 290,-19.5 290,-.5 142,-.5"/>
<text text-anchor="middle" x="216" y="-7.5" font-family="Helvetica,sans-Serif" font-size="10.00" fill="#000000">GPUCommonDefSettings.h</text>
</a>
</g>
</g>
<!-- Node2&#45;&gt;Node3 -->
<g id="edge3" class="edge">
<title>Node2&#45;&gt;Node3</title>
<path fill="none" stroke="#191970" d="M149.9349,-56.2455C162.0947,-47.7337 179.9464,-35.2375 194.0285,-25.3801"/>
<polygon fill="#191970" stroke="#191970" points="196.0395,-28.2447 202.2248,-19.6427 192.0253,-22.51 196.0395,-28.2447"/>
</g>
<!-- Node4 -->
<g id="node5" class="node">
<title>Node4</title>
<g id="a_node5"><a xlink:href="../../da/d5a/GPUCommonDefAPI_8h.html" target="_top" xlink:title="GPUCommonDefAPI.h">
<polygon fill="none" stroke="#000000" points="0,-.5 0,-19.5 124,-19.5 124,-.5 0,-.5"/>
<text text-anchor="middle" x="62" y="-7.5" font-family="Helvetica,sans-Serif" font-size="10.00" fill="#000000">GPUCommonDefAPI.h</text>
</a>
</g>
</g>
<!-- Node2&#45;&gt;Node4 -->
<g id="edge4" class="edge">
<title>Node2&#45;&gt;Node4</title>
<path fill="none" stroke="#191970" d="M123.1102,-56.2455C112.0746,-47.8943 95.9708,-35.7076 83.0647,-25.9408"/>
<polygon fill="#191970" stroke="#191970" points="84.8283,-22.8862 74.7421,-19.6427 80.6041,-28.4681 84.8283,-22.8862"/>
</g>
<!-- Node6 -->
<g id="node7" class="node">
<title>Node6</title>
<g id="a_node7"><a xlink:href="../../d2/d45/GPUCommonRtypes_8h.html" target="_top" xlink:title="GPUCommonRtypes.h">
<polygon fill="none" stroke="#000000" points="281.5,-56.5 281.5,-75.5 406.5,-75.5 406.5,-56.5 281.5,-56.5"/>
<text text-anchor="middle" x="344" y="-63.5" font-family="Helvetica,sans-Serif" font-size="10.00" fill="#000000">GPUCommonRtypes.h</text>
</a>
</g>
</g>
<!-- Node5&#45;&gt;Node6 -->
<g id="edge6" class="edge">
<title>Node5&#45;&gt;Node6</title>
<path fill="none" stroke="#191970" d="M502.1659,-112.3733C470.1305,-102.9807 421.2513,-88.6496 386.3145,-78.4064"/>
<polygon fill="#191970" stroke="#191970" points="386.9864,-74.9561 376.4056,-75.5011 385.0169,-81.6733 386.9864,-74.9561"/>
</g>
<!-- Node7 -->
<g id="node8" class="node">
<title>Node7</title>
<polygon fill="none" stroke="#bfbfbf" points="314.5,-.5 314.5,-19.5 373.5,-19.5 373.5,-.5 314.5,-.5"/>
<text text-anchor="middle" x="344" y="-7.5" font-family="Helvetica,sans-Serif" font-size="10.00" fill="#000000">Rtypes.h</text>
</g>
<!-- Node6&#45;&gt;Node7 -->
<g id="edge7" class="edge">
<title>Node6&#45;&gt;Node7</title>
<path fill="none" stroke="#191970" d="M344,-56.2455C344,-48.9382 344,-38.6944 344,-29.7046"/>
<polygon fill="#191970" stroke="#191970" points="347.5001,-29.6426 344,-19.6427 340.5001,-29.6427 347.5001,-29.6426"/>
</g>
<!-- Node9&#45;&gt;Node2 -->
<g id="edge11" class="edge">
<title>Node9&#45;&gt;Node2</title>
<path fill="none" stroke="#191970" d="M176.4649,-112.2455C169.5088,-104.2958 159.5117,-92.8706 151.1949,-83.3656"/>
<polygon fill="#191970" stroke="#191970" points="153.6564,-80.8637 144.4373,-75.6427 148.3884,-85.4732 153.6564,-80.8637"/>
</g>
<!-- Node9&#45;&gt;Node6 -->
<g id="edge10" class="edge">
<title>Node9&#45;&gt;Node6</title>
<path fill="none" stroke="#191970" d="M212.3331,-112.3733C238.5434,-103.1419 278.2984,-89.1402 307.2668,-78.9375"/>
<polygon fill="#191970" stroke="#191970" points="308.7542,-82.1244 317.0236,-75.5011 306.4288,-75.5219 308.7542,-82.1244"/>
</g>
</g>
</svg>
