<?xml version="1.0" encoding="UTF-8" standalone="no"?>
<!DOCTYPE svg PUBLIC "-//W3C//DTD SVG 1.1//EN"
 "http://www.w3.org/Graphics/SVG/1.1/DTD/svg11.dtd">
<!-- Generated by graphviz version 2.40.1 (20161225.0304)
 -->
<!-- Title: lambdakzeroconsumer Pages: 1 -->
<!--zoomable 838 -->
<svg id="main" version="1.1" xmlns="http://www.w3.org/2000/svg" xmlns:xlink="http://www.w3.org/1999/xlink" xml:space="preserve" onload="init(evt)">
<style type="text/css"><![CDATA[
.edge:hover path { stroke: red; }
.edge:hover polygon { stroke: red; fill: red; }
]]></style>
<script type="text/javascript"><![CDATA[
var edges = document.getElementsByTagName('g');
if (edges && edges.length) {
  for (var i=0;i<edges.length;i++) {
    if (edges[i].id.substr(0,4)=='edge') {
      edges[i].setAttribute('class','edge');
    }
  }
}
]]></script>
        <defs>
                <circle id="rim" cx="0" cy="0" r="7"/>
                <circle id="rim2" cx="0" cy="0" r="3.5"/>
                <g id="zoomPlus">
                        <use xlink:href="#rim" fill="#404040">
                                <set attributeName="fill" to="#808080" begin="zoomplus.mouseover" end="zoomplus.mouseout"/>
                        </use>
                        <path d="M-4,0h8M0,-4v8" fill="none" stroke="white" stroke-width="1.5" pointer-events="none"/>
                </g>
                <g id="zoomMin">
                        <use xlink:href="#rim" fill="#404040">
                                <set attributeName="fill" to="#808080" begin="zoomminus.mouseover" end="zoomminus.mouseout"/>
                        </use>
                        <path d="M-4,0h8" fill="none" stroke="white" stroke-width="1.5" pointer-events="none"/>
                </g>
                <g id="dirArrow">
                        <path fill="none" stroke="white" stroke-width="1.5" d="M0,-3.0v7 M-2.5,-0.5L0,-3.0L2.5,-0.5"/>
                </g>
               <g id="resetDef">
                       <use xlink:href="#rim2" fill="#404040">
                               <set attributeName="fill" to="#808080" begin="reset.mouseover" end="reset.mouseout"/>
                       </use>
               </g>
        </defs>

<script type="text/javascript">
var viewWidth = 1399;
var viewHeight = 838;
var sectionId = 'dynsection-0';
</script>
<script xlink:href="../../svgpan.js"/>
<svg id="graph" class="graph">
<g id="viewport">
<title>lambdakzeroconsumer</title>
<!-- Node1 -->
<g id="node1" class="node">
<title>Node1</title>
<polygon fill="#bfbfbf" stroke="#000000" points="496.5,-.5 496.5,-57.5 624.5,-57.5 624.5,-.5 496.5,-.5"/>
<text text-anchor="middle" x="560.5" y="-45.5" font-family="Helvetica,sans-Serif" font-size="10.00" fill="#000000">lambdakzeroconsumer</text>
<polyline fill="none" stroke="#000000" points="496.5,-38.5 624.5,-38.5 "/>
<text text-anchor="middle" x="560.5" y="-26.5" font-family="Helvetica,sans-Serif" font-size="10.00" fill="#000000"> </text>
<polyline fill="none" stroke="#000000" points="496.5,-19.5 624.5,-19.5 "/>
<text text-anchor="start" x="504.5" y="-7.5" font-family="Helvetica,sans-Serif" font-size="10.00" fill="#000000">+ process()</text>
</g>
<!-- Node2 -->
<g id="node2" class="node">
<title>Node2</title>
<g id="a_node2"><a xlink:href="../../d8/d71/structo2_1_1framework_1_1Configurable.html" target="_top" xlink:title="{o2::framework::Configurable\l\&lt; double \&gt;\n||+ Configurable()\l+ operator double()\l+ operator&#45;\&gt;()\l}">
<polygon fill="none" stroke="#000000" points="128,-392 128,-482 283,-482 283,-392 128,-392"/>
<text text-anchor="start" x="136" y="-470" font-family="Helvetica,sans-Serif" font-size="10.00" fill="#000000">o2::framework::Configurable</text>
<text text-anchor="middle" x="205.5" y="-459" font-family="Helvetica,sans-Serif" font-size="10.00" fill="#000000">&lt; double &gt;</text>
<polyline fill="none" stroke="#000000" points="128,-452 283,-452 "/>
<text text-anchor="middle" x="205.5" y="-440" font-family="Helvetica,sans-Serif" font-size="10.00" fill="#000000"> </text>
<polyline fill="none" stroke="#000000" points="128,-433 283,-433 "/>
<text text-anchor="start" x="136" y="-421" font-family="Helvetica,sans-Serif" font-size="10.00" fill="#000000">+ Configurable()</text>
<text text-anchor="start" x="136" y="-410" font-family="Helvetica,sans-Serif" font-size="10.00" fill="#000000">+ operator double()</text>
<text text-anchor="start" x="136" y="-399" font-family="Helvetica,sans-Serif" font-size="10.00" fill="#000000">+ operator&#45;&gt;()</text>
</a>
</g>
</g>
<!-- Node2&#45;&gt;Node1 -->
<g id="edge1" class="edge">
<title>Node2&#45;&gt;Node1</title>
<path fill="none" stroke="#404040" d="M228.6733,-391.7409C263.04,-327.6008 332.3751,-208.9577 414.5,-127 438.9298,-102.6199 470.257,-80.6602 497.6247,-63.7381"/>
<polygon fill="none" stroke="#404040" points="497.6382,-63.73 500.6925,-57.1977 507.8971,-57.5046 504.8428,-64.037 497.6382,-63.73"/>
<text text-anchor="middle" x="440.5" y="-214" font-family="Helvetica,sans-Serif" font-size="10.00" fill="#000000"> +v0cospa</text>
</g>
<!-- Node3 -->
<g id="node3" class="node">
<title>Node3</title>
<polygon fill="none" stroke="#bfbfbf" points="126.5,-596 126.5,-653 176.5,-653 176.5,-596 126.5,-596"/>
<text text-anchor="middle" x="151.5" y="-641" font-family="Helvetica,sans-Serif" font-size="10.00" fill="#000000">double</text>
<polyline fill="none" stroke="#bfbfbf" points="126.5,-634 176.5,-634 "/>
<text text-anchor="middle" x="151.5" y="-622" font-family="Helvetica,sans-Serif" font-size="10.00" fill="#000000"> </text>
<polyline fill="none" stroke="#bfbfbf" points="126.5,-615 176.5,-615 "/>
<text text-anchor="middle" x="151.5" y="-603" font-family="Helvetica,sans-Serif" font-size="10.00" fill="#000000"> </text>
</g>
<!-- Node3&#45;&gt;Node2 -->
<g id="edge2" class="edge">
<title>Node3&#45;&gt;Node2</title>
<path fill="none" stroke="#404040" d="M159.8192,-595.614C167.5997,-568.5981 179.4398,-527.4868 189.1161,-493.8884"/>
<polygon fill="none" stroke="#404040" points="189.1172,-493.8843 186.934,-487.0116 192.4383,-482.353 194.6216,-489.2257 189.1172,-493.8843"/>
<text text-anchor="middle" x="195" y="-542" font-family="Helvetica,sans-Serif" font-size="10.00" fill="#000000"> +value</text>
</g>
<!-- Node4 -->
<g id="node4" class="node">
<title>Node4</title>
<polygon fill="none" stroke="#bfbfbf" points="462,-756 462,-813 491,-813 491,-756 462,-756"/>
<text text-anchor="middle" x="476.5" y="-801" font-family="Helvetica,sans-Serif" font-size="10.00" fill="#000000">int</text>
<polyline fill="none" stroke="#bfbfbf" points="462,-794 491,-794 "/>
<text text-anchor="middle" x="476.5" y="-782" font-family="Helvetica,sans-Serif" font-size="10.00" fill="#000000"> </text>
<polyline fill="none" stroke="#bfbfbf" points="462,-775 491,-775 "/>
<text text-anchor="middle" x="476.5" y="-763" font-family="Helvetica,sans-Serif" font-size="10.00" fill="#000000"> </text>
</g>
<!-- Node4&#45;&gt;Node2 -->
<g id="edge3" class="edge">
<title>Node4&#45;&gt;Node2</title>
<path fill="none" stroke="#404040" d="M461.6545,-783.0243C395.246,-776.0903 126.5467,-744.3925 77.5,-681 46.7676,-641.2786 58.5498,-614.5098 77.5,-568 89.5749,-538.3644 111.9381,-511.784 134.6343,-490.4368"/>
<polygon fill="none" stroke="#404040" points="134.7914,-490.2938 136.537,-483.2971 143.6669,-482.2174 141.9213,-489.2141 134.7914,-490.2938"/>
<text text-anchor="middle" x="97.5" y="-627.5" font-family="Helvetica,sans-Serif" font-size="10.00" fill="#000000"> +name</text>
<text text-anchor="middle" x="97.5" y="-616.5" font-family="Helvetica,sans-Serif" font-size="10.00" fill="#000000">+help</text>
</g>
<!-- Node5 -->
<g id="node5" class="node">
<title>Node5</title>
<g id="a_node5"><a xlink:href="../../d8/d71/structo2_1_1framework_1_1Configurable.html" target="_top" xlink:title="{o2::framework::Configurable\&lt; T \&gt;\n||+ Configurable()\l+ operator T()\l+ operator&#45;\&gt;()\l}">
<polygon fill="none" stroke="#000000" points="194.5,-585 194.5,-664 378.5,-664 378.5,-585 194.5,-585"/>
<text text-anchor="middle" x="286.5" y="-652" font-family="Helvetica,sans-Serif" font-size="10.00" fill="#000000">o2::framework::Configurable&lt; T &gt;</text>
<polyline fill="none" stroke="#000000" points="194.5,-645 378.5,-645 "/>
<text text-anchor="middle" x="286.5" y="-633" font-family="Helvetica,sans-Serif" font-size="10.00" fill="#000000"> </text>
<polyline fill="none" stroke="#000000" points="194.5,-626 378.5,-626 "/>
<text text-anchor="start" x="202.5" y="-614" font-family="Helvetica,sans-Serif" font-size="10.00" fill="#000000">+ Configurable()</text>
<text text-anchor="start" x="202.5" y="-603" font-family="Helvetica,sans-Serif" font-size="10.00" fill="#000000">+ operator T()</text>
<text text-anchor="start" x="202.5" y="-592" font-family="Helvetica,sans-Serif" font-size="10.00" fill="#000000">+ operator&#45;&gt;()</text>
</a>
</g>
</g>
<!-- Node4&#45;&gt;Node5 -->
<g id="edge5" class="edge">
<title>Node4&#45;&gt;Node5</title>
<path fill="none" stroke="#404040" d="M461.7447,-778.7814C438.466,-769.2705 392.5714,-748.4956 360.5,-721 344.8374,-707.5721 330.3499,-690.3348 318.4224,-674.1529"/>
<polygon fill="none" stroke="#404040" points="318.3238,-674.0151 311.5789,-671.4644 311.3391,-664.2573 318.0841,-666.808 318.3238,-674.0151"/>
<text text-anchor="middle" x="380.5" y="-713" font-family="Helvetica,sans-Serif" font-size="10.00" fill="#000000"> +name</text>
<text text-anchor="middle" x="380.5" y="-702" font-family="Helvetica,sans-Serif" font-size="10.00" fill="#000000">+help</text>
</g>
<!-- Node7 -->
<g id="node7" class="node">
<title>Node7</title>
<g id="a_node7"><a xlink:href="../../d8/d71/structo2_1_1framework_1_1Configurable.html" target="_top" xlink:title="{o2::framework::Configurable\l\&lt; float \&gt;\n||+ Configurable()\l+ operator float()\l+ operator&#45;\&gt;()\l}">
<polygon fill="none" stroke="#000000" points="346,-392 346,-482 501,-482 501,-392 346,-392"/>
<text text-anchor="start" x="354" y="-470" font-family="Helvetica,sans-Serif" font-size="10.00" fill="#000000">o2::framework::Configurable</text>
<text text-anchor="middle" x="423.5" y="-459" font-family="Helvetica,sans-Serif" font-size="10.00" fill="#000000">&lt; float &gt;</text>
<polyline fill="none" stroke="#000000" points="346,-452 501,-452 "/>
<text text-anchor="middle" x="423.5" y="-440" font-family="Helvetica,sans-Serif" font-size="10.00" fill="#000000"> </text>
<polyline fill="none" stroke="#000000" points="346,-433 501,-433 "/>
<text text-anchor="start" x="354" y="-421" font-family="Helvetica,sans-Serif" font-size="10.00" fill="#000000">+ Configurable()</text>
<text text-anchor="start" x="354" y="-410" font-family="Helvetica,sans-Serif" font-size="10.00" fill="#000000">+ operator float()</text>
<text text-anchor="start" x="354" y="-399" font-family="Helvetica,sans-Serif" font-size="10.00" fill="#000000">+ operator&#45;&gt;()</text>
</a>
</g>
</g>
<!-- Node4&#45;&gt;Node7 -->
<g id="edge9" class="edge">
<title>Node4&#45;&gt;Node7</title>
<path fill="none" stroke="#404040" d="M461.9362,-763.4741C448.9487,-743.3516 430.8828,-711.6151 423.5,-681 408.4403,-618.5502 411.2226,-544.4659 415.9932,-494.4454"/>
<polygon fill="none" stroke="#404040" points="416.0176,-494.2062 412.6492,-487.8302 417.2392,-482.2686 420.6076,-488.6446 416.0176,-494.2062"/>
<text text-anchor="middle" x="443.5" y="-627.5" font-family="Helvetica,sans-Serif" font-size="10.00" fill="#000000"> +name</text>
<text text-anchor="middle" x="443.5" y="-616.5" font-family="Helvetica,sans-Serif" font-size="10.00" fill="#000000">+help</text>
</g>
<!-- Node9 -->
<g id="node9" class="node">
<title>Node9</title>
<g id="a_node9"><a xlink:href="../../d4/d79/structo2_1_1framework_1_1OutputObj.html" target="_top" xlink:title="{o2::framework::OutputObj\l\&lt; TH3F \&gt;\n||+ spec()\l+ OutputObj()\l+ OutputObj()\l+ setObject()\l+ setObject()\l+ setObject()\l+ setObject()\l+ setHash()\l+ operator&#45;\&gt;()\l+ operator*()\l+ ref()\l}">
<polygon fill="none" stroke="#000000" points="662,-127.5 662,-305.5 805,-305.5 805,-127.5 662,-127.5"/>
<text text-anchor="start" x="670" y="-293.5" font-family="Helvetica,sans-Serif" font-size="10.00" fill="#000000">o2::framework::OutputObj</text>
<text text-anchor="middle" x="733.5" y="-282.5" font-family="Helvetica,sans-Serif" font-size="10.00" fill="#000000">&lt; TH3F &gt;</text>
<polyline fill="none" stroke="#000000" points="662,-275.5 805,-275.5 "/>
<text text-anchor="middle" x="733.5" y="-263.5" font-family="Helvetica,sans-Serif" font-size="10.00" fill="#000000"> </text>
<polyline fill="none" stroke="#000000" points="662,-256.5 805,-256.5 "/>
<text text-anchor="start" x="670" y="-244.5" font-family="Helvetica,sans-Serif" font-size="10.00" fill="#000000">+ spec()</text>
<text text-anchor="start" x="670" y="-233.5" font-family="Helvetica,sans-Serif" font-size="10.00" fill="#000000">+ OutputObj()</text>
<text text-anchor="start" x="670" y="-222.5" font-family="Helvetica,sans-Serif" font-size="10.00" fill="#000000">+ OutputObj()</text>
<text text-anchor="start" x="670" y="-211.5" font-family="Helvetica,sans-Serif" font-size="10.00" fill="#000000">+ setObject()</text>
<text text-anchor="start" x="670" y="-200.5" font-family="Helvetica,sans-Serif" font-size="10.00" fill="#000000">+ setObject()</text>
<text text-anchor="start" x="670" y="-189.5" font-family="Helvetica,sans-Serif" font-size="10.00" fill="#000000">+ setObject()</text>
<text text-anchor="start" x="670" y="-178.5" font-family="Helvetica,sans-Serif" font-size="10.00" fill="#000000">+ setObject()</text>
<text text-anchor="start" x="670" y="-167.5" font-family="Helvetica,sans-Serif" font-size="10.00" fill="#000000">+ setHash()</text>
<text text-anchor="start" x="670" y="-156.5" font-family="Helvetica,sans-Serif" font-size="10.00" fill="#000000">+ operator&#45;&gt;()</text>
<text text-anchor="start" x="670" y="-145.5" font-family="Helvetica,sans-Serif" font-size="10.00" fill="#000000">+ operator*()</text>
<text text-anchor="start" x="670" y="-134.5" font-family="Helvetica,sans-Serif" font-size="10.00" fill="#000000">+ ref()</text>
</a>
</g>
</g>
<!-- Node4&#45;&gt;Node9 -->
<g id="edge14" class="edge">
<title>Node4&#45;&gt;Node9</title>
<path fill="none" stroke="#404040" d="M490.5525,-755.6928C499.9921,-735.273 512.0269,-706.9934 519.5,-681 560.3418,-538.9414 506.7985,-484.3971 574.5,-353 592.1657,-318.7139 622.4681,-289.4156 651.9112,-266.8541"/>
<polygon fill="none" stroke="#404040" points="652.2164,-266.627 654.6423,-259.8361 661.8438,-259.4635 659.4179,-266.2544 652.2164,-266.627"/>
<text text-anchor="middle" x="555.5" y="-542" font-family="Helvetica,sans-Serif" font-size="10.00" fill="#000000"> +label</text>
</g>
<!-- Node13 -->
<g id="node13" class="node">
<title>Node13</title>
<g id="a_node13"><a xlink:href="../../da/d96/structo2_1_1framework_1_1InputSpec.html" target="_top" xlink:title="{o2::framework::InputSpec\n||+ InputSpec()\l+ InputSpec()\l+ InputSpec()\l+ InputSpec()\l+ InputSpec()\l+ operator==()\l}">
<polygon fill="none" stroke="#000000" points="1132.5,-568.5 1132.5,-680.5 1274.5,-680.5 1274.5,-568.5 1132.5,-568.5"/>
<text text-anchor="middle" x="1203.5" y="-668.5" font-family="Helvetica,sans-Serif" font-size="10.00" fill="#000000">o2::framework::InputSpec</text>
<polyline fill="none" stroke="#000000" points="1132.5,-661.5 1274.5,-661.5 "/>
<text text-anchor="middle" x="1203.5" y="-649.5" font-family="Helvetica,sans-Serif" font-size="10.00" fill="#000000"> </text>
<polyline fill="none" stroke="#000000" points="1132.5,-642.5 1274.5,-642.5 "/>
<text text-anchor="start" x="1140.5" y="-630.5" font-family="Helvetica,sans-Serif" font-size="10.00" fill="#000000">+ InputSpec()</text>
<text text-anchor="start" x="1140.5" y="-619.5" font-family="Helvetica,sans-Serif" font-size="10.00" fill="#000000">+ InputSpec()</text>
<text text-anchor="start" x="1140.5" y="-608.5" font-family="Helvetica,sans-Serif" font-size="10.00" fill="#000000">+ InputSpec()</text>
<text text-anchor="start" x="1140.5" y="-597.5" font-family="Helvetica,sans-Serif" font-size="10.00" fill="#000000">+ InputSpec()</text>
<text text-anchor="start" x="1140.5" y="-586.5" font-family="Helvetica,sans-Serif" font-size="10.00" fill="#000000">+ InputSpec()</text>
<text text-anchor="start" x="1140.5" y="-575.5" font-family="Helvetica,sans-Serif" font-size="10.00" fill="#000000">+ operator==()</text>
</a>
</g>
</g>
<!-- Node4&#45;&gt;Node13 -->
<g id="edge19" class="edge">
<title>Node4&#45;&gt;Node13</title>
<path fill="none" stroke="#404040" d="M491.3479,-783.3848C552.0165,-778.6664 786.8541,-758.825 976.5,-721 1038.8723,-708.5598 1059.3488,-709.4075 1121.1339,-681.2462"/>
<polygon fill="none" stroke="#404040" points="1121.4068,-681.1194 1125.1606,-674.9623 1132.2878,-676.0593 1128.534,-682.2163 1121.4068,-681.1194"/>
<text text-anchor="middle" x="1101.5" y="-707.5" font-family="Helvetica,sans-Serif" font-size="10.00" fill="#000000"> +binding</text>
</g>
<!-- Node17 -->
<g id="node17" class="node">
<title>Node17</title>
<g id="a_node17"><a xlink:href="../../d4/d79/structo2_1_1framework_1_1OutputObj.html" target="_top" xlink:title="{o2::framework::OutputObj\&lt; T \&gt;\n||+ OutputObj()\l+ OutputObj()\l+ setObject()\l+ setObject()\l+ setObject()\l+ setObject()\l+ setHash()\l+ spec()\l+ operator&#45;\&gt;()\l+ operator*()\l+ ref()\l}">
<polygon fill="none" stroke="#000000" points="979.5,-353.5 979.5,-520.5 1151.5,-520.5 1151.5,-353.5 979.5,-353.5"/>
<text text-anchor="middle" x="1065.5" y="-508.5" font-family="Helvetica,sans-Serif" font-size="10.00" fill="#000000">o2::framework::OutputObj&lt; T &gt;</text>
<polyline fill="none" stroke="#000000" points="979.5,-501.5 1151.5,-501.5 "/>
<text text-anchor="middle" x="1065.5" y="-489.5" font-family="Helvetica,sans-Serif" font-size="10.00" fill="#000000"> </text>
<polyline fill="none" stroke="#000000" points="979.5,-482.5 1151.5,-482.5 "/>
<text text-anchor="start" x="987.5" y="-470.5" font-family="Helvetica,sans-Serif" font-size="10.00" fill="#000000">+ OutputObj()</text>
<text text-anchor="start" x="987.5" y="-459.5" font-family="Helvetica,sans-Serif" font-size="10.00" fill="#000000">+ OutputObj()</text>
<text text-anchor="start" x="987.5" y="-448.5" font-family="Helvetica,sans-Serif" font-size="10.00" fill="#000000">+ setObject()</text>
<text text-anchor="start" x="987.5" y="-437.5" font-family="Helvetica,sans-Serif" font-size="10.00" fill="#000000">+ setObject()</text>
<text text-anchor="start" x="987.5" y="-426.5" font-family="Helvetica,sans-Serif" font-size="10.00" fill="#000000">+ setObject()</text>
<text text-anchor="start" x="987.5" y="-415.5" font-family="Helvetica,sans-Serif" font-size="10.00" fill="#000000">+ setObject()</text>
<text text-anchor="start" x="987.5" y="-404.5" font-family="Helvetica,sans-Serif" font-size="10.00" fill="#000000">+ setHash()</text>
<text text-anchor="start" x="987.5" y="-393.5" font-family="Helvetica,sans-Serif" font-size="10.00" fill="#000000">+ spec()</text>
<text text-anchor="start" x="987.5" y="-382.5" font-family="Helvetica,sans-Serif" font-size="10.00" fill="#000000">+ operator&#45;&gt;()</text>
<text text-anchor="start" x="987.5" y="-371.5" font-family="Helvetica,sans-Serif" font-size="10.00" fill="#000000">+ operator*()</text>
<text text-anchor="start" x="987.5" y="-360.5" font-family="Helvetica,sans-Serif" font-size="10.00" fill="#000000">+ ref()</text>
</a>
</g>
</g>
<!-- Node4&#45;&gt;Node17 -->
<g id="edge24" class="edge">
<title>Node4&#45;&gt;Node17</title>
<path fill="none" stroke="#404040" d="M491.4307,-783.0282C562.1994,-775.7744 863.2609,-741.7157 931.5,-681 971.3019,-645.5863 939.9513,-610.9302 971.5,-568 979.3957,-557.2559 986.5001,-559.8377 995.5,-550 1000.9945,-543.994 1006.3039,-537.4978 1011.3747,-530.7604"/>
<polygon fill="none" stroke="#404040" points="1011.5887,-530.4649 1011.8684,-523.2592 1018.6273,-520.7459 1018.3477,-527.9516 1011.5887,-530.4649"/>
<text text-anchor="middle" x="989.5" y="-622" font-family="Helvetica,sans-Serif" font-size="10.00" fill="#000000"> +label</text>
</g>
<!-- Node5&#45;&gt;Node2 -->
<g id="edge4" class="edge">
<title>Node5&#45;&gt;Node2</title>
<path fill="none" stroke="#ffa500" d="M265.2344,-575.274C252.7966,-546.4829 237.2066,-510.3948 225.0723,-482.3063"/>
<polygon fill="#ffa500" stroke="#ffa500" points="262.1431,-576.9441 269.322,-584.7361 268.5692,-574.168 262.1431,-576.9441"/>
<text text-anchor="middle" x="283" y="-542" font-family="Helvetica,sans-Serif" font-size="10.00" fill="#000000"> &lt; double &gt;</text>
</g>
<!-- Node5&#45;&gt;Node7 -->
<g id="edge10" class="edge">
<title>Node5&#45;&gt;Node7</title>
<path fill="none" stroke="#ffa500" d="M321.6474,-576.3968C342.8156,-547.4257 369.6052,-510.7612 390.3962,-482.3063"/>
<polygon fill="#ffa500" stroke="#ffa500" points="318.6278,-574.5969 315.5542,-584.7361 324.2799,-578.7266 318.6278,-574.5969"/>
<text text-anchor="middle" x="371.5" y="-542" font-family="Helvetica,sans-Serif" font-size="10.00" fill="#000000"> &lt; float &gt;</text>
</g>
<!-- Node6 -->
<g id="node6" class="node">
<title>Node6</title>
<polygon fill="none" stroke="#bfbfbf" points="0,-756 0,-813 29,-813 29,-756 0,-756"/>
<text text-anchor="middle" x="14.5" y="-801" font-family="Helvetica,sans-Serif" font-size="10.00" fill="#000000">T</text>
<polyline fill="none" stroke="#bfbfbf" points="0,-794 29,-794 "/>
<text text-anchor="middle" x="14.5" y="-782" font-family="Helvetica,sans-Serif" font-size="10.00" fill="#000000"> </text>
<polyline fill="none" stroke="#bfbfbf" points="0,-775 29,-775 "/>
<text text-anchor="middle" x="14.5" y="-763" font-family="Helvetica,sans-Serif" font-size="10.00" fill="#000000"> </text>
</g>
<!-- Node6&#45;&gt;Node5 -->
<g id="edge6" class="edge">
<title>Node6&#45;&gt;Node5</title>
<path fill="none" stroke="#404040" d="M29.1239,-775.8977C62.3471,-756.3546 145.4981,-707.4423 208.368,-670.46"/>
<polygon fill="none" stroke="#404040" points="208.7188,-670.2537 211.8624,-663.7638 219.0621,-664.1694 215.9185,-670.6593 208.7188,-670.2537"/>
<text text-anchor="middle" x="179" y="-707.5" font-family="Helvetica,sans-Serif" font-size="10.00" fill="#000000"> +value</text>
</g>
<!-- Node7&#45;&gt;Node1 -->
<g id="edge7" class="edge">
<title>Node7&#45;&gt;Node1</title>
<path fill="none" stroke="#404040" d="M438.6848,-391.778C465.6326,-311.5248 521.3896,-145.4748 547.0456,-69.0685"/>
<polygon fill="none" stroke="#404040" points="547.0759,-68.9781 545.1939,-62.0169 550.8958,-57.6023 552.7778,-64.5635 547.0759,-68.9781"/>
<text text-anchor="middle" x="561.5" y="-230.5" font-family="Helvetica,sans-Serif" font-size="10.00" fill="#000000"> +dcapostopv</text>
<text text-anchor="middle" x="561.5" y="-219.5" font-family="Helvetica,sans-Serif" font-size="10.00" fill="#000000">+dcav0dau</text>
<text text-anchor="middle" x="561.5" y="-208.5" font-family="Helvetica,sans-Serif" font-size="10.00" fill="#000000">+v0radius</text>
<text text-anchor="middle" x="561.5" y="-197.5" font-family="Helvetica,sans-Serif" font-size="10.00" fill="#000000">+dcanegtopv</text>
</g>
<!-- Node8 -->
<g id="node8" class="node">
<title>Node8</title>
<g id="a_node8"><a xlink:href="../../d4/dc3/classfloat.html" target="_top" xlink:title="{float\n||}">
<polygon fill="none" stroke="#000000" points="472.5,-596 472.5,-653 510.5,-653 510.5,-596 472.5,-596"/>
<text text-anchor="middle" x="491.5" y="-641" font-family="Helvetica,sans-Serif" font-size="10.00" fill="#000000">float</text>
<polyline fill="none" stroke="#000000" points="472.5,-634 510.5,-634 "/>
<text text-anchor="middle" x="491.5" y="-622" font-family="Helvetica,sans-Serif" font-size="10.00" fill="#000000"> </text>
<polyline fill="none" stroke="#000000" points="472.5,-615 510.5,-615 "/>
<text text-anchor="middle" x="491.5" y="-603" font-family="Helvetica,sans-Serif" font-size="10.00" fill="#000000"> </text>
</a>
</g>
</g>
<!-- Node8&#45;&gt;Node7 -->
<g id="edge8" class="edge">
<title>Node8&#45;&gt;Node7</title>
<path fill="none" stroke="#404040" d="M481.024,-595.614C471.2263,-568.5981 456.3165,-527.4868 444.1315,-493.8884"/>
<polygon fill="none" stroke="#404040" points="444.0393,-493.6341 438.2333,-489.3573 439.948,-482.353 445.754,-486.6298 444.0393,-493.6341"/>
<text text-anchor="middle" x="484" y="-542" font-family="Helvetica,sans-Serif" font-size="10.00" fill="#000000"> +value</text>
</g>
<!-- Node9&#45;&gt;Node1 -->
<g id="edge11" class="edge">
<title>Node9&#45;&gt;Node1</title>
<path fill="none" stroke="#404040" d="M661.8855,-138.8831C638.9922,-114.071 614.6647,-87.7045 595.5797,-67.0199"/>
<polygon fill="none" stroke="#404040" points="595.3413,-66.7615 588.3327,-65.0642 587.2038,-57.942 594.2124,-59.6393 595.3413,-66.7615"/>
<text text-anchor="middle" x="689" y="-101" font-family="Helvetica,sans-Serif" font-size="10.00" fill="#000000"> +h3dMassAntiLambda</text>
<text text-anchor="middle" x="689" y="-90" font-family="Helvetica,sans-Serif" font-size="10.00" fill="#000000">+h3dMassLambda</text>
<text text-anchor="middle" x="689" y="-79" font-family="Helvetica,sans-Serif" font-size="10.00" fill="#000000">+h3dMassK0Short</text>
</g>
<!-- Node10 -->
<g id="node10" class="node">
<title>Node10</title>
<polygon fill="none" stroke="#bfbfbf" points="613,-596 613,-653 752,-653 752,-596 613,-596"/>
<text text-anchor="middle" x="682.5" y="-641" font-family="Helvetica,sans-Serif" font-size="10.00" fill="#000000">OutputObjHandlingPolicy</text>
<polyline fill="none" stroke="#bfbfbf" points="613,-634 752,-634 "/>
<text text-anchor="middle" x="682.5" y="-622" font-family="Helvetica,sans-Serif" font-size="10.00" fill="#000000"> </text>
<polyline fill="none" stroke="#bfbfbf" points="613,-615 752,-615 "/>
<text text-anchor="middle" x="682.5" y="-603" font-family="Helvetica,sans-Serif" font-size="10.00" fill="#000000"> </text>
</g>
<!-- Node10&#45;&gt;Node9 -->
<g id="edge12" class="edge">
<title>Node10&#45;&gt;Node9</title>
<path fill="none" stroke="#404040" d="M650.086,-595.87C631.0607,-576.8106 608.79,-550.0077 598.5,-521 573.5373,-450.6297 570.117,-422.0617 598.5,-353 610.2443,-324.4236 631.1835,-298.6452 653.1189,-277.3852"/>
<polygon fill="none" stroke="#404040" points="653.1346,-277.3705 654.7749,-270.3484 661.8878,-269.1618 660.2474,-276.1838 653.1346,-277.3705"/>
<text text-anchor="middle" x="619" y="-434.5" font-family="Helvetica,sans-Serif" font-size="10.00" fill="#000000"> +policy</text>
</g>
<!-- Node10&#45;&gt;Node17 -->
<g id="edge22" class="edge">
<title>Node10&#45;&gt;Node17</title>
<path fill="none" stroke="#404040" d="M711.4943,-595.9796C733.2648,-576.4229 764.8335,-551.784 797.5,-539 867.4297,-511.6332 896.413,-550.4295 965.5,-521 966.5267,-520.5627 967.5509,-520.1111 968.5722,-519.646"/>
<polygon fill="none" stroke="#404040" points="968.6851,-519.589 972.2365,-513.3131 979.3956,-514.1775 975.8442,-520.4535 968.6851,-519.589"/>
<text text-anchor="middle" x="818" y="-542" font-family="Helvetica,sans-Serif" font-size="10.00" fill="#000000"> +policy</text>
</g>
<!-- Node11 -->
<g id="node11" class="node">
<title>Node11</title>
<g id="a_node11"><a xlink:href="../../d3/d87/classuint32__t.html" target="_top" xlink:title="{uint32_t\n||}">
<polygon fill="none" stroke="#000000" points="773.5,-596 773.5,-653 829.5,-653 829.5,-596 773.5,-596"/>
<text text-anchor="middle" x="801.5" y="-641" font-family="Helvetica,sans-Serif" font-size="10.00" fill="#000000">uint32_t</text>
<polyline fill="none" stroke="#000000" points="773.5,-634 829.5,-634 "/>
<text text-anchor="middle" x="801.5" y="-622" font-family="Helvetica,sans-Serif" font-size="10.00" fill="#000000"> </text>
<polyline fill="none" stroke="#000000" points="773.5,-615 829.5,-615 "/>
<text text-anchor="middle" x="801.5" y="-603" font-family="Helvetica,sans-Serif" font-size="10.00" fill="#000000"> </text>
</a>
</g>
</g>
<!-- Node11&#45;&gt;Node9 -->
<g id="edge13" class="edge">
<title>Node11&#45;&gt;Node9</title>
<path fill="none" stroke="#404040" d="M784.6006,-595.9511C777.9368,-586.2734 769.6739,-575.9198 760.5,-568 726.3419,-538.5116 693.885,-559.5939 670.5,-521 633.1568,-459.3699 651.8859,-379.2216 678.3653,-316.6233"/>
<polygon fill="none" stroke="#404040" points="678.4013,-316.5407 677.1397,-309.4408 683.2082,-305.5455 684.4698,-312.6454 678.4013,-316.5407"/>
<text text-anchor="middle" x="704.5" y="-434.5" font-family="Helvetica,sans-Serif" font-size="10.00" fill="#000000"> +mTaskHash</text>
</g>
<!-- Node11&#45;&gt;Node17 -->
<g id="edge23" class="edge">
<title>Node11&#45;&gt;Node17</title>
<path fill="none" stroke="#404040" d="M811.9382,-595.6892C820.4162,-576.521 834.306,-552.4721 854.5,-539 896.0751,-511.264 920.0659,-541.8212 965.5,-521 966.5145,-520.5351 967.527,-520.057 968.5371,-519.5664"/>
<polygon fill="none" stroke="#404040" points="968.6628,-519.4996 972.0808,-513.15 979.2566,-513.863 975.8385,-520.2125 968.6628,-519.4996"/>
<text text-anchor="middle" x="888.5" y="-542" font-family="Helvetica,sans-Serif" font-size="10.00" fill="#000000"> +mTaskHash</text>
</g>
<!-- Node12 -->
<g id="node12" class="node">
<title>Node12</title>
<polygon fill="none" stroke="#bfbfbf" points="884.5,-596 884.5,-653 922.5,-653 922.5,-596 884.5,-596"/>
<text text-anchor="middle" x="903.5" y="-641" font-family="Helvetica,sans-Serif" font-size="10.00" fill="#000000">bool</text>
<polyline fill="none" stroke="#bfbfbf" points="884.5,-634 922.5,-634 "/>
<text text-anchor="middle" x="903.5" y="-622" font-family="Helvetica,sans-Serif" font-size="10.00" fill="#000000"> </text>
<polyline fill="none" stroke="#bfbfbf" points="884.5,-615 922.5,-615 "/>
<text text-anchor="middle" x="903.5" y="-603" font-family="Helvetica,sans-Serif" font-size="10.00" fill="#000000"> </text>
</g>
<!-- Node12&#45;&gt;Node9 -->
<g id="edge15" class="edge">
<title>Node12&#45;&gt;Node9</title>
<path fill="none" stroke="#404040" d="M906.265,-595.8198C909.963,-544.3218 912.0383,-434.0049 872.5,-353 858.7481,-324.8254 836.7307,-299.1579 814.2367,-277.8757"/>
<polygon fill="none" stroke="#404040" points="814.1074,-277.7569 806.983,-276.642 805.2719,-269.6368 812.3963,-270.7517 814.1074,-277.7569"/>
<text text-anchor="middle" x="939.5" y="-434.5" font-family="Helvetica,sans-Serif" font-size="10.00" fill="#000000"> +isdangling</text>
</g>
<!-- Node12&#45;&gt;Node17 -->
<g id="edge26" class="edge">
<title>Node12&#45;&gt;Node17</title>
<path fill="none" stroke="#404040" d="M908.2164,-595.7576C912.369,-577.8194 919.9536,-555.1506 933.5,-539 943.9864,-526.4977 952.0834,-530.288 965.5,-521 966.7846,-520.1107 968.0724,-519.2085 969.3625,-518.2946"/>
<polygon fill="none" stroke="#404040" points="969.5731,-518.1414 972.0721,-511.3771 979.2772,-511.0823 976.7782,-517.8466 969.5731,-518.1414"/>
<text text-anchor="middle" x="964.5" y="-542" font-family="Helvetica,sans-Serif" font-size="10.00" fill="#000000"> +isdangling</text>
</g>
<!-- Node13&#45;&gt;Node9 -->
<g id="edge16" class="edge">
<title>Node13&#45;&gt;Node9</title>
<path fill="none" stroke="#404040" d="M1197.7746,-568.4188C1189.6735,-493.729 1174.311,-369.0931 1160.5,-353 1115.5699,-300.6459 928.0778,-255.3395 817.0322,-232.4288"/>
<polygon fill="none" stroke="#404040" points="816.9661,-232.4153 810.287,-235.1339 805.2087,-230.0143 811.8877,-227.2957 816.9661,-232.4153"/>
<text text-anchor="middle" x="1209.5" y="-434.5" font-family="Helvetica,sans-Serif" font-size="10.00" fill="#000000"> +spec</text>
</g>
<!-- Node13&#45;&gt;Node17 -->
<g id="edge27" class="edge">
<title>Node13&#45;&gt;Node17</title>
<path fill="none" stroke="#404040" d="M1153.7988,-568.1827C1148.8588,-562.1323 1144.0091,-555.9964 1139.5,-550 1134.7654,-543.7037 1129.999,-537.1139 1125.2909,-530.4162"/>
<polygon fill="none" stroke="#404040" points="1125.2849,-530.4075 1118.5783,-527.7576 1118.445,-520.5477 1125.1515,-523.1976 1125.2849,-530.4075"/>
<text text-anchor="middle" x="1156.5" y="-542" font-family="Helvetica,sans-Serif" font-size="10.00" fill="#000000"> +spec</text>
</g>
<!-- Node14 -->
<g id="node14" class="node">
<title>Node14</title>
<polygon fill="none" stroke="#bfbfbf" points="1268.5,-756 1268.5,-813 1356.5,-813 1356.5,-756 1268.5,-756"/>
<text text-anchor="middle" x="1312.5" y="-801" font-family="Helvetica,sans-Serif" font-size="10.00" fill="#000000">enum Lifetime</text>
<polyline fill="none" stroke="#bfbfbf" points="1268.5,-794 1356.5,-794 "/>
<text text-anchor="middle" x="1312.5" y="-782" font-family="Helvetica,sans-Serif" font-size="10.00" fill="#000000"> </text>
<polyline fill="none" stroke="#bfbfbf" points="1268.5,-775 1356.5,-775 "/>
<text text-anchor="middle" x="1312.5" y="-763" font-family="Helvetica,sans-Serif" font-size="10.00" fill="#000000"> </text>
</g>
<!-- Node14&#45;&gt;Node13 -->
<g id="edge17" class="edge">
<title>Node14&#45;&gt;Node13</title>
<path fill="none" stroke="#404040" d="M1293.013,-755.8952C1280.6378,-737.7298 1264.0859,-713.4334 1248.5825,-690.6761"/>
<polygon fill="none" stroke="#404040" points="1248.5419,-690.6165 1241.858,-687.9099 1241.7856,-680.6991 1248.4695,-683.4057 1248.5419,-690.6165"/>
<text text-anchor="middle" x="1293.5" y="-707.5" font-family="Helvetica,sans-Serif" font-size="10.00" fill="#000000"> +lifetime</text>
</g>
<!-- Node15 -->
<g id="node15" class="node">
<title>Node15</title>
<polygon fill="none" stroke="#bfbfbf" points="1086.5,-739.5 1086.5,-829.5 1250.5,-829.5 1250.5,-739.5 1086.5,-739.5"/>
<text text-anchor="start" x="1094.5" y="-817.5" font-family="Helvetica,sans-Serif" font-size="10.00" fill="#000000">variant&lt; o2::framework</text>
<text text-anchor="start" x="1094.5" y="-806.5" font-family="Helvetica,sans-Serif" font-size="10.00" fill="#000000">::ConcreteDataMatcher,</text>
<text text-anchor="start" x="1094.5" y="-795.5" font-family="Helvetica,sans-Serif" font-size="10.00" fill="#000000"> o2::framework::data_matcher</text>
<text text-anchor="middle" x="1168.5" y="-784.5" font-family="Helvetica,sans-Serif" font-size="10.00" fill="#000000">::DataDescriptorMatcher &gt;</text>
<polyline fill="none" stroke="#bfbfbf" points="1086.5,-777.5 1250.5,-777.5 "/>
<text text-anchor="middle" x="1168.5" y="-765.5" font-family="Helvetica,sans-Serif" font-size="10.00" fill="#000000"> </text>
<polyline fill="none" stroke="#bfbfbf" points="1086.5,-758.5 1250.5,-758.5 "/>
<text text-anchor="middle" x="1168.5" y="-746.5" font-family="Helvetica,sans-Serif" font-size="10.00" fill="#000000"> </text>
</g>
<!-- Node15&#45;&gt;Node13 -->
<g id="edge18" class="edge">
<title>Node15&#45;&gt;Node13</title>
<path fill="none" stroke="#404040" d="M1178.436,-739.0784C1181.6086,-724.5748 1185.192,-708.1936 1188.636,-692.4497"/>
<polygon fill="none" stroke="#404040" points="1188.6689,-692.2989 1186.0435,-685.5827 1191.2333,-680.5761 1193.8587,-687.2923 1188.6689,-692.2989"/>
<text text-anchor="middle" x="1213.5" y="-707.5" font-family="Helvetica,sans-Serif" font-size="10.00" fill="#000000"> +matcher</text>
</g>
<!-- Node16 -->
<g id="node16" class="node">
<title>Node16</title>
<polygon fill="none" stroke="#bfbfbf" points="747.5,-408.5 747.5,-465.5 863.5,-465.5 863.5,-408.5 747.5,-408.5"/>
<text text-anchor="middle" x="805.5" y="-453.5" font-family="Helvetica,sans-Serif" font-size="10.00" fill="#000000">shared_ptr&lt; TH3F &gt;</text>
<polyline fill="none" stroke="#bfbfbf" points="747.5,-446.5 863.5,-446.5 "/>
<text text-anchor="middle" x="805.5" y="-434.5" font-family="Helvetica,sans-Serif" font-size="10.00" fill="#000000"> </text>
<polyline fill="none" stroke="#bfbfbf" points="747.5,-427.5 863.5,-427.5 "/>
<text text-anchor="middle" x="805.5" y="-415.5" font-family="Helvetica,sans-Serif" font-size="10.00" fill="#000000"> </text>
</g>
<!-- Node16&#45;&gt;Node9 -->
<g id="edge20" class="edge">
<title>Node16&#45;&gt;Node9</title>
<path fill="none" stroke="#404040" d="M796.0873,-408.1735C788.4834,-384.8868 777.3042,-350.6503 766.4897,-317.5311"/>
<polygon fill="none" stroke="#404040" points="766.4111,-317.2901 760.7462,-312.8281 762.6862,-305.8828 768.3511,-310.3448 766.4111,-317.2901"/>
<text text-anchor="middle" x="793.5" y="-327" font-family="Helvetica,sans-Serif" font-size="10.00" fill="#000000"> +object</text>
</g>
<!-- Node17&#45;&gt;Node9 -->
<g id="edge21" class="edge">
<title>Node17&#45;&gt;Node9</title>
<path fill="none" stroke="#ffa500" d="M971.1625,-357.0632C969.2692,-355.6849 967.3805,-354.329 965.5,-353 913.8844,-316.5209 852.0516,-280.4869 805.2045,-254.6098"/>
<polygon fill="#ffa500" stroke="#ffa500" points="969.3659,-360.0885 979.4818,-363.238 973.5379,-354.4675 969.3659,-360.0885"/>
<text text-anchor="middle" x="961" y="-327" font-family="Helvetica,sans-Serif" font-size="10.00" fill="#000000"> &lt; TH3F &gt;</text>
</g>
<!-- Node18 -->
<g id="node18" class="node">
<title>Node18</title>
<polygon fill="none" stroke="#bfbfbf" points="1017,-596 1017,-653 1114,-653 1114,-596 1017,-596"/>
<text text-anchor="middle" x="1065.5" y="-641" font-family="Helvetica,sans-Serif" font-size="10.00" fill="#000000">shared_ptr&lt; T &gt;</text>
<polyline fill="none" stroke="#bfbfbf" points="1017,-634 1114,-634 "/>
<text text-anchor="middle" x="1065.5" y="-622" font-family="Helvetica,sans-Serif" font-size="10.00" fill="#000000"> </text>
<polyline fill="none" stroke="#bfbfbf" points="1017,-615 1114,-615 "/>
<text text-anchor="middle" x="1065.5" y="-603" font-family="Helvetica,sans-Serif" font-size="10.00" fill="#000000"> </text>
</g>
<!-- Node18&#45;&gt;Node17 -->
<g id="edge25" class="edge">
<title>Node18&#45;&gt;Node17</title>
<path fill="none" stroke="#404040" d="M1065.5,-595.614C1065.5,-578.5472 1065.5,-555.8551 1065.5,-532.9856"/>
<polygon fill="none" stroke="#404040" points="1065.5001,-532.6694 1061.5,-526.6694 1065.5,-520.6694 1069.5,-526.6693 1065.5001,-532.6694"/>
<text text-anchor="middle" x="1086.5" y="-542" font-family="Helvetica,sans-Serif" font-size="10.00" fill="#000000"> +object</text>
</g>
<!-- Node19 -->
<g id="node19" class="node">
<title>Node19</title>
<g id="a_node19"><a xlink:href="../../d1/d9a/structo2_1_1framework_1_1expressions_1_1Filter.html" target="_top" xlink:title="A struct, containing the root of the expression tree. ">
<polygon fill="none" stroke="#000000" points="1121.5,-177 1121.5,-256 1273.5,-256 1273.5,-177 1121.5,-177"/>
<text text-anchor="start" x="1129.5" y="-244" font-family="Helvetica,sans-Serif" font-size="10.00" fill="#000000">o2::framework::expressions</text>
<text text-anchor="middle" x="1197.5" y="-233" font-family="Helvetica,sans-Serif" font-size="10.00" fill="#000000">::Filter</text>
<polyline fill="none" stroke="#000000" points="1121.5,-226 1273.5,-226 "/>
<text text-anchor="middle" x="1197.5" y="-214" font-family="Helvetica,sans-Serif" font-size="10.00" fill="#000000"> </text>
<polyline fill="none" stroke="#000000" points="1121.5,-207 1273.5,-207 "/>
<text text-anchor="start" x="1129.5" y="-195" font-family="Helvetica,sans-Serif" font-size="10.00" fill="#000000">+ Filter()</text>
<text text-anchor="start" x="1129.5" y="-184" font-family="Helvetica,sans-Serif" font-size="10.00" fill="#000000">+ Filter()</text>
</a>
</g>
</g>
<!-- Node19&#45;&gt;Node1 -->
<g id="edge28" class="edge">
<title>Node19&#45;&gt;Node1</title>
<path fill="none" stroke="#404040" d="M1121.4218,-191.1039C1032.6261,-161.821 881.144,-112.9751 749.5,-76 712.5189,-65.613 671.1398,-55.1891 636.5488,-46.8065"/>
<polygon fill="none" stroke="#404040" points="636.281,-46.742 629.5107,-49.2247 624.6151,-43.9301 631.3853,-41.4474 636.281,-46.742"/>
<text text-anchor="middle" x="893.5" y="-90" font-family="Helvetica,sans-Serif" font-size="10.00" fill="#000000"> +preFilterV0</text>
</g>
<!-- Node20 -->
<g id="node20" class="node">
<title>Node20</title>
<polygon fill="none" stroke="#bfbfbf" points="1240,-403 1240,-471 1391,-471 1391,-403 1240,-403"/>
<text text-anchor="start" x="1248" y="-459" font-family="Helvetica,sans-Serif" font-size="10.00" fill="#000000">unique_ptr&lt; o2::framework</text>
<text text-anchor="middle" x="1315.5" y="-448" font-family="Helvetica,sans-Serif" font-size="10.00" fill="#000000">::expressions::Node &gt;</text>
<polyline fill="none" stroke="#bfbfbf" points="1240,-441 1391,-441 "/>
<text text-anchor="middle" x="1315.5" y="-429" font-family="Helvetica,sans-Serif" font-size="10.00" fill="#000000"> </text>
<polyline fill="none" stroke="#bfbfbf" points="1240,-422 1391,-422 "/>
<text text-anchor="middle" x="1315.5" y="-410" font-family="Helvetica,sans-Serif" font-size="10.00" fill="#000000"> </text>
</g>
<!-- Node20&#45;&gt;Node19 -->
<g id="edge29" class="edge">
<title>Node20&#45;&gt;Node19</title>
<path fill="none" stroke="#404040" d="M1297.0625,-402.5469C1277.6053,-366.1883 1246.7407,-308.5134 1224.5326,-267.0142"/>
<polygon fill="none" stroke="#404040" points="1224.4626,-266.8835 1218.1048,-263.4807 1218.8006,-256.3032 1225.1584,-259.706 1224.4626,-266.8835"/>
<text text-anchor="middle" x="1278.5" y="-327" font-family="Helvetica,sans-Serif" font-size="10.00" fill="#000000"> +node</text>
</g>
</g>
</svg>
        <g id="navigator" transform="translate(0 0)" fill="#404254">
                <rect fill="#f2f5e9" fill-opacity="0.5" stroke="#606060" stroke-width=".5" x="0" y="0" width="60" height="60"/>
                <use id="zoomplus" xlink:href="#zoomPlus" x="17" y="9" onmousedown="handleZoom(evt,'in')"/>
                <use id="zoomminus" xlink:href="#zoomMin" x="42" y="9" onmousedown="handleZoom(evt,'out')"/>
                <use id="reset" xlink:href="#resetDef" x="30" y="36" onmousedown="handleReset()"/>
                <g id="arrowUp" xlink:href="#dirArrow" transform="translate(30 24)" onmousedown="handlePan(0,-1)">
                  <use xlink:href="#rim" fill="#404040">
                        <set attributeName="fill" to="#808080" begin="arrowUp.mouseover" end="arrowUp.mouseout"/>
                  </use>
                  <path fill="none" stroke="white" stroke-width="1.5" d="M0,-3.0v7 M-2.5,-0.5L0,-3.0L2.5,-0.5"/>
                </g>
                <g id="arrowRight" xlink:href="#dirArrow" transform="rotate(90) translate(36 -43)" onmousedown="handlePan(1,0)">
                  <use xlink:href="#rim" fill="#404040">
                        <set attributeName="fill" to="#808080" begin="arrowRight.mouseover" end="arrowRight.mouseout"/>
                  </use>
                  <path fill="none" stroke="white" stroke-width="1.5" d="M0,-3.0v7 M-2.5,-0.5L0,-3.0L2.5,-0.5"/>
                </g>
                <g id="arrowDown" xlink:href="#dirArrow" transform="rotate(180) translate(-30 -48)" onmousedown="handlePan(0,1)">
                  <use xlink:href="#rim" fill="#404040">
                        <set attributeName="fill" to="#808080" begin="arrowDown.mouseover" end="arrowDown.mouseout"/>
                  </use>
                  <path fill="none" stroke="white" stroke-width="1.5" d="M0,-3.0v7 M-2.5,-0.5L0,-3.0L2.5,-0.5"/>
                </g>
                <g id="arrowLeft" xlink:href="#dirArrow" transform="rotate(270) translate(-36 17)" onmousedown="handlePan(-1,0)">
                  <use xlink:href="#rim" fill="#404040">
                        <set attributeName="fill" to="#808080" begin="arrowLeft.mouseover" end="arrowLeft.mouseout"/>
                  </use>
                  <path fill="none" stroke="white" stroke-width="1.5" d="M0,-3.0v7 M-2.5,-0.5L0,-3.0L2.5,-0.5"/>
                </g>
        </g>
        <svg viewBox="0 0 15 15" width="100%" height="30px" preserveAspectRatio="xMaxYMin meet">
         <g id="arrow_out" transform="scale(0.3 0.3)">
          <a xlink:href="structlambdakzeroconsumer__coll__graph_org.svg" target="_base">
           <rect id="button" ry="5" rx="5" y="6" x="6" height="38" width="38"
                fill="#f2f5e9" fill-opacity="0.5" stroke="#606060" stroke-width="1.0"/>
           <path id="arrow"
             d="M 11.500037,31.436501 C 11.940474,20.09759 22.043105,11.32322 32.158766,21.979434 L 37.068811,17.246167 C 37.068811,17.246167 37.088388,32 37.088388,32 L 22.160133,31.978069 C 22.160133,31.978069 26.997745,27.140456 26.997745,27.140456 C 18.528582,18.264221 13.291696,25.230495 11.500037,31.436501 z"
             style="fill:#404040;"/>
          </a>
         </g>
        </svg>
</svg>
