<?xml version="1.0" encoding="UTF-8" standalone="no"?>
<!DOCTYPE svg PUBLIC "-//W3C//DTD SVG 1.1//EN"
 "http://www.w3.org/Graphics/SVG/1.1/DTD/svg11.dtd">
<!-- Generated by graphviz version 2.40.1 (20161225.0304)
 -->
<!-- Title: /home/travis/build/AliceO2Group/AliceO2/DataFormats/Detectors/TRD/src/LinkRecord.cxx Pages: 1 -->
<svg width="749pt" height="296pt"
 viewBox="0.00 0.00 748.64 296.00" xmlns="http://www.w3.org/2000/svg" xmlns:xlink="http://www.w3.org/1999/xlink">
<g id="graph0" class="graph" transform="scale(1 1) rotate(0) translate(4 292)">
<title>/home/travis/build/AliceO2Group/AliceO2/DataFormats/Detectors/TRD/src/LinkRecord.cxx</title>
<!-- Node0 -->
<g id="node1" class="node">
<title>Node0</title>
<polygon fill="#bfbfbf" stroke="#000000" points="190.6437,-235.5 190.6437,-287.5 324.6437,-287.5 324.6437,-235.5 190.6437,-235.5"/>
<text text-anchor="start" x="198.6437" y="-275.5" font-family="Helvetica,sans-Serif" font-size="10.00" fill="#000000">/home/travis/build</text>
<text text-anchor="start" x="198.6437" y="-264.5" font-family="Helvetica,sans-Serif" font-size="10.00" fill="#000000">/AliceO2Group/AliceO2</text>
<text text-anchor="start" x="198.6437" y="-253.5" font-family="Helvetica,sans-Serif" font-size="10.00" fill="#000000">/DataFormats/Detectors</text>
<text text-anchor="middle" x="257.6437" y="-242.5" font-family="Helvetica,sans-Serif" font-size="10.00" fill="#000000">/TRD/src/LinkRecord.cxx</text>
</g>
<!-- Node1 -->
<g id="node2" class="node">
<title>Node1</title>
<polygon fill="none" stroke="#bfbfbf" points="96.6437,-179.5 96.6437,-198.5 156.6437,-198.5 156.6437,-179.5 96.6437,-179.5"/>
<text text-anchor="middle" x="126.6437" y="-186.5" font-family="Helvetica,sans-Serif" font-size="10.00" fill="#000000">iostream</text>
</g>
<!-- Node0&#45;&gt;Node1 -->
<g id="edge1" class="edge">
<title>Node0&#45;&gt;Node1</title>
<path fill="none" stroke="#191970" d="M210.3497,-235.3258C190.9903,-224.6116 169.3259,-212.6218 152.8881,-203.5246"/>
<polygon fill="#191970" stroke="#191970" points="154.3149,-200.314 143.8707,-198.534 150.9253,-206.4386 154.3149,-200.314"/>
</g>
<!-- Node2 -->
<g id="node3" class="node">
<title>Node2</title>
<g id="a_node3"><a xlink:href="../../de/d86/LinkRecord_8h.html" target="_top" xlink:title="DataFormatsTRD/LinkRecord.h">
<polygon fill="none" stroke="#000000" points="175.1437,-179.5 175.1437,-198.5 340.1437,-198.5 340.1437,-179.5 175.1437,-179.5"/>
<text text-anchor="middle" x="257.6437" y="-186.5" font-family="Helvetica,sans-Serif" font-size="10.00" fill="#000000">DataFormatsTRD/LinkRecord.h</text>
</a>
</g>
</g>
<!-- Node0&#45;&gt;Node2 -->
<g id="edge2" class="edge">
<title>Node0&#45;&gt;Node2</title>
<path fill="none" stroke="#191970" d="M257.6437,-235.3258C257.6437,-226.5142 257.6437,-216.8397 257.6437,-208.621"/>
<polygon fill="#191970" stroke="#191970" points="261.1438,-208.534 257.6437,-198.534 254.1438,-208.534 261.1438,-208.534"/>
</g>
<!-- Node13 -->
<g id="node14" class="node">
<title>Node13</title>
<g id="a_node14"><a xlink:href="../../d6/dc2/DataFormats_2Detectors_2TRD_2include_2DataFormatsTRD_2Constants_8h.html" target="_top" xlink:title="DataFormatsTRD/Constants.h">
<polygon fill="none" stroke="#000000" points="358.1437,-179.5 358.1437,-198.5 519.1437,-198.5 519.1437,-179.5 358.1437,-179.5"/>
<text text-anchor="middle" x="438.6437" y="-186.5" font-family="Helvetica,sans-Serif" font-size="10.00" fill="#000000">DataFormatsTRD/Constants.h</text>
</a>
</g>
</g>
<!-- Node0&#45;&gt;Node13 -->
<g id="edge16" class="edge">
<title>Node0&#45;&gt;Node13</title>
<path fill="none" stroke="#191970" d="M322.7332,-235.4283C350.7563,-224.2035 382.3167,-211.5619 405.421,-202.3074"/>
<polygon fill="#191970" stroke="#191970" points="406.7887,-205.53 414.7702,-198.5626 404.1858,-199.0319 406.7887,-205.53"/>
</g>
<!-- Node3 -->
<g id="node4" class="node">
<title>Node3</title>
<polygon fill="none" stroke="#bfbfbf" points="223.1437,-56.5 223.1437,-75.5 272.1437,-75.5 272.1437,-56.5 223.1437,-56.5"/>
<text text-anchor="middle" x="247.6437" y="-63.5" font-family="Helvetica,sans-Serif" font-size="10.00" fill="#000000">iosfwd</text>
</g>
<!-- Node2&#45;&gt;Node3 -->
<g id="edge3" class="edge">
<title>Node2&#45;&gt;Node3</title>
<path fill="none" stroke="#191970" d="M256.859,-179.3484C255.2234,-159.2295 251.421,-112.4608 249.2461,-85.7098"/>
<polygon fill="#191970" stroke="#191970" points="252.7237,-85.2902 248.4248,-75.6068 245.7467,-85.8575 252.7237,-85.2902"/>
</g>
<!-- Node4 -->
<g id="node5" class="node">
<title>Node4</title>
<polygon fill="none" stroke="#bfbfbf" points="28.1437,-.5 28.1437,-19.5 87.1437,-19.5 87.1437,-.5 28.1437,-.5"/>
<text text-anchor="middle" x="57.6437" y="-7.5" font-family="Helvetica,sans-Serif" font-size="10.00" fill="#000000">Rtypes.h</text>
</g>
<!-- Node2&#45;&gt;Node4 -->
<g id="edge4" class="edge">
<title>Node2&#45;&gt;Node4</title>
<path fill="none" stroke="#191970" d="M179.3251,-179.4596C111.1446,-170.3489 21.5333,-156.1048 10.6437,-143 -18.1501,-108.3487 18.7122,-54.8155 41.7358,-27.4334"/>
<polygon fill="#191970" stroke="#191970" points="44.4304,-29.6685 48.3488,-19.8249 39.1471,-25.0765 44.4304,-29.6685"/>
</g>
<!-- Node5 -->
<g id="node6" class="node">
<title>Node5</title>
<g id="a_node6"><a xlink:href="../../d9/d80/InteractionRecord_8h.html" target="_top" xlink:title="CommonDataFormat/Interaction\lRecord.h">
<polygon fill="none" stroke="#000000" points="285.6437,-112.5 285.6437,-142.5 459.6437,-142.5 459.6437,-112.5 285.6437,-112.5"/>
<text text-anchor="start" x="293.6437" y="-130.5" font-family="Helvetica,sans-Serif" font-size="10.00" fill="#000000">CommonDataFormat/Interaction</text>
<text text-anchor="middle" x="372.6437" y="-119.5" font-family="Helvetica,sans-Serif" font-size="10.00" fill="#000000">Record.h</text>
</a>
</g>
</g>
<!-- Node2&#45;&gt;Node5 -->
<g id="edge5" class="edge">
<title>Node2&#45;&gt;Node5</title>
<path fill="none" stroke="#191970" d="M275.6125,-179.3906C291.6087,-170.8361 315.516,-158.0509 335.5967,-147.3121"/>
<polygon fill="#191970" stroke="#191970" points="337.3439,-150.3469 344.5116,-142.5446 334.0428,-144.1741 337.3439,-150.3469"/>
</g>
<!-- Node10 -->
<g id="node11" class="node">
<title>Node10</title>
<g id="a_node11"><a xlink:href="../../de/d64/RangeReference_8h.html" target="_top" xlink:title="Class to refer to the 1st entry and N elements of some group in the continuous container. ">
<polygon fill="none" stroke="#000000" points="19.6437,-118 19.6437,-137 229.6437,-137 229.6437,-118 19.6437,-118"/>
<text text-anchor="middle" x="124.6437" y="-125" font-family="Helvetica,sans-Serif" font-size="10.00" fill="#000000">CommonDataFormat/RangeReference.h</text>
</a>
</g>
</g>
<!-- Node2&#45;&gt;Node10 -->
<g id="edge12" class="edge">
<title>Node2&#45;&gt;Node10</title>
<path fill="none" stroke="#191970" d="M236.8625,-179.3906C214.8043,-169.1908 179.7387,-152.9763 154.6768,-141.3875"/>
<polygon fill="#191970" stroke="#191970" points="155.8246,-138.0622 145.279,-137.0419 152.8867,-144.4158 155.8246,-138.0622"/>
</g>
<!-- Node11 -->
<g id="node12" class="node">
<title>Node11</title>
<g id="a_node12"><a xlink:href="../../dc/d62/RawData_8h.html" target="_top" xlink:title="DataFormatsTRD/RawData.h">
<polygon fill="none" stroke="#000000" points="537.6437,-118 537.6437,-137 693.6437,-137 693.6437,-118 537.6437,-118"/>
<text text-anchor="middle" x="615.6437" y="-125" font-family="Helvetica,sans-Serif" font-size="10.00" fill="#000000">DataFormatsTRD/RawData.h</text>
</a>
</g>
</g>
<!-- Node2&#45;&gt;Node11 -->
<g id="edge14" class="edge">
<title>Node2&#45;&gt;Node11</title>
<path fill="none" stroke="#191970" d="M313.1884,-179.4581C377.1701,-168.4668 482.1815,-150.4272 550.1063,-138.7585"/>
<polygon fill="#191970" stroke="#191970" points="551.0002,-142.1563 560.2633,-137.0137 549.815,-135.2574 551.0002,-142.1563"/>
</g>
<!-- Node5&#45;&gt;Node3 -->
<g id="edge8" class="edge">
<title>Node5&#45;&gt;Node3</title>
<path fill="none" stroke="#191970" d="M342.0653,-112.4554C321.9405,-102.554 295.7798,-89.683 276.0999,-80.0004"/>
<polygon fill="#191970" stroke="#191970" points="277.5322,-76.8045 267.0143,-75.5303 274.442,-83.0855 277.5322,-76.8045"/>
</g>
<!-- Node6 -->
<g id="node7" class="node">
<title>Node6</title>
<g id="a_node7"><a xlink:href="../../d2/d45/GPUCommonRtypes_8h.html" target="_top" xlink:title="GPUCommonRtypes.h">
<polygon fill="none" stroke="#000000" points="62.1437,-56.5 62.1437,-75.5 187.1437,-75.5 187.1437,-56.5 62.1437,-56.5"/>
<text text-anchor="middle" x="124.6437" y="-63.5" font-family="Helvetica,sans-Serif" font-size="10.00" fill="#000000">GPUCommonRtypes.h</text>
</a>
</g>
</g>
<!-- Node5&#45;&gt;Node6 -->
<g id="edge6" class="edge">
<title>Node5&#45;&gt;Node6</title>
<path fill="none" stroke="#191970" d="M311.9761,-112.4554C269.1447,-101.8339 212.5329,-87.7951 172.7954,-77.9408"/>
<polygon fill="#191970" stroke="#191970" points="173.6234,-74.5402 163.0749,-75.5303 171.9385,-81.3344 173.6234,-74.5402"/>
</g>
<!-- Node7 -->
<g id="node8" class="node">
<title>Node7</title>
<polygon fill="none" stroke="#bfbfbf" points="290.6437,-56.5 290.6437,-75.5 340.6437,-75.5 340.6437,-56.5 290.6437,-56.5"/>
<text text-anchor="middle" x="315.6437" y="-63.5" font-family="Helvetica,sans-Serif" font-size="10.00" fill="#000000">cstdint</text>
</g>
<!-- Node5&#45;&gt;Node7 -->
<g id="edge9" class="edge">
<title>Node5&#45;&gt;Node7</title>
<path fill="none" stroke="#191970" d="M358.5538,-112.2977C350.3944,-103.4941 340.0965,-92.3833 331.6342,-83.2529"/>
<polygon fill="#191970" stroke="#191970" points="334.1348,-80.8021 324.7701,-75.8469 329.0008,-85.5604 334.1348,-80.8021"/>
</g>
<!-- Node8 -->
<g id="node9" class="node">
<title>Node8</title>
<polygon fill="none" stroke="#bfbfbf" points="359.1437,-56.5 359.1437,-75.5 406.1437,-75.5 406.1437,-56.5 359.1437,-56.5"/>
<text text-anchor="middle" x="382.6437" y="-63.5" font-family="Helvetica,sans-Serif" font-size="10.00" fill="#000000">cmath</text>
</g>
<!-- Node5&#45;&gt;Node8 -->
<g id="edge10" class="edge">
<title>Node5&#45;&gt;Node8</title>
<path fill="none" stroke="#191970" d="M375.1156,-112.2977C376.417,-104.2945 378.0284,-94.3843 379.426,-85.7889"/>
<polygon fill="#191970" stroke="#191970" points="382.8922,-86.2791 381.0426,-75.8469 375.9829,-85.1555 382.8922,-86.2791"/>
</g>
<!-- Node9 -->
<g id="node10" class="node">
<title>Node9</title>
<g id="a_node10"><a xlink:href="../../d4/dc6/LHCConstants_8h.html" target="_top" xlink:title="Header to collect LHC related constants. ">
<polygon fill="none" stroke="#000000" points="424.6437,-56.5 424.6437,-75.5 614.6437,-75.5 614.6437,-56.5 424.6437,-56.5"/>
<text text-anchor="middle" x="519.6437" y="-63.5" font-family="Helvetica,sans-Serif" font-size="10.00" fill="#000000">CommonConstants/LHCConstants.h</text>
</a>
</g>
</g>
<!-- Node5&#45;&gt;Node9 -->
<g id="edge11" class="edge">
<title>Node5&#45;&gt;Node9</title>
<path fill="none" stroke="#191970" d="M408.604,-112.4554C432.701,-102.374 464.1568,-89.2139 487.434,-79.4755"/>
<polygon fill="#191970" stroke="#191970" points="488.9896,-82.6187 496.8639,-75.5303 486.2879,-76.1611 488.9896,-82.6187"/>
</g>
<!-- Node6&#45;&gt;Node4 -->
<g id="edge7" class="edge">
<title>Node6&#45;&gt;Node4</title>
<path fill="none" stroke="#191970" d="M112.9732,-56.2455C103.0776,-47.9746 88.681,-35.9416 77.0536,-26.2232"/>
<polygon fill="#191970" stroke="#191970" points="79.0979,-23.3703 69.1805,-19.6427 74.6087,-28.7413 79.0979,-23.3703"/>
</g>
<!-- Node10&#45;&gt;Node6 -->
<g id="edge13" class="edge">
<title>Node10&#45;&gt;Node6</title>
<path fill="none" stroke="#191970" d="M124.6437,-117.8906C124.6437,-109.3657 124.6437,-96.6392 124.6437,-85.9235"/>
<polygon fill="#191970" stroke="#191970" points="128.1438,-85.7448 124.6437,-75.7449 121.1438,-85.7449 128.1438,-85.7448"/>
</g>
<!-- Node12 -->
<g id="node13" class="node">
<title>Node12</title>
<polygon fill="none" stroke="#bfbfbf" points="632.6437,-56.5 632.6437,-75.5 740.6437,-75.5 740.6437,-56.5 632.6437,-56.5"/>
<text text-anchor="middle" x="686.6437" y="-63.5" font-family="Helvetica,sans-Serif" font-size="10.00" fill="#000000">fairlogger/Logger.h</text>
</g>
<!-- Node11&#45;&gt;Node12 -->
<g id="edge15" class="edge">
<title>Node11&#45;&gt;Node12</title>
<path fill="none" stroke="#191970" d="M626.7375,-117.8906C637.6152,-108.4683 654.4185,-93.9134 667.4637,-82.6137"/>
<polygon fill="#191970" stroke="#191970" points="670.1264,-84.9377 675.3936,-75.7449 665.5433,-79.6466 670.1264,-84.9377"/>
</g>
</g>
</svg>
