<?xml version="1.0" encoding="UTF-8" standalone="no"?>
<!DOCTYPE svg PUBLIC "-//W3C//DTD SVG 1.1//EN"
 "http://www.w3.org/Graphics/SVG/1.1/DTD/svg11.dtd">
<!-- Generated by graphviz version 2.40.1 (20161225.0304)
 -->
<!-- Title: o2::ft0::EventHeader Pages: 1 -->
<svg width="324pt" height="292pt"
 viewBox="0.00 0.00 323.50 292.00" xmlns="http://www.w3.org/2000/svg" xmlns:xlink="http://www.w3.org/1999/xlink">
<g id="graph0" class="graph" transform="scale(1 1) rotate(0) translate(4 288)">
<title>o2::ft0::EventHeader</title>
<!-- Node1 -->
<g id="node1" class="node">
<title>Node1</title>
<polygon fill="#bfbfbf" stroke="#000000" points="74.5,-.5 74.5,-68.5 191.5,-68.5 191.5,-.5 74.5,-.5"/>
<text text-anchor="middle" x="133" y="-56.5" font-family="Helvetica,sans-Serif" font-size="10.00" fill="#000000">o2::ft0::EventHeader</text>
<polyline fill="none" stroke="#000000" points="74.5,-49.5 191.5,-49.5 "/>
<text text-anchor="middle" x="133" y="-37.5" font-family="Helvetica,sans-Serif" font-size="10.00" fill="#000000"> </text>
<polyline fill="none" stroke="#000000" points="74.5,-30.5 191.5,-30.5 "/>
<text text-anchor="start" x="82.5" y="-18.5" font-family="Helvetica,sans-Serif" font-size="10.00" fill="#000000">+ getIntRec()</text>
<text text-anchor="start" x="82.5" y="-7.5" font-family="Helvetica,sans-Serif" font-size="10.00" fill="#000000">+ print()</text>
</g>
<!-- Node2 -->
<g id="node2" class="node">
<title>Node2</title>
<g id="a_node2"><a xlink:href="../../d6/d30/classuint64__t.html" target="_top" xlink:title="{uint64_t\n||}">
<polygon fill="none" stroke="#000000" points="0,-226.5 0,-283.5 56,-283.5 56,-226.5 0,-226.5"/>
<text text-anchor="middle" x="28" y="-271.5" font-family="Helvetica,sans-Serif" font-size="10.00" fill="#000000">uint64_t</text>
<polyline fill="none" stroke="#000000" points="0,-264.5 56,-264.5 "/>
<text text-anchor="middle" x="28" y="-252.5" font-family="Helvetica,sans-Serif" font-size="10.00" fill="#000000"> </text>
<polyline fill="none" stroke="#000000" points="0,-245.5 56,-245.5 "/>
<text text-anchor="middle" x="28" y="-233.5" font-family="Helvetica,sans-Serif" font-size="10.00" fill="#000000"> </text>
</a>
</g>
</g>
<!-- Node2&#45;&gt;Node1 -->
<g id="edge1" class="edge">
<title>Node2&#45;&gt;Node1</title>
<path fill="none" stroke="#404040" d="M24.0268,-226.3559C20.6093,-190.7732 19.8551,-129.5681 47,-87 51.5498,-79.8651 57.451,-73.552 64.0303,-68.005"/>
<polygon fill="none" stroke="#404040" points="64.4999,-67.6504 66.8779,-60.8427 74.0766,-60.4195 71.6986,-67.2272 64.4999,-67.6504"/>
<text text-anchor="middle" x="88" y="-200" font-family="Helvetica,sans-Serif" font-size="10.00" fill="#000000"> +word</text>
<text text-anchor="middle" x="88" y="-189" font-family="Helvetica,sans-Serif" font-size="10.00" fill="#000000">+nGBTWords</text>
<text text-anchor="middle" x="88" y="-178" font-family="Helvetica,sans-Serif" font-size="10.00" fill="#000000">+startDescriptor</text>
<text text-anchor="middle" x="88" y="-167" font-family="Helvetica,sans-Serif" font-size="10.00" fill="#000000">+reservedField1</text>
<text text-anchor="middle" x="88" y="-156" font-family="Helvetica,sans-Serif" font-size="10.00" fill="#000000">+reservedField2</text>
<text text-anchor="middle" x="88" y="-145" font-family="Helvetica,sans-Serif" font-size="10.00" fill="#000000">+bc</text>
<text text-anchor="middle" x="88" y="-134" font-family="Helvetica,sans-Serif" font-size="10.00" fill="#000000">+reservedField3</text>
<text text-anchor="middle" x="88" y="-123" font-family="Helvetica,sans-Serif" font-size="10.00" fill="#000000">+orbit</text>
<text text-anchor="middle" x="88" y="-112" font-family="Helvetica,sans-Serif" font-size="10.00" fill="#000000">+errorPhase</text>
<text text-anchor="middle" x="88" y="-101" font-family="Helvetica,sans-Serif" font-size="10.00" fill="#000000">+phase</text>
<text text-anchor="middle" x="88" y="-90" font-family="Helvetica,sans-Serif" font-size="10.00" fill="#000000">...</text>
</g>
<!-- Node3 -->
<g id="node3" class="node">
<title>Node3</title>
<polygon fill="none" stroke="#bfbfbf" points="111,-226.5 111,-283.5 155,-283.5 155,-226.5 111,-226.5"/>
<text text-anchor="middle" x="133" y="-271.5" font-family="Helvetica,sans-Serif" font-size="10.00" fill="#000000">static</text>
<polyline fill="none" stroke="#bfbfbf" points="111,-264.5 155,-264.5 "/>
<text text-anchor="middle" x="133" y="-252.5" font-family="Helvetica,sans-Serif" font-size="10.00" fill="#000000"> </text>
<polyline fill="none" stroke="#bfbfbf" points="111,-245.5 155,-245.5 "/>
<text text-anchor="middle" x="133" y="-233.5" font-family="Helvetica,sans-Serif" font-size="10.00" fill="#000000"> </text>
</g>
<!-- Node3&#45;&gt;Node1 -->
<g id="edge2" class="edge">
<title>Node3&#45;&gt;Node1</title>
<path fill="none" stroke="#404040" d="M133,-226.1735C133,-189.2261 133,-124.7136 133,-80.8345"/>
<polygon fill="none" stroke="#404040" points="133.0001,-80.7678 129,-74.7679 133,-68.7678 137,-74.7678 133.0001,-80.7678"/>
<text text-anchor="middle" x="187.5" y="-161.5" font-family="Helvetica,sans-Serif" font-size="10.00" fill="#000000"> +PayloadPerGBTword</text>
<text text-anchor="middle" x="187.5" y="-150.5" font-family="Helvetica,sans-Serif" font-size="10.00" fill="#000000">+MaxNelements</text>
<text text-anchor="middle" x="187.5" y="-139.5" font-family="Helvetica,sans-Serif" font-size="10.00" fill="#000000">+MinNelements</text>
<text text-anchor="middle" x="187.5" y="-128.5" font-family="Helvetica,sans-Serif" font-size="10.00" fill="#000000">+PayloadSize</text>
</g>
<!-- Node4 -->
<g id="node4" class="node">
<title>Node4</title>
<polygon fill="none" stroke="#bfbfbf" points="214.5,-226.5 214.5,-283.5 315.5,-283.5 315.5,-226.5 214.5,-226.5"/>
<text text-anchor="middle" x="265" y="-271.5" font-family="Helvetica,sans-Serif" font-size="10.00" fill="#000000">anonymous:+@8</text>
<polyline fill="none" stroke="#bfbfbf" points="214.5,-264.5 315.5,-264.5 "/>
<text text-anchor="middle" x="265" y="-252.5" font-family="Helvetica,sans-Serif" font-size="10.00" fill="#000000"> </text>
<polyline fill="none" stroke="#bfbfbf" points="214.5,-245.5 315.5,-245.5 "/>
<text text-anchor="middle" x="265" y="-233.5" font-family="Helvetica,sans-Serif" font-size="10.00" fill="#000000"> </text>
</g>
<!-- Node4&#45;&gt;Node1 -->
<g id="edge3" class="edge">
<title>Node4&#45;&gt;Node1</title>
<path fill="none" stroke="#404040" d="M268.9886,-226.4594C272.4305,-190.4276 272.8927,-128.1841 243,-87 232.9477,-73.1506 218.2691,-62.8122 202.8903,-55.1485"/>
<polygon fill="none" stroke="#404040" points="202.5493,-54.9936 195.432,-56.1529 191.6245,-50.0289 198.7418,-48.8696 202.5493,-54.9936"/>
<text text-anchor="middle" x="284" y="-145" font-family="Helvetica,sans-Serif" font-size="10.00" fill="#000000"> +@8</text>
</g>
</g>
</svg>
