<?xml version="1.0" encoding="UTF-8" standalone="no"?>
<!DOCTYPE svg PUBLIC "-//W3C//DTD SVG 1.1//EN"
 "http://www.w3.org/Graphics/SVG/1.1/DTD/svg11.dtd">
<!-- Generated by graphviz version 2.40.1 (20161225.0304)
 -->
<!-- Title: o2::itsmft::CTF Pages: 1 -->
<svg width="908pt" height="1487pt"
 viewBox="0.00 0.00 908.00 1487.00" xmlns="http://www.w3.org/2000/svg" xmlns:xlink="http://www.w3.org/1999/xlink">
<g id="graph0" class="graph" transform="scale(1 1) rotate(0) translate(4 1483)">
<title>o2::itsmft::CTF</title>
<!-- Node3 -->
<g id="node1" class="node">
<title>Node3</title>
<polygon fill="#bfbfbf" stroke="#000000" points="386.5,-.5 386.5,-57.5 479.5,-57.5 479.5,-.5 386.5,-.5"/>
<text text-anchor="middle" x="433" y="-45.5" font-family="Helvetica,sans-Serif" font-size="10.00" fill="#000000">o2::itsmft::CTF</text>
<polyline fill="none" stroke="#000000" points="386.5,-38.5 479.5,-38.5 "/>
<text text-anchor="middle" x="433" y="-26.5" font-family="Helvetica,sans-Serif" font-size="10.00" fill="#000000"> </text>
<polyline fill="none" stroke="#000000" points="386.5,-19.5 479.5,-19.5 "/>
<text text-anchor="start" x="394.5" y="-7.5" font-family="Helvetica,sans-Serif" font-size="10.00" fill="#000000">+ ClassDefNV()</text>
</g>
<!-- Node4 -->
<g id="node2" class="node">
<title>Node4</title>
<g id="a_node2"><a xlink:href="../../dc/d08/classo2_1_1ctf_1_1EncodedBlocks.html" target="_top" xlink:title="{o2::ctf::EncodedBlocks\l\&lt; CTFHeader, 10, uint32_t \&gt;\n||+ setHeader()\l+ getHeader()\l+ getHeader()\l+ cloneHeader()\l+ getMetadata()\l+ getMetadata()\l+ getBlock()\l+ setANSHeader()\l+ getANSHeader()\l+ getANSHeader()\l+ empty()\l+ flat()\l+ clear()\l+ compactify()\l+ size()\l+ getFreeSize()\l+ copyToFlat()\l+ copyToFlat()\l+ appendToTree()\l+ readFromTree()\l+ encode()\l+ encode()\l+ decode()\l+ decode()\l+ print()\l+ getNBlocks()\l+ getMinAlignedSize()\l+ get()\l+ get()\l+ getImage()\l+ create()\l+ create()\l+ estimateBlockSize()\l+ expand()\l+ readFromTree()\l+ createDictionaryBlocks()\l# init()\l# estimateSize()\l# estimateSizeFromMetadata()\l# fillFlatCopy()\l# ClassDefNV()\l# relocate()\l# fillTreeBranch()\l# readTreeBranch()\l}">
<polygon fill="none" stroke="#000000" points="286.5,-105.5 286.5,-646.5 455.5,-646.5 455.5,-105.5 286.5,-105.5"/>
<text text-anchor="start" x="294.5" y="-634.5" font-family="Helvetica,sans-Serif" font-size="10.00" fill="#000000">o2::ctf::EncodedBlocks</text>
<text text-anchor="middle" x="371" y="-623.5" font-family="Helvetica,sans-Serif" font-size="10.00" fill="#000000">&lt; CTFHeader, 10, uint32_t &gt;</text>
<polyline fill="none" stroke="#000000" points="286.5,-616.5 455.5,-616.5 "/>
<text text-anchor="middle" x="371" y="-604.5" font-family="Helvetica,sans-Serif" font-size="10.00" fill="#000000"> </text>
<polyline fill="none" stroke="#000000" points="286.5,-597.5 455.5,-597.5 "/>
<text text-anchor="start" x="294.5" y="-585.5" font-family="Helvetica,sans-Serif" font-size="10.00" fill="#000000">+ setHeader()</text>
<text text-anchor="start" x="294.5" y="-574.5" font-family="Helvetica,sans-Serif" font-size="10.00" fill="#000000">+ getHeader()</text>
<text text-anchor="start" x="294.5" y="-563.5" font-family="Helvetica,sans-Serif" font-size="10.00" fill="#000000">+ getHeader()</text>
<text text-anchor="start" x="294.5" y="-552.5" font-family="Helvetica,sans-Serif" font-size="10.00" fill="#000000">+ cloneHeader()</text>
<text text-anchor="start" x="294.5" y="-541.5" font-family="Helvetica,sans-Serif" font-size="10.00" fill="#000000">+ getMetadata()</text>
<text text-anchor="start" x="294.5" y="-530.5" font-family="Helvetica,sans-Serif" font-size="10.00" fill="#000000">+ getMetadata()</text>
<text text-anchor="start" x="294.5" y="-519.5" font-family="Helvetica,sans-Serif" font-size="10.00" fill="#000000">+ getBlock()</text>
<text text-anchor="start" x="294.5" y="-508.5" font-family="Helvetica,sans-Serif" font-size="10.00" fill="#000000">+ setANSHeader()</text>
<text text-anchor="start" x="294.5" y="-497.5" font-family="Helvetica,sans-Serif" font-size="10.00" fill="#000000">+ getANSHeader()</text>
<text text-anchor="start" x="294.5" y="-486.5" font-family="Helvetica,sans-Serif" font-size="10.00" fill="#000000">+ getANSHeader()</text>
<text text-anchor="start" x="294.5" y="-475.5" font-family="Helvetica,sans-Serif" font-size="10.00" fill="#000000">+ empty()</text>
<text text-anchor="start" x="294.5" y="-464.5" font-family="Helvetica,sans-Serif" font-size="10.00" fill="#000000">+ flat()</text>
<text text-anchor="start" x="294.5" y="-453.5" font-family="Helvetica,sans-Serif" font-size="10.00" fill="#000000">+ clear()</text>
<text text-anchor="start" x="294.5" y="-442.5" font-family="Helvetica,sans-Serif" font-size="10.00" fill="#000000">+ compactify()</text>
<text text-anchor="start" x="294.5" y="-431.5" font-family="Helvetica,sans-Serif" font-size="10.00" fill="#000000">+ size()</text>
<text text-anchor="start" x="294.5" y="-420.5" font-family="Helvetica,sans-Serif" font-size="10.00" fill="#000000">+ getFreeSize()</text>
<text text-anchor="start" x="294.5" y="-409.5" font-family="Helvetica,sans-Serif" font-size="10.00" fill="#000000">+ copyToFlat()</text>
<text text-anchor="start" x="294.5" y="-398.5" font-family="Helvetica,sans-Serif" font-size="10.00" fill="#000000">+ copyToFlat()</text>
<text text-anchor="start" x="294.5" y="-387.5" font-family="Helvetica,sans-Serif" font-size="10.00" fill="#000000">+ appendToTree()</text>
<text text-anchor="start" x="294.5" y="-376.5" font-family="Helvetica,sans-Serif" font-size="10.00" fill="#000000">+ readFromTree()</text>
<text text-anchor="start" x="294.5" y="-365.5" font-family="Helvetica,sans-Serif" font-size="10.00" fill="#000000">+ encode()</text>
<text text-anchor="start" x="294.5" y="-354.5" font-family="Helvetica,sans-Serif" font-size="10.00" fill="#000000">+ encode()</text>
<text text-anchor="start" x="294.5" y="-343.5" font-family="Helvetica,sans-Serif" font-size="10.00" fill="#000000">+ decode()</text>
<text text-anchor="start" x="294.5" y="-332.5" font-family="Helvetica,sans-Serif" font-size="10.00" fill="#000000">+ decode()</text>
<text text-anchor="start" x="294.5" y="-321.5" font-family="Helvetica,sans-Serif" font-size="10.00" fill="#000000">+ print()</text>
<text text-anchor="start" x="294.5" y="-310.5" font-family="Helvetica,sans-Serif" font-size="10.00" fill="#000000">+ getNBlocks()</text>
<text text-anchor="start" x="294.5" y="-299.5" font-family="Helvetica,sans-Serif" font-size="10.00" fill="#000000">+ getMinAlignedSize()</text>
<text text-anchor="start" x="294.5" y="-288.5" font-family="Helvetica,sans-Serif" font-size="10.00" fill="#000000">+ get()</text>
<text text-anchor="start" x="294.5" y="-277.5" font-family="Helvetica,sans-Serif" font-size="10.00" fill="#000000">+ get()</text>
<text text-anchor="start" x="294.5" y="-266.5" font-family="Helvetica,sans-Serif" font-size="10.00" fill="#000000">+ getImage()</text>
<text text-anchor="start" x="294.5" y="-255.5" font-family="Helvetica,sans-Serif" font-size="10.00" fill="#000000">+ create()</text>
<text text-anchor="start" x="294.5" y="-244.5" font-family="Helvetica,sans-Serif" font-size="10.00" fill="#000000">+ create()</text>
<text text-anchor="start" x="294.5" y="-233.5" font-family="Helvetica,sans-Serif" font-size="10.00" fill="#000000">+ estimateBlockSize()</text>
<text text-anchor="start" x="294.5" y="-222.5" font-family="Helvetica,sans-Serif" font-size="10.00" fill="#000000">+ expand()</text>
<text text-anchor="start" x="294.5" y="-211.5" font-family="Helvetica,sans-Serif" font-size="10.00" fill="#000000">+ readFromTree()</text>
<text text-anchor="start" x="294.5" y="-200.5" font-family="Helvetica,sans-Serif" font-size="10.00" fill="#000000">+ createDictionaryBlocks()</text>
<text text-anchor="start" x="294.5" y="-189.5" font-family="Helvetica,sans-Serif" font-size="10.00" fill="#000000"># init()</text>
<text text-anchor="start" x="294.5" y="-178.5" font-family="Helvetica,sans-Serif" font-size="10.00" fill="#000000"># estimateSize()</text>
<text text-anchor="start" x="294.5" y="-167.5" font-family="Helvetica,sans-Serif" font-size="10.00" fill="#000000"># estimateSizeFromMetadata()</text>
<text text-anchor="start" x="294.5" y="-156.5" font-family="Helvetica,sans-Serif" font-size="10.00" fill="#000000"># fillFlatCopy()</text>
<text text-anchor="start" x="294.5" y="-145.5" font-family="Helvetica,sans-Serif" font-size="10.00" fill="#000000"># ClassDefNV()</text>
<text text-anchor="start" x="294.5" y="-134.5" font-family="Helvetica,sans-Serif" font-size="10.00" fill="#000000"># relocate()</text>
<text text-anchor="start" x="294.5" y="-123.5" font-family="Helvetica,sans-Serif" font-size="10.00" fill="#000000"># fillTreeBranch()</text>
<text text-anchor="start" x="294.5" y="-112.5" font-family="Helvetica,sans-Serif" font-size="10.00" fill="#000000"># readTreeBranch()</text>
</a>
</g>
</g>
<!-- Node4&#45;&gt;Node3 -->
<g id="edge1" class="edge">
<title>Node4&#45;&gt;Node3</title>
<path fill="none" stroke="#191970" d="M421.2139,-94.9644C423.7783,-80.6115 426.0532,-67.8798 427.9036,-57.5232"/>
<polygon fill="none" stroke="#191970" points="417.7074,-94.6909 419.3938,-105.1506 424.5982,-95.9222 417.7074,-94.6909"/>
</g>
<!-- Node5 -->
<g id="node3" class="node">
<title>Node5</title>
<g id="a_node3"><a xlink:href="../../da/d30/classstd_1_1array_3_01o2_1_1ctf_1_1Block_3_01uint32__t_01_4_00_01N_01_4.html" target="_top" xlink:title="{array\&lt; o2::ctf::Block\l\&lt; uint32_t \&gt;, N \&gt;\n||}">
<polygon fill="none" stroke="#000000" points="7.5,-931 7.5,-999 124.5,-999 124.5,-931 7.5,-931"/>
<text text-anchor="start" x="15.5" y="-987" font-family="Helvetica,sans-Serif" font-size="10.00" fill="#000000">array&lt; o2::ctf::Block</text>
<text text-anchor="middle" x="66" y="-976" font-family="Helvetica,sans-Serif" font-size="10.00" fill="#000000">&lt; uint32_t &gt;, N &gt;</text>
<polyline fill="none" stroke="#000000" points="7.5,-969 124.5,-969 "/>
<text text-anchor="middle" x="66" y="-957" font-family="Helvetica,sans-Serif" font-size="10.00" fill="#000000"> </text>
<polyline fill="none" stroke="#000000" points="7.5,-950 124.5,-950 "/>
<text text-anchor="middle" x="66" y="-938" font-family="Helvetica,sans-Serif" font-size="10.00" fill="#000000"> </text>
</a>
</g>
</g>
<!-- Node5&#45;&gt;Node4 -->
<g id="edge2" class="edge">
<title>Node5&#45;&gt;Node4</title>
<path fill="none" stroke="#404040" d="M70.0327,-930.5774C77.2049,-877.6244 95.1315,-773.9324 133,-694 170.3427,-615.1774 228.8836,-536.6162 278.5598,-477.2996"/>
<polygon fill="none" stroke="#404040" points="278.7125,-477.1186 279.5252,-469.9534 286.4518,-467.9478 285.6391,-475.1129 278.7125,-477.1186"/>
<text text-anchor="middle" x="175" y="-668" font-family="Helvetica,sans-Serif" font-size="10.00" fill="#000000"> #mBlocks</text>
</g>
<!-- Node6 -->
<g id="node4" class="node">
<title>Node6</title>
<polygon fill="none" stroke="#bfbfbf" points="238.5,-1294.5 238.5,-1351.5 399.5,-1351.5 399.5,-1294.5 238.5,-1294.5"/>
<text text-anchor="middle" x="319" y="-1339.5" font-family="Helvetica,sans-Serif" font-size="10.00" fill="#000000">array&lt; o2::ctf::Metadata, N &gt;</text>
<polyline fill="none" stroke="#bfbfbf" points="238.5,-1332.5 399.5,-1332.5 "/>
<text text-anchor="middle" x="319" y="-1320.5" font-family="Helvetica,sans-Serif" font-size="10.00" fill="#000000"> </text>
<polyline fill="none" stroke="#bfbfbf" points="238.5,-1313.5 399.5,-1313.5 "/>
<text text-anchor="middle" x="319" y="-1301.5" font-family="Helvetica,sans-Serif" font-size="10.00" fill="#000000"> </text>
</g>
<!-- Node6&#45;&gt;Node4 -->
<g id="edge3" class="edge">
<title>Node6&#45;&gt;Node4</title>
<path fill="none" stroke="#404040" d="M319.3049,-1294.4431C320.394,-1205.4775 324.8727,-925.4152 340,-694 340.7598,-682.3761 341.6036,-670.5194 342.5125,-658.5463"/>
<polygon fill="none" stroke="#404040" points="342.5157,-658.5028 338.9909,-652.2119 343.4423,-646.5387 346.9671,-652.8296 342.5157,-658.5028"/>
<text text-anchor="middle" x="373.5" y="-962.5" font-family="Helvetica,sans-Serif" font-size="10.00" fill="#000000"> #mMetadata</text>
</g>
<!-- Node17 -->
<g id="node15" class="node">
<title>Node17</title>
<g id="a_node15"><a xlink:href="../../dc/d08/classo2_1_1ctf_1_1EncodedBlocks.html" target="_top" xlink:title="&lt;&lt;======================== Auxiliary classes =======================&lt;&lt; ">
<polygon fill="none" stroke="#000000" points="524.5,-694.5 524.5,-1235.5 693.5,-1235.5 693.5,-694.5 524.5,-694.5"/>
<text text-anchor="start" x="532.5" y="-1223.5" font-family="Helvetica,sans-Serif" font-size="10.00" fill="#000000">o2::ctf::EncodedBlocks</text>
<text text-anchor="middle" x="609" y="-1212.5" font-family="Helvetica,sans-Serif" font-size="10.00" fill="#000000">&lt; H, N, W &gt;</text>
<polyline fill="none" stroke="#000000" points="524.5,-1205.5 693.5,-1205.5 "/>
<text text-anchor="middle" x="609" y="-1193.5" font-family="Helvetica,sans-Serif" font-size="10.00" fill="#000000"> </text>
<polyline fill="none" stroke="#000000" points="524.5,-1186.5 693.5,-1186.5 "/>
<text text-anchor="start" x="532.5" y="-1174.5" font-family="Helvetica,sans-Serif" font-size="10.00" fill="#000000">+ setHeader()</text>
<text text-anchor="start" x="532.5" y="-1163.5" font-family="Helvetica,sans-Serif" font-size="10.00" fill="#000000">+ getHeader()</text>
<text text-anchor="start" x="532.5" y="-1152.5" font-family="Helvetica,sans-Serif" font-size="10.00" fill="#000000">+ getHeader()</text>
<text text-anchor="start" x="532.5" y="-1141.5" font-family="Helvetica,sans-Serif" font-size="10.00" fill="#000000">+ cloneHeader()</text>
<text text-anchor="start" x="532.5" y="-1130.5" font-family="Helvetica,sans-Serif" font-size="10.00" fill="#000000">+ getMetadata()</text>
<text text-anchor="start" x="532.5" y="-1119.5" font-family="Helvetica,sans-Serif" font-size="10.00" fill="#000000">+ getMetadata()</text>
<text text-anchor="start" x="532.5" y="-1108.5" font-family="Helvetica,sans-Serif" font-size="10.00" fill="#000000">+ getBlock()</text>
<text text-anchor="start" x="532.5" y="-1097.5" font-family="Helvetica,sans-Serif" font-size="10.00" fill="#000000">+ setANSHeader()</text>
<text text-anchor="start" x="532.5" y="-1086.5" font-family="Helvetica,sans-Serif" font-size="10.00" fill="#000000">+ getANSHeader()</text>
<text text-anchor="start" x="532.5" y="-1075.5" font-family="Helvetica,sans-Serif" font-size="10.00" fill="#000000">+ getANSHeader()</text>
<text text-anchor="start" x="532.5" y="-1064.5" font-family="Helvetica,sans-Serif" font-size="10.00" fill="#000000">+ empty()</text>
<text text-anchor="start" x="532.5" y="-1053.5" font-family="Helvetica,sans-Serif" font-size="10.00" fill="#000000">+ flat()</text>
<text text-anchor="start" x="532.5" y="-1042.5" font-family="Helvetica,sans-Serif" font-size="10.00" fill="#000000">+ clear()</text>
<text text-anchor="start" x="532.5" y="-1031.5" font-family="Helvetica,sans-Serif" font-size="10.00" fill="#000000">+ compactify()</text>
<text text-anchor="start" x="532.5" y="-1020.5" font-family="Helvetica,sans-Serif" font-size="10.00" fill="#000000">+ size()</text>
<text text-anchor="start" x="532.5" y="-1009.5" font-family="Helvetica,sans-Serif" font-size="10.00" fill="#000000">+ getFreeSize()</text>
<text text-anchor="start" x="532.5" y="-998.5" font-family="Helvetica,sans-Serif" font-size="10.00" fill="#000000">+ copyToFlat()</text>
<text text-anchor="start" x="532.5" y="-987.5" font-family="Helvetica,sans-Serif" font-size="10.00" fill="#000000">+ copyToFlat()</text>
<text text-anchor="start" x="532.5" y="-976.5" font-family="Helvetica,sans-Serif" font-size="10.00" fill="#000000">+ appendToTree()</text>
<text text-anchor="start" x="532.5" y="-965.5" font-family="Helvetica,sans-Serif" font-size="10.00" fill="#000000">+ readFromTree()</text>
<text text-anchor="start" x="532.5" y="-954.5" font-family="Helvetica,sans-Serif" font-size="10.00" fill="#000000">+ encode()</text>
<text text-anchor="start" x="532.5" y="-943.5" font-family="Helvetica,sans-Serif" font-size="10.00" fill="#000000">+ encode()</text>
<text text-anchor="start" x="532.5" y="-932.5" font-family="Helvetica,sans-Serif" font-size="10.00" fill="#000000">+ decode()</text>
<text text-anchor="start" x="532.5" y="-921.5" font-family="Helvetica,sans-Serif" font-size="10.00" fill="#000000">+ decode()</text>
<text text-anchor="start" x="532.5" y="-910.5" font-family="Helvetica,sans-Serif" font-size="10.00" fill="#000000">+ print()</text>
<text text-anchor="start" x="532.5" y="-899.5" font-family="Helvetica,sans-Serif" font-size="10.00" fill="#000000">+ getNBlocks()</text>
<text text-anchor="start" x="532.5" y="-888.5" font-family="Helvetica,sans-Serif" font-size="10.00" fill="#000000">+ getMinAlignedSize()</text>
<text text-anchor="start" x="532.5" y="-877.5" font-family="Helvetica,sans-Serif" font-size="10.00" fill="#000000">+ get()</text>
<text text-anchor="start" x="532.5" y="-866.5" font-family="Helvetica,sans-Serif" font-size="10.00" fill="#000000">+ get()</text>
<text text-anchor="start" x="532.5" y="-855.5" font-family="Helvetica,sans-Serif" font-size="10.00" fill="#000000">+ getImage()</text>
<text text-anchor="start" x="532.5" y="-844.5" font-family="Helvetica,sans-Serif" font-size="10.00" fill="#000000">+ create()</text>
<text text-anchor="start" x="532.5" y="-833.5" font-family="Helvetica,sans-Serif" font-size="10.00" fill="#000000">+ create()</text>
<text text-anchor="start" x="532.5" y="-822.5" font-family="Helvetica,sans-Serif" font-size="10.00" fill="#000000">+ estimateBlockSize()</text>
<text text-anchor="start" x="532.5" y="-811.5" font-family="Helvetica,sans-Serif" font-size="10.00" fill="#000000">+ expand()</text>
<text text-anchor="start" x="532.5" y="-800.5" font-family="Helvetica,sans-Serif" font-size="10.00" fill="#000000">+ readFromTree()</text>
<text text-anchor="start" x="532.5" y="-789.5" font-family="Helvetica,sans-Serif" font-size="10.00" fill="#000000">+ createDictionaryBlocks()</text>
<text text-anchor="start" x="532.5" y="-778.5" font-family="Helvetica,sans-Serif" font-size="10.00" fill="#000000"># init()</text>
<text text-anchor="start" x="532.5" y="-767.5" font-family="Helvetica,sans-Serif" font-size="10.00" fill="#000000"># estimateSize()</text>
<text text-anchor="start" x="532.5" y="-756.5" font-family="Helvetica,sans-Serif" font-size="10.00" fill="#000000"># estimateSizeFromMetadata()</text>
<text text-anchor="start" x="532.5" y="-745.5" font-family="Helvetica,sans-Serif" font-size="10.00" fill="#000000"># fillFlatCopy()</text>
<text text-anchor="start" x="532.5" y="-734.5" font-family="Helvetica,sans-Serif" font-size="10.00" fill="#000000"># ClassDefNV()</text>
<text text-anchor="start" x="532.5" y="-723.5" font-family="Helvetica,sans-Serif" font-size="10.00" fill="#000000"># relocate()</text>
<text text-anchor="start" x="532.5" y="-712.5" font-family="Helvetica,sans-Serif" font-size="10.00" fill="#000000"># fillTreeBranch()</text>
<text text-anchor="start" x="532.5" y="-701.5" font-family="Helvetica,sans-Serif" font-size="10.00" fill="#000000"># readTreeBranch()</text>
</a>
</g>
</g>
<!-- Node6&#45;&gt;Node17 -->
<g id="edge15" class="edge">
<title>Node6&#45;&gt;Node17</title>
<path fill="none" stroke="#404040" d="M356.2629,-1294.1957C376.0263,-1280.1895 401.2822,-1264.216 426,-1254 461.2858,-1239.4162 481.1904,-1261.0556 510,-1236 511.878,-1234.3667 513.7203,-1232.6948 515.5278,-1230.9863"/>
<polygon fill="none" stroke="#404040" points="515.8344,-1230.6765 517.2131,-1223.5984 524.2769,-1222.1487 522.8983,-1229.2268 515.8344,-1230.6765"/>
<text text-anchor="middle" x="459.5" y="-1257" font-family="Helvetica,sans-Serif" font-size="10.00" fill="#000000"> #mMetadata</text>
</g>
<!-- Node7 -->
<g id="node5" class="node">
<title>Node7</title>
<g id="a_node5"><a xlink:href="../../d5/d54/structo2_1_1ctf_1_1CTFHeader.html" target="_top" xlink:title="{o2::ctf::CTFHeader\n||+ describe()\l+ print()\l}">
<polygon fill="none" stroke="#000000" points="142.5,-931 142.5,-999 249.5,-999 249.5,-931 142.5,-931"/>
<text text-anchor="middle" x="196" y="-987" font-family="Helvetica,sans-Serif" font-size="10.00" fill="#000000">o2::ctf::CTFHeader</text>
<polyline fill="none" stroke="#000000" points="142.5,-980 249.5,-980 "/>
<text text-anchor="middle" x="196" y="-968" font-family="Helvetica,sans-Serif" font-size="10.00" fill="#000000"> </text>
<polyline fill="none" stroke="#000000" points="142.5,-961 249.5,-961 "/>
<text text-anchor="start" x="150.5" y="-949" font-family="Helvetica,sans-Serif" font-size="10.00" fill="#000000">+ describe()</text>
<text text-anchor="start" x="150.5" y="-938" font-family="Helvetica,sans-Serif" font-size="10.00" fill="#000000">+ print()</text>
</a>
</g>
</g>
<!-- Node7&#45;&gt;Node4 -->
<g id="edge4" class="edge">
<title>Node7&#45;&gt;Node4</title>
<path fill="none" stroke="#404040" d="M198.4495,-930.6204C203.1178,-874.1897 215.3948,-758.816 243,-665 253.3782,-629.7298 267.0915,-593.1261 281.6833,-558.3027"/>
<polygon fill="none" stroke="#404040" points="281.7645,-558.1109 280.4239,-551.0255 286.4486,-547.0629 287.7892,-554.1483 281.7645,-558.1109"/>
<text text-anchor="middle" x="271.5" y="-668" font-family="Helvetica,sans-Serif" font-size="10.00" fill="#000000"> #mHeader</text>
</g>
<!-- Node8 -->
<g id="node6" class="node">
<title>Node8</title>
<polygon fill="none" stroke="#bfbfbf" points="88.5,-1294.5 88.5,-1351.5 141.5,-1351.5 141.5,-1294.5 88.5,-1294.5"/>
<text text-anchor="middle" x="115" y="-1339.5" font-family="Helvetica,sans-Serif" font-size="10.00" fill="#000000">mask_t</text>
<polyline fill="none" stroke="#bfbfbf" points="88.5,-1332.5 141.5,-1332.5 "/>
<text text-anchor="middle" x="115" y="-1320.5" font-family="Helvetica,sans-Serif" font-size="10.00" fill="#000000"> </text>
<polyline fill="none" stroke="#bfbfbf" points="88.5,-1313.5 141.5,-1313.5 "/>
<text text-anchor="middle" x="115" y="-1301.5" font-family="Helvetica,sans-Serif" font-size="10.00" fill="#000000"> </text>
</g>
<!-- Node8&#45;&gt;Node7 -->
<g id="edge5" class="edge">
<title>Node8&#45;&gt;Node7</title>
<path fill="none" stroke="#404040" d="M121.4916,-1294.3085C135.485,-1232.4613 168.5943,-1086.1263 185.569,-1011.1024"/>
<polygon fill="none" stroke="#404040" points="185.5996,-1010.9667 183.0224,-1004.2319 188.2479,-999.2625 190.8251,-1005.9973 185.5996,-1010.9667"/>
<text text-anchor="middle" x="160" y="-1257" font-family="Helvetica,sans-Serif" font-size="10.00" fill="#000000"> +detectors</text>
</g>
<!-- Node9 -->
<g id="node7" class="node">
<title>Node9</title>
<g id="a_node7"><a xlink:href="../../d6/d30/classuint64__t.html" target="_top" xlink:title="{uint64_t\n||}">
<polygon fill="none" stroke="#000000" points="164,-1294.5 164,-1351.5 220,-1351.5 220,-1294.5 164,-1294.5"/>
<text text-anchor="middle" x="192" y="-1339.5" font-family="Helvetica,sans-Serif" font-size="10.00" fill="#000000">uint64_t</text>
<polyline fill="none" stroke="#000000" points="164,-1332.5 220,-1332.5 "/>
<text text-anchor="middle" x="192" y="-1320.5" font-family="Helvetica,sans-Serif" font-size="10.00" fill="#000000"> </text>
<polyline fill="none" stroke="#000000" points="164,-1313.5 220,-1313.5 "/>
<text text-anchor="middle" x="192" y="-1301.5" font-family="Helvetica,sans-Serif" font-size="10.00" fill="#000000"> </text>
</a>
</g>
</g>
<!-- Node9&#45;&gt;Node7 -->
<g id="edge6" class="edge">
<title>Node9&#45;&gt;Node7</title>
<path fill="none" stroke="#404040" d="M192.3206,-1294.3085C193.0102,-1232.5888 194.6399,-1086.7294 195.4797,-1011.5674"/>
<polygon fill="none" stroke="#404040" points="195.483,-1011.2618 191.5503,-1005.2174 195.6172,-999.2625 199.5498,-1005.3069 195.483,-1011.2618"/>
<text text-anchor="middle" x="207" y="-1257" font-family="Helvetica,sans-Serif" font-size="10.00" fill="#000000"> +run</text>
</g>
<!-- Node10 -->
<g id="node8" class="node">
<title>Node10</title>
<g id="a_node8"><a xlink:href="../../d3/d87/classuint32__t.html" target="_top" xlink:title="{uint32_t\n||}">
<polygon fill="none" stroke="#000000" points="0,-1294.5 0,-1351.5 56,-1351.5 56,-1294.5 0,-1294.5"/>
<text text-anchor="middle" x="28" y="-1339.5" font-family="Helvetica,sans-Serif" font-size="10.00" fill="#000000">uint32_t</text>
<polyline fill="none" stroke="#000000" points="0,-1332.5 56,-1332.5 "/>
<text text-anchor="middle" x="28" y="-1320.5" font-family="Helvetica,sans-Serif" font-size="10.00" fill="#000000"> </text>
<polyline fill="none" stroke="#000000" points="0,-1313.5 56,-1313.5 "/>
<text text-anchor="middle" x="28" y="-1301.5" font-family="Helvetica,sans-Serif" font-size="10.00" fill="#000000"> </text>
</a>
</g>
</g>
<!-- Node10&#45;&gt;Node7 -->
<g id="edge7" class="edge">
<title>Node10&#45;&gt;Node7</title>
<path fill="none" stroke="#404040" d="M35.3459,-1294.4988C40.3699,-1280.3983 48.4527,-1264.2472 61,-1254 86.5475,-1233.1356 109.8702,-1259.5162 133,-1236 192.1335,-1175.8788 199.913,-1071.724 198.8801,-1011.5547"/>
<polygon fill="none" stroke="#404040" points="198.8761,-1011.4098 194.7102,-1005.5238 198.5412,-999.4145 202.7071,-1005.3005 198.8761,-1011.4098"/>
<text text-anchor="middle" x="93" y="-1257" font-family="Helvetica,sans-Serif" font-size="10.00" fill="#000000"> +firstTForbit</text>
</g>
<!-- Node11 -->
<g id="node9" class="node">
<title>Node11</title>
<g id="a_node9"><a xlink:href="../../dc/dbb/structo2_1_1ctf_1_1ANSHeader.html" target="_top" xlink:title="&gt;&gt;======================== Auxiliary classes =======================&gt;&gt; ">
<polygon fill="none" stroke="#000000" points="417.5,-1289 417.5,-1357 526.5,-1357 526.5,-1289 417.5,-1289"/>
<text text-anchor="middle" x="472" y="-1345" font-family="Helvetica,sans-Serif" font-size="10.00" fill="#000000">o2::ctf::ANSHeader</text>
<polyline fill="none" stroke="#000000" points="417.5,-1338 526.5,-1338 "/>
<text text-anchor="middle" x="472" y="-1326" font-family="Helvetica,sans-Serif" font-size="10.00" fill="#000000"> </text>
<polyline fill="none" stroke="#000000" points="417.5,-1319 526.5,-1319 "/>
<text text-anchor="start" x="425.5" y="-1307" font-family="Helvetica,sans-Serif" font-size="10.00" fill="#000000">+ clear()</text>
<text text-anchor="start" x="425.5" y="-1296" font-family="Helvetica,sans-Serif" font-size="10.00" fill="#000000">+ ClassDefNV()</text>
</a>
</g>
</g>
<!-- Node11&#45;&gt;Node4 -->
<g id="edge8" class="edge">
<title>Node11&#45;&gt;Node4</title>
<path fill="none" stroke="#404040" d="M456.1876,-1288.5979C449.696,-1272.8932 442.8188,-1253.8504 439,-1236 388.518,-1000.0312 427.6909,-934.4197 407,-694 405.9996,-682.3752 404.921,-670.5177 403.7839,-658.5439"/>
<polygon fill="none" stroke="#404040" points="403.7778,-658.4805 399.2213,-652.8914 402.6279,-646.5357 407.1845,-652.1248 403.7778,-658.4805"/>
<text text-anchor="middle" x="477.5" y="-962.5" font-family="Helvetica,sans-Serif" font-size="10.00" fill="#000000"> #mANSHeader</text>
</g>
<!-- Node11&#45;&gt;Node17 -->
<g id="edge18" class="edge">
<title>Node11&#45;&gt;Node17</title>
<path fill="none" stroke="#404040" d="M487.4697,-1288.9087C494.5671,-1272.9384 502.9513,-1253.595 510,-1236 513.3351,-1227.675 516.6879,-1219.1888 520.0397,-1210.6049"/>
<polygon fill="none" stroke="#404040" points="520.0979,-1210.4548 518.5423,-1203.4134 524.4437,-1199.2693 525.9993,-1206.3106 520.0979,-1210.4548"/>
<text text-anchor="middle" x="540.5" y="-1257" font-family="Helvetica,sans-Serif" font-size="10.00" fill="#000000"> #mANSHeader</text>
</g>
<!-- Node12 -->
<g id="node10" class="node">
<title>Node12</title>
<polygon fill="none" stroke="#bfbfbf" points="435,-1421.5 435,-1478.5 485,-1478.5 485,-1421.5 435,-1421.5"/>
<text text-anchor="middle" x="460" y="-1466.5" font-family="Helvetica,sans-Serif" font-size="10.00" fill="#000000">uint8_t</text>
<polyline fill="none" stroke="#bfbfbf" points="435,-1459.5 485,-1459.5 "/>
<text text-anchor="middle" x="460" y="-1447.5" font-family="Helvetica,sans-Serif" font-size="10.00" fill="#000000"> </text>
<polyline fill="none" stroke="#bfbfbf" points="435,-1440.5 485,-1440.5 "/>
<text text-anchor="middle" x="460" y="-1428.5" font-family="Helvetica,sans-Serif" font-size="10.00" fill="#000000"> </text>
</g>
<!-- Node12&#45;&gt;Node11 -->
<g id="edge9" class="edge">
<title>Node12&#45;&gt;Node11</title>
<path fill="none" stroke="#404040" d="M459.309,-1421.4011C459.2937,-1408.96 459.6597,-1394.2306 461,-1381 461.3925,-1377.1252 461.9109,-1373.1228 462.5091,-1369.1161"/>
<polygon fill="none" stroke="#404040" points="462.5214,-1369.0422 459.5639,-1362.4654 464.4972,-1357.2059 467.4547,-1363.7827 462.5214,-1369.0422"/>
<text text-anchor="middle" x="499" y="-1395" font-family="Helvetica,sans-Serif" font-size="10.00" fill="#000000"> +minorVersion</text>
<text text-anchor="middle" x="499" y="-1384" font-family="Helvetica,sans-Serif" font-size="10.00" fill="#000000">+majorVersion</text>
</g>
<!-- Node13 -->
<g id="node11" class="node">
<title>Node13</title>
<g id="a_node11"><a xlink:href="../../d0/d1c/structo2_1_1ctf_1_1Registry.html" target="_top" xlink:title="registry struct for the buffer start and offsets of writable space ">
<polygon fill="none" stroke="#000000" points="545,-1283.5 545,-1362.5 667,-1362.5 667,-1283.5 545,-1283.5"/>
<text text-anchor="middle" x="606" y="-1350.5" font-family="Helvetica,sans-Serif" font-size="10.00" fill="#000000">o2::ctf::Registry</text>
<polyline fill="none" stroke="#000000" points="545,-1343.5 667,-1343.5 "/>
<text text-anchor="middle" x="606" y="-1331.5" font-family="Helvetica,sans-Serif" font-size="10.00" fill="#000000"> </text>
<polyline fill="none" stroke="#000000" points="545,-1324.5 667,-1324.5 "/>
<text text-anchor="start" x="553" y="-1312.5" font-family="Helvetica,sans-Serif" font-size="10.00" fill="#000000">+ getFreeBlockStart()</text>
<text text-anchor="start" x="553" y="-1301.5" font-family="Helvetica,sans-Serif" font-size="10.00" fill="#000000">+ getFreeSize()</text>
<text text-anchor="start" x="553" y="-1290.5" font-family="Helvetica,sans-Serif" font-size="10.00" fill="#000000">+ ClassDefNV()</text>
</a>
</g>
</g>
<!-- Node13&#45;&gt;Node4 -->
<g id="edge10" class="edge">
<title>Node13&#45;&gt;Node4</title>
<path fill="none" stroke="#404040" d="M667.0966,-1287.3219C670.4092,-1285.7841 673.7231,-1284.3313 677,-1283 705.9639,-1271.2324 725.9307,-1289.7739 745,-1265 900.213,-1063.3554 848.1741,-902.9882 703,-694 685.4145,-668.6845 669.7346,-673.1225 640,-665 605.0373,-655.4494 511.1298,-668.9867 465.893,-646.3334"/>
<polygon fill="none" stroke="#404040" points="465.6454,-646.1767 458.4363,-646.3472 455.5062,-639.7582 462.7153,-639.5877 465.6454,-646.1767"/>
<text text-anchor="middle" x="869.5" y="-962.5" font-family="Helvetica,sans-Serif" font-size="10.00" fill="#000000"> #mRegistry</text>
</g>
<!-- Node13&#45;&gt;Node17 -->
<g id="edge19" class="edge">
<title>Node13&#45;&gt;Node17</title>
<path fill="none" stroke="#404040" d="M605.133,-1283.2302C605.0047,-1273.6582 604.9345,-1263.4643 605,-1254 605.0143,-1251.9302 605.0292,-1249.852 605.0447,-1247.7664"/>
<polygon fill="none" stroke="#404040" points="605.0448,-1247.7441 601.0921,-1241.7129 605.1391,-1235.7445 609.0918,-1241.7758 605.0448,-1247.7441"/>
<text text-anchor="middle" x="635.5" y="-1257" font-family="Helvetica,sans-Serif" font-size="10.00" fill="#000000"> #mRegistry</text>
</g>
<!-- Node14 -->
<g id="node12" class="node">
<title>Node14</title>
<polygon fill="none" stroke="#bfbfbf" points="539,-1421.5 539,-1478.5 577,-1478.5 577,-1421.5 539,-1421.5"/>
<text text-anchor="middle" x="558" y="-1466.5" font-family="Helvetica,sans-Serif" font-size="10.00" fill="#000000">char</text>
<polyline fill="none" stroke="#bfbfbf" points="539,-1459.5 577,-1459.5 "/>
<text text-anchor="middle" x="558" y="-1447.5" font-family="Helvetica,sans-Serif" font-size="10.00" fill="#000000"> </text>
<polyline fill="none" stroke="#bfbfbf" points="539,-1440.5 577,-1440.5 "/>
<text text-anchor="middle" x="558" y="-1428.5" font-family="Helvetica,sans-Serif" font-size="10.00" fill="#000000"> </text>
</g>
<!-- Node14&#45;&gt;Node13 -->
<g id="edge11" class="edge">
<title>Node14&#45;&gt;Node13</title>
<path fill="none" stroke="#404040" d="M561.0915,-1421.1725C563.0352,-1408.5568 566.1319,-1393.7553 571,-1381 571.954,-1378.5003 573.0149,-1375.9868 574.1561,-1373.4817"/>
<polygon fill="none" stroke="#404040" points="574.2208,-1373.3523 573.3292,-1366.1965 579.5916,-1362.6213 580.4832,-1369.7771 574.2208,-1373.3523"/>
<text text-anchor="middle" x="589" y="-1389.5" font-family="Helvetica,sans-Serif" font-size="10.00" fill="#000000"> +head</text>
</g>
<!-- Node15 -->
<g id="node13" class="node">
<title>Node15</title>
<polygon fill="none" stroke="#bfbfbf" points="595.5,-1421.5 595.5,-1478.5 640.5,-1478.5 640.5,-1421.5 595.5,-1421.5"/>
<text text-anchor="middle" x="618" y="-1466.5" font-family="Helvetica,sans-Serif" font-size="10.00" fill="#000000">size_t</text>
<polyline fill="none" stroke="#bfbfbf" points="595.5,-1459.5 640.5,-1459.5 "/>
<text text-anchor="middle" x="618" y="-1447.5" font-family="Helvetica,sans-Serif" font-size="10.00" fill="#000000"> </text>
<polyline fill="none" stroke="#bfbfbf" points="595.5,-1440.5 640.5,-1440.5 "/>
<text text-anchor="middle" x="618" y="-1428.5" font-family="Helvetica,sans-Serif" font-size="10.00" fill="#000000"> </text>
</g>
<!-- Node15&#45;&gt;Node13 -->
<g id="edge12" class="edge">
<title>Node15&#45;&gt;Node13</title>
<path fill="none" stroke="#404040" d="M615.307,-1421.4987C614.0202,-1407.8801 612.4382,-1391.1381 610.9461,-1375.3462"/>
<polygon fill="none" stroke="#404040" points="610.9049,-1374.9098 606.3582,-1369.3127 609.776,-1362.963 614.3228,-1368.5601 610.9049,-1374.9098"/>
<text text-anchor="middle" x="649.5" y="-1395" font-family="Helvetica,sans-Serif" font-size="10.00" fill="#000000"> +offsFreeStart</text>
<text text-anchor="middle" x="649.5" y="-1384" font-family="Helvetica,sans-Serif" font-size="10.00" fill="#000000">+size</text>
</g>
<!-- Node16 -->
<g id="node14" class="node">
<title>Node16</title>
<polygon fill="none" stroke="#bfbfbf" points="699.5,-1421.5 699.5,-1478.5 728.5,-1478.5 728.5,-1421.5 699.5,-1421.5"/>
<text text-anchor="middle" x="714" y="-1466.5" font-family="Helvetica,sans-Serif" font-size="10.00" fill="#000000">int</text>
<polyline fill="none" stroke="#bfbfbf" points="699.5,-1459.5 728.5,-1459.5 "/>
<text text-anchor="middle" x="714" y="-1447.5" font-family="Helvetica,sans-Serif" font-size="10.00" fill="#000000"> </text>
<polyline fill="none" stroke="#bfbfbf" points="699.5,-1440.5 728.5,-1440.5 "/>
<text text-anchor="middle" x="714" y="-1428.5" font-family="Helvetica,sans-Serif" font-size="10.00" fill="#000000"> </text>
</g>
<!-- Node16&#45;&gt;Node13 -->
<g id="edge13" class="edge">
<title>Node16&#45;&gt;Node13</title>
<path fill="none" stroke="#404040" d="M708.3125,-1421.1662C704.6741,-1407.9716 698.9109,-1392.7069 690,-1381 686.0419,-1375.8 681.4813,-1370.8947 676.5737,-1366.307"/>
<polygon fill="none" stroke="#404040" points="676.5002,-1366.2435 669.3451,-1365.3469 667.4208,-1358.3972 674.5759,-1359.2939 676.5002,-1366.2435"/>
<text text-anchor="middle" x="739" y="-1389.5" font-family="Helvetica,sans-Serif" font-size="10.00" fill="#000000"> +nFilledBlocks</text>
</g>
<!-- Node17&#45;&gt;Node4 -->
<g id="edge14" class="edge">
<title>Node17&#45;&gt;Node4</title>
<path fill="none" stroke="#ffa500" d="M519.3766,-709.604C516.3337,-704.2986 513.2084,-699.0898 510,-694 494.4135,-669.2739 479.3426,-671.8782 464,-647 461.1279,-642.3428 458.3309,-637.5855 455.6078,-632.7452"/>
<polygon fill="#ffa500" stroke="#ffa500" points="516.4834,-711.6011 524.42,-718.6198 522.5925,-708.1838 516.4834,-711.6011"/>
<text text-anchor="middle" x="564.5" y="-668" font-family="Helvetica,sans-Serif" font-size="10.00" fill="#000000"> &lt; CTFHeader, 10, uint32_t &gt;</text>
</g>
<!-- Node18 -->
<g id="node16" class="node">
<title>Node18</title>
<polygon fill="none" stroke="#bfbfbf" points="685.5,-1294.5 685.5,-1351.5 714.5,-1351.5 714.5,-1294.5 685.5,-1294.5"/>
<text text-anchor="middle" x="700" y="-1339.5" font-family="Helvetica,sans-Serif" font-size="10.00" fill="#000000">H</text>
<polyline fill="none" stroke="#bfbfbf" points="685.5,-1332.5 714.5,-1332.5 "/>
<text text-anchor="middle" x="700" y="-1320.5" font-family="Helvetica,sans-Serif" font-size="10.00" fill="#000000"> </text>
<polyline fill="none" stroke="#bfbfbf" points="685.5,-1313.5 714.5,-1313.5 "/>
<text text-anchor="middle" x="700" y="-1301.5" font-family="Helvetica,sans-Serif" font-size="10.00" fill="#000000"> </text>
</g>
<!-- Node18&#45;&gt;Node17 -->
<g id="edge16" class="edge">
<title>Node18&#45;&gt;Node17</title>
<path fill="none" stroke="#404040" d="M692.7069,-1294.3085C689.5111,-1281.736 685.4279,-1265.6722 680.7898,-1247.4258"/>
<polygon fill="none" stroke="#404040" points="680.7896,-1247.4246 675.4347,-1242.595 677.8332,-1235.7945 683.1881,-1240.6241 680.7896,-1247.4246"/>
<text text-anchor="middle" x="712.5" y="-1257" font-family="Helvetica,sans-Serif" font-size="10.00" fill="#000000"> #mHeader</text>
</g>
<!-- Node19 -->
<g id="node17" class="node">
<title>Node19</title>
<polygon fill="none" stroke="#bfbfbf" points="734.5,-1289 734.5,-1357 851.5,-1357 851.5,-1289 734.5,-1289"/>
<text text-anchor="start" x="742.5" y="-1345" font-family="Helvetica,sans-Serif" font-size="10.00" fill="#000000">array&lt; o2::ctf::Block</text>
<text text-anchor="middle" x="793" y="-1334" font-family="Helvetica,sans-Serif" font-size="10.00" fill="#000000">&lt; W &gt;, N &gt;</text>
<polyline fill="none" stroke="#bfbfbf" points="734.5,-1327 851.5,-1327 "/>
<text text-anchor="middle" x="793" y="-1315" font-family="Helvetica,sans-Serif" font-size="10.00" fill="#000000"> </text>
<polyline fill="none" stroke="#bfbfbf" points="734.5,-1308 851.5,-1308 "/>
<text text-anchor="middle" x="793" y="-1296" font-family="Helvetica,sans-Serif" font-size="10.00" fill="#000000"> </text>
</g>
<!-- Node19&#45;&gt;Node17 -->
<g id="edge17" class="edge">
<title>Node19&#45;&gt;Node17</title>
<path fill="none" stroke="#404040" d="M770.0871,-1288.8567C759.8207,-1273.0413 747.838,-1253.8379 738,-1236 724.7885,-1212.0455 711.5705,-1186.5186 698.9041,-1161.0717"/>
<polygon fill="none" stroke="#404040" points="698.8342,-1160.9304 692.5878,-1157.3274 693.5111,-1150.1757 699.7576,-1153.7787 698.8342,-1160.9304"/>
<text text-anchor="middle" x="780" y="-1257" font-family="Helvetica,sans-Serif" font-size="10.00" fill="#000000"> #mBlocks</text>
</g>
<!-- Node20 -->
<g id="node18" class="node">
<title>Node20</title>
<polygon fill="none" stroke="#bfbfbf" points="473,-347.5 473,-404.5 517,-404.5 517,-347.5 473,-347.5"/>
<text text-anchor="middle" x="495" y="-392.5" font-family="Helvetica,sans-Serif" font-size="10.00" fill="#000000">static</text>
<polyline fill="none" stroke="#bfbfbf" points="473,-385.5 517,-385.5 "/>
<text text-anchor="middle" x="495" y="-373.5" font-family="Helvetica,sans-Serif" font-size="10.00" fill="#000000"> </text>
<polyline fill="none" stroke="#bfbfbf" points="473,-366.5 517,-366.5 "/>
<text text-anchor="middle" x="495" y="-354.5" font-family="Helvetica,sans-Serif" font-size="10.00" fill="#000000"> </text>
</g>
<!-- Node20&#45;&gt;Node3 -->
<g id="edge20" class="edge">
<title>Node20&#45;&gt;Node3</title>
<path fill="none" stroke="#404040" d="M494.2878,-347.4498C492.4808,-297.5335 486.136,-191.4768 464,-105 460.9315,-93.0125 456.3779,-80.4129 451.6997,-68.9958"/>
<polygon fill="none" stroke="#404040" points="451.547,-68.638 445.5128,-64.6898 446.8365,-57.6012 452.8707,-61.5494 451.547,-68.638"/>
<text text-anchor="middle" x="468.5" y="-79" font-family="Helvetica,sans-Serif" font-size="10.00" fill="#000000"> +N</text>
</g>
</g>
</svg>
