<?xml version="1.0" encoding="UTF-8" standalone="no"?>
<!DOCTYPE svg PUBLIC "-//W3C//DTD SVG 1.1//EN"
 "http://www.w3.org/Graphics/SVG/1.1/DTD/svg11.dtd">
<!-- Generated by graphviz version 2.40.1 (20161225.0304)
 -->
<!-- Title: /home/travis/build/AliceO2Group/AliceO2/Detectors/FIT/FV0/simulation/include/FV0Simulation/Detector.h Pages: 1 -->
<svg width="2905pt" height="374pt"
 viewBox="0.00 0.00 2905.00 374.00" xmlns="http://www.w3.org/2000/svg" xmlns:xlink="http://www.w3.org/1999/xlink">
<g id="graph0" class="graph" transform="scale(1 1) rotate(0) translate(4 370)">
<title>/home/travis/build/AliceO2Group/AliceO2/Detectors/FIT/FV0/simulation/include/FV0Simulation/Detector.h</title>
<!-- Node0 -->
<g id="node1" class="node">
<title>Node0</title>
<polygon fill="#bfbfbf" stroke="#000000" points="1012,-313.5 1012,-365.5 1194,-365.5 1194,-313.5 1012,-313.5"/>
<text text-anchor="start" x="1020" y="-353.5" font-family="Helvetica,sans-Serif" font-size="10.00" fill="#000000">/home/travis/build</text>
<text text-anchor="start" x="1020" y="-342.5" font-family="Helvetica,sans-Serif" font-size="10.00" fill="#000000">/AliceO2Group/AliceO2</text>
<text text-anchor="start" x="1020" y="-331.5" font-family="Helvetica,sans-Serif" font-size="10.00" fill="#000000">/Detectors/FIT/FV0/simulation</text>
<text text-anchor="middle" x="1103" y="-320.5" font-family="Helvetica,sans-Serif" font-size="10.00" fill="#000000">/include/FV0Simulation/Detector.h</text>
</g>
<!-- Node1 -->
<g id="node2" class="node">
<title>Node1</title>
<polygon fill="none" stroke="#bfbfbf" points="939,-257.5 939,-276.5 1037,-276.5 1037,-257.5 939,-257.5"/>
<text text-anchor="middle" x="988" y="-264.5" font-family="Helvetica,sans-Serif" font-size="10.00" fill="#000000">TLorentzVector.h</text>
</g>
<!-- Node0&#45;&gt;Node1 -->
<g id="edge1" class="edge">
<title>Node0&#45;&gt;Node1</title>
<path fill="none" stroke="#191970" d="M1061.4824,-313.3258C1044.8051,-302.8119 1026.1793,-291.0696 1011.8529,-282.0377"/>
<polygon fill="#191970" stroke="#191970" points="1013.4487,-278.9063 1003.1229,-276.534 1009.7156,-284.8278 1013.4487,-278.9063"/>
</g>
<!-- Node2 -->
<g id="node3" class="node">
<title>Node2</title>
<g id="a_node3"><a xlink:href="../../d7/dd7/DataFormats_2Detectors_2FIT_2FV0_2include_2DataFormatsFV0_2Hit_8h.html" target="_top" xlink:title="DataFormatsFV0/Hit.h">
<polygon fill="none" stroke="#000000" points="1151,-257.5 1151,-276.5 1275,-276.5 1275,-257.5 1151,-257.5"/>
<text text-anchor="middle" x="1213" y="-264.5" font-family="Helvetica,sans-Serif" font-size="10.00" fill="#000000">DataFormatsFV0/Hit.h</text>
</a>
</g>
</g>
<!-- Node0&#45;&gt;Node2 -->
<g id="edge2" class="edge">
<title>Node0&#45;&gt;Node2</title>
<path fill="none" stroke="#191970" d="M1142.7125,-313.3258C1158.6647,-302.8119 1176.4806,-291.0696 1190.1842,-282.0377"/>
<polygon fill="#191970" stroke="#191970" points="1192.1111,-284.9595 1198.5346,-276.534 1188.2589,-279.1148 1192.1111,-284.9595"/>
</g>
<!-- Node4 -->
<g id="node5" class="node">
<title>Node4</title>
<g id="a_node5"><a xlink:href="../../d4/d25/BaseHits_8h.html" target="_top" xlink:title="SimulationDataFormat\l/BaseHits.h">
<polygon fill="none" stroke="#000000" points="1038.5,-190.5 1038.5,-220.5 1165.5,-220.5 1165.5,-190.5 1038.5,-190.5"/>
<text text-anchor="start" x="1046.5" y="-208.5" font-family="Helvetica,sans-Serif" font-size="10.00" fill="#000000">SimulationDataFormat</text>
<text text-anchor="middle" x="1102" y="-197.5" font-family="Helvetica,sans-Serif" font-size="10.00" fill="#000000">/BaseHits.h</text>
</a>
</g>
</g>
<!-- Node0&#45;&gt;Node4 -->
<g id="edge56" class="edge">
<title>Node0&#45;&gt;Node4</title>
<path fill="none" stroke="#191970" d="M1102.8048,-313.3453C1102.6272,-289.5432 1102.3666,-254.6196 1102.1904,-231.0183"/>
<polygon fill="#191970" stroke="#191970" points="1105.6884,-230.7197 1102.1138,-220.7461 1098.6886,-230.772 1105.6884,-230.7197"/>
</g>
<!-- Node24 -->
<g id="node25" class="node">
<title>Node24</title>
<g id="a_node25"><a xlink:href="../../d1/d3a/Base_2include_2DetectorsBase_2Detector_8h.html" target="_top" xlink:title="DetectorsBase/Detector.h">
<polygon fill="none" stroke="#000000" points="1834.5,-196 1834.5,-215 1975.5,-215 1975.5,-196 1834.5,-196"/>
<text text-anchor="middle" x="1905" y="-203" font-family="Helvetica,sans-Serif" font-size="10.00" fill="#000000">DetectorsBase/Detector.h</text>
</a>
</g>
</g>
<!-- Node0&#45;&gt;Node24 -->
<g id="edge26" class="edge">
<title>Node0&#45;&gt;Node24</title>
<path fill="none" stroke="#191970" d="M1194.2188,-324.259C1357.0972,-297.0449 1694.3187,-240.7011 1837.9066,-216.7101"/>
<polygon fill="#191970" stroke="#191970" points="1838.6188,-220.1397 1847.9052,-215.0395 1837.4651,-213.2354 1838.6188,-220.1397"/>
</g>
<!-- Node40 -->
<g id="node41" class="node">
<title>Node40</title>
<g id="a_node41"><a xlink:href="../../d8/de0/FIT_2FV0_2base_2include_2FV0Base_2Geometry_8h.html" target="_top" xlink:title="FV0Base/Geometry.h">
<polygon fill="none" stroke="#000000" points="700,-196 700,-215 818,-215 818,-196 700,-196"/>
<text text-anchor="middle" x="759" y="-203" font-family="Helvetica,sans-Serif" font-size="10.00" fill="#000000">FV0Base/Geometry.h</text>
</a>
</g>
</g>
<!-- Node0&#45;&gt;Node40 -->
<g id="edge50" class="edge">
<title>Node0&#45;&gt;Node40</title>
<path fill="none" stroke="#191970" d="M1091.723,-313.3432C1082.2662,-294.6367 1066.9338,-270.4734 1046,-257 1010.7823,-234.3333 901.189,-219.4526 828.0796,-211.7625"/>
<polygon fill="#191970" stroke="#191970" points="828.3235,-208.2692 818.0172,-210.7251 827.6055,-215.2323 828.3235,-208.2692"/>
</g>
<!-- Node3 -->
<g id="node4" class="node">
<title>Node3</title>
<polygon fill="none" stroke="#bfbfbf" points="1198.5,-73 1198.5,-92 1247.5,-92 1247.5,-73 1198.5,-73"/>
<text text-anchor="middle" x="1223" y="-80" font-family="Helvetica,sans-Serif" font-size="10.00" fill="#000000">iosfwd</text>
</g>
<!-- Node2&#45;&gt;Node3 -->
<g id="edge3" class="edge">
<title>Node2&#45;&gt;Node3</title>
<path fill="none" stroke="#191970" d="M1213.1678,-257.3107C1213.591,-235.3494 1214.8977,-180.1089 1218,-134 1218.7021,-123.564 1219.7999,-111.9673 1220.7882,-102.4247"/>
<polygon fill="#191970" stroke="#191970" points="1224.2814,-102.6749 1221.8678,-92.3586 1217.3213,-101.9283 1224.2814,-102.6749"/>
</g>
<!-- Node2&#45;&gt;Node4 -->
<g id="edge4" class="edge">
<title>Node2&#45;&gt;Node4</title>
<path fill="none" stroke="#191970" d="M1195.6563,-257.3906C1180.286,-248.8747 1157.3484,-236.166 1138.0205,-225.4573"/>
<polygon fill="#191970" stroke="#191970" points="1139.5971,-222.3295 1129.1537,-220.5446 1136.2046,-228.4525 1139.5971,-222.3295"/>
</g>
<!-- Node11 -->
<g id="node12" class="node">
<title>Node11</title>
<polygon fill="none" stroke="#bfbfbf" points="1265.5,-73 1265.5,-92 1324.5,-92 1324.5,-73 1265.5,-73"/>
<text text-anchor="middle" x="1295" y="-80" font-family="Helvetica,sans-Serif" font-size="10.00" fill="#000000">Rtypes.h</text>
</g>
<!-- Node2&#45;&gt;Node11 -->
<g id="edge17" class="edge">
<title>Node2&#45;&gt;Node11</title>
<path fill="none" stroke="#191970" d="M1217.2932,-257.3402C1230.3008,-228.0732 1269.4381,-140.0142 1286.6845,-101.2099"/>
<polygon fill="#191970" stroke="#191970" points="1289.8862,-102.6238 1290.7493,-92.0641 1283.4895,-99.7807 1289.8862,-102.6238"/>
</g>
<!-- Node16 -->
<g id="node17" class="node">
<title>Node16</title>
<polygon fill="none" stroke="#bfbfbf" points="1260,-196 1260,-215 1328,-215 1328,-196 1260,-196"/>
<text text-anchor="middle" x="1294" y="-203" font-family="Helvetica,sans-Serif" font-size="10.00" fill="#000000">TVector3.h</text>
</g>
<!-- Node2&#45;&gt;Node16 -->
<g id="edge18" class="edge">
<title>Node2&#45;&gt;Node16</title>
<path fill="none" stroke="#191970" d="M1225.6563,-257.3906C1238.3768,-247.7324 1258.2004,-232.6812 1273.2284,-221.271"/>
<polygon fill="#191970" stroke="#191970" points="1275.5846,-223.8766 1281.4326,-215.0419 1271.3516,-218.3015 1275.5846,-223.8766"/>
</g>
<!-- Node17 -->
<g id="node18" class="node">
<title>Node17</title>
<g id="a_node18"><a xlink:href="../../d0/d91/ShmAllocator_8h.html" target="_top" xlink:title="CommonUtils/ShmAllocator.h">
<polygon fill="none" stroke="#000000" points="2465,-134.5 2465,-153.5 2625,-153.5 2625,-134.5 2465,-134.5"/>
<text text-anchor="middle" x="2545" y="-141.5" font-family="Helvetica,sans-Serif" font-size="10.00" fill="#000000">CommonUtils/ShmAllocator.h</text>
</a>
</g>
</g>
<!-- Node2&#45;&gt;Node17 -->
<g id="edge19" class="edge">
<title>Node2&#45;&gt;Node17</title>
<path fill="none" stroke="#191970" d="M1275.17,-264.9234C1406.5049,-260.1788 1721.7682,-246.9007 1985,-221 2162.93,-203.4926 2371.2235,-171.9069 2476.551,-155.1473"/>
<polygon fill="#191970" stroke="#191970" points="2477.4023,-158.5558 2486.7257,-153.5234 2476.299,-151.6433 2477.4023,-158.5558"/>
</g>
<!-- Node5 -->
<g id="node6" class="node">
<title>Node5</title>
<g id="a_node6"><a xlink:href="../../dd/d76/Cartesian3D_8h.html" target="_top" xlink:title="MathUtils/Cartesian3D.h">
<polygon fill="none" stroke="#000000" points="837.5,-134.5 837.5,-153.5 972.5,-153.5 972.5,-134.5 837.5,-134.5"/>
<text text-anchor="middle" x="905" y="-141.5" font-family="Helvetica,sans-Serif" font-size="10.00" fill="#000000">MathUtils/Cartesian3D.h</text>
</a>
</g>
</g>
<!-- Node4&#45;&gt;Node5 -->
<g id="edge5" class="edge">
<title>Node4&#45;&gt;Node5</title>
<path fill="none" stroke="#191970" d="M1053.8084,-190.4554C1020.5059,-180.059 976.7157,-166.3884 945.2736,-156.5727"/>
<polygon fill="#191970" stroke="#191970" points="946.1167,-153.1694 935.528,-153.5303 944.0307,-159.8514 946.1167,-153.1694"/>
</g>
<!-- Node5&#45;&gt;Node3 -->
<g id="edge13" class="edge">
<title>Node5&#45;&gt;Node3</title>
<path fill="none" stroke="#191970" d="M972.721,-138.4342C1031.2419,-132.3646 1117.5703,-120.3709 1190,-98 1191.8597,-97.4256 1193.7487,-96.7656 1195.6333,-96.0488"/>
<polygon fill="#191970" stroke="#191970" points="1197.0283,-99.2589 1204.8614,-92.1251 1194.2892,-92.817 1197.0283,-99.2589"/>
</g>
<!-- Node6 -->
<g id="node7" class="node">
<title>Node6</title>
<polygon fill="none" stroke="#bfbfbf" points="100,-67.5 100,-97.5 264,-97.5 264,-67.5 100,-67.5"/>
<text text-anchor="start" x="108" y="-85.5" font-family="Helvetica,sans-Serif" font-size="10.00" fill="#000000">Math/GenVector/Displacement</text>
<text text-anchor="middle" x="182" y="-74.5" font-family="Helvetica,sans-Serif" font-size="10.00" fill="#000000">Vector3D.h</text>
</g>
<!-- Node5&#45;&gt;Node6 -->
<g id="edge6" class="edge">
<title>Node5&#45;&gt;Node6</title>
<path fill="none" stroke="#191970" d="M837.4219,-134.9736C834.2389,-134.6271 831.0859,-134.3002 828,-134 585.2195,-110.3858 520.2079,-126.3576 274.2405,-98.0674"/>
<polygon fill="#191970" stroke="#191970" points="274.622,-94.5883 264.2846,-96.9096 273.8133,-101.5414 274.622,-94.5883"/>
</g>
<!-- Node7 -->
<g id="node8" class="node">
<title>Node7</title>
<polygon fill="none" stroke="#bfbfbf" points="282.5,-73 282.5,-92 471.5,-92 471.5,-73 282.5,-73"/>
<text text-anchor="middle" x="377" y="-80" font-family="Helvetica,sans-Serif" font-size="10.00" fill="#000000">Math/GenVector/PositionVector3D.h</text>
</g>
<!-- Node5&#45;&gt;Node7 -->
<g id="edge7" class="edge">
<title>Node5&#45;&gt;Node7</title>
<path fill="none" stroke="#191970" d="M837.4062,-135.1203C834.2274,-134.7346 831.0796,-134.3592 828,-134 673.555,-115.9857 634.255,-117.5746 480,-98 469.3555,-96.6492 458.1119,-95.0919 447.1189,-93.4964"/>
<polygon fill="#191970" stroke="#191970" points="447.521,-90.018 437.1181,-92.0252 446.5022,-96.9434 447.521,-90.018"/>
</g>
<!-- Node8 -->
<g id="node9" class="node">
<title>Node8</title>
<polygon fill="none" stroke="#bfbfbf" points="643,-73 643,-92 803,-92 803,-73 643,-73"/>
<text text-anchor="middle" x="723" y="-80" font-family="Helvetica,sans-Serif" font-size="10.00" fill="#000000">Math/GenVector/Rotation3D.h</text>
</g>
<!-- Node5&#45;&gt;Node8 -->
<g id="edge8" class="edge">
<title>Node5&#45;&gt;Node8</title>
<path fill="none" stroke="#191970" d="M876.5625,-134.3906C845.4428,-123.8749 795.4036,-106.966 760.9515,-95.3243"/>
<polygon fill="#191970" stroke="#191970" points="761.832,-91.9274 751.2378,-92.0419 759.5911,-98.5591 761.832,-91.9274"/>
</g>
<!-- Node9 -->
<g id="node10" class="node">
<title>Node9</title>
<polygon fill="none" stroke="#bfbfbf" points="821,-73 821,-92 989,-92 989,-73 821,-73"/>
<text text-anchor="middle" x="905" y="-80" font-family="Helvetica,sans-Serif" font-size="10.00" fill="#000000">Math/GenVector/Transform3D.h</text>
</g>
<!-- Node5&#45;&gt;Node9 -->
<g id="edge9" class="edge">
<title>Node5&#45;&gt;Node9</title>
<path fill="none" stroke="#191970" d="M905,-134.3906C905,-125.8657 905,-113.1392 905,-102.4235"/>
<polygon fill="#191970" stroke="#191970" points="908.5001,-102.2448 905,-92.2449 901.5001,-102.2449 908.5001,-102.2448"/>
</g>
<!-- Node10 -->
<g id="node11" class="node">
<title>Node10</title>
<polygon fill="none" stroke="#bfbfbf" points="1007.5,-73 1007.5,-92 1180.5,-92 1180.5,-73 1007.5,-73"/>
<text text-anchor="middle" x="1094" y="-80" font-family="Helvetica,sans-Serif" font-size="10.00" fill="#000000">Math/GenVector/Translation3D.h</text>
</g>
<!-- Node5&#45;&gt;Node10 -->
<g id="edge10" class="edge">
<title>Node5&#45;&gt;Node10</title>
<path fill="none" stroke="#191970" d="M934.5313,-134.3906C966.9866,-123.8298 1019.2581,-106.8208 1055.0486,-95.1747"/>
<polygon fill="#191970" stroke="#191970" points="1056.2499,-98.4645 1064.6761,-92.0419 1054.0839,-91.808 1056.2499,-98.4645"/>
</g>
<!-- Node5&#45;&gt;Node11 -->
<g id="edge11" class="edge">
<title>Node5&#45;&gt;Node11</title>
<path fill="none" stroke="#191970" d="M972.7614,-137.2408C1059.5195,-128.2233 1204.8665,-111.7916 1257,-98 1259.6217,-97.3064 1262.3039,-96.4765 1264.9706,-95.566"/>
<polygon fill="#191970" stroke="#191970" points="1266.2933,-98.808 1274.4246,-92.0158 1263.8324,-92.2548 1266.2933,-98.808"/>
</g>
<!-- Node12 -->
<g id="node13" class="node">
<title>Node12</title>
<polygon fill="none" stroke="#bfbfbf" points="0,-73 0,-92 82,-92 82,-73 0,-73"/>
<text text-anchor="middle" x="41" y="-80" font-family="Helvetica,sans-Serif" font-size="10.00" fill="#000000">TGeoMatrix.h</text>
</g>
<!-- Node5&#45;&gt;Node12 -->
<g id="edge12" class="edge">
<title>Node5&#45;&gt;Node12</title>
<path fill="none" stroke="#191970" d="M837.4276,-134.9123C834.243,-134.5822 831.0882,-134.2755 828,-134 501.3512,-104.8586 413.954,-155.0034 91,-98 86.4986,-97.2055 81.8359,-96.1248 77.249,-94.9012"/>
<polygon fill="#191970" stroke="#191970" points="78.0002,-91.4748 67.421,-92.0495 76.0495,-98.1975 78.0002,-91.4748"/>
</g>
<!-- Node13 -->
<g id="node14" class="node">
<title>Node13</title>
<g id="a_node14"><a xlink:href="../../d2/dd0/Cartesian2D_8h.html" target="_top" xlink:title="MathUtils/Cartesian2D.h">
<polygon fill="none" stroke="#000000" points="489.5,-73 489.5,-92 624.5,-92 624.5,-73 489.5,-73"/>
<text text-anchor="middle" x="557" y="-80" font-family="Helvetica,sans-Serif" font-size="10.00" fill="#000000">MathUtils/Cartesian2D.h</text>
</a>
</g>
</g>
<!-- Node5&#45;&gt;Node13 -->
<g id="edge14" class="edge">
<title>Node5&#45;&gt;Node13</title>
<path fill="none" stroke="#191970" d="M845.6986,-134.4684C790.7335,-125.5071 706.7281,-111.4893 634,-98 627.3339,-96.7636 620.3528,-95.4228 613.4304,-94.0648"/>
<polygon fill="#191970" stroke="#191970" points="613.8633,-90.5827 603.3738,-92.073 612.5033,-97.4493 613.8633,-90.5827"/>
</g>
<!-- Node14 -->
<g id="node15" class="node">
<title>Node14</title>
<polygon fill="none" stroke="#bfbfbf" points="377,-.5 377,-30.5 541,-30.5 541,-.5 377,-.5"/>
<text text-anchor="start" x="385" y="-18.5" font-family="Helvetica,sans-Serif" font-size="10.00" fill="#000000">Math/GenVector/Displacement</text>
<text text-anchor="middle" x="459" y="-7.5" font-family="Helvetica,sans-Serif" font-size="10.00" fill="#000000">Vector2D.h</text>
</g>
<!-- Node13&#45;&gt;Node14 -->
<g id="edge15" class="edge">
<title>Node13&#45;&gt;Node14</title>
<path fill="none" stroke="#191970" d="M542.959,-72.9005C529.0412,-63.3853 507.272,-48.5023 489.388,-36.2755"/>
<polygon fill="#191970" stroke="#191970" points="491.2026,-33.2763 480.9721,-30.5218 487.2519,-39.0549 491.2026,-33.2763"/>
</g>
<!-- Node15 -->
<g id="node16" class="node">
<title>Node15</title>
<polygon fill="none" stroke="#bfbfbf" points="559.5,-6 559.5,-25 748.5,-25 748.5,-6 559.5,-6"/>
<text text-anchor="middle" x="654" y="-13" font-family="Helvetica,sans-Serif" font-size="10.00" fill="#000000">Math/GenVector/PositionVector2D.h</text>
</g>
<!-- Node13&#45;&gt;Node15 -->
<g id="edge16" class="edge">
<title>Node13&#45;&gt;Node15</title>
<path fill="none" stroke="#191970" d="M570.8977,-72.9005C586.8164,-61.9052 613.1121,-43.7422 631.8599,-30.7927"/>
<polygon fill="#191970" stroke="#191970" points="633.8892,-33.6448 640.128,-25.0817 629.9108,-27.8852 633.8892,-33.6448"/>
</g>
<!-- Node18 -->
<g id="node19" class="node">
<title>Node18</title>
<g id="a_node19"><a xlink:href="../../de/d61/ShmManager_8h.html" target="_top" xlink:title="CommonUtils/ShmManager.h">
<polygon fill="none" stroke="#000000" points="2520,-73 2520,-92 2678,-92 2678,-73 2520,-73"/>
<text text-anchor="middle" x="2599" y="-80" font-family="Helvetica,sans-Serif" font-size="10.00" fill="#000000">CommonUtils/ShmManager.h</text>
</a>
</g>
</g>
<!-- Node17&#45;&gt;Node18 -->
<g id="edge20" class="edge">
<title>Node17&#45;&gt;Node18</title>
<path fill="none" stroke="#191970" d="M2553.4375,-134.3906C2561.5531,-125.1478 2574.0055,-110.966 2583.8424,-99.7628"/>
<polygon fill="#191970" stroke="#191970" points="2586.4755,-102.0686 2590.4435,-92.2449 2581.2154,-97.45 2586.4755,-102.0686"/>
</g>
<!-- Node23 -->
<g id="node24" class="node">
<title>Node23</title>
<polygon fill="none" stroke="#bfbfbf" points="2166,-73 2166,-92 2218,-92 2218,-73 2166,-73"/>
<text text-anchor="middle" x="2192" y="-80" font-family="Helvetica,sans-Serif" font-size="10.00" fill="#000000">cassert</text>
</g>
<!-- Node17&#45;&gt;Node23 -->
<g id="edge25" class="edge">
<title>Node17&#45;&gt;Node23</title>
<path fill="none" stroke="#191970" d="M2490.2311,-134.4581C2417.3716,-121.7645 2290.5526,-99.6699 2228.4191,-88.845"/>
<polygon fill="#191970" stroke="#191970" points="2228.7604,-85.3518 2218.3081,-87.0834 2227.5589,-92.2479 2228.7604,-85.3518"/>
</g>
<!-- Node19 -->
<g id="node20" class="node">
<title>Node19</title>
<polygon fill="none" stroke="#bfbfbf" points="2458,-6 2458,-25 2490,-25 2490,-6 2458,-6"/>
<text text-anchor="middle" x="2474" y="-13" font-family="Helvetica,sans-Serif" font-size="10.00" fill="#000000">list</text>
</g>
<!-- Node18&#45;&gt;Node19 -->
<g id="edge21" class="edge">
<title>Node18&#45;&gt;Node19</title>
<path fill="none" stroke="#191970" d="M2579.8467,-72.9507C2559.776,-62.8477 2527.4128,-46.2844 2500,-31 2499.5869,-30.7697 2499.1707,-30.5364 2498.7522,-30.3006"/>
<polygon fill="#191970" stroke="#191970" points="2500.2732,-27.137 2489.8653,-25.1558 2496.766,-33.1951 2500.2732,-27.137"/>
</g>
<!-- Node20 -->
<g id="node21" class="node">
<title>Node20</title>
<polygon fill="none" stroke="#bfbfbf" points="2508.5,-6 2508.5,-25 2561.5,-25 2561.5,-6 2508.5,-6"/>
<text text-anchor="middle" x="2535" y="-13" font-family="Helvetica,sans-Serif" font-size="10.00" fill="#000000">cstddef</text>
</g>
<!-- Node18&#45;&gt;Node20 -->
<g id="edge22" class="edge">
<title>Node18&#45;&gt;Node20</title>
<path fill="none" stroke="#191970" d="M2589.8304,-72.9005C2579.7551,-62.353 2563.3793,-45.2096 2551.1431,-32.3998"/>
<polygon fill="#191970" stroke="#191970" points="2553.5909,-29.8952 2544.1526,-25.0817 2548.5291,-34.7304 2553.5909,-29.8952"/>
</g>
<!-- Node21 -->
<g id="node22" class="node">
<title>Node21</title>
<polygon fill="none" stroke="#bfbfbf" points="2579.5,-.5 2579.5,-30.5 2744.5,-30.5 2744.5,-.5 2579.5,-.5"/>
<text text-anchor="start" x="2587.5" y="-18.5" font-family="Helvetica,sans-Serif" font-size="10.00" fill="#000000">boost/interprocess</text>
<text text-anchor="middle" x="2662" y="-7.5" font-family="Helvetica,sans-Serif" font-size="10.00" fill="#000000">/managed_external_buffer.hpp</text>
</g>
<!-- Node18&#45;&gt;Node21 -->
<g id="edge23" class="edge">
<title>Node18&#45;&gt;Node21</title>
<path fill="none" stroke="#191970" d="M2608.0264,-72.9005C2616.5668,-63.8178 2629.7062,-49.8442 2640.8823,-37.9585"/>
<polygon fill="#191970" stroke="#191970" points="2643.5746,-40.2046 2647.8751,-30.5218 2638.4749,-35.4094 2643.5746,-40.2046"/>
</g>
<!-- Node22 -->
<g id="node23" class="node">
<title>Node22</title>
<polygon fill="none" stroke="#bfbfbf" points="2763,-.5 2763,-30.5 2897,-30.5 2897,-.5 2763,-.5"/>
<text text-anchor="start" x="2771" y="-18.5" font-family="Helvetica,sans-Serif" font-size="10.00" fill="#000000">boost/interprocess</text>
<text text-anchor="middle" x="2830" y="-7.5" font-family="Helvetica,sans-Serif" font-size="10.00" fill="#000000">/allocators/allocator.hpp</text>
</g>
<!-- Node18&#45;&gt;Node22 -->
<g id="edge24" class="edge">
<title>Node18&#45;&gt;Node22</title>
<path fill="none" stroke="#191970" d="M2632.0967,-72.9005C2667.587,-62.6068 2724.7365,-46.031 2768.5192,-33.3321"/>
<polygon fill="#191970" stroke="#191970" points="2769.5794,-36.6689 2778.2085,-30.5218 2767.6294,-29.946 2769.5794,-36.6689"/>
</g>
<!-- Node24&#45;&gt;Node11 -->
<g id="edge39" class="edge">
<title>Node24&#45;&gt;Node11</title>
<path fill="none" stroke="#191970" d="M1834.2183,-204.8373C1680.3458,-202.6606 1326.221,-193.3809 1290,-154 1277.2854,-140.1762 1281.302,-117.798 1286.7403,-101.7583"/>
<polygon fill="#191970" stroke="#191970" points="1290.0594,-102.8775 1290.3578,-92.2869 1283.5201,-100.3799 1290.0594,-102.8775"/>
</g>
<!-- Node24&#45;&gt;Node17 -->
<g id="edge46" class="edge">
<title>Node24&#45;&gt;Node17</title>
<path fill="none" stroke="#191970" d="M1975.9303,-199.2974C2078.9414,-190.1945 2276.2379,-172.4029 2454.8449,-154.1037"/>
<polygon fill="#191970" stroke="#191970" points="2455.364,-157.5689 2464.954,-153.0654 2454.6487,-150.6055 2455.364,-157.5689"/>
</g>
<!-- Node24&#45;&gt;Node18 -->
<g id="edge45" class="edge">
<title>Node24&#45;&gt;Node18</title>
<path fill="none" stroke="#191970" d="M1975.6657,-203.0856C2154.3682,-196.6385 2611.754,-177.8731 2634,-154 2648.6829,-138.2432 2632.5203,-115.175 2617.6248,-99.5355"/>
<polygon fill="#191970" stroke="#191970" points="2619.6917,-96.6569 2610.121,-92.1123 2614.7687,-101.6334 2619.6917,-96.6569"/>
</g>
<!-- Node24&#45;&gt;Node23 -->
<g id="edge49" class="edge">
<title>Node24&#45;&gt;Node23</title>
<path fill="none" stroke="#191970" d="M1912.4236,-195.9974C1925.0184,-180.5499 1952.1325,-150.1015 1982,-134 2038.1678,-103.72 2112.3332,-90.9457 2155.831,-85.7799"/>
<polygon fill="#191970" stroke="#191970" points="2156.3878,-89.2395 2165.9378,-84.6517 2155.6112,-82.2827 2156.3878,-89.2395"/>
</g>
<!-- Node25 -->
<g id="node26" class="node">
<title>Node25</title>
<polygon fill="none" stroke="#bfbfbf" points="1454,-73 1454,-92 1492,-92 1492,-73 1454,-73"/>
<text text-anchor="middle" x="1473" y="-80" font-family="Helvetica,sans-Serif" font-size="10.00" fill="#000000">map</text>
</g>
<!-- Node24&#45;&gt;Node25 -->
<g id="edge27" class="edge">
<title>Node24&#45;&gt;Node25</title>
<path fill="none" stroke="#191970" d="M1834.2693,-200.3282C1745.2368,-192.9524 1598.009,-177.6307 1549,-154 1523.015,-141.4708 1499.9504,-116.8632 1486.2276,-100.0516"/>
<polygon fill="#191970" stroke="#191970" points="1488.8779,-97.7602 1479.9369,-92.0762 1483.3818,-102.0953 1488.8779,-97.7602"/>
</g>
<!-- Node26 -->
<g id="node27" class="node">
<title>Node26</title>
<polygon fill="none" stroke="#bfbfbf" points="1054.5,-134.5 1054.5,-153.5 1101.5,-153.5 1101.5,-134.5 1054.5,-134.5"/>
<text text-anchor="middle" x="1078" y="-141.5" font-family="Helvetica,sans-Serif" font-size="10.00" fill="#000000">vector</text>
</g>
<!-- Node24&#45;&gt;Node26 -->
<g id="edge28" class="edge">
<title>Node24&#45;&gt;Node26</title>
<path fill="none" stroke="#191970" d="M1834.4904,-200.2565C1664.074,-187.5835 1234.7963,-155.6602 1111.5579,-146.4955"/>
<polygon fill="#191970" stroke="#191970" points="1111.8082,-143.0046 1101.5761,-145.7532 1111.289,-149.9853 1111.8082,-143.0046"/>
</g>
<!-- Node27 -->
<g id="node28" class="node">
<title>Node27</title>
<polygon fill="none" stroke="#bfbfbf" points="1510.5,-73 1510.5,-92 1593.5,-92 1593.5,-73 1510.5,-73"/>
<text text-anchor="middle" x="1552" y="-80" font-family="Helvetica,sans-Serif" font-size="10.00" fill="#000000">initializer_list</text>
</g>
<!-- Node24&#45;&gt;Node27 -->
<g id="edge29" class="edge">
<title>Node24&#45;&gt;Node27</title>
<path fill="none" stroke="#191970" d="M1834.4557,-199.1864C1740.551,-190.1258 1584.0342,-172.4803 1565,-154 1551.4671,-140.8609 1549.3067,-118.6837 1549.8513,-102.5055"/>
<polygon fill="#191970" stroke="#191970" points="1553.3484,-102.6681 1550.554,-92.4484 1546.3655,-102.1801 1553.3484,-102.6681"/>
</g>
<!-- Node28 -->
<g id="node29" class="node">
<title>Node28</title>
<polygon fill="none" stroke="#bfbfbf" points="1574,-134.5 1574,-153.5 1632,-153.5 1632,-134.5 1574,-134.5"/>
<text text-anchor="middle" x="1603" y="-141.5" font-family="Helvetica,sans-Serif" font-size="10.00" fill="#000000">memory</text>
</g>
<!-- Node24&#45;&gt;Node28 -->
<g id="edge30" class="edge">
<title>Node24&#45;&gt;Node28</title>
<path fill="none" stroke="#191970" d="M1850.6836,-195.965C1799.3536,-186.7153 1719.9898,-171.7988 1642.3607,-154.2118"/>
<polygon fill="#191970" stroke="#191970" points="1642.9402,-150.7541 1632.412,-151.9408 1641.3823,-157.5786 1642.9402,-150.7541"/>
</g>
<!-- Node29 -->
<g id="node30" class="node">
<title>Node29</title>
<polygon fill="none" stroke="#bfbfbf" points="1650,-134.5 1650,-153.5 1734,-153.5 1734,-134.5 1650,-134.5"/>
<text text-anchor="middle" x="1692" y="-141.5" font-family="Helvetica,sans-Serif" font-size="10.00" fill="#000000">FairDetector.h</text>
</g>
<!-- Node24&#45;&gt;Node29 -->
<g id="edge31" class="edge">
<title>Node24&#45;&gt;Node29</title>
<path fill="none" stroke="#191970" d="M1871.7188,-195.8906C1834.8295,-185.2395 1775.2243,-168.0296 1734.8675,-156.3772"/>
<polygon fill="#191970" stroke="#191970" points="1735.626,-152.9533 1725.0475,-153.5419 1733.6842,-159.6786 1735.626,-152.9533"/>
</g>
<!-- Node30 -->
<g id="node31" class="node">
<title>Node30</title>
<polygon fill="none" stroke="#bfbfbf" points="1752,-134.5 1752,-153.5 1858,-153.5 1858,-134.5 1752,-134.5"/>
<text text-anchor="middle" x="1805" y="-141.5" font-family="Helvetica,sans-Serif" font-size="10.00" fill="#000000">FairRootManager.h</text>
</g>
<!-- Node24&#45;&gt;Node30 -->
<g id="edge32" class="edge">
<title>Node24&#45;&gt;Node30</title>
<path fill="none" stroke="#191970" d="M1889.375,-195.8906C1873.2302,-185.9616 1847.8178,-170.333 1829.0977,-158.8201"/>
<polygon fill="#191970" stroke="#191970" points="1830.8669,-155.7992 1820.5153,-153.5419 1827.1998,-161.7619 1830.8669,-155.7992"/>
</g>
<!-- Node31 -->
<g id="node32" class="node">
<title>Node31</title>
<g id="a_node32"><a xlink:href="../../d0/d9a/MaterialManager_8h.html" target="_top" xlink:title="DetectorsBase/MaterialManager.h">
<polygon fill="none" stroke="#000000" points="1298.5,-134.5 1298.5,-153.5 1479.5,-153.5 1479.5,-134.5 1298.5,-134.5"/>
<text text-anchor="middle" x="1389" y="-141.5" font-family="Helvetica,sans-Serif" font-size="10.00" fill="#000000">DetectorsBase/MaterialManager.h</text>
</a>
</g>
</g>
<!-- Node24&#45;&gt;Node31 -->
<g id="edge33" class="edge">
<title>Node24&#45;&gt;Node31</title>
<path fill="none" stroke="#191970" d="M1834.3343,-197.0776C1742.0042,-186.0732 1580.2264,-166.7915 1479.159,-154.7457"/>
<polygon fill="#191970" stroke="#191970" points="1479.3101,-151.239 1468.9661,-153.5308 1478.4816,-158.1898 1479.3101,-151.239"/>
</g>
<!-- Node33 -->
<g id="node34" class="node">
<title>Node33</title>
<polygon fill="none" stroke="#bfbfbf" points="1876,-134.5 1876,-153.5 1934,-153.5 1934,-134.5 1876,-134.5"/>
<text text-anchor="middle" x="1905" y="-141.5" font-family="Helvetica,sans-Serif" font-size="10.00" fill="#000000">cxxabi.h</text>
</g>
<!-- Node24&#45;&gt;Node33 -->
<g id="edge40" class="edge">
<title>Node24&#45;&gt;Node33</title>
<path fill="none" stroke="#191970" d="M1905,-195.8906C1905,-187.3657 1905,-174.6392 1905,-163.9235"/>
<polygon fill="#191970" stroke="#191970" points="1908.5001,-163.7448 1905,-153.7449 1901.5001,-163.7449 1908.5001,-163.7448"/>
</g>
<!-- Node34 -->
<g id="node35" class="node">
<title>Node34</title>
<polygon fill="none" stroke="#bfbfbf" points="1990.5,-134.5 1990.5,-153.5 2047.5,-153.5 2047.5,-134.5 1990.5,-134.5"/>
<text text-anchor="middle" x="2019" y="-141.5" font-family="Helvetica,sans-Serif" font-size="10.00" fill="#000000">typeinfo</text>
</g>
<!-- Node24&#45;&gt;Node34 -->
<g id="edge41" class="edge">
<title>Node24&#45;&gt;Node34</title>
<path fill="none" stroke="#191970" d="M1922.8125,-195.8906C1941.4685,-185.8262 1970.9797,-169.9057 1992.3974,-158.3514"/>
<polygon fill="#191970" stroke="#191970" points="1994.1734,-161.3702 2001.3126,-153.5419 1990.8498,-155.2095 1994.1734,-161.3702"/>
</g>
<!-- Node35 -->
<g id="node36" class="node">
<title>Node35</title>
<polygon fill="none" stroke="#bfbfbf" points="2065.5,-134.5 2065.5,-153.5 2134.5,-153.5 2134.5,-134.5 2065.5,-134.5"/>
<text text-anchor="middle" x="2100" y="-141.5" font-family="Helvetica,sans-Serif" font-size="10.00" fill="#000000">type_traits</text>
</g>
<!-- Node24&#45;&gt;Node35 -->
<g id="edge42" class="edge">
<title>Node24&#45;&gt;Node35</title>
<path fill="none" stroke="#191970" d="M1935.4688,-195.8906C1968.9544,-185.3298 2022.8853,-168.3208 2059.812,-156.6747"/>
<polygon fill="#191970" stroke="#191970" points="2061.261,-159.8877 2069.7452,-153.5419 2059.1555,-153.2118 2061.261,-159.8877"/>
</g>
<!-- Node36 -->
<g id="node37" class="node">
<title>Node36</title>
<polygon fill="none" stroke="#bfbfbf" points="2153,-134.5 2153,-153.5 2197,-153.5 2197,-134.5 2153,-134.5"/>
<text text-anchor="middle" x="2175" y="-141.5" font-family="Helvetica,sans-Serif" font-size="10.00" fill="#000000">string</text>
</g>
<!-- Node24&#45;&gt;Node36 -->
<g id="edge43" class="edge">
<title>Node24&#45;&gt;Node36</title>
<path fill="none" stroke="#191970" d="M1956.6392,-195.9194C2003.1017,-186.9515 2073.3831,-172.5283 2142.9232,-154.1042"/>
<polygon fill="#191970" stroke="#191970" points="2143.9741,-157.4462 2152.7281,-151.4781 2142.1631,-150.6845 2143.9741,-157.4462"/>
</g>
<!-- Node37 -->
<g id="node38" class="node">
<title>Node37</title>
<polygon fill="none" stroke="#bfbfbf" points="2215,-134.5 2215,-153.5 2289,-153.5 2289,-134.5 2215,-134.5"/>
<text text-anchor="middle" x="2252" y="-141.5" font-family="Helvetica,sans-Serif" font-size="10.00" fill="#000000">TMessage.h</text>
</g>
<!-- Node24&#45;&gt;Node37 -->
<g id="edge44" class="edge">
<title>Node24&#45;&gt;Node37</title>
<path fill="none" stroke="#191970" d="M1965.3937,-195.9795C2024.0711,-186.5455 2115.9254,-171.2931 2204.8821,-154.1551"/>
<polygon fill="#191970" stroke="#191970" points="2205.7203,-157.5579 2214.8722,-152.22 2204.3891,-150.6856 2205.7203,-157.5579"/>
</g>
<!-- Node38 -->
<g id="node39" class="node">
<title>Node38</title>
<polygon fill="none" stroke="#bfbfbf" points="2307,-134.5 2307,-153.5 2373,-153.5 2373,-134.5 2307,-134.5"/>
<text text-anchor="middle" x="2340" y="-141.5" font-family="Helvetica,sans-Serif" font-size="10.00" fill="#000000">sys/shm.h</text>
</g>
<!-- Node24&#45;&gt;Node38 -->
<g id="edge47" class="edge">
<title>Node24&#45;&gt;Node38</title>
<path fill="none" stroke="#191970" d="M1975.6258,-198.4712C2052.4006,-190.3285 2178.848,-175.4567 2296.6796,-154.0993"/>
<polygon fill="#191970" stroke="#191970" points="2297.39,-157.5275 2306.5955,-152.2827 2296.1285,-150.6421 2297.39,-157.5275"/>
</g>
<!-- Node39 -->
<g id="node40" class="node">
<title>Node39</title>
<polygon fill="none" stroke="#bfbfbf" points="2391,-134.5 2391,-153.5 2447,-153.5 2447,-134.5 2391,-134.5"/>
<text text-anchor="middle" x="2419" y="-141.5" font-family="Helvetica,sans-Serif" font-size="10.00" fill="#000000">unistd.h</text>
</g>
<!-- Node24&#45;&gt;Node39 -->
<g id="edge48" class="edge">
<title>Node24&#45;&gt;Node39</title>
<path fill="none" stroke="#191970" d="M1975.8195,-201.3267C2067.3139,-195.1626 2231.5664,-181.4772 2380.577,-154.0175"/>
<polygon fill="#191970" stroke="#191970" points="2381.6364,-157.3802 2390.8233,-152.1028 2380.3505,-150.4994 2381.6364,-157.3802"/>
</g>
<!-- Node31&#45;&gt;Node3 -->
<g id="edge38" class="edge">
<title>Node31&#45;&gt;Node3</title>
<path fill="none" stroke="#191970" d="M1359.0894,-134.4529C1332.1438,-125.6456 1291.5733,-111.8704 1257,-98 1255.6077,-97.4414 1254.1895,-96.8573 1252.7614,-96.2568"/>
<polygon fill="#191970" stroke="#191970" points="1253.9289,-92.9475 1243.3639,-92.1531 1251.1276,-99.3625 1253.9289,-92.9475"/>
</g>
<!-- Node31&#45;&gt;Node11 -->
<g id="edge34" class="edge">
<title>Node31&#45;&gt;Node11</title>
<path fill="none" stroke="#191970" d="M1374.3125,-134.3906C1359.2744,-124.5519 1335.6824,-109.1167 1318.1333,-97.6351"/>
<polygon fill="#191970" stroke="#191970" points="1319.8687,-94.588 1309.5844,-92.0419 1316.0363,-100.4457 1319.8687,-94.588"/>
</g>
<!-- Node31&#45;&gt;Node25 -->
<g id="edge35" class="edge">
<title>Node31&#45;&gt;Node25</title>
<path fill="none" stroke="#191970" d="M1402.125,-134.3906C1415.44,-124.6421 1436.2594,-109.3994 1451.8947,-97.9521"/>
<polygon fill="#191970" stroke="#191970" points="1453.9661,-100.7734 1459.9672,-92.0419 1449.8309,-95.1253 1453.9661,-100.7734"/>
</g>
<!-- Node31&#45;&gt;Node27 -->
<g id="edge37" class="edge">
<title>Node31&#45;&gt;Node27</title>
<path fill="none" stroke="#191970" d="M1414.4688,-134.3906C1442.1005,-123.9652 1486.3869,-107.2559 1517.2128,-95.6252"/>
<polygon fill="#191970" stroke="#191970" points="1518.5894,-98.8467 1526.7101,-92.0419 1516.1183,-92.2974 1518.5894,-98.8467"/>
</g>
<!-- Node32 -->
<g id="node33" class="node">
<title>Node32</title>
<polygon fill="none" stroke="#bfbfbf" points="1342.5,-73 1342.5,-92 1435.5,-92 1435.5,-73 1342.5,-73"/>
<text text-anchor="middle" x="1389" y="-80" font-family="Helvetica,sans-Serif" font-size="10.00" fill="#000000">unordered_map</text>
</g>
<!-- Node31&#45;&gt;Node32 -->
<g id="edge36" class="edge">
<title>Node31&#45;&gt;Node32</title>
<path fill="none" stroke="#191970" d="M1389,-134.3906C1389,-125.8657 1389,-113.1392 1389,-102.4235"/>
<polygon fill="#191970" stroke="#191970" points="1392.5001,-102.2448 1389,-92.2449 1385.5001,-102.2449 1392.5001,-102.2448"/>
</g>
<!-- Node40&#45;&gt;Node12 -->
<g id="edge53" class="edge">
<title>Node40&#45;&gt;Node12</title>
<path fill="none" stroke="#191970" d="M699.9296,-198.8364C582.7838,-184.9981 313.1615,-150.0371 91,-98 87.1287,-97.0932 83.1203,-96.0437 79.1348,-94.9267"/>
<polygon fill="#191970" stroke="#191970" points="79.9469,-91.5174 69.3657,-92.0539 77.972,-98.233 79.9469,-91.5174"/>
</g>
<!-- Node40&#45;&gt;Node26 -->
<g id="edge51" class="edge">
<title>Node40&#45;&gt;Node26</title>
<path fill="none" stroke="#191970" d="M808.4937,-195.9581C874.0635,-183.3169 987.9934,-161.3524 1044.3896,-150.4797"/>
<polygon fill="#191970" stroke="#191970" points="1045.0693,-153.9133 1054.2258,-148.5834 1043.7441,-147.0398 1045.0693,-153.9133"/>
</g>
<!-- Node41 -->
<g id="node42" class="node">
<title>Node41</title>
<polygon fill="none" stroke="#bfbfbf" points="777,-134.5 777,-153.5 819,-153.5 819,-134.5 777,-134.5"/>
<text text-anchor="middle" x="798" y="-141.5" font-family="Helvetica,sans-Serif" font-size="10.00" fill="#000000">array</text>
</g>
<!-- Node40&#45;&gt;Node41 -->
<g id="edge52" class="edge">
<title>Node40&#45;&gt;Node41</title>
<path fill="none" stroke="#191970" d="M765.0938,-195.8906C770.7843,-186.917 779.4272,-173.2879 786.4274,-162.2491"/>
<polygon fill="#191970" stroke="#191970" points="789.4207,-164.0644 791.8203,-153.7449 783.5091,-160.3155 789.4207,-164.0644"/>
</g>
<!-- Node42 -->
<g id="node43" class="node">
<title>Node42</title>
<polygon fill="none" stroke="#bfbfbf" points="575,-134.5 575,-153.5 663,-153.5 663,-134.5 575,-134.5"/>
<text text-anchor="middle" x="619" y="-141.5" font-family="Helvetica,sans-Serif" font-size="10.00" fill="#000000">TGeoVolume.h</text>
</g>
<!-- Node40&#45;&gt;Node42 -->
<g id="edge54" class="edge">
<title>Node40&#45;&gt;Node42</title>
<path fill="none" stroke="#191970" d="M737.125,-195.8906C713.7004,-185.6005 676.3404,-169.1888 649.9159,-157.5809"/>
<polygon fill="#191970" stroke="#191970" points="651.2846,-154.3594 640.7214,-153.5419 648.4693,-160.7683 651.2846,-154.3594"/>
</g>
<!-- Node43 -->
<g id="node44" class="node">
<title>Node43</title>
<polygon fill="none" stroke="#bfbfbf" points="680.5,-134.5 680.5,-153.5 759.5,-153.5 759.5,-134.5 680.5,-134.5"/>
<text text-anchor="middle" x="720" y="-141.5" font-family="Helvetica,sans-Serif" font-size="10.00" fill="#000000">TVirtualMC.h</text>
</g>
<!-- Node40&#45;&gt;Node43 -->
<g id="edge55" class="edge">
<title>Node40&#45;&gt;Node43</title>
<path fill="none" stroke="#191970" d="M752.9063,-195.8906C747.2157,-186.917 738.5728,-173.2879 731.5726,-162.2491"/>
<polygon fill="#191970" stroke="#191970" points="734.4909,-160.3155 726.1797,-153.7449 728.5793,-164.0644 734.4909,-160.3155"/>
</g>
</g>
</svg>
