<?xml version="1.0" encoding="UTF-8" standalone="no"?>
<!DOCTYPE svg PUBLIC "-//W3C//DTD SVG 1.1//EN"
 "http://www.w3.org/Graphics/SVG/1.1/DTD/svg11.dtd">
<!-- Generated by graphviz version 2.40.1 (20161225.0304)
 -->
<!-- Title: o2::framework::Produces&lt; soa::Table&lt; C... &gt; &gt; Pages: 1 -->
<svg width="204pt" height="354pt"
 viewBox="0.00 0.00 204.00 354.00" xmlns="http://www.w3.org/2000/svg" xmlns:xlink="http://www.w3.org/1999/xlink">
<g id="graph0" class="graph" transform="scale(1 1) rotate(0) translate(4 350)">
<title>o2::framework::Produces&lt; soa::Table&lt; C... &gt; &gt;</title>
<!-- Node0 -->
<g id="node1" class="node">
<title>Node0</title>
<polygon fill="#bfbfbf" stroke="#000000" points="25,-.5 25,-79.5 163,-79.5 163,-.5 25,-.5"/>
<text text-anchor="start" x="33" y="-67.5" font-family="Helvetica,sans-Serif" font-size="10.00" fill="#000000">o2::framework::Produces</text>
<text text-anchor="middle" x="94" y="-56.5" font-family="Helvetica,sans-Serif" font-size="10.00" fill="#000000">&lt; soa::Table&lt; C... &gt; &gt;</text>
<polyline fill="none" stroke="#000000" points="25,-49.5 163,-49.5 "/>
<text text-anchor="middle" x="94" y="-37.5" font-family="Helvetica,sans-Serif" font-size="10.00" fill="#000000"> </text>
<polyline fill="none" stroke="#000000" points="25,-30.5 163,-30.5 "/>
<text text-anchor="start" x="33" y="-18.5" font-family="Helvetica,sans-Serif" font-size="10.00" fill="#000000">+ spec()</text>
<text text-anchor="start" x="33" y="-7.5" font-family="Helvetica,sans-Serif" font-size="10.00" fill="#000000">+ ref()</text>
</g>
<!-- Node1 -->
<g id="node2" class="node">
<title>Node1</title>
<g id="a_node2"><a xlink:href="../../d5/dc5/structo2_1_1framework_1_1WritingCursor.html" target="_top" xlink:title="{o2::framework::WritingCursor\l\&lt; soa::PackToTable\&lt; soa::\lTable\&lt; C... \&gt;::persistent\l_columns_t \&gt;::table \&gt;\n||}">
<polygon fill="none" stroke="#000000" points="14,-117.5 14,-207.5 174,-207.5 174,-117.5 14,-117.5"/>
<text text-anchor="start" x="22" y="-195.5" font-family="Helvetica,sans-Serif" font-size="10.00" fill="#000000">o2::framework::WritingCursor</text>
<text text-anchor="start" x="22" y="-184.5" font-family="Helvetica,sans-Serif" font-size="10.00" fill="#000000">&lt; soa::PackToTable&lt; soa::</text>
<text text-anchor="start" x="22" y="-173.5" font-family="Helvetica,sans-Serif" font-size="10.00" fill="#000000">Table&lt; C... &gt;::persistent</text>
<text text-anchor="middle" x="94" y="-162.5" font-family="Helvetica,sans-Serif" font-size="10.00" fill="#000000">_columns_t &gt;::table &gt;</text>
<polyline fill="none" stroke="#000000" points="14,-155.5 174,-155.5 "/>
<text text-anchor="middle" x="94" y="-143.5" font-family="Helvetica,sans-Serif" font-size="10.00" fill="#000000"> </text>
<polyline fill="none" stroke="#000000" points="14,-136.5 174,-136.5 "/>
<text text-anchor="middle" x="94" y="-124.5" font-family="Helvetica,sans-Serif" font-size="10.00" fill="#000000"> </text>
</a>
</g>
</g>
<!-- Node1&#45;&gt;Node0 -->
<g id="edge1" class="edge">
<title>Node1&#45;&gt;Node0</title>
<path fill="none" stroke="#191970" d="M94,-107.0079C94,-97.8464 94,-88.5116 94,-79.8331"/>
<polygon fill="none" stroke="#191970" points="90.5001,-107.2335 94,-117.2336 97.5001,-107.2336 90.5001,-107.2335"/>
</g>
<!-- Node2 -->
<g id="node3" class="node">
<title>Node2</title>
<g id="a_node3"><a xlink:href="../../d5/dc5/structo2_1_1framework_1_1WritingCursor.html" target="_top" xlink:title="{o2::framework::WritingCursor\&lt; T \&gt;\n||}">
<polygon fill="none" stroke="#000000" points="0,-288.5 0,-345.5 188,-345.5 188,-288.5 0,-288.5"/>
<text text-anchor="middle" x="94" y="-333.5" font-family="Helvetica,sans-Serif" font-size="10.00" fill="#000000">o2::framework::WritingCursor&lt; T &gt;</text>
<polyline fill="none" stroke="#000000" points="0,-326.5 188,-326.5 "/>
<text text-anchor="middle" x="94" y="-314.5" font-family="Helvetica,sans-Serif" font-size="10.00" fill="#000000"> </text>
<polyline fill="none" stroke="#000000" points="0,-307.5 188,-307.5 "/>
<text text-anchor="middle" x="94" y="-295.5" font-family="Helvetica,sans-Serif" font-size="10.00" fill="#000000"> </text>
</a>
</g>
</g>
<!-- Node2&#45;&gt;Node1 -->
<g id="edge2" class="edge">
<title>Node2&#45;&gt;Node1</title>
<path fill="none" stroke="#ffa500" d="M94,-278.2557C94,-256.837 94,-230.1118 94,-207.7388"/>
<polygon fill="#ffa500" stroke="#ffa500" points="90.5001,-278.3018 94,-288.3018 97.5001,-278.3019 90.5001,-278.3018"/>
<text text-anchor="start" x="94" y="-262" font-family="Helvetica,sans-Serif" font-size="10.00" fill="#000000"> &lt; soa::PackToTable</text>
<text text-anchor="start" x="94" y="-251" font-family="Helvetica,sans-Serif" font-size="10.00" fill="#000000">&lt; soa::Table&lt; C... &gt;</text>
<text text-anchor="start" x="94" y="-240" font-family="Helvetica,sans-Serif" font-size="10.00" fill="#000000">::persistent_columns</text>
<text text-anchor="middle" x="145" y="-229" font-family="Helvetica,sans-Serif" font-size="10.00" fill="#000000">_t &gt;::table &gt;</text>
</g>
</g>
</svg>
