<?xml version="1.0" encoding="UTF-8" standalone="no"?>
<!DOCTYPE svg PUBLIC "-//W3C//DTD SVG 1.1//EN"
 "http://www.w3.org/Graphics/SVG/1.1/DTD/svg11.dtd">
<!-- Generated by graphviz version 2.40.1 (20161225.0304)
 -->
<!-- Title: /home/travis/build/AliceO2Group/AliceO2/DataFormats/Detectors/ITSMFT/common/include/DataFormatsITSMFT/TopologyDictionary.h Pages: 1 -->
<svg width="1792pt" height="273pt"
 viewBox="0.00 0.00 1792.00 273.00" xmlns="http://www.w3.org/2000/svg" xmlns:xlink="http://www.w3.org/1999/xlink">
<g id="graph0" class="graph" transform="scale(1 1) rotate(0) translate(4 269)">
<title>/home/travis/build/AliceO2Group/AliceO2/DataFormats/Detectors/ITSMFT/common/include/DataFormatsITSMFT/TopologyDictionary.h</title>
<!-- Node0 -->
<g id="node1" class="node">
<title>Node0</title>
<polygon fill="#bfbfbf" stroke="#000000" points="984.5,-201.5 984.5,-264.5 1205.5,-264.5 1205.5,-201.5 984.5,-201.5"/>
<text text-anchor="start" x="992.5" y="-252.5" font-family="Helvetica,sans-Serif" font-size="10.00" fill="#000000">/home/travis/build</text>
<text text-anchor="start" x="992.5" y="-241.5" font-family="Helvetica,sans-Serif" font-size="10.00" fill="#000000">/AliceO2Group/AliceO2</text>
<text text-anchor="start" x="992.5" y="-230.5" font-family="Helvetica,sans-Serif" font-size="10.00" fill="#000000">/DataFormats/Detectors</text>
<text text-anchor="start" x="992.5" y="-219.5" font-family="Helvetica,sans-Serif" font-size="10.00" fill="#000000">/ITSMFT/common/include</text>
<text text-anchor="middle" x="1095" y="-208.5" font-family="Helvetica,sans-Serif" font-size="10.00" fill="#000000">/DataFormatsITSMFT/TopologyDictionary.h</text>
</g>
<!-- Node1 -->
<g id="node2" class="node">
<title>Node1</title>
<g id="a_node2"><a xlink:href="../../de/dc1/ClusterPattern_8h.html" target="_top" xlink:title="DataFormatsITSMFT/Cluster\lPattern.h">
<polygon fill="none" stroke="#000000" points="221,-134.5 221,-164.5 373,-164.5 373,-134.5 221,-134.5"/>
<text text-anchor="start" x="229" y="-152.5" font-family="Helvetica,sans-Serif" font-size="10.00" fill="#000000">DataFormatsITSMFT/Cluster</text>
<text text-anchor="middle" x="297" y="-141.5" font-family="Helvetica,sans-Serif" font-size="10.00" fill="#000000">Pattern.h</text>
</a>
</g>
</g>
<!-- Node0&#45;&gt;Node1 -->
<g id="edge1" class="edge">
<title>Node0&#45;&gt;Node1</title>
<path fill="none" stroke="#191970" d="M984.4607,-221.4335C823.7848,-204.621 529.0368,-173.7795 383.285,-158.5286"/>
<polygon fill="#191970" stroke="#191970" points="383.3622,-155.0176 373.0522,-157.4578 382.6337,-161.9796 383.3622,-155.0176"/>
</g>
<!-- Node6 -->
<g id="node7" class="node">
<title>Node6</title>
<g id="a_node7"><a xlink:href="../../df/de4/CompCluster_8h.html" target="_top" xlink:title="Definition of the ITSMFT compact cluster. ">
<polygon fill="none" stroke="#000000" points="0,-73 0,-92 188,-92 188,-73 0,-73"/>
<text text-anchor="middle" x="94" y="-80" font-family="Helvetica,sans-Serif" font-size="10.00" fill="#000000">DataFormatsITSMFT/CompCluster.h</text>
</a>
</g>
</g>
<!-- Node0&#45;&gt;Node6 -->
<g id="edge26" class="edge">
<title>Node0&#45;&gt;Node6</title>
<path fill="none" stroke="#191970" d="M984.288,-231.7168C779.847,-228.1578 351.2508,-214.8084 212,-165 171.7209,-150.5926 132.5615,-118.5791 111.0252,-98.9375"/>
<polygon fill="#191970" stroke="#191970" points="113.3693,-96.3378 103.6686,-92.0779 108.5956,-101.4575 113.3693,-96.3378"/>
</g>
<!-- Node7 -->
<g id="node8" class="node">
<title>Node7</title>
<g id="a_node8"><a xlink:href="../../dd/da4/Logger_8h.html" target="_top" xlink:title="Framework/Logger.h">
<polygon fill="none" stroke="#000000" points="934.5,-140 934.5,-159 1049.5,-159 1049.5,-140 934.5,-140"/>
<text text-anchor="middle" x="992" y="-147" font-family="Helvetica,sans-Serif" font-size="10.00" fill="#000000">Framework/Logger.h</text>
</a>
</g>
</g>
<!-- Node0&#45;&gt;Node7 -->
<g id="edge8" class="edge">
<title>Node0&#45;&gt;Node7</title>
<path fill="none" stroke="#191970" d="M1056.0601,-201.4322C1041.0632,-189.2745 1024.5529,-175.89 1012.0501,-165.7542"/>
<polygon fill="#191970" stroke="#191970" points="1014.0746,-162.8898 1004.1024,-159.3112 1009.6664,-168.3275 1014.0746,-162.8898"/>
</g>
<!-- Node9 -->
<g id="node10" class="node">
<title>Node9</title>
<polygon fill="none" stroke="#bfbfbf" points="1067.5,-140 1067.5,-159 1122.5,-159 1122.5,-140 1067.5,-140"/>
<text text-anchor="middle" x="1095" y="-147" font-family="Helvetica,sans-Serif" font-size="10.00" fill="#000000">fstream</text>
</g>
<!-- Node0&#45;&gt;Node9 -->
<g id="edge10" class="edge">
<title>Node0&#45;&gt;Node9</title>
<path fill="none" stroke="#191970" d="M1095,-201.4322C1095,-190.6773 1095,-178.9624 1095,-169.3857"/>
<polygon fill="#191970" stroke="#191970" points="1098.5001,-169.3112 1095,-159.3112 1091.5001,-169.3112 1098.5001,-169.3112"/>
</g>
<!-- Node10 -->
<g id="node11" class="node">
<title>Node10</title>
<polygon fill="none" stroke="#bfbfbf" points="1141,-140 1141,-159 1185,-159 1185,-140 1141,-140"/>
<text text-anchor="middle" x="1163" y="-147" font-family="Helvetica,sans-Serif" font-size="10.00" fill="#000000">string</text>
</g>
<!-- Node0&#45;&gt;Node10 -->
<g id="edge11" class="edge">
<title>Node0&#45;&gt;Node10</title>
<path fill="none" stroke="#191970" d="M1120.7079,-201.4322C1130.1328,-189.859 1140.463,-177.1741 1148.5546,-167.2382"/>
<polygon fill="#191970" stroke="#191970" points="1151.4093,-169.2754 1155.01,-159.3112 1145.9814,-164.8551 1151.4093,-169.2754"/>
</g>
<!-- Node11 -->
<g id="node12" class="node">
<title>Node11</title>
<polygon fill="none" stroke="#bfbfbf" points="1203.5,-140 1203.5,-159 1296.5,-159 1296.5,-140 1203.5,-140"/>
<text text-anchor="middle" x="1250" y="-147" font-family="Helvetica,sans-Serif" font-size="10.00" fill="#000000">unordered_map</text>
</g>
<!-- Node0&#45;&gt;Node11 -->
<g id="edge12" class="edge">
<title>Node0&#45;&gt;Node11</title>
<path fill="none" stroke="#191970" d="M1153.5989,-201.4322C1177.5072,-188.5526 1203.9714,-174.296 1223.1138,-163.9838"/>
<polygon fill="#191970" stroke="#191970" points="1224.9977,-166.9446 1232.1415,-159.1205 1221.6777,-160.7819 1224.9977,-166.9446"/>
</g>
<!-- Node12 -->
<g id="node13" class="node">
<title>Node12</title>
<polygon fill="none" stroke="#bfbfbf" points="1314.5,-140 1314.5,-159 1361.5,-159 1361.5,-140 1314.5,-140"/>
<text text-anchor="middle" x="1338" y="-147" font-family="Helvetica,sans-Serif" font-size="10.00" fill="#000000">vector</text>
</g>
<!-- Node0&#45;&gt;Node12 -->
<g id="edge13" class="edge">
<title>Node0&#45;&gt;Node12</title>
<path fill="none" stroke="#191970" d="M1202.8302,-201.4345C1236.2458,-190.8052 1272.9576,-178.2519 1306,-165 1307.3607,-164.4543 1308.7444,-163.8764 1310.135,-163.277"/>
<polygon fill="#191970" stroke="#191970" points="1311.5982,-166.4566 1319.2445,-159.1228 1308.6937,-160.0876 1311.5982,-166.4566"/>
</g>
<!-- Node13 -->
<g id="node14" class="node">
<title>Node13</title>
<g id="a_node14"><a xlink:href="../../dd/d76/Cartesian3D_8h.html" target="_top" xlink:title="MathUtils/Cartesian3D.h">
<polygon fill="none" stroke="#000000" points="781.5,-140 781.5,-159 916.5,-159 916.5,-140 781.5,-140"/>
<text text-anchor="middle" x="849" y="-147" font-family="Helvetica,sans-Serif" font-size="10.00" fill="#000000">MathUtils/Cartesian3D.h</text>
</a>
</g>
</g>
<!-- Node0&#45;&gt;Node13 -->
<g id="edge14" class="edge">
<title>Node0&#45;&gt;Node13</title>
<path fill="none" stroke="#191970" d="M1001.9979,-201.4322C962.0249,-187.8641 917.5503,-172.7681 886.9014,-162.3649"/>
<polygon fill="#191970" stroke="#191970" points="887.6583,-158.9257 877.0639,-159.0258 885.4083,-165.5543 887.6583,-158.9257"/>
</g>
<!-- Node23 -->
<g id="node24" class="node">
<title>Node23</title>
<polygon fill="none" stroke="#bfbfbf" points="1379.5,-140 1379.5,-159 1428.5,-159 1428.5,-140 1379.5,-140"/>
<text text-anchor="middle" x="1404" y="-147" font-family="Helvetica,sans-Serif" font-size="10.00" fill="#000000">TH1F.h</text>
</g>
<!-- Node0&#45;&gt;Node23 -->
<g id="edge27" class="edge">
<title>Node0&#45;&gt;Node23</title>
<path fill="none" stroke="#191970" d="M1205.5983,-211.0039C1256.6396,-199.5224 1317.6195,-183.903 1371,-165 1372.6408,-164.419 1374.3099,-163.7839 1375.9823,-163.1131"/>
<polygon fill="#191970" stroke="#191970" points="1377.6474,-166.2057 1385.4222,-159.0082 1374.8559,-159.7863 1377.6474,-166.2057"/>
</g>
<!-- Node2 -->
<g id="node3" class="node">
<title>Node2</title>
<polygon fill="none" stroke="#bfbfbf" points="186.5,-6 186.5,-25 245.5,-25 245.5,-6 186.5,-6"/>
<text text-anchor="middle" x="216" y="-13" font-family="Helvetica,sans-Serif" font-size="10.00" fill="#000000">Rtypes.h</text>
</g>
<!-- Node1&#45;&gt;Node2 -->
<g id="edge2" class="edge">
<title>Node1&#45;&gt;Node2</title>
<path fill="none" stroke="#191970" d="M271.8047,-134.3274C258.9296,-125.3188 244.0989,-112.7742 235,-98 223.1206,-78.711 218.6584,-52.7436 216.9882,-35.1314"/>
<polygon fill="#191970" stroke="#191970" points="220.4782,-34.8659 216.2557,-25.1489 213.497,-35.3783 220.4782,-34.8659"/>
</g>
<!-- Node3 -->
<g id="node4" class="node">
<title>Node3</title>
<polygon fill="none" stroke="#bfbfbf" points="244,-73 244,-92 286,-92 286,-73 244,-73"/>
<text text-anchor="middle" x="265" y="-80" font-family="Helvetica,sans-Serif" font-size="10.00" fill="#000000">array</text>
</g>
<!-- Node1&#45;&gt;Node3 -->
<g id="edge3" class="edge">
<title>Node1&#45;&gt;Node3</title>
<path fill="none" stroke="#191970" d="M289.7387,-134.2967C285.0434,-124.4658 278.8998,-111.6026 273.9096,-101.1545"/>
<polygon fill="#191970" stroke="#191970" points="277.0317,-99.5702 269.5636,-92.055 270.7151,-102.587 277.0317,-99.5702"/>
</g>
<!-- Node4 -->
<g id="node5" class="node">
<title>Node4</title>
<polygon fill="none" stroke="#bfbfbf" points="370.5,-73 370.5,-92 419.5,-92 419.5,-73 370.5,-73"/>
<text text-anchor="middle" x="395" y="-80" font-family="Helvetica,sans-Serif" font-size="10.00" fill="#000000">iosfwd</text>
</g>
<!-- Node1&#45;&gt;Node4 -->
<g id="edge4" class="edge">
<title>Node1&#45;&gt;Node4</title>
<path fill="none" stroke="#191970" d="M319.2377,-134.2967C335.2478,-123.351 356.7563,-108.6462 372.7656,-97.701"/>
<polygon fill="#191970" stroke="#191970" points="374.7443,-100.5881 381.0241,-92.055 370.7936,-94.8095 374.7443,-100.5881"/>
</g>
<!-- Node5 -->
<g id="node6" class="node">
<title>Node5</title>
<polygon fill="none" stroke="#bfbfbf" points="304,-73 304,-92 352,-92 352,-73 304,-73"/>
<text text-anchor="middle" x="328" y="-80" font-family="Helvetica,sans-Serif" font-size="10.00" fill="#000000">gsl/gsl</text>
</g>
<!-- Node1&#45;&gt;Node5 -->
<g id="edge5" class="edge">
<title>Node1&#45;&gt;Node5</title>
<path fill="none" stroke="#191970" d="M304.0344,-134.2967C308.583,-124.4658 314.5346,-111.6026 319.3688,-101.1545"/>
<polygon fill="#191970" stroke="#191970" points="322.5563,-102.6003 323.579,-92.055 316.2033,-99.6609 322.5563,-102.6003"/>
</g>
<!-- Node1&#45;&gt;Node6 -->
<g id="edge6" class="edge">
<title>Node1&#45;&gt;Node6</title>
<path fill="none" stroke="#191970" d="M251.4428,-134.4639C215.5879,-122.63 166.1887,-106.3258 132.3407,-95.1543"/>
<polygon fill="#191970" stroke="#191970" points="133.3927,-91.8159 122.7996,-92.0053 131.1988,-98.4632 133.3927,-91.8159"/>
</g>
<!-- Node6&#45;&gt;Node2 -->
<g id="edge7" class="edge">
<title>Node6&#45;&gt;Node2</title>
<path fill="none" stroke="#191970" d="M111.4796,-72.9005C131.954,-61.6564 166.0772,-42.9166 189.7393,-29.9219"/>
<polygon fill="#191970" stroke="#191970" points="191.4724,-32.9632 198.5528,-25.0817 188.1028,-26.8276 191.4724,-32.9632"/>
</g>
<!-- Node8 -->
<g id="node9" class="node">
<title>Node8</title>
<polygon fill="none" stroke="#bfbfbf" points="1676,-73 1676,-92 1784,-92 1784,-73 1676,-73"/>
<text text-anchor="middle" x="1730" y="-80" font-family="Helvetica,sans-Serif" font-size="10.00" fill="#000000">fairlogger/Logger.h</text>
</g>
<!-- Node7&#45;&gt;Node8 -->
<g id="edge9" class="edge">
<title>Node7&#45;&gt;Node8</title>
<path fill="none" stroke="#191970" d="M1028.301,-139.9308C1038.195,-137.6442 1048.9557,-135.4487 1059,-134 1326.9231,-95.3573 1399.3519,-138.5033 1667,-98 1673.2854,-97.0488 1679.8613,-95.7637 1686.2943,-94.3381"/>
<polygon fill="#191970" stroke="#191970" points="1687.2863,-97.7005 1696.2232,-92.0101 1685.6882,-90.8854 1687.2863,-97.7005"/>
</g>
<!-- Node13&#45;&gt;Node2 -->
<g id="edge20" class="edge">
<title>Node13&#45;&gt;Node2</title>
<path fill="none" stroke="#191970" d="M781.4602,-144.7284C687.3687,-137.3465 522.1763,-121.511 467,-98 446.6301,-89.3202 447.8898,-76.7298 428,-67 371.776,-39.4961 299.8006,-26.041 255.8373,-19.9579"/>
<polygon fill="#191970" stroke="#191970" points="256.1992,-16.4754 245.8265,-18.6336 255.2811,-23.4149 256.1992,-16.4754"/>
</g>
<!-- Node13&#45;&gt;Node4 -->
<g id="edge22" class="edge">
<title>Node13&#45;&gt;Node4</title>
<path fill="none" stroke="#191970" d="M781.1733,-146.3869C698.1805,-141.3712 553.91,-128.7304 434,-98 431.221,-97.2878 428.3742,-96.428 425.5462,-95.4828"/>
<polygon fill="#191970" stroke="#191970" points="426.7235,-92.1867 416.1298,-92.0311 424.3143,-98.759 426.7235,-92.1867"/>
</g>
<!-- Node14 -->
<g id="node15" class="node">
<title>Node14</title>
<polygon fill="none" stroke="#bfbfbf" points="476,-67.5 476,-97.5 640,-97.5 640,-67.5 476,-67.5"/>
<text text-anchor="start" x="484" y="-85.5" font-family="Helvetica,sans-Serif" font-size="10.00" fill="#000000">Math/GenVector/Displacement</text>
<text text-anchor="middle" x="558" y="-74.5" font-family="Helvetica,sans-Serif" font-size="10.00" fill="#000000">Vector3D.h</text>
</g>
<!-- Node13&#45;&gt;Node14 -->
<g id="edge15" class="edge">
<title>Node13&#45;&gt;Node14</title>
<path fill="none" stroke="#191970" d="M807.6158,-139.9717C762.3198,-129.5427 688.7532,-112.6047 633.1927,-99.8124"/>
<polygon fill="#191970" stroke="#191970" points="633.92,-96.3884 623.3896,-97.5553 632.3494,-103.2099 633.92,-96.3884"/>
</g>
<!-- Node15 -->
<g id="node16" class="node">
<title>Node15</title>
<polygon fill="none" stroke="#bfbfbf" points="658.5,-73 658.5,-92 847.5,-92 847.5,-73 658.5,-73"/>
<text text-anchor="middle" x="753" y="-80" font-family="Helvetica,sans-Serif" font-size="10.00" fill="#000000">Math/GenVector/PositionVector3D.h</text>
</g>
<!-- Node13&#45;&gt;Node15 -->
<g id="edge16" class="edge">
<title>Node13&#45;&gt;Node15</title>
<path fill="none" stroke="#191970" d="M835.2455,-139.9005C819.5623,-128.9549 793.7017,-110.9064 775.1642,-97.9688"/>
<polygon fill="#191970" stroke="#191970" points="776.9324,-94.9347 766.7289,-92.0817 772.9262,-100.675 776.9324,-94.9347"/>
</g>
<!-- Node16 -->
<g id="node17" class="node">
<title>Node16</title>
<polygon fill="none" stroke="#bfbfbf" points="866,-73 866,-92 1026,-92 1026,-73 866,-73"/>
<text text-anchor="middle" x="946" y="-80" font-family="Helvetica,sans-Serif" font-size="10.00" fill="#000000">Math/GenVector/Rotation3D.h</text>
</g>
<!-- Node13&#45;&gt;Node16 -->
<g id="edge17" class="edge">
<title>Node13&#45;&gt;Node16</title>
<path fill="none" stroke="#191970" d="M862.8977,-139.9005C878.8164,-128.9052 905.1121,-110.7422 923.8599,-97.7927"/>
<polygon fill="#191970" stroke="#191970" points="925.8892,-100.6448 932.128,-92.0817 921.9108,-94.8852 925.8892,-100.6448"/>
</g>
<!-- Node17 -->
<g id="node18" class="node">
<title>Node17</title>
<polygon fill="none" stroke="#bfbfbf" points="1044,-73 1044,-92 1212,-92 1212,-73 1044,-73"/>
<text text-anchor="middle" x="1128" y="-80" font-family="Helvetica,sans-Serif" font-size="10.00" fill="#000000">Math/GenVector/Transform3D.h</text>
</g>
<!-- Node13&#45;&gt;Node17 -->
<g id="edge18" class="edge">
<title>Node13&#45;&gt;Node17</title>
<path fill="none" stroke="#191970" d="M888.6776,-139.9717C938.5307,-127.9998 1024.102,-107.4504 1078.2736,-94.4415"/>
<polygon fill="#191970" stroke="#191970" points="1079.1013,-97.8423 1088.0076,-92.1039 1077.4667,-91.0358 1079.1013,-97.8423"/>
</g>
<!-- Node18 -->
<g id="node19" class="node">
<title>Node18</title>
<polygon fill="none" stroke="#bfbfbf" points="1230.5,-73 1230.5,-92 1403.5,-92 1403.5,-73 1230.5,-73"/>
<text text-anchor="middle" x="1317" y="-80" font-family="Helvetica,sans-Serif" font-size="10.00" fill="#000000">Math/GenVector/Translation3D.h</text>
</g>
<!-- Node13&#45;&gt;Node18 -->
<g id="edge19" class="edge">
<title>Node13&#45;&gt;Node18</title>
<path fill="none" stroke="#191970" d="M893.2756,-139.9791C903.9611,-137.8499 915.3651,-135.7167 926,-134 1056.3959,-112.9516 1090.2225,-116.5301 1221,-98 1230.4906,-96.6553 1240.4937,-95.1446 1250.3149,-93.6077"/>
<polygon fill="#191970" stroke="#191970" points="1251.1251,-97.0231 1260.4549,-92.0025 1250.0306,-90.1092 1251.1251,-97.0231"/>
</g>
<!-- Node19 -->
<g id="node20" class="node">
<title>Node19</title>
<polygon fill="none" stroke="#bfbfbf" points="1422,-73 1422,-92 1504,-92 1504,-73 1422,-73"/>
<text text-anchor="middle" x="1463" y="-80" font-family="Helvetica,sans-Serif" font-size="10.00" fill="#000000">TGeoMatrix.h</text>
</g>
<!-- Node13&#45;&gt;Node19 -->
<g id="edge21" class="edge">
<title>Node13&#45;&gt;Node19</title>
<path fill="none" stroke="#191970" d="M891.6037,-139.9371C902.7506,-137.7066 914.7868,-135.5369 926,-134 1141.0246,-104.5277 1199.7566,-138.3914 1413,-98 1417.4395,-97.1591 1422.0406,-96.0602 1426.573,-94.8352"/>
<polygon fill="#191970" stroke="#191970" points="1427.6737,-98.1601 1436.296,-92.0033 1425.7162,-91.4393 1427.6737,-98.1601"/>
</g>
<!-- Node20 -->
<g id="node21" class="node">
<title>Node20</title>
<g id="a_node21"><a xlink:href="../../d2/dd0/Cartesian2D_8h.html" target="_top" xlink:title="MathUtils/Cartesian2D.h">
<polygon fill="none" stroke="#000000" points="1522.5,-73 1522.5,-92 1657.5,-92 1657.5,-73 1522.5,-73"/>
<text text-anchor="middle" x="1590" y="-80" font-family="Helvetica,sans-Serif" font-size="10.00" fill="#000000">MathUtils/Cartesian2D.h</text>
</a>
</g>
</g>
<!-- Node13&#45;&gt;Node20 -->
<g id="edge23" class="edge">
<title>Node13&#45;&gt;Node20</title>
<path fill="none" stroke="#191970" d="M891.1883,-139.9214C902.4476,-137.6633 914.6422,-135.4843 926,-134 1185.1753,-100.1298 1253.8247,-131.8702 1513,-98 1521.0747,-96.9448 1529.5723,-95.5384 1537.8561,-94.0021"/>
<polygon fill="#191970" stroke="#191970" points="1538.6572,-97.4121 1547.8117,-92.0786 1537.3293,-90.5392 1538.6572,-97.4121"/>
</g>
<!-- Node21 -->
<g id="node22" class="node">
<title>Node21</title>
<polygon fill="none" stroke="#bfbfbf" points="1410,-.5 1410,-30.5 1574,-30.5 1574,-.5 1410,-.5"/>
<text text-anchor="start" x="1418" y="-18.5" font-family="Helvetica,sans-Serif" font-size="10.00" fill="#000000">Math/GenVector/Displacement</text>
<text text-anchor="middle" x="1492" y="-7.5" font-family="Helvetica,sans-Serif" font-size="10.00" fill="#000000">Vector2D.h</text>
</g>
<!-- Node20&#45;&gt;Node21 -->
<g id="edge24" class="edge">
<title>Node20&#45;&gt;Node21</title>
<path fill="none" stroke="#191970" d="M1575.959,-72.9005C1562.0412,-63.3853 1540.272,-48.5023 1522.388,-36.2755"/>
<polygon fill="#191970" stroke="#191970" points="1524.2026,-33.2763 1513.9721,-30.5218 1520.2519,-39.0549 1524.2026,-33.2763"/>
</g>
<!-- Node22 -->
<g id="node23" class="node">
<title>Node22</title>
<polygon fill="none" stroke="#bfbfbf" points="1592.5,-6 1592.5,-25 1781.5,-25 1781.5,-6 1592.5,-6"/>
<text text-anchor="middle" x="1687" y="-13" font-family="Helvetica,sans-Serif" font-size="10.00" fill="#000000">Math/GenVector/PositionVector2D.h</text>
</g>
<!-- Node20&#45;&gt;Node22 -->
<g id="edge25" class="edge">
<title>Node20&#45;&gt;Node22</title>
<path fill="none" stroke="#191970" d="M1603.8977,-72.9005C1619.8164,-61.9052 1646.1121,-43.7422 1664.8599,-30.7927"/>
<polygon fill="#191970" stroke="#191970" points="1666.8892,-33.6448 1673.128,-25.0817 1662.9108,-27.8852 1666.8892,-33.6448"/>
</g>
</g>
</svg>
