<?xml version="1.0" encoding="UTF-8" standalone="no"?>
<!DOCTYPE svg PUBLIC "-//W3C//DTD SVG 1.1//EN"
 "http://www.w3.org/Graphics/SVG/1.1/DTD/svg11.dtd">
<!-- Generated by graphviz version 2.40.1 (20161225.0304)
 -->
<!-- Title: GPUCA_NAMESPACE::gpu::GPUTPCCompressionGatherKernels::GPUSharedMemory Pages: 1 -->
<!--zoomable 419 -->
<svg id="main" version="1.1" xmlns="http://www.w3.org/2000/svg" xmlns:xlink="http://www.w3.org/1999/xlink" xml:space="preserve" onload="init(evt)">
<style type="text/css"><![CDATA[
.edge:hover path { stroke: red; }
.edge:hover polygon { stroke: red; fill: red; }
]]></style>
<script type="text/javascript"><![CDATA[
var edges = document.getElementsByTagName('g');
if (edges && edges.length) {
  for (var i=0;i<edges.length;i++) {
    if (edges[i].id.substr(0,4)=='edge') {
      edges[i].setAttribute('class','edge');
    }
  }
}
]]></script>
        <defs>
                <circle id="rim" cx="0" cy="0" r="7"/>
                <circle id="rim2" cx="0" cy="0" r="3.5"/>
                <g id="zoomPlus">
                        <use xlink:href="#rim" fill="#404040">
                                <set attributeName="fill" to="#808080" begin="zoomplus.mouseover" end="zoomplus.mouseout"/>
                        </use>
                        <path d="M-4,0h8M0,-4v8" fill="none" stroke="white" stroke-width="1.5" pointer-events="none"/>
                </g>
                <g id="zoomMin">
                        <use xlink:href="#rim" fill="#404040">
                                <set attributeName="fill" to="#808080" begin="zoomminus.mouseover" end="zoomminus.mouseout"/>
                        </use>
                        <path d="M-4,0h8" fill="none" stroke="white" stroke-width="1.5" pointer-events="none"/>
                </g>
                <g id="dirArrow">
                        <path fill="none" stroke="white" stroke-width="1.5" d="M0,-3.0v7 M-2.5,-0.5L0,-3.0L2.5,-0.5"/>
                </g>
               <g id="resetDef">
                       <use xlink:href="#rim2" fill="#404040">
                               <set attributeName="fill" to="#808080" begin="reset.mouseover" end="reset.mouseout"/>
                       </use>
               </g>
        </defs>

<script type="text/javascript">
var viewWidth = 687;
var viewHeight = 419;
var sectionId = 'dynsection-1';
</script>
<script xlink:href="../../svgpan.js"/>
<svg id="graph" class="graph">
<g id="viewport">
<title>GPUCA_NAMESPACE::gpu::GPUTPCCompressionGatherKernels::GPUSharedMemory</title>
<!-- Node3 -->
<g id="node1" class="node">
<title>Node3</title>
<polygon fill="#bfbfbf" stroke="#000000" points="355,-.5 355,-79.5 550,-79.5 550,-.5 355,-.5"/>
<text text-anchor="start" x="363" y="-67.5" font-family="Helvetica,sans-Serif" font-size="10.00" fill="#000000">GPUCA_NAMESPACE::gpu</text>
<text text-anchor="start" x="363" y="-56.5" font-family="Helvetica,sans-Serif" font-size="10.00" fill="#000000">::GPUTPCCompressionGatherKernels</text>
<text text-anchor="middle" x="452.5" y="-45.5" font-family="Helvetica,sans-Serif" font-size="10.00" fill="#000000">::GPUSharedMemory</text>
<polyline fill="none" stroke="#000000" points="355,-38.5 550,-38.5 "/>
<text text-anchor="middle" x="452.5" y="-26.5" font-family="Helvetica,sans-Serif" font-size="10.00" fill="#000000"> </text>
<polyline fill="none" stroke="#000000" points="355,-19.5 550,-19.5 "/>
<text text-anchor="start" x="363" y="-7.5" font-family="Helvetica,sans-Serif" font-size="10.00" fill="#000000">+ GPUdi()</text>
</g>
<!-- Node4 -->
<g id="node2" class="node">
<title>Node4</title>
<g id="a_node2"><a xlink:href="../../dd/deb/structGPUCA__NAMESPACE_1_1gpu_1_1GPUKernelTemplate_1_1GPUSharedMemoryScan64.html" target="_top" xlink:title="{GPUCA_NAMESPACE::gpu\l::GPUKernelTemplate::\lGPUSharedMemoryScan64\l\&lt; unsigned int, GPUCA_GET\l_THREAD_COUNT(GPUCA_LB_COMPRESSION\l_GATHER)\&gt;\n||}">
<polygon fill="none" stroke="#000000" points="0,-127.5 0,-239.5 235,-239.5 235,-127.5 0,-127.5"/>
<text text-anchor="start" x="8" y="-227.5" font-family="Helvetica,sans-Serif" font-size="10.00" fill="#000000">GPUCA_NAMESPACE::gpu</text>
<text text-anchor="start" x="8" y="-216.5" font-family="Helvetica,sans-Serif" font-size="10.00" fill="#000000">::GPUKernelTemplate::</text>
<text text-anchor="start" x="8" y="-205.5" font-family="Helvetica,sans-Serif" font-size="10.00" fill="#000000">GPUSharedMemoryScan64</text>
<text text-anchor="start" x="8" y="-194.5" font-family="Helvetica,sans-Serif" font-size="10.00" fill="#000000">&lt; unsigned int, GPUCA_GET</text>
<text text-anchor="start" x="8" y="-183.5" font-family="Helvetica,sans-Serif" font-size="10.00" fill="#000000">_THREAD_COUNT(GPUCA_LB_COMPRESSION</text>
<text text-anchor="middle" x="117.5" y="-172.5" font-family="Helvetica,sans-Serif" font-size="10.00" fill="#000000">_GATHER)&gt;</text>
<polyline fill="none" stroke="#000000" points="0,-165.5 235,-165.5 "/>
<text text-anchor="middle" x="117.5" y="-153.5" font-family="Helvetica,sans-Serif" font-size="10.00" fill="#000000"> </text>
<polyline fill="none" stroke="#000000" points="0,-146.5 235,-146.5 "/>
<text text-anchor="middle" x="117.5" y="-134.5" font-family="Helvetica,sans-Serif" font-size="10.00" fill="#000000"> </text>
</a>
</g>
</g>
<!-- Node4&#45;&gt;Node3 -->
<g id="edge1" class="edge">
<title>Node4&#45;&gt;Node3</title>
<path fill="none" stroke="#191970" d="M244.5778,-126.5531C285.7798,-108.7991 323.0479,-93.1853 356.0238,-79.5206"/>
<polygon fill="none" stroke="#191970" points="242.9558,-123.4411 235.1621,-130.6181 245.7304,-129.8677 242.9558,-123.4411"/>
</g>
<!-- Node5 -->
<g id="node3" class="node">
<title>Node5</title>
<g id="a_node3"><a xlink:href="../../dd/deb/structGPUCA__NAMESPACE_1_1gpu_1_1GPUKernelTemplate_1_1GPUSharedMemoryScan64.html" target="_top" xlink:title="{GPUCA_NAMESPACE::gpu\l::GPUKernelTemplate::\lGPUSharedMemoryScan64\l\&lt; T, I \&gt;\n||}">
<polygon fill="none" stroke="#000000" points="44.5,-320.5 44.5,-410.5 190.5,-410.5 190.5,-320.5 44.5,-320.5"/>
<text text-anchor="start" x="52.5" y="-398.5" font-family="Helvetica,sans-Serif" font-size="10.00" fill="#000000">GPUCA_NAMESPACE::gpu</text>
<text text-anchor="start" x="52.5" y="-387.5" font-family="Helvetica,sans-Serif" font-size="10.00" fill="#000000">::GPUKernelTemplate::</text>
<text text-anchor="start" x="52.5" y="-376.5" font-family="Helvetica,sans-Serif" font-size="10.00" fill="#000000">GPUSharedMemoryScan64</text>
<text text-anchor="middle" x="117.5" y="-365.5" font-family="Helvetica,sans-Serif" font-size="10.00" fill="#000000">&lt; T, I &gt;</text>
<polyline fill="none" stroke="#000000" points="44.5,-358.5 190.5,-358.5 "/>
<text text-anchor="middle" x="117.5" y="-346.5" font-family="Helvetica,sans-Serif" font-size="10.00" fill="#000000"> </text>
<polyline fill="none" stroke="#000000" points="44.5,-339.5 190.5,-339.5 "/>
<text text-anchor="middle" x="117.5" y="-327.5" font-family="Helvetica,sans-Serif" font-size="10.00" fill="#000000"> </text>
</a>
</g>
</g>
<!-- Node5&#45;&gt;Node4 -->
<g id="edge2" class="edge">
<title>Node5&#45;&gt;Node4</title>
<path fill="none" stroke="#ffa500" d="M117.5,-309.7658C117.5,-287.5543 117.5,-262.0266 117.5,-239.7628"/>
<polygon fill="#ffa500" stroke="#ffa500" points="114.0001,-310.0432 117.5,-320.0432 121.0001,-310.0432 114.0001,-310.0432"/>
<text text-anchor="start" x="117.5" y="-288.5" font-family="Helvetica,sans-Serif" font-size="10.00" fill="#000000"> &lt; unsigned int, GPUCA</text>
<text text-anchor="start" x="117.5" y="-277.5" font-family="Helvetica,sans-Serif" font-size="10.00" fill="#000000">_GET_THREAD_COUNT(GPUCA</text>
<text text-anchor="middle" x="193" y="-266.5" font-family="Helvetica,sans-Serif" font-size="10.00" fill="#000000">_LB_COMPRESSION_GATHER)&gt;</text>
</g>
<!-- Node6 -->
<g id="node4" class="node">
<title>Node6</title>
<polygon fill="none" stroke="#bfbfbf" points="253,-155 253,-212 366,-212 366,-155 253,-155"/>
<text text-anchor="middle" x="309.5" y="-200" font-family="Helvetica,sans-Serif" font-size="10.00" fill="#000000">anonymous:+@254</text>
<polyline fill="none" stroke="#bfbfbf" points="253,-193 366,-193 "/>
<text text-anchor="middle" x="309.5" y="-181" font-family="Helvetica,sans-Serif" font-size="10.00" fill="#000000"> </text>
<polyline fill="none" stroke="#bfbfbf" points="253,-174 366,-174 "/>
<text text-anchor="middle" x="309.5" y="-162" font-family="Helvetica,sans-Serif" font-size="10.00" fill="#000000"> </text>
</g>
<!-- Node6&#45;&gt;Node3 -->
<g id="edge3" class="edge">
<title>Node6&#45;&gt;Node3</title>
<path fill="none" stroke="#404040" d="M338.0945,-154.8055C357.0905,-135.7431 382.4982,-110.2466 404.5442,-88.1235"/>
<polygon fill="none" stroke="#404040" points="404.6526,-88.0147 406.0544,-80.9412 413.1231,-79.5146 411.7212,-86.5882 404.6526,-88.0147"/>
<text text-anchor="middle" x="414.5" y="-101" font-family="Helvetica,sans-Serif" font-size="10.00" fill="#000000"> +@254</text>
</g>
<!-- Node7 -->
<g id="node5" class="node">
<title>Node7</title>
<polygon fill="none" stroke="#bfbfbf" points="384,-155 384,-212 521,-212 521,-155 384,-155"/>
<text text-anchor="middle" x="452.5" y="-200" font-family="Helvetica,sans-Serif" font-size="10.00" fill="#000000">anonymous:+unbuffered</text>
<polyline fill="none" stroke="#bfbfbf" points="384,-193 521,-193 "/>
<text text-anchor="middle" x="452.5" y="-181" font-family="Helvetica,sans-Serif" font-size="10.00" fill="#000000"> </text>
<polyline fill="none" stroke="#bfbfbf" points="384,-174 521,-174 "/>
<text text-anchor="middle" x="452.5" y="-162" font-family="Helvetica,sans-Serif" font-size="10.00" fill="#000000"> </text>
</g>
<!-- Node7&#45;&gt;Node3 -->
<g id="edge4" class="edge">
<title>Node7&#45;&gt;Node3</title>
<path fill="none" stroke="#404040" d="M452.5,-154.8055C452.5,-136.7553 452.5,-112.9361 452.5,-91.6746"/>
<polygon fill="none" stroke="#404040" points="452.5001,-91.5146 448.5,-85.5147 452.5,-79.5146 456.5,-85.5146 452.5001,-91.5146"/>
<text text-anchor="middle" x="484.5" y="-101" font-family="Helvetica,sans-Serif" font-size="10.00" fill="#000000"> +unbuffered</text>
</g>
<!-- Node8 -->
<g id="node6" class="node">
<title>Node8</title>
<g id="a_node6"><a xlink:href="../../da/d09/structuint4.html" target="_top" xlink:title="{uint4\n||}">
<polygon fill="none" stroke="#000000" points="638,-155 638,-212 679,-212 679,-155 638,-155"/>
<text text-anchor="middle" x="658.5" y="-200" font-family="Helvetica,sans-Serif" font-size="10.00" fill="#000000">uint4</text>
<polyline fill="none" stroke="#000000" points="638,-193 679,-193 "/>
<text text-anchor="middle" x="658.5" y="-181" font-family="Helvetica,sans-Serif" font-size="10.00" fill="#000000"> </text>
<polyline fill="none" stroke="#000000" points="638,-174 679,-174 "/>
<text text-anchor="middle" x="658.5" y="-162" font-family="Helvetica,sans-Serif" font-size="10.00" fill="#000000"> </text>
</a>
</g>
</g>
<!-- Node8&#45;&gt;Node3 -->
<g id="edge5" class="edge">
<title>Node8&#45;&gt;Node3</title>
<path fill="none" stroke="#404040" d="M644.4753,-154.7163C638.8664,-145.1273 631.7606,-134.89 623.5,-127 605.4912,-109.7991 583.416,-95.2246 561.1856,-83.2097"/>
<polygon fill="none" stroke="#404040" points="560.9156,-83.0688 553.7457,-83.8389 550.2772,-77.5168 557.4471,-76.7467 560.9156,-83.0688"/>
<text text-anchor="middle" x="623.5" y="-101" font-family="Helvetica,sans-Serif" font-size="10.00" fill="#000000"> +buf128</text>
</g>
<!-- Node9 -->
<g id="node7" class="node">
<title>Node9</title>
<polygon fill="none" stroke="#bfbfbf" points="560,-337 560,-394 621,-394 621,-337 560,-337"/>
<text text-anchor="middle" x="590.5" y="-382" font-family="Helvetica,sans-Serif" font-size="10.00" fill="#000000">unsigned</text>
<polyline fill="none" stroke="#bfbfbf" points="560,-375 621,-375 "/>
<text text-anchor="middle" x="590.5" y="-363" font-family="Helvetica,sans-Serif" font-size="10.00" fill="#000000"> </text>
<polyline fill="none" stroke="#bfbfbf" points="560,-356 621,-356 "/>
<text text-anchor="middle" x="590.5" y="-344" font-family="Helvetica,sans-Serif" font-size="10.00" fill="#000000"> </text>
</g>
<!-- Node9&#45;&gt;Node3 -->
<g id="edge7" class="edge">
<title>Node9&#45;&gt;Node3</title>
<path fill="none" stroke="#404040" d="M585.3763,-336.6395C574.2255,-276.0003 546.6542,-137.6806 520.5,-98 518.4319,-94.8623 516.1465,-91.7992 513.7034,-88.8247"/>
<polygon fill="none" stroke="#404040" points="513.4664,-88.5614 506.4791,-86.7787 505.4373,-79.6432 512.4246,-81.4259 513.4664,-88.5614"/>
<text text-anchor="middle" x="596.5" y="-203" font-family="Helvetica,sans-Serif" font-size="10.00" fill="#000000"> +sizes</text>
<text text-anchor="middle" x="596.5" y="-192" font-family="Helvetica,sans-Serif" font-size="10.00" fill="#000000">+buf64</text>
<text text-anchor="middle" x="596.5" y="-181" font-family="Helvetica,sans-Serif" font-size="10.00" fill="#000000">+buf32</text>
<text text-anchor="middle" x="596.5" y="-170" font-family="Helvetica,sans-Serif" font-size="10.00" fill="#000000">+srcOffsets</text>
<text text-anchor="middle" x="596.5" y="-159" font-family="Helvetica,sans-Serif" font-size="10.00" fill="#000000">+warpOffset</text>
</g>
<!-- Node9&#45;&gt;Node8 -->
<g id="edge6" class="edge">
<title>Node9&#45;&gt;Node8</title>
<path fill="none" stroke="#404040" d="M601.2748,-336.6616C612.6647,-306.1768 630.7156,-257.864 643.4949,-223.6608"/>
<polygon fill="none" stroke="#404040" points="643.5756,-223.4445 641.9286,-216.424 647.7756,-212.2035 649.4226,-219.224 643.5756,-223.4445"/>
<text text-anchor="middle" x="640.5" y="-294" font-family="Helvetica,sans-Serif" font-size="10.00" fill="#000000"> +w</text>
<text text-anchor="middle" x="640.5" y="-283" font-family="Helvetica,sans-Serif" font-size="10.00" fill="#000000">+x</text>
<text text-anchor="middle" x="640.5" y="-272" font-family="Helvetica,sans-Serif" font-size="10.00" fill="#000000">+y</text>
<text text-anchor="middle" x="640.5" y="-261" font-family="Helvetica,sans-Serif" font-size="10.00" fill="#000000">+z</text>
</g>
</g>
</svg>
        <g id="navigator" transform="translate(0 0)" fill="#404254">
                <rect fill="#f2f5e9" fill-opacity="0.5" stroke="#606060" stroke-width=".5" x="0" y="0" width="60" height="60"/>
                <use id="zoomplus" xlink:href="#zoomPlus" x="17" y="9" onmousedown="handleZoom(evt,'in')"/>
                <use id="zoomminus" xlink:href="#zoomMin" x="42" y="9" onmousedown="handleZoom(evt,'out')"/>
                <use id="reset" xlink:href="#resetDef" x="30" y="36" onmousedown="handleReset()"/>
                <g id="arrowUp" xlink:href="#dirArrow" transform="translate(30 24)" onmousedown="handlePan(0,-1)">
                  <use xlink:href="#rim" fill="#404040">
                        <set attributeName="fill" to="#808080" begin="arrowUp.mouseover" end="arrowUp.mouseout"/>
                  </use>
                  <path fill="none" stroke="white" stroke-width="1.5" d="M0,-3.0v7 M-2.5,-0.5L0,-3.0L2.5,-0.5"/>
                </g>
                <g id="arrowRight" xlink:href="#dirArrow" transform="rotate(90) translate(36 -43)" onmousedown="handlePan(1,0)">
                  <use xlink:href="#rim" fill="#404040">
                        <set attributeName="fill" to="#808080" begin="arrowRight.mouseover" end="arrowRight.mouseout"/>
                  </use>
                  <path fill="none" stroke="white" stroke-width="1.5" d="M0,-3.0v7 M-2.5,-0.5L0,-3.0L2.5,-0.5"/>
                </g>
                <g id="arrowDown" xlink:href="#dirArrow" transform="rotate(180) translate(-30 -48)" onmousedown="handlePan(0,1)">
                  <use xlink:href="#rim" fill="#404040">
                        <set attributeName="fill" to="#808080" begin="arrowDown.mouseover" end="arrowDown.mouseout"/>
                  </use>
                  <path fill="none" stroke="white" stroke-width="1.5" d="M0,-3.0v7 M-2.5,-0.5L0,-3.0L2.5,-0.5"/>
                </g>
                <g id="arrowLeft" xlink:href="#dirArrow" transform="rotate(270) translate(-36 17)" onmousedown="handlePan(-1,0)">
                  <use xlink:href="#rim" fill="#404040">
                        <set attributeName="fill" to="#808080" begin="arrowLeft.mouseover" end="arrowLeft.mouseout"/>
                  </use>
                  <path fill="none" stroke="white" stroke-width="1.5" d="M0,-3.0v7 M-2.5,-0.5L0,-3.0L2.5,-0.5"/>
                </g>
        </g>
        <svg viewBox="0 0 15 15" width="100%" height="30px" preserveAspectRatio="xMaxYMin meet">
         <g id="arrow_out" transform="scale(0.3 0.3)">
          <a xlink:href="structGPUCA__NAMESPACE_1_1gpu_1_1GPUTPCCompressionGatherKernels_1_1GPUSharedMemory__coll__graph_org.svg" target="_base">
           <rect id="button" ry="5" rx="5" y="6" x="6" height="38" width="38"
                fill="#f2f5e9" fill-opacity="0.5" stroke="#606060" stroke-width="1.0"/>
           <path id="arrow"
             d="M 11.500037,31.436501 C 11.940474,20.09759 22.043105,11.32322 32.158766,21.979434 L 37.068811,17.246167 C 37.068811,17.246167 37.088388,32 37.088388,32 L 22.160133,31.978069 C 22.160133,31.978069 26.997745,27.140456 26.997745,27.140456 C 18.528582,18.264221 13.291696,25.230495 11.500037,31.436501 z"
             style="fill:#404040;"/>
          </a>
         </g>
        </svg>
</svg>
