<?xml version="1.0" encoding="UTF-8" standalone="no"?>
<!DOCTYPE svg PUBLIC "-//W3C//DTD SVG 1.1//EN"
 "http://www.w3.org/Graphics/SVG/1.1/DTD/svg11.dtd">
<!-- Generated by graphviz version 2.40.1 (20161225.0304)
 -->
<!-- Title: o2::itsmft::RUDecodeData Pages: 1 -->
<svg width="975pt" height="441pt"
 viewBox="0.00 0.00 974.50 441.00" xmlns="http://www.w3.org/2000/svg" xmlns:xlink="http://www.w3.org/1999/xlink">
<g id="graph0" class="graph" transform="scale(1 1) rotate(0) translate(4 437)">
<title>o2::itsmft::RUDecodeData</title>
<!-- Node1 -->
<g id="node1" class="node">
<title>Node1</title>
<polygon fill="#bfbfbf" stroke="#000000" points="380,-.5 380,-123.5 524,-123.5 524,-.5 380,-.5"/>
<text text-anchor="middle" x="452" y="-111.5" font-family="Helvetica,sans-Serif" font-size="10.00" fill="#000000">o2::itsmft::RUDecodeData</text>
<polyline fill="none" stroke="#000000" points="380,-104.5 524,-104.5 "/>
<text text-anchor="middle" x="452" y="-92.5" font-family="Helvetica,sans-Serif" font-size="10.00" fill="#000000"> </text>
<polyline fill="none" stroke="#000000" points="380,-85.5 524,-85.5 "/>
<text text-anchor="start" x="388" y="-73.5" font-family="Helvetica,sans-Serif" font-size="10.00" fill="#000000">+ RUDecodeData()</text>
<text text-anchor="start" x="388" y="-62.5" font-family="Helvetica,sans-Serif" font-size="10.00" fill="#000000">+ decodeROF()</text>
<text text-anchor="start" x="388" y="-51.5" font-family="Helvetica,sans-Serif" font-size="10.00" fill="#000000">+ clear()</text>
<text text-anchor="start" x="388" y="-40.5" font-family="Helvetica,sans-Serif" font-size="10.00" fill="#000000">+ setROFInfo()</text>
<text text-anchor="start" x="388" y="-29.5" font-family="Helvetica,sans-Serif" font-size="10.00" fill="#000000">+ decodeROF()</text>
<text text-anchor="start" x="388" y="-18.5" font-family="Helvetica,sans-Serif" font-size="10.00" fill="#000000">+ fillChipStatistics()</text>
<text text-anchor="start" x="388" y="-7.5" font-family="Helvetica,sans-Serif" font-size="10.00" fill="#000000">+ ClassDefNV()</text>
</g>
<!-- Node2 -->
<g id="node2" class="node">
<title>Node2</title>
<polygon fill="none" stroke="#bfbfbf" points="0,-237.5 0,-305.5 114,-305.5 114,-237.5 0,-237.5"/>
<text text-anchor="start" x="8" y="-293.5" font-family="Helvetica,sans-Serif" font-size="10.00" fill="#000000">array&lt; std::uint8_t,</text>
<text text-anchor="middle" x="57" y="-282.5" font-family="Helvetica,sans-Serif" font-size="10.00" fill="#000000"> MaxCablesPerRU &gt;</text>
<polyline fill="none" stroke="#bfbfbf" points="0,-275.5 114,-275.5 "/>
<text text-anchor="middle" x="57" y="-263.5" font-family="Helvetica,sans-Serif" font-size="10.00" fill="#000000"> </text>
<polyline fill="none" stroke="#bfbfbf" points="0,-256.5 114,-256.5 "/>
<text text-anchor="middle" x="57" y="-244.5" font-family="Helvetica,sans-Serif" font-size="10.00" fill="#000000"> </text>
</g>
<!-- Node2&#45;&gt;Node1 -->
<g id="edge1" class="edge">
<title>Node2&#45;&gt;Node1</title>
<path fill="none" stroke="#404040" d="M73.2296,-237.4463C89.046,-207.879 115.8368,-166.1261 151,-142 215.6094,-97.6705 303.5202,-77.8934 367.6504,-69.0766"/>
<polygon fill="none" stroke="#404040" points="367.841,-69.052 373.2752,-64.3118 379.7408,-67.5049 374.3066,-72.2451 367.841,-69.052"/>
<text text-anchor="middle" x="184" y="-183.5" font-family="Helvetica,sans-Serif" font-size="10.00" fill="#000000"> +cableHWID</text>
<text text-anchor="middle" x="184" y="-172.5" font-family="Helvetica,sans-Serif" font-size="10.00" fill="#000000">+cableLinkID</text>
</g>
<!-- Node3 -->
<g id="node3" class="node">
<title>Node3</title>
<polygon fill="none" stroke="#bfbfbf" points="132,-237.5 132,-305.5 238,-305.5 238,-237.5 132,-237.5"/>
<text text-anchor="start" x="140" y="-293.5" font-family="Helvetica,sans-Serif" font-size="10.00" fill="#000000">vector&lt; o2::itsmft</text>
<text text-anchor="middle" x="185" y="-282.5" font-family="Helvetica,sans-Serif" font-size="10.00" fill="#000000">::ChipPixelData &gt;</text>
<polyline fill="none" stroke="#bfbfbf" points="132,-275.5 238,-275.5 "/>
<text text-anchor="middle" x="185" y="-263.5" font-family="Helvetica,sans-Serif" font-size="10.00" fill="#000000"> </text>
<polyline fill="none" stroke="#bfbfbf" points="132,-256.5 238,-256.5 "/>
<text text-anchor="middle" x="185" y="-244.5" font-family="Helvetica,sans-Serif" font-size="10.00" fill="#000000"> </text>
</g>
<!-- Node3&#45;&gt;Node1 -->
<g id="edge2" class="edge">
<title>Node3&#45;&gt;Node1</title>
<path fill="none" stroke="#404040" d="M206.9427,-237.2515C226.3869,-208.957 256.9219,-169.1658 291,-142 314.1706,-123.5293 342.2978,-107.7559 368.5187,-95.2196"/>
<polygon fill="none" stroke="#404040" points="368.7425,-95.1153 372.4914,-88.9553 379.6195,-90.0466 375.8705,-96.2066 368.7425,-95.1153"/>
<text text-anchor="middle" x="321.5" y="-178" font-family="Helvetica,sans-Serif" font-size="10.00" fill="#000000"> +chipsData</text>
</g>
<!-- Node4 -->
<g id="node4" class="node">
<title>Node4</title>
<polygon fill="none" stroke="#bfbfbf" points="256,-237.5 256,-305.5 436,-305.5 436,-237.5 256,-237.5"/>
<text text-anchor="start" x="264" y="-293.5" font-family="Helvetica,sans-Serif" font-size="10.00" fill="#000000">array&lt; o2::itsmft::</text>
<text text-anchor="middle" x="346" y="-282.5" font-family="Helvetica,sans-Serif" font-size="10.00" fill="#000000">PayLoadCont, MaxCablesPerRU &gt;</text>
<polyline fill="none" stroke="#bfbfbf" points="256,-275.5 436,-275.5 "/>
<text text-anchor="middle" x="346" y="-263.5" font-family="Helvetica,sans-Serif" font-size="10.00" fill="#000000"> </text>
<polyline fill="none" stroke="#bfbfbf" points="256,-256.5 436,-256.5 "/>
<text text-anchor="middle" x="346" y="-244.5" font-family="Helvetica,sans-Serif" font-size="10.00" fill="#000000"> </text>
</g>
<!-- Node4&#45;&gt;Node1 -->
<g id="edge3" class="edge">
<title>Node4&#45;&gt;Node1</title>
<path fill="none" stroke="#404040" d="M351.5858,-237.2346C356.9625,-210.1964 366.7277,-172.1433 383,-142 384.4485,-139.3168 385.9998,-136.6447 387.6346,-133.9935"/>
<polygon fill="none" stroke="#404040" points="387.6944,-133.903 387.6666,-126.692 394.3123,-123.8928 394.3401,-131.1039 387.6944,-133.903"/>
<text text-anchor="middle" x="413.5" y="-178" font-family="Helvetica,sans-Serif" font-size="10.00" fill="#000000"> +cableData</text>
</g>
<!-- Node5 -->
<g id="node5" class="node">
<title>Node5</title>
<polygon fill="none" stroke="#bfbfbf" points="454.5,-243 454.5,-300 483.5,-300 483.5,-243 454.5,-243"/>
<text text-anchor="middle" x="469" y="-288" font-family="Helvetica,sans-Serif" font-size="10.00" fill="#000000">int</text>
<polyline fill="none" stroke="#bfbfbf" points="454.5,-281 483.5,-281 "/>
<text text-anchor="middle" x="469" y="-269" font-family="Helvetica,sans-Serif" font-size="10.00" fill="#000000"> </text>
<polyline fill="none" stroke="#bfbfbf" points="454.5,-262 483.5,-262 "/>
<text text-anchor="middle" x="469" y="-250" font-family="Helvetica,sans-Serif" font-size="10.00" fill="#000000"> </text>
</g>
<!-- Node5&#45;&gt;Node1 -->
<g id="edge4" class="edge">
<title>Node5&#45;&gt;Node1</title>
<path fill="none" stroke="#404040" d="M458.669,-242.9638C456.3415,-235.2852 454.2048,-226.9127 453,-219 448.9091,-192.1315 447.8533,-162.3758 448.0888,-136.058"/>
<polygon fill="none" stroke="#404040" points="448.0923,-135.8363 444.1922,-129.7709 448.2909,-123.8379 452.1911,-129.9033 448.0923,-135.8363"/>
<text text-anchor="middle" x="500.5" y="-211" font-family="Helvetica,sans-Serif" font-size="10.00" fill="#000000"> +MaxCablesPerRU</text>
<text text-anchor="middle" x="500.5" y="-200" font-family="Helvetica,sans-Serif" font-size="10.00" fill="#000000">+nChipsFired</text>
<text text-anchor="middle" x="500.5" y="-189" font-family="Helvetica,sans-Serif" font-size="10.00" fill="#000000">+lastChipChecked</text>
<text text-anchor="middle" x="500.5" y="-178" font-family="Helvetica,sans-Serif" font-size="10.00" fill="#000000">+MaxLinksPerRU</text>
<text text-anchor="middle" x="500.5" y="-167" font-family="Helvetica,sans-Serif" font-size="10.00" fill="#000000">+ruSWID</text>
<text text-anchor="middle" x="500.5" y="-156" font-family="Helvetica,sans-Serif" font-size="10.00" fill="#000000">+nCables</text>
<text text-anchor="middle" x="500.5" y="-145" font-family="Helvetica,sans-Serif" font-size="10.00" fill="#000000">+MaxChipsPerRU</text>
</g>
<!-- Node6 -->
<g id="node6" class="node">
<title>Node6</title>
<g id="a_node6"><a xlink:href="../../dd/d8d/structo2_1_1itsmft_1_1RUInfo.html" target="_top" xlink:title="{o2::itsmft::RUInfo\n||}">
<polygon fill="none" stroke="#000000" points="501.5,-243 501.5,-300 604.5,-300 604.5,-243 501.5,-243"/>
<text text-anchor="middle" x="553" y="-288" font-family="Helvetica,sans-Serif" font-size="10.00" fill="#000000">o2::itsmft::RUInfo</text>
<polyline fill="none" stroke="#000000" points="501.5,-281 604.5,-281 "/>
<text text-anchor="middle" x="553" y="-269" font-family="Helvetica,sans-Serif" font-size="10.00" fill="#000000"> </text>
<polyline fill="none" stroke="#000000" points="501.5,-262 604.5,-262 "/>
<text text-anchor="middle" x="553" y="-250" font-family="Helvetica,sans-Serif" font-size="10.00" fill="#000000"> </text>
</a>
</g>
</g>
<!-- Node6&#45;&gt;Node1 -->
<g id="edge5" class="edge">
<title>Node6&#45;&gt;Node1</title>
<path fill="none" stroke="#404040" d="M558.2983,-242.8592C561.9334,-215.4847 563.647,-173.795 548,-142 543.8913,-133.651 538.4646,-125.8541 532.2769,-118.6585"/>
<polygon fill="none" stroke="#404040" points="532.2618,-118.6422 525.2437,-116.9851 524.0741,-109.8694 531.0922,-111.5266 532.2618,-118.6422"/>
<text text-anchor="middle" x="580" y="-178" font-family="Helvetica,sans-Serif" font-size="10.00" fill="#000000"> +ruInfo</text>
</g>
<!-- Node7 -->
<g id="node7" class="node">
<title>Node7</title>
<polygon fill="none" stroke="#bfbfbf" points="423,-375.5 423,-432.5 479,-432.5 479,-375.5 423,-375.5"/>
<text text-anchor="middle" x="451" y="-420.5" font-family="Helvetica,sans-Serif" font-size="10.00" fill="#000000">uint16_t</text>
<polyline fill="none" stroke="#bfbfbf" points="423,-413.5 479,-413.5 "/>
<text text-anchor="middle" x="451" y="-401.5" font-family="Helvetica,sans-Serif" font-size="10.00" fill="#000000"> </text>
<polyline fill="none" stroke="#bfbfbf" points="423,-394.5 479,-394.5 "/>
<text text-anchor="middle" x="451" y="-382.5" font-family="Helvetica,sans-Serif" font-size="10.00" fill="#000000"> </text>
</g>
<!-- Node7&#45;&gt;Node6 -->
<g id="edge6" class="edge">
<title>Node7&#45;&gt;Node6</title>
<path fill="none" stroke="#404040" d="M452.5375,-375.1536C454.6333,-358.8715 459.3833,-338.8715 470,-324 472.1106,-321.0435 482.0135,-314.2377 494.2869,-306.473"/>
<polygon fill="none" stroke="#404040" points="494.3464,-306.436 497.327,-299.8696 504.5346,-300.0954 501.554,-306.6617 494.3464,-306.436"/>
<text text-anchor="middle" x="509.5" y="-349" font-family="Helvetica,sans-Serif" font-size="10.00" fill="#000000"> +firstChipIDSW</text>
<text text-anchor="middle" x="509.5" y="-338" font-family="Helvetica,sans-Serif" font-size="10.00" fill="#000000">+idHW</text>
<text text-anchor="middle" x="509.5" y="-327" font-family="Helvetica,sans-Serif" font-size="10.00" fill="#000000">+idSW</text>
</g>
<!-- Node8 -->
<g id="node8" class="node">
<title>Node8</title>
<polygon fill="none" stroke="#bfbfbf" points="528,-375.5 528,-432.5 578,-432.5 578,-375.5 528,-375.5"/>
<text text-anchor="middle" x="553" y="-420.5" font-family="Helvetica,sans-Serif" font-size="10.00" fill="#000000">uint8_t</text>
<polyline fill="none" stroke="#bfbfbf" points="528,-413.5 578,-413.5 "/>
<text text-anchor="middle" x="553" y="-401.5" font-family="Helvetica,sans-Serif" font-size="10.00" fill="#000000"> </text>
<polyline fill="none" stroke="#bfbfbf" points="528,-394.5 578,-394.5 "/>
<text text-anchor="middle" x="553" y="-382.5" font-family="Helvetica,sans-Serif" font-size="10.00" fill="#000000"> </text>
</g>
<!-- Node8&#45;&gt;Node6 -->
<g id="edge7" class="edge">
<title>Node8&#45;&gt;Node6</title>
<path fill="none" stroke="#404040" d="M553,-375.2495C553,-356.8447 553,-332.6825 553,-312.3067"/>
<polygon fill="none" stroke="#404040" points="553.0001,-312.1944 549,-306.1945 553,-300.1944 557,-306.1944 553.0001,-312.1944"/>
<text text-anchor="middle" x="577" y="-349" font-family="Helvetica,sans-Serif" font-size="10.00" fill="#000000"> +layer</text>
<text text-anchor="middle" x="577" y="-338" font-family="Helvetica,sans-Serif" font-size="10.00" fill="#000000">+ruType</text>
<text text-anchor="middle" x="577" y="-327" font-family="Helvetica,sans-Serif" font-size="10.00" fill="#000000">+nCables</text>
</g>
<!-- Node9 -->
<g id="node9" class="node">
<title>Node9</title>
<polygon fill="none" stroke="#bfbfbf" points="602.5,-375.5 602.5,-432.5 645.5,-432.5 645.5,-375.5 602.5,-375.5"/>
<text text-anchor="middle" x="624" y="-420.5" font-family="Helvetica,sans-Serif" font-size="10.00" fill="#000000">const</text>
<polyline fill="none" stroke="#bfbfbf" points="602.5,-413.5 645.5,-413.5 "/>
<text text-anchor="middle" x="624" y="-401.5" font-family="Helvetica,sans-Serif" font-size="10.00" fill="#000000"> </text>
<polyline fill="none" stroke="#bfbfbf" points="602.5,-394.5 645.5,-394.5 "/>
<text text-anchor="middle" x="624" y="-382.5" font-family="Helvetica,sans-Serif" font-size="10.00" fill="#000000"> </text>
</g>
<!-- Node9&#45;&gt;Node6 -->
<g id="edge8" class="edge">
<title>Node9&#45;&gt;Node6</title>
<path fill="none" stroke="#404040" d="M619.5924,-375.3192C616.3225,-359.4706 610.8547,-339.8431 602,-324 599.183,-318.9597 595.7816,-314.0248 592.0994,-309.3222"/>
<polygon fill="none" stroke="#404040" points="591.9943,-309.198 585.0653,-307.2006 584.2441,-300.0364 591.173,-302.0338 591.9943,-309.198"/>
<text text-anchor="middle" x="644.5" y="-343.5" font-family="Helvetica,sans-Serif" font-size="10.00" fill="#000000"> +DUMMY16</text>
<text text-anchor="middle" x="644.5" y="-332.5" font-family="Helvetica,sans-Serif" font-size="10.00" fill="#000000">+DUMMY8</text>
</g>
<!-- Node10 -->
<g id="node10" class="node">
<title>Node10</title>
<polygon fill="none" stroke="#bfbfbf" points="623,-237.5 623,-305.5 789,-305.5 789,-237.5 623,-237.5"/>
<text text-anchor="start" x="631" y="-293.5" font-family="Helvetica,sans-Serif" font-size="10.00" fill="#000000">array&lt; o2::itsmft::</text>
<text text-anchor="middle" x="706" y="-282.5" font-family="Helvetica,sans-Serif" font-size="10.00" fill="#000000">GBTLink *, MaxCablesPerRU &gt;</text>
<polyline fill="none" stroke="#bfbfbf" points="623,-275.5 789,-275.5 "/>
<text text-anchor="middle" x="706" y="-263.5" font-family="Helvetica,sans-Serif" font-size="10.00" fill="#000000"> </text>
<polyline fill="none" stroke="#bfbfbf" points="623,-256.5 789,-256.5 "/>
<text text-anchor="middle" x="706" y="-244.5" font-family="Helvetica,sans-Serif" font-size="10.00" fill="#000000"> </text>
</g>
<!-- Node10&#45;&gt;Node1 -->
<g id="edge9" class="edge">
<title>Node10&#45;&gt;Node1</title>
<path fill="none" stroke="#404040" d="M684.991,-237.4027C666.3449,-209.2004 636.9975,-169.4598 604,-142 583.4267,-124.8793 558.5954,-109.93 535.0208,-97.734"/>
<polygon fill="none" stroke="#404040" points="535.0121,-97.7297 527.8536,-98.5995 524.2974,-92.3263 531.4559,-91.4564 535.0121,-97.7297"/>
<text text-anchor="middle" x="707" y="-178" font-family="Helvetica,sans-Serif" font-size="10.00" fill="#000000"> +cableLinkPtr</text>
</g>
<!-- Node11 -->
<g id="node11" class="node">
<title>Node11</title>
<polygon fill="none" stroke="#bfbfbf" points="807.5,-243 807.5,-300 966.5,-300 966.5,-243 807.5,-243"/>
<text text-anchor="middle" x="887" y="-288" font-family="Helvetica,sans-Serif" font-size="10.00" fill="#000000">array&lt; int, MaxLinksPerRU &gt;</text>
<polyline fill="none" stroke="#bfbfbf" points="807.5,-281 966.5,-281 "/>
<text text-anchor="middle" x="887" y="-269" font-family="Helvetica,sans-Serif" font-size="10.00" fill="#000000"> </text>
<polyline fill="none" stroke="#bfbfbf" points="807.5,-262 966.5,-262 "/>
<text text-anchor="middle" x="887" y="-250" font-family="Helvetica,sans-Serif" font-size="10.00" fill="#000000"> </text>
</g>
<!-- Node11&#45;&gt;Node1 -->
<g id="edge10" class="edge">
<title>Node11&#45;&gt;Node1</title>
<path fill="none" stroke="#404040" d="M863.6887,-242.9952C838.0621,-213.4933 794.215,-168.1403 747,-142 681.0622,-105.4939 597.4852,-84.8706 536.1384,-73.7433"/>
<polygon fill="none" stroke="#404040" points="535.9963,-73.7184 529.3948,-76.6202 524.1772,-71.6425 530.7787,-68.7408 535.9963,-73.7184"/>
<text text-anchor="middle" x="858.5" y="-178" font-family="Helvetica,sans-Serif" font-size="10.00" fill="#000000"> +links</text>
</g>
</g>
</svg>
