<?xml version="1.0" encoding="UTF-8" standalone="no"?>
<!DOCTYPE svg PUBLIC "-//W3C//DTD SVG 1.1//EN"
 "http://www.w3.org/Graphics/SVG/1.1/DTD/svg11.dtd">
<!-- Generated by graphviz version 2.40.1 (20161225.0304)
 -->
<!-- Title: /home/travis/build/AliceO2Group/AliceO2/Detectors/FIT/FT0/reconstruction/src/CollisionTimeRecoTask.cxx Pages: 1 -->
<!--zoomable 419 -->
<svg id="main" version="1.1" xmlns="http://www.w3.org/2000/svg" xmlns:xlink="http://www.w3.org/1999/xlink" xml:space="preserve" onload="init(evt)">
<style type="text/css"><![CDATA[
.edge:hover path { stroke: red; }
.edge:hover polygon { stroke: red; fill: red; }
]]></style>
<script type="text/javascript"><![CDATA[
var edges = document.getElementsByTagName('g');
if (edges && edges.length) {
  for (var i=0;i<edges.length;i++) {
    if (edges[i].id.substr(0,4)=='edge') {
      edges[i].setAttribute('class','edge');
    }
  }
}
]]></script>
        <defs>
                <circle id="rim" cx="0" cy="0" r="7"/>
                <circle id="rim2" cx="0" cy="0" r="3.5"/>
                <g id="zoomPlus">
                        <use xlink:href="#rim" fill="#404040">
                                <set attributeName="fill" to="#808080" begin="zoomplus.mouseover" end="zoomplus.mouseout"/>
                        </use>
                        <path d="M-4,0h8M0,-4v8" fill="none" stroke="white" stroke-width="1.5" pointer-events="none"/>
                </g>
                <g id="zoomMin">
                        <use xlink:href="#rim" fill="#404040">
                                <set attributeName="fill" to="#808080" begin="zoomminus.mouseover" end="zoomminus.mouseout"/>
                        </use>
                        <path d="M-4,0h8" fill="none" stroke="white" stroke-width="1.5" pointer-events="none"/>
                </g>
                <g id="dirArrow">
                        <path fill="none" stroke="white" stroke-width="1.5" d="M0,-3.0v7 M-2.5,-0.5L0,-3.0L2.5,-0.5"/>
                </g>
               <g id="resetDef">
                       <use xlink:href="#rim2" fill="#404040">
                               <set attributeName="fill" to="#808080" begin="reset.mouseover" end="reset.mouseout"/>
                       </use>
               </g>
        </defs>

<script type="text/javascript">
var viewWidth = 1490;
var viewHeight = 419;
var sectionId = 'dynsection-0';
</script>
<script xlink:href="../../svgpan.js"/>
<svg id="graph" class="graph">
<g id="viewport">
<title>/home/travis/build/AliceO2Group/AliceO2/Detectors/FIT/FT0/reconstruction/src/CollisionTimeRecoTask.cxx</title>
<!-- Node0 -->
<g id="node1" class="node">
<title>Node0</title>
<polygon fill="#bfbfbf" stroke="#000000" points="893.5,-358.5 893.5,-410.5 1070.5,-410.5 1070.5,-358.5 893.5,-358.5"/>
<text text-anchor="start" x="901.5" y="-398.5" font-family="Helvetica,sans-Serif" font-size="10.00" fill="#000000">/home/travis/build</text>
<text text-anchor="start" x="901.5" y="-387.5" font-family="Helvetica,sans-Serif" font-size="10.00" fill="#000000">/AliceO2Group/AliceO2</text>
<text text-anchor="start" x="901.5" y="-376.5" font-family="Helvetica,sans-Serif" font-size="10.00" fill="#000000">/Detectors/FIT/FT0/reconstruction</text>
<text text-anchor="middle" x="982" y="-365.5" font-family="Helvetica,sans-Serif" font-size="10.00" fill="#000000">/src/CollisionTimeRecoTask.cxx</text>
</g>
<!-- Node1 -->
<g id="node2" class="node">
<title>Node1</title>
<g id="a_node2"><a xlink:href="../../d1/d6c/CollisionTimeRecoTask_8h.html" target="_top" xlink:title="Definition of the FDD reconstruction. ">
<polygon fill="none" stroke="#000000" points="429.5,-291.5 429.5,-321.5 580.5,-321.5 580.5,-291.5 429.5,-291.5"/>
<text text-anchor="start" x="437.5" y="-309.5" font-family="Helvetica,sans-Serif" font-size="10.00" fill="#000000">FT0Reconstruction/Collision</text>
<text text-anchor="middle" x="505" y="-298.5" font-family="Helvetica,sans-Serif" font-size="10.00" fill="#000000">TimeRecoTask.h</text>
</a>
</g>
</g>
<!-- Node0&#45;&gt;Node1 -->
<g id="edge1" class="edge">
<title>Node0&#45;&gt;Node1</title>
<path fill="none" stroke="#191970" d="M893.3979,-370.0116C806.8377,-355.8571 675.9769,-334.4585 590.4961,-320.4805"/>
<polygon fill="#191970" stroke="#191970" points="590.9953,-317.0157 580.5615,-318.856 589.8656,-323.924 590.9953,-317.0157"/>
</g>
<!-- Node3 -->
<g id="node4" class="node">
<title>Node3</title>
<g id="a_node4"><a xlink:href="../../d0/d0a/DataFormats_2Detectors_2FIT_2FT0_2include_2DataFormatsFT0_2Digit_8h.html" target="_top" xlink:title="DataFormatsFT0/Digit.h">
<polygon fill="none" stroke="#000000" points="651,-179.5 651,-198.5 783,-198.5 783,-179.5 651,-179.5"/>
<text text-anchor="middle" x="717" y="-186.5" font-family="Helvetica,sans-Serif" font-size="10.00" fill="#000000">DataFormatsFT0/Digit.h</text>
</a>
</g>
</g>
<!-- Node0&#45;&gt;Node3 -->
<g id="edge45" class="edge">
<title>Node0&#45;&gt;Node3</title>
<path fill="none" stroke="#191970" d="M946.5359,-358.3369C890.6066,-317.0758 783.6158,-238.1449 738.2138,-204.6502"/>
<polygon fill="#191970" stroke="#191970" points="740.1129,-201.7019 729.988,-198.5817 735.9573,-207.3349 740.1129,-201.7019"/>
</g>
<!-- Node4 -->
<g id="node5" class="node">
<title>Node4</title>
<g id="a_node5"><a xlink:href="../../d9/d80/InteractionRecord_8h.html" target="_top" xlink:title="CommonDataFormat/Interaction\lRecord.h">
<polygon fill="none" stroke="#000000" points="837,-112.5 837,-142.5 1011,-142.5 1011,-112.5 837,-112.5"/>
<text text-anchor="start" x="845" y="-130.5" font-family="Helvetica,sans-Serif" font-size="10.00" fill="#000000">CommonDataFormat/Interaction</text>
<text text-anchor="middle" x="924" y="-119.5" font-family="Helvetica,sans-Serif" font-size="10.00" fill="#000000">Record.h</text>
</a>
</g>
</g>
<!-- Node0&#45;&gt;Node4 -->
<g id="edge50" class="edge">
<title>Node0&#45;&gt;Node4</title>
<path fill="none" stroke="#191970" d="M977.2083,-358.4014C969.866,-319.2318 954.9925,-243.0064 939,-179 936.8174,-170.2645 934.1437,-160.7813 931.6613,-152.3612"/>
<polygon fill="#191970" stroke="#191970" points="935.0006,-151.3116 928.7741,-142.7396 928.296,-153.3236 935.0006,-151.3116"/>
</g>
<!-- Node9 -->
<g id="node10" class="node">
<title>Node9</title>
<polygon fill="none" stroke="#bfbfbf" points="1119.5,-56.5 1119.5,-75.5 1166.5,-75.5 1166.5,-56.5 1119.5,-56.5"/>
<text text-anchor="middle" x="1143" y="-63.5" font-family="Helvetica,sans-Serif" font-size="10.00" fill="#000000">cmath</text>
</g>
<!-- Node0&#45;&gt;Node9 -->
<g id="edge46" class="edge">
<title>Node0&#45;&gt;Node9</title>
<path fill="none" stroke="#191970" d="M997.6433,-358.2658C1004.1186,-347.1729 1011.5956,-334.0531 1018,-322 1064.3098,-234.8441 1114.3731,-128.018 1134.201,-85.1417"/>
<polygon fill="#191970" stroke="#191970" points="1137.4595,-86.4336 1138.4699,-75.8871 1131.1031,-83.5016 1137.4595,-86.4336"/>
</g>
<!-- Node16 -->
<g id="node17" class="node">
<title>Node16</title>
<g id="a_node17"><a xlink:href="../../dc/d44/FIT_2FT0_2include_2DataFormatsFT0_2ChannelData_8h.html" target="_top" xlink:title="DataFormatsFT0/ChannelData.h">
<polygon fill="none" stroke="#000000" points="0,-118 0,-137 172,-137 172,-118 0,-118"/>
<text text-anchor="middle" x="86" y="-125" font-family="Helvetica,sans-Serif" font-size="10.00" fill="#000000">DataFormatsFT0/ChannelData.h</text>
</a>
</g>
</g>
<!-- Node0&#45;&gt;Node16 -->
<g id="edge44" class="edge">
<title>Node0&#45;&gt;Node16</title>
<path fill="none" stroke="#191970" d="M893.2785,-380.5651C703.5943,-370.6109 266.1717,-338.9664 147,-255 110.6973,-229.4218 95.2367,-176.2882 89.2927,-147.3423"/>
<polygon fill="#191970" stroke="#191970" points="92.6778,-146.4027 87.4022,-137.2148 85.7967,-147.6873 92.6778,-146.4027"/>
</g>
<!-- Node18 -->
<g id="node19" class="node">
<title>Node18</title>
<polygon fill="none" stroke="#bfbfbf" points="775,-118 775,-137 819,-137 819,-118 775,-118"/>
<text text-anchor="middle" x="797" y="-125" font-family="Helvetica,sans-Serif" font-size="10.00" fill="#000000">bitset</text>
</g>
<!-- Node0&#45;&gt;Node18 -->
<g id="edge47" class="edge">
<title>Node0&#45;&gt;Node18</title>
<path fill="none" stroke="#191970" d="M963.2431,-358.4432C925.6802,-306.2612 842.0778,-190.1216 809.9355,-145.4699"/>
<polygon fill="#191970" stroke="#191970" points="812.5757,-143.1466 803.8928,-137.0755 806.8945,-147.2362 812.5757,-143.1466"/>
</g>
<!-- Node19 -->
<g id="node20" class="node">
<title>Node19</title>
<polygon fill="none" stroke="#bfbfbf" points="1029,-118 1029,-137 1089,-137 1089,-118 1029,-118"/>
<text text-anchor="middle" x="1059" y="-125" font-family="Helvetica,sans-Serif" font-size="10.00" fill="#000000">iostream</text>
</g>
<!-- Node0&#45;&gt;Node19 -->
<g id="edge49" class="edge">
<title>Node0&#45;&gt;Node19</title>
<path fill="none" stroke="#191970" d="M989.8069,-358.4432C1005.2777,-306.807 1039.512,-192.5443 1053.1892,-146.8944"/>
<polygon fill="#191970" stroke="#191970" points="1056.6137,-147.6593 1056.1311,-137.0755 1049.9082,-145.6502 1056.6137,-147.6593"/>
</g>
<!-- Node20 -->
<g id="node21" class="node">
<title>Node20</title>
<g id="a_node21"><a xlink:href="../../d4/d57/RecPoints_8h.html" target="_top" xlink:title="Definition of the FIT RecPoints class. ">
<polygon fill="none" stroke="#000000" points="427,-235.5 427,-254.5 583,-254.5 583,-235.5 427,-235.5"/>
<text text-anchor="middle" x="505" y="-242.5" font-family="Helvetica,sans-Serif" font-size="10.00" fill="#000000">DataFormatsFT0/RecPoints.h</text>
</a>
</g>
</g>
<!-- Node0&#45;&gt;Node20 -->
<g id="edge40" class="edge">
<title>Node0&#45;&gt;Node20</title>
<path fill="none" stroke="#191970" d="M893.3979,-358.5881C790.517,-328.5003 625.0552,-280.1105 547.5855,-257.4543"/>
<polygon fill="#191970" stroke="#191970" points="548.277,-254.01 537.6966,-254.5622 546.3121,-260.7285 548.277,-254.01"/>
</g>
<!-- Node23 -->
<g id="node24" class="node">
<title>Node23</title>
<polygon fill="none" stroke="#bfbfbf" points="1067.5,-297 1067.5,-316 1142.5,-316 1142.5,-297 1067.5,-297"/>
<text text-anchor="middle" x="1105" y="-304" font-family="Helvetica,sans-Serif" font-size="10.00" fill="#000000">FairLogger.h</text>
</g>
<!-- Node0&#45;&gt;Node23 -->
<g id="edge39" class="edge">
<title>Node0&#45;&gt;Node23</title>
<path fill="none" stroke="#191970" d="M1023.2994,-358.3101C1042.6139,-346.0619 1064.9189,-331.9173 1081.3383,-321.505"/>
<polygon fill="#191970" stroke="#191970" points="1083.2276,-324.4514 1089.7983,-316.1401 1079.4788,-318.5398 1083.2276,-324.4514"/>
</g>
<!-- Node24 -->
<g id="node25" class="node">
<title>Node24</title>
<g id="a_node25"><a xlink:href="../../db/df4/FIT_2FT0_2base_2include_2FT0Base_2Geometry_8h.html" target="_top" xlink:title="FT0Base/Geometry.h">
<polygon fill="none" stroke="#000000" points="1160.5,-297 1160.5,-316 1277.5,-316 1277.5,-297 1160.5,-297"/>
<text text-anchor="middle" x="1219" y="-304" font-family="Helvetica,sans-Serif" font-size="10.00" fill="#000000">FT0Base/Geometry.h</text>
</a>
</g>
</g>
<!-- Node0&#45;&gt;Node24 -->
<g id="edge41" class="edge">
<title>Node0&#45;&gt;Node24</title>
<path fill="none" stroke="#191970" d="M1061.2471,-358.4187C1101.1957,-345.271 1147.8541,-329.9151 1180.0106,-319.332"/>
<polygon fill="#191970" stroke="#191970" points="1181.51,-322.5232 1189.9146,-316.0724 1179.3216,-315.8741 1181.51,-322.5232"/>
</g>
<!-- Node26 -->
<g id="node27" class="node">
<title>Node26</title>
<polygon fill="none" stroke="#bfbfbf" points="1296,-297 1296,-316 1348,-316 1348,-297 1296,-297"/>
<text text-anchor="middle" x="1322" y="-304" font-family="Helvetica,sans-Serif" font-size="10.00" fill="#000000">cassert</text>
</g>
<!-- Node0&#45;&gt;Node26 -->
<g id="edge48" class="edge">
<title>Node0&#45;&gt;Node26</title>
<path fill="none" stroke="#191970" d="M1070.713,-371.4976C1132.2719,-361.2253 1215.6956,-344.8022 1287,-322 1288.8989,-321.3927 1290.8335,-320.715 1292.7692,-319.9915"/>
<polygon fill="#191970" stroke="#191970" points="1294.358,-323.1236 1302.2981,-316.1088 1291.7166,-316.641 1294.358,-323.1236"/>
</g>
<!-- Node27 -->
<g id="node28" class="node">
<title>Node27</title>
<g id="a_node28"><a xlink:href="../../dd/da4/Logger_8h.html" target="_top" xlink:title="Framework/Logger.h">
<polygon fill="none" stroke="#000000" points="1366.5,-297 1366.5,-316 1481.5,-316 1481.5,-297 1366.5,-297"/>
<text text-anchor="middle" x="1424" y="-304" font-family="Helvetica,sans-Serif" font-size="10.00" fill="#000000">Framework/Logger.h</text>
</a>
</g>
</g>
<!-- Node0&#45;&gt;Node27 -->
<g id="edge51" class="edge">
<title>Node0&#45;&gt;Node27</title>
<path fill="none" stroke="#191970" d="M1070.5524,-371.3317C1146.7196,-359.6256 1259.4115,-341.4011 1357,-322 1362.7763,-320.8516 1368.8142,-319.5703 1374.7984,-318.25"/>
<polygon fill="#191970" stroke="#191970" points="1375.7754,-321.6177 1384.763,-316.0075 1374.2385,-314.7885 1375.7754,-321.6177"/>
</g>
<!-- Node2 -->
<g id="node3" class="node">
<title>Node2</title>
<polygon fill="none" stroke="#bfbfbf" points="177.5,-235.5 177.5,-254.5 224.5,-254.5 224.5,-235.5 177.5,-235.5"/>
<text text-anchor="middle" x="201" y="-242.5" font-family="Helvetica,sans-Serif" font-size="10.00" fill="#000000">vector</text>
</g>
<!-- Node1&#45;&gt;Node2 -->
<g id="edge2" class="edge">
<title>Node1&#45;&gt;Node2</title>
<path fill="none" stroke="#191970" d="M429.335,-293.2257C375.9505,-283.5251 302.86,-269.5678 239,-255 237.5451,-254.6681 236.0614,-254.3199 234.5644,-253.9606"/>
<polygon fill="#191970" stroke="#191970" points="235.2074,-250.5138 224.6571,-251.4839 233.5097,-257.3048 235.2074,-250.5138"/>
</g>
<!-- Node1&#45;&gt;Node3 -->
<g id="edge3" class="edge">
<title>Node1&#45;&gt;Node3</title>
<path fill="none" stroke="#191970" d="M532.2813,-291.3795C573.2798,-268.6562 650.2718,-225.9838 690.692,-203.5811"/>
<polygon fill="#191970" stroke="#191970" points="692.6211,-206.5136 699.6708,-198.6046 689.2277,-200.3911 692.6211,-206.5136"/>
</g>
<!-- Node1&#45;&gt;Node4 -->
<g id="edge35" class="edge">
<title>Node1&#45;&gt;Node4</title>
<path fill="none" stroke="#191970" d="M580.6329,-294.4718C624.5521,-286.1561 680.4271,-273.2665 728,-255 775.9163,-236.6017 785.9468,-226.9445 829,-199 853.0243,-183.4065 878.9135,-163.7126 897.5887,-148.9438"/>
<polygon fill="#191970" stroke="#191970" points="899.9893,-151.5062 905.6289,-142.537 895.627,-146.0316 899.9893,-151.5062"/>
</g>
<!-- Node12 -->
<g id="node13" class="node">
<title>Node12</title>
<g id="a_node13"><a xlink:href="../../df/d5d/common_2include_2CommonDataFormat_2TimeStamp_8h.html" target="_top" xlink:title="CommonDataFormat/TimeStamp.h">
<polygon fill="none" stroke="#000000" points="190.5,-118 190.5,-137 377.5,-137 377.5,-118 190.5,-118"/>
<text text-anchor="middle" x="284" y="-125" font-family="Helvetica,sans-Serif" font-size="10.00" fill="#000000">CommonDataFormat/TimeStamp.h</text>
</a>
</g>
</g>
<!-- Node1&#45;&gt;Node12 -->
<g id="edge36" class="edge">
<title>Node1&#45;&gt;Node12</title>
<path fill="none" stroke="#191970" d="M470.2295,-291.3007C451.0147,-282.1192 427.2163,-269.4182 408,-255 363.1763,-221.3684 319.5868,-171.3433 298.0087,-145.0705"/>
<polygon fill="#191970" stroke="#191970" points="300.5836,-142.689 291.5648,-137.1291 295.148,-147.0997 300.5836,-142.689"/>
</g>
<!-- Node1&#45;&gt;Node16 -->
<g id="edge24" class="edge">
<title>Node1&#45;&gt;Node16</title>
<path fill="none" stroke="#191970" d="M429.2277,-302.1293C343.3848,-295.9434 209.9576,-282.2175 168,-255 147.1802,-241.4944 112.5343,-178.6936 95.732,-146.5566"/>
<polygon fill="#191970" stroke="#191970" points="98.6474,-144.5748 90.9438,-137.3013 92.4302,-147.7914 98.6474,-144.5748"/>
</g>
<!-- Node17 -->
<g id="node18" class="node">
<title>Node17</title>
<polygon fill="none" stroke="#bfbfbf" points="433.5,-118 433.5,-137 490.5,-137 490.5,-118 433.5,-118"/>
<text text-anchor="middle" x="462" y="-125" font-family="Helvetica,sans-Serif" font-size="10.00" fill="#000000">gsl/span</text>
</g>
<!-- Node1&#45;&gt;Node17 -->
<g id="edge37" class="edge">
<title>Node1&#45;&gt;Node17</title>
<path fill="none" stroke="#191970" d="M461.2587,-291.4993C444.6543,-283.424 427.4756,-271.6204 418,-255 397.251,-218.6057 426.9924,-170.8096 446.7872,-145.3228"/>
<polygon fill="#191970" stroke="#191970" points="449.7124,-147.2714 453.2749,-137.2934 444.2677,-142.872 449.7124,-147.2714"/>
</g>
<!-- Node1&#45;&gt;Node18 -->
<g id="edge38" class="edge">
<title>Node1&#45;&gt;Node18</title>
<path fill="none" stroke="#191970" d="M567.5923,-291.474C643.4343,-271.9064 764.5134,-235.8318 792,-199 802.8995,-184.3948 802.9645,-163.0999 801.0244,-147.5495"/>
<polygon fill="#191970" stroke="#191970" points="804.4375,-146.731 799.3835,-137.4194 797.5276,-147.8504 804.4375,-146.731"/>
</g>
<!-- Node1&#45;&gt;Node20 -->
<g id="edge25" class="edge">
<title>Node1&#45;&gt;Node20</title>
<path fill="none" stroke="#191970" d="M505,-291.2977C505,-283.3834 505,-273.6043 505,-265.0759"/>
<polygon fill="#191970" stroke="#191970" points="508.5001,-264.8469 505,-254.8469 501.5001,-264.847 508.5001,-264.8469"/>
</g>
<!-- Node3&#45;&gt;Node4 -->
<g id="edge4" class="edge">
<title>Node3&#45;&gt;Node4</title>
<path fill="none" stroke="#191970" d="M749.3438,-179.3906C779.823,-170.3352 826.2589,-156.539 863.5902,-145.4479"/>
<polygon fill="#191970" stroke="#191970" points="864.773,-148.7477 873.3621,-142.5446 862.7794,-142.0376 864.773,-148.7477"/>
</g>
<!-- Node6 -->
<g id="node7" class="node">
<title>Node6</title>
<polygon fill="none" stroke="#bfbfbf" points="584.5,-.5 584.5,-19.5 643.5,-19.5 643.5,-.5 584.5,-.5"/>
<text text-anchor="middle" x="614" y="-7.5" font-family="Helvetica,sans-Serif" font-size="10.00" fill="#000000">Rtypes.h</text>
</g>
<!-- Node3&#45;&gt;Node6 -->
<g id="edge20" class="edge">
<title>Node3&#45;&gt;Node6</title>
<path fill="none" stroke="#191970" d="M721.2073,-179.2513C727.0097,-164.372 735.9039,-135.2713 728,-112 714.1279,-71.1565 671.9688,-41.0811 643.0008,-24.551"/>
<polygon fill="#191970" stroke="#191970" points="644.5608,-21.4147 634.1117,-19.6636 641.1882,-27.5486 644.5608,-21.4147"/>
</g>
<!-- Node11 -->
<g id="node12" class="node">
<title>Node11</title>
<g id="a_node12"><a xlink:href="../../de/d64/RangeReference_8h.html" target="_top" xlink:title="Class to refer to the 1st entry and N elements of some group in the continuous container. ">
<polygon fill="none" stroke="#000000" points="509,-118 509,-137 719,-137 719,-118 509,-118"/>
<text text-anchor="middle" x="614" y="-125" font-family="Helvetica,sans-Serif" font-size="10.00" fill="#000000">CommonDataFormat/RangeReference.h</text>
</a>
</g>
</g>
<!-- Node3&#45;&gt;Node11 -->
<g id="edge11" class="edge">
<title>Node3&#45;&gt;Node11</title>
<path fill="none" stroke="#191970" d="M700.9063,-179.3906C684.2772,-169.4616 658.1024,-153.833 638.8206,-142.3201"/>
<polygon fill="#191970" stroke="#191970" points="640.361,-139.1634 629.9807,-137.0419 636.7724,-145.1736 640.361,-139.1634"/>
</g>
<!-- Node3&#45;&gt;Node12 -->
<g id="edge13" class="edge">
<title>Node3&#45;&gt;Node12</title>
<path fill="none" stroke="#191970" d="M650.7653,-179.5925C572.7598,-168.5132 443.3994,-150.1399 360.9979,-138.4362"/>
<polygon fill="#191970" stroke="#191970" points="361.3323,-134.9486 350.9395,-137.0076 360.3479,-141.8791 361.3323,-134.9486"/>
</g>
<!-- Node3&#45;&gt;Node16 -->
<g id="edge18" class="edge">
<title>Node3&#45;&gt;Node16</title>
<path fill="none" stroke="#191970" d="M650.7053,-180.0678C647.4255,-179.6915 644.1765,-179.333 641,-179 437.0484,-157.6164 384.5969,-167.5325 181,-143 170.8159,-141.7729 160.0538,-140.2431 149.5764,-138.6263"/>
<polygon fill="#191970" stroke="#191970" points="150.0703,-135.161 139.6464,-137.0566 148.9773,-142.0751 150.0703,-135.161"/>
</g>
<!-- Node3&#45;&gt;Node17 -->
<g id="edge21" class="edge">
<title>Node3&#45;&gt;Node17</title>
<path fill="none" stroke="#191970" d="M658.255,-179.4784C614.1826,-171.6318 552.6417,-159.174 500,-143 497.7014,-142.2938 495.3484,-141.5043 492.9953,-140.6659"/>
<polygon fill="#191970" stroke="#191970" points="494.0514,-137.3229 483.4606,-137.0313 491.558,-143.8638 494.0514,-137.3229"/>
</g>
<!-- Node3&#45;&gt;Node18 -->
<g id="edge22" class="edge">
<title>Node3&#45;&gt;Node18</title>
<path fill="none" stroke="#191970" d="M729.5,-179.3906C742.0636,-169.7324 761.6423,-154.6812 776.4849,-143.271"/>
<polygon fill="#191970" stroke="#191970" points="778.7928,-145.9115 784.5878,-137.0419 774.5265,-140.3618 778.7928,-145.9115"/>
</g>
<!-- Node3&#45;&gt;Node19 -->
<g id="edge23" class="edge">
<title>Node3&#45;&gt;Node19</title>
<path fill="none" stroke="#191970" d="M783.2057,-183.3284C845.1979,-176.9931 940.0117,-164.6627 1020,-143 1022.6131,-142.2923 1025.2892,-141.4635 1027.955,-140.5637"/>
<polygon fill="#191970" stroke="#191970" points="1029.2524,-143.8159 1037.4331,-137.0834 1026.8395,-137.2449 1029.2524,-143.8159"/>
</g>
<!-- Node5 -->
<g id="node6" class="node">
<title>Node5</title>
<g id="a_node6"><a xlink:href="../../d2/d45/GPUCommonRtypes_8h.html" target="_top" xlink:title="GPUCommonRtypes.h">
<polygon fill="none" stroke="#000000" points="551.5,-56.5 551.5,-75.5 676.5,-75.5 676.5,-56.5 551.5,-56.5"/>
<text text-anchor="middle" x="614" y="-63.5" font-family="Helvetica,sans-Serif" font-size="10.00" fill="#000000">GPUCommonRtypes.h</text>
</a>
</g>
</g>
<!-- Node4&#45;&gt;Node5 -->
<g id="edge5" class="edge">
<title>Node4&#45;&gt;Node5</title>
<path fill="none" stroke="#191970" d="M848.1655,-112.4554C793.8323,-101.6764 721.7587,-87.3779 671.9937,-77.5052"/>
<polygon fill="#191970" stroke="#191970" points="672.5289,-74.0432 662.039,-75.5303 671.1667,-80.9094 672.5289,-74.0432"/>
</g>
<!-- Node7 -->
<g id="node8" class="node">
<title>Node7</title>
<polygon fill="none" stroke="#bfbfbf" points="775.5,-56.5 775.5,-75.5 824.5,-75.5 824.5,-56.5 775.5,-56.5"/>
<text text-anchor="middle" x="800" y="-63.5" font-family="Helvetica,sans-Serif" font-size="10.00" fill="#000000">iosfwd</text>
</g>
<!-- Node4&#45;&gt;Node7 -->
<g id="edge7" class="edge">
<title>Node4&#45;&gt;Node7</title>
<path fill="none" stroke="#191970" d="M893.6662,-112.4554C873.7024,-102.554 847.751,-89.683 828.2285,-80.0004"/>
<polygon fill="#191970" stroke="#191970" points="829.7294,-76.838 819.2156,-75.5303 826.6191,-83.1091 829.7294,-76.838"/>
</g>
<!-- Node8 -->
<g id="node9" class="node">
<title>Node8</title>
<polygon fill="none" stroke="#bfbfbf" points="843,-56.5 843,-75.5 893,-75.5 893,-56.5 843,-56.5"/>
<text text-anchor="middle" x="868" y="-63.5" font-family="Helvetica,sans-Serif" font-size="10.00" fill="#000000">cstdint</text>
</g>
<!-- Node4&#45;&gt;Node8 -->
<g id="edge8" class="edge">
<title>Node4&#45;&gt;Node8</title>
<path fill="none" stroke="#191970" d="M910.1573,-112.2977C902.141,-103.4941 892.0238,-92.3833 883.71,-83.2529"/>
<polygon fill="#191970" stroke="#191970" points="886.2869,-80.8845 876.9663,-75.8469 881.1112,-85.5974 886.2869,-80.8845"/>
</g>
<!-- Node4&#45;&gt;Node9 -->
<g id="edge9" class="edge">
<title>Node4&#45;&gt;Node9</title>
<path fill="none" stroke="#191970" d="M979.8514,-112.4134C1014.5284,-102.9593 1060.2489,-90.3386 1109.3618,-76.1391"/>
<polygon fill="#191970" stroke="#191970" points="1110.5976,-79.425 1119.2273,-73.2786 1108.6482,-72.7019 1110.5976,-79.425"/>
</g>
<!-- Node10 -->
<g id="node11" class="node">
<title>Node10</title>
<g id="a_node11"><a xlink:href="../../d4/dc6/LHCConstants_8h.html" target="_top" xlink:title="Header to collect LHC related constants. ">
<polygon fill="none" stroke="#000000" points="911,-56.5 911,-75.5 1101,-75.5 1101,-56.5 911,-56.5"/>
<text text-anchor="middle" x="1006" y="-63.5" font-family="Helvetica,sans-Serif" font-size="10.00" fill="#000000">CommonConstants/LHCConstants.h</text>
</a>
</g>
</g>
<!-- Node4&#45;&gt;Node10 -->
<g id="edge10" class="edge">
<title>Node4&#45;&gt;Node10</title>
<path fill="none" stroke="#191970" d="M944.2697,-112.2977C956.6006,-103.0495 972.3266,-91.2551 984.8197,-81.8853"/>
<polygon fill="#191970" stroke="#191970" points="986.9708,-84.647 992.8708,-75.8469 982.7707,-79.047 986.9708,-84.647"/>
</g>
<!-- Node5&#45;&gt;Node6 -->
<g id="edge6" class="edge">
<title>Node5&#45;&gt;Node6</title>
<path fill="none" stroke="#191970" d="M614,-56.2455C614,-48.9382 614,-38.6944 614,-29.7046"/>
<polygon fill="#191970" stroke="#191970" points="617.5001,-29.6426 614,-19.6427 610.5001,-29.6427 617.5001,-29.6426"/>
</g>
<!-- Node11&#45;&gt;Node5 -->
<g id="edge12" class="edge">
<title>Node11&#45;&gt;Node5</title>
<path fill="none" stroke="#191970" d="M614,-117.8906C614,-109.3657 614,-96.6392 614,-85.9235"/>
<polygon fill="#191970" stroke="#191970" points="617.5001,-85.7448 614,-75.7449 610.5001,-85.7449 617.5001,-85.7448"/>
</g>
<!-- Node12&#45;&gt;Node5 -->
<g id="edge14" class="edge">
<title>Node12&#45;&gt;Node5</title>
<path fill="none" stroke="#191970" d="M335.2004,-117.9581C393.9357,-107.012 490.1817,-89.0752 552.8153,-77.4026"/>
<polygon fill="#191970" stroke="#191970" points="553.7615,-80.7866 562.951,-75.5137 552.479,-73.9051 553.7615,-80.7866"/>
</g>
<!-- Node13 -->
<g id="node14" class="node">
<title>Node13</title>
<g id="a_node14"><a xlink:href="../../df/d21/GPUCommonDef_8h.html" target="_top" xlink:title="GPUCommonDef.h">
<polygon fill="none" stroke="#000000" points="230.5,-56.5 230.5,-75.5 337.5,-75.5 337.5,-56.5 230.5,-56.5"/>
<text text-anchor="middle" x="284" y="-63.5" font-family="Helvetica,sans-Serif" font-size="10.00" fill="#000000">GPUCommonDef.h</text>
</a>
</g>
</g>
<!-- Node12&#45;&gt;Node13 -->
<g id="edge15" class="edge">
<title>Node12&#45;&gt;Node13</title>
<path fill="none" stroke="#191970" d="M284,-117.8906C284,-109.3657 284,-96.6392 284,-85.9235"/>
<polygon fill="#191970" stroke="#191970" points="287.5001,-85.7448 284,-75.7449 280.5001,-85.7449 287.5001,-85.7448"/>
</g>
<!-- Node14 -->
<g id="node15" class="node">
<title>Node14</title>
<g id="a_node15"><a xlink:href="../../d5/d93/GPUCommonDefSettings_8h.html" target="_top" xlink:title="GPUCommonDefSettings.h">
<polygon fill="none" stroke="#000000" points="133,-.5 133,-19.5 281,-19.5 281,-.5 133,-.5"/>
<text text-anchor="middle" x="207" y="-7.5" font-family="Helvetica,sans-Serif" font-size="10.00" fill="#000000">GPUCommonDefSettings.h</text>
</a>
</g>
</g>
<!-- Node13&#45;&gt;Node14 -->
<g id="edge16" class="edge">
<title>Node13&#45;&gt;Node14</title>
<path fill="none" stroke="#191970" d="M270.5876,-56.2455C258.9943,-47.814 242.0252,-35.4729 228.5322,-25.6598"/>
<polygon fill="#191970" stroke="#191970" points="230.4047,-22.6938 220.2587,-19.6427 226.2874,-28.355 230.4047,-22.6938"/>
</g>
<!-- Node15 -->
<g id="node16" class="node">
<title>Node15</title>
<g id="a_node16"><a xlink:href="../../da/d5a/GPUCommonDefAPI_8h.html" target="_top" xlink:title="GPUCommonDefAPI.h">
<polygon fill="none" stroke="#000000" points="299,-.5 299,-19.5 423,-19.5 423,-.5 299,-.5"/>
<text text-anchor="middle" x="361" y="-7.5" font-family="Helvetica,sans-Serif" font-size="10.00" fill="#000000">GPUCommonDefAPI.h</text>
</a>
</g>
</g>
<!-- Node13&#45;&gt;Node15 -->
<g id="edge17" class="edge">
<title>Node13&#45;&gt;Node15</title>
<path fill="none" stroke="#191970" d="M297.4124,-56.2455C309.0057,-47.814 325.9748,-35.4729 339.4678,-25.6598"/>
<polygon fill="#191970" stroke="#191970" points="341.7126,-28.355 347.7413,-19.6427 337.5953,-22.6938 341.7126,-28.355"/>
</g>
<!-- Node16&#45;&gt;Node6 -->
<g id="edge19" class="edge">
<title>Node16&#45;&gt;Node6</title>
<path fill="none" stroke="#191970" d="M141.6883,-117.9694C206.2939,-106.6492 308.7139,-87.8158 346,-76 366.8638,-69.3883 370.1624,-62.6938 391,-56 453.6748,-35.8665 529.1724,-22.4618 574.2894,-15.5512"/>
<polygon fill="#191970" stroke="#191970" points="574.8895,-19.0004 584.259,-14.0544 573.8502,-12.078 574.8895,-19.0004"/>
</g>
<!-- Node20&#45;&gt;Node3 -->
<g id="edge30" class="edge">
<title>Node20&#45;&gt;Node3</title>
<path fill="none" stroke="#191970" d="M541.4441,-235.3733C577.3069,-225.9001 632.1878,-211.4032 671.0282,-201.1435"/>
<polygon fill="#191970" stroke="#191970" points="672.257,-204.439 681.0315,-198.5011 670.4692,-197.6712 672.257,-204.439"/>
</g>
<!-- Node20&#45;&gt;Node4 -->
<g id="edge26" class="edge">
<title>Node20&#45;&gt;Node4</title>
<path fill="none" stroke="#191970" d="M583.148,-239.6297C641.8479,-233.8968 723.5589,-222.2651 792,-199 828.6418,-186.5444 867.1877,-164.4819 893.1005,-148.1482"/>
<polygon fill="#191970" stroke="#191970" points="895.1793,-150.9733 901.7154,-142.6348 891.406,-145.0773 895.1793,-150.9733"/>
</g>
<!-- Node20&#45;&gt;Node6 -->
<g id="edge32" class="edge">
<title>Node20&#45;&gt;Node6</title>
<path fill="none" stroke="#191970" d="M491.0833,-235.353C461.2952,-213.4782 396.244,-158.4033 424,-112 456.518,-57.6354 529.0528,-30.5762 574.5006,-18.4768"/>
<polygon fill="#191970" stroke="#191970" points="575.488,-21.8372 584.3185,-15.9829 573.7646,-15.0527 575.488,-21.8372"/>
</g>
<!-- Node20&#45;&gt;Node11 -->
<g id="edge29" class="edge">
<title>Node20&#45;&gt;Node11</title>
<path fill="none" stroke="#191970" d="M500.8007,-235.1384C495.6572,-221.3802 488.9064,-196.1846 500,-179 512.3083,-159.9337 533.5627,-147.8519 554.4092,-140.2294"/>
<polygon fill="#191970" stroke="#191970" points="555.5607,-143.5348 563.925,-137.0318 553.331,-136.8994 555.5607,-143.5348"/>
</g>
<!-- Node20&#45;&gt;Node12 -->
<g id="edge27" class="edge">
<title>Node20&#45;&gt;Node12</title>
<path fill="none" stroke="#191970" d="M476.6354,-235.3985C453.1195,-227.0067 419.1132,-213.862 391,-199 359.5451,-182.3714 325.8186,-158.7626 304.8188,-143.2928"/>
<polygon fill="#191970" stroke="#191970" points="306.7531,-140.3695 296.6418,-137.2053 302.573,-145.9844 306.7531,-140.3695"/>
</g>
<!-- Node20&#45;&gt;Node16 -->
<g id="edge28" class="edge">
<title>Node20&#45;&gt;Node16</title>
<path fill="none" stroke="#191970" d="M471.0664,-235.484C395.526,-214.3002 213.5617,-163.2721 129.6862,-139.7509"/>
<polygon fill="#191970" stroke="#191970" points="130.5311,-136.3529 119.9575,-137.0227 128.641,-143.0929 130.5311,-136.3529"/>
</g>
<!-- Node20&#45;&gt;Node17 -->
<g id="edge34" class="edge">
<title>Node20&#45;&gt;Node17</title>
<path fill="none" stroke="#191970" d="M493.8155,-235.2926C484.8206,-226.7417 472.7652,-213.4288 467,-199 460.3774,-182.4255 459.6064,-161.9778 460.2088,-147.2006"/>
<polygon fill="#191970" stroke="#191970" points="463.7051,-147.3704 460.863,-137.1639 456.7199,-146.915 463.7051,-147.3704"/>
</g>
<!-- Node21 -->
<g id="node22" class="node">
<title>Node21</title>
<polygon fill="none" stroke="#bfbfbf" points="509,-179.5 509,-198.5 551,-198.5 551,-179.5 509,-179.5"/>
<text text-anchor="middle" x="530" y="-186.5" font-family="Helvetica,sans-Serif" font-size="10.00" fill="#000000">array</text>
</g>
<!-- Node20&#45;&gt;Node21 -->
<g id="edge31" class="edge">
<title>Node20&#45;&gt;Node21</title>
<path fill="none" stroke="#191970" d="M509.3547,-235.2455C512.7244,-227.6973 517.493,-217.0158 521.5983,-207.8197"/>
<polygon fill="#191970" stroke="#191970" points="524.8147,-209.2009 525.6952,-198.6427 518.4227,-206.3473 524.8147,-209.2009"/>
</g>
<!-- Node22 -->
<g id="node23" class="node">
<title>Node22</title>
<polygon fill="none" stroke="#bfbfbf" points="569.5,-179.5 569.5,-198.5 632.5,-198.5 632.5,-179.5 569.5,-179.5"/>
<text text-anchor="middle" x="601" y="-186.5" font-family="Helvetica,sans-Serif" font-size="10.00" fill="#000000">TObject.h</text>
</g>
<!-- Node20&#45;&gt;Node22 -->
<g id="edge33" class="edge">
<title>Node20&#45;&gt;Node22</title>
<path fill="none" stroke="#191970" d="M521.7219,-235.2455C536.5889,-226.5731 558.5466,-213.7645 575.5858,-203.825"/>
<polygon fill="#191970" stroke="#191970" points="577.5955,-206.7047 584.4697,-198.6427 574.0683,-200.6582 577.5955,-206.7047"/>
</g>
<!-- Node24&#45;&gt;Node6 -->
<g id="edge42" class="edge">
<title>Node24&#45;&gt;Node6</title>
<path fill="none" stroke="#191970" d="M1219,-296.7511C1219,-276.6182 1219,-228.9826 1219,-189 1219,-189 1219,-189 1219,-127.5 1219,-90.4182 1207.5059,-75.5561 1176,-56 1131.8965,-28.6245 775.1002,-15.035 654.0234,-11.1792"/>
<polygon fill="#191970" stroke="#191970" points="653.8246,-7.6713 643.7199,-10.8566 653.6054,-14.6679 653.8246,-7.6713"/>
</g>
<!-- Node25 -->
<g id="node26" class="node">
<title>Node25</title>
<polygon fill="none" stroke="#bfbfbf" points="1123,-235.5 1123,-254.5 1191,-254.5 1191,-235.5 1123,-235.5"/>
<text text-anchor="middle" x="1157" y="-242.5" font-family="Helvetica,sans-Serif" font-size="10.00" fill="#000000">TVector3.h</text>
</g>
<!-- Node24&#45;&gt;Node25 -->
<g id="edge43" class="edge">
<title>Node24&#45;&gt;Node25</title>
<path fill="none" stroke="#191970" d="M1209.3125,-296.8906C1199.9041,-287.5581 1185.4193,-273.1902 1174.0751,-261.9374"/>
<polygon fill="#191970" stroke="#191970" points="1176.3886,-259.3024 1166.8241,-254.7449 1171.4589,-264.2722 1176.3886,-259.3024"/>
</g>
<!-- Node28 -->
<g id="node29" class="node">
<title>Node28</title>
<polygon fill="none" stroke="#bfbfbf" points="1370,-235.5 1370,-254.5 1478,-254.5 1478,-235.5 1370,-235.5"/>
<text text-anchor="middle" x="1424" y="-242.5" font-family="Helvetica,sans-Serif" font-size="10.00" fill="#000000">fairlogger/Logger.h</text>
</g>
<!-- Node27&#45;&gt;Node28 -->
<g id="edge52" class="edge">
<title>Node27&#45;&gt;Node28</title>
<path fill="none" stroke="#191970" d="M1424,-296.8906C1424,-288.3657 1424,-275.6392 1424,-264.9235"/>
<polygon fill="#191970" stroke="#191970" points="1427.5001,-264.7448 1424,-254.7449 1420.5001,-264.7449 1427.5001,-264.7448"/>
</g>
</g>
</svg>
        <g id="navigator" transform="translate(0 0)" fill="#404254">
                <rect fill="#f2f5e9" fill-opacity="0.5" stroke="#606060" stroke-width=".5" x="0" y="0" width="60" height="60"/>
                <use id="zoomplus" xlink:href="#zoomPlus" x="17" y="9" onmousedown="handleZoom(evt,'in')"/>
                <use id="zoomminus" xlink:href="#zoomMin" x="42" y="9" onmousedown="handleZoom(evt,'out')"/>
                <use id="reset" xlink:href="#resetDef" x="30" y="36" onmousedown="handleReset()"/>
                <g id="arrowUp" xlink:href="#dirArrow" transform="translate(30 24)" onmousedown="handlePan(0,-1)">
                  <use xlink:href="#rim" fill="#404040">
                        <set attributeName="fill" to="#808080" begin="arrowUp.mouseover" end="arrowUp.mouseout"/>
                  </use>
                  <path fill="none" stroke="white" stroke-width="1.5" d="M0,-3.0v7 M-2.5,-0.5L0,-3.0L2.5,-0.5"/>
                </g>
                <g id="arrowRight" xlink:href="#dirArrow" transform="rotate(90) translate(36 -43)" onmousedown="handlePan(1,0)">
                  <use xlink:href="#rim" fill="#404040">
                        <set attributeName="fill" to="#808080" begin="arrowRight.mouseover" end="arrowRight.mouseout"/>
                  </use>
                  <path fill="none" stroke="white" stroke-width="1.5" d="M0,-3.0v7 M-2.5,-0.5L0,-3.0L2.5,-0.5"/>
                </g>
                <g id="arrowDown" xlink:href="#dirArrow" transform="rotate(180) translate(-30 -48)" onmousedown="handlePan(0,1)">
                  <use xlink:href="#rim" fill="#404040">
                        <set attributeName="fill" to="#808080" begin="arrowDown.mouseover" end="arrowDown.mouseout"/>
                  </use>
                  <path fill="none" stroke="white" stroke-width="1.5" d="M0,-3.0v7 M-2.5,-0.5L0,-3.0L2.5,-0.5"/>
                </g>
                <g id="arrowLeft" xlink:href="#dirArrow" transform="rotate(270) translate(-36 17)" onmousedown="handlePan(-1,0)">
                  <use xlink:href="#rim" fill="#404040">
                        <set attributeName="fill" to="#808080" begin="arrowLeft.mouseover" end="arrowLeft.mouseout"/>
                  </use>
                  <path fill="none" stroke="white" stroke-width="1.5" d="M0,-3.0v7 M-2.5,-0.5L0,-3.0L2.5,-0.5"/>
                </g>
        </g>
        <svg viewBox="0 0 15 15" width="100%" height="30px" preserveAspectRatio="xMaxYMin meet">
         <g id="arrow_out" transform="scale(0.3 0.3)">
          <a xlink:href="CollisionTimeRecoTask_8cxx__incl_org.svg" target="_base">
           <rect id="button" ry="5" rx="5" y="6" x="6" height="38" width="38"
                fill="#f2f5e9" fill-opacity="0.5" stroke="#606060" stroke-width="1.0"/>
           <path id="arrow"
             d="M 11.500037,31.436501 C 11.940474,20.09759 22.043105,11.32322 32.158766,21.979434 L 37.068811,17.246167 C 37.068811,17.246167 37.088388,32 37.088388,32 L 22.160133,31.978069 C 22.160133,31.978069 26.997745,27.140456 26.997745,27.140456 C 18.528582,18.264221 13.291696,25.230495 11.500037,31.436501 z"
             style="fill:#404040;"/>
          </a>
         </g>
        </svg>
</svg>
