<?xml version="1.0" encoding="UTF-8" standalone="no"?>
<!DOCTYPE svg PUBLIC "-//W3C//DTD SVG 1.1//EN"
 "http://www.w3.org/Graphics/SVG/1.1/DTD/svg11.dtd">
<!-- Generated by graphviz version 2.40.1 (20161225.0304)
 -->
<!-- Title: o2::framework::DanglingContext Pages: 1 -->
<!--zoomable 529 -->
<svg id="main" version="1.1" xmlns="http://www.w3.org/2000/svg" xmlns:xlink="http://www.w3.org/1999/xlink" xml:space="preserve" onload="init(evt)">
<style type="text/css"><![CDATA[
.edge:hover path { stroke: red; }
.edge:hover polygon { stroke: red; fill: red; }
]]></style>
<script type="text/javascript"><![CDATA[
var edges = document.getElementsByTagName('g');
if (edges && edges.length) {
  for (var i=0;i<edges.length;i++) {
    if (edges[i].id.substr(0,4)=='edge') {
      edges[i].setAttribute('class','edge');
    }
  }
}
]]></script>
        <defs>
                <circle id="rim" cx="0" cy="0" r="7"/>
                <circle id="rim2" cx="0" cy="0" r="3.5"/>
                <g id="zoomPlus">
                        <use xlink:href="#rim" fill="#404040">
                                <set attributeName="fill" to="#808080" begin="zoomplus.mouseover" end="zoomplus.mouseout"/>
                        </use>
                        <path d="M-4,0h8M0,-4v8" fill="none" stroke="white" stroke-width="1.5" pointer-events="none"/>
                </g>
                <g id="zoomMin">
                        <use xlink:href="#rim" fill="#404040">
                                <set attributeName="fill" to="#808080" begin="zoomminus.mouseover" end="zoomminus.mouseout"/>
                        </use>
                        <path d="M-4,0h8" fill="none" stroke="white" stroke-width="1.5" pointer-events="none"/>
                </g>
                <g id="dirArrow">
                        <path fill="none" stroke="white" stroke-width="1.5" d="M0,-3.0v7 M-2.5,-0.5L0,-3.0L2.5,-0.5"/>
                </g>
               <g id="resetDef">
                       <use xlink:href="#rim2" fill="#404040">
                               <set attributeName="fill" to="#808080" begin="reset.mouseover" end="reset.mouseout"/>
                       </use>
               </g>
        </defs>

<script type="text/javascript">
var viewWidth = 1414;
var viewHeight = 529;
var sectionId = 'dynsection-0';
</script>
<script xlink:href="../../svgpan.js"/>
<svg id="graph" class="graph">
<g id="viewport">
<title>o2::framework::DanglingContext</title>
<!-- Node1 -->
<g id="node1" class="node">
<title>Node1</title>
<polygon fill="#bfbfbf" stroke="#000000" points="681,-.5 681,-68.5 857,-68.5 857,-.5 681,-.5"/>
<text text-anchor="middle" x="769" y="-56.5" font-family="Helvetica,sans-Serif" font-size="10.00" fill="#000000">o2::framework::DanglingContext</text>
<polyline fill="none" stroke="#000000" points="681,-49.5 857,-49.5 "/>
<text text-anchor="middle" x="769" y="-37.5" font-family="Helvetica,sans-Serif" font-size="10.00" fill="#000000"> </text>
<polyline fill="none" stroke="#000000" points="681,-30.5 857,-30.5 "/>
<text text-anchor="start" x="689" y="-18.5" font-family="Helvetica,sans-Serif" font-size="10.00" fill="#000000">+ DanglingContext()</text>
<text text-anchor="start" x="689" y="-7.5" font-family="Helvetica,sans-Serif" font-size="10.00" fill="#000000">+ services()</text>
</g>
<!-- Node2 -->
<g id="node2" class="node">
<title>Node2</title>
<g id="a_node2"><a xlink:href="../../dc/dba/structo2_1_1framework_1_1ServiceRegistry.html" target="_top" xlink:title="{o2::framework::ServiceRegistry\n||+ ServiceRegistry()\l+ ServiceRegistry()\l+ operator=()\l+ preProcessingCallbacks()\l+ postProcessingCallbacks()\l+ preDanglingCallbacks()\l+ postDanglingCallbacks()\l+ preEOSCallbacks()\l+ postEOSCallbacks()\l+ declareService()\l+ bindService()\l+ registerService()\l+ getPos()\l+ get()\l+ registerService()\l+ registerService()\l+ registerService()\l+ active()\l+ get()\l}">
<polygon fill="none" stroke="#000000" points="684,-116.5 684,-371.5 854,-371.5 854,-116.5 684,-116.5"/>
<text text-anchor="middle" x="769" y="-359.5" font-family="Helvetica,sans-Serif" font-size="10.00" fill="#000000">o2::framework::ServiceRegistry</text>
<polyline fill="none" stroke="#000000" points="684,-352.5 854,-352.5 "/>
<text text-anchor="middle" x="769" y="-340.5" font-family="Helvetica,sans-Serif" font-size="10.00" fill="#000000"> </text>
<polyline fill="none" stroke="#000000" points="684,-333.5 854,-333.5 "/>
<text text-anchor="start" x="692" y="-321.5" font-family="Helvetica,sans-Serif" font-size="10.00" fill="#000000">+ ServiceRegistry()</text>
<text text-anchor="start" x="692" y="-310.5" font-family="Helvetica,sans-Serif" font-size="10.00" fill="#000000">+ ServiceRegistry()</text>
<text text-anchor="start" x="692" y="-299.5" font-family="Helvetica,sans-Serif" font-size="10.00" fill="#000000">+ operator=()</text>
<text text-anchor="start" x="692" y="-288.5" font-family="Helvetica,sans-Serif" font-size="10.00" fill="#000000">+ preProcessingCallbacks()</text>
<text text-anchor="start" x="692" y="-277.5" font-family="Helvetica,sans-Serif" font-size="10.00" fill="#000000">+ postProcessingCallbacks()</text>
<text text-anchor="start" x="692" y="-266.5" font-family="Helvetica,sans-Serif" font-size="10.00" fill="#000000">+ preDanglingCallbacks()</text>
<text text-anchor="start" x="692" y="-255.5" font-family="Helvetica,sans-Serif" font-size="10.00" fill="#000000">+ postDanglingCallbacks()</text>
<text text-anchor="start" x="692" y="-244.5" font-family="Helvetica,sans-Serif" font-size="10.00" fill="#000000">+ preEOSCallbacks()</text>
<text text-anchor="start" x="692" y="-233.5" font-family="Helvetica,sans-Serif" font-size="10.00" fill="#000000">+ postEOSCallbacks()</text>
<text text-anchor="start" x="692" y="-222.5" font-family="Helvetica,sans-Serif" font-size="10.00" fill="#000000">+ declareService()</text>
<text text-anchor="start" x="692" y="-211.5" font-family="Helvetica,sans-Serif" font-size="10.00" fill="#000000">+ bindService()</text>
<text text-anchor="start" x="692" y="-200.5" font-family="Helvetica,sans-Serif" font-size="10.00" fill="#000000">+ registerService()</text>
<text text-anchor="start" x="692" y="-189.5" font-family="Helvetica,sans-Serif" font-size="10.00" fill="#000000">+ getPos()</text>
<text text-anchor="start" x="692" y="-178.5" font-family="Helvetica,sans-Serif" font-size="10.00" fill="#000000">+ get()</text>
<text text-anchor="start" x="692" y="-167.5" font-family="Helvetica,sans-Serif" font-size="10.00" fill="#000000">+ registerService()</text>
<text text-anchor="start" x="692" y="-156.5" font-family="Helvetica,sans-Serif" font-size="10.00" fill="#000000">+ registerService()</text>
<text text-anchor="start" x="692" y="-145.5" font-family="Helvetica,sans-Serif" font-size="10.00" fill="#000000">+ registerService()</text>
<text text-anchor="start" x="692" y="-134.5" font-family="Helvetica,sans-Serif" font-size="10.00" fill="#000000">+ active()</text>
<text text-anchor="start" x="692" y="-123.5" font-family="Helvetica,sans-Serif" font-size="10.00" fill="#000000">+ get()</text>
</a>
</g>
</g>
<!-- Node2&#45;&gt;Node1 -->
<g id="edge1" class="edge">
<title>Node2&#45;&gt;Node1</title>
<path fill="none" stroke="#404040" d="M769,-116.3983C769,-103.8711 769,-91.8023 769,-80.9567"/>
<polygon fill="none" stroke="#404040" points="769.0001,-80.8326 765,-74.8327 769,-68.8326 773,-74.8326 769.0001,-80.8326"/>
<text text-anchor="middle" x="800.5" y="-90" font-family="Helvetica,sans-Serif" font-size="10.00" fill="#000000"> +mServices</text>
</g>
<!-- Node3 -->
<g id="node3" class="node">
<title>Node3</title>
<polygon fill="none" stroke="#bfbfbf" points="0,-441.5 0,-520.5 162,-520.5 162,-441.5 0,-441.5"/>
<text text-anchor="start" x="8" y="-508.5" font-family="Helvetica,sans-Serif" font-size="10.00" fill="#000000">array&lt; o2::framework</text>
<text text-anchor="start" x="8" y="-497.5" font-family="Helvetica,sans-Serif" font-size="10.00" fill="#000000">::ServiceMeta, MAX_SERVICES</text>
<text text-anchor="middle" x="81" y="-486.5" font-family="Helvetica,sans-Serif" font-size="10.00" fill="#000000">+MAX_DISTANCE &gt;</text>
<polyline fill="none" stroke="#bfbfbf" points="0,-479.5 162,-479.5 "/>
<text text-anchor="middle" x="81" y="-467.5" font-family="Helvetica,sans-Serif" font-size="10.00" fill="#000000"> </text>
<polyline fill="none" stroke="#bfbfbf" points="0,-460.5 162,-460.5 "/>
<text text-anchor="middle" x="81" y="-448.5" font-family="Helvetica,sans-Serif" font-size="10.00" fill="#000000"> </text>
</g>
<!-- Node3&#45;&gt;Node2 -->
<g id="edge2" class="edge">
<title>Node3&#45;&gt;Node2</title>
<path fill="none" stroke="#404040" d="M132.417,-441.3327C157.4371,-423.5719 188.6197,-403.6115 219,-390 370.1418,-322.283 559.1889,-280.646 671.6828,-259.971"/>
<polygon fill="none" stroke="#404040" points="671.8623,-259.9385 677.051,-254.9307 683.6692,-257.7942 678.4805,-262.802 671.8623,-259.9385"/>
<text text-anchor="middle" x="262.5" y="-404" font-family="Helvetica,sans-Serif" font-size="10.00" fill="#000000"> +mServicesMeta</text>
</g>
<!-- Node4 -->
<g id="node4" class="node">
<title>Node4</title>
<polygon fill="none" stroke="#bfbfbf" points="180,-447 180,-515 328,-515 328,-447 180,-447"/>
<text text-anchor="start" x="188" y="-503" font-family="Helvetica,sans-Serif" font-size="10.00" fill="#000000">vector&lt; o2::framework</text>
<text text-anchor="middle" x="254" y="-492" font-family="Helvetica,sans-Serif" font-size="10.00" fill="#000000">::ServiceDanglingHandle &gt;</text>
<polyline fill="none" stroke="#bfbfbf" points="180,-485 328,-485 "/>
<text text-anchor="middle" x="254" y="-473" font-family="Helvetica,sans-Serif" font-size="10.00" fill="#000000"> </text>
<polyline fill="none" stroke="#bfbfbf" points="180,-466 328,-466 "/>
<text text-anchor="middle" x="254" y="-454" font-family="Helvetica,sans-Serif" font-size="10.00" fill="#000000"> </text>
</g>
<!-- Node4&#45;&gt;Node2 -->
<g id="edge3" class="edge">
<title>Node4&#45;&gt;Node2</title>
<path fill="none" stroke="#404040" d="M282.7992,-446.9456C300.3156,-428.0108 324.0656,-405.2608 349,-390 451.0829,-327.5214 583.565,-287.1701 672.1839,-265.0602"/>
<polygon fill="none" stroke="#404040" points="672.1954,-265.0575 677.0668,-259.7405 683.8483,-262.1922 678.977,-267.5091 672.1954,-265.0575"/>
<text text-anchor="middle" x="410.5" y="-409.5" font-family="Helvetica,sans-Serif" font-size="10.00" fill="#000000"> +mPreDanglingHandles</text>
<text text-anchor="middle" x="410.5" y="-398.5" font-family="Helvetica,sans-Serif" font-size="10.00" fill="#000000">+mPostDanglingHandles</text>
</g>
<!-- Node5 -->
<g id="node5" class="node">
<title>Node5</title>
<polygon fill="none" stroke="#bfbfbf" points="346.5,-447 346.5,-515 503.5,-515 503.5,-447 346.5,-447"/>
<text text-anchor="start" x="354.5" y="-503" font-family="Helvetica,sans-Serif" font-size="10.00" fill="#000000">vector&lt; o2::framework</text>
<text text-anchor="middle" x="425" y="-492" font-family="Helvetica,sans-Serif" font-size="10.00" fill="#000000">::ServiceProcessingHandle &gt;</text>
<polyline fill="none" stroke="#bfbfbf" points="346.5,-485 503.5,-485 "/>
<text text-anchor="middle" x="425" y="-473" font-family="Helvetica,sans-Serif" font-size="10.00" fill="#000000"> </text>
<polyline fill="none" stroke="#bfbfbf" points="346.5,-466 503.5,-466 "/>
<text text-anchor="middle" x="425" y="-454" font-family="Helvetica,sans-Serif" font-size="10.00" fill="#000000"> </text>
</g>
<!-- Node5&#45;&gt;Node2 -->
<g id="edge4" class="edge">
<title>Node5&#45;&gt;Node2</title>
<path fill="none" stroke="#404040" d="M453.4907,-446.6602C469.5466,-428.5364 490.6264,-406.6652 512,-390 561.6717,-351.2704 622.7929,-316.1162 672.9654,-290.0123"/>
<polygon fill="none" stroke="#404040" points="673.1578,-289.9131 676.658,-283.6084 683.8239,-284.4145 680.3238,-290.7191 673.1578,-289.9131"/>
<text text-anchor="middle" x="578" y="-409.5" font-family="Helvetica,sans-Serif" font-size="10.00" fill="#000000"> +mPreProcessingHandles</text>
<text text-anchor="middle" x="578" y="-398.5" font-family="Helvetica,sans-Serif" font-size="10.00" fill="#000000">+mPostProcessingHandles</text>
</g>
<!-- Node6 -->
<g id="node6" class="node">
<title>Node6</title>
<polygon fill="none" stroke="#bfbfbf" points="522,-447 522,-515 686,-515 686,-447 522,-447"/>
<text text-anchor="start" x="530" y="-503" font-family="Helvetica,sans-Serif" font-size="10.00" fill="#000000">array&lt; void *, MAX</text>
<text text-anchor="middle" x="604" y="-492" font-family="Helvetica,sans-Serif" font-size="10.00" fill="#000000">_SERVICES+MAX_DISTANCE &gt;</text>
<polyline fill="none" stroke="#bfbfbf" points="522,-485 686,-485 "/>
<text text-anchor="middle" x="604" y="-473" font-family="Helvetica,sans-Serif" font-size="10.00" fill="#000000"> </text>
<polyline fill="none" stroke="#bfbfbf" points="522,-466 686,-466 "/>
<text text-anchor="middle" x="604" y="-454" font-family="Helvetica,sans-Serif" font-size="10.00" fill="#000000"> </text>
</g>
<!-- Node6&#45;&gt;Node2 -->
<g id="edge5" class="edge">
<title>Node6&#45;&gt;Node2</title>
<path fill="none" stroke="#404040" d="M627.8162,-446.7913C641.1505,-427.6383 658.7255,-402.3943 676.9305,-376.2452"/>
<polygon fill="none" stroke="#404040" points="677.0747,-376.0382 677.2201,-368.8285 683.9311,-366.1898 683.7857,-373.3995 677.0747,-376.0382"/>
<text text-anchor="middle" x="711" y="-404" font-family="Helvetica,sans-Serif" font-size="10.00" fill="#000000"> +mServicesValue</text>
</g>
<!-- Node7 -->
<g id="node7" class="node">
<title>Node7</title>
<polygon fill="none" stroke="#bfbfbf" points="704,-447 704,-515 834,-515 834,-447 704,-447"/>
<text text-anchor="start" x="712" y="-503" font-family="Helvetica,sans-Serif" font-size="10.00" fill="#000000">vector&lt; o2::framework</text>
<text text-anchor="middle" x="769" y="-492" font-family="Helvetica,sans-Serif" font-size="10.00" fill="#000000">::ServiceSpec &gt;</text>
<polyline fill="none" stroke="#bfbfbf" points="704,-485 834,-485 "/>
<text text-anchor="middle" x="769" y="-473" font-family="Helvetica,sans-Serif" font-size="10.00" fill="#000000"> </text>
<polyline fill="none" stroke="#bfbfbf" points="704,-466 834,-466 "/>
<text text-anchor="middle" x="769" y="-454" font-family="Helvetica,sans-Serif" font-size="10.00" fill="#000000"> </text>
</g>
<!-- Node7&#45;&gt;Node2 -->
<g id="edge6" class="edge">
<title>Node7&#45;&gt;Node2</title>
<path fill="none" stroke="#404040" d="M769,-446.7913C769,-429.5439 769,-407.3571 769,-384.0181"/>
<polygon fill="none" stroke="#404040" points="769.0001,-383.7283 765,-377.7283 769,-371.7283 773,-377.7282 769.0001,-383.7283"/>
<text text-anchor="middle" x="794" y="-404" font-family="Helvetica,sans-Serif" font-size="10.00" fill="#000000"> +mSpecs</text>
</g>
<!-- Node8 -->
<g id="node8" class="node">
<title>Node8</title>
<polygon fill="none" stroke="#bfbfbf" points="852,-447 852,-515 1016,-515 1016,-447 852,-447"/>
<text text-anchor="start" x="860" y="-503" font-family="Helvetica,sans-Serif" font-size="10.00" fill="#000000">array&lt; uint32_t, MAX</text>
<text text-anchor="middle" x="934" y="-492" font-family="Helvetica,sans-Serif" font-size="10.00" fill="#000000">_SERVICES+MAX_DISTANCE &gt;</text>
<polyline fill="none" stroke="#bfbfbf" points="852,-485 1016,-485 "/>
<text text-anchor="middle" x="934" y="-473" font-family="Helvetica,sans-Serif" font-size="10.00" fill="#000000"> </text>
<polyline fill="none" stroke="#bfbfbf" points="852,-466 1016,-466 "/>
<text text-anchor="middle" x="934" y="-454" font-family="Helvetica,sans-Serif" font-size="10.00" fill="#000000"> </text>
</g>
<!-- Node8&#45;&gt;Node2 -->
<g id="edge7" class="edge">
<title>Node8&#45;&gt;Node2</title>
<path fill="none" stroke="#404040" d="M910.1838,-446.7913C896.8495,-427.6383 879.2745,-402.3943 861.0695,-376.2452"/>
<polygon fill="none" stroke="#404040" points="860.9253,-376.0382 854.2143,-373.3995 854.0689,-366.1898 860.7799,-368.8285 860.9253,-376.0382"/>
<text text-anchor="middle" x="929.5" y="-404" font-family="Helvetica,sans-Serif" font-size="10.00" fill="#000000"> +mServicesKey</text>
</g>
<!-- Node9 -->
<g id="node9" class="node">
<title>Node9</title>
<polygon fill="none" stroke="#bfbfbf" points="1034,-447 1034,-515 1164,-515 1164,-447 1034,-447"/>
<text text-anchor="start" x="1042" y="-503" font-family="Helvetica,sans-Serif" font-size="10.00" fill="#000000">vector&lt; o2::framework</text>
<text text-anchor="middle" x="1099" y="-492" font-family="Helvetica,sans-Serif" font-size="10.00" fill="#000000">::ServiceEOSHandle &gt;</text>
<polyline fill="none" stroke="#bfbfbf" points="1034,-485 1164,-485 "/>
<text text-anchor="middle" x="1099" y="-473" font-family="Helvetica,sans-Serif" font-size="10.00" fill="#000000"> </text>
<polyline fill="none" stroke="#bfbfbf" points="1034,-466 1164,-466 "/>
<text text-anchor="middle" x="1099" y="-454" font-family="Helvetica,sans-Serif" font-size="10.00" fill="#000000"> </text>
</g>
<!-- Node9&#45;&gt;Node2 -->
<g id="edge8" class="edge">
<title>Node9&#45;&gt;Node2</title>
<path fill="none" stroke="#404040" d="M1052.4859,-446.9616C1028.9971,-429.8177 1000.0311,-408.7441 974,-390 938.3392,-364.3218 899.0583,-336.286 864.5055,-311.7081"/>
<polygon fill="none" stroke="#404040" points="864.1991,-311.4903 856.9913,-311.2732 854.4194,-304.5363 861.6272,-304.7534 864.1991,-311.4903"/>
<text text-anchor="middle" x="1067.5" y="-409.5" font-family="Helvetica,sans-Serif" font-size="10.00" fill="#000000"> +mPreEOSHandles</text>
<text text-anchor="middle" x="1067.5" y="-398.5" font-family="Helvetica,sans-Serif" font-size="10.00" fill="#000000">+mPostEOSHandles</text>
</g>
<!-- Node10 -->
<g id="node10" class="node">
<title>Node10</title>
<polygon fill="none" stroke="#bfbfbf" points="1182.5,-452.5 1182.5,-509.5 1211.5,-509.5 1211.5,-452.5 1182.5,-452.5"/>
<text text-anchor="middle" x="1197" y="-497.5" font-family="Helvetica,sans-Serif" font-size="10.00" fill="#000000">int</text>
<polyline fill="none" stroke="#bfbfbf" points="1182.5,-490.5 1211.5,-490.5 "/>
<text text-anchor="middle" x="1197" y="-478.5" font-family="Helvetica,sans-Serif" font-size="10.00" fill="#000000"> </text>
<polyline fill="none" stroke="#bfbfbf" points="1182.5,-471.5 1211.5,-471.5 "/>
<text text-anchor="middle" x="1197" y="-459.5" font-family="Helvetica,sans-Serif" font-size="10.00" fill="#000000"> </text>
</g>
<!-- Node10&#45;&gt;Node2 -->
<g id="edge9" class="edge">
<title>Node10&#45;&gt;Node2</title>
<path fill="none" stroke="#404040" d="M1182.4327,-454.5408C1179.5082,-449.8886 1176.3098,-445.197 1173,-441 1152.9547,-415.5818 1147.9985,-407.8601 1121,-390 1041.2568,-337.2481 939.3692,-297.5272 865.7526,-272.936"/>
<polygon fill="none" stroke="#404040" points="865.5836,-272.8803 858.6322,-274.7984 854.1881,-269.1195 861.1394,-267.2014 865.5836,-272.8803"/>
<text text-anchor="middle" x="1215.5" y="-415" font-family="Helvetica,sans-Serif" font-size="10.00" fill="#000000"> +MAX_DISTANCE</text>
<text text-anchor="middle" x="1215.5" y="-404" font-family="Helvetica,sans-Serif" font-size="10.00" fill="#000000">+MAX_SERVICES</text>
<text text-anchor="middle" x="1215.5" y="-393" font-family="Helvetica,sans-Serif" font-size="10.00" fill="#000000">+MAX_SERVICES_MASK</text>
</g>
<!-- Node11 -->
<g id="node11" class="node">
<title>Node11</title>
<polygon fill="none" stroke="#bfbfbf" points="1265,-441.5 1265,-520.5 1405,-520.5 1405,-441.5 1265,-441.5"/>
<text text-anchor="start" x="1273" y="-508.5" font-family="Helvetica,sans-Serif" font-size="10.00" fill="#000000">array&lt; std::atomic</text>
<text text-anchor="start" x="1273" y="-497.5" font-family="Helvetica,sans-Serif" font-size="10.00" fill="#000000">&lt; bool &gt;, MAX_SERVICES</text>
<text text-anchor="middle" x="1335" y="-486.5" font-family="Helvetica,sans-Serif" font-size="10.00" fill="#000000">+MAX_DISTANCE &gt;</text>
<polyline fill="none" stroke="#bfbfbf" points="1265,-479.5 1405,-479.5 "/>
<text text-anchor="middle" x="1335" y="-467.5" font-family="Helvetica,sans-Serif" font-size="10.00" fill="#000000"> </text>
<polyline fill="none" stroke="#bfbfbf" points="1265,-460.5 1405,-460.5 "/>
<text text-anchor="middle" x="1335" y="-448.5" font-family="Helvetica,sans-Serif" font-size="10.00" fill="#000000"> </text>
</g>
<!-- Node11&#45;&gt;Node2 -->
<g id="edge10" class="edge">
<title>Node11&#45;&gt;Node2</title>
<path fill="none" stroke="#404040" d="M1317.8023,-441.2518C1308.1846,-423.2538 1294.5606,-403.1185 1277,-390 1154.4131,-298.422 975.9921,-264.2011 866.4841,-251.4708"/>
<polygon fill="none" stroke="#404040" points="866.3915,-251.4605 859.9843,-254.7695 854.4657,-250.1279 860.8728,-246.8189 866.3915,-251.4605"/>
<text text-anchor="middle" x="1356" y="-404" font-family="Helvetica,sans-Serif" font-size="10.00" fill="#000000"> +mServicesBooked</text>
</g>
</g>
</svg>
        <g id="navigator" transform="translate(0 0)" fill="#404254">
                <rect fill="#f2f5e9" fill-opacity="0.5" stroke="#606060" stroke-width=".5" x="0" y="0" width="60" height="60"/>
                <use id="zoomplus" xlink:href="#zoomPlus" x="17" y="9" onmousedown="handleZoom(evt,'in')"/>
                <use id="zoomminus" xlink:href="#zoomMin" x="42" y="9" onmousedown="handleZoom(evt,'out')"/>
                <use id="reset" xlink:href="#resetDef" x="30" y="36" onmousedown="handleReset()"/>
                <g id="arrowUp" xlink:href="#dirArrow" transform="translate(30 24)" onmousedown="handlePan(0,-1)">
                  <use xlink:href="#rim" fill="#404040">
                        <set attributeName="fill" to="#808080" begin="arrowUp.mouseover" end="arrowUp.mouseout"/>
                  </use>
                  <path fill="none" stroke="white" stroke-width="1.5" d="M0,-3.0v7 M-2.5,-0.5L0,-3.0L2.5,-0.5"/>
                </g>
                <g id="arrowRight" xlink:href="#dirArrow" transform="rotate(90) translate(36 -43)" onmousedown="handlePan(1,0)">
                  <use xlink:href="#rim" fill="#404040">
                        <set attributeName="fill" to="#808080" begin="arrowRight.mouseover" end="arrowRight.mouseout"/>
                  </use>
                  <path fill="none" stroke="white" stroke-width="1.5" d="M0,-3.0v7 M-2.5,-0.5L0,-3.0L2.5,-0.5"/>
                </g>
                <g id="arrowDown" xlink:href="#dirArrow" transform="rotate(180) translate(-30 -48)" onmousedown="handlePan(0,1)">
                  <use xlink:href="#rim" fill="#404040">
                        <set attributeName="fill" to="#808080" begin="arrowDown.mouseover" end="arrowDown.mouseout"/>
                  </use>
                  <path fill="none" stroke="white" stroke-width="1.5" d="M0,-3.0v7 M-2.5,-0.5L0,-3.0L2.5,-0.5"/>
                </g>
                <g id="arrowLeft" xlink:href="#dirArrow" transform="rotate(270) translate(-36 17)" onmousedown="handlePan(-1,0)">
                  <use xlink:href="#rim" fill="#404040">
                        <set attributeName="fill" to="#808080" begin="arrowLeft.mouseover" end="arrowLeft.mouseout"/>
                  </use>
                  <path fill="none" stroke="white" stroke-width="1.5" d="M0,-3.0v7 M-2.5,-0.5L0,-3.0L2.5,-0.5"/>
                </g>
        </g>
        <svg viewBox="0 0 15 15" width="100%" height="30px" preserveAspectRatio="xMaxYMin meet">
         <g id="arrow_out" transform="scale(0.3 0.3)">
          <a xlink:href="classo2_1_1framework_1_1DanglingContext__coll__graph_org.svg" target="_base">
           <rect id="button" ry="5" rx="5" y="6" x="6" height="38" width="38"
                fill="#f2f5e9" fill-opacity="0.5" stroke="#606060" stroke-width="1.0"/>
           <path id="arrow"
             d="M 11.500037,31.436501 C 11.940474,20.09759 22.043105,11.32322 32.158766,21.979434 L 37.068811,17.246167 C 37.068811,17.246167 37.088388,32 37.088388,32 L 22.160133,31.978069 C 22.160133,31.978069 26.997745,27.140456 26.997745,27.140456 C 18.528582,18.264221 13.291696,25.230495 11.500037,31.436501 z"
             style="fill:#404040;"/>
          </a>
         </g>
        </svg>
</svg>
