<?xml version="1.0" encoding="UTF-8" standalone="no"?>
<!DOCTYPE svg PUBLIC "-//W3C//DTD SVG 1.1//EN"
 "http://www.w3.org/Graphics/SVG/1.1/DTD/svg11.dtd">
<!-- Generated by graphviz version 2.40.1 (20161225.0304)
 -->
<!-- Title: /home/travis/build/AliceO2Group/AliceO2/Detectors/FIT/FT0/raw/src/DataBlockReader.cxx Pages: 1 -->
<svg width="2007pt" height="520pt"
 viewBox="0.00 0.00 2007.00 520.00" xmlns="http://www.w3.org/2000/svg" xmlns:xlink="http://www.w3.org/1999/xlink">
<g id="graph0" class="graph" transform="scale(1 1) rotate(0) translate(4 516)">
<title>/home/travis/build/AliceO2Group/AliceO2/Detectors/FIT/FT0/raw/src/DataBlockReader.cxx</title>
<!-- Node0 -->
<g id="node1" class="node">
<title>Node0</title>
<polygon fill="#bfbfbf" stroke="#000000" points="908,-459.5 908,-511.5 1048,-511.5 1048,-459.5 908,-459.5"/>
<text text-anchor="start" x="916" y="-499.5" font-family="Helvetica,sans-Serif" font-size="10.00" fill="#000000">/home/travis/build</text>
<text text-anchor="start" x="916" y="-488.5" font-family="Helvetica,sans-Serif" font-size="10.00" fill="#000000">/AliceO2Group/AliceO2</text>
<text text-anchor="start" x="916" y="-477.5" font-family="Helvetica,sans-Serif" font-size="10.00" fill="#000000">/Detectors/FIT/FT0/raw</text>
<text text-anchor="middle" x="978" y="-466.5" font-family="Helvetica,sans-Serif" font-size="10.00" fill="#000000">/src/DataBlockReader.cxx</text>
</g>
<!-- Node1 -->
<g id="node2" class="node">
<title>Node1</title>
<g id="a_node2"><a xlink:href="../../d2/dbb/DataBlockReader_8h.html" target="_top" xlink:title="FT0Raw/DataBlockReader.h">
<polygon fill="none" stroke="#000000" points="903,-403.5 903,-422.5 1053,-422.5 1053,-403.5 903,-403.5"/>
<text text-anchor="middle" x="978" y="-410.5" font-family="Helvetica,sans-Serif" font-size="10.00" fill="#000000">FT0Raw/DataBlockReader.h</text>
</a>
</g>
</g>
<!-- Node0&#45;&gt;Node1 -->
<g id="edge1" class="edge">
<title>Node0&#45;&gt;Node1</title>
<path fill="none" stroke="#191970" d="M978,-459.3258C978,-450.5142 978,-440.8397 978,-432.621"/>
<polygon fill="#191970" stroke="#191970" points="981.5001,-432.534 978,-422.534 974.5001,-432.534 981.5001,-432.534"/>
</g>
<!-- Node2 -->
<g id="node3" class="node">
<title>Node2</title>
<polygon fill="none" stroke="#bfbfbf" points="1420,-118 1420,-137 1480,-137 1480,-118 1420,-118"/>
<text text-anchor="middle" x="1450" y="-125" font-family="Helvetica,sans-Serif" font-size="10.00" fill="#000000">iostream</text>
</g>
<!-- Node1&#45;&gt;Node2 -->
<g id="edge2" class="edge">
<title>Node1&#45;&gt;Node2</title>
<path fill="none" stroke="#191970" d="M1053.1284,-405.7368C1263.9239,-384.6046 1849.159,-320.4868 1904,-255 1959.7986,-188.3696 1610.7785,-144.5623 1490.0286,-131.5508"/>
<polygon fill="#191970" stroke="#191970" points="1490.3819,-128.0688 1480.0679,-130.4918 1489.6418,-135.0295 1490.3819,-128.0688"/>
</g>
<!-- Node3 -->
<g id="node4" class="node">
<title>Node3</title>
<polygon fill="none" stroke="#bfbfbf" points="987.5,-235.5 987.5,-254.5 1034.5,-254.5 1034.5,-235.5 987.5,-235.5"/>
<text text-anchor="middle" x="1011" y="-242.5" font-family="Helvetica,sans-Serif" font-size="10.00" fill="#000000">vector</text>
</g>
<!-- Node1&#45;&gt;Node3 -->
<g id="edge3" class="edge">
<title>Node1&#45;&gt;Node3</title>
<path fill="none" stroke="#191970" d="M982.8882,-403.4004C987.3089,-394.277 993.6263,-380.0502 997,-367 1006.1208,-331.7184 1009.3032,-289.162 1010.4111,-264.7745"/>
<polygon fill="#191970" stroke="#191970" points="1013.9133,-264.7819 1010.7967,-254.6559 1006.9183,-264.5153 1013.9133,-264.7819"/>
</g>
<!-- Node4 -->
<g id="node5" class="node">
<title>Node4</title>
<polygon fill="none" stroke="#bfbfbf" points="1043.5,-.5 1043.5,-19.5 1102.5,-19.5 1102.5,-.5 1043.5,-.5"/>
<text text-anchor="middle" x="1073" y="-7.5" font-family="Helvetica,sans-Serif" font-size="10.00" fill="#000000">Rtypes.h</text>
</g>
<!-- Node1&#45;&gt;Node4 -->
<g id="edge4" class="edge">
<title>Node1&#45;&gt;Node4</title>
<path fill="none" stroke="#191970" d="M902.8109,-409.5068C713.6491,-399.7198 233,-368.2361 233,-301 233,-301 233,-301 233,-127.5 233,-83.338 78.0865,-125.6146 405,-56 526.1111,-30.21 908.2646,-15.4875 1033.1121,-11.2726"/>
<polygon fill="#191970" stroke="#191970" points="1033.4821,-14.7623 1043.3598,-10.9308 1033.2487,-7.7662 1033.4821,-14.7623"/>
</g>
<!-- Node5 -->
<g id="node6" class="node">
<title>Node5</title>
<g id="a_node6"><a xlink:href="../../d6/d84/DataBlockRaw_8h.html" target="_top" xlink:title="FT0Raw/DataBlockRaw.h">
<polygon fill="none" stroke="#000000" points="1207.5,-291.5 1207.5,-310.5 1344.5,-310.5 1344.5,-291.5 1207.5,-291.5"/>
<text text-anchor="middle" x="1276" y="-298.5" font-family="Helvetica,sans-Serif" font-size="10.00" fill="#000000">FT0Raw/DataBlockRaw.h</text>
</a>
</g>
</g>
<!-- Node1&#45;&gt;Node5 -->
<g id="edge5" class="edge">
<title>Node1&#45;&gt;Node5</title>
<path fill="none" stroke="#191970" d="M1012.2191,-403.4385C1042.2414,-394.7787 1086.9257,-381.23 1125,-367 1168.0446,-350.9124 1216.5162,-329.0314 1246.6606,-314.9594"/>
<polygon fill="#191970" stroke="#191970" points="1248.2082,-318.0994 1255.7737,-310.6822 1245.2341,-311.7626 1248.2082,-318.0994"/>
</g>
<!-- Node6 -->
<g id="node7" class="node">
<title>Node6</title>
<g id="a_node7"><a xlink:href="../../d9/d80/InteractionRecord_8h.html" target="_top" xlink:title="CommonDataFormat/Interaction\lRecord.h">
<polygon fill="none" stroke="#000000" points="489,-112.5 489,-142.5 663,-142.5 663,-112.5 489,-112.5"/>
<text text-anchor="start" x="497" y="-130.5" font-family="Helvetica,sans-Serif" font-size="10.00" fill="#000000">CommonDataFormat/Interaction</text>
<text text-anchor="middle" x="576" y="-119.5" font-family="Helvetica,sans-Serif" font-size="10.00" fill="#000000">Record.h</text>
</a>
</g>
</g>
<!-- Node1&#45;&gt;Node6 -->
<g id="edge68" class="edge">
<title>Node1&#45;&gt;Node6</title>
<path fill="none" stroke="#191970" d="M902.991,-410.172C818.4614,-405.6872 687.5434,-394.4329 647,-367 613.3931,-344.2605 574.8647,-203.8774 574,-199 571.3146,-183.8524 571.6966,-166.6216 572.8061,-152.871"/>
<polygon fill="#191970" stroke="#191970" points="576.3111,-152.9903 573.8071,-142.6957 569.3448,-152.3049 576.3111,-152.9903"/>
</g>
<!-- Node13 -->
<g id="node14" class="node">
<title>Node13</title>
<g id="a_node14"><a xlink:href="../../d0/d0a/DataFormats_2Detectors_2FIT_2FT0_2include_2DataFormatsFT0_2Digit_8h.html" target="_top" xlink:title="DataFormatsFT0/Digit.h">
<polygon fill="none" stroke="#000000" points="817,-179.5 817,-198.5 949,-198.5 949,-179.5 817,-179.5"/>
<text text-anchor="middle" x="883" y="-186.5" font-family="Helvetica,sans-Serif" font-size="10.00" fill="#000000">DataFormatsFT0/Digit.h</text>
</a>
</g>
</g>
<!-- Node1&#45;&gt;Node13 -->
<g id="edge70" class="edge">
<title>Node1&#45;&gt;Node13</title>
<path fill="none" stroke="#191970" d="M902.9541,-406.0864C829.4915,-398.4465 723.3393,-384.8266 686,-367 652.4913,-351.0022 639.0764,-344.9333 624,-311 589.2163,-232.7107 718.6735,-204.5394 806.9815,-194.4881"/>
<polygon fill="#191970" stroke="#191970" points="807.4308,-197.9601 816.9965,-193.4049 806.678,-191.0006 807.4308,-197.9601"/>
</g>
<!-- Node19 -->
<g id="node20" class="node">
<title>Node19</title>
<g id="a_node20"><a xlink:href="../../dc/d44/FIT_2FT0_2include_2DataFormatsFT0_2ChannelData_8h.html" target="_top" xlink:title="DataFormatsFT0/ChannelData.h">
<polygon fill="none" stroke="#000000" points="261,-118 261,-137 433,-137 433,-118 261,-118"/>
<text text-anchor="middle" x="347" y="-125" font-family="Helvetica,sans-Serif" font-size="10.00" fill="#000000">DataFormatsFT0/ChannelData.h</text>
</a>
</g>
</g>
<!-- Node1&#45;&gt;Node19 -->
<g id="edge71" class="edge">
<title>Node1&#45;&gt;Node19</title>
<path fill="none" stroke="#191970" d="M902.826,-407.4292C735.5091,-394.0217 347,-356.8738 347,-301 347,-301 347,-301 347,-245 347,-210.6399 347,-170.628 347,-147.2764"/>
<polygon fill="#191970" stroke="#191970" points="350.5001,-147.2489 347,-137.2489 343.5001,-147.249 350.5001,-147.2489"/>
</g>
<!-- Node20 -->
<g id="node21" class="node">
<title>Node20</title>
<polygon fill="none" stroke="#bfbfbf" points="1903.5,-118 1903.5,-137 1960.5,-137 1960.5,-118 1903.5,-118"/>
<text text-anchor="middle" x="1932" y="-125" font-family="Helvetica,sans-Serif" font-size="10.00" fill="#000000">gsl/span</text>
</g>
<!-- Node1&#45;&gt;Node20 -->
<g id="edge72" class="edge">
<title>Node1&#45;&gt;Node20</title>
<path fill="none" stroke="#191970" d="M1053.0766,-408.6992C1288.8639,-394.7005 1999,-348.5892 1999,-301 1999,-301 1999,-301 1999,-245 1999,-204.8126 1969.058,-165.8457 1949.2066,-144.4271"/>
<polygon fill="#191970" stroke="#191970" points="1951.6287,-141.8963 1942.1759,-137.1114 1946.5816,-146.7468 1951.6287,-141.8963"/>
</g>
<!-- Node22 -->
<g id="node23" class="node">
<title>Node22</title>
<g id="a_node23"><a xlink:href="../../d4/dee/RAWDataHeader_8h.html" target="_top" xlink:title="Definition of the RAW Data Header. ">
<polygon fill="none" stroke="#000000" points="967.5,-179.5 967.5,-198.5 1116.5,-198.5 1116.5,-179.5 967.5,-179.5"/>
<text text-anchor="middle" x="1042" y="-186.5" font-family="Helvetica,sans-Serif" font-size="10.00" fill="#000000">Headers/RAWDataHeader.h</text>
</a>
</g>
</g>
<!-- Node1&#45;&gt;Node22 -->
<g id="edge69" class="edge">
<title>Node1&#45;&gt;Node22</title>
<path fill="none" stroke="#191970" d="M919.833,-403.4905C811.708,-384.5238 593.9988,-339.6134 632,-291 653.4651,-263.5406 869.06,-220.6303 978.6905,-200.3484"/>
<polygon fill="#191970" stroke="#191970" points="979.4384,-203.7696 988.639,-198.5162 978.1705,-196.8854 979.4384,-203.7696"/>
</g>
<!-- Node30 -->
<g id="node31" class="node">
<title>Node30</title>
<polygon fill="none" stroke="#bfbfbf" points="1773.5,-235.5 1773.5,-254.5 1894.5,-254.5 1894.5,-235.5 1773.5,-235.5"/>
<text text-anchor="middle" x="1834" y="-242.5" font-family="Helvetica,sans-Serif" font-size="10.00" fill="#000000">boost/mpl/inherit.hpp</text>
</g>
<!-- Node1&#45;&gt;Node30 -->
<g id="edge66" class="edge">
<title>Node1&#45;&gt;Node30</title>
<path fill="none" stroke="#191970" d="M1026.4749,-403.4862C1173.7303,-374.5856 1615.5012,-287.8829 1775.4085,-256.4993"/>
<polygon fill="#191970" stroke="#191970" points="1776.3888,-259.8737 1785.5275,-254.5133 1775.0407,-253.0048 1776.3888,-259.8737"/>
</g>
<!-- Node31 -->
<g id="node32" class="node">
<title>Node31</title>
<polygon fill="none" stroke="#bfbfbf" points="1052.5,-235.5 1052.5,-254.5 1171.5,-254.5 1171.5,-235.5 1052.5,-235.5"/>
<text text-anchor="middle" x="1112" y="-242.5" font-family="Helvetica,sans-Serif" font-size="10.00" fill="#000000">boost/mpl/vector.hpp</text>
</g>
<!-- Node1&#45;&gt;Node31 -->
<g id="edge67" class="edge">
<title>Node1&#45;&gt;Node31</title>
<path fill="none" stroke="#191970" d="M985.5884,-403.4862C1007.2291,-376.3545 1069.503,-298.2798 1097.7565,-262.8576"/>
<polygon fill="#191970" stroke="#191970" points="1100.6617,-264.8281 1104.1611,-254.8279 1095.1892,-260.4632 1100.6617,-264.8281"/>
</g>
<!-- Node33 -->
<g id="node34" class="node">
<title>Node33</title>
<g id="a_node34"><a xlink:href="../../da/d89/DigitBlockFT0_8h.html" target="_top" xlink:title="FT0Raw/DigitBlockFT0.h">
<polygon fill="none" stroke="#000000" points="854,-347.5 854,-366.5 988,-366.5 988,-347.5 854,-347.5"/>
<text text-anchor="middle" x="921" y="-354.5" font-family="Helvetica,sans-Serif" font-size="10.00" fill="#000000">FT0Raw/DigitBlockFT0.h</text>
</a>
</g>
</g>
<!-- Node1&#45;&gt;Node33 -->
<g id="edge53" class="edge">
<title>Node1&#45;&gt;Node33</title>
<path fill="none" stroke="#191970" d="M968.0714,-403.2455C959.8162,-395.1352 947.8791,-383.4075 938.0918,-373.7919"/>
<polygon fill="#191970" stroke="#191970" points="940.4011,-371.1542 930.8149,-366.6427 935.4954,-376.1476 940.4011,-371.1542"/>
</g>
<!-- Node5&#45;&gt;Node2 -->
<g id="edge6" class="edge">
<title>Node5&#45;&gt;Node2</title>
<path fill="none" stroke="#191970" d="M1344.7757,-295.3873C1415.5949,-288.6078 1520.3518,-275.493 1555,-255 1582.2439,-238.8864 1588.6539,-228.9138 1599,-199 1615.4169,-151.5334 1539.716,-135.55 1490.1987,-130.1879"/>
<polygon fill="#191970" stroke="#191970" points="1490.3656,-126.6876 1480.0723,-129.1974 1489.6841,-133.6544 1490.3656,-126.6876"/>
</g>
<!-- Node5&#45;&gt;Node3 -->
<g id="edge7" class="edge">
<title>Node5&#45;&gt;Node3</title>
<path fill="none" stroke="#191970" d="M1218.6406,-291.4573C1173.5555,-283.552 1109.02,-271.3477 1044.6014,-255.2276"/>
<polygon fill="#191970" stroke="#191970" points="1045.2377,-251.7782 1034.6843,-252.7141 1043.5179,-258.5637 1045.2377,-251.7782"/>
</g>
<!-- Node5&#45;&gt;Node4 -->
<g id="edge8" class="edge">
<title>Node5&#45;&gt;Node4</title>
<path fill="none" stroke="#191970" d="M1344.6608,-292.4546C1478.5579,-275.0784 1763.8945,-234.2808 1791,-199 1801.4685,-185.3741 1823.6072,-157.2481 1790,-112 1741.0552,-46.1017 1694.5077,-72.0214 1614,-56 1517.8194,-36.8596 1220.5965,-18.445 1112.6747,-12.2207"/>
<polygon fill="#191970" stroke="#191970" points="1112.7214,-8.7177 1102.5376,-11.6399 1112.3209,-15.7063 1112.7214,-8.7177"/>
</g>
<!-- Node5&#45;&gt;Node6 -->
<g id="edge9" class="edge">
<title>Node5&#45;&gt;Node6</title>
<path fill="none" stroke="#191970" d="M1262.7137,-291.3014C1238.5697,-273.7621 1189.1395,-238.2741 1180,-235 1004.0419,-171.9645 943.1026,-241.1113 761,-199 709.4166,-187.0713 653.0591,-163.6784 616.271,-146.8959"/>
<polygon fill="#191970" stroke="#191970" points="617.4411,-143.5811 606.8948,-142.568 614.5074,-149.9368 617.4411,-143.5811"/>
</g>
<!-- Node12 -->
<g id="node13" class="node">
<title>Node12</title>
<g id="a_node13"><a xlink:href="../../d3/dcb/FT0_2include_2DataFormatsFT0_2RawEventData_8h.html" target="_top" xlink:title="DataFormatsFT0/RawEventData.h">
<polygon fill="none" stroke="#000000" points="1364.5,-235.5 1364.5,-254.5 1545.5,-254.5 1545.5,-235.5 1364.5,-235.5"/>
<text text-anchor="middle" x="1455" y="-242.5" font-family="Helvetica,sans-Serif" font-size="10.00" fill="#000000">DataFormatsFT0/RawEventData.h</text>
</a>
</g>
</g>
<!-- Node5&#45;&gt;Node12 -->
<g id="edge16" class="edge">
<title>Node5&#45;&gt;Node12</title>
<path fill="none" stroke="#191970" d="M1306.7712,-291.3733C1336.665,-282.021 1382.2093,-267.7725 1414.9217,-257.5385"/>
<polygon fill="#191970" stroke="#191970" points="1416.1315,-260.8273 1424.6303,-254.5011 1414.0414,-254.1466 1416.1315,-260.8273"/>
</g>
<!-- Node5&#45;&gt;Node20 -->
<g id="edge47" class="edge">
<title>Node5&#45;&gt;Node20</title>
<path fill="none" stroke="#191970" d="M1344.5657,-296.628C1451.2335,-289.3683 1651.8484,-273.7529 1721,-255 1741.7322,-249.3777 1744.9341,-242.6677 1765,-235 1815.0287,-215.8827 1836.495,-230.2356 1880,-199 1898.9983,-185.3597 1913.803,-162.6261 1922.6756,-146.4567"/>
<polygon fill="#191970" stroke="#191970" points="1925.8906,-147.8614 1927.418,-137.3772 1919.6859,-144.6206 1925.8906,-147.8614"/>
</g>
<!-- Node24 -->
<g id="node25" class="node">
<title>Node24</title>
<polygon fill="none" stroke="#bfbfbf" points="1252,-118 1252,-137 1304,-137 1304,-118 1252,-118"/>
<text text-anchor="middle" x="1278" y="-125" font-family="Helvetica,sans-Serif" font-size="10.00" fill="#000000">cassert</text>
</g>
<!-- Node5&#45;&gt;Node24 -->
<g id="edge52" class="edge">
<title>Node5&#45;&gt;Node24</title>
<path fill="none" stroke="#191970" d="M1267.6044,-291.1604C1256.0712,-277.8603 1234.4265,-253.664 1214,-235 1194.8346,-217.4882 1179.371,-222.3383 1168,-199 1164.1066,-191.0091 1163.2298,-186.5005 1168,-179 1184.1122,-153.6659 1216.3291,-140.5816 1241.7522,-133.9577"/>
<polygon fill="#191970" stroke="#191970" points="1242.8907,-137.2849 1251.8137,-131.5726 1241.276,-130.4736 1242.8907,-137.2849"/>
</g>
<!-- Node25 -->
<g id="node26" class="node">
<title>Node25</title>
<polygon fill="none" stroke="#bfbfbf" points="1322.5,-118 1322.5,-137 1363.5,-137 1363.5,-118 1322.5,-118"/>
<text text-anchor="middle" x="1343" y="-125" font-family="Helvetica,sans-Serif" font-size="10.00" fill="#000000">tuple</text>
</g>
<!-- Node5&#45;&gt;Node25 -->
<g id="edge50" class="edge">
<title>Node5&#45;&gt;Node25</title>
<path fill="none" stroke="#191970" d="M1271.7898,-291.4902C1265.643,-278.1498 1253.3671,-253.4476 1239,-235 1224.7052,-216.6453 1210.1925,-220.3713 1201,-199 1197.4877,-190.8344 1195.7639,-186.183 1201,-179 1231.7998,-136.7484 1264.719,-163.0692 1313,-143 1314.1876,-142.5064 1315.3919,-141.9835 1316.6014,-141.4401"/>
<polygon fill="#191970" stroke="#191970" points="1318.294,-144.5096 1325.7821,-137.0144 1315.2543,-138.2041 1318.294,-144.5096"/>
</g>
<!-- Node5&#45;&gt;Node30 -->
<g id="edge48" class="edge">
<title>Node5&#45;&gt;Node30</title>
<path fill="none" stroke="#191970" d="M1344.8717,-295.261C1438.6489,-287.2594 1611.707,-271.8275 1759,-255 1760.4683,-254.8323 1761.9523,-254.6599 1763.4479,-254.4838"/>
<polygon fill="#191970" stroke="#191970" points="1763.9356,-257.9504 1773.442,-253.2731 1763.0937,-251.0012 1763.9356,-257.9504"/>
</g>
<!-- Node5&#45;&gt;Node31 -->
<g id="edge49" class="edge">
<title>Node5&#45;&gt;Node31</title>
<path fill="none" stroke="#191970" d="M1247.8074,-291.3733C1220.6547,-282.1016 1179.4093,-268.0178 1149.4975,-257.804"/>
<polygon fill="#191970" stroke="#191970" points="1150.4192,-254.4204 1139.8247,-254.5011 1148.1572,-261.0449 1150.4192,-254.4204"/>
</g>
<!-- Node32 -->
<g id="node33" class="node">
<title>Node32</title>
<polygon fill="none" stroke="#bfbfbf" points="1304,-235.5 1304,-254.5 1346,-254.5 1346,-235.5 1304,-235.5"/>
<text text-anchor="middle" x="1325" y="-242.5" font-family="Helvetica,sans-Serif" font-size="10.00" fill="#000000">array</text>
</g>
<!-- Node5&#45;&gt;Node32 -->
<g id="edge51" class="edge">
<title>Node5&#45;&gt;Node32</title>
<path fill="none" stroke="#191970" d="M1284.5351,-291.2455C1291.4912,-283.2958 1301.4883,-271.8706 1309.8051,-262.3656"/>
<polygon fill="#191970" stroke="#191970" points="1312.6116,-264.4732 1316.5627,-254.6427 1307.3436,-259.8637 1312.6116,-264.4732"/>
</g>
<!-- Node7 -->
<g id="node8" class="node">
<title>Node7</title>
<g id="a_node8"><a xlink:href="../../d2/d45/GPUCommonRtypes_8h.html" target="_top" xlink:title="GPUCommonRtypes.h">
<polygon fill="none" stroke="#000000" points="897.5,-56.5 897.5,-75.5 1022.5,-75.5 1022.5,-56.5 897.5,-56.5"/>
<text text-anchor="middle" x="960" y="-63.5" font-family="Helvetica,sans-Serif" font-size="10.00" fill="#000000">GPUCommonRtypes.h</text>
</a>
</g>
</g>
<!-- Node6&#45;&gt;Node7 -->
<g id="edge10" class="edge">
<title>Node6&#45;&gt;Node7</title>
<path fill="none" stroke="#191970" d="M663.1199,-113.4272C666.1161,-112.9453 669.0829,-112.4685 672,-112 746.3974,-100.0525 831.6199,-86.4511 889.9418,-77.1559"/>
<polygon fill="#191970" stroke="#191970" points="890.8233,-80.5597 900.1479,-75.5295 889.7216,-73.6469 890.8233,-80.5597"/>
</g>
<!-- Node8 -->
<g id="node9" class="node">
<title>Node8</title>
<polygon fill="none" stroke="#bfbfbf" points="489.5,-56.5 489.5,-75.5 538.5,-75.5 538.5,-56.5 489.5,-56.5"/>
<text text-anchor="middle" x="514" y="-63.5" font-family="Helvetica,sans-Serif" font-size="10.00" fill="#000000">iosfwd</text>
</g>
<!-- Node6&#45;&gt;Node8 -->
<g id="edge12" class="edge">
<title>Node6&#45;&gt;Node8</title>
<path fill="none" stroke="#191970" d="M560.6742,-112.2977C551.7093,-103.4052 540.3712,-92.1586 531.1149,-82.9769"/>
<polygon fill="#191970" stroke="#191970" points="533.4915,-80.4045 523.927,-75.8469 528.5618,-85.3742 533.4915,-80.4045"/>
</g>
<!-- Node9 -->
<g id="node10" class="node">
<title>Node9</title>
<polygon fill="none" stroke="#bfbfbf" points="1075,-56.5 1075,-75.5 1125,-75.5 1125,-56.5 1075,-56.5"/>
<text text-anchor="middle" x="1100" y="-63.5" font-family="Helvetica,sans-Serif" font-size="10.00" fill="#000000">cstdint</text>
</g>
<!-- Node6&#45;&gt;Node9 -->
<g id="edge13" class="edge">
<title>Node6&#45;&gt;Node9</title>
<path fill="none" stroke="#191970" d="M663.0875,-113.2047C666.0929,-112.7861 669.0705,-112.383 672,-112 831.0025,-91.2107 871.8348,-95.5046 1031,-76 1042.0167,-74.65 1053.9938,-72.9841 1064.8299,-71.4019"/>
<polygon fill="#191970" stroke="#191970" points="1065.4225,-74.8524 1074.801,-69.9235 1064.3958,-67.9281 1065.4225,-74.8524"/>
</g>
<!-- Node10 -->
<g id="node11" class="node">
<title>Node10</title>
<polygon fill="none" stroke="#bfbfbf" points="556.5,-56.5 556.5,-75.5 603.5,-75.5 603.5,-56.5 556.5,-56.5"/>
<text text-anchor="middle" x="580" y="-63.5" font-family="Helvetica,sans-Serif" font-size="10.00" fill="#000000">cmath</text>
</g>
<!-- Node6&#45;&gt;Node10 -->
<g id="edge14" class="edge">
<title>Node6&#45;&gt;Node10</title>
<path fill="none" stroke="#191970" d="M576.9888,-112.2977C577.5035,-104.3834 578.1396,-94.6043 578.6943,-86.0759"/>
<polygon fill="#191970" stroke="#191970" points="582.203,-86.053 579.3595,-75.8469 575.2178,-85.5986 582.203,-86.053"/>
</g>
<!-- Node11 -->
<g id="node12" class="node">
<title>Node11</title>
<g id="a_node12"><a xlink:href="../../d4/dc6/LHCConstants_8h.html" target="_top" xlink:title="Header to collect LHC related constants. ">
<polygon fill="none" stroke="#000000" points="622,-56.5 622,-75.5 812,-75.5 812,-56.5 622,-56.5"/>
<text text-anchor="middle" x="717" y="-63.5" font-family="Helvetica,sans-Serif" font-size="10.00" fill="#000000">CommonConstants/LHCConstants.h</text>
</a>
</g>
</g>
<!-- Node6&#45;&gt;Node11 -->
<g id="edge15" class="edge">
<title>Node6&#45;&gt;Node11</title>
<path fill="none" stroke="#191970" d="M610.4925,-112.4554C633.5028,-102.419 663.5086,-89.3314 685.8055,-79.6061"/>
<polygon fill="#191970" stroke="#191970" points="687.3833,-82.7364 695.15,-75.5303 684.5846,-76.3202 687.3833,-82.7364"/>
</g>
<!-- Node7&#45;&gt;Node4 -->
<g id="edge11" class="edge">
<title>Node7&#45;&gt;Node4</title>
<path fill="none" stroke="#191970" d="M979.4254,-56.3733C997.4021,-47.4644 1024.3441,-34.1127 1044.709,-24.0203"/>
<polygon fill="#191970" stroke="#191970" points="1046.4222,-27.0776 1053.8281,-19.5011 1043.3139,-20.8055 1046.4222,-27.0776"/>
</g>
<!-- Node12&#45;&gt;Node2 -->
<g id="edge43" class="edge">
<title>Node12&#45;&gt;Node2</title>
<path fill="none" stroke="#191970" d="M1454.5908,-235.3845C1453.7741,-216.1913 1451.9271,-172.786 1450.8411,-147.2663"/>
<polygon fill="#191970" stroke="#191970" points="1454.3369,-147.0905 1450.4148,-137.2484 1447.3432,-147.3882 1454.3369,-147.0905"/>
</g>
<!-- Node12&#45;&gt;Node4 -->
<g id="edge46" class="edge">
<title>Node12&#45;&gt;Node4</title>
<path fill="none" stroke="#191970" d="M1545.5862,-237.8173C1633.6703,-229.8917 1756.3114,-215.9817 1771,-199 1783.9716,-184.0034 1804.6693,-153.0689 1767,-112 1722.3236,-63.2916 1254.3337,-23.8422 1113.1194,-12.9765"/>
<polygon fill="#191970" stroke="#191970" points="1112.9987,-9.4572 1102.7613,-12.1858 1112.4658,-16.4369 1112.9987,-9.4572"/>
</g>
<!-- Node12&#45;&gt;Node6 -->
<g id="edge40" class="edge">
<title>Node12&#45;&gt;Node6</title>
<path fill="none" stroke="#191970" d="M1364.2613,-235.7905C1361.1371,-235.5167 1358.0429,-235.2522 1355,-235 1112.1955,-214.8757 1044.0306,-259.4033 808,-199 787.5809,-193.7745 784.7943,-186.241 765,-179 728.5179,-165.6544 686.9645,-153.9653 652.1285,-145.1113"/>
<polygon fill="#191970" stroke="#191970" points="652.5712,-141.6139 642.0199,-142.5733 650.8666,-148.4032 652.5712,-141.6139"/>
</g>
<!-- Node12&#45;&gt;Node13 -->
<g id="edge17" class="edge">
<title>Node12&#45;&gt;Node13</title>
<path fill="none" stroke="#191970" d="M1364.2526,-235.8884C1361.1309,-235.5867 1358.0396,-235.2898 1355,-235 1181.9038,-218.4974 1135.7675,-218.6984 959.3802,-199.1172"/>
<polygon fill="#191970" stroke="#191970" points="959.5613,-195.6158 949.2348,-197.9852 958.785,-202.5726 959.5613,-195.6158"/>
</g>
<!-- Node12&#45;&gt;Node19 -->
<g id="edge32" class="edge">
<title>Node12&#45;&gt;Node19</title>
<path fill="none" stroke="#191970" d="M1364.2629,-235.7716C1361.1382,-235.5031 1358.0435,-235.2449 1355,-235 1093.1367,-213.9257 1025.9693,-229.1913 765,-199 634.3718,-183.8877 482.5464,-155.0581 402.6899,-139.0086"/>
<polygon fill="#191970" stroke="#191970" points="403.3407,-135.5695 392.8458,-137.0215 401.9556,-142.4311 403.3407,-135.5695"/>
</g>
<!-- Node12&#45;&gt;Node22 -->
<g id="edge33" class="edge">
<title>Node12&#45;&gt;Node22</title>
<path fill="none" stroke="#191970" d="M1384.472,-235.4369C1311.7114,-225.571 1198.4073,-210.2078 1122.2617,-199.8829"/>
<polygon fill="#191970" stroke="#191970" points="1122.6167,-196.3991 1112.2371,-198.5237 1121.6761,-203.3357 1122.6167,-196.3991"/>
</g>
<!-- Node23 -->
<g id="node24" class="node">
<title>Node23</title>
<g id="a_node24"><a xlink:href="../../dd/d1f/FT0_2include_2DataFormatsFT0_2LookUpTable_8h.html" target="_top" xlink:title="DataFormatsFT0/LookUpTable.h">
<polygon fill="none" stroke="#000000" points="1210.5,-179.5 1210.5,-198.5 1381.5,-198.5 1381.5,-179.5 1210.5,-179.5"/>
<text text-anchor="middle" x="1296" y="-186.5" font-family="Helvetica,sans-Serif" font-size="10.00" fill="#000000">DataFormatsFT0/LookUpTable.h</text>
</a>
</g>
</g>
<!-- Node12&#45;&gt;Node23 -->
<g id="edge35" class="edge">
<title>Node12&#45;&gt;Node23</title>
<path fill="none" stroke="#191970" d="M1427.6669,-235.3733C1401.4566,-226.1419 1361.7016,-212.1402 1332.7332,-201.9375"/>
<polygon fill="#191970" stroke="#191970" points="1333.5712,-198.5219 1322.9764,-198.5011 1331.2458,-205.1244 1333.5712,-198.5219"/>
</g>
<!-- Node26 -->
<g id="node27" class="node">
<title>Node26</title>
<g id="a_node27"><a xlink:href="../../dd/da4/Logger_8h.html" target="_top" xlink:title="Framework/Logger.h">
<polygon fill="none" stroke="#000000" points="1646.5,-179.5 1646.5,-198.5 1761.5,-198.5 1761.5,-179.5 1646.5,-179.5"/>
<text text-anchor="middle" x="1704" y="-186.5" font-family="Helvetica,sans-Serif" font-size="10.00" fill="#000000">Framework/Logger.h</text>
</a>
</g>
</g>
<!-- Node12&#45;&gt;Node26 -->
<g id="edge41" class="edge">
<title>Node12&#45;&gt;Node26</title>
<path fill="none" stroke="#191970" d="M1497.5217,-235.4369C1540.1361,-225.8529 1605.8176,-211.0812 1651.621,-200.78"/>
<polygon fill="#191970" stroke="#191970" points="1652.6654,-204.1326 1661.6537,-198.5237 1651.1294,-197.3032 1652.6654,-204.1326"/>
</g>
<!-- Node28 -->
<g id="node29" class="node">
<title>Node28</title>
<polygon fill="none" stroke="#bfbfbf" points="1476.5,-179.5 1476.5,-198.5 1521.5,-198.5 1521.5,-179.5 1476.5,-179.5"/>
<text text-anchor="middle" x="1499" y="-186.5" font-family="Helvetica,sans-Serif" font-size="10.00" fill="#000000">utility</text>
</g>
<!-- Node12&#45;&gt;Node28 -->
<g id="edge44" class="edge">
<title>Node12&#45;&gt;Node28</title>
<path fill="none" stroke="#191970" d="M1462.6642,-235.2455C1468.8473,-227.3761 1477.7063,-216.101 1485.1289,-206.6542"/>
<polygon fill="#191970" stroke="#191970" points="1487.9975,-208.6683 1491.4236,-198.6427 1482.4932,-204.3435 1487.9975,-208.6683"/>
</g>
<!-- Node29 -->
<g id="node30" class="node">
<title>Node29</title>
<polygon fill="none" stroke="#bfbfbf" points="1540,-179.5 1540,-198.5 1590,-198.5 1590,-179.5 1540,-179.5"/>
<text text-anchor="middle" x="1565" y="-186.5" font-family="Helvetica,sans-Serif" font-size="10.00" fill="#000000">cstring</text>
</g>
<!-- Node12&#45;&gt;Node29 -->
<g id="edge45" class="edge">
<title>Node12&#45;&gt;Node29</title>
<path fill="none" stroke="#191970" d="M1474.1605,-235.2455C1491.5111,-226.4125 1517.2901,-213.2887 1536.9583,-203.2758"/>
<polygon fill="#191970" stroke="#191970" points="1538.7353,-206.2986 1546.059,-198.6427 1535.5595,-200.0605 1538.7353,-206.2986"/>
</g>
<!-- Node13&#45;&gt;Node2 -->
<g id="edge31" class="edge">
<title>Node13&#45;&gt;Node2</title>
<path fill="none" stroke="#191970" d="M949.2332,-180.0008C952.1946,-179.6514 955.1274,-179.3159 958,-179 1142.0275,-158.7604 1189.7417,-169.3088 1373,-143 1385.0057,-141.2764 1397.964,-138.8795 1409.7636,-136.4851"/>
<polygon fill="#191970" stroke="#191970" points="1410.7054,-139.8641 1419.7816,-134.3986 1409.2781,-133.0112 1410.7054,-139.8641"/>
</g>
<!-- Node13&#45;&gt;Node4 -->
<g id="edge28" class="edge">
<title>Node13&#45;&gt;Node4</title>
<path fill="none" stroke="#191970" d="M948.5321,-179.4527C1031.2941,-167.2428 1163.4492,-147.1722 1167,-143 1201.1855,-102.8319 1135.6365,-50.5823 1097.5522,-25.1875"/>
<polygon fill="#191970" stroke="#191970" points="1099.279,-22.1355 1088.9877,-19.6177 1095.4627,-28.0037 1099.279,-22.1355"/>
</g>
<!-- Node13&#45;&gt;Node6 -->
<g id="edge18" class="edge">
<title>Node13&#45;&gt;Node6</title>
<path fill="none" stroke="#191970" d="M835.3681,-179.4581C788.8958,-170.1485 717.1816,-155.7823 660.9306,-144.5138"/>
<polygon fill="#191970" stroke="#191970" points="661.4672,-141.0518 650.9745,-142.5193 660.0921,-147.9154 661.4672,-141.0518"/>
</g>
<!-- Node14 -->
<g id="node15" class="node">
<title>Node14</title>
<g id="a_node15"><a xlink:href="../../de/d64/RangeReference_8h.html" target="_top" xlink:title="Class to refer to the 1st entry and N elements of some group in the continuous container. ">
<polygon fill="none" stroke="#000000" points="948,-118 948,-137 1158,-137 1158,-118 948,-118"/>
<text text-anchor="middle" x="1053" y="-125" font-family="Helvetica,sans-Serif" font-size="10.00" fill="#000000">CommonDataFormat/RangeReference.h</text>
</a>
</g>
</g>
<!-- Node13&#45;&gt;Node14 -->
<g id="edge19" class="edge">
<title>Node13&#45;&gt;Node14</title>
<path fill="none" stroke="#191970" d="M909.5625,-179.3906C938.5056,-168.92 984.9694,-152.1111 1017.1356,-140.4745"/>
<polygon fill="#191970" stroke="#191970" points="1018.4111,-143.7351 1026.624,-137.0419 1016.0298,-137.1526 1018.4111,-143.7351"/>
</g>
<!-- Node15 -->
<g id="node16" class="node">
<title>Node15</title>
<g id="a_node16"><a xlink:href="../../df/d5d/common_2include_2CommonDataFormat_2TimeStamp_8h.html" target="_top" xlink:title="CommonDataFormat/TimeStamp.h">
<polygon fill="none" stroke="#000000" points="681.5,-118 681.5,-137 868.5,-137 868.5,-118 681.5,-118"/>
<text text-anchor="middle" x="775" y="-125" font-family="Helvetica,sans-Serif" font-size="10.00" fill="#000000">CommonDataFormat/TimeStamp.h</text>
</a>
</g>
</g>
<!-- Node13&#45;&gt;Node15 -->
<g id="edge21" class="edge">
<title>Node13&#45;&gt;Node15</title>
<path fill="none" stroke="#191970" d="M866.125,-179.3906C848.5302,-169.3713 820.7434,-153.5483 800.4759,-142.0071"/>
<polygon fill="#191970" stroke="#191970" points="802.1783,-138.9489 791.7565,-137.0419 798.7144,-145.0318 802.1783,-138.9489"/>
</g>
<!-- Node13&#45;&gt;Node19 -->
<g id="edge26" class="edge">
<title>Node13&#45;&gt;Node19</title>
<path fill="none" stroke="#191970" d="M816.6746,-181.478C736.8015,-172.4084 598.575,-156.6767 480,-143 466.6202,-141.4567 452.4844,-139.8181 438.62,-138.2063"/>
<polygon fill="#191970" stroke="#191970" points="438.9247,-134.7183 428.5872,-137.0392 438.1158,-141.6714 438.9247,-134.7183"/>
</g>
<!-- Node13&#45;&gt;Node20 -->
<g id="edge29" class="edge">
<title>Node13&#45;&gt;Node20</title>
<path fill="none" stroke="#191970" d="M949.2182,-179.8492C952.1836,-179.5409 955.1214,-179.2555 958,-179 1316.5025,-147.1855 1407.9467,-167.8383 1767,-143 1810.2535,-140.0078 1859.7573,-135.1676 1893.166,-131.6918"/>
<polygon fill="#191970" stroke="#191970" points="1893.8393,-135.1404 1903.4191,-130.6153 1893.1083,-128.1787 1893.8393,-135.1404"/>
</g>
<!-- Node21 -->
<g id="node22" class="node">
<title>Node21</title>
<polygon fill="none" stroke="#bfbfbf" points="886,-118 886,-137 930,-137 930,-118 886,-118"/>
<text text-anchor="middle" x="908" y="-125" font-family="Helvetica,sans-Serif" font-size="10.00" fill="#000000">bitset</text>
</g>
<!-- Node13&#45;&gt;Node21 -->
<g id="edge30" class="edge">
<title>Node13&#45;&gt;Node21</title>
<path fill="none" stroke="#191970" d="M886.9063,-179.3906C890.4446,-170.6862 895.7636,-157.6015 900.175,-146.7494"/>
<polygon fill="#191970" stroke="#191970" points="903.5152,-147.8268 904.0387,-137.2449 897.0305,-145.1907 903.5152,-147.8268"/>
</g>
<!-- Node14&#45;&gt;Node7 -->
<g id="edge20" class="edge">
<title>Node14&#45;&gt;Node7</title>
<path fill="none" stroke="#191970" d="M1038.4688,-117.8906C1023.5906,-108.0519 1000.2496,-92.6167 982.8872,-81.1351"/>
<polygon fill="#191970" stroke="#191970" points="984.701,-78.1385 974.4292,-75.5419 980.8398,-83.9773 984.701,-78.1385"/>
</g>
<!-- Node15&#45;&gt;Node7 -->
<g id="edge22" class="edge">
<title>Node15&#45;&gt;Node7</title>
<path fill="none" stroke="#191970" d="M803.9063,-117.8906C835.539,-107.3749 886.403,-90.466 921.4229,-78.8243"/>
<polygon fill="#191970" stroke="#191970" points="922.9115,-82.0178 931.2967,-75.5419 920.7032,-75.3753 922.9115,-82.0178"/>
</g>
<!-- Node16 -->
<g id="node17" class="node">
<title>Node16</title>
<g id="a_node17"><a xlink:href="../../df/d21/GPUCommonDef_8h.html" target="_top" xlink:title="GPUCommonDef.h">
<polygon fill="none" stroke="#000000" points="97.5,-56.5 97.5,-75.5 204.5,-75.5 204.5,-56.5 97.5,-56.5"/>
<text text-anchor="middle" x="151" y="-63.5" font-family="Helvetica,sans-Serif" font-size="10.00" fill="#000000">GPUCommonDef.h</text>
</a>
</g>
</g>
<!-- Node15&#45;&gt;Node16 -->
<g id="edge23" class="edge">
<title>Node15&#45;&gt;Node16</title>
<path fill="none" stroke="#191970" d="M715.987,-117.9841C701.6172,-115.8426 686.275,-113.7027 672,-112 507.632,-92.395 313.1633,-77.3854 214.8132,-70.3679"/>
<polygon fill="#191970" stroke="#191970" points="214.961,-66.8697 204.7383,-69.653 214.4655,-73.8521 214.961,-66.8697"/>
</g>
<!-- Node17 -->
<g id="node18" class="node">
<title>Node17</title>
<g id="a_node18"><a xlink:href="../../d5/d93/GPUCommonDefSettings_8h.html" target="_top" xlink:title="GPUCommonDefSettings.h">
<polygon fill="none" stroke="#000000" points="0,-.5 0,-19.5 148,-19.5 148,-.5 0,-.5"/>
<text text-anchor="middle" x="74" y="-7.5" font-family="Helvetica,sans-Serif" font-size="10.00" fill="#000000">GPUCommonDefSettings.h</text>
</a>
</g>
</g>
<!-- Node16&#45;&gt;Node17 -->
<g id="edge24" class="edge">
<title>Node16&#45;&gt;Node17</title>
<path fill="none" stroke="#191970" d="M137.5876,-56.2455C125.9943,-47.814 109.0252,-35.4729 95.5322,-25.6598"/>
<polygon fill="#191970" stroke="#191970" points="97.4047,-22.6938 87.2587,-19.6427 93.2874,-28.355 97.4047,-22.6938"/>
</g>
<!-- Node18 -->
<g id="node19" class="node">
<title>Node18</title>
<g id="a_node19"><a xlink:href="../../da/d5a/GPUCommonDefAPI_8h.html" target="_top" xlink:title="GPUCommonDefAPI.h">
<polygon fill="none" stroke="#000000" points="166,-.5 166,-19.5 290,-19.5 290,-.5 166,-.5"/>
<text text-anchor="middle" x="228" y="-7.5" font-family="Helvetica,sans-Serif" font-size="10.00" fill="#000000">GPUCommonDefAPI.h</text>
</a>
</g>
</g>
<!-- Node16&#45;&gt;Node18 -->
<g id="edge25" class="edge">
<title>Node16&#45;&gt;Node18</title>
<path fill="none" stroke="#191970" d="M164.4124,-56.2455C176.0057,-47.814 192.9748,-35.4729 206.4678,-25.6598"/>
<polygon fill="#191970" stroke="#191970" points="208.7126,-28.355 214.7413,-19.6427 204.5953,-22.6938 208.7126,-28.355"/>
</g>
<!-- Node19&#45;&gt;Node4 -->
<g id="edge27" class="edge">
<title>Node19&#45;&gt;Node4</title>
<path fill="none" stroke="#191970" d="M356.432,-117.9342C373.0244,-101.8101 409.2684,-69.6465 447,-56 501.9458,-36.1275 904.197,-17.2665 1033.2605,-11.67"/>
<polygon fill="#191970" stroke="#191970" points="1033.6437,-15.1568 1043.4838,-11.2297 1033.3425,-8.1633 1033.6437,-15.1568"/>
</g>
<!-- Node22&#45;&gt;Node9 -->
<g id="edge34" class="edge">
<title>Node22&#45;&gt;Node9</title>
<path fill="none" stroke="#191970" d="M1082.4718,-179.4445C1115.0404,-170.8392 1156.9784,-157.3666 1167,-143 1174.8825,-131.6999 1173.4181,-124.1916 1167,-112 1159.8071,-98.3365 1146.5198,-87.9486 1133.6633,-80.5328"/>
<polygon fill="#191970" stroke="#191970" points="1134.945,-77.2506 1124.4712,-75.6538 1131.6632,-83.4336 1134.945,-77.2506"/>
</g>
<!-- Node23&#45;&gt;Node2 -->
<g id="edge38" class="edge">
<title>Node23&#45;&gt;Node2</title>
<path fill="none" stroke="#191970" d="M1320.0625,-179.3906C1346.0556,-169.0103 1387.6478,-152.4004 1416.7547,-140.7766"/>
<polygon fill="#191970" stroke="#191970" points="1418.1177,-144.0011 1426.1065,-137.0419 1415.5215,-137.5003 1418.1177,-144.0011"/>
</g>
<!-- Node23&#45;&gt;Node4 -->
<g id="edge36" class="edge">
<title>Node23&#45;&gt;Node4</title>
<path fill="none" stroke="#191970" d="M1325.9458,-179.4983C1343.0054,-172.3713 1362.9324,-160.7417 1373,-143 1379.7998,-131.0171 1381.0225,-123.2012 1373,-112 1342.0245,-68.7514 1186.6261,-32.6331 1112.4825,-17.5557"/>
<polygon fill="#191970" stroke="#191970" points="1113.0744,-14.1048 1102.5812,-15.5693 1111.6974,-20.968 1113.0744,-14.1048"/>
</g>
<!-- Node23&#45;&gt;Node24 -->
<g id="edge37" class="edge">
<title>Node23&#45;&gt;Node24</title>
<path fill="none" stroke="#191970" d="M1293.1875,-179.3906C1290.6661,-170.776 1286.889,-157.8708 1283.7324,-147.0858"/>
<polygon fill="#191970" stroke="#191970" points="1287.0203,-145.8591 1280.8522,-137.2449 1280.3021,-147.8254 1287.0203,-145.8591"/>
</g>
<!-- Node23&#45;&gt;Node25 -->
<g id="edge39" class="edge">
<title>Node23&#45;&gt;Node25</title>
<path fill="none" stroke="#191970" d="M1303.3438,-179.3906C1310.2702,-170.3273 1320.826,-156.5149 1329.306,-145.4188"/>
<polygon fill="#191970" stroke="#191970" points="1332.2615,-147.3155 1335.5527,-137.2449 1326.6997,-143.065 1332.2615,-147.3155"/>
</g>
<!-- Node27 -->
<g id="node28" class="node">
<title>Node27</title>
<polygon fill="none" stroke="#bfbfbf" points="1650,-118 1650,-137 1758,-137 1758,-118 1650,-118"/>
<text text-anchor="middle" x="1704" y="-125" font-family="Helvetica,sans-Serif" font-size="10.00" fill="#000000">fairlogger/Logger.h</text>
</g>
<!-- Node26&#45;&gt;Node27 -->
<g id="edge42" class="edge">
<title>Node26&#45;&gt;Node27</title>
<path fill="none" stroke="#191970" d="M1704,-179.3906C1704,-170.8657 1704,-158.1392 1704,-147.4235"/>
<polygon fill="#191970" stroke="#191970" points="1707.5001,-147.2448 1704,-137.2449 1700.5001,-147.2449 1707.5001,-147.2448"/>
</g>
<!-- Node33&#45;&gt;Node2 -->
<g id="edge54" class="edge">
<title>Node33&#45;&gt;Node2</title>
<path fill="none" stroke="#191970" d="M924.1589,-347.2109C932.8997,-320.7647 958.0762,-248.935 978,-235 1053.4931,-182.1989 1309.4523,-241.8617 1391,-199 1413.2691,-187.2953 1430.341,-163.2252 1440.2594,-146.2552"/>
<polygon fill="#191970" stroke="#191970" points="1443.4742,-147.6748 1445.2579,-137.2312 1437.3507,-144.283 1443.4742,-147.6748"/>
</g>
<!-- Node33&#45;&gt;Node3 -->
<g id="edge55" class="edge">
<title>Node33&#45;&gt;Node3</title>
<path fill="none" stroke="#191970" d="M934.0379,-347.4207C945.2563,-338.7495 961.4164,-325.1941 973,-311 984.974,-296.3276 995.4448,-277.4126 1002.346,-263.5957"/>
<polygon fill="#191970" stroke="#191970" points="1005.5083,-265.0958 1006.7108,-254.5694 999.2064,-262.0484 1005.5083,-265.0958"/>
</g>
<!-- Node33&#45;&gt;Node4 -->
<g id="edge57" class="edge">
<title>Node33&#45;&gt;Node4</title>
<path fill="none" stroke="#191970" d="M853.6194,-354.5287C725.85,-347.9975 461,-324.8311 461,-245 461,-245 461,-245 461,-127.5 461,-94.6194 454.7299,-77.0371 480,-56 522.3636,-20.7327 906.6093,-12.2951 1032.9449,-10.4661"/>
<polygon fill="#191970" stroke="#191970" points="1033.3686,-13.9607 1043.3192,-10.3226 1033.2717,-6.9614 1033.3686,-13.9607"/>
</g>
<!-- Node33&#45;&gt;Node5 -->
<g id="edge58" class="edge">
<title>Node33&#45;&gt;Node5</title>
<path fill="none" stroke="#191970" d="M981.6233,-347.4369C1043.6552,-337.6516 1139.9701,-322.4582 1205.4007,-312.1368"/>
<polygon fill="#191970" stroke="#191970" points="1206.2943,-315.5392 1215.6267,-310.5237 1205.2035,-308.6247 1206.2943,-315.5392"/>
</g>
<!-- Node33&#45;&gt;Node6 -->
<g id="edge59" class="edge">
<title>Node33&#45;&gt;Node6</title>
<path fill="none" stroke="#191970" d="M853.7746,-354.3818C778.9335,-350.1063 664.2384,-339.0604 632,-311 585.5117,-270.5364 576.9702,-192.7004 575.807,-152.6566"/>
<polygon fill="#191970" stroke="#191970" points="579.3066,-152.597 575.6495,-142.6533 572.3074,-152.7072 579.3066,-152.597"/>
</g>
<!-- Node33&#45;&gt;Node13 -->
<g id="edge60" class="edge">
<title>Node33&#45;&gt;Node13</title>
<path fill="none" stroke="#191970" d="M917.7053,-347.21C914.6649,-337.952 910.1567,-323.6342 907,-311 898.0559,-275.2027 890.3561,-232.8192 886.2264,-208.6036"/>
<polygon fill="#191970" stroke="#191970" points="889.6484,-207.847 884.5421,-198.5639 882.7449,-209.0051 889.6484,-207.847"/>
</g>
<!-- Node33&#45;&gt;Node19 -->
<g id="edge61" class="edge">
<title>Node33&#45;&gt;Node19</title>
<path fill="none" stroke="#191970" d="M853.6238,-353.9408C730.8276,-347.8593 480.145,-332.9193 447,-311 416.6665,-290.9401 372.5179,-189.7702 354.7924,-146.8243"/>
<polygon fill="#191970" stroke="#191970" points="357.9915,-145.4003 350.9693,-137.4669 351.5115,-148.0479 357.9915,-145.4003"/>
</g>
<!-- Node33&#45;&gt;Node20 -->
<g id="edge65" class="edge">
<title>Node33&#45;&gt;Node20</title>
<path fill="none" stroke="#191970" d="M988.0041,-354.529C1198.3624,-346.1637 1835.7373,-315.9675 1904,-255 1934.4409,-227.8123 1935.9092,-175.7775 1934.1036,-147.3102"/>
<polygon fill="#191970" stroke="#191970" points="1937.5906,-147.0073 1933.2716,-137.3327 1930.6148,-147.589 1937.5906,-147.0073"/>
</g>
<!-- Node33&#45;&gt;Node23 -->
<g id="edge62" class="edge">
<title>Node33&#45;&gt;Node23</title>
<path fill="none" stroke="#191970" d="M919.5505,-347.3327C916.6753,-324.127 913.0397,-264.9797 945,-235 963.3993,-217.7409 1102.5808,-203.6985 1200.045,-195.8462"/>
<polygon fill="#191970" stroke="#191970" points="1200.5378,-199.3181 1210.2286,-195.0359 1199.9825,-192.3402 1200.5378,-199.3181"/>
</g>
<!-- Node33&#45;&gt;Node31 -->
<g id="edge63" class="edge">
<title>Node33&#45;&gt;Node31</title>
<path fill="none" stroke="#191970" d="M937.2846,-347.4509C970.6916,-327.8615 1047.1705,-283.0152 1086.9406,-259.6945"/>
<polygon fill="#191970" stroke="#191970" points="1088.9008,-262.6025 1095.7567,-254.5249 1085.3599,-256.5641 1088.9008,-262.6025"/>
</g>
<!-- Node34 -->
<g id="node35" class="node">
<title>Node34</title>
<polygon fill="none" stroke="#bfbfbf" points="641,-291.5 641,-310.5 705,-310.5 705,-291.5 641,-291.5"/>
<text text-anchor="middle" x="673" y="-298.5" font-family="Helvetica,sans-Serif" font-size="10.00" fill="#000000">algorithm</text>
</g>
<!-- Node33&#45;&gt;Node34 -->
<g id="edge56" class="edge">
<title>Node33&#45;&gt;Node34</title>
<path fill="none" stroke="#191970" d="M876.9254,-347.4806C837.1079,-338.819 776.6397,-325.5128 715.0974,-311.2244"/>
<polygon fill="#191970" stroke="#191970" points="715.7472,-307.7821 705.214,-308.9233 714.1598,-314.5998 715.7472,-307.7821"/>
</g>
<!-- Node35 -->
<g id="node36" class="node">
<title>Node35</title>
<polygon fill="none" stroke="#bfbfbf" points="723.5,-291.5 723.5,-310.5 854.5,-310.5 854.5,-291.5 723.5,-291.5"/>
<text text-anchor="middle" x="789" y="-298.5" font-family="Helvetica,sans-Serif" font-size="10.00" fill="#000000">boost/mpl/contains.hpp</text>
</g>
<!-- Node33&#45;&gt;Node35 -->
<g id="edge64" class="edge">
<title>Node33&#45;&gt;Node35</title>
<path fill="none" stroke="#191970" d="M898.3084,-347.3733C876.9289,-338.3032 844.6943,-324.6279 820.7638,-314.4755"/>
<polygon fill="#191970" stroke="#191970" points="821.9683,-311.1846 811.3955,-310.5011 819.2344,-317.6287 821.9683,-311.1846"/>
</g>
</g>
</svg>
