<?xml version="1.0" encoding="UTF-8" standalone="no"?>
<!DOCTYPE svg PUBLIC "-//W3C//DTD SVG 1.1//EN"
 "http://www.w3.org/Graphics/SVG/1.1/DTD/svg11.dtd">
<!-- Generated by graphviz version 2.40.1 (20161225.0304)
 -->
<!-- Title: o2::tof::Detector Pages: 1 -->
<svg width="830pt" height="1357pt"
 viewBox="0.00 0.00 830.45 1357.00" xmlns="http://www.w3.org/2000/svg" xmlns:xlink="http://www.w3.org/1999/xlink">
<g id="graph0" class="graph" transform="scale(1 1) rotate(0) translate(4 1353)">
<title>o2::tof::Detector</title>
<!-- Node5 -->
<g id="node1" class="node">
<title>Node5</title>
<polygon fill="#bfbfbf" stroke="#000000" points="262.4538,-.5 262.4538,-211.5 403.4538,-211.5 403.4538,-.5 262.4538,-.5"/>
<text text-anchor="middle" x="332.9538" y="-199.5" font-family="Helvetica,sans-Serif" font-size="10.00" fill="#000000">o2::tof::Detector</text>
<polyline fill="none" stroke="#000000" points="262.4538,-192.5 403.4538,-192.5 "/>
<text text-anchor="middle" x="332.9538" y="-180.5" font-family="Helvetica,sans-Serif" font-size="10.00" fill="#000000"> </text>
<polyline fill="none" stroke="#000000" points="262.4538,-173.5 403.4538,-173.5 "/>
<text text-anchor="start" x="270.4538" y="-161.5" font-family="Helvetica,sans-Serif" font-size="10.00" fill="#000000">+ Detector()</text>
<text text-anchor="start" x="270.4538" y="-150.5" font-family="Helvetica,sans-Serif" font-size="10.00" fill="#000000">+ Detector()</text>
<text text-anchor="start" x="270.4538" y="-139.5" font-family="Helvetica,sans-Serif" font-size="10.00" fill="#000000">+ ~Detector()</text>
<text text-anchor="start" x="270.4538" y="-128.5" font-family="Helvetica,sans-Serif" font-size="10.00" fill="#000000">+ InitializeO2Detector()</text>
<text text-anchor="start" x="270.4538" y="-117.5" font-family="Helvetica,sans-Serif" font-size="10.00" fill="#000000">+ ProcessHits()</text>
<text text-anchor="start" x="270.4538" y="-106.5" font-family="Helvetica,sans-Serif" font-size="10.00" fill="#000000">+ Register()</text>
<text text-anchor="start" x="270.4538" y="-95.5" font-family="Helvetica,sans-Serif" font-size="10.00" fill="#000000">+ getHits()</text>
<text text-anchor="start" x="270.4538" y="-84.5" font-family="Helvetica,sans-Serif" font-size="10.00" fill="#000000">+ Reset()</text>
<text text-anchor="start" x="270.4538" y="-73.5" font-family="Helvetica,sans-Serif" font-size="10.00" fill="#000000">+ EndOfEvent()</text>
<text text-anchor="start" x="270.4538" y="-62.5" font-family="Helvetica,sans-Serif" font-size="10.00" fill="#000000">+ CreateMaterials()</text>
<text text-anchor="start" x="270.4538" y="-51.5" font-family="Helvetica,sans-Serif" font-size="10.00" fill="#000000">+ ConstructGeometry()</text>
<text text-anchor="start" x="270.4538" y="-40.5" font-family="Helvetica,sans-Serif" font-size="10.00" fill="#000000">+ addAlignableVolumes()</text>
<text text-anchor="start" x="270.4538" y="-29.5" font-family="Helvetica,sans-Serif" font-size="10.00" fill="#000000">+ setTOFholes()</text>
<text text-anchor="start" x="270.4538" y="-18.5" font-family="Helvetica,sans-Serif" font-size="10.00" fill="#000000"># DefineGeometry()</text>
<text text-anchor="start" x="270.4538" y="-7.5" font-family="Helvetica,sans-Serif" font-size="10.00" fill="#000000"># MaterialMixer()</text>
</g>
<!-- Node6 -->
<g id="node2" class="node">
<title>Node6</title>
<g id="a_node2"><a xlink:href="../../de/dc8/classo2_1_1base_1_1DetImpl.html" target="_top" xlink:title="{o2::base::DetImpl\&lt;\l Detector \&gt;\n||+ getHitBranchNames()\l+ updateHitTrackIndices()\l+ attachHits()\l+ mergeAndAdjustHits()\l+ mergeHitEntries()\l+ fillHitBranch()\l+ CloneModule()\l+ freeHitBuffers()\l+ setHits()\l+ createHitBuffers()\l+ initializeLate()\l+ BeginEvent()\l+ ~DetImpl()\l# ClassDefOverride()\l}">
<polygon fill="none" stroke="#000000" points="261.4538,-249.5 261.4538,-460.5 404.4538,-460.5 404.4538,-249.5 261.4538,-249.5"/>
<text text-anchor="start" x="269.4538" y="-448.5" font-family="Helvetica,sans-Serif" font-size="10.00" fill="#000000">o2::base::DetImpl&lt;</text>
<text text-anchor="middle" x="332.9538" y="-437.5" font-family="Helvetica,sans-Serif" font-size="10.00" fill="#000000"> Detector &gt;</text>
<polyline fill="none" stroke="#000000" points="261.4538,-430.5 404.4538,-430.5 "/>
<text text-anchor="middle" x="332.9538" y="-418.5" font-family="Helvetica,sans-Serif" font-size="10.00" fill="#000000"> </text>
<polyline fill="none" stroke="#000000" points="261.4538,-411.5 404.4538,-411.5 "/>
<text text-anchor="start" x="269.4538" y="-399.5" font-family="Helvetica,sans-Serif" font-size="10.00" fill="#000000">+ getHitBranchNames()</text>
<text text-anchor="start" x="269.4538" y="-388.5" font-family="Helvetica,sans-Serif" font-size="10.00" fill="#000000">+ updateHitTrackIndices()</text>
<text text-anchor="start" x="269.4538" y="-377.5" font-family="Helvetica,sans-Serif" font-size="10.00" fill="#000000">+ attachHits()</text>
<text text-anchor="start" x="269.4538" y="-366.5" font-family="Helvetica,sans-Serif" font-size="10.00" fill="#000000">+ mergeAndAdjustHits()</text>
<text text-anchor="start" x="269.4538" y="-355.5" font-family="Helvetica,sans-Serif" font-size="10.00" fill="#000000">+ mergeHitEntries()</text>
<text text-anchor="start" x="269.4538" y="-344.5" font-family="Helvetica,sans-Serif" font-size="10.00" fill="#000000">+ fillHitBranch()</text>
<text text-anchor="start" x="269.4538" y="-333.5" font-family="Helvetica,sans-Serif" font-size="10.00" fill="#000000">+ CloneModule()</text>
<text text-anchor="start" x="269.4538" y="-322.5" font-family="Helvetica,sans-Serif" font-size="10.00" fill="#000000">+ freeHitBuffers()</text>
<text text-anchor="start" x="269.4538" y="-311.5" font-family="Helvetica,sans-Serif" font-size="10.00" fill="#000000">+ setHits()</text>
<text text-anchor="start" x="269.4538" y="-300.5" font-family="Helvetica,sans-Serif" font-size="10.00" fill="#000000">+ createHitBuffers()</text>
<text text-anchor="start" x="269.4538" y="-289.5" font-family="Helvetica,sans-Serif" font-size="10.00" fill="#000000">+ initializeLate()</text>
<text text-anchor="start" x="269.4538" y="-278.5" font-family="Helvetica,sans-Serif" font-size="10.00" fill="#000000">+ BeginEvent()</text>
<text text-anchor="start" x="269.4538" y="-267.5" font-family="Helvetica,sans-Serif" font-size="10.00" fill="#000000">+ ~DetImpl()</text>
<text text-anchor="start" x="269.4538" y="-256.5" font-family="Helvetica,sans-Serif" font-size="10.00" fill="#000000"># ClassDefOverride()</text>
</a>
</g>
</g>
<!-- Node6&#45;&gt;Node5 -->
<g id="edge1" class="edge">
<title>Node6&#45;&gt;Node5</title>
<path fill="none" stroke="#191970" d="M332.9538,-239.1334C332.9538,-230.0059 332.9538,-220.8163 332.9538,-211.762"/>
<polygon fill="none" stroke="#191970" points="329.4539,-239.4015 332.9538,-249.4016 336.4539,-239.4016 329.4539,-239.4015"/>
</g>
<!-- Node7 -->
<g id="node3" class="node">
<title>Node7</title>
<g id="a_node3"><a xlink:href="../../d2/d00/classo2_1_1base_1_1Detector.html" target="_top" xlink:title="{o2::base::Detector\n||+ Detector()\l+ Detector()\l+ ~Detector()\l+ Material()\l+ Mixture()\l+ Medium()\l+ SpecialCuts()\l+ SpecialCut()\l+ SpecialProcesses()\l+ SpecialProcess()\l+ Matrix()\l+ SetSpecialPhysicsCuts()\l+ addAlignableVolumes()\l+ defineWrapperVolume()\l+ setNumberOfWrapperVolumes()\l+ defineLayer()\l+ defineLayerTurbo()\l+ getMaterialID()\l+ getMediumID()\l+ getMediumIDMappingAsVector()\l+ addNameTo()\l+ getHitBranchNames()\l+ updateHitTrackIndices()\l+ attachHits()\l+ fillHitBranch()\l+ mergeHitEntries()\l+ InitializeO2Detector()\l+ Initialize()\l+ initializeLate()\l+ registerSensitiveVolumeAnd\lGetVolID()\l+ registerSensitiveVolumeAnd\lGetVolID()\l+ GetCollection()\l+ setDensityFactor()\l+ getDensityFactor()\l+ initFieldTrackingParams()\l# Detector()\l# operator=()\l}">
<polygon fill="none" stroke="#000000" points="520.4538,-778.5 520.4538,-1253.5 705.4538,-1253.5 705.4538,-778.5 520.4538,-778.5"/>
<text text-anchor="middle" x="612.9538" y="-1241.5" font-family="Helvetica,sans-Serif" font-size="10.00" fill="#000000">o2::base::Detector</text>
<polyline fill="none" stroke="#000000" points="520.4538,-1234.5 705.4538,-1234.5 "/>
<text text-anchor="middle" x="612.9538" y="-1222.5" font-family="Helvetica,sans-Serif" font-size="10.00" fill="#000000"> </text>
<polyline fill="none" stroke="#000000" points="520.4538,-1215.5 705.4538,-1215.5 "/>
<text text-anchor="start" x="528.4538" y="-1203.5" font-family="Helvetica,sans-Serif" font-size="10.00" fill="#000000">+ Detector()</text>
<text text-anchor="start" x="528.4538" y="-1192.5" font-family="Helvetica,sans-Serif" font-size="10.00" fill="#000000">+ Detector()</text>
<text text-anchor="start" x="528.4538" y="-1181.5" font-family="Helvetica,sans-Serif" font-size="10.00" fill="#000000">+ ~Detector()</text>
<text text-anchor="start" x="528.4538" y="-1170.5" font-family="Helvetica,sans-Serif" font-size="10.00" fill="#000000">+ Material()</text>
<text text-anchor="start" x="528.4538" y="-1159.5" font-family="Helvetica,sans-Serif" font-size="10.00" fill="#000000">+ Mixture()</text>
<text text-anchor="start" x="528.4538" y="-1148.5" font-family="Helvetica,sans-Serif" font-size="10.00" fill="#000000">+ Medium()</text>
<text text-anchor="start" x="528.4538" y="-1137.5" font-family="Helvetica,sans-Serif" font-size="10.00" fill="#000000">+ SpecialCuts()</text>
<text text-anchor="start" x="528.4538" y="-1126.5" font-family="Helvetica,sans-Serif" font-size="10.00" fill="#000000">+ SpecialCut()</text>
<text text-anchor="start" x="528.4538" y="-1115.5" font-family="Helvetica,sans-Serif" font-size="10.00" fill="#000000">+ SpecialProcesses()</text>
<text text-anchor="start" x="528.4538" y="-1104.5" font-family="Helvetica,sans-Serif" font-size="10.00" fill="#000000">+ SpecialProcess()</text>
<text text-anchor="start" x="528.4538" y="-1093.5" font-family="Helvetica,sans-Serif" font-size="10.00" fill="#000000">+ Matrix()</text>
<text text-anchor="start" x="528.4538" y="-1082.5" font-family="Helvetica,sans-Serif" font-size="10.00" fill="#000000">+ SetSpecialPhysicsCuts()</text>
<text text-anchor="start" x="528.4538" y="-1071.5" font-family="Helvetica,sans-Serif" font-size="10.00" fill="#000000">+ addAlignableVolumes()</text>
<text text-anchor="start" x="528.4538" y="-1060.5" font-family="Helvetica,sans-Serif" font-size="10.00" fill="#000000">+ defineWrapperVolume()</text>
<text text-anchor="start" x="528.4538" y="-1049.5" font-family="Helvetica,sans-Serif" font-size="10.00" fill="#000000">+ setNumberOfWrapperVolumes()</text>
<text text-anchor="start" x="528.4538" y="-1038.5" font-family="Helvetica,sans-Serif" font-size="10.00" fill="#000000">+ defineLayer()</text>
<text text-anchor="start" x="528.4538" y="-1027.5" font-family="Helvetica,sans-Serif" font-size="10.00" fill="#000000">+ defineLayerTurbo()</text>
<text text-anchor="start" x="528.4538" y="-1016.5" font-family="Helvetica,sans-Serif" font-size="10.00" fill="#000000">+ getMaterialID()</text>
<text text-anchor="start" x="528.4538" y="-1005.5" font-family="Helvetica,sans-Serif" font-size="10.00" fill="#000000">+ getMediumID()</text>
<text text-anchor="start" x="528.4538" y="-994.5" font-family="Helvetica,sans-Serif" font-size="10.00" fill="#000000">+ getMediumIDMappingAsVector()</text>
<text text-anchor="start" x="528.4538" y="-983.5" font-family="Helvetica,sans-Serif" font-size="10.00" fill="#000000">+ addNameTo()</text>
<text text-anchor="start" x="528.4538" y="-972.5" font-family="Helvetica,sans-Serif" font-size="10.00" fill="#000000">+ getHitBranchNames()</text>
<text text-anchor="start" x="528.4538" y="-961.5" font-family="Helvetica,sans-Serif" font-size="10.00" fill="#000000">+ updateHitTrackIndices()</text>
<text text-anchor="start" x="528.4538" y="-950.5" font-family="Helvetica,sans-Serif" font-size="10.00" fill="#000000">+ attachHits()</text>
<text text-anchor="start" x="528.4538" y="-939.5" font-family="Helvetica,sans-Serif" font-size="10.00" fill="#000000">+ fillHitBranch()</text>
<text text-anchor="start" x="528.4538" y="-928.5" font-family="Helvetica,sans-Serif" font-size="10.00" fill="#000000">+ mergeHitEntries()</text>
<text text-anchor="start" x="528.4538" y="-917.5" font-family="Helvetica,sans-Serif" font-size="10.00" fill="#000000">+ InitializeO2Detector()</text>
<text text-anchor="start" x="528.4538" y="-906.5" font-family="Helvetica,sans-Serif" font-size="10.00" fill="#000000">+ Initialize()</text>
<text text-anchor="start" x="528.4538" y="-895.5" font-family="Helvetica,sans-Serif" font-size="10.00" fill="#000000">+ initializeLate()</text>
<text text-anchor="start" x="528.4538" y="-884.5" font-family="Helvetica,sans-Serif" font-size="10.00" fill="#000000">+ registerSensitiveVolumeAnd</text>
<text text-anchor="start" x="528.4538" y="-873.5" font-family="Helvetica,sans-Serif" font-size="10.00" fill="#000000">GetVolID()</text>
<text text-anchor="start" x="528.4538" y="-862.5" font-family="Helvetica,sans-Serif" font-size="10.00" fill="#000000">+ registerSensitiveVolumeAnd</text>
<text text-anchor="start" x="528.4538" y="-851.5" font-family="Helvetica,sans-Serif" font-size="10.00" fill="#000000">GetVolID()</text>
<text text-anchor="start" x="528.4538" y="-840.5" font-family="Helvetica,sans-Serif" font-size="10.00" fill="#000000">+ GetCollection()</text>
<text text-anchor="start" x="528.4538" y="-829.5" font-family="Helvetica,sans-Serif" font-size="10.00" fill="#000000">+ setDensityFactor()</text>
<text text-anchor="start" x="528.4538" y="-818.5" font-family="Helvetica,sans-Serif" font-size="10.00" fill="#000000">+ getDensityFactor()</text>
<text text-anchor="start" x="528.4538" y="-807.5" font-family="Helvetica,sans-Serif" font-size="10.00" fill="#000000">+ initFieldTrackingParams()</text>
<text text-anchor="start" x="528.4538" y="-796.5" font-family="Helvetica,sans-Serif" font-size="10.00" fill="#000000"># Detector()</text>
<text text-anchor="start" x="528.4538" y="-785.5" font-family="Helvetica,sans-Serif" font-size="10.00" fill="#000000"># operator=()</text>
</a>
</g>
</g>
<!-- Node7&#45;&gt;Node6 -->
<g id="edge2" class="edge">
<title>Node7&#45;&gt;Node6</title>
<path fill="none" stroke="#191970" d="M693.4833,-768.0533C692.4657,-757.8995 690.6652,-747.8502 687.9538,-738 656.3771,-623.2841 631.8851,-595.2179 550.9538,-508 508.4949,-462.2429 450.193,-422.1973 404.5649,-394.5639"/>
<polygon fill="none" stroke="#191970" points="690.0089,-768.5273 694.2449,-778.2384 696.9894,-768.0053 690.0089,-768.5273"/>
</g>
<!-- Node13 -->
<g id="node9" class="node">
<title>Node13</title>
<g id="a_node9"><a xlink:href="../../de/dc8/classo2_1_1base_1_1DetImpl.html" target="_top" xlink:title="{o2::base::DetImpl\&lt;\l Det \&gt;\n||+ getHitBranchNames()\l+ updateHitTrackIndices()\l+ attachHits()\l+ mergeAndAdjustHits()\l+ mergeHitEntries()\l+ fillHitBranch()\l+ CloneModule()\l+ freeHitBuffers()\l+ setHits()\l+ createHitBuffers()\l+ initializeLate()\l+ BeginEvent()\l+ ~DetImpl()\l# ClassDefOverride()\l}">
<polygon fill="none" stroke="#000000" points="398.4538,-508.5 398.4538,-719.5 541.4538,-719.5 541.4538,-508.5 398.4538,-508.5"/>
<text text-anchor="start" x="406.4538" y="-707.5" font-family="Helvetica,sans-Serif" font-size="10.00" fill="#000000">o2::base::DetImpl&lt;</text>
<text text-anchor="middle" x="469.9538" y="-696.5" font-family="Helvetica,sans-Serif" font-size="10.00" fill="#000000"> Det &gt;</text>
<polyline fill="none" stroke="#000000" points="398.4538,-689.5 541.4538,-689.5 "/>
<text text-anchor="middle" x="469.9538" y="-677.5" font-family="Helvetica,sans-Serif" font-size="10.00" fill="#000000"> </text>
<polyline fill="none" stroke="#000000" points="398.4538,-670.5 541.4538,-670.5 "/>
<text text-anchor="start" x="406.4538" y="-658.5" font-family="Helvetica,sans-Serif" font-size="10.00" fill="#000000">+ getHitBranchNames()</text>
<text text-anchor="start" x="406.4538" y="-647.5" font-family="Helvetica,sans-Serif" font-size="10.00" fill="#000000">+ updateHitTrackIndices()</text>
<text text-anchor="start" x="406.4538" y="-636.5" font-family="Helvetica,sans-Serif" font-size="10.00" fill="#000000">+ attachHits()</text>
<text text-anchor="start" x="406.4538" y="-625.5" font-family="Helvetica,sans-Serif" font-size="10.00" fill="#000000">+ mergeAndAdjustHits()</text>
<text text-anchor="start" x="406.4538" y="-614.5" font-family="Helvetica,sans-Serif" font-size="10.00" fill="#000000">+ mergeHitEntries()</text>
<text text-anchor="start" x="406.4538" y="-603.5" font-family="Helvetica,sans-Serif" font-size="10.00" fill="#000000">+ fillHitBranch()</text>
<text text-anchor="start" x="406.4538" y="-592.5" font-family="Helvetica,sans-Serif" font-size="10.00" fill="#000000">+ CloneModule()</text>
<text text-anchor="start" x="406.4538" y="-581.5" font-family="Helvetica,sans-Serif" font-size="10.00" fill="#000000">+ freeHitBuffers()</text>
<text text-anchor="start" x="406.4538" y="-570.5" font-family="Helvetica,sans-Serif" font-size="10.00" fill="#000000">+ setHits()</text>
<text text-anchor="start" x="406.4538" y="-559.5" font-family="Helvetica,sans-Serif" font-size="10.00" fill="#000000">+ createHitBuffers()</text>
<text text-anchor="start" x="406.4538" y="-548.5" font-family="Helvetica,sans-Serif" font-size="10.00" fill="#000000">+ initializeLate()</text>
<text text-anchor="start" x="406.4538" y="-537.5" font-family="Helvetica,sans-Serif" font-size="10.00" fill="#000000">+ BeginEvent()</text>
<text text-anchor="start" x="406.4538" y="-526.5" font-family="Helvetica,sans-Serif" font-size="10.00" fill="#000000">+ ~DetImpl()</text>
<text text-anchor="start" x="406.4538" y="-515.5" font-family="Helvetica,sans-Serif" font-size="10.00" fill="#000000"># ClassDefOverride()</text>
</a>
</g>
</g>
<!-- Node7&#45;&gt;Node13 -->
<g id="edge9" class="edge">
<title>Node7&#45;&gt;Node13</title>
<path fill="none" stroke="#191970" d="M567.742,-768.5266C564.1051,-758.1022 560.1829,-747.8837 555.9538,-738 551.8314,-728.3655 546.8976,-718.7144 541.5067,-709.2871"/>
<polygon fill="none" stroke="#191970" points="564.4798,-769.8053 571.0026,-778.1542 571.1099,-767.5599 564.4798,-769.8053"/>
</g>
<!-- Node8 -->
<g id="node4" class="node">
<title>Node8</title>
<g id="a_node4"><a xlink:href="../../d6/d0c/classFairDetector.html" target="_top" xlink:title="{FairDetector\n||}">
<polygon fill="none" stroke="#000000" points="574.9538,-1291.5 574.9538,-1348.5 650.9538,-1348.5 650.9538,-1291.5 574.9538,-1291.5"/>
<text text-anchor="middle" x="612.9538" y="-1336.5" font-family="Helvetica,sans-Serif" font-size="10.00" fill="#000000">FairDetector</text>
<polyline fill="none" stroke="#000000" points="574.9538,-1329.5 650.9538,-1329.5 "/>
<text text-anchor="middle" x="612.9538" y="-1317.5" font-family="Helvetica,sans-Serif" font-size="10.00" fill="#000000"> </text>
<polyline fill="none" stroke="#000000" points="574.9538,-1310.5 650.9538,-1310.5 "/>
<text text-anchor="middle" x="612.9538" y="-1298.5" font-family="Helvetica,sans-Serif" font-size="10.00" fill="#000000"> </text>
</a>
</g>
</g>
<!-- Node8&#45;&gt;Node7 -->
<g id="edge3" class="edge">
<title>Node8&#45;&gt;Node7</title>
<path fill="none" stroke="#191970" d="M612.9538,-1281.1681C612.9538,-1272.9164 612.9538,-1263.6386 612.9538,-1253.6249"/>
<polygon fill="none" stroke="#191970" points="609.4539,-1281.4004 612.9538,-1291.4004 616.4539,-1281.4005 609.4539,-1281.4004"/>
</g>
<!-- Node9 -->
<g id="node5" class="node">
<title>Node9</title>
<g id="a_node5"><a xlink:href="../../d4/d34/classstatic_01constexpr_01int.html" target="_top" xlink:title="{static constexpr int\n||}">
<polygon fill="none" stroke="#000000" points="127.9538,-585.5 127.9538,-642.5 237.9538,-642.5 237.9538,-585.5 127.9538,-585.5"/>
<text text-anchor="middle" x="182.9538" y="-630.5" font-family="Helvetica,sans-Serif" font-size="10.00" fill="#000000">static constexpr int</text>
<polyline fill="none" stroke="#000000" points="127.9538,-623.5 237.9538,-623.5 "/>
<text text-anchor="middle" x="182.9538" y="-611.5" font-family="Helvetica,sans-Serif" font-size="10.00" fill="#000000"> </text>
<polyline fill="none" stroke="#000000" points="127.9538,-604.5 237.9538,-604.5 "/>
<text text-anchor="middle" x="182.9538" y="-592.5" font-family="Helvetica,sans-Serif" font-size="10.00" fill="#000000"> </text>
</a>
</g>
</g>
<!-- Node9&#45;&gt;Node6 -->
<g id="edge4" class="edge">
<title>Node9&#45;&gt;Node6</title>
<path fill="none" stroke="#404040" d="M176.1662,-585.3317C170.9495,-556.904 167.0309,-512.8221 182.9538,-479 197.6299,-447.8263 224.4156,-421.8121 251.3345,-401.7936"/>
<polygon fill="none" stroke="#404040" points="251.485,-401.6857 254.0289,-394.9382 261.2358,-394.6912 258.6919,-401.4387 251.485,-401.6857"/>
<text text-anchor="middle" x="222.4538" y="-482" font-family="Helvetica,sans-Serif" font-size="10.00" fill="#000000"> #NHITBUFFERS</text>
</g>
<!-- Node10 -->
<g id="node6" class="node">
<title>Node10</title>
<polygon fill="none" stroke="#bfbfbf" points="170.4538,-987.5 170.4538,-1044.5 199.4538,-1044.5 199.4538,-987.5 170.4538,-987.5"/>
<text text-anchor="middle" x="184.9538" y="-1032.5" font-family="Helvetica,sans-Serif" font-size="10.00" fill="#000000">int</text>
<polyline fill="none" stroke="#bfbfbf" points="170.4538,-1025.5 199.4538,-1025.5 "/>
<text text-anchor="middle" x="184.9538" y="-1013.5" font-family="Helvetica,sans-Serif" font-size="10.00" fill="#000000"> </text>
<polyline fill="none" stroke="#bfbfbf" points="170.4538,-1006.5 199.4538,-1006.5 "/>
<text text-anchor="middle" x="184.9538" y="-994.5" font-family="Helvetica,sans-Serif" font-size="10.00" fill="#000000"> </text>
</g>
<!-- Node10&#45;&gt;Node6 -->
<g id="edge5" class="edge">
<title>Node10&#45;&gt;Node6</title>
<path fill="none" stroke="#404040" d="M170.4416,-998.9348C115.1466,-931.7498 -74.0074,-680.7251 31.9538,-508 79.0661,-431.2034 178.1015,-391.4717 249.7331,-371.9804"/>
<polygon fill="none" stroke="#404040" points="249.8211,-371.9574 254.6089,-366.565 261.4279,-368.9104 256.6402,-374.3028 249.8211,-371.9574"/>
<text text-anchor="middle" x="75.4538" y="-617" font-family="Helvetica,sans-Serif" font-size="10.00" fill="#000000"> #mCurrentBuffer</text>
<text text-anchor="middle" x="75.4538" y="-606" font-family="Helvetica,sans-Serif" font-size="10.00" fill="#000000">#mInitialized</text>
</g>
<!-- Node10&#45;&gt;Node13 -->
<g id="edge10" class="edge">
<title>Node10&#45;&gt;Node13</title>
<path fill="none" stroke="#404040" d="M189.7597,-987.1767C200.4215,-931.7699 231.0359,-809.5612 302.9538,-738 317.64,-723.3866 328.3115,-730.862 345.9538,-720 360.5522,-711.0121 375.1797,-700.3482 389.0063,-689.3035"/>
<polygon fill="none" stroke="#404040" points="389.1396,-689.1948 391.2625,-682.3033 398.4404,-681.6122 396.3176,-688.5038 389.1396,-689.1948"/>
<text text-anchor="middle" x="346.4538" y="-752" font-family="Helvetica,sans-Serif" font-size="10.00" fill="#000000"> #mCurrentBuffer</text>
<text text-anchor="middle" x="346.4538" y="-741" font-family="Helvetica,sans-Serif" font-size="10.00" fill="#000000">#mInitialized</text>
</g>
<!-- Node11 -->
<g id="node7" class="node">
<title>Node11</title>
<polygon fill="none" stroke="#bfbfbf" points="723.4538,-987.5 723.4538,-1044.5 822.4538,-1044.5 822.4538,-987.5 723.4538,-987.5"/>
<text text-anchor="middle" x="772.9538" y="-1032.5" font-family="Helvetica,sans-Serif" font-size="10.00" fill="#000000">vector&lt; void * &gt;</text>
<polyline fill="none" stroke="#bfbfbf" points="723.4538,-1025.5 822.4538,-1025.5 "/>
<text text-anchor="middle" x="772.9538" y="-1013.5" font-family="Helvetica,sans-Serif" font-size="10.00" fill="#000000"> </text>
<polyline fill="none" stroke="#bfbfbf" points="723.4538,-1006.5 822.4538,-1006.5 "/>
<text text-anchor="middle" x="772.9538" y="-994.5" font-family="Helvetica,sans-Serif" font-size="10.00" fill="#000000"> </text>
</g>
<!-- Node11&#45;&gt;Node6 -->
<g id="edge6" class="edge">
<title>Node11&#45;&gt;Node6</title>
<path fill="none" stroke="#404040" d="M772.8202,-987.2047C770.9331,-903.1732 754.5224,-654.9391 629.9538,-508 574.1372,-442.1596 482.8519,-401.1647 416.1958,-378.3782"/>
<polygon fill="none" stroke="#404040" points="415.8531,-378.2641 408.8961,-380.1614 404.4688,-374.4693 411.4259,-372.572 415.8531,-378.2641"/>
<text text-anchor="middle" x="769.4538" y="-611.5" font-family="Helvetica,sans-Serif" font-size="10.00" fill="#000000"> #mCachedPtr</text>
</g>
<!-- Node11&#45;&gt;Node13 -->
<g id="edge11" class="edge">
<title>Node11&#45;&gt;Node13</title>
<path fill="none" stroke="#404040" d="M773.3196,-987.451C772.4808,-939.1905 764.3101,-840.6309 714.9538,-778 704.127,-764.2612 694.9456,-769.0123 679.9538,-760 636.4601,-733.8536 589.9469,-701.9542 551.7786,-674.6496"/>
<polygon fill="none" stroke="#404040" points="551.4996,-674.4491 544.2929,-674.1965 541.7542,-667.447 548.9609,-667.6996 551.4996,-674.4491"/>
<text text-anchor="middle" x="715.4538" y="-746.5" font-family="Helvetica,sans-Serif" font-size="10.00" fill="#000000"> #mCachedPtr</text>
</g>
<!-- Node12 -->
<g id="node8" class="node">
<title>Node12</title>
<polygon fill="none" stroke="#bfbfbf" points="331.9538,-987.5 331.9538,-1044.5 369.9538,-1044.5 369.9538,-987.5 331.9538,-987.5"/>
<text text-anchor="middle" x="350.9538" y="-1032.5" font-family="Helvetica,sans-Serif" font-size="10.00" fill="#000000">bool</text>
<polyline fill="none" stroke="#bfbfbf" points="331.9538,-1025.5 369.9538,-1025.5 "/>
<text text-anchor="middle" x="350.9538" y="-1013.5" font-family="Helvetica,sans-Serif" font-size="10.00" fill="#000000"> </text>
<polyline fill="none" stroke="#bfbfbf" points="331.9538,-1006.5 369.9538,-1006.5 "/>
<text text-anchor="middle" x="350.9538" y="-994.5" font-family="Helvetica,sans-Serif" font-size="10.00" fill="#000000"> </text>
</g>
<!-- Node12&#45;&gt;Node6 -->
<g id="edge7" class="edge">
<title>Node12&#45;&gt;Node6</title>
<path fill="none" stroke="#404040" d="M340.5547,-987.3289C324.1878,-940.518 293.1313,-844.4197 281.9538,-760 269.1688,-663.4389 284.8131,-553.8211 302.045,-473.0007"/>
<polygon fill="none" stroke="#404040" points="302.1515,-472.512 299.5214,-465.7976 304.7077,-460.7874 307.3378,-467.5018 302.1515,-472.512"/>
<text text-anchor="middle" x="327.4538" y="-611.5" font-family="Helvetica,sans-Serif" font-size="10.00" fill="#000000"> #mShmBusy</text>
</g>
<!-- Node12&#45;&gt;Node13 -->
<g id="edge12" class="edge">
<title>Node12&#45;&gt;Node13</title>
<path fill="none" stroke="#404040" d="M353.1857,-987.2056C357.8288,-935.8486 370.8109,-825.6161 401.9538,-738 402.805,-735.6052 403.6986,-733.2014 404.6297,-730.7931"/>
<polygon fill="none" stroke="#404040" points="404.7022,-730.6155 403.27,-723.5481 409.2429,-719.5077 410.6752,-726.5752 404.7022,-730.6155"/>
<text text-anchor="middle" x="435.4538" y="-746.5" font-family="Helvetica,sans-Serif" font-size="10.00" fill="#000000"> #mShmBusy</text>
</g>
<!-- Node13&#45;&gt;Node6 -->
<g id="edge8" class="edge">
<title>Node13&#45;&gt;Node6</title>
<path fill="none" stroke="#ffa500" d="M409.3484,-499.4247C402.5524,-486.5769 395.6515,-473.5305 388.9178,-460.8005"/>
<polygon fill="#ffa500" stroke="#ffa500" points="406.2635,-501.0782 414.0331,-508.2812 412.4511,-497.8051 406.2635,-501.0782"/>
<text text-anchor="middle" x="434.9538" y="-482" font-family="Helvetica,sans-Serif" font-size="10.00" fill="#000000"> &lt; Detector &gt;</text>
</g>
<!-- Node14 -->
<g id="node10" class="node">
<title>Node14</title>
<polygon fill="none" stroke="#bfbfbf" points="457.9538,-987.5 457.9538,-1044.5 501.9538,-1044.5 501.9538,-987.5 457.9538,-987.5"/>
<text text-anchor="middle" x="479.9538" y="-1032.5" font-family="Helvetica,sans-Serif" font-size="10.00" fill="#000000">static</text>
<polyline fill="none" stroke="#bfbfbf" points="457.9538,-1025.5 501.9538,-1025.5 "/>
<text text-anchor="middle" x="479.9538" y="-1013.5" font-family="Helvetica,sans-Serif" font-size="10.00" fill="#000000"> </text>
<polyline fill="none" stroke="#bfbfbf" points="457.9538,-1006.5 501.9538,-1006.5 "/>
<text text-anchor="middle" x="479.9538" y="-994.5" font-family="Helvetica,sans-Serif" font-size="10.00" fill="#000000"> </text>
</g>
<!-- Node14&#45;&gt;Node13 -->
<g id="edge13" class="edge">
<title>Node14&#45;&gt;Node13</title>
<path fill="none" stroke="#404040" d="M479.2427,-987.4114C477.9351,-934.8487 475.0817,-820.1386 472.8801,-731.6354"/>
<polygon fill="none" stroke="#404040" points="472.8794,-731.6022 468.7313,-725.7035 472.5808,-719.6059 476.7289,-725.5045 472.8794,-731.6022"/>
<text text-anchor="middle" x="512.4538" y="-746.5" font-family="Helvetica,sans-Serif" font-size="10.00" fill="#000000"> #NHITBUFFERS</text>
</g>
</g>
</svg>
