<?xml version="1.0" encoding="UTF-8" standalone="no"?>
<!DOCTYPE svg PUBLIC "-//W3C//DTD SVG 1.1//EN"
 "http://www.w3.org/Graphics/SVG/1.1/DTD/svg11.dtd">
<!-- Generated by graphviz version 2.40.1 (20161225.0304)
 -->
<!-- Title: o2::tpc::CompressedClustersPtrs Pages: 1 -->
<svg width="611pt" height="624pt"
 viewBox="0.00 0.00 610.50 624.00" xmlns="http://www.w3.org/2000/svg" xmlns:xlink="http://www.w3.org/1999/xlink">
<g id="graph0" class="graph" transform="scale(1 1) rotate(0) translate(4 620)">
<title>o2::tpc::CompressedClustersPtrs</title>
<!-- Node5 -->
<g id="node1" class="node">
<title>Node5</title>
<polygon fill="#bfbfbf" stroke="#000000" points="96,-.5 96,-57.5 271,-57.5 271,-.5 96,-.5"/>
<text text-anchor="middle" x="183.5" y="-45.5" font-family="Helvetica,sans-Serif" font-size="10.00" fill="#000000">o2::tpc::CompressedClustersPtrs</text>
<polyline fill="none" stroke="#000000" points="96,-38.5 271,-38.5 "/>
<text text-anchor="middle" x="183.5" y="-26.5" font-family="Helvetica,sans-Serif" font-size="10.00" fill="#000000"> </text>
<polyline fill="none" stroke="#000000" points="96,-19.5 271,-19.5 "/>
<text text-anchor="middle" x="183.5" y="-7.5" font-family="Helvetica,sans-Serif" font-size="10.00" fill="#000000"> </text>
</g>
<!-- Node6 -->
<g id="node2" class="node">
<title>Node6</title>
<g id="a_node2"><a xlink:href="../../d7/dea/structo2_1_1tpc_1_1CompressedClustersPtrs__x.html" target="_top" xlink:title="{o2::tpc::CompressedClusters\lPtrs_x\&lt; unsigned char *,\l unsigned short *, unsigned int *\&gt;\n|+ sliceA\l|+ ClassDefNV()\l}">
<polygon fill="none" stroke="#000000" points="92.5,-95.5 92.5,-174.5 274.5,-174.5 274.5,-95.5 92.5,-95.5"/>
<text text-anchor="start" x="100.5" y="-162.5" font-family="Helvetica,sans-Serif" font-size="10.00" fill="#000000">o2::tpc::CompressedClusters</text>
<text text-anchor="start" x="100.5" y="-151.5" font-family="Helvetica,sans-Serif" font-size="10.00" fill="#000000">Ptrs_x&lt; unsigned char *,</text>
<text text-anchor="middle" x="183.5" y="-140.5" font-family="Helvetica,sans-Serif" font-size="10.00" fill="#000000"> unsigned short *, unsigned int *&gt;</text>
<polyline fill="none" stroke="#000000" points="92.5,-133.5 274.5,-133.5 "/>
<text text-anchor="start" x="100.5" y="-121.5" font-family="Helvetica,sans-Serif" font-size="10.00" fill="#000000">+ sliceA</text>
<polyline fill="none" stroke="#000000" points="92.5,-114.5 274.5,-114.5 "/>
<text text-anchor="start" x="100.5" y="-102.5" font-family="Helvetica,sans-Serif" font-size="10.00" fill="#000000">+ ClassDefNV()</text>
</a>
</g>
</g>
<!-- Node6&#45;&gt;Node5 -->
<g id="edge1" class="edge">
<title>Node6&#45;&gt;Node5</title>
<path fill="none" stroke="#191970" d="M183.5,-85.1394C183.5,-75.7425 183.5,-66.2136 183.5,-57.7397"/>
<polygon fill="none" stroke="#191970" points="180.0001,-85.2279 183.5,-95.2279 187.0001,-85.228 180.0001,-85.2279"/>
</g>
<!-- Node7 -->
<g id="node3" class="node">
<title>Node7</title>
<g id="a_node3"><a xlink:href="../../dc/d10/classshort.html" target="_top" xlink:title="{short\n||}">
<polygon fill="none" stroke="#000000" points="0,-338 0,-395 41,-395 41,-338 0,-338"/>
<text text-anchor="middle" x="20.5" y="-383" font-family="Helvetica,sans-Serif" font-size="10.00" fill="#000000">short</text>
<polyline fill="none" stroke="#000000" points="0,-376 41,-376 "/>
<text text-anchor="middle" x="20.5" y="-364" font-family="Helvetica,sans-Serif" font-size="10.00" fill="#000000"> </text>
<polyline fill="none" stroke="#000000" points="0,-357 41,-357 "/>
<text text-anchor="middle" x="20.5" y="-345" font-family="Helvetica,sans-Serif" font-size="10.00" fill="#000000"> </text>
</a>
</g>
</g>
<!-- Node7&#45;&gt;Node6 -->
<g id="edge2" class="edge">
<title>Node7&#45;&gt;Node6</title>
<path fill="none" stroke="#404040" d="M12.7846,-337.8895C4.58,-300.7261 -3.389,-235.581 27.5,-193 35.0773,-182.5545 56.3579,-172.3374 80.8571,-163.4608"/>
<polygon fill="none" stroke="#404040" points="80.968,-163.4222 85.3213,-157.6734 92.3023,-159.4807 87.949,-165.2295 80.968,-163.4222"/>
<text text-anchor="middle" x="67.5" y="-289.5" font-family="Helvetica,sans-Serif" font-size="10.00" fill="#000000"> +qMaxA</text>
<text text-anchor="middle" x="67.5" y="-278.5" font-family="Helvetica,sans-Serif" font-size="10.00" fill="#000000">+nTrackClusters</text>
<text text-anchor="middle" x="67.5" y="-267.5" font-family="Helvetica,sans-Serif" font-size="10.00" fill="#000000">+padDiffU</text>
<text text-anchor="middle" x="67.5" y="-256.5" font-family="Helvetica,sans-Serif" font-size="10.00" fill="#000000">+qMaxU</text>
<text text-anchor="middle" x="67.5" y="-245.5" font-family="Helvetica,sans-Serif" font-size="10.00" fill="#000000">+padA</text>
<text text-anchor="middle" x="67.5" y="-234.5" font-family="Helvetica,sans-Serif" font-size="10.00" fill="#000000">+padResA</text>
<text text-anchor="middle" x="67.5" y="-223.5" font-family="Helvetica,sans-Serif" font-size="10.00" fill="#000000">+qTotA</text>
<text text-anchor="middle" x="67.5" y="-212.5" font-family="Helvetica,sans-Serif" font-size="10.00" fill="#000000">+qTotU</text>
</g>
<!-- Node8 -->
<g id="node4" class="node">
<title>Node8</title>
<polygon fill="none" stroke="#bfbfbf" points="109,-338 109,-395 138,-395 138,-338 109,-338"/>
<text text-anchor="middle" x="123.5" y="-383" font-family="Helvetica,sans-Serif" font-size="10.00" fill="#000000">int</text>
<polyline fill="none" stroke="#bfbfbf" points="109,-376 138,-376 "/>
<text text-anchor="middle" x="123.5" y="-364" font-family="Helvetica,sans-Serif" font-size="10.00" fill="#000000"> </text>
<polyline fill="none" stroke="#bfbfbf" points="109,-357 138,-357 "/>
<text text-anchor="middle" x="123.5" y="-345" font-family="Helvetica,sans-Serif" font-size="10.00" fill="#000000"> </text>
</g>
<!-- Node8&#45;&gt;Node6 -->
<g id="edge3" class="edge">
<title>Node8&#45;&gt;Node6</title>
<path fill="none" stroke="#404040" d="M117.1818,-337.8229C110.7754,-302.279 104.3899,-240.5843 124.5,-193 125.6987,-190.1637 127.1103,-187.3957 128.6909,-184.7044"/>
<polygon fill="none" stroke="#404040" points="128.7479,-184.6213 128.84,-177.4108 135.5313,-174.7225 135.4392,-181.933 128.7479,-184.6213"/>
<text text-anchor="middle" x="173.5" y="-267.5" font-family="Helvetica,sans-Serif" font-size="10.00" fill="#000000"> +timeA</text>
<text text-anchor="middle" x="173.5" y="-256.5" font-family="Helvetica,sans-Serif" font-size="10.00" fill="#000000">+timeDiffU</text>
<text text-anchor="middle" x="173.5" y="-245.5" font-family="Helvetica,sans-Serif" font-size="10.00" fill="#000000">+nSliceRowClusters</text>
<text text-anchor="middle" x="173.5" y="-234.5" font-family="Helvetica,sans-Serif" font-size="10.00" fill="#000000">+timeResA</text>
</g>
<!-- Node9 -->
<g id="node5" class="node">
<title>Node9</title>
<g id="a_node5"><a xlink:href="../../d3/d41/classunsigned_01char_01_5.html" target="_top" xlink:title="{unsigned char *\n||}">
<polygon fill="none" stroke="#000000" points="198,-338 198,-395 291,-395 291,-338 198,-338"/>
<text text-anchor="middle" x="244.5" y="-383" font-family="Helvetica,sans-Serif" font-size="10.00" fill="#000000">unsigned char *</text>
<polyline fill="none" stroke="#000000" points="198,-376 291,-376 "/>
<text text-anchor="middle" x="244.5" y="-364" font-family="Helvetica,sans-Serif" font-size="10.00" fill="#000000"> </text>
<polyline fill="none" stroke="#000000" points="198,-357 291,-357 "/>
<text text-anchor="middle" x="244.5" y="-345" font-family="Helvetica,sans-Serif" font-size="10.00" fill="#000000"> </text>
</a>
</g>
</g>
<!-- Node9&#45;&gt;Node6 -->
<g id="edge4" class="edge">
<title>Node9&#45;&gt;Node6</title>
<path fill="none" stroke="#404040" d="M244.8684,-337.8962C244.4311,-302.6923 240.744,-241.6094 222.5,-193 221.5473,-190.4617 220.4638,-187.9246 219.2797,-185.4079"/>
<polygon fill="none" stroke="#404040" points="219.1526,-185.1679 212.8095,-181.7378 213.536,-174.5634 219.8791,-177.9934 219.1526,-185.1679"/>
<text text-anchor="middle" x="281" y="-306" font-family="Helvetica,sans-Serif" font-size="10.00" fill="#000000"> +rowA</text>
<text text-anchor="middle" x="281" y="-295" font-family="Helvetica,sans-Serif" font-size="10.00" fill="#000000">+sigmaPadA</text>
<text text-anchor="middle" x="281" y="-284" font-family="Helvetica,sans-Serif" font-size="10.00" fill="#000000">+sigmaTimeA</text>
<text text-anchor="middle" x="281" y="-273" font-family="Helvetica,sans-Serif" font-size="10.00" fill="#000000">+rowDiffA</text>
<text text-anchor="middle" x="281" y="-262" font-family="Helvetica,sans-Serif" font-size="10.00" fill="#000000">+sliceLegDiffA</text>
<text text-anchor="middle" x="281" y="-251" font-family="Helvetica,sans-Serif" font-size="10.00" fill="#000000">+sigmaPadU</text>
<text text-anchor="middle" x="281" y="-240" font-family="Helvetica,sans-Serif" font-size="10.00" fill="#000000">+flagsU</text>
<text text-anchor="middle" x="281" y="-229" font-family="Helvetica,sans-Serif" font-size="10.00" fill="#000000">+qPtA</text>
<text text-anchor="middle" x="281" y="-218" font-family="Helvetica,sans-Serif" font-size="10.00" fill="#000000">+flagsA</text>
<text text-anchor="middle" x="281" y="-207" font-family="Helvetica,sans-Serif" font-size="10.00" fill="#000000">+sigmaTimeU</text>
<text text-anchor="middle" x="281" y="-196" font-family="Helvetica,sans-Serif" font-size="10.00" fill="#000000">...</text>
</g>
<!-- Node10 -->
<g id="node6" class="node">
<title>Node10</title>
<g id="a_node6"><a xlink:href="../../d7/dea/structo2_1_1tpc_1_1CompressedClustersPtrs__x.html" target="_top" xlink:title="{o2::tpc::CompressedClusters\lPtrs_x\&lt; TCHAR, TSHORT, TINT \&gt;\n|+ sliceA\l|+ ClassDefNV()\l}">
<polygon fill="none" stroke="#000000" points="309.5,-332.5 309.5,-400.5 485.5,-400.5 485.5,-332.5 309.5,-332.5"/>
<text text-anchor="start" x="317.5" y="-388.5" font-family="Helvetica,sans-Serif" font-size="10.00" fill="#000000">o2::tpc::CompressedClusters</text>
<text text-anchor="middle" x="397.5" y="-377.5" font-family="Helvetica,sans-Serif" font-size="10.00" fill="#000000">Ptrs_x&lt; TCHAR, TSHORT, TINT &gt;</text>
<polyline fill="none" stroke="#000000" points="309.5,-370.5 485.5,-370.5 "/>
<text text-anchor="start" x="317.5" y="-358.5" font-family="Helvetica,sans-Serif" font-size="10.00" fill="#000000">+ sliceA</text>
<polyline fill="none" stroke="#000000" points="309.5,-351.5 485.5,-351.5 "/>
<text text-anchor="start" x="317.5" y="-339.5" font-family="Helvetica,sans-Serif" font-size="10.00" fill="#000000">+ ClassDefNV()</text>
</a>
</g>
</g>
<!-- Node10&#45;&gt;Node6 -->
<g id="edge5" class="edge">
<title>Node10&#45;&gt;Node6</title>
<path fill="none" stroke="#ffa500" d="M388.0523,-322.5634C377.6885,-283.9335 357.5206,-228.4847 321.5,-193 308.2627,-179.9596 291.6547,-169.6791 274.5915,-161.6341"/>
<polygon fill="#ffa500" stroke="#ffa500" points="384.7239,-323.6744 390.6001,-332.4904 391.5042,-321.9342 384.7239,-323.6744"/>
<text text-anchor="start" x="384.5" y="-262" font-family="Helvetica,sans-Serif" font-size="10.00" fill="#000000"> &lt; unsigned char *,</text>
<text text-anchor="start" x="384.5" y="-251" font-family="Helvetica,sans-Serif" font-size="10.00" fill="#000000"> unsigned short *, unsigned</text>
<text text-anchor="middle" x="451.5" y="-240" font-family="Helvetica,sans-Serif" font-size="10.00" fill="#000000"> int *&gt;</text>
</g>
<!-- Node11 -->
<g id="node7" class="node">
<title>Node11</title>
<polygon fill="none" stroke="#bfbfbf" points="276.5,-558.5 276.5,-615.5 326.5,-615.5 326.5,-558.5 276.5,-558.5"/>
<text text-anchor="middle" x="301.5" y="-603.5" font-family="Helvetica,sans-Serif" font-size="10.00" fill="#000000">TCHAR</text>
<polyline fill="none" stroke="#bfbfbf" points="276.5,-596.5 326.5,-596.5 "/>
<text text-anchor="middle" x="301.5" y="-584.5" font-family="Helvetica,sans-Serif" font-size="10.00" fill="#000000"> </text>
<polyline fill="none" stroke="#bfbfbf" points="276.5,-577.5 326.5,-577.5 "/>
<text text-anchor="middle" x="301.5" y="-565.5" font-family="Helvetica,sans-Serif" font-size="10.00" fill="#000000"> </text>
</g>
<!-- Node11&#45;&gt;Node10 -->
<g id="edge6" class="edge">
<title>Node11&#45;&gt;Node10</title>
<path fill="none" stroke="#404040" d="M297.849,-558.2632C294.816,-522.8583 294.5108,-462.112 320.5,-419 322.5465,-415.6051 324.9066,-412.3792 327.5014,-409.321"/>
<polygon fill="none" stroke="#404040" points="327.5577,-409.263 328.863,-402.171 335.9115,-400.6482 334.6062,-407.7402 327.5577,-409.263"/>
<text text-anchor="middle" x="357" y="-532" font-family="Helvetica,sans-Serif" font-size="10.00" fill="#000000"> +rowA</text>
<text text-anchor="middle" x="357" y="-521" font-family="Helvetica,sans-Serif" font-size="10.00" fill="#000000">+sigmaPadA</text>
<text text-anchor="middle" x="357" y="-510" font-family="Helvetica,sans-Serif" font-size="10.00" fill="#000000">+sigmaTimeA</text>
<text text-anchor="middle" x="357" y="-499" font-family="Helvetica,sans-Serif" font-size="10.00" fill="#000000">+rowDiffA</text>
<text text-anchor="middle" x="357" y="-488" font-family="Helvetica,sans-Serif" font-size="10.00" fill="#000000">+sliceLegDiffA</text>
<text text-anchor="middle" x="357" y="-477" font-family="Helvetica,sans-Serif" font-size="10.00" fill="#000000">+sigmaPadU</text>
<text text-anchor="middle" x="357" y="-466" font-family="Helvetica,sans-Serif" font-size="10.00" fill="#000000">+flagsU</text>
<text text-anchor="middle" x="357" y="-455" font-family="Helvetica,sans-Serif" font-size="10.00" fill="#000000">+qPtA</text>
<text text-anchor="middle" x="357" y="-444" font-family="Helvetica,sans-Serif" font-size="10.00" fill="#000000">+flagsA</text>
<text text-anchor="middle" x="357" y="-433" font-family="Helvetica,sans-Serif" font-size="10.00" fill="#000000">+sigmaTimeU</text>
<text text-anchor="middle" x="357" y="-422" font-family="Helvetica,sans-Serif" font-size="10.00" fill="#000000">...</text>
</g>
<!-- Node12 -->
<g id="node8" class="node">
<title>Node12</title>
<polygon fill="none" stroke="#bfbfbf" points="369.5,-558.5 369.5,-615.5 425.5,-615.5 425.5,-558.5 369.5,-558.5"/>
<text text-anchor="middle" x="397.5" y="-603.5" font-family="Helvetica,sans-Serif" font-size="10.00" fill="#000000">TSHORT</text>
<polyline fill="none" stroke="#bfbfbf" points="369.5,-596.5 425.5,-596.5 "/>
<text text-anchor="middle" x="397.5" y="-584.5" font-family="Helvetica,sans-Serif" font-size="10.00" fill="#000000"> </text>
<polyline fill="none" stroke="#bfbfbf" points="369.5,-577.5 425.5,-577.5 "/>
<text text-anchor="middle" x="397.5" y="-565.5" font-family="Helvetica,sans-Serif" font-size="10.00" fill="#000000"> </text>
</g>
<!-- Node12&#45;&gt;Node10 -->
<g id="edge7" class="edge">
<title>Node12&#45;&gt;Node10</title>
<path fill="none" stroke="#404040" d="M397.5,-558.1735C397.5,-521.2261 397.5,-456.7136 397.5,-412.8345"/>
<polygon fill="none" stroke="#404040" points="397.5001,-412.7678 393.5,-406.7679 397.5,-400.7678 401.5,-406.7678 397.5001,-412.7678"/>
<text text-anchor="middle" x="437.5" y="-515.5" font-family="Helvetica,sans-Serif" font-size="10.00" fill="#000000"> +qMaxA</text>
<text text-anchor="middle" x="437.5" y="-504.5" font-family="Helvetica,sans-Serif" font-size="10.00" fill="#000000">+nTrackClusters</text>
<text text-anchor="middle" x="437.5" y="-493.5" font-family="Helvetica,sans-Serif" font-size="10.00" fill="#000000">+padDiffU</text>
<text text-anchor="middle" x="437.5" y="-482.5" font-family="Helvetica,sans-Serif" font-size="10.00" fill="#000000">+qMaxU</text>
<text text-anchor="middle" x="437.5" y="-471.5" font-family="Helvetica,sans-Serif" font-size="10.00" fill="#000000">+padA</text>
<text text-anchor="middle" x="437.5" y="-460.5" font-family="Helvetica,sans-Serif" font-size="10.00" fill="#000000">+padResA</text>
<text text-anchor="middle" x="437.5" y="-449.5" font-family="Helvetica,sans-Serif" font-size="10.00" fill="#000000">+qTotA</text>
<text text-anchor="middle" x="437.5" y="-438.5" font-family="Helvetica,sans-Serif" font-size="10.00" fill="#000000">+qTotU</text>
</g>
<!-- Node13 -->
<g id="node9" class="node">
<title>Node13</title>
<polygon fill="none" stroke="#bfbfbf" points="481,-558.5 481,-615.5 520,-615.5 520,-558.5 481,-558.5"/>
<text text-anchor="middle" x="500.5" y="-603.5" font-family="Helvetica,sans-Serif" font-size="10.00" fill="#000000">TINT</text>
<polyline fill="none" stroke="#bfbfbf" points="481,-596.5 520,-596.5 "/>
<text text-anchor="middle" x="500.5" y="-584.5" font-family="Helvetica,sans-Serif" font-size="10.00" fill="#000000"> </text>
<polyline fill="none" stroke="#bfbfbf" points="481,-577.5 520,-577.5 "/>
<text text-anchor="middle" x="500.5" y="-565.5" font-family="Helvetica,sans-Serif" font-size="10.00" fill="#000000"> </text>
</g>
<!-- Node13&#45;&gt;Node10 -->
<g id="edge8" class="edge">
<title>Node13&#45;&gt;Node10</title>
<path fill="none" stroke="#404040" d="M503.6702,-558.4266C506.1515,-522.9168 505.5025,-461.7869 478.5,-419 476.3535,-415.5988 473.8976,-412.3738 471.2091,-409.3221"/>
<polygon fill="none" stroke="#404040" points="471.0312,-409.1451 463.9563,-407.7502 462.5228,-400.683 469.5977,-402.0779 471.0312,-409.1451"/>
<text text-anchor="middle" x="553.5" y="-493.5" font-family="Helvetica,sans-Serif" font-size="10.00" fill="#000000"> +timeA</text>
<text text-anchor="middle" x="553.5" y="-482.5" font-family="Helvetica,sans-Serif" font-size="10.00" fill="#000000">+timeDiffU</text>
<text text-anchor="middle" x="553.5" y="-471.5" font-family="Helvetica,sans-Serif" font-size="10.00" fill="#000000">+nSliceRowClusters</text>
<text text-anchor="middle" x="553.5" y="-460.5" font-family="Helvetica,sans-Serif" font-size="10.00" fill="#000000">+timeResA</text>
</g>
</g>
</svg>
