<?xml version="1.0" encoding="UTF-8" standalone="no"?>
<!DOCTYPE svg PUBLIC "-//W3C//DTD SVG 1.1//EN"
 "http://www.w3.org/Graphics/SVG/1.1/DTD/svg11.dtd">
<!-- Generated by graphviz version 2.40.1 (20161225.0304)
 -->
<!-- Title: /home/travis/build/AliceO2Group/AliceO2/Detectors/FIT/FV0/base/include/FV0Base/Geometry.h Pages: 1 -->
<!--zoomable 528 -->
<svg id="main" version="1.1" xmlns="http://www.w3.org/2000/svg" xmlns:xlink="http://www.w3.org/1999/xlink" xml:space="preserve" onload="init(evt)">
<style type="text/css"><![CDATA[
.edge:hover path { stroke: red; }
.edge:hover polygon { stroke: red; fill: red; }
]]></style>
<script type="text/javascript"><![CDATA[
var edges = document.getElementsByTagName('g');
if (edges && edges.length) {
  for (var i=0;i<edges.length;i++) {
    if (edges[i].id.substr(0,4)=='edge') {
      edges[i].setAttribute('class','edge');
    }
  }
}
]]></script>
        <defs>
                <circle id="rim" cx="0" cy="0" r="7"/>
                <circle id="rim2" cx="0" cy="0" r="3.5"/>
                <g id="zoomPlus">
                        <use xlink:href="#rim" fill="#404040">
                                <set attributeName="fill" to="#808080" begin="zoomplus.mouseover" end="zoomplus.mouseout"/>
                        </use>
                        <path d="M-4,0h8M0,-4v8" fill="none" stroke="white" stroke-width="1.5" pointer-events="none"/>
                </g>
                <g id="zoomMin">
                        <use xlink:href="#rim" fill="#404040">
                                <set attributeName="fill" to="#808080" begin="zoomminus.mouseover" end="zoomminus.mouseout"/>
                        </use>
                        <path d="M-4,0h8" fill="none" stroke="white" stroke-width="1.5" pointer-events="none"/>
                </g>
                <g id="dirArrow">
                        <path fill="none" stroke="white" stroke-width="1.5" d="M0,-3.0v7 M-2.5,-0.5L0,-3.0L2.5,-0.5"/>
                </g>
               <g id="resetDef">
                       <use xlink:href="#rim2" fill="#404040">
                               <set attributeName="fill" to="#808080" begin="reset.mouseover" end="reset.mouseout"/>
                       </use>
               </g>
        </defs>

<script type="text/javascript">
var viewWidth = 2137;
var viewHeight = 528;
var sectionId = 'dynsection-1';
</script>
<script xlink:href="../../svgpan.js"/>
<svg id="graph" class="graph">
<g id="viewport">
<title>/home/travis/build/AliceO2Group/AliceO2/Detectors/FIT/FV0/base/include/FV0Base/Geometry.h</title>
<!-- Node6 -->
<g id="node1" class="node">
<title>Node6</title>
<polygon fill="#bfbfbf" stroke="#000000" points="1094,-467.5 1094,-519.5 1253,-519.5 1253,-467.5 1094,-467.5"/>
<text text-anchor="start" x="1102" y="-507.5" font-family="Helvetica,sans-Serif" font-size="10.00" fill="#000000">/home/travis/build</text>
<text text-anchor="start" x="1102" y="-496.5" font-family="Helvetica,sans-Serif" font-size="10.00" fill="#000000">/AliceO2Group/AliceO2</text>
<text text-anchor="start" x="1102" y="-485.5" font-family="Helvetica,sans-Serif" font-size="10.00" fill="#000000">/Detectors/FIT/FV0/base</text>
<text text-anchor="middle" x="1173.5" y="-474.5" font-family="Helvetica,sans-Serif" font-size="10.00" fill="#000000">/include/FV0Base/Geometry.h</text>
</g>
<!-- Node7 -->
<g id="node2" class="node">
<title>Node7</title>
<g id="a_node2"><a xlink:href="../../d0/dfe/Detectors_2FIT_2FV0_2base_2include_2FV0Base_2Constants_8h.html" target="_top" xlink:title="/home/travis/build\l/AliceO2Group/AliceO2\l/Detectors/FIT/FV0/base\l/include/FV0Base/Constants.h">
<polygon fill="none" stroke="#000000" points="543,-378.5 543,-430.5 704,-430.5 704,-378.5 543,-378.5"/>
<text text-anchor="start" x="551" y="-418.5" font-family="Helvetica,sans-Serif" font-size="10.00" fill="#000000">/home/travis/build</text>
<text text-anchor="start" x="551" y="-407.5" font-family="Helvetica,sans-Serif" font-size="10.00" fill="#000000">/AliceO2Group/AliceO2</text>
<text text-anchor="start" x="551" y="-396.5" font-family="Helvetica,sans-Serif" font-size="10.00" fill="#000000">/Detectors/FIT/FV0/base</text>
<text text-anchor="middle" x="623.5" y="-385.5" font-family="Helvetica,sans-Serif" font-size="10.00" fill="#000000">/include/FV0Base/Constants.h</text>
</a>
</g>
</g>
<!-- Node6&#45;&gt;Node7 -->
<g id="edge1" class="edge">
<title>Node6&#45;&gt;Node7</title>
<path fill="none" stroke="#191970" d="M1083.4884,-484.7753C991.2547,-474.9858 843.9893,-456.9963 718.5,-431 713.8053,-430.0275 709.0011,-428.9506 704.1675,-427.804"/>
<polygon fill="#191970" stroke="#191970" points="1083.3138,-488.2762 1093.6252,-485.8417 1084.0462,-481.3146 1083.3138,-488.2762"/>
</g>
<!-- Node18 -->
<g id="node13" class="node">
<title>Node18</title>
<g id="a_node13"><a xlink:href="../../da/d9b/FIT_2FV0_2simulation_2src_2Digitizer_8cxx.html" target="_top" xlink:title="/home/travis/build\l/AliceO2Group/AliceO2\l/Detectors/FIT/FV0/simulation\l/src/Digitizer.cxx">
<polygon fill="none" stroke="#000000" points="656.5,-184 656.5,-236 816.5,-236 816.5,-184 656.5,-184"/>
<text text-anchor="start" x="664.5" y="-224" font-family="Helvetica,sans-Serif" font-size="10.00" fill="#000000">/home/travis/build</text>
<text text-anchor="start" x="664.5" y="-213" font-family="Helvetica,sans-Serif" font-size="10.00" fill="#000000">/AliceO2Group/AliceO2</text>
<text text-anchor="start" x="664.5" y="-202" font-family="Helvetica,sans-Serif" font-size="10.00" fill="#000000">/Detectors/FIT/FV0/simulation</text>
<text text-anchor="middle" x="736.5" y="-191" font-family="Helvetica,sans-Serif" font-size="10.00" fill="#000000">/src/Digitizer.cxx</text>
</a>
</g>
</g>
<!-- Node6&#45;&gt;Node18 -->
<g id="edge36" class="edge">
<title>Node6&#45;&gt;Node18</title>
<path fill="none" stroke="#191970" d="M1083.6669,-473.5931C971.4951,-446.7946 789.2192,-396.1866 747.5,-342 724.2122,-311.7528 726.5006,-265.2302 730.9879,-236.2575"/>
<polygon fill="#191970" stroke="#191970" points="1083.0883,-477.0528 1093.626,-475.9539 1084.703,-470.2416 1083.0883,-477.0528"/>
</g>
<!-- Node20 -->
<g id="node15" class="node">
<title>Node20</title>
<g id="a_node15"><a xlink:href="../../d9/dbf/FIT_2FV0_2base_2src_2Geometry_8cxx.html" target="_top" xlink:title="/home/travis/build\l/AliceO2Group/AliceO2\l/Detectors/FIT/FV0/base\l/src/Geometry.cxx">
<polygon fill="none" stroke="#000000" points="1015,-378.5 1015,-430.5 1146,-430.5 1146,-378.5 1015,-378.5"/>
<text text-anchor="start" x="1023" y="-418.5" font-family="Helvetica,sans-Serif" font-size="10.00" fill="#000000">/home/travis/build</text>
<text text-anchor="start" x="1023" y="-407.5" font-family="Helvetica,sans-Serif" font-size="10.00" fill="#000000">/AliceO2Group/AliceO2</text>
<text text-anchor="start" x="1023" y="-396.5" font-family="Helvetica,sans-Serif" font-size="10.00" fill="#000000">/Detectors/FIT/FV0/base</text>
<text text-anchor="middle" x="1080.5" y="-385.5" font-family="Helvetica,sans-Serif" font-size="10.00" fill="#000000">/src/Geometry.cxx</text>
</a>
</g>
</g>
<!-- Node6&#45;&gt;Node20 -->
<g id="edge19" class="edge">
<title>Node6&#45;&gt;Node20</title>
<path fill="none" stroke="#191970" d="M1138.7968,-460.2894C1128.5246,-450.459 1117.4299,-439.8415 1107.7042,-430.5341"/>
<polygon fill="#191970" stroke="#191970" points="1136.4553,-462.8931 1146.0999,-467.2784 1141.2951,-457.8357 1136.4553,-462.8931"/>
</g>
<!-- Node21 -->
<g id="node16" class="node">
<title>Node21</title>
<g id="a_node16"><a xlink:href="../../d5/df7/FIT_2FV0_2reconstruction_2include_2FV0Reconstruction_2CTFCoder_8h.html" target="_top" xlink:title="/home/travis/build\l/AliceO2Group/AliceO2\l/Detectors/FIT/FV0/reconstruction\l/include/FV0Reconstruction/CTFCoder.h">
<polygon fill="none" stroke="#000000" points="1164.5,-378.5 1164.5,-430.5 1370.5,-430.5 1370.5,-378.5 1164.5,-378.5"/>
<text text-anchor="start" x="1172.5" y="-418.5" font-family="Helvetica,sans-Serif" font-size="10.00" fill="#000000">/home/travis/build</text>
<text text-anchor="start" x="1172.5" y="-407.5" font-family="Helvetica,sans-Serif" font-size="10.00" fill="#000000">/AliceO2Group/AliceO2</text>
<text text-anchor="start" x="1172.5" y="-396.5" font-family="Helvetica,sans-Serif" font-size="10.00" fill="#000000">/Detectors/FIT/FV0/reconstruction</text>
<text text-anchor="middle" x="1267.5" y="-385.5" font-family="Helvetica,sans-Serif" font-size="10.00" fill="#000000">/include/FV0Reconstruction/CTFCoder.h</text>
</a>
</g>
</g>
<!-- Node6&#45;&gt;Node21 -->
<g id="edge20" class="edge">
<title>Node6&#45;&gt;Node21</title>
<path fill="none" stroke="#191970" d="M1208.5763,-460.2894C1218.959,-450.459 1230.173,-439.8415 1240.0033,-430.5341"/>
<polygon fill="#191970" stroke="#191970" points="1206.0499,-457.8615 1201.1947,-467.2784 1210.8626,-462.9447 1206.0499,-457.8615"/>
</g>
<!-- Node29 -->
<g id="node24" class="node">
<title>Node29</title>
<g id="a_node24"><a xlink:href="../../d5/d26/FIT_2FV0_2simulation_2include_2FV0Simulation_2Detector_8h.html" target="_top" xlink:title="/home/travis/build\l/AliceO2Group/AliceO2\l/Detectors/FIT/FV0/simulation\l/include/FV0Simulation/Detector.h">
<polygon fill="none" stroke="#000000" points="1619.5,-378.5 1619.5,-430.5 1801.5,-430.5 1801.5,-378.5 1619.5,-378.5"/>
<text text-anchor="start" x="1627.5" y="-418.5" font-family="Helvetica,sans-Serif" font-size="10.00" fill="#000000">/home/travis/build</text>
<text text-anchor="start" x="1627.5" y="-407.5" font-family="Helvetica,sans-Serif" font-size="10.00" fill="#000000">/AliceO2Group/AliceO2</text>
<text text-anchor="start" x="1627.5" y="-396.5" font-family="Helvetica,sans-Serif" font-size="10.00" fill="#000000">/Detectors/FIT/FV0/simulation</text>
<text text-anchor="middle" x="1710.5" y="-385.5" font-family="Helvetica,sans-Serif" font-size="10.00" fill="#000000">/include/FV0Simulation/Detector.h</text>
</a>
</g>
</g>
<!-- Node6&#45;&gt;Node29 -->
<g id="edge29" class="edge">
<title>Node6&#45;&gt;Node29</title>
<path fill="none" stroke="#191970" d="M1262.9873,-478.6688C1361.7639,-462.298 1519.9114,-436.0873 1619.3489,-419.607"/>
<polygon fill="#191970" stroke="#191970" points="1262.3183,-475.2318 1253.0251,-480.3199 1263.4629,-482.1376 1262.3183,-475.2318"/>
</g>
<!-- Node30 -->
<g id="node25" class="node">
<title>Node30</title>
<g id="a_node25"><a xlink:href="../../d6/d5c/FIT_2FV0_2simulation_2src_2Detector_8cxx.html" target="_top" xlink:title="/home/travis/build\l/AliceO2Group/AliceO2\l/Detectors/FIT/FV0/simulation\l/src/Detector.cxx">
<polygon fill="none" stroke="#000000" points="1968.5,-284 1968.5,-336 2128.5,-336 2128.5,-284 1968.5,-284"/>
<text text-anchor="start" x="1976.5" y="-324" font-family="Helvetica,sans-Serif" font-size="10.00" fill="#000000">/home/travis/build</text>
<text text-anchor="start" x="1976.5" y="-313" font-family="Helvetica,sans-Serif" font-size="10.00" fill="#000000">/AliceO2Group/AliceO2</text>
<text text-anchor="start" x="1976.5" y="-302" font-family="Helvetica,sans-Serif" font-size="10.00" fill="#000000">/Detectors/FIT/FV0/simulation</text>
<text text-anchor="middle" x="2048.5" y="-291" font-family="Helvetica,sans-Serif" font-size="10.00" fill="#000000">/src/Detector.cxx</text>
</a>
</g>
</g>
<!-- Node6&#45;&gt;Node30 -->
<g id="edge35" class="edge">
<title>Node6&#45;&gt;Node30</title>
<path fill="none" stroke="#191970" d="M1263.3969,-488.8007C1413.9093,-480.2447 1710.2687,-460.2647 1810.5,-431 1884.5843,-409.3695 1962.9771,-364.6916 2008.7356,-336.0958"/>
<polygon fill="#191970" stroke="#191970" points="1263.0442,-485.315 1253.257,-489.3724 1263.4382,-492.3039 1263.0442,-485.315"/>
</g>
<!-- Node8 -->
<g id="node3" class="node">
<title>Node8</title>
<g id="a_node3"><a xlink:href="../../d8/d41/FV0_2include_2DataFormatsFV0_2LookUpTable_8h.html" target="_top" xlink:title="/home/travis/build\l/AliceO2Group/AliceO2\l/DataFormats/Detectors\l/FIT/FV0/include/DataFormatsFV0\l/LookUpTable.h">
<polygon fill="none" stroke="#000000" points="396,-278.5 396,-341.5 573,-341.5 573,-278.5 396,-278.5"/>
<text text-anchor="start" x="404" y="-329.5" font-family="Helvetica,sans-Serif" font-size="10.00" fill="#000000">/home/travis/build</text>
<text text-anchor="start" x="404" y="-318.5" font-family="Helvetica,sans-Serif" font-size="10.00" fill="#000000">/AliceO2Group/AliceO2</text>
<text text-anchor="start" x="404" y="-307.5" font-family="Helvetica,sans-Serif" font-size="10.00" fill="#000000">/DataFormats/Detectors</text>
<text text-anchor="start" x="404" y="-296.5" font-family="Helvetica,sans-Serif" font-size="10.00" fill="#000000">/FIT/FV0/include/DataFormatsFV0</text>
<text text-anchor="middle" x="484.5" y="-285.5" font-family="Helvetica,sans-Serif" font-size="10.00" fill="#000000">/LookUpTable.h</text>
</a>
</g>
</g>
<!-- Node7&#45;&gt;Node8 -->
<g id="edge2" class="edge">
<title>Node7&#45;&gt;Node8</title>
<path fill="none" stroke="#191970" d="M576.6598,-372.6554C561.9003,-362.6211 545.6098,-351.5459 530.8823,-341.5333"/>
<polygon fill="#191970" stroke="#191970" points="574.912,-375.6994 585.1497,-378.4273 578.8477,-369.9105 574.912,-375.6994"/>
</g>
<!-- Node9 -->
<g id="node4" class="node">
<title>Node9</title>
<g id="a_node4"><a xlink:href="../../dc/da9/FV0_2include_2DataFormatsFV0_2RawEventData_8h.html" target="_top" xlink:title="/home/travis/build\l/AliceO2Group/AliceO2\l/DataFormats/Detectors\l/FIT/FV0/include/DataFormatsFV0\l/RawEventData.h">
<polygon fill="none" stroke="#000000" points="261,-178.5 261,-241.5 438,-241.5 438,-178.5 261,-178.5"/>
<text text-anchor="start" x="269" y="-229.5" font-family="Helvetica,sans-Serif" font-size="10.00" fill="#000000">/home/travis/build</text>
<text text-anchor="start" x="269" y="-218.5" font-family="Helvetica,sans-Serif" font-size="10.00" fill="#000000">/AliceO2Group/AliceO2</text>
<text text-anchor="start" x="269" y="-207.5" font-family="Helvetica,sans-Serif" font-size="10.00" fill="#000000">/DataFormats/Detectors</text>
<text text-anchor="start" x="269" y="-196.5" font-family="Helvetica,sans-Serif" font-size="10.00" fill="#000000">/FIT/FV0/include/DataFormatsFV0</text>
<text text-anchor="middle" x="349.5" y="-185.5" font-family="Helvetica,sans-Serif" font-size="10.00" fill="#000000">/RawEventData.h</text>
</a>
</g>
</g>
<!-- Node7&#45;&gt;Node9 -->
<g id="edge12" class="edge">
<title>Node7&#45;&gt;Node9</title>
<path fill="none" stroke="#191970" d="M532.8039,-390.1506C475.1326,-379.27 407.4953,-362.6735 386.5,-342 359.7055,-315.6162 351.8914,-271.5184 349.8353,-241.6225"/>
<polygon fill="#191970" stroke="#191970" points="532.2321,-393.6041 542.7019,-391.9812 533.5052,-386.7208 532.2321,-393.6041"/>
</g>
<!-- Node15 -->
<g id="node10" class="node">
<title>Node15</title>
<g id="a_node10"><a xlink:href="../../d5/da7/FV0_2simulation_2src_2Digits2Raw_8cxx.html" target="_top" xlink:title="/home/travis/build\l/AliceO2Group/AliceO2\l/Detectors/FIT/FV0/simulation\l/src/Digits2Raw.cxx">
<polygon fill="none" stroke="#000000" points="559.5,-.5 559.5,-52.5 719.5,-52.5 719.5,-.5 559.5,-.5"/>
<text text-anchor="start" x="567.5" y="-40.5" font-family="Helvetica,sans-Serif" font-size="10.00" fill="#000000">/home/travis/build</text>
<text text-anchor="start" x="567.5" y="-29.5" font-family="Helvetica,sans-Serif" font-size="10.00" fill="#000000">/AliceO2Group/AliceO2</text>
<text text-anchor="start" x="567.5" y="-18.5" font-family="Helvetica,sans-Serif" font-size="10.00" fill="#000000">/Detectors/FIT/FV0/simulation</text>
<text text-anchor="middle" x="639.5" y="-7.5" font-family="Helvetica,sans-Serif" font-size="10.00" fill="#000000">/src/Digits2Raw.cxx</text>
</a>
</g>
</g>
<!-- Node7&#45;&gt;Node15 -->
<g id="edge18" class="edge">
<title>Node7&#45;&gt;Node15</title>
<path fill="none" stroke="#191970" d="M625.0371,-368.1865C628.2481,-292.3267 635.6008,-118.6178 638.395,-52.6061"/>
<polygon fill="#191970" stroke="#191970" points="621.5385,-368.0808 624.6124,-378.2199 628.5323,-368.3769 621.5385,-368.0808"/>
</g>
<!-- Node16 -->
<g id="node11" class="node">
<title>Node16</title>
<g id="a_node11"><a xlink:href="../../d7/d64/test__ctf__io__fv0_8cxx.html" target="_top" xlink:title="/home/travis/build\l/AliceO2Group/AliceO2\l/Detectors/CTF/test/test\l_ctf_io_fv0.cxx">
<polygon fill="none" stroke="#000000" points="757,-284 757,-336 888,-336 888,-284 757,-284"/>
<text text-anchor="start" x="765" y="-324" font-family="Helvetica,sans-Serif" font-size="10.00" fill="#000000">/home/travis/build</text>
<text text-anchor="start" x="765" y="-313" font-family="Helvetica,sans-Serif" font-size="10.00" fill="#000000">/AliceO2Group/AliceO2</text>
<text text-anchor="start" x="765" y="-302" font-family="Helvetica,sans-Serif" font-size="10.00" fill="#000000">/Detectors/CTF/test/test</text>
<text text-anchor="middle" x="822.5" y="-291" font-family="Helvetica,sans-Serif" font-size="10.00" fill="#000000">_ctf_io_fv0.cxx</text>
</a>
</g>
</g>
<!-- Node7&#45;&gt;Node16 -->
<g id="edge13" class="edge">
<title>Node7&#45;&gt;Node16</title>
<path fill="none" stroke="#191970" d="M687.6957,-374.0151C713.3999,-361.8088 742.7158,-347.8875 767.4297,-336.1515"/>
<polygon fill="#191970" stroke="#191970" points="685.9362,-370.976 678.4044,-378.4273 688.939,-377.2992 685.9362,-370.976"/>
</g>
<!-- Node17 -->
<g id="node12" class="node">
<title>Node17</title>
<g id="a_node12"><a xlink:href="../../d6/d82/FIT_2FV0_2simulation_2include_2FV0Simulation_2Digitizer_8h.html" target="_top" xlink:title="/home/travis/build\l/AliceO2Group/AliceO2\l/Detectors/FIT/FV0/simulation\l/include/FV0Simulation/Digitizer.h">
<polygon fill="none" stroke="#000000" points="906,-284 906,-336 1087,-336 1087,-284 906,-284"/>
<text text-anchor="start" x="914" y="-324" font-family="Helvetica,sans-Serif" font-size="10.00" fill="#000000">/home/travis/build</text>
<text text-anchor="start" x="914" y="-313" font-family="Helvetica,sans-Serif" font-size="10.00" fill="#000000">/AliceO2Group/AliceO2</text>
<text text-anchor="start" x="914" y="-302" font-family="Helvetica,sans-Serif" font-size="10.00" fill="#000000">/Detectors/FIT/FV0/simulation</text>
<text text-anchor="middle" x="996.5" y="-291" font-family="Helvetica,sans-Serif" font-size="10.00" fill="#000000">/include/FV0Simulation/Digitizer.h</text>
</a>
</g>
</g>
<!-- Node7&#45;&gt;Node17 -->
<g id="edge14" class="edge">
<title>Node7&#45;&gt;Node17</title>
<path fill="none" stroke="#191970" d="M714.0629,-385.781C767.4387,-374.2482 836.1295,-358.5379 896.5,-342 903.2685,-340.1458 910.263,-338.1256 917.2622,-336.0312"/>
<polygon fill="#191970" stroke="#191970" points="713.3206,-382.3605 704.2801,-387.885 714.7925,-389.204 713.3206,-382.3605"/>
</g>
<!-- Node7&#45;&gt;Node18 -->
<g id="edge17" class="edge">
<title>Node7&#45;&gt;Node18</title>
<path fill="none" stroke="#191970" d="M643.8336,-369.501C666.1116,-331.1553 701.3309,-270.5343 721.3217,-236.1254"/>
<polygon fill="#191970" stroke="#191970" points="640.7369,-367.864 638.7397,-378.2689 646.7896,-371.3804 640.7369,-367.864"/>
</g>
<!-- Node8&#45;&gt;Node9 -->
<g id="edge3" class="edge">
<title>Node8&#45;&gt;Node9</title>
<path fill="none" stroke="#191970" d="M433.4954,-272.2188C419.9516,-262.1863 405.4639,-251.4547 392.4003,-241.778"/>
<polygon fill="#191970" stroke="#191970" points="431.6663,-275.2195 441.7852,-278.3594 435.8329,-269.5946 431.6663,-275.2195"/>
</g>
<!-- Node11 -->
<g id="node6" class="node">
<title>Node11</title>
<g id="a_node6"><a xlink:href="../../d5/db3/FV0_2reconstruction_2include_2FV0Reconstruction_2ReadRaw_8h.html" target="_top" xlink:title="/home/travis/build\l/AliceO2Group/AliceO2\l/Detectors/FIT/FV0/reconstruction\l/include/FV0Reconstruction/ReadRaw.h">
<polygon fill="none" stroke="#000000" points="184.5,-89.5 184.5,-141.5 388.5,-141.5 388.5,-89.5 184.5,-89.5"/>
<text text-anchor="start" x="192.5" y="-129.5" font-family="Helvetica,sans-Serif" font-size="10.00" fill="#000000">/home/travis/build</text>
<text text-anchor="start" x="192.5" y="-118.5" font-family="Helvetica,sans-Serif" font-size="10.00" fill="#000000">/AliceO2Group/AliceO2</text>
<text text-anchor="start" x="192.5" y="-107.5" font-family="Helvetica,sans-Serif" font-size="10.00" fill="#000000">/Detectors/FIT/FV0/reconstruction</text>
<text text-anchor="middle" x="286.5" y="-96.5" font-family="Helvetica,sans-Serif" font-size="10.00" fill="#000000">/include/FV0Reconstruction/ReadRaw.h</text>
</a>
</g>
</g>
<!-- Node8&#45;&gt;Node11 -->
<g id="edge10" class="edge">
<title>Node8&#45;&gt;Node11</title>
<path fill="none" stroke="#191970" d="M482.0069,-268.3442C478.2289,-239.7429 468.9683,-202.6391 446.5,-178 430.927,-160.9224 410.1193,-148.4568 388.6735,-139.3758"/>
<polygon fill="#191970" stroke="#191970" points="478.55,-268.9211 483.165,-278.4579 485.5045,-268.1246 478.55,-268.9211"/>
</g>
<!-- Node13 -->
<g id="node8" class="node">
<title>Node13</title>
<g id="a_node8"><a xlink:href="../../d6/dc1/FV0_2simulation_2include_2FV0Simulation_2Digits2Raw_8h.html" target="_top" xlink:title="/home/travis/build\l/AliceO2Group/AliceO2\l/Detectors/FIT/FV0/simulation\l/include/FV0Simulation/Digits2Raw.h">
<polygon fill="none" stroke="#000000" points="406,-89.5 406,-141.5 601,-141.5 601,-89.5 406,-89.5"/>
<text text-anchor="start" x="414" y="-129.5" font-family="Helvetica,sans-Serif" font-size="10.00" fill="#000000">/home/travis/build</text>
<text text-anchor="start" x="414" y="-118.5" font-family="Helvetica,sans-Serif" font-size="10.00" fill="#000000">/AliceO2Group/AliceO2</text>
<text text-anchor="start" x="414" y="-107.5" font-family="Helvetica,sans-Serif" font-size="10.00" fill="#000000">/Detectors/FIT/FV0/simulation</text>
<text text-anchor="middle" x="503.5" y="-96.5" font-family="Helvetica,sans-Serif" font-size="10.00" fill="#000000">/include/FV0Simulation/Digits2Raw.h</text>
</a>
</g>
</g>
<!-- Node8&#45;&gt;Node13 -->
<g id="edge11" class="edge">
<title>Node8&#45;&gt;Node13</title>
<path fill="none" stroke="#191970" d="M488.6058,-267.9697C492.3592,-229.5464 497.7929,-173.9224 500.9544,-141.5592"/>
<polygon fill="#191970" stroke="#191970" points="485.0839,-268.0244 487.595,-278.3173 492.0507,-268.705 485.0839,-268.0244"/>
</g>
<!-- Node10 -->
<g id="node5" class="node">
<title>Node10</title>
<g id="a_node5"><a xlink:href="../../d5/dc4/FV0_2src_2RawEventData_8cxx.html" target="_top" xlink:title="/home/travis/build\l/AliceO2Group/AliceO2\l/DataFormats/Detectors\l/FIT/FV0/src/RawEventData.cxx">
<polygon fill="none" stroke="#000000" points="0,-89.5 0,-141.5 167,-141.5 167,-89.5 0,-89.5"/>
<text text-anchor="start" x="8" y="-129.5" font-family="Helvetica,sans-Serif" font-size="10.00" fill="#000000">/home/travis/build</text>
<text text-anchor="start" x="8" y="-118.5" font-family="Helvetica,sans-Serif" font-size="10.00" fill="#000000">/AliceO2Group/AliceO2</text>
<text text-anchor="start" x="8" y="-107.5" font-family="Helvetica,sans-Serif" font-size="10.00" fill="#000000">/DataFormats/Detectors</text>
<text text-anchor="middle" x="83.5" y="-96.5" font-family="Helvetica,sans-Serif" font-size="10.00" fill="#000000">/FIT/FV0/src/RawEventData.cxx</text>
</a>
</g>
</g>
<!-- Node9&#45;&gt;Node10 -->
<g id="edge4" class="edge">
<title>Node9&#45;&gt;Node10</title>
<path fill="none" stroke="#191970" d="M251.342,-175.1281C220.1493,-164.0465 186.2058,-151.9876 157.0579,-141.6324"/>
<polygon fill="#191970" stroke="#191970" points="250.3311,-178.4832 260.9259,-178.5329 252.6745,-171.8871 250.3311,-178.4832"/>
</g>
<!-- Node9&#45;&gt;Node11 -->
<g id="edge5" class="edge">
<title>Node9&#45;&gt;Node11</title>
<path fill="none" stroke="#191970" d="M322.6347,-169.702C316.3039,-160.2058 309.7177,-150.3266 303.9294,-141.6442"/>
<polygon fill="#191970" stroke="#191970" points="319.8874,-171.8909 328.3467,-178.27 325.7118,-168.008 319.8874,-171.8909"/>
</g>
<!-- Node9&#45;&gt;Node13 -->
<g id="edge7" class="edge">
<title>Node9&#45;&gt;Node13</title>
<path fill="none" stroke="#191970" d="M409.987,-172.883C427.0074,-162.4387 445.1573,-151.3012 460.8947,-141.6442"/>
<polygon fill="#191970" stroke="#191970" points="407.9008,-170.0566 401.2082,-178.27 411.562,-176.0229 407.9008,-170.0566"/>
</g>
<!-- Node12 -->
<g id="node7" class="node">
<title>Node12</title>
<g id="a_node7"><a xlink:href="../../d6/d62/FV0_2reconstruction_2src_2ReadRaw_8cxx.html" target="_top" xlink:title="/home/travis/build\l/AliceO2Group/AliceO2\l/Detectors/FIT/FV0/reconstruction\l/src/ReadRaw.cxx">
<polygon fill="none" stroke="#000000" points="185.5,-.5 185.5,-52.5 363.5,-52.5 363.5,-.5 185.5,-.5"/>
<text text-anchor="start" x="193.5" y="-40.5" font-family="Helvetica,sans-Serif" font-size="10.00" fill="#000000">/home/travis/build</text>
<text text-anchor="start" x="193.5" y="-29.5" font-family="Helvetica,sans-Serif" font-size="10.00" fill="#000000">/AliceO2Group/AliceO2</text>
<text text-anchor="start" x="193.5" y="-18.5" font-family="Helvetica,sans-Serif" font-size="10.00" fill="#000000">/Detectors/FIT/FV0/reconstruction</text>
<text text-anchor="middle" x="274.5" y="-7.5" font-family="Helvetica,sans-Serif" font-size="10.00" fill="#000000">/src/ReadRaw.cxx</text>
</a>
</g>
</g>
<!-- Node11&#45;&gt;Node12 -->
<g id="edge6" class="edge">
<title>Node11&#45;&gt;Node12</title>
<path fill="none" stroke="#191970" d="M281.5942,-79.1155C280.393,-70.2061 279.1311,-60.8475 278.0102,-52.5341"/>
<polygon fill="#191970" stroke="#191970" points="278.1596,-79.8358 282.9645,-89.2784 285.0968,-78.9004 278.1596,-79.8358"/>
</g>
<!-- Node14 -->
<g id="node9" class="node">
<title>Node14</title>
<g id="a_node9"><a xlink:href="../../d7/d4a/FIT_2FV0_2simulation_2src_2digit2raw_8cxx.html" target="_top" xlink:title="/home/travis/build\l/AliceO2Group/AliceO2\l/Detectors/FIT/FV0/simulation\l/src/digit2raw.cxx">
<polygon fill="none" stroke="#000000" points="381.5,-.5 381.5,-52.5 541.5,-52.5 541.5,-.5 381.5,-.5"/>
<text text-anchor="start" x="389.5" y="-40.5" font-family="Helvetica,sans-Serif" font-size="10.00" fill="#000000">/home/travis/build</text>
<text text-anchor="start" x="389.5" y="-29.5" font-family="Helvetica,sans-Serif" font-size="10.00" fill="#000000">/AliceO2Group/AliceO2</text>
<text text-anchor="start" x="389.5" y="-18.5" font-family="Helvetica,sans-Serif" font-size="10.00" fill="#000000">/Detectors/FIT/FV0/simulation</text>
<text text-anchor="middle" x="461.5" y="-7.5" font-family="Helvetica,sans-Serif" font-size="10.00" fill="#000000">/src/digit2raw.cxx</text>
</a>
</g>
</g>
<!-- Node13&#45;&gt;Node14 -->
<g id="edge8" class="edge">
<title>Node13&#45;&gt;Node14</title>
<path fill="none" stroke="#191970" d="M486.7404,-79.9856C482.4139,-70.8176 477.8369,-61.1186 473.7858,-52.5341"/>
<polygon fill="#191970" stroke="#191970" points="483.6927,-81.7286 491.1258,-89.2784 490.0232,-78.7411 483.6927,-81.7286"/>
</g>
<!-- Node13&#45;&gt;Node15 -->
<g id="edge9" class="edge">
<title>Node13&#45;&gt;Node15</title>
<path fill="none" stroke="#191970" d="M552.07,-83.7152C567.6906,-73.4929 584.8046,-62.2933 599.7175,-52.5341"/>
<polygon fill="#191970" stroke="#191970" points="550.0199,-80.8739 543.5689,-89.2784 553.853,-86.7312 550.0199,-80.8739"/>
</g>
<!-- Node17&#45;&gt;Node18 -->
<g id="edge15" class="edge">
<title>Node17&#45;&gt;Node18</title>
<path fill="none" stroke="#191970" d="M919.2434,-280.2859C882.7095,-266.2344 839.4834,-249.609 804.2458,-236.0561"/>
<polygon fill="#191970" stroke="#191970" points="918.2769,-283.6641 928.8668,-283.9872 920.7898,-277.1307 918.2769,-283.6641"/>
</g>
<!-- Node19 -->
<g id="node14" class="node">
<title>Node19</title>
<g id="a_node14"><a xlink:href="../../d0/d1c/FV0DigitizerSpec_8cxx.html" target="_top" xlink:title="/home/travis/build\l/AliceO2Group/AliceO2\l/Steer/DigitizerWorkflow\l/src/FV0DigitizerSpec.cxx">
<polygon fill="none" stroke="#000000" points="926.5,-184 926.5,-236 1066.5,-236 1066.5,-184 926.5,-184"/>
<text text-anchor="start" x="934.5" y="-224" font-family="Helvetica,sans-Serif" font-size="10.00" fill="#000000">/home/travis/build</text>
<text text-anchor="start" x="934.5" y="-213" font-family="Helvetica,sans-Serif" font-size="10.00" fill="#000000">/AliceO2Group/AliceO2</text>
<text text-anchor="start" x="934.5" y="-202" font-family="Helvetica,sans-Serif" font-size="10.00" fill="#000000">/Steer/DigitizerWorkflow</text>
<text text-anchor="middle" x="996.5" y="-191" font-family="Helvetica,sans-Serif" font-size="10.00" fill="#000000">/src/FV0DigitizerSpec.cxx</text>
</a>
</g>
</g>
<!-- Node17&#45;&gt;Node19 -->
<g id="edge16" class="edge">
<title>Node17&#45;&gt;Node19</title>
<path fill="none" stroke="#191970" d="M996.5,-273.8962C996.5,-261.4433 996.5,-247.7413 996.5,-236.2299"/>
<polygon fill="#191970" stroke="#191970" points="993.0001,-273.9872 996.5,-283.9872 1000.0001,-273.9873 993.0001,-273.9872"/>
</g>
<!-- Node21&#45;&gt;Node16 -->
<g id="edge21" class="edge">
<title>Node21&#45;&gt;Node16</title>
<path fill="none" stroke="#191970" d="M1154.8066,-378.0573C1154.7043,-378.0382 1154.6021,-378.0191 1154.5,-378 1040.6873,-356.7606 1007.9776,-373.2601 896.5,-342 890.5701,-340.3372 884.4925,-338.3006 878.4933,-336.0679"/>
<polygon fill="#191970" stroke="#191970" points="1153.9471,-381.4559 1164.4297,-379.9176 1155.2758,-374.5831 1153.9471,-381.4559"/>
</g>
<!-- Node22 -->
<g id="node17" class="node">
<title>Node22</title>
<g id="a_node17"><a xlink:href="../../db/d3b/FIT_2FV0_2reconstruction_2src_2CTFCoder_8cxx.html" target="_top" xlink:title="/home/travis/build\l/AliceO2Group/AliceO2\l/Detectors/FIT/FV0/reconstruction\l/src/CTFCoder.cxx">
<polygon fill="none" stroke="#000000" points="1105.5,-284 1105.5,-336 1283.5,-336 1283.5,-284 1105.5,-284"/>
<text text-anchor="start" x="1113.5" y="-324" font-family="Helvetica,sans-Serif" font-size="10.00" fill="#000000">/home/travis/build</text>
<text text-anchor="start" x="1113.5" y="-313" font-family="Helvetica,sans-Serif" font-size="10.00" fill="#000000">/AliceO2Group/AliceO2</text>
<text text-anchor="start" x="1113.5" y="-302" font-family="Helvetica,sans-Serif" font-size="10.00" fill="#000000">/Detectors/FIT/FV0/reconstruction</text>
<text text-anchor="middle" x="1194.5" y="-291" font-family="Helvetica,sans-Serif" font-size="10.00" fill="#000000">/src/CTFCoder.cxx</text>
</a>
</g>
</g>
<!-- Node21&#45;&gt;Node22 -->
<g id="edge22" class="edge">
<title>Node21&#45;&gt;Node22</title>
<path fill="none" stroke="#191970" d="M1241.2134,-370.4714C1232.5263,-359.2258 1222.9997,-346.8935 1214.8285,-336.3157"/>
<polygon fill="#191970" stroke="#191970" points="1238.476,-372.6532 1247.3592,-378.4273 1244.0157,-368.3739 1238.476,-372.6532"/>
</g>
<!-- Node23 -->
<g id="node18" class="node">
<title>Node23</title>
<g id="a_node18"><a xlink:href="../../d0/d18/FIT_2FV0_2workflow_2include_2FV0Workflow_2EntropyDecoderSpec_8h.html" target="_top" xlink:title="/home/travis/build\l/AliceO2Group/AliceO2\l/Detectors/FIT/FV0/workflow\l/include/FV0Workflow/EntropyDecoderSpec.h">
<polygon fill="none" stroke="#000000" points="1301.5,-284 1301.5,-336 1535.5,-336 1535.5,-284 1301.5,-284"/>
<text text-anchor="start" x="1309.5" y="-324" font-family="Helvetica,sans-Serif" font-size="10.00" fill="#000000">/home/travis/build</text>
<text text-anchor="start" x="1309.5" y="-313" font-family="Helvetica,sans-Serif" font-size="10.00" fill="#000000">/AliceO2Group/AliceO2</text>
<text text-anchor="start" x="1309.5" y="-302" font-family="Helvetica,sans-Serif" font-size="10.00" fill="#000000">/Detectors/FIT/FV0/workflow</text>
<text text-anchor="middle" x="1418.5" y="-291" font-family="Helvetica,sans-Serif" font-size="10.00" fill="#000000">/include/FV0Workflow/EntropyDecoderSpec.h</text>
</a>
</g>
</g>
<!-- Node21&#45;&gt;Node23 -->
<g id="edge23" class="edge">
<title>Node21&#45;&gt;Node23</title>
<path fill="none" stroke="#191970" d="M1317.7567,-373.0479C1336.8839,-361.0776 1358.4537,-347.5786 1376.713,-336.1515"/>
<polygon fill="#191970" stroke="#191970" points="1315.7812,-370.1553 1309.1611,-378.4273 1319.4948,-376.0891 1315.7812,-370.1553"/>
</g>
<!-- Node26 -->
<g id="node21" class="node">
<title>Node26</title>
<g id="a_node21"><a xlink:href="../../de/de1/FIT_2FV0_2workflow_2include_2FV0Workflow_2EntropyEncoderSpec_8h.html" target="_top" xlink:title="/home/travis/build\l/AliceO2Group/AliceO2\l/Detectors/FIT/FV0/workflow\l/include/FV0Workflow/EntropyEncoderSpec.h">
<polygon fill="none" stroke="#000000" points="1554,-284 1554,-336 1787,-336 1787,-284 1554,-284"/>
<text text-anchor="start" x="1562" y="-324" font-family="Helvetica,sans-Serif" font-size="10.00" fill="#000000">/home/travis/build</text>
<text text-anchor="start" x="1562" y="-313" font-family="Helvetica,sans-Serif" font-size="10.00" fill="#000000">/AliceO2Group/AliceO2</text>
<text text-anchor="start" x="1562" y="-302" font-family="Helvetica,sans-Serif" font-size="10.00" fill="#000000">/Detectors/FIT/FV0/workflow</text>
<text text-anchor="middle" x="1670.5" y="-291" font-family="Helvetica,sans-Serif" font-size="10.00" fill="#000000">/include/FV0Workflow/EntropyEncoderSpec.h</text>
</a>
</g>
</g>
<!-- Node21&#45;&gt;Node26 -->
<g id="edge26" class="edge">
<title>Node21&#45;&gt;Node26</title>
<path fill="none" stroke="#191970" d="M1380.5096,-379.7203C1430.792,-368.5097 1490.6792,-354.9038 1544.5,-342 1552.4011,-340.1057 1560.5717,-338.1113 1568.7798,-336.0825"/>
<polygon fill="#191970" stroke="#191970" points="1379.5863,-376.3401 1370.5858,-381.9296 1381.1074,-383.1728 1379.5863,-376.3401"/>
</g>
<!-- Node24 -->
<g id="node19" class="node">
<title>Node24</title>
<g id="a_node19"><a xlink:href="../../dc/d55/ctf-reader-workflow_8cxx.html" target="_top" xlink:title="/home/travis/build\l/AliceO2Group/AliceO2\l/Detectors/CTF/workflow\l/src/ctf&#45;reader&#45;workflow.cxx">
<polygon fill="none" stroke="#000000" points="1170,-184 1170,-236 1321,-236 1321,-184 1170,-184"/>
<text text-anchor="start" x="1178" y="-224" font-family="Helvetica,sans-Serif" font-size="10.00" fill="#000000">/home/travis/build</text>
<text text-anchor="start" x="1178" y="-213" font-family="Helvetica,sans-Serif" font-size="10.00" fill="#000000">/AliceO2Group/AliceO2</text>
<text text-anchor="start" x="1178" y="-202" font-family="Helvetica,sans-Serif" font-size="10.00" fill="#000000">/Detectors/CTF/workflow</text>
<text text-anchor="middle" x="1245.5" y="-191" font-family="Helvetica,sans-Serif" font-size="10.00" fill="#000000">/src/ctf&#45;reader&#45;workflow.cxx</text>
</a>
</g>
</g>
<!-- Node23&#45;&gt;Node24 -->
<g id="edge24" class="edge">
<title>Node23&#45;&gt;Node24</title>
<path fill="none" stroke="#191970" d="M1364.5969,-278.8422C1340.8335,-265.106 1313.2254,-249.1476 1290.577,-236.0561"/>
<polygon fill="#191970" stroke="#191970" points="1363.0886,-282.0129 1373.4979,-283.9872 1366.5918,-275.9525 1363.0886,-282.0129"/>
</g>
<!-- Node25 -->
<g id="node20" class="node">
<title>Node25</title>
<g id="a_node20"><a xlink:href="../../dd/dce/FIT_2FV0_2workflow_2src_2EntropyDecoderSpec_8cxx.html" target="_top" xlink:title="/home/travis/build\l/AliceO2Group/AliceO2\l/Detectors/FIT/FV0/workflow\l/src/EntropyDecoderSpec.cxx">
<polygon fill="none" stroke="#000000" points="1339.5,-184 1339.5,-236 1497.5,-236 1497.5,-184 1339.5,-184"/>
<text text-anchor="start" x="1347.5" y="-224" font-family="Helvetica,sans-Serif" font-size="10.00" fill="#000000">/home/travis/build</text>
<text text-anchor="start" x="1347.5" y="-213" font-family="Helvetica,sans-Serif" font-size="10.00" fill="#000000">/AliceO2Group/AliceO2</text>
<text text-anchor="start" x="1347.5" y="-202" font-family="Helvetica,sans-Serif" font-size="10.00" fill="#000000">/Detectors/FIT/FV0/workflow</text>
<text text-anchor="middle" x="1418.5" y="-191" font-family="Helvetica,sans-Serif" font-size="10.00" fill="#000000">/src/EntropyDecoderSpec.cxx</text>
</a>
</g>
</g>
<!-- Node23&#45;&gt;Node25 -->
<g id="edge25" class="edge">
<title>Node23&#45;&gt;Node25</title>
<path fill="none" stroke="#191970" d="M1418.5,-273.8962C1418.5,-261.4433 1418.5,-247.7413 1418.5,-236.2299"/>
<polygon fill="#191970" stroke="#191970" points="1415.0001,-273.9872 1418.5,-283.9872 1422.0001,-273.9873 1415.0001,-273.9872"/>
</g>
<!-- Node27 -->
<g id="node22" class="node">
<title>Node27</title>
<g id="a_node22"><a xlink:href="../../d8/d40/FIT_2FV0_2workflow_2src_2entropy-encoder-workflow_8cxx.html" target="_top" xlink:title="/home/travis/build\l/AliceO2Group/AliceO2\l/Detectors/FIT/FV0/workflow\l/src/entropy&#45;encoder&#45;workflow.cxx">
<polygon fill="none" stroke="#000000" points="1515.5,-184 1515.5,-236 1699.5,-236 1699.5,-184 1515.5,-184"/>
<text text-anchor="start" x="1523.5" y="-224" font-family="Helvetica,sans-Serif" font-size="10.00" fill="#000000">/home/travis/build</text>
<text text-anchor="start" x="1523.5" y="-213" font-family="Helvetica,sans-Serif" font-size="10.00" fill="#000000">/AliceO2Group/AliceO2</text>
<text text-anchor="start" x="1523.5" y="-202" font-family="Helvetica,sans-Serif" font-size="10.00" fill="#000000">/Detectors/FIT/FV0/workflow</text>
<text text-anchor="middle" x="1607.5" y="-191" font-family="Helvetica,sans-Serif" font-size="10.00" fill="#000000">/src/entropy&#45;encoder&#45;workflow.cxx</text>
</a>
</g>
</g>
<!-- Node26&#45;&gt;Node27 -->
<g id="edge27" class="edge">
<title>Node26&#45;&gt;Node27</title>
<path fill="none" stroke="#191970" d="M1648.6921,-275.3843C1640.6021,-262.543 1631.5671,-248.2017 1624.0249,-236.2299"/>
<polygon fill="#191970" stroke="#191970" points="1645.8202,-277.3919 1654.112,-283.9872 1651.7429,-273.6606 1645.8202,-277.3919"/>
</g>
<!-- Node28 -->
<g id="node23" class="node">
<title>Node28</title>
<g id="a_node23"><a xlink:href="../../d6/dec/FIT_2FV0_2workflow_2src_2EntropyEncoderSpec_8cxx.html" target="_top" xlink:title="/home/travis/build\l/AliceO2Group/AliceO2\l/Detectors/FIT/FV0/workflow\l/src/EntropyEncoderSpec.cxx">
<polygon fill="none" stroke="#000000" points="1718,-184 1718,-236 1875,-236 1875,-184 1718,-184"/>
<text text-anchor="start" x="1726" y="-224" font-family="Helvetica,sans-Serif" font-size="10.00" fill="#000000">/home/travis/build</text>
<text text-anchor="start" x="1726" y="-213" font-family="Helvetica,sans-Serif" font-size="10.00" fill="#000000">/AliceO2Group/AliceO2</text>
<text text-anchor="start" x="1726" y="-202" font-family="Helvetica,sans-Serif" font-size="10.00" fill="#000000">/Detectors/FIT/FV0/workflow</text>
<text text-anchor="middle" x="1796.5" y="-191" font-family="Helvetica,sans-Serif" font-size="10.00" fill="#000000">/src/EntropyEncoderSpec.cxx</text>
</a>
</g>
</g>
<!-- Node26&#45;&gt;Node28 -->
<g id="edge28" class="edge">
<title>Node26&#45;&gt;Node28</title>
<path fill="none" stroke="#191970" d="M1711.3352,-277.5911C1728.2009,-264.2056 1747.4956,-248.8924 1763.4503,-236.2299"/>
<polygon fill="#191970" stroke="#191970" points="1708.9332,-275.0291 1703.2761,-283.9872 1713.2848,-280.5121 1708.9332,-275.0291"/>
</g>
<!-- Node29&#45;&gt;Node17 -->
<g id="edge30" class="edge">
<title>Node29&#45;&gt;Node17</title>
<path fill="none" stroke="#191970" d="M1609.4415,-396.7832C1461.1287,-385.0197 1191.7944,-361.8706 1096.5,-342 1088.5592,-340.3442 1080.3574,-338.2971 1072.2254,-336.0448"/>
<polygon fill="#191970" stroke="#191970" points="1609.2249,-400.277 1619.4696,-397.5759 1609.7765,-393.2987 1609.2249,-400.277"/>
</g>
<!-- Node29&#45;&gt;Node30 -->
<g id="edge31" class="edge">
<title>Node29&#45;&gt;Node30</title>
<path fill="none" stroke="#191970" d="M1811.449,-381.5698C1856.9718,-370.6132 1911.2364,-356.6942 1959.5,-342 1965.469,-340.1827 1971.627,-338.1998 1977.7863,-336.1406"/>
<polygon fill="#191970" stroke="#191970" points="1810.4859,-378.2013 1801.5753,-383.9329 1812.1153,-385.0091 1810.4859,-378.2013"/>
</g>
<!-- Node31 -->
<g id="node26" class="node">
<title>Node31</title>
<g id="a_node26"><a xlink:href="../../db/d50/O2HitMerger_8h.html" target="_top" xlink:title="/home/travis/build\l/AliceO2Group/AliceO2\l/run/O2HitMerger.h">
<polygon fill="none" stroke="#000000" points="1805,-289.5 1805,-330.5 1932,-330.5 1932,-289.5 1805,-289.5"/>
<text text-anchor="start" x="1813" y="-318.5" font-family="Helvetica,sans-Serif" font-size="10.00" fill="#000000">/home/travis/build</text>
<text text-anchor="start" x="1813" y="-307.5" font-family="Helvetica,sans-Serif" font-size="10.00" fill="#000000">/AliceO2Group/AliceO2</text>
<text text-anchor="middle" x="1868.5" y="-296.5" font-family="Helvetica,sans-Serif" font-size="10.00" fill="#000000">/run/O2HitMerger.h</text>
</a>
</g>
</g>
<!-- Node29&#45;&gt;Node31 -->
<g id="edge32" class="edge">
<title>Node29&#45;&gt;Node31</title>
<path fill="none" stroke="#191970" d="M1762.8734,-373.1754C1786.2887,-359.1707 1813.2382,-343.0522 1834.055,-330.6016"/>
<polygon fill="#191970" stroke="#191970" points="1760.878,-370.2905 1754.0924,-378.4273 1764.4711,-376.298 1760.878,-370.2905"/>
</g>
<!-- Node31&#45;&gt;Node31 -->
<g id="edge33" class="edge">
<title>Node31&#45;&gt;Node31</title>
<path fill="none" stroke="#191970" d="M1941.6757,-322.8946C1946.8451,-319.9609 1950,-315.6627 1950,-310 1950,-301.3711 1942.6744,-295.9106 1932.058,-293.6186"/>
<polygon fill="#191970" stroke="#191970" points="1940.2663,-319.6826 1932.058,-326.3814 1942.6522,-326.2634 1940.2663,-319.6826"/>
</g>
<!-- Node32 -->
<g id="node27" class="node">
<title>Node32</title>
<g id="a_node27"><a xlink:href="../../d9/d16/O2HitMergerRunner_8cxx.html" target="_top" xlink:title="/home/travis/build\l/AliceO2Group/AliceO2\l/run/O2HitMergerRunner.cxx">
<polygon fill="none" stroke="#000000" points="1893,-189.5 1893,-230.5 2046,-230.5 2046,-189.5 1893,-189.5"/>
<text text-anchor="start" x="1901" y="-218.5" font-family="Helvetica,sans-Serif" font-size="10.00" fill="#000000">/home/travis/build</text>
<text text-anchor="start" x="1901" y="-207.5" font-family="Helvetica,sans-Serif" font-size="10.00" fill="#000000">/AliceO2Group/AliceO2</text>
<text text-anchor="middle" x="1969.5" y="-196.5" font-family="Helvetica,sans-Serif" font-size="10.00" fill="#000000">/run/O2HitMergerRunner.cxx</text>
</a>
</g>
</g>
<!-- Node31&#45;&gt;Node32 -->
<g id="edge34" class="edge">
<title>Node31&#45;&gt;Node32</title>
<path fill="none" stroke="#191970" d="M1896.68,-282.099C1913.1455,-265.7965 1933.5741,-245.5702 1948.5995,-230.6935"/>
<polygon fill="#191970" stroke="#191970" points="1894.0709,-279.7569 1889.4273,-289.2799 1898.996,-284.7313 1894.0709,-279.7569"/>
</g>
</g>
</svg>
        <g id="navigator" transform="translate(0 0)" fill="#404254">
                <rect fill="#f2f5e9" fill-opacity="0.5" stroke="#606060" stroke-width=".5" x="0" y="0" width="60" height="60"/>
                <use id="zoomplus" xlink:href="#zoomPlus" x="17" y="9" onmousedown="handleZoom(evt,'in')"/>
                <use id="zoomminus" xlink:href="#zoomMin" x="42" y="9" onmousedown="handleZoom(evt,'out')"/>
                <use id="reset" xlink:href="#resetDef" x="30" y="36" onmousedown="handleReset()"/>
                <g id="arrowUp" xlink:href="#dirArrow" transform="translate(30 24)" onmousedown="handlePan(0,-1)">
                  <use xlink:href="#rim" fill="#404040">
                        <set attributeName="fill" to="#808080" begin="arrowUp.mouseover" end="arrowUp.mouseout"/>
                  </use>
                  <path fill="none" stroke="white" stroke-width="1.5" d="M0,-3.0v7 M-2.5,-0.5L0,-3.0L2.5,-0.5"/>
                </g>
                <g id="arrowRight" xlink:href="#dirArrow" transform="rotate(90) translate(36 -43)" onmousedown="handlePan(1,0)">
                  <use xlink:href="#rim" fill="#404040">
                        <set attributeName="fill" to="#808080" begin="arrowRight.mouseover" end="arrowRight.mouseout"/>
                  </use>
                  <path fill="none" stroke="white" stroke-width="1.5" d="M0,-3.0v7 M-2.5,-0.5L0,-3.0L2.5,-0.5"/>
                </g>
                <g id="arrowDown" xlink:href="#dirArrow" transform="rotate(180) translate(-30 -48)" onmousedown="handlePan(0,1)">
                  <use xlink:href="#rim" fill="#404040">
                        <set attributeName="fill" to="#808080" begin="arrowDown.mouseover" end="arrowDown.mouseout"/>
                  </use>
                  <path fill="none" stroke="white" stroke-width="1.5" d="M0,-3.0v7 M-2.5,-0.5L0,-3.0L2.5,-0.5"/>
                </g>
                <g id="arrowLeft" xlink:href="#dirArrow" transform="rotate(270) translate(-36 17)" onmousedown="handlePan(-1,0)">
                  <use xlink:href="#rim" fill="#404040">
                        <set attributeName="fill" to="#808080" begin="arrowLeft.mouseover" end="arrowLeft.mouseout"/>
                  </use>
                  <path fill="none" stroke="white" stroke-width="1.5" d="M0,-3.0v7 M-2.5,-0.5L0,-3.0L2.5,-0.5"/>
                </g>
        </g>
        <svg viewBox="0 0 15 15" width="100%" height="30px" preserveAspectRatio="xMaxYMin meet">
         <g id="arrow_out" transform="scale(0.3 0.3)">
          <a xlink:href="FIT_2FV0_2base_2include_2FV0Base_2Geometry_8h__dep__incl_org.svg" target="_base">
           <rect id="button" ry="5" rx="5" y="6" x="6" height="38" width="38"
                fill="#f2f5e9" fill-opacity="0.5" stroke="#606060" stroke-width="1.0"/>
           <path id="arrow"
             d="M 11.500037,31.436501 C 11.940474,20.09759 22.043105,11.32322 32.158766,21.979434 L 37.068811,17.246167 C 37.068811,17.246167 37.088388,32 37.088388,32 L 22.160133,31.978069 C 22.160133,31.978069 26.997745,27.140456 26.997745,27.140456 C 18.528582,18.264221 13.291696,25.230495 11.500037,31.436501 z"
             style="fill:#404040;"/>
          </a>
         </g>
        </svg>
</svg>
