<?xml version="1.0" encoding="UTF-8" standalone="no"?>
<!DOCTYPE svg PUBLIC "-//W3C//DTD SVG 1.1//EN"
 "http://www.w3.org/Graphics/SVG/1.1/DTD/svg11.dtd">
<!-- Generated by graphviz version 2.40.1 (20161225.0304)
 -->
<!-- Title: /home/travis/build/AliceO2Group/AliceO2/Detectors/Base/src/CTFCoderBase.cxx Pages: 1 -->
<!--zoomable 598 -->
<svg id="main" version="1.1" xmlns="http://www.w3.org/2000/svg" xmlns:xlink="http://www.w3.org/1999/xlink" xml:space="preserve" onload="init(evt)">
<style type="text/css"><![CDATA[
.edge:hover path { stroke: red; }
.edge:hover polygon { stroke: red; fill: red; }
]]></style>
<script type="text/javascript"><![CDATA[
var edges = document.getElementsByTagName('g');
if (edges && edges.length) {
  for (var i=0;i<edges.length;i++) {
    if (edges[i].id.substr(0,4)=='edge') {
      edges[i].setAttribute('class','edge');
    }
  }
}
]]></script>
        <defs>
                <circle id="rim" cx="0" cy="0" r="7"/>
                <circle id="rim2" cx="0" cy="0" r="3.5"/>
                <g id="zoomPlus">
                        <use xlink:href="#rim" fill="#404040">
                                <set attributeName="fill" to="#808080" begin="zoomplus.mouseover" end="zoomplus.mouseout"/>
                        </use>
                        <path d="M-4,0h8M0,-4v8" fill="none" stroke="white" stroke-width="1.5" pointer-events="none"/>
                </g>
                <g id="zoomMin">
                        <use xlink:href="#rim" fill="#404040">
                                <set attributeName="fill" to="#808080" begin="zoomminus.mouseover" end="zoomminus.mouseout"/>
                        </use>
                        <path d="M-4,0h8" fill="none" stroke="white" stroke-width="1.5" pointer-events="none"/>
                </g>
                <g id="dirArrow">
                        <path fill="none" stroke="white" stroke-width="1.5" d="M0,-3.0v7 M-2.5,-0.5L0,-3.0L2.5,-0.5"/>
                </g>
               <g id="resetDef">
                       <use xlink:href="#rim2" fill="#404040">
                               <set attributeName="fill" to="#808080" begin="reset.mouseover" end="reset.mouseout"/>
                       </use>
               </g>
        </defs>

<script type="text/javascript">
var viewWidth = 3368;
var viewHeight = 598;
var sectionId = 'dynsection-0';
</script>
<script xlink:href="../../svgpan.js"/>
<svg id="graph" class="graph">
<g id="viewport">
<title>/home/travis/build/AliceO2Group/AliceO2/Detectors/Base/src/CTFCoderBase.cxx</title>
<!-- Node0 -->
<g id="node1" class="node">
<title>Node0</title>
<polygon fill="#bfbfbf" stroke="#000000" points="903.5,-537.5 903.5,-589.5 1064.5,-589.5 1064.5,-537.5 903.5,-537.5"/>
<text text-anchor="start" x="911.5" y="-577.5" font-family="Helvetica,sans-Serif" font-size="10.00" fill="#000000">/home/travis/build</text>
<text text-anchor="start" x="911.5" y="-566.5" font-family="Helvetica,sans-Serif" font-size="10.00" fill="#000000">/AliceO2Group/AliceO2</text>
<text text-anchor="start" x="911.5" y="-555.5" font-family="Helvetica,sans-Serif" font-size="10.00" fill="#000000">/Detectors/Base/src/CTFCoder</text>
<text text-anchor="middle" x="984" y="-544.5" font-family="Helvetica,sans-Serif" font-size="10.00" fill="#000000">Base.cxx</text>
</g>
<!-- Node1 -->
<g id="node2" class="node">
<title>Node1</title>
<g id="a_node2"><a xlink:href="../../df/d3a/CTFHeader_8h.html" target="_top" xlink:title="Header for CTF collection. ">
<polygon fill="none" stroke="#000000" points="706.5,-414.5 706.5,-444.5 877.5,-444.5 877.5,-414.5 706.5,-414.5"/>
<text text-anchor="start" x="714.5" y="-432.5" font-family="Helvetica,sans-Serif" font-size="10.00" fill="#000000">DetectorsCommonDataFormats</text>
<text text-anchor="middle" x="792" y="-421.5" font-family="Helvetica,sans-Serif" font-size="10.00" fill="#000000">/CTFHeader.h</text>
</a>
</g>
</g>
<!-- Node0&#45;&gt;Node1 -->
<g id="edge1" class="edge">
<title>Node0&#45;&gt;Node1</title>
<path fill="none" stroke="#191970" d="M946.5247,-537.3453C910.1595,-511.9655 855.6765,-473.9409 822.0621,-450.4808"/>
<polygon fill="#191970" stroke="#191970" points="823.7818,-447.4129 813.5783,-444.5599 819.7755,-453.1532 823.7818,-447.4129"/>
</g>
<!-- Node26 -->
<g id="node27" class="node">
<title>Node26</title>
<g id="a_node27"><a xlink:href="../../d4/dbb/CTFCoderBase_8h.html" target="_top" xlink:title="Declarations for CTFCoderBase class (support of external dictionaries) ">
<polygon fill="none" stroke="#000000" points="1092,-481.5 1092,-500.5 1262,-500.5 1262,-481.5 1092,-481.5"/>
<text text-anchor="middle" x="1177" y="-488.5" font-family="Helvetica,sans-Serif" font-size="10.00" fill="#000000">DetectorsBase/CTFCoderBase.h</text>
</a>
</g>
</g>
<!-- Node0&#45;&gt;Node26 -->
<g id="edge35" class="edge">
<title>Node0&#45;&gt;Node26</title>
<path fill="none" stroke="#191970" d="M1053.4048,-537.4283C1083.4192,-526.1534 1117.2391,-513.449 1141.9041,-504.1837"/>
<polygon fill="#191970" stroke="#191970" points="1143.4133,-507.3556 1151.5438,-500.5626 1140.9516,-500.8027 1143.4133,-507.3556"/>
</g>
<!-- Node2 -->
<g id="node3" class="node">
<title>Node2</title>
<polygon fill="none" stroke="#bfbfbf" points="299.5,-291.5 299.5,-310.5 358.5,-310.5 358.5,-291.5 299.5,-291.5"/>
<text text-anchor="middle" x="329" y="-298.5" font-family="Helvetica,sans-Serif" font-size="10.00" fill="#000000">Rtypes.h</text>
</g>
<!-- Node1&#45;&gt;Node2 -->
<g id="edge2" class="edge">
<title>Node1&#45;&gt;Node2</title>
<path fill="none" stroke="#191970" d="M729.0083,-414.4336C688.3611,-404.5247 634.4165,-391.0249 587,-378 509.1979,-356.6284 419.0215,-329.0711 368.5275,-313.3854"/>
<polygon fill="#191970" stroke="#191970" points="369.2619,-309.9484 358.6735,-310.3184 367.1816,-316.6321 369.2619,-309.9484"/>
</g>
<!-- Node3 -->
<g id="node4" class="node">
<title>Node3</title>
<polygon fill="none" stroke="#bfbfbf" points="1121,-230 1121,-249 1165,-249 1165,-230 1121,-230"/>
<text text-anchor="middle" x="1143" y="-237" font-family="Helvetica,sans-Serif" font-size="10.00" fill="#000000">string</text>
</g>
<!-- Node1&#45;&gt;Node3 -->
<g id="edge3" class="edge">
<title>Node1&#45;&gt;Node3</title>
<path fill="none" stroke="#191970" d="M795.7325,-414.077C803.6455,-384.9232 825.0122,-321.8893 868,-291 941.7009,-238.0414 979.9102,-272.3047 1069,-255 1082.7258,-252.3339 1097.8415,-249.2028 1110.8139,-246.4554"/>
<polygon fill="#191970" stroke="#191970" points="1111.6397,-249.858 1120.6905,-244.3504 1110.1805,-243.0118 1111.6397,-249.858"/>
</g>
<!-- Node4 -->
<g id="node5" class="node">
<title>Node4</title>
<g id="a_node5"><a xlink:href="../../d6/d31/DetID_8h.html" target="_top" xlink:title="DetectorsCommonDataFormats\l/DetID.h">
<polygon fill="none" stroke="#000000" points="877.5,-347.5 877.5,-377.5 1048.5,-377.5 1048.5,-347.5 877.5,-347.5"/>
<text text-anchor="start" x="885.5" y="-365.5" font-family="Helvetica,sans-Serif" font-size="10.00" fill="#000000">DetectorsCommonDataFormats</text>
<text text-anchor="middle" x="963" y="-354.5" font-family="Helvetica,sans-Serif" font-size="10.00" fill="#000000">/DetID.h</text>
</a>
</g>
</g>
<!-- Node1&#45;&gt;Node4 -->
<g id="edge4" class="edge">
<title>Node1&#45;&gt;Node4</title>
<path fill="none" stroke="#191970" d="M830.3757,-414.4639C855.3701,-404.6708 888.178,-391.8162 914.9092,-381.3426"/>
<polygon fill="#191970" stroke="#191970" points="916.4229,-384.5086 924.4569,-377.6017 913.8692,-377.9911 916.4229,-384.5086"/>
</g>
<!-- Node4&#45;&gt;Node2 -->
<g id="edge5" class="edge">
<title>Node4&#45;&gt;Node2</title>
<path fill="none" stroke="#191970" d="M877.4419,-355.8799C732.2528,-344.5351 446.5717,-321.6972 368.9621,-310.743"/>
<polygon fill="#191970" stroke="#191970" points="369.12,-307.2258 358.702,-309.1531 368.0481,-314.1432 369.12,-307.2258"/>
</g>
<!-- Node4&#45;&gt;Node3 -->
<g id="edge11" class="edge">
<title>Node4&#45;&gt;Node3</title>
<path fill="none" stroke="#191970" d="M977.8978,-347.3283C993.482,-331.9621 1019.0997,-308.0875 1044,-291 1065.4156,-276.3037 1091.5513,-262.8763 1111.5904,-253.4191"/>
<polygon fill="#191970" stroke="#191970" points="1113.2904,-256.4889 1120.8906,-249.1073 1110.346,-250.1382 1113.2904,-256.4889"/>
</g>
<!-- Node5 -->
<g id="node6" class="node">
<title>Node5</title>
<polygon fill="none" stroke="#bfbfbf" points="467,-112.5 467,-131.5 509,-131.5 509,-112.5 467,-112.5"/>
<text text-anchor="middle" x="488" y="-119.5" font-family="Helvetica,sans-Serif" font-size="10.00" fill="#000000">array</text>
</g>
<!-- Node4&#45;&gt;Node5 -->
<g id="edge6" class="edge">
<title>Node4&#45;&gt;Node5</title>
<path fill="none" stroke="#191970" d="M877.4185,-355.0976C753.0752,-343.9692 535.7861,-322.9618 523,-311 475.5358,-266.596 480.036,-180.3541 484.9035,-141.6417"/>
<polygon fill="#191970" stroke="#191970" points="488.3815,-142.0424 486.3061,-131.6529 481.4495,-141.069 488.3815,-142.0424"/>
</g>
<!-- Node6 -->
<g id="node7" class="node">
<title>Node6</title>
<polygon fill="none" stroke="#bfbfbf" points="877,-291.5 877,-310.5 921,-310.5 921,-291.5 877,-291.5"/>
<text text-anchor="middle" x="899" y="-298.5" font-family="Helvetica,sans-Serif" font-size="10.00" fill="#000000">bitset</text>
</g>
<!-- Node4&#45;&gt;Node6 -->
<g id="edge7" class="edge">
<title>Node4&#45;&gt;Node6</title>
<path fill="none" stroke="#191970" d="M947.1798,-347.2977C937.9258,-338.4052 926.2219,-327.1586 916.667,-317.9769"/>
<polygon fill="#191970" stroke="#191970" points="918.8828,-315.2521 909.2472,-310.8469 914.0326,-320.2995 918.8828,-315.2521"/>
</g>
<!-- Node7 -->
<g id="node8" class="node">
<title>Node7</title>
<polygon fill="none" stroke="#bfbfbf" points="1387,-56.5 1387,-75.5 1439,-75.5 1439,-56.5 1387,-56.5"/>
<text text-anchor="middle" x="1413" y="-63.5" font-family="Helvetica,sans-Serif" font-size="10.00" fill="#000000">cassert</text>
</g>
<!-- Node4&#45;&gt;Node7 -->
<g id="edge8" class="edge">
<title>Node4&#45;&gt;Node7</title>
<path fill="none" stroke="#191970" d="M967.9814,-347.2854C973.2482,-332.309 982.3964,-309.1144 994,-291 1015.5612,-257.3408 1021.6428,-247.4699 1054,-224 1159.9097,-147.1796 1309.0669,-96.6702 1376.8951,-76.2503"/>
<polygon fill="#191970" stroke="#191970" points="1378.0914,-79.5462 1386.6811,-73.3439 1376.0985,-72.8358 1378.0914,-79.5462"/>
</g>
<!-- Node8 -->
<g id="node9" class="node">
<title>Node8</title>
<polygon fill="none" stroke="#bfbfbf" points="1441,-112.5 1441,-131.5 1491,-131.5 1491,-112.5 1441,-112.5"/>
<text text-anchor="middle" x="1466" y="-119.5" font-family="Helvetica,sans-Serif" font-size="10.00" fill="#000000">cstdint</text>
</g>
<!-- Node4&#45;&gt;Node8 -->
<g id="edge9" class="edge">
<title>Node4&#45;&gt;Node8</title>
<path fill="none" stroke="#191970" d="M971.8618,-347.3995C981.3072,-332.0901 997.315,-308.26 1015,-291 1052.497,-254.4041 1065.2995,-247.756 1112,-224 1221.0814,-168.5117 1364.8708,-138.9873 1430.5411,-127.6137"/>
<polygon fill="#191970" stroke="#191970" points="1431.4882,-131.0031 1440.7629,-125.8816 1430.3187,-124.1015 1431.4882,-131.0031"/>
</g>
<!-- Node9 -->
<g id="node10" class="node">
<title>Node9</title>
<polygon fill="none" stroke="#bfbfbf" points="1053.5,-291.5 1053.5,-310.5 1126.5,-310.5 1126.5,-291.5 1053.5,-291.5"/>
<text text-anchor="middle" x="1090" y="-298.5" font-family="Helvetica,sans-Serif" font-size="10.00" fill="#000000">string_view</text>
</g>
<!-- Node4&#45;&gt;Node9 -->
<g id="edge10" class="edge">
<title>Node4&#45;&gt;Node9</title>
<path fill="none" stroke="#191970" d="M994.0677,-347.4554C1014.5145,-337.554 1041.0937,-324.683 1061.0885,-315.0004"/>
<polygon fill="#191970" stroke="#191970" points="1062.8447,-318.0388 1070.3195,-310.5303 1059.7938,-311.7387 1062.8447,-318.0388"/>
</g>
<!-- Node10 -->
<g id="node11" class="node">
<title>Node10</title>
<polygon fill="none" stroke="#bfbfbf" points="2831.5,-56.5 2831.5,-75.5 2900.5,-75.5 2900.5,-56.5 2831.5,-56.5"/>
<text text-anchor="middle" x="2866" y="-63.5" font-family="Helvetica,sans-Serif" font-size="10.00" fill="#000000">type_traits</text>
</g>
<!-- Node4&#45;&gt;Node10 -->
<g id="edge12" class="edge">
<title>Node4&#45;&gt;Node10</title>
<path fill="none" stroke="#191970" d="M1048.8599,-359.2043C1133.5507,-355.9816 1266.6924,-350.9909 1382,-347 1878.405,-329.819 2005.6473,-368.5868 2499,-311 2623.3221,-296.4885 2668.0517,-320.0278 2775,-255 2831.5632,-220.6078 2839.5169,-195.2664 2859,-132 2863.6164,-117.0096 2865.3025,-99.2999 2865.8695,-86.0013"/>
<polygon fill="#191970" stroke="#191970" points="2869.3776,-85.7127 2866.1251,-75.6294 2862.3797,-85.5401 2869.3776,-85.7127"/>
</g>
<!-- Node11 -->
<g id="node12" class="node">
<title>Node11</title>
<g id="a_node12"><a xlink:href="../../d9/d52/Common_2MathUtils_2include_2MathUtils_2Utils_8h.html" target="_top" xlink:title="MathUtils/Utils.h">
<polygon fill="none" stroke="#000000" points="299,-168.5 299,-187.5 397,-187.5 397,-168.5 299,-168.5"/>
<text text-anchor="middle" x="348" y="-175.5" font-family="Helvetica,sans-Serif" font-size="10.00" fill="#000000">MathUtils/Utils.h</text>
</a>
</g>
</g>
<!-- Node4&#45;&gt;Node11 -->
<g id="edge13" class="edge">
<title>Node4&#45;&gt;Node11</title>
<path fill="none" stroke="#191970" d="M877.2568,-356.304C749.2855,-346.5985 519.5893,-327.2399 485,-311 428.7095,-284.5713 381.351,-225.4578 360.0607,-195.7531"/>
<polygon fill="#191970" stroke="#191970" points="362.915,-193.7274 354.3093,-187.5474 357.1828,-197.7451 362.915,-193.7274"/>
</g>
<!-- Node19 -->
<g id="node20" class="node">
<title>Node19</title>
<g id="a_node20"><a xlink:href="../../dc/dcd/DataHeader_8h.html" target="_top" xlink:title="Headers/DataHeader.h">
<polygon fill="none" stroke="#000000" points="693.5,-291.5 693.5,-310.5 820.5,-310.5 820.5,-291.5 693.5,-291.5"/>
<text text-anchor="middle" x="757" y="-298.5" font-family="Helvetica,sans-Serif" font-size="10.00" fill="#000000">Headers/DataHeader.h</text>
</a>
</g>
</g>
<!-- Node4&#45;&gt;Node19 -->
<g id="edge24" class="edge">
<title>Node4&#45;&gt;Node19</title>
<path fill="none" stroke="#191970" d="M912.6067,-347.4554C877.6321,-337.0139 831.5954,-323.27 798.6873,-313.4455"/>
<polygon fill="#191970" stroke="#191970" points="799.506,-310.0373 788.9227,-310.5303 797.5035,-316.7448 799.506,-310.0373"/>
</g>
<!-- Node11&#45;&gt;Node5 -->
<g id="edge14" class="edge">
<title>Node11&#45;&gt;Node5</title>
<path fill="none" stroke="#191970" d="M372.0669,-168.3733C395.6711,-158.9316 431.751,-144.4996 457.3849,-134.246"/>
<polygon fill="#191970" stroke="#191970" points="459.0025,-137.3687 466.9873,-130.4051 456.4027,-130.8694 459.0025,-137.3687"/>
</g>
<!-- Node12 -->
<g id="node13" class="node">
<title>Node12</title>
<polygon fill="none" stroke="#bfbfbf" points="1855.5,-.5 1855.5,-19.5 1902.5,-19.5 1902.5,-.5 1855.5,-.5"/>
<text text-anchor="middle" x="1879" y="-7.5" font-family="Helvetica,sans-Serif" font-size="10.00" fill="#000000">cmath</text>
</g>
<!-- Node11&#45;&gt;Node12 -->
<g id="edge15" class="edge">
<title>Node11&#45;&gt;Node12</title>
<path fill="none" stroke="#191970" d="M339.1099,-168.3881C327.3311,-154.4765 309.6267,-128.5846 324,-112 438.6856,20.3296 539.6141,-71.9201 714,-56 942.3117,-35.157 1678.7579,-15.183 1845.3077,-10.86"/>
<polygon fill="#191970" stroke="#191970" points="1845.5363,-14.3553 1855.4425,-10.598 1845.3553,-7.3577 1845.5363,-14.3553"/>
</g>
<!-- Node13 -->
<g id="node14" class="node">
<title>Node13</title>
<g id="a_node14"><a xlink:href="../../df/d21/GPUCommonDef_8h.html" target="_top" xlink:title="GPUCommonDef.h">
<polygon fill="none" stroke="#000000" points="85.5,-56.5 85.5,-75.5 192.5,-75.5 192.5,-56.5 85.5,-56.5"/>
<text text-anchor="middle" x="139" y="-63.5" font-family="Helvetica,sans-Serif" font-size="10.00" fill="#000000">GPUCommonDef.h</text>
</a>
</g>
</g>
<!-- Node11&#45;&gt;Node13 -->
<g id="edge16" class="edge">
<title>Node11&#45;&gt;Node13</title>
<path fill="none" stroke="#191970" d="M298.8763,-173.1823C223.9783,-165.336 88.3513,-148.9615 74,-132 58.0647,-113.1665 84.567,-93.2052 108.3692,-80.2304"/>
<polygon fill="#191970" stroke="#191970" points="109.9996,-83.3276 117.2653,-75.6166 106.7768,-77.1136 109.9996,-83.3276"/>
</g>
<!-- Node16 -->
<g id="node17" class="node">
<title>Node16</title>
<g id="a_node17"><a xlink:href="../../d6/da2/GPUCommonMath_8h.html" target="_top" xlink:title="GPUCommonMath.h">
<polygon fill="none" stroke="#000000" points="333.5,-112.5 333.5,-131.5 448.5,-131.5 448.5,-112.5 333.5,-112.5"/>
<text text-anchor="middle" x="391" y="-119.5" font-family="Helvetica,sans-Serif" font-size="10.00" fill="#000000">GPUCommonMath.h</text>
</a>
</g>
</g>
<!-- Node11&#45;&gt;Node16 -->
<g id="edge19" class="edge">
<title>Node11&#45;&gt;Node16</title>
<path fill="none" stroke="#191970" d="M355.49,-168.2455C361.5326,-160.3761 370.1903,-149.101 377.4441,-139.6542"/>
<polygon fill="#191970" stroke="#191970" points="380.2815,-141.7058 383.5958,-131.6427 374.7295,-137.4426 380.2815,-141.7058"/>
</g>
<!-- Node18 -->
<g id="node19" class="node">
<title>Node18</title>
<g id="a_node19"><a xlink:href="../../d6/d84/MathConstants_8h.html" target="_top" xlink:title="useful math constants ">
<polygon fill="none" stroke="#000000" points="83,-112.5 83,-131.5 277,-131.5 277,-112.5 83,-112.5"/>
<text text-anchor="middle" x="180" y="-119.5" font-family="Helvetica,sans-Serif" font-size="10.00" fill="#000000">CommonConstants/MathConstants.h</text>
</a>
</g>
</g>
<!-- Node11&#45;&gt;Node18 -->
<g id="edge23" class="edge">
<title>Node11&#45;&gt;Node18</title>
<path fill="none" stroke="#191970" d="M319.1198,-168.3733C291.1839,-159.0613 248.6858,-144.8953 218.0131,-134.671"/>
<polygon fill="#191970" stroke="#191970" points="219.097,-131.3431 208.5034,-131.5011 216.8834,-137.9839 219.097,-131.3431"/>
</g>
<!-- Node14 -->
<g id="node15" class="node">
<title>Node14</title>
<g id="a_node15"><a xlink:href="../../d5/d93/GPUCommonDefSettings_8h.html" target="_top" xlink:title="GPUCommonDefSettings.h">
<polygon fill="none" stroke="#000000" points="142,-.5 142,-19.5 290,-19.5 290,-.5 142,-.5"/>
<text text-anchor="middle" x="216" y="-7.5" font-family="Helvetica,sans-Serif" font-size="10.00" fill="#000000">GPUCommonDefSettings.h</text>
</a>
</g>
</g>
<!-- Node13&#45;&gt;Node14 -->
<g id="edge17" class="edge">
<title>Node13&#45;&gt;Node14</title>
<path fill="none" stroke="#191970" d="M152.4124,-56.2455C164.0057,-47.814 180.9748,-35.4729 194.4678,-25.6598"/>
<polygon fill="#191970" stroke="#191970" points="196.7126,-28.355 202.7413,-19.6427 192.5953,-22.6938 196.7126,-28.355"/>
</g>
<!-- Node15 -->
<g id="node16" class="node">
<title>Node15</title>
<g id="a_node16"><a xlink:href="../../da/d5a/GPUCommonDefAPI_8h.html" target="_top" xlink:title="GPUCommonDefAPI.h">
<polygon fill="none" stroke="#000000" points="0,-.5 0,-19.5 124,-19.5 124,-.5 0,-.5"/>
<text text-anchor="middle" x="62" y="-7.5" font-family="Helvetica,sans-Serif" font-size="10.00" fill="#000000">GPUCommonDefAPI.h</text>
</a>
</g>
</g>
<!-- Node13&#45;&gt;Node15 -->
<g id="edge18" class="edge">
<title>Node13&#45;&gt;Node15</title>
<path fill="none" stroke="#191970" d="M125.5876,-56.2455C113.9943,-47.814 97.0252,-35.4729 83.5322,-25.6598"/>
<polygon fill="#191970" stroke="#191970" points="85.4047,-22.6938 75.2587,-19.6427 81.2874,-28.355 85.4047,-22.6938"/>
</g>
<!-- Node16&#45;&gt;Node12 -->
<g id="edge21" class="edge">
<title>Node16&#45;&gt;Node12</title>
<path fill="none" stroke="#191970" d="M448.8407,-112.8719C543.0857,-98.366 735.7667,-70.2399 900,-56 1269.7875,-23.9375 1720.2263,-13.1163 1845.3633,-10.6169"/>
<polygon fill="#191970" stroke="#191970" points="1845.5363,-14.1143 1855.4659,-10.4192 1845.3993,-7.1156 1845.5363,-14.1143"/>
</g>
<!-- Node16&#45;&gt;Node13 -->
<g id="edge20" class="edge">
<title>Node16&#45;&gt;Node13</title>
<path fill="none" stroke="#191970" d="M347.966,-112.4369C304.7475,-102.8328 238.0859,-88.0191 191.7182,-77.7152"/>
<polygon fill="#191970" stroke="#191970" points="192.3777,-74.2764 181.8565,-75.5237 190.8591,-81.1097 192.3777,-74.2764"/>
</g>
<!-- Node17 -->
<g id="node18" class="node">
<title>Node17</title>
<polygon fill="none" stroke="#bfbfbf" points="909,-56.5 909,-75.5 973,-75.5 973,-56.5 909,-56.5"/>
<text text-anchor="middle" x="941" y="-63.5" font-family="Helvetica,sans-Serif" font-size="10.00" fill="#000000">algorithm</text>
</g>
<!-- Node16&#45;&gt;Node17 -->
<g id="edge22" class="edge">
<title>Node16&#45;&gt;Node17</title>
<path fill="none" stroke="#191970" d="M448.717,-113.1864C451.8549,-112.7694 454.9648,-112.3708 458,-112 620.3699,-92.1652 814.3345,-75.9528 898.5275,-69.2807"/>
<polygon fill="#191970" stroke="#191970" points="899.0228,-72.7526 908.7168,-68.4774 898.4726,-65.7742 899.0228,-72.7526"/>
</g>
<!-- Node19&#45;&gt;Node3 -->
<g id="edge31" class="edge">
<title>Node19&#45;&gt;Node3</title>
<path fill="none" stroke="#191970" d="M820.5223,-292.7732C883.6956,-284.3239 983.2953,-270.2796 1069,-255 1082.7652,-252.5459 1097.8876,-249.4504 1110.8543,-246.6722"/>
<polygon fill="#191970" stroke="#191970" points="1111.6937,-250.0716 1120.724,-244.5304 1110.2092,-243.2308 1111.6937,-250.0716"/>
</g>
<!-- Node19&#45;&gt;Node7 -->
<g id="edge27" class="edge">
<title>Node19&#45;&gt;Node7</title>
<path fill="none" stroke="#191970" d="M820.5151,-293.5275C871.951,-286.2411 939.0298,-273.5335 959,-255 1007.7404,-209.7662 951.8005,-154.4304 1003,-112 1031.539,-88.349 1281.9703,-72.8712 1376.8112,-67.8118"/>
<polygon fill="#191970" stroke="#191970" points="1376.9989,-71.3069 1386.8014,-67.2868 1376.6315,-64.3165 1376.9989,-71.3069"/>
</g>
<!-- Node19&#45;&gt;Node8 -->
<g id="edge25" class="edge">
<title>Node19&#45;&gt;Node8</title>
<path fill="none" stroke="#191970" d="M820.7323,-293.8529C869.0242,-287.1854 936.4827,-275.1621 993,-255 1069.9744,-227.5399 1077.4189,-193.6959 1155,-168 1251.3337,-136.093 1371.7841,-126.2687 1430.5058,-123.2809"/>
<polygon fill="#191970" stroke="#191970" points="1430.9083,-126.766 1440.7324,-122.7989 1430.5786,-119.7737 1430.9083,-126.766"/>
</g>
<!-- Node19&#45;&gt;Node17 -->
<g id="edge29" class="edge">
<title>Node19&#45;&gt;Node17</title>
<path fill="none" stroke="#191970" d="M693.463,-294.3201C636.9102,-285.539 566.9882,-265.9795 594,-224 662.4188,-117.6693 821.9268,-82.0509 898.4987,-70.8195"/>
<polygon fill="#191970" stroke="#191970" points="899.3142,-74.2397 908.7348,-69.3917 898.3471,-67.3068 899.3142,-74.2397"/>
</g>
<!-- Node20 -->
<g id="node21" class="node">
<title>Node20</title>
<polygon fill="none" stroke="#bfbfbf" points="1343,-230 1343,-249 1401,-249 1401,-230 1343,-230"/>
<text text-anchor="middle" x="1372" y="-237" font-family="Helvetica,sans-Serif" font-size="10.00" fill="#000000">memory</text>
</g>
<!-- Node19&#45;&gt;Node20 -->
<g id="edge26" class="edge">
<title>Node19&#45;&gt;Node20</title>
<path fill="none" stroke="#191970" d="M820.6751,-295.1249C836.1584,-293.7346 852.6713,-292.2838 868,-291 1074.5619,-273.7002 1131.069,-301.8081 1333,-255 1335.8613,-254.3367 1338.7885,-253.498 1341.69,-252.5555"/>
<polygon fill="#191970" stroke="#191970" points="1343.1186,-255.7604 1351.3221,-249.0557 1340.728,-249.1812 1343.1186,-255.7604"/>
</g>
<!-- Node21 -->
<g id="node22" class="node">
<title>Node21</title>
<polygon fill="none" stroke="#bfbfbf" points="603,-230 603,-249 653,-249 653,-230 603,-230"/>
<text text-anchor="middle" x="628" y="-237" font-family="Helvetica,sans-Serif" font-size="10.00" fill="#000000">cstring</text>
</g>
<!-- Node19&#45;&gt;Node21 -->
<g id="edge28" class="edge">
<title>Node19&#45;&gt;Node21</title>
<path fill="none" stroke="#191970" d="M736.8438,-291.3906C715.449,-281.1908 681.438,-264.9763 657.1298,-253.3875"/>
<polygon fill="#191970" stroke="#191970" points="658.5476,-250.186 648.0147,-249.0419 655.5352,-256.5047 658.5476,-250.186"/>
</g>
<!-- Node22 -->
<g id="node23" class="node">
<title>Node22</title>
<polygon fill="none" stroke="#bfbfbf" points="1259.5,-230 1259.5,-249 1324.5,-249 1324.5,-230 1259.5,-230"/>
<text text-anchor="middle" x="1292" y="-237" font-family="Helvetica,sans-Serif" font-size="10.00" fill="#000000">stdexcept</text>
</g>
<!-- Node19&#45;&gt;Node22 -->
<g id="edge30" class="edge">
<title>Node19&#45;&gt;Node22</title>
<path fill="none" stroke="#191970" d="M820.6296,-294.3955C902.4482,-285.8078 1048.9052,-270.114 1174,-255 1198.9689,-251.9832 1226.8709,-248.3311 1249.2717,-245.3297"/>
<polygon fill="#191970" stroke="#191970" points="1250.0234,-248.7602 1259.4673,-243.9578 1249.0898,-241.8227 1250.0234,-248.7602"/>
</g>
<!-- Node23 -->
<g id="node24" class="node">
<title>Node23</title>
<polygon fill="none" stroke="#bfbfbf" points="671,-230 671,-249 721,-249 721,-230 671,-230"/>
<text text-anchor="middle" x="696" y="-237" font-family="Helvetica,sans-Serif" font-size="10.00" fill="#000000">climits</text>
</g>
<!-- Node19&#45;&gt;Node23 -->
<g id="edge32" class="edge">
<title>Node19&#45;&gt;Node23</title>
<path fill="none" stroke="#191970" d="M747.4688,-291.3906C738.2121,-282.0581 723.961,-267.6902 712.7997,-256.4374"/>
<polygon fill="#191970" stroke="#191970" points="715.1928,-253.88 705.6656,-249.2449 710.2228,-258.8095 715.1928,-253.88"/>
</g>
<!-- Node24 -->
<g id="node25" class="node">
<title>Node24</title>
<g id="a_node25"><a xlink:href="../../d7/df8/Types_8h.html" target="_top" xlink:title="MemoryResources/Types.h">
<polygon fill="none" stroke="#000000" points="739,-230 739,-249 885,-249 885,-230 739,-230"/>
<text text-anchor="middle" x="812" y="-237" font-family="Helvetica,sans-Serif" font-size="10.00" fill="#000000">MemoryResources/Types.h</text>
</a>
</g>
</g>
<!-- Node19&#45;&gt;Node24 -->
<g id="edge33" class="edge">
<title>Node19&#45;&gt;Node24</title>
<path fill="none" stroke="#191970" d="M765.5938,-291.3906C773.8597,-282.1478 786.5426,-267.966 796.5617,-256.7628"/>
<polygon fill="#191970" stroke="#191970" points="799.2278,-259.0321 803.2851,-249.2449 794.01,-254.3657 799.2278,-259.0321"/>
</g>
<!-- Node25 -->
<g id="node26" class="node">
<title>Node25</title>
<polygon fill="none" stroke="#bfbfbf" points="903.5,-230 903.5,-249 950.5,-249 950.5,-230 903.5,-230"/>
<text text-anchor="middle" x="927" y="-237" font-family="Helvetica,sans-Serif" font-size="10.00" fill="#000000">cerrno</text>
</g>
<!-- Node19&#45;&gt;Node25 -->
<g id="edge34" class="edge">
<title>Node19&#45;&gt;Node25</title>
<path fill="none" stroke="#191970" d="M788.9359,-291.4234C816.9444,-282.7539 858.6058,-269.1995 894,-255 895.3952,-254.4403 896.8156,-253.851 898.2444,-253.2425"/>
<polygon fill="#191970" stroke="#191970" points="899.916,-256.3292 907.6202,-249.0563 897.0621,-249.9374 899.916,-256.3292"/>
</g>
<!-- Node26&#45;&gt;Node4 -->
<g id="edge39" class="edge">
<title>Node26&#45;&gt;Node4</title>
<path fill="none" stroke="#191970" d="M1187.5416,-481.3778C1203.2369,-465.8963 1229.1539,-435.0649 1212,-414 1192.5594,-390.1271 1120.3818,-376.9801 1058.7074,-369.9579"/>
<polygon fill="#191970" stroke="#191970" points="1058.8374,-366.4512 1048.5157,-368.8412 1058.075,-373.4096 1058.8374,-366.4512"/>
</g>
<!-- Node26&#45;&gt;Node20 -->
<g id="edge36" class="edge">
<title>Node26&#45;&gt;Node20</title>
<path fill="none" stroke="#191970" d="M1189.8996,-481.3055C1201.0293,-472.5604 1217.137,-458.9614 1229,-445 1281.3776,-383.3575 1277.3321,-355.6115 1326,-291 1335.016,-279.0303 1346.1946,-266.4713 1355.2742,-256.7521"/>
<polygon fill="#191970" stroke="#191970" points="1357.9708,-258.9951 1362.314,-249.3313 1352.8924,-254.1774 1357.9708,-258.9951"/>
</g>
<!-- Node27 -->
<g id="node28" class="node">
<title>Node27</title>
<polygon fill="none" stroke="#bfbfbf" points="1085,-420 1085,-439 1133,-439 1133,-420 1085,-420"/>
<text text-anchor="middle" x="1109" y="-427" font-family="Helvetica,sans-Serif" font-size="10.00" fill="#000000">TFile.h</text>
</g>
<!-- Node26&#45;&gt;Node27 -->
<g id="edge37" class="edge">
<title>Node26&#45;&gt;Node27</title>
<path fill="none" stroke="#191970" d="M1166.375,-481.3906C1155.9569,-471.9683 1139.8636,-457.4134 1127.3696,-446.1137"/>
<polygon fill="#191970" stroke="#191970" points="1129.5392,-443.3568 1119.7748,-439.2449 1124.8438,-448.5484 1129.5392,-443.3568"/>
</g>
<!-- Node28 -->
<g id="node29" class="node">
<title>Node28</title>
<polygon fill="none" stroke="#bfbfbf" points="1151,-420 1151,-439 1203,-439 1203,-420 1151,-420"/>
<text text-anchor="middle" x="1177" y="-427" font-family="Helvetica,sans-Serif" font-size="10.00" fill="#000000">TTree.h</text>
</g>
<!-- Node26&#45;&gt;Node28 -->
<g id="edge38" class="edge">
<title>Node26&#45;&gt;Node28</title>
<path fill="none" stroke="#191970" d="M1177,-481.3906C1177,-472.8657 1177,-460.1392 1177,-449.4235"/>
<polygon fill="#191970" stroke="#191970" points="1180.5001,-449.2448 1177,-439.2449 1173.5001,-449.2449 1180.5001,-449.2448"/>
</g>
<!-- Node29 -->
<g id="node30" class="node">
<title>Node29</title>
<g id="a_node30"><a xlink:href="../../d7/d61/NameConf_8h.html" target="_top" xlink:title="Definition of the Names Generator class. ">
<polygon fill="none" stroke="#000000" points="895.5,-414.5 895.5,-444.5 1066.5,-444.5 1066.5,-414.5 895.5,-414.5"/>
<text text-anchor="start" x="903.5" y="-432.5" font-family="Helvetica,sans-Serif" font-size="10.00" fill="#000000">DetectorsCommonDataFormats</text>
<text text-anchor="middle" x="981" y="-421.5" font-family="Helvetica,sans-Serif" font-size="10.00" fill="#000000">/NameConf.h</text>
</a>
</g>
</g>
<!-- Node26&#45;&gt;Node29 -->
<g id="edge40" class="edge">
<title>Node26&#45;&gt;Node29</title>
<path fill="none" stroke="#191970" d="M1146.375,-481.3906C1117.6383,-472.3737 1073.921,-458.6563 1038.6514,-447.5896"/>
<polygon fill="#191970" stroke="#191970" points="1039.5362,-444.199 1028.947,-444.5446 1037.4405,-450.878 1039.5362,-444.199"/>
</g>
<!-- Node32 -->
<g id="node33" class="node">
<title>Node32</title>
<g id="a_node33"><a xlink:href="../../d4/de7/rans_8h.html" target="_top" xlink:title="header for public api ">
<polygon fill="none" stroke="#000000" points="2237,-420 2237,-439 2311,-439 2311,-420 2237,-420"/>
<text text-anchor="middle" x="2274" y="-427" font-family="Helvetica,sans-Serif" font-size="10.00" fill="#000000">rANS/rans.h</text>
</a>
</g>
</g>
<!-- Node26&#45;&gt;Node32 -->
<g id="edge45" class="edge">
<title>Node26&#45;&gt;Node32</title>
<path fill="none" stroke="#191970" d="M1262.1669,-486.2254C1480.9731,-473.9587 2057.4808,-441.6385 2226.6785,-432.1529"/>
<polygon fill="#191970" stroke="#191970" points="2226.975,-435.6419 2236.7634,-431.5876 2226.5832,-428.6529 2226.975,-435.6419"/>
</g>
<!-- Node29&#45;&gt;Node4 -->
<g id="edge41" class="edge">
<title>Node29&#45;&gt;Node4</title>
<path fill="none" stroke="#191970" d="M976.9155,-414.2967C974.7752,-406.3299 972.0999,-396.3718 969.6684,-387.3213"/>
<polygon fill="#191970" stroke="#191970" points="973.0431,-386.3926 967.0683,-377.6432 966.2828,-388.2088 973.0431,-386.3926"/>
</g>
<!-- Node29&#45;&gt;Node9 -->
<g id="edge44" class="edge">
<title>Node29&#45;&gt;Node9</title>
<path fill="none" stroke="#191970" d="M1011.12,-414.4843C1026.488,-405.5983 1044.5201,-393.1189 1057,-378 1070.9746,-361.0703 1079.9421,-337.3367 1084.9489,-320.7077"/>
<polygon fill="#191970" stroke="#191970" points="1088.3554,-321.5221 1087.6799,-310.9488 1081.6144,-319.6356 1088.3554,-321.5221"/>
</g>
<!-- Node30 -->
<g id="node31" class="node">
<title>Node30</title>
<g id="a_node31"><a xlink:href="../../d1/d1e/Common_2Utils_2include_2CommonUtils_2StringUtils_8h.html" target="_top" xlink:title="CommonUtils/StringUtils.h">
<polygon fill="none" stroke="#000000" points="596,-353 596,-372 742,-372 742,-353 596,-353"/>
<text text-anchor="middle" x="669" y="-360" font-family="Helvetica,sans-Serif" font-size="10.00" fill="#000000">CommonUtils/StringUtils.h</text>
</a>
</g>
</g>
<!-- Node29&#45;&gt;Node30 -->
<g id="edge42" class="edge">
<title>Node29&#45;&gt;Node30</title>
<path fill="none" stroke="#191970" d="M910.9811,-414.4639C854.2185,-402.2745 775.3693,-385.3421 723.3047,-374.1616"/>
<polygon fill="#191970" stroke="#191970" points="723.7754,-370.6829 713.2634,-372.0053 722.3057,-377.5269 723.7754,-370.6829"/>
</g>
<!-- Node31 -->
<g id="node32" class="node">
<title>Node31</title>
<polygon fill="none" stroke="#bfbfbf" points="377,-291.5 377,-310.5 433,-310.5 433,-291.5 377,-291.5"/>
<text text-anchor="middle" x="405" y="-298.5" font-family="Helvetica,sans-Serif" font-size="10.00" fill="#000000">sstream</text>
</g>
<!-- Node30&#45;&gt;Node31 -->
<g id="edge43" class="edge">
<title>Node30&#45;&gt;Node31</title>
<path fill="none" stroke="#191970" d="M627.6586,-352.9849C583.062,-342.7029 509.973,-325.801 447,-311 445.7276,-310.7009 444.4338,-310.3962 443.1272,-310.088"/>
<polygon fill="#191970" stroke="#191970" points="443.5461,-306.5905 433.0087,-307.6926 441.9334,-313.4023 443.5461,-306.5905"/>
</g>
<!-- Node33 -->
<g id="node34" class="node">
<title>Node33</title>
<g id="a_node34"><a xlink:href="../../dd/d65/FrequencyTable_8h.html" target="_top" xlink:title="Histogram to depict frequencies of source symbols for rANS compression. ">
<polygon fill="none" stroke="#000000" points="2318.5,-112.5 2318.5,-131.5 2419.5,-131.5 2419.5,-112.5 2318.5,-112.5"/>
<text text-anchor="middle" x="2369" y="-119.5" font-family="Helvetica,sans-Serif" font-size="10.00" fill="#000000">FrequencyTable.h</text>
</a>
</g>
</g>
<!-- Node32&#45;&gt;Node33 -->
<g id="edge46" class="edge">
<title>Node32&#45;&gt;Node33</title>
<path fill="none" stroke="#191970" d="M2311.0429,-421.6694C2413.1244,-399.2343 2694.1689,-331.4067 2743,-255 2750.4195,-243.3906 2751.363,-234.9493 2743,-224 2705.1117,-174.3947 2525.7758,-143.124 2429.8629,-129.6615"/>
<polygon fill="#191970" stroke="#191970" points="2430.1065,-126.162 2419.7216,-128.2608 2429.1487,-133.0962 2430.1065,-126.162"/>
</g>
<!-- Node39 -->
<g id="node40" class="node">
<title>Node39</title>
<g id="a_node40"><a xlink:href="../../d4/da1/helper_8h.html" target="_top" xlink:title="various helper functions ">
<polygon fill="none" stroke="#000000" points="2590,-56.5 2590,-75.5 2686,-75.5 2686,-56.5 2590,-56.5"/>
<text text-anchor="middle" x="2638" y="-63.5" font-family="Helvetica,sans-Serif" font-size="10.00" fill="#000000">internal/helper.h</text>
</a>
</g>
</g>
<!-- Node32&#45;&gt;Node39 -->
<g id="edge169" class="edge">
<title>Node32&#45;&gt;Node39</title>
<path fill="none" stroke="#191970" d="M2311.078,-428.6826C2444.8621,-424.9709 2900.2354,-405.4911 3003,-311 3082.4152,-237.9785 2962.6675,-155.6307 2864,-112 2809.925,-88.0881 2743.0386,-76.4568 2696.1121,-70.8946"/>
<polygon fill="#191970" stroke="#191970" points="2696.4474,-67.4103 2686.1178,-69.7658 2695.6617,-74.3661 2696.4474,-67.4103"/>
</g>
<!-- Node42 -->
<g id="node43" class="node">
<title>Node42</title>
<g id="a_node43"><a xlink:href="../../dd/d74/Utilities_2rANS_2include_2rANS_2Encoder_8h.html" target="_top" xlink:title="Encoder.h">
<polygon fill="none" stroke="#000000" points="1695,-291.5 1695,-310.5 1759,-310.5 1759,-291.5 1695,-291.5"/>
<text text-anchor="middle" x="1727" y="-298.5" font-family="Helvetica,sans-Serif" font-size="10.00" fill="#000000">Encoder.h</text>
</a>
</g>
</g>
<!-- Node32&#45;&gt;Node42 -->
<g id="edge60" class="edge">
<title>Node32&#45;&gt;Node42</title>
<path fill="none" stroke="#191970" d="M2236.8325,-420.7687C2138.6289,-397.6989 1872.7065,-335.229 1769.1122,-310.8929"/>
<polygon fill="#191970" stroke="#191970" points="1769.8508,-307.4712 1759.3154,-308.5915 1768.2499,-314.2857 1769.8508,-307.4712"/>
</g>
<!-- Node50 -->
<g id="node51" class="node">
<title>Node50</title>
<g id="a_node51"><a xlink:href="../../dc/d62/Utilities_2rANS_2include_2rANS_2Decoder_8h.html" target="_top" xlink:title="Decoder.h">
<polygon fill="none" stroke="#000000" points="2424.5,-291.5 2424.5,-310.5 2489.5,-310.5 2489.5,-291.5 2424.5,-291.5"/>
<text text-anchor="middle" x="2457" y="-298.5" font-family="Helvetica,sans-Serif" font-size="10.00" fill="#000000">Decoder.h</text>
</a>
</g>
</g>
<!-- Node32&#45;&gt;Node50 -->
<g id="edge99" class="edge">
<title>Node32&#45;&gt;Node50</title>
<path fill="none" stroke="#191970" d="M2311.3602,-423.1396C2356.4606,-414.6735 2428.4575,-398.373 2446,-378 2459.5164,-362.3028 2460.784,-337.7702 2459.6289,-320.627"/>
<polygon fill="#191970" stroke="#191970" points="2463.1035,-320.1971 2458.6245,-310.5956 2456.1383,-320.8946 2463.1035,-320.1971"/>
</g>
<!-- Node53 -->
<g id="node54" class="node">
<title>Node53</title>
<g id="a_node54"><a xlink:href="../../d5/ddf/DedupEncoder_8h.html" target="_top" xlink:title="DedupEncoder.h">
<polygon fill="none" stroke="#000000" points="1391.5,-353 1391.5,-372 1486.5,-372 1486.5,-353 1391.5,-353"/>
<text text-anchor="middle" x="1439" y="-360" font-family="Helvetica,sans-Serif" font-size="10.00" fill="#000000">DedupEncoder.h</text>
</a>
</g>
</g>
<!-- Node32&#45;&gt;Node53 -->
<g id="edge124" class="edge">
<title>Node32&#45;&gt;Node53</title>
<path fill="none" stroke="#191970" d="M2236.7721,-426.5129C2104.6159,-415.9087 1657.3637,-380.0214 1496.9015,-367.146"/>
<polygon fill="#191970" stroke="#191970" points="1497.0012,-363.6428 1486.7532,-366.3317 1496.4412,-370.6204 1497.0012,-363.6428"/>
</g>
<!-- Node55 -->
<g id="node56" class="node">
<title>Node55</title>
<g id="a_node56"><a xlink:href="../../da/da6/DedupDecoder_8h.html" target="_top" xlink:title="DedupDecoder.h">
<polygon fill="none" stroke="#000000" points="2340.5,-353 2340.5,-372 2437.5,-372 2437.5,-353 2340.5,-353"/>
<text text-anchor="middle" x="2389" y="-360" font-family="Helvetica,sans-Serif" font-size="10.00" fill="#000000">DedupDecoder.h</text>
</a>
</g>
</g>
<!-- Node32&#45;&gt;Node55 -->
<g id="edge137" class="edge">
<title>Node32&#45;&gt;Node55</title>
<path fill="none" stroke="#191970" d="M2290.4767,-419.9005C2309.6055,-408.7559 2341.3733,-390.2477 2363.6516,-377.2682"/>
<polygon fill="#191970" stroke="#191970" points="2365.6753,-380.1399 2372.5539,-372.0817 2362.1514,-374.0916 2365.6753,-380.1399"/>
</g>
<!-- Node56 -->
<g id="node57" class="node">
<title>Node56</title>
<g id="a_node57"><a xlink:href="../../d9/de1/LiteralEncoder_8h.html" target="_top" xlink:title="LiteralEncoder.h">
<polygon fill="none" stroke="#000000" points="1728.5,-353 1728.5,-372 1823.5,-372 1823.5,-353 1728.5,-353"/>
<text text-anchor="middle" x="1776" y="-360" font-family="Helvetica,sans-Serif" font-size="10.00" fill="#000000">LiteralEncoder.h</text>
</a>
</g>
</g>
<!-- Node32&#45;&gt;Node56 -->
<g id="edge148" class="edge">
<title>Node32&#45;&gt;Node56</title>
<path fill="none" stroke="#191970" d="M2236.9759,-424.5188C2150.9153,-412.9404 1936.8832,-384.1449 1833.583,-370.2471"/>
<polygon fill="#191970" stroke="#191970" points="1834.018,-366.7742 1823.6406,-368.9095 1833.0846,-373.7117 1834.018,-366.7742"/>
</g>
<!-- Node57 -->
<g id="node58" class="node">
<title>Node57</title>
<g id="a_node58"><a xlink:href="../../df/dfe/LiteralDecoder_8h.html" target="_top" xlink:title="LiteralDecoder.h">
<polygon fill="none" stroke="#000000" points="2226,-353 2226,-372 2322,-372 2322,-353 2226,-353"/>
<text text-anchor="middle" x="2274" y="-360" font-family="Helvetica,sans-Serif" font-size="10.00" fill="#000000">LiteralDecoder.h</text>
</a>
</g>
</g>
<!-- Node32&#45;&gt;Node57 -->
<g id="edge158" class="edge">
<title>Node32&#45;&gt;Node57</title>
<path fill="none" stroke="#191970" d="M2274,-419.9005C2274,-410.149 2274,-394.7597 2274,-382.3695"/>
<polygon fill="#191970" stroke="#191970" points="2277.5001,-382.0816 2274,-372.0817 2270.5001,-382.0817 2277.5001,-382.0816"/>
</g>
<!-- Node33&#45;&gt;Node7 -->
<g id="edge48" class="edge">
<title>Node33&#45;&gt;Node7</title>
<path fill="none" stroke="#191970" d="M2318.2763,-119.0287C2147.68,-109.0356 1597.1098,-76.7847 1449.6293,-68.1457"/>
<polygon fill="#191970" stroke="#191970" points="1449.5144,-64.633 1439.3268,-67.5422 1449.105,-71.621 1449.5144,-64.633"/>
</g>
<!-- Node33&#45;&gt;Node10 -->
<g id="edge53" class="edge">
<title>Node33&#45;&gt;Node10</title>
<path fill="none" stroke="#191970" d="M2419.8521,-116.2702C2517.2835,-105.292 2728.7904,-81.4602 2821.2379,-71.0436"/>
<polygon fill="#191970" stroke="#191970" points="2821.8375,-74.4983 2831.3827,-69.9005 2821.0536,-67.5423 2821.8375,-74.4983"/>
</g>
<!-- Node33&#45;&gt;Node12 -->
<g id="edge49" class="edge">
<title>Node33&#45;&gt;Node12</title>
<path fill="none" stroke="#191970" d="M2368.3786,-112.0432C2366.8705,-97.1982 2361.7033,-69.5605 2344,-56 2309.9024,-29.8816 2013.9803,-15.4957 1912.773,-11.3053"/>
<polygon fill="#191970" stroke="#191970" points="1912.6415,-7.7972 1902.5075,-10.8878 1912.357,-14.7914 1912.6415,-7.7972"/>
</g>
<!-- Node33&#45;&gt;Node17 -->
<g id="edge47" class="edge">
<title>Node33&#45;&gt;Node17</title>
<path fill="none" stroke="#191970" d="M2318.1767,-120.0069C2093.2912,-111.1879 1189.7145,-75.7535 983.1866,-67.6544"/>
<polygon fill="#191970" stroke="#191970" points="983.1828,-64.1516 973.0533,-67.257 982.9084,-71.1463 983.1828,-64.1516"/>
</g>
<!-- Node34 -->
<g id="node35" class="node">
<title>Node34</title>
<polygon fill="none" stroke="#bfbfbf" points="3064,-56.5 3064,-75.5 3124,-75.5 3124,-56.5 3064,-56.5"/>
<text text-anchor="middle" x="3094" y="-63.5" font-family="Helvetica,sans-Serif" font-size="10.00" fill="#000000">iostream</text>
</g>
<!-- Node33&#45;&gt;Node34 -->
<g id="edge50" class="edge">
<title>Node33&#45;&gt;Node34</title>
<path fill="none" stroke="#191970" d="M2419.6924,-118.0844C2556.3021,-107.5325 2930.1152,-78.6587 3053.7238,-69.111"/>
<polygon fill="#191970" stroke="#191970" points="3054.1813,-72.5862 3063.8821,-68.3264 3053.6422,-65.607 3054.1813,-72.5862"/>
</g>
<!-- Node35 -->
<g id="node36" class="node">
<title>Node35</title>
<polygon fill="none" stroke="#bfbfbf" points="2282.5,-56.5 2282.5,-75.5 2335.5,-75.5 2335.5,-56.5 2282.5,-56.5"/>
<text text-anchor="middle" x="2309" y="-63.5" font-family="Helvetica,sans-Serif" font-size="10.00" fill="#000000">iterator</text>
</g>
<!-- Node33&#45;&gt;Node35 -->
<g id="edge51" class="edge">
<title>Node33&#45;&gt;Node35</title>
<path fill="none" stroke="#191970" d="M2358.5488,-112.2455C2349.7731,-104.0549 2337.0446,-92.1749 2326.686,-82.5069"/>
<polygon fill="#191970" stroke="#191970" points="2329.0301,-79.9072 2319.3314,-75.6427 2324.2539,-85.0246 2329.0301,-79.9072"/>
</g>
<!-- Node36 -->
<g id="node37" class="node">
<title>Node36</title>
<polygon fill="none" stroke="#bfbfbf" points="2426,-56.5 2426,-75.5 2482,-75.5 2482,-56.5 2426,-56.5"/>
<text text-anchor="middle" x="2454" y="-63.5" font-family="Helvetica,sans-Serif" font-size="10.00" fill="#000000">numeric</text>
</g>
<!-- Node33&#45;&gt;Node36 -->
<g id="edge52" class="edge">
<title>Node33&#45;&gt;Node36</title>
<path fill="none" stroke="#191970" d="M2383.8059,-112.2455C2396.7256,-103.7337 2415.6931,-91.2375 2430.6552,-81.3801"/>
<polygon fill="#191970" stroke="#191970" points="2432.9387,-84.067 2439.3638,-75.6427 2429.0876,-78.2216 2432.9387,-84.067"/>
</g>
<!-- Node37 -->
<g id="node38" class="node">
<title>Node37</title>
<polygon fill="none" stroke="#bfbfbf" points="1791.5,-56.5 1791.5,-75.5 1838.5,-75.5 1838.5,-56.5 1791.5,-56.5"/>
<text text-anchor="middle" x="1815" y="-63.5" font-family="Helvetica,sans-Serif" font-size="10.00" fill="#000000">vector</text>
</g>
<!-- Node33&#45;&gt;Node37 -->
<g id="edge54" class="edge">
<title>Node33&#45;&gt;Node37</title>
<path fill="none" stroke="#191970" d="M2318.3676,-116.8819C2206.8715,-105.6116 1942.6094,-78.8991 1848.775,-69.4141"/>
<polygon fill="#191970" stroke="#191970" points="1849.0052,-65.9196 1838.7039,-68.3961 1848.3012,-72.8841 1849.0052,-65.9196"/>
</g>
<!-- Node38 -->
<g id="node39" class="node">
<title>Node38</title>
<polygon fill="none" stroke="#bfbfbf" points="2027,-56.5 2027,-75.5 2135,-75.5 2135,-56.5 2027,-56.5"/>
<text text-anchor="middle" x="2081" y="-63.5" font-family="Helvetica,sans-Serif" font-size="10.00" fill="#000000">fairlogger/Logger.h</text>
</g>
<!-- Node33&#45;&gt;Node38 -->
<g id="edge55" class="edge">
<title>Node33&#45;&gt;Node38</title>
<path fill="none" stroke="#191970" d="M2319.8183,-112.4369C2270.0116,-102.7522 2192.9615,-87.7703 2139.9212,-77.4569"/>
<polygon fill="#191970" stroke="#191970" points="2140.4631,-73.9968 2129.9789,-75.5237 2139.127,-80.8681 2140.4631,-73.9968"/>
</g>
<!-- Node33&#45;&gt;Node39 -->
<g id="edge56" class="edge">
<title>Node33&#45;&gt;Node39</title>
<path fill="none" stroke="#191970" d="M2414.9371,-112.4369C2461.2645,-102.7925 2532.8268,-87.8948 2582.3469,-77.5858"/>
<polygon fill="#191970" stroke="#191970" points="2583.1756,-80.9884 2592.2524,-75.5237 2581.7489,-74.1353 2583.1756,-80.9884"/>
</g>
<!-- Node39&#45;&gt;Node12 -->
<g id="edge58" class="edge">
<title>Node39&#45;&gt;Node12</title>
<path fill="none" stroke="#191970" d="M2589.9453,-62.4545C2448.2341,-51.9988 2034.361,-21.4627 1912.8891,-12.5004"/>
<polygon fill="#191970" stroke="#191970" points="1912.9357,-8.9944 1902.7052,-11.749 1912.4206,-15.9754 1912.9357,-8.9944"/>
</g>
<!-- Node40 -->
<g id="node41" class="node">
<title>Node40</title>
<polygon fill="none" stroke="#bfbfbf" points="3276.5,-.5 3276.5,-19.5 3329.5,-19.5 3329.5,-.5 3276.5,-.5"/>
<text text-anchor="middle" x="3303" y="-7.5" font-family="Helvetica,sans-Serif" font-size="10.00" fill="#000000">cstddef</text>
</g>
<!-- Node39&#45;&gt;Node40 -->
<g id="edge57" class="edge">
<title>Node39&#45;&gt;Node40</title>
<path fill="none" stroke="#191970" d="M2686.0927,-61.9501C2812.6851,-51.2897 3153.1476,-22.6191 3266.0529,-13.1113"/>
<polygon fill="#191970" stroke="#191970" points="3266.583,-16.5792 3276.254,-12.2523 3265.9955,-9.6039 3266.583,-16.5792"/>
</g>
<!-- Node41 -->
<g id="node42" class="node">
<title>Node41</title>
<polygon fill="none" stroke="#bfbfbf" points="2613,-.5 2613,-19.5 2663,-19.5 2663,-.5 2613,-.5"/>
<text text-anchor="middle" x="2638" y="-7.5" font-family="Helvetica,sans-Serif" font-size="10.00" fill="#000000">chrono</text>
</g>
<!-- Node39&#45;&gt;Node41 -->
<g id="edge59" class="edge">
<title>Node39&#45;&gt;Node41</title>
<path fill="none" stroke="#191970" d="M2638,-56.2455C2638,-48.9382 2638,-38.6944 2638,-29.7046"/>
<polygon fill="#191970" stroke="#191970" points="2641.5001,-29.6426 2638,-19.6427 2634.5001,-29.6427 2641.5001,-29.6426"/>
</g>
<!-- Node42&#45;&gt;Node17 -->
<g id="edge75" class="edge">
<title>Node42&#45;&gt;Node17</title>
<path fill="none" stroke="#191970" d="M1694.8048,-294.912C1655.0075,-287.0859 1585.3846,-272.4103 1527,-255 1488.8649,-243.6281 1480.6572,-236.8663 1443,-224 1273.5465,-166.103 1069.3223,-104.249 982.8877,-78.4316"/>
<polygon fill="#191970" stroke="#191970" points="983.7675,-75.0417 973.1843,-75.5369 981.7664,-81.7496 983.7675,-75.0417"/>
</g>
<!-- Node42&#45;&gt;Node20 -->
<g id="edge74" class="edge">
<title>Node42&#45;&gt;Node20</title>
<path fill="none" stroke="#191970" d="M1694.8998,-295.8537C1643.686,-287.5886 1540.355,-270.6887 1453,-255 1439.4341,-252.5636 1424.617,-249.7678 1411.408,-247.2274"/>
<polygon fill="#191970" stroke="#191970" points="1411.6966,-243.7185 1401.214,-245.2565 1410.3678,-250.5912 1411.6966,-243.7185"/>
</g>
<!-- Node42&#45;&gt;Node22 -->
<g id="edge78" class="edge">
<title>Node42&#45;&gt;Node22</title>
<path fill="none" stroke="#191970" d="M1694.9698,-299.818C1627.3894,-296.7664 1465.6085,-286.5144 1334,-255 1330.8254,-254.2398 1327.5619,-253.3119 1324.3242,-252.2916"/>
<polygon fill="#191970" stroke="#191970" points="1325.3977,-248.9598 1314.8031,-249.0297 1323.1289,-255.5819 1325.3977,-248.9598"/>
</g>
<!-- Node42&#45;&gt;Node33 -->
<g id="edge98" class="edge">
<title>Node42&#45;&gt;Node33</title>
<path fill="none" stroke="#191970" d="M1710.2627,-291.2988C1698.2416,-283.2823 1682.977,-270.6887 1676,-255 1660.288,-219.6695 1649.5795,-196.2324 1676,-168 1697.4522,-145.0766 2142.8096,-129.0024 2308.0248,-123.8083"/>
<polygon fill="#191970" stroke="#191970" points="2308.6086,-127.2919 2318.4947,-123.4819 2308.3905,-120.2953 2308.6086,-127.2919"/>
</g>
<!-- Node42&#45;&gt;Node38 -->
<g id="edge77" class="edge">
<title>Node42&#45;&gt;Node38</title>
<path fill="none" stroke="#191970" d="M1702.947,-291.4659C1687.6781,-284.0132 1669.1319,-272.0371 1660,-255 1641.7319,-220.918 1635.0835,-198.386 1659,-168 1702.8062,-112.3441 1909.7295,-83.4329 2016.6621,-71.9939"/>
<polygon fill="#191970" stroke="#191970" points="2017.1096,-75.4662 2026.6894,-70.9411 2016.3786,-68.5045 2017.1096,-75.4662"/>
</g>
<!-- Node42&#45;&gt;Node39 -->
<g id="edge80" class="edge">
<title>Node42&#45;&gt;Node39</title>
<path fill="none" stroke="#191970" d="M1759.096,-299.8043C1841.8653,-296.3764 2069.1445,-284.779 2256,-255 2385.3529,-234.3851 2426.2324,-247.3504 2543,-188 2576.9927,-170.7222 2585.1322,-162.5137 2608,-132 2618.7067,-117.7135 2626.7587,-98.9966 2631.811,-85.1448"/>
<polygon fill="#191970" stroke="#191970" points="2635.1323,-86.2492 2635.0839,-75.6545 2628.5148,-83.9669 2635.1323,-86.2492"/>
</g>
<!-- Node43 -->
<g id="node44" class="node">
<title>Node43</title>
<g id="a_node44"><a xlink:href="../../de/d8e/Utilities_2rANS_2include_2rANS_2internal_2Encoder_8h.html" target="_top" xlink:title="internal/Encoder.h">
<polygon fill="none" stroke="#000000" points="1685,-230 1685,-249 1789,-249 1789,-230 1685,-230"/>
<text text-anchor="middle" x="1737" y="-237" font-family="Helvetica,sans-Serif" font-size="10.00" fill="#000000">internal/Encoder.h</text>
</a>
</g>
</g>
<!-- Node42&#45;&gt;Node43 -->
<g id="edge61" class="edge">
<title>Node42&#45;&gt;Node43</title>
<path fill="none" stroke="#191970" d="M1728.5625,-291.3906C1729.9487,-282.8657 1732.018,-270.1392 1733.7604,-259.4235"/>
<polygon fill="#191970" stroke="#191970" points="1737.2651,-259.677 1735.4155,-249.2449 1730.3558,-258.5535 1737.2651,-259.677"/>
</g>
<!-- Node46 -->
<g id="node47" class="node">
<title>Node46</title>
<g id="a_node47"><a xlink:href="../../d2/d53/EncoderSymbol_8h.html" target="_top" xlink:title="Structure containing all relevant information to encode a symbol. ">
<polygon fill="none" stroke="#000000" points="1375.5,-168.5 1375.5,-187.5 1476.5,-187.5 1476.5,-168.5 1375.5,-168.5"/>
<text text-anchor="middle" x="1426" y="-175.5" font-family="Helvetica,sans-Serif" font-size="10.00" fill="#000000">EncoderSymbol.h</text>
</a>
</g>
</g>
<!-- Node42&#45;&gt;Node46 -->
<g id="edge79" class="edge">
<title>Node42&#45;&gt;Node46</title>
<path fill="none" stroke="#191970" d="M1700.6875,-291.4734C1675.888,-282.4015 1637.7486,-268.2096 1605,-255 1552.5204,-233.8316 1492.1989,-207.4517 1456.6894,-191.7085"/>
<polygon fill="#191970" stroke="#191970" points="1457.9188,-188.4249 1447.359,-187.5634 1455.0768,-194.822 1457.9188,-188.4249"/>
</g>
<!-- Node47 -->
<g id="node48" class="node">
<title>Node47</title>
<polygon fill="none" stroke="#bfbfbf" points="1807,-230 1807,-249 1863,-249 1863,-230 1807,-230"/>
<text text-anchor="middle" x="1835" y="-237" font-family="Helvetica,sans-Serif" font-size="10.00" fill="#000000">iomanip</text>
</g>
<!-- Node42&#45;&gt;Node47 -->
<g id="edge76" class="edge">
<title>Node42&#45;&gt;Node47</title>
<path fill="none" stroke="#191970" d="M1743.875,-291.3906C1761.4698,-281.3713 1789.2566,-265.5483 1809.5241,-254.0071"/>
<polygon fill="#191970" stroke="#191970" points="1811.2856,-257.0318 1818.2435,-249.0419 1807.8217,-250.9489 1811.2856,-257.0318"/>
</g>
<!-- Node48 -->
<g id="node49" class="node">
<title>Node48</title>
<g id="a_node49"><a xlink:href="../../d8/dd9/SymbolTable_8h.html" target="_top" xlink:title="Container for information needed to encode/decode a symbol of the alphabet. ">
<polygon fill="none" stroke="#000000" points="1957,-230 1957,-249 2085,-249 2085,-230 1957,-230"/>
<text text-anchor="middle" x="2021" y="-237" font-family="Helvetica,sans-Serif" font-size="10.00" fill="#000000">internal/SymbolTable.h</text>
</a>
</g>
</g>
<!-- Node42&#45;&gt;Node48 -->
<g id="edge81" class="edge">
<title>Node42&#45;&gt;Node48</title>
<path fill="none" stroke="#191970" d="M1759.0228,-294.3013C1808.5761,-283.9356 1904.4728,-263.8756 1965.4799,-251.1139"/>
<polygon fill="#191970" stroke="#191970" points="1966.2588,-254.5268 1975.3303,-249.0534 1964.8255,-247.6751 1966.2588,-254.5268"/>
</g>
<!-- Node43&#45;&gt;Node7 -->
<g id="edge64" class="edge">
<title>Node43&#45;&gt;Node7</title>
<path fill="none" stroke="#191970" d="M1684.7745,-236.0047C1587.5277,-228.9622 1386.631,-211.6927 1366,-188 1338.9654,-156.9534 1373.8292,-108.6613 1396.4536,-83.1437"/>
<polygon fill="#191970" stroke="#191970" points="1399.0929,-85.4441 1403.2752,-75.7097 1393.9353,-80.7114 1399.0929,-85.4441"/>
</g>
<!-- Node43&#45;&gt;Node8 -->
<g id="edge63" class="edge">
<title>Node43&#45;&gt;Node8</title>
<path fill="none" stroke="#191970" d="M1693.4878,-229.9514C1658.3778,-221.3968 1608.2221,-207.2296 1567,-188 1537.2045,-174.1008 1505.9773,-152.4344 1486.275,-137.7505"/>
<polygon fill="#191970" stroke="#191970" points="1488.1661,-134.7923 1478.0802,-131.5482 1483.9416,-140.3739 1488.1661,-134.7923"/>
</g>
<!-- Node43&#45;&gt;Node10 -->
<g id="edge65" class="edge">
<title>Node43&#45;&gt;Node10</title>
<path fill="none" stroke="#191970" d="M1769.68,-229.9245C1778.7747,-227.6086 1788.7078,-225.4 1798,-224 2113.0685,-176.532 2201.2268,-248.7806 2514,-188 2577.4961,-175.6609 2756.6555,-108.1261 2831.9742,-79.18"/>
<polygon fill="#191970" stroke="#191970" points="2833.397,-82.3827 2841.4713,-75.5229 2830.8816,-75.8502 2833.397,-82.3827"/>
</g>
<!-- Node43&#45;&gt;Node37 -->
<g id="edge62" class="edge">
<title>Node43&#45;&gt;Node37</title>
<path fill="none" stroke="#191970" d="M1719.7494,-229.8556C1705.5403,-220.9361 1686.1394,-206.3082 1676,-188 1659.5449,-158.2879 1647.8869,-139.3687 1668,-112 1681.519,-93.6041 1742.3959,-79.2844 1781.4451,-71.7867"/>
<polygon fill="#191970" stroke="#191970" points="1782.152,-75.2153 1791.3413,-69.9421 1780.8692,-68.3338 1782.152,-75.2153"/>
</g>
<!-- Node43&#45;&gt;Node39 -->
<g id="edge73" class="edge">
<title>Node43&#45;&gt;Node39</title>
<path fill="none" stroke="#191970" d="M1771.6832,-229.9525C1780.2429,-227.7997 1789.4181,-225.6626 1798,-224 2098.7059,-165.7431 2185.4692,-212.495 2481,-132 2505.8131,-125.2416 2569.3972,-97.1934 2607.6045,-79.9094"/>
<polygon fill="#191970" stroke="#191970" points="2609.5346,-82.877 2617.1936,-75.5565 2606.6411,-76.503 2609.5346,-82.877"/>
</g>
<!-- Node44 -->
<g id="node45" class="node">
<title>Node44</title>
<polygon fill="none" stroke="#bfbfbf" points="1685.5,-168.5 1685.5,-187.5 1726.5,-187.5 1726.5,-168.5 1685.5,-168.5"/>
<text text-anchor="middle" x="1706" y="-175.5" font-family="Helvetica,sans-Serif" font-size="10.00" fill="#000000">tuple</text>
</g>
<!-- Node43&#45;&gt;Node44 -->
<g id="edge66" class="edge">
<title>Node43&#45;&gt;Node44</title>
<path fill="none" stroke="#191970" d="M1732.1563,-229.8906C1727.7234,-221.0965 1721.0369,-207.8312 1715.5341,-196.9145"/>
<polygon fill="#191970" stroke="#191970" points="1718.5386,-195.0992 1710.912,-187.7449 1712.2878,-198.25 1718.5386,-195.0992"/>
</g>
<!-- Node45 -->
<g id="node46" class="node">
<title>Node45</title>
<g id="a_node46"><a xlink:href="../../d7/d99/DecoderSymbol_8h.html" target="_top" xlink:title="Structure containing all relevant information for decoding a rANS encoded symbol. ...">
<polygon fill="none" stroke="#000000" points="1744.5,-168.5 1744.5,-187.5 1847.5,-187.5 1847.5,-168.5 1744.5,-168.5"/>
<text text-anchor="middle" x="1796" y="-175.5" font-family="Helvetica,sans-Serif" font-size="10.00" fill="#000000">DecoderSymbol.h</text>
</a>
</g>
</g>
<!-- Node43&#45;&gt;Node45 -->
<g id="edge67" class="edge">
<title>Node43&#45;&gt;Node45</title>
<path fill="none" stroke="#191970" d="M1746.2188,-229.8906C1755.0858,-220.6478 1768.6912,-206.466 1779.4389,-195.2628"/>
<polygon fill="#191970" stroke="#191970" points="1782.2541,-197.3841 1786.6513,-187.7449 1777.2027,-192.5381 1782.2541,-197.3841"/>
</g>
<!-- Node43&#45;&gt;Node46 -->
<g id="edge69" class="edge">
<title>Node43&#45;&gt;Node46</title>
<path fill="none" stroke="#191970" d="M1688.7475,-229.9581C1633.508,-219.0345 1543.0632,-201.1492 1484.0275,-189.4749"/>
<polygon fill="#191970" stroke="#191970" points="1484.5989,-186.0202 1474.1098,-187.5137 1483.2409,-192.8872 1484.5989,-186.0202"/>
</g>
<!-- Node45&#45;&gt;Node8 -->
<g id="edge68" class="edge">
<title>Node45&#45;&gt;Node8</title>
<path fill="none" stroke="#191970" d="M1744.4196,-169.5173C1741.2325,-169.0015 1738.073,-168.4924 1735,-168 1632.8363,-151.6307 1606.3395,-152.8732 1505,-132 1503.7292,-131.7382 1502.4376,-131.4619 1501.135,-131.1744"/>
<polygon fill="#191970" stroke="#191970" points="1501.629,-127.6951 1491.0931,-128.8107 1500.0251,-134.5089 1501.629,-127.6951"/>
</g>
<!-- Node46&#45;&gt;Node7 -->
<g id="edge71" class="edge">
<title>Node46&#45;&gt;Node7</title>
<path fill="none" stroke="#191970" d="M1424.8916,-168.4509C1422.7714,-150.184 1418.102,-109.9553 1415.2863,-85.6976"/>
<polygon fill="#191970" stroke="#191970" points="1418.7353,-85.0546 1414.1056,-75.5249 1411.782,-85.8618 1418.7353,-85.0546"/>
</g>
<!-- Node46&#45;&gt;Node8 -->
<g id="edge70" class="edge">
<title>Node46&#45;&gt;Node8</title>
<path fill="none" stroke="#191970" d="M1432.9675,-168.2455C1438.5311,-160.4564 1446.478,-149.3308 1453.1829,-139.9439"/>
<polygon fill="#191970" stroke="#191970" points="1456.148,-141.8144 1459.1124,-131.6427 1450.4519,-137.7457 1456.148,-141.8144"/>
</g>
<!-- Node46&#45;&gt;Node39 -->
<g id="edge72" class="edge">
<title>Node46&#45;&gt;Node39</title>
<path fill="none" stroke="#191970" d="M1476.7565,-175.8474C1677.2523,-167.3222 2404.3551,-136.1853 2428,-132 2492.3154,-120.6157 2564.3533,-95.0155 2605.1368,-79.2548"/>
<polygon fill="#191970" stroke="#191970" points="2606.5253,-82.47 2614.5656,-75.5705 2603.9776,-75.9501 2606.5253,-82.47"/>
</g>
<!-- Node48&#45;&gt;Node8 -->
<g id="edge83" class="edge">
<title>Node48&#45;&gt;Node8</title>
<path fill="none" stroke="#191970" d="M1998.1819,-229.9822C1973.803,-219.7681 1934.0622,-202.9876 1900,-188 1880.3382,-179.3487 1876.7344,-173.614 1856,-168 1704.6319,-127.016 1659.3792,-159.5511 1505,-132 1503.7227,-131.772 1502.4256,-131.5246 1501.1182,-131.2616"/>
<polygon fill="#191970" stroke="#191970" points="1501.5779,-127.778 1491.0549,-129.0093 1500.049,-134.609 1501.5779,-127.778"/>
</g>
<!-- Node48&#45;&gt;Node12 -->
<g id="edge84" class="edge">
<title>Node48&#45;&gt;Node12</title>
<path fill="none" stroke="#191970" d="M2006.0373,-229.837C1982.5222,-214.9709 1935.1394,-186.2957 1892,-168 1841.5213,-146.5917 1806.6276,-176.0665 1774,-132 1763.6525,-118.0248 1764.6566,-79.5418 1782,-56 1797.1738,-35.4031 1823.9622,-23.669 1845.5479,-17.215"/>
<polygon fill="#191970" stroke="#191970" points="1846.625,-20.549 1855.3452,-14.5317 1844.7758,-13.7976 1846.625,-20.549"/>
</g>
<!-- Node48&#45;&gt;Node37 -->
<g id="edge82" class="edge">
<title>Node48&#45;&gt;Node37</title>
<path fill="none" stroke="#191970" d="M2016.4681,-229.8241C2008.5802,-214.1272 1990.7699,-183.3286 1966,-168 1895.1422,-124.1505 1834.9639,-196.3306 1782,-132 1769.7708,-117.1463 1783.2486,-97.005 1796.4794,-82.8927"/>
<polygon fill="#191970" stroke="#191970" points="1799.0353,-85.2867 1803.6396,-75.7446 1794.0898,-80.3327 1799.0353,-85.2867"/>
</g>
<!-- Node48&#45;&gt;Node38 -->
<g id="edge85" class="edge">
<title>Node48&#45;&gt;Node38</title>
<path fill="none" stroke="#191970" d="M2027.9398,-229.6268C2036.8345,-215.6845 2050.184,-189.5255 2042,-168 2034.3923,-147.9902 2017.6077,-152.0098 2010,-132 2006.8411,-123.6914 2005.7544,-119.8094 2010,-112 2017.6377,-97.9511 2031.6209,-87.5317 2045.1708,-80.1958"/>
<polygon fill="#191970" stroke="#191970" points="2047.0059,-83.1921 2054.399,-75.603 2043.887,-76.9253 2047.0059,-83.1921"/>
</g>
<!-- Node49 -->
<g id="node50" class="node">
<title>Node49</title>
<g id="a_node50"><a xlink:href="../../d0/d51/SymbolStatistics_8h.html" target="_top" xlink:title="Structure to depict the distribution of symbols in the source message. ">
<polygon fill="none" stroke="#000000" points="2398.5,-168.5 2398.5,-187.5 2505.5,-187.5 2505.5,-168.5 2398.5,-168.5"/>
<text text-anchor="middle" x="2452" y="-175.5" font-family="Helvetica,sans-Serif" font-size="10.00" fill="#000000">SymbolStatistics.h</text>
</a>
</g>
</g>
<!-- Node48&#45;&gt;Node49 -->
<g id="edge86" class="edge">
<title>Node48&#45;&gt;Node49</title>
<path fill="none" stroke="#191970" d="M2085.0597,-230.3592C2166.6913,-218.7111 2306.9452,-198.6981 2388.3703,-187.0794"/>
<polygon fill="#191970" stroke="#191970" points="2389.0806,-190.5136 2398.4859,-185.636 2388.0917,-183.5838 2389.0806,-190.5136"/>
</g>
<!-- Node49&#45;&gt;Node7 -->
<g id="edge88" class="edge">
<title>Node49&#45;&gt;Node7</title>
<path fill="none" stroke="#191970" d="M2398.3267,-172.2142C2213.2982,-152.2689 1604.8743,-86.6833 1449.4208,-69.926"/>
<polygon fill="#191970" stroke="#191970" points="1449.7509,-66.4414 1439.4333,-68.8494 1449.0006,-73.4011 1449.7509,-66.4414"/>
</g>
<!-- Node49&#45;&gt;Node10 -->
<g id="edge94" class="edge">
<title>Node49&#45;&gt;Node10</title>
<path fill="none" stroke="#191970" d="M2487.2974,-168.4509C2562.5696,-148.0874 2738.7251,-100.4319 2821.5176,-78.0339"/>
<polygon fill="#191970" stroke="#191970" points="2822.6369,-81.357 2831.3759,-75.3669 2820.8089,-74.5999 2822.6369,-81.357"/>
</g>
<!-- Node49&#45;&gt;Node12 -->
<g id="edge92" class="edge">
<title>Node49&#45;&gt;Node12</title>
<path fill="none" stroke="#191970" d="M2413.7418,-168.4936C2382.2096,-160.2039 2336.5668,-147.1521 2298,-132 2226.9605,-104.0901 2216.5663,-79.6582 2144,-56 2063.3856,-29.7179 1963.8049,-17.5766 1912.723,-12.7387"/>
<polygon fill="#191970" stroke="#191970" points="1912.8595,-9.2367 1902.5831,-11.8147 1912.2242,-16.2078 1912.8595,-9.2367"/>
</g>
<!-- Node49&#45;&gt;Node17 -->
<g id="edge87" class="edge">
<title>Node49&#45;&gt;Node17</title>
<path fill="none" stroke="#191970" d="M2398.2227,-174.0139C2159.3724,-156.3095 1196.9788,-84.9739 983.2077,-69.1286"/>
<polygon fill="#191970" stroke="#191970" points="983.2597,-65.6229 973.0283,-68.374 982.7422,-72.6038 983.2597,-65.6229"/>
</g>
<!-- Node49&#45;&gt;Node33 -->
<g id="edge97" class="edge">
<title>Node49&#45;&gt;Node33</title>
<path fill="none" stroke="#191970" d="M2437.5425,-168.2455C2424.9268,-159.7337 2406.4056,-147.2375 2391.7955,-137.3801"/>
<polygon fill="#191970" stroke="#191970" points="2393.5391,-134.3343 2383.2918,-131.6427 2389.6239,-140.1371 2393.5391,-134.3343"/>
</g>
<!-- Node49&#45;&gt;Node34 -->
<g id="edge89" class="edge">
<title>Node49&#45;&gt;Node34</title>
<path fill="none" stroke="#191970" d="M2505.6323,-168.6436C2631.3151,-146.7176 2942.6214,-92.4087 3053.7655,-73.0191"/>
<polygon fill="#191970" stroke="#191970" points="3054.6339,-76.4206 3063.8836,-71.254 3053.4308,-69.5247 3054.6339,-76.4206"/>
</g>
<!-- Node49&#45;&gt;Node35 -->
<g id="edge93" class="edge">
<title>Node49&#45;&gt;Node35</title>
<path fill="none" stroke="#191970" d="M2402.0685,-168.4252C2365.4558,-160.2713 2320.2512,-147.4382 2309,-132 2299.3199,-118.7176 2300.4874,-99.5995 2303.3855,-85.3551"/>
<polygon fill="#191970" stroke="#191970" points="2306.7976,-86.1364 2305.7881,-75.5898 2300.0003,-84.464 2306.7976,-86.1364"/>
</g>
<!-- Node49&#45;&gt;Node36 -->
<g id="edge90" class="edge">
<title>Node49&#45;&gt;Node36</title>
<path fill="none" stroke="#191970" d="M2452.1705,-168.4509C2452.4967,-150.184 2453.2151,-109.9553 2453.6483,-85.6976"/>
<polygon fill="#191970" stroke="#191970" points="2457.1507,-85.5858 2453.8299,-75.5249 2450.1518,-85.4608 2457.1507,-85.5858"/>
</g>
<!-- Node49&#45;&gt;Node37 -->
<g id="edge91" class="edge">
<title>Node49&#45;&gt;Node37</title>
<path fill="none" stroke="#191970" d="M2398.4427,-168.7634C2344.9083,-159.5166 2260.2423,-144.8541 2187,-132 2062.4628,-110.1435 1914.5506,-83.7802 1849.0804,-72.0902"/>
<polygon fill="#191970" stroke="#191970" points="1849.3905,-68.5903 1838.9309,-70.2776 1848.1598,-75.4813 1849.3905,-68.5903"/>
</g>
<!-- Node49&#45;&gt;Node38 -->
<g id="edge95" class="edge">
<title>Node49&#45;&gt;Node38</title>
<path fill="none" stroke="#191970" d="M2398.0753,-169.2813C2354.3647,-161.5314 2291.4678,-148.8236 2238,-132 2236.4029,-131.4975 2158.4064,-98.639 2112.9661,-79.4812"/>
<polygon fill="#191970" stroke="#191970" points="2114.1066,-76.1638 2103.5323,-75.5036 2111.3869,-82.6138 2114.1066,-76.1638"/>
</g>
<!-- Node49&#45;&gt;Node39 -->
<g id="edge96" class="edge">
<title>Node49&#45;&gt;Node39</title>
<path fill="none" stroke="#191970" d="M2471.0675,-168.4416C2488.6819,-159.4619 2515.4527,-145.4319 2538,-132 2565.4302,-115.6592 2595.9168,-95.1869 2615.9336,-81.4119"/>
<polygon fill="#191970" stroke="#191970" points="2618.1124,-84.1606 2624.3452,-75.593 2614.13,-78.4038 2618.1124,-84.1606"/>
</g>
<!-- Node50&#45;&gt;Node10 -->
<g id="edge110" class="edge">
<title>Node50&#45;&gt;Node10</title>
<path fill="none" stroke="#191970" d="M2489.8978,-298.9373C2555.8127,-294.2905 2701.316,-281.2958 2743,-255 2808.0715,-213.9505 2845.7221,-124.5451 2859.7045,-85.2176"/>
<polygon fill="#191970" stroke="#191970" points="2863.0917,-86.1296 2863.0237,-75.535 2856.47,-83.8596 2863.0917,-86.1296"/>
</g>
<!-- Node50&#45;&gt;Node20 -->
<g id="edge112" class="edge">
<title>Node50&#45;&gt;Node20</title>
<path fill="none" stroke="#191970" d="M2424.2325,-299.1427C2266.1741,-290.1836 1583.1215,-251.4668 1411.3272,-241.7291"/>
<polygon fill="#191970" stroke="#191970" points="1411.4005,-238.2278 1401.2184,-241.1562 1411.0043,-245.2166 1411.4005,-238.2278"/>
</g>
<!-- Node50&#45;&gt;Node33 -->
<g id="edge114" class="edge">
<title>Node50&#45;&gt;Node33</title>
<path fill="none" stroke="#191970" d="M2467.5391,-291.2093C2491.1543,-268.0841 2543.9701,-208.9498 2514,-168 2503.6012,-153.7915 2464.6984,-141.9049 2429.8053,-133.776"/>
<polygon fill="#191970" stroke="#191970" points="2430.1456,-130.2649 2419.6207,-131.48 2428.6061,-137.0936 2430.1456,-130.2649"/>
</g>
<!-- Node50&#45;&gt;Node34 -->
<g id="edge111" class="edge">
<title>Node50&#45;&gt;Node34</title>
<path fill="none" stroke="#191970" d="M2489.7549,-297.8952C2559.9462,-290.9775 2722.7254,-273.4481 2775,-255 2897.5791,-211.7408 3025.2598,-119.1314 3073.7253,-81.9421"/>
<polygon fill="#191970" stroke="#191970" points="3076.0673,-84.5554 3081.834,-75.6674 3071.7833,-79.0193 3076.0673,-84.5554"/>
</g>
<!-- Node50&#45;&gt;Node38 -->
<g id="edge113" class="edge">
<title>Node50&#45;&gt;Node38</title>
<path fill="none" stroke="#191970" d="M2452.5249,-291.4123C2444.6235,-275.4208 2426.7634,-243.1718 2403,-224 2353.0828,-183.7278 2330.3075,-189.8309 2270,-168 2218.4432,-149.3368 2199.5145,-159.364 2152,-132 2129.812,-119.2217 2108.92,-98.321 2095.6202,-83.4654"/>
<polygon fill="#191970" stroke="#191970" points="2097.9175,-80.7734 2088.7144,-75.5243 2092.6354,-85.3669 2097.9175,-80.7734"/>
</g>
<!-- Node50&#45;&gt;Node40 -->
<g id="edge109" class="edge">
<title>Node50&#45;&gt;Node40</title>
<path fill="none" stroke="#191970" d="M2489.758,-298.3767C2567.7426,-291.8955 2762.5476,-274.2502 2825,-255 3012.2448,-197.2841 3214.131,-69.2636 3280.4841,-25.2274"/>
<polygon fill="#191970" stroke="#191970" points="3282.5585,-28.0508 3288.9316,-19.5872 3278.6715,-22.2292 3282.5585,-28.0508"/>
</g>
<!-- Node50&#45;&gt;Node45 -->
<g id="edge115" class="edge">
<title>Node50&#45;&gt;Node45</title>
<path fill="none" stroke="#191970" d="M2424.3749,-298.6178C2352.7826,-293.0319 2184.142,-277.8145 2132,-255 2112.0319,-246.263 2113.9129,-232.8621 2094,-224 2052.8328,-205.6788 1932.272,-191.1965 1857.7142,-183.6752"/>
<polygon fill="#191970" stroke="#191970" points="1857.8095,-180.1675 1847.5121,-182.6605 1857.1165,-187.1332 1857.8095,-180.1675"/>
</g>
<!-- Node50&#45;&gt;Node48 -->
<g id="edge122" class="edge">
<title>Node50&#45;&gt;Node48</title>
<path fill="none" stroke="#191970" d="M2424.3132,-297.5572C2361.2246,-290.7449 2218.358,-274.5041 2099,-255 2091.6102,-253.7924 2083.8507,-252.4009 2076.2098,-250.9574"/>
<polygon fill="#191970" stroke="#191970" points="2076.7565,-247.4984 2066.2746,-249.0412 2075.4307,-254.3718 2076.7565,-247.4984"/>
</g>
<!-- Node50&#45;&gt;Node49 -->
<g id="edge123" class="edge">
<title>Node50&#45;&gt;Node49</title>
<path fill="none" stroke="#191970" d="M2456.6077,-291.3484C2455.7898,-271.2295 2453.8887,-224.4608 2452.8012,-197.7098"/>
<polygon fill="#191970" stroke="#191970" points="2456.2939,-197.4563 2452.3905,-187.6068 2449.2997,-197.7407 2456.2939,-197.4563"/>
</g>
<!-- Node51 -->
<g id="node52" class="node">
<title>Node51</title>
<g id="a_node52"><a xlink:href="../../d6/dfb/Utilities_2rANS_2include_2rANS_2internal_2Decoder_8h.html" target="_top" xlink:title="internal/Decoder.h">
<polygon fill="none" stroke="#000000" points="2141,-230 2141,-249 2247,-249 2247,-230 2141,-230"/>
<text text-anchor="middle" x="2194" y="-237" font-family="Helvetica,sans-Serif" font-size="10.00" fill="#000000">internal/Decoder.h</text>
</a>
</g>
</g>
<!-- Node50&#45;&gt;Node51 -->
<g id="edge100" class="edge">
<title>Node50&#45;&gt;Node51</title>
<path fill="none" stroke="#191970" d="M2424.4873,-293.3972C2379.5562,-282.8905 2298.0295,-263.8263 2244.9619,-251.4169"/>
<polygon fill="#191970" stroke="#191970" points="2245.6077,-247.9736 2235.0734,-249.1046 2244.0138,-254.7897 2245.6077,-247.9736"/>
</g>
<!-- Node52 -->
<g id="node53" class="node">
<title>Node52</title>
<g id="a_node53"><a xlink:href="../../dc/d3b/ReverseSymbolLookupTable_8h.html" target="_top" xlink:title="Maps CDF back to source symbol &#45; needed for the decoder. ">
<polygon fill="none" stroke="#000000" points="2566,-224.5 2566,-254.5 2734,-254.5 2734,-224.5 2566,-224.5"/>
<text text-anchor="start" x="2574" y="-242.5" font-family="Helvetica,sans-Serif" font-size="10.00" fill="#000000">internal/ReverseSymbolLookup</text>
<text text-anchor="middle" x="2650" y="-231.5" font-family="Helvetica,sans-Serif" font-size="10.00" fill="#000000">Table.h</text>
</a>
</g>
</g>
<!-- Node50&#45;&gt;Node52 -->
<g id="edge116" class="edge">
<title>Node50&#45;&gt;Node52</title>
<path fill="none" stroke="#191970" d="M2487.1563,-291.3906C2515.4531,-282.3737 2558.5012,-268.6563 2593.231,-257.5896"/>
<polygon fill="#191970" stroke="#191970" points="2594.3216,-260.9156 2602.7869,-254.5446 2592.1963,-254.246 2594.3216,-260.9156"/>
</g>
<!-- Node51&#45;&gt;Node7 -->
<g id="edge103" class="edge">
<title>Node51&#45;&gt;Node7</title>
<path fill="none" stroke="#191970" d="M2165.3218,-229.9586C2120.4211,-215.2552 2030.6235,-186.7942 1953,-168 1764.9857,-122.4779 1536.0526,-85.0803 1448.9593,-71.4936"/>
<polygon fill="#191970" stroke="#191970" points="1449.4722,-68.0314 1439.0536,-69.9558 1448.3983,-74.9485 1449.4722,-68.0314"/>
</g>
<!-- Node51&#45;&gt;Node8 -->
<g id="edge102" class="edge">
<title>Node51&#45;&gt;Node8</title>
<path fill="none" stroke="#191970" d="M2159.866,-229.9433C2104.207,-214.6948 1990.2407,-184.8657 1892,-168 1748.0492,-143.287 1574.3196,-129.4231 1501.1675,-124.3037"/>
<polygon fill="#191970" stroke="#191970" points="1501.3368,-120.8071 1491.1199,-123.6116 1500.8557,-127.7906 1501.3368,-120.8071"/>
</g>
<!-- Node51&#45;&gt;Node10 -->
<g id="edge105" class="edge">
<title>Node51&#45;&gt;Node10</title>
<path fill="none" stroke="#191970" d="M2247.0718,-235.4558C2345.9526,-227.5397 2554.6289,-208.9337 2624,-188 2709.4299,-162.2204 2801.1012,-107.6783 2842.8777,-81.14"/>
<polygon fill="#191970" stroke="#191970" points="2844.9491,-83.9695 2851.476,-75.6238 2841.1692,-78.0778 2844.9491,-83.9695"/>
</g>
<!-- Node51&#45;&gt;Node37 -->
<g id="edge101" class="edge">
<title>Node51&#45;&gt;Node37</title>
<path fill="none" stroke="#191970" d="M2187.1002,-229.8457C2175.0935,-213.8893 2148.6849,-182.3545 2118,-168 2057.5806,-139.7355 1866.1029,-180.2069 1820,-132 1808.4813,-119.9556 1808.4091,-100.3752 1810.511,-85.6632"/>
<polygon fill="#191970" stroke="#191970" points="1814.0011,-86.0387 1812.3884,-75.5673 1807.119,-84.7588 1814.0011,-86.0387"/>
</g>
<!-- Node51&#45;&gt;Node39 -->
<g id="edge108" class="edge">
<title>Node51&#45;&gt;Node39</title>
<path fill="none" stroke="#191970" d="M2247.0649,-231.3804C2336.4766,-217.6414 2508.069,-191.0009 2514,-188 2563.3893,-163.0101 2605.6179,-111.2689 2625.6235,-83.8903"/>
<polygon fill="#191970" stroke="#191970" points="2628.5711,-85.7853 2631.5343,-75.6132 2622.8745,-81.7172 2628.5711,-85.7853"/>
</g>
<!-- Node51&#45;&gt;Node44 -->
<g id="edge104" class="edge">
<title>Node51&#45;&gt;Node44</title>
<path fill="none" stroke="#191970" d="M2140.8803,-230.7223C2125.7562,-228.3711 2109.2488,-225.9449 2094,-224 1938.195,-204.1278 1893.4543,-221.6196 1736.7364,-187.9801"/>
<polygon fill="#191970" stroke="#191970" points="1737.2598,-184.512 1726.7434,-185.7991 1735.7671,-191.351 1737.2598,-184.512"/>
</g>
<!-- Node51&#45;&gt;Node45 -->
<g id="edge106" class="edge">
<title>Node51&#45;&gt;Node45</title>
<path fill="none" stroke="#191970" d="M2155.5048,-229.975C2146.2059,-227.8459 2136.2749,-225.7138 2127,-224 2033.7187,-206.7638 1924.5715,-192.7804 1857.8759,-184.9257"/>
<polygon fill="#191970" stroke="#191970" points="1857.8839,-181.4029 1847.5451,-183.7181 1857.0711,-188.3555 1857.8839,-181.4029"/>
</g>
<!-- Node51&#45;&gt;Node46 -->
<g id="edge107" class="edge">
<title>Node51&#45;&gt;Node46</title>
<path fill="none" stroke="#191970" d="M2140.9173,-230.4129C2125.7937,-228.0577 2109.2773,-225.7069 2094,-224 1871.1149,-199.0978 1604.784,-185.6038 1487.0775,-180.4661"/>
<polygon fill="#191970" stroke="#191970" points="1486.9731,-176.9585 1476.8314,-180.0237 1486.671,-183.9519 1486.9731,-176.9585"/>
</g>
<!-- Node52&#45;&gt;Node10 -->
<g id="edge118" class="edge">
<title>Node52&#45;&gt;Node10</title>
<path fill="none" stroke="#191970" d="M2674.8853,-224.393C2706.3246,-204.8103 2761.4572,-168.7913 2804,-132 2821.5284,-116.8413 2839.4272,-97.2571 2851.4582,-83.3697"/>
<polygon fill="#191970" stroke="#191970" points="2854.3035,-85.4273 2858.1351,-75.5496 2848.98,-80.882 2854.3035,-85.4273"/>
</g>
<!-- Node52&#45;&gt;Node37 -->
<g id="edge117" class="edge">
<title>Node52&#45;&gt;Node37</title>
<path fill="none" stroke="#191970" d="M2565.8568,-226.3174C2503.8584,-216.3887 2417.5417,-202.1153 2342,-188 2221.1033,-165.4099 2190.8049,-159.8047 2071,-132 1990.6496,-113.352 1896.9496,-88.3597 1848.2425,-75.121"/>
<polygon fill="#191970" stroke="#191970" points="1849.1212,-71.7329 1838.5528,-72.481 1847.281,-78.4867 1849.1212,-71.7329"/>
</g>
<!-- Node52&#45;&gt;Node38 -->
<g id="edge119" class="edge">
<title>Node52&#45;&gt;Node38</title>
<path fill="none" stroke="#191970" d="M2565.8238,-228.1606C2514.0331,-219.8956 2446.7449,-206.8215 2389,-188 2368.9605,-181.4683 2365.9325,-174.8514 2346,-168 2278.7087,-144.8701 2255.93,-158.7645 2190,-132 2172.6726,-124.9659 2130.6916,-98.4368 2104.1775,-81.2303"/>
<polygon fill="#191970" stroke="#191970" points="2105.7986,-78.109 2095.51,-75.5801 2101.9759,-83.9731 2105.7986,-78.109"/>
</g>
<!-- Node52&#45;&gt;Node39 -->
<g id="edge120" class="edge">
<title>Node52&#45;&gt;Node39</title>
<path fill="none" stroke="#191970" d="M2661.8731,-224.1525C2679.1984,-199.7589 2707.5333,-150.9194 2690,-112 2684.4303,-99.6369 2673.7137,-89.2563 2663.4494,-81.5033"/>
<polygon fill="#191970" stroke="#191970" points="2665.2549,-78.4948 2655.0567,-75.623 2661.2382,-84.2277 2665.2549,-78.4948"/>
</g>
<!-- Node52&#45;&gt;Node49 -->
<g id="edge121" class="edge">
<title>Node52&#45;&gt;Node49</title>
<path fill="none" stroke="#191970" d="M2601.5638,-224.4554C2568.0922,-214.059 2524.0798,-200.3884 2492.4781,-190.5727"/>
<polygon fill="#191970" stroke="#191970" points="2493.2711,-187.1542 2482.683,-187.5303 2491.1947,-193.8391 2493.2711,-187.1542"/>
</g>
<!-- Node53&#45;&gt;Node3 -->
<g id="edge131" class="edge">
<title>Node53&#45;&gt;Node3</title>
<path fill="none" stroke="#191970" d="M1391.4826,-358.0894C1325.8394,-351.1711 1211.7873,-335.9225 1179,-311 1162.1184,-298.1678 1152.5718,-275.2332 1147.6135,-258.7967"/>
<polygon fill="#191970" stroke="#191970" points="1150.981,-257.8416 1144.9869,-249.1054 1144.2248,-259.6728 1150.981,-257.8416"/>
</g>
<!-- Node53&#45;&gt;Node8 -->
<g id="edge130" class="edge">
<title>Node53&#45;&gt;Node8</title>
<path fill="none" stroke="#191970" d="M1391.2968,-357.4937C1355.189,-351.5753 1306.148,-338.7371 1272,-311 1240.1383,-285.12 1218.7599,-258.5009 1241,-224 1283.1753,-158.5738 1378.642,-134.6489 1430.6373,-126.2647"/>
<polygon fill="#191970" stroke="#191970" points="1431.3657,-129.6946 1440.7331,-124.7446 1430.3234,-122.7726 1431.3657,-129.6946"/>
</g>
<!-- Node53&#45;&gt;Node17 -->
<g id="edge127" class="edge">
<title>Node53&#45;&gt;Node17</title>
<path fill="none" stroke="#191970" d="M1391.277,-360.3087C1236.1279,-353.0374 752.0778,-329.1397 684,-311 613.7977,-292.2942 537,-312.1517 537,-239.5 537,-239.5 537,-239.5 537,-178 537,-99.4301 625.6213,-134.1651 701,-112 737.3807,-101.3023 839.9835,-83.114 898.5812,-73.1132"/>
<polygon fill="#191970" stroke="#191970" points="899.3644,-76.5304 908.6363,-71.4038 898.1911,-69.6294 899.3644,-76.5304"/>
</g>
<!-- Node53&#45;&gt;Node20 -->
<g id="edge126" class="edge">
<title>Node53&#45;&gt;Node20</title>
<path fill="none" stroke="#191970" d="M1433.7426,-352.8484C1422.6368,-332.4601 1396.6229,-284.7033 1382.1567,-258.1459"/>
<polygon fill="#191970" stroke="#191970" points="1385.0901,-256.2142 1377.233,-249.1068 1378.9429,-259.5627 1385.0901,-256.2142"/>
</g>
<!-- Node53&#45;&gt;Node22 -->
<g id="edge133" class="edge">
<title>Node53&#45;&gt;Node22</title>
<path fill="none" stroke="#191970" d="M1402.3617,-352.9757C1378.1619,-345.1046 1347.1312,-331.7906 1326,-311 1311.3521,-296.5882 1302.2172,-274.6247 1297.1518,-258.8447"/>
<polygon fill="#191970" stroke="#191970" points="1300.4581,-257.6819 1294.2774,-249.0767 1293.7428,-259.658 1300.4581,-257.6819"/>
</g>
<!-- Node53&#45;&gt;Node38 -->
<g id="edge132" class="edge">
<title>Node53&#45;&gt;Node38</title>
<path fill="none" stroke="#191970" d="M1445.7217,-352.7946C1473.5083,-313.6137 1584.2058,-166.5917 1717,-112 1769.8269,-90.2829 1927.2746,-76.4184 2016.8357,-70.0622"/>
<polygon fill="#191970" stroke="#191970" points="2017.1465,-73.5491 2026.8783,-69.3607 2016.6586,-66.5661 2017.1465,-73.5491"/>
</g>
<!-- Node53&#45;&gt;Node39 -->
<g id="edge135" class="edge">
<title>Node53&#45;&gt;Node39</title>
<path fill="none" stroke="#191970" d="M1486.554,-359.7343C1542.2546,-356.5256 1637.3134,-351.146 1719,-347 1833.0892,-341.2095 2671.8287,-344.3561 2743,-255 2770.0463,-221.0432 2755.2545,-177.1212 2706,-112 2696.0801,-98.8845 2681.2898,-88.2476 2668.034,-80.5191"/>
<polygon fill="#191970" stroke="#191970" points="2669.628,-77.4012 2659.1808,-75.6385 2666.2485,-83.5314 2669.628,-77.4012"/>
</g>
<!-- Node53&#45;&gt;Node42 -->
<g id="edge125" class="edge">
<title>Node53&#45;&gt;Node42</title>
<path fill="none" stroke="#191970" d="M1484.0602,-352.9723C1532.6698,-342.6797 1612.3395,-325.7688 1681,-311 1682.2584,-310.7293 1683.5361,-310.4541 1684.8259,-310.1759"/>
<polygon fill="#191970" stroke="#191970" points="1685.7991,-313.5464 1694.8333,-308.0115 1684.3194,-306.7046 1685.7991,-313.5464"/>
</g>
<!-- Node53&#45;&gt;Node46 -->
<g id="edge134" class="edge">
<title>Node53&#45;&gt;Node46</title>
<path fill="none" stroke="#191970" d="M1392.6892,-352.907C1344.9536,-340.0765 1274.192,-311.9856 1250,-255 1244.616,-242.3177 1241.579,-234.9048 1250,-224 1264.1771,-205.6413 1320.0304,-193.2059 1365.0655,-185.9406"/>
<polygon fill="#191970" stroke="#191970" points="1365.7334,-189.3788 1375.0752,-184.3806 1364.6554,-182.4623 1365.7334,-189.3788"/>
</g>
<!-- Node53&#45;&gt;Node47 -->
<g id="edge128" class="edge">
<title>Node53&#45;&gt;Node47</title>
<path fill="none" stroke="#191970" d="M1486.7705,-358.8552C1565.8715,-352.1898 1720.0903,-336.3442 1768,-311 1791.7257,-298.4491 1811.6566,-274.2089 1823.4578,-257.4559"/>
<polygon fill="#191970" stroke="#191970" points="1826.4462,-259.2849 1829.1501,-249.0409 1820.6481,-255.3628 1826.4462,-259.2849"/>
</g>
<!-- Node53&#45;&gt;Node48 -->
<g id="edge136" class="edge">
<title>Node53&#45;&gt;Node48</title>
<path fill="none" stroke="#191970" d="M1486.6727,-358.0952C1555.3999,-351.1839 1686.035,-335.9437 1795,-311 1863.8501,-295.2392 1941.964,-268.4737 1985.9735,-252.5434"/>
<polygon fill="#191970" stroke="#191970" points="1987.4199,-255.7415 1995.6165,-249.0284 1985.0225,-249.1649 1987.4199,-255.7415"/>
</g>
<!-- Node54 -->
<g id="node55" class="node">
<title>Node54</title>
<polygon fill="none" stroke="#bfbfbf" points="1335,-291.5 1335,-310.5 1373,-310.5 1373,-291.5 1335,-291.5"/>
<text text-anchor="middle" x="1354" y="-298.5" font-family="Helvetica,sans-Serif" font-size="10.00" fill="#000000">map</text>
</g>
<!-- Node53&#45;&gt;Node54 -->
<g id="edge129" class="edge">
<title>Node53&#45;&gt;Node54</title>
<path fill="none" stroke="#191970" d="M1425.7188,-352.8906C1412.2452,-343.1421 1391.178,-327.8994 1375.3565,-316.4521"/>
<polygon fill="#191970" stroke="#191970" points="1377.3414,-313.5682 1367.188,-310.5419 1373.2381,-319.2394 1377.3414,-313.5682"/>
</g>
<!-- Node55&#45;&gt;Node3 -->
<g id="edge142" class="edge">
<title>Node55&#45;&gt;Node3</title>
<path fill="none" stroke="#191970" d="M2357.9486,-352.9435C2349.3012,-350.6276 2339.8513,-348.4143 2331,-347 2047.4837,-301.6978 1971.9052,-337.3052 1686,-311 1491.4521,-293.1003 1443.5709,-281.4497 1250,-255 1224.8629,-251.5652 1196.4417,-247.4366 1175.2116,-244.3043"/>
<polygon fill="#191970" stroke="#191970" points="1175.5223,-240.8122 1165.1175,-242.8101 1174.4972,-247.7367 1175.5223,-240.8122"/>
</g>
<!-- Node55&#45;&gt;Node10 -->
<g id="edge140" class="edge">
<title>Node55&#45;&gt;Node10</title>
<path fill="none" stroke="#191970" d="M2437.5392,-361.5187C2558.348,-358.5442 2869.7132,-347.4651 2966,-311 3005.2375,-296.1402 3023.0774,-292.4477 3042,-255 3070.7335,-198.1366 3074.893,-159.1089 3032,-112 3015.7837,-94.1898 2954.2484,-80.58 2910.8481,-72.9363"/>
<polygon fill="#191970" stroke="#191970" points="2911.2398,-69.4525 2900.7924,-71.2138 2910.058,-76.352 2911.2398,-69.4525"/>
</g>
<!-- Node55&#45;&gt;Node34 -->
<g id="edge141" class="edge">
<title>Node55&#45;&gt;Node34</title>
<path fill="none" stroke="#191970" d="M2437.638,-361.1953C2563.5815,-357.3759 2897.8356,-344.3123 3003,-311 3106.1149,-278.3369 3151.9124,-277.2629 3213,-188 3232.2098,-159.9301 3241.5661,-139.8228 3222,-112 3211.5672,-97.1647 3167.5689,-83.5708 3134.0424,-75.0699"/>
<polygon fill="#191970" stroke="#191970" points="3134.5697,-71.5952 3124.0226,-72.5995 3132.894,-78.3917 3134.5697,-71.5952"/>
</g>
<!-- Node55&#45;&gt;Node38 -->
<g id="edge143" class="edge">
<title>Node55&#45;&gt;Node38</title>
<path fill="none" stroke="#191970" d="M2385.0674,-352.8786C2374.979,-329.0173 2346.2602,-266.0147 2308,-224 2279.2664,-192.4467 2268.0324,-187.359 2230,-168 2184.533,-144.8566 2160.911,-163.7801 2121,-132 2105.6496,-119.7769 2094.7714,-99.9386 2088.2724,-85.1986"/>
<polygon fill="#191970" stroke="#191970" points="2091.3469,-83.4712 2084.3127,-75.5484 2084.8708,-86.1285 2091.3469,-83.4712"/>
</g>
<!-- Node55&#45;&gt;Node40 -->
<g id="edge139" class="edge">
<title>Node55&#45;&gt;Node40</title>
<path fill="none" stroke="#191970" d="M2437.8175,-361.5116C2634.7197,-356.8903 3360,-333.4889 3360,-239.5 3360,-239.5 3360,-239.5 3360,-122 3360,-85.1826 3335.2325,-48.2377 3318.3499,-27.3313"/>
<polygon fill="#191970" stroke="#191970" points="3321.0131,-25.06 3311.9063,-19.6456 3315.6489,-29.5574 3321.0131,-25.06"/>
</g>
<!-- Node55&#45;&gt;Node45 -->
<g id="edge144" class="edge">
<title>Node55&#45;&gt;Node45</title>
<path fill="none" stroke="#191970" d="M2353.7649,-352.9304C2346.2602,-350.9352 2338.375,-348.8709 2331,-347 2246.1554,-325.4765 2026.912,-292.8784 1948,-255 1927.7233,-245.267 1927.4681,-235.2636 1908,-224 1884.7015,-210.5203 1856.6885,-199.0165 1834.5066,-190.8845"/>
<polygon fill="#191970" stroke="#191970" points="1835.6708,-187.5838 1825.0763,-187.5004 1833.3064,-194.1725 1835.6708,-187.5838"/>
</g>
<!-- Node55&#45;&gt;Node48 -->
<g id="edge146" class="edge">
<title>Node55&#45;&gt;Node48</title>
<path fill="none" stroke="#191970" d="M2370.104,-352.9488C2331.8263,-333.6058 2248.5989,-291.5751 2247,-291 2216.5467,-280.0471 2135.1468,-262.5278 2078.8405,-251.017"/>
<polygon fill="#191970" stroke="#191970" points="2079.4834,-247.5761 2068.9862,-249.0113 2078.0872,-254.4355 2079.4834,-247.5761"/>
</g>
<!-- Node55&#45;&gt;Node50 -->
<g id="edge138" class="edge">
<title>Node55&#45;&gt;Node50</title>
<path fill="none" stroke="#191970" d="M2399.625,-352.8906C2410.0431,-343.4683 2426.1364,-328.9134 2438.6304,-317.6137"/>
<polygon fill="#191970" stroke="#191970" points="2441.1562,-320.0484 2446.2252,-310.7449 2436.4608,-314.8568 2441.1562,-320.0484"/>
</g>
<!-- Node55&#45;&gt;Node51 -->
<g id="edge147" class="edge">
<title>Node55&#45;&gt;Node51</title>
<path fill="none" stroke="#191970" d="M2376.0965,-352.7912C2357.0271,-338.5973 2320.0104,-311.6295 2287,-291 2265.4435,-277.5285 2240.163,-263.6457 2221.4051,-253.6935"/>
<polygon fill="#191970" stroke="#191970" points="2222.9847,-250.5697 2212.5057,-249.0068 2219.7229,-256.7633 2222.9847,-250.5697"/>
</g>
<!-- Node55&#45;&gt;Node52 -->
<g id="edge145" class="edge">
<title>Node55&#45;&gt;Node52</title>
<path fill="none" stroke="#191970" d="M2437.8279,-354.4662C2491.0528,-345.0195 2572.1026,-328.4073 2598,-311 2615.5116,-299.2293 2629.2107,-279.4826 2638.1422,-263.7201"/>
<polygon fill="#191970" stroke="#191970" points="2641.4311,-264.9935 2643.0787,-254.5275 2635.2641,-261.6817 2641.4311,-264.9935"/>
</g>
<!-- Node56&#45;&gt;Node17 -->
<g id="edge151" class="edge">
<title>Node56&#45;&gt;Node17</title>
<path fill="none" stroke="#191970" d="M1736.5509,-352.9247C1701.4074,-343.8552 1648.902,-328.9694 1605,-311 1587.337,-303.7704 1584.6988,-298.1414 1567,-291 1513.7822,-269.5268 1492.8481,-283.4324 1443,-255 1425.5204,-245.03 1427.6144,-233.7299 1410,-224 1354.5161,-193.3517 1332.9315,-205.4679 1272,-188 1191.8698,-165.0283 1171.1189,-161.0857 1093,-132 1049.6959,-115.8767 1000.8968,-94.0048 970.5443,-79.9445"/>
<polygon fill="#191970" stroke="#191970" points="971.9109,-76.7201 961.3682,-75.6712 968.9558,-83.0657 971.9109,-76.7201"/>
</g>
<!-- Node56&#45;&gt;Node20 -->
<g id="edge150" class="edge">
<title>Node56&#45;&gt;Node20</title>
<path fill="none" stroke="#191970" d="M1731.6071,-352.9108C1690.9282,-343.6776 1629.2671,-328.5539 1577,-311 1555.0915,-303.642 1550.7073,-298.932 1529,-291 1479.0945,-272.7641 1465.3358,-272.0123 1415,-255 1412.5661,-254.1774 1410.0602,-253.315 1407.5392,-252.436"/>
<polygon fill="#191970" stroke="#191970" points="1408.4578,-249.0484 1397.863,-249.0124 1406.1229,-255.6475 1408.4578,-249.0484"/>
</g>
<!-- Node56&#45;&gt;Node22 -->
<g id="edge154" class="edge">
<title>Node56&#45;&gt;Node22</title>
<path fill="none" stroke="#191970" d="M1728.4122,-353.6639C1678.4987,-344.1426 1597.8846,-328.0475 1529,-311 1441.4709,-289.3383 1419.6882,-283.073 1334,-255 1331.6088,-254.2166 1329.1506,-253.3834 1326.6807,-252.5256"/>
<polygon fill="#191970" stroke="#191970" points="1327.8077,-249.2117 1317.213,-249.1482 1325.4557,-255.8047 1327.8077,-249.2117"/>
</g>
<!-- Node56&#45;&gt;Node38 -->
<g id="edge153" class="edge">
<title>Node56&#45;&gt;Node38</title>
<path fill="none" stroke="#191970" d="M1823.8654,-359.1551C1934.3975,-350.3341 2202.0856,-322.3245 2256,-255 2264.6122,-244.2456 2263.1791,-235.7596 2256,-224 2248.9052,-212.3785 2159.1619,-174.1224 2147,-168 2114.6882,-151.7338 2093.1029,-162.7201 2074,-132 2065.3692,-118.1205 2068.4517,-99.3596 2072.917,-85.3876"/>
<polygon fill="#191970" stroke="#191970" points="2076.277,-86.3905 2076.4301,-75.7967 2069.7041,-83.9828 2076.277,-86.3905"/>
</g>
<!-- Node56&#45;&gt;Node39 -->
<g id="edge156" class="edge">
<title>Node56&#45;&gt;Node39</title>
<path fill="none" stroke="#191970" d="M1823.5338,-360.6643C2030.4823,-352.6184 2842.9922,-320.4492 2852,-311 2913.1034,-246.9021 2903.1916,-176.0137 2842,-112 2822.2027,-91.2897 2749.2773,-78.6316 2696.2573,-71.9689"/>
<polygon fill="#191970" stroke="#191970" points="2696.623,-68.4877 2686.2736,-70.7549 2695.778,-75.4365 2696.623,-68.4877"/>
</g>
<!-- Node56&#45;&gt;Node42 -->
<g id="edge149" class="edge">
<title>Node56&#45;&gt;Node42</title>
<path fill="none" stroke="#191970" d="M1768.3438,-352.8906C1761.0511,-343.7376 1749.8993,-329.7409 1741.0148,-318.59"/>
<polygon fill="#191970" stroke="#191970" points="1743.733,-316.3849 1734.7642,-310.7449 1738.2583,-320.747 1743.733,-316.3849"/>
</g>
<!-- Node56&#45;&gt;Node46 -->
<g id="edge155" class="edge">
<title>Node56&#45;&gt;Node46</title>
<path fill="none" stroke="#191970" d="M1752.7703,-352.8517C1694.9698,-328.7906 1547.8273,-267.1881 1527,-255 1496.3323,-237.0533 1464.2519,-211.1886 1444.6901,-194.4865"/>
<polygon fill="#191970" stroke="#191970" points="1446.7273,-191.6211 1436.8732,-187.7289 1442.1493,-196.9166 1446.7273,-191.6211"/>
</g>
<!-- Node56&#45;&gt;Node47 -->
<g id="edge152" class="edge">
<title>Node56&#45;&gt;Node47</title>
<path fill="none" stroke="#191970" d="M1780.8163,-352.6385C1785.868,-342.2809 1794.0271,-325.5126 1801,-311 1809.5263,-293.2542 1819.1553,-272.9832 1825.9838,-258.568"/>
<polygon fill="#191970" stroke="#191970" points="1829.2907,-259.7624 1830.4053,-249.2263 1822.9636,-256.7677 1829.2907,-259.7624"/>
</g>
<!-- Node56&#45;&gt;Node48 -->
<g id="edge157" class="edge">
<title>Node56&#45;&gt;Node48</title>
<path fill="none" stroke="#191970" d="M1795.2247,-352.8484C1838.2508,-331.2475 1942.4682,-278.9262 1992.8293,-253.6428"/>
<polygon fill="#191970" stroke="#191970" points="1994.498,-256.7215 2001.8646,-249.1068 1991.3572,-250.4656 1994.498,-256.7215"/>
</g>
<!-- Node57&#45;&gt;Node3 -->
<g id="edge163" class="edge">
<title>Node57&#45;&gt;Node3</title>
<path fill="none" stroke="#191970" d="M2225.8786,-360.5751C2074.867,-354.3561 1611.5904,-333.8745 1463,-311 1426.3506,-305.3581 1418.1286,-299.3509 1382,-291 1308.1445,-273.9288 1221.0215,-255.6126 1175.0849,-246.0964"/>
<polygon fill="#191970" stroke="#191970" points="1175.6272,-242.6346 1165.1257,-244.0375 1174.21,-249.4896 1175.6272,-242.6346"/>
</g>
<!-- Node57&#45;&gt;Node10 -->
<g id="edge161" class="edge">
<title>Node57&#45;&gt;Node10</title>
<path fill="none" stroke="#191970" d="M2304.5107,-352.9643C2313.009,-350.6486 2322.2973,-348.4301 2331,-347 2396.5744,-336.2245 2870.9603,-345.0967 2928,-311 3007.9814,-263.1895 3054.1186,-183.1943 2994,-112 2982.8856,-98.838 2942.8611,-85.7367 2910.4912,-76.9024"/>
<polygon fill="#191970" stroke="#191970" points="2911.2957,-73.4947 2900.7317,-74.3024 2909.4936,-80.2588 2911.2957,-73.4947"/>
</g>
<!-- Node57&#45;&gt;Node34 -->
<g id="edge162" class="edge">
<title>Node57&#45;&gt;Node34</title>
<path fill="none" stroke="#191970" d="M2304.5082,-352.9488C2313.0064,-350.633 2322.2953,-348.4184 2331,-347 2468.3083,-324.6266 2827.8689,-365.19 2956,-311 3048.7979,-271.7533 3081.6632,-136.5439 3090.9161,-85.6142"/>
<polygon fill="#191970" stroke="#191970" points="3094.3958,-86.0289 3092.626,-75.583 3087.4953,-84.8526 3094.3958,-86.0289"/>
</g>
<!-- Node57&#45;&gt;Node38 -->
<g id="edge164" class="edge">
<title>Node57&#45;&gt;Node38</title>
<path fill="none" stroke="#191970" d="M2278.6349,-352.9808C2289.4182,-329.3526 2313.476,-266.8399 2289,-224 2276.8431,-202.722 2216.3036,-178.1534 2194,-168 2147.9506,-147.0368 2117.1146,-171.8984 2086,-132 2075.9633,-119.1298 2075.5244,-100.225 2077.1229,-85.9432"/>
<polygon fill="#191970" stroke="#191970" points="2080.6398,-86.0995 2078.6972,-75.6843 2073.7208,-85.0377 2080.6398,-86.0995"/>
</g>
<!-- Node57&#45;&gt;Node40 -->
<g id="edge160" class="edge">
<title>Node57&#45;&gt;Node40</title>
<path fill="none" stroke="#191970" d="M2304.5082,-352.9488C2313.0064,-350.633 2322.2953,-348.4184 2331,-347 2468.3083,-324.6266 2826.9724,-363.0194 2956,-311 3113.2943,-247.5845 3248.7135,-81.8159 3290.0564,-27.5066"/>
<polygon fill="#191970" stroke="#191970" points="3292.8579,-29.6046 3296.0739,-19.5096 3287.2646,-25.3957 3292.8579,-29.6046"/>
</g>
<!-- Node57&#45;&gt;Node45 -->
<g id="edge165" class="edge">
<title>Node57&#45;&gt;Node45</title>
<path fill="none" stroke="#191970" d="M2225.9357,-353.4475C2155.2325,-338.9671 2020.1966,-306.8303 1915,-255 1893.8662,-244.5874 1891.6491,-236.999 1872,-224 1855.4891,-213.0771 1836.4286,-201.5431 1821.5262,-192.7569"/>
<polygon fill="#191970" stroke="#191970" points="1823.2424,-189.7059 1812.8447,-187.6714 1819.7042,-195.7459 1823.2424,-189.7059"/>
</g>
<!-- Node57&#45;&gt;Node48 -->
<g id="edge167" class="edge">
<title>Node57&#45;&gt;Node48</title>
<path fill="none" stroke="#191970" d="M2254.1475,-352.8484C2209.6241,-331.2026 2101.6484,-278.7085 2049.7669,-253.4855"/>
<polygon fill="#191970" stroke="#191970" points="2051.2841,-250.3314 2040.7603,-249.1068 2048.2234,-256.6269 2051.2841,-250.3314"/>
</g>
<!-- Node57&#45;&gt;Node50 -->
<g id="edge159" class="edge">
<title>Node57&#45;&gt;Node50</title>
<path fill="none" stroke="#191970" d="M2302.5938,-352.8906C2333.8845,-342.3749 2384.1986,-325.466 2418.84,-313.8243"/>
<polygon fill="#191970" stroke="#191970" points="2420.243,-317.0452 2428.607,-310.5419 2418.013,-310.4099 2420.243,-317.0452"/>
</g>
<!-- Node57&#45;&gt;Node51 -->
<g id="edge168" class="edge">
<title>Node57&#45;&gt;Node51</title>
<path fill="none" stroke="#191970" d="M2267.7225,-352.8484C2254.4034,-332.3703 2223.1265,-284.282 2205.8999,-257.7962"/>
<polygon fill="#191970" stroke="#191970" points="2208.6346,-255.5814 2200.2483,-249.1068 2202.7666,-259.398 2208.6346,-255.5814"/>
</g>
<!-- Node57&#45;&gt;Node52 -->
<g id="edge166" class="edge">
<title>Node57&#45;&gt;Node52</title>
<path fill="none" stroke="#191970" d="M2307.9809,-352.9344C2315.5389,-350.8977 2323.526,-348.8156 2331,-347 2405.2038,-328.9746 2426.6764,-335.5032 2499,-311 2539.9544,-297.1246 2584.4168,-275.1628 2614.4133,-259.2379"/>
<polygon fill="#191970" stroke="#191970" points="2616.0797,-262.3158 2623.2382,-254.5051 2612.7713,-256.1469 2616.0797,-262.3158"/>
</g>
</g>
</svg>
        <g id="navigator" transform="translate(0 0)" fill="#404254">
                <rect fill="#f2f5e9" fill-opacity="0.5" stroke="#606060" stroke-width=".5" x="0" y="0" width="60" height="60"/>
                <use id="zoomplus" xlink:href="#zoomPlus" x="17" y="9" onmousedown="handleZoom(evt,'in')"/>
                <use id="zoomminus" xlink:href="#zoomMin" x="42" y="9" onmousedown="handleZoom(evt,'out')"/>
                <use id="reset" xlink:href="#resetDef" x="30" y="36" onmousedown="handleReset()"/>
                <g id="arrowUp" xlink:href="#dirArrow" transform="translate(30 24)" onmousedown="handlePan(0,-1)">
                  <use xlink:href="#rim" fill="#404040">
                        <set attributeName="fill" to="#808080" begin="arrowUp.mouseover" end="arrowUp.mouseout"/>
                  </use>
                  <path fill="none" stroke="white" stroke-width="1.5" d="M0,-3.0v7 M-2.5,-0.5L0,-3.0L2.5,-0.5"/>
                </g>
                <g id="arrowRight" xlink:href="#dirArrow" transform="rotate(90) translate(36 -43)" onmousedown="handlePan(1,0)">
                  <use xlink:href="#rim" fill="#404040">
                        <set attributeName="fill" to="#808080" begin="arrowRight.mouseover" end="arrowRight.mouseout"/>
                  </use>
                  <path fill="none" stroke="white" stroke-width="1.5" d="M0,-3.0v7 M-2.5,-0.5L0,-3.0L2.5,-0.5"/>
                </g>
                <g id="arrowDown" xlink:href="#dirArrow" transform="rotate(180) translate(-30 -48)" onmousedown="handlePan(0,1)">
                  <use xlink:href="#rim" fill="#404040">
                        <set attributeName="fill" to="#808080" begin="arrowDown.mouseover" end="arrowDown.mouseout"/>
                  </use>
                  <path fill="none" stroke="white" stroke-width="1.5" d="M0,-3.0v7 M-2.5,-0.5L0,-3.0L2.5,-0.5"/>
                </g>
                <g id="arrowLeft" xlink:href="#dirArrow" transform="rotate(270) translate(-36 17)" onmousedown="handlePan(-1,0)">
                  <use xlink:href="#rim" fill="#404040">
                        <set attributeName="fill" to="#808080" begin="arrowLeft.mouseover" end="arrowLeft.mouseout"/>
                  </use>
                  <path fill="none" stroke="white" stroke-width="1.5" d="M0,-3.0v7 M-2.5,-0.5L0,-3.0L2.5,-0.5"/>
                </g>
        </g>
        <svg viewBox="0 0 15 15" width="100%" height="30px" preserveAspectRatio="xMaxYMin meet">
         <g id="arrow_out" transform="scale(0.3 0.3)">
          <a xlink:href="CTFCoderBase_8cxx__incl_org.svg" target="_base">
           <rect id="button" ry="5" rx="5" y="6" x="6" height="38" width="38"
                fill="#f2f5e9" fill-opacity="0.5" stroke="#606060" stroke-width="1.0"/>
           <path id="arrow"
             d="M 11.500037,31.436501 C 11.940474,20.09759 22.043105,11.32322 32.158766,21.979434 L 37.068811,17.246167 C 37.068811,17.246167 37.088388,32 37.088388,32 L 22.160133,31.978069 C 22.160133,31.978069 26.997745,27.140456 26.997745,27.140456 C 18.528582,18.264221 13.291696,25.230495 11.500037,31.436501 z"
             style="fill:#404040;"/>
          </a>
         </g>
        </svg>
</svg>
