<?xml version="1.0" encoding="UTF-8" standalone="no"?>
<!DOCTYPE svg PUBLIC "-//W3C//DTD SVG 1.1//EN"
 "http://www.w3.org/Graphics/SVG/1.1/DTD/svg11.dtd">
<!-- Generated by graphviz version 2.40.1 (20161225.0304)
 -->
<!-- Title: /home/travis/build/AliceO2Group/AliceO2/Common/MathUtils/src/MathBase.cxx Pages: 1 -->
<svg width="1593pt" height="229pt"
 viewBox="0.00 0.00 1593.00 229.00" xmlns="http://www.w3.org/2000/svg" xmlns:xlink="http://www.w3.org/1999/xlink">
<g id="graph0" class="graph" transform="scale(1 1) rotate(0) translate(4 225)">
<title>/home/travis/build/AliceO2Group/AliceO2/Common/MathUtils/src/MathBase.cxx</title>
<!-- Node0 -->
<g id="node1" class="node">
<title>Node0</title>
<polygon fill="#bfbfbf" stroke="#000000" points="614,-168.5 614,-220.5 745,-220.5 745,-168.5 614,-168.5"/>
<text text-anchor="start" x="622" y="-208.5" font-family="Helvetica,sans-Serif" font-size="10.00" fill="#000000">/home/travis/build</text>
<text text-anchor="start" x="622" y="-197.5" font-family="Helvetica,sans-Serif" font-size="10.00" fill="#000000">/AliceO2Group/AliceO2</text>
<text text-anchor="start" x="622" y="-186.5" font-family="Helvetica,sans-Serif" font-size="10.00" fill="#000000">/Common/MathUtils/src</text>
<text text-anchor="middle" x="679.5" y="-175.5" font-family="Helvetica,sans-Serif" font-size="10.00" fill="#000000">/MathBase.cxx</text>
</g>
<!-- Node1 -->
<g id="node2" class="node">
<title>Node1</title>
<g id="a_node2"><a xlink:href="../../df/d72/MathBase_8h.html" target="_top" xlink:title="MathUtils/MathBase.h">
<polygon fill="none" stroke="#000000" points="618,-112.5 618,-131.5 741,-131.5 741,-112.5 618,-112.5"/>
<text text-anchor="middle" x="679.5" y="-119.5" font-family="Helvetica,sans-Serif" font-size="10.00" fill="#000000">MathUtils/MathBase.h</text>
</a>
</g>
</g>
<!-- Node0&#45;&gt;Node1 -->
<g id="edge1" class="edge">
<title>Node0&#45;&gt;Node1</title>
<path fill="none" stroke="#191970" d="M679.5,-168.3258C679.5,-159.5142 679.5,-149.8397 679.5,-141.621"/>
<polygon fill="#191970" stroke="#191970" points="683.0001,-141.534 679.5,-131.534 676.0001,-141.534 683.0001,-141.534"/>
</g>
<!-- Node2 -->
<g id="node3" class="node">
<title>Node2</title>
<polygon fill="none" stroke="#bfbfbf" points="0,-56.5 0,-75.5 47,-75.5 47,-56.5 0,-56.5"/>
<text text-anchor="middle" x="23.5" y="-63.5" font-family="Helvetica,sans-Serif" font-size="10.00" fill="#000000">cmath</text>
</g>
<!-- Node1&#45;&gt;Node2 -->
<g id="edge2" class="edge">
<title>Node1&#45;&gt;Node2</title>
<path fill="none" stroke="#191970" d="M617.9072,-119.1834C486.2966,-112.8907 180.3314,-96.7314 57.0909,-75.6357"/>
<polygon fill="#191970" stroke="#191970" points="57.6,-72.1712 47.1382,-73.845 56.3604,-79.0606 57.6,-72.1712"/>
</g>
<!-- Node3 -->
<g id="node4" class="node">
<title>Node3</title>
<polygon fill="none" stroke="#bfbfbf" points="65.5,-56.5 65.5,-75.5 121.5,-75.5 121.5,-56.5 65.5,-56.5"/>
<text text-anchor="middle" x="93.5" y="-63.5" font-family="Helvetica,sans-Serif" font-size="10.00" fill="#000000">numeric</text>
</g>
<!-- Node1&#45;&gt;Node3 -->
<g id="edge3" class="edge">
<title>Node1&#45;&gt;Node3</title>
<path fill="none" stroke="#191970" d="M617.6964,-120.449C517.4178,-117.1382 313.0432,-107.0909 131.6518,-75.9161"/>
<polygon fill="#191970" stroke="#191970" points="132.1165,-72.4444 121.6638,-74.1738 130.9136,-79.3403 132.1165,-72.4444"/>
</g>
<!-- Node4 -->
<g id="node5" class="node">
<title>Node4</title>
<polygon fill="none" stroke="#bfbfbf" points="139.5,-56.5 139.5,-75.5 203.5,-75.5 203.5,-56.5 139.5,-56.5"/>
<text text-anchor="middle" x="171.5" y="-63.5" font-family="Helvetica,sans-Serif" font-size="10.00" fill="#000000">algorithm</text>
</g>
<!-- Node1&#45;&gt;Node4 -->
<g id="edge4" class="edge">
<title>Node1&#45;&gt;Node4</title>
<path fill="none" stroke="#191970" d="M617.7121,-118.5709C528.1422,-112.9965 357.2182,-100.0889 213.5,-76 213.3984,-75.983 213.2966,-75.9658 213.1947,-75.9486"/>
<polygon fill="#191970" stroke="#191970" points="213.9924,-72.5378 203.5124,-74.0937 212.6752,-79.4128 213.9924,-72.5378"/>
</g>
<!-- Node5 -->
<g id="node6" class="node">
<title>Node5</title>
<polygon fill="none" stroke="#bfbfbf" points="222,-56.5 222,-75.5 269,-75.5 269,-56.5 222,-56.5"/>
<text text-anchor="middle" x="245.5" y="-63.5" font-family="Helvetica,sans-Serif" font-size="10.00" fill="#000000">vector</text>
</g>
<!-- Node1&#45;&gt;Node5 -->
<g id="edge5" class="edge">
<title>Node1&#45;&gt;Node5</title>
<path fill="none" stroke="#191970" d="M617.8119,-118.3825C540.6931,-113.0931 404.6229,-101.2334 279.3167,-75.8216"/>
<polygon fill="#191970" stroke="#191970" points="279.6623,-72.3193 269.1614,-73.7271 278.2483,-79.175 279.6623,-72.3193"/>
</g>
<!-- Node6 -->
<g id="node7" class="node">
<title>Node6</title>
<polygon fill="none" stroke="#bfbfbf" points="287.5,-56.5 287.5,-75.5 329.5,-75.5 329.5,-56.5 287.5,-56.5"/>
<text text-anchor="middle" x="308.5" y="-63.5" font-family="Helvetica,sans-Serif" font-size="10.00" fill="#000000">array</text>
</g>
<!-- Node1&#45;&gt;Node6 -->
<g id="edge6" class="edge">
<title>Node1&#45;&gt;Node6</title>
<path fill="none" stroke="#191970" d="M617.8014,-116.9728C549.2261,-110.6188 435.4891,-97.7938 339.5,-76 339.4,-75.9773 339.3,-75.9544 339.1997,-75.9314"/>
<polygon fill="#191970" stroke="#191970" points="340.2722,-72.5953 329.7072,-73.3894 338.4615,-79.3571 340.2722,-72.5953"/>
</g>
<!-- Node7 -->
<g id="node8" class="node">
<title>Node7</title>
<polygon fill="none" stroke="#bfbfbf" points="348,-56.5 348,-75.5 407,-75.5 407,-56.5 348,-56.5"/>
<text text-anchor="middle" x="377.5" y="-63.5" font-family="Helvetica,sans-Serif" font-size="10.00" fill="#000000">Rtypes.h</text>
</g>
<!-- Node1&#45;&gt;Node7 -->
<g id="edge7" class="edge">
<title>Node1&#45;&gt;Node7</title>
<path fill="none" stroke="#191970" d="M617.8601,-112.61C566.6911,-104.4982 491.8098,-91.8978 417.2873,-76.0391"/>
<polygon fill="#191970" stroke="#191970" points="417.7661,-72.5621 407.254,-73.8834 416.2956,-79.406 417.7661,-72.5621"/>
</g>
<!-- Node8 -->
<g id="node9" class="node">
<title>Node8</title>
<polygon fill="none" stroke="#bfbfbf" points="425.5,-56.5 425.5,-75.5 511.5,-75.5 511.5,-56.5 425.5,-56.5"/>
<text text-anchor="middle" x="468.5" y="-63.5" font-family="Helvetica,sans-Serif" font-size="10.00" fill="#000000">TLinearFitter.h</text>
</g>
<!-- Node1&#45;&gt;Node8 -->
<g id="edge8" class="edge">
<title>Node1&#45;&gt;Node8</title>
<path fill="none" stroke="#191970" d="M643.2278,-112.3733C607.5342,-102.9001 552.9121,-88.4032 514.2549,-78.1435"/>
<polygon fill="#191970" stroke="#191970" points="514.8621,-74.6835 504.2989,-75.5011 513.0664,-81.4493 514.8621,-74.6835"/>
</g>
<!-- Node9 -->
<g id="node10" class="node">
<title>Node9</title>
<polygon fill="none" stroke="#bfbfbf" points="529.5,-56.5 529.5,-75.5 599.5,-75.5 599.5,-56.5 529.5,-56.5"/>
<text text-anchor="middle" x="564.5" y="-63.5" font-family="Helvetica,sans-Serif" font-size="10.00" fill="#000000">TVectorD.h</text>
</g>
<!-- Node1&#45;&gt;Node9 -->
<g id="edge9" class="edge">
<title>Node1&#45;&gt;Node9</title>
<path fill="none" stroke="#191970" d="M659.7308,-112.3733C641.3531,-103.4241 613.7688,-89.9917 593.0107,-79.8835"/>
<polygon fill="#191970" stroke="#191970" points="594.5343,-76.7325 584.0112,-75.5011 591.4696,-83.026 594.5343,-76.7325"/>
</g>
<!-- Node10 -->
<g id="node11" class="node">
<title>Node10</title>
<polygon fill="none" stroke="#bfbfbf" points="617.5,-56.5 617.5,-75.5 673.5,-75.5 673.5,-56.5 617.5,-56.5"/>
<text text-anchor="middle" x="645.5" y="-63.5" font-family="Helvetica,sans-Serif" font-size="10.00" fill="#000000">TMath.h</text>
</g>
<!-- Node1&#45;&gt;Node10 -->
<g id="edge10" class="edge">
<title>Node1&#45;&gt;Node10</title>
<path fill="none" stroke="#191970" d="M673.5777,-112.2455C668.8973,-104.5367 662.2327,-93.5598 656.5711,-84.2348"/>
<polygon fill="#191970" stroke="#191970" points="659.5361,-82.3741 651.3545,-75.6427 653.5525,-86.007 659.5361,-82.3741"/>
</g>
<!-- Node11 -->
<g id="node12" class="node">
<title>Node11</title>
<polygon fill="none" stroke="#bfbfbf" points="692,-56.5 692,-75.5 735,-75.5 735,-56.5 692,-56.5"/>
<text text-anchor="middle" x="713.5" y="-63.5" font-family="Helvetica,sans-Serif" font-size="10.00" fill="#000000">TF1.h</text>
</g>
<!-- Node1&#45;&gt;Node11 -->
<g id="edge11" class="edge">
<title>Node1&#45;&gt;Node11</title>
<path fill="none" stroke="#191970" d="M685.4223,-112.2455C690.1027,-104.5367 696.7673,-93.5598 702.4289,-84.2348"/>
<polygon fill="#191970" stroke="#191970" points="705.4475,-86.007 707.6455,-75.6427 699.4639,-82.3741 705.4475,-86.007"/>
</g>
<!-- Node12 -->
<g id="node13" class="node">
<title>Node12</title>
<polygon fill="none" stroke="#bfbfbf" points="753.5,-56.5 753.5,-75.5 815.5,-75.5 815.5,-56.5 753.5,-56.5"/>
<text text-anchor="middle" x="784.5" y="-63.5" font-family="Helvetica,sans-Serif" font-size="10.00" fill="#000000">Foption.h</text>
</g>
<!-- Node1&#45;&gt;Node12 -->
<g id="edge12" class="edge">
<title>Node1&#45;&gt;Node12</title>
<path fill="none" stroke="#191970" d="M697.7896,-112.2455C714.2762,-103.4527 738.7352,-90.4079 757.4765,-80.4125"/>
<polygon fill="#191970" stroke="#191970" points="759.2435,-83.4368 766.42,-75.6427 755.9494,-77.2604 759.2435,-83.4368"/>
</g>
<!-- Node13 -->
<g id="node14" class="node">
<title>Node13</title>
<polygon fill="none" stroke="#bfbfbf" points="833.5,-56.5 833.5,-75.5 921.5,-75.5 921.5,-56.5 833.5,-56.5"/>
<text text-anchor="middle" x="877.5" y="-63.5" font-family="Helvetica,sans-Serif" font-size="10.00" fill="#000000">HFitInterface.h</text>
</g>
<!-- Node1&#45;&gt;Node13 -->
<g id="edge13" class="edge">
<title>Node1&#45;&gt;Node13</title>
<path fill="none" stroke="#191970" d="M713.5374,-112.3733C746.8894,-102.9404 797.8527,-88.5265 834.1002,-78.2747"/>
<polygon fill="#191970" stroke="#191970" points="835.2368,-81.5906 843.9067,-75.5011 833.3316,-74.8548 835.2368,-81.5906"/>
</g>
<!-- Node14 -->
<g id="node15" class="node">
<title>Node14</title>
<polygon fill="none" stroke="#bfbfbf" points="939.5,-56.5 939.5,-75.5 1025.5,-75.5 1025.5,-56.5 939.5,-56.5"/>
<text text-anchor="middle" x="982.5" y="-63.5" font-family="Helvetica,sans-Serif" font-size="10.00" fill="#000000">TFitResultPtr.h</text>
</g>
<!-- Node1&#45;&gt;Node14 -->
<g id="edge14" class="edge">
<title>Node1&#45;&gt;Node14</title>
<path fill="none" stroke="#191970" d="M732.4096,-112.4419C781.0402,-103.6255 855.4104,-90.0641 929.4123,-76.1931"/>
<polygon fill="#191970" stroke="#191970" points="930.1925,-79.6078 939.3753,-74.3233 928.9013,-72.7279 930.1925,-79.6078"/>
</g>
<!-- Node15 -->
<g id="node16" class="node">
<title>Node15</title>
<polygon fill="none" stroke="#bfbfbf" points="1044,-56.5 1044,-75.5 1117,-75.5 1117,-56.5 1044,-56.5"/>
<text text-anchor="middle" x="1080.5" y="-63.5" font-family="Helvetica,sans-Serif" font-size="10.00" fill="#000000">TFitResult.h</text>
</g>
<!-- Node1&#45;&gt;Node15 -->
<g id="edge15" class="edge">
<title>Node1&#45;&gt;Node15</title>
<path fill="none" stroke="#191970" d="M741.3069,-115.6073C810.1736,-108.1217 925.0205,-94.5607 1033.7347,-76.0042"/>
<polygon fill="#191970" stroke="#191970" points="1034.6371,-79.4003 1043.8968,-74.2517 1033.4475,-72.5021 1034.6371,-79.4003"/>
</g>
<!-- Node16 -->
<g id="node17" class="node">
<title>Node16</title>
<polygon fill="none" stroke="#bfbfbf" points="1135.5,-56.5 1135.5,-75.5 1199.5,-75.5 1199.5,-56.5 1135.5,-56.5"/>
<text text-anchor="middle" x="1167.5" y="-63.5" font-family="Helvetica,sans-Serif" font-size="10.00" fill="#000000">Fit/Fitter.h</text>
</g>
<!-- Node1&#45;&gt;Node16 -->
<g id="edge16" class="edge">
<title>Node1&#45;&gt;Node16</title>
<path fill="none" stroke="#191970" d="M741.3228,-118.3195C825.8894,-112.6915 982.4841,-100.1546 1125.1141,-76.0361"/>
<polygon fill="#191970" stroke="#191970" points="1126.0936,-79.4193 1135.3581,-74.2794 1124.9104,-72.52 1126.0936,-79.4193"/>
</g>
<!-- Node17 -->
<g id="node18" class="node">
<title>Node17</title>
<polygon fill="none" stroke="#bfbfbf" points="1218,-56.5 1218,-75.5 1297,-75.5 1297,-56.5 1218,-56.5"/>
<text text-anchor="middle" x="1257.5" y="-63.5" font-family="Helvetica,sans-Serif" font-size="10.00" fill="#000000">Fit/BinData.h</text>
</g>
<!-- Node1&#45;&gt;Node17 -->
<g id="edge17" class="edge">
<title>Node1&#45;&gt;Node17</title>
<path fill="none" stroke="#191970" d="M741.2573,-118.9304C838.4124,-113.5949 1033.0116,-100.8633 1208.0803,-75.8975"/>
<polygon fill="#191970" stroke="#191970" points="1208.59,-79.3603 1217.9878,-74.4684 1207.5905,-72.432 1208.59,-79.3603"/>
</g>
<!-- Node18 -->
<g id="node19" class="node">
<title>Node18</title>
<polygon fill="none" stroke="#bfbfbf" points="1315,-56.5 1315,-75.5 1452,-75.5 1452,-56.5 1315,-56.5"/>
<text text-anchor="middle" x="1383.5" y="-63.5" font-family="Helvetica,sans-Serif" font-size="10.00" fill="#000000">Math/WrappedMultiTF1.h</text>
</g>
<!-- Node1&#45;&gt;Node18 -->
<g id="edge18" class="edge">
<title>Node1&#45;&gt;Node18</title>
<path fill="none" stroke="#191970" d="M741.008,-118.632C851.6903,-112.3207 1091.9783,-97.4775 1304.5731,-76.1524"/>
<polygon fill="#191970" stroke="#191970" points="1305.0775,-79.6194 1314.6751,-75.1321 1304.374,-72.6548 1305.0775,-79.6194"/>
</g>
<!-- Node19 -->
<g id="node20" class="node">
<title>Node19</title>
<g id="a_node20"><a xlink:href="../../dd/da4/Logger_8h.html" target="_top" xlink:title="Framework/Logger.h">
<polygon fill="none" stroke="#000000" points="1470,-56.5 1470,-75.5 1585,-75.5 1585,-56.5 1470,-56.5"/>
<text text-anchor="middle" x="1527.5" y="-63.5" font-family="Helvetica,sans-Serif" font-size="10.00" fill="#000000">Framework/Logger.h</text>
</a>
</g>
</g>
<!-- Node1&#45;&gt;Node19 -->
<g id="edge19" class="edge">
<title>Node1&#45;&gt;Node19</title>
<path fill="none" stroke="#191970" d="M741.2441,-120.2911C871.9551,-116.2565 1186.4009,-104.3476 1459.8292,-76.0926"/>
<polygon fill="#191970" stroke="#191970" points="1460.364,-79.5559 1469.947,-75.0375 1459.6379,-72.5936 1460.364,-79.5559"/>
</g>
<!-- Node20 -->
<g id="node21" class="node">
<title>Node20</title>
<polygon fill="none" stroke="#bfbfbf" points="1473.5,-.5 1473.5,-19.5 1581.5,-19.5 1581.5,-.5 1473.5,-.5"/>
<text text-anchor="middle" x="1527.5" y="-7.5" font-family="Helvetica,sans-Serif" font-size="10.00" fill="#000000">fairlogger/Logger.h</text>
</g>
<!-- Node19&#45;&gt;Node20 -->
<g id="edge20" class="edge">
<title>Node19&#45;&gt;Node20</title>
<path fill="none" stroke="#191970" d="M1527.5,-56.2455C1527.5,-48.9382 1527.5,-38.6944 1527.5,-29.7046"/>
<polygon fill="#191970" stroke="#191970" points="1531.0001,-29.6426 1527.5,-19.6427 1524.0001,-29.6427 1531.0001,-29.6426"/>
</g>
</g>
</svg>
