<?xml version="1.0" encoding="UTF-8" standalone="no"?>
<!DOCTYPE svg PUBLIC "-//W3C//DTD SVG 1.1//EN"
 "http://www.w3.org/Graphics/SVG/1.1/DTD/svg11.dtd">
<!-- Generated by graphviz version 2.40.1 (20161225.0304)
 -->
<!-- Title: /home/travis/build/AliceO2Group/AliceO2/Framework/Core/src/DriverInfo.h Pages: 1 -->
<!--zoomable 296 -->
<svg id="main" version="1.1" xmlns="http://www.w3.org/2000/svg" xmlns:xlink="http://www.w3.org/1999/xlink" xml:space="preserve" onload="init(evt)">
<style type="text/css"><![CDATA[
.edge:hover path { stroke: red; }
.edge:hover polygon { stroke: red; fill: red; }
]]></style>
<script type="text/javascript"><![CDATA[
var edges = document.getElementsByTagName('g');
if (edges && edges.length) {
  for (var i=0;i<edges.length;i++) {
    if (edges[i].id.substr(0,4)=='edge') {
      edges[i].setAttribute('class','edge');
    }
  }
}
]]></script>
        <defs>
                <circle id="rim" cx="0" cy="0" r="7"/>
                <circle id="rim2" cx="0" cy="0" r="3.5"/>
                <g id="zoomPlus">
                        <use xlink:href="#rim" fill="#404040">
                                <set attributeName="fill" to="#808080" begin="zoomplus.mouseover" end="zoomplus.mouseout"/>
                        </use>
                        <path d="M-4,0h8M0,-4v8" fill="none" stroke="white" stroke-width="1.5" pointer-events="none"/>
                </g>
                <g id="zoomMin">
                        <use xlink:href="#rim" fill="#404040">
                                <set attributeName="fill" to="#808080" begin="zoomminus.mouseover" end="zoomminus.mouseout"/>
                        </use>
                        <path d="M-4,0h8" fill="none" stroke="white" stroke-width="1.5" pointer-events="none"/>
                </g>
                <g id="dirArrow">
                        <path fill="none" stroke="white" stroke-width="1.5" d="M0,-3.0v7 M-2.5,-0.5L0,-3.0L2.5,-0.5"/>
                </g>
               <g id="resetDef">
                       <use xlink:href="#rim2" fill="#404040">
                               <set attributeName="fill" to="#808080" begin="reset.mouseover" end="reset.mouseout"/>
                       </use>
               </g>
        </defs>

<script type="text/javascript">
var viewWidth = 1324;
var viewHeight = 296;
var sectionId = 'dynsection-0';
</script>
<script xlink:href="../../svgpan.js"/>
<svg id="graph" class="graph">
<g id="viewport">
<title>/home/travis/build/AliceO2Group/AliceO2/Framework/Core/src/DriverInfo.h</title>
<!-- Node0 -->
<g id="node1" class="node">
<title>Node0</title>
<polygon fill="#bfbfbf" stroke="#000000" points="551,-246.5 551,-287.5 728,-287.5 728,-246.5 551,-246.5"/>
<text text-anchor="start" x="559" y="-275.5" font-family="Helvetica,sans-Serif" font-size="10.00" fill="#000000">/home/travis/build</text>
<text text-anchor="start" x="559" y="-264.5" font-family="Helvetica,sans-Serif" font-size="10.00" fill="#000000">/AliceO2Group/AliceO2</text>
<text text-anchor="middle" x="639.5" y="-253.5" font-family="Helvetica,sans-Serif" font-size="10.00" fill="#000000">/Framework/Core/src/DriverInfo.h</text>
</g>
<!-- Node1 -->
<g id="node2" class="node">
<title>Node1</title>
<polygon fill="none" stroke="#bfbfbf" points="0,-185 0,-204 53,-204 53,-185 0,-185"/>
<text text-anchor="middle" x="26.5" y="-192" font-family="Helvetica,sans-Serif" font-size="10.00" fill="#000000">cstddef</text>
</g>
<!-- Node0&#45;&gt;Node1 -->
<g id="edge1" class="edge">
<title>Node0&#45;&gt;Node1</title>
<path fill="none" stroke="#191970" d="M550.7536,-261.7082C412.3194,-252.8697 151.5111,-233.7135 61.5,-210 59.1685,-209.3858 56.7948,-208.6343 54.4378,-207.7968"/>
<polygon fill="#191970" stroke="#191970" points="55.5767,-204.4825 44.9928,-204.0014 52.9666,-210.9777 55.5767,-204.4825"/>
</g>
<!-- Node2 -->
<g id="node3" class="node">
<title>Node2</title>
<polygon fill="none" stroke="#bfbfbf" points="380,-118 380,-137 427,-137 427,-118 380,-118"/>
<text text-anchor="middle" x="403.5" y="-125" font-family="Helvetica,sans-Serif" font-size="10.00" fill="#000000">vector</text>
</g>
<!-- Node0&#45;&gt;Node2 -->
<g id="edge2" class="edge">
<title>Node0&#45;&gt;Node2</title>
<path fill="none" stroke="#191970" d="M550.9684,-248.1428C522.9555,-239.4799 492.9504,-227.1844 468.5,-210 444.3626,-193.0356 424.7717,-164.5604 413.6219,-145.9009"/>
<polygon fill="#191970" stroke="#191970" points="416.6059,-144.0689 408.5814,-137.1508 410.5403,-147.563 416.6059,-144.0689"/>
</g>
<!-- Node3 -->
<g id="node4" class="node">
<title>Node3</title>
<polygon fill="none" stroke="#bfbfbf" points="834,-185 834,-204 885,-204 885,-185 834,-185"/>
<text text-anchor="middle" x="859.5" y="-192" font-family="Helvetica,sans-Serif" font-size="10.00" fill="#000000">csignal</text>
</g>
<!-- Node0&#45;&gt;Node3 -->
<g id="edge3" class="edge">
<title>Node0&#45;&gt;Node3</title>
<path fill="none" stroke="#191970" d="M707.7877,-246.4863C741.5687,-236.0569 782.8565,-222.8872 819.5,-210 821.6121,-209.2572 823.7798,-208.4751 825.9608,-207.6732"/>
<polygon fill="#191970" stroke="#191970" points="827.352,-210.8893 835.4779,-204.0909 824.886,-204.3381 827.352,-210.8893"/>
</g>
<!-- Node4 -->
<g id="node5" class="node">
<title>Node4</title>
<polygon fill="none" stroke="#bfbfbf" points="903.5,-185 903.5,-204 977.5,-204 977.5,-185 903.5,-185"/>
<text text-anchor="middle" x="940.5" y="-192" font-family="Helvetica,sans-Serif" font-size="10.00" fill="#000000">sys/select.h</text>
</g>
<!-- Node0&#45;&gt;Node4 -->
<g id="edge4" class="edge">
<title>Node0&#45;&gt;Node4</title>
<path fill="none" stroke="#191970" d="M728.2846,-249.547C777.5625,-239.2625 839.7783,-225.2898 894.5,-210 897.4879,-209.1652 900.5676,-208.2499 903.651,-207.2946"/>
<polygon fill="#191970" stroke="#191970" points="904.9568,-210.5513 913.4042,-204.1566 902.8128,-203.8877 904.9568,-210.5513"/>
</g>
<!-- Node5 -->
<g id="node6" class="node">
<title>Node5</title>
<g id="a_node6"><a xlink:href="../../dd/d0f/ChannelConfigurationPolicy_8h.html" target="_top" xlink:title="Framework/ChannelConfiguration\lPolicy.h">
<polygon fill="none" stroke="#000000" points="71,-179.5 71,-209.5 250,-209.5 250,-179.5 71,-179.5"/>
<text text-anchor="start" x="79" y="-197.5" font-family="Helvetica,sans-Serif" font-size="10.00" fill="#000000">Framework/ChannelConfiguration</text>
<text text-anchor="middle" x="160.5" y="-186.5" font-family="Helvetica,sans-Serif" font-size="10.00" fill="#000000">Policy.h</text>
</a>
</g>
</g>
<!-- Node0&#45;&gt;Node5 -->
<g id="edge5" class="edge">
<title>Node0&#45;&gt;Node5</title>
<path fill="none" stroke="#191970" d="M550.7933,-253.8584C476.0966,-242.7542 366.1345,-226.3188 260.0021,-210.0716"/>
<polygon fill="#191970" stroke="#191970" points="260.4893,-206.6055 250.0746,-208.5507 259.4292,-213.5247 260.4893,-206.6055"/>
</g>
<!-- Node10 -->
<g id="node11" class="node">
<title>Node10</title>
<g id="a_node11"><a xlink:href="../../d0/d1c/ConfigParamSpec_8h.html" target="_top" xlink:title="Framework/ConfigParamSpec.h">
<polygon fill="none" stroke="#000000" points="747,-118 747,-137 914,-137 914,-118 747,-118"/>
<text text-anchor="middle" x="830.5" y="-125" font-family="Helvetica,sans-Serif" font-size="10.00" fill="#000000">Framework/ConfigParamSpec.h</text>
</a>
</g>
</g>
<!-- Node0&#45;&gt;Node10 -->
<g id="edge13" class="edge">
<title>Node0&#45;&gt;Node10</title>
<path fill="none" stroke="#191970" d="M722.663,-246.3664C745.2124,-237.8423 768.374,-226.0708 786.5,-210 805.7914,-192.8959 818.0818,-165.2591 824.6327,-146.7428"/>
<polygon fill="#191970" stroke="#191970" points="828.0234,-147.6364 827.836,-137.0432 821.3765,-145.4412 828.0234,-147.6364"/>
</g>
<!-- Node20 -->
<g id="node21" class="node">
<title>Node20</title>
<g id="a_node21"><a xlink:href="../../d7/df1/TerminationPolicy_8h.html" target="_top" xlink:title="Framework/TerminationPolicy.h">
<polygon fill="none" stroke="#000000" points="995.5,-185 995.5,-204 1163.5,-204 1163.5,-185 995.5,-185"/>
<text text-anchor="middle" x="1079.5" y="-192" font-family="Helvetica,sans-Serif" font-size="10.00" fill="#000000">Framework/TerminationPolicy.h</text>
</a>
</g>
</g>
<!-- Node0&#45;&gt;Node20 -->
<g id="edge25" class="edge">
<title>Node0&#45;&gt;Node20</title>
<path fill="none" stroke="#191970" d="M728.2958,-252.4726C798.4085,-240.9876 898.7127,-224.5258 986.5,-210 994.8571,-208.6172 1003.6358,-207.1601 1012.3241,-205.7151"/>
<polygon fill="#191970" stroke="#191970" points="1013.1616,-209.124 1022.4513,-204.0298 1012.0124,-202.219 1013.1616,-209.124"/>
</g>
<!-- Node21 -->
<g id="node22" class="node">
<title>Node21</title>
<g id="a_node22"><a xlink:href="../../df/dd6/CompletionPolicy_8h.html" target="_top" xlink:title="Framework/CompletionPolicy.h">
<polygon fill="none" stroke="#000000" points="477,-185 477,-204 644,-204 644,-185 477,-185"/>
<text text-anchor="middle" x="560.5" y="-192" font-family="Helvetica,sans-Serif" font-size="10.00" fill="#000000">Framework/CompletionPolicy.h</text>
</a>
</g>
</g>
<!-- Node0&#45;&gt;Node21 -->
<g id="edge26" class="edge">
<title>Node0&#45;&gt;Node21</title>
<path fill="none" stroke="#191970" d="M617.0731,-246.4183C604.8862,-235.2342 590.0145,-221.5861 578.5778,-211.0904"/>
<polygon fill="#191970" stroke="#191970" points="580.6789,-208.2682 570.9447,-204.0853 575.9459,-213.4255 580.6789,-208.2682"/>
</g>
<!-- Node24 -->
<g id="node25" class="node">
<title>Node24</title>
<g id="a_node25"><a xlink:href="../../da/de6/DispatchPolicy_8h.html" target="_top" xlink:title="Framework/DispatchPolicy.h">
<polygon fill="none" stroke="#000000" points="268,-185 268,-204 421,-204 421,-185 268,-185"/>
<text text-anchor="middle" x="344.5" y="-192" font-family="Helvetica,sans-Serif" font-size="10.00" fill="#000000">Framework/DispatchPolicy.h</text>
</a>
</g>
</g>
<!-- Node0&#45;&gt;Node24 -->
<g id="edge34" class="edge">
<title>Node0&#45;&gt;Node24</title>
<path fill="none" stroke="#191970" d="M555.7539,-246.4183C503.2874,-233.524 437.4943,-217.3545 393.3961,-206.5168"/>
<polygon fill="#191970" stroke="#191970" points="394.0488,-203.0732 383.5025,-204.0853 392.3781,-209.8709 394.0488,-203.0732"/>
</g>
<!-- Node25 -->
<g id="node26" class="node">
<title>Node25</title>
<g id="a_node26"><a xlink:href="../../d3/db3/DataProcessorInfo_8h.html" target="_top" xlink:title="DataProcessorInfo.h">
<polygon fill="none" stroke="#000000" points="662,-185 662,-204 777,-204 777,-185 662,-185"/>
<text text-anchor="middle" x="719.5" y="-192" font-family="Helvetica,sans-Serif" font-size="10.00" fill="#000000">DataProcessorInfo.h</text>
</a>
</g>
</g>
<!-- Node0&#45;&gt;Node25 -->
<g id="edge38" class="edge">
<title>Node0&#45;&gt;Node25</title>
<path fill="none" stroke="#191970" d="M662.2108,-246.4183C674.5519,-235.2342 689.6119,-221.5861 701.1934,-211.0904"/>
<polygon fill="#191970" stroke="#191970" points="703.8635,-213.394 708.9231,-204.0853 699.1628,-208.2071 703.8635,-213.394"/>
</g>
<!-- Node5&#45;&gt;Node2 -->
<g id="edge11" class="edge">
<title>Node5&#45;&gt;Node2</title>
<path fill="none" stroke="#191970" d="M215.0339,-179.4639C262.6623,-166.3318 330.2563,-147.6948 370.2211,-136.6757"/>
<polygon fill="#191970" stroke="#191970" points="371.2884,-140.0121 379.9984,-133.9799 369.4277,-133.2639 371.2884,-140.0121"/>
</g>
<!-- Node6 -->
<g id="node7" class="node">
<title>Node6</title>
<g id="a_node7"><a xlink:href="../../d6/d05/ChannelConfigurationPolicyHelpers_8h.html" target="_top" xlink:title="Framework/ChannelConfiguration\lPolicyHelpers.h">
<polygon fill="none" stroke="#000000" points="68,-112.5 68,-142.5 247,-142.5 247,-112.5 68,-112.5"/>
<text text-anchor="start" x="76" y="-130.5" font-family="Helvetica,sans-Serif" font-size="10.00" fill="#000000">Framework/ChannelConfiguration</text>
<text text-anchor="middle" x="157.5" y="-119.5" font-family="Helvetica,sans-Serif" font-size="10.00" fill="#000000">PolicyHelpers.h</text>
</a>
</g>
</g>
<!-- Node5&#45;&gt;Node6 -->
<g id="edge6" class="edge">
<title>Node5&#45;&gt;Node6</title>
<path fill="none" stroke="#191970" d="M159.8193,-179.2967C159.4702,-171.5013 159.0358,-161.7991 158.6376,-152.9064"/>
<polygon fill="#191970" stroke="#191970" points="162.122,-152.4766 158.1781,-142.6432 155.129,-152.7898 162.122,-152.4766"/>
</g>
<!-- Node7 -->
<g id="node8" class="node">
<title>Node7</title>
<g id="a_node8"><a xlink:href="../../d6/d72/ChannelSpec_8h.html" target="_top" xlink:title="Framework/ChannelSpec.h">
<polygon fill="none" stroke="#000000" points="84.5,-56.5 84.5,-75.5 230.5,-75.5 230.5,-56.5 84.5,-56.5"/>
<text text-anchor="middle" x="157.5" y="-63.5" font-family="Helvetica,sans-Serif" font-size="10.00" fill="#000000">Framework/ChannelSpec.h</text>
</a>
</g>
</g>
<!-- Node5&#45;&gt;Node7 -->
<g id="edge10" class="edge">
<title>Node5&#45;&gt;Node7</title>
<path fill="none" stroke="#191970" d="M105.1504,-179.4901C87.0918,-171.6798 69.0001,-160.0641 58.5,-143 51.2795,-131.2658 51.0893,-123.615 58.5,-112 68.5203,-96.2949 85.4416,-85.8684 102.487,-78.9824"/>
<polygon fill="#191970" stroke="#191970" points="103.7496,-82.2473 111.9264,-75.51 101.3329,-75.6777 103.7496,-82.2473"/>
</g>
<!-- Node9 -->
<g id="node10" class="node">
<title>Node9</title>
<polygon fill="none" stroke="#bfbfbf" points="342,-56.5 342,-75.5 407,-75.5 407,-56.5 342,-56.5"/>
<text text-anchor="middle" x="374.5" y="-63.5" font-family="Helvetica,sans-Serif" font-size="10.00" fill="#000000">functional</text>
</g>
<!-- Node5&#45;&gt;Node9 -->
<g id="edge12" class="edge">
<title>Node5&#45;&gt;Node9</title>
<path fill="none" stroke="#191970" d="M190.2749,-179.3671C209.42,-169.4317 234.7009,-155.9274 256.5,-143 290.4918,-122.8421 328.5748,-97.4609 352.048,-81.4769"/>
<polygon fill="#191970" stroke="#191970" points="354.3009,-84.1765 360.5797,-75.6426 350.3496,-78.3984 354.3009,-84.1765"/>
</g>
<!-- Node6&#45;&gt;Node7 -->
<g id="edge7" class="edge">
<title>Node6&#45;&gt;Node7</title>
<path fill="none" stroke="#191970" d="M157.5,-112.2977C157.5,-104.3834 157.5,-94.6043 157.5,-86.0759"/>
<polygon fill="#191970" stroke="#191970" points="161.0001,-85.8469 157.5,-75.8469 154.0001,-85.847 161.0001,-85.8469"/>
</g>
<!-- Node6&#45;&gt;Node9 -->
<g id="edge9" class="edge">
<title>Node6&#45;&gt;Node9</title>
<path fill="none" stroke="#191970" d="M210.5842,-112.4554C247.9278,-101.8718 297.2435,-87.8953 331.9943,-78.0466"/>
<polygon fill="#191970" stroke="#191970" points="333.1673,-81.352 341.834,-75.2579 331.2585,-74.6173 333.1673,-81.352"/>
</g>
<!-- Node8 -->
<g id="node9" class="node">
<title>Node8</title>
<polygon fill="none" stroke="#bfbfbf" points="638.5,-.5 638.5,-19.5 682.5,-19.5 682.5,-.5 638.5,-.5"/>
<text text-anchor="middle" x="660.5" y="-7.5" font-family="Helvetica,sans-Serif" font-size="10.00" fill="#000000">string</text>
</g>
<!-- Node7&#45;&gt;Node8 -->
<g id="edge8" class="edge">
<title>Node7&#45;&gt;Node8</title>
<path fill="none" stroke="#191970" d="M230.6405,-57.8571C341.4995,-45.515 547.6153,-22.5677 627.5905,-13.6639"/>
<polygon fill="#191970" stroke="#191970" points="628.4639,-17.0884 638.0152,-12.5033 627.6893,-10.1313 628.4639,-17.0884"/>
</g>
<!-- Node10&#45;&gt;Node8 -->
<g id="edge24" class="edge">
<title>Node10&#45;&gt;Node8</title>
<path fill="none" stroke="#191970" d="M818.1536,-117.9484C799.925,-103.9503 764.6068,-77.224 733.5,-56 717.665,-45.1959 699.4201,-33.6989 685.1313,-24.9014"/>
<polygon fill="#191970" stroke="#191970" points="686.7345,-21.7791 676.378,-19.5444 683.0805,-27.7498 686.7345,-21.7791"/>
</g>
<!-- Node11 -->
<g id="node12" class="node">
<title>Node11</title>
<g id="a_node12"><a xlink:href="../../de/d56/Variant_8h.html" target="_top" xlink:title="Framework/Variant.h">
<polygon fill="none" stroke="#000000" points="864,-56.5 864,-75.5 981,-75.5 981,-56.5 864,-56.5"/>
<text text-anchor="middle" x="922.5" y="-63.5" font-family="Helvetica,sans-Serif" font-size="10.00" fill="#000000">Framework/Variant.h</text>
</a>
</g>
</g>
<!-- Node10&#45;&gt;Node11 -->
<g id="edge14" class="edge">
<title>Node10&#45;&gt;Node11</title>
<path fill="none" stroke="#191970" d="M844.875,-117.8906C859.5931,-108.0519 882.6832,-92.6167 899.8589,-81.1351"/>
<polygon fill="#191970" stroke="#191970" points="901.8575,-84.0091 908.2259,-75.5419 897.9673,-78.1896 901.8575,-84.0091"/>
</g>
<!-- Node11&#45;&gt;Node8 -->
<g id="edge23" class="edge">
<title>Node11&#45;&gt;Node8</title>
<path fill="none" stroke="#191970" d="M865.1243,-56.4759C820.4227,-48.6236 756.6689,-36.4827 692.6237,-20.0803"/>
<polygon fill="#191970" stroke="#191970" points="693.3192,-16.6449 682.7607,-17.5205 691.5607,-23.4204 693.3192,-16.6449"/>
</g>
<!-- Node12 -->
<g id="node13" class="node">
<title>Node12</title>
<polygon fill="none" stroke="#bfbfbf" points="1178,-.5 1178,-19.5 1247,-19.5 1247,-.5 1178,-.5"/>
<text text-anchor="middle" x="1212.5" y="-7.5" font-family="Helvetica,sans-Serif" font-size="10.00" fill="#000000">type_traits</text>
</g>
<!-- Node11&#45;&gt;Node12 -->
<g id="edge15" class="edge">
<title>Node11&#45;&gt;Node12</title>
<path fill="none" stroke="#191970" d="M977.5751,-56.465C1025.4697,-48.0095 1096.9724,-34.9949 1167.8073,-20.2951"/>
<polygon fill="#191970" stroke="#191970" points="1168.7218,-23.6798 1177.7955,-18.2101 1167.2912,-16.8275 1168.7218,-23.6798"/>
</g>
<!-- Node13 -->
<g id="node14" class="node">
<title>Node13</title>
<polygon fill="none" stroke="#bfbfbf" points="1265.5,-.5 1265.5,-19.5 1315.5,-19.5 1315.5,-.5 1265.5,-.5"/>
<text text-anchor="middle" x="1290.5" y="-7.5" font-family="Helvetica,sans-Serif" font-size="10.00" fill="#000000">cstring</text>
</g>
<!-- Node11&#45;&gt;Node13 -->
<g id="edge16" class="edge">
<title>Node11&#45;&gt;Node13</title>
<path fill="none" stroke="#191970" d="M981.1845,-60.5951C1046.1545,-54.0132 1154.063,-41.3116 1255.5562,-19.9445"/>
<polygon fill="#191970" stroke="#191970" points="1256.309,-23.3627 1265.3564,-17.8495 1254.8457,-16.5173 1256.309,-23.3627"/>
</g>
<!-- Node14 -->
<g id="node15" class="node">
<title>Node14</title>
<polygon fill="none" stroke="#bfbfbf" points="700.5,-.5 700.5,-19.5 750.5,-19.5 750.5,-.5 700.5,-.5"/>
<text text-anchor="middle" x="725.5" y="-7.5" font-family="Helvetica,sans-Serif" font-size="10.00" fill="#000000">cstdint</text>
</g>
<!-- Node11&#45;&gt;Node14 -->
<g id="edge17" class="edge">
<title>Node11&#45;&gt;Node14</title>
<path fill="none" stroke="#191970" d="M888.6753,-56.4128C855.8991,-47.1187 804.7866,-32.6143 760.5,-20 760.4012,-19.9719 760.3023,-19.9437 760.2032,-19.9155"/>
<polygon fill="#191970" stroke="#191970" points="761.3101,-16.5916 750.7336,-17.2149 759.3903,-23.3233 761.3101,-16.5916"/>
</g>
<!-- Node15 -->
<g id="node16" class="node">
<title>Node15</title>
<polygon fill="none" stroke="#bfbfbf" points="769,-.5 769,-19.5 818,-19.5 818,-.5 769,-.5"/>
<text text-anchor="middle" x="793.5" y="-7.5" font-family="Helvetica,sans-Serif" font-size="10.00" fill="#000000">cstdlib</text>
</g>
<!-- Node11&#45;&gt;Node15 -->
<g id="edge18" class="edge">
<title>Node11&#45;&gt;Node15</title>
<path fill="none" stroke="#191970" d="M900.3241,-56.3733C879.5234,-47.3435 848.2083,-33.7494 824.8542,-23.6111"/>
<polygon fill="#191970" stroke="#191970" points="825.9532,-20.2727 815.3865,-19.5011 823.1657,-26.6938 825.9532,-20.2727"/>
</g>
<!-- Node16 -->
<g id="node17" class="node">
<title>Node16</title>
<polygon fill="none" stroke="#bfbfbf" points="836,-.5 836,-19.5 901,-19.5 901,-.5 836,-.5"/>
<text text-anchor="middle" x="868.5" y="-7.5" font-family="Helvetica,sans-Serif" font-size="10.00" fill="#000000">stdexcept</text>
</g>
<!-- Node11&#45;&gt;Node16 -->
<g id="edge19" class="edge">
<title>Node11&#45;&gt;Node16</title>
<path fill="none" stroke="#191970" d="M913.0939,-56.2455C905.3507,-48.2155 894.188,-36.6394 884.9682,-27.0781"/>
<polygon fill="#191970" stroke="#191970" points="887.2591,-24.4117 877.7983,-19.6427 882.2202,-29.2706 887.2591,-24.4117"/>
</g>
<!-- Node17 -->
<g id="node18" class="node">
<title>Node17</title>
<polygon fill="none" stroke="#bfbfbf" points="919,-.5 919,-19.5 968,-19.5 968,-.5 919,-.5"/>
<text text-anchor="middle" x="943.5" y="-7.5" font-family="Helvetica,sans-Serif" font-size="10.00" fill="#000000">iosfwd</text>
</g>
<!-- Node11&#45;&gt;Node17 -->
<g id="edge20" class="edge">
<title>Node11&#45;&gt;Node17</title>
<path fill="none" stroke="#191970" d="M926.1579,-56.2455C928.9584,-48.7776 932.909,-38.2427 936.3324,-29.1137"/>
<polygon fill="#191970" stroke="#191970" points="939.6499,-30.2349 939.884,-19.6427 933.0955,-27.777 939.6499,-30.2349"/>
</g>
<!-- Node18 -->
<g id="node19" class="node">
<title>Node18</title>
<polygon fill="none" stroke="#bfbfbf" points="986,-.5 986,-19.5 1069,-19.5 1069,-.5 986,-.5"/>
<text text-anchor="middle" x="1027.5" y="-7.5" font-family="Helvetica,sans-Serif" font-size="10.00" fill="#000000">initializer_list</text>
</g>
<!-- Node11&#45;&gt;Node18 -->
<g id="edge21" class="edge">
<title>Node11&#45;&gt;Node18</title>
<path fill="none" stroke="#191970" d="M940.7896,-56.2455C957.2762,-47.4527 981.7352,-34.4079 1000.4765,-24.4125"/>
<polygon fill="#191970" stroke="#191970" points="1002.2435,-27.4368 1009.42,-19.6427 998.9494,-21.2604 1002.2435,-27.4368"/>
</g>
<!-- Node19 -->
<g id="node20" class="node">
<title>Node19</title>
<polygon fill="none" stroke="#bfbfbf" points="1087,-.5 1087,-19.5 1160,-19.5 1160,-.5 1087,-.5"/>
<text text-anchor="middle" x="1123.5" y="-7.5" font-family="Helvetica,sans-Serif" font-size="10.00" fill="#000000">string_view</text>
</g>
<!-- Node11&#45;&gt;Node19 -->
<g id="edge22" class="edge">
<title>Node11&#45;&gt;Node19</title>
<path fill="none" stroke="#191970" d="M957.0531,-56.3733C990.9104,-46.9404 1042.646,-32.5265 1079.4426,-22.2747"/>
<polygon fill="#191970" stroke="#191970" points="1080.704,-25.5566 1089.3978,-19.5011 1078.8253,-18.8135 1080.704,-25.5566"/>
</g>
<!-- Node21&#45;&gt;Node2 -->
<g id="edge33" class="edge">
<title>Node21&#45;&gt;Node2</title>
<path fill="none" stroke="#191970" d="M538.0057,-184.9005C511.0747,-173.4077 465.7933,-154.0838 435.2936,-141.068"/>
<polygon fill="#191970" stroke="#191970" points="436.5238,-137.7876 425.9525,-137.0817 433.7763,-144.2259 436.5238,-137.7876"/>
</g>
<!-- Node21&#45;&gt;Node8 -->
<g id="edge32" class="edge">
<title>Node21&#45;&gt;Node8</title>
<path fill="none" stroke="#191970" d="M586.0035,-184.8493C604.2142,-176.5796 627.6733,-162.8346 640.5,-143 663.1229,-108.0172 663.9266,-57.1942 662.336,-29.6027"/>
<polygon fill="#191970" stroke="#191970" points="665.8259,-29.3359 661.593,-19.6234 658.8452,-29.8557 665.8259,-29.3359"/>
</g>
<!-- Node21&#45;&gt;Node9 -->
<g id="edge31" class="edge">
<title>Node21&#45;&gt;Node9</title>
<path fill="none" stroke="#191970" d="M543.1638,-184.8596C525.6957,-174.9474 498.1567,-158.7736 475.5,-143 457.3281,-130.3488 454.0602,-125.4874 436.5,-112 423.1567,-101.7515 407.9914,-90.4931 395.9995,-81.6796"/>
<polygon fill="#191970" stroke="#191970" points="398.0345,-78.8317 387.8997,-75.7434 393.8966,-84.4777 398.0345,-78.8317"/>
</g>
<!-- Node22 -->
<g id="node23" class="node">
<title>Node22</title>
<g id="a_node23"><a xlink:href="../../d5/dfb/DataRef_8h.html" target="_top" xlink:title="Framework/DataRef.h">
<polygon fill="none" stroke="#000000" points="510,-56.5 510,-75.5 631,-75.5 631,-56.5 510,-56.5"/>
<text text-anchor="middle" x="570.5" y="-63.5" font-family="Helvetica,sans-Serif" font-size="10.00" fill="#000000">Framework/DataRef.h</text>
</a>
</g>
</g>
<!-- Node21&#45;&gt;Node22 -->
<g id="edge27" class="edge">
<title>Node21&#45;&gt;Node22</title>
<path fill="none" stroke="#191970" d="M580.1935,-184.9007C595.4175,-176.2754 615.3836,-162.0372 624.5,-143 630.4507,-130.5735 630.2763,-124.5085 624.5,-112 618.6741,-99.384 607.4931,-88.9528 596.8095,-81.2314"/>
<polygon fill="#191970" stroke="#191970" points="598.7142,-78.2946 588.4599,-75.6299 594.8144,-84.1076 598.7142,-78.2946"/>
</g>
<!-- Node23 -->
<g id="node24" class="node">
<title>Node23</title>
<g id="a_node24"><a xlink:href="../../da/d0f/InputSpan_8h.html" target="_top" xlink:title="Framework/InputSpan.h">
<polygon fill="none" stroke="#000000" points="484,-118 484,-137 615,-137 615,-118 484,-118"/>
<text text-anchor="middle" x="549.5" y="-125" font-family="Helvetica,sans-Serif" font-size="10.00" fill="#000000">Framework/InputSpan.h</text>
</a>
</g>
</g>
<!-- Node21&#45;&gt;Node23 -->
<g id="edge28" class="edge">
<title>Node21&#45;&gt;Node23</title>
<path fill="none" stroke="#191970" d="M558.924,-184.9005C557.3066,-175.0495 554.7447,-159.4451 552.7,-146.9912"/>
<polygon fill="#191970" stroke="#191970" points="556.1471,-146.3825 551.0731,-137.0817 549.2395,-147.5166 556.1471,-146.3825"/>
</g>
<!-- Node23&#45;&gt;Node9 -->
<g id="edge30" class="edge">
<title>Node23&#45;&gt;Node9</title>
<path fill="none" stroke="#191970" d="M522.1563,-117.8906C492.3618,-107.42 444.5315,-90.6111 411.4192,-78.9745"/>
<polygon fill="#191970" stroke="#191970" points="412.2466,-75.5554 401.6517,-75.5419 409.9257,-82.1595 412.2466,-75.5554"/>
</g>
<!-- Node23&#45;&gt;Node22 -->
<g id="edge29" class="edge">
<title>Node23&#45;&gt;Node22</title>
<path fill="none" stroke="#191970" d="M552.7813,-117.8906C555.7535,-109.1862 560.2214,-96.1015 563.927,-85.2494"/>
<polygon fill="#191970" stroke="#191970" points="567.2532,-86.3394 567.1725,-75.7449 560.6288,-84.0773 567.2532,-86.3394"/>
</g>
<!-- Node24&#45;&gt;Node2 -->
<g id="edge37" class="edge">
<title>Node24&#45;&gt;Node2</title>
<path fill="none" stroke="#191970" d="M352.9533,-184.9005C362.1538,-174.4525 377.0535,-157.5325 388.2978,-144.7635"/>
<polygon fill="#191970" stroke="#191970" points="391.0803,-146.8997 395.0624,-137.0817 385.8269,-142.2735 391.0803,-146.8997"/>
</g>
<!-- Node24&#45;&gt;Node8 -->
<g id="edge36" class="edge">
<title>Node24&#45;&gt;Node8</title>
<path fill="none" stroke="#191970" d="M339.502,-184.6433C327.6291,-159.6832 301.0618,-93.3208 333.5,-56 352.672,-33.9422 548.7656,-17.8389 627.7739,-12.1988"/>
<polygon fill="#191970" stroke="#191970" points="628.3844,-15.6647 638.1147,-11.4729 627.8941,-8.6819 628.3844,-15.6647"/>
</g>
<!-- Node24&#45;&gt;Node9 -->
<g id="edge35" class="edge">
<title>Node24&#45;&gt;Node9</title>
<path fill="none" stroke="#191970" d="M346.7549,-184.8416C351.663,-163.8184 363.3966,-113.5598 369.9232,-85.6038"/>
<polygon fill="#191970" stroke="#191970" points="373.3537,-86.3043 372.219,-75.7705 366.537,-84.7128 373.3537,-86.3043"/>
</g>
<!-- Node25&#45;&gt;Node2 -->
<g id="edge41" class="edge">
<title>Node25&#45;&gt;Node2</title>
<path fill="none" stroke="#191970" d="M679.7584,-184.9557C671.1137,-182.9387 662.0091,-180.8592 653.5,-179 574.6474,-161.7713 554.5097,-159.4936 475.5,-143 463.0118,-140.393 449.3213,-137.4637 437.2626,-134.8594"/>
<polygon fill="#191970" stroke="#191970" points="437.6711,-131.3668 427.1568,-132.6706 436.1893,-138.2081 437.6711,-131.3668"/>
</g>
<!-- Node25&#45;&gt;Node8 -->
<g id="edge40" class="edge">
<title>Node25&#45;&gt;Node8</title>
<path fill="none" stroke="#191970" d="M719.3849,-184.9884C718.7864,-161.8928 715.2922,-101.4135 695.5,-56 690.9771,-45.6221 683.6436,-35.4578 676.8551,-27.3342"/>
<polygon fill="#191970" stroke="#191970" points="679.354,-24.876 670.1185,-19.6839 674.1004,-29.502 679.354,-24.876"/>
</g>
<!-- Node25&#45;&gt;Node10 -->
<g id="edge39" class="edge">
<title>Node25&#45;&gt;Node10</title>
<path fill="none" stroke="#191970" d="M735.4036,-184.9005C753.867,-173.7559 784.5299,-155.2477 806.0332,-142.2682"/>
<polygon fill="#191970" stroke="#191970" points="807.8733,-145.2458 814.6259,-137.0817 804.2559,-139.2529 807.8733,-145.2458"/>
</g>
</g>
</svg>
        <g id="navigator" transform="translate(0 0)" fill="#404254">
                <rect fill="#f2f5e9" fill-opacity="0.5" stroke="#606060" stroke-width=".5" x="0" y="0" width="60" height="60"/>
                <use id="zoomplus" xlink:href="#zoomPlus" x="17" y="9" onmousedown="handleZoom(evt,'in')"/>
                <use id="zoomminus" xlink:href="#zoomMin" x="42" y="9" onmousedown="handleZoom(evt,'out')"/>
                <use id="reset" xlink:href="#resetDef" x="30" y="36" onmousedown="handleReset()"/>
                <g id="arrowUp" xlink:href="#dirArrow" transform="translate(30 24)" onmousedown="handlePan(0,-1)">
                  <use xlink:href="#rim" fill="#404040">
                        <set attributeName="fill" to="#808080" begin="arrowUp.mouseover" end="arrowUp.mouseout"/>
                  </use>
                  <path fill="none" stroke="white" stroke-width="1.5" d="M0,-3.0v7 M-2.5,-0.5L0,-3.0L2.5,-0.5"/>
                </g>
                <g id="arrowRight" xlink:href="#dirArrow" transform="rotate(90) translate(36 -43)" onmousedown="handlePan(1,0)">
                  <use xlink:href="#rim" fill="#404040">
                        <set attributeName="fill" to="#808080" begin="arrowRight.mouseover" end="arrowRight.mouseout"/>
                  </use>
                  <path fill="none" stroke="white" stroke-width="1.5" d="M0,-3.0v7 M-2.5,-0.5L0,-3.0L2.5,-0.5"/>
                </g>
                <g id="arrowDown" xlink:href="#dirArrow" transform="rotate(180) translate(-30 -48)" onmousedown="handlePan(0,1)">
                  <use xlink:href="#rim" fill="#404040">
                        <set attributeName="fill" to="#808080" begin="arrowDown.mouseover" end="arrowDown.mouseout"/>
                  </use>
                  <path fill="none" stroke="white" stroke-width="1.5" d="M0,-3.0v7 M-2.5,-0.5L0,-3.0L2.5,-0.5"/>
                </g>
                <g id="arrowLeft" xlink:href="#dirArrow" transform="rotate(270) translate(-36 17)" onmousedown="handlePan(-1,0)">
                  <use xlink:href="#rim" fill="#404040">
                        <set attributeName="fill" to="#808080" begin="arrowLeft.mouseover" end="arrowLeft.mouseout"/>
                  </use>
                  <path fill="none" stroke="white" stroke-width="1.5" d="M0,-3.0v7 M-2.5,-0.5L0,-3.0L2.5,-0.5"/>
                </g>
        </g>
        <svg viewBox="0 0 15 15" width="100%" height="30px" preserveAspectRatio="xMaxYMin meet">
         <g id="arrow_out" transform="scale(0.3 0.3)">
          <a xlink:href="DriverInfo_8h__incl_org.svg" target="_base">
           <rect id="button" ry="5" rx="5" y="6" x="6" height="38" width="38"
                fill="#f2f5e9" fill-opacity="0.5" stroke="#606060" stroke-width="1.0"/>
           <path id="arrow"
             d="M 11.500037,31.436501 C 11.940474,20.09759 22.043105,11.32322 32.158766,21.979434 L 37.068811,17.246167 C 37.068811,17.246167 37.088388,32 37.088388,32 L 22.160133,31.978069 C 22.160133,31.978069 26.997745,27.140456 26.997745,27.140456 C 18.528582,18.264221 13.291696,25.230495 11.500037,31.436501 z"
             style="fill:#404040;"/>
          </a>
         </g>
        </svg>
</svg>
