<?xml version="1.0" encoding="UTF-8" standalone="no"?>
<!DOCTYPE svg PUBLIC "-//W3C//DTD SVG 1.1//EN"
 "http://www.w3.org/Graphics/SVG/1.1/DTD/svg11.dtd">
<!-- Generated by graphviz version 2.40.1 (20161225.0304)
 -->
<!-- Title: o2::emcal::CaloRawFitter Pages: 1 -->
<svg width="580pt" height="501pt"
 viewBox="0.00 0.00 580.00 501.00" xmlns="http://www.w3.org/2000/svg" xmlns:xlink="http://www.w3.org/1999/xlink">
<g id="graph0" class="graph" transform="scale(1 1) rotate(0) translate(4 497)">
<title>o2::emcal::CaloRawFitter</title>
<!-- Node3 -->
<g id="node1" class="node">
<title>Node3</title>
<polygon fill="#bfbfbf" stroke="#000000" points="142,-.5 142,-332.5 300,-332.5 300,-.5 142,-.5"/>
<text text-anchor="middle" x="221" y="-320.5" font-family="Helvetica,sans-Serif" font-size="10.00" fill="#000000">o2::emcal::CaloRawFitter</text>
<polyline fill="none" stroke="#000000" points="142,-313.5 300,-313.5 "/>
<text text-anchor="middle" x="221" y="-301.5" font-family="Helvetica,sans-Serif" font-size="10.00" fill="#000000"> </text>
<polyline fill="none" stroke="#000000" points="142,-294.5 300,-294.5 "/>
<text text-anchor="start" x="150" y="-282.5" font-family="Helvetica,sans-Serif" font-size="10.00" fill="#000000">+ CaloRawFitter()</text>
<text text-anchor="start" x="150" y="-271.5" font-family="Helvetica,sans-Serif" font-size="10.00" fill="#000000">+ ~CaloRawFitter()</text>
<text text-anchor="start" x="150" y="-260.5" font-family="Helvetica,sans-Serif" font-size="10.00" fill="#000000">+ evaluate()</text>
<text text-anchor="start" x="150" y="-249.5" font-family="Helvetica,sans-Serif" font-size="10.00" fill="#000000">+ preFitEvaluateSamples()</text>
<text text-anchor="start" x="150" y="-238.5" font-family="Helvetica,sans-Serif" font-size="10.00" fill="#000000">+ setTimeConstraint()</text>
<text text-anchor="start" x="150" y="-227.5" font-family="Helvetica,sans-Serif" font-size="10.00" fill="#000000">+ setIsZeroSuppressed()</text>
<text text-anchor="start" x="150" y="-216.5" font-family="Helvetica,sans-Serif" font-size="10.00" fill="#000000">+ setAmpCut()</text>
<text text-anchor="start" x="150" y="-205.5" font-family="Helvetica,sans-Serif" font-size="10.00" fill="#000000">+ setNsamplePed()</text>
<text text-anchor="start" x="150" y="-194.5" font-family="Helvetica,sans-Serif" font-size="10.00" fill="#000000">+ setL1Phase()</text>
<text text-anchor="start" x="150" y="-183.5" font-family="Helvetica,sans-Serif" font-size="10.00" fill="#000000">+ getIsZeroSuppressed()</text>
<text text-anchor="start" x="150" y="-172.5" font-family="Helvetica,sans-Serif" font-size="10.00" fill="#000000">+ getAmpCut()</text>
<text text-anchor="start" x="150" y="-161.5" font-family="Helvetica,sans-Serif" font-size="10.00" fill="#000000">+ getNsamplePed()</text>
<text text-anchor="start" x="150" y="-150.5" font-family="Helvetica,sans-Serif" font-size="10.00" fill="#000000">+ getReversed()</text>
<text text-anchor="start" x="150" y="-139.5" font-family="Helvetica,sans-Serif" font-size="10.00" fill="#000000">+ getAlgoName()</text>
<text text-anchor="start" x="150" y="-128.5" font-family="Helvetica,sans-Serif" font-size="10.00" fill="#000000">+ getAlgoAbbr()</text>
<text text-anchor="start" x="150" y="-117.5" font-family="Helvetica,sans-Serif" font-size="10.00" fill="#000000">+ getAlgo()</text>
<text text-anchor="start" x="150" y="-106.5" font-family="Helvetica,sans-Serif" font-size="10.00" fill="#000000">+ maxAmp()</text>
<text text-anchor="start" x="150" y="-95.5" font-family="Helvetica,sans-Serif" font-size="10.00" fill="#000000">+ maxAmp()</text>
<text text-anchor="start" x="150" y="-84.5" font-family="Helvetica,sans-Serif" font-size="10.00" fill="#000000">+ checkBunchEdgesForMax()</text>
<text text-anchor="start" x="150" y="-73.5" font-family="Helvetica,sans-Serif" font-size="10.00" fill="#000000">+ isInTimeRange()</text>
<text text-anchor="start" x="150" y="-62.5" font-family="Helvetica,sans-Serif" font-size="10.00" fill="#000000">+ reverseAndSubtractPed()</text>
<text text-anchor="start" x="150" y="-51.5" font-family="Helvetica,sans-Serif" font-size="10.00" fill="#000000">+ selectBunch()</text>
<text text-anchor="start" x="150" y="-40.5" font-family="Helvetica,sans-Serif" font-size="10.00" fill="#000000">+ selectSubarray()</text>
<text text-anchor="start" x="150" y="-29.5" font-family="Helvetica,sans-Serif" font-size="10.00" fill="#000000">+ evaluatePedestal()</text>
<text text-anchor="start" x="150" y="-18.5" font-family="Helvetica,sans-Serif" font-size="10.00" fill="#000000">+ calculateChi2()</text>
<text text-anchor="start" x="150" y="-7.5" font-family="Helvetica,sans-Serif" font-size="10.00" fill="#000000"># ClassDefNV()</text>
</g>
<!-- Node4 -->
<g id="node2" class="node">
<title>Node4</title>
<polygon fill="none" stroke="#bfbfbf" points="0,-430 0,-487 50,-487 50,-430 0,-430"/>
<text text-anchor="middle" x="25" y="-475" font-family="Helvetica,sans-Serif" font-size="10.00" fill="#000000">double</text>
<polyline fill="none" stroke="#bfbfbf" points="0,-468 50,-468 "/>
<text text-anchor="middle" x="25" y="-456" font-family="Helvetica,sans-Serif" font-size="10.00" fill="#000000"> </text>
<polyline fill="none" stroke="#bfbfbf" points="0,-449 50,-449 "/>
<text text-anchor="middle" x="25" y="-437" font-family="Helvetica,sans-Serif" font-size="10.00" fill="#000000"> </text>
</g>
<!-- Node4&#45;&gt;Node3 -->
<g id="edge1" class="edge">
<title>Node4&#45;&gt;Node3</title>
<path fill="none" stroke="#404040" d="M28.295,-429.7154C31.774,-407.2243 38.6832,-375.738 52,-351 72.801,-312.3588 103.5042,-275.4824 133.0545,-244.9957"/>
<polygon fill="none" stroke="#404040" points="133.3391,-244.7068 134.7007,-237.6254 141.7611,-236.1586 140.3995,-243.2401 133.3391,-244.7068"/>
<text text-anchor="middle" x="83" y="-381.5" font-family="Helvetica,sans-Serif" font-size="10.00" fill="#000000"> #mL1Phase</text>
<text text-anchor="middle" x="83" y="-370.5" font-family="Helvetica,sans-Serif" font-size="10.00" fill="#000000">#mAmp</text>
</g>
<!-- Node5 -->
<g id="node3" class="node">
<title>Node5</title>
<polygon fill="none" stroke="#bfbfbf" points="70,-430 70,-487 146,-487 146,-430 70,-430"/>
<text text-anchor="middle" x="108" y="-475" font-family="Helvetica,sans-Serif" font-size="10.00" fill="#000000">FitAlgorithm</text>
<polyline fill="none" stroke="#bfbfbf" points="70,-468 146,-468 "/>
<text text-anchor="middle" x="108" y="-456" font-family="Helvetica,sans-Serif" font-size="10.00" fill="#000000"> </text>
<polyline fill="none" stroke="#bfbfbf" points="70,-449 146,-449 "/>
<text text-anchor="middle" x="108" y="-437" font-family="Helvetica,sans-Serif" font-size="10.00" fill="#000000"> </text>
</g>
<!-- Node5&#45;&gt;Node3 -->
<g id="edge2" class="edge">
<title>Node5&#45;&gt;Node3</title>
<path fill="none" stroke="#404040" d="M112.2067,-429.6936C115.8776,-407.7459 122.0342,-376.9797 131,-351 133.0192,-345.1491 135.1786,-339.243 137.45,-333.316"/>
<polygon fill="none" stroke="#404040" points="137.5486,-333.0655 136.0271,-326.0168 141.9485,-321.9012 143.47,-328.95 137.5486,-333.0655"/>
<text text-anchor="middle" x="152.5" y="-376" font-family="Helvetica,sans-Serif" font-size="10.00" fill="#000000"> #mAlgo</text>
</g>
<!-- Node6 -->
<g id="node4" class="node">
<title>Node6</title>
<g id="a_node4"><a xlink:href="../../d4/dc3/classfloat.html" target="_top" xlink:title="{float\n||}">
<polygon fill="none" stroke="#000000" points="164,-430 164,-487 202,-487 202,-430 164,-430"/>
<text text-anchor="middle" x="183" y="-475" font-family="Helvetica,sans-Serif" font-size="10.00" fill="#000000">float</text>
<polyline fill="none" stroke="#000000" points="164,-468 202,-468 "/>
<text text-anchor="middle" x="183" y="-456" font-family="Helvetica,sans-Serif" font-size="10.00" fill="#000000"> </text>
<polyline fill="none" stroke="#000000" points="164,-449 202,-449 "/>
<text text-anchor="middle" x="183" y="-437" font-family="Helvetica,sans-Serif" font-size="10.00" fill="#000000"> </text>
</a>
</g>
</g>
<!-- Node6&#45;&gt;Node3 -->
<g id="edge3" class="edge">
<title>Node6&#45;&gt;Node3</title>
<path fill="none" stroke="#404040" d="M181.069,-429.903C180.6266,-422.1505 180.2214,-413.7569 180,-406 179.3024,-381.5655 177.3327,-375.2985 180,-351 180.2277,-348.9258 180.4694,-346.8408 180.7242,-344.7468"/>
<polygon fill="none" stroke="#404040" points="180.7482,-344.5647 177.5695,-338.092 182.3217,-332.6682 185.5004,-339.1409 180.7482,-344.5647"/>
<text text-anchor="middle" x="210.5" y="-376" font-family="Helvetica,sans-Serif" font-size="10.00" fill="#000000"> #mAmpCut</text>
</g>
<!-- Node7 -->
<g id="node5" class="node">
<title>Node7</title>
<polygon fill="none" stroke="#bfbfbf" points="248.5,-430 248.5,-487 277.5,-487 277.5,-430 248.5,-430"/>
<text text-anchor="middle" x="263" y="-475" font-family="Helvetica,sans-Serif" font-size="10.00" fill="#000000">int</text>
<polyline fill="none" stroke="#bfbfbf" points="248.5,-468 277.5,-468 "/>
<text text-anchor="middle" x="263" y="-456" font-family="Helvetica,sans-Serif" font-size="10.00" fill="#000000"> </text>
<polyline fill="none" stroke="#bfbfbf" points="248.5,-449 277.5,-449 "/>
<text text-anchor="middle" x="263" y="-437" font-family="Helvetica,sans-Serif" font-size="10.00" fill="#000000"> </text>
</g>
<!-- Node7&#45;&gt;Node3 -->
<g id="edge4" class="edge">
<title>Node7&#45;&gt;Node3</title>
<path fill="none" stroke="#404040" d="M258.8964,-429.9702C255.8539,-408.8177 251.4224,-378.0081 246.6538,-344.8547"/>
<polygon fill="none" stroke="#404040" points="246.5921,-344.4256 241.7786,-339.0563 244.8836,-332.5479 249.6971,-337.9172 246.5921,-344.4256"/>
<text text-anchor="middle" x="299.5" y="-398" font-family="Helvetica,sans-Serif" font-size="10.00" fill="#000000"> #mName</text>
<text text-anchor="middle" x="299.5" y="-387" font-family="Helvetica,sans-Serif" font-size="10.00" fill="#000000">#mNameShort</text>
<text text-anchor="middle" x="299.5" y="-376" font-family="Helvetica,sans-Serif" font-size="10.00" fill="#000000">#mMaxTimeIndex</text>
<text text-anchor="middle" x="299.5" y="-365" font-family="Helvetica,sans-Serif" font-size="10.00" fill="#000000">#mNsamplePed</text>
<text text-anchor="middle" x="299.5" y="-354" font-family="Helvetica,sans-Serif" font-size="10.00" fill="#000000">#mMinTimeIndex</text>
</g>
<!-- Node8 -->
<g id="node6" class="node">
<title>Node8</title>
<polygon fill="none" stroke="#bfbfbf" points="358,-430 358,-487 396,-487 396,-430 358,-430"/>
<text text-anchor="middle" x="377" y="-475" font-family="Helvetica,sans-Serif" font-size="10.00" fill="#000000">bool</text>
<polyline fill="none" stroke="#bfbfbf" points="358,-468 396,-468 "/>
<text text-anchor="middle" x="377" y="-456" font-family="Helvetica,sans-Serif" font-size="10.00" fill="#000000"> </text>
<polyline fill="none" stroke="#bfbfbf" points="358,-449 396,-449 "/>
<text text-anchor="middle" x="377" y="-437" font-family="Helvetica,sans-Serif" font-size="10.00" fill="#000000"> </text>
</g>
<!-- Node8&#45;&gt;Node3 -->
<g id="edge5" class="edge">
<title>Node8&#45;&gt;Node3</title>
<path fill="none" stroke="#404040" d="M372.3572,-429.7271C368.1069,-407.5238 360.6745,-376.411 349,-351 337.4649,-325.8924 322.5058,-300.5455 306.9028,-277.0161"/>
<polygon fill="none" stroke="#404040" points="306.8919,-276.9999 300.2214,-274.2604 300.1845,-267.0494 306.855,-269.7888 306.8919,-276.9999"/>
<text text-anchor="middle" x="418" y="-376" font-family="Helvetica,sans-Serif" font-size="10.00" fill="#000000"> #mIsZerosupressed</text>
</g>
<!-- Node9 -->
<g id="node7" class="node">
<title>Node9</title>
<polygon fill="none" stroke="#bfbfbf" points="432,-424.5 432,-492.5 572,-492.5 572,-424.5 432,-424.5"/>
<text text-anchor="start" x="440" y="-480.5" font-family="Helvetica,sans-Serif" font-size="10.00" fill="#000000">array&lt; double, constants</text>
<text text-anchor="middle" x="502" y="-469.5" font-family="Helvetica,sans-Serif" font-size="10.00" fill="#000000">::EMCAL_MAXTIMEBINS &gt;</text>
<polyline fill="none" stroke="#bfbfbf" points="432,-462.5 572,-462.5 "/>
<text text-anchor="middle" x="502" y="-450.5" font-family="Helvetica,sans-Serif" font-size="10.00" fill="#000000"> </text>
<polyline fill="none" stroke="#bfbfbf" points="432,-443.5 572,-443.5 "/>
<text text-anchor="middle" x="502" y="-431.5" font-family="Helvetica,sans-Serif" font-size="10.00" fill="#000000"> </text>
</g>
<!-- Node9&#45;&gt;Node3 -->
<g id="edge6" class="edge">
<title>Node9&#45;&gt;Node3</title>
<path fill="none" stroke="#404040" d="M498.6591,-424.0737C495.1244,-401.6646 487.8692,-372.6803 473,-351 432.1013,-291.3668 365.4276,-243.7953 310.932,-211.9016"/>
<polygon fill="none" stroke="#404040" points="310.6088,-211.7157 303.4134,-212.1918 300.2065,-205.733 307.4019,-205.2569 310.6088,-211.7157"/>
<text text-anchor="middle" x="527.5" y="-376" font-family="Helvetica,sans-Serif" font-size="10.00" fill="#000000"> #mReversed</text>
</g>
</g>
</svg>
