<?xml version="1.0" encoding="UTF-8" standalone="no"?>
<!DOCTYPE svg PUBLIC "-//W3C//DTD SVG 1.1//EN"
 "http://www.w3.org/Graphics/SVG/1.1/DTD/svg11.dtd">
<!-- Generated by graphviz version 2.40.1 (20161225.0304)
 -->
<!-- Title: /home/travis/build/AliceO2Group/AliceO2/DataFormats/Reconstruction/src/PrimaryVertex.cxx Pages: 1 -->
<svg width="1905pt" height="396pt"
 viewBox="0.00 0.00 1905.00 396.00" xmlns="http://www.w3.org/2000/svg" xmlns:xlink="http://www.w3.org/1999/xlink">
<g id="graph0" class="graph" transform="scale(1 1) rotate(0) translate(4 392)">
<title>/home/travis/build/AliceO2Group/AliceO2/DataFormats/Reconstruction/src/PrimaryVertex.cxx</title>
<!-- Node0 -->
<g id="node1" class="node">
<title>Node0</title>
<polygon fill="#bfbfbf" stroke="#000000" points="595,-335.5 595,-387.5 753,-387.5 753,-335.5 595,-335.5"/>
<text text-anchor="start" x="603" y="-375.5" font-family="Helvetica,sans-Serif" font-size="10.00" fill="#000000">/home/travis/build</text>
<text text-anchor="start" x="603" y="-364.5" font-family="Helvetica,sans-Serif" font-size="10.00" fill="#000000">/AliceO2Group/AliceO2</text>
<text text-anchor="start" x="603" y="-353.5" font-family="Helvetica,sans-Serif" font-size="10.00" fill="#000000">/DataFormats/Reconstruction</text>
<text text-anchor="middle" x="674" y="-342.5" font-family="Helvetica,sans-Serif" font-size="10.00" fill="#000000">/src/PrimaryVertex.cxx</text>
</g>
<!-- Node1 -->
<g id="node2" class="node">
<title>Node1</title>
<g id="a_node2"><a xlink:href="../../d7/d82/PrimaryVertex_8h.html" target="_top" xlink:title="ReconstructionDataFormats\l/PrimaryVertex.h">
<polygon fill="none" stroke="#000000" points="426,-268.5 426,-298.5 578,-298.5 578,-268.5 426,-268.5"/>
<text text-anchor="start" x="434" y="-286.5" font-family="Helvetica,sans-Serif" font-size="10.00" fill="#000000">ReconstructionDataFormats</text>
<text text-anchor="middle" x="502" y="-275.5" font-family="Helvetica,sans-Serif" font-size="10.00" fill="#000000">/PrimaryVertex.h</text>
</a>
</g>
</g>
<!-- Node0&#45;&gt;Node1 -->
<g id="edge1" class="edge">
<title>Node0&#45;&gt;Node1</title>
<path fill="none" stroke="#191970" d="M616.248,-335.3101C592.7844,-324.6697 566.165,-312.5981 544.5272,-302.7856"/>
<polygon fill="#191970" stroke="#191970" points="545.8276,-299.5323 535.2748,-298.5897 542.9366,-305.9074 545.8276,-299.5323"/>
</g>
<!-- Node25 -->
<g id="node26" class="node">
<title>Node25</title>
<polygon fill="none" stroke="#bfbfbf" points="596.5,-274 596.5,-293 667.5,-293 667.5,-274 596.5,-274"/>
<text text-anchor="middle" x="632" y="-281" font-family="Helvetica,sans-Serif" font-size="10.00" fill="#000000">fmt/printf.h</text>
</g>
<!-- Node0&#45;&gt;Node25 -->
<g id="edge29" class="edge">
<title>Node0&#45;&gt;Node25</title>
<path fill="none" stroke="#191970" d="M659.7807,-335.0928C653.9264,-324.2205 647.2846,-311.8856 641.9634,-302.0034"/>
<polygon fill="#191970" stroke="#191970" points="644.9832,-300.2292 637.1605,-293.0839 638.8199,-303.548 644.9832,-300.2292"/>
</g>
<!-- Node26 -->
<g id="node27" class="node">
<title>Node26</title>
<polygon fill="none" stroke="#bfbfbf" points="686,-274 686,-293 746,-293 746,-274 686,-274"/>
<text text-anchor="middle" x="716" y="-281" font-family="Helvetica,sans-Serif" font-size="10.00" fill="#000000">iostream</text>
</g>
<!-- Node0&#45;&gt;Node26 -->
<g id="edge30" class="edge">
<title>Node0&#45;&gt;Node26</title>
<path fill="none" stroke="#191970" d="M688.2193,-335.0928C694.0736,-324.2205 700.7154,-311.8856 706.0366,-302.0034"/>
<polygon fill="#191970" stroke="#191970" points="709.1801,-303.548 710.8395,-293.0839 703.0168,-300.2292 709.1801,-303.548"/>
</g>
<!-- Node27 -->
<g id="node28" class="node">
<title>Node27</title>
<g id="a_node28"><a xlink:href="../../d1/d1e/Common_2Utils_2include_2CommonUtils_2StringUtils_8h.html" target="_top" xlink:title="CommonUtils/StringUtils.h">
<polygon fill="none" stroke="#000000" points="764,-274 764,-293 910,-293 910,-274 764,-274"/>
<text text-anchor="middle" x="837" y="-281" font-family="Helvetica,sans-Serif" font-size="10.00" fill="#000000">CommonUtils/StringUtils.h</text>
</a>
</g>
</g>
<!-- Node0&#45;&gt;Node27 -->
<g id="edge31" class="edge">
<title>Node0&#45;&gt;Node27</title>
<path fill="none" stroke="#191970" d="M728.7301,-335.3101C755.1553,-322.665 785.8043,-307.9985 807.7339,-297.5046"/>
<polygon fill="#191970" stroke="#191970" points="809.345,-300.6138 816.8546,-293.1401 806.3234,-294.2995 809.345,-300.6138"/>
</g>
<!-- Node2 -->
<g id="node3" class="node">
<title>Node2</title>
<g id="a_node3"><a xlink:href="../../d9/d80/InteractionRecord_8h.html" target="_top" xlink:title="CommonDataFormat/Interaction\lRecord.h">
<polygon fill="none" stroke="#000000" points="220,-134.5 220,-164.5 394,-164.5 394,-134.5 220,-134.5"/>
<text text-anchor="start" x="228" y="-152.5" font-family="Helvetica,sans-Serif" font-size="10.00" fill="#000000">CommonDataFormat/Interaction</text>
<text text-anchor="middle" x="307" y="-141.5" font-family="Helvetica,sans-Serif" font-size="10.00" fill="#000000">Record.h</text>
</a>
</g>
</g>
<!-- Node1&#45;&gt;Node2 -->
<g id="edge2" class="edge">
<title>Node1&#45;&gt;Node2</title>
<path fill="none" stroke="#191970" d="M480.0101,-268.389C445.0995,-244.3991 376.9101,-197.5408 337.3639,-170.3655"/>
<polygon fill="#191970" stroke="#191970" points="339.1335,-167.3348 328.9096,-164.5558 335.169,-173.1039 339.1335,-167.3348"/>
</g>
<!-- Node9 -->
<g id="node10" class="node">
<title>Node9</title>
<g id="a_node10"><a xlink:href="../../d3/d6f/DataFormats_2Reconstruction_2include_2ReconstructionDataFormats_2Vertex_8h.html" target="_top" xlink:title="ReconstructionDataFormats\l/Vertex.h">
<polygon fill="none" stroke="#000000" points="558,-201.5 558,-231.5 710,-231.5 710,-201.5 558,-201.5"/>
<text text-anchor="start" x="566" y="-219.5" font-family="Helvetica,sans-Serif" font-size="10.00" fill="#000000">ReconstructionDataFormats</text>
<text text-anchor="middle" x="634" y="-208.5" font-family="Helvetica,sans-Serif" font-size="10.00" fill="#000000">/Vertex.h</text>
</a>
</g>
</g>
<!-- Node1&#45;&gt;Node9 -->
<g id="edge9" class="edge">
<title>Node1&#45;&gt;Node9</title>
<path fill="none" stroke="#191970" d="M531.6234,-268.4639C550.3436,-258.9619 574.7421,-246.5779 595.0246,-236.283"/>
<polygon fill="#191970" stroke="#191970" points="596.6858,-239.3649 604.0188,-231.7177 593.5175,-233.1229 596.6858,-239.3649"/>
</g>
<!-- Node3 -->
<g id="node4" class="node">
<title>Node3</title>
<g id="a_node4"><a xlink:href="../../d2/d45/GPUCommonRtypes_8h.html" target="_top" xlink:title="GPUCommonRtypes.h">
<polygon fill="none" stroke="#000000" points="466.5,-73 466.5,-92 591.5,-92 591.5,-73 466.5,-73"/>
<text text-anchor="middle" x="529" y="-80" font-family="Helvetica,sans-Serif" font-size="10.00" fill="#000000">GPUCommonRtypes.h</text>
</a>
</g>
</g>
<!-- Node2&#45;&gt;Node3 -->
<g id="edge3" class="edge">
<title>Node2&#45;&gt;Node3</title>
<path fill="none" stroke="#191970" d="M356.8211,-134.4639C396.2002,-122.5792 450.5188,-106.1858 487.5465,-95.0108"/>
<polygon fill="#191970" stroke="#191970" points="488.9426,-98.2454 497.5049,-92.0053 486.9201,-91.5439 488.9426,-98.2454"/>
</g>
<!-- Node5 -->
<g id="node6" class="node">
<title>Node5</title>
<polygon fill="none" stroke="#bfbfbf" points="609.5,-73 609.5,-92 658.5,-92 658.5,-73 609.5,-73"/>
<text text-anchor="middle" x="634" y="-80" font-family="Helvetica,sans-Serif" font-size="10.00" fill="#000000">iosfwd</text>
</g>
<!-- Node2&#45;&gt;Node5 -->
<g id="edge5" class="edge">
<title>Node2&#45;&gt;Node5</title>
<path fill="none" stroke="#191970" d="M394.3731,-135.2949C473.4725,-122.2461 580.5155,-104.0457 600,-98 601.9052,-97.4088 603.8433,-96.7361 605.7788,-96.0098"/>
<polygon fill="#191970" stroke="#191970" points="607.3817,-99.1339 615.2718,-92.0631 604.6943,-92.6703 607.3817,-99.1339"/>
</g>
<!-- Node6 -->
<g id="node7" class="node">
<title>Node6</title>
<polygon fill="none" stroke="#bfbfbf" points="208,-73 208,-92 258,-92 258,-73 208,-73"/>
<text text-anchor="middle" x="233" y="-80" font-family="Helvetica,sans-Serif" font-size="10.00" fill="#000000">cstdint</text>
</g>
<!-- Node2&#45;&gt;Node6 -->
<g id="edge6" class="edge">
<title>Node2&#45;&gt;Node6</title>
<path fill="none" stroke="#191970" d="M290.2083,-134.2967C278.5668,-123.7564 263.0752,-109.7303 251.1491,-98.9323"/>
<polygon fill="#191970" stroke="#191970" points="253.3154,-96.1722 243.5533,-92.055 248.6171,-101.3613 253.3154,-96.1722"/>
</g>
<!-- Node7 -->
<g id="node8" class="node">
<title>Node7</title>
<polygon fill="none" stroke="#bfbfbf" points="276.5,-73 276.5,-92 323.5,-92 323.5,-73 276.5,-73"/>
<text text-anchor="middle" x="300" y="-80" font-family="Helvetica,sans-Serif" font-size="10.00" fill="#000000">cmath</text>
</g>
<!-- Node2&#45;&gt;Node7 -->
<g id="edge7" class="edge">
<title>Node2&#45;&gt;Node7</title>
<path fill="none" stroke="#191970" d="M305.4116,-134.2967C304.4163,-124.7699 303.1234,-112.3954 302.051,-102.1306"/>
<polygon fill="#191970" stroke="#191970" points="305.5185,-101.6371 300.9983,-92.055 298.5564,-102.3646 305.5185,-101.6371"/>
</g>
<!-- Node8 -->
<g id="node9" class="node">
<title>Node8</title>
<g id="a_node9"><a xlink:href="../../d4/dc6/LHCConstants_8h.html" target="_top" xlink:title="Header to collect LHC related constants. ">
<polygon fill="none" stroke="#000000" points="0,-73 0,-92 190,-92 190,-73 0,-73"/>
<text text-anchor="middle" x="95" y="-80" font-family="Helvetica,sans-Serif" font-size="10.00" fill="#000000">CommonConstants/LHCConstants.h</text>
</a>
</g>
</g>
<!-- Node2&#45;&gt;Node8 -->
<g id="edge8" class="edge">
<title>Node2&#45;&gt;Node8</title>
<path fill="none" stroke="#191970" d="M259.4231,-134.4639C221.9785,-122.63 170.3891,-106.3258 135.0405,-95.1543"/>
<polygon fill="#191970" stroke="#191970" points="135.6663,-91.6815 125.0764,-92.0053 133.5568,-98.3561 135.6663,-91.6815"/>
</g>
<!-- Node4 -->
<g id="node5" class="node">
<title>Node4</title>
<polygon fill="none" stroke="#bfbfbf" points="530.5,-6 530.5,-25 589.5,-25 589.5,-6 530.5,-6"/>
<text text-anchor="middle" x="560" y="-13" font-family="Helvetica,sans-Serif" font-size="10.00" fill="#000000">Rtypes.h</text>
</g>
<!-- Node3&#45;&gt;Node4 -->
<g id="edge4" class="edge">
<title>Node3&#45;&gt;Node4</title>
<path fill="none" stroke="#191970" d="M533.4415,-72.9005C538.0916,-62.8505 545.5123,-46.8122 551.3291,-34.2403"/>
<polygon fill="#191970" stroke="#191970" points="554.5439,-35.627 555.5667,-25.0817 548.191,-32.6876 554.5439,-35.627"/>
</g>
<!-- Node9&#45;&gt;Node5 -->
<g id="edge28" class="edge">
<title>Node9&#45;&gt;Node5</title>
<path fill="none" stroke="#191970" d="M634,-201.389C634,-177.0735 634,-129.2644 634,-102.2698"/>
<polygon fill="#191970" stroke="#191970" points="637.5001,-102.1041 634,-92.1042 630.5001,-102.1042 637.5001,-102.1041"/>
</g>
<!-- Node10 -->
<g id="node11" class="node">
<title>Node10</title>
<g id="a_node11"><a xlink:href="../../dd/d76/Cartesian3D_8h.html" target="_top" xlink:title="MathUtils/Cartesian3D.h">
<polygon fill="none" stroke="#000000" points="980.5,-140 980.5,-159 1115.5,-159 1115.5,-140 980.5,-140"/>
<text text-anchor="middle" x="1048" y="-147" font-family="Helvetica,sans-Serif" font-size="10.00" fill="#000000">MathUtils/Cartesian3D.h</text>
</a>
</g>
</g>
<!-- Node9&#45;&gt;Node10 -->
<g id="edge10" class="edge">
<title>Node9&#45;&gt;Node10</title>
<path fill="none" stroke="#191970" d="M710.4164,-204.1331C787.2892,-191.6923 904.7723,-172.6794 978.9253,-160.6788"/>
<polygon fill="#191970" stroke="#191970" points="979.7799,-164.0861 989.0923,-159.0334 978.6615,-157.176 979.7799,-164.0861"/>
</g>
<!-- Node20 -->
<g id="node21" class="node">
<title>Node20</title>
<g id="a_node21"><a xlink:href="../../df/d5d/common_2include_2CommonDataFormat_2TimeStamp_8h.html" target="_top" xlink:title="CommonDataFormat/TimeStamp.h">
<polygon fill="none" stroke="#000000" points="419.5,-140 419.5,-159 606.5,-159 606.5,-140 419.5,-140"/>
<text text-anchor="middle" x="513" y="-147" font-family="Helvetica,sans-Serif" font-size="10.00" fill="#000000">CommonDataFormat/TimeStamp.h</text>
</a>
</g>
</g>
<!-- Node9&#45;&gt;Node20 -->
<g id="edge22" class="edge">
<title>Node9&#45;&gt;Node20</title>
<path fill="none" stroke="#191970" d="M606.8452,-201.4639C586.6344,-190.2728 559.2036,-175.0838 539.2201,-164.0186"/>
<polygon fill="#191970" stroke="#191970" points="540.7883,-160.8862 530.3444,-159.1039 537.3973,-167.0101 540.7883,-160.8862"/>
</g>
<!-- Node24 -->
<g id="node25" class="node">
<title>Node24</title>
<polygon fill="none" stroke="#bfbfbf" points="662,-140 662,-159 704,-159 704,-140 662,-140"/>
<text text-anchor="middle" x="683" y="-147" font-family="Helvetica,sans-Serif" font-size="10.00" fill="#000000">array</text>
</g>
<!-- Node9&#45;&gt;Node24 -->
<g id="edge27" class="edge">
<title>Node9&#45;&gt;Node24</title>
<path fill="none" stroke="#191970" d="M645.1189,-201.2967C652.5309,-191.1618 662.3,-177.804 670.061,-167.1921"/>
<polygon fill="#191970" stroke="#191970" points="672.9339,-169.1928 676.012,-159.055 667.2837,-165.0606 672.9339,-169.1928"/>
</g>
<!-- Node10&#45;&gt;Node4 -->
<g id="edge16" class="edge">
<title>Node10&#45;&gt;Node4</title>
<path fill="none" stroke="#191970" d="M980.3216,-143.4862C895.0849,-135.1945 753.9668,-118.8783 706,-98 685.6978,-89.1631 685.7589,-78.7633 667,-67 643.3717,-52.1831 614.8359,-38.6445 593.1775,-29.1709"/>
<polygon fill="#191970" stroke="#191970" points="594.3217,-25.8529 583.7526,-25.1142 591.5541,-32.2826 594.3217,-25.8529"/>
</g>
<!-- Node10&#45;&gt;Node5 -->
<g id="edge18" class="edge">
<title>Node10&#45;&gt;Node5</title>
<path fill="none" stroke="#191970" d="M980.3162,-145.1491C904.4715,-139.1387 778.3349,-125.7268 673,-98 670.382,-97.3109 667.7024,-96.4953 665.0341,-95.6044"/>
<polygon fill="#191970" stroke="#191970" points="666.1456,-92.2842 655.5517,-92.1401 663.7435,-98.8592 666.1456,-92.2842"/>
</g>
<!-- Node11 -->
<g id="node12" class="node">
<title>Node11</title>
<polygon fill="none" stroke="#bfbfbf" points="869,-67.5 869,-97.5 1033,-97.5 1033,-67.5 869,-67.5"/>
<text text-anchor="start" x="877" y="-85.5" font-family="Helvetica,sans-Serif" font-size="10.00" fill="#000000">Math/GenVector/Displacement</text>
<text text-anchor="middle" x="951" y="-74.5" font-family="Helvetica,sans-Serif" font-size="10.00" fill="#000000">Vector3D.h</text>
</g>
<!-- Node10&#45;&gt;Node11 -->
<g id="edge11" class="edge">
<title>Node10&#45;&gt;Node11</title>
<path fill="none" stroke="#191970" d="M1034.1023,-139.9005C1020.3265,-130.3853 998.7795,-115.5023 981.0779,-103.2755"/>
<polygon fill="#191970" stroke="#191970" points="982.9651,-100.3253 972.7479,-97.5218 978.9868,-106.0849 982.9651,-100.3253"/>
</g>
<!-- Node12 -->
<g id="node13" class="node">
<title>Node12</title>
<polygon fill="none" stroke="#bfbfbf" points="1051.5,-73 1051.5,-92 1240.5,-92 1240.5,-73 1051.5,-73"/>
<text text-anchor="middle" x="1146" y="-80" font-family="Helvetica,sans-Serif" font-size="10.00" fill="#000000">Math/GenVector/PositionVector3D.h</text>
</g>
<!-- Node10&#45;&gt;Node12 -->
<g id="edge12" class="edge">
<title>Node10&#45;&gt;Node12</title>
<path fill="none" stroke="#191970" d="M1062.041,-139.9005C1078.1238,-128.9052 1104.6906,-110.7422 1123.6316,-97.7927"/>
<polygon fill="#191970" stroke="#191970" points="1125.7052,-100.6148 1131.985,-92.0817 1121.7545,-94.8362 1125.7052,-100.6148"/>
</g>
<!-- Node13 -->
<g id="node14" class="node">
<title>Node13</title>
<polygon fill="none" stroke="#bfbfbf" points="1259,-73 1259,-92 1419,-92 1419,-73 1259,-73"/>
<text text-anchor="middle" x="1339" y="-80" font-family="Helvetica,sans-Serif" font-size="10.00" fill="#000000">Math/GenVector/Rotation3D.h</text>
</g>
<!-- Node10&#45;&gt;Node13 -->
<g id="edge13" class="edge">
<title>Node10&#45;&gt;Node13</title>
<path fill="none" stroke="#191970" d="M1089.3842,-139.9717C1141.4894,-127.975 1231.0037,-107.3651 1287.4861,-94.3606"/>
<polygon fill="#191970" stroke="#191970" points="1288.3277,-97.7585 1297.2875,-92.1039 1286.7571,-90.9369 1288.3277,-97.7585"/>
</g>
<!-- Node14 -->
<g id="node15" class="node">
<title>Node14</title>
<polygon fill="none" stroke="#bfbfbf" points="1437,-73 1437,-92 1605,-92 1605,-73 1437,-73"/>
<text text-anchor="middle" x="1521" y="-80" font-family="Helvetica,sans-Serif" font-size="10.00" fill="#000000">Math/GenVector/Transform3D.h</text>
</g>
<!-- Node10&#45;&gt;Node14 -->
<g id="edge14" class="edge">
<title>Node10&#45;&gt;Node14</title>
<path fill="none" stroke="#191970" d="M1115.7021,-140.9566C1191.7703,-131.2104 1318.8893,-114.4823 1428,-98 1436.9144,-96.6534 1446.2978,-95.1687 1455.5358,-93.6678"/>
<polygon fill="#191970" stroke="#191970" points="1456.1718,-97.1103 1465.4738,-92.0385 1455.0393,-90.2025 1456.1718,-97.1103"/>
</g>
<!-- Node15 -->
<g id="node16" class="node">
<title>Node15</title>
<polygon fill="none" stroke="#bfbfbf" points="1623.5,-73 1623.5,-92 1796.5,-92 1796.5,-73 1623.5,-73"/>
<text text-anchor="middle" x="1710" y="-80" font-family="Helvetica,sans-Serif" font-size="10.00" fill="#000000">Math/GenVector/Translation3D.h</text>
</g>
<!-- Node10&#45;&gt;Node15 -->
<g id="edge15" class="edge">
<title>Node10&#45;&gt;Node15</title>
<path fill="none" stroke="#191970" d="M1115.6859,-144.866C1222.0229,-137.2425 1434.6075,-120.616 1614,-98 1624.1546,-96.7198 1634.8836,-95.1767 1645.3453,-93.567"/>
<polygon fill="#191970" stroke="#191970" points="1645.9301,-97.0181 1655.2663,-92.0096 1644.8445,-90.1028 1645.9301,-97.0181"/>
</g>
<!-- Node16 -->
<g id="node17" class="node">
<title>Node16</title>
<polygon fill="none" stroke="#bfbfbf" points="1815,-73 1815,-92 1897,-92 1897,-73 1815,-73"/>
<text text-anchor="middle" x="1856" y="-80" font-family="Helvetica,sans-Serif" font-size="10.00" fill="#000000">TGeoMatrix.h</text>
</g>
<!-- Node10&#45;&gt;Node16 -->
<g id="edge17" class="edge">
<title>Node10&#45;&gt;Node16</title>
<path fill="none" stroke="#191970" d="M1115.6832,-146.9216C1275.8573,-140.4933 1674.5483,-122.494 1806,-98 1810.442,-97.1723 1815.0446,-96.0815 1819.5778,-94.8609"/>
<polygon fill="#191970" stroke="#191970" points="1820.6766,-98.1864 1829.3017,-92.0335 1818.7221,-91.4648 1820.6766,-98.1864"/>
</g>
<!-- Node17 -->
<g id="node18" class="node">
<title>Node17</title>
<g id="a_node18"><a xlink:href="../../d2/dd0/Cartesian2D_8h.html" target="_top" xlink:title="MathUtils/Cartesian2D.h">
<polygon fill="none" stroke="#000000" points="715.5,-73 715.5,-92 850.5,-92 850.5,-73 715.5,-73"/>
<text text-anchor="middle" x="783" y="-80" font-family="Helvetica,sans-Serif" font-size="10.00" fill="#000000">MathUtils/Cartesian2D.h</text>
</a>
</g>
</g>
<!-- Node10&#45;&gt;Node17 -->
<g id="edge19" class="edge">
<title>Node10&#45;&gt;Node17</title>
<path fill="none" stroke="#191970" d="M1010.3134,-139.9717C963.1583,-128.0495 882.3584,-107.6208 830.8732,-94.6038"/>
<polygon fill="#191970" stroke="#191970" points="831.5385,-91.1619 820.9857,-92.1039 829.8227,-97.9484 831.5385,-91.1619"/>
</g>
<!-- Node18 -->
<g id="node19" class="node">
<title>Node18</title>
<polygon fill="none" stroke="#bfbfbf" points="670,-.5 670,-30.5 834,-30.5 834,-.5 670,-.5"/>
<text text-anchor="start" x="678" y="-18.5" font-family="Helvetica,sans-Serif" font-size="10.00" fill="#000000">Math/GenVector/Displacement</text>
<text text-anchor="middle" x="752" y="-7.5" font-family="Helvetica,sans-Serif" font-size="10.00" fill="#000000">Vector2D.h</text>
</g>
<!-- Node17&#45;&gt;Node18 -->
<g id="edge20" class="edge">
<title>Node17&#45;&gt;Node18</title>
<path fill="none" stroke="#191970" d="M778.5585,-72.9005C774.5561,-64.2503 768.5012,-51.164 763.1831,-39.6699"/>
<polygon fill="#191970" stroke="#191970" points="766.3261,-38.1277 758.9504,-30.5218 759.9731,-41.0671 766.3261,-38.1277"/>
</g>
<!-- Node19 -->
<g id="node20" class="node">
<title>Node19</title>
<polygon fill="none" stroke="#bfbfbf" points="852.5,-6 852.5,-25 1041.5,-25 1041.5,-6 852.5,-6"/>
<text text-anchor="middle" x="947" y="-13" font-family="Helvetica,sans-Serif" font-size="10.00" fill="#000000">Math/GenVector/PositionVector2D.h</text>
</g>
<!-- Node17&#45;&gt;Node19 -->
<g id="edge21" class="edge">
<title>Node17&#45;&gt;Node19</title>
<path fill="none" stroke="#191970" d="M806.4972,-72.9005C834.7508,-61.3579 882.3392,-41.9163 914.2017,-28.8993"/>
<polygon fill="#191970" stroke="#191970" points="915.6128,-32.1037 923.5464,-25.0817 912.9654,-25.6236 915.6128,-32.1037"/>
</g>
<!-- Node20&#45;&gt;Node3 -->
<g id="edge23" class="edge">
<title>Node20&#45;&gt;Node3</title>
<path fill="none" stroke="#191970" d="M515.2924,-139.9005C517.6449,-130.0495 521.3713,-114.4451 524.3454,-101.9912"/>
<polygon fill="#191970" stroke="#191970" points="527.7933,-102.6212 526.7118,-92.0817 520.9847,-100.9952 527.7933,-102.6212"/>
</g>
<!-- Node21 -->
<g id="node22" class="node">
<title>Node21</title>
<g id="a_node22"><a xlink:href="../../df/d21/GPUCommonDef_8h.html" target="_top" xlink:title="GPUCommonDef.h">
<polygon fill="none" stroke="#000000" points="341.5,-73 341.5,-92 448.5,-92 448.5,-73 341.5,-73"/>
<text text-anchor="middle" x="395" y="-80" font-family="Helvetica,sans-Serif" font-size="10.00" fill="#000000">GPUCommonDef.h</text>
</a>
</g>
</g>
<!-- Node20&#45;&gt;Node21 -->
<g id="edge24" class="edge">
<title>Node20&#45;&gt;Node21</title>
<path fill="none" stroke="#191970" d="M496.0935,-139.9005C476.378,-128.7062 443.5778,-110.0823 420.7041,-97.0947"/>
<polygon fill="#191970" stroke="#191970" points="422.2993,-93.9757 411.8752,-92.0817 418.843,-100.0629 422.2993,-93.9757"/>
</g>
<!-- Node22 -->
<g id="node23" class="node">
<title>Node22</title>
<g id="a_node23"><a xlink:href="../../d5/d93/GPUCommonDefSettings_8h.html" target="_top" xlink:title="GPUCommonDefSettings.h">
<polygon fill="none" stroke="#000000" points="358,-6 358,-25 506,-25 506,-6 358,-6"/>
<text text-anchor="middle" x="432" y="-13" font-family="Helvetica,sans-Serif" font-size="10.00" fill="#000000">GPUCommonDefSettings.h</text>
</a>
</g>
</g>
<!-- Node21&#45;&gt;Node22 -->
<g id="edge25" class="edge">
<title>Node21&#45;&gt;Node22</title>
<path fill="none" stroke="#191970" d="M400.3012,-72.9005C405.9062,-62.751 414.8839,-46.4941 421.8565,-33.8679"/>
<polygon fill="#191970" stroke="#191970" points="424.9382,-35.5275 426.7086,-25.0817 418.8105,-32.1435 424.9382,-35.5275"/>
</g>
<!-- Node23 -->
<g id="node24" class="node">
<title>Node23</title>
<g id="a_node24"><a xlink:href="../../da/d5a/GPUCommonDefAPI_8h.html" target="_top" xlink:title="GPUCommonDefAPI.h">
<polygon fill="none" stroke="#000000" points="216,-6 216,-25 340,-25 340,-6 216,-6"/>
<text text-anchor="middle" x="278" y="-13" font-family="Helvetica,sans-Serif" font-size="10.00" fill="#000000">GPUCommonDefAPI.h</text>
</a>
</g>
</g>
<!-- Node21&#45;&gt;Node23 -->
<g id="edge26" class="edge">
<title>Node21&#45;&gt;Node23</title>
<path fill="none" stroke="#191970" d="M378.2368,-72.9005C358.6884,-61.7062 326.1661,-43.0823 303.4863,-30.0947"/>
<polygon fill="#191970" stroke="#191970" points="305.1493,-27.0138 294.7322,-25.0817 301.6707,-33.0883 305.1493,-27.0138"/>
</g>
<!-- Node28 -->
<g id="node29" class="node">
<title>Node28</title>
<polygon fill="none" stroke="#bfbfbf" points="809,-207 809,-226 865,-226 865,-207 809,-207"/>
<text text-anchor="middle" x="837" y="-214" font-family="Helvetica,sans-Serif" font-size="10.00" fill="#000000">sstream</text>
</g>
<!-- Node27&#45;&gt;Node28 -->
<g id="edge32" class="edge">
<title>Node27&#45;&gt;Node28</title>
<path fill="none" stroke="#191970" d="M837,-273.9005C837,-264.149 837,-248.7597 837,-236.3695"/>
<polygon fill="#191970" stroke="#191970" points="840.5001,-236.0816 837,-226.0817 833.5001,-236.0817 840.5001,-236.0816"/>
</g>
</g>
</svg>
