<?xml version="1.0" encoding="UTF-8" standalone="no"?>
<!DOCTYPE svg PUBLIC "-//W3C//DTD SVG 1.1//EN"
 "http://www.w3.org/Graphics/SVG/1.1/DTD/svg11.dtd">
<!-- Generated by graphviz version 2.40.1 (20161225.0304)
 -->
<!-- Title: /home/travis/build/AliceO2Group/AliceO2/Detectors/TOF/workflow/include/TOFWorkflow/CompressedAnalysis.h Pages: 1 -->
<svg width="577pt" height="262pt"
 viewBox="0.00 0.00 577.00 262.00" xmlns="http://www.w3.org/2000/svg" xmlns:xlink="http://www.w3.org/1999/xlink">
<g id="graph0" class="graph" transform="scale(1 1) rotate(0) translate(4 258)">
<title>/home/travis/build/AliceO2Group/AliceO2/Detectors/TOF/workflow/include/TOFWorkflow/CompressedAnalysis.h</title>
<!-- Node0 -->
<g id="node1" class="node">
<title>Node0</title>
<polygon fill="#bfbfbf" stroke="#000000" points="156,-190.5 156,-253.5 341,-253.5 341,-190.5 156,-190.5"/>
<text text-anchor="start" x="164" y="-241.5" font-family="Helvetica,sans-Serif" font-size="10.00" fill="#000000">/home/travis/build</text>
<text text-anchor="start" x="164" y="-230.5" font-family="Helvetica,sans-Serif" font-size="10.00" fill="#000000">/AliceO2Group/AliceO2</text>
<text text-anchor="start" x="164" y="-219.5" font-family="Helvetica,sans-Serif" font-size="10.00" fill="#000000">/Detectors/TOF/workflow</text>
<text text-anchor="start" x="164" y="-208.5" font-family="Helvetica,sans-Serif" font-size="10.00" fill="#000000">/include/TOFWorkflow/Compressed</text>
<text text-anchor="middle" x="248.5" y="-197.5" font-family="Helvetica,sans-Serif" font-size="10.00" fill="#000000">Analysis.h</text>
</g>
<!-- Node1 -->
<g id="node2" class="node">
<title>Node1</title>
<g id="a_node2"><a xlink:href="../../d4/dee/RAWDataHeader_8h.html" target="_top" xlink:title="Definition of the RAW Data Header. ">
<polygon fill="none" stroke="#000000" points="0,-62 0,-81 149,-81 149,-62 0,-62"/>
<text text-anchor="middle" x="74.5" y="-69" font-family="Helvetica,sans-Serif" font-size="10.00" fill="#000000">Headers/RAWDataHeader.h</text>
</a>
</g>
</g>
<!-- Node0&#45;&gt;Node1 -->
<g id="edge1" class="edge">
<title>Node0&#45;&gt;Node1</title>
<path fill="none" stroke="#191970" d="M212.0239,-190.4503C175.7439,-159.0702 121.5255,-112.1744 93.2226,-87.694"/>
<polygon fill="#191970" stroke="#191970" points="95.4939,-85.0309 85.6409,-81.1362 90.9146,-90.3253 95.4939,-85.0309"/>
</g>
<!-- Node3 -->
<g id="node4" class="node">
<title>Node3</title>
<g id="a_node4"><a xlink:href="../../da/d2e/CompressedDataFormat_8h.html" target="_top" xlink:title="DataFormatsTOF/Compressed\lDataFormat.h">
<polygon fill="none" stroke="#000000" points="167.5,-56.5 167.5,-86.5 329.5,-86.5 329.5,-56.5 167.5,-56.5"/>
<text text-anchor="start" x="175.5" y="-74.5" font-family="Helvetica,sans-Serif" font-size="10.00" fill="#000000">DataFormatsTOF/Compressed</text>
<text text-anchor="middle" x="248.5" y="-63.5" font-family="Helvetica,sans-Serif" font-size="10.00" fill="#000000">DataFormat.h</text>
</a>
</g>
</g>
<!-- Node0&#45;&gt;Node3 -->
<g id="edge3" class="edge">
<title>Node0&#45;&gt;Node3</title>
<path fill="none" stroke="#191970" d="M248.5,-190.4503C248.5,-162.5449 248.5,-122.3697 248.5,-96.5991"/>
<polygon fill="#191970" stroke="#191970" points="252.0001,-96.5143 248.5,-86.5143 245.0001,-96.5143 252.0001,-96.5143"/>
</g>
<!-- Node4 -->
<g id="node5" class="node">
<title>Node4</title>
<g id="a_node5"><a xlink:href="../../d9/d06/DecoderBase_8h.html" target="_top" xlink:title="TOFReconstruction/Decoder\lBase.h">
<polygon fill="none" stroke="#000000" points="294,-123.5 294,-153.5 445,-153.5 445,-123.5 294,-123.5"/>
<text text-anchor="start" x="302" y="-141.5" font-family="Helvetica,sans-Serif" font-size="10.00" fill="#000000">TOFReconstruction/Decoder</text>
<text text-anchor="middle" x="369.5" y="-130.5" font-family="Helvetica,sans-Serif" font-size="10.00" fill="#000000">Base.h</text>
</a>
</g>
</g>
<!-- Node0&#45;&gt;Node4 -->
<g id="edge5" class="edge">
<title>Node0&#45;&gt;Node4</title>
<path fill="none" stroke="#191970" d="M294.2449,-190.4322C309.2871,-180.0519 325.6253,-168.7771 339.2228,-159.3938"/>
<polygon fill="#191970" stroke="#191970" points="341.4787,-162.0895 347.7213,-153.5291 337.5029,-156.3282 341.4787,-162.0895"/>
</g>
<!-- Node2 -->
<g id="node3" class="node">
<title>Node2</title>
<polygon fill="none" stroke="#bfbfbf" points="223.5,-.5 223.5,-19.5 273.5,-19.5 273.5,-.5 223.5,-.5"/>
<text text-anchor="middle" x="248.5" y="-7.5" font-family="Helvetica,sans-Serif" font-size="10.00" fill="#000000">cstdint</text>
</g>
<!-- Node1&#45;&gt;Node2 -->
<g id="edge2" class="edge">
<title>Node1&#45;&gt;Node2</title>
<path fill="none" stroke="#191970" d="M101.6875,-61.8906C131.918,-51.2057 180.823,-33.9203 213.7947,-22.2665"/>
<polygon fill="#191970" stroke="#191970" points="215.2154,-25.4766 223.4775,-18.8442 212.8827,-18.8768 215.2154,-25.4766"/>
</g>
<!-- Node3&#45;&gt;Node2 -->
<g id="edge4" class="edge">
<title>Node3&#45;&gt;Node2</title>
<path fill="none" stroke="#191970" d="M248.5,-56.2977C248.5,-48.3834 248.5,-38.6043 248.5,-30.0759"/>
<polygon fill="#191970" stroke="#191970" points="252.0001,-29.8469 248.5,-19.8469 245.0001,-29.847 252.0001,-29.8469"/>
</g>
<!-- Node4&#45;&gt;Node1 -->
<g id="edge10" class="edge">
<title>Node4&#45;&gt;Node1</title>
<path fill="none" stroke="#191970" d="M303.2962,-123.4639C249.7383,-111.2999 175.3841,-94.4127 126.1538,-83.2315"/>
<polygon fill="#191970" stroke="#191970" points="126.8785,-79.8071 116.3516,-81.0053 125.3281,-86.6332 126.8785,-79.8071"/>
</g>
<!-- Node4&#45;&gt;Node2 -->
<g id="edge8" class="edge">
<title>Node4&#45;&gt;Node2</title>
<path fill="none" stroke="#191970" d="M410.9344,-123.4134C446.3961,-108.1968 488.5021,-83.1293 466.5,-56 443.8966,-28.1293 339.5432,-16.4949 283.8138,-12.2018"/>
<polygon fill="#191970" stroke="#191970" points="283.9081,-8.6995 273.6795,-11.4609 283.3976,-15.6808 283.9081,-8.6995"/>
</g>
<!-- Node4&#45;&gt;Node3 -->
<g id="edge11" class="edge">
<title>Node4&#45;&gt;Node3</title>
<path fill="none" stroke="#191970" d="M342.3452,-123.4639C325.4169,-114.0903 303.4233,-101.9121 284.9832,-91.7015"/>
<polygon fill="#191970" stroke="#191970" points="286.4266,-88.5 275.9828,-86.7177 283.0357,-94.6239 286.4266,-88.5"/>
</g>
<!-- Node5 -->
<g id="node6" class="node">
<title>Node5</title>
<polygon fill="none" stroke="#bfbfbf" points="514,-62 514,-81 569,-81 569,-62 514,-62"/>
<text text-anchor="middle" x="541.5" y="-69" font-family="Helvetica,sans-Serif" font-size="10.00" fill="#000000">fstream</text>
</g>
<!-- Node4&#45;&gt;Node5 -->
<g id="edge6" class="edge">
<title>Node4&#45;&gt;Node5</title>
<path fill="none" stroke="#191970" d="M408.1002,-123.4639C437.9581,-111.8332 478.9015,-95.8843 507.5258,-84.7342"/>
<polygon fill="#191970" stroke="#191970" points="509.0508,-87.8963 517.0984,-81.0053 506.5099,-81.3737 509.0508,-87.8963"/>
</g>
<!-- Node6 -->
<g id="node7" class="node">
<title>Node6</title>
<polygon fill="none" stroke="#bfbfbf" points="347.5,-62 347.5,-81 391.5,-81 391.5,-62 347.5,-62"/>
<text text-anchor="middle" x="369.5" y="-69" font-family="Helvetica,sans-Serif" font-size="10.00" fill="#000000">string</text>
</g>
<!-- Node4&#45;&gt;Node6 -->
<g id="edge7" class="edge">
<title>Node4&#45;&gt;Node6</title>
<path fill="none" stroke="#191970" d="M369.5,-123.2967C369.5,-113.7699 369.5,-101.3954 369.5,-91.1306"/>
<polygon fill="#191970" stroke="#191970" points="373.0001,-91.0549 369.5,-81.055 366.0001,-91.055 373.0001,-91.0549"/>
</g>
<!-- Node7 -->
<g id="node8" class="node">
<title>Node7</title>
<polygon fill="none" stroke="#bfbfbf" points="410,-62 410,-81 457,-81 457,-62 410,-62"/>
<text text-anchor="middle" x="433.5" y="-69" font-family="Helvetica,sans-Serif" font-size="10.00" fill="#000000">vector</text>
</g>
<!-- Node4&#45;&gt;Node7 -->
<g id="edge9" class="edge">
<title>Node4&#45;&gt;Node7</title>
<path fill="none" stroke="#191970" d="M384.0226,-123.2967C393.8973,-112.9591 406.9749,-99.2684 417.2051,-88.5588"/>
<polygon fill="#191970" stroke="#191970" points="419.9964,-90.7037 424.3729,-81.055 414.9346,-85.8685 419.9964,-90.7037"/>
</g>
</g>
</svg>
