<?xml version="1.0" encoding="UTF-8" standalone="no"?>
<!DOCTYPE svg PUBLIC "-//W3C//DTD SVG 1.1//EN"
 "http://www.w3.org/Graphics/SVG/1.1/DTD/svg11.dtd">
<!-- Generated by graphviz version 2.40.1 (20161225.0304)
 -->
<!-- Title: /home/travis/build/AliceO2Group/AliceO2/Analysis/DataModel/src/DetectorResponse.cxx Pages: 1 -->
<svg width="540pt" height="296pt"
 viewBox="0.00 0.00 540.00 296.00" xmlns="http://www.w3.org/2000/svg" xmlns:xlink="http://www.w3.org/1999/xlink">
<g id="graph0" class="graph" transform="scale(1 1) rotate(0) translate(4 292)">
<title>/home/travis/build/AliceO2Group/AliceO2/Analysis/DataModel/src/DetectorResponse.cxx</title>
<!-- Node0 -->
<g id="node1" class="node">
<title>Node0</title>
<polygon fill="#bfbfbf" stroke="#000000" points="67,-235.5 67,-287.5 201,-287.5 201,-235.5 67,-235.5"/>
<text text-anchor="start" x="75" y="-275.5" font-family="Helvetica,sans-Serif" font-size="10.00" fill="#000000">/home/travis/build</text>
<text text-anchor="start" x="75" y="-264.5" font-family="Helvetica,sans-Serif" font-size="10.00" fill="#000000">/AliceO2Group/AliceO2</text>
<text text-anchor="start" x="75" y="-253.5" font-family="Helvetica,sans-Serif" font-size="10.00" fill="#000000">/Analysis/DataModel/src</text>
<text text-anchor="middle" x="134" y="-242.5" font-family="Helvetica,sans-Serif" font-size="10.00" fill="#000000">/DetectorResponse.cxx</text>
</g>
<!-- Node1 -->
<g id="node2" class="node">
<title>Node1</title>
<polygon fill="none" stroke="#bfbfbf" points="5,-179.5 5,-198.5 53,-198.5 53,-179.5 5,-179.5"/>
<text text-anchor="middle" x="29" y="-186.5" font-family="Helvetica,sans-Serif" font-size="10.00" fill="#000000">TFile.h</text>
</g>
<!-- Node0&#45;&gt;Node1 -->
<g id="edge1" class="edge">
<title>Node0&#45;&gt;Node1</title>
<path fill="none" stroke="#191970" d="M96.0926,-235.3258C81.0105,-224.912 64.1832,-213.2931 51.1535,-204.2965"/>
<polygon fill="#191970" stroke="#191970" points="53.0255,-201.3358 42.8079,-198.534 49.0482,-207.0961 53.0255,-201.3358"/>
</g>
<!-- Node2 -->
<g id="node3" class="node">
<title>Node2</title>
<g id="a_node3"><a xlink:href="../../d0/ded/ParamBase_8h.html" target="_top" xlink:title="Set of utilities to handle the parametrization of the PID response for each detector These are the ba...">
<polygon fill="none" stroke="#000000" points="0,-118 0,-137 124,-137 124,-118 0,-118"/>
<text text-anchor="middle" x="62" y="-125" font-family="Helvetica,sans-Serif" font-size="10.00" fill="#000000">PIDBase/ParamBase.h</text>
</a>
</g>
</g>
<!-- Node0&#45;&gt;Node2 -->
<g id="edge2" class="edge">
<title>Node0&#45;&gt;Node2</title>
<path fill="none" stroke="#191970" d="M119.7167,-235.3789C113.6174,-224.1895 106.435,-210.9672 100,-199 90.3716,-181.094 79.4942,-160.5998 71.8519,-146.1567"/>
<polygon fill="#191970" stroke="#191970" points="74.901,-144.4354 67.1331,-137.2305 68.7125,-147.7069 74.901,-144.4354"/>
</g>
<!-- Node4 -->
<g id="node5" class="node">
<title>Node4</title>
<g id="a_node5"><a xlink:href="../../dc/d68/DetectorResponse_8h.html" target="_top" xlink:title="Handler for any detector (or other entity) response. This provides the basic quantities computed by a...">
<polygon fill="none" stroke="#000000" points="109,-179.5 109,-198.5 267,-198.5 267,-179.5 109,-179.5"/>
<text text-anchor="middle" x="188" y="-186.5" font-family="Helvetica,sans-Serif" font-size="10.00" fill="#000000">PIDBase/DetectorResponse.h</text>
</a>
</g>
</g>
<!-- Node0&#45;&gt;Node4 -->
<g id="edge4" class="edge">
<title>Node0&#45;&gt;Node4</title>
<path fill="none" stroke="#191970" d="M153.4952,-235.3258C160.5805,-225.8132 168.4147,-215.2951 174.8251,-206.6886"/>
<polygon fill="#191970" stroke="#191970" points="177.7323,-208.6446 180.8988,-198.534 172.1184,-204.4632 177.7323,-208.6446"/>
</g>
<!-- Node10 -->
<g id="node11" class="node">
<title>Node10</title>
<g id="a_node11"><a xlink:href="../../dd/da4/Logger_8h.html" target="_top" xlink:title="Framework/Logger.h">
<polygon fill="none" stroke="#000000" points="361.5,-179.5 361.5,-198.5 476.5,-198.5 476.5,-179.5 361.5,-179.5"/>
<text text-anchor="middle" x="419" y="-186.5" font-family="Helvetica,sans-Serif" font-size="10.00" fill="#000000">Framework/Logger.h</text>
</a>
</g>
</g>
<!-- Node0&#45;&gt;Node10 -->
<g id="edge12" class="edge">
<title>Node0&#45;&gt;Node10</title>
<path fill="none" stroke="#191970" d="M201.1801,-244.4103C253.6147,-231.0717 325.1427,-212.876 371.694,-201.034"/>
<polygon fill="#191970" stroke="#191970" points="372.6919,-204.3917 381.5204,-198.5343 370.9661,-197.6077 372.6919,-204.3917"/>
</g>
<!-- Node3 -->
<g id="node4" class="node">
<title>Node3</title>
<polygon fill="none" stroke="#bfbfbf" points="28.5,-56.5 28.5,-75.5 95.5,-75.5 95.5,-56.5 28.5,-56.5"/>
<text text-anchor="middle" x="62" y="-63.5" font-family="Helvetica,sans-Serif" font-size="10.00" fill="#000000">TNamed.h</text>
</g>
<!-- Node2&#45;&gt;Node3 -->
<g id="edge3" class="edge">
<title>Node2&#45;&gt;Node3</title>
<path fill="none" stroke="#191970" d="M62,-117.8906C62,-109.3657 62,-96.6392 62,-85.9235"/>
<polygon fill="#191970" stroke="#191970" points="65.5001,-85.7448 62,-75.7449 58.5001,-85.7449 65.5001,-85.7448"/>
</g>
<!-- Node4&#45;&gt;Node2 -->
<g id="edge11" class="edge">
<title>Node4&#45;&gt;Node2</title>
<path fill="none" stroke="#191970" d="M168.3125,-179.3906C147.5078,-169.2359 114.489,-153.1196 90.7681,-141.5416"/>
<polygon fill="#191970" stroke="#191970" points="92.0712,-138.283 81.5493,-137.0419 89.0007,-144.5736 92.0712,-138.283"/>
</g>
<!-- Node5 -->
<g id="node6" class="node">
<title>Node5</title>
<polygon fill="none" stroke="#bfbfbf" points="167.5,-.5 167.5,-19.5 226.5,-19.5 226.5,-.5 167.5,-.5"/>
<text text-anchor="middle" x="197" y="-7.5" font-family="Helvetica,sans-Serif" font-size="10.00" fill="#000000">Rtypes.h</text>
</g>
<!-- Node4&#45;&gt;Node5 -->
<g id="edge5" class="edge">
<title>Node4&#45;&gt;Node5</title>
<path fill="none" stroke="#191970" d="M183.3151,-179.4115C179.1398,-170.2959 173.3386,-156.0744 171,-143 164.1917,-104.9374 161.1633,-93.3945 171,-56 173.6112,-46.0734 178.9067,-36.0366 184.0412,-27.8822"/>
<polygon fill="#191970" stroke="#191970" points="186.9463,-29.8342 189.6181,-19.5817 181.136,-25.9303 186.9463,-29.8342"/>
</g>
<!-- Node6 -->
<g id="node7" class="node">
<title>Node6</title>
<polygon fill="none" stroke="#bfbfbf" points="180,-118 180,-137 236,-137 236,-118 180,-118"/>
<text text-anchor="middle" x="208" y="-125" font-family="Helvetica,sans-Serif" font-size="10.00" fill="#000000">TMath.h</text>
</g>
<!-- Node4&#45;&gt;Node6 -->
<g id="edge6" class="edge">
<title>Node4&#45;&gt;Node6</title>
<path fill="none" stroke="#191970" d="M191.125,-179.3906C193.9265,-170.776 198.1233,-157.8708 201.6306,-147.0858"/>
<polygon fill="#191970" stroke="#191970" points="205.0667,-147.8371 204.8309,-137.2449 198.4098,-145.6722 205.0667,-147.8371"/>
</g>
<!-- Node7 -->
<g id="node8" class="node">
<title>Node7</title>
<g id="a_node8"><a xlink:href="../../d5/d08/DataFormats_2Reconstruction_2include_2ReconstructionDataFormats_2PID_8h.html" target="_top" xlink:title="ReconstructionDataFormats\l/PID.h">
<polygon fill="none" stroke="#000000" points="254,-112.5 254,-142.5 406,-142.5 406,-112.5 254,-112.5"/>
<text text-anchor="start" x="262" y="-130.5" font-family="Helvetica,sans-Serif" font-size="10.00" fill="#000000">ReconstructionDataFormats</text>
<text text-anchor="middle" x="330" y="-119.5" font-family="Helvetica,sans-Serif" font-size="10.00" fill="#000000">/PID.h</text>
</a>
</g>
</g>
<!-- Node4&#45;&gt;Node7 -->
<g id="edge7" class="edge">
<title>Node4&#45;&gt;Node7</title>
<path fill="none" stroke="#191970" d="M210.1875,-179.3906C230.3842,-170.6435 260.7944,-157.4728 285.923,-146.5897"/>
<polygon fill="#191970" stroke="#191970" points="287.4776,-149.7306 295.2629,-142.5446 284.6955,-143.3072 287.4776,-149.7306"/>
</g>
<!-- Node8 -->
<g id="node9" class="node">
<title>Node8</title>
<g id="a_node9"><a xlink:href="../../d2/d45/GPUCommonRtypes_8h.html" target="_top" xlink:title="GPUCommonRtypes.h">
<polygon fill="none" stroke="#000000" points="180.5,-56.5 180.5,-75.5 305.5,-75.5 305.5,-56.5 180.5,-56.5"/>
<text text-anchor="middle" x="243" y="-63.5" font-family="Helvetica,sans-Serif" font-size="10.00" fill="#000000">GPUCommonRtypes.h</text>
</a>
</g>
</g>
<!-- Node7&#45;&gt;Node8 -->
<g id="edge8" class="edge">
<title>Node7&#45;&gt;Node8</title>
<path fill="none" stroke="#191970" d="M308.4944,-112.2977C295.2032,-102.9022 278.1943,-90.8787 264.8412,-81.4395"/>
<polygon fill="#191970" stroke="#191970" points="266.8561,-78.5776 256.67,-75.6633 262.8154,-84.2937 266.8561,-78.5776"/>
</g>
<!-- Node9 -->
<g id="node10" class="node">
<title>Node9</title>
<g id="a_node10"><a xlink:href="../../d3/d9d/PhysicsConstants_8h.html" target="_top" xlink:title="Header to collect physics constants. ">
<polygon fill="none" stroke="#000000" points="323.5,-56.5 323.5,-75.5 530.5,-75.5 530.5,-56.5 323.5,-56.5"/>
<text text-anchor="middle" x="427" y="-63.5" font-family="Helvetica,sans-Serif" font-size="10.00" fill="#000000">CommonConstants/PhysicsConstants.h</text>
</a>
</g>
</g>
<!-- Node7&#45;&gt;Node9 -->
<g id="edge10" class="edge">
<title>Node7&#45;&gt;Node9</title>
<path fill="none" stroke="#191970" d="M353.9775,-112.2977C368.9376,-102.8127 388.122,-90.6495 403.0726,-81.1705"/>
<polygon fill="#191970" stroke="#191970" points="405.1873,-83.9739 411.7587,-75.6633 401.439,-78.062 405.1873,-83.9739"/>
</g>
<!-- Node8&#45;&gt;Node5 -->
<g id="edge9" class="edge">
<title>Node8&#45;&gt;Node5</title>
<path fill="none" stroke="#191970" d="M234.9874,-56.2455C228.5232,-48.3761 219.2615,-37.101 211.5017,-27.6542"/>
<polygon fill="#191970" stroke="#191970" points="213.9727,-25.1484 204.9208,-19.6427 208.5636,-29.5916 213.9727,-25.1484"/>
</g>
<!-- Node11 -->
<g id="node12" class="node">
<title>Node11</title>
<polygon fill="none" stroke="#bfbfbf" points="424,-118 424,-137 532,-137 532,-118 424,-118"/>
<text text-anchor="middle" x="478" y="-125" font-family="Helvetica,sans-Serif" font-size="10.00" fill="#000000">fairlogger/Logger.h</text>
</g>
<!-- Node10&#45;&gt;Node11 -->
<g id="edge13" class="edge">
<title>Node10&#45;&gt;Node11</title>
<path fill="none" stroke="#191970" d="M428.2188,-179.3906C437.0858,-170.1478 450.6912,-155.966 461.4389,-144.7628"/>
<polygon fill="#191970" stroke="#191970" points="464.2541,-146.8841 468.6513,-137.2449 459.2027,-142.0381 464.2541,-146.8841"/>
</g>
</g>
</svg>
