<?xml version="1.0" encoding="UTF-8" standalone="no"?>
<!DOCTYPE svg PUBLIC "-//W3C//DTD SVG 1.1//EN"
 "http://www.w3.org/Graphics/SVG/1.1/DTD/svg11.dtd">
<!-- Generated by graphviz version 2.40.1 (20161225.0304)
 -->
<!-- Title: /home/travis/build/AliceO2Group/AliceO2/Utilities/DataSampling/src/DataSamplingConditionFactory.cxx Pages: 1 -->
<svg width="351pt" height="262pt"
 viewBox="0.00 0.00 351.00 262.00" xmlns="http://www.w3.org/2000/svg" xmlns:xlink="http://www.w3.org/1999/xlink">
<g id="graph0" class="graph" transform="scale(1 1) rotate(0) translate(4 258)">
<title>/home/travis/build/AliceO2Group/AliceO2/Utilities/DataSampling/src/DataSamplingConditionFactory.cxx</title>
<!-- Node0 -->
<g id="node1" class="node">
<title>Node0</title>
<polygon fill="#bfbfbf" stroke="#000000" points="0,-201.5 0,-253.5 206,-253.5 206,-201.5 0,-201.5"/>
<text text-anchor="start" x="8" y="-241.5" font-family="Helvetica,sans-Serif" font-size="10.00" fill="#000000">/home/travis/build</text>
<text text-anchor="start" x="8" y="-230.5" font-family="Helvetica,sans-Serif" font-size="10.00" fill="#000000">/AliceO2Group/AliceO2</text>
<text text-anchor="start" x="8" y="-219.5" font-family="Helvetica,sans-Serif" font-size="10.00" fill="#000000">/Utilities/DataSampling</text>
<text text-anchor="middle" x="103" y="-208.5" font-family="Helvetica,sans-Serif" font-size="10.00" fill="#000000">/src/DataSamplingConditionFactory.cxx</text>
</g>
<!-- Node1 -->
<g id="node2" class="node">
<title>Node1</title>
<polygon fill="none" stroke="#bfbfbf" points="45,-73 45,-92 103,-92 103,-73 45,-73"/>
<text text-anchor="middle" x="74" y="-80" font-family="Helvetica,sans-Serif" font-size="10.00" fill="#000000">memory</text>
</g>
<!-- Node0&#45;&gt;Node1 -->
<g id="edge1" class="edge">
<title>Node0&#45;&gt;Node1</title>
<path fill="none" stroke="#191970" d="M80.3552,-201.3186C72.6387,-190.7588 64.9639,-178.0054 61,-165 54.6194,-144.0654 60.282,-119.1376 66.0045,-102.2028"/>
<polygon fill="#191970" stroke="#191970" points="69.462,-102.944 69.6477,-92.3507 62.8965,-100.5161 69.462,-102.944"/>
</g>
<!-- Node2 -->
<g id="node3" class="node">
<title>Node2</title>
<polygon fill="none" stroke="#bfbfbf" points="70.5,-140 70.5,-159 135.5,-159 135.5,-140 70.5,-140"/>
<text text-anchor="middle" x="103" y="-147" font-family="Helvetica,sans-Serif" font-size="10.00" fill="#000000">stdexcept</text>
</g>
<!-- Node0&#45;&gt;Node2 -->
<g id="edge2" class="edge">
<title>Node0&#45;&gt;Node2</title>
<path fill="none" stroke="#191970" d="M103,-201.0928C103,-190.6735 103,-178.911 103,-169.2512"/>
<polygon fill="#191970" stroke="#191970" points="106.5001,-169.0838 103,-159.0839 99.5001,-169.0839 106.5001,-169.0838"/>
</g>
<!-- Node3 -->
<g id="node4" class="node">
<title>Node3</title>
<g id="a_node4"><a xlink:href="../../de/dca/DataSamplingConditionFactory_8h.html" target="_top" xlink:title="A definition of DataSamplingConditionFactory. ">
<polygon fill="none" stroke="#000000" points="154,-134.5 154,-164.5 312,-164.5 312,-134.5 154,-134.5"/>
<text text-anchor="start" x="162" y="-152.5" font-family="Helvetica,sans-Serif" font-size="10.00" fill="#000000">DataSampling/DataSampling</text>
<text text-anchor="middle" x="233" y="-141.5" font-family="Helvetica,sans-Serif" font-size="10.00" fill="#000000">ConditionFactory.h</text>
</a>
</g>
</g>
<!-- Node0&#45;&gt;Node3 -->
<g id="edge3" class="edge">
<title>Node0&#45;&gt;Node3</title>
<path fill="none" stroke="#191970" d="M146.6498,-201.3101C163.6681,-191.0991 182.8831,-179.5701 198.8593,-169.9844"/>
<polygon fill="#191970" stroke="#191970" points="201.0762,-172.736 207.8504,-164.5897 197.4747,-166.7335 201.0762,-172.736"/>
</g>
<!-- Node3&#45;&gt;Node1 -->
<g id="edge8" class="edge">
<title>Node3&#45;&gt;Node1</title>
<path fill="none" stroke="#191970" d="M197.3173,-134.4639C170.0383,-122.969 132.7496,-107.2561 106.3378,-96.1266"/>
<polygon fill="#191970" stroke="#191970" points="107.3658,-92.7618 96.7914,-92.1039 104.6475,-99.2125 107.3658,-92.7618"/>
</g>
<!-- Node4 -->
<g id="node5" class="node">
<title>Node4</title>
<g id="a_node5"><a xlink:href="../../dd/dcf/DataSamplingCondition_8h.html" target="_top" xlink:title="A standarised data sampling condition, to decide if given data sample should be passed forward...">
<polygon fill="none" stroke="#000000" points="137,-67.5 137,-97.5 295,-97.5 295,-67.5 137,-67.5"/>
<text text-anchor="start" x="145" y="-85.5" font-family="Helvetica,sans-Serif" font-size="10.00" fill="#000000">DataSampling/DataSampling</text>
<text text-anchor="middle" x="216" y="-74.5" font-family="Helvetica,sans-Serif" font-size="10.00" fill="#000000">Condition.h</text>
</a>
</g>
</g>
<!-- Node3&#45;&gt;Node4 -->
<g id="edge4" class="edge">
<title>Node3&#45;&gt;Node4</title>
<path fill="none" stroke="#191970" d="M229.1424,-134.2967C227.1428,-126.4156 224.6486,-116.5857 222.3721,-107.6135"/>
<polygon fill="#191970" stroke="#191970" points="225.6943,-106.4752 219.8423,-97.6432 218.9093,-108.1968 225.6943,-106.4752"/>
</g>
<!-- Node7 -->
<g id="node8" class="node">
<title>Node7</title>
<polygon fill="none" stroke="#bfbfbf" points="299,-6 299,-25 343,-25 343,-6 299,-6"/>
<text text-anchor="middle" x="321" y="-13" font-family="Helvetica,sans-Serif" font-size="10.00" fill="#000000">string</text>
</g>
<!-- Node3&#45;&gt;Node7 -->
<g id="edge9" class="edge">
<title>Node3&#45;&gt;Node7</title>
<path fill="none" stroke="#191970" d="M263.4327,-134.3375C277.8695,-125.6276 294.0895,-113.3522 304,-98 316.2244,-79.0634 319.8912,-53.0241 320.8738,-35.2988"/>
<polygon fill="#191970" stroke="#191970" points="324.3739,-35.3482 321.1931,-25.2421 317.3774,-35.1259 324.3739,-35.3482"/>
</g>
<!-- Node5 -->
<g id="node6" class="node">
<title>Node5</title>
<g id="a_node6"><a xlink:href="../../d5/dfb/DataRef_8h.html" target="_top" xlink:title="Framework/DataRef.h">
<polygon fill="none" stroke="#000000" points="23.5,-6 23.5,-25 144.5,-25 144.5,-6 23.5,-6"/>
<text text-anchor="middle" x="84" y="-13" font-family="Helvetica,sans-Serif" font-size="10.00" fill="#000000">Framework/DataRef.h</text>
</a>
</g>
</g>
<!-- Node4&#45;&gt;Node5 -->
<g id="edge5" class="edge">
<title>Node4&#45;&gt;Node5</title>
<path fill="none" stroke="#191970" d="M186.3766,-67.4639C164.1289,-56.1715 133.8616,-40.8086 112.0139,-29.7192"/>
<polygon fill="#191970" stroke="#191970" points="113.4224,-26.5091 102.9212,-25.1039 110.2541,-32.7511 113.4224,-26.5091"/>
</g>
<!-- Node6 -->
<g id="node7" class="node">
<title>Node6</title>
<polygon fill="none" stroke="#bfbfbf" points="162.5,-.5 162.5,-30.5 275.5,-30.5 275.5,-.5 162.5,-.5"/>
<text text-anchor="start" x="170.5" y="-18.5" font-family="Helvetica,sans-Serif" font-size="10.00" fill="#000000">boost/property_tree</text>
<text text-anchor="middle" x="219" y="-7.5" font-family="Helvetica,sans-Serif" font-size="10.00" fill="#000000">/ptree_fwd.hpp</text>
</g>
<!-- Node4&#45;&gt;Node6 -->
<g id="edge6" class="edge">
<title>Node4&#45;&gt;Node6</title>
<path fill="none" stroke="#191970" d="M216.6807,-67.2967C217.0298,-59.5013 217.4642,-49.7991 217.8624,-40.9064"/>
<polygon fill="#191970" stroke="#191970" points="221.371,-40.7898 218.3219,-30.6432 214.378,-40.4766 221.371,-40.7898"/>
</g>
<!-- Node4&#45;&gt;Node7 -->
<g id="edge7" class="edge">
<title>Node4&#45;&gt;Node7</title>
<path fill="none" stroke="#191970" d="M239.564,-67.4639C256.7056,-56.526 279.8321,-41.769 297.0602,-30.7759"/>
<polygon fill="#191970" stroke="#191970" points="299.4018,-33.4336 305.9491,-25.1039 295.6364,-27.5326 299.4018,-33.4336"/>
</g>
</g>
</svg>
