<?xml version="1.0" encoding="UTF-8" standalone="no"?>
<!DOCTYPE svg PUBLIC "-//W3C//DTD SVG 1.1//EN"
 "http://www.w3.org/Graphics/SVG/1.1/DTD/svg11.dtd">
<!-- Generated by graphviz version 2.40.1 (20161225.0304)
 -->
<!-- Title: /home/travis/build/AliceO2Group/AliceO2/Detectors/FIT/FV0/base/include/FV0Base/Constants.h Pages: 1 -->
<!--zoomable 439 -->
<svg id="main" version="1.1" xmlns="http://www.w3.org/2000/svg" xmlns:xlink="http://www.w3.org/1999/xlink" xml:space="preserve" onload="init(evt)">
<style type="text/css"><![CDATA[
.edge:hover path { stroke: red; }
.edge:hover polygon { stroke: red; fill: red; }
]]></style>
<script type="text/javascript"><![CDATA[
var edges = document.getElementsByTagName('g');
if (edges && edges.length) {
  for (var i=0;i<edges.length;i++) {
    if (edges[i].id.substr(0,4)=='edge') {
      edges[i].setAttribute('class','edge');
    }
  }
}
]]></script>
        <defs>
                <circle id="rim" cx="0" cy="0" r="7"/>
                <circle id="rim2" cx="0" cy="0" r="3.5"/>
                <g id="zoomPlus">
                        <use xlink:href="#rim" fill="#404040">
                                <set attributeName="fill" to="#808080" begin="zoomplus.mouseover" end="zoomplus.mouseout"/>
                        </use>
                        <path d="M-4,0h8M0,-4v8" fill="none" stroke="white" stroke-width="1.5" pointer-events="none"/>
                </g>
                <g id="zoomMin">
                        <use xlink:href="#rim" fill="#404040">
                                <set attributeName="fill" to="#808080" begin="zoomminus.mouseover" end="zoomminus.mouseout"/>
                        </use>
                        <path d="M-4,0h8" fill="none" stroke="white" stroke-width="1.5" pointer-events="none"/>
                </g>
                <g id="dirArrow">
                        <path fill="none" stroke="white" stroke-width="1.5" d="M0,-3.0v7 M-2.5,-0.5L0,-3.0L2.5,-0.5"/>
                </g>
               <g id="resetDef">
                       <use xlink:href="#rim2" fill="#404040">
                               <set attributeName="fill" to="#808080" begin="reset.mouseover" end="reset.mouseout"/>
                       </use>
               </g>
        </defs>

<script type="text/javascript">
var viewWidth = 1063;
var viewHeight = 439;
var sectionId = 'dynsection-1';
</script>
<script xlink:href="../../svgpan.js"/>
<svg id="graph" class="graph">
<g id="viewport">
<title>/home/travis/build/AliceO2Group/AliceO2/Detectors/FIT/FV0/base/include/FV0Base/Constants.h</title>
<!-- Node7 -->
<g id="node1" class="node">
<title>Node7</title>
<polygon fill="#bfbfbf" stroke="#000000" points="595,-378.5 595,-430.5 756,-430.5 756,-378.5 595,-378.5"/>
<text text-anchor="start" x="603" y="-418.5" font-family="Helvetica,sans-Serif" font-size="10.00" fill="#000000">/home/travis/build</text>
<text text-anchor="start" x="603" y="-407.5" font-family="Helvetica,sans-Serif" font-size="10.00" fill="#000000">/AliceO2Group/AliceO2</text>
<text text-anchor="start" x="603" y="-396.5" font-family="Helvetica,sans-Serif" font-size="10.00" fill="#000000">/Detectors/FIT/FV0/base</text>
<text text-anchor="middle" x="675.5" y="-385.5" font-family="Helvetica,sans-Serif" font-size="10.00" fill="#000000">/include/FV0Base/Constants.h</text>
</g>
<!-- Node8 -->
<g id="node2" class="node">
<title>Node8</title>
<g id="a_node2"><a xlink:href="../../d8/d41/FV0_2include_2DataFormatsFV0_2LookUpTable_8h.html" target="_top" xlink:title="/home/travis/build\l/AliceO2Group/AliceO2\l/DataFormats/Detectors\l/FIT/FV0/include/DataFormatsFV0\l/LookUpTable.h">
<polygon fill="none" stroke="#000000" points="396,-278.5 396,-341.5 573,-341.5 573,-278.5 396,-278.5"/>
<text text-anchor="start" x="404" y="-329.5" font-family="Helvetica,sans-Serif" font-size="10.00" fill="#000000">/home/travis/build</text>
<text text-anchor="start" x="404" y="-318.5" font-family="Helvetica,sans-Serif" font-size="10.00" fill="#000000">/AliceO2Group/AliceO2</text>
<text text-anchor="start" x="404" y="-307.5" font-family="Helvetica,sans-Serif" font-size="10.00" fill="#000000">/DataFormats/Detectors</text>
<text text-anchor="start" x="404" y="-296.5" font-family="Helvetica,sans-Serif" font-size="10.00" fill="#000000">/FIT/FV0/include/DataFormatsFV0</text>
<text text-anchor="middle" x="484.5" y="-285.5" font-family="Helvetica,sans-Serif" font-size="10.00" fill="#000000">/LookUpTable.h</text>
</a>
</g>
</g>
<!-- Node7&#45;&gt;Node8 -->
<g id="edge1" class="edge">
<title>Node7&#45;&gt;Node8</title>
<path fill="none" stroke="#191970" d="M613.6842,-373.9157C592.7425,-363.5545 569.3221,-351.967 548.234,-341.5333"/>
<polygon fill="#191970" stroke="#191970" points="612.2877,-377.1297 622.8028,-378.4273 615.3919,-370.8557 612.2877,-377.1297"/>
</g>
<!-- Node9 -->
<g id="node3" class="node">
<title>Node9</title>
<g id="a_node3"><a xlink:href="../../dc/da9/FV0_2include_2DataFormatsFV0_2RawEventData_8h.html" target="_top" xlink:title="/home/travis/build\l/AliceO2Group/AliceO2\l/DataFormats/Detectors\l/FIT/FV0/include/DataFormatsFV0\l/RawEventData.h">
<polygon fill="none" stroke="#000000" points="261,-178.5 261,-241.5 438,-241.5 438,-178.5 261,-178.5"/>
<text text-anchor="start" x="269" y="-229.5" font-family="Helvetica,sans-Serif" font-size="10.00" fill="#000000">/home/travis/build</text>
<text text-anchor="start" x="269" y="-218.5" font-family="Helvetica,sans-Serif" font-size="10.00" fill="#000000">/AliceO2Group/AliceO2</text>
<text text-anchor="start" x="269" y="-207.5" font-family="Helvetica,sans-Serif" font-size="10.00" fill="#000000">/DataFormats/Detectors</text>
<text text-anchor="start" x="269" y="-196.5" font-family="Helvetica,sans-Serif" font-size="10.00" fill="#000000">/FIT/FV0/include/DataFormatsFV0</text>
<text text-anchor="middle" x="349.5" y="-185.5" font-family="Helvetica,sans-Serif" font-size="10.00" fill="#000000">/RawEventData.h</text>
</a>
</g>
</g>
<!-- Node7&#45;&gt;Node9 -->
<g id="edge11" class="edge">
<title>Node7&#45;&gt;Node9</title>
<path fill="none" stroke="#191970" d="M584.673,-395.1057C510.9795,-385.6765 414.8346,-368.6753 386.5,-342 359.0338,-316.1422 351.3951,-271.7034 349.5606,-241.6043"/>
<polygon fill="#191970" stroke="#191970" points="584.556,-398.6183 594.913,-396.3862 585.4246,-391.6723 584.556,-398.6183"/>
</g>
<!-- Node15 -->
<g id="node9" class="node">
<title>Node15</title>
<g id="a_node9"><a xlink:href="../../d5/da7/FV0_2simulation_2src_2Digits2Raw_8cxx.html" target="_top" xlink:title="/home/travis/build\l/AliceO2Group/AliceO2\l/Detectors/FIT/FV0/simulation\l/src/Digits2Raw.cxx">
<polygon fill="none" stroke="#000000" points="559.5,-.5 559.5,-52.5 719.5,-52.5 719.5,-.5 559.5,-.5"/>
<text text-anchor="start" x="567.5" y="-40.5" font-family="Helvetica,sans-Serif" font-size="10.00" fill="#000000">/home/travis/build</text>
<text text-anchor="start" x="567.5" y="-29.5" font-family="Helvetica,sans-Serif" font-size="10.00" fill="#000000">/AliceO2Group/AliceO2</text>
<text text-anchor="start" x="567.5" y="-18.5" font-family="Helvetica,sans-Serif" font-size="10.00" fill="#000000">/Detectors/FIT/FV0/simulation</text>
<text text-anchor="middle" x="639.5" y="-7.5" font-family="Helvetica,sans-Serif" font-size="10.00" fill="#000000">/src/Digits2Raw.cxx</text>
</a>
</g>
</g>
<!-- Node7&#45;&gt;Node15 -->
<g id="edge17" class="edge">
<title>Node7&#45;&gt;Node15</title>
<path fill="none" stroke="#191970" d="M656.6554,-368.9024C652.9325,-360.3171 649.5467,-351.014 647.5,-342 623.6606,-237.0063 631.705,-107.3093 636.7322,-52.6921"/>
<polygon fill="#191970" stroke="#191970" points="653.5901,-370.6141 660.9484,-378.2369 659.9498,-367.6892 653.5901,-370.6141"/>
</g>
<!-- Node16 -->
<g id="node10" class="node">
<title>Node16</title>
<g id="a_node10"><a xlink:href="../../d7/d64/test__ctf__io__fv0_8cxx.html" target="_top" xlink:title="/home/travis/build\l/AliceO2Group/AliceO2\l/Detectors/CTF/test/test\l_ctf_io_fv0.cxx">
<polygon fill="none" stroke="#000000" points="657,-284 657,-336 788,-336 788,-284 657,-284"/>
<text text-anchor="start" x="665" y="-324" font-family="Helvetica,sans-Serif" font-size="10.00" fill="#000000">/home/travis/build</text>
<text text-anchor="start" x="665" y="-313" font-family="Helvetica,sans-Serif" font-size="10.00" fill="#000000">/AliceO2Group/AliceO2</text>
<text text-anchor="start" x="665" y="-302" font-family="Helvetica,sans-Serif" font-size="10.00" fill="#000000">/Detectors/CTF/test/test</text>
<text text-anchor="middle" x="722.5" y="-291" font-family="Helvetica,sans-Serif" font-size="10.00" fill="#000000">_ctf_io_fv0.cxx</text>
</a>
</g>
</g>
<!-- Node7&#45;&gt;Node16 -->
<g id="edge12" class="edge">
<title>Node7&#45;&gt;Node16</title>
<path fill="none" stroke="#191970" d="M693.0783,-369.1565C698.4924,-358.2706 704.3552,-346.4827 709.4118,-336.3157"/>
<polygon fill="#191970" stroke="#191970" points="689.7868,-367.9149 688.4674,-378.4273 696.0544,-371.0322 689.7868,-367.9149"/>
</g>
<!-- Node17 -->
<g id="node11" class="node">
<title>Node17</title>
<g id="a_node11"><a xlink:href="../../d6/d82/FIT_2FV0_2simulation_2include_2FV0Simulation_2Digitizer_8h.html" target="_top" xlink:title="/home/travis/build\l/AliceO2Group/AliceO2\l/Detectors/FIT/FV0/simulation\l/include/FV0Simulation/Digitizer.h">
<polygon fill="none" stroke="#000000" points="845,-284 845,-336 1026,-336 1026,-284 845,-284"/>
<text text-anchor="start" x="853" y="-324" font-family="Helvetica,sans-Serif" font-size="10.00" fill="#000000">/home/travis/build</text>
<text text-anchor="start" x="853" y="-313" font-family="Helvetica,sans-Serif" font-size="10.00" fill="#000000">/AliceO2Group/AliceO2</text>
<text text-anchor="start" x="853" y="-302" font-family="Helvetica,sans-Serif" font-size="10.00" fill="#000000">/Detectors/FIT/FV0/simulation</text>
<text text-anchor="middle" x="935.5" y="-291" font-family="Helvetica,sans-Serif" font-size="10.00" fill="#000000">/include/FV0Simulation/Digitizer.h</text>
</a>
</g>
</g>
<!-- Node7&#45;&gt;Node17 -->
<g id="edge13" class="edge">
<title>Node7&#45;&gt;Node17</title>
<path fill="none" stroke="#191970" d="M756.7325,-374.9751C790.9371,-362.543 830.4096,-348.1963 863.5488,-336.1515"/>
<polygon fill="#191970" stroke="#191970" points="755.4373,-371.7218 747.2344,-378.4273 757.8285,-378.3007 755.4373,-371.7218"/>
</g>
<!-- Node18 -->
<g id="node12" class="node">
<title>Node18</title>
<g id="a_node12"><a xlink:href="../../da/d9b/FIT_2FV0_2simulation_2src_2Digitizer_8cxx.html" target="_top" xlink:title="/home/travis/build\l/AliceO2Group/AliceO2\l/Detectors/FIT/FV0/simulation\l/src/Digitizer.cxx">
<polygon fill="none" stroke="#000000" points="736.5,-184 736.5,-236 896.5,-236 896.5,-184 736.5,-184"/>
<text text-anchor="start" x="744.5" y="-224" font-family="Helvetica,sans-Serif" font-size="10.00" fill="#000000">/home/travis/build</text>
<text text-anchor="start" x="744.5" y="-213" font-family="Helvetica,sans-Serif" font-size="10.00" fill="#000000">/AliceO2Group/AliceO2</text>
<text text-anchor="start" x="744.5" y="-202" font-family="Helvetica,sans-Serif" font-size="10.00" fill="#000000">/Detectors/FIT/FV0/simulation</text>
<text text-anchor="middle" x="816.5" y="-191" font-family="Helvetica,sans-Serif" font-size="10.00" fill="#000000">/src/Digitizer.cxx</text>
</a>
</g>
</g>
<!-- Node7&#45;&gt;Node18 -->
<g id="edge16" class="edge">
<title>Node7&#45;&gt;Node18</title>
<path fill="none" stroke="#191970" d="M761.4684,-373.2889C774.9441,-364.9879 787.4003,-354.6873 796.5,-342 818.8569,-310.8286 820.6658,-264.7925 819.1508,-236.1391"/>
<polygon fill="#191970" stroke="#191970" points="759.4091,-370.4359 752.4907,-378.46 762.903,-376.5016 759.4091,-370.4359"/>
</g>
<!-- Node8&#45;&gt;Node9 -->
<g id="edge2" class="edge">
<title>Node8&#45;&gt;Node9</title>
<path fill="none" stroke="#191970" d="M433.4954,-272.2188C419.9516,-262.1863 405.4639,-251.4547 392.4003,-241.778"/>
<polygon fill="#191970" stroke="#191970" points="431.6663,-275.2195 441.7852,-278.3594 435.8329,-269.5946 431.6663,-275.2195"/>
</g>
<!-- Node11 -->
<g id="node5" class="node">
<title>Node11</title>
<g id="a_node5"><a xlink:href="../../d5/db3/FV0_2reconstruction_2include_2FV0Reconstruction_2ReadRaw_8h.html" target="_top" xlink:title="/home/travis/build\l/AliceO2Group/AliceO2\l/Detectors/FIT/FV0/reconstruction\l/include/FV0Reconstruction/ReadRaw.h">
<polygon fill="none" stroke="#000000" points="184.5,-89.5 184.5,-141.5 388.5,-141.5 388.5,-89.5 184.5,-89.5"/>
<text text-anchor="start" x="192.5" y="-129.5" font-family="Helvetica,sans-Serif" font-size="10.00" fill="#000000">/home/travis/build</text>
<text text-anchor="start" x="192.5" y="-118.5" font-family="Helvetica,sans-Serif" font-size="10.00" fill="#000000">/AliceO2Group/AliceO2</text>
<text text-anchor="start" x="192.5" y="-107.5" font-family="Helvetica,sans-Serif" font-size="10.00" fill="#000000">/Detectors/FIT/FV0/reconstruction</text>
<text text-anchor="middle" x="286.5" y="-96.5" font-family="Helvetica,sans-Serif" font-size="10.00" fill="#000000">/include/FV0Reconstruction/ReadRaw.h</text>
</a>
</g>
</g>
<!-- Node8&#45;&gt;Node11 -->
<g id="edge9" class="edge">
<title>Node8&#45;&gt;Node11</title>
<path fill="none" stroke="#191970" d="M482.0069,-268.3442C478.2289,-239.7429 468.9683,-202.6391 446.5,-178 430.927,-160.9224 410.1193,-148.4568 388.6735,-139.3758"/>
<polygon fill="#191970" stroke="#191970" points="478.55,-268.9211 483.165,-278.4579 485.5045,-268.1246 478.55,-268.9211"/>
</g>
<!-- Node13 -->
<g id="node7" class="node">
<title>Node13</title>
<g id="a_node7"><a xlink:href="../../d6/dc1/FV0_2simulation_2include_2FV0Simulation_2Digits2Raw_8h.html" target="_top" xlink:title="/home/travis/build\l/AliceO2Group/AliceO2\l/Detectors/FIT/FV0/simulation\l/include/FV0Simulation/Digits2Raw.h">
<polygon fill="none" stroke="#000000" points="406,-89.5 406,-141.5 601,-141.5 601,-89.5 406,-89.5"/>
<text text-anchor="start" x="414" y="-129.5" font-family="Helvetica,sans-Serif" font-size="10.00" fill="#000000">/home/travis/build</text>
<text text-anchor="start" x="414" y="-118.5" font-family="Helvetica,sans-Serif" font-size="10.00" fill="#000000">/AliceO2Group/AliceO2</text>
<text text-anchor="start" x="414" y="-107.5" font-family="Helvetica,sans-Serif" font-size="10.00" fill="#000000">/Detectors/FIT/FV0/simulation</text>
<text text-anchor="middle" x="503.5" y="-96.5" font-family="Helvetica,sans-Serif" font-size="10.00" fill="#000000">/include/FV0Simulation/Digits2Raw.h</text>
</a>
</g>
</g>
<!-- Node8&#45;&gt;Node13 -->
<g id="edge10" class="edge">
<title>Node8&#45;&gt;Node13</title>
<path fill="none" stroke="#191970" d="M488.6058,-267.9697C492.3592,-229.5464 497.7929,-173.9224 500.9544,-141.5592"/>
<polygon fill="#191970" stroke="#191970" points="485.0839,-268.0244 487.595,-278.3173 492.0507,-268.705 485.0839,-268.0244"/>
</g>
<!-- Node10 -->
<g id="node4" class="node">
<title>Node10</title>
<g id="a_node4"><a xlink:href="../../d5/dc4/FV0_2src_2RawEventData_8cxx.html" target="_top" xlink:title="/home/travis/build\l/AliceO2Group/AliceO2\l/DataFormats/Detectors\l/FIT/FV0/src/RawEventData.cxx">
<polygon fill="none" stroke="#000000" points="0,-89.5 0,-141.5 167,-141.5 167,-89.5 0,-89.5"/>
<text text-anchor="start" x="8" y="-129.5" font-family="Helvetica,sans-Serif" font-size="10.00" fill="#000000">/home/travis/build</text>
<text text-anchor="start" x="8" y="-118.5" font-family="Helvetica,sans-Serif" font-size="10.00" fill="#000000">/AliceO2Group/AliceO2</text>
<text text-anchor="start" x="8" y="-107.5" font-family="Helvetica,sans-Serif" font-size="10.00" fill="#000000">/DataFormats/Detectors</text>
<text text-anchor="middle" x="83.5" y="-96.5" font-family="Helvetica,sans-Serif" font-size="10.00" fill="#000000">/FIT/FV0/src/RawEventData.cxx</text>
</a>
</g>
</g>
<!-- Node9&#45;&gt;Node10 -->
<g id="edge3" class="edge">
<title>Node9&#45;&gt;Node10</title>
<path fill="none" stroke="#191970" d="M251.342,-175.1281C220.1493,-164.0465 186.2058,-151.9876 157.0579,-141.6324"/>
<polygon fill="#191970" stroke="#191970" points="250.3311,-178.4832 260.9259,-178.5329 252.6745,-171.8871 250.3311,-178.4832"/>
</g>
<!-- Node9&#45;&gt;Node11 -->
<g id="edge4" class="edge">
<title>Node9&#45;&gt;Node11</title>
<path fill="none" stroke="#191970" d="M322.6347,-169.702C316.3039,-160.2058 309.7177,-150.3266 303.9294,-141.6442"/>
<polygon fill="#191970" stroke="#191970" points="319.8874,-171.8909 328.3467,-178.27 325.7118,-168.008 319.8874,-171.8909"/>
</g>
<!-- Node9&#45;&gt;Node13 -->
<g id="edge6" class="edge">
<title>Node9&#45;&gt;Node13</title>
<path fill="none" stroke="#191970" d="M409.987,-172.883C427.0074,-162.4387 445.1573,-151.3012 460.8947,-141.6442"/>
<polygon fill="#191970" stroke="#191970" points="407.9008,-170.0566 401.2082,-178.27 411.562,-176.0229 407.9008,-170.0566"/>
</g>
<!-- Node12 -->
<g id="node6" class="node">
<title>Node12</title>
<g id="a_node6"><a xlink:href="../../d6/d62/FV0_2reconstruction_2src_2ReadRaw_8cxx.html" target="_top" xlink:title="/home/travis/build\l/AliceO2Group/AliceO2\l/Detectors/FIT/FV0/reconstruction\l/src/ReadRaw.cxx">
<polygon fill="none" stroke="#000000" points="185.5,-.5 185.5,-52.5 363.5,-52.5 363.5,-.5 185.5,-.5"/>
<text text-anchor="start" x="193.5" y="-40.5" font-family="Helvetica,sans-Serif" font-size="10.00" fill="#000000">/home/travis/build</text>
<text text-anchor="start" x="193.5" y="-29.5" font-family="Helvetica,sans-Serif" font-size="10.00" fill="#000000">/AliceO2Group/AliceO2</text>
<text text-anchor="start" x="193.5" y="-18.5" font-family="Helvetica,sans-Serif" font-size="10.00" fill="#000000">/Detectors/FIT/FV0/reconstruction</text>
<text text-anchor="middle" x="274.5" y="-7.5" font-family="Helvetica,sans-Serif" font-size="10.00" fill="#000000">/src/ReadRaw.cxx</text>
</a>
</g>
</g>
<!-- Node11&#45;&gt;Node12 -->
<g id="edge5" class="edge">
<title>Node11&#45;&gt;Node12</title>
<path fill="none" stroke="#191970" d="M281.5942,-79.1155C280.393,-70.2061 279.1311,-60.8475 278.0102,-52.5341"/>
<polygon fill="#191970" stroke="#191970" points="278.1596,-79.8358 282.9645,-89.2784 285.0968,-78.9004 278.1596,-79.8358"/>
</g>
<!-- Node14 -->
<g id="node8" class="node">
<title>Node14</title>
<g id="a_node8"><a xlink:href="../../d7/d4a/FIT_2FV0_2simulation_2src_2digit2raw_8cxx.html" target="_top" xlink:title="/home/travis/build\l/AliceO2Group/AliceO2\l/Detectors/FIT/FV0/simulation\l/src/digit2raw.cxx">
<polygon fill="none" stroke="#000000" points="381.5,-.5 381.5,-52.5 541.5,-52.5 541.5,-.5 381.5,-.5"/>
<text text-anchor="start" x="389.5" y="-40.5" font-family="Helvetica,sans-Serif" font-size="10.00" fill="#000000">/home/travis/build</text>
<text text-anchor="start" x="389.5" y="-29.5" font-family="Helvetica,sans-Serif" font-size="10.00" fill="#000000">/AliceO2Group/AliceO2</text>
<text text-anchor="start" x="389.5" y="-18.5" font-family="Helvetica,sans-Serif" font-size="10.00" fill="#000000">/Detectors/FIT/FV0/simulation</text>
<text text-anchor="middle" x="461.5" y="-7.5" font-family="Helvetica,sans-Serif" font-size="10.00" fill="#000000">/src/digit2raw.cxx</text>
</a>
</g>
</g>
<!-- Node13&#45;&gt;Node14 -->
<g id="edge7" class="edge">
<title>Node13&#45;&gt;Node14</title>
<path fill="none" stroke="#191970" d="M486.7404,-79.9856C482.4139,-70.8176 477.8369,-61.1186 473.7858,-52.5341"/>
<polygon fill="#191970" stroke="#191970" points="483.6927,-81.7286 491.1258,-89.2784 490.0232,-78.7411 483.6927,-81.7286"/>
</g>
<!-- Node13&#45;&gt;Node15 -->
<g id="edge8" class="edge">
<title>Node13&#45;&gt;Node15</title>
<path fill="none" stroke="#191970" d="M552.07,-83.7152C567.6906,-73.4929 584.8046,-62.2933 599.7175,-52.5341"/>
<polygon fill="#191970" stroke="#191970" points="550.0199,-80.8739 543.5689,-89.2784 553.853,-86.7312 550.0199,-80.8739"/>
</g>
<!-- Node17&#45;&gt;Node18 -->
<g id="edge14" class="edge">
<title>Node17&#45;&gt;Node18</title>
<path fill="none" stroke="#191970" d="M896.4984,-277.2256C880.6736,-263.9274 862.645,-248.7773 847.7136,-236.2299"/>
<polygon fill="#191970" stroke="#191970" points="894.6373,-280.2333 904.5448,-283.9872 899.1407,-274.8742 894.6373,-280.2333"/>
</g>
<!-- Node19 -->
<g id="node13" class="node">
<title>Node19</title>
<g id="a_node13"><a xlink:href="../../d0/d1c/FV0DigitizerSpec_8cxx.html" target="_top" xlink:title="/home/travis/build\l/AliceO2Group/AliceO2\l/Steer/DigitizerWorkflow\l/src/FV0DigitizerSpec.cxx">
<polygon fill="none" stroke="#000000" points="914.5,-184 914.5,-236 1054.5,-236 1054.5,-184 914.5,-184"/>
<text text-anchor="start" x="922.5" y="-224" font-family="Helvetica,sans-Serif" font-size="10.00" fill="#000000">/home/travis/build</text>
<text text-anchor="start" x="922.5" y="-213" font-family="Helvetica,sans-Serif" font-size="10.00" fill="#000000">/AliceO2Group/AliceO2</text>
<text text-anchor="start" x="922.5" y="-202" font-family="Helvetica,sans-Serif" font-size="10.00" fill="#000000">/Steer/DigitizerWorkflow</text>
<text text-anchor="middle" x="984.5" y="-191" font-family="Helvetica,sans-Serif" font-size="10.00" fill="#000000">/src/FV0DigitizerSpec.cxx</text>
</a>
</g>
</g>
<!-- Node17&#45;&gt;Node19 -->
<g id="edge15" class="edge">
<title>Node17&#45;&gt;Node19</title>
<path fill="none" stroke="#191970" d="M952.8255,-274.6418C959.0238,-261.9923 965.894,-247.9715 971.6473,-236.2299"/>
<polygon fill="#191970" stroke="#191970" points="949.5035,-273.4672 948.2463,-283.9872 955.7894,-276.5474 949.5035,-273.4672"/>
</g>
</g>
</svg>
        <g id="navigator" transform="translate(0 0)" fill="#404254">
                <rect fill="#f2f5e9" fill-opacity="0.5" stroke="#606060" stroke-width=".5" x="0" y="0" width="60" height="60"/>
                <use id="zoomplus" xlink:href="#zoomPlus" x="17" y="9" onmousedown="handleZoom(evt,'in')"/>
                <use id="zoomminus" xlink:href="#zoomMin" x="42" y="9" onmousedown="handleZoom(evt,'out')"/>
                <use id="reset" xlink:href="#resetDef" x="30" y="36" onmousedown="handleReset()"/>
                <g id="arrowUp" xlink:href="#dirArrow" transform="translate(30 24)" onmousedown="handlePan(0,-1)">
                  <use xlink:href="#rim" fill="#404040">
                        <set attributeName="fill" to="#808080" begin="arrowUp.mouseover" end="arrowUp.mouseout"/>
                  </use>
                  <path fill="none" stroke="white" stroke-width="1.5" d="M0,-3.0v7 M-2.5,-0.5L0,-3.0L2.5,-0.5"/>
                </g>
                <g id="arrowRight" xlink:href="#dirArrow" transform="rotate(90) translate(36 -43)" onmousedown="handlePan(1,0)">
                  <use xlink:href="#rim" fill="#404040">
                        <set attributeName="fill" to="#808080" begin="arrowRight.mouseover" end="arrowRight.mouseout"/>
                  </use>
                  <path fill="none" stroke="white" stroke-width="1.5" d="M0,-3.0v7 M-2.5,-0.5L0,-3.0L2.5,-0.5"/>
                </g>
                <g id="arrowDown" xlink:href="#dirArrow" transform="rotate(180) translate(-30 -48)" onmousedown="handlePan(0,1)">
                  <use xlink:href="#rim" fill="#404040">
                        <set attributeName="fill" to="#808080" begin="arrowDown.mouseover" end="arrowDown.mouseout"/>
                  </use>
                  <path fill="none" stroke="white" stroke-width="1.5" d="M0,-3.0v7 M-2.5,-0.5L0,-3.0L2.5,-0.5"/>
                </g>
                <g id="arrowLeft" xlink:href="#dirArrow" transform="rotate(270) translate(-36 17)" onmousedown="handlePan(-1,0)">
                  <use xlink:href="#rim" fill="#404040">
                        <set attributeName="fill" to="#808080" begin="arrowLeft.mouseover" end="arrowLeft.mouseout"/>
                  </use>
                  <path fill="none" stroke="white" stroke-width="1.5" d="M0,-3.0v7 M-2.5,-0.5L0,-3.0L2.5,-0.5"/>
                </g>
        </g>
        <svg viewBox="0 0 15 15" width="100%" height="30px" preserveAspectRatio="xMaxYMin meet">
         <g id="arrow_out" transform="scale(0.3 0.3)">
          <a xlink:href="Detectors_2FIT_2FV0_2base_2include_2FV0Base_2Constants_8h__dep__incl_org.svg" target="_base">
           <rect id="button" ry="5" rx="5" y="6" x="6" height="38" width="38"
                fill="#f2f5e9" fill-opacity="0.5" stroke="#606060" stroke-width="1.0"/>
           <path id="arrow"
             d="M 11.500037,31.436501 C 11.940474,20.09759 22.043105,11.32322 32.158766,21.979434 L 37.068811,17.246167 C 37.068811,17.246167 37.088388,32 37.088388,32 L 22.160133,31.978069 C 22.160133,31.978069 26.997745,27.140456 26.997745,27.140456 C 18.528582,18.264221 13.291696,25.230495 11.500037,31.436501 z"
             style="fill:#404040;"/>
          </a>
         </g>
        </svg>
</svg>
