<?xml version="1.0" encoding="UTF-8" standalone="no"?>
<!DOCTYPE svg PUBLIC "-//W3C//DTD SVG 1.1//EN"
 "http://www.w3.org/Graphics/SVG/1.1/DTD/svg11.dtd">
<!-- Generated by graphviz version 2.40.1 (20161225.0304)
 -->
<!-- Title: GPUCA_NAMESPACE::gpu::GPUTPCSliceData Pages: 1 -->
<svg width="609pt" height="677pt"
 viewBox="0.00 0.00 609.00 677.00" xmlns="http://www.w3.org/2000/svg" xmlns:xlink="http://www.w3.org/1999/xlink">
<g id="graph0" class="graph" transform="scale(1 1) rotate(0) translate(4 673)">
<title>GPUCA_NAMESPACE::gpu::GPUTPCSliceData</title>
<!-- Node1 -->
<g id="node1" class="node">
<title>Node1</title>
<polygon fill="#bfbfbf" stroke="#000000" points="235,-.5 235,-508.5 375,-508.5 375,-.5 235,-.5"/>
<text text-anchor="start" x="243" y="-496.5" font-family="Helvetica,sans-Serif" font-size="10.00" fill="#000000">GPUCA_NAMESPACE::gpu</text>
<text text-anchor="middle" x="305" y="-485.5" font-family="Helvetica,sans-Serif" font-size="10.00" fill="#000000">::GPUTPCSliceData</text>
<polyline fill="none" stroke="#000000" points="235,-478.5 375,-478.5 "/>
<text text-anchor="middle" x="305" y="-466.5" font-family="Helvetica,sans-Serif" font-size="10.00" fill="#000000"> </text>
<polyline fill="none" stroke="#000000" points="235,-459.5 375,-459.5 "/>
<text text-anchor="start" x="243" y="-447.5" font-family="Helvetica,sans-Serif" font-size="10.00" fill="#000000">+ GPUTPCSliceData()</text>
<text text-anchor="start" x="243" y="-436.5" font-family="Helvetica,sans-Serif" font-size="10.00" fill="#000000">+ ~GPUTPCSliceData()</text>
<text text-anchor="start" x="243" y="-425.5" font-family="Helvetica,sans-Serif" font-size="10.00" fill="#000000">+ InitializeRows()</text>
<text text-anchor="start" x="243" y="-414.5" font-family="Helvetica,sans-Serif" font-size="10.00" fill="#000000">+ SetMaxData()</text>
<text text-anchor="start" x="243" y="-403.5" font-family="Helvetica,sans-Serif" font-size="10.00" fill="#000000">+ SetClusterData()</text>
<text text-anchor="start" x="243" y="-392.5" font-family="Helvetica,sans-Serif" font-size="10.00" fill="#000000">+ SetPointersInput()</text>
<text text-anchor="start" x="243" y="-381.5" font-family="Helvetica,sans-Serif" font-size="10.00" fill="#000000">+ SetPointersScratch()</text>
<text text-anchor="start" x="243" y="-370.5" font-family="Helvetica,sans-Serif" font-size="10.00" fill="#000000">+ SetPointersLinks()</text>
<text text-anchor="start" x="243" y="-359.5" font-family="Helvetica,sans-Serif" font-size="10.00" fill="#000000">+ SetPointersWeights()</text>
<text text-anchor="start" x="243" y="-348.5" font-family="Helvetica,sans-Serif" font-size="10.00" fill="#000000">+ SetPointersClusterIds()</text>
<text text-anchor="start" x="243" y="-337.5" font-family="Helvetica,sans-Serif" font-size="10.00" fill="#000000">+ SetPointersRows()</text>
<text text-anchor="start" x="243" y="-326.5" font-family="Helvetica,sans-Serif" font-size="10.00" fill="#000000">+ GPUd()</text>
<text text-anchor="start" x="243" y="-315.5" font-family="Helvetica,sans-Serif" font-size="10.00" fill="#000000">+ GPUconstantref()</text>
<text text-anchor="start" x="243" y="-304.5" font-family="Helvetica,sans-Serif" font-size="10.00" fill="#000000">+ GPUhd()</text>
<text text-anchor="start" x="243" y="-293.5" font-family="Helvetica,sans-Serif" font-size="10.00" fill="#000000">+ GPUhd()</text>
<text text-anchor="start" x="243" y="-282.5" font-family="Helvetica,sans-Serif" font-size="10.00" fill="#000000">+ GPUhd()</text>
<text text-anchor="start" x="243" y="-271.5" font-family="Helvetica,sans-Serif" font-size="10.00" fill="#000000">+ GPUd()</text>
<text text-anchor="start" x="243" y="-260.5" font-family="Helvetica,sans-Serif" font-size="10.00" fill="#000000">+ GPUd()</text>
<text text-anchor="start" x="243" y="-249.5" font-family="Helvetica,sans-Serif" font-size="10.00" fill="#000000">+ GPUhdi()</text>
<text text-anchor="start" x="243" y="-238.5" font-family="Helvetica,sans-Serif" font-size="10.00" fill="#000000">+ GPUhd()</text>
<text text-anchor="start" x="243" y="-227.5" font-family="Helvetica,sans-Serif" font-size="10.00" fill="#000000">+ GPUdi()</text>
<text text-anchor="start" x="243" y="-216.5" font-family="Helvetica,sans-Serif" font-size="10.00" fill="#000000">+ GPUdi()</text>
<text text-anchor="start" x="243" y="-205.5" font-family="Helvetica,sans-Serif" font-size="10.00" fill="#000000">+ GPUdi()</text>
<text text-anchor="start" x="243" y="-194.5" font-family="Helvetica,sans-Serif" font-size="10.00" fill="#000000">+ GPUd()</text>
<text text-anchor="start" x="243" y="-183.5" font-family="Helvetica,sans-Serif" font-size="10.00" fill="#000000">+ GPUd()</text>
<text text-anchor="start" x="243" y="-172.5" font-family="Helvetica,sans-Serif" font-size="10.00" fill="#000000">+ GPUd()</text>
<text text-anchor="start" x="243" y="-161.5" font-family="Helvetica,sans-Serif" font-size="10.00" fill="#000000">+ GPUd()</text>
<text text-anchor="start" x="243" y="-150.5" font-family="Helvetica,sans-Serif" font-size="10.00" fill="#000000">+ GPUd()</text>
<text text-anchor="start" x="243" y="-139.5" font-family="Helvetica,sans-Serif" font-size="10.00" fill="#000000">+ GPUd()</text>
<text text-anchor="start" x="243" y="-128.5" font-family="Helvetica,sans-Serif" font-size="10.00" fill="#000000">+ GPUd()</text>
<text text-anchor="start" x="243" y="-117.5" font-family="Helvetica,sans-Serif" font-size="10.00" fill="#000000">+ GPUd()</text>
<text text-anchor="start" x="243" y="-106.5" font-family="Helvetica,sans-Serif" font-size="10.00" fill="#000000">+ GPUd()</text>
<text text-anchor="start" x="243" y="-95.5" font-family="Helvetica,sans-Serif" font-size="10.00" fill="#000000">+ GPUhd()</text>
<text text-anchor="start" x="243" y="-84.5" font-family="Helvetica,sans-Serif" font-size="10.00" fill="#000000">+ GPUd()</text>
<text text-anchor="start" x="243" y="-73.5" font-family="Helvetica,sans-Serif" font-size="10.00" fill="#000000">+ GPUhdi()</text>
<text text-anchor="start" x="243" y="-62.5" font-family="Helvetica,sans-Serif" font-size="10.00" fill="#000000">+ GPUhdi()</text>
<text text-anchor="start" x="243" y="-51.5" font-family="Helvetica,sans-Serif" font-size="10.00" fill="#000000">+ GPUhdi()</text>
<text text-anchor="start" x="243" y="-40.5" font-family="Helvetica,sans-Serif" font-size="10.00" fill="#000000">+ GPUhdi()</text>
<text text-anchor="start" x="243" y="-29.5" font-family="Helvetica,sans-Serif" font-size="10.00" fill="#000000">+ GPUhdi()</text>
<text text-anchor="start" x="243" y="-18.5" font-family="Helvetica,sans-Serif" font-size="10.00" fill="#000000">+ GPUhdi()</text>
<text text-anchor="start" x="243" y="-7.5" font-family="Helvetica,sans-Serif" font-size="10.00" fill="#000000">+ GPUhdi()</text>
</g>
<!-- Node2 -->
<g id="node2" class="node">
<title>Node2</title>
<polygon fill="none" stroke="#bfbfbf" points="0,-606 0,-663 86,-663 86,-606 0,-606"/>
<text text-anchor="middle" x="43" y="-651" font-family="Helvetica,sans-Serif" font-size="10.00" fill="#000000">const calink &amp;</text>
<polyline fill="none" stroke="#bfbfbf" points="0,-644 86,-644 "/>
<text text-anchor="middle" x="43" y="-632" font-family="Helvetica,sans-Serif" font-size="10.00" fill="#000000"> </text>
<polyline fill="none" stroke="#bfbfbf" points="0,-625 86,-625 "/>
<text text-anchor="middle" x="43" y="-613" font-family="Helvetica,sans-Serif" font-size="10.00" fill="#000000"> </text>
</g>
<!-- Node2&#45;&gt;Node1 -->
<g id="edge1" class="edge">
<title>Node2&#45;&gt;Node1</title>
<path fill="none" stroke="#404040" d="M62.6926,-605.9382C97.3429,-555.6821 170.9447,-448.9313 227.9905,-366.1932"/>
<polygon fill="none" stroke="#404040" points="228.0498,-366.1071 228.1625,-358.8968 234.8614,-356.2277 234.7488,-363.4379 228.0498,-366.1071"/>
<text text-anchor="middle" x="140" y="-552" font-family="Helvetica,sans-Serif" font-size="10.00" fill="#000000"> +hitIndex</text>
</g>
<!-- Node3 -->
<g id="node3" class="node">
<title>Node3</title>
<polygon fill="none" stroke="#bfbfbf" points="104.5,-606 104.5,-663 229.5,-663 229.5,-606 104.5,-606"/>
<text text-anchor="middle" x="167" y="-651" font-family="Helvetica,sans-Serif" font-size="10.00" fill="#000000">const calink &amp;hitIndex</text>
<polyline fill="none" stroke="#bfbfbf" points="104.5,-644 229.5,-644 "/>
<text text-anchor="middle" x="167" y="-632" font-family="Helvetica,sans-Serif" font-size="10.00" fill="#000000"> </text>
<polyline fill="none" stroke="#bfbfbf" points="104.5,-625 229.5,-625 "/>
<text text-anchor="middle" x="167" y="-613" font-family="Helvetica,sans-Serif" font-size="10.00" fill="#000000"> </text>
</g>
<!-- Node3&#45;&gt;Node1 -->
<g id="edge2" class="edge">
<title>Node3&#45;&gt;Node1</title>
<path fill="none" stroke="#404040" d="M177.3724,-605.9382C189.1842,-573.4131 209.5893,-517.2252 230.6623,-459.198"/>
<polygon fill="none" stroke="#404040" points="230.7873,-458.8537 229.0756,-451.8487 234.8835,-447.5745 236.5951,-454.5795 230.7873,-458.8537"/>
<text text-anchor="middle" x="223" y="-552" font-family="Helvetica,sans-Serif" font-size="10.00" fill="#000000"> +const</text>
</g>
<!-- Node4 -->
<g id="node4" class="node">
<title>Node4</title>
<polygon fill="none" stroke="#bfbfbf" points="247.5,-606 247.5,-663 276.5,-663 276.5,-606 247.5,-606"/>
<text text-anchor="middle" x="262" y="-651" font-family="Helvetica,sans-Serif" font-size="10.00" fill="#000000">int</text>
<polyline fill="none" stroke="#bfbfbf" points="247.5,-644 276.5,-644 "/>
<text text-anchor="middle" x="262" y="-632" font-family="Helvetica,sans-Serif" font-size="10.00" fill="#000000"> </text>
<polyline fill="none" stroke="#bfbfbf" points="247.5,-625 276.5,-625 "/>
<text text-anchor="middle" x="262" y="-613" font-family="Helvetica,sans-Serif" font-size="10.00" fill="#000000"> </text>
</g>
<!-- Node4&#45;&gt;Node1 -->
<g id="edge3" class="edge">
<title>Node4&#45;&gt;Node1</title>
<path fill="none" stroke="#404040" d="M260.7805,-605.7071C260.1582,-584.0316 259.9137,-553.6067 262,-527 262.1641,-524.9073 262.3352,-522.8064 262.513,-520.6982"/>
<polygon fill="none" stroke="#404040" points="262.5305,-520.5019 259.0824,-514.1686 263.6024,-508.5499 267.0504,-514.8832 262.5305,-520.5019"/>
<text text-anchor="middle" x="295" y="-574" font-family="Helvetica,sans-Serif" font-size="10.00" fill="#000000"> +iThread</text>
<text text-anchor="middle" x="295" y="-563" font-family="Helvetica,sans-Serif" font-size="10.00" fill="#000000">+iBlock</text>
<text text-anchor="middle" x="295" y="-552" font-family="Helvetica,sans-Serif" font-size="10.00" fill="#000000">+tmpMinMax</text>
<text text-anchor="middle" x="295" y="-541" font-family="Helvetica,sans-Serif" font-size="10.00" fill="#000000">+iSlice</text>
<text text-anchor="middle" x="295" y="-530" font-family="Helvetica,sans-Serif" font-size="10.00" fill="#000000">+nThreads</text>
</g>
<!-- Node5 -->
<g id="node5" class="node">
<title>Node5</title>
<polygon fill="none" stroke="#bfbfbf" points="297,-600.5 297,-668.5 401,-668.5 401,-600.5 297,-600.5"/>
<text text-anchor="start" x="305" y="-656.5" font-family="Helvetica,sans-Serif" font-size="10.00" fill="#000000">const calink const</text>
<text text-anchor="middle" x="349" y="-645.5" font-family="Helvetica,sans-Serif" font-size="10.00" fill="#000000"> calink &amp;</text>
<polyline fill="none" stroke="#bfbfbf" points="297,-638.5 401,-638.5 "/>
<text text-anchor="middle" x="349" y="-626.5" font-family="Helvetica,sans-Serif" font-size="10.00" fill="#000000"> </text>
<polyline fill="none" stroke="#bfbfbf" points="297,-619.5 401,-619.5 "/>
<text text-anchor="middle" x="349" y="-607.5" font-family="Helvetica,sans-Serif" font-size="10.00" fill="#000000"> </text>
</g>
<!-- Node5&#45;&gt;Node1 -->
<g id="edge4" class="edge">
<title>Node5&#45;&gt;Node1</title>
<path fill="none" stroke="#404040" d="M345.0566,-600.4431C342.6999,-580.0898 339.4643,-552.1461 335.8456,-520.894"/>
<polygon fill="none" stroke="#404040" points="335.8213,-520.6836 331.1577,-515.1835 334.441,-508.7632 339.1046,-514.2633 335.8213,-520.6836"/>
<text text-anchor="middle" x="361.5" y="-552" font-family="Helvetica,sans-Serif" font-size="10.00" fill="#000000"> +value</text>
</g>
<!-- Node6 -->
<g id="node6" class="node">
<title>Node6</title>
<polygon fill="none" stroke="#bfbfbf" points="419.5,-606 419.5,-663 480.5,-663 480.5,-606 419.5,-606"/>
<text text-anchor="middle" x="450" y="-651" font-family="Helvetica,sans-Serif" font-size="10.00" fill="#000000">unsigned</text>
<polyline fill="none" stroke="#bfbfbf" points="419.5,-644 480.5,-644 "/>
<text text-anchor="middle" x="450" y="-632" font-family="Helvetica,sans-Serif" font-size="10.00" fill="#000000"> </text>
<polyline fill="none" stroke="#bfbfbf" points="419.5,-625 480.5,-625 "/>
<text text-anchor="middle" x="450" y="-613" font-family="Helvetica,sans-Serif" font-size="10.00" fill="#000000"> </text>
</g>
<!-- Node6&#45;&gt;Node1 -->
<g id="edge5" class="edge">
<title>Node6&#45;&gt;Node1</title>
<path fill="none" stroke="#404040" d="M439.1014,-605.9382C426.0188,-571.6527 402.9031,-511.0735 379.5083,-449.763"/>
<polygon fill="none" stroke="#404040" points="379.4172,-449.5242 373.541,-445.3445 375.1391,-438.3127 381.0153,-442.4924 379.4172,-449.5242"/>
<text text-anchor="middle" x="454" y="-563" font-family="Helvetica,sans-Serif" font-size="10.00" fill="#000000"> +hitIndex</text>
<text text-anchor="middle" x="454" y="-552" font-family="Helvetica,sans-Serif" font-size="10.00" fill="#000000">+const</text>
<text text-anchor="middle" x="454" y="-541" font-family="Helvetica,sans-Serif" font-size="10.00" fill="#000000">+weight</text>
</g>
<!-- Node7 -->
<g id="node7" class="node">
<title>Node7</title>
<polygon fill="none" stroke="#bfbfbf" points="499,-606 499,-663 601,-663 601,-606 499,-606"/>
<text text-anchor="middle" x="550" y="-651" font-family="Helvetica,sans-Serif" font-size="10.00" fill="#000000">calink binIndexes</text>
<polyline fill="none" stroke="#bfbfbf" points="499,-644 601,-644 "/>
<text text-anchor="middle" x="550" y="-632" font-family="Helvetica,sans-Serif" font-size="10.00" fill="#000000"> </text>
<polyline fill="none" stroke="#bfbfbf" points="499,-625 601,-625 "/>
<text text-anchor="middle" x="550" y="-613" font-family="Helvetica,sans-Serif" font-size="10.00" fill="#000000"> </text>
</g>
<!-- Node7&#45;&gt;Node1 -->
<g id="edge6" class="edge">
<title>Node7&#45;&gt;Node1</title>
<path fill="none" stroke="#404040" d="M532.5892,-605.6066C519.4176,-583.8798 500.7916,-553.4347 484,-527 450.9909,-475.0342 413.7198,-418.0371 381.7666,-369.664"/>
<polygon fill="none" stroke="#404040" points="381.6501,-369.4878 375.0045,-366.6886 375.0323,-359.4775 381.678,-362.2767 381.6501,-369.4878"/>
<text text-anchor="middle" x="535" y="-552" font-family="Helvetica,sans-Serif" font-size="10.00" fill="#000000"> +const</text>
</g>
</g>
</svg>
