<?xml version="1.0" encoding="UTF-8" standalone="no"?>
<!DOCTYPE svg PUBLIC "-//W3C//DTD SVG 1.1//EN"
 "http://www.w3.org/Graphics/SVG/1.1/DTD/svg11.dtd">
<!-- Generated by graphviz version 2.40.1 (20161225.0304)
 -->
<!-- Title: /home/travis/build/AliceO2Group/AliceO2/Detectors/ITSMFT/common/reconstruction/include/ITSMFTReconstruction/PixelReader.h Pages: 1 -->
<!--zoomable 329 -->
<svg id="main" version="1.1" xmlns="http://www.w3.org/2000/svg" xmlns:xlink="http://www.w3.org/1999/xlink" xml:space="preserve" onload="init(evt)">
<style type="text/css"><![CDATA[
.edge:hover path { stroke: red; }
.edge:hover polygon { stroke: red; fill: red; }
]]></style>
<script type="text/javascript"><![CDATA[
var edges = document.getElementsByTagName('g');
if (edges && edges.length) {
  for (var i=0;i<edges.length;i++) {
    if (edges[i].id.substr(0,4)=='edge') {
      edges[i].setAttribute('class','edge');
    }
  }
}
]]></script>
        <defs>
                <circle id="rim" cx="0" cy="0" r="7"/>
                <circle id="rim2" cx="0" cy="0" r="3.5"/>
                <g id="zoomPlus">
                        <use xlink:href="#rim" fill="#404040">
                                <set attributeName="fill" to="#808080" begin="zoomplus.mouseover" end="zoomplus.mouseout"/>
                        </use>
                        <path d="M-4,0h8M0,-4v8" fill="none" stroke="white" stroke-width="1.5" pointer-events="none"/>
                </g>
                <g id="zoomMin">
                        <use xlink:href="#rim" fill="#404040">
                                <set attributeName="fill" to="#808080" begin="zoomminus.mouseover" end="zoomminus.mouseout"/>
                        </use>
                        <path d="M-4,0h8" fill="none" stroke="white" stroke-width="1.5" pointer-events="none"/>
                </g>
                <g id="dirArrow">
                        <path fill="none" stroke="white" stroke-width="1.5" d="M0,-3.0v7 M-2.5,-0.5L0,-3.0L2.5,-0.5"/>
                </g>
               <g id="resetDef">
                       <use xlink:href="#rim2" fill="#404040">
                               <set attributeName="fill" to="#808080" begin="reset.mouseover" end="reset.mouseout"/>
                       </use>
               </g>
        </defs>

<script type="text/javascript">
var viewWidth = 1552;
var viewHeight = 329;
var sectionId = 'dynsection-0';
</script>
<script xlink:href="../../svgpan.js"/>
<svg id="graph" class="graph">
<g id="viewport">
<title>/home/travis/build/AliceO2Group/AliceO2/Detectors/ITSMFT/common/reconstruction/include/ITSMFTReconstruction/PixelReader.h</title>
<!-- Node0 -->
<g id="node1" class="node">
<title>Node0</title>
<polygon fill="#bfbfbf" stroke="#000000" points="860,-257.5 860,-320.5 1055,-320.5 1055,-257.5 860,-257.5"/>
<text text-anchor="start" x="868" y="-308.5" font-family="Helvetica,sans-Serif" font-size="10.00" fill="#000000">/home/travis/build</text>
<text text-anchor="start" x="868" y="-297.5" font-family="Helvetica,sans-Serif" font-size="10.00" fill="#000000">/AliceO2Group/AliceO2</text>
<text text-anchor="start" x="868" y="-286.5" font-family="Helvetica,sans-Serif" font-size="10.00" fill="#000000">/Detectors/ITSMFT/common</text>
<text text-anchor="start" x="868" y="-275.5" font-family="Helvetica,sans-Serif" font-size="10.00" fill="#000000">/reconstruction/include</text>
<text text-anchor="middle" x="957.5" y="-264.5" font-family="Helvetica,sans-Serif" font-size="10.00" fill="#000000">/ITSMFTReconstruction/PixelReader.h</text>
</g>
<!-- Node1 -->
<g id="node2" class="node">
<title>Node1</title>
<polygon fill="none" stroke="#bfbfbf" points="767,-.5 767,-19.5 826,-19.5 826,-.5 767,-.5"/>
<text text-anchor="middle" x="796.5" y="-7.5" font-family="Helvetica,sans-Serif" font-size="10.00" fill="#000000">Rtypes.h</text>
</g>
<!-- Node0&#45;&gt;Node1 -->
<g id="edge1" class="edge">
<title>Node0&#45;&gt;Node1</title>
<path fill="none" stroke="#191970" d="M1055.1307,-281.5761C1249.7738,-263.4 1655.771,-206.6114 1514.5,-56 1491.1572,-31.1139 984.4623,-15.1951 836.6403,-11.0684"/>
<polygon fill="#191970" stroke="#191970" points="836.3229,-7.5584 826.23,-10.7808 836.1295,-14.5558 836.3229,-7.5584"/>
</g>
<!-- Node2 -->
<g id="node3" class="node">
<title>Node2</title>
<g id="a_node3"><a xlink:href="../../da/d8d/PixelData_8h.html" target="_top" xlink:title="Transient data classes for single pixel and set of pixels from current chip. ">
<polygon fill="none" stroke="#000000" points="670,-190.5 670,-220.5 793,-220.5 793,-190.5 670,-190.5"/>
<text text-anchor="start" x="678" y="-208.5" font-family="Helvetica,sans-Serif" font-size="10.00" fill="#000000">ITSMFTReconstruction</text>
<text text-anchor="middle" x="731.5" y="-197.5" font-family="Helvetica,sans-Serif" font-size="10.00" fill="#000000">/PixelData.h</text>
</a>
</g>
</g>
<!-- Node0&#45;&gt;Node2 -->
<g id="edge2" class="edge">
<title>Node0&#45;&gt;Node2</title>
<path fill="none" stroke="#191970" d="M872.0591,-257.4322C841.5555,-246.1621 808.1986,-233.8378 781.6378,-224.0243"/>
<polygon fill="#191970" stroke="#191970" points="782.7708,-220.7118 772.1775,-220.5291 780.3448,-227.2779 782.7708,-220.7118"/>
</g>
<!-- Node5 -->
<g id="node6" class="node">
<title>Node5</title>
<g id="a_node6"><a xlink:href="../../d9/d80/InteractionRecord_8h.html" target="_top" xlink:title="CommonDataFormat/Interaction\lRecord.h">
<polygon fill="none" stroke="#000000" points="186.5,-123.5 186.5,-153.5 360.5,-153.5 360.5,-123.5 186.5,-123.5"/>
<text text-anchor="start" x="194.5" y="-141.5" font-family="Helvetica,sans-Serif" font-size="10.00" fill="#000000">CommonDataFormat/Interaction</text>
<text text-anchor="middle" x="273.5" y="-130.5" font-family="Helvetica,sans-Serif" font-size="10.00" fill="#000000">Record.h</text>
</a>
</g>
</g>
<!-- Node0&#45;&gt;Node5 -->
<g id="edge38" class="edge">
<title>Node0&#45;&gt;Node5</title>
<path fill="none" stroke="#191970" d="M859.8629,-267.517C723.1181,-237.4291 477.2704,-183.3355 351.7998,-155.7282"/>
<polygon fill="#191970" stroke="#191970" points="352.394,-152.2753 341.8755,-153.5446 350.8897,-159.1118 352.394,-152.2753"/>
</g>
<!-- Node15 -->
<g id="node16" class="node">
<title>Node15</title>
<polygon fill="none" stroke="#bfbfbf" points="968,-62 968,-81 1015,-81 1015,-62 968,-62"/>
<text text-anchor="middle" x="991.5" y="-69" font-family="Helvetica,sans-Serif" font-size="10.00" fill="#000000">vector</text>
</g>
<!-- Node0&#45;&gt;Node15 -->
<g id="edge39" class="edge">
<title>Node0&#45;&gt;Node15</title>
<path fill="none" stroke="#191970" d="M972.6607,-257.1713C977.3044,-245.9855 981.8761,-233.1684 984.5,-221 994.3199,-175.4595 993.8182,-120.3759 992.636,-91.4558"/>
<polygon fill="#191970" stroke="#191970" points="996.1135,-90.9045 992.1338,-81.0855 989.1217,-91.2431 996.1135,-90.9045"/>
</g>
<!-- Node17 -->
<g id="node18" class="node">
<title>Node17</title>
<g id="a_node18"><a xlink:href="../../d7/dcd/MCCompLabel_8h.html" target="_top" xlink:title="SimulationDataFormat\l/MCCompLabel.h">
<polygon fill="none" stroke="#000000" points="848,-190.5 848,-220.5 975,-220.5 975,-190.5 848,-190.5"/>
<text text-anchor="start" x="856" y="-208.5" font-family="Helvetica,sans-Serif" font-size="10.00" fill="#000000">SimulationDataFormat</text>
<text text-anchor="middle" x="911.5" y="-197.5" font-family="Helvetica,sans-Serif" font-size="10.00" fill="#000000">/MCCompLabel.h</text>
</a>
</g>
</g>
<!-- Node0&#45;&gt;Node17 -->
<g id="edge23" class="edge">
<title>Node0&#45;&gt;Node17</title>
<path fill="none" stroke="#191970" d="M940.1094,-257.4322C935.0273,-248.2072 929.5561,-238.2757 924.7729,-229.5932"/>
<polygon fill="#191970" stroke="#191970" points="927.7945,-227.8245 919.9037,-220.7545 921.6633,-231.2022 927.7945,-227.8245"/>
</g>
<!-- Node18 -->
<g id="node19" class="node">
<title>Node18</title>
<g id="a_node19"><a xlink:href="../../d1/da6/ConstMCTruthContainer_8h.html" target="_top" xlink:title="A const (ready only) version of MCTruthContainer. ">
<polygon fill="none" stroke="#000000" points="1097.5,-190.5 1097.5,-220.5 1239.5,-220.5 1239.5,-190.5 1097.5,-190.5"/>
<text text-anchor="start" x="1105.5" y="-208.5" font-family="Helvetica,sans-Serif" font-size="10.00" fill="#000000">SimulationDataFormat</text>
<text text-anchor="middle" x="1168.5" y="-197.5" font-family="Helvetica,sans-Serif" font-size="10.00" fill="#000000">/ConstMCTruthContainer.h</text>
</a>
</g>
</g>
<!-- Node0&#45;&gt;Node18 -->
<g id="edge25" class="edge">
<title>Node0&#45;&gt;Node18</title>
<path fill="none" stroke="#191970" d="M1037.2701,-257.4322C1065.4992,-246.261 1096.3458,-234.0539 1121.0359,-224.2832"/>
<polygon fill="#191970" stroke="#191970" points="1122.5118,-227.4633 1130.5223,-220.5291 1119.936,-220.9544 1122.5118,-227.4633"/>
</g>
<!-- Node3 -->
<g id="node4" class="node">
<title>Node3</title>
<g id="a_node4"><a xlink:href="../../d3/d1e/DataFormats_2Detectors_2ITSMFT_2common_2include_2DataFormatsITSMFT_2Digit_8h.html" target="_top" xlink:title="DataFormatsITSMFT/Digit.h">
<polygon fill="none" stroke="#000000" points="657,-129 657,-148 806,-148 806,-129 657,-129"/>
<text text-anchor="middle" x="731.5" y="-136" font-family="Helvetica,sans-Serif" font-size="10.00" fill="#000000">DataFormatsITSMFT/Digit.h</text>
</a>
</g>
</g>
<!-- Node2&#45;&gt;Node3 -->
<g id="edge3" class="edge">
<title>Node2&#45;&gt;Node3</title>
<path fill="none" stroke="#191970" d="M731.5,-190.2967C731.5,-180.7699 731.5,-168.3954 731.5,-158.1306"/>
<polygon fill="#191970" stroke="#191970" points="735.0001,-158.0549 731.5,-148.055 728.0001,-158.055 735.0001,-158.0549"/>
</g>
<!-- Node2&#45;&gt;Node5 -->
<g id="edge6" class="edge">
<title>Node2&#45;&gt;Node5</title>
<path fill="none" stroke="#191970" d="M669.8808,-196.7828C598.7037,-186.6736 478.0918,-169.4205 374.5,-154 373.2169,-153.809 371.9247,-153.6163 370.6249,-153.422"/>
<polygon fill="#191970" stroke="#191970" points="370.9474,-149.9313 360.5387,-151.9083 369.9084,-156.8538 370.9474,-149.9313"/>
</g>
<!-- Node8 -->
<g id="node9" class="node">
<title>Node8</title>
<polygon fill="none" stroke="#bfbfbf" points="469.5,-.5 469.5,-19.5 519.5,-19.5 519.5,-.5 469.5,-.5"/>
<text text-anchor="middle" x="494.5" y="-7.5" font-family="Helvetica,sans-Serif" font-size="10.00" fill="#000000">cstdint</text>
</g>
<!-- Node2&#45;&gt;Node8 -->
<g id="edge22" class="edge">
<title>Node2&#45;&gt;Node8</title>
<path fill="none" stroke="#191970" d="M669.8892,-197.6839C623.5502,-190.3275 559.2387,-176.9211 506.5,-154 457.7738,-132.8228 432.4063,-133.9297 407.5,-87 401.0412,-74.8299 400.3902,-67.8016 407.5,-56 418.837,-37.1816 440.7347,-25.6622 459.7238,-18.8572"/>
<polygon fill="#191970" stroke="#191970" points="460.9038,-22.1537 469.3174,-15.7146 458.7247,-15.5015 460.9038,-22.1537"/>
</g>
<!-- Node11 -->
<g id="node12" class="node">
<title>Node11</title>
<g id="a_node12"><a xlink:href="../../dc/dc5/DecodingStat_8h.html" target="_top" xlink:title="Alpide Chip and GBT link decoding statistics. ">
<polygon fill="none" stroke="#000000" points="516,-123.5 516,-153.5 639,-153.5 639,-123.5 516,-123.5"/>
<text text-anchor="start" x="524" y="-141.5" font-family="Helvetica,sans-Serif" font-size="10.00" fill="#000000">ITSMFTReconstruction</text>
<text text-anchor="middle" x="577.5" y="-130.5" font-family="Helvetica,sans-Serif" font-size="10.00" fill="#000000">/DecodingStat.h</text>
</a>
</g>
</g>
<!-- Node2&#45;&gt;Node11 -->
<g id="edge13" class="edge">
<title>Node2&#45;&gt;Node11</title>
<path fill="none" stroke="#191970" d="M696.9394,-190.4639C674.6273,-180.7567 645.4013,-168.0415 621.4446,-157.6188"/>
<polygon fill="#191970" stroke="#191970" points="622.7774,-154.3818 612.2113,-153.6017 619.9848,-160.8006 622.7774,-154.3818"/>
</g>
<!-- Node2&#45;&gt;Node15 -->
<g id="edge20" class="edge">
<title>Node2&#45;&gt;Node15</title>
<path fill="none" stroke="#191970" d="M786.5085,-190.4461C814.8258,-181.6596 849.4151,-169.2829 878.5,-154 914.3771,-135.148 951.4894,-105.8244 972.9863,-87.6875"/>
<polygon fill="#191970" stroke="#191970" points="975.3565,-90.2659 980.6821,-81.1069 970.8072,-84.9457 975.3565,-90.2659"/>
</g>
<!-- Node16 -->
<g id="node17" class="node">
<title>Node16</title>
<polygon fill="none" stroke="#bfbfbf" points="824,-129 824,-148 869,-148 869,-129 824,-129"/>
<text text-anchor="middle" x="846.5" y="-136" font-family="Helvetica,sans-Serif" font-size="10.00" fill="#000000">utility</text>
</g>
<!-- Node2&#45;&gt;Node16 -->
<g id="edge21" class="edge">
<title>Node2&#45;&gt;Node16</title>
<path fill="none" stroke="#191970" d="M757.3082,-190.4639C776.4299,-179.3234 802.3517,-164.2212 821.3218,-153.1691"/>
<polygon fill="#191970" stroke="#191970" points="823.1371,-156.1622 830.0157,-148.1039 819.6132,-150.1138 823.1371,-156.1622"/>
</g>
<!-- Node3&#45;&gt;Node1 -->
<g id="edge4" class="edge">
<title>Node3&#45;&gt;Node1</title>
<path fill="none" stroke="#191970" d="M743.0786,-128.6362C753.6006,-119.0463 768.7731,-103.5407 777.5,-87 787.0132,-68.969 791.8778,-46.0378 794.2888,-29.9062"/>
<polygon fill="#191970" stroke="#191970" points="797.8195,-29.8976 795.6421,-19.529 790.8782,-28.9924 797.8195,-29.8976"/>
</g>
<!-- Node4 -->
<g id="node5" class="node">
<title>Node4</title>
<polygon fill="none" stroke="#bfbfbf" points="718.5,-62 718.5,-81 768.5,-81 768.5,-62 718.5,-62"/>
<text text-anchor="middle" x="743.5" y="-69" font-family="Helvetica,sans-Serif" font-size="10.00" fill="#000000">climits</text>
</g>
<!-- Node3&#45;&gt;Node4 -->
<g id="edge5" class="edge">
<title>Node3&#45;&gt;Node4</title>
<path fill="none" stroke="#191970" d="M733.2193,-128.9005C734.9837,-119.0495 737.7785,-103.4451 740.009,-90.9912"/>
<polygon fill="#191970" stroke="#191970" points="743.466,-91.5421 741.7839,-81.0817 736.5756,-90.308 743.466,-91.5421"/>
</g>
<!-- Node6 -->
<g id="node7" class="node">
<title>Node6</title>
<g id="a_node7"><a xlink:href="../../d2/d45/GPUCommonRtypes_8h.html" target="_top" xlink:title="GPUCommonRtypes.h">
<polygon fill="none" stroke="#000000" points="825,-62 825,-81 950,-81 950,-62 825,-62"/>
<text text-anchor="middle" x="887.5" y="-69" font-family="Helvetica,sans-Serif" font-size="10.00" fill="#000000">GPUCommonRtypes.h</text>
</a>
</g>
</g>
<!-- Node5&#45;&gt;Node6 -->
<g id="edge7" class="edge">
<title>Node5&#45;&gt;Node6</title>
<path fill="none" stroke="#191970" d="M360.5695,-130.6202C461.1264,-121.2839 631.4682,-104.743 777.5,-87 789.4657,-85.5462 802.1453,-83.8783 814.4769,-82.1877"/>
<polygon fill="#191970" stroke="#191970" points="815.3057,-85.6063 824.7304,-80.7663 814.3445,-78.6726 815.3057,-85.6063"/>
</g>
<!-- Node7 -->
<g id="node8" class="node">
<title>Node7</title>
<polygon fill="none" stroke="#bfbfbf" points="0,-62 0,-81 49,-81 49,-62 0,-62"/>
<text text-anchor="middle" x="24.5" y="-69" font-family="Helvetica,sans-Serif" font-size="10.00" fill="#000000">iosfwd</text>
</g>
<!-- Node5&#45;&gt;Node7 -->
<g id="edge9" class="edge">
<title>Node5&#45;&gt;Node7</title>
<path fill="none" stroke="#191970" d="M193.3821,-123.4925C152.1926,-114.7536 101.5294,-102.4058 57.5,-87 55.857,-86.4251 54.1862,-85.7949 52.5125,-85.1278"/>
<polygon fill="#191970" stroke="#191970" points="53.6359,-81.8002 43.0689,-81.0337 50.8516,-88.2226 53.6359,-81.8002"/>
</g>
<!-- Node5&#45;&gt;Node8 -->
<g id="edge10" class="edge">
<title>Node5&#45;&gt;Node8</title>
<path fill="none" stroke="#191970" d="M290.6578,-123.3576C314.5752,-102.4497 356.9703,-66.165 374.5,-56 401.4728,-40.3592 434.7562,-28.0871 459.4229,-20.1665"/>
<polygon fill="#191970" stroke="#191970" points="460.5897,-23.4689 469.0888,-17.1431 458.4999,-16.7881 460.5897,-23.4689"/>
</g>
<!-- Node9 -->
<g id="node10" class="node">
<title>Node9</title>
<polygon fill="none" stroke="#bfbfbf" points="67,-62 67,-81 114,-81 114,-62 67,-62"/>
<text text-anchor="middle" x="90.5" y="-69" font-family="Helvetica,sans-Serif" font-size="10.00" fill="#000000">cmath</text>
</g>
<!-- Node5&#45;&gt;Node9 -->
<g id="edge11" class="edge">
<title>Node5&#45;&gt;Node9</title>
<path fill="none" stroke="#191970" d="M225.3861,-123.4522C195.7189,-113.8121 157.0576,-100.5951 123.5,-87 122.1067,-86.4355 120.6879,-85.8424 119.2603,-85.2308"/>
<polygon fill="#191970" stroke="#191970" points="120.446,-81.9268 109.8888,-81.0339 117.5849,-88.3155 120.446,-81.9268"/>
</g>
<!-- Node10 -->
<g id="node11" class="node">
<title>Node10</title>
<g id="a_node11"><a xlink:href="../../d4/dc6/LHCConstants_8h.html" target="_top" xlink:title="Header to collect LHC related constants. ">
<polygon fill="none" stroke="#000000" points="132.5,-62 132.5,-81 322.5,-81 322.5,-62 132.5,-62"/>
<text text-anchor="middle" x="227.5" y="-69" font-family="Helvetica,sans-Serif" font-size="10.00" fill="#000000">CommonConstants/LHCConstants.h</text>
</a>
</g>
</g>
<!-- Node5&#45;&gt;Node10 -->
<g id="edge12" class="edge">
<title>Node5&#45;&gt;Node10</title>
<path fill="none" stroke="#191970" d="M263.0619,-123.2967C256.1732,-113.2631 247.1158,-100.0709 239.866,-89.5113"/>
<polygon fill="#191970" stroke="#191970" points="242.6056,-87.318 234.0601,-81.055 236.8348,-91.28 242.6056,-87.318"/>
</g>
<!-- Node6&#45;&gt;Node1 -->
<g id="edge8" class="edge">
<title>Node6&#45;&gt;Node1</title>
<path fill="none" stroke="#191970" d="M873.2813,-61.8906C858.8566,-52.1421 836.3024,-36.8994 819.364,-25.4521"/>
<polygon fill="#191970" stroke="#191970" points="820.8641,-22.2415 810.6189,-19.5419 816.9444,-28.0412 820.8641,-22.2415"/>
</g>
<!-- Node11&#45;&gt;Node1 -->
<g id="edge16" class="edge">
<title>Node11&#45;&gt;Node1</title>
<path fill="none" stroke="#191970" d="M607.5598,-123.4778C626.1458,-113.7967 650.2385,-100.5271 670.5,-87 688.9152,-74.7055 690.9667,-68.1156 709.5,-56 727.8408,-44.0102 749.64,-32.4886 766.8294,-23.9753"/>
<polygon fill="#191970" stroke="#191970" points="768.4016,-27.1027 775.8535,-19.5714 765.3315,-20.8118 768.4016,-27.1027"/>
</g>
<!-- Node12 -->
<g id="node13" class="node">
<title>Node12</title>
<polygon fill="none" stroke="#bfbfbf" points="476.5,-62 476.5,-81 520.5,-81 520.5,-62 476.5,-62"/>
<text text-anchor="middle" x="498.5" y="-69" font-family="Helvetica,sans-Serif" font-size="10.00" fill="#000000">string</text>
</g>
<!-- Node11&#45;&gt;Node12 -->
<g id="edge14" class="edge">
<title>Node11&#45;&gt;Node12</title>
<path fill="none" stroke="#191970" d="M559.5737,-123.2967C547.0261,-112.6551 530.2889,-98.4602 517.5091,-87.6217"/>
<polygon fill="#191970" stroke="#191970" points="519.6567,-84.8538 509.7663,-81.055 515.129,-90.1924 519.6567,-84.8538"/>
</g>
<!-- Node13 -->
<g id="node14" class="node">
<title>Node13</title>
<polygon fill="none" stroke="#bfbfbf" points="416.5,-62 416.5,-81 458.5,-81 458.5,-62 416.5,-62"/>
<text text-anchor="middle" x="437.5" y="-69" font-family="Helvetica,sans-Serif" font-size="10.00" fill="#000000">array</text>
</g>
<!-- Node11&#45;&gt;Node13 -->
<g id="edge15" class="edge">
<title>Node11&#45;&gt;Node13</title>
<path fill="none" stroke="#191970" d="M544.125,-123.2854C522.2342,-113.2052 493.0409,-99.571 467.5,-87 466.6716,-86.5923 465.8315,-86.176 464.9844,-85.7539"/>
<polygon fill="#191970" stroke="#191970" points="466.3486,-82.5214 455.8465,-81.1227 463.1841,-88.7653 466.3486,-82.5214"/>
</g>
<!-- Node14 -->
<g id="node15" class="node">
<title>Node14</title>
<g id="a_node15"><a xlink:href="../../dd/d86/GBTWord_8h.html" target="_top" xlink:title="ITSMFTReconstruction\l/GBTWord.h">
<polygon fill="none" stroke="#000000" points="539,-56.5 539,-86.5 662,-86.5 662,-56.5 539,-56.5"/>
<text text-anchor="start" x="547" y="-74.5" font-family="Helvetica,sans-Serif" font-size="10.00" fill="#000000">ITSMFTReconstruction</text>
<text text-anchor="middle" x="600.5" y="-63.5" font-family="Helvetica,sans-Serif" font-size="10.00" fill="#000000">/GBTWord.h</text>
</a>
</g>
</g>
<!-- Node11&#45;&gt;Node14 -->
<g id="edge17" class="edge">
<title>Node11&#45;&gt;Node14</title>
<path fill="none" stroke="#191970" d="M582.7191,-123.2967C585.4539,-115.3299 588.8724,-105.3718 591.9793,-96.3213"/>
<polygon fill="#191970" stroke="#191970" points="595.3651,-97.2378 595.3016,-86.6432 588.7443,-94.965 595.3651,-97.2378"/>
</g>
<!-- Node14&#45;&gt;Node1 -->
<g id="edge18" class="edge">
<title>Node14&#45;&gt;Node1</title>
<path fill="none" stroke="#191970" d="M648.447,-56.4554C681.8872,-45.9627 725.956,-32.135 757.2966,-22.3011"/>
<polygon fill="#191970" stroke="#191970" points="758.5018,-25.5912 766.9952,-19.2579 756.406,-18.9123 758.5018,-25.5912"/>
</g>
<!-- Node14&#45;&gt;Node8 -->
<g id="edge19" class="edge">
<title>Node14&#45;&gt;Node8</title>
<path fill="none" stroke="#191970" d="M574.5695,-56.4554C557.9691,-46.8241 536.5256,-34.3828 520.0083,-24.7996"/>
<polygon fill="#191970" stroke="#191970" points="521.3323,-21.5214 510.9262,-19.5303 517.8194,-27.5761 521.3323,-21.5214"/>
</g>
<!-- Node17&#45;&gt;Node6 -->
<g id="edge24" class="edge">
<title>Node17&#45;&gt;Node6</title>
<path fill="none" stroke="#191970" d="M908.7935,-190.389C904.4385,-166.0735 895.8757,-118.2644 891.0409,-91.2698"/>
<polygon fill="#191970" stroke="#191970" points="894.4284,-90.3305 889.2201,-81.1042 887.538,-91.5646 894.4284,-90.3305"/>
</g>
<!-- Node19 -->
<g id="node20" class="node">
<title>Node19</title>
<g id="a_node20"><a xlink:href="../../db/d14/MCTruthContainer_8h.html" target="_top" xlink:title="Definition of a container to keep Monte Carlo truth external to simulation objects. ">
<polygon fill="none" stroke="#000000" points="1105,-123.5 1105,-153.5 1232,-153.5 1232,-123.5 1105,-123.5"/>
<text text-anchor="start" x="1113" y="-141.5" font-family="Helvetica,sans-Serif" font-size="10.00" fill="#000000">SimulationDataFormat</text>
<text text-anchor="middle" x="1168.5" y="-130.5" font-family="Helvetica,sans-Serif" font-size="10.00" fill="#000000">/MCTruthContainer.h</text>
</a>
</g>
</g>
<!-- Node18&#45;&gt;Node19 -->
<g id="edge26" class="edge">
<title>Node18&#45;&gt;Node19</title>
<path fill="none" stroke="#191970" d="M1168.5,-190.2967C1168.5,-182.5013 1168.5,-172.7991 1168.5,-163.9064"/>
<polygon fill="#191970" stroke="#191970" points="1172.0001,-163.6431 1168.5,-153.6432 1165.0001,-163.6432 1172.0001,-163.6431"/>
</g>
<!-- Node26 -->
<g id="node27" class="node">
<title>Node26</title>
<g id="a_node27"><a xlink:href="../../db/d31/Traits_8h.html" target="_top" xlink:title="Framework/Traits.h">
<polygon fill="none" stroke="#000000" points="1323,-129 1323,-148 1432,-148 1432,-129 1323,-129"/>
<text text-anchor="middle" x="1377.5" y="-136" font-family="Helvetica,sans-Serif" font-size="10.00" fill="#000000">Framework/Traits.h</text>
</a>
</g>
</g>
<!-- Node18&#45;&gt;Node26 -->
<g id="edge36" class="edge">
<title>Node18&#45;&gt;Node26</title>
<path fill="none" stroke="#191970" d="M1215.4037,-190.4639C1252.3183,-178.63 1303.1777,-162.3258 1338.0261,-151.1543"/>
<polygon fill="#191970" stroke="#191970" points="1339.395,-154.391 1347.8492,-148.0053 1337.258,-147.7251 1339.395,-154.391"/>
</g>
<!-- Node19&#45;&gt;Node6 -->
<g id="edge27" class="edge">
<title>Node19&#45;&gt;Node6</title>
<path fill="none" stroke="#191970" d="M1105.4381,-123.4639C1054.6349,-111.3507 984.1875,-94.5536 937.2911,-83.3719"/>
<polygon fill="#191970" stroke="#191970" points="937.9046,-79.9201 927.3655,-81.0053 936.281,-86.7292 937.9046,-79.9201"/>
</g>
<!-- Node19&#45;&gt;Node8 -->
<g id="edge28" class="edge">
<title>Node19&#45;&gt;Node8</title>
<path fill="none" stroke="#191970" d="M1132.0543,-123.3207C1111.0724,-113.9692 1084.5724,-101.0942 1062.5,-87 1044.1298,-75.2698 1044.6969,-64.1944 1024.5,-56 978.7962,-37.4567 640.3553,-17.8317 529.5247,-11.8408"/>
<polygon fill="#191970" stroke="#191970" points="529.7005,-8.3453 519.5272,-11.3041 529.3252,-15.3353 529.7005,-8.3453"/>
</g>
<!-- Node19&#45;&gt;Node15 -->
<g id="edge35" class="edge">
<title>Node19&#45;&gt;Node15</title>
<path fill="none" stroke="#191970" d="M1126.7022,-123.415C1099.0352,-113.3314 1061.9978,-99.6443 1029.5,-87 1027.8566,-86.3606 1026.1758,-85.6999 1024.4801,-85.0281"/>
<polygon fill="#191970" stroke="#191970" points="1025.348,-81.6051 1014.7639,-81.1286 1022.7407,-88.1014 1025.348,-81.6051"/>
</g>
<!-- Node20 -->
<g id="node21" class="node">
<title>Node20</title>
<polygon fill="none" stroke="#bfbfbf" points="1215.5,-62 1215.5,-81 1267.5,-81 1267.5,-62 1215.5,-62"/>
<text text-anchor="middle" x="1241.5" y="-69" font-family="Helvetica,sans-Serif" font-size="10.00" fill="#000000">cassert</text>
</g>
<!-- Node19&#45;&gt;Node20 -->
<g id="edge29" class="edge">
<title>Node19&#45;&gt;Node20</title>
<path fill="none" stroke="#191970" d="M1185.0648,-123.2967C1196.549,-112.7564 1211.8312,-98.7303 1223.5962,-87.9323"/>
<polygon fill="#191970" stroke="#191970" points="1226.0886,-90.3954 1231.0894,-81.055 1221.3553,-85.2382 1226.0886,-90.3954"/>
</g>
<!-- Node21 -->
<g id="node22" class="node">
<title>Node21</title>
<polygon fill="none" stroke="#bfbfbf" points="1286,-62 1286,-81 1351,-81 1351,-62 1286,-62"/>
<text text-anchor="middle" x="1318.5" y="-69" font-family="Helvetica,sans-Serif" font-size="10.00" fill="#000000">stdexcept</text>
</g>
<!-- Node19&#45;&gt;Node21 -->
<g id="edge30" class="edge">
<title>Node19&#45;&gt;Node21</title>
<path fill="none" stroke="#191970" d="M1202.1629,-123.4639C1227.7845,-112.0196 1262.7661,-96.3945 1287.6627,-85.274"/>
<polygon fill="#191970" stroke="#191970" points="1289.2955,-88.378 1296.9987,-81.1039 1286.4407,-81.9866 1289.2955,-88.378"/>
</g>
<!-- Node22 -->
<g id="node23" class="node">
<title>Node22</title>
<polygon fill="none" stroke="#bfbfbf" points="1369.5,-62 1369.5,-81 1417.5,-81 1417.5,-62 1369.5,-62"/>
<text text-anchor="middle" x="1393.5" y="-69" font-family="Helvetica,sans-Serif" font-size="10.00" fill="#000000">gsl/gsl</text>
</g>
<!-- Node19&#45;&gt;Node22 -->
<g id="edge31" class="edge">
<title>Node19&#45;&gt;Node22</title>
<path fill="none" stroke="#191970" d="M1232.0656,-124.4466C1269.8863,-115.3483 1318.526,-102.3496 1360.5,-87 1362.0939,-86.4171 1363.7159,-85.7863 1365.3427,-85.124"/>
<polygon fill="#191970" stroke="#191970" points="1366.7873,-88.3124 1374.5489,-81.1007 1363.9841,-81.8981 1366.7873,-88.3124"/>
</g>
<!-- Node23 -->
<g id="node24" class="node">
<title>Node23</title>
<polygon fill="none" stroke="#bfbfbf" points="1436,-62 1436,-81 1505,-81 1505,-62 1436,-62"/>
<text text-anchor="middle" x="1470.5" y="-69" font-family="Helvetica,sans-Serif" font-size="10.00" fill="#000000">type_traits</text>
</g>
<!-- Node19&#45;&gt;Node23 -->
<g id="edge32" class="edge">
<title>Node19&#45;&gt;Node23</title>
<path fill="none" stroke="#191970" d="M1232.1731,-128.3798C1284.752,-119.4061 1361.0909,-104.9519 1426.5,-87 1429.4508,-86.1901 1432.489,-85.2817 1435.5244,-84.3215"/>
<polygon fill="#191970" stroke="#191970" points="1436.7172,-87.6133 1445.1007,-81.1351 1434.5071,-80.9714 1436.7172,-87.6133"/>
</g>
<!-- Node24 -->
<g id="node25" class="node">
<title>Node24</title>
<polygon fill="none" stroke="#bfbfbf" points="1071.5,-62 1071.5,-81 1121.5,-81 1121.5,-62 1071.5,-62"/>
<text text-anchor="middle" x="1096.5" y="-69" font-family="Helvetica,sans-Serif" font-size="10.00" fill="#000000">cstring</text>
</g>
<!-- Node19&#45;&gt;Node24 -->
<g id="edge33" class="edge">
<title>Node19&#45;&gt;Node24</title>
<path fill="none" stroke="#191970" d="M1152.1621,-123.2967C1140.8352,-112.7564 1125.7624,-98.7303 1114.1586,-87.9323"/>
<polygon fill="#191970" stroke="#191970" points="1116.4731,-85.3051 1106.768,-81.055 1111.7044,-90.4296 1116.4731,-85.3051"/>
</g>
<!-- Node25 -->
<g id="node26" class="node">
<title>Node25</title>
<polygon fill="none" stroke="#bfbfbf" points="1139.5,-62 1139.5,-81 1197.5,-81 1197.5,-62 1139.5,-62"/>
<text text-anchor="middle" x="1168.5" y="-69" font-family="Helvetica,sans-Serif" font-size="10.00" fill="#000000">memory</text>
</g>
<!-- Node19&#45;&gt;Node25 -->
<g id="edge34" class="edge">
<title>Node19&#45;&gt;Node25</title>
<path fill="none" stroke="#191970" d="M1168.5,-123.2967C1168.5,-113.7699 1168.5,-101.3954 1168.5,-91.1306"/>
<polygon fill="#191970" stroke="#191970" points="1172.0001,-91.0549 1168.5,-81.055 1165.0001,-91.055 1172.0001,-91.0549"/>
</g>
<!-- Node26&#45;&gt;Node23 -->
<g id="edge37" class="edge">
<title>Node26&#45;&gt;Node23</title>
<path fill="none" stroke="#191970" d="M1390.8246,-128.9005C1406.0178,-117.9549 1431.0703,-99.9064 1449.0284,-86.9688"/>
<polygon fill="#191970" stroke="#191970" points="1451.1323,-89.7668 1457.2001,-81.0817 1447.0405,-84.0872 1451.1323,-89.7668"/>
</g>
</g>
</svg>
        <g id="navigator" transform="translate(0 0)" fill="#404254">
                <rect fill="#f2f5e9" fill-opacity="0.5" stroke="#606060" stroke-width=".5" x="0" y="0" width="60" height="60"/>
                <use id="zoomplus" xlink:href="#zoomPlus" x="17" y="9" onmousedown="handleZoom(evt,'in')"/>
                <use id="zoomminus" xlink:href="#zoomMin" x="42" y="9" onmousedown="handleZoom(evt,'out')"/>
                <use id="reset" xlink:href="#resetDef" x="30" y="36" onmousedown="handleReset()"/>
                <g id="arrowUp" xlink:href="#dirArrow" transform="translate(30 24)" onmousedown="handlePan(0,-1)">
                  <use xlink:href="#rim" fill="#404040">
                        <set attributeName="fill" to="#808080" begin="arrowUp.mouseover" end="arrowUp.mouseout"/>
                  </use>
                  <path fill="none" stroke="white" stroke-width="1.5" d="M0,-3.0v7 M-2.5,-0.5L0,-3.0L2.5,-0.5"/>
                </g>
                <g id="arrowRight" xlink:href="#dirArrow" transform="rotate(90) translate(36 -43)" onmousedown="handlePan(1,0)">
                  <use xlink:href="#rim" fill="#404040">
                        <set attributeName="fill" to="#808080" begin="arrowRight.mouseover" end="arrowRight.mouseout"/>
                  </use>
                  <path fill="none" stroke="white" stroke-width="1.5" d="M0,-3.0v7 M-2.5,-0.5L0,-3.0L2.5,-0.5"/>
                </g>
                <g id="arrowDown" xlink:href="#dirArrow" transform="rotate(180) translate(-30 -48)" onmousedown="handlePan(0,1)">
                  <use xlink:href="#rim" fill="#404040">
                        <set attributeName="fill" to="#808080" begin="arrowDown.mouseover" end="arrowDown.mouseout"/>
                  </use>
                  <path fill="none" stroke="white" stroke-width="1.5" d="M0,-3.0v7 M-2.5,-0.5L0,-3.0L2.5,-0.5"/>
                </g>
                <g id="arrowLeft" xlink:href="#dirArrow" transform="rotate(270) translate(-36 17)" onmousedown="handlePan(-1,0)">
                  <use xlink:href="#rim" fill="#404040">
                        <set attributeName="fill" to="#808080" begin="arrowLeft.mouseover" end="arrowLeft.mouseout"/>
                  </use>
                  <path fill="none" stroke="white" stroke-width="1.5" d="M0,-3.0v7 M-2.5,-0.5L0,-3.0L2.5,-0.5"/>
                </g>
        </g>
        <svg viewBox="0 0 15 15" width="100%" height="30px" preserveAspectRatio="xMaxYMin meet">
         <g id="arrow_out" transform="scale(0.3 0.3)">
          <a xlink:href="PixelReader_8h__incl_org.svg" target="_base">
           <rect id="button" ry="5" rx="5" y="6" x="6" height="38" width="38"
                fill="#f2f5e9" fill-opacity="0.5" stroke="#606060" stroke-width="1.0"/>
           <path id="arrow"
             d="M 11.500037,31.436501 C 11.940474,20.09759 22.043105,11.32322 32.158766,21.979434 L 37.068811,17.246167 C 37.068811,17.246167 37.088388,32 37.088388,32 L 22.160133,31.978069 C 22.160133,31.978069 26.997745,27.140456 26.997745,27.140456 C 18.528582,18.264221 13.291696,25.230495 11.500037,31.436501 z"
             style="fill:#404040;"/>
          </a>
         </g>
        </svg>
</svg>
