<?xml version="1.0" encoding="UTF-8" standalone="no"?>
<!DOCTYPE svg PUBLIC "-//W3C//DTD SVG 1.1//EN"
 "http://www.w3.org/Graphics/SVG/1.1/DTD/svg11.dtd">
<!-- Generated by graphviz version 2.40.1 (20161225.0304)
 -->
<!-- Title: o2::trd::TrackletHCHeader Pages: 1 -->
<svg width="273pt" height="248pt"
 viewBox="0.00 0.00 273.00 248.00" xmlns="http://www.w3.org/2000/svg" xmlns:xlink="http://www.w3.org/1999/xlink">
<g id="graph0" class="graph" transform="scale(1 1) rotate(0) translate(4 244)">
<title>o2::trd::TrackletHCHeader</title>
<!-- Node1 -->
<g id="node1" class="node">
<title>Node1</title>
<polygon fill="#bfbfbf" stroke="#000000" points="63,-.5 63,-57.5 205,-57.5 205,-.5 63,-.5"/>
<text text-anchor="middle" x="134" y="-45.5" font-family="Helvetica,sans-Serif" font-size="10.00" fill="#000000">o2::trd::TrackletHCHeader</text>
<polyline fill="none" stroke="#000000" points="63,-38.5 205,-38.5 "/>
<text text-anchor="middle" x="134" y="-26.5" font-family="Helvetica,sans-Serif" font-size="10.00" fill="#000000"> </text>
<polyline fill="none" stroke="#000000" points="63,-19.5 205,-19.5 "/>
<text text-anchor="middle" x="134" y="-7.5" font-family="Helvetica,sans-Serif" font-size="10.00" fill="#000000"> </text>
</g>
<!-- Node2 -->
<g id="node2" class="node">
<title>Node2</title>
<polygon fill="none" stroke="#bfbfbf" points="0,-182.5 0,-239.5 148,-239.5 148,-182.5 0,-182.5"/>
<text text-anchor="middle" x="74" y="-227.5" font-family="Helvetica,sans-Serif" font-size="10.00" fill="#000000">anonymous:+__attribute__</text>
<polyline fill="none" stroke="#bfbfbf" points="0,-220.5 148,-220.5 "/>
<text text-anchor="middle" x="74" y="-208.5" font-family="Helvetica,sans-Serif" font-size="10.00" fill="#000000"> </text>
<polyline fill="none" stroke="#bfbfbf" points="0,-201.5 148,-201.5 "/>
<text text-anchor="middle" x="74" y="-189.5" font-family="Helvetica,sans-Serif" font-size="10.00" fill="#000000"> </text>
</g>
<!-- Node2&#45;&gt;Node1 -->
<g id="edge1" class="edge">
<title>Node2&#45;&gt;Node1</title>
<path fill="none" stroke="#404040" d="M74.7971,-182.4233C76.5032,-154.2601 81.6606,-110.5505 97,-76 98.2352,-73.2178 99.6726,-70.4566 101.2498,-67.748"/>
<polygon fill="none" stroke="#404040" points="101.3075,-67.66 101.2565,-60.4491 107.8932,-57.6286 107.9441,-64.8395 101.3075,-67.66"/>
<text text-anchor="middle" x="134.5" y="-117.5" font-family="Helvetica,sans-Serif" font-size="10.00" fill="#000000"> +__attribute__</text>
</g>
<!-- Node3 -->
<g id="node3" class="node">
<title>Node3</title>
<g id="a_node3"><a xlink:href="../../d3/d87/classuint32__t.html" target="_top" xlink:title="{uint32_t\n||}">
<polygon fill="none" stroke="#000000" points="166,-182.5 166,-239.5 222,-239.5 222,-182.5 166,-182.5"/>
<text text-anchor="middle" x="194" y="-227.5" font-family="Helvetica,sans-Serif" font-size="10.00" fill="#000000">uint32_t</text>
<polyline fill="none" stroke="#000000" points="166,-220.5 222,-220.5 "/>
<text text-anchor="middle" x="194" y="-208.5" font-family="Helvetica,sans-Serif" font-size="10.00" fill="#000000"> </text>
<polyline fill="none" stroke="#000000" points="166,-201.5 222,-201.5 "/>
<text text-anchor="middle" x="194" y="-189.5" font-family="Helvetica,sans-Serif" font-size="10.00" fill="#000000"> </text>
</a>
</g>
</g>
<!-- Node3&#45;&gt;Node1 -->
<g id="edge2" class="edge">
<title>Node3&#45;&gt;Node1</title>
<path fill="none" stroke="#404040" d="M193.5599,-182.3863C192.1728,-154.1949 187.4209,-110.4645 172,-76 170.7438,-73.1925 169.277,-70.4116 167.6644,-67.6882"/>
<polygon fill="none" stroke="#404040" points="167.5396,-67.502 160.8764,-64.7448 160.8586,-57.5337 167.5219,-60.2909 167.5396,-67.502"/>
<text text-anchor="middle" x="228.5" y="-156" font-family="Helvetica,sans-Serif" font-size="10.00" fill="#000000"> +side</text>
<text text-anchor="middle" x="228.5" y="-145" font-family="Helvetica,sans-Serif" font-size="10.00" fill="#000000">+layer</text>
<text text-anchor="middle" x="228.5" y="-134" font-family="Helvetica,sans-Serif" font-size="10.00" fill="#000000">+word</text>
<text text-anchor="middle" x="228.5" y="-123" font-family="Helvetica,sans-Serif" font-size="10.00" fill="#000000">+supermodule</text>
<text text-anchor="middle" x="228.5" y="-112" font-family="Helvetica,sans-Serif" font-size="10.00" fill="#000000">+one</text>
<text text-anchor="middle" x="228.5" y="-101" font-family="Helvetica,sans-Serif" font-size="10.00" fill="#000000">+stack</text>
<text text-anchor="middle" x="228.5" y="-90" font-family="Helvetica,sans-Serif" font-size="10.00" fill="#000000">+format</text>
<text text-anchor="middle" x="228.5" y="-79" font-family="Helvetica,sans-Serif" font-size="10.00" fill="#000000">+MCLK</text>
</g>
</g>
</svg>
