<?xml version="1.0" encoding="UTF-8" standalone="no"?>
<!DOCTYPE svg PUBLIC "-//W3C//DTD SVG 1.1//EN"
 "http://www.w3.org/Graphics/SVG/1.1/DTD/svg11.dtd">
<!-- Generated by graphviz version 2.40.1 (20161225.0304)
 -->
<!-- Title: /home/travis/build/AliceO2Group/AliceO2/GPU/GPUTracking/SliceTracker/GPUTPCSliceData.h Pages: 1 -->
<svg width="1250pt" height="509pt"
 viewBox="0.00 0.00 1249.50 509.00" xmlns="http://www.w3.org/2000/svg" xmlns:xlink="http://www.w3.org/1999/xlink">
<g id="graph0" class="graph" transform="scale(1 1) rotate(0) translate(4 505)">
<title>/home/travis/build/AliceO2Group/AliceO2/GPU/GPUTracking/SliceTracker/GPUTPCSliceData.h</title>
<!-- Node0 -->
<g id="node1" class="node">
<title>Node0</title>
<polygon fill="#bfbfbf" stroke="#000000" points="496.5,-448.5 496.5,-500.5 663.5,-500.5 663.5,-448.5 496.5,-448.5"/>
<text text-anchor="start" x="504.5" y="-488.5" font-family="Helvetica,sans-Serif" font-size="10.00" fill="#000000">/home/travis/build</text>
<text text-anchor="start" x="504.5" y="-477.5" font-family="Helvetica,sans-Serif" font-size="10.00" fill="#000000">/AliceO2Group/AliceO2</text>
<text text-anchor="start" x="504.5" y="-466.5" font-family="Helvetica,sans-Serif" font-size="10.00" fill="#000000">/GPU/GPUTracking/SliceTracker</text>
<text text-anchor="middle" x="580" y="-455.5" font-family="Helvetica,sans-Serif" font-size="10.00" fill="#000000">/GPUTPCSliceData.h</text>
</g>
<!-- Node1 -->
<g id="node2" class="node">
<title>Node1</title>
<g id="a_node2"><a xlink:href="../../da/dab/GPUTPCDef_8h.html" target="_top" xlink:title="GPUTPCDef.h">
<polygon fill="none" stroke="#000000" points="268,-280.5 268,-299.5 350,-299.5 350,-280.5 268,-280.5"/>
<text text-anchor="middle" x="309" y="-287.5" font-family="Helvetica,sans-Serif" font-size="10.00" fill="#000000">GPUTPCDef.h</text>
</a>
</g>
</g>
<!-- Node0&#45;&gt;Node1 -->
<g id="edge1" class="edge">
<title>Node0&#45;&gt;Node1</title>
<path fill="none" stroke="#191970" d="M496.3965,-469.2405C429.1544,-462.4847 333.5956,-447.0806 257,-412 220.4603,-395.2649 203.5347,-392.1627 186,-356 169.7364,-322.4587 217.4221,-305.3966 258.0809,-297.1198"/>
<polygon fill="#191970" stroke="#191970" points="258.7823,-300.5492 267.9551,-295.2473 257.478,-293.6718 258.7823,-300.5492"/>
</g>
<!-- Node12 -->
<g id="node13" class="node">
<title>Node12</title>
<g id="a_node13"><a xlink:href="../../d8/dff/GPUTPCRow_8h.html" target="_top" xlink:title="GPUTPCRow.h">
<polygon fill="none" stroke="#000000" points="266.5,-392.5 266.5,-411.5 351.5,-411.5 351.5,-392.5 266.5,-392.5"/>
<text text-anchor="middle" x="309" y="-399.5" font-family="Helvetica,sans-Serif" font-size="10.00" fill="#000000">GPUTPCRow.h</text>
</a>
</g>
</g>
<!-- Node0&#45;&gt;Node12 -->
<g id="edge13" class="edge">
<title>Node0&#45;&gt;Node12</title>
<path fill="none" stroke="#191970" d="M496.4798,-452.156C449.7964,-439.6669 393.4107,-424.5822 354.7454,-414.2382"/>
<polygon fill="#191970" stroke="#191970" points="355.3888,-410.7873 344.8239,-411.5839 353.5796,-417.5495 355.3888,-410.7873"/>
</g>
<!-- Node14 -->
<g id="node15" class="node">
<title>Node14</title>
<g id="a_node15"><a xlink:href="../../d6/da2/GPUCommonMath_8h.html" target="_top" xlink:title="GPUCommonMath.h">
<polygon fill="none" stroke="#000000" points="1091.5,-280.5 1091.5,-299.5 1206.5,-299.5 1206.5,-280.5 1091.5,-280.5"/>
<text text-anchor="middle" x="1149" y="-287.5" font-family="Helvetica,sans-Serif" font-size="10.00" fill="#000000">GPUCommonMath.h</text>
</a>
</g>
</g>
<!-- Node0&#45;&gt;Node14 -->
<g id="edge17" class="edge">
<title>Node0&#45;&gt;Node14</title>
<path fill="none" stroke="#191970" d="M663.669,-461.7436C789.8024,-441.4248 1021.5211,-399.5391 1093,-356 1112.3429,-344.2179 1128.3205,-323.4321 1138.1907,-308.3284"/>
<polygon fill="#191970" stroke="#191970" points="1141.1947,-310.1256 1143.5226,-299.7897 1135.2572,-306.418 1141.1947,-310.1256"/>
</g>
<!-- Node17 -->
<g id="node18" class="node">
<title>Node17</title>
<g id="a_node18"><a xlink:href="../../df/d13/GPUParam_8h.html" target="_top" xlink:title="GPUParam.h">
<polygon fill="none" stroke="#000000" points="541.5,-392.5 541.5,-411.5 618.5,-411.5 618.5,-392.5 541.5,-392.5"/>
<text text-anchor="middle" x="580" y="-399.5" font-family="Helvetica,sans-Serif" font-size="10.00" fill="#000000">GPUParam.h</text>
</a>
</g>
</g>
<!-- Node0&#45;&gt;Node17 -->
<g id="edge21" class="edge">
<title>Node0&#45;&gt;Node17</title>
<path fill="none" stroke="#191970" d="M580,-448.3258C580,-439.5142 580,-429.8397 580,-421.621"/>
<polygon fill="#191970" stroke="#191970" points="583.5001,-421.534 580,-411.534 576.5001,-421.534 583.5001,-421.534"/>
</g>
<!-- Node26 -->
<g id="node27" class="node">
<title>Node26</title>
<g id="a_node27"><a xlink:href="../../d5/da6/GPUMemoryResource_8h.html" target="_top" xlink:title="GPUMemoryResource.h">
<polygon fill="none" stroke="#000000" points="922.5,-336.5 922.5,-355.5 1053.5,-355.5 1053.5,-336.5 922.5,-336.5"/>
<text text-anchor="middle" x="988" y="-343.5" font-family="Helvetica,sans-Serif" font-size="10.00" fill="#000000">GPUMemoryResource.h</text>
</a>
</g>
</g>
<!-- Node0&#45;&gt;Node26 -->
<g id="edge38" class="edge">
<title>Node0&#45;&gt;Node26</title>
<path fill="none" stroke="#191970" d="M662.5649,-448.4961C749.3849,-421.1521 882.3427,-379.2769 948.1958,-358.5364"/>
<polygon fill="#191970" stroke="#191970" points="949.3049,-361.8566 957.7916,-355.5142 947.202,-355.1799 949.3049,-361.8566"/>
</g>
<!-- Node2 -->
<g id="node3" class="node">
<title>Node2</title>
<g id="a_node3"><a xlink:href="../../d2/d6d/GPUDef_8h.html" target="_top" xlink:title="GPUDef.h">
<polygon fill="none" stroke="#000000" points="405.5,-224.5 405.5,-243.5 468.5,-243.5 468.5,-224.5 405.5,-224.5"/>
<text text-anchor="middle" x="437" y="-231.5" font-family="Helvetica,sans-Serif" font-size="10.00" fill="#000000">GPUDef.h</text>
</a>
</g>
</g>
<!-- Node1&#45;&gt;Node2 -->
<g id="edge2" class="edge">
<title>Node1&#45;&gt;Node2</title>
<path fill="none" stroke="#191970" d="M331.004,-280.3733C351.6435,-271.3435 382.7158,-257.7494 405.8889,-247.6111"/>
<polygon fill="#191970" stroke="#191970" points="407.5245,-250.7159 415.2831,-243.5011 404.7187,-244.3028 407.5245,-250.7159"/>
</g>
<!-- Node3 -->
<g id="node4" class="node">
<title>Node3</title>
<g id="a_node4"><a xlink:href="../../df/d21/GPUCommonDef_8h.html" target="_top" xlink:title="GPUCommonDef.h">
<polygon fill="none" stroke="#000000" points="794.5,-56.5 794.5,-75.5 901.5,-75.5 901.5,-56.5 794.5,-56.5"/>
<text text-anchor="middle" x="848" y="-63.5" font-family="Helvetica,sans-Serif" font-size="10.00" fill="#000000">GPUCommonDef.h</text>
</a>
</g>
</g>
<!-- Node2&#45;&gt;Node3 -->
<g id="edge3" class="edge">
<title>Node2&#45;&gt;Node3</title>
<path fill="none" stroke="#191970" d="M445.984,-224.1704C454.043,-215.1188 465.9576,-201.1419 475,-188 496.9988,-156.0277 485.9081,-133.8239 518,-112 560.1871,-83.311 700.911,-72.318 784.3522,-68.2554"/>
<polygon fill="#191970" stroke="#191970" points="784.6568,-71.7451 794.4827,-67.7825 784.3303,-64.7527 784.6568,-71.7451"/>
</g>
<!-- Node6 -->
<g id="node7" class="node">
<title>Node6</title>
<g id="a_node7"><a xlink:href="../../d2/d37/GPUDefConstantsAndSettings_8h.html" target="_top" xlink:title="GPUDefConstantsAndSettings.h">
<polygon fill="none" stroke="#000000" points="560.5,-112.5 560.5,-131.5 731.5,-131.5 731.5,-112.5 560.5,-112.5"/>
<text text-anchor="middle" x="646" y="-119.5" font-family="Helvetica,sans-Serif" font-size="10.00" fill="#000000">GPUDefConstantsAndSettings.h</text>
</a>
</g>
</g>
<!-- Node2&#45;&gt;Node6 -->
<g id="edge6" class="edge">
<title>Node2&#45;&gt;Node6</title>
<path fill="none" stroke="#191970" d="M454.8192,-224.4509C491.606,-204.7375 576.1221,-159.4465 619.4004,-136.2543"/>
<polygon fill="#191970" stroke="#191970" points="621.0649,-139.3333 628.2259,-131.5249 617.7585,-133.1634 621.0649,-139.3333"/>
</g>
<!-- Node7 -->
<g id="node8" class="node">
<title>Node7</title>
<g id="a_node8"><a xlink:href="../../dc/de9/GPUDefGPUParameters_8h.html" target="_top" xlink:title="GPUDefGPUParameters.h">
<polygon fill="none" stroke="#000000" points="0,-168.5 0,-187.5 140,-187.5 140,-168.5 0,-168.5"/>
<text text-anchor="middle" x="70" y="-175.5" font-family="Helvetica,sans-Serif" font-size="10.00" fill="#000000">GPUDefGPUParameters.h</text>
</a>
</g>
</g>
<!-- Node2&#45;&gt;Node7 -->
<g id="edge8" class="edge">
<title>Node2&#45;&gt;Node7</title>
<path fill="none" stroke="#191970" d="M405.3921,-229.177C347.3675,-220.3231 222.4916,-201.2685 142.5651,-189.0726"/>
<polygon fill="#191970" stroke="#191970" points="142.9788,-185.5953 132.5652,-187.5467 141.9228,-192.5152 142.9788,-185.5953"/>
</g>
<!-- Node9 -->
<g id="node10" class="node">
<title>Node9</title>
<g id="a_node10"><a xlink:href="../../d3/d4c/GPUDefOpenCL12Templates_8h.html" target="_top" xlink:title="GPUDefOpenCL12Templates.h">
<polygon fill="none" stroke="#000000" points="302,-168.5 302,-187.5 466,-187.5 466,-168.5 302,-168.5"/>
<text text-anchor="middle" x="384" y="-175.5" font-family="Helvetica,sans-Serif" font-size="10.00" fill="#000000">GPUDefOpenCL12Templates.h</text>
</a>
</g>
</g>
<!-- Node2&#45;&gt;Node9 -->
<g id="edge10" class="edge">
<title>Node2&#45;&gt;Node9</title>
<path fill="none" stroke="#191970" d="M427.7681,-224.2455C420.1683,-216.2155 409.2123,-204.6394 400.1632,-195.0781"/>
<polygon fill="#191970" stroke="#191970" points="402.542,-192.4998 393.1261,-187.6427 397.4579,-197.3115 402.542,-192.4998"/>
</g>
<!-- Node10 -->
<g id="node11" class="node">
<title>Node10</title>
<g id="a_node11"><a xlink:href="../../d2/d45/GPUCommonRtypes_8h.html" target="_top" xlink:title="GPUCommonRtypes.h">
<polygon fill="none" stroke="#000000" points="158.5,-168.5 158.5,-187.5 283.5,-187.5 283.5,-168.5 158.5,-168.5"/>
<text text-anchor="middle" x="221" y="-175.5" font-family="Helvetica,sans-Serif" font-size="10.00" fill="#000000">GPUCommonRtypes.h</text>
</a>
</g>
</g>
<!-- Node2&#45;&gt;Node10 -->
<g id="edge11" class="edge">
<title>Node2&#45;&gt;Node10</title>
<path fill="none" stroke="#191970" d="M405.1285,-225.737C368.8102,-216.3212 309.1228,-200.8466 267.5871,-190.0781"/>
<polygon fill="#191970" stroke="#191970" points="268.2648,-186.6382 257.7064,-187.5165 266.508,-193.4142 268.2648,-186.6382"/>
</g>
<!-- Node4 -->
<g id="node5" class="node">
<title>Node4</title>
<g id="a_node5"><a xlink:href="../../d5/d93/GPUCommonDefSettings_8h.html" target="_top" xlink:title="GPUCommonDefSettings.h">
<polygon fill="none" stroke="#000000" points="697,-.5 697,-19.5 845,-19.5 845,-.5 697,-.5"/>
<text text-anchor="middle" x="771" y="-7.5" font-family="Helvetica,sans-Serif" font-size="10.00" fill="#000000">GPUCommonDefSettings.h</text>
</a>
</g>
</g>
<!-- Node3&#45;&gt;Node4 -->
<g id="edge4" class="edge">
<title>Node3&#45;&gt;Node4</title>
<path fill="none" stroke="#191970" d="M834.5876,-56.2455C822.9943,-47.814 806.0252,-35.4729 792.5322,-25.6598"/>
<polygon fill="#191970" stroke="#191970" points="794.4047,-22.6938 784.2587,-19.6427 790.2874,-28.355 794.4047,-22.6938"/>
</g>
<!-- Node5 -->
<g id="node6" class="node">
<title>Node5</title>
<g id="a_node6"><a xlink:href="../../da/d5a/GPUCommonDefAPI_8h.html" target="_top" xlink:title="GPUCommonDefAPI.h">
<polygon fill="none" stroke="#000000" points="863,-.5 863,-19.5 987,-19.5 987,-.5 863,-.5"/>
<text text-anchor="middle" x="925" y="-7.5" font-family="Helvetica,sans-Serif" font-size="10.00" fill="#000000">GPUCommonDefAPI.h</text>
</a>
</g>
</g>
<!-- Node3&#45;&gt;Node5 -->
<g id="edge5" class="edge">
<title>Node3&#45;&gt;Node5</title>
<path fill="none" stroke="#191970" d="M861.4124,-56.2455C873.0057,-47.814 889.9748,-35.4729 903.4678,-25.6598"/>
<polygon fill="#191970" stroke="#191970" points="905.7126,-28.355 911.7413,-19.6427 901.5953,-22.6938 905.7126,-28.355"/>
</g>
<!-- Node6&#45;&gt;Node3 -->
<g id="edge7" class="edge">
<title>Node6&#45;&gt;Node3</title>
<path fill="none" stroke="#191970" d="M680.725,-112.3733C714.7508,-102.9404 766.7437,-88.5265 803.7234,-78.2747"/>
<polygon fill="#191970" stroke="#191970" points="805.0266,-81.5455 813.7281,-75.5011 803.1565,-74.7999 805.0266,-81.5455"/>
</g>
<!-- Node8 -->
<g id="node9" class="node">
<title>Node8</title>
<g id="a_node9"><a xlink:href="../../d6/dff/GPUDefMacros_8h.html" target="_top" xlink:title="GPUDefMacros.h">
<polygon fill="none" stroke="#000000" points="21,-112.5 21,-131.5 119,-131.5 119,-112.5 21,-112.5"/>
<text text-anchor="middle" x="70" y="-119.5" font-family="Helvetica,sans-Serif" font-size="10.00" fill="#000000">GPUDefMacros.h</text>
</a>
</g>
</g>
<!-- Node7&#45;&gt;Node8 -->
<g id="edge9" class="edge">
<title>Node7&#45;&gt;Node8</title>
<path fill="none" stroke="#191970" d="M70,-168.2455C70,-160.9382 70,-150.6944 70,-141.7046"/>
<polygon fill="#191970" stroke="#191970" points="73.5001,-141.6426 70,-131.6427 66.5001,-141.6427 73.5001,-141.6426"/>
</g>
<!-- Node11 -->
<g id="node12" class="node">
<title>Node11</title>
<polygon fill="none" stroke="#bfbfbf" points="191.5,-112.5 191.5,-131.5 250.5,-131.5 250.5,-112.5 191.5,-112.5"/>
<text text-anchor="middle" x="221" y="-119.5" font-family="Helvetica,sans-Serif" font-size="10.00" fill="#000000">Rtypes.h</text>
</g>
<!-- Node10&#45;&gt;Node11 -->
<g id="edge12" class="edge">
<title>Node10&#45;&gt;Node11</title>
<path fill="none" stroke="#191970" d="M221,-168.2455C221,-160.9382 221,-150.6944 221,-141.7046"/>
<polygon fill="#191970" stroke="#191970" points="224.5001,-141.6426 221,-131.6427 217.5001,-141.6427 224.5001,-141.6426"/>
</g>
<!-- Node12&#45;&gt;Node1 -->
<g id="edge14" class="edge">
<title>Node12&#45;&gt;Node1</title>
<path fill="none" stroke="#191970" d="M309,-392.4509C309,-374.184 309,-333.9553 309,-309.6976"/>
<polygon fill="#191970" stroke="#191970" points="312.5001,-309.5249 309,-299.5249 305.5001,-309.5249 312.5001,-309.5249"/>
</g>
<!-- Node13 -->
<g id="node14" class="node">
<title>Node13</title>
<g id="a_node14"><a xlink:href="../../d3/da7/GPUTPCGrid_8h.html" target="_top" xlink:title="GPUTPCGrid.h">
<polygon fill="none" stroke="#000000" points="195,-336.5 195,-355.5 281,-355.5 281,-336.5 195,-336.5"/>
<text text-anchor="middle" x="238" y="-343.5" font-family="Helvetica,sans-Serif" font-size="10.00" fill="#000000">GPUTPCGrid.h</text>
</a>
</g>
</g>
<!-- Node12&#45;&gt;Node13 -->
<g id="edge15" class="edge">
<title>Node12&#45;&gt;Node13</title>
<path fill="none" stroke="#191970" d="M296.6327,-392.2455C286.0446,-383.8943 270.5936,-371.7076 258.2107,-361.9408"/>
<polygon fill="#191970" stroke="#191970" points="260.2447,-359.0875 250.2255,-355.6427 255.9097,-364.5837 260.2447,-359.0875"/>
</g>
<!-- Node13&#45;&gt;Node1 -->
<g id="edge16" class="edge">
<title>Node13&#45;&gt;Node1</title>
<path fill="none" stroke="#191970" d="M250.3673,-336.2455C260.9554,-327.8943 276.4064,-315.7076 288.7893,-305.9408"/>
<polygon fill="#191970" stroke="#191970" points="291.0903,-308.5837 296.7745,-299.6427 286.7553,-303.0875 291.0903,-308.5837"/>
</g>
<!-- Node14&#45;&gt;Node3 -->
<g id="edge18" class="edge">
<title>Node14&#45;&gt;Node3</title>
<path fill="none" stroke="#191970" d="M1150.5372,-280.2543C1152.2142,-267.0607 1153.8303,-242.9846 1147,-224 1125.6617,-164.6905 1113.3358,-145.5892 1060,-112 1035.6743,-96.6805 964.9712,-83.2738 911.8539,-74.9465"/>
<polygon fill="#191970" stroke="#191970" points="912.2364,-71.4642 901.8201,-73.4005 911.1704,-78.3826 912.2364,-71.4642"/>
</g>
<!-- Node15 -->
<g id="node16" class="node">
<title>Node15</title>
<polygon fill="none" stroke="#bfbfbf" points="1194.5,-224.5 1194.5,-243.5 1241.5,-243.5 1241.5,-224.5 1194.5,-224.5"/>
<text text-anchor="middle" x="1218" y="-231.5" font-family="Helvetica,sans-Serif" font-size="10.00" fill="#000000">cmath</text>
</g>
<!-- Node14&#45;&gt;Node15 -->
<g id="edge19" class="edge">
<title>Node14&#45;&gt;Node15</title>
<path fill="none" stroke="#191970" d="M1161.0189,-280.2455C1171.2098,-271.9746 1186.0362,-259.9416 1198.0107,-250.2232"/>
<polygon fill="#191970" stroke="#191970" points="1200.5598,-252.662 1206.1188,-243.6427 1196.1486,-247.2268 1200.5598,-252.662"/>
</g>
<!-- Node16 -->
<g id="node17" class="node">
<title>Node16</title>
<polygon fill="none" stroke="#bfbfbf" points="1074,-224.5 1074,-243.5 1138,-243.5 1138,-224.5 1074,-224.5"/>
<text text-anchor="middle" x="1106" y="-231.5" font-family="Helvetica,sans-Serif" font-size="10.00" fill="#000000">algorithm</text>
</g>
<!-- Node14&#45;&gt;Node16 -->
<g id="edge20" class="edge">
<title>Node14&#45;&gt;Node16</title>
<path fill="none" stroke="#191970" d="M1141.51,-280.2455C1135.4674,-272.3761 1126.8097,-261.101 1119.5559,-251.6542"/>
<polygon fill="#191970" stroke="#191970" points="1122.2705,-249.4426 1113.4042,-243.6427 1116.7185,-253.7058 1122.2705,-249.4426"/>
</g>
<!-- Node17&#45;&gt;Node2 -->
<g id="edge24" class="edge">
<title>Node17&#45;&gt;Node2</title>
<path fill="none" stroke="#191970" d="M571.902,-392.4862C548.8077,-365.3545 482.3512,-287.2798 452.2002,-251.8576"/>
<polygon fill="#191970" stroke="#191970" points="454.5124,-249.1742 445.3654,-243.8279 449.182,-253.7114 454.5124,-249.1742"/>
</g>
<!-- Node17&#45;&gt;Node3 -->
<g id="edge22" class="edge">
<title>Node17&#45;&gt;Node3</title>
<path fill="none" stroke="#191970" d="M574.6402,-392.2549C553.3165,-352.0368 479.1136,-197.0883 552,-112 566.9195,-94.5828 701.8104,-79.3284 784.2605,-71.5254"/>
<polygon fill="#191970" stroke="#191970" points="784.66,-75.0034 794.291,-70.5883 784.0088,-68.0337 784.66,-75.0034"/>
</g>
<!-- Node17&#45;&gt;Node14 -->
<g id="edge23" class="edge">
<title>Node17&#45;&gt;Node14</title>
<path fill="none" stroke="#191970" d="M618.8379,-401.0557C718.7082,-398.1918 982.261,-387.7588 1063,-356 1090.4428,-345.2053 1116.5095,-322.8999 1132.604,-307.2181"/>
<polygon fill="#191970" stroke="#191970" points="1135.4944,-309.2752 1140.0658,-299.7173 1130.5318,-304.3383 1135.4944,-309.2752"/>
</g>
<!-- Node18 -->
<g id="node19" class="node">
<title>Node18</title>
<g id="a_node19"><a xlink:href="../../dd/dc6/GPUSettings_8h.html" target="_top" xlink:title="GPUSettings.h">
<polygon fill="none" stroke="#000000" points="723,-336.5 723,-355.5 809,-355.5 809,-336.5 723,-336.5"/>
<text text-anchor="middle" x="766" y="-343.5" font-family="Helvetica,sans-Serif" font-size="10.00" fill="#000000">GPUSettings.h</text>
</a>
</g>
</g>
<!-- Node17&#45;&gt;Node18 -->
<g id="edge25" class="edge">
<title>Node17&#45;&gt;Node18</title>
<path fill="none" stroke="#191970" d="M611.9745,-392.3733C643.1713,-382.9807 690.771,-368.6496 724.7932,-358.4064"/>
<polygon fill="#191970" stroke="#191970" points="725.8763,-361.7355 734.4427,-355.5011 723.8582,-355.0327 725.8763,-361.7355"/>
</g>
<!-- Node24 -->
<g id="node25" class="node">
<title>Node24</title>
<g id="a_node25"><a xlink:href="../../d6/d1b/GPUTPCGeometry_8h.html" target="_top" xlink:title="GPUTPCGeometry.h">
<polygon fill="none" stroke="#000000" points="749.5,-112.5 749.5,-131.5 862.5,-131.5 862.5,-112.5 749.5,-112.5"/>
<text text-anchor="middle" x="806" y="-119.5" font-family="Helvetica,sans-Serif" font-size="10.00" fill="#000000">GPUTPCGeometry.h</text>
</a>
</g>
</g>
<!-- Node17&#45;&gt;Node24 -->
<g id="edge34" class="edge">
<title>Node17&#45;&gt;Node24</title>
<path fill="none" stroke="#191970" d="M578.6912,-392.3962C574.4672,-357.1485 564.8516,-233.5539 627,-168 635.545,-158.9867 699.2324,-144.0493 748.2344,-133.6508"/>
<polygon fill="#191970" stroke="#191970" points="749.0646,-137.0529 758.1302,-131.5697 747.6239,-130.2027 749.0646,-137.0529"/>
</g>
<!-- Node25 -->
<g id="node26" class="node">
<title>Node25</title>
<g id="a_node26"><a xlink:href="../../d9/d9c/GPUTPCGMPolynomialField_8h.html" target="_top" xlink:title="GPUTPCGMPolynomialField.h">
<polygon fill="none" stroke="#000000" points="337,-336.5 337,-355.5 495,-355.5 495,-336.5 337,-336.5"/>
<text text-anchor="middle" x="416" y="-343.5" font-family="Helvetica,sans-Serif" font-size="10.00" fill="#000000">GPUTPCGMPolynomialField.h</text>
</a>
</g>
</g>
<!-- Node17&#45;&gt;Node25 -->
<g id="edge36" class="edge">
<title>Node17&#45;&gt;Node25</title>
<path fill="none" stroke="#191970" d="M551.8074,-392.3733C524.6547,-383.1016 483.4093,-369.0178 453.4975,-358.804"/>
<polygon fill="#191970" stroke="#191970" points="454.4192,-355.4204 443.8247,-355.5011 452.1572,-362.0449 454.4192,-355.4204"/>
</g>
<!-- Node18&#45;&gt;Node3 -->
<g id="edge26" class="edge">
<title>Node18&#45;&gt;Node3</title>
<path fill="none" stroke="#191970" d="M771.6325,-336.1628C792.0752,-300.2472 861.6993,-176.0026 872,-132 874.026,-123.3451 874.1167,-120.6332 872,-112 869.6257,-102.3164 864.8179,-92.4071 860.1247,-84.2776"/>
<polygon fill="#191970" stroke="#191970" points="863.0472,-82.3486 854.8208,-75.672 857.0881,-86.0214 863.0472,-82.3486"/>
</g>
<!-- Node19 -->
<g id="node20" class="node">
<title>Node19</title>
<polygon fill="none" stroke="#bfbfbf" points="813.5,-280.5 813.5,-299.5 860.5,-299.5 860.5,-280.5 813.5,-280.5"/>
<text text-anchor="middle" x="837" y="-287.5" font-family="Helvetica,sans-Serif" font-size="10.00" fill="#000000">vector</text>
</g>
<!-- Node18&#45;&gt;Node19 -->
<g id="edge27" class="edge">
<title>Node18&#45;&gt;Node19</title>
<path fill="none" stroke="#191970" d="M778.3673,-336.2455C788.9554,-327.8943 804.4064,-315.7076 816.7893,-305.9408"/>
<polygon fill="#191970" stroke="#191970" points="819.0903,-308.5837 824.7745,-299.6427 814.7553,-303.0875 819.0903,-308.5837"/>
</g>
<!-- Node20 -->
<g id="node21" class="node">
<title>Node20</title>
<polygon fill="none" stroke="#bfbfbf" points="879,-280.5 879,-299.5 923,-299.5 923,-280.5 879,-280.5"/>
<text text-anchor="middle" x="901" y="-287.5" font-family="Helvetica,sans-Serif" font-size="10.00" fill="#000000">string</text>
</g>
<!-- Node18&#45;&gt;Node20 -->
<g id="edge28" class="edge">
<title>Node18&#45;&gt;Node20</title>
<path fill="none" stroke="#191970" d="M789.2073,-336.3733C811.4361,-327.1524 845.1388,-313.1721 869.7275,-302.9723"/>
<polygon fill="#191970" stroke="#191970" points="871.0937,-306.1948 878.9895,-299.1303 868.4115,-299.729 871.0937,-306.1948"/>
</g>
<!-- Node21 -->
<g id="node22" class="node">
<title>Node21</title>
<g id="a_node22"><a xlink:href="../../da/d08/qconfig_8h.html" target="_top" xlink:title="utils/qconfig.h">
<polygon fill="none" stroke="#000000" points="633.5,-280.5 633.5,-299.5 718.5,-299.5 718.5,-280.5 633.5,-280.5"/>
<text text-anchor="middle" x="676" y="-287.5" font-family="Helvetica,sans-Serif" font-size="10.00" fill="#000000">utils/qconfig.h</text>
</a>
</g>
</g>
<!-- Node18&#45;&gt;Node21 -->
<g id="edge29" class="edge">
<title>Node18&#45;&gt;Node21</title>
<path fill="none" stroke="#191970" d="M750.3232,-336.2455C736.5144,-327.6534 716.1807,-315.0014 700.2708,-305.1018"/>
<polygon fill="#191970" stroke="#191970" points="701.8368,-301.954 691.4972,-299.6427 698.1387,-307.8974 701.8368,-301.954"/>
</g>
<!-- Node22 -->
<g id="node23" class="node">
<title>Node22</title>
<g id="a_node23"><a xlink:href="../../d8/de9/qconfigoptions_8h.html" target="_top" xlink:title="qconfigoptions.h">
<polygon fill="none" stroke="#000000" points="627.5,-224.5 627.5,-243.5 724.5,-243.5 724.5,-224.5 627.5,-224.5"/>
<text text-anchor="middle" x="676" y="-231.5" font-family="Helvetica,sans-Serif" font-size="10.00" fill="#000000">qconfigoptions.h</text>
</a>
</g>
</g>
<!-- Node21&#45;&gt;Node22 -->
<g id="edge30" class="edge">
<title>Node21&#45;&gt;Node22</title>
<path fill="none" stroke="#191970" d="M676,-280.2455C676,-272.9382 676,-262.6944 676,-253.7046"/>
<polygon fill="#191970" stroke="#191970" points="679.5001,-253.6426 676,-243.6427 672.5001,-253.6427 679.5001,-253.6426"/>
</g>
<!-- Node23 -->
<g id="node24" class="node">
<title>Node23</title>
<g id="a_node24"><a xlink:href="../../d4/d57/GPUSettingsList_8h.html" target="_top" xlink:title="GPUSettingsList.h">
<polygon fill="none" stroke="#000000" points="636,-168.5 636,-187.5 740,-187.5 740,-168.5 636,-168.5"/>
<text text-anchor="middle" x="688" y="-175.5" font-family="Helvetica,sans-Serif" font-size="10.00" fill="#000000">GPUSettingsList.h</text>
</a>
</g>
</g>
<!-- Node22&#45;&gt;Node23 -->
<g id="edge31" class="edge">
<title>Node22&#45;&gt;Node23</title>
<path fill="none" stroke="#191970" d="M678.0902,-224.2455C679.6561,-216.9382 681.8512,-206.6944 683.7776,-197.7046"/>
<polygon fill="#191970" stroke="#191970" points="687.2607,-198.1541 685.9337,-187.6427 680.416,-196.6873 687.2607,-198.1541"/>
</g>
<!-- Node23&#45;&gt;Node6 -->
<g id="edge32" class="edge">
<title>Node23&#45;&gt;Node6</title>
<path fill="none" stroke="#191970" d="M680.6842,-168.2455C674.7821,-160.3761 666.3258,-149.101 659.2406,-139.6542"/>
<polygon fill="#191970" stroke="#191970" points="662.0321,-137.5427 653.232,-131.6427 656.432,-141.7427 662.0321,-137.5427"/>
</g>
<!-- Node23&#45;&gt;Node18 -->
<g id="edge33" class="edge">
<title>Node23&#45;&gt;Node18</title>
<path fill="none" stroke="#191970" d="M700.7919,-187.5711C711.2246,-196.0389 725.5682,-209.3063 734,-224 752.9019,-256.9397 760.8799,-301.2439 764.0598,-326.3948"/>
<polygon fill="#191970" stroke="#191970" points="760.6004,-326.9515 765.2052,-336.4933 767.5558,-326.1625 760.6004,-326.9515"/>
</g>
<!-- Node24&#45;&gt;Node3 -->
<g id="edge35" class="edge">
<title>Node24&#45;&gt;Node3</title>
<path fill="none" stroke="#191970" d="M813.3158,-112.2455C819.2179,-104.3761 827.6742,-93.101 834.7594,-83.6542"/>
<polygon fill="#191970" stroke="#191970" points="837.568,-85.7427 840.768,-75.6427 831.9679,-81.5427 837.568,-85.7427"/>
</g>
<!-- Node25&#45;&gt;Node1 -->
<g id="edge37" class="edge">
<title>Node25&#45;&gt;Node1</title>
<path fill="none" stroke="#191970" d="M397.362,-336.2455C380.5614,-327.4527 355.6366,-314.4079 336.5382,-304.4125"/>
<polygon fill="#191970" stroke="#191970" points="337.9073,-301.1787 327.4244,-299.6427 334.6614,-307.3807 337.9073,-301.1787"/>
</g>
<!-- Node26&#45;&gt;Node3 -->
<g id="edge39" class="edge">
<title>Node26&#45;&gt;Node3</title>
<path fill="none" stroke="#191970" d="M1006.8824,-336.3676C1019.97,-328.5389 1036.3649,-316.1524 1044,-300 1047.7987,-291.9637 1046.6622,-288.4809 1044,-280 1016.7491,-193.187 993.8928,-173.6803 927,-112 912.9895,-99.0812 894.7414,-88.1611 879.3135,-80.207"/>
<polygon fill="#191970" stroke="#191970" points="880.6479,-76.9618 870.135,-75.6463 877.533,-83.2306 880.6479,-76.9618"/>
</g>
<!-- Node27 -->
<g id="node28" class="node">
<title>Node27</title>
<g id="a_node28"><a xlink:href="../../d6/d57/GPUProcessor_8h.html" target="_top" xlink:title="GPUProcessor.h">
<polygon fill="none" stroke="#000000" points="941.5,-280.5 941.5,-299.5 1034.5,-299.5 1034.5,-280.5 941.5,-280.5"/>
<text text-anchor="middle" x="988" y="-287.5" font-family="Helvetica,sans-Serif" font-size="10.00" fill="#000000">GPUProcessor.h</text>
</a>
</g>
</g>
<!-- Node26&#45;&gt;Node27 -->
<g id="edge40" class="edge">
<title>Node26&#45;&gt;Node27</title>
<path fill="none" stroke="#191970" d="M988,-336.2455C988,-328.9382 988,-318.6944 988,-309.7046"/>
<polygon fill="#191970" stroke="#191970" points="991.5001,-309.6426 988,-299.6427 984.5001,-309.6427 991.5001,-309.6426"/>
</g>
<!-- Node27&#45;&gt;Node2 -->
<g id="edge42" class="edge">
<title>Node27&#45;&gt;Node2</title>
<path fill="none" stroke="#191970" d="M941.2953,-281.3571C938.1541,-280.8693 935.0338,-280.4111 932,-280 764.7177,-257.3322 564.1,-242.45 478.7355,-236.6887"/>
<polygon fill="#191970" stroke="#191970" points="478.8776,-233.1905 468.6664,-236.0155 478.4106,-240.1749 478.8776,-233.1905"/>
</g>
<!-- Node27&#45;&gt;Node3 -->
<g id="edge41" class="edge">
<title>Node27&#45;&gt;Node3</title>
<path fill="none" stroke="#191970" d="M985.9859,-280.3559C983.0848,-267.2774 977.1669,-243.3314 969,-224 946.6887,-171.1879 942.1733,-155.647 905,-112 895.2411,-100.5416 882.3218,-89.8456 871.2505,-81.6564"/>
<polygon fill="#191970" stroke="#191970" points="873.0337,-78.6288 862.8634,-75.6596 868.9623,-84.323 873.0337,-78.6288"/>
</g>
<!-- Node27&#45;&gt;Node16 -->
<g id="edge44" class="edge">
<title>Node27&#45;&gt;Node16</title>
<path fill="none" stroke="#191970" d="M1008.2849,-280.3733C1027.1421,-271.4241 1055.446,-257.9917 1076.7455,-247.8835"/>
<polygon fill="#191970" stroke="#191970" points="1078.4461,-250.9506 1085.9798,-243.5011 1075.4449,-244.6266 1078.4461,-250.9506"/>
</g>
<!-- Node28 -->
<g id="node29" class="node">
<title>Node28</title>
<polygon fill="none" stroke="#bfbfbf" points="906.5,-224.5 906.5,-243.5 959.5,-243.5 959.5,-224.5 906.5,-224.5"/>
<text text-anchor="middle" x="933" y="-231.5" font-family="Helvetica,sans-Serif" font-size="10.00" fill="#000000">cstddef</text>
</g>
<!-- Node27&#45;&gt;Node28 -->
<g id="edge43" class="edge">
<title>Node27&#45;&gt;Node28</title>
<path fill="none" stroke="#191970" d="M978.4197,-280.2455C970.4542,-272.1352 958.9359,-260.4075 949.4921,-250.7919"/>
<polygon fill="#191970" stroke="#191970" points="951.9747,-248.3247 942.4705,-243.6427 946.9805,-253.2297 951.9747,-248.3247"/>
</g>
</g>
</svg>
