<?xml version="1.0" encoding="UTF-8" standalone="no"?>
<!DOCTYPE svg PUBLIC "-//W3C//DTD SVG 1.1//EN"
 "http://www.w3.org/Graphics/SVG/1.1/DTD/svg11.dtd">
<!-- Generated by graphviz version 2.40.1 (20161225.0304)
 -->
<!-- Title: o2::fdd::RecPoint Pages: 1 -->
<svg width="334pt" height="683pt"
 viewBox="0.00 0.00 334.29 683.00" xmlns="http://www.w3.org/2000/svg" xmlns:xlink="http://www.w3.org/1999/xlink">
<g id="graph0" class="graph" transform="scale(1 1) rotate(0) translate(4 679)">
<title>o2::fdd::RecPoint</title>
<!-- Node1 -->
<g id="node1" class="node">
<title>Node1</title>
<polygon fill="#bfbfbf" stroke="#000000" points="20.2861,-.5 20.2861,-79.5 118.2861,-79.5 118.2861,-.5 20.2861,-.5"/>
<text text-anchor="middle" x="69.2861" y="-67.5" font-family="Helvetica,sans-Serif" font-size="10.00" fill="#000000">o2::fdd::RecPoint</text>
<polyline fill="none" stroke="#000000" points="20.2861,-60.5 118.2861,-60.5 "/>
<text text-anchor="middle" x="69.2861" y="-48.5" font-family="Helvetica,sans-Serif" font-size="10.00" fill="#000000"> </text>
<polyline fill="none" stroke="#000000" points="20.2861,-41.5 118.2861,-41.5 "/>
<text text-anchor="start" x="28.2861" y="-29.5" font-family="Helvetica,sans-Serif" font-size="10.00" fill="#000000">+ RecPoint()</text>
<text text-anchor="start" x="28.2861" y="-18.5" font-family="Helvetica,sans-Serif" font-size="10.00" fill="#000000">+ RecPoint()</text>
<text text-anchor="start" x="28.2861" y="-7.5" font-family="Helvetica,sans-Serif" font-size="10.00" fill="#000000">+ ClassDefNV()</text>
</g>
<!-- Node2 -->
<g id="node2" class="node">
<title>Node2</title>
<g id="a_node2"><a xlink:href="../../d1/d21/structo2_1_1InteractionRecord.html" target="_top" xlink:title="{o2::InteractionRecord\n||+ InteractionRecord()\l+ InteractionRecord()\l+ InteractionRecord()\l+ InteractionRecord()\l+ clear()\l+ isDummy()\l+ setFromNS()\l+ bc2ns()\l+ operator==()\l+ operator!=()\l+ differenceInBC()\l+ differenceInBCns()\l+ toLong()\l+ setFromLong()\l+ operator\&gt;()\l+ operator\&gt;=()\l+ operator\&lt;()\l+ operator\&lt;=()\l+ operator&#45;&#45;()\l+ operator&#45;&#45;()\l+ operator++()\l+ operator++()\l+ operator+=()\l+ operator&#45;=()\l+ operator+=()\l+ operator&#45;=()\l+ operator+()\l+ operator&#45;()\l+ operator+()\l+ operator&#45;()\l+ print()\l+ asString()\l+ ClassDefNV()\l+ bc2ns()\l+ ns2bc()\l}">
<polygon fill="none" stroke="#000000" points="128.7861,-127.5 128.7861,-558.5 249.7861,-558.5 249.7861,-127.5 128.7861,-127.5"/>
<text text-anchor="middle" x="189.2861" y="-546.5" font-family="Helvetica,sans-Serif" font-size="10.00" fill="#000000">o2::InteractionRecord</text>
<polyline fill="none" stroke="#000000" points="128.7861,-539.5 249.7861,-539.5 "/>
<text text-anchor="middle" x="189.2861" y="-527.5" font-family="Helvetica,sans-Serif" font-size="10.00" fill="#000000"> </text>
<polyline fill="none" stroke="#000000" points="128.7861,-520.5 249.7861,-520.5 "/>
<text text-anchor="start" x="136.7861" y="-508.5" font-family="Helvetica,sans-Serif" font-size="10.00" fill="#000000">+ InteractionRecord()</text>
<text text-anchor="start" x="136.7861" y="-497.5" font-family="Helvetica,sans-Serif" font-size="10.00" fill="#000000">+ InteractionRecord()</text>
<text text-anchor="start" x="136.7861" y="-486.5" font-family="Helvetica,sans-Serif" font-size="10.00" fill="#000000">+ InteractionRecord()</text>
<text text-anchor="start" x="136.7861" y="-475.5" font-family="Helvetica,sans-Serif" font-size="10.00" fill="#000000">+ InteractionRecord()</text>
<text text-anchor="start" x="136.7861" y="-464.5" font-family="Helvetica,sans-Serif" font-size="10.00" fill="#000000">+ clear()</text>
<text text-anchor="start" x="136.7861" y="-453.5" font-family="Helvetica,sans-Serif" font-size="10.00" fill="#000000">+ isDummy()</text>
<text text-anchor="start" x="136.7861" y="-442.5" font-family="Helvetica,sans-Serif" font-size="10.00" fill="#000000">+ setFromNS()</text>
<text text-anchor="start" x="136.7861" y="-431.5" font-family="Helvetica,sans-Serif" font-size="10.00" fill="#000000">+ bc2ns()</text>
<text text-anchor="start" x="136.7861" y="-420.5" font-family="Helvetica,sans-Serif" font-size="10.00" fill="#000000">+ operator==()</text>
<text text-anchor="start" x="136.7861" y="-409.5" font-family="Helvetica,sans-Serif" font-size="10.00" fill="#000000">+ operator!=()</text>
<text text-anchor="start" x="136.7861" y="-398.5" font-family="Helvetica,sans-Serif" font-size="10.00" fill="#000000">+ differenceInBC()</text>
<text text-anchor="start" x="136.7861" y="-387.5" font-family="Helvetica,sans-Serif" font-size="10.00" fill="#000000">+ differenceInBCns()</text>
<text text-anchor="start" x="136.7861" y="-376.5" font-family="Helvetica,sans-Serif" font-size="10.00" fill="#000000">+ toLong()</text>
<text text-anchor="start" x="136.7861" y="-365.5" font-family="Helvetica,sans-Serif" font-size="10.00" fill="#000000">+ setFromLong()</text>
<text text-anchor="start" x="136.7861" y="-354.5" font-family="Helvetica,sans-Serif" font-size="10.00" fill="#000000">+ operator&gt;()</text>
<text text-anchor="start" x="136.7861" y="-343.5" font-family="Helvetica,sans-Serif" font-size="10.00" fill="#000000">+ operator&gt;=()</text>
<text text-anchor="start" x="136.7861" y="-332.5" font-family="Helvetica,sans-Serif" font-size="10.00" fill="#000000">+ operator&lt;()</text>
<text text-anchor="start" x="136.7861" y="-321.5" font-family="Helvetica,sans-Serif" font-size="10.00" fill="#000000">+ operator&lt;=()</text>
<text text-anchor="start" x="136.7861" y="-310.5" font-family="Helvetica,sans-Serif" font-size="10.00" fill="#000000">+ operator&#45;&#45;()</text>
<text text-anchor="start" x="136.7861" y="-299.5" font-family="Helvetica,sans-Serif" font-size="10.00" fill="#000000">+ operator&#45;&#45;()</text>
<text text-anchor="start" x="136.7861" y="-288.5" font-family="Helvetica,sans-Serif" font-size="10.00" fill="#000000">+ operator++()</text>
<text text-anchor="start" x="136.7861" y="-277.5" font-family="Helvetica,sans-Serif" font-size="10.00" fill="#000000">+ operator++()</text>
<text text-anchor="start" x="136.7861" y="-266.5" font-family="Helvetica,sans-Serif" font-size="10.00" fill="#000000">+ operator+=()</text>
<text text-anchor="start" x="136.7861" y="-255.5" font-family="Helvetica,sans-Serif" font-size="10.00" fill="#000000">+ operator&#45;=()</text>
<text text-anchor="start" x="136.7861" y="-244.5" font-family="Helvetica,sans-Serif" font-size="10.00" fill="#000000">+ operator+=()</text>
<text text-anchor="start" x="136.7861" y="-233.5" font-family="Helvetica,sans-Serif" font-size="10.00" fill="#000000">+ operator&#45;=()</text>
<text text-anchor="start" x="136.7861" y="-222.5" font-family="Helvetica,sans-Serif" font-size="10.00" fill="#000000">+ operator+()</text>
<text text-anchor="start" x="136.7861" y="-211.5" font-family="Helvetica,sans-Serif" font-size="10.00" fill="#000000">+ operator&#45;()</text>
<text text-anchor="start" x="136.7861" y="-200.5" font-family="Helvetica,sans-Serif" font-size="10.00" fill="#000000">+ operator+()</text>
<text text-anchor="start" x="136.7861" y="-189.5" font-family="Helvetica,sans-Serif" font-size="10.00" fill="#000000">+ operator&#45;()</text>
<text text-anchor="start" x="136.7861" y="-178.5" font-family="Helvetica,sans-Serif" font-size="10.00" fill="#000000">+ print()</text>
<text text-anchor="start" x="136.7861" y="-167.5" font-family="Helvetica,sans-Serif" font-size="10.00" fill="#000000">+ asString()</text>
<text text-anchor="start" x="136.7861" y="-156.5" font-family="Helvetica,sans-Serif" font-size="10.00" fill="#000000">+ ClassDefNV()</text>
<text text-anchor="start" x="136.7861" y="-145.5" font-family="Helvetica,sans-Serif" font-size="10.00" fill="#000000">+ bc2ns()</text>
<text text-anchor="start" x="136.7861" y="-134.5" font-family="Helvetica,sans-Serif" font-size="10.00" fill="#000000">+ ns2bc()</text>
</a>
</g>
</g>
<!-- Node2&#45;&gt;Node1 -->
<g id="edge1" class="edge">
<title>Node2&#45;&gt;Node1</title>
<path fill="none" stroke="#404040" d="M128.6884,-162.225C124.0015,-150.2315 119.1827,-138.3978 114.2861,-127 109.1485,-115.0414 103.0605,-102.4567 97.0496,-90.6892"/>
<polygon fill="none" stroke="#404040" points="96.8753,-90.3536 90.5598,-86.873 91.3437,-79.7046 97.6592,-83.1852 96.8753,-90.3536"/>
<text text-anchor="middle" x="139.7861" y="-101" font-family="Helvetica,sans-Serif" font-size="10.00" fill="#000000"> +mIntRecord</text>
</g>
<!-- Node3 -->
<g id="node3" class="node">
<title>Node3</title>
<polygon fill="none" stroke="#bfbfbf" points="29.2861,-617.5 29.2861,-674.5 79.2861,-674.5 79.2861,-617.5 29.2861,-617.5"/>
<text text-anchor="middle" x="54.2861" y="-662.5" font-family="Helvetica,sans-Serif" font-size="10.00" fill="#000000">double</text>
<polyline fill="none" stroke="#bfbfbf" points="29.2861,-655.5 79.2861,-655.5 "/>
<text text-anchor="middle" x="54.2861" y="-643.5" font-family="Helvetica,sans-Serif" font-size="10.00" fill="#000000"> </text>
<polyline fill="none" stroke="#bfbfbf" points="29.2861,-636.5 79.2861,-636.5 "/>
<text text-anchor="middle" x="54.2861" y="-624.5" font-family="Helvetica,sans-Serif" font-size="10.00" fill="#000000"> </text>
</g>
<!-- Node3&#45;&gt;Node1 -->
<g id="edge5" class="edge">
<title>Node3&#45;&gt;Node1</title>
<path fill="none" stroke="#404040" d="M42.9212,-617.1173C36.9651,-600.4245 30.2967,-578.8579 27.2861,-559 -1.4934,-369.1692 -15.5278,-314.1656 27.2861,-127 30.092,-114.7338 34.8604,-102.1851 40.2001,-90.573"/>
<polygon fill="none" stroke="#404040" points="40.2062,-90.5606 39.2297,-83.4158 45.4493,-79.7666 46.4257,-86.9113 40.2062,-90.5606"/>
<text text-anchor="middle" x="73.2861" y="-346" font-family="Helvetica,sans-Serif" font-size="10.00" fill="#000000"> +mMeanTimeFDA</text>
<text text-anchor="middle" x="73.2861" y="-335" font-family="Helvetica,sans-Serif" font-size="10.00" fill="#000000">+mMeanTimeFDC</text>
</g>
<!-- Node3&#45;&gt;Node2 -->
<g id="edge2" class="edge">
<title>Node3&#45;&gt;Node2</title>
<path fill="none" stroke="#404040" d="M72.6266,-617.4818C80.8745,-604.9233 90.8577,-590.0811 100.2861,-577 106.2121,-568.7781 109.4483,-567.9057 114.2861,-559 117.454,-553.1682 120.5281,-547.1768 123.507,-541.0716"/>
<polygon fill="none" stroke="#404040" points="123.6289,-540.8141 122.5825,-533.6794 128.766,-529.9693 129.8124,-537.1041 123.6289,-540.8141"/>
<text text-anchor="middle" x="138.2861" y="-585.5" font-family="Helvetica,sans-Serif" font-size="10.00" fill="#000000"> +DummyTime</text>
</g>
<!-- Node4 -->
<g id="node4" class="node">
<title>Node4</title>
<polygon fill="none" stroke="#bfbfbf" points="151.2861,-617.5 151.2861,-674.5 207.2861,-674.5 207.2861,-617.5 151.2861,-617.5"/>
<text text-anchor="middle" x="179.2861" y="-662.5" font-family="Helvetica,sans-Serif" font-size="10.00" fill="#000000">uint16_t</text>
<polyline fill="none" stroke="#bfbfbf" points="151.2861,-655.5 207.2861,-655.5 "/>
<text text-anchor="middle" x="179.2861" y="-643.5" font-family="Helvetica,sans-Serif" font-size="10.00" fill="#000000"> </text>
<polyline fill="none" stroke="#bfbfbf" points="151.2861,-636.5 207.2861,-636.5 "/>
<text text-anchor="middle" x="179.2861" y="-624.5" font-family="Helvetica,sans-Serif" font-size="10.00" fill="#000000"> </text>
</g>
<!-- Node4&#45;&gt;Node2 -->
<g id="edge3" class="edge">
<title>Node4&#45;&gt;Node2</title>
<path fill="none" stroke="#404040" d="M179.5464,-617.4618C179.6994,-605.0314 179.9342,-590.2936 180.2861,-577 180.3407,-574.9394 180.3966,-572.8686 180.4538,-570.7889"/>
<polygon fill="none" stroke="#404040" points="180.4538,-570.7833 176.6261,-564.672 180.7951,-558.7881 184.6229,-564.8995 180.4538,-570.7833"/>
<text text-anchor="middle" x="212.2861" y="-591" font-family="Helvetica,sans-Serif" font-size="10.00" fill="#000000"> +DummyBC</text>
<text text-anchor="middle" x="212.2861" y="-580" font-family="Helvetica,sans-Serif" font-size="10.00" fill="#000000">+bc</text>
</g>
<!-- Node5 -->
<g id="node5" class="node">
<title>Node5</title>
<g id="a_node5"><a xlink:href="../../d3/d87/classuint32__t.html" target="_top" xlink:title="{uint32_t\n||}">
<polygon fill="none" stroke="#000000" points="238.2861,-617.5 238.2861,-674.5 294.2861,-674.5 294.2861,-617.5 238.2861,-617.5"/>
<text text-anchor="middle" x="266.2861" y="-662.5" font-family="Helvetica,sans-Serif" font-size="10.00" fill="#000000">uint32_t</text>
<polyline fill="none" stroke="#000000" points="238.2861,-655.5 294.2861,-655.5 "/>
<text text-anchor="middle" x="266.2861" y="-643.5" font-family="Helvetica,sans-Serif" font-size="10.00" fill="#000000"> </text>
<polyline fill="none" stroke="#000000" points="238.2861,-636.5 294.2861,-636.5 "/>
<text text-anchor="middle" x="266.2861" y="-624.5" font-family="Helvetica,sans-Serif" font-size="10.00" fill="#000000"> </text>
</a>
</g>
</g>
<!-- Node5&#45;&gt;Node2 -->
<g id="edge4" class="edge">
<title>Node5&#45;&gt;Node2</title>
<path fill="none" stroke="#404040" d="M259.0421,-617.4945C255.8176,-604.8057 251.7039,-588.618 247.0914,-570.4677"/>
<polygon fill="none" stroke="#404040" points="247.0317,-570.2324 241.6771,-565.4024 244.0761,-558.6021 249.4307,-563.432 247.0317,-570.2324"/>
<text text-anchor="middle" x="290.2861" y="-591" font-family="Helvetica,sans-Serif" font-size="10.00" fill="#000000"> +orbit</text>
<text text-anchor="middle" x="290.2861" y="-580" font-family="Helvetica,sans-Serif" font-size="10.00" fill="#000000">+DummyOrbit</text>
</g>
</g>
</svg>
