<?xml version="1.0" encoding="UTF-8" standalone="no"?>
<!DOCTYPE svg PUBLIC "-//W3C//DTD SVG 1.1//EN"
 "http://www.w3.org/Graphics/SVG/1.1/DTD/svg11.dtd">
<!-- Generated by graphviz version 2.40.1 (20161225.0304)
 -->
<!-- Title: /home/travis/build/AliceO2Group/AliceO2/GPU/GPUTracking/Merger/GPUTPCGMMergerDump.cxx Pages: 1 -->
<svg width="2910pt" height="733pt"
 viewBox="0.00 0.00 2910.00 733.00" xmlns="http://www.w3.org/2000/svg" xmlns:xlink="http://www.w3.org/1999/xlink">
<g id="graph0" class="graph" transform="scale(1 1) rotate(0) translate(4 729)">
<title>/home/travis/build/AliceO2Group/AliceO2/GPU/GPUTracking/Merger/GPUTPCGMMergerDump.cxx</title>
<!-- Node0 -->
<g id="node1" class="node">
<title>Node0</title>
<polygon fill="#bfbfbf" stroke="#000000" points="1179,-672.5 1179,-724.5 1337,-724.5 1337,-672.5 1179,-672.5"/>
<text text-anchor="start" x="1187" y="-712.5" font-family="Helvetica,sans-Serif" font-size="10.00" fill="#000000">/home/travis/build</text>
<text text-anchor="start" x="1187" y="-701.5" font-family="Helvetica,sans-Serif" font-size="10.00" fill="#000000">/AliceO2Group/AliceO2</text>
<text text-anchor="start" x="1187" y="-690.5" font-family="Helvetica,sans-Serif" font-size="10.00" fill="#000000">/GPU/GPUTracking/Merger</text>
<text text-anchor="middle" x="1258" y="-679.5" font-family="Helvetica,sans-Serif" font-size="10.00" fill="#000000">/GPUTPCGMMergerDump.cxx</text>
</g>
<!-- Node1 -->
<g id="node2" class="node">
<title>Node1</title>
<polygon fill="none" stroke="#bfbfbf" points="1704,-560.5 1704,-579.5 1750,-579.5 1750,-560.5 1704,-560.5"/>
<text text-anchor="middle" x="1727" y="-567.5" font-family="Helvetica,sans-Serif" font-size="10.00" fill="#000000">cstdio</text>
</g>
<!-- Node0&#45;&gt;Node1 -->
<g id="edge1" class="edge">
<title>Node0&#45;&gt;Node1</title>
<path fill="none" stroke="#191970" d="M1337.0783,-688.2228C1402.8238,-678.4682 1498.3312,-661.4752 1579,-636 1622.6263,-622.2228 1670.547,-599.3173 1699.7027,-584.4396"/>
<polygon fill="#191970" stroke="#191970" points="1701.5554,-587.4222 1708.8376,-579.7267 1698.3459,-581.2013 1701.5554,-587.4222"/>
</g>
<!-- Node2 -->
<g id="node3" class="node">
<title>Node2</title>
<polygon fill="none" stroke="#bfbfbf" points="1768,-560.5 1768,-579.5 1818,-579.5 1818,-560.5 1768,-560.5"/>
<text text-anchor="middle" x="1793" y="-567.5" font-family="Helvetica,sans-Serif" font-size="10.00" fill="#000000">cstring</text>
</g>
<!-- Node0&#45;&gt;Node2 -->
<g id="edge2" class="edge">
<title>Node0&#45;&gt;Node2</title>
<path fill="none" stroke="#191970" d="M1337.1162,-689.2307C1410.8987,-679.5483 1523.597,-662.0944 1619,-636 1670.4805,-621.9192 1727.9743,-598.5286 1762.2846,-583.7064"/>
<polygon fill="#191970" stroke="#191970" points="1763.9713,-586.7893 1771.7394,-579.5847 1761.1739,-580.3726 1763.9713,-586.7893"/>
</g>
<!-- Node3 -->
<g id="node4" class="node">
<title>Node3</title>
<polygon fill="none" stroke="#bfbfbf" points="463.5,-280.5 463.5,-299.5 510.5,-299.5 510.5,-280.5 463.5,-280.5"/>
<text text-anchor="middle" x="487" y="-287.5" font-family="Helvetica,sans-Serif" font-size="10.00" fill="#000000">cmath</text>
</g>
<!-- Node0&#45;&gt;Node3 -->
<g id="edge3" class="edge">
<title>Node0&#45;&gt;Node3</title>
<path fill="none" stroke="#191970" d="M1178.8839,-696.3532C917.3559,-689.0051 94.4348,-663.7771 45,-636 14.0487,-618.6086 0,-605.5027 0,-570 0,-570 0,-570 0,-402 0,-368.1521 9.5996,-354.4146 38,-336 72.6523,-313.5317 354.7288,-296.8734 453.2172,-291.6932"/>
<polygon fill="#191970" stroke="#191970" points="453.4262,-295.1872 463.2311,-291.1729 453.0629,-288.1966 453.4262,-295.1872"/>
</g>
<!-- Node4 -->
<g id="node5" class="node">
<title>Node4</title>
<polygon fill="none" stroke="#bfbfbf" points="529,-280.5 529,-299.5 593,-299.5 593,-280.5 529,-280.5"/>
<text text-anchor="middle" x="561" y="-287.5" font-family="Helvetica,sans-Serif" font-size="10.00" fill="#000000">algorithm</text>
</g>
<!-- Node0&#45;&gt;Node4 -->
<g id="edge4" class="edge">
<title>Node0&#45;&gt;Node4</title>
<path fill="none" stroke="#191970" d="M1178.731,-694.947C983.1759,-685.907 481.6141,-660.9747 316,-636 190.4299,-617.064 38,-696.9898 38,-570 38,-570 38,-570 38,-402 38,-371.4754 33.3444,-355.2916 57,-336 96.9023,-303.459 468.1343,-307.9872 519,-300 519.1018,-299.984 519.2037,-299.9679 519.3058,-299.9517"/>
<polygon fill="#191970" stroke="#191970" points="519.8001,-303.4197 528.9988,-298.1628 518.5296,-296.5359 519.8001,-303.4197"/>
</g>
<!-- Node5 -->
<g id="node6" class="node">
<title>Node5</title>
<polygon fill="none" stroke="#bfbfbf" points="2772,-616.5 2772,-635.5 2828,-635.5 2828,-616.5 2772,-616.5"/>
<text text-anchor="middle" x="2800" y="-623.5" font-family="Helvetica,sans-Serif" font-size="10.00" fill="#000000">iomanip</text>
</g>
<!-- Node0&#45;&gt;Node5 -->
<g id="edge5" class="edge">
<title>Node0&#45;&gt;Node5</title>
<path fill="none" stroke="#191970" d="M1337.3932,-697.2047C1606.0351,-692.5065 2479.6543,-674.5703 2758,-636 2759.2529,-635.8264 2760.5231,-635.6322 2761.8029,-635.4209"/>
<polygon fill="#191970" stroke="#191970" points="2762.514,-638.8484 2771.6738,-633.524 2761.1929,-631.9742 2762.514,-638.8484"/>
</g>
<!-- Node6 -->
<g id="node7" class="node">
<title>Node6</title>
<polygon fill="none" stroke="#bfbfbf" points="2846,-616.5 2846,-635.5 2902,-635.5 2902,-616.5 2846,-616.5"/>
<text text-anchor="middle" x="2874" y="-623.5" font-family="Helvetica,sans-Serif" font-size="10.00" fill="#000000">numeric</text>
</g>
<!-- Node0&#45;&gt;Node6 -->
<g id="edge6" class="edge">
<title>Node0&#45;&gt;Node6</title>
<path fill="none" stroke="#191970" d="M1337.2448,-697.7128C1611.9613,-694.6211 2523.2286,-681.2413 2835.8857,-635.7965"/>
<polygon fill="#191970" stroke="#191970" points="2836.4856,-639.2458 2845.8577,-634.3047 2835.4499,-632.3228 2836.4856,-639.2458"/>
</g>
<!-- Node7 -->
<g id="node8" class="node">
<title>Node7</title>
<g id="a_node8"><a xlink:href="../../d6/d25/GPUTPCTracker_8h.html" target="_top" xlink:title="GPUTPCTracker.h">
<polygon fill="none" stroke="#000000" points="1426,-504.5 1426,-523.5 1526,-523.5 1526,-504.5 1426,-504.5"/>
<text text-anchor="middle" x="1476" y="-511.5" font-family="Helvetica,sans-Serif" font-size="10.00" fill="#000000">GPUTPCTracker.h</text>
</a>
</g>
</g>
<!-- Node0&#45;&gt;Node7 -->
<g id="edge7" class="edge">
<title>Node0&#45;&gt;Node7</title>
<path fill="none" stroke="#191970" d="M1288.7717,-672.457C1334.3816,-633.856 1418.6148,-562.5668 1456.5658,-530.4477"/>
<polygon fill="#191970" stroke="#191970" points="1458.9735,-532.9953 1464.3456,-523.8635 1454.4513,-527.6521 1458.9735,-532.9953"/>
</g>
<!-- Node24 -->
<g id="node25" class="node">
<title>Node24</title>
<g id="a_node25"><a xlink:href="../../d6/da2/GPUCommonMath_8h.html" target="_top" xlink:title="GPUCommonMath.h">
<polygon fill="none" stroke="#000000" points="502.5,-336.5 502.5,-355.5 617.5,-355.5 617.5,-336.5 502.5,-336.5"/>
<text text-anchor="middle" x="560" y="-343.5" font-family="Helvetica,sans-Serif" font-size="10.00" fill="#000000">GPUCommonMath.h</text>
</a>
</g>
</g>
<!-- Node0&#45;&gt;Node24 -->
<g id="edge110" class="edge">
<title>Node0&#45;&gt;Node24</title>
<path fill="none" stroke="#191970" d="M1178.7482,-695.616C1021.9418,-689.2127 677.5438,-671.4909 565,-636 508.7979,-618.2766 450,-628.9304 450,-570 450,-570 450,-570 450,-458 450,-427.4754 449.5339,-415.5122 469,-392 481.2681,-377.1819 499.5188,-366.6552 516.4621,-359.4467"/>
<polygon fill="#191970" stroke="#191970" points="518.2226,-362.514 526.2319,-355.5785 515.6457,-356.0056 518.2226,-362.514"/>
</g>
<!-- Node25 -->
<g id="node26" class="node">
<title>Node25</title>
<g id="a_node26"><a xlink:href="../../df/d13/GPUParam_8h.html" target="_top" xlink:title="GPUParam.h">
<polygon fill="none" stroke="#000000" points="2199.5,-392.5 2199.5,-411.5 2276.5,-411.5 2276.5,-392.5 2199.5,-392.5"/>
<text text-anchor="middle" x="2238" y="-399.5" font-family="Helvetica,sans-Serif" font-size="10.00" fill="#000000">GPUParam.h</text>
</a>
</g>
</g>
<!-- Node0&#45;&gt;Node25 -->
<g id="edge115" class="edge">
<title>Node0&#45;&gt;Node25</title>
<path fill="none" stroke="#191970" d="M1337.4176,-697.9712C1614.9531,-695.2707 2529.1099,-678.8798 2610,-580 2703.1648,-466.1156 2407.0148,-420.3666 2286.5741,-406.7508"/>
<polygon fill="#191970" stroke="#191970" points="2286.8281,-403.2577 2276.5049,-405.6412 2286.0614,-410.2156 2286.8281,-403.2577"/>
</g>
<!-- Node37 -->
<g id="node38" class="node">
<title>Node37</title>
<g id="a_node38"><a xlink:href="../../de/d15/GPUTPCTrackParam_8h.html" target="_top" xlink:title="GPUTPCTrackParam.h">
<polygon fill="none" stroke="#000000" points="1184,-392.5 1184,-411.5 1306,-411.5 1306,-392.5 1184,-392.5"/>
<text text-anchor="middle" x="1245" y="-399.5" font-family="Helvetica,sans-Serif" font-size="10.00" fill="#000000">GPUTPCTrackParam.h</text>
</a>
</g>
</g>
<!-- Node0&#45;&gt;Node37 -->
<g id="edge67" class="edge">
<title>Node0&#45;&gt;Node37</title>
<path fill="none" stroke="#191970" d="M1258,-672.4123C1258,-646.4505 1258,-605.4714 1258,-570 1258,-570 1258,-570 1258,-514 1258,-481.3457 1252.48,-443.6911 1248.6339,-421.4184"/>
<polygon fill="#191970" stroke="#191970" points="1252.0735,-420.7698 1246.8626,-411.545 1245.1835,-422.0059 1252.0735,-420.7698"/>
</g>
<!-- Node40 -->
<g id="node41" class="node">
<title>Node40</title>
<g id="a_node41"><a xlink:href="../../d1/dde/GPUTPCClusterData_8h.html" target="_top" xlink:title="GPUTPCClusterData.h">
<polygon fill="none" stroke="#000000" points="1447.5,-616.5 1447.5,-635.5 1570.5,-635.5 1570.5,-616.5 1447.5,-616.5"/>
<text text-anchor="middle" x="1509" y="-623.5" font-family="Helvetica,sans-Serif" font-size="10.00" fill="#000000">GPUTPCClusterData.h</text>
</a>
</g>
</g>
<!-- Node0&#45;&gt;Node40 -->
<g id="edge65" class="edge">
<title>Node0&#45;&gt;Node40</title>
<path fill="none" stroke="#191970" d="M1337.0735,-675.6601C1379.71,-663.3447 1430.6688,-648.6256 1465.9852,-638.4246"/>
<polygon fill="#191970" stroke="#191970" points="1467.3274,-641.6801 1475.9634,-635.5425 1465.3848,-634.955 1467.3274,-641.6801"/>
</g>
<!-- Node41 -->
<g id="node42" class="node">
<title>Node41</title>
<g id="a_node42"><a xlink:href="../../d4/dcf/GPUTPCGMMerger_8h.html" target="_top" xlink:title="GPUTPCGMMerger.h">
<polygon fill="none" stroke="#000000" points="878,-504.5 878,-523.5 992,-523.5 992,-504.5 878,-504.5"/>
<text text-anchor="middle" x="935" y="-511.5" font-family="Helvetica,sans-Serif" font-size="10.00" fill="#000000">GPUTPCGMMerger.h</text>
</a>
</g>
</g>
<!-- Node0&#45;&gt;Node41 -->
<g id="edge68" class="edge">
<title>Node0&#45;&gt;Node41</title>
<path fill="none" stroke="#191970" d="M1178.6381,-677.6782C1146.5413,-667.5262 1109.8611,-653.6455 1079,-636 1027.1528,-606.3553 976.1355,-557.0769 951.0504,-531.1518"/>
<polygon fill="#191970" stroke="#191970" points="953.2861,-528.4251 943.8489,-523.6096 948.2234,-533.2592 953.2861,-528.4251"/>
</g>
<!-- Node42 -->
<g id="node43" class="node">
<title>Node42</title>
<g id="a_node43"><a xlink:href="../../d8/dd4/GPUTPCGMBorderTrack_8h.html" target="_top" xlink:title="GPUTPCGMBorderTrack.h">
<polygon fill="none" stroke="#000000" points="810.5,-448.5 810.5,-467.5 949.5,-467.5 949.5,-448.5 810.5,-448.5"/>
<text text-anchor="middle" x="880" y="-455.5" font-family="Helvetica,sans-Serif" font-size="10.00" fill="#000000">GPUTPCGMBorderTrack.h</text>
</a>
</g>
</g>
<!-- Node0&#45;&gt;Node42 -->
<g id="edge118" class="edge">
<title>Node0&#45;&gt;Node42</title>
<path fill="none" stroke="#191970" d="M1229.0794,-672.1706C1183.4207,-631.6727 1090.5883,-553.592 1001,-504 976.0535,-490.1907 946.1136,-478.7706 922.2574,-470.7634"/>
<polygon fill="#191970" stroke="#191970" points="923.0308,-467.3337 912.438,-467.5437 920.8497,-473.9853 923.0308,-467.3337"/>
</g>
<!-- Node43 -->
<g id="node44" class="node">
<title>Node43</title>
<g id="a_node44"><a xlink:href="../../d8/dfd/GPUTPCGMMergedTrack_8h.html" target="_top" xlink:title="GPUTPCGMMergedTrack.h">
<polygon fill="none" stroke="#000000" points="278.5,-448.5 278.5,-467.5 421.5,-467.5 421.5,-448.5 278.5,-448.5"/>
<text text-anchor="middle" x="350" y="-455.5" font-family="Helvetica,sans-Serif" font-size="10.00" fill="#000000">GPUTPCGMMergedTrack.h</text>
</a>
</g>
</g>
<!-- Node0&#45;&gt;Node43 -->
<g id="edge114" class="edge">
<title>Node0&#45;&gt;Node43</title>
<path fill="none" stroke="#191970" d="M1178.9257,-696.9332C984.8656,-692.4645 496.4599,-677.2126 436,-636 381.2586,-598.6855 360.1743,-516.4399 353.114,-478.2374"/>
<polygon fill="#191970" stroke="#191970" points="356.4816,-477.1638 351.3513,-467.8939 349.581,-478.3398 356.4816,-477.1638"/>
</g>
<!-- Node44 -->
<g id="node45" class="node">
<title>Node44</title>
<g id="a_node45"><a xlink:href="../../d8/d33/GPUTPCGMTrackParam_8h.html" target="_top" xlink:title="GPUTPCGMTrackParam.h">
<polygon fill="none" stroke="#000000" points="209.5,-392.5 209.5,-411.5 346.5,-411.5 346.5,-392.5 209.5,-392.5"/>
<text text-anchor="middle" x="278" y="-399.5" font-family="Helvetica,sans-Serif" font-size="10.00" fill="#000000">GPUTPCGMTrackParam.h</text>
</a>
</g>
</g>
<!-- Node0&#45;&gt;Node44 -->
<g id="edge116" class="edge">
<title>Node0&#45;&gt;Node44</title>
<path fill="none" stroke="#191970" d="M1178.9039,-696.7031C941.2773,-690.265 250,-663.5006 250,-570 250,-570 250,-570 250,-514 250,-480.5848 261.8754,-443.1911 270.1585,-421.1729"/>
<polygon fill="#191970" stroke="#191970" points="273.4868,-422.2719 273.8685,-411.6839 266.9674,-419.7229 273.4868,-422.2719"/>
</g>
<!-- Node47 -->
<g id="node48" class="node">
<title>Node47</title>
<g id="a_node48"><a xlink:href="../../d1/dc3/GPUTPCGMSliceTrack_8h.html" target="_top" xlink:title="GPUTPCGMSliceTrack.h">
<polygon fill="none" stroke="#000000" points="516,-448.5 516,-467.5 646,-467.5 646,-448.5 516,-448.5"/>
<text text-anchor="middle" x="581" y="-455.5" font-family="Helvetica,sans-Serif" font-size="10.00" fill="#000000">GPUTPCGMSliceTrack.h</text>
</a>
</g>
</g>
<!-- Node0&#45;&gt;Node47 -->
<g id="edge117" class="edge">
<title>Node0&#45;&gt;Node47</title>
<path fill="none" stroke="#191970" d="M1178.8751,-676.93C1138.5587,-665.5237 1088.9035,-650.8353 1045,-636 880.7233,-580.4897 688.4068,-502.4316 613.3246,-471.4412"/>
<polygon fill="#191970" stroke="#191970" points="614.5122,-468.1449 603.9337,-467.5579 611.8373,-474.6136 614.5122,-468.1449"/>
</g>
<!-- Node50 -->
<g id="node51" class="node">
<title>Node50</title>
<g id="a_node51"><a xlink:href="../../d5/d5c/GPUO2DataTypes_8h.html" target="_top" xlink:title="GPUO2DataTypes.h">
<polygon fill="none" stroke="#000000" points="478.5,-392.5 478.5,-411.5 589.5,-411.5 589.5,-392.5 478.5,-392.5"/>
<text text-anchor="middle" x="534" y="-399.5" font-family="Helvetica,sans-Serif" font-size="10.00" fill="#000000">GPUO2DataTypes.h</text>
</a>
</g>
</g>
<!-- Node0&#45;&gt;Node50 -->
<g id="edge109" class="edge">
<title>Node0&#45;&gt;Node50</title>
<path fill="none" stroke="#191970" d="M1178.8562,-693.5268C982.3653,-680.1252 488,-639.5011 488,-570 488,-570 488,-570 488,-514 488,-478.66 507.8391,-441.4332 521.4597,-420.0395"/>
<polygon fill="#191970" stroke="#191970" points="524.4179,-421.9114 527.0136,-411.6394 518.5788,-418.0507 524.4179,-421.9114"/>
</g>
<!-- Node55 -->
<g id="node56" class="node">
<title>Node55</title>
<g id="a_node56"><a xlink:href="../../da/d4b/GPUTPCSliceOutput_8h.html" target="_top" xlink:title="GPUTPCSliceOutput.h">
<polygon fill="none" stroke="#000000" points="1286,-504.5 1286,-523.5 1408,-523.5 1408,-504.5 1286,-504.5"/>
<text text-anchor="middle" x="1347" y="-511.5" font-family="Helvetica,sans-Serif" font-size="10.00" fill="#000000">GPUTPCSliceOutput.h</text>
</a>
</g>
</g>
<!-- Node0&#45;&gt;Node55 -->
<g id="edge111" class="edge">
<title>Node0&#45;&gt;Node55</title>
<path fill="none" stroke="#191970" d="M1270.5628,-672.457C1288.7139,-634.8291 1321.8482,-566.1404 1337.8586,-532.9504"/>
<polygon fill="#191970" stroke="#191970" points="1341.0496,-534.391 1342.242,-523.8635 1334.7448,-531.3496 1341.0496,-534.391"/>
</g>
<!-- Node56 -->
<g id="node57" class="node">
<title>Node56</title>
<g id="a_node57"><a xlink:href="../../d2/de8/GPUReconstruction_8h.html" target="_top" xlink:title="GPUReconstruction.h">
<polygon fill="none" stroke="#000000" points="2205.5,-616.5 2205.5,-635.5 2324.5,-635.5 2324.5,-616.5 2205.5,-616.5"/>
<text text-anchor="middle" x="2265" y="-623.5" font-family="Helvetica,sans-Serif" font-size="10.00" fill="#000000">GPUReconstruction.h</text>
</a>
</g>
</g>
<!-- Node0&#45;&gt;Node56 -->
<g id="edge119" class="edge">
<title>Node0&#45;&gt;Node56</title>
<path fill="none" stroke="#191970" d="M1337.0176,-692.811C1528.2714,-679.0415 2013.6845,-644.0937 2195.1412,-631.0296"/>
<polygon fill="#191970" stroke="#191970" points="2195.638,-634.5029 2205.3608,-630.2938 2195.1352,-627.521 2195.638,-634.5029"/>
</g>
<!-- Node8 -->
<g id="node9" class="node">
<title>Node8</title>
<g id="a_node9"><a xlink:href="../../da/dab/GPUTPCDef_8h.html" target="_top" xlink:title="GPUTPCDef.h">
<polygon fill="none" stroke="#000000" points="1395,-280.5 1395,-299.5 1477,-299.5 1477,-280.5 1395,-280.5"/>
<text text-anchor="middle" x="1436" y="-287.5" font-family="Helvetica,sans-Serif" font-size="10.00" fill="#000000">GPUTPCDef.h</text>
</a>
</g>
</g>
<!-- Node7&#45;&gt;Node8 -->
<g id="edge8" class="edge">
<title>Node7&#45;&gt;Node8</title>
<path fill="none" stroke="#191970" d="M1460.4753,-504.3128C1442.0811,-491.5807 1415.5261,-468.4337 1429,-448 1451.3595,-414.0909 1490.6405,-445.9091 1513,-412 1517.8933,-404.5792 1515.8241,-400.4283 1513,-392 1501.4656,-357.5766 1473.2194,-325.4877 1454.3365,-306.8119"/>
<polygon fill="#191970" stroke="#191970" points="1456.5294,-304.0652 1446.8931,-299.6615 1451.68,-309.1133 1456.5294,-304.0652"/>
</g>
<!-- Node19 -->
<g id="node20" class="node">
<title>Node19</title>
<polygon fill="none" stroke="#bfbfbf" points="1170,-448.5 1170,-467.5 1230,-467.5 1230,-448.5 1170,-448.5"/>
<text text-anchor="middle" x="1200" y="-455.5" font-family="Helvetica,sans-Serif" font-size="10.00" fill="#000000">iostream</text>
</g>
<!-- Node7&#45;&gt;Node19 -->
<g id="edge20" class="edge">
<title>Node7&#45;&gt;Node19</title>
<path fill="none" stroke="#191970" d="M1428.8675,-504.4369C1375.717,-493.6527 1290.1935,-476.3001 1240.1151,-466.1393"/>
<polygon fill="#191970" stroke="#191970" points="1240.788,-462.7046 1230.2917,-464.1461 1239.396,-469.5648 1240.788,-462.7046"/>
</g>
<!-- Node20 -->
<g id="node21" class="node">
<title>Node20</title>
<g id="a_node21"><a xlink:href="../../dd/d7b/GPUTPCHitId_8h.html" target="_top" xlink:title="GPUTPCHitId.h">
<polygon fill="none" stroke="#000000" points="1438.5,-448.5 1438.5,-467.5 1527.5,-467.5 1527.5,-448.5 1438.5,-448.5"/>
<text text-anchor="middle" x="1483" y="-455.5" font-family="Helvetica,sans-Serif" font-size="10.00" fill="#000000">GPUTPCHitId.h</text>
</a>
</g>
</g>
<!-- Node7&#45;&gt;Node20 -->
<g id="edge21" class="edge">
<title>Node7&#45;&gt;Node20</title>
<path fill="none" stroke="#191970" d="M1477.2193,-504.2455C1478.1327,-496.9382 1479.4132,-486.6944 1480.5369,-477.7046"/>
<polygon fill="#191970" stroke="#191970" points="1484.0272,-477.9996 1481.7947,-467.6427 1477.0813,-477.1313 1484.0272,-477.9996"/>
</g>
<!-- Node21 -->
<g id="node22" class="node">
<title>Node21</title>
<g id="a_node22"><a xlink:href="../../df/d4a/GPUTPCSliceData_8h.html" target="_top" xlink:title="GPUTPCSliceData.h">
<polygon fill="none" stroke="#000000" points="1584,-448.5 1584,-467.5 1696,-467.5 1696,-448.5 1584,-448.5"/>
<text text-anchor="middle" x="1640" y="-455.5" font-family="Helvetica,sans-Serif" font-size="10.00" fill="#000000">GPUTPCSliceData.h</text>
</a>
</g>
</g>
<!-- Node7&#45;&gt;Node21 -->
<g id="edge22" class="edge">
<title>Node7&#45;&gt;Node21</title>
<path fill="none" stroke="#191970" d="M1504.1926,-504.3733C1531.3453,-495.1016 1572.5907,-481.0178 1602.5025,-470.804"/>
<polygon fill="#191970" stroke="#191970" points="1603.8428,-474.0449 1612.1753,-467.5011 1601.5808,-467.4204 1603.8428,-474.0449"/>
</g>
<!-- Node35 -->
<g id="node36" class="node">
<title>Node35</title>
<g id="a_node36"><a xlink:href="../../d6/d57/GPUProcessor_8h.html" target="_top" xlink:title="GPUProcessor.h">
<polygon fill="none" stroke="#000000" points="1834.5,-336.5 1834.5,-355.5 1927.5,-355.5 1927.5,-336.5 1834.5,-336.5"/>
<text text-anchor="middle" x="1881" y="-343.5" font-family="Helvetica,sans-Serif" font-size="10.00" fill="#000000">GPUProcessor.h</text>
</a>
</g>
</g>
<!-- Node7&#45;&gt;Node35 -->
<g id="edge64" class="edge">
<title>Node7&#45;&gt;Node35</title>
<path fill="none" stroke="#191970" d="M1526.4246,-509.8126C1574.0218,-504.5013 1646.6013,-492.8411 1705,-468 1768.4823,-440.9965 1832.4026,-389.0435 1862.7743,-362.4958"/>
<polygon fill="#191970" stroke="#191970" points="1865.2561,-364.9732 1870.4228,-355.7235 1860.6157,-359.7323 1865.2561,-364.9732"/>
</g>
<!-- Node7&#45;&gt;Node37 -->
<g id="edge56" class="edge">
<title>Node7&#45;&gt;Node37</title>
<path fill="none" stroke="#191970" d="M1456.3051,-504.4509C1415.4756,-484.6548 1321.4492,-439.0663 1273.8003,-415.9638"/>
<polygon fill="#191970" stroke="#191970" points="1275.1702,-412.7383 1264.6451,-411.5249 1272.1163,-419.037 1275.1702,-412.7383"/>
</g>
<!-- Node39 -->
<g id="node40" class="node">
<title>Node39</title>
<g id="a_node40"><a xlink:href="../../db/d6e/GPUTPCTracklet_8h.html" target="_top" xlink:title="GPUTPCTracklet.h">
<polygon fill="none" stroke="#000000" points="1400,-392.5 1400,-411.5 1504,-411.5 1504,-392.5 1400,-392.5"/>
<text text-anchor="middle" x="1452" y="-399.5" font-family="Helvetica,sans-Serif" font-size="10.00" fill="#000000">GPUTPCTracklet.h</text>
</a>
</g>
</g>
<!-- Node7&#45;&gt;Node39 -->
<g id="edge61" class="edge">
<title>Node7&#45;&gt;Node39</title>
<path fill="none" stroke="#191970" d="M1444.11,-504.4777C1426.5823,-497.43 1406.3495,-485.8893 1396,-468 1384.8412,-448.7117 1405.3999,-429.6237 1424.6754,-416.9759"/>
<polygon fill="#191970" stroke="#191970" points="1426.6502,-419.87 1433.3228,-411.6403 1422.9745,-413.9127 1426.6502,-419.87"/>
</g>
<!-- Node9 -->
<g id="node10" class="node">
<title>Node9</title>
<g id="a_node10"><a xlink:href="../../d2/d6d/GPUDef_8h.html" target="_top" xlink:title="GPUDef.h">
<polygon fill="none" stroke="#000000" points="1822.5,-224.5 1822.5,-243.5 1885.5,-243.5 1885.5,-224.5 1822.5,-224.5"/>
<text text-anchor="middle" x="1854" y="-231.5" font-family="Helvetica,sans-Serif" font-size="10.00" fill="#000000">GPUDef.h</text>
</a>
</g>
</g>
<!-- Node8&#45;&gt;Node9 -->
<g id="edge9" class="edge">
<title>Node8&#45;&gt;Node9</title>
<path fill="none" stroke="#191970" d="M1477.1574,-281.5209C1480.1454,-280.9814 1483.1164,-280.4679 1486,-280 1603.6383,-260.9099 1743.5471,-245.3775 1812.0222,-238.2381"/>
<polygon fill="#191970" stroke="#191970" points="1812.7981,-241.6765 1822.3843,-237.165 1812.077,-234.7138 1812.7981,-241.6765"/>
</g>
<!-- Node10 -->
<g id="node11" class="node">
<title>Node10</title>
<g id="a_node11"><a xlink:href="../../df/d21/GPUCommonDef_8h.html" target="_top" xlink:title="GPUCommonDef.h">
<polygon fill="none" stroke="#000000" points="1817.5,-56.5 1817.5,-75.5 1924.5,-75.5 1924.5,-56.5 1817.5,-56.5"/>
<text text-anchor="middle" x="1871" y="-63.5" font-family="Helvetica,sans-Serif" font-size="10.00" fill="#000000">GPUCommonDef.h</text>
</a>
</g>
</g>
<!-- Node9&#45;&gt;Node10 -->
<g id="edge10" class="edge">
<title>Node9&#45;&gt;Node10</title>
<path fill="none" stroke="#191970" d="M1822.4474,-230.8755C1774.2779,-225.3808 1685.9749,-212.2082 1667,-188 1661.5164,-181.0041 1665.414,-176.7463 1667,-168 1671.7428,-141.8452 1668.1771,-129.7093 1688,-112 1705.6588,-96.224 1761.732,-83.5964 1807.2021,-75.5923"/>
<polygon fill="#191970" stroke="#191970" points="1808.052,-78.9977 1817.3157,-73.8562 1806.8677,-72.0986 1808.052,-78.9977"/>
</g>
<!-- Node13 -->
<g id="node14" class="node">
<title>Node13</title>
<g id="a_node14"><a xlink:href="../../d2/d37/GPUDefConstantsAndSettings_8h.html" target="_top" xlink:title="GPUDefConstantsAndSettings.h">
<polygon fill="none" stroke="#000000" points="1949.5,-112.5 1949.5,-131.5 2120.5,-131.5 2120.5,-112.5 1949.5,-112.5"/>
<text text-anchor="middle" x="2035" y="-119.5" font-family="Helvetica,sans-Serif" font-size="10.00" fill="#000000">GPUDefConstantsAndSettings.h</text>
</a>
</g>
</g>
<!-- Node9&#45;&gt;Node13 -->
<g id="edge13" class="edge">
<title>Node9&#45;&gt;Node13</title>
<path fill="none" stroke="#191970" d="M1852.2692,-224.1318C1850.3777,-209.9009 1849.2353,-183.6151 1863,-168 1876.3597,-152.8443 1920.9237,-141.1723 1961.3408,-133.378"/>
<polygon fill="#191970" stroke="#191970" points="1962.0469,-136.8067 1971.2338,-131.5293 1960.761,-129.9258 1962.0469,-136.8067"/>
</g>
<!-- Node14 -->
<g id="node15" class="node">
<title>Node14</title>
<g id="a_node15"><a xlink:href="../../dc/de9/GPUDefGPUParameters_8h.html" target="_top" xlink:title="GPUDefGPUParameters.h">
<polygon fill="none" stroke="#000000" points="1676,-168.5 1676,-187.5 1816,-187.5 1816,-168.5 1676,-168.5"/>
<text text-anchor="middle" x="1746" y="-175.5" font-family="Helvetica,sans-Serif" font-size="10.00" fill="#000000">GPUDefGPUParameters.h</text>
</a>
</g>
</g>
<!-- Node9&#45;&gt;Node14 -->
<g id="edge15" class="edge">
<title>Node9&#45;&gt;Node14</title>
<path fill="none" stroke="#191970" d="M1835.1878,-224.2455C1818.1527,-215.4125 1792.8425,-202.2887 1773.5319,-192.2758"/>
<polygon fill="#191970" stroke="#191970" points="1775.0853,-189.1388 1764.5966,-187.6427 1771.863,-195.353 1775.0853,-189.1388"/>
</g>
<!-- Node16 -->
<g id="node17" class="node">
<title>Node16</title>
<g id="a_node17"><a xlink:href="../../d3/d4c/GPUDefOpenCL12Templates_8h.html" target="_top" xlink:title="GPUDefOpenCL12Templates.h">
<polygon fill="none" stroke="#000000" points="1872,-168.5 1872,-187.5 2036,-187.5 2036,-168.5 1872,-168.5"/>
<text text-anchor="middle" x="1954" y="-175.5" font-family="Helvetica,sans-Serif" font-size="10.00" fill="#000000">GPUDefOpenCL12Templates.h</text>
</a>
</g>
</g>
<!-- Node9&#45;&gt;Node16 -->
<g id="edge17" class="edge">
<title>Node9&#45;&gt;Node16</title>
<path fill="none" stroke="#191970" d="M1871.4187,-224.2455C1887.0485,-215.4928 1910.2019,-202.527 1928.0185,-192.5496"/>
<polygon fill="#191970" stroke="#191970" points="1929.766,-195.5825 1936.7809,-187.6427 1926.3457,-189.475 1929.766,-195.5825"/>
</g>
<!-- Node17 -->
<g id="node18" class="node">
<title>Node17</title>
<g id="a_node18"><a xlink:href="../../d2/d45/GPUCommonRtypes_8h.html" target="_top" xlink:title="GPUCommonRtypes.h">
<polygon fill="none" stroke="#000000" points="2054.5,-168.5 2054.5,-187.5 2179.5,-187.5 2179.5,-168.5 2054.5,-168.5"/>
<text text-anchor="middle" x="2117" y="-175.5" font-family="Helvetica,sans-Serif" font-size="10.00" fill="#000000">GPUCommonRtypes.h</text>
</a>
</g>
</g>
<!-- Node9&#45;&gt;Node17 -->
<g id="edge18" class="edge">
<title>Node9&#45;&gt;Node17</title>
<path fill="none" stroke="#191970" d="M1885.7239,-227.2451C1929.3626,-217.9532 2008.5645,-201.0889 2061.973,-189.7168"/>
<polygon fill="#191970" stroke="#191970" points="2062.9097,-193.0959 2071.9615,-187.5899 2061.4519,-186.2493 2062.9097,-193.0959"/>
</g>
<!-- Node11 -->
<g id="node12" class="node">
<title>Node11</title>
<g id="a_node12"><a xlink:href="../../d5/d93/GPUCommonDefSettings_8h.html" target="_top" xlink:title="GPUCommonDefSettings.h">
<polygon fill="none" stroke="#000000" points="1720,-.5 1720,-19.5 1868,-19.5 1868,-.5 1720,-.5"/>
<text text-anchor="middle" x="1794" y="-7.5" font-family="Helvetica,sans-Serif" font-size="10.00" fill="#000000">GPUCommonDefSettings.h</text>
</a>
</g>
</g>
<!-- Node10&#45;&gt;Node11 -->
<g id="edge11" class="edge">
<title>Node10&#45;&gt;Node11</title>
<path fill="none" stroke="#191970" d="M1857.5876,-56.2455C1845.9943,-47.814 1829.0252,-35.4729 1815.5322,-25.6598"/>
<polygon fill="#191970" stroke="#191970" points="1817.4047,-22.6938 1807.2587,-19.6427 1813.2874,-28.355 1817.4047,-22.6938"/>
</g>
<!-- Node12 -->
<g id="node13" class="node">
<title>Node12</title>
<g id="a_node13"><a xlink:href="../../da/d5a/GPUCommonDefAPI_8h.html" target="_top" xlink:title="GPUCommonDefAPI.h">
<polygon fill="none" stroke="#000000" points="1886,-.5 1886,-19.5 2010,-19.5 2010,-.5 1886,-.5"/>
<text text-anchor="middle" x="1948" y="-7.5" font-family="Helvetica,sans-Serif" font-size="10.00" fill="#000000">GPUCommonDefAPI.h</text>
</a>
</g>
</g>
<!-- Node10&#45;&gt;Node12 -->
<g id="edge12" class="edge">
<title>Node10&#45;&gt;Node12</title>
<path fill="none" stroke="#191970" d="M1884.4124,-56.2455C1896.0057,-47.814 1912.9748,-35.4729 1926.4678,-25.6598"/>
<polygon fill="#191970" stroke="#191970" points="1928.7126,-28.355 1934.7413,-19.6427 1924.5953,-22.6938 1928.7126,-28.355"/>
</g>
<!-- Node13&#45;&gt;Node10 -->
<g id="edge14" class="edge">
<title>Node13&#45;&gt;Node10</title>
<path fill="none" stroke="#191970" d="M2006.8074,-112.3733C1979.6547,-103.1016 1938.4093,-89.0178 1908.4975,-78.804"/>
<polygon fill="#191970" stroke="#191970" points="1909.4192,-75.4204 1898.8247,-75.5011 1907.1572,-82.0449 1909.4192,-75.4204"/>
</g>
<!-- Node15 -->
<g id="node16" class="node">
<title>Node15</title>
<g id="a_node16"><a xlink:href="../../d6/dff/GPUDefMacros_8h.html" target="_top" xlink:title="GPUDefMacros.h">
<polygon fill="none" stroke="#000000" points="1697,-112.5 1697,-131.5 1795,-131.5 1795,-112.5 1697,-112.5"/>
<text text-anchor="middle" x="1746" y="-119.5" font-family="Helvetica,sans-Serif" font-size="10.00" fill="#000000">GPUDefMacros.h</text>
</a>
</g>
</g>
<!-- Node14&#45;&gt;Node15 -->
<g id="edge16" class="edge">
<title>Node14&#45;&gt;Node15</title>
<path fill="none" stroke="#191970" d="M1746,-168.2455C1746,-160.9382 1746,-150.6944 1746,-141.7046"/>
<polygon fill="#191970" stroke="#191970" points="1749.5001,-141.6426 1746,-131.6427 1742.5001,-141.6427 1749.5001,-141.6426"/>
</g>
<!-- Node18 -->
<g id="node19" class="node">
<title>Node18</title>
<polygon fill="none" stroke="#bfbfbf" points="1872.5,-112.5 1872.5,-131.5 1931.5,-131.5 1931.5,-112.5 1872.5,-112.5"/>
<text text-anchor="middle" x="1902" y="-119.5" font-family="Helvetica,sans-Serif" font-size="10.00" fill="#000000">Rtypes.h</text>
</g>
<!-- Node17&#45;&gt;Node18 -->
<g id="edge19" class="edge">
<title>Node17&#45;&gt;Node18</title>
<path fill="none" stroke="#191970" d="M2080.0398,-168.4297C2046.3246,-159.6917 1994.8549,-146.333 1941.7912,-132.4639"/>
<polygon fill="#191970" stroke="#191970" points="1942.4286,-129.013 1931.8685,-129.8693 1940.6578,-135.7853 1942.4286,-129.013"/>
</g>
<!-- Node21&#45;&gt;Node8 -->
<g id="edge23" class="edge">
<title>Node21&#45;&gt;Node8</title>
<path fill="none" stroke="#191970" d="M1628.2161,-448.223C1617.5843,-439.2069 1601.7104,-425.2524 1589,-412 1558.6307,-380.3355 1560.2371,-363.4365 1526,-336 1509.3627,-322.6674 1488.245,-311.6287 1470.6474,-303.7097"/>
<polygon fill="#191970" stroke="#191970" points="1471.85,-300.416 1461.2838,-299.6364 1469.0576,-306.835 1471.85,-300.416"/>
</g>
<!-- Node22 -->
<g id="node23" class="node">
<title>Node22</title>
<g id="a_node23"><a xlink:href="../../d8/dff/GPUTPCRow_8h.html" target="_top" xlink:title="GPUTPCRow.h">
<polygon fill="none" stroke="#000000" points="1598.5,-392.5 1598.5,-411.5 1683.5,-411.5 1683.5,-392.5 1598.5,-392.5"/>
<text text-anchor="middle" x="1641" y="-399.5" font-family="Helvetica,sans-Serif" font-size="10.00" fill="#000000">GPUTPCRow.h</text>
</a>
</g>
</g>
<!-- Node21&#45;&gt;Node22 -->
<g id="edge24" class="edge">
<title>Node21&#45;&gt;Node22</title>
<path fill="none" stroke="#191970" d="M1640.1742,-448.2455C1640.3047,-440.9382 1640.4876,-430.6944 1640.6481,-421.7046"/>
<polygon fill="#191970" stroke="#191970" points="1644.1486,-421.7036 1640.8278,-411.6427 1637.1497,-421.5786 1644.1486,-421.7036"/>
</g>
<!-- Node21&#45;&gt;Node24 -->
<g id="edge28" class="edge">
<title>Node21&#45;&gt;Node24</title>
<path fill="none" stroke="#191970" d="M1583.9042,-452.1681C1568.3969,-450.6753 1551.5559,-449.1647 1536,-448 1238.1824,-425.7027 1160.9996,-451.7083 865,-412 771.6026,-399.4707 664.3205,-373.4989 605.1377,-358.1354"/>
<polygon fill="#191970" stroke="#191970" points="605.9213,-354.7227 595.3612,-355.5802 604.1512,-361.4952 605.9213,-354.7227"/>
</g>
<!-- Node21&#45;&gt;Node25 -->
<g id="edge32" class="edge">
<title>Node21&#45;&gt;Node25</title>
<path fill="none" stroke="#191970" d="M1696.2584,-452.7317C1812.8672,-441.8118 2079.2025,-416.8707 2189.1443,-406.5751"/>
<polygon fill="#191970" stroke="#191970" points="2189.6553,-410.0427 2199.2853,-405.6255 2189.0025,-403.0732 2189.6553,-410.0427"/>
</g>
<!-- Node34 -->
<g id="node35" class="node">
<title>Node34</title>
<g id="a_node35"><a xlink:href="../../d5/da6/GPUMemoryResource_8h.html" target="_top" xlink:title="GPUMemoryResource.h">
<polygon fill="none" stroke="#000000" points="1912.5,-392.5 1912.5,-411.5 2043.5,-411.5 2043.5,-392.5 1912.5,-392.5"/>
<text text-anchor="middle" x="1978" y="-399.5" font-family="Helvetica,sans-Serif" font-size="10.00" fill="#000000">GPUMemoryResource.h</text>
</a>
</g>
</g>
<!-- Node21&#45;&gt;Node34 -->
<g id="edge49" class="edge">
<title>Node21&#45;&gt;Node34</title>
<path fill="none" stroke="#191970" d="M1696.1932,-448.6899C1755.0513,-438.9382 1847.5054,-423.6204 1910.3343,-413.2109"/>
<polygon fill="#191970" stroke="#191970" points="1911.2476,-416.6074 1920.541,-411.5198 1910.1034,-409.7015 1911.2476,-416.6074"/>
</g>
<!-- Node22&#45;&gt;Node8 -->
<g id="edge25" class="edge">
<title>Node22&#45;&gt;Node8</title>
<path fill="none" stroke="#191970" d="M1631.9137,-392.2162C1618.3335,-378.0904 1591.3951,-351.9343 1564,-336 1538.7721,-321.3263 1508.0689,-310.0993 1483.0574,-302.4111"/>
<polygon fill="#191970" stroke="#191970" points="1484.0073,-299.0422 1473.424,-299.5368 1482.0058,-305.75 1484.0073,-299.0422"/>
</g>
<!-- Node23 -->
<g id="node24" class="node">
<title>Node23</title>
<g id="a_node24"><a xlink:href="../../d3/da7/GPUTPCGrid_8h.html" target="_top" xlink:title="GPUTPCGrid.h">
<polygon fill="none" stroke="#000000" points="1616,-336.5 1616,-355.5 1702,-355.5 1702,-336.5 1616,-336.5"/>
<text text-anchor="middle" x="1659" y="-343.5" font-family="Helvetica,sans-Serif" font-size="10.00" fill="#000000">GPUTPCGrid.h</text>
</a>
</g>
</g>
<!-- Node22&#45;&gt;Node23 -->
<g id="edge26" class="edge">
<title>Node22&#45;&gt;Node23</title>
<path fill="none" stroke="#191970" d="M1644.1354,-392.2455C1646.51,-384.8579 1649.8493,-374.4689 1652.7615,-365.4087"/>
<polygon fill="#191970" stroke="#191970" points="1656.1725,-366.234 1655.9006,-355.6427 1649.5083,-364.0919 1656.1725,-366.234"/>
</g>
<!-- Node23&#45;&gt;Node8 -->
<g id="edge27" class="edge">
<title>Node23&#45;&gt;Node8</title>
<path fill="none" stroke="#191970" d="M1620.9183,-336.4369C1582.9941,-326.9133 1524.6711,-312.2672 1483.6874,-301.9753"/>
<polygon fill="#191970" stroke="#191970" points="1484.476,-298.5647 1473.9246,-299.5237 1482.771,-305.3539 1484.476,-298.5647"/>
</g>
<!-- Node24&#45;&gt;Node3 -->
<g id="edge30" class="edge">
<title>Node24&#45;&gt;Node3</title>
<path fill="none" stroke="#191970" d="M547.2844,-336.2455C536.398,-327.8943 520.5117,-315.7076 507.78,-305.9408"/>
<polygon fill="#191970" stroke="#191970" points="509.6346,-302.9523 499.5699,-299.6427 505.3739,-308.5063 509.6346,-302.9523"/>
</g>
<!-- Node24&#45;&gt;Node4 -->
<g id="edge31" class="edge">
<title>Node24&#45;&gt;Node4</title>
<path fill="none" stroke="#191970" d="M560.1742,-336.2455C560.3047,-328.9382 560.4876,-318.6944 560.6481,-309.7046"/>
<polygon fill="#191970" stroke="#191970" points="564.1486,-309.7036 560.8278,-299.6427 557.1497,-309.5786 564.1486,-309.7036"/>
</g>
<!-- Node24&#45;&gt;Node10 -->
<g id="edge29" class="edge">
<title>Node24&#45;&gt;Node10</title>
<path fill="none" stroke="#191970" d="M571.189,-336.4952C580.6719,-327.8718 593.9736,-314.3447 602,-300 616.9051,-273.3618 621,-264.5246 621,-234 621,-234 621,-234 621,-178 621,-146.7875 619.7751,-130.3827 645,-112 692.2772,-77.5466 1561.5216,-68.3489 1806.9549,-66.4339"/>
<polygon fill="#191970" stroke="#191970" points="1807.1675,-69.9324 1817.1404,-66.3558 1807.1138,-62.9326 1807.1675,-69.9324"/>
</g>
<!-- Node25&#45;&gt;Node9 -->
<g id="edge35" class="edge">
<title>Node25&#45;&gt;Node9</title>
<path fill="none" stroke="#191970" d="M2227.9745,-392.3054C2203.3162,-369.0392 2136.8448,-309.7675 2070,-280 2012.7691,-254.5137 1940.5977,-242.8217 1895.8745,-237.6979"/>
<polygon fill="#191970" stroke="#191970" points="1895.9891,-234.1899 1885.6694,-236.5886 1895.2325,-241.1489 1895.9891,-234.1899"/>
</g>
<!-- Node25&#45;&gt;Node10 -->
<g id="edge33" class="edge">
<title>Node25&#45;&gt;Node10</title>
<path fill="none" stroke="#191970" d="M2239.1462,-392.4281C2241.3583,-373.0998 2246,-328.0133 2246,-290 2246,-290 2246,-290 2246,-178 2246,-130.1711 2204.8883,-131.011 2161,-112 2121.4064,-94.8493 2007.3633,-80.266 1934.6486,-72.3545"/>
<polygon fill="#191970" stroke="#191970" points="1934.9913,-68.8712 1924.6746,-71.2828 1934.2434,-75.8312 1934.9913,-68.8712"/>
</g>
<!-- Node25&#45;&gt;Node24 -->
<g id="edge34" class="edge">
<title>Node25&#45;&gt;Node24</title>
<path fill="none" stroke="#191970" d="M2199.1842,-399.5987C2161.5668,-397.3459 2102.8924,-394.0281 2052,-392 1435.837,-367.4449 1280.5257,-393.2543 665,-356 653.0049,-355.274 640.2597,-354.2631 627.9371,-353.161"/>
<polygon fill="#191970" stroke="#191970" points="627.9905,-349.6512 617.7114,-352.2181 627.3477,-356.6216 627.9905,-349.6512"/>
</g>
<!-- Node26 -->
<g id="node27" class="node">
<title>Node26</title>
<g id="a_node27"><a xlink:href="../../dd/dc6/GPUSettings_8h.html" target="_top" xlink:title="GPUSettings.h">
<polygon fill="none" stroke="#000000" points="2397,-336.5 2397,-355.5 2483,-355.5 2483,-336.5 2397,-336.5"/>
<text text-anchor="middle" x="2440" y="-343.5" font-family="Helvetica,sans-Serif" font-size="10.00" fill="#000000">GPUSettings.h</text>
</a>
</g>
</g>
<!-- Node25&#45;&gt;Node26 -->
<g id="edge36" class="edge">
<title>Node25&#45;&gt;Node26</title>
<path fill="none" stroke="#191970" d="M2272.725,-392.3733C2306.7508,-382.9404 2358.7437,-368.5265 2395.7234,-358.2747"/>
<polygon fill="#191970" stroke="#191970" points="2397.0266,-361.5455 2405.7281,-355.5011 2395.1565,-354.7999 2397.0266,-361.5455"/>
</g>
<!-- Node32 -->
<g id="node33" class="node">
<title>Node32</title>
<g id="a_node33"><a xlink:href="../../d6/d1b/GPUTPCGeometry_8h.html" target="_top" xlink:title="GPUTPCGeometry.h">
<polygon fill="none" stroke="#000000" points="2274.5,-112.5 2274.5,-131.5 2387.5,-131.5 2387.5,-112.5 2274.5,-112.5"/>
<text text-anchor="middle" x="2331" y="-119.5" font-family="Helvetica,sans-Serif" font-size="10.00" fill="#000000">GPUTPCGeometry.h</text>
</a>
</g>
</g>
<!-- Node25&#45;&gt;Node32 -->
<g id="edge45" class="edge">
<title>Node25&#45;&gt;Node32</title>
<path fill="none" stroke="#191970" d="M2244.9864,-392.3606C2257.8548,-373.6259 2284,-330.5697 2284,-290 2284,-290 2284,-290 2284,-234 2284,-198.5481 2304.2704,-161.3564 2318.1871,-139.9999"/>
<polygon fill="#191970" stroke="#191970" points="2321.1549,-141.8593 2323.8617,-131.6161 2315.3579,-137.9356 2321.1549,-141.8593"/>
</g>
<!-- Node33 -->
<g id="node34" class="node">
<title>Node33</title>
<g id="a_node34"><a xlink:href="../../d9/d9c/GPUTPCGMPolynomialField_8h.html" target="_top" xlink:title="GPUTPCGMPolynomialField.h">
<polygon fill="none" stroke="#000000" points="1946,-336.5 1946,-355.5 2104,-355.5 2104,-336.5 1946,-336.5"/>
<text text-anchor="middle" x="2025" y="-343.5" font-family="Helvetica,sans-Serif" font-size="10.00" fill="#000000">GPUTPCGMPolynomialField.h</text>
</a>
</g>
</g>
<!-- Node25&#45;&gt;Node33 -->
<g id="edge47" class="edge">
<title>Node25&#45;&gt;Node33</title>
<path fill="none" stroke="#191970" d="M2201.384,-392.3733C2165.352,-382.9001 2110.2122,-368.4032 2071.1886,-358.1435"/>
<polygon fill="#191970" stroke="#191970" points="2071.6995,-354.6589 2061.1382,-355.5011 2069.9196,-361.4289 2071.6995,-354.6589"/>
</g>
<!-- Node26&#45;&gt;Node10 -->
<g id="edge37" class="edge">
<title>Node26&#45;&gt;Node10</title>
<path fill="none" stroke="#191970" d="M2441.9985,-336.4959C2445.6626,-318.5308 2453.3252,-278.3117 2456,-244 2461.0084,-179.752 2449.7911,-147.4881 2396,-112 2358.3098,-87.1343 2066.5759,-73.2649 1935.0003,-68.2185"/>
<polygon fill="#191970" stroke="#191970" points="1934.7964,-64.7084 1924.6712,-67.8279 1934.5318,-71.7034 1934.7964,-64.7084"/>
</g>
<!-- Node27 -->
<g id="node28" class="node">
<title>Node27</title>
<polygon fill="none" stroke="#bfbfbf" points="2492.5,-280.5 2492.5,-299.5 2539.5,-299.5 2539.5,-280.5 2492.5,-280.5"/>
<text text-anchor="middle" x="2516" y="-287.5" font-family="Helvetica,sans-Serif" font-size="10.00" fill="#000000">vector</text>
</g>
<!-- Node26&#45;&gt;Node27 -->
<g id="edge38" class="edge">
<title>Node26&#45;&gt;Node27</title>
<path fill="none" stroke="#191970" d="M2453.2382,-336.2455C2464.681,-327.814 2481.4296,-315.4729 2494.7475,-305.6598"/>
<polygon fill="#191970" stroke="#191970" points="2496.9391,-308.3924 2502.9135,-299.6427 2492.7867,-302.757 2496.9391,-308.3924"/>
</g>
<!-- Node28 -->
<g id="node29" class="node">
<title>Node28</title>
<polygon fill="none" stroke="#bfbfbf" points="2558,-280.5 2558,-299.5 2602,-299.5 2602,-280.5 2558,-280.5"/>
<text text-anchor="middle" x="2580" y="-287.5" font-family="Helvetica,sans-Serif" font-size="10.00" fill="#000000">string</text>
</g>
<!-- Node26&#45;&gt;Node28 -->
<g id="edge39" class="edge">
<title>Node26&#45;&gt;Node28</title>
<path fill="none" stroke="#191970" d="M2464.0669,-336.3733C2487.2569,-327.0972 2522.4888,-313.0045 2548.0263,-302.7895"/>
<polygon fill="#191970" stroke="#191970" points="2549.6478,-305.9106 2557.6327,-298.9469 2547.048,-299.4112 2549.6478,-305.9106"/>
</g>
<!-- Node29 -->
<g id="node30" class="node">
<title>Node29</title>
<g id="a_node30"><a xlink:href="../../da/d08/qconfig_8h.html" target="_top" xlink:title="utils/qconfig.h">
<polygon fill="none" stroke="#000000" points="2350.5,-280.5 2350.5,-299.5 2435.5,-299.5 2435.5,-280.5 2350.5,-280.5"/>
<text text-anchor="middle" x="2393" y="-287.5" font-family="Helvetica,sans-Serif" font-size="10.00" fill="#000000">utils/qconfig.h</text>
</a>
</g>
</g>
<!-- Node26&#45;&gt;Node29 -->
<g id="edge40" class="edge">
<title>Node26&#45;&gt;Node29</title>
<path fill="none" stroke="#191970" d="M2431.8132,-336.2455C2425.1411,-328.2958 2415.5521,-316.8706 2407.5747,-307.3656"/>
<polygon fill="#191970" stroke="#191970" points="2410.2026,-305.0524 2401.093,-299.6427 2404.8408,-309.5525 2410.2026,-305.0524"/>
</g>
<!-- Node30 -->
<g id="node31" class="node">
<title>Node30</title>
<g id="a_node31"><a xlink:href="../../d8/de9/qconfigoptions_8h.html" target="_top" xlink:title="qconfigoptions.h">
<polygon fill="none" stroke="#000000" points="2350.5,-224.5 2350.5,-243.5 2447.5,-243.5 2447.5,-224.5 2350.5,-224.5"/>
<text text-anchor="middle" x="2399" y="-231.5" font-family="Helvetica,sans-Serif" font-size="10.00" fill="#000000">qconfigoptions.h</text>
</a>
</g>
</g>
<!-- Node29&#45;&gt;Node30 -->
<g id="edge41" class="edge">
<title>Node29&#45;&gt;Node30</title>
<path fill="none" stroke="#191970" d="M2394.0451,-280.2455C2394.828,-272.9382 2395.9256,-262.6944 2396.8888,-253.7046"/>
<polygon fill="#191970" stroke="#191970" points="2400.3815,-253.9587 2397.9669,-243.6427 2393.4214,-253.2129 2400.3815,-253.9587"/>
</g>
<!-- Node31 -->
<g id="node32" class="node">
<title>Node31</title>
<g id="a_node32"><a xlink:href="../../d4/d57/GPUSettingsList_8h.html" target="_top" xlink:title="GPUSettingsList.h">
<polygon fill="none" stroke="#000000" points="2312,-168.5 2312,-187.5 2416,-187.5 2416,-168.5 2312,-168.5"/>
<text text-anchor="middle" x="2364" y="-175.5" font-family="Helvetica,sans-Serif" font-size="10.00" fill="#000000">GPUSettingsList.h</text>
</a>
</g>
</g>
<!-- Node30&#45;&gt;Node31 -->
<g id="edge42" class="edge">
<title>Node30&#45;&gt;Node31</title>
<path fill="none" stroke="#191970" d="M2392.9035,-224.2455C2388.0855,-216.5367 2381.2249,-205.5598 2375.3968,-196.2348"/>
<polygon fill="#191970" stroke="#191970" points="2378.2947,-194.2677 2370.0267,-187.6427 2372.3587,-197.9777 2378.2947,-194.2677"/>
</g>
<!-- Node31&#45;&gt;Node13 -->
<g id="edge43" class="edge">
<title>Node31&#45;&gt;Node13</title>
<path fill="none" stroke="#191970" d="M2311.869,-169.1266C2254.8004,-159.4128 2163.1695,-143.8161 2101.096,-133.2504"/>
<polygon fill="#191970" stroke="#191970" points="2101.4605,-129.7622 2091.0149,-131.5345 2100.2858,-136.6629 2101.4605,-129.7622"/>
</g>
<!-- Node31&#45;&gt;Node26 -->
<g id="edge44" class="edge">
<title>Node31&#45;&gt;Node26</title>
<path fill="none" stroke="#191970" d="M2357.8512,-187.7427C2344.8941,-209.6381 2317.8136,-263.6595 2341,-300 2351.4504,-316.3791 2369.4068,-327.0168 2387.1818,-333.8848"/>
<polygon fill="#191970" stroke="#191970" points="2386.3945,-337.3176 2396.9894,-337.325 2388.7116,-330.7122 2386.3945,-337.3176"/>
</g>
<!-- Node32&#45;&gt;Node10 -->
<g id="edge46" class="edge">
<title>Node32&#45;&gt;Node10</title>
<path fill="none" stroke="#191970" d="M2274.4341,-113.9175C2269.5539,-113.2552 2264.6911,-112.6076 2260,-112 2145.4345,-97.1601 2011.628,-81.76 1934.5613,-73.0774"/>
<polygon fill="#191970" stroke="#191970" points="1934.8595,-69.589 1924.531,-71.9492 1934.0771,-76.5451 1934.8595,-69.589"/>
</g>
<!-- Node33&#45;&gt;Node8 -->
<g id="edge48" class="edge">
<title>Node33&#45;&gt;Node8</title>
<path fill="none" stroke="#191970" d="M1945.915,-336.9809C1942.5661,-336.6411 1939.2502,-336.3125 1936,-336 1739.5003,-317.1056 1686.4149,-327.3779 1487.0494,-300.0011"/>
<polygon fill="#191970" stroke="#191970" points="1487.5215,-296.5332 1477.1353,-298.6255 1486.5594,-303.4668 1487.5215,-296.5332"/>
</g>
<!-- Node34&#45;&gt;Node10 -->
<g id="edge50" class="edge">
<title>Node34&#45;&gt;Node10</title>
<path fill="none" stroke="#191970" d="M2038.645,-392.4531C2064.1139,-385.8336 2092.5144,-374.6924 2113,-356 2179.4526,-295.3643 2223.5067,-250.6554 2188,-168 2173.7303,-134.782 2161.2678,-128.3049 2129,-112 2095.8022,-95.2251 1999.7677,-81.1138 1934.704,-73.1064"/>
<polygon fill="#191970" stroke="#191970" points="1934.8906,-69.6034 1924.5419,-71.8742 1934.0479,-76.5526 1934.8906,-69.6034"/>
</g>
<!-- Node34&#45;&gt;Node35 -->
<g id="edge51" class="edge">
<title>Node34&#45;&gt;Node35</title>
<path fill="none" stroke="#191970" d="M1961.1039,-392.2455C1946.082,-383.5731 1923.8957,-370.7645 1906.679,-360.825"/>
<polygon fill="#191970" stroke="#191970" points="1908.1128,-357.6114 1897.7025,-355.6427 1904.6129,-363.6737 1908.1128,-357.6114"/>
</g>
<!-- Node35&#45;&gt;Node4 -->
<g id="edge55" class="edge">
<title>Node35&#45;&gt;Node4</title>
<path fill="none" stroke="#191970" d="M1834.4733,-343.027C1800.3141,-340.9018 1752.7834,-338.0644 1711,-336 1278.3406,-314.6234 753.7344,-296.4628 603.2073,-291.4019"/>
<polygon fill="#191970" stroke="#191970" points="603.1339,-287.8976 593.0222,-291.0603 602.8992,-294.8937 603.1339,-287.8976"/>
</g>
<!-- Node35&#45;&gt;Node9 -->
<g id="edge53" class="edge">
<title>Node35&#45;&gt;Node9</title>
<path fill="none" stroke="#191970" d="M1878.698,-336.4509C1874.2744,-318.1013 1864.5085,-277.5908 1858.6694,-253.3693"/>
<polygon fill="#191970" stroke="#191970" points="1862.0424,-252.4261 1856.2962,-243.5249 1855.2373,-254.0667 1862.0424,-252.4261"/>
</g>
<!-- Node35&#45;&gt;Node10 -->
<g id="edge52" class="edge">
<title>Node35&#45;&gt;Node10</title>
<path fill="none" stroke="#191970" d="M1854.3518,-336.3748C1805.3549,-317.0412 1702.2098,-268.3325 1661,-188 1656.9428,-180.0911 1660.2925,-176.8607 1661,-168 1663.0064,-142.8717 1652.7695,-130.4002 1670,-112 1688.5237,-92.2189 1755.4443,-79.7457 1807.0355,-72.8555"/>
<polygon fill="#191970" stroke="#191970" points="1807.6614,-76.3038 1817.1305,-71.5514 1806.7645,-69.3615 1807.6614,-76.3038"/>
</g>
<!-- Node36 -->
<g id="node37" class="node">
<title>Node36</title>
<polygon fill="none" stroke="#bfbfbf" points="2067.5,-224.5 2067.5,-243.5 2120.5,-243.5 2120.5,-224.5 2067.5,-224.5"/>
<text text-anchor="middle" x="2094" y="-231.5" font-family="Helvetica,sans-Serif" font-size="10.00" fill="#000000">cstddef</text>
</g>
<!-- Node35&#45;&gt;Node36 -->
<g id="edge54" class="edge">
<title>Node35&#45;&gt;Node36</title>
<path fill="none" stroke="#191970" d="M1899.1603,-336.4509C1936.651,-316.7375 2022.7847,-271.4465 2066.8913,-248.2543"/>
<polygon fill="#191970" stroke="#191970" points="2068.6636,-251.2768 2075.8857,-243.5249 2065.4058,-245.0811 2068.6636,-251.2768"/>
</g>
<!-- Node37&#45;&gt;Node8 -->
<g id="edge59" class="edge">
<title>Node37&#45;&gt;Node8</title>
<path fill="none" stroke="#191970" d="M1291.4936,-392.4739C1318.633,-385.404 1352.6136,-373.8419 1379,-356 1397.6953,-343.3586 1413.9446,-323.0618 1424.2577,-308.3107"/>
<polygon fill="#191970" stroke="#191970" points="1427.1981,-310.2103 1429.8808,-299.9608 1421.3919,-306.3003 1427.1981,-310.2103"/>
</g>
<!-- Node37&#45;&gt;Node24 -->
<g id="edge60" class="edge">
<title>Node37&#45;&gt;Node24</title>
<path fill="none" stroke="#191970" d="M1183.8423,-393.112C1180.5157,-392.7142 1177.2186,-392.3401 1174,-392 948.468,-368.1708 891.0107,-374.7521 665,-356 653.0241,-355.0064 640.2882,-353.865 627.969,-352.717"/>
<polygon fill="#191970" stroke="#191970" points="628.0288,-349.2072 617.7446,-351.7542 627.3724,-356.1764 628.0288,-349.2072"/>
</g>
<!-- Node38 -->
<g id="node39" class="node">
<title>Node38</title>
<g id="a_node39"><a xlink:href="../../df/d00/GPUTPCBaseTrackParam_8h.html" target="_top" xlink:title="GPUTPCBaseTrackParam.h">
<polygon fill="none" stroke="#000000" points="1224,-336.5 1224,-355.5 1370,-355.5 1370,-336.5 1224,-336.5"/>
<text text-anchor="middle" x="1297" y="-343.5" font-family="Helvetica,sans-Serif" font-size="10.00" fill="#000000">GPUTPCBaseTrackParam.h</text>
</a>
</g>
</g>
<!-- Node37&#45;&gt;Node38 -->
<g id="edge57" class="edge">
<title>Node37&#45;&gt;Node38</title>
<path fill="none" stroke="#191970" d="M1254.0577,-392.2455C1261.5142,-384.2155 1272.2634,-372.6394 1281.1417,-363.0781"/>
<polygon fill="#191970" stroke="#191970" points="1283.8063,-365.3522 1288.0461,-355.6427 1278.6768,-360.589 1283.8063,-365.3522"/>
</g>
<!-- Node38&#45;&gt;Node8 -->
<g id="edge58" class="edge">
<title>Node38&#45;&gt;Node8</title>
<path fill="none" stroke="#191970" d="M1320.895,-336.3733C1343.5082,-327.2629 1377.6542,-313.5062 1402.8873,-303.3404"/>
<polygon fill="#191970" stroke="#191970" points="1404.4493,-306.4845 1412.4169,-299.5011 1401.8334,-299.9917 1404.4493,-306.4845"/>
</g>
<!-- Node39&#45;&gt;Node8 -->
<g id="edge63" class="edge">
<title>Node39&#45;&gt;Node8</title>
<path fill="none" stroke="#191970" d="M1452.5114,-392.0816C1452.9959,-379.0996 1453.2343,-355.6827 1450,-336 1448.5318,-327.0651 1445.7944,-317.4435 1443.1269,-309.3212"/>
<polygon fill="#191970" stroke="#191970" points="1446.3674,-307.9837 1439.7732,-299.6911 1439.7568,-310.286 1446.3674,-307.9837"/>
</g>
<!-- Node39&#45;&gt;Node38 -->
<g id="edge62" class="edge">
<title>Node39&#45;&gt;Node38</title>
<path fill="none" stroke="#191970" d="M1425.3546,-392.3733C1399.8036,-383.1419 1361.0488,-369.1402 1332.8091,-358.9375"/>
<polygon fill="#191970" stroke="#191970" points="1333.8921,-355.6074 1323.2978,-355.5011 1331.5135,-362.1909 1333.8921,-355.6074"/>
</g>
<!-- Node40&#45;&gt;Node8 -->
<g id="edge66" class="edge">
<title>Node40&#45;&gt;Node8</title>
<path fill="none" stroke="#191970" d="M1530.145,-616.4431C1572.2976,-596.0992 1666.0791,-544.0689 1705,-468 1731.7499,-415.7187 1749.1051,-380.6866 1711,-336 1679.8775,-299.5021 1550.5405,-307.8935 1487.1263,-299.8699"/>
<polygon fill="#191970" stroke="#191970" points="1487.5873,-296.3999 1477.1767,-298.3667 1486.5416,-303.3214 1487.5873,-296.3999"/>
</g>
<!-- Node41&#45;&gt;Node3 -->
<g id="edge107" class="edge">
<title>Node41&#45;&gt;Node3</title>
<path fill="none" stroke="#191970" d="M880.7645,-504.4552C844.541,-497.0273 796.3283,-485.0837 756,-468 696.4813,-442.787 691.4949,-417.2691 632,-392 573.2623,-367.0525 534.3071,-404.6437 493,-356 482.3177,-343.4204 481.7224,-324.2175 483.2641,-309.7628"/>
<polygon fill="#191970" stroke="#191970" points="486.7336,-310.2262 484.728,-299.823 479.8083,-309.2063 486.7336,-310.2262"/>
</g>
<!-- Node41&#45;&gt;Node8 -->
<g id="edge70" class="edge">
<title>Node41&#45;&gt;Node8</title>
<path fill="none" stroke="#191970" d="M889.9209,-504.4253C855.2949,-496.0495 811.648,-482.9132 801,-468 773.1711,-429.0238 731.8404,-419.409 841,-336 883.725,-303.3538 1248.4109,-293.4055 1384.8034,-290.8104"/>
<polygon fill="#191970" stroke="#191970" points="1385.0551,-294.3065 1394.9888,-290.6223 1384.9258,-287.3077 1385.0551,-294.3065"/>
</g>
<!-- Node41&#45;&gt;Node10 -->
<g id="edge99" class="edge">
<title>Node41&#45;&gt;Node10</title>
<path fill="none" stroke="#191970" d="M877.9722,-507.8174C832.7607,-501.5584 768.6504,-489.6185 716,-468 687.1472,-456.1529 626.2811,-405.1537 598,-392 548.6689,-369.0557 522.2587,-391.4643 481,-356 437.0548,-318.2265 435,-291.9485 435,-234 435,-234 435,-234 435,-178 435,-89.4451 535.9927,-128.4836 623,-112 739.5624,-89.9171 1569.0571,-71.97 1807.2156,-67.2286"/>
<polygon fill="#191970" stroke="#191970" points="1807.5121,-70.7235 1817.4408,-67.0259 1807.3733,-63.7249 1807.5121,-70.7235"/>
</g>
<!-- Node41&#45;&gt;Node19 -->
<g id="edge108" class="edge">
<title>Node41&#45;&gt;Node19</title>
<path fill="none" stroke="#191970" d="M982.0448,-504.4671C1026.8217,-495.3325 1096.0706,-481.046 1156,-468 1157.2486,-467.7282 1158.5168,-467.4504 1159.7969,-467.1685"/>
<polygon fill="#191970" stroke="#191970" points="1160.7198,-470.5488 1169.7195,-464.9583 1159.1978,-463.7163 1160.7198,-470.5488"/>
</g>
<!-- Node41&#45;&gt;Node25 -->
<g id="edge69" class="edge">
<title>Node41&#45;&gt;Node25</title>
<path fill="none" stroke="#191970" d="M983.5154,-504.4272C1020.8315,-496.4387 1073.3856,-483.8224 1118,-468 1137.8649,-460.955 1140.5163,-452.9664 1161,-448 1353.5818,-401.307 1854.0577,-421.3194 2052,-412 2098.5043,-409.8105 2151.5268,-406.9211 2189.0294,-404.8114"/>
<polygon fill="#191970" stroke="#191970" points="2189.3904,-408.2967 2199.1771,-404.2382 2188.9956,-401.3078 2189.3904,-408.2967"/>
</g>
<!-- Node41&#45;&gt;Node35 -->
<g id="edge100" class="edge">
<title>Node41&#45;&gt;Node35</title>
<path fill="none" stroke="#191970" d="M955.5727,-504.3903C988.8643,-489.346 1056.9841,-460.6474 1118,-448 1368.292,-396.1194 1441.4475,-462.6074 1692,-412 1749.4532,-400.3954 1813.231,-375.4379 1850.0673,-359.7566"/>
<polygon fill="#191970" stroke="#191970" points="1851.917,-362.7707 1859.715,-355.5984 1849.1463,-356.3423 1851.917,-362.7707"/>
</g>
<!-- Node41&#45;&gt;Node42 -->
<g id="edge71" class="edge">
<title>Node41&#45;&gt;Node42</title>
<path fill="none" stroke="#191970" d="M925.4197,-504.2455C917.4542,-496.1352 905.9359,-484.4075 896.4921,-474.7919"/>
<polygon fill="#191970" stroke="#191970" points="898.9747,-472.3247 889.4705,-467.6427 893.9805,-477.2297 898.9747,-472.3247"/>
</g>
<!-- Node41&#45;&gt;Node43 -->
<g id="edge74" class="edge">
<title>Node41&#45;&gt;Node43</title>
<path fill="none" stroke="#191970" d="M877.8426,-508.5285C773.6413,-498.5537 552.4631,-477.3811 432.1354,-465.8625"/>
<polygon fill="#191970" stroke="#191970" points="432.1647,-462.3494 421.8767,-464.8805 431.4976,-469.3176 432.1647,-462.3494"/>
</g>
<!-- Node41&#45;&gt;Node47 -->
<g id="edge84" class="edge">
<title>Node41&#45;&gt;Node47</title>
<path fill="none" stroke="#191970" d="M877.7303,-504.9404C815.9358,-495.165 717.4882,-479.5914 651.1083,-469.0906"/>
<polygon fill="#191970" stroke="#191970" points="651.5724,-465.6206 641.1484,-467.515 650.4786,-472.5346 651.5724,-465.6206"/>
</g>
<!-- Node53 -->
<g id="node54" class="node">
<title>Node53</title>
<g id="a_node54"><a xlink:href="../../de/d4c/GPUTPCGMMergerTypes_8h.html" target="_top" xlink:title="GPUTPCGMMergerTypes.h">
<polygon fill="none" stroke="#000000" points="1022.5,-392.5 1022.5,-411.5 1165.5,-411.5 1165.5,-392.5 1022.5,-392.5"/>
<text text-anchor="middle" x="1094" y="-399.5" font-family="Helvetica,sans-Serif" font-size="10.00" fill="#000000">GPUTPCGMMergerTypes.h</text>
</a>
</g>
</g>
<!-- Node41&#45;&gt;Node53 -->
<g id="edge101" class="edge">
<title>Node41&#45;&gt;Node53</title>
<path fill="none" stroke="#191970" d="M949.666,-504.4953C963.7225,-495.3217 985.4779,-480.9558 1004,-468 1028.0146,-451.2023 1055.0688,-431.2149 1073.1881,-417.6705"/>
<polygon fill="#191970" stroke="#191970" points="1075.4098,-420.3792 1081.3128,-411.5811 1071.2117,-414.7778 1075.4098,-420.3792"/>
</g>
<!-- Node54 -->
<g id="node55" class="node">
<title>Node54</title>
<g id="a_node55"><a xlink:href="../../d9/de5/GPUGeneralKernels_8h.html" target="_top" xlink:title="GPUGeneralKernels.h">
<polygon fill="none" stroke="#000000" points="1046.5,-336.5 1046.5,-355.5 1167.5,-355.5 1167.5,-336.5 1046.5,-336.5"/>
<text text-anchor="middle" x="1107" y="-343.5" font-family="Helvetica,sans-Serif" font-size="10.00" fill="#000000">GPUGeneralKernels.h</text>
</a>
</g>
</g>
<!-- Node41&#45;&gt;Node54 -->
<g id="edge106" class="edge">
<title>Node41&#45;&gt;Node54</title>
<path fill="none" stroke="#191970" d="M940.3451,-504.2061C954.5696,-478.3979 993.5855,-409.3229 1013,-392 1028.9731,-377.7478 1050.155,-366.8705 1068.3675,-359.2806"/>
<polygon fill="#191970" stroke="#191970" points="1069.8546,-362.4559 1077.8518,-355.5064 1067.2664,-355.9519 1069.8546,-362.4559"/>
</g>
<!-- Node42&#45;&gt;Node10 -->
<g id="edge72" class="edge">
<title>Node42&#45;&gt;Node10</title>
<path fill="none" stroke="#191970" d="M858.9369,-448.3533C805.3706,-423.7755 667.9527,-360.4244 665,-356 634.8649,-310.8443 659,-288.2878 659,-234 659,-234 659,-234 659,-178 659,-5.7068 869.81,-131.4663 1041,-112 1325.6831,-79.6282 1667.9954,-69.8005 1807.3374,-67.0196"/>
<polygon fill="#191970" stroke="#191970" points="1807.483,-70.5175 1817.4131,-66.8238 1807.347,-63.5188 1807.483,-70.5175"/>
</g>
<!-- Node42&#45;&gt;Node24 -->
<g id="edge73" class="edge">
<title>Node42&#45;&gt;Node24</title>
<path fill="none" stroke="#191970" d="M852.717,-448.4509C795.3301,-428.3655 662.081,-381.7284 597.0442,-358.9655"/>
<polygon fill="#191970" stroke="#191970" points="597.8088,-355.5249 587.214,-355.5249 595.4963,-362.132 597.8088,-355.5249"/>
</g>
<!-- Node43&#45;&gt;Node44 -->
<g id="edge75" class="edge">
<title>Node43&#45;&gt;Node44</title>
<path fill="none" stroke="#191970" d="M337.4586,-448.2455C326.7213,-439.8943 311.0527,-427.7076 298.4953,-417.9408"/>
<polygon fill="#191970" stroke="#191970" points="300.4401,-415.0194 290.3977,-411.6427 296.1425,-420.5449 300.4401,-415.0194"/>
</g>
<!-- Node45 -->
<g id="node46" class="node">
<title>Node45</title>
<g id="a_node46"><a xlink:href="../../d3/dcc/GPUTPCGMMergedTrackHit_8h.html" target="_top" xlink:title="GPUTPCGMMergedTrackHit.h">
<polygon fill="none" stroke="#000000" points="66.5,-336.5 66.5,-355.5 223.5,-355.5 223.5,-336.5 66.5,-336.5"/>
<text text-anchor="middle" x="145" y="-343.5" font-family="Helvetica,sans-Serif" font-size="10.00" fill="#000000">GPUTPCGMMergedTrackHit.h</text>
</a>
</g>
</g>
<!-- Node43&#45;&gt;Node45 -->
<g id="edge82" class="edge">
<title>Node43&#45;&gt;Node45</title>
<path fill="none" stroke="#191970" d="M292.1135,-448.4246C262.7462,-441.6172 227.5586,-430.325 200,-412 181.457,-399.6699 165.8361,-379.274 156.0357,-364.4138"/>
<polygon fill="#191970" stroke="#191970" points="158.7618,-362.1755 150.4637,-355.5883 152.8427,-365.9125 158.7618,-362.1755"/>
</g>
<!-- Node46 -->
<g id="node47" class="node">
<title>Node46</title>
<g id="a_node47"><a xlink:href="../../d3/d1f/GPUdEdxInfo_8h.html" target="_top" xlink:title="GPUdEdxInfo.h">
<polygon fill="none" stroke="#000000" points="318.5,-336.5 318.5,-355.5 407.5,-355.5 407.5,-336.5 318.5,-336.5"/>
<text text-anchor="middle" x="363" y="-343.5" font-family="Helvetica,sans-Serif" font-size="10.00" fill="#000000">GPUdEdxInfo.h</text>
</a>
</g>
</g>
<!-- Node43&#45;&gt;Node46 -->
<g id="edge83" class="edge">
<title>Node43&#45;&gt;Node46</title>
<path fill="none" stroke="#191970" d="M351.1084,-448.4509C353.2286,-430.184 357.898,-389.9553 360.7137,-365.6976"/>
<polygon fill="#191970" stroke="#191970" points="364.218,-365.8618 361.8944,-355.5249 357.2647,-365.0546 364.218,-365.8618"/>
</g>
<!-- Node44&#45;&gt;Node8 -->
<g id="edge76" class="edge">
<title>Node44&#45;&gt;Node8</title>
<path fill="none" stroke="#191970" d="M279.3725,-392.3326C282.0707,-377.3444 289.5961,-348.8865 309,-336 354.3154,-305.9051 1170.2719,-293.3953 1384.7214,-290.619"/>
<polygon fill="#191970" stroke="#191970" points="1384.8133,-294.1182 1394.7676,-290.4903 1384.7236,-287.1187 1384.8133,-294.1182"/>
</g>
<!-- Node44&#45;&gt;Node24 -->
<g id="edge79" class="edge">
<title>Node44&#45;&gt;Node24</title>
<path fill="none" stroke="#191970" d="M326.1571,-392.4369C374.8248,-382.7724 450.0575,-367.8326 501.9821,-357.5213"/>
<polygon fill="#191970" stroke="#191970" points="502.9148,-360.9045 512.0415,-355.5237 501.5513,-354.0386 502.9148,-360.9045"/>
</g>
<!-- Node44&#45;&gt;Node36 -->
<g id="edge81" class="edge">
<title>Node44&#45;&gt;Node36</title>
<path fill="none" stroke="#191970" d="M276.7528,-392.216C275.5223,-378.0898 275.4599,-351.9334 289,-336 339.148,-276.9881 377.7558,-293.5667 454,-280 769.1497,-223.9229 1574.1248,-255.9934 1894,-244 1951.0855,-241.8596 2017.2862,-238.347 2057.3823,-236.1056"/>
<polygon fill="#191970" stroke="#191970" points="2057.6935,-239.5937 2067.481,-235.537 2057.3,-232.6048 2057.6935,-239.5937"/>
</g>
<!-- Node44&#45;&gt;Node45 -->
<g id="edge77" class="edge">
<title>Node44&#45;&gt;Node45</title>
<path fill="none" stroke="#191970" d="M255.1365,-392.3733C233.595,-383.3032 201.1162,-369.6279 177.0044,-359.4755"/>
<polygon fill="#191970" stroke="#191970" points="178.1397,-356.156 167.5652,-355.5011 175.4233,-362.6075 178.1397,-356.156"/>
</g>
<!-- Node44&#45;&gt;Node46 -->
<g id="edge80" class="edge">
<title>Node44&#45;&gt;Node46</title>
<path fill="none" stroke="#191970" d="M292.8059,-392.2455C305.7256,-383.7337 324.6931,-371.2375 339.6552,-361.3801"/>
<polygon fill="#191970" stroke="#191970" points="341.9387,-364.067 348.3638,-355.6427 338.0876,-358.2216 341.9387,-364.067"/>
</g>
<!-- Node45&#45;&gt;Node10 -->
<g id="edge78" class="edge">
<title>Node45&#45;&gt;Node10</title>
<path fill="none" stroke="#191970" d="M150.1644,-336.4283C159.9002,-317.4624 180,-273.5212 180,-234 180,-234 180,-234 180,-178 180,-66.9449 311.1838,-128.542 421,-112 559.015,-91.2103 1545.1416,-71.9352 1807.19,-67.1386"/>
<polygon fill="#191970" stroke="#191970" points="1807.3668,-70.6361 1817.3013,-66.9541 1807.2391,-63.6372 1807.3668,-70.6361"/>
</g>
<!-- Node47&#45;&gt;Node24 -->
<g id="edge91" class="edge">
<title>Node47&#45;&gt;Node24</title>
<path fill="none" stroke="#191970" d="M587.0075,-448.4335C594.3694,-435.443 605.0473,-411.5962 598,-392 594.0564,-381.0341 586.2403,-370.8227 578.7169,-362.8204"/>
<polygon fill="#191970" stroke="#191970" points="581.0101,-360.1653 571.4453,-355.6084 576.0807,-365.1354 581.0101,-360.1653"/>
</g>
<!-- Node47&#45;&gt;Node44 -->
<g id="edge90" class="edge">
<title>Node47&#45;&gt;Node44</title>
<path fill="none" stroke="#191970" d="M529.2567,-448.4369C476.747,-438.7321 395.4556,-423.708 339.6423,-413.3926"/>
<polygon fill="#191970" stroke="#191970" points="339.9994,-409.8994 329.5299,-411.5237 338.7272,-416.7829 339.9994,-409.8994"/>
</g>
<!-- Node48 -->
<g id="node49" class="node">
<title>Node48</title>
<g id="a_node49"><a xlink:href="../../d0/d88/GPUTPCTrack_8h.html" target="_top" xlink:title="GPUTPCTrack.h">
<polygon fill="none" stroke="#000000" points="874.5,-392.5 874.5,-411.5 965.5,-411.5 965.5,-392.5 874.5,-392.5"/>
<text text-anchor="middle" x="920" y="-399.5" font-family="Helvetica,sans-Serif" font-size="10.00" fill="#000000">GPUTPCTrack.h</text>
</a>
</g>
</g>
<!-- Node47&#45;&gt;Node48 -->
<g id="edge85" class="edge">
<title>Node47&#45;&gt;Node48</title>
<path fill="none" stroke="#191970" d="M638.891,-448.4369C701.9461,-438.0207 802.0966,-421.4767 864.2831,-411.204"/>
<polygon fill="#191970" stroke="#191970" points="865.0071,-414.6319 874.303,-409.5488 863.8662,-407.7255 865.0071,-414.6319"/>
</g>
<!-- Node47&#45;&gt;Node50 -->
<g id="edge92" class="edge">
<title>Node47&#45;&gt;Node50</title>
<path fill="none" stroke="#191970" d="M572.8132,-448.2455C566.1411,-440.2958 556.5521,-428.8706 548.5747,-419.3656"/>
<polygon fill="#191970" stroke="#191970" points="551.2026,-417.0524 542.093,-411.6427 545.8408,-421.5525 551.2026,-417.0524"/>
</g>
<!-- Node48&#45;&gt;Node8 -->
<g id="edge87" class="edge">
<title>Node48&#45;&gt;Node8</title>
<path fill="none" stroke="#191970" d="M936.7976,-392.2919C967.8665,-374.3685 1031.6491,-337.7388 1037,-336 1100.5204,-315.3585 1292.4044,-299.8508 1384.9693,-293.3523"/>
<polygon fill="#191970" stroke="#191970" points="1385.215,-296.8437 1394.9486,-292.6596 1384.7303,-289.8605 1385.215,-296.8437"/>
</g>
<!-- Node48&#45;&gt;Node38 -->
<g id="edge86" class="edge">
<title>Node48&#45;&gt;Node38</title>
<path fill="none" stroke="#191970" d="M965.8507,-395.1893C1029.7969,-385.6906 1146.488,-368.3572 1222.88,-357.0099"/>
<polygon fill="#191970" stroke="#191970" points="1223.5402,-360.4503 1232.9174,-355.5189 1222.5117,-353.5263 1223.5402,-360.4503"/>
</g>
<!-- Node49 -->
<g id="node50" class="node">
<title>Node49</title>
<g id="a_node50"><a xlink:href="../../d2/dd5/GPUTPCSliceOutCluster_8h.html" target="_top" xlink:title="GPUTPCSliceOutCluster.h">
<polygon fill="none" stroke="#000000" points="850,-336.5 850,-355.5 990,-355.5 990,-336.5 850,-336.5"/>
<text text-anchor="middle" x="920" y="-343.5" font-family="Helvetica,sans-Serif" font-size="10.00" fill="#000000">GPUTPCSliceOutCluster.h</text>
</a>
</g>
</g>
<!-- Node48&#45;&gt;Node49 -->
<g id="edge88" class="edge">
<title>Node48&#45;&gt;Node49</title>
<path fill="none" stroke="#191970" d="M920,-392.2455C920,-384.9382 920,-374.6944 920,-365.7046"/>
<polygon fill="#191970" stroke="#191970" points="923.5001,-365.6426 920,-355.6427 916.5001,-365.6427 923.5001,-365.6426"/>
</g>
<!-- Node49&#45;&gt;Node8 -->
<g id="edge89" class="edge">
<title>Node49&#45;&gt;Node8</title>
<path fill="none" stroke="#191970" d="M990.1188,-337.5866C994.8158,-337.0434 999.4759,-336.5101 1004,-336 1141.3602,-320.5112 1303.455,-303.6236 1384.4696,-295.2782"/>
<polygon fill="#191970" stroke="#191970" points="1385.2927,-298.7121 1394.8818,-294.2067 1384.576,-291.7489 1385.2927,-298.7121"/>
</g>
<!-- Node50&#45;&gt;Node46 -->
<g id="edge98" class="edge">
<title>Node50&#45;&gt;Node46</title>
<path fill="none" stroke="#191970" d="M504.6041,-392.3733C476.1693,-383.0613 432.9123,-368.8953 401.6919,-358.671"/>
<polygon fill="#191970" stroke="#191970" points="402.605,-355.2872 392.0124,-355.5011 400.4264,-361.9396 402.605,-355.2872"/>
</g>
<!-- Node51 -->
<g id="node52" class="node">
<title>Node51</title>
<g id="a_node52"><a xlink:href="../../da/d28/GPUO2FakeClasses_8h.html" target="_top" xlink:title="GPUO2FakeClasses.h">
<polygon fill="none" stroke="#000000" points="674,-336.5 674,-355.5 794,-355.5 794,-336.5 674,-336.5"/>
<text text-anchor="middle" x="734" y="-343.5" font-family="Helvetica,sans-Serif" font-size="10.00" fill="#000000">GPUO2FakeClasses.h</text>
</a>
</g>
</g>
<!-- Node50&#45;&gt;Node51 -->
<g id="edge93" class="edge">
<title>Node50&#45;&gt;Node51</title>
<path fill="none" stroke="#191970" d="M568.3812,-392.3733C602.0701,-382.9404 653.5482,-368.5265 690.1618,-358.2747"/>
<polygon fill="#191970" stroke="#191970" points="691.3815,-361.5679 700.0674,-355.5011 689.494,-354.8271 691.3815,-361.5679"/>
</g>
<!-- Node51&#45;&gt;Node10 -->
<g id="edge94" class="edge">
<title>Node51&#45;&gt;Node10</title>
<path fill="none" stroke="#191970" d="M770.9195,-336.4374C836.6192,-318.3275 967,-276.9746 967,-234 967,-234 967,-234 967,-178 967,-93.1936 1601.6853,-71.8731 1807.4434,-67.1895"/>
<polygon fill="#191970" stroke="#191970" points="1807.5725,-70.6876 1817.4922,-66.9663 1807.4169,-63.6893 1807.5725,-70.6876"/>
</g>
<!-- Node52 -->
<g id="node53" class="node">
<title>Node52</title>
<g id="a_node53"><a xlink:href="../../d4/dc5/GPUDataTypes_8h.html" target="_top" xlink:title="GPUDataTypes.h">
<polygon fill="none" stroke="#000000" points="1495,-280.5 1495,-299.5 1593,-299.5 1593,-280.5 1495,-280.5"/>
<text text-anchor="middle" x="1544" y="-287.5" font-family="Helvetica,sans-Serif" font-size="10.00" fill="#000000">GPUDataTypes.h</text>
</a>
</g>
</g>
<!-- Node51&#45;&gt;Node52 -->
<g id="edge95" class="edge">
<title>Node51&#45;&gt;Node52</title>
<path fill="none" stroke="#191970" d="M794.2343,-339.9722C809.483,-338.5559 825.8364,-337.1313 841,-336 1123.9618,-314.8883 1198.9765,-332.0329 1484.4498,-300.0563"/>
<polygon fill="#191970" stroke="#191970" points="1485.151,-303.4994 1494.6944,-298.8979 1484.3644,-296.5437 1485.151,-303.4994"/>
</g>
<!-- Node52&#45;&gt;Node10 -->
<g id="edge96" class="edge">
<title>Node52&#45;&gt;Node10</title>
<path fill="none" stroke="#191970" d="M1543.5685,-280.475C1542.7764,-250.5214 1544.7248,-157.5332 1596,-112 1626.488,-84.9262 1735.9387,-73.5647 1807.2239,-68.9605"/>
<polygon fill="#191970" stroke="#191970" points="1807.6853,-72.4387 1817.4506,-68.3291 1807.2539,-65.452 1807.6853,-72.4387"/>
</g>
<!-- Node52&#45;&gt;Node36 -->
<g id="edge97" class="edge">
<title>Node52&#45;&gt;Node36</title>
<path fill="none" stroke="#191970" d="M1593.2929,-284.9811C1702.1923,-273.8931 1961.2207,-247.5193 2057.3044,-237.7363"/>
<polygon fill="#191970" stroke="#191970" points="2057.8127,-241.2027 2067.4067,-236.7077 2057.1036,-234.2387 2057.8127,-241.2027"/>
</g>
<!-- Node53&#45;&gt;Node8 -->
<g id="edge102" class="edge">
<title>Node53&#45;&gt;Node8</title>
<path fill="none" stroke="#191970" d="M1110.8849,-392.4306C1141.5473,-375.1065 1204.2196,-339.9631 1215,-336 1271.2545,-315.32 1339.1676,-302.9317 1384.7335,-296.3086"/>
<polygon fill="#191970" stroke="#191970" points="1385.262,-299.7688 1394.6737,-294.9037 1384.2823,-292.8376 1385.262,-299.7688"/>
</g>
<!-- Node53&#45;&gt;Node54 -->
<g id="edge103" class="edge">
<title>Node53&#45;&gt;Node54</title>
<path fill="none" stroke="#191970" d="M1096.2644,-392.2455C1097.9794,-384.8579 1100.3912,-374.4689 1102.4944,-365.4087"/>
<polygon fill="#191970" stroke="#191970" points="1105.9095,-366.1751 1104.7615,-355.6427 1099.0908,-364.5922 1105.9095,-366.1751"/>
</g>
<!-- Node54&#45;&gt;Node9 -->
<g id="edge104" class="edge">
<title>Node54&#45;&gt;Node9</title>
<path fill="none" stroke="#191970" d="M1140.631,-336.4952C1192.7571,-322.1164 1296.3975,-294.9322 1386,-280 1542.0344,-253.9969 1729.9656,-241.0046 1812.1274,-236.224"/>
<polygon fill="#191970" stroke="#191970" points="1812.5262,-239.7071 1822.3103,-235.6423 1812.1269,-232.7185 1812.5262,-239.7071"/>
</g>
<!-- Node54&#45;&gt;Node52 -->
<g id="edge105" class="edge">
<title>Node54&#45;&gt;Node52</title>
<path fill="none" stroke="#191970" d="M1167.5136,-339.5984C1240.3808,-331.6788 1366.7151,-317.2769 1485.0225,-300.0853"/>
<polygon fill="#191970" stroke="#191970" points="1485.5917,-303.5394 1494.9798,-298.6289 1484.5785,-296.6131 1485.5917,-303.5394"/>
</g>
<!-- Node55&#45;&gt;Node8 -->
<g id="edge112" class="edge">
<title>Node55&#45;&gt;Node8</title>
<path fill="none" stroke="#191970" d="M1350.2006,-504.424C1357.1707,-483.735 1374.4301,-433.3879 1391,-392 1402.7543,-362.6404 1417.8359,-329.2066 1427.209,-308.8598"/>
<polygon fill="#191970" stroke="#191970" points="1430.4012,-310.2954 1431.4274,-299.7504 1424.0492,-307.3539 1430.4012,-310.2954"/>
</g>
<!-- Node55&#45;&gt;Node48 -->
<g id="edge113" class="edge">
<title>Node55&#45;&gt;Node48</title>
<path fill="none" stroke="#191970" d="M1307.0161,-504.4156C1269.3003,-495.303 1211.2163,-481.0835 1161,-468 1091.8265,-449.9774 1011.854,-427.8115 963.6437,-414.3031"/>
<polygon fill="#191970" stroke="#191970" points="964.4273,-410.8879 953.8536,-411.5566 962.5365,-417.6277 964.4273,-410.8879"/>
</g>
<!-- Node56&#45;&gt;Node1 -->
<g id="edge121" class="edge">
<title>Node56&#45;&gt;Node1</title>
<path fill="none" stroke="#191970" d="M2205.2107,-624.6608C2111.7963,-621.6722 1925.6273,-612.1149 1760.1349,-579.8544"/>
<polygon fill="#191970" stroke="#191970" points="1760.7601,-576.4103 1750.2705,-577.8993 1759.3992,-583.2768 1760.7601,-576.4103"/>
</g>
<!-- Node56&#45;&gt;Node2 -->
<g id="edge122" class="edge">
<title>Node56&#45;&gt;Node2</title>
<path fill="none" stroke="#191970" d="M2205.431,-622.4183C2121.5923,-616.7556 1964.2399,-603.8479 1832,-580 1830.7231,-579.7697 1829.4263,-579.5203 1828.1193,-579.2556"/>
<polygon fill="#191970" stroke="#191970" points="1828.5813,-575.7723 1818.0573,-576.9957 1827.0472,-582.6021 1828.5813,-575.7723"/>
</g>
<!-- Node56&#45;&gt;Node25 -->
<g id="edge130" class="edge">
<title>Node56&#45;&gt;Node25</title>
<path fill="none" stroke="#191970" d="M2282.2874,-616.4005C2314.7629,-597.0138 2379.7425,-551.0168 2358,-504 2339.256,-463.4672 2295.5858,-433.1365 2266.4237,-416.4882"/>
<polygon fill="#191970" stroke="#191970" points="2267.9611,-413.339 2257.5153,-411.5681 2264.5768,-419.4665 2267.9611,-413.339"/>
</g>
<!-- Node56&#45;&gt;Node26 -->
<g id="edge131" class="edge">
<title>Node56&#45;&gt;Node26</title>
<path fill="none" stroke="#191970" d="M2296.6662,-616.4625C2315.8634,-609.2266 2339.5521,-597.494 2355,-580 2411.9893,-515.4621 2431.7546,-409.6801 2437.72,-365.9158"/>
<polygon fill="#191970" stroke="#191970" points="2441.2242,-366.1026 2439.0054,-355.7427 2434.2794,-365.2251 2441.2242,-366.1026"/>
</g>
<!-- Node56&#45;&gt;Node27 -->
<g id="edge126" class="edge">
<title>Node56&#45;&gt;Node27</title>
<path fill="none" stroke="#191970" d="M2304.5936,-616.4453C2327.6733,-609.3438 2356.2306,-597.7591 2377,-580 2464.7644,-504.9561 2501.4451,-361.8822 2512.2988,-309.6843"/>
<polygon fill="#191970" stroke="#191970" points="2515.7616,-310.2156 2514.2808,-299.7248 2508.8962,-308.8493 2515.7616,-310.2156"/>
</g>
<!-- Node56&#45;&gt;Node28 -->
<g id="edge123" class="edge">
<title>Node56&#45;&gt;Node28</title>
<path fill="none" stroke="#191970" d="M2324.5047,-622.2787C2418.2216,-615.8048 2591.516,-601.1121 2610,-580 2615.8553,-573.3121 2610.7753,-568.855 2610,-560 2605.9847,-514.1416 2592,-504.0338 2592,-458 2592,-458 2592,-458 2592,-402 2592,-369.3778 2586.9046,-331.7135 2583.3544,-309.4301"/>
<polygon fill="#191970" stroke="#191970" points="2586.8053,-308.8456 2581.7193,-299.5514 2579.8993,-309.9887 2586.8053,-308.8456"/>
</g>
<!-- Node56&#45;&gt;Node34 -->
<g id="edge137" class="edge">
<title>Node56&#45;&gt;Node34</title>
<path fill="none" stroke="#191970" d="M2254.2086,-616.3739C2245.0355,-607.6728 2232.1002,-594.0997 2224,-580 2193.2642,-526.4993 2226.5909,-489.575 2181,-448 2162.296,-430.9435 2103.267,-418.779 2053.6511,-411.2604"/>
<polygon fill="#191970" stroke="#191970" points="2053.95,-407.7668 2043.5468,-409.7726 2052.9302,-414.6921 2053.95,-407.7668"/>
</g>
<!-- Node56&#45;&gt;Node36 -->
<g id="edge120" class="edge">
<title>Node56&#45;&gt;Node36</title>
<path fill="none" stroke="#191970" d="M2264.0002,-616.4522C2262.1672,-598.4142 2258.3344,-558.0783 2257,-524 2256.6522,-515.1179 2255.6917,-512.7921 2257,-504 2263.2907,-461.7248 2278.7093,-454.2752 2285,-412 2286.3083,-403.2079 2288.7848,-400.0429 2285,-392 2251.5556,-320.9297 2168.7128,-270.8867 2123.9099,-248.0136"/>
<polygon fill="#191970" stroke="#191970" points="2125.4689,-244.8801 2114.9582,-243.5474 2122.3437,-251.1438 2125.4689,-244.8801"/>
</g>
<!-- Node56&#45;&gt;Node52 -->
<g id="edge148" class="edge">
<title>Node56&#45;&gt;Node52</title>
<path fill="none" stroke="#191970" d="M2205.4119,-623.1434C2121.6611,-618.2459 1974.1907,-606.1327 1928,-580 1806.9335,-511.5059 1849.3313,-410.7121 1732,-336 1710.7433,-322.4645 1649.8562,-308.9987 1603.0761,-300.1676"/>
<polygon fill="#191970" stroke="#191970" points="1603.4988,-296.6863 1593.0277,-298.3003 1602.2199,-303.5685 1603.4988,-296.6863"/>
</g>
<!-- Node56&#45;&gt;Node55 -->
<g id="edge147" class="edge">
<title>Node56&#45;&gt;Node55</title>
<path fill="none" stroke="#191970" d="M2205.2666,-621.3897C2110.8516,-613.7077 1931.5341,-597.4045 1870,-580 1849.7185,-574.2635 1847.3608,-565.4484 1827,-560 1653.4864,-513.569 1600.6249,-543.8038 1418.2573,-524.0629"/>
<polygon fill="#191970" stroke="#191970" points="1418.3853,-520.5555 1408.0581,-522.9217 1417.6069,-527.5121 1418.3853,-520.5555"/>
</g>
<!-- Node57 -->
<g id="node58" class="node">
<title>Node57</title>
<polygon fill="none" stroke="#bfbfbf" points="2476,-560.5 2476,-579.5 2534,-579.5 2534,-560.5 2476,-560.5"/>
<text text-anchor="middle" x="2505" y="-567.5" font-family="Helvetica,sans-Serif" font-size="10.00" fill="#000000">memory</text>
</g>
<!-- Node56&#45;&gt;Node57 -->
<g id="edge124" class="edge">
<title>Node56&#45;&gt;Node57</title>
<path fill="none" stroke="#191970" d="M2305.9848,-616.4369C2350.823,-605.9746 2422.1562,-589.3302 2466.1369,-579.068"/>
<polygon fill="#191970" stroke="#191970" points="2466.9481,-582.4729 2475.8912,-576.7921 2465.3574,-575.656 2466.9481,-582.4729"/>
</g>
<!-- Node58 -->
<g id="node59" class="node">
<title>Node58</title>
<polygon fill="none" stroke="#bfbfbf" points="2552.5,-560.5 2552.5,-579.5 2601.5,-579.5 2601.5,-560.5 2552.5,-560.5"/>
<text text-anchor="middle" x="2577" y="-567.5" font-family="Helvetica,sans-Serif" font-size="10.00" fill="#000000">iosfwd</text>
</g>
<!-- Node56&#45;&gt;Node58 -->
<g id="edge125" class="edge">
<title>Node56&#45;&gt;Node58</title>
<path fill="none" stroke="#191970" d="M2324.5212,-618.2963C2378.8823,-610.7757 2461.5983,-598.1197 2542.3711,-579.9184"/>
<polygon fill="#191970" stroke="#191970" points="2543.2402,-583.3101 2552.2098,-577.6712 2541.6815,-576.4858 2543.2402,-583.3101"/>
</g>
<!-- Node59 -->
<g id="node60" class="node">
<title>Node59</title>
<polygon fill="none" stroke="#bfbfbf" points="1937.5,-560.5 1937.5,-579.5 2030.5,-579.5 2030.5,-560.5 1937.5,-560.5"/>
<text text-anchor="middle" x="1984" y="-567.5" font-family="Helvetica,sans-Serif" font-size="10.00" fill="#000000">unordered_map</text>
</g>
<!-- Node56&#45;&gt;Node59 -->
<g id="edge127" class="edge">
<title>Node56&#45;&gt;Node59</title>
<path fill="none" stroke="#191970" d="M2217.0137,-616.4369C2168.2246,-606.7138 2092.643,-591.6513 2040.874,-581.3343"/>
<polygon fill="#191970" stroke="#191970" points="2041.3439,-577.8592 2030.8526,-579.3372 2039.9757,-584.7242 2041.3439,-577.8592"/>
</g>
<!-- Node60 -->
<g id="node61" class="node">
<title>Node60</title>
<g id="a_node61"><a xlink:href="../../d7/d4f/GPUTRDDef_8h.html" target="_top" xlink:title="GPUTRDDef.h">
<polygon fill="none" stroke="#000000" points="2266.5,-504.5 2266.5,-523.5 2349.5,-523.5 2349.5,-504.5 2266.5,-504.5"/>
<text text-anchor="middle" x="2308" y="-511.5" font-family="Helvetica,sans-Serif" font-size="10.00" fill="#000000">GPUTRDDef.h</text>
</a>
</g>
</g>
<!-- Node56&#45;&gt;Node60 -->
<g id="edge128" class="edge">
<title>Node56&#45;&gt;Node60</title>
<path fill="none" stroke="#191970" d="M2268.6662,-616.4509C2275.7428,-598.0186 2291.4045,-557.2254 2300.6888,-533.043"/>
<polygon fill="#191970" stroke="#191970" points="2304.0263,-534.115 2304.3431,-523.5249 2297.4914,-531.606 2304.0263,-534.115"/>
</g>
<!-- Node61 -->
<g id="node62" class="node">
<title>Node61</title>
<g id="a_node62"><a xlink:href="../../d5/d5b/GPUOutputControl_8h.html" target="_top" xlink:title="GPUOutputControl.h">
<polygon fill="none" stroke="#000000" points="2696.5,-280.5 2696.5,-299.5 2811.5,-299.5 2811.5,-280.5 2696.5,-280.5"/>
<text text-anchor="middle" x="2754" y="-287.5" font-family="Helvetica,sans-Serif" font-size="10.00" fill="#000000">GPUOutputControl.h</text>
</a>
</g>
</g>
<!-- Node56&#45;&gt;Node61 -->
<g id="edge132" class="edge">
<title>Node56&#45;&gt;Node61</title>
<path fill="none" stroke="#191970" d="M2324.5777,-622.8864C2433.1167,-616.7137 2654.4734,-601.627 2682,-580 2706.5434,-560.7168 2706,-545.2125 2706,-514 2706,-514 2706,-514 2706,-402 2706,-366.4341 2726.7017,-329.2782 2740.9145,-307.9597"/>
<polygon fill="#191970" stroke="#191970" points="2743.8933,-309.8059 2746.7098,-299.5923 2738.1387,-305.8202 2743.8933,-309.8059"/>
</g>
<!-- Node64 -->
<g id="node65" class="node">
<title>Node64</title>
<g id="a_node65"><a xlink:href="../../db/df8/GPUConstantMem_8h.html" target="_top" xlink:title="GPUConstantMem.h">
<polygon fill="none" stroke="#000000" points="2049,-560.5 2049,-579.5 2163,-579.5 2163,-560.5 2049,-560.5"/>
<text text-anchor="middle" x="2106" y="-567.5" font-family="Helvetica,sans-Serif" font-size="10.00" fill="#000000">GPUConstantMem.h</text>
</a>
</g>
</g>
<!-- Node56&#45;&gt;Node64 -->
<g id="edge138" class="edge">
<title>Node56&#45;&gt;Node64</title>
<path fill="none" stroke="#191970" d="M2237.6669,-616.3733C2211.4566,-607.1419 2171.7016,-593.1402 2142.7332,-582.9375"/>
<polygon fill="#191970" stroke="#191970" points="2143.5712,-579.5219 2132.9764,-579.5011 2141.2458,-586.1244 2143.5712,-579.5219"/>
</g>
<!-- Node67 -->
<g id="node68" class="node">
<title>Node67</title>
<g id="a_node68"><a xlink:href="../../df/ddc/GPULogging_8h.html" target="_top" xlink:title="GPULogging.h">
<polygon fill="none" stroke="#000000" points="2625.5,-168.5 2625.5,-187.5 2710.5,-187.5 2710.5,-168.5 2625.5,-168.5"/>
<text text-anchor="middle" x="2668" y="-175.5" font-family="Helvetica,sans-Serif" font-size="10.00" fill="#000000">GPULogging.h</text>
</a>
</g>
</g>
<!-- Node56&#45;&gt;Node67 -->
<g id="edge149" class="edge">
<title>Node56&#45;&gt;Node67</title>
<path fill="none" stroke="#191970" d="M2324.7807,-624.4537C2414.1362,-621.142 2577.2535,-610.9298 2626,-580 2655.358,-561.3722 2668,-548.7691 2668,-514 2668,-514 2668,-514 2668,-290 2668,-257.7116 2668,-220.1872 2668,-197.8048"/>
<polygon fill="#191970" stroke="#191970" points="2671.5001,-197.5883 2668,-187.5884 2664.5001,-197.5884 2671.5001,-197.5883"/>
</g>
<!-- Node60&#45;&gt;Node10 -->
<g id="edge129" class="edge">
<title>Node60&#45;&gt;Node10</title>
<path fill="none" stroke="#191970" d="M2346.594,-504.463C2439.9848,-479.2386 2666.5174,-404.0657 2611,-280 2565.2301,-177.7173 2525.9379,-156.2768 2423,-112 2379.1443,-93.1363 2071.1898,-75.8594 1935.2419,-69.0578"/>
<polygon fill="#191970" stroke="#191970" points="1935.136,-65.5483 1924.9746,-68.5477 1934.7886,-72.5396 1935.136,-65.5483"/>
</g>
<!-- Node61&#45;&gt;Node10 -->
<g id="edge133" class="edge">
<title>Node61&#45;&gt;Node10</title>
<path fill="none" stroke="#191970" d="M2753.3978,-280.1796C2751.6063,-258.1253 2744.7007,-203.7998 2719,-168 2693.4766,-132.4471 2679.3702,-126.2815 2638,-112 2572.4294,-89.3643 2107.0674,-73.1443 1934.865,-67.8577"/>
<polygon fill="#191970" stroke="#191970" points="1934.7864,-64.3538 1924.6844,-67.5474 1934.5731,-71.3505 1934.7864,-64.3538"/>
</g>
<!-- Node61&#45;&gt;Node36 -->
<g id="edge134" class="edge">
<title>Node61&#45;&gt;Node36</title>
<path fill="none" stroke="#191970" d="M2696.2962,-285.1039C2563.7666,-273.859 2240.6141,-246.44 2131.0414,-237.1429"/>
<polygon fill="#191970" stroke="#191970" points="2131.0807,-233.6338 2120.8206,-236.2757 2130.4888,-240.6087 2131.0807,-233.6338"/>
</g>
<!-- Node62 -->
<g id="node63" class="node">
<title>Node62</title>
<polygon fill="none" stroke="#bfbfbf" points="2822.5,-224.5 2822.5,-243.5 2887.5,-243.5 2887.5,-224.5 2822.5,-224.5"/>
<text text-anchor="middle" x="2855" y="-231.5" font-family="Helvetica,sans-Serif" font-size="10.00" fill="#000000">functional</text>
</g>
<!-- Node61&#45;&gt;Node62 -->
<g id="edge135" class="edge">
<title>Node61&#45;&gt;Node62</title>
<path fill="none" stroke="#191970" d="M2771.5929,-280.2455C2787.379,-271.4928 2810.7639,-258.527 2828.7587,-248.5496"/>
<polygon fill="#191970" stroke="#191970" points="2830.5603,-251.5528 2837.6087,-243.6427 2827.1659,-245.4308 2830.5603,-251.5528"/>
</g>
<!-- Node63 -->
<g id="node64" class="node">
<title>Node63</title>
<polygon fill="none" stroke="#bfbfbf" points="2767.5,-224.5 2767.5,-243.5 2804.5,-243.5 2804.5,-224.5 2767.5,-224.5"/>
<text text-anchor="middle" x="2786" y="-231.5" font-family="Helvetica,sans-Serif" font-size="10.00" fill="#000000">new</text>
</g>
<!-- Node61&#45;&gt;Node63 -->
<g id="edge136" class="edge">
<title>Node61&#45;&gt;Node63</title>
<path fill="none" stroke="#191970" d="M2759.574,-280.2455C2763.9331,-272.617 2770.1211,-261.7881 2775.4133,-252.5267"/>
<polygon fill="#191970" stroke="#191970" points="2778.5673,-254.0616 2780.4899,-243.6427 2772.4896,-250.5886 2778.5673,-254.0616"/>
</g>
<!-- Node64&#45;&gt;Node7 -->
<g id="edge139" class="edge">
<title>Node64&#45;&gt;Node7</title>
<path fill="none" stroke="#191970" d="M2048.6551,-561.1488C2045.3918,-560.7362 2042.1561,-560.3493 2039,-560 1818.8766,-535.6361 1762.0963,-548.6073 1542,-524 1540.0564,-523.7827 1538.0823,-523.5506 1536.0902,-523.3066"/>
<polygon fill="#191970" stroke="#191970" points="1536.4039,-519.818 1526.0363,-522.0007 1535.5022,-526.7597 1536.4039,-519.818"/>
</g>
<!-- Node64&#45;&gt;Node25 -->
<g id="edge140" class="edge">
<title>Node64&#45;&gt;Node25</title>
<path fill="none" stroke="#191970" d="M2113.4751,-560.4862C2134.7929,-533.3545 2196.1373,-455.2798 2223.969,-419.8576"/>
<polygon fill="#191970" stroke="#191970" points="2226.852,-421.8535 2230.2781,-411.8279 2221.3477,-417.5287 2226.852,-421.8535"/>
</g>
<!-- Node64&#45;&gt;Node51 -->
<g id="edge146" class="edge">
<title>Node64&#45;&gt;Node51</title>
<path fill="none" stroke="#191970" d="M2051.0004,-560.4956C1999.1131,-551.4396 1919.1848,-537.2583 1850,-524 1727.4985,-500.5244 1692.6993,-509.2867 1575,-468 1556.6184,-461.5521 1554.2405,-454.8367 1536,-448 1473.823,-424.6955 1455.3311,-428.4497 1391,-412 1357.161,-403.3472 1349.4444,-397.7908 1315,-392 1106.6506,-356.972 1051.5196,-373.8304 841,-356 829.1629,-354.9974 816.5949,-353.875 804.3918,-352.7543"/>
<polygon fill="#191970" stroke="#191970" points="804.5311,-349.2523 794.2512,-351.816 803.8861,-356.2225 804.5311,-349.2523"/>
</g>
<!-- Node64&#45;&gt;Node52 -->
<g id="edge141" class="edge">
<title>Node64&#45;&gt;Node52</title>
<path fill="none" stroke="#191970" d="M2094.1136,-560.3316C2044.4298,-520.0924 1852.6905,-366.5735 1782,-336 1724.302,-311.0457 1652.9058,-299.5514 1603.4414,-294.3055"/>
<polygon fill="#191970" stroke="#191970" points="1603.5321,-290.797 1593.2319,-293.2783 1602.8313,-297.7618 1603.5321,-290.797"/>
</g>
<!-- Node64&#45;&gt;Node60 -->
<g id="edge145" class="edge">
<title>Node64&#45;&gt;Node60</title>
<path fill="none" stroke="#191970" d="M2140.725,-560.3733C2174.7508,-550.9404 2226.7437,-536.5265 2263.7234,-526.2747"/>
<polygon fill="#191970" stroke="#191970" points="2265.0266,-529.5455 2273.7281,-523.5011 2263.1565,-522.7999 2265.0266,-529.5455"/>
</g>
<!-- Node65 -->
<g id="node66" class="node">
<title>Node65</title>
<g id="a_node66"><a xlink:href="../../da/da4/GPUErrors_8h.html" target="_top" xlink:title="GPUErrors.h">
<polygon fill="none" stroke="#000000" points="2058.5,-504.5 2058.5,-523.5 2133.5,-523.5 2133.5,-504.5 2058.5,-504.5"/>
<text text-anchor="middle" x="2096" y="-511.5" font-family="Helvetica,sans-Serif" font-size="10.00" fill="#000000">GPUErrors.h</text>
</a>
</g>
</g>
<!-- Node64&#45;&gt;Node65 -->
<g id="edge142" class="edge">
<title>Node64&#45;&gt;Node65</title>
<path fill="none" stroke="#191970" d="M2104.2581,-560.2455C2102.9533,-552.9382 2101.124,-542.6944 2099.5187,-533.7046"/>
<polygon fill="#191970" stroke="#191970" points="2102.9254,-532.8717 2097.7219,-523.6427 2096.0344,-534.1022 2102.9254,-532.8717"/>
</g>
<!-- Node65&#45;&gt;Node9 -->
<g id="edge143" class="edge">
<title>Node65&#45;&gt;Node9</title>
<path fill="none" stroke="#191970" d="M2086.3508,-504.4346C2078.35,-495.7723 2067.5738,-482.2221 2063,-468 2060.2786,-459.5379 2060.8102,-456.6149 2063,-448 2076.4292,-395.1671 2143.6818,-381.0586 2113,-336 2087.6456,-298.7651 1961.8627,-261.668 1895.3699,-244.255"/>
<polygon fill="#191970" stroke="#191970" points="1896.1781,-240.8489 1885.6201,-241.7315 1894.4241,-247.6256 1896.1781,-240.8489"/>
</g>
<!-- Node66 -->
<g id="node67" class="node">
<title>Node66</title>
<g id="a_node67"><a xlink:href="../../de/d0d/GPUErrorCodes_8h.html" target="_top" xlink:title="GPUErrorCodes.h">
<polygon fill="none" stroke="#000000" points="2072,-448.5 2072,-467.5 2172,-467.5 2172,-448.5 2072,-448.5"/>
<text text-anchor="middle" x="2122" y="-455.5" font-family="Helvetica,sans-Serif" font-size="10.00" fill="#000000">GPUErrorCodes.h</text>
</a>
</g>
</g>
<!-- Node65&#45;&gt;Node66 -->
<g id="edge144" class="edge">
<title>Node65&#45;&gt;Node66</title>
<path fill="none" stroke="#191970" d="M2100.5289,-504.2455C2104.0334,-496.6973 2108.9927,-486.0158 2113.2623,-476.8197"/>
<polygon fill="#191970" stroke="#191970" points="2116.4864,-478.1867 2117.523,-467.6427 2110.1373,-475.2389 2116.4864,-478.1867"/>
</g>
<!-- Node67&#45;&gt;Node10 -->
<g id="edge150" class="edge">
<title>Node67&#45;&gt;Node10</title>
<path fill="none" stroke="#191970" d="M2662.9326,-168.2109C2654.4856,-153.056 2635.9587,-124.3739 2611,-112 2551.2723,-82.3886 2103.6213,-70.5788 1934.9973,-67.1506"/>
<polygon fill="#191970" stroke="#191970" points="1934.8468,-63.647 1924.7788,-66.9462 1934.7068,-70.6456 1934.8468,-63.647"/>
</g>
</g>
</svg>
